<?xml version="1.0" encoding="UTF-8" standalone="no"?>
<!-- Created with Inkscape (http://www.inkscape.org/) -->

<svg
   xmlns:dc="http://purl.org/dc/elements/1.1/"
   xmlns:cc="http://creativecommons.org/ns#"
   xmlns:rdf="http://www.w3.org/1999/02/22-rdf-syntax-ns#"
   xmlns:svg="http://www.w3.org/2000/svg"
   xmlns="http://www.w3.org/2000/svg"
   xmlns:sodipodi="http://sodipodi.sourceforge.net/DTD/sodipodi-0.dtd"
   xmlns:inkscape="http://www.inkscape.org/namespaces/inkscape"
   width="1024"
   height="1024"
   viewBox="0 0 270.93333 270.93333"
   version="1.1"
   id="svg8"
   inkscape:version="0.92.4 (5da689c313, 2019-01-14)"
   sodipodi:docname="crate.svg">
  <defs
     id="defs2" />
  <sodipodi:namedview
     id="base"
     pagecolor="#ffffff"
     bordercolor="#666666"
     borderopacity="1.0"
     inkscape:pageopacity="0.0"
     inkscape:pageshadow="2"
     inkscape:zoom="0.49497475"
     inkscape:cx="545.43281"
     inkscape:cy="457.83512"
     inkscape:document-units="mm"
     inkscape:current-layer="layer1"
     showgrid="false"
     units="px"
     width="1024px"
     inkscape:window-width="1920"
     inkscape:window-height="1017"
     inkscape:window-x="-8"
     inkscape:window-y="-8"
     inkscape:window-maximized="1" />
  <metadata
     id="metadata5">
    <rdf:RDF>
      <cc:Work
         rdf:about="">
        <dc:format>image/svg+xml</dc:format>
        <dc:type
           rdf:resource="http://purl.org/dc/dcmitype/StillImage" />
        <dc:title></dc:title>
      </cc:Work>
    </rdf:RDF>
  </metadata>
  <g
     inkscape:label="Layer 1"
     inkscape:groupmode="layer"
     id="layer1"
     transform="translate(0,-26.066657)">
    <path
       id="path130"
       d="m 23.10251,54.923004 c -0.533071,2.790701 -0.59548,5.635117 -0.693506,8.46518 -0.105821,3.685791 -0.06414,7.374273 0.083,11.057995 0.115795,3.767074 0.252055,7.532944 0.305397,11.302093 0.130385,4.031273 0.205326,8.063968 0.165224,12.097202 -0.146931,3.750556 -0.175285,7.502726 -0.157143,11.255426 0.06286,3.72557 0.216042,7.4504 0.201854,11.17719 -0.04914,4.08286 -0.32649,8.1583 -0.473537,12.23854 -0.201929,3.28897 -0.03882,6.57084 0.221734,9.84938 0.30427,3.17694 0.580674,6.3596 0.74031,9.54736 0.229851,3.12255 0.317671,6.25091 0.385892,9.38029 0.07275,2.87084 0.0801,5.74052 -0.01848,8.61039 -0.10181,2.93141 -0.526654,5.83929 -0.844881,8.75232 -0.306976,2.6414 -0.372871,5.30193 -0.427464,7.95804 -0.017,2.60407 -0.02197,5.20813 -0.02039,7.81225 0.0071,2.43344 -0.02722,4.86681 0.06914,7.29877 0.05071,2.42649 0.0753,4.85336 0.08951,7.2803 0.01895,2.00799 0.0096,4.01652 0.0098,6.0248 0.02297,2.15953 0.01247,4.3194 0.01227,6.47907 0.03322,2.0463 4.5e-4,4.09137 -0.04944,6.13705 -0.02333,1.80253 -0.04668,3.60495 -0.0549,5.40766 -0.0061,1.85068 -0.0055,3.70137 -0.0053,5.55205 3.18e-4,1.63577 6.09e-4,3.27154 7.41e-4,4.90731 -0.0048,1.66856 0.01246,3.33723 -0.01292,5.00563 0.02613,1.5636 -1e-6,3.12714 -3e-6,4.69071 -0.01323,1.26203 0.01305,2.52399 0.01305,3.78584 0.0031,0.93657 0.01679,1.8719 -0.05759,2.80611 -0.05108,0.58953 -0.120527,1.17643 -0.208928,1.76152 -0.168454,0.98954 -0.426162,1.95402 -0.77329,2.89501 -0.189286,0.50091 -0.38582,0.99867 -0.576673,1.499 -0.152127,0.64818 -0.424003,1.26893 -0.661566,1.89223 -0.448847,1.22232 -1.156088,2.25816 -2.108935,3.1382 -0.724593,0.62831 -1.565809,0.87956 -2.490842,1.01903 -7.0874707,1.39167 -9.0555828,-8.63153 -1.968112,-10.0232 v 0 c -0.814345,0.12053 -1.564889,0.31861 -2.198197,0.88103 -0.396483,0.37905 -0.884002,0.81092 -1.020565,1.37228 -0.01018,0.0418 0.03522,-0.0786 0.05283,-0.11791 0.23853,-0.62014 0.499538,-1.22655 0.680078,-1.86755 0.191368,-0.50169 0.389915,-1.00038 0.578251,-1.50314 0.127333,-0.24493 0.157987,-0.53288 0.240778,-0.79535 0.06303,-0.35038 0.0823,-0.6745 0.121418,-1.04127 0.07416,-0.63172 -0.01765,-1.28049 0.01932,-1.91599 0,-1.26186 0.02628,-2.52382 0.01305,-3.78585 2e-6,-1.56355 -0.02612,-3.12707 4e-6,-4.69066 -0.02539,-1.6681 -0.0081,-3.33647 -0.01318,-5.00473 -1.49e-4,-1.63575 -4.23e-4,-3.27151 -7.4e-4,-4.90726 -1.78e-4,-1.86682 -8.47e-4,-3.73365 0.0054,-5.60046 0.0086,-1.87094 0.01311,-3.74272 0.08397,-5.61252 0.04786,-1.96169 0.07983,-3.92334 0.07328,-5.8857 1.93e-4,-2.15917 -0.0096,-4.31855 0.01383,-6.47759 -1.07e-4,-1.98848 -0.0091,-3.97692 -0.0096,-5.9652 -0.01391,-2.38435 -0.03806,-4.76865 -0.08798,-7.15256 0.0057,-2.49341 -0.03289,-4.98693 -0.01865,-7.48049 -0.0016,-2.67681 -0.01597,-5.35433 0.04869,-8.03053 0.06265,-2.98747 0.18591,-5.97527 0.548317,-8.94386 0.34072,-2.66069 0.676914,-5.32157 0.914163,-7.99379 0.14706,-2.6788 0.108866,-5.36018 0.114092,-8.04212 -0.01152,-3.00923 -0.06072,-6.01809 -0.165876,-9.02553 -0.153472,-3.09721 -0.36499,-6.1881 -0.618477,-9.27882 -0.286044,-3.68542 -0.339122,-7.38732 -0.108697,-11.07846 0.254249,-3.97558 0.685313,-7.93591 0.933429,-11.91185 0.113437,-3.72542 0.188979,-7.45099 0.373211,-11.17344 0.147327,-3.78292 0.361675,-7.56262 0.550811,-11.343493 0.194326,-3.951248 0.348436,-7.903327 0.432504,-11.85881 0.04952,-3.773599 0.17802,-7.544131 0.295755,-11.315592 0.16027,-3.772622 0.198481,-7.548843 0.340455,-11.322341 0.158311,-3.152497 0.413377,-6.308516 0.965726,-9.41932 0.86842,-4.3477 7.016995,-3.119568 6.148575,1.22813 z"
       inkscape:connector-curvature="0"
       style="stroke-width:0.26458332" />
    <path
       id="path136"
       d="m 11.206832,269.21286 c 1.854889,-0.29009 3.694507,-0.73006 5.565098,-0.91651 1.657532,-0.28379 3.313111,0.0699 4.96851,0.11341 2.149371,-0.0298 4.297235,0.0613 6.44603,0.10707 3.723835,0.11482 7.445049,0.22748 11.171314,0.19232 4.724651,0.009 9.442082,-0.17434 14.159198,-0.41596 4.95088,-0.34419 9.900189,-0.67603 14.857909,-0.9059 4.59807,-0.16445 9.199103,-0.23363 13.798971,-0.33376 4.554416,-0.16684 9.107347,-0.36778 13.660802,-0.55795 4.190156,-0.18342 8.383156,-0.26988 12.576246,-0.34991 3.60758,-0.0675 7.2112,-0.24842 10.80791,-0.53302 3.08816,-0.28553 6.16365,-0.68811 9.24934,-0.99623 2.8076,-0.27467 5.61825,-0.53099 8.43064,-0.75194 3.11586,-0.23632 6.23779,-0.39445 9.36116,-0.48508 2.95039,-0.0564 5.90069,-0.0838 8.85075,-0.15772 3.10214,-0.10555 6.18516,-0.47085 9.27225,-0.76614 2.97639,-0.24842 5.95944,-0.36121 8.94363,-0.45713 2.59049,-0.0285 5.18058,-0.0589 7.77024,-0.1327 2.63833,-0.12536 5.27965,-0.17053 7.92052,-0.20107 2.96481,-0.0281 5.92958,-5.3e-4 8.89363,-0.0808 3.23794,-0.10357 6.46516,-0.40016 9.6942,-0.64704 3.2212,-0.26493 6.44787,-0.44664 9.6757,-0.60643 2.7076,-0.12962 5.4171,-0.20441 8.12736,-0.24487 2.00339,-0.0162 4.00734,-0.053 6.01026,0.006 1.32122,0.0333 2.63035,0.19168 3.8993,0.56178 0.59471,0.20244 1.14316,0.50871 1.6763,0.83579 0.28821,0.1775 0.13895,0.0729 0.44124,0.32292 3.69316,3.59497 -1.3909,8.8179 -5.08406,5.22292 v 0 c 0.26956,0.21935 0.13891,0.13363 0.38229,0.2713 0.13686,0.0741 0.26888,0.13869 0.42199,0.17099 -0.48297,-0.15811 -1.35007,-0.20196 -1.95579,-0.23075 -1.89434,-0.0605 -3.79017,-0.0133 -5.685,-0.003 -2.62779,0.039 -5.25484,0.11149 -7.88007,0.23691 -3.16384,0.15653 -6.32657,0.33423 -9.48389,0.59436 -3.34688,0.25581 -6.69196,0.56178 -10.04825,0.6653 -3.00046,0.0794 -6.00145,0.0576 -9.00267,0.0829 -2.60078,0.0299 -5.20046,0.0945 -7.80019,0.17256 -2.60371,0.074 -5.20784,0.10635 -7.8124,0.13378 -2.85184,0.0356 -5.70234,0.16444 -8.54602,0.38468 -3.21817,0.20161 -6.43828,0.39069 -9.66119,0.49815 -2.94098,0.0731 -5.88345,0.0522 -8.82445,0.1309 -3.01239,0.0869 -6.02474,0.18923 -9.02894,0.4411 -2.76584,0.21729 -5.53535,0.38816 -8.2969,0.6614 -3.1471,0.31401 -6.29372,0.64867 -9.44998,0.85621 -3.72629,0.23625 -7.45591,0.33071 -11.18983,0.31396 -4.14597,0.0252 -8.29207,0.0772 -12.436626,0.18989 -4.583343,0.13637 -9.163645,0.38057 -13.749377,0.42913 -4.562467,0.0992 -9.1264,0.11691 -13.688161,0.25195 -4.949084,0.17412 -9.888772,0.5273 -14.834473,0.77426 -4.845814,0.19701 -9.694767,0.15274 -14.538486,-0.10127 -3.779139,-0.19895 -7.56507,-0.3456 -11.331696,-0.72193 -2.22903,-0.213 -4.487683,-0.30652 -6.675545,-0.81009 -1.39957,-0.32004 -2.837337,-0.43178 -4.267921,-0.53086 -1.790585,0.0112 -3.581328,-0.11933 -5.365764,0.11018 -1.9753655,0.27938 -2.3704741,-2.51421 -0.395109,-2.79359 z"
       inkscape:connector-curvature="0"
       style="stroke-width:0.26458332" />
    <path
       id="path140"
       d="m 233.24196,269.47222 c -0.32367,-1.88791 -0.34583,-3.80283 -0.63397,-5.69586 -0.19144,-1.75461 -0.41934,-3.50344 -0.54538,-5.26675 -0.0872,-2.05321 -0.16056,-4.11996 -0.0694,-6.17477 0.0925,-2.04528 0.37824,-4.07417 0.51392,-6.11605 0.17286,-1.52869 0.35417,-3.04705 0.42301,-4.58597 0.0122,-1.57891 -0.0102,-3.15016 0.0251,-4.73005 -0.0125,-1.59938 -0.0349,-3.19739 -0.085,-4.79676 -0.12588,-1.61235 -0.18351,-3.2257 -0.18397,-4.84609 -0.0195,-1.76642 -0.002,-3.53311 -0.0267,-5.29951 0.007,-1.92902 5.3e-4,-3.85772 -0.0261,-5.78653 -0.0265,-1.79782 -0.0254,-3.59612 -0.0522,-5.39411 0.004,-1.71621 -0.15026,-3.426 -0.24565,-5.13787 -0.0758,-1.66994 -0.19623,-3.33715 -0.42114,-4.99386 -0.23504,-1.7465 -0.39867,-3.50143 -0.52864,-5.25852 -0.15209,-1.86173 -0.16749,-3.73146 -0.18452,-5.59832 -6e-5,-1.6257 -0.0642,-3.24927 -0.007,-4.87455 -0.003,-1.44213 -0.0244,-2.88299 -0.0241,-4.32528 -0.0138,-1.35951 -0.0128,-2.71906 -0.0128,-4.07872 0.008,-1.53397 0.0246,-3.06833 -1e-5,-4.60254 0.0198,-1.63354 -0.0379,-3.26618 -0.0798,-4.89891 -0.10067,-2.01563 -0.13726,-4.0334 -0.15991,-6.05115 -0.0128,-2.2476 -0.0345,-4.49546 -0.002,-6.74294 0.0554,-1.99405 0.0694,-3.98901 0.12251,-5.98304 0.0211,-1.92144 0.22537,-3.83246 0.37538,-5.74611 0.089,-1.49122 0.18255,-2.98241 0.24281,-4.47515 0.0597,-1.44669 0.19756,-2.88693 0.30439,-4.33029 0.0932,-1.08249 0.14272,-2.16761 0.16733,-3.25358 0.0498,-1.19224 0.15269,-2.37972 0.2491,-3.56874 0.11106,-1.40184 0.28517,-2.79837 0.43224,-4.19706 0.12774,-1.06992 0.15534,-2.14647 0.18146,-3.22241 0.0188,-1.05069 0.0169,-2.10161 0.0164,-3.15242 0.0118,-1.00867 -0.0149,-2.0172 -0.0154,-3.02566 0.0142,-0.99162 0.0126,-1.98333 0.0126,-2.97515 -1e-5,-1.18978 0,-2.37956 0,-3.56935 0.0207,-1.13937 -0.0142,-2.27697 -0.0573,-3.41522 -0.0542,-1.22819 -0.10559,-2.45721 -0.1783,-3.68452 -0.0899,-1.288513 -0.13102,-2.579325 -0.15415,-3.870513 -0.076,-1.245669 -0.0695,-2.494553 -0.12559,-3.740547 -0.0546,-1.032899 -0.12403,-2.067708 -0.29302,-3.089132 -0.17934,-0.982856 -0.37455,-1.962565 -0.55764,-2.944717 -0.1865,-1.002713 -0.35469,-2.008034 -0.56506,-3.006199 -0.25523,-1.086588 -0.47579,-2.180722 -0.6977,-3.274483 -0.21628,-1.02694 -0.43335,-2.053725 -0.64348,-3.081938 -0.24396,-1.061601 -0.36415,-2.145821 -0.43864,-3.230946 -0.0218,-0.748072 -0.0884,-1.493269 -0.12649,-2.240629 -0.0483,-0.704752 -0.0117,-1.408237 -0.0143,-2.113299 0.003,-0.730766 0.0126,-1.460958 0.013,-2.191848 2.6e-4,-0.773374 0.0264,-1.544185 -0.0172,-2.316596 -0.0556,-0.82196 -0.0798,-1.645632 -0.0687,-2.46929 -0.009,-0.671113 -0.0103,-1.342303 -0.0104,-2.013469 0.002,-0.379553 0.0136,-0.7577 0.0138,-1.137428 0.0163,-0.54783 0.0132,-1.096012 0.0133,-1.644274 1e-5,-0.579004 0,-1.158007 0,-1.737011 0,-0.545097 0,-1.090191 0,-1.635289 0,-0.498599 0,-0.997198 0,-1.495797 0.0133,-0.153268 -0.0306,-0.336205 0.0261,-0.470798 0.005,-0.01848 0.0274,-0.01658 0.0392,-0.02371 1e-5,-7.334125 10.37203,-7.33411 10.37202,1.5e-5 v 0 c 0.0118,0.0071 0.0337,0.0052 0.0392,0.0237 0.0567,0.134593 0.0128,0.31753 0.0261,0.470797 0,0.498596 0,0.997193 0,1.49579 0,0.545086 0,1.09017 0,1.635257 0,0.579101 1e-5,1.158203 0,1.737304 -1e-5,0.549836 -0.003,1.099587 0.0129,1.649 -1.8e-4,0.377193 0.01,0.752853 0.0123,1.129861 1.4e-4,0.612404 8e-4,1.22483 0.009,1.837192 0.038,0.691873 0.0621,1.384372 0.10697,2.07608 0.0506,0.963806 0.061,1.928683 0.0587,2.893698 -2.7e-4,0.716369 0.007,1.43203 0.013,2.148263 0.002,0.539739 0.0405,1.075198 0.0531,1.614969 0.034,0.694613 0.0995,1.386774 0.14341,2.080413 0.0346,0.603544 0.12824,1.195237 0.2716,1.783575 0.20795,1.030182 0.42976,2.057537 0.64437,3.086349 0.21731,1.071168 0.4547,2.135433 0.70869,3.198547 0.22544,1.077871 0.41385,2.161914 0.61233,3.244837 0.20119,1.079188 0.41799,2.155304 0.60793,3.236619 0.22015,1.426837 0.35207,2.862718 0.3892,4.306625 0.0568,1.339194 0.11101,2.678433 0.16018,4.017944 0.0199,1.146718 0.0566,2.293036 0.13779,3.437295 0.0739,1.299243 0.13265,2.599703 0.18861,3.899773 0.0483,1.27431 0.0846,2.54835 0.065,3.8238 -1e-5,1.18969 -2e-5,2.37938 -1e-5,3.56906 2e-5,0.99018 -0.002,1.98024 0.0135,2.9702 5.3e-4,1.00875 -0.0244,2.0176 -0.0107,3.02654 5.3e-4,1.14215 0.002,2.28442 -0.0198,3.42642 -0.0349,1.3628 -0.12084,2.72353 -0.26334,4.0796 -0.1298,1.23137 -0.28386,2.46054 -0.36515,3.69618 -0.0411,1.06532 -0.098,2.13024 -0.12946,3.19574 -0.0301,1.27185 -0.087,2.54286 -0.19456,3.81078 -0.0994,1.32073 -0.14724,2.64385 -0.2311,3.96566 -0.0669,1.63042 -0.16632,3.25938 -0.26744,4.88795 -0.13624,1.72665 -0.32563,3.45072 -0.3457,5.18442 -0.054,1.94963 -0.0632,3.9004 -0.11971,5.85006 -0.0336,2.15214 -0.007,4.3048 0.003,6.45708 0.0212,1.90827 0.0552,3.81657 0.15131,5.72281 0.0964,1.78126 0.12646,3.56557 0.1152,5.34938 -0.0246,1.53423 -0.008,3.06862 2e-5,4.60261 -1e-5,1.36045 10e-4,2.7208 -0.0133,4.0811 -2.6e-4,1.44375 -0.0227,2.88602 -0.0281,4.32959 0.0538,1.59028 -0.0122,3.17879 0.007,4.76942 0.0146,1.6336 0.0431,3.26695 0.12952,4.89861 0.11734,1.60176 0.24732,3.20128 0.43217,4.79686 0.19789,1.93031 0.34701,3.86285 0.40698,5.80297 0.0514,1.86219 0.10849,3.72554 0.0724,5.58854 -0.0268,1.798 -0.0257,3.5963 -0.0522,5.39412 -0.0267,1.9287 -0.0327,3.85729 -0.0261,5.7862 -0.0244,1.76552 -0.007,3.53132 -0.0255,5.29687 5.2e-4,1.62482 -0.056,3.24258 -0.18227,4.85942 -0.055,1.66971 -0.0807,3.33669 -0.15235,5.00566 -0.039,1.72008 -0.20013,3.41457 -0.35674,5.12636 -0.14194,1.75153 -0.35857,3.5071 -0.74961,5.22112 -0.3811,1.72958 -0.55749,3.49776 -0.672,5.26328 -0.0888,1.98256 -0.30587,3.9599 -0.4722,5.93569 -0.21717,1.77485 -0.40121,3.55187 -0.68375,5.31703 -0.38216,1.87313 -0.60454,3.77172 -1.03711,5.63531 -0.10508,3.87789 -5.58925,3.72927 -5.48416,-0.14862 z"
       inkscape:connector-curvature="0"
       style="stroke-width:0.26458332" />
    <path
       id="path142"
       d="m 20.565002,48.635841 c 2.312598,-0.308568 4.635485,-0.54449 6.93893,-0.918217 2.170406,-0.313586 4.355375,-0.463772 6.540055,-0.629209 1.797183,-0.0414 3.595219,-0.118872 5.392926,-0.122019 1.656439,-0.03035 3.311781,-0.06358 4.968726,-0.08784 1.724301,-0.09115 3.453437,-0.07798 5.180211,-0.102949 2.207789,0.03549 4.415626,0.02511 6.623537,0.0023 2.727365,-0.02808 5.452263,-0.117987 8.179586,-0.141973 2.510546,-0.03073 5.021326,0.0081 7.531758,-0.03152 2.413432,0.01142 4.826678,-0.0016 7.239987,0.03506 2.502033,0.0278 4.996588,0.226277 7.486801,0.454652 2.584008,0.274687 5.179846,0.336654 7.774855,0.403923 2.695168,0.02463 5.388216,0.1227 8.082086,0.200946 2.55465,0.09731 5.11052,0.164602 7.66487,0.266216 2.29338,0.117973 4.5884,0.18963 6.88436,0.228169 2.01674,0.0382 4.0336,0.0021 6.05041,0.0029 1.9286,0.007 3.85692,-0.01425 5.78547,-0.01479 1.82251,-0.01054 3.64532,-0.02663 5.46787,-0.02667 2.00232,0.02729 4.00426,-0.01279 6.00677,-0.0028 2.51016,-0.01323 5.02046,-0.0026 7.53068,-0.0018 2.2628,-0.0053 4.52572,0.01334 6.7884,-0.01312 2.33679,0.02935 4.67029,-0.05251 7.00126,-0.209335 2.16498,-0.170747 4.3324,-0.309885 6.49677,-0.487986 1.77653,-0.206476 3.55876,-0.354603 5.33215,-0.589804 1.34768,-0.212745 2.69505,-0.422148 4.05377,-0.550106 0.94747,-0.07769 1.89816,-0.09159 2.84801,-0.110725 0.91883,-0.03492 1.83654,-0.09123 2.75534,-0.127155 1.07898,-0.026 2.15674,-0.03515 3.23367,-0.110853 1.59727,-0.195305 3.18552,-0.457588 4.77813,-0.686972 2.02975,-0.271088 4.0726,-0.415798 6.11425,-0.560981 2.20736,-0.142284 4.41009,-0.341575 6.61704,-0.490381 1.9109,-0.104113 3.82349,-0.153249 5.73689,-0.173496 1.54707,-0.01145 3.0942,-0.0087 4.64129,-0.0075 1.27689,0.01443 2.55373,-0.01111 3.83045,-0.01073 0.90118,2.28e-4 1.80235,2.55e-4 2.70352,2.59e-4 0.68849,-0.02739 1.37633,-0.03917 2.06588,-0.03917 0.47257,-4e-6 0.94513,-5e-6 1.4177,-6e-6 0.66317,0 1.32634,0 1.98951,0 0.89151,-0.01144 1.78155,0.0013 2.67107,0.06264 0.85711,0.06455 1.70813,0.183467 2.55826,0.307004 0.37938,0.04981 0.76222,0.08307 1.14476,0.101137 0.0941,0.0057 0.18833,0.0047 0.28255,0.0044 0.28851,-0.02583 0.58441,0.06897 0.87199,0.02573 0.11735,-0.03232 0.23882,-0.03741 0.35685,-0.05792 0.30948,-0.01226 0.47604,0.290563 0.69504,0.494201 0.11943,0.428964 0.23886,0.857928 0.35829,1.286892 3.44524,0.916166 2.14959,5.788473 -1.29566,4.872307 v 0 c 0.0762,0.417463 0.15237,0.834926 0.22855,1.25239 0.32218,0.442811 0.35049,0.475191 -0.0582,0.479771 -0.21511,-0.0019 -0.42666,-0.0554 -0.64022,-0.07993 -0.1193,-0.01368 -1.09321,-0.08864 -0.4881,-0.07033 -0.24688,7.93e-4 -0.49377,-0.0021 -0.74036,-0.01558 -0.63401,-0.03466 -1.26502,-0.09506 -1.89146,-0.201005 -0.6546,-0.09514 -1.30908,-0.191728 -1.96897,-0.243073 -0.69386,-0.05361 -1.38881,-0.04415 -2.08436,-0.04156 -0.66317,0 -1.32634,0 -1.98951,0 -0.47254,10e-7 -0.94508,2e-6 -1.41763,6e-6 -0.68959,5e-6 -1.37746,-0.01176 -2.06599,-0.03913 -0.90195,-4e-6 -1.80391,-3.1e-5 -2.70586,-2.59e-4 -1.27809,-3.71e-4 -2.55627,-0.0273 -3.83453,-0.01537 -1.51671,-0.0012 -3.03344,-0.0039 -4.55012,0.007 -1.76016,0.01831 -3.52222,0.04379 -5.27781,0.181766 -2.19663,0.147521 -4.391,0.326893 -6.58851,0.462243 -1.84866,0.131324 -3.70098,0.242888 -5.54047,0.473152 -1.78945,0.257257 -3.57254,0.58297 -5.37893,0.69819 -1.1554,0.07731 -2.31104,0.103942 -3.46862,0.123447 -0.97035,0.03742 -1.93938,0.100952 -2.91001,0.131665 -0.75728,0.01434 -1.51524,-0.01087 -2.27092,0.05237 -1.25629,0.112675 -2.49819,0.331803 -3.74535,0.515554 -1.9018,0.249311 -3.81114,0.455477 -5.72537,0.579355 -2.20425,0.180713 -4.41143,0.324033 -6.61632,0.496893 -2.50724,0.166878 -5.01599,0.260567 -7.52921,0.20089 -2.26361,-0.02619 -4.52744,-0.0069 -6.79116,-0.01299 -2.52248,-7.94e-4 -5.04523,0.0088 -7.5675,-0.02437 -1.99001,-0.0099 -3.97772,-0.08657 -5.96747,-0.102312 -1.82189,4.5e-5 -3.64403,-0.0159 -5.4659,-0.02553 -1.93028,5.29e-4 -3.86033,-0.01863 -5.79065,-0.01132 -2.05864,-7.94e-4 -4.11697,-0.03804 -6.17553,-0.05613 -2.35401,-0.03985 -4.70714,-0.11222 -7.05852,-0.233103 -2.52726,-0.100619 -5.05204,-0.26864 -7.58179,-0.315587 -2.686719,-0.07805 -5.373753,-0.09331 -8.061163,-0.148149 -2.759557,-0.07245 -5.516719,-0.238868 -8.264041,-0.511116 -2.300435,-0.211204 -4.602144,-0.437904 -6.914644,-0.450165 -2.389825,-0.0372 -4.780122,-0.03933 -7.169838,-0.08652 -2.496759,-0.07186 -4.994915,-0.0045 -7.492286,-0.04665 -2.749986,-0.02836 -5.497068,-0.12332 -8.246223,-0.197716 -2.183821,-0.06675 -4.366848,-0.169145 -6.551674,-0.185414 -1.728282,-0.02524 -3.459032,-0.01238 -5.18474,-0.105865 -1.651556,-0.02664 -3.301479,-0.0647 -4.952511,-0.09488 -1.696958,0.0029 -3.394715,-0.06552 -5.090919,0.03603 -2.049095,0.04063 -4.092133,0.253333 -6.126721,0.490265 -2.384291,0.173558 -4.7643,0.431207 -7.155911,0.493588 -4.103456,0.360328 -4.613022,-5.442835 -0.509567,-5.803153 z"
       inkscape:connector-curvature="0"
       style="stroke-width:0.26458332" />
    <path
       id="path144"
       d="m 53.91872,83.133461 c -0.04014,2.119077 -0.02231,4.238685 -0.02902,6.358228 0.04793,1.683599 0.01519,3.365953 -0.0057,5.049615 0.03262,1.447864 -0.03589,2.895439 0.01328,4.342842 -0.0076,1.564214 0.03085,3.128014 -0.01183,4.691874 -0.04559,1.66164 -0.05902,3.32388 -0.06742,4.98604 -0.0059,1.53035 -0.0054,3.06071 -0.0052,4.59107 0.0043,1.45179 0.01714,2.90249 -0.05916,4.35261 -0.125973,1.66101 -0.282556,3.31829 -0.403571,4.97998 -0.145103,1.82349 -0.341903,3.64223 -0.522468,5.46239 -0.234571,1.70182 -0.316994,3.42076 -0.434999,5.13366 -0.08203,1.78866 -0.07862,3.57904 -0.161417,5.36761 -0.134323,1.8884 -0.255926,3.77756 -0.357121,5.66802 -0.102796,1.78652 -0.235043,3.57205 -0.29505,5.36065 -0.08324,1.76064 -0.147005,3.52273 -0.193948,5.28486 -0.03797,1.8393 -0.06275,3.67922 -0.04118,5.51886 -0.02447,1.88051 -0.09006,3.75989 -0.194477,5.63758 -0.17119,2.01679 -0.28675,4.03848 -0.380465,6.06027 -0.08721,2.08018 -0.101674,4.1624 -0.111956,6.24408 -0.0064,1.92223 -0.0043,3.84447 -0.0034,5.76671 0.01209,1.77466 0.121454,3.54602 0.225917,5.31695 0.09255,1.89065 0.211945,3.77964 0.267404,5.6732 -0.0066,1.81232 0.01492,3.62494 0.06167,5.43671 0.07171,1.87059 0.175869,3.73965 0.256532,5.60982 0.08266,2.06198 0.09642,4.12579 0.106492,6.18912 0.0038,2.13465 0.0071,4.26876 -0.02519,6.40315 -0.06576,2.15886 -0.248809,4.31199 -0.406802,6.46552 -0.127617,1.70667 -0.232492,3.4189 -0.264729,5.13026 -0.02522,1.31587 -0.07077,2.6314 -0.07024,3.94788 0.02728,1.10493 -0.02418,2.2096 -0.02363,3.31375 0.01659,0.8688 -0.02566,1.73526 -0.02564,2.60362 -0.02257,0.70756 -0.01304,1.41596 -0.01307,2.12388 -0.01206,0.52618 -0.01307,1.05228 -0.01307,1.57876 0,0.23006 0,0.46012 0,0.69017 -0.0031,0.0919 -0.07571,0.0762 -0.156609,0.0835 8e-6,4.43358 -6.270022,4.43359 -6.27003,1e-5 v 0 c -0.0809,-0.007 -0.15349,0.008 -0.156607,-0.0835 0,-0.23006 0,-0.46013 0,-0.69019 0,-0.5265 -0.0011,-1.05262 -0.01304,-1.57881 8e-6,-0.70784 0.0096,-1.41614 -0.01304,-2.12362 -2.6e-5,-0.86734 -0.04239,-1.73276 -0.02655,-2.60055 -5.29e-4,-1.10434 -0.05401,-2.20917 -0.02857,-3.31434 -5.29e-4,-1.36034 -0.04968,-2.72029 -0.03293,-4.08043 0.03511,-1.83712 0.05617,-3.67367 0.202944,-5.50711 0.148375,-2.02126 0.339487,-4.04027 0.415165,-6.06565 0.03317,-2.08735 -0.0051,-4.17495 -0.0016,-6.26261 -0.0096,-1.9753 -0.02191,-3.95106 -0.100171,-5.92509 -0.08203,-1.90997 -0.189733,-3.81875 -0.260641,-5.72923 -0.0464,-1.80402 -0.03079,-3.60935 -0.113216,-5.41196 -0.05277,-1.82303 -0.134339,-3.64649 -0.258257,-5.46551 -0.112456,-1.90655 -0.227444,-3.81372 -0.238019,-5.7243 -0.0011,-1.93489 -0.003,-3.8698 0.0035,-5.80469 0.01085,-2.17823 0.02697,-4.357 0.119406,-6.53362 0.09538,-2.04377 0.230127,-4.08515 0.357751,-6.12706 0.09865,-1.75328 0.158324,-3.50818 0.183579,-5.26409 0.0313,-1.89581 0.01863,-3.79222 0.06975,-5.68779 0.04863,-1.81439 0.133726,-3.62743 0.173792,-5.44207 0.114485,-1.79633 0.206623,-3.59391 0.322701,-5.39014 0.100484,-1.87531 0.179846,-3.75153 0.328769,-5.62394 0.08644,-1.80427 0.0721,-3.61111 0.163825,-5.41534 0.0734,-1.8226 0.237381,-3.63871 0.381214,-5.45667 0.174823,-1.75841 0.364495,-3.51552 0.506516,-5.27702 0.117919,-1.61857 0.228512,-3.23838 0.395454,-4.85274 0.07619,-1.32046 0.04375,-2.64258 0.04857,-3.96468 -1.83e-4,-1.54259 -5.29e-4,-3.08518 0.0053,-4.62777 0.0087,-1.71459 0.02286,-3.42925 0.06996,-5.1433 0.04113,-1.50743 0.156729,-3.01292 0.113639,-4.522453 0.06021,-1.506083 0.0068,-3.015404 0.120936,-4.519734 0.07678,-1.685835 0.191857,-3.366762 0.292989,-5.050711 0.121528,-2.104117 0.318206,-4.204039 0.341079,-6.312379 0.110202,-4.41375 6.352186,-4.257902 6.241984,0.155848 z"
       inkscape:connector-curvature="0"
       style="stroke-width:0.26458332" />
    <path
       id="path148"
       d="m 50.077245,239.59305 c 2.360224,-0.2533 4.735211,-0.28005 7.103417,-0.40498 2.437413,-0.13442 4.84392,-0.3221 7.285476,-0.18012 2.472847,0.068 4.928751,0.35773 7.390895,0.57451 2.837688,0.2431 5.688579,0.30243 8.535479,0.27388 3.590939,-0.0176 7.1818,-0.008 10.772736,0.006 3.703362,0.0496 7.405706,-5.3e-4 11.107752,-0.0892 3.68882,-0.11672 7.36975,-0.40085 11.0528,-0.63082 3.14584,-0.11598 6.2888,-0.28564 9.42959,-0.49586 2.74388,-0.17664 5.48473,-0.40402 8.20697,-0.79456 2.83011,-0.42452 5.64786,-0.8998 8.49013,-1.24091 3.02346,-0.32912 6.04184,-0.69771 9.05421,-1.11594 2.80192,-0.43935 5.61535,-0.78712 8.4387,-1.05375 2.47067,-0.21017 4.94963,-0.28606 7.42364,-0.44432 2.12702,-0.11609 4.25371,-0.23543 6.38269,-0.30905 1.68872,-0.0266 3.37728,-0.0573 5.06627,-0.0459 1.38932,0.005 2.77836,0.0187 4.16737,0.0525 1.12938,0.0261 2.24872,0.17792 3.36778,0.31854 0.81316,0.11164 1.62728,0.2127 2.44409,0.29336 0.74733,0.0435 1.49624,0.082 2.24051,0.16429 0.8277,0.0562 1.65128,0.16383 2.47969,0.22074 1.03717,0.12359 2.08194,0.14389 3.12417,0.19218 1.46932,0.074 2.93109,0.2473 4.39614,0.37707 1.42791,0.12407 2.86187,0.12435 4.2927,0.19545 1.16277,0.0152 2.31641,0.15264 3.46365,0.33102 0.4689,0.0688 0.94263,0.10729 1.41626,0.12596 0.31197,0.0198 0.62743,0.009 0.94122,0.009 0.39271,-0.001 0.78542,-0.002 1.17814,-0.002 0.28444,-2.5e-4 0.56888,-2.6e-4 0.85333,-2.6e-4 0.22494,0.0106 0.45225,0 0.67896,1e-5 0.11759,0.012 0.23835,0 0.35874,0 0.0518,0.0194 0.10352,0.009 0.15579,0 0.005,0 0.009,0 0.014,0 5.33852,-1.3e-4 5.33871,7.54968 1.9e-4,7.54981 v 0 c -0.005,0 -0.009,0 -0.0142,0 -0.0523,-0.009 -0.10404,-0.0194 -0.15584,0 -0.12045,0 -0.24127,-0.012 -0.35892,0 -0.2265,-10e-6 -0.45361,-0.0106 -0.67833,-10e-6 -0.28218,10e-6 -0.56435,7e-5 -0.84653,2.6e-4 -0.39049,2.7e-4 -0.78098,10e-4 -1.17147,0.002 -0.42565,7.9e-4 -0.85023,-0.0101 -1.27523,-0.0156 -0.75561,-0.0334 -1.50748,-0.10081 -2.25264,-0.23469 -0.83996,-0.13074 -1.68324,-0.24161 -2.53551,-0.24507 -1.57884,-0.0184 -3.1563,-0.0931 -4.73013,-0.2215 -1.35998,-0.12115 -2.71832,-0.2643 -4.08263,-0.32968 -1.16932,-0.0551 -2.3412,-0.0817 -3.50496,-0.21963 -0.76258,-0.0973 -1.52909,-0.15508 -2.29337,-0.23106 -0.81293,-0.0303 -1.62586,-0.0981 -2.43481,-0.18098 -0.88253,-0.0875 -1.76254,-0.19457 -2.64112,-0.31549 -0.86857,-0.10914 -1.73645,-0.23614 -2.61285,-0.26205 -1.34577,-0.0329 -2.69185,-0.0447 -4.03756,-0.0765 -1.58464,-0.0119 -3.17055,7.9e-4 -4.75389,0.0677 -2.08426,0.0715 -4.16616,0.19042 -6.24852,0.30324 -2.37301,0.0968 -4.74624,0.21284 -7.11429,0.39551 -2.71422,0.25451 -5.41214,0.6309 -8.11048,1.01555 -3.059,0.42447 -6.12307,0.80214 -9.19636,1.10799 -2.83256,0.33861 -5.65593,0.74784 -8.48219,1.13478 -2.89023,0.30074 -5.78522,0.51318 -8.68918,0.6285 -3.16824,0.15563 -6.33686,0.29563 -9.50642,0.42152 -3.75844,0.12393 -7.51639,0.26789 -11.276,0.34997 -3.764663,0.0376 -7.528382,-0.0652 -11.29295,-0.0929 -3.617159,-0.064 -7.234238,-0.13783 -10.850444,-0.24207 -3.015969,-0.16666 -6.033513,-0.32048 -9.032396,-0.69941 -2.359678,-0.30242 -4.708858,-0.68324 -7.069859,-0.96667 -2.330773,-0.13678 -4.631492,-0.46986 -6.961013,-0.59428 -2.368206,-0.12493 -4.743194,-0.15169 -7.103417,-0.40498 -2.807687,0 -2.807687,-3.97066 0,-3.97066 z"
       inkscape:connector-curvature="0"
       style="stroke-width:0.26458332" />
    <path
       id="path152"
       d="m 203.06925,239.56262 c -0.1991,-2.13995 -0.17675,-4.28333 -0.37347,-6.42563 -0.25714,-1.37708 -0.22942,-2.78401 -0.1725,-4.17791 0.0388,-1.30772 0.0331,-2.61799 0.0964,-3.9246 0.0171,-1.34534 -0.12355,-2.68309 -0.1662,-4.02474 0.0513,-1.18339 -0.10928,-2.35343 -0.31914,-3.51381 -0.27657,-1.36462 -0.49918,-2.73934 -0.70648,-4.11592 -0.18458,-1.44953 -0.30386,-2.90724 -0.43079,-4.36285 -0.14037,-1.40877 -0.32093,-2.81287 -0.44633,-4.22317 -0.1228,-1.50521 -0.14423,-3.01587 -0.15782,-4.52521 -0.0156,-1.38749 0.015,-2.77531 -0.0277,-4.16233 -0.0643,-1.60017 -0.0496,-3.20167 -0.0615,-4.80265 0.0165,-1.71231 0.11352,-3.4208 0.14059,-5.13303 0.0254,-1.56532 0.0387,-3.13065 0.0906,-4.69545 0.006,-1.76409 0.0474,-3.52745 0.0919,-5.29111 0.0496,-1.82005 0.12872,-3.63921 0.23072,-5.45707 0.11934,-1.87962 0.33363,-3.75095 0.54795,-5.62162 0.21171,-1.55095 0.35146,-3.10941 0.4294,-4.67241 0.0474,-1.48043 0.073,-2.96215 0.0755,-4.44333 0.0754,-1.63335 0.0507,-3.26861 0.0496,-4.90315 -0.0109,-1.44003 0.0189,-2.88058 -0.0164,-4.32029 -0.0993,-1.4257 -0.24293,-2.84925 -0.38881,-4.2711 -0.0827,-1.51389 -0.12942,-3.02925 -0.19617,-4.54377 -0.0122,-0.91078 -0.13112,-1.81059 -0.33314,-2.69712 -0.18902,-0.88607 -0.39387,-1.76886 -0.53465,-2.66421 -0.0791,-0.82798 -0.20824,-1.66095 -0.44058,-2.46108 -0.28114,-0.95795 -0.60126,-1.90284 -0.87864,-2.86186 -0.28431,-1.12006 -0.59637,-2.23092 -0.81498,-3.3662 -0.2456,-1.16481 -0.24394,-2.34539 -0.29503,-3.52502 -0.0254,-0.82768 -0.0775,-1.65367 -0.12158,-2.48061 -0.0199,-0.87042 -0.0355,-1.74076 -0.0402,-2.61146 -0.003,-0.92559 -0.002,-1.85119 -0.002,-2.77679 -0.003,-1.12279 0.0112,-2.24566 -0.0124,-3.36825 7e-5,-1.28322 7e-5,-2.56644 7e-5,-3.84966 0,-1.198 -1e-5,-2.39599 -1e-5,-3.59398 -0.0351,-1.52086 0.13053,-3.033826 0.32075,-4.539853 0.21371,-1.474854 0.55283,-2.929443 0.72225,-4.410612 0.11621,-1.003427 0.15985,-2.015125 0.17319,-3.024727 -0.0146,-0.968812 -0.009,-1.93793 -0.0108,-2.90689 -0.002,-0.732512 -0.002,-1.465027 -0.003,-2.197542 0.0245,-0.450254 -2.3e-4,-0.90057 -2.2e-4,-1.350364 0,-0.08575 2e-5,-0.171493 3e-5,-0.257236 3e-5,-0.09759 1e-5,-0.195186 1e-5,-0.29278 0.0163,-0.211447 -0.009,-0.412472 -0.0522,-0.618011 -0.10485,-0.09561 -0.0788,-0.1114 0.0522,-0.1181 0.0174,-5.29e-4 0.0348,-7.93e-4 0.0522,-0.0013 0,-4.525861 6.40054,-4.525859 6.40054,3e-6 v 0 c 0.0174,2.65e-4 0.0348,7.94e-4 0.0522,0.0011 0.131,0.0067 0.15706,0.02246 0.0522,0.118081 -0.0428,0.205537 -0.0685,0.406559 -0.0522,0.618001 0,0.08579 1e-5,0.233579 0,0.295277 -2e-5,0.08498 -4e-5,0.169964 -4e-5,0.254945 -1e-5,0.448593 -0.0247,0.897686 2.2e-4,1.346732 2.7e-4,0.729141 0.001,1.458283 0.003,2.187424 0.002,1.002649 0.0153,2.005875 -0.0159,3.008114 -0.0177,1.280306 -0.0256,2.562961 -0.20859,3.833707 -0.22982,1.446051 -0.49105,2.886366 -0.73779,4.329501 -0.15757,1.235414 -0.30366,2.47618 -0.26922,3.72433 0,1.198 10e-6,2.396 10e-6,3.59399 0,1.28339 0,2.56678 -7e-5,3.85016 -0.0238,1.12315 -0.01,2.24659 -0.0137,3.36994 -2.6e-4,0.91331 -0.001,1.8266 0.002,2.73991 0.004,0.76752 -0.003,1.53722 0.0573,2.30275 0.0449,0.84989 0.11691,1.69951 0.0988,2.55137 0.0354,0.86365 0.18206,1.72922 0.34394,2.57834 0.16682,0.93116 0.43681,1.8413 0.69564,2.75012 0.28093,0.98228 0.64069,1.93829 0.92232,2.92048 0.26622,0.9858 0.45432,1.98652 0.6688,2.98239 0.17931,0.81457 0.33135,1.63472 0.54233,2.44213 0.27886,1.27681 0.46437,2.57029 0.48877,3.87942 0.0589,1.37926 0.0473,2.7678 0.27178,4.13386 0.16386,1.60412 0.43487,3.19969 0.47516,4.81545 0.0327,1.49196 0.0114,2.98438 0.0183,4.47661 0.001,1.64021 -0.0192,3.28104 0.0548,4.92007 -0.003,1.59678 0.0212,3.19426 -0.0585,4.78999 -0.0878,1.71459 -0.25491,3.42076 -0.44081,5.12719 -0.19952,1.73217 -0.31051,3.47299 -0.43439,5.2119 -0.0981,1.74608 -0.13648,3.48883 -0.14342,5.23751 -0.0434,1.70519 0.001,3.40955 0.0149,5.11466 0.0491,1.60163 0.0578,3.20443 0.039,4.80656 -0.0262,1.65265 -0.034,3.30489 -0.0615,4.95743 0.0114,1.54221 0.0628,3.08336 0.11029,4.6248 0.0439,1.44274 0.0683,2.88454 0.0571,4.32822 0.0115,1.30721 0.0264,2.61566 0.1285,3.9196 0.12302,1.41287 0.31385,2.8184 0.44695,4.23029 0.11295,1.29695 0.17362,2.59947 0.3484,3.89019 0.19688,1.30815 0.40912,2.61429 0.67277,3.91091 0.28663,1.62282 0.46938,3.25222 0.3858,4.90395 -0.061,1.44323 -0.23012,2.88286 -0.33796,4.32373 -0.0672,1.38081 -0.22066,2.76076 -0.37228,4.13408 -0.17337,1.35983 -0.34108,2.73018 -0.78591,4.03378 -0.0751,0.3055 -0.3873,1.55075 -0.43403,1.84364 -0.22029,1.38061 -0.0685,2.79229 -0.30136,4.17199 0,3.36195 -4.75452,3.36195 -4.75452,0 z"
       inkscape:connector-curvature="0"
       style="stroke-width:0.26458332" />
    <path
       id="path154"
       d="m 51.960536,81.54068 c 2.272019,-0.239057 4.548865,-0.340831 6.828644,-0.460304 2.055268,-0.05801 4.107736,0.07418 6.162151,0.08693 1.449962,0.146508 2.885422,-0.119907 4.333971,-0.05865 0.400981,0.01696 0.800674,0.05673 1.201009,0.0851 0.413076,0.01323 0.826151,0.02648 1.239224,0.03971 2.622098,0.206544 5.229103,0.54837 7.851463,0.759965 3.234854,0.206825 6.475163,0.219821 9.714992,0.202362 3.364023,-0.07209 6.714246,0.177855 10.066935,0.403352 2.998425,0.346429 6.015185,0.230542 9.024965,0.26948 2.98796,-0.02892 5.97125,-0.211328 8.9561,-0.340783 2.82009,-0.07344 5.62704,-0.341688 8.43975,-0.529106 3.07667,-0.212458 6.15618,-0.382016 9.23687,-0.523716 3.3756,-0.149984 6.74919,-0.320461 10.11818,-0.581681 3.64041,-0.27473 7.24898,-0.83756 10.86125,-1.348407 3.21734,-0.491532 6.45423,-0.818205 9.70126,-1.026022 1.8895,-0.111091 3.78235,-0.132879 5.67457,-0.137806 0.96595,-0.0097 1.93169,-0.0094 2.89773,-0.0057 0.32595,0.01011 0.65129,0.01529 0.97762,0.01553 0.4778,-0.01852 0.95649,-0.01299 1.43495,-0.01302 1.13408,-3.2e-5 2.26817,-3.2e-5 3.40225,-3.7e-5 1.70109,0.0088 3.40198,-0.0078 5.10293,-0.02729 1.6291,-0.01958 3.25831,-0.02736 4.88751,-0.03147 1.43558,-0.0028 2.87115,-0.0024 4.30673,-0.0024 1.03069,-0.0013 2.06095,-0.009 3.09109,0.02643 0.56332,5e-5 1.12663,5.5e-5 1.68995,5.8e-5 0.6347,-0.01656 1.26532,0.03905 1.89589,0.09967 0.42219,0.0499 0.84663,0.07306 1.27131,0.08684 0.663,0.0024 0.53605,-0.04906 0.59923,0.832908 3.87923,0.02397 3.84534,5.510035 -0.0339,5.48607 v 0 c -0.11186,0.93908 -0.0506,0.838747 -0.80501,0.809185 -0.58363,-0.02011 -1.16696,-0.05269 -1.74743,-0.118821 -0.38978,-0.04409 -0.78829,-0.02294 -1.18014,-0.03756 -0.56351,-2e-6 -1.12701,-8e-6 -1.69052,-5.8e-5 -1.03008,0.03528 -2.06026,0.02735 -3.09089,0.02577 -1.42938,-8e-5 -2.85876,-2.65e-4 -4.28813,0.0024 -1.60768,0.004 -3.21535,0.01169 -4.82293,0.03102 -1.72852,0.01984 -3.457,0.03644 -5.18568,0.02776 -1.13401,5e-6 -2.26802,8e-6 -3.40203,3.7e-5 -0.4803,1.6e-5 -0.96081,0.0056 -1.44045,-0.0131 -0.33373,-2.49e-4 -0.66665,0.0028 -1.00007,0.01053 -0.95068,-0.0037 -1.90112,-0.01167 -2.85168,-0.02035 -1.7462,0.0044 -3.49301,0.02244 -5.2368,0.123333 -3.063,0.19355 -6.11119,0.550013 -9.14771,0.995576 -3.76241,0.532083 -7.52652,1.074603 -11.31663,1.371931 -3.44324,0.265941 -6.89152,0.463714 -10.34364,0.569439 -3.05304,0.140356 -6.10539,0.289557 -9.15649,0.467278 -2.86903,0.139933 -5.74352,0.185788 -8.61435,0.275045 -3.11044,0.07815 -6.22221,0.188833 -9.33381,0.108344 -3.1626,-0.0943 -6.30191,-0.493485 -9.444706,-0.842248 C 95.624323,88.25159 92.431922,88.072366 89.236618,88.073255 85.827324,87.991615 82.40764,87.949335 79.014607,87.581913 76.409271,87.271795 73.818373,86.846827 71.223409,86.460694 70.096287,86.274877 68.955747,86.218119 67.8318,86.022205 66.789762,85.840569 65.763099,85.572787 64.693408,85.574999 62.73855,85.356831 60.773743,85.215758 58.808897,85.129327 56.565596,85.029579 54.316238,85.032862 52.072288,84.93449 49.67252,85.01351 49.56077,81.619729 51.960536,81.540709 Z"
       inkscape:connector-curvature="0"
       style="stroke-width:0.26458332" />
    <path
       id="path160"
       d="m 49.586573,223.77031 c 1.002022,-2.04062 2.287534,-3.9251 3.513465,-5.83474 1.231704,-2.08229 2.56091,-4.10368 3.842562,-6.15493 1.479545,-2.23325 2.941667,-4.47681 4.534279,-6.63187 1.714852,-2.34288 3.520233,-4.61682 5.333859,-6.88337 1.84073,-2.25644 3.83005,-4.38465 5.68351,-6.62987 1.803683,-2.21388 3.611819,-4.42295 5.448458,-6.6097 2.206014,-2.61311 4.568195,-5.08464 6.984143,-7.50261 2.33835,-2.34629 4.670697,-4.70141 6.923318,-7.13053 2.05986,-2.32655 4.184967,-4.58591 6.421889,-6.74297 2.025094,-1.95756 4.205774,-3.74285 6.258434,-5.66976 1.42875,-1.28061 2.70026,-2.70736 3.91831,-4.18435 0.95144,-1.1761 1.87255,-2.37261 2.8545,-3.52455 1.61831,-1.90476 3.44063,-3.62084 5.2642,-5.32505 2.47209,-2.3056 4.93416,-4.62176 7.38887,-6.94585 2.48017,-2.3396 4.90305,-4.73855 7.36092,-7.10133 1.80933,-1.71197 3.56029,-3.48222 5.31208,-5.25229 0.90293,-0.86326 1.7032,-1.82044 2.49727,-2.7816 0.65158,-0.81472 1.31209,-1.6223 1.97287,-2.42958 0.9764,-1.18866 1.9944,-2.34193 3.00032,-3.50543 1.0326,-1.21856 2.10636,-2.40087 3.16922,-3.59278 0.65598,-0.7351 1.27661,-1.49946 1.86284,-2.29094 0.80333,-1.11484 1.64793,-2.19836 2.52129,-3.25892 0.95709,-1.12589 1.89042,-2.27175 2.79857,-3.43741 0.89609,-1.09167 1.75027,-2.21591 2.63955,-3.31316 1.21608,-1.479821 2.54037,-2.863472 3.86865,-4.241488 1.00638,-0.989426 1.95159,-2.030537 2.80524,-3.153916 0.66442,-0.931764 1.29072,-1.887622 1.98317,-2.799188 0.83025,-1.059977 1.70472,-2.083837 2.56112,-3.122364 0.72069,-0.934445 1.51083,-1.811507 2.25755,-2.724438 0.45469,-0.537766 0.90728,-1.077624 1.40454,-1.576864 0.24169,-0.237765 0.49475,-0.460706 0.77028,-0.657736 4.6447,-3.090693 9.0156,3.477903 4.3709,6.568596 v 0 c 0.12692,-0.09138 0.30706,-0.225763 0.40295,-0.333883 -0.31212,0.307922 -0.57665,0.660218 -0.86843,0.986936 -0.75421,0.917599 -1.54529,1.804471 -2.27335,2.743652 -0.79606,0.963435 -1.60606,1.915449 -2.38121,2.896082 -0.70111,0.904406 -1.29177,1.886974 -1.98311,2.799104 -1.04165,1.354042 -2.19878,2.605817 -3.40674,3.813477 -1.17528,1.2192 -2.35117,2.4394 -3.4301,3.74633 -0.88832,1.08815 -1.69028,2.24544 -2.6056,3.31272 -0.96792,1.14999 -1.85068,2.36896 -2.8466,3.49624 -0.78987,0.95654 -1.54946,1.93714 -2.27466,2.94379 -0.72812,0.97896 -1.49485,1.9277 -2.3081,2.83768 -1.03621,1.16162 -2.08307,2.31388 -3.08937,3.50185 -0.95987,1.11006 -1.93154,2.21009 -2.86405,3.34347 -0.67082,0.81927 -1.34044,1.63956 -2.00269,2.46578 -0.94395,1.13653 -1.97589,2.19647 -3.01934,3.24128 -1.79742,1.81524 -3.6568,3.56699 -5.48643,5.34967 -2.47208,2.37613 -4.90847,4.7892 -7.40327,7.14173 -2.46733,2.33604 -4.94209,4.66409 -7.42687,6.98159 -1.61348,1.50628 -3.21213,3.02983 -4.68219,4.67883 -0.98332,1.14893 -1.92604,2.33186 -2.91573,3.47566 -1.46556,1.66273 -2.99171,3.27519 -4.64697,4.7518 -2.04843,1.84282 -4.14674,3.63005 -6.16293,5.50828 -2.15248,2.07198 -4.187215,4.25601 -6.20973,6.45436 -2.343227,2.44442 -4.750271,4.819 -7.219841,7.1362 -2.284577,2.28516 -4.545354,4.59808 -6.643796,7.05759 -1.8771,2.15754 -3.712411,4.35035 -5.576845,6.51885 -1.897057,2.13091 -3.812016,4.247 -5.67131,6.4106 -1.813597,2.18326 -3.547427,4.4319 -5.295944,6.66726 -1.644182,2.05677 -3.436896,3.9752 -5.130697,5.99014 -1.54763,1.82108 -3.00037,3.71902 -4.53472,5.55124 -1.402279,1.81222 -2.743076,3.691 -4.403096,5.28234 -1.633175,2.23829 -4.798586,-0.0714 -3.165408,-2.30966 z"
       inkscape:connector-curvature="0"
       style="stroke-width:0.26458332" />
    <path
       id="path162"
       d="m 75.453628,239.96389 c 1.301139,-2.30146 2.901471,-4.41674 4.598567,-6.43747 1.930558,-2.19885 4.039743,-4.23151 6.099365,-6.30767 1.712066,-1.73311 3.358936,-3.52626 4.858523,-5.4466 1.283081,-1.70588 2.49827,-3.46168 3.810394,-5.14542 1.669941,-2.15373 3.550494,-4.12385 5.481223,-6.04169 1.80429,-1.77683 3.63958,-3.52178 5.42178,-5.32089 1.48555,-1.55377 2.95219,-3.12443 4.39474,-4.71821 1.46968,-1.63549 2.94552,-3.26503 4.44485,-4.87342 1.5269,-1.62431 3.16923,-3.13234 4.81298,-4.63605 1.70421,-1.55289 3.44513,-3.06447 5.14682,-4.62018 1.731,-1.64002 3.4887,-3.25223 5.20175,-4.91099 1.40529,-1.39847 2.8264,-2.78043 4.25634,-4.15368 1.37594,-1.32623 2.85576,-2.53496 4.35742,-3.71428 1.6091,-1.24973 3.25868,-2.44634 4.88582,-3.6724 1.14897,-0.9046 2.35282,-1.73987 3.4779,-2.67439 1.00949,-0.88572 2.01032,-1.78107 3.02883,-2.65653 0.69871,-0.57894 1.4079,-1.14355 2.0417,-1.79449 0.944,-1.00005 1.90716,-1.98045 2.88287,-2.94963 1.53791,-1.55858 3.18332,-3.00358 4.83782,-4.43561 1.4109,-1.19385 2.74879,-2.4687 4.03252,-3.79737 1.23753,-1.29805 2.50221,-2.56933 3.78933,-3.8181 1.2704,-1.23189 2.59482,-2.40568 3.89859,-3.60162 1.02111,-0.93254 1.9919,-1.91356 2.90892,-2.94818 0.81636,-0.90076 1.62501,-1.80747 2.41079,-2.73552 0.75567,-0.88679 1.5544,-1.73543 2.33371,-2.60111 0.70316,-0.75158 1.4114,-1.49559 2.14599,-2.21645 0.64749,-0.63382 1.32562,-1.23493 2.01815,-1.81933 0.64299,-0.46434 1.27964,-0.94255 1.84761,-1.49809 0.34309,-0.32781 0.6657,-0.67462 0.99084,-1.01971 0.68669,-0.70426 1.4435,-1.32977 2.18764,-1.97017 0.57111,-0.41585 1.08518,-0.89628 1.59119,-1.38552 0.31557,-0.39061 0.66898,-0.74946 1.00254,-1.12504 0.52421,-0.58057 1.0543,-1.1568 1.59757,-1.71977 0.36499,-0.37446 0.71966,-0.75884 1.05773,-1.15787 0.42381,-0.52531 0.88954,-1.01368 1.33837,-1.51668 0.2928,-0.34807 0.58246,-0.69767 0.87689,-1.0448 0.47368,-0.53178 1.02797,-0.98078 1.5611,-1.44985 0.1038,-0.0641 0.42656,-0.48352 0.10965,-0.10825 -0.0484,-0.0713 -0.45708,1.13595 -0.4024,1.02652 0.72768,-1.45631 0.0637,-0.69137 0.62148,-1.28436 0.95933,-0.14666 1.26245,0.19644 2.05907,0.75386 1.17651,-1.14796 2.79997,0.51588 1.62346,1.66384 v 0 c 0.95361,0.85912 0.74069,0.73093 1.75209,1.10938 0.44009,-0.3268 -0.15343,0.1514 0.46745,-1.02928 0.19801,-0.37653 -0.57846,1.7966 -0.53397,1.33952 -0.39962,0.54028 -0.82827,1.05161 -1.35372,1.47615 -0.30608,0.26825 -0.61556,0.533 -0.91983,0.80306 -0.33455,0.36073 -0.58561,0.79463 -0.95062,1.1288 -0.41485,0.46425 -0.80682,0.94973 -1.2176,1.41792 -0.43196,0.50532 -0.87954,0.99691 -1.34389,1.4727 -0.4802,0.4915 -0.93905,1.00215 -1.38265,1.52659 -0.44931,0.50544 -0.84661,1.05187 -1.32242,1.53339 -0.59938,0.57618 -1.25023,1.09521 -1.87466,1.64342 -0.56739,0.48583 -1.10336,1.01192 -1.58943,1.57991 -0.4086,0.43023 -0.81342,0.86378 -1.24336,1.2732 -0.63839,0.60135 -1.32695,1.14908 -1.93015,1.78746 -0.5759,0.54168 -1.12669,1.10569 -1.69157,1.65834 -0.62864,0.60917 -1.20143,1.27739 -1.79184,1.92296 -0.73117,0.81219 -1.42762,1.65341 -2.13177,2.48888 -0.82412,0.97312 -1.67221,1.92475 -2.48822,2.90433 -1.08345,1.21356 -2.20599,2.39347 -3.40754,3.49145 -1.254,1.14991 -2.5277,2.27866 -3.75063,3.46207 -1.23256,1.19501 -2.44229,2.41288 -3.62691,3.65553 -1.4353,1.48029 -2.92531,2.90638 -4.49968,4.23918 -1.52857,1.32276 -3.05152,2.65454 -4.47114,4.09559 -0.96401,0.95746 -1.91888,1.92217 -2.82823,2.93188 -0.78012,0.77812 -1.63133,1.47082 -2.48272,2.16925 -1.05749,0.90824 -2.09215,1.84219 -3.14572,2.75484 -1.21324,0.99314 -2.48556,1.91012 -3.72549,2.86944 -1.58938,1.19704 -3.19993,2.36608 -4.75662,3.60601 -1.31114,1.02722 -2.60438,2.07873 -3.80547,3.23485 -1.42278,1.36638 -2.83792,2.74061 -4.25334,4.11453 -1.76347,1.70691 -3.52308,3.41939 -5.35413,5.05434 -1.70128,1.55461 -3.4398,3.06726 -5.1445,4.61805 -1.50123,1.37329 -3.00456,2.74694 -4.40134,4.22828 -1.47515,1.58223 -2.92654,3.18587 -4.37257,4.79474 -1.51612,1.67463 -3.04429,3.33943 -4.63993,4.93912 -1.79669,1.81205 -3.64309,3.57329 -5.46287,5.36201 -1.73338,1.72058 -3.4789,3.43583 -5.02156,5.33388 -1.388409,1.6998 -2.767603,3.40842 -4.21363,5.0597 -1.7649,1.95519 -3.512709,3.9266 -5.382506,5.78365 -1.970537,1.91601 -3.990713,3.78502 -5.850482,5.81065 -1.541939,1.75527 -2.973819,3.59584 -4.348242,5.4844 -2.295978,3.64091 -7.445002,0.39391 -5.149022,-3.247 z"
       inkscape:connector-curvature="0"
       style="stroke-width:0.26458332" />
  </g>
</svg>
