<?xml version="1.0" encoding="UTF-8" standalone="no"?>
<!-- Created with Inkscape (http://www.inkscape.org/) -->

<svg
   xmlns:dc="http://purl.org/dc/elements/1.1/"
   xmlns:cc="http://creativecommons.org/ns#"
   xmlns:rdf="http://www.w3.org/1999/02/22-rdf-syntax-ns#"
   xmlns:svg="http://www.w3.org/2000/svg"
   xmlns="http://www.w3.org/2000/svg"
   xmlns:sodipodi="http://sodipodi.sourceforge.net/DTD/sodipodi-0.dtd"
   xmlns:inkscape="http://www.inkscape.org/namespaces/inkscape"
   width="1024"
   height="1024"
   viewBox="0 0 270.93333 270.93333"
   version="1.1"
   id="svg8"
   inkscape:version="0.92.4 (5da689c313, 2019-01-14)"
   sodipodi:docname="hand_grip.svg"
   inkscape:export-filename="C:\Users\panu-\PycharmProjects\nextgame\data\images\hand_grip.png"
   inkscape:export-xdpi="7.2179537"
   inkscape:export-ydpi="7.2179537">
  <defs
     id="defs2" />
  <sodipodi:namedview
     id="base"
     pagecolor="#ffffff"
     bordercolor="#666666"
     borderopacity="1.0"
     inkscape:pageopacity="0.0"
     inkscape:pageshadow="2"
     inkscape:zoom="0.34988737"
     inkscape:cx="483.09764"
     inkscape:cy="738.2537"
     inkscape:document-units="mm"
     inkscape:current-layer="layer2"
     showgrid="false"
     units="px"
     width="1024px"
     inkscape:window-width="1920"
     inkscape:window-height="1017"
     inkscape:window-x="-8"
     inkscape:window-y="-8"
     inkscape:window-maximized="1"
     inkscape:pagecheckerboard="false" />
  <metadata
     id="metadata5">
    <rdf:RDF>
      <cc:Work
         rdf:about="">
        <dc:format>image/svg+xml</dc:format>
        <dc:type
           rdf:resource="http://purl.org/dc/dcmitype/StillImage" />
        <dc:title />
      </cc:Work>
    </rdf:RDF>
  </metadata>
  <g
     inkscape:groupmode="layer"
     id="layer2"
     inkscape:label="color"
     style="display:inline">
    <path
       style="display:inline;fill:#ffccaa;fill-opacity:1;stroke-width:0.26735559"
       d="m 93.474038,117.12408 c -4.54168,1.27381 -9.39703,1.448 -13.85237,3.0631 -4.0187,2.64652 -7.28043,6.29914 -11.42579,8.78931 -2.00525,1.43714 -4.75142,2.4318 -5.4197,5.09177 -1.18243,3.72251 -1.73361,7.82276 -0.83392,11.65921 1.7036,3.96692 3.31444,8.03354 5.52204,11.7438 2.19959,1.93161 5.4456,1.68892 8.1293,2.43754 3.12364,0.46203 5.95522,1.92211 8.95691,2.77485 1.11297,0.16727 1.90998,-0.90806 2.99993,-1.0313 4.196,-1.44632 8.38459,-3.21543 12.876932,-3.38737 0.84126,-0.16753 1.42951,-0.86504 2.23337,-1.07569 0.16814,-1.12807 -1.04868,-2.16322 -1.40772,-3.22469 -1.739102,-2.76496 -2.905442,-5.8669 -2.731082,-9.16766 -0.10652,-4.04838 1.611502,-7.88081 2.441022,-11.80157 0.60846,-2.52096 1.56001,-4.98958 3.46816,-6.82511 1.17941,-1.4681 2.69179,-2.71444 3.75581,-4.23327 -1.96461,-0.68514 -4.35668,-0.65148 -6.36323,-1.50921 -2.871782,-0.83899 -5.404882,-2.7828 -8.349662,-3.30371 z"
       id="path554"
       inkscape:connector-curvature="0" />
    <path
       style="display:inline;fill:#ffccaa;fill-opacity:1;stroke-width:0.26735559"
       d="m 134.79666,114.82701 c -3.90999,0.67437 -7.78079,1.72892 -11.6164,2.77173 -4.07736,1.0222 -6.82667,4.50238 -9.71931,7.3011 -2.45134,2.74837 -5.00949,5.53064 -6.7361,8.79872 -0.72965,3.40809 -0.65638,6.95281 -1.3579,10.38102 -0.42047,2.24432 -0.88815,4.82935 0.72956,6.7442 1.40417,1.86167 2.23332,4.09005 3.58124,5.96396 2.32183,1.76905 5.51249,1.60761 8.19767,2.50286 5.24999,1.51288 10.79167,1.59716 15.98028,3.35233 4.03286,0.64322 8.31646,0.37313 12.17041,-1.01463 1.79681,-0.95076 4.35337,-1.09842 5.32519,-3.12729 0.58197,-1.10838 1.28685,0.22859 2.04695,0.20887 0.6832,-0.7334 -0.84802,-1.54561 -1.19732,-2.16432 -2.47582,-2.22552 -3.44623,-5.56057 -3.53886,-8.7654 -0.30009,-6.88857 -0.95649,-14.05111 1.07516,-20.70387 1.28011,-3.73104 4.20547,-6.5889 6.73402,-9.44309 -0.87445,-0.36222 -2.1817,0.0808 -3.16754,-0.41513 -3.29099,-0.94377 -6.56598,-2.45516 -10.10521,-2.08715 -2.805,0.0381 -5.59678,-0.27477 -8.40184,-0.30391 z"
       id="path556"
       inkscape:connector-curvature="0" />
    <path
       style="display:inline;fill:#ffccaa;fill-opacity:1;stroke-width:0.26735559"
       d="m 177.07645,113.58841 c -3.11354,0.13468 -6.56865,0.36027 -8.87601,2.75136 -3.63,3.53051 -7.42375,7.00681 -10.33444,11.17619 -2.67687,4.12847 -0.94228,9.1817 -0.91903,13.71346 0.20117,3.25494 -0.14927,6.55871 -0.0324,9.7919 2.77886,2.63957 6.47639,4.06553 9.95063,5.55076 4.95081,1.53707 10.33513,0.86377 15.18846,2.86049 2.90822,1.18738 6.08164,-0.0489 9.07198,-0.17596 4.97523,-0.69181 10.27883,-2.05097 13.68076,-6.03674 4.84828,-4.31763 5.74395,-11.78542 3.28536,-17.58664 -1.55509,-4.52204 -4.88818,-8.20334 -6.07505,-12.88215 -0.49384,-1.50364 -1.18271,-3.24888 -2.98529,-3.47562 -4.04871,-1.08142 -8.1335,-2.00519 -11.91268,-3.8714 -2.85639,-1.04658 -5.97374,-0.83408 -8.85071,-1.75665 -0.39439,-0.0567 -0.79375,-0.0679 -1.1916,-0.059 z"
       id="path558"
       inkscape:connector-curvature="0" />
    <path
       style="display:inline;fill:#ffb380;fill-opacity:1;stroke-width:0.26458332"
       id="path560"
       d="m 101.13303,157.97872 c -1.02206,1.20057 -2.615642,1.52967 -4.086012,1.85708 -0.98436,0.19028 -1.95572,0.42711 -2.91672,0.71126 -0.84304,0.29006 -1.73251,0.32461 -2.61442,0.34331 -0.62275,5.3e-4 -1.20486,0.1091 -1.77181,0.36099 -0.66675,0.3282 -1.33276,0.65295 -2.0143,0.9497 -0.92009,0.44687 -1.96027,0.31193 -2.95204,0.2684 0.60868,-0.0535 -1.50272,5.3e-4 -0.88154,0.0483 0.57812,0.0444 1.18076,-0.019 0.54729,0.0378 -0.60838,0.0329 -1.21658,0.044 -1.82379,0.0986 -0.8113,-0.18189 -1.58978,0.0844 -2.38562,0.11422 -0.31909,0.012 -0.53255,-0.0541 -0.84897,-0.11842 -0.70458,-0.14777 -1.3357,-0.51087 -1.98953,-0.80057 -0.0546,-0.0279 -0.1056,-0.0645 -0.16386,-0.0836 -0.0752,-0.0247 -0.0645,0.0198 -0.12666,0.0239 -0.17803,0.0116 -0.37607,-0.0203 -0.55094,-0.0387 -0.66172,-0.12737 -1.27809,-0.40063 -1.91775,-0.59744 -0.49816,-0.18565 -0.99407,-0.35867 -1.52022,-0.44643 -0.6523,-0.10494 -1.24296,-0.34122 -1.82276,-0.65655 -0.48626,-0.37075 -0.98822,-0.68962 -1.55499,-0.91093 -0.49789,-0.17112 -0.88558,-0.5052 -1.26254,-0.86014 -0.40489,-0.34501 -0.70601,-0.8176 -1.17639,-1.07808 -0.51903,-0.41591 -0.92046,-0.9347 -1.26529,-1.49994 -0.36369,-0.65881 -0.65852,-1.35402 -0.91127,-2.06215 -0.21482,-0.48433 -0.37481,-0.99013 -0.57997,-1.47831 -0.21042,-0.55797 -0.46112,-1.1001 -0.67024,-1.65849 -0.25093,-0.68173 -0.3442,-1.40943 -0.59696,-2.08933 -0.25921,-0.65049 -0.43164,-1.32122 -0.55721,-2.00895 -0.103,-0.65785 -0.20024,-1.31536 -0.27702,-1.97689 -0.10194,-0.54857 -0.0516,-1.10617 -0.0548,-1.65955 0.007,-0.39554 0,-0.78932 -0.0475,-1.18206 -0.042,-0.52265 -0.0265,-1.04684 -0.0554,-1.57016 -0.0619,-0.6657 -0.0709,-1.32152 -0.003,-1.98689 0.0911,-0.85052 0.35118,-1.66529 0.83053,-2.37378 0.15904,-0.1773 0.19076,-0.37857 0.23646,-0.6041 0.17915,-0.81404 0.58655,-1.54111 1.06703,-2.21259 0.28462,-0.41571 0.69448,-0.70997 1.04696,-1.05882 0.2563,-0.4602 0.56015,-0.89165 0.87117,-1.31595 0.37708,-0.47241 0.7775,-0.92541 1.1589,-1.39435 0.43312,-0.52791 0.95131,-0.97792 1.35586,-1.52835 0.42285,-0.61366 0.924,-1.16016 1.51738,-1.61075 0.11647,0.0445 0.21511,-0.16177 0.3297,-0.13207 0.0349,0.009 0,0.077 0.0196,0.10649 0.0446,0.0636 0.1239,-0.0988 0.16468,-0.1649 0.0794,-0.12885 0.15255,-0.26147 0.22883,-0.39221 0.36542,-0.66852 0.864,-1.23524 1.38213,-1.78661 0.69932,-0.72606 1.57144,-1.21553 2.44253,-1.69965 0.67241,-0.351 1.32128,-0.74444 1.98631,-1.10902 0.88299,-0.47199 1.83761,-0.78025 2.81106,-1 0.89996,-0.24832 1.77639,-0.56957 2.67288,-0.83079 1.06664,-0.30757 2.16786,-0.44728 3.25887,-0.63484 0.69429,-0.0165 1.31061,-0.3143 1.95808,-0.52796 1.57808,-0.49773 3.11181,-0.45119 4.7599,-0.45186 0.34727,0.0507 0.69792,0.0947 1.04725,0.0356 0.0989,-0.0167 0.39306,-0.0606 0.29305,-0.0688 -1.0963,-0.0894 -2.12439,0.0348 -1.2074,-0.0642 0.8291,-0.12952 1.66616,-0.16185 2.50336,-0.12768 0.81192,0.0169 1.62467,-0.006 2.43623,0.0248 0.10602,0.004 0.20584,0.0528 0.31065,0.0694 0.36964,0.0586 0.74959,0.0767 1.12096,0.13287 0.75422,0.16909 1.510742,0.12147 2.274222,0.11993 1.15613,0.0837 2.17334,0.6762 3.0739,1.36527 0.31438,0.13477 0.6173,0.31753 0.94832,0.42516 0.68371,0.30816 1.22537,0.82608 1.76602,1.33032 -0.12367,-0.30619 0.69583,0.86016 0.47133,0.70473 -0.0996,-0.069 -0.17775,-0.16468 -0.26662,-0.24702 -0.41881,-0.26171 -0.90451,-0.43866 -1.25643,-0.78514 -0.21812,-0.21475 0.57039,0.22663 0.83873,0.37391 0.27863,0.15292 0.86434,0.60718 1.04653,0.90475 0.0678,0.11074 0.0989,0.24016 0.14827,0.36023 -0.22722,1.42201 0.0992,0.67749 -1.59702,1.84315 0.21132,1.40451 -1.77496,1.70337 -1.98628,0.29886 v 0 c -1.72119,0.76229 -1.31151,0.16099 -1.77043,1.27674 0.006,0.0661 -0.004,0.13567 0.0182,0.19831 0.0712,0.20307 0.57116,0.54098 0.70689,0.61635 0.23545,0.13075 0.95351,0.49256 0.73549,0.33442 -0.42529,-0.30852 -0.90922,-0.52682 -1.36382,-0.79023 -0.30356,-0.26895 -0.63154,-0.45891 -0.96332,-0.68384 -0.22956,-0.19833 0.0238,0.11606 -0.34796,-0.0841 -0.46924,-0.2363 -0.99174,-0.37813 -1.454992,-0.64103 -0.0702,-0.0192 -0.13798,-0.0641 -0.21043,-0.0577 0,4e-5 -0.0527,0.15349 -0.054,0.15501 -0.17451,0.20122 -0.5843,0.0967 -0.7775,0.0997 -0.96007,-0.12264 -1.90389,-0.3387 -2.79453,-0.72749 -0.0619,-0.0531 -0.21267,-0.0757 -0.29099,-0.06 -0.0249,0.005 -0.0833,0.0478 -0.058,0.0489 1.49286,0.0615 2.19011,-0.11211 1.52582,0.0439 -0.78491,0.25404 -1.60895,0.35919 -2.428,0.43192 -1.19202,0.0816 -1.12006,0.0903 -2.94325,0.0403 -0.37507,-0.0103 -0.74078,-0.15815 -1.11911,-0.1623 -0.0634,-7.9e-4 -0.12612,0.013 -0.18917,0.0194 3.01085,-0.0165 1.28632,-0.10967 0.44627,0.17616 -0.83831,0.18859 -1.67219,0.39537 -2.5091,0.58957 -0.30019,0.0727 -0.54906,0.20729 -0.83164,0.33283 -0.56382,0.25051 -1.14461,0.4608 -1.73116,0.65127 -1.16216,0.29793 -2.33784,0.49628 -3.53984,0.53188 -0.16383,0.0117 -0.2917,0.0342 -0.44923,0.01 -0.0332,-0.005 -0.0629,-0.0293 -0.0965,-0.0289 -0.25331,0.003 -0.46236,0.19012 -0.70522,0.23642 -0.57272,0.23251 -1.14864,0.47029 -1.67915,0.78982 -0.51467,0.31889 -0.97343,0.72366 -1.47384,1.06407 -0.21839,0.14723 -1.01089,0.7814 -1.28691,0.72597 -0.0259,-0.005 -0.0331,-0.0416 -0.0496,-0.0624 0.26953,-0.773 -0.29766,0.90844 -0.35679,0.90573 -0.48702,0.86083 -1.16065,1.58879 -1.93575,2.20207 -0.17856,0.12735 -0.71294,0.57328 -0.91776,0.64179 -0.044,0.0147 0.006,-0.15204 -0.0704,-0.0547 -0.30512,0.47438 -0.51287,1.01192 -0.8672,1.45651 -0.46326,0.58215 -0.95099,1.1435 -1.45838,1.68774 -0.12854,0.13591 -0.56743,0.66892 -0.78031,0.68614 -0.0888,-0.15133 -0.1682,0.15276 -0.23776,0.2053 -0.16989,0.42804 -0.34295,0.85626 -0.47043,1.29928 -0.0472,0.1914 -0.10091,0.38761 -0.16092,0.51502 -0.0417,0.49398 -0.0634,0.98928 -0.12485,1.48157 -0.0386,0.33741 -0.0193,0.66637 0.0246,1.00305 0.0251,0.47463 0.0403,0.94881 0.0996,1.42074 0.0268,0.45638 0.0522,0.91704 -0.003,1.37234 0.013,0.33482 0.17997,0.63368 0.29443,0.94521 0.25479,0.66493 0.47143,1.34102 0.6015,2.043 0.0983,0.4922 0.14552,0.99698 0.38113,1.44865 0.22265,0.56376 0.39542,1.14391 0.60987,1.71066 0.17936,0.5069 0.3338,1.02174 0.52033,1.52613 0.0738,0.18592 0.16166,0.54455 0.30818,0.62713 0.29959,0.29262 0.57449,0.61189 0.80323,0.96343 0.12856,0.19043 0.16475,0.22994 0.25635,0.40024 0.0312,0.058 0.14169,0.21959 0.0945,0.17358 -0.0799,-0.078 -0.0562,-0.0383 -0.0876,-0.10884 0.2227,-0.10002 0.99007,0.5838 1.16424,0.69237 0.28081,0.2498 0.5401,0.4833 0.78044,0.77217 0.0581,0.0699 0.24541,0.20464 0.15645,0.2233 -0.0317,0.007 -0.0565,-0.0318 -0.0848,-0.0477 -0.43289,-0.19641 0.67834,0.25654 0.69421,0.20152 0.76311,0.26884 1.51837,0.58073 2.19821,1.02392 0.30261,0.20935 0.58473,0.43817 0.87972,0.65242 0.41589,0.2784 0.93345,0.38599 1.36808,0.63289 0.29371,0.14891 0.57099,0.33595 0.87542,0.45552 0.1923,-0.005 0.33671,0.0495 0.52533,0.0794 0.35404,0.0561 1.45616,0.0875 -0.22061,0.073 0.60098,0.0541 1.20079,0.0501 1.80364,0.049 0.93192,0.0409 1.86809,-0.0214 2.78633,0.17883 1.29106,0.20991 -1.40015,-0.16817 -0.18608,0.2184 0.5819,0.003 1.09736,-0.40772 1.59977,-0.65174 0.92976,-0.46696 1.87013,-0.89833 2.93217,-0.9227 0.77094,-0.0417 1.53567,-0.0154 2.2973,0.12369 0.82698,-0.0295 1.5036,-0.51739 2.20543,-0.91312 1.3573,-0.75742 2.79858,-1.46943 4.40034,-1.30598 1.990042,-1.25372 3.763062,1.5606 1.773032,2.81432 z"
       inkscape:connector-curvature="0" />
    <path
       style="display:inline;fill:#ffb380;fill-opacity:1;stroke-width:0.26458332"
       id="path562"
       d="m 153.75671,155.60183 c -0.77497,1.22214 -2.17576,1.78015 -3.43039,2.38754 -1.01449,0.49553 -2.00274,1.0393 -2.98012,1.60379 -0.81977,0.414 -1.69816,0.72348 -2.60885,0.85248 -0.62752,0.0732 -1.21407,0.32393 -1.78356,0.58423 -0.92493,0.36424 -1.85158,0.70464 -2.82102,0.92994 -1.23523,0.30229 -2.53992,-0.1773 -3.76774,0.14189 -0.0869,0.0211 -0.17405,0.0414 -0.26075,0.0633 -1.42219,0.35932 2.34011,0.0408 0.85241,0.18474 -0.12647,0.0122 -0.25336,0.0197 -0.38021,0.0271 -0.12925,0.008 -0.25863,0.0119 -0.38795,0.0179 -1.44926,0.0766 -2.90304,0.0568 -4.34447,-0.10882 -0.79406,-0.12491 -1.59963,0.003 -2.39567,0.0577 -1.33384,0.0407 -2.65096,-0.15626 -3.95284,-0.42428 -0.82095,-0.22074 -1.66566,-0.21505 -2.50545,-0.25621 -0.9667,-0.0136 -1.92704,-0.15231 -2.87823,-0.31607 -0.74085,-0.14863 -1.49083,-0.24955 -2.23177,-0.39587 -0.69239,-0.0897 -1.35507,-0.26842 -2.01047,-0.50198 -0.55726,-0.20454 -1.11069,-0.41785 -1.662,-0.6381 -0.59743,-0.22711 -1.11353,-0.61518 -1.67915,-0.90367 -0.53273,-0.31577 -1.12659,-0.47704 -1.68037,-0.74568 -0.64045,-0.35617 -1.23166,-0.79164 -1.81454,-1.23337 -0.72028,-0.57304 -1.31842,-1.27274 -1.85443,-2.01603 -0.35638,-0.46157 -0.68449,-0.93007 -0.94902,-1.44893 -0.22877,-0.49303 -0.45079,-0.98827 -0.6808,-1.48089 -0.2953,-0.64436 -0.49744,-1.3216 -0.67688,-2.00497 -0.16277,-0.65766 -0.2685,-1.32643 -0.42296,-1.98623 -0.19794,-0.77668 -0.33454,-1.56728 -0.44511,-2.36071 -0.18516,-0.93644 -0.17682,-1.87961 -0.0554,-2.82138 0.12147,-0.78532 0.12224,-1.58059 0.21643,-2.36886 0.10023,-0.99215 0.40376,-1.94357 0.68856,-2.89371 0.20558,-0.94626 0.43108,-1.87836 0.74747,-2.79663 0.35438,-0.97781 0.88233,-1.87597 1.4065,-2.76949 0.38288,-0.64026 0.8359,-1.23346 1.36234,-1.76208 0.44778,-0.46941 0.79721,-1.0171 1.19496,-1.52698 0.46683,-0.58596 0.97534,-1.13715 1.51051,-1.66094 0.41635,-0.3853 0.79605,-0.80487 1.15324,-1.24474 0.41431,-0.60875 0.87019,-1.17704 1.36199,-1.72425 0.40791,-0.33275 0.82373,-0.62748 1.19698,-1.00392 0.44437,-0.64022 0.92736,-1.23756 1.4982,-1.76926 0.59423,-0.56374 1.31122,-0.96093 2.01054,-1.37548 0.66765,-0.48747 1.34927,-0.95536 2.02142,-1.43653 0.75086,-0.53099 1.56205,-0.95501 2.403,-1.32171 0.83772,-0.31926 1.68074,-0.6075 2.55071,-0.82108 0.35518,-0.14794 0.72147,-0.3229 1.09173,-0.46076 0.70183,-0.19686 1.55368,-0.67019 2.27753,-0.70065 2.55201,0.0213 1.66405,0.0621 2.66674,0.0123 -3.56722,0.025 -1.83616,-0.0223 -0.94554,-0.21639 0.54213,-0.0231 1.07619,-0.22472 1.61575,-0.24976 5.45481,-0.25319 1.17504,0.0307 2.81985,-0.0806 0.14298,-0.0202 0.28657,-0.0366 0.42897,-0.0606 1.83343,-0.30921 -2.65104,-0.0334 -0.70151,-0.20424 0.16425,-0.0144 0.32863,-0.0283 0.49328,-0.0366 0.15968,-0.008 0.31965,-0.008 0.47948,-0.0125 0.92136,0.029 1.82923,0.0617 2.74603,-0.0541 0.90229,-0.37426 1.84722,0.0983 2.7667,0.0265 0.23164,-0.0181 0.91678,-0.10452 0.68548,-0.12667 -1.17258,-0.11227 -2.46933,-2.6e-4 -1.37462,-0.0836 0.93726,-0.11172 1.87654,-0.1287 2.818,-0.0798 1.47238,0.0963 -1.3326,-0.0808 2.7463,0.0722 0.10694,0.004 0.21037,0.04 0.31647,0.0542 0.26757,0.0357 0.51059,0.0124 0.7765,-0.02 1.042,-0.21143 2.10605,-0.25317 3.166,-0.25285 0.99592,-0.0294 1.94776,0.11063 2.85628,0.51378 0.61638,0.28205 1.18393,0.6371 1.70107,1.07557 0.4699,0.39844 0.24172,0.4156 0.61053,0.33251 0.0515,-0.0173 0.10027,-0.0527 0.15465,-0.0519 0.59182,0.009 1.74828,0.51439 2.29108,0.75352 0.26463,0.19281 1.21427,0.44671 1.39824,0.69541 0.11314,0.15293 -0.2172,0.3141 -0.34758,0.45263 -0.57476,0.37527 -1.14954,0.75055 -1.72429,1.12582 2.91952,-1.19806 4.61383,2.93077 1.69431,4.12883 v 0 c -0.6727,0.39152 -1.34541,0.78304 -2.01811,1.17456 -0.28062,0.10945 -0.54554,0.27417 -0.84185,0.32834 -0.22207,0.0406 -0.45183,-0.0193 -0.67538,-0.0509 -0.90843,-0.12853 -1.75634,-0.51288 -2.58303,-0.89018 -1.03039,-0.54649 -1.99927,-1.20482 -2.79469,-2.06695 -0.19566,-0.22188 -0.46635,-0.52131 -0.45093,-0.54163 0.06,-0.0792 0.13373,0.14738 0.20739,0.21406 0.12977,0.1175 0.26275,0.23194 0.40221,0.3378 0.51861,0.39369 0.35254,0.12446 0.51954,0.45808 -0.0383,0.0451 -0.0628,0.10732 -0.11493,0.13518 -0.67464,0.36034 -2.00142,0.22054 -2.74154,0.2199 -0.98372,-0.0821 -1.95167,-0.24662 -2.916,-0.45623 -0.25154,-0.0409 -0.5266,-0.11577 -0.78427,-0.0905 -0.0503,0.005 -0.19789,0.0327 -0.14743,0.0349 1.73074,0.0755 2.44769,-0.0936 1.65005,0.0781 -0.898,0.20084 -1.81023,0.31196 -2.72979,0.35247 -1.25833,0.0463 -1.432,0.0631 -3.26435,-0.0161 -0.12994,-0.006 -0.68617,-0.14844 -0.85053,-0.1807 -0.0867,-0.017 -0.35052,-0.0378 -0.26215,-0.0397 0.63516,-0.0135 1.27058,0.003 1.9059,0.005 0.0477,-0.14271 -0.19828,0.0465 -0.24786,0.0687 -0.51017,0.22894 -1.03828,0.41636 -1.58927,0.52071 -0.72837,0.12595 -1.41592,0.19399 -2.1558,0.1851 -1.35038,-0.0162 -2.4226,0.0916 -3.65257,-0.2152 -0.95655,-0.1325 -0.0686,0.007 1.58699,-0.10053 0.0465,-0.003 -0.075,-0.0731 -0.12139,-0.0689 -0.0579,0.005 -0.11459,0.0195 -0.1711,0.0331 -0.0764,0.0183 -0.15158,0.0415 -0.22739,0.0622 -1.57387,0.31139 -2.95775,0.71125 -4.63729,0.36918 -1.04199,-0.10949 0.41801,0.053 1.83144,-0.0291 0.10089,-0.006 0.18172,-0.0885 0.27146,-0.13489 0.0707,-0.0366 0.14166,-0.073 0.20984,-0.11412 0.006,-0.004 0.0169,-0.0227 0.0106,-0.019 -0.0583,0.0351 -0.11277,0.0762 -0.16915,0.11434 -0.90443,0.54789 -1.90936,0.97318 -2.95213,1.16001 -0.26792,0.021 -0.3305,0.0285 -0.32675,0.0144 0.0135,-0.0504 0.1636,-0.12728 0.11676,-0.10426 -0.022,0.0107 -0.042,0.0248 -0.0616,0.0393 -0.068,0.0503 -0.13405,0.10337 -0.2011,0.15505 -0.78325,0.5068 -1.59459,0.96688 -2.4407,1.36185 -0.28034,0.10783 -0.70903,0.35041 -1.03177,0.31205 -0.11314,-0.0134 0,-0.12458 -0.0683,-0.0806 -0.4454,0.64873 -1.03124,1.20125 -1.66502,1.6625 -0.50488,0.36481 -1.05146,0.71797 -1.65809,0.88477 -0.19161,0.17793 -0.27096,0.58752 -0.51845,0.85034 -0.43239,0.49827 -0.89559,0.96029 -1.33615,1.44931 -0.42071,0.50382 -0.8223,1.02229 -1.2156,1.54775 -0.45805,0.57125 -0.95406,1.10779 -1.47042,1.62655 -0.41461,0.39257 -0.8296,0.78927 -1.17161,1.2483 -0.2681,0.39086 -0.56501,0.7573 -0.86407,1.11901 -0.26744,0.303 -0.30245,0.73777 -0.42683,1.10957 -0.23746,0.9447 -0.40653,1.90764 -0.75038,2.82364 -0.22709,0.6871 -0.50739,1.35457 -0.70697,2.05044 -0.12565,0.39798 -0.3262,0.76237 -0.23177,1.19163 0.12163,0.56319 0.18174,1.13392 0.24526,1.70641 0.0917,0.73607 0.17217,1.47452 0.24916,2.21149 0.0364,0.50308 0.10316,0.98783 0.25752,1.4712 0.0394,0.19031 0.24427,0.80048 0.12126,0.9333 -0.009,-0.0109 -0.0331,-0.0457 -0.0276,-0.0326 0.0337,0.0794 0.0733,0.15867 0.12954,0.2241 0.0101,0.0119 -0.006,-0.0398 0.008,-0.0461 0.0627,-0.0277 0.14152,0.19242 0.15946,0.13001 0.42167,0.22808 0.58222,0.78686 0.86344,1.15076 0.12793,0.11543 0.0337,-0.0664 0.22387,0.0141 0.56602,0.26055 1.10815,0.5651 1.64859,0.87509 0.5108,0.34497 1.00438,0.71335 1.51694,1.05573 0.2472,0.16136 0.44756,0.16953 0.72945,0.24256 0.39082,0.12432 0.76989,0.28054 1.17951,0.33251 0.45548,0.009 0.89906,0.10494 1.35049,0.1648 0.71223,0.0834 1.42023,0.20263 2.13564,0.26255 0.75864,0.0661 1.5164,0.0654 2.27697,0.0778 1.14679,0.0414 2.28058,0.22238 3.40863,0.42576 1.02804,0.13633 2.05843,0.25526 3.0829,0.41735 0.83212,0.15161 1.66486,0.32949 2.50698,0.40729 0.39103,0.0214 0.15703,0.0114 0.54226,0.0216 0.0903,0.002 0.36111,0.008 0.27081,0.008 -3.22726,0.002 -1.65643,-0.0167 -0.94925,-8e-4 0.41997,0.004 0.83497,0.0354 1.25389,0.0495 1.16612,0.0393 2.01501,-0.0601 3.04974,0.23133 0.11639,0.0329 0.23281,0.0659 0.34923,0.0988 0.0979,0.0272 0.19595,0.054 0.29374,0.0817 0.10787,0.0305 0.43524,0.0909 0.32316,0.093 -1.63666,0.03 -1.52744,-0.5384 -1.61888,0.0592 0.35354,0.27107 1.46965,-0.35732 1.8588,-0.41364 1.11287,-0.25743 2.22637,-0.57535 3.37923,-0.56172 0.48787,0.0322 0.92091,0.19993 1.38385,0.3412 0.13695,-0.003 0.27938,0.0101 0.40873,-0.0511 0.6172,-0.29155 0.99952,-0.95704 1.57094,-1.31482 1.31001,-1.04087 2.74336,-2.00442 4.48699,-1.95376 2.76151,-2.00804 5.60131,1.89731 2.8398,3.90534 z"
       inkscape:connector-curvature="0" />
    <path
       style="display:inline;fill:#ffb380;fill-opacity:1;stroke-width:0.26458332"
       id="path564"
       d="m 194.10754,122.20752 c -1.70034,0.069 -3.22786,-0.75373 -4.78753,-1.30944 -1.15562,-0.35374 -2.3414,-0.5933 -3.51131,-0.89261 -1.00563,-0.20803 -1.97517,-0.55696 -2.98225,-0.75673 -0.86267,-0.15806 -1.74135,-0.10329 -2.61249,-0.0884 -1.30818,0.0191 0.77903,0.004 1.16757,-0.0195 0.13571,-0.008 -0.27064,-0.027 -0.40542,-0.0447 -0.32432,-0.0427 -0.64854,-0.0891 -0.96618,-0.16667 -0.0962,0.0634 -0.2582,-0.13893 -0.34742,-0.13867 -0.19008,5.3e-4 -0.41775,0.11882 -0.59751,0.17405 -0.67487,0.21519 -1.33257,0.45914 -1.97363,0.76115 -1.23246,0.56837 -2.50902,1.01467 -3.835,1.30189 -0.45051,0.0788 -0.9039,0.18228 -1.36068,0.22214 -0.15883,0.0139 -0.2777,-0.0159 -0.42754,0.0431 -0.70995,0.76274 -1.51233,1.41282 -2.36421,2.00879 -0.91514,0.59917 -1.89396,1.08965 -2.85387,1.61084 -0.68654,0.42704 -1.20499,1.07404 -1.80414,1.61235 -0.45723,0.42773 -0.97838,0.7839 -1.39827,1.24954 -0.37296,0.46198 -0.51599,1.04993 -0.67099,1.61062 -0.22032,0.91029 -0.41246,1.82746 -0.60698,2.7436 -0.21627,0.73363 -0.22079,1.47469 -0.16999,2.22888 0.0834,1.08905 0.14221,2.17952 0.15406,3.27172 0.007,0.94078 -0.10816,1.87891 -0.0823,2.81937 0.0309,0.48718 0.14507,0.96741 0.26778,1.43913 0.28197,0.73547 0.59621,1.45757 0.85426,2.20254 0.32221,0.9821 0.57642,1.98542 0.81833,2.98989 0.1895,0.61578 0.32798,1.26242 0.69347,1.80328 0.22146,0.38964 0.45114,0.80765 0.80537,1.09409 0.48101,0.16293 0.96012,0.35965 1.43039,0.56863 1.02113,0.40089 1.95149,0.94356 2.82318,1.60496 0.11041,0.0841 0.96372,0.86078 1.12223,0.7503 0.0243,-0.0169 0.0175,-0.0566 0.0262,-0.0849 0.16555,-0.46416 1.29701,-0.2157 1.65925,-0.17811 0.83127,0.13773 1.65301,0.31219 2.49828,0.3282 -0.88826,0.0608 1.86203,-0.0499 1.0179,-0.0735 -2.97794,-0.0833 -1.37879,0.002 -0.72742,0.0279 1.35443,0.10382 2.74392,-0.1154 4.07485,0.17797 0.28194,0.0358 1.2705,0.53971 1.51315,0.33409 0.41524,-0.48597 0.0813,-0.0632 -1.62666,-0.11708 -0.0518,-0.002 0.10343,0.006 0.15521,0.009 0.24014,0.01 0.4789,-0.006 0.719,-0.0128 1.07162,-0.001 2.14384,-0.021 3.21445,0.0333 0.20157,-0.005 0.40161,-0.0293 0.60227,-0.0454 0.0735,-0.006 0.29449,-0.0111 0.22077,-0.0128 -0.66863,-0.0145 -2.19202,-0.0172 -1.29386,-0.0152 0.46312,-0.0169 0.92546,0.0241 1.38768,0.046 0.87242,-0.25967 1.79216,0.11662 2.67777,0.0413 0.70356,-0.0235 0.0456,2.5e-4 -1.39983,-0.004 -0.0555,-1.5e-4 0.11086,-0.005 0.16632,-0.006 0.16913,-0.002 0.33851,-0.003 0.50763,-2.6e-4 0.91612,0.006 1.83353,-0.0214 2.74937,0.002 0.0521,0.003 0.10411,0.008 0.15628,0.009 0.73991,0.0165 -0.40597,-0.0209 0.31639,0.002 0.0497,0.002 0.19892,0.006 0.14915,0.006 -1.82444,0.002 -2.06418,0.012 -1.39923,-0.0103 0.39193,-0.0597 0.78431,-0.023 1.17773,-0.0198 0.63898,0.004 1.27798,0.007 1.91695,0.0124 0.11959,0.001 0.47831,0.006 0.35872,0.006 -3.80032,0.23968 -2.00237,-0.14554 -1.51485,0.0199 0.48501,-0.0667 0.95084,-0.21956 1.4296,-0.31936 0.51049,-0.0783 1.01706,-0.19021 1.53032,-0.24904 0.38373,-0.0858 0.7708,-0.24159 1.16958,-0.22173 0.36662,7.9e-4 0.73056,-0.25046 1.04771,-0.41146 0.44495,-0.24001 0.93784,-0.36034 1.38606,-0.58998 0.4252,-0.22435 0.79548,-0.53667 1.18326,-0.81782 0.64841,-0.51738 1.27076,-1.05851 1.95633,-1.52822 0.38309,-0.28437 0.8237,-0.52031 1.14144,-0.88277 0.24825,-0.44868 0.48797,-0.90298 0.71845,-1.36127 0.25329,-0.51942 0.42632,-1.07499 0.53804,-1.64098 0.0639,-0.70711 0.0204,-1.41868 0.0243,-2.12774 0,-0.89147 0.0846,-1.77989 0.13187,-2.66942 0.0549,-0.68945 0.0275,-1.3772 -0.0217,-2.06543 -0.0763,-0.85856 -0.0805,-1.71918 -0.0857,-2.58054 0.0487,-0.48637 -0.12772,-0.92742 -0.27612,-1.38078 -0.22191,-0.75067 -0.37645,-1.51773 -0.5869,-2.2716 -0.11332,-0.49523 -0.38071,-0.90971 -0.60068,-1.357 -0.46869,-0.62912 -0.84117,-1.31107 -1.17682,-2.01898 -0.22049,-0.37403 -0.30517,-0.87632 -0.62326,-1.19175 -0.0485,-0.048 -0.26174,-0.15645 -0.3114,-0.18313 -0.75719,-0.34083 -1.42696,-0.83507 -2.09498,-1.32153 -0.70278,-0.51496 -1.30407,-1.1508 -1.97897,-1.69759 -0.51795,-0.42533 -1.03942,-0.84444 -1.57488,-1.24727 -0.21093,-0.20513 -0.61188,-0.32216 -0.75769,-0.58924 0.66916,-0.40999 0.95451,-1.09947 1.324,-1.76364 -2.30248,-0.67787 -1.34382,-3.93406 0.95864,-3.25619 v 0 c 0.81957,-0.98824 1.23184,-1.76363 2.60956,-1.42073 0.74652,0.29344 1.43936,0.71068 2.05661,1.22413 0.50831,0.42565 0.99356,0.88008 1.53244,1.26829 0.61475,0.47876 1.35556,0.7598 1.98916,1.21397 1.1901,0.8539 2.27679,1.83264 3.07851,3.07364 0.58515,0.923 1.07537,1.89407 1.52542,2.88966 0.36,0.76964 0.74584,1.52697 1.00918,2.33785 0.32083,0.83126 0.56891,1.69815 0.75798,2.56816 0.13896,0.74468 0.2563,1.49312 0.4056,2.23587 0.16521,0.94253 0.32078,1.88615 0.34544,2.84548 0.006,0.86669 0.0358,1.73273 -0.007,2.59903 -0.0412,0.84753 -0.0927,1.69639 -0.22225,2.53577 -0.0875,0.79024 0.0758,1.58558 0.007,2.37819 -0.0425,1.1424 -0.2358,2.2532 -0.57732,3.34589 -0.21014,0.78727 -0.38786,1.58104 -0.59119,2.36988 -0.36171,1.17488 -0.87204,2.27831 -1.68304,3.21832 -0.60161,0.7039 -1.26892,1.31551 -2.02909,1.84504 -0.55346,0.46331 -1.1185,0.91406 -1.626,1.4289 -0.80576,0.71563 -1.69217,1.31949 -2.68512,1.74873 -0.4119,0.1594 -0.83174,0.30766 -1.26513,0.39424 -0.45175,0.11327 -0.98494,0.62378 -1.44026,0.78076 -0.55944,0.2727 -1.14496,0.47406 -1.76107,0.57359 -0.46212,0.13165 -0.93607,0.21073 -1.39184,0.36689 -0.62656,0.17037 -1.25555,0.33312 -1.88748,0.48149 -0.97867,0.1987 -1.71032,0.13326 -2.8111,0.13817 -0.061,2.6e-4 -0.82375,-2e-5 -0.36187,0.006 0.51496,0.007 1.03,0.008 1.54499,0.0124 -0.39669,0.003 -0.79225,0.0392 -1.18759,-0.0197 -0.89138,-0.0292 -1.78429,-0.0197 -2.6753,0.006 -0.60802,0.015 -1.60341,-0.003 1.22208,-0.001 0.50429,2.6e-4 -1.00756,0.0305 -0.5112,0.003 -0.91136,0.0164 -1.82544,-0.0329 -2.7363,-0.009 -0.69135,-0.0612 -2.20308,0.16168 0.79931,0.0376 -0.44696,0.0234 -0.89347,0.0701 -1.3416,0.0568 -1.07058,0.01 -2.14344,0.0391 -3.20704,-0.0948 -0.62145,0.001 -1.58914,-0.008 1.27437,0.0154 0.29294,0.002 -0.67435,-0.037 -0.49498,0.0336 -1.27011,0.11739 -2.57816,0.27238 -3.83387,-0.0356 -0.14285,-0.0361 -1.15432,-0.36636 -1.28492,-0.28836 -0.0199,0.0119 -0.005,0.046 -0.007,0.0691 -0.5375,0.3401 -0.0694,0.0228 1.52276,0.0799 0.0856,0.003 -0.17079,0.0139 -0.2562,0.0207 -0.33125,0.0264 -0.661,0.0629 -0.99118,0.10078 -1.64068,0.1861 -3.31081,0.19652 -4.93932,-0.0936 -0.7362,-0.14121 -1.47278,-0.31241 -2.22676,-0.29335 -0.95274,-0.0261 -1.89285,-0.11877 -2.78405,-0.49533 -0.91982,-0.41288 -1.79687,-0.90593 -2.7123,-1.32729 -0.91149,-0.43381 -1.79398,-0.91811 -2.60998,-1.51689 -0.81926,-0.57281 -1.6252,-1.16926 -2.31778,-1.89537 -0.68609,-0.71378 -1.35009,-1.44669 -1.89841,-2.27488 -0.65148,-1.12646 -1.18874,-2.31209 -1.47865,-3.58745 -0.22005,-0.92778 -0.36615,-1.86776 -0.53308,-2.80612 -0.0897,-0.61022 -0.27448,-1.18137 -0.55756,-1.73157 -0.45733,-1.0237 -0.78988,-2.09148 -0.87751,-3.21607 -0.0836,-1.08056 -0.11213,-2.16358 -0.0923,-3.2474 0.027,-0.94642 0.0732,-1.8941 -0.007,-2.83966 -0.0677,-1.243 -0.14211,-2.49116 0.0151,-3.73145 0.19227,-1.31514 0.50252,-2.60823 1.01885,-3.83763 0.44078,-1.02481 0.90758,-2.03965 1.46308,-3.00842 0.59047,-0.95118 1.2538,-1.85457 2.10182,-2.5955 0.69337,-0.62217 1.4814,-1.13778 2.08619,-1.85726 0.84873,-0.89839 1.72188,-1.78207 2.74833,-2.48089 1.08929,-0.70739 2.25502,-1.24393 3.41127,-1.82813 0.73239,-0.40049 1.41573,-0.86203 2.12072,-1.30797 1.31476,-0.74293 2.72743,-1.27817 4.19803,-1.62597 1.00188,-0.20076 2.02827,-0.42744 3.05589,-0.35699 0.19045,-0.0109 0.42757,0.0194 0.61449,-0.0304 0.28231,-0.0752 0.54301,-0.22925 0.82886,-0.29538 1.56332,-0.52247 3.20276,-0.49895 4.844,-0.399 1.24827,0.10605 2.47038,0.36101 3.66897,0.72686 0.93356,0.24326 1.89259,0.34112 2.84496,0.48361 1.66066,0.228 3.31393,0.57858 4.85974,1.2449 1.26399,0.5607 2.82344,1.20297 3.74134,2.28532 0.1312,0.15473 0.22018,0.3408 0.33028,0.51121 3.93848,2.73241 0.0743,8.30224 -3.86422,5.56982 z"
       inkscape:connector-curvature="0" />
    <path
       style="display:inline;fill:#ffb380;fill-opacity:1;stroke-width:0.26458332"
       id="path566"
       d="m 101.65209,155.06093 c -0.10258,0.27546 -0.16992,0.56675 -0.30774,0.82639 -0.98065,1.84769 -2.799662,3.00739 -4.567712,3.98796 -1.543,0.75224 -3.18712,1.22838 -4.8985,1.33639 -0.53567,-0.0266 -1.00491,0.0896 -1.5087,0.26097 -1.09501,0.44361 -2.22568,0.75217 -3.38998,0.94408 -1.28074,0.21437 -2.58659,0.11153 -3.87945,0.20533 -0.2268,0.0165 -0.90752,0.0249 -0.68083,0.0428 0.25575,0.0201 2.52418,0.009 0.71224,0.0156 -0.79243,0.0425 -1.57383,-0.13831 -2.35996,-0.17155 -2.88168,-0.12186 -1.6411,0.13774 -3.09575,-0.21912 -1.11797,-0.37155 -2.21541,-0.80731 -3.31195,-1.2385 -0.6831,-0.21024 -1.35573,-0.43849 -2.01832,-0.71022 -0.87866,-0.3922 -1.7431,-0.83208 -2.57175,-1.32241 -0.32152,-0.24095 -0.71218,-0.28727 -1.06892,-0.43165 -0.94977,-0.32856 -1.72746,-0.92895 -2.42001,-1.64191 -0.4504,-0.53654 -0.86074,-1.18229 -0.97734,-1.88906 -0.0759,-0.46016 -0.4839,-1.10417 -0.11862,-1.39411 1.64701,-1.30726 3.72042,-1.9608 5.58062,-2.9412 0.10081,0.0726 0.20717,0.13792 0.30239,0.21765 0.085,0.0711 0.92435,0.87911 0.77809,0.86265 -1.35715,-0.1527 -2.70944,-0.47075 -3.98074,-0.96977 -0.24085,-0.0945 0.45279,-0.28504 0.70993,-0.31412 0.83122,-0.094 1.6727,-0.0332 2.50905,-0.0498 1.69317,-0.0305 3.36367,0.3065 5.01097,0.66106 1.48624,0.35009 2.98823,0.52705 4.51199,0.55373 1.6243,0.0261 3.24485,0.15029 4.85944,0.3236 0.93954,0.10641 1.87757,0.24104 2.82284,0.2882 0.19519,0.01 0.78134,0.009 0.58603,0.0151 -0.46286,0.0142 -0.92612,0.006 -1.3892,0.01 1.07882,0.11584 2.14559,-0.0193 3.21154,-0.17317 1.72223,-0.19306 3.46179,-0.0673 5.1865,0.005 0.46048,0.0953 0.93009,0.16432 1.40107,0.12856 0.0958,-0.007 0.38214,-0.0286 0.28623,-0.0325 -0.483,-0.0195 -0.96674,-0.01 -1.4501,-0.0146 0.78129,-0.0357 1.55821,-0.13664 2.33836,-0.19619 0.95033,0.007 1.915502,0.04 2.857872,0.12505 0.29422,0.0266 0.64844,0.25932 0.90315,0.38947 0.36732,0.19796 0.74743,0.32509 1.16258,0.35309 0.95711,0.21891 0.25104,0.12769 -1.16797,0.18329 -0.0754,0.0467 -0.72446,0.47766 -0.71348,0.55639 0.6328,4.53587 2.27306,5.1987 0.68308,4.50509 0.31961,-0.0233 0.64709,0.005 0.95879,-0.0697 0.12661,-0.0302 -0.2568,-0.0426 -0.3846,-0.0672 -0.1802,-0.0346 -0.36327,-0.0587 -0.5393,-0.11046 -0.89685,-0.26392 -0.68289,-0.28115 -1.51717,-1.07315 -1.206502,0.46786 -1.868142,-1.23838 -0.66164,-1.70624 v 0 c 0.0821,-0.33294 0.081,-0.6984 0.24635,-0.99882 0.1011,-0.18368 0.32573,-0.2672 0.50771,-0.3713 0.80028,-0.45771 1.79038,-0.40151 2.663,-0.43612 1.8264,-0.39608 0.53629,-0.22323 1.42275,4.5173 0.0217,0.1161 -0.674,0.48419 -0.72327,0.50977 -0.10595,0.055 -0.2169,0.0999 -0.32536,0.14983 -1.0537,0.0422 -2.11485,0.17325 -3.14301,-0.11817 -0.18899,-0.0645 -0.893392,-0.38232 -1.060022,-0.3583 -0.0154,0.002 -0.007,0.0301 -0.0106,0.0452 -0.003,0.0943 0.0146,0.0925 -0.0581,0.16321 -0.0257,0.0248 -0.1212,0.06 -0.0858,0.0636 1.987102,0.20174 1.953212,-0.0275 1.261112,0.14757 -0.899892,0.15088 -1.782452,0.40927 -2.698502,0.46272 -0.76123,0.005 -1.52249,0.0227 -2.28371,0.0138 -0.60574,-0.007 -1.21063,-0.21409 -1.81776,-0.1164 3.63712,0.15564 1.78519,0.005 1.33885,0.0851 -0.55579,0.0992 -1.07823,0.34765 -1.6392,0.42711 -1.3881,0.25824 -2.77752,0.53547 -4.19067,0.61276 -2.1874,0.009 -4.37167,0.0233 -6.55129,-0.19216 -1.55094,-0.0891 -3.10126,-0.10255 -4.65387,-0.13988 -1.93037,-0.13333 -3.85362,-0.38311 -5.72619,-0.88632 -1.27666,-0.31449 -2.56696,-0.63739 -3.78595,-1.13435 0.56021,-0.0394 1.13332,0.008 1.68061,-0.11818 0.11621,-0.0267 0.29321,-0.27487 0.17915,-0.3096 -1.38033,-0.42014 -2.79395,-0.77291 -4.22894,-0.92312 -0.10576,-0.011 0.69509,0.82278 0.70593,0.87049 4.89363,-2.77634 5.70304,-1.08887 5.20711,-4.31319 -0.003,-0.014 -0.33824,-0.75074 -0.1229,-0.75858 0.014,-0.0446 -0.11232,-0.21958 -0.0894,-0.22264 0.0901,-0.012 0.17862,0.0695 0.26948,0.0425 0.85297,0.17087 1.64777,0.58626 2.41882,0.97352 0.49483,0.25378 0.95466,0.59375 1.50741,0.70934 0.89285,0.18005 1.76835,0.41418 2.59387,0.81088 0.57985,0.26246 0.32303,0.13572 0.8699,0.42345 0.0576,0.0303 0.3497,0.20116 0.46991,0.2243 0.0352,0.007 0.0445,-0.1167 0.0378,-0.10077 0.6939,-0.29618 0.0335,0.0142 -1.4558,-0.12405 -0.15878,-0.0147 0.31676,-0.0367 0.475,-0.0562 0.5959,-0.0734 1.18982,-0.10523 1.7905,-0.12142 1.04512,8e-4 2.73048,8e-4 3.4534,0.0124 0.22328,0.004 0.4459,0.026 0.66856,0.0428 0.21123,0.016 0.8422,0.0221 0.63302,0.0555 -0.4755,0.0758 -0.96703,-0.002 -1.44264,0.0735 -0.1714,0.0271 0.34362,0.0486 0.51544,0.0729 0.62671,0.11156 1.23176,0.38666 1.8665,0.1792 1.08633,-0.33318 2.1793,-0.74086 3.33132,-0.72554 0.0609,0.006 0.37952,0.0237 0.474,0.0645 0.0309,0.0134 0.0406,0.059 0.0722,0.0708 0.23471,0.0874 0.5707,-0.44686 0.71014,-0.46985 1.53307,-1.32951 3.08015,-2.76601 5.11064,-3.25492 3.0866,-3.69079 8.306162,0.67436 5.219562,4.36516 z"
       inkscape:connector-curvature="0" />
    <path
       style="display:inline;fill:#ffb380;fill-opacity:1;stroke-width:0.26458332"
       id="path570"
       d="m 98.217298,154.45827 c -1.08472,-0.98442 -1.50927,-2.33618 -1.72374,-3.7418 -0.12274,-1.11665 -0.0933,-2.24331 -0.21865,-3.35933 -0.18322,-0.96275 -0.455,-1.90505 -0.66627,-2.86199 -0.20934,-0.97593 -0.2584,-1.97418 -0.3098,-2.96783 -0.0578,-0.98022 -0.0769,-1.96126 -0.0532,-2.94273 0.0185,-0.71623 0.18661,-1.41688 0.23463,-2.1298 -0.0641,-0.96778 0.10761,-1.89778 0.41458,-2.8108 0.29569,-0.8084 0.75816,-1.53818 1.18731,-2.27944 0.34653,-0.66426 0.62672,-1.35992 0.94867,-2.03599 0.2046,-0.47051 0.51845,-0.87963 0.77113,-1.32233 0.23256,-0.50977 0.35475,-1.05873 0.5494,-1.58336 0.22551,-0.576 0.56618,-1.09118 0.959492,-1.56457 0.23426,-0.21686 0.31186,-0.53264 0.43315,-0.81658 0.2133,-0.46474 0.52953,-1.01342 1.1331,-1.0033 0.27707,0.005 0.53946,0.12712 0.8092,0.19067 1.57562,-0.97192 2.95011,1.25634 1.37451,2.22826 v 0 c 0.18577,0.095 0.36026,0.21649 0.55735,0.28512 0.31668,0.11029 0.45453,-0.17284 0.27479,0.0535 -0.20044,0.27991 -0.31334,0.58994 -0.40608,0.92093 -0.16788,0.56881 -0.42312,1.10637 -0.7648,1.59227 -0.15354,0.2129 -0.1809,0.26044 -0.34293,0.45151 -0.10715,0.12635 -0.24867,0.21218 -0.25784,0.38952 -0.0586,0.66725 -0.18512,1.32915 -0.46728,1.94174 -0.3335,0.73759 -0.7498,1.42947 -1.10609,2.15581 -0.31088,0.67346 -0.62306,1.34741 -0.96565,2.00529 -0.10972,0.19393 -0.16031,0.29303 -0.2799,0.47158 -0.052,0.0776 -0.12897,0.14121 -0.16224,0.2285 -0.0518,0.13614 -0.0268,0.2728 -0.0217,0.41455 0.0877,0.77524 0.28664,1.53979 0.267,2.32608 -0.0238,0.90737 -0.1205,1.80456 -0.25363,2.7021 -0.004,0.70204 0.34158,1.30921 0.55871,1.96349 0.39361,1.27808 0.6442,2.5917 0.51026,3.93579 -0.0301,0.4157 -0.0944,0.85616 -0.0592,1.27438 0.0366,0.43512 0.19238,0.84686 0.31026,1.26333 0.37347,1.32391 0.61295,2.73986 0.0156,4.03826 0.41521,2.29832 -2.835112,2.88551 -3.250322,0.58719 z"
       inkscape:connector-curvature="0" />
    <path
       style="display:inline;fill:#ffb380;fill-opacity:1;stroke-width:0.26458332"
       id="path574"
       d="m 147.59352,158.59424 c -0.1815,-0.11839 -0.3806,-0.21342 -0.5445,-0.35519 -0.9414,-0.81422 -1.32939,-2.06565 -1.63628,-3.22181 -0.1756,-0.97273 -0.46659,-1.91625 -0.71489,-2.87122 -0.28226,-1.16455 -0.44173,-2.35788 -0.56799,-3.54852 -0.0963,-0.99065 -0.20593,-1.97969 -0.31226,-2.9694 -0.11194,-0.90577 -0.16068,-1.81552 -0.17513,-2.72738 -0.0249,-0.77005 0.0111,-1.54005 0.0148,-2.31009 0.0156,-0.68513 0.0122,-1.37031 0.0135,-2.05558 -0.003,-0.77402 0.0339,-1.54733 0.13057,-2.31526 0.10547,-0.7883 0.30967,-1.55693 0.56147,-2.3098 0.19633,-0.59872 0.36576,-1.20585 0.54129,-1.81089 0.14584,-0.55132 0.32155,-1.09371 0.48339,-1.64031 0.15574,-0.4526 0.22014,-0.92612 0.29112,-1.39716 0.0466,-0.50008 0.10565,-0.998 0.16722,-1.49638 0.0588,-0.56703 0.11427,-1.13441 0.19151,-1.6993 0.10078,-0.64842 0.33684,-1.26688 0.66593,-1.8324 0.21013,-0.28674 0.38287,-0.58124 0.5258,-0.90615 0.14954,-0.38902 0.32652,-0.76464 0.52824,-1.12898 0.28136,-0.47625 0.60233,-0.92466 0.97171,-1.33642 0.28715,-0.35347 0.58653,-0.69488 0.90377,-1.02191 0.30464,-0.32191 0.66262,-0.56871 1.04317,-0.78314 -0.15134,0.30994 0.21309,0.30618 0.4269,0.3694 0.24921,0.0737 0.49395,0.16168 0.74092,0.24252 0.66061,-1.47362 2.74463,-0.53936 2.08399,0.93425 v 0 c 0.1974,0.14697 0.75539,0.45261 0.84223,0.79872 0.0858,0.34194 -0.25458,0.68717 -0.43557,0.92069 -0.21749,0.23154 -0.4405,0.45434 -0.67318,0.67054 -0.29617,0.28161 -0.5997,0.55536 -0.9258,0.7995 -0.14481,0.14459 -0.27265,0.24836 -0.33205,0.47 -0.19138,0.35989 -0.39508,0.71324 -0.64014,1.03992 -0.17142,0.24329 -0.24701,0.52985 -0.34049,0.80989 -0.0989,0.26029 -0.22016,0.50925 -0.33673,0.7615 -0.17828,0.29732 0.0574,0.75665 -0.003,1.07338 0.005,0.72539 -0.0545,1.44536 -0.24336,2.14903 -0.12221,0.54764 -0.30266,1.07896 -0.39294,1.63387 -0.12157,0.57519 -0.20169,1.15917 -0.35528,1.72783 -0.16857,0.67107 -0.38066,1.32993 -0.57351,1.99428 -0.15298,0.52155 -0.36811,1.02754 -0.43447,1.57087 -0.0838,0.55107 -0.14298,1.10172 -0.10478,1.6605 0.0185,0.73334 0.0441,1.46695 0.0383,2.20055 -0.0251,0.71663 -0.0649,1.43201 -0.12073,2.14695 0.0109,0.68815 0.14131,1.36129 0.31565,2.02602 0.25736,1.11737 0.46024,2.25093 0.51734,3.39802 0.04,1.00136 0.008,2.00293 0.0398,3.00425 0.11448,0.84726 0.3578,1.66816 0.67961,2.45972 0.31078,0.85762 0.72493,1.87825 0.65871,2.80632 -0.0122,0.1693 -0.0701,0.33213 -0.10515,0.49819 1.11056,2.41142 -2.29971,3.982 -3.41027,1.57058 z"
       inkscape:connector-curvature="0" />
    <path
       style="display:inline;fill:#ffb380;fill-opacity:1;stroke-width:0.26458332"
       id="path576"
       d="m 146.53011,162.36025 c -0.14523,0.017 -0.28951,0.0486 -0.43572,0.051 -0.35999,0.006 -0.49765,-0.0567 -0.83905,-0.0856 -0.41365,-0.035 -1.95536,0.13414 0.95122,-0.0778 -0.0476,0.0833 0.30757,-0.36668 0.24639,-0.32446 -0.19198,0.13253 -0.34808,0.31093 -0.5289,0.45835 -0.12688,0.10347 -0.26104,0.19768 -0.39158,0.29651 -0.78137,0.53421 -1.66788,0.85169 -2.57158,1.10522 -0.84724,0.22796 -1.71028,0.35597 -2.5815,0.44114 -0.3066,0.004 -1.05741,0.1218 -1.31436,-0.0789 -0.0148,-0.002 0.0542,-0.14112 0.0521,-0.14058 -0.15261,0.038 -0.27903,0.14541 -0.42149,0.21204 -0.0985,0.0461 -0.20063,0.0841 -0.30096,0.12619 -0.89742,0.29292 -1.90516,0.37228 -2.81919,0.10603 -1.78093,-0.82018 -0.041,-1.33852 1.57117,-4.50699 0.0306,-0.0601 0.0872,0.10289 0.13012,0.15484 0.10056,0.12152 0.20025,0.24371 0.3004,0.36556 0.2017,0.44559 0.92633,1.3297 0.2768,1.88483 -0.12015,0.10268 -0.30805,-0.0709 -0.46208,-0.10631 0.17526,1.41396 -1.82437,1.66184 -1.99963,0.24788 v 0 c -0.16453,-0.10641 -0.30993,-0.38752 -0.49358,-0.31921 -0.53385,0.19857 -0.0721,1.83874 0.25706,1.68933 0.0679,0.10675 0.15883,0.20195 0.20369,0.32026 0.0145,0.0382 -0.0535,0.15448 -0.0382,0.11658 0.58444,-1.44173 1.16364,-2.88557 1.74545,-4.32836 -0.0376,-0.03 -0.0835,-0.0519 -0.11273,-0.09 -0.0233,-0.0303 0.0601,-0.0878 0.0617,-0.0893 0.45468,-0.19 0.71961,-0.10527 -0.93136,-0.0771 -0.0432,7.9e-4 0.0869,0.006 0.12813,0.0192 0.0593,0.0185 0.0902,0.0579 0.13174,0.0989 0.0159,0.0175 0.0351,0.0324 0.0477,0.0525 0.0109,0.0174 0.003,0.0529 0.0214,0.0577 0.14134,0.0342 0.73478,-0.39954 0.92801,-0.39905 0.45888,-0.14599 0.93112,-0.24176 1.41519,-0.23742 0.62031,-0.0298 1.22503,-0.18797 1.82161,-0.35113 0.59701,-0.13222 1.24434,-0.32445 1.85547,-0.18217 0.0271,0.0106 0.13382,0.0619 0.17211,0.0409 0.21043,-0.11563 0.35057,-0.32839 0.53293,-0.48461 0.59628,-0.51092 0.4786,-0.39538 1.20454,-0.7928 1.32853,-0.13126 2.15111,-0.34375 3.37026,0.0101 0.42094,0.12219 0.77526,0.25242 1.12419,0.52112 0.134,0.10318 0.23855,0.23981 0.35782,0.35972 2.78304,1.88462 0.1178,5.82045 -2.66526,3.93583 z"
       inkscape:connector-curvature="0" />
    <path
       style="display:inline;fill:#000000;fill-opacity:1;stroke-width:0.26458332"
       id="path343"
       d="m 182.31845,112.71032 c -1.66748,1.03 -3.50872,0.97971 -5.37157,1.18369 -0.0275,0.003 0.0343,0.0806 0.007,0.0827 -2.23753,0.0626 -1.1417,-0.005 -3.28795,0.19413 -2.5205,0.20568 -4.45405,1.4522 -6.24023,3.13365 -1.81472,1.97073 -3.66569,3.90788 -5.59569,5.76613 -1.65773,1.57102 -3.06944,3.32746 -4.12256,5.35224 -0.95194,1.75532 -1.10384,3.66466 -1.02629,5.61879 0.32234,3.09822 0.63659,6.19006 0.76237,9.30396 0.003,0.58044 0.0143,1.16094 0.007,1.74133 -0.0214,1.60843 -0.0492,1.68441 -0.18249,3.2509 -0.0786,0.92381 -0.19375,1.74608 0,2.65181 1.05614,1.27177 2.89949,2.05782 4.33898,2.8346 2.41388,1.28622 4.82524,2.50319 7.49676,3.13298 3.09735,0.28695 6.18792,0.44995 9.25928,0.98257 2.25465,0.36007 4.22309,1.66172 6.50441,1.8393 0.28779,-0.0201 0.82701,0.22576 0.86339,-0.0604 0.0357,-0.28107 -1.06064,0.023 -0.83659,-0.15045 0.31261,-0.24205 0.78709,-0.0758 1.18041,-0.11579 1.33668,-0.13602 2.67335,-0.2536 4.01215,-0.36748 2.3945,-0.20824 4.76308,-0.68806 7.04416,-1.44297 1.0787,-0.4475 2.21879,-0.78212 3.268,-1.29601 0.1955,-0.0957 1.4021,-0.87525 1.56472,-0.97928 1.49299,-1.08559 2.81826,-2.37125 3.99142,-3.79602 1.23635,-1.36741 1.98038,-3.01839 2.55612,-4.74639 0.61317,-1.94106 0.67101,-3.93262 0.5503,-5.94316 -0.16878,-2.2472 -0.93482,-4.31405 -1.71209,-6.40056 -0.76549,-1.98416 -1.93146,-3.76799 -3.04935,-5.56427 -1.25349,-2.03699 -2.05928,-4.28807 -2.76677,-6.55944 -0.41093,-1.53365 -0.82751,-2.29702 -2.35157,-2.79919 -2.05576,-0.57117 -4.14882,-0.97095 -6.22501,-1.47871 -1.63795,-0.47554 -3.24562,-1.14046 -4.79115,-1.86692 -2.01158,-0.94552 0.17134,-0.0877 -1.72067,-0.79314 -1.58853,-0.57099 -3.31835,-0.50816 -4.98197,-0.68774 -0.34483,-0.0391 -3.00225,-0.39175 -2.93621,-0.8501 0.0678,-0.47046 0.51435,-0.79948 0.77152,-1.19922 -0.28646,0.0799 -1.4161,-3.97144 -1.12964,-4.05132 v 0 c 2.60279,-1.54116 3.14328,-1.95888 6.12405,-1.64134 2.32471,0.29881 4.62552,0.77752 6.77407,1.74871 0.66615,0.33879 1.35999,0.62287 2.01674,0.97951 1.28714,0.69898 2.52119,1.51869 3.80336,2.22776 1.9659,1.1636 3.99981,2.2274 5.78858,3.6606 1.80041,1.56248 3.18399,2.92098 4.0936,5.1958 0.77497,1.90135 1.50437,3.83218 2.64179,5.55695 1.33143,2.18058 2.76087,4.33467 3.47236,6.81717 0.0972,0.44727 0.22635,0.88876 0.29155,1.34179 0.29395,2.04227 -0.0449,4.13172 0.0483,6.18228 0.11089,2.47623 0.10496,4.9861 -0.73736,7.35309 -0.85228,2.10169 -1.95242,4.03386 -3.58601,5.6387 -1.34278,1.31761 -2.53605,2.74343 -3.5638,4.31785 -1.23479,1.78068 -2.57479,3.49722 -4.40897,4.70164 -2.43747,1.60724 -5.05071,2.85098 -7.89754,3.5609 -1.38192,0.32266 -1.85637,0.48374 -3.268,0.61511 -2.39975,0.22331 -4.85106,-0.0505 -7.23948,-0.22762 -2.44253,-0.24955 -4.87291,-0.19131 -7.32483,-0.23849 -3.45281,-0.27108 -6.91925,-0.61742 -10.25565,-1.59922 -3.27551,-1.06334 -6.41776,-2.48265 -9.16278,-4.59799 -2.57202,-1.97604 -5.09639,-4.04322 -6.37154,-7.13051 -0.19704,-0.55216 -0.42722,-1.09361 -0.59113,-1.65649 -0.74353,-2.55293 -0.67473,-5.24581 -0.76415,-7.87447 -0.0447,-3.25547 -0.12721,-6.51422 0.0444,-9.76763 0.25884,-2.98259 0.6981,-5.9556 2.0687,-8.66069 1.45859,-2.69792 3.31303,-5.14674 5.66735,-7.13423 2.0683,-1.76922 4.38411,-3.22356 6.38833,-5.07516 0.34198,-0.30243 1.91334,-1.70062 2.23549,-1.9489 1.92969,-1.48714 4.15679,-2.55782 6.4588,-3.32539 3.05512,-0.74405 4.83801,-0.92323 8.13544,-0.70648 1.05875,0.0696 2.56042,0.39744 3.51245,0.93627 0.41542,0.23513 0.7349,0.60938 1.10236,0.91406 0.27693,0.0953 -1.07006,4.01151 -1.34697,3.91626 z"
       inkscape:connector-curvature="0" />
    <path
       style="display:inline;fill:#000000;fill-opacity:1;stroke-width:0.26458332"
       id="path349"
       d="m 155.73934,117.91005 c -2.34324,0.14524 -4.4099,-0.9118 -6.54832,-1.67533 -1.18031,-0.42143 -1.22843,-0.40446 -2.38953,-0.69246 -1.63605,-0.22008 -4.50834,0.20214 -7.15915,-0.0947 -2.06194,-0.28379 -4.09705,-0.46524 -6.1759,-0.33088 0.17885,0.0453 0.69834,0.0469 0.53662,0.13574 -0.33757,0.18536 -0.76093,0.12036 -1.13876,0.19489 -0.4196,0.0828 -0.83773,0.17394 -1.25283,0.27692 -1.4569,0.36145 -2.89195,0.789 -4.35383,1.13391 -2.16603,0.56352 -4.41494,0.85684 -6.45194,1.81727 -1.69598,1.06468 -3.10663,2.53683 -4.5875,3.87688 -1.39239,1.19282 -2.71555,2.44604 -3.89713,3.84815 -1.30643,1.67648 -2.5082,3.42953 -3.85805,5.07257 -1.29344,1.52877 -1.67867,2.10149 -1.76665,4.09123 -0.0214,2.71942 -0.50988,5.39551 -0.93932,8.07128 -0.16407,1.82509 -0.89075,3.76521 -0.38137,5.58599 1.06222,1.55284 2.1758,3.05312 3.06046,4.72103 0.80341,1.4147 0.96104,2.90172 2.59469,3.51395 2.04433,0.40584 4.09162,0.7341 6.11383,1.2568 2.25975,0.70367 4.5084,1.33207 6.86176,1.61242 2.59516,0.1746 5.12358,0.59767 7.62513,1.2986 1.73374,0.63341 3.44051,1.16383 5.29527,1.13204 0.29535,-0.0179 0.60118,0.0263 0.88604,-0.0537 0.19293,-0.0542 -0.79664,0.0156 -0.60069,-0.0264 0.32689,-0.0701 1.72001,-0.0608 2.0348,-0.0792 0.48753,-0.0286 1.5742,-0.16303 2.06526,-0.22064 1.44873,-0.10318 2.87777,-0.23085 4.22463,-0.79388 1.25614,-0.65908 2.50059,-1.29297 3.87441,-1.66383 0.26638,-0.0308 0.45677,-0.25401 0.70614,-0.3238 0.31703,-0.0887 0.20936,0.36772 0.31959,-0.19845 0.12444,-0.92085 0.74345,-1.30532 1.47699,-1.75314 0.0646,-0.0945 1.40144,0.8182 1.3369,0.91274 v 0 c -0.0628,0.32062 -0.0913,0.53608 0.058,0.82481 0.27295,1.27045 -0.0887,2.4551 -0.89749,3.45709 -1.12517,1.48517 -2.46232,2.18173 -4.2209,2.7288 -1.51156,0.64662 -2.89274,1.55441 -4.44973,2.10335 -2.87518,0.87971 -5.6401,1.41748 -8.68837,1.03003 -2.02856,-0.25198 -4.03619,-0.66915 -6.08073,-0.79106 -2.64594,-0.20366 -5.29053,-0.4138 -7.8627,-1.1226 -2.34805,-0.67605 -4.708,-1.28385 -7.10483,-1.76421 -2.54326,-0.64491 -5.09339,-1.37398 -7.28075,-2.8831 -1.89675,-1.52538 -3.42583,-3.33356 -4.38044,-5.59794 -0.94454,-1.86055 -2.09233,-3.59066 -3.051582,-5.44235 -1.11749,-2.74449 -1.52619,-5.604 -1.07706,-8.55741 0.48564,-2.63606 1.31342,-5.17245 1.978022,-7.76605 0.52589,-2.36564 0.95785,-4.79153 2.32569,-6.84974 1.28114,-1.86588 2.88123,-3.41689 4.51228,-4.9737 1.27135,-1.58783 2.31241,-3.35246 3.73542,-4.81696 1.75763,-1.74366 3.68271,-3.29268 5.73863,-4.67239 2.29264,-1.49294 4.68537,-2.81013 7.35703,-3.49778 3.69898,-0.97805 7.49683,-1.35417 11.3221,-1.09391 2.12161,0.19566 4.2292,0.49951 6.30655,0.98149 0.29192,0.0109 0.58836,-0.0197 0.87572,0.0326 0.16307,0.0297 -0.66146,0.029 -0.49588,0.0365 1.31942,0.0603 0.97184,-0.0485 2.369,-0.17219 2.95074,-0.26117 2.40488,-0.21919 4.7875,-0.21614 0.65429,0.0343 1.31334,0.0169 1.96287,0.10276 2.56749,0.33937 5.63923,1.40733 7.18061,3.64449 0.31213,0.45302 0.43643,1.01 0.65466,1.51501 0.22024,0.21815 -2.86499,3.33281 -3.08522,3.11465 z"
       inkscape:connector-curvature="0" />
    <path
       style="display:inline;fill:#000000;fill-opacity:1;stroke-width:0.26458332"
       id="path351"
       d="m 109.47988,121.67042 c -3.67582,0.79706 -7.19858,-0.6465 -10.558182,-1.99899 -1.74633,-0.67567 -3.3233,-1.98768 -5.21857,-2.22818 -0.003,1.8e-4 -1.2869,0.0483 -1.17951,0.16568 0.20844,0.22773 0.9253,-0.15271 0.91297,0.15577 -0.0124,0.31061 -0.61621,0.0824 -0.92416,0.12484 -0.98978,0.1364 -1.01256,0.14237 -2.02017,0.29139 -2.23716,0.34807 -4.45691,0.79593 -6.68878,1.17474 -1.81731,0.25571 -3.52951,0.66245 -5.09256,1.64266 -1.86905,1.44446 -3.5359,3.12954 -5.31689,4.68186 -2.21969,1.90189 -4.67132,3.4756 -7.1683,4.97913 -1.75154,0.89586 -2.43549,1.54841 -3.15198,3.33907 -0.62428,2.10024 -1.07333,4.25218 -1.29183,6.43194 -0.20568,2.59088 0.23932,4.7986 1.16528,7.19803 1.09328,2.29718 2.32709,4.51833 3.30589,6.86874 0.65736,1.52499 0.97502,2.90958 2.54693,3.67812 2.12828,0.74987 4.42188,0.91426 6.63895,1.28451 2.61141,0.45914 5.08924,1.36375 7.51819,2.39801 0.62982,0.21283 1.26672,0.55847 1.95456,0.52643 0.20045,-0.009 0.76504,0.003 0.59346,-0.10106 -0.48945,-0.29675 -1.88966,0.10092 -0.11581,-0.28582 2.38768,-0.78027 4.73326,-1.67145 7.12978,-2.43325 1.95493,-0.70523 3.956,-1.23302 6.01263,-1.51384 0.49297,0.10266 0.79084,-0.0556 1.22809,-0.12357 0.377302,0.0753 0.754622,0.15069 1.131942,0.22603 0.15748,-0.19606 2.93013,2.03103 2.77265,2.22709 v 0 c 0.0968,0.34473 0.19365,0.68946 0.29048,1.03418 -0.0906,0.17706 -0.14832,0.37522 -0.27175,0.53117 -0.3737,0.47218 -1.11953,0.58385 -1.29302,1.24496 -1.3694,1.83954 -3.368542,3.05955 -5.459302,3.93657 -1.3099,0.47396 -2.01446,0.78106 -3.38683,1.06674 -1.99065,0.41437 -4.05114,0.42449 -6.0733,0.37168 -1.9308,-0.0993 -0.7053,-0.0486 -3.6784,-0.0974 -1.31778,-0.0655 -2.62961,-0.40729 -3.94464,-0.51309 -2.63909,-0.3436 -5.28696,-0.68531 -7.86106,-1.38418 -2.82009,-0.89334 -5.58975,-2.00097 -7.87186,-3.94 -1.65232,-1.57298 -2.94024,-3.39022 -4.07503,-5.36692 -1.70678,-2.39163 -3.53952,-4.7398 -4.55158,-7.53468 -0.18325,-0.59561 -0.39775,-1.18249 -0.54975,-1.78684 -0.68609,-2.72824 -0.64577,-5.54866 -0.29657,-8.32184 0.41447,-2.55599 1.12146,-5.02876 1.86836,-7.50551 0.85103,-2.72377 2.1074,-5.2489 4.30601,-7.14994 1.09085,-0.84664 1.23449,-0.99827 2.39464,-1.7398 1.43026,-0.91416 2.98786,-1.63947 4.28731,-2.74977 2.08121,-1.75957 4.04135,-3.68089 6.33976,-5.16687 2.23027,-1.31873 4.42891,-2.32167 7.02042,-2.69412 2.35514,-0.51568 4.69591,-1.11809 7.08144,-1.47683 2.80009,-0.25012 5.69651,-0.24845 8.42675,0.48271 2.05546,0.559 4.150042,0.88405 6.264192,1.13465 2.79506,0.55207 6.47491,1.13122 8.64272,3.12245 0.37388,0.34343 0.63357,0.79341 0.95036,1.19012 0.32551,0.19403 -2.41845,4.79727 -2.74393,4.60325 z"
       inkscape:connector-curvature="0" />
  </g>
</svg>
