<?xml version="1.0" encoding="UTF-8" standalone="no"?>
<!-- Created with Inkscape (http://www.inkscape.org/) -->

<svg
   xmlns:dc="http://purl.org/dc/elements/1.1/"
   xmlns:cc="http://creativecommons.org/ns#"
   xmlns:rdf="http://www.w3.org/1999/02/22-rdf-syntax-ns#"
   xmlns:svg="http://www.w3.org/2000/svg"
   xmlns="http://www.w3.org/2000/svg"
   xmlns:sodipodi="http://sodipodi.sourceforge.net/DTD/sodipodi-0.dtd"
   xmlns:inkscape="http://www.inkscape.org/namespaces/inkscape"
   width="512"
   height="2048"
   viewBox="0 0 135.46667 541.86666"
   version="1.1"
   id="svg8"
   inkscape:version="0.92.4 (5da689c313, 2019-01-14)"
   sodipodi:docname="sword.svg"
   inkscape:export-filename="C:\Users\panu-\PycharmProjects\nextgame\data\images\sword.png"
   inkscape:export-xdpi="10.923292"
   inkscape:export-ydpi="10.923292">
  <defs
     id="defs2" />
  <sodipodi:namedview
     id="base"
     pagecolor="#ffffff"
     bordercolor="#666666"
     borderopacity="1.0"
     inkscape:pageopacity="0.0"
     inkscape:pageshadow="2"
     inkscape:zoom="0.34988737"
     inkscape:cx="-148.15728"
     inkscape:cy="1044.1445"
     inkscape:document-units="mm"
     inkscape:current-layer="layer1"
     showgrid="false"
     units="px"
     width="1024px"
     inkscape:window-width="1920"
     inkscape:window-height="1017"
     inkscape:window-x="-8"
     inkscape:window-y="-8"
     inkscape:window-maximized="1" />
  <metadata
     id="metadata5">
    <rdf:RDF>
      <cc:Work
         rdf:about="">
        <dc:format>image/svg+xml</dc:format>
        <dc:type
           rdf:resource="http://purl.org/dc/dcmitype/StillImage" />
        <dc:title />
      </cc:Work>
    </rdf:RDF>
  </metadata>
  <g
     inkscape:groupmode="layer"
     id="layer2"
     inkscape:label="color"
     style="display:inline"
     transform="translate(0,270.93333)"
     sodipodi:insensitive="true" />
  <g
     inkscape:label="lines"
     inkscape:groupmode="layer"
     id="layer1"
     transform="translate(0,244.86668)"
     style="display:inline">
    <path
       style="fill:#000000;fill-opacity:1;stroke-width:0.26458332"
       id="path81"
       d="m 38.637744,-182.37415 c 4.008771,3.8364 5.012542,9.35601 5.588701,14.63993 0.367393,4.39467 0.22302,8.80651 0.456644,13.20735 0.230175,4.90362 1.038019,9.74967 1.578727,14.62241 0.733626,5.90681 0.551749,11.85545 0.213296,17.77977 -0.465121,4.67327 -0.598326,9.35528 -0.514556,14.04724 0.212886,4.213 0.178329,8.429688 0.328626,12.645191 0.174744,3.966903 0.41362,7.946946 1.033531,11.872129 0.817729,4.812668 1.73954,9.595535 2.28069,14.449602 0.485576,5.499505 0.707072,11.017126 0.925266,16.532405 0.162894,5.506106 0.0177,11.013988 -0.200152,16.515895 -0.21523,4.749869 -0.294116,9.504225 -0.31083,14.258409 -0.01908,4.782349 0.542044,9.53395 1.038072,14.2824433 0.72282,5.6707669 0.84991,11.3734584 0.884909,17.0808225 -0.05281,5.6827872 -0.129423,11.3650262 -0.225679,17.0472442 -0.197633,5.259387 -0.201393,10.518325 -0.07657,15.77885 0.268314,5.336117 0.389792,10.67906 0.504206,16.020389 0.187608,5.742754 0.07513,11.487361 -0.098,17.228608 -0.204023,5.652452 0.149466,11.3012 0.137287,16.952647 0.09987,5.771383 -0.0605,11.542715 -0.237098,17.310895 -0.07195,5.15964 -0.382683,10.30978 -0.634064,15.46235 -0.251931,5.24407 -0.06615,10.49404 -0.100171,15.74083 -0.199726,4.87093 -0.500274,9.73836 -0.798983,14.60445 -0.211516,4.38698 -0.990108,8.71495 -1.567807,13.06158 -0.357463,3.10443 -0.468572,6.23366 -0.555551,9.35582 -0.07899,2.29447 -0.245793,4.57669 0.09481,6.85459 0.296201,1.59501 0.631891,3.18458 0.796851,4.79994 -0.09039,0.0448 0.05016,0.46315 -0.11571,0.55083 -0.142711,0.0754 -1.525439,-0.34081 -0.386665,0.63125 0.0481,-0.0233 0.378341,0.6569 0.330237,0.68027 v 0 c -0.911937,1.7621 -2.873877,0.49882 -3.756916,-0.57788 -1.094322,-1.6343 -1.810444,-3.45945 -2.168369,-5.39615 -0.387144,-2.43223 -0.431507,-4.88453 -0.700588,-7.33015 -0.377581,-3.31861 -0.808678,-6.63673 -0.750874,-9.98672 0.0424,-4.37796 0.309578,-8.74488 0.824537,-13.09418 0.348046,-4.70434 0.171508,-9.38368 -0.122021,-14.08933 -0.126293,-5.40551 0.101659,-10.80367 0.560875,-16.1912 0.304837,-5.02534 0.305556,-10.05292 0.08779,-15.08323 C 42.816446,104.13 42.672063,98.366241 42.755036,92.602293 42.721175,86.940104 43.02226,81.278788 42.815946,75.616202 42.671148,69.867653 42.671915,64.117331 42.983187,58.373306 43.142828,53.136832 43.158785,47.903532 42.869805,42.669942 42.585483,37.299985 42.457219,31.923308 42.361109,26.546948 42.352007,20.892009 42.519523,15.240847 42.565036,9.5863999 42.561729,4.0311686 42.278305,-1.5176598 42.198731,-7.0720365 42.120722,-11.97398 41.952153,-16.872793 41.846013,-21.773151 c -0.05963,-4.785524 -0.209908,-9.568524 -0.36017,-14.352053 -0.121949,-5.464956 -0.05127,-10.928231 0.126696,-16.39203 0.129693,-5.312482 0.06234,-10.625558 -0.448702,-15.919754 -0.380793,-4.837917 -0.311359,-9.680917 -0.66952,-14.520347 -0.230568,-4.149315 -0.714264,-8.291607 -0.496361,-12.455112 0.121404,-4.197498 -0.152032,-8.368613 -0.238511,-12.564233 -0.09923,-4.76138 -0.49389,-9.50293 -0.665144,-14.26112 -0.121796,-5.75999 -0.160324,-11.52006 -0.140917,-17.28143 -0.07043,-4.94984 -0.01847,-9.89767 0.04059,-14.84741 -0.05883,-4.14977 -0.209073,-8.32058 -1.322038,-12.34828 -1.096425,-4.00804 -2.784216,-8.39687 -2.703433,-12.59427 0.01333,-0.69307 0.174556,-1.37535 0.261834,-2.06302 -0.07085,-0.24094 3.336557,-1.24288 3.407405,-1.00194 z"
       inkscape:connector-curvature="0" />
    <path
       style="fill:#000000;fill-opacity:1;stroke-width:0.26458332"
       id="path89"
       d="m 48.606598,190.92019 c 2.091375,4.67196 1.483133,9.91179 0.964097,14.85283 -0.409975,3.69226 -1.298482,7.27306 -2.364867,10.82017 -0.709398,2.56034 -0.315587,5.22398 -0.278302,7.83793 0.134432,2.9935 -0.261662,5.95371 -0.730779,8.90051 -0.339723,1.87507 -0.330269,3.75644 -0.17227,5.64586 0.269211,2.26872 0.383286,4.54223 0.375676,6.82519 -0.05319,1.81253 -0.285522,3.6109 -0.58048,5.39785 -0.216559,1.36556 0.08901,2.73748 0.288727,4.08762 0.234056,0.94597 0.05885,1.95684 0.287758,2.89907 0.445995,1.08553 1.117155,2.04719 1.623478,3.10766 0.738894,1.60195 0.984052,3.33992 1.286235,5.05794 -0.129545,0.0358 0.22602,1.50746 0.112741,1.29619 -0.05053,-0.0942 0.217528,-0.0344 0.320718,-0.006 1.680056,0.60698 2.895002,1.89402 3.996269,3.24369 0.684734,0.61317 1.154491,2.10375 1.757751,2.51825 0.327703,-0.38063 -0.04117,0.11723 -0.708617,-0.20945 -0.158644,-0.0777 0.350221,-0.0509 0.526708,-0.0579 1.386954,-0.0551 2.309019,-0.0386 3.600919,0.3125 1.095457,0.30188 1.903476,1.27071 3.026693,1.44899 -2.136762,0.21658 1.878441,-0.46588 1.985121,-0.48811 1.280282,-0.18015 2.467623,-0.43778 3.512717,-1.21584 1.056944,-0.94244 2.228961,-1.85713 3.040282,-3.02964 0.769003,-1.11865 1.629531,-2.17011 2.426726,-3.26876 1.008158,-1.25931 1.702406,-2.5427 2.099657,-4.11099 0.407882,-1.71188 0.847222,-3.41355 1.186892,-5.14025 0.08175,-0.83629 0.571433,-1.57816 0.729879,-2.39024 0.171937,-0.88125 0.04547,-1.88754 0.01908,-2.77689 0.02964,-2.03234 -0.0013,-4.07249 0.173984,-6.09888 0.233098,-1.86222 0.770806,-3.66387 0.921994,-5.53868 0.152151,-1.704 0.05627,-3.41133 -0.06232,-5.11326 -0.183259,-2.03848 -0.155713,-4.0839 -0.0058,-6.12267 0.07368,-1.57059 0.216926,-3.13788 0.273357,-4.70916 0.06559,-1.42698 -0.102275,-2.84583 -0.172787,-4.26805 -0.03047,-1.41023 -0.0024,-2.82302 -0.11232,-4.22984 0.02275,-1.66592 -0.194403,-3.30962 -0.410517,-4.95572 -0.304798,-1.56446 -0.27776,-3.15701 -0.212527,-4.74017 0.161086,-1.56152 -0.17712,-3.09391 -0.283464,-4.64262 -0.107579,-1.77591 -0.146227,-3.55161 -0.134252,-5.3299 0.04731,-1.13556 0.197175,-2.27827 0.39143,-3.39958 0.127174,-0.62076 0.189076,-1.11794 -0.08968,-1.70055 -0.01971,-0.30702 -0.271884,-1.55234 -0.273098,-0.52033 0.470112,0.88027 -0.866963,-0.14819 -1.131906,-0.31277 -0.459425,0.2412 -0.985025,0.10618 -1.496872,0.20223 -1.16744,0.15361 -2.255827,-0.11084 -3.347853,-0.49372 -0.159631,-0.0312 -0.321966,-0.0508 -0.478893,-0.0936 -0.180239,-0.0491 -0.741629,-0.0855 -0.558191,-0.0502 0.826103,0.1592 1.52782,0.0169 0.532961,0.1637 -1.647995,0.0109 -3.298402,0.018 -4.945801,-0.0428 -1.413685,-0.0944 -2.807356,-0.34533 -4.197638,-0.60706 -0.20496,-0.0377 -0.4088,-0.0821 -0.614879,-0.11308 -0.124621,-0.0188 -0.879107,-0.10025 -1.030631,-0.10224 -0.165431,-0.003 -0.659194,0.004 -0.495549,0.0279 0.283406,0.0421 0.578948,-0.0336 0.859168,0.0262 0.186529,0.0398 -0.380722,0.0236 -0.571084,0.0353 -1.61757,0.10625 -3.207872,0.41616 -4.789834,0.75721 -2.494029,0.59229 -4.991791,1.13215 -7.54466,1.38946 -1.468549,0.17224 -2.942905,-0.0808 -4.387242,-0.33605 -0.190407,0.15542 -2.388401,-2.53733 -2.197996,-2.69274 v 0 c 0.860041,-1.73167 1.903597,-2.79702 3.810309,-3.37394 2.628056,-0.72189 5.341845,-0.97094 8.056711,-1.14202 1.834742,-0.0913 3.663452,0.0359 5.499629,0.0183 1.870088,-0.0268 3.736361,-0.0159 5.576019,0.35878 1.224402,0.20166 2.456384,0.36398 3.685252,0.53062 0.314327,0.0333 4.389683,0.27654 1.958242,0.25958 1.452136,0.18817 3.077747,-0.0222 4.39099,0.7642 0.856639,0.32705 1.732426,0.61375 2.559371,0.99898 0.702378,0.44472 1.479158,0.8091 2.056296,1.41859 0.03436,0.0438 0.07117,0.0858 0.103071,0.13137 0.04346,0.0621 -0.268758,-0.10395 -0.194302,-0.11829 0.286957,-0.0552 0.781074,0.55184 0.942319,0.60332 0.380696,0.8172 0.473266,1.43846 0.231849,2.30582 -0.280048,0.58746 -0.190794,1.08696 -0.06454,1.70942 0.188214,1.12477 0.297106,2.27748 0.319495,3.41569 -0.01707,1.74572 -0.04421,3.4915 0.0011,5.23719 0.0082,1.5757 -0.197077,3.141 -0.268158,4.7148 0.07729,1.53506 0.573728,2.98616 0.772626,4.50458 0.177879,1.73358 0.127889,3.45641 0.03355,5.19428 -0.110275,1.40652 -0.08235,2.81902 -0.111463,4.22899 -0.06935,1.42298 -0.2354,2.84252 -0.172429,4.27014 0.05281,1.57003 0.189208,3.13647 0.265543,4.70553 0.155475,2.03854 0.1988,4.08459 0.02612,6.12439 -0.117377,1.70775 -0.233643,3.41977 -0.146659,5.13228 0.09714,1.91474 0.101307,3.83551 -0.25568,5.72881 -0.219765,1.94734 -0.367048,3.89626 -0.386159,5.85703 0.0047,0.93914 -0.08513,1.94945 0.04095,2.88206 0.116805,0.8641 0.493916,1.70121 0.422687,2.59487 -0.01196,2.00964 -0.126084,4.02818 -0.894048,5.9137 -0.701143,1.77623 -1.529545,3.57402 -2.779122,5.03251 -0.833639,0.96078 -1.492443,1.95056 -1.971003,3.13835 -1.009304,1.69387 -1.867956,3.46396 -3.594992,4.57597 -1.552699,0.90919 -3.18344,1.57824 -5.009631,1.60515 -1.630812,0.1647 -3.198167,0.74562 -4.8646,0.49861 -1.357204,-0.1269 -2.585625,-0.57984 -3.838136,-1.09046 -1.293029,-0.39044 -0.684951,0.0664 -0.1188,-0.24561 0.170568,-0.094 -0.389422,0.0122 -0.584169,0.0106 -2.104932,-0.0172 -1.302057,0.11613 -2.759678,-0.26035 -1.729917,-0.74869 -3.080247,-1.8167 -4.042706,-3.46545 -0.653338,-0.9552 -1.485091,-1.77822 -2.421133,-2.45933 -1.328106,-1.01537 -2.363584,-2.11627 -2.95161,-3.71592 -0.48718,-1.57736 -0.932273,-3.15978 -1.056711,-4.81555 -0.07421,-0.81671 -0.07652,-1.58443 -0.760826,-2.13952 -1.165413,-1.46675 -1.971717,-3.1037 -1.950691,-5.02444 0.07338,-1.4261 0.436396,-2.8452 0.193003,-4.27133 -0.296783,-1.80562 -0.497713,-3.62632 -0.509203,-5.45846 0.03426,-2.19096 0.185401,-4.37258 0.278598,-6.56116 -0.0016,-2.09706 -0.247018,-4.17756 -0.260461,-6.27436 0.0069,-2.96494 0.211817,-5.93624 0.742455,-8.85647 0.425495,-2.75657 1.119777,-5.46632 1.372843,-8.24553 0.165783,-3.50629 7.94e-4,-7.01495 0.01392,-10.5238 0.236847,-5.09601 0.599186,-10.42885 3.741192,-14.6811 0.02209,-0.20738 2.95497,0.10496 2.932885,0.31234 z"
       inkscape:connector-curvature="0" />
    <path
       style="fill:#000000;fill-opacity:1;stroke-width:0.26458332"
       id="path95"
       d="m 73.354363,182.86982 c -2.12598,-4.73083 -1.149892,-9.96321 -0.146894,-14.85151 0.718032,-3.77421 -0.145399,-7.53544 -0.751501,-11.26107 -0.791644,-5.09897 -0.589706,-10.2607 -0.393819,-15.39356 0.175154,-4.73644 0.06633,-9.47587 0.125105,-14.21419 0.05102,-3.35494 0.490583,-6.68366 0.626526,-10.03342 -0.06901,-3.39712 0.461224,-6.75129 1.097592,-10.07539 0.709353,-3.18666 1.05963,-6.41114 1.200414,-9.6666 0.06509,-2.434273 0.126125,-4.866931 0.06456,-7.301786 -0.17286,-3.003338 -0.484023,-5.993024 -0.640011,-8.998161 -0.113247,-3.145764 0.291391,-6.269329 0.575763,-9.394058 0.205202,-2.838503 -0.211429,-5.674783 -0.500521,-8.493707 -0.431503,-3.664029 -0.149921,-7.322343 0.258744,-10.969572 0.372835,-3.040142 0.500822,-6.094068 0.506254,-9.154451 0.0046,-4.307945 0.05858,-8.618907 0.499933,-12.906666 0.4347,-2.752354 0.695163,-5.516006 0.798131,-8.298576 -0.149158,-3.518059 -0.337018,-7.018999 -0.122539,-10.537322 0.09885,-2.2000479 0.906627,-4.2606176 1.307751,-6.4008983 0.03038,-2.4232102 -0.248383,-4.81925041 -0.322456,-7.2422596 -0.136847,-3.1821887 -0.225276,-6.3155564 0.639093,-9.4021481 0.685562,-1.635223 0.547087,-3.210235 0.426115,-4.930244 -2.65e-4,-0.184364 2.606944,-0.189304 2.607294,-0.0049 v 0 c -0.116131,1.736714 -0.185285,3.243268 0.622485,4.846386 1.084977,3.2941046 0.888092,6.3352678 0.406037,9.7397117 -0.361201,2.32640717 -1.138446,4.5713756 -1.037791,6.9418094 0.509786,2.1551714 1.495616,4.1983527 1.581455,6.4538459 0.212788,3.64789 -0.07626,7.257643 -0.869776,10.83083 -0.275458,2.703751 0.345154,5.274495 0.87729,7.92017 0.572291,4.523422 0.519517,9.09566 -0.388417,13.578892 -0.552074,2.830275 -1.308343,5.661343 -0.823097,8.564325 0.410591,3.650879 0.688747,7.31303 0.245531,10.979943 -0.29594,2.803128 -0.728568,5.627264 -0.48726,8.450183 0.329187,3.154019 0.778402,6.309493 0.61304,9.490737 -0.209823,2.961693 -0.646025,5.890604 -0.900854,8.845735 0.02567,2.450359 0.647592,4.8056 0.946315,7.22921 0.332803,3.750761 0.157985,7.502841 -0.802336,11.162801 -0.716248,2.90393 -1.796513,5.7621 -1.968373,8.76639 0.112458,3.28599 0.911436,6.47461 1.288118,9.73468 0.426384,4.84198 0.316133,9.6834 0.346221,14.53914 0.125235,5.0468 0.297214,10.1074 -0.210577,15.14126 -0.410355,3.94526 -0.851498,7.90657 -0.676764,11.8795 0.264604,4.99364 0.272777,10.26933 -2.481845,14.64636 -0.01495,0.29239 -4.149883,0.081 -4.134937,-0.21138 z"
       inkscape:connector-curvature="0" />
    <path
       style="fill:#000000;fill-opacity:1;stroke-width:0.26458332"
       id="path99"
       d="m 75.137059,-13.137027 c -2.141024,-3.710914 -1.703361,-7.899863 -0.258442,-11.759298 0.781537,-1.527543 1.073131,-2.064861 0.572156,-3.686662 -0.825526,-2.090803 -1.111049,-4.239572 -1.069181,-6.477473 0.08005,-1.692439 0.47004,-3.347712 0.483817,-5.043345 -0.07309,-1.682948 -0.297939,-3.355713 -0.461224,-5.032099 -0.145902,-1.601253 -0.192231,-3.210785 -0.173824,-4.818023 0.153483,-1.847128 -0.169547,-3.717999 -0.355668,-5.558205 -0.223759,-2.42351 -0.28733,-4.858862 -0.135872,-7.287848 0.315667,-1.918385 0.259424,-3.797649 0.03308,-5.717238 -0.430948,-3.155013 -0.623083,-6.294776 -0.375623,-9.472313 0.522234,-2.263373 0.450352,-4.43401 -0.09433,-6.665598 -0.803934,-3.605795 -1.43256,-7.245035 -1.725552,-10.929749 -0.317296,-3.322664 0.489038,-6.514762 1.231644,-9.711572 0.472323,-2.47762 -0.105871,-5.02476 -0.476465,-7.48449 -0.337727,-2.84157 -0.55196,-5.6844 -0.441258,-8.54563 0.07588,-1.56127 0.07396,-3.12218 0.09262,-4.68573 -0.164685,-2.48322 -0.201557,-4.9678 -0.05157,-7.45512 -0.0013,-1.81352 0.324768,-3.59578 0.263004,-5.41114 -0.137452,-2.28387 -0.572839,-4.52954 -0.8068,-6.80371 -0.279582,-2.1954 0.143238,-4.31764 0.589119,-6.4505 0.223816,-1.26283 0.174596,-2.54495 0.125055,-3.81957 -0.188325,-0.77505 0.187042,-1.87604 -0.213892,-2.60375 -0.518202,-0.49029 -0.305887,-0.21254 -0.640966,-0.83014 -0.990338,-1.43026 -1.351084,-3.01751 -1.391277,-4.73156 -0.0021,-1.3978 0.751909,-2.97399 -0.0043,-4.25771 -1.057695,-1.06583 -1.899298,-1.48675 -2.710084,-2.82293 -0.782778,-1.58734 -1.019358,-3.36024 -1.323862,-5.08466 -0.18615,-1.06856 -0.09686,-2.21355 -0.616415,-3.19295 -0.926598,-0.88934 -1.171356,-2.04596 -1.415495,-3.2486 -0.201485,-1.30631 -0.67928,-2.53931 -1.037521,-3.80434 -0.442521,-1.43791 -0.60085,-2.88752 -0.52293,-4.3834 0.174008,-1.04816 0.04658,-1.86372 -0.558438,-2.72871 -0.869439,-1.12551 -1.928685,-2.10659 -2.721279,-3.28731 -0.594511,-0.82092 -0.97305,-1.7748 -1.536853,-2.61241 -0.443365,-0.7698 -0.970212,-1.50025 -1.144408,-2.38357 0.06021,0.15642 1.074457,0.62443 0.08216,0.53477 -1.220288,-0.35116 -1.981848,-1.27628 -2.569975,-2.34442 -0.342339,-0.58507 -0.998979,-0.80981 -1.568291,-1.11616 -0.997313,-0.44791 -1.645253,-1.32787 -2.298973,-2.1631 -0.49263,-0.41886 -0.523091,-1.5668 -1.147389,-1.78784 0.09473,-0.0462 -0.261218,0.25812 -0.157094,0.27434 0.26705,0.0416 1.079511,0.0315 0.809572,0.0449 -0.426582,0.0212 -0.854098,-0.0143 -1.281147,-0.0215 -1.23381,-0.36124 -1.811141,-1.14568 -2.015318,-2.36206 0.04416,-0.72536 0.162304,-0.97017 0.809726,-1.25818 0.105905,-0.14535 2.1615,1.35237 2.055596,1.49772 v 0 c 0.477893,-0.12712 0.530047,-0.20445 0.564615,-0.69939 -0.0668,-0.38222 -0.05062,-0.64189 -0.388818,-0.88435 -0.254773,-0.003 -1.018916,-0.02 -0.764321,-0.01 1.454722,0.0574 2.45404,0.10333 3.533307,1.16185 0.44015,0.66079 0.862335,1.33503 1.331661,1.97468 0.430265,0.56563 1.083604,0.78371 1.672635,1.15813 0.973738,0.69408 1.825884,1.47355 2.358805,2.56711 0.08571,0.14502 0.462667,0.619 0.301004,0.66802 0.86905,0.20331 1.589547,0.68514 2.083704,1.44605 0.484209,0.66284 0.736053,1.42323 1.071319,2.16694 0.371872,0.81366 1.067502,1.3437 1.679239,1.97852 1.122725,1.23385 1.998197,2.69376 2.570181,4.2616 0.378116,1.28974 0.546085,2.58167 0.585671,3.9247 0.08891,1.22963 0.405736,2.42259 0.723488,3.61018 0.331232,1.40859 0.702164,2.8182 0.681297,4.27711 0.0019,0.75304 -0.0681,1.46802 0.490429,2.03666 1.236416,1.18799 1.943433,2.64845 2.083157,4.37446 0.05118,1.2941 -0.169117,2.67594 0.08144,3.9225 1.118994,0.98513 2.399723,1.81911 3.060737,3.23053 0.714729,1.74666 0.802637,3.45978 0.591449,5.32012 -0.02016,1.32209 0.29073,2.39871 1.012878,3.52853 0.653431,1.44034 0.560443,3.09962 0.513305,4.65973 -0.04926,1.28569 -0.130233,2.57885 0.01929,3.86057 0.380487,2.08356 0.906632,4.14044 0.774743,6.28315 -0.07249,2.31975 -0.339723,4.60885 -0.571477,6.91541 -0.04096,1.82463 0.394171,3.59362 0.419045,5.41535 0.168132,2.55896 0.07376,5.10514 -0.436293,7.6232 -0.197077,1.71807 -0.239961,2.3099 0.66012,3.85275 1.361051,2.82468 2.055537,5.81475 2.125067,8.96069 -0.0788,2.63793 -0.563645,5.26479 -0.324546,7.89603 0.481867,3.09008 1.187519,6.159009 1.100743,9.311525 0.01135,3.452016 -0.259027,6.905093 0.116716,10.345533 0.324789,2.515838 0.84622,4.995627 1.317816,7.487031 0.261598,3.212322 0.06688,6.383901 -0.460206,9.563222 -0.276921,1.824482 -0.42709,3.566853 0.103777,5.372031 0.430832,2.52531 0.625245,5.081714 0.256749,7.632597 -0.226261,1.753023 -0.685908,3.549163 -0.568153,5.309526 0.162621,1.563658 0.580544,3.090796 0.632363,4.665749 0.07976,1.863953 -0.05168,3.708249 -0.286354,5.558639 -0.137104,1.527453 -0.123647,3.05489 0.138346,4.571185 0.324773,2.1565 0.631449,4.313635 0.402084,6.498572 -0.197945,1.574189 -0.285647,2.645661 0.456293,4.138014 1.153125,3.832037 1.547791,7.951301 -0.53575,11.554399 0,0.355206 -5.023376,0.355206 -5.023376,0 z"
       inkscape:connector-curvature="0" />
    <path
       style="fill:#000000;fill-opacity:1;stroke-width:0.26458332"
       id="path103"
       d="m 34.749094,-177.70317 c -2.645608,-2.82741 -3.603868,-6.59125 -2.822202,-10.34274 0.578866,-1.23684 0.816544,-3.06962 2.124821,-3.79976 0.143748,-0.0802 -0.269332,0.1955 -0.37389,0.32265 -0.193578,0.23542 -0.34234,0.50436 -0.513512,0.75653 -0.09374,0.11983 -0.153717,0.27649 -0.281231,0.35947 -0.48728,0.31708 -1.600657,-2.32125 -1.764503,-2.70062 -0.504166,-1.18154 -0.478568,-2.47424 -0.677291,-3.71031 -0.158255,-0.93562 -0.455136,-1.84082 -0.790538,-2.72673 -0.481211,-1.09606 -0.943364,-2.1994 -1.4224,-3.29638 -0.228624,-1.10485 -0.626176,-2.12454 -1.19806,-3.09636 -0.907251,-1.33331 -1.695939,-2.72118 -2.457203,-4.1414 -0.06991,-0.16655 -0.316256,-0.7029 -0.345799,-0.93086 -0.07544,-0.58209 0.290027,0.49539 0.316791,-0.076 0.16979,-3.62481 -0.644913,-2.17575 -0.08091,-3.15737 0.194073,1.94945 1.529476,1.13958 3.10479,0.82534 0.0926,-0.41979 -0.167934,-1.81576 -0.406448,-2.05884 -0.153455,-0.15639 -0.605906,-0.0572 -0.5965,-0.27615 0.0038,-0.0873 0.914707,-0.30199 1.444318,-0.43749 2.839426,-0.60167 5.663753,0.0274 8.465,0.4754 1.853972,0.23827 3.499128,0.34997 5.211302,1.15457 1.519176,0.68689 2.207548,2.42849 3.784227,2.95891 -0.150294,-0.0177 1.059878,0.0888 0.837623,-0.0824 -0.199226,-0.15348 -0.618845,0.0845 -0.742352,-0.1346 -0.108847,-0.19306 0.443386,-0.0103 0.66489,-0.003 0.70217,0.0237 2.469113,0.21581 2.793394,0.24727 1.311378,1.07379 0.85472,0.38363 1.295088,2.11813 0.09894,0.16234 -2.196838,1.56152 -2.295777,1.39919 v 0 c -0.408029,0.52692 -0.338725,0.25571 -0.348469,0.76406 0.268229,0.0393 0.69402,-0.12969 0.80469,0.11778 0.09529,0.21308 -0.452821,0.11573 -0.683029,0.15427 -0.319702,0.0535 -0.640673,0.12271 -0.964819,0.12156 -1.769714,-0.006 -3.110331,-0.12152 -4.614051,-1.01479 -1.016894,-0.77188 -0.791538,-0.49935 -1.548825,-1.44115 -0.303266,-0.37715 -0.610667,-0.99635 -0.986748,-1.32221 -0.05753,-0.0498 -0.140782,-0.0579 -0.211172,-0.0869 -1.655744,0.0162 -3.323931,0.30913 -4.980009,0.0319 -1.139531,-0.16731 -2.264743,-0.38282 -3.399289,-0.57716 -0.322504,-0.0552 -0.673595,-0.009 -0.970659,-0.14613 -0.104052,-0.048 0.406654,-0.1126 0.303252,-0.16202 -0.272759,-0.13035 -0.599074,-0.0817 -0.898612,-0.12252 -2.337853,-0.11628 -5.413822,0.0829 -5.082837,-3.20068 0.885917,-0.33293 1.717625,-0.88992 2.657751,-0.99877 0.313772,-0.0363 0.517747,0.37092 0.727869,0.60676 0.67583,0.75856 0.652166,1.84192 0.375888,2.74533 -0.555932,1.03492 -0.928256,2.05073 -0.915686,-1.88933 7.94e-4,-0.21532 0.403072,0.1536 0.595675,0.24987 0.691658,0.34569 1.293019,0.82898 1.819137,1.39253 1.164508,1.51875 2.03304,3.13222 2.389069,5.0328 0.294833,1.02792 0.987189,1.58949 1.750914,2.30501 1.001205,1.45408 1.714469,3.00082 1.969326,4.76651 0.06645,0.7248 0.08244,1.5135 0.482899,2.14757 0.524163,1.0172 1.240806,1.93017 1.736278,2.96699 0.898318,2.01118 1.462259,4.14847 0.836617,6.33226 -0.22733,0.43186 -0.400195,0.89711 -0.681992,1.29557 -1.598356,2.26009 0.320423,-1.41073 0.443285,-1.48129 0.139581,-0.0802 0.302417,0.11035 0.453626,0.16552 2.327912,2.69215 3.509507,6.20484 2.859564,9.75208 0.130667,0.50864 -7.062605,2.35656 -7.193275,1.84792 z"
       inkscape:connector-curvature="0" />
    <path
       style="fill:#000000;fill-opacity:1;stroke-width:0.26458332"
       id="path117"
       d="m 79.153011,181.46377 c 0.281413,0.55552 0.648121,1.0755 0.84424,1.66656 0.72208,2.17609 0.608238,5.17194 -0.814773,7.03365 -2.350776,1.53567 -0.796052,0.62267 -7.603556,-0.25297 -0.146043,-0.0188 0.0071,-0.2954 0.03177,-0.44058 0.01024,-0.0603 0.07565,-0.42976 0.252558,-0.42225 2.470431,0.10464 4.936546,0.29393 7.404817,0.4409 -0.497139,2.69534 -5.426538,0.42953 -6.866911,0.32621 0,-0.41788 5.909942,-0.41788 5.909942,0 v 0 c -1.440375,0.10332 -6.369772,2.36913 -6.866913,-0.32621 2.468271,-0.14697 4.934389,-0.33626 7.404817,-0.4409 0.176911,-0.007 0.242316,0.3619 0.252558,0.42225 0.02463,0.14518 0.177816,0.4218 0.03178,0.44058 -6.807504,0.87564 -5.252783,1.78864 -7.603559,0.25297 -1.423011,-1.86171 -1.53685,-4.85756 -0.814773,-7.03365 0.196119,-0.59106 0.562827,-1.11104 0.84424,-1.66656 0,-0.53695 7.593764,-0.53695 7.593763,0 z"
       inkscape:connector-curvature="0" />
    <path
       style="fill:#000000;fill-opacity:1;stroke-width:0.26458332"
       id="path129"
       d="m 52.156013,198.57122 c 2.939899,-1.09569 6.071166,-0.97837 9.14546,-0.75726 2.202336,0.15841 2.134894,-0.52684 2.103631,0.44469 2.027409,0.40952 3.641071,0.889 5.657971,0.33737 2.235166,-0.56489 4.597943,-0.45681 6.878976,-0.26088 0.436756,0.16544 1.952268,0.0156 2.322367,0.27244 0.123799,0.0859 -0.540271,-0.0324 -0.444195,0.0837 0.122549,0.14804 0.38183,0.0444 0.572188,0.0709 0.16587,0.023 0.330906,0.0517 0.496358,0.0776 0.561866,0.1197 0.867008,0.44794 1.238308,0.85526 0.13249,-0.0387 0.680252,1.83494 0.547762,1.87368 v 0 c -0.119431,0.49061 -0.206748,0.74977 -0.70748,0.94469 -1.778098,0.4322 -3.654764,0.37193 -5.472544,0.43593 -0.724059,-0.0293 -2.230646,0.023 -2.885173,-0.26763 -0.106447,-0.0473 0.420841,-0.0516 0.327629,-0.12144 -0.0852,-0.0638 -1.0486,-0.196 -1.211715,-0.22016 -1.693061,0.13319 -3.613955,2.67152 -5.48127,2.54553 -4.284154,0.39468 -9.214252,1.04354 -13.270383,-0.89509 -0.542589,-0.25931 -1.001382,-0.66622 -1.502072,-0.99933 -0.312544,-0.11909 1.37164,-4.53913 1.684182,-4.42005 z"
       inkscape:connector-curvature="0" />
    <path
       style="fill:#000000;fill-opacity:1;stroke-width:0.26458332"
       id="path131"
       d="m 50.900213,206.90838 c 5.26062,-1.75041 10.898648,-1.44272 16.341338,-0.94758 -0.19346,0.10864 -0.778531,0.22611 -0.580379,0.32596 0.560324,0.28234 1.237774,0.20662 1.855507,0.31655 1.5855,0.28215 3.142001,0.53949 4.747503,0.67125 0.28915,0.0106 0.578237,0.023 0.867453,0.0316 0.844071,0.0249 1.691076,-0.004 2.532377,0.0689 0.221155,0.019 0.42948,0.11772 0.633685,0.20476 0.134623,0.0574 0.496721,0.14238 0.376497,0.22582 -1.281245,0.88922 -1.661763,-0.33665 -0.694354,1.21979 0.22634,-0.1125 1.817613,3.08845 1.59127,3.20098 v 0 c -0.600165,1.82412 0.03161,0.95782 -2.574933,1.5412 -0.406394,0.0909 -1.611114,0.23516 -1.205314,0.32874 0.401653,0.0926 0.827997,-0.0212 1.236022,0.0374 0.175969,0.0251 -0.352973,0.0426 -0.529461,0.064 -3.736284,1.12948 -6.841024,3.24099 -11.063337,2.66491 -4.90896,0.3542 -10.292728,0.25096 -14.60859,-2.50452 -0.616935,-0.39388 -1.104056,-0.96128 -1.656086,-1.44193 -0.424815,-0.19309 2.30599,-6.20088 2.730802,-6.00778 z"
       inkscape:connector-curvature="0" />
    <path
       style="fill:#000000;fill-opacity:1;stroke-width:0.26458332"
       id="path133"
       d="m 49.579275,222.19783 c 4.953574,-2.51563 10.534642,-2.28735 15.907115,-1.78819 -0.2683,0.89442 -0.160178,0.24024 1.9421,0.53282 2.119522,0.29498 4.167524,0.40182 6.304373,0.30628 1.458243,-0.0262 3.776048,-0.0765 4.977495,-0.0289 0.140861,0.006 -0.533117,0.0647 -0.404688,0.12285 0.414512,0.18762 0.900943,0.15222 1.33228,0.29702 1.476682,0.49578 1.539102,0.76645 2.816669,1.81888 0.144238,-0.0658 1.075024,1.97403 0.930786,2.03983 v 0 c -0.184227,0.5516 -0.23209,1.16959 -0.552683,1.65479 -1.492173,2.25832 -5.766488,1.42676 -7.158302,1.53357 -4.352703,-0.15163 -8.209423,0.96446 -12.577482,0.96586 -4.405794,0.36836 -9.281803,0.80357 -13.426948,-1.13786 -0.572923,-0.26832 -1.059172,-0.69221 -1.588759,-1.03828 -0.373258,-0.10594 1.124786,-5.38462 1.498044,-5.2787 z"
       inkscape:connector-curvature="0" />
    <path
       style="fill:#000000;fill-opacity:1;stroke-width:0.26458332"
       id="path135"
       d="m 49.961913,239.64202 c 3.692168,-1.74048 7.836427,-2.00861 11.864784,-1.9971 3.097485,0.009 3.240461,-0.83725 2.933534,0.34192 2.744965,0.38277 5.55145,0.44669 8.253502,1.10143 1.838084,0.32822 1.434661,-0.1035 3.010212,1.33377 0.116954,0.0472 -0.551106,1.70119 -0.668059,1.65396 v 0 c 0.201657,0.31374 0.366707,0.65431 0.604967,0.94125 0.330147,0.39762 0.668917,0.13232 0.229595,0.79323 -2.045875,2.67131 -5.470457,3.67712 -8.619911,4.37081 -5.431171,0.32395 -12.805211,1.06624 -17.806876,-1.80102 -0.646229,-0.37045 -1.157703,-0.93761 -1.736556,-1.40642 -0.377018,-0.13682 1.55779,-5.46865 1.934808,-5.33183 z"
       inkscape:connector-curvature="0" />
    <path
       style="fill:#000000;fill-opacity:1;stroke-width:0.26458332"
       id="path137"
       d="m 54.030194,254.8713 c 4.854302,-1.1956 9.917173,-0.47924 14.777699,0.33385 4.961101,1.14509 0.594677,-0.24889 0.883592,0.8045 0.09701,0.35372 0.695113,0.24815 1.010536,0.43529 0.920128,0.54597 0.02252,0.26538 0.581028,1.09519 0.204911,0.30445 0.53908,0.4981 0.808619,0.74718 0.0602,-0.16282 2.362867,0.68855 2.302664,0.85138 v 0 c 0.155212,0.50398 0.491881,0.98523 0.465634,1.51191 -0.05244,1.05224 -1.813237,2.78053 -2.77926,3.04204 -2.026488,0.54862 -4.177236,0.51351 -6.22251,0.97412 -4.545124,0.10075 -9.549696,-0.2944 -13.285705,-3.23625 -0.519936,-0.40942 -0.910548,-0.9606 -1.365822,-1.4409 -0.361918,-0.19962 2.461604,-5.31796 2.823525,-5.11831 z"
       inkscape:connector-curvature="0" />
  </g>
</svg>
