<?xml version="1.0" encoding="UTF-8" standalone="no"?>
<!-- Created with Inkscape (http://www.inkscape.org/) -->

<svg
   xmlns:dc="http://purl.org/dc/elements/1.1/"
   xmlns:cc="http://creativecommons.org/ns#"
   xmlns:rdf="http://www.w3.org/1999/02/22-rdf-syntax-ns#"
   xmlns:svg="http://www.w3.org/2000/svg"
   xmlns="http://www.w3.org/2000/svg"
   xmlns:sodipodi="http://sodipodi.sourceforge.net/DTD/sodipodi-0.dtd"
   xmlns:inkscape="http://www.inkscape.org/namespaces/inkscape"
   width="1024"
   height="1024"
   viewBox="0 0 270.93333 270.93333"
   version="1.1"
   id="svg8"
   inkscape:version="0.92.4 (5da689c313, 2019-01-14)"
   sodipodi:docname="blood.svg"
   inkscape:export-filename="C:\Users\panu-\PycharmProjects\nextgame\data\images\particles\blood.png"
   inkscape:export-xdpi="10.923292"
   inkscape:export-ydpi="10.923292">
  <defs
     id="defs2" />
  <sodipodi:namedview
     id="base"
     pagecolor="#ffffff"
     bordercolor="#666666"
     borderopacity="1.0"
     inkscape:pageopacity="0.0"
     inkscape:pageshadow="2"
     inkscape:zoom="0.49481546"
     inkscape:cx="751.34433"
     inkscape:cy="395.38372"
     inkscape:document-units="mm"
     inkscape:current-layer="layer3"
     showgrid="false"
     units="px"
     width="1024px"
     inkscape:window-width="1920"
     inkscape:window-height="1017"
     inkscape:window-x="-8"
     inkscape:window-y="-8"
     inkscape:window-maximized="1" />
  <metadata
     id="metadata5">
    <rdf:RDF>
      <cc:Work
         rdf:about="">
        <dc:format>image/svg+xml</dc:format>
        <dc:type
           rdf:resource="http://purl.org/dc/dcmitype/StillImage" />
        <dc:title />
      </cc:Work>
    </rdf:RDF>
  </metadata>
  <g
     inkscape:groupmode="layer"
     id="layer3"
     inkscape:label="lines 1">
    <path
       style="fill:#ff0000;fill-opacity:1;stroke:none;stroke-width:0.26458332;stroke-opacity:1"
       id="path917"
       d="m 125.0012,99.289049 c -0.35921,0.226105 -0.70012,0.484296 -1.07762,0.678317 -1.77847,0.914074 -3.75824,1.414124 -5.66539,1.971424 -3.44638,1.00709 -0.96506,0.26148 -4.36264,1.29704 -2.42787,0.79604 -4.83161,1.78353 -6.68321,3.60419 -1.13935,1.12031 -1.23206,1.45497 -2.07753,2.81739 -1.11733,2.23762 -1.90576,4.66055 -2.19036,7.15292 -0.16122,1.41186 -0.0962,2.02341 -0.0599,3.43753 0.33077,4.05129 1.97857,7.79212 3.60658,11.4619 1.43148,2.90778 2.97799,5.91864 5.58004,7.96562 0.42044,0.33076 0.8872,0.59797 1.3308,0.89695 0.47469,0.22198 0.93274,0.48375 1.42408,0.66595 2.44243,0.90569 5.84762,0.99548 8.34494,0.37044 4.43108,-0.4164 8.93493,-1.04514 13.07922,-2.75784 0.78362,-0.32385 1.53017,-0.73099 2.29526,-1.09649 2.63191,-1.46126 4.92572,-3.43101 6.36651,-6.11155 0.818,-1.52188 0.88911,-2.09607 1.3562,-3.72987 0.49169,-2.39052 0.49951,-4.86424 -0.0392,-7.25031 -0.29488,-1.3061 -0.71105,-2.33089 -1.1657,-3.59005 -1.37489,-3.45759 -3.1573,-6.71669 -5.43561,-9.65667 -1.38837,-1.80434 -3.22996,-3.05885 -5.18635,-4.16216 -1.43426,-0.80206 -2.98036,-1.22296 -4.59927,-1.41901 -2.29409,-0.11165 -2.378,-0.0359 -4.41385,-0.005 -1.14137,0.0611 -2.2586,-0.0697 -3.38308,-0.23961 -2.24394,1.14732 -3.8665,-2.026102 -1.62255,-3.17342 v 0 c 0.33688,-0.261001 0.64405,-0.565693 1.01064,-0.783003 0.81622,-0.483859 1.46049,-0.581168 2.36128,-0.811728 2.71201,-0.353772 5.49368,-0.396809 8.17528,0.2019 1.97347,0.513919 3.88973,1.215986 5.68675,2.190499 2.49116,1.331372 4.85064,2.906082 6.84311,4.927362 1.18246,1.29544 1.54844,1.61477 2.57301,3.08133 1.7565,2.51423 3.05821,5.31005 4.01872,8.21601 1.34191,4.52657 2.26252,9.09318 1.52234,13.8284 -0.56269,2.40051 -0.5769,3.02383 -1.65122,5.2904 -1.77344,3.74153 -4.59303,6.74832 -8.05743,8.98131 -2.60885,1.38645 -3.0496,1.76841 -5.87707,2.67924 -3.91084,1.25984 -8.02233,1.63913 -12.10955,1.67154 -1.43731,-0.0305 -2.87668,-0.009 -4.31193,-0.0916 -3.84719,-0.22163 -7.64034,-1.28144 -10.9788,-3.2035 -0.61072,-0.41906 -1.24799,-0.80185 -1.83216,-1.25719 -3.21064,-2.50253 -5.49189,-5.93774 -7.1439,-9.61665 -0.30649,-0.77969 -0.64004,-1.54928 -0.919476,-2.33907 -1.242734,-3.51243 -1.920613,-7.19867 -2.310235,-10.89505 -0.131194,-1.78069 -0.242221,-2.50368 -0.136001,-4.3084 0.190986,-3.24489 1.096441,-6.3691 2.658154,-9.21993 1.130498,-1.71888 1.531198,-2.53378 3.016828,-3.97729 2.3351,-2.26889 5.33638,-3.622236 8.4073,-4.564404 3.63729,-0.956969 7.48443,-1.932919 11.28192,-1.586114 0.50503,0.04612 0.99902,0.175184 1.49854,0.262774 1.5524,-0.6028 2.40489,1.592622 0.85249,2.195425 z"
       inkscape:connector-curvature="0" />
    <path
       style="fill:#ff0000;fill-opacity:1;stroke:none;stroke-width:1.42903125;stroke-opacity:1"
       d="m 462.95113,375.30499 c -20.44603,0.0678 -41.34823,5.92441 -58.30839,17.41074 -26.58043,20.71004 -29.32244,59.99918 -18.39598,89.74986 9.57466,23.2906 20.6653,50.87294 46.103,60.57474 19.35861,4.47272 39.67582,0.87955 59.04069,-2.10954 28.41587,-5.23078 59.68564,-20.05613 68.5199,-49.94125 9.48245,-31.34136 -5.39844,-63.98787 -24.07584,-88.78694 -12.63949,-16.11329 -32.04624,-27.91772 -53.08348,-26.44825 -6.598,-0.21477 -13.19713,-0.47935 -19.7999,-0.44936 z"
       id="path943"
       inkscape:connector-curvature="0"
       transform="scale(0.26458333)" />
    <path
       style="fill:#d40000;fill-opacity:1;stroke:none;stroke-width:0.26458332;stroke-opacity:1"
       id="path970"
       d="m 104.14009,138.02139 c 1.06122,-0.18252 2.09972,0.11856 3.06369,0.54333 0.63099,0.29057 1.16235,0.75493 1.81631,0.9954 0.78827,0.19235 1.61539,0.0605 2.41513,0.0178 1.32385,-0.0902 2.64709,0.004 3.9596,0.17662 0.7221,0.11015 1.44045,0.24832 2.16844,0.31593 0.42459,0.0394 0.5822,0.0108 0.3259,0.0455 0.75418,0.0255 1.50834,-0.0266 2.26256,-0.0369 0.90077,1e-4 1.80039,0.0148 2.70019,-0.0313 0.15775,-0.01 0.31686,-0.007 0.47325,-0.0301 0.0132,-0.002 -0.0271,-0.0355 -0.0139,-0.0374 0.18008,-0.0252 0.36299,-0.0225 0.54426,-0.037 0.60817,-0.0485 1.2159,-0.10507 1.824,-0.15493 1.06915,-0.0784 2.13283,-0.20846 3.19397,-0.35805 0.75477,-0.10776 1.51703,-0.14876 2.27167,-0.25702 0.58281,-0.10488 1.12698,-0.34747 1.66507,-0.58584 0.69654,-0.30964 1.34579,-0.70908 2.00093,-1.09541 0.94096,-0.56579 1.83115,-1.20741 2.70376,-1.87212 0.85592,-0.66066 1.68481,-1.35478 2.49763,-2.06744 0.49186,-0.45107 0.99635,-0.88735 1.47696,-1.35047 0.42651,-0.40448 0.76858,-0.88353 1.11943,-1.35203 0.37024,-0.52046 0.78853,-1.00152 1.2276,-1.46418 0.31652,-0.29271 0.59359,-0.61075 0.79667,-0.99116 0.18041,-0.34104 0.31103,-0.70286 0.43432,-1.06719 0.13,-0.3834 0.28613,-0.75735 0.44827,-1.12809 0.16315,-0.42154 0.42019,-0.79435 0.66411,-1.17141 0.14933,-0.21725 0.18824,-0.46885 0.22839,-0.72302 0.0493,-0.36503 0.0928,-0.73051 0.15807,-1.09314 0.0816,-0.43986 0.20709,-0.86866 0.34475,-1.29355 0.15883,-0.51492 0.36351,-1.01182 0.59638,-1.49711 0.25001,-0.47669 0.51963,-0.94243 0.7505,-1.42898 0.11046,-0.20608 0.12529,-0.42075 0.13007,-0.64799 0.002,-0.2442 -0.0123,-0.488 -0.0239,-0.73182 -0.0112,-0.29044 -0.012,-0.58109 -0.008,-0.87168 -0.009,-0.1613 0.0222,-0.32304 0.0167,-0.48397 0.002,0.005 0.006,0.0211 0.007,0.0155 0.008,-0.0593 -0.083,-0.29265 -0.10278,-0.35448 -0.0501,-0.19377 -0.0933,-0.388 -0.11775,-0.58679 -5.3e-4,-0.0192 -0.0145,-0.0434 -0.002,-0.0576 0.008,-0.008 0.004,0.0215 0.0509,0.10446 0.0582,0.10196 0.27685,0.37907 0.21312,0.28046 -0.0466,-0.0721 -0.10982,-0.13192 -0.16473,-0.19787 -0.15939,-0.26509 -0.18926,-0.54695 -0.18505,-0.84587 0.0134,-0.0636 0.005,-0.15429 0.0459,-0.20941 -0.0231,-0.17659 0.0224,-0.3527 0.048,-0.52682 0.0387,-0.17043 0.0729,-0.34393 0.12429,-0.51124 0.0365,-0.11812 0.0528,-0.2444 0.0724,-0.36649 0.0637,-0.15863 0.0899,-0.32702 0.13739,-0.49011 0.0192,-0.0131 0.0634,-0.29948 0.0901,-0.19308 0.055,0.26025 -0.0307,-0.20637 -0.0341,-0.23856 -0.014,-0.13018 0.0132,-0.25399 0.0436,-0.37881 0.53647,0.10792 1.07293,0.21584 1.60939,0.32376 -0.10807,1.01682 -1.54607,0.86399 -1.438,-0.15283 v 0 c 0.54364,0.0513 1.08727,0.10269 1.6309,0.15403 0.004,-0.0162 0.007,-0.0598 0.0177,-0.0471 0.004,0.004 0.002,0.0498 -0.002,0.0175 -0.0635,-0.31703 0.0526,0.15711 0.0604,0.19419 0.035,0.30697 0.009,0.61367 -0.12262,0.89765 -0.008,0.0183 -0.29256,0.62021 -0.1794,0.2834 0.0324,-0.29869 0.027,0.23409 0.0243,0.25337 -0.0239,0.24946 -0.0731,0.49879 -0.18985,0.72294 -0.0283,0.0534 -0.0554,0.21089 -0.0625,0.0543 -0.008,-0.18619 -0.007,-0.0591 -0.008,-0.0212 0.007,0.10168 0.0296,0.20213 0.0269,0.30433 -0.0274,0.32424 -0.0576,-0.0874 -0.16077,-0.18554 -0.0476,-0.0566 -0.17312,-0.10227 -0.14275,-0.16965 0.0297,-0.0659 0.10284,0.10208 0.14765,0.15879 0.12262,0.1552 0.19682,0.34008 0.25827,0.5258 0.0417,0.17653 0.0727,0.35486 0.0729,0.53695 0.0131,0.11173 0.0801,0.213 0.11514,0.33083 0.0827,0.28087 0.12387,0.57043 0.11882,0.8637 0.002,0.2948 -0.005,0.5895 -0.0289,0.88346 -0.016,0.20346 -0.0211,0.40381 0.0218,0.60512 0.0596,0.45583 0.0694,0.91772 -0.0404,1.36785 -0.17661,0.60922 -0.45573,1.17727 -0.81908,1.69826 -0.22845,0.37591 -0.45362,0.75561 -0.58495,1.17869 -0.12221,0.35141 -0.23576,0.70683 -0.32433,1.0683 -0.0796,0.35862 -0.1158,0.72482 -0.18488,1.08551 -0.0924,0.42157 -0.22897,0.83098 -0.41929,1.21938 -0.19115,0.39529 -0.38698,0.78995 -0.63137,1.15572 -0.17117,0.26355 -0.35267,0.52024 -0.42879,0.83095 -0.14413,0.45008 -0.29074,0.90057 -0.49342,1.32853 -0.26347,0.51348 -0.58034,0.98804 -0.98251,1.40507 -0.3879,0.42315 -0.73846,0.87631 -1.06601,1.3477 -0.41465,0.5536 -0.83691,1.10737 -1.35868,1.56629 -0.46453,0.41119 -0.9066,0.83952 -1.25191,1.36079 -0.73387,0.94577 -1.55636,1.81588 -2.53782,2.51123 -0.98342,0.69793 -2.01266,1.33122 -3.10212,1.85165 -0.7359,0.34792 -1.48324,0.6713 -2.22712,1.00173 -0.64651,0.27973 -1.30163,0.54321 -1.98329,0.72579 -0.74379,0.18971 -1.50113,0.29884 -2.25745,0.42637 -1.08331,0.21824 -2.15267,0.5139 -3.25491,0.62806 -1.36046,0.12524 -2.72748,0.11817 -4.08981,0.007 -0.66147,-0.0499 -1.40673,-0.0909 -1.66936,-0.0789 -0.75649,0.0238 -1.51007,0.0871 -2.26331,0.16039 -0.3816,0.006 -1.05676,0.0248 -1.49432,0.0132 -0.75906,-0.0202 -1.51305,-0.11242 -2.26885,-0.17787 -1.27043,-0.094 -2.54432,-0.10214 -3.81432,-0.20087 -0.96011,-0.11427 -1.92604,-0.27824 -2.80585,-0.6997 -0.57804,-0.29437 -1.14002,-0.63142 -1.78338,-0.76555 -0.88095,-0.19464 -1.79833,-0.32387 -2.61755,-0.71644 -1.06916,-0.37225 -0.54271,-1.88427 0.52645,-1.51201 z"
       inkscape:connector-curvature="0" />
    <path
       style="fill:#d40000;fill-opacity:1;stroke:none;stroke-width:0.50523883;stroke-opacity:1"
       d="m 568.16114,429.57033 c -2.9077,1.00762 -1.83771,5.05565 -1.35684,7.35458 0.58952,5.5892 1.47202,11.74551 -0.19538,17.15543 -2.77245,4.95095 -5.66548,10.06586 -6.27108,15.79562 -1.8627,6.52775 -5.52248,12.35818 -8.0414,18.666 -4.53179,7.1085 -10.20223,13.38869 -16.06402,19.42131 -8.52949,11.45581 -21.68693,18.14756 -34.82536,22.857 -7.78893,2.25478 -15.77315,3.98935 -23.78531,5.05323 -20.76143,-0.23874 -41.62588,0.693 -62.27562,-1.62301 -6.78558,-1.2082 -12.71806,-5.7936 -19.73294,-5.98096 -2.26956,1.31364 0.79667,3.70675 1.7042,4.95766 15.82048,17.6354 39.89944,25.95953 63.18402,26.24458 17.73571,0.79109 35.74097,-0.30041 52.96368,-4.80943 22.90437,-6.35258 44.49112,-20.68633 55.74008,-42.0937 7.0352,-12.60331 9.88847,-27.23302 9.04792,-41.58451 -0.44225,-13.19893 -3.8125,-26.13142 -7.81146,-38.6488 -0.49376,-1.02154 -0.81522,-2.83525 -2.28049,-2.765 z"
       id="path976"
       inkscape:connector-curvature="0"
       transform="scale(0.26458333)" />
    <path
       style="fill:#ff5555;fill-opacity:1;stroke:none;stroke-width:0.26458332;stroke-opacity:1"
       id="path1134"
       d="m 120.33793,103.18386 c -0.14932,0.0524 -0.29457,0.11835 -0.44795,0.15731 -0.98288,0.2497 -2.05166,0.15708 -3.04956,0.0723 -0.48647,-0.008 -0.97879,-0.097 -1.46629,-0.0523 -0.0534,0.005 0.21195,0.0173 0.1589,0.0252 -0.3294,0.0485 -0.66504,0.0341 -0.99743,0.0534 -0.92897,0.0574 -1.85361,0.16987 -2.74991,0.42445 -0.90981,0.32008 -1.63386,0.99165 -2.37201,1.58852 -0.98455,0.82054 -2.05242,1.52756 -3.13712,2.20631 -0.57177,0.38776 -0.58968,0.28526 -0.63179,0.93996 -0.0492,0.80026 -0.26765,1.57436 -0.41732,2.35858 -0.10399,0.73115 -0.10195,1.04938 0.35036,1.63584 0.42066,0.49145 0.87075,0.95735 1.30287,1.43911 0.25855,0.25193 0.49652,0.58239 0.88123,0.63434 0.0898,0.0122 0.18116,0.007 0.27174,0.0101 0.74681,0.0165 1.49347,-0.0306 2.23913,-0.0657 0.75171,-0.0354 0.60493,0.1698 0.75841,-0.0581 1.18056,-0.017 2.36122,0.0403 3.54136,-8e-4 0.77473,-0.0232 1.52327,-0.21785 2.27063,-0.40334 0.72971,-0.17797 1.42796,-0.4454 2.10523,-0.76664 0.69506,-0.34037 1.30093,-0.82915 1.92461,-1.28107 0.52385,-0.35275 0.99868,-0.76068 1.42835,-1.22227 0.34621,-0.39126 0.63178,-0.82312 0.84544,-1.2989 0.19165,-0.44167 0.37725,-0.88555 0.55796,-1.33173 0.11451,-0.22857 0.0992,-0.4386 0.0664,-0.68206 -0.0623,-0.44141 -0.0614,-0.88732 -0.0179,-1.33007 0.001,-0.0103 0.0297,-0.26924 0.0355,-0.2962 0.002,-0.007 0.007,0.0125 0.007,0.0194 0.006,0.0534 0.002,0.1081 0.0125,0.16076 0.0179,0.0876 0.0819,0.28651 0.11548,0.39315 -0.37341,-0.0984 -0.6588,-0.43289 -0.91126,-0.70701 -0.11889,-0.13058 -0.22927,-0.26859 -0.31761,-0.422 -0.0388,-0.0674 -0.0865,-0.19817 -0.14334,-0.26666 -0.10761,-0.0372 -0.2052,-0.12792 -0.30381,-0.21789 -0.13697,-0.13378 -0.27881,-0.26265 -0.40694,-0.40529 -0.0948,-0.10424 -0.16366,-0.22579 -0.23762,-0.34459 -0.0457,-0.0734 -0.071,-0.10387 -0.075,-0.0928 -0.008,0.0227 0.01,0.0472 0.0147,0.0708 0.0281,0.1628 -0.27967,-0.12219 -0.32745,-0.15899 -0.17867,-0.0989 -0.35327,-0.22034 -0.50954,-0.35335 -0.15733,-0.13668 -0.0964,-0.0479 -0.15181,-0.0226 -0.0694,0.0316 -0.15055,-0.0237 -0.20614,-0.0464 -0.27899,-0.21733 -0.21274,-0.0715 -0.0201,-0.48003 -0.92501,0.24001 -1.26444,-1.06815 -0.33943,-1.30816 v 0 c 0.89117,-0.39762 0.49723,-0.26293 1.16211,-0.4577 0.12298,7.9e-4 0.24705,-0.014 0.36894,0.002 0.39192,0.0525 0.72447,0.29317 1.02841,0.52618 0.13817,0.0835 0.26156,0.19129 0.40257,0.27103 0.24888,0.14988 0.48942,0.30497 0.65897,0.54992 0.17838,0.27509 0.0711,0.0979 0.16741,0.27304 0.005,0.009 0.0208,0.0366 0.0163,0.0271 -0.003,-0.006 -0.10789,-0.15873 -0.016,-0.0913 0.17363,0.10487 0.30883,0.26793 0.46211,0.39832 0.18569,0.17704 0.35559,0.36779 0.49851,0.58175 0.037,0.0519 0.0599,0.12214 0.11626,0.15186 0.007,0.004 0.003,-0.0223 0.0115,-0.0227 0.0894,-0.004 0.16363,0.15295 0.23682,0.17943 0.24521,0.20236 0.51927,0.37108 0.73722,0.60647 0.0781,0.0971 0.16982,0.18475 0.23423,0.29146 0.23138,0.38336 0.28641,0.80535 0.30019,1.24177 0.0253,0.39446 0.0201,0.78926 0.0316,1.18419 -0.005,0.51646 -0.0448,1.03353 -0.22276,1.52348 -0.16332,0.51692 -0.3178,1.03874 -0.54737,1.53137 -0.32348,0.68793 -0.69863,1.33933 -1.24698,1.87681 -0.51011,0.54565 -1.00888,1.1088 -1.58732,1.5837 -0.72211,0.57146 -1.48499,1.09317 -2.29354,1.53547 -0.81695,0.40132 -1.66835,0.72992 -2.55768,0.93281 -0.83028,0.19023 -1.67483,0.30026 -2.50863,0.47372 -1.20121,0.23945 -2.40891,0.45663 -3.63716,0.49079 -0.51772,2.2e-4 -1.03558,0.0129 -1.55315,5.3e-4 -1.17603,-0.0279 -2.35597,-0.2499 -3.42567,-0.74704 -0.62654,-0.35613 -1.16721,-0.75769 -1.69944,-1.24179 -0.61989,-0.52459 -1.24166,-1.05979 -1.69332,-1.74362 -0.0919,-0.16241 -0.19518,-0.31888 -0.27566,-0.48724 -0.38974,-0.81527 -0.46931,-1.70898 -0.34527,-2.59563 0.0256,-0.15869 0.0452,-0.31849 0.0769,-0.47608 0.12165,-0.60382 0.35765,-1.17679 0.48941,-1.77774 0.17221,-0.92769 0.29933,-1.64757 0.93257,-2.40633 0.1298,-0.14603 0.25178,-0.29941 0.38939,-0.4381 0.80991,-0.81627 1.81673,-1.3942 2.7627,-2.03248 0.97413,-0.63393 1.94619,-1.27835 2.99601,-1.78299 1.07235,-0.46493 2.15683,-0.75138 3.33385,-0.77035 1.28014,-0.0354 2.56274,-0.007 3.8411,0.0656 0.85565,0.0596 1.99306,0.15561 2.78712,0.48681 0.11488,0.0479 0.21771,0.12072 0.32657,0.18108 1.08151,0.28982 0.67164,1.8193 -0.40987,1.52948 z"
       inkscape:connector-curvature="0" />
    <path
       style="fill:#ff5555;fill-opacity:1;stroke:none;stroke-width:0.50523883;stroke-opacity:1"
       d="m 442.2082,390.17969 c -7.4337,0.34815 -15.46668,-0.58754 -22.33215,2.84592 -6.64675,4.71743 -13.05979,9.77544 -19.82865,14.31642 -2.45516,2.57906 -1.54541,6.69082 -2.63869,9.86498 -1.11107,3.63105 -0.55862,7.74552 2.44789,10.32101 2.24568,2.21212 4.11124,5.0201 6.7293,6.716 10.94798,-0.58972 22.06345,0.33537 32.88987,-1.66965 9.77623,-1.91387 18.81036,-7.58825 24.89584,-15.44235 3.00826,-4.38999 5.01099,-9.88624 3.78633,-15.19467 -4.15797,-3.78516 -7.52576,-9.00685 -12.85497,-11.22676 -4.2965,-0.8408 -8.74477,-0.40026 -13.09477,-0.5309 z"
       id="path1136"
       inkscape:connector-curvature="0"
       transform="scale(0.26458333)" />
    <path
       style="fill:#ffffff;fill-opacity:1;stroke:none;stroke-width:0.26458332;stroke-opacity:1"
       id="path1146"
       d="m 113.53625,107.6864 c -0.0901,0.0345 -0.24425,0.0107 -0.2702,0.10366 -0.0209,0.0747 0.24359,-10e-4 0.22093,0.0727 -0.0269,0.0881 -0.17941,0.0432 -0.26597,0.0746 -0.25357,0.092 -0.39716,0.22984 -0.56582,0.43208 -0.20683,0.30723 -0.29095,0.63413 -0.20431,0.99195 0.14006,0.35748 0.51991,0.57168 0.81671,0.79189 0.27927,0.18359 0.57053,0.34464 0.91511,0.32388 0.0826,-0.005 0.24615,0.0476 0.24571,-0.0351 -5.3e-4,-0.0837 -0.16411,-0.0329 -0.24616,-0.0494 0.62183,-0.14648 1.08012,-0.59384 1.45934,-1.08327 0.21947,-0.35721 0.38774,-0.58026 0.17977,-0.97276 -0.29099,-0.30274 -0.67336,-0.47707 -1.0798,-0.55745 0.14322,-0.0613 -0.55993,0.0413 -0.42469,-5.3e-4 0.10452,-0.0323 0.26649,0.0498 0.32545,-0.0424 0.0459,-0.0717 -0.16041,-0.0583 -0.23584,-0.0977 -0.14339,-0.0748 -0.60015,-0.39517 -0.66887,-0.44209 -0.25569,0.23873 -0.59331,-0.12287 -0.33762,-0.3616 v 0 c -0.005,-0.18715 -0.0627,-0.38071 -0.0139,-0.56144 0.0385,-0.14265 0.15312,-0.25771 0.26208,-0.35751 0.38075,-0.3487 0.84698,-0.28667 1.3497,-0.2966 0.16439,-0.003 0.32932,0.0194 0.49054,0.0517 0.16539,0.0331 0.32344,0.0958 0.48516,0.14378 0.1524,0.0726 0.31064,0.13395 0.45718,0.21771 0.67999,0.38866 1.1772,1.00876 1.44175,1.74082 0.035,0.12875 0.0797,0.25527 0.10513,0.38625 0.15246,0.78403 -0.006,1.56238 -0.38329,2.25882 -0.10431,0.15572 -0.19714,0.31978 -0.31292,0.46717 -0.61555,0.78365 -1.47844,1.27162 -2.45393,1.44462 -0.33693,0.005 -0.67423,0.0309 -1.01081,0.0146 -0.741,-0.0358 -1.46897,-0.45415 -2.00815,-0.9366 -0.44341,-0.44909 -0.82864,-0.94331 -1.09092,-1.52208 -0.40025,-0.9517 -0.3722,-1.71388 0.13115,-2.63612 0.3252,-0.43058 0.39623,-0.59464 0.85082,-0.90983 0.64613,-0.44798 1.33531,-0.51728 2.10969,-0.44791 0.12531,0.0112 0.23762,0.0828 0.35642,0.12416 1.18085,0.44508 0.5514,2.11506 -0.62945,1.66997 z"
       inkscape:connector-curvature="0" />
    <path
       style="fill:#ffffff;fill-opacity:1;stroke:none;stroke-width:0.50523883;stroke-opacity:1"
       d="m 431.21037,406.47858 c -3.76582,-0.3525 -8.32707,3.70798 -6.576,7.52332 2.02095,2.59704 5.85311,5.53836 9.08049,3.04723 2.51204,-1.59178 6.33063,-5.00573 4.09224,-8.18053 -1.60715,-1.84011 -4.25414,-2.40072 -6.59673,-2.39002 z"
       id="path1148"
       inkscape:connector-curvature="0"
       transform="scale(0.26458333)" />
  </g>
</svg>
