<?xml version="1.0" encoding="UTF-8" standalone="no"?>
<!-- Created with Inkscape (http://www.inkscape.org/) -->

<svg
   xmlns:dc="http://purl.org/dc/elements/1.1/"
   xmlns:cc="http://creativecommons.org/ns#"
   xmlns:rdf="http://www.w3.org/1999/02/22-rdf-syntax-ns#"
   xmlns:svg="http://www.w3.org/2000/svg"
   xmlns="http://www.w3.org/2000/svg"
   xmlns:sodipodi="http://sodipodi.sourceforge.net/DTD/sodipodi-0.dtd"
   xmlns:inkscape="http://www.inkscape.org/namespaces/inkscape"
   width="1024"
   height="1024"
   viewBox="0 0 135.46667 135.46667"
   version="1.1"
   id="svg8"
   inkscape:version="0.92.4 (5da689c313, 2019-01-14)"
   sodipodi:docname="dust.svg"
   inkscape:export-filename="C:\Users\panu-\PycharmProjects\nextgame\data\images\particles\dust.png"
   inkscape:export-xdpi="10.923292"
   inkscape:export-ydpi="10.923292">
  <defs
     id="defs2" />
  <sodipodi:namedview
     id="base"
     pagecolor="#ffffff"
     bordercolor="#666666"
     borderopacity="1.0"
     inkscape:pageopacity="0.0"
     inkscape:pageshadow="2"
     inkscape:zoom="0.34988737"
     inkscape:cx="-287.11493"
     inkscape:cy="295.12212"
     inkscape:document-units="mm"
     inkscape:current-layer="layer3"
     showgrid="false"
     units="px"
     width="1024px"
     inkscape:window-width="1920"
     inkscape:window-height="1017"
     inkscape:window-x="-8"
     inkscape:window-y="-8"
     inkscape:window-maximized="1"
     scale-x="0.5"
     viewbox-x="0" />
  <metadata
     id="metadata5">
    <rdf:RDF>
      <cc:Work
         rdf:about="">
        <dc:format>image/svg+xml</dc:format>
        <dc:type
           rdf:resource="http://purl.org/dc/dcmitype/StillImage" />
        <dc:title></dc:title>
      </cc:Work>
    </rdf:RDF>
  </metadata>
  <g
     inkscape:groupmode="layer"
     id="layer3"
     inkscape:label="lines 1">
    <path
       style="fill:#cccccc;fill-opacity:1;stroke:none;stroke-width:0.26458332;stroke-opacity:1"
       id="path917"
       d="m 71.689399,46.733444 c -0.35921,0.226105 -0.70012,0.484296 -1.07762,0.678317 -1.77847,0.914074 -3.75824,1.414124 -5.66539,1.971424 -3.44638,1.00709 -0.96506,0.26148 -4.36264,1.29704 -2.42787,0.79604 -4.83161,1.78353 -6.68321,3.60419 -1.13935,1.12031 -1.23206,1.45497 -2.07753,2.81739 -1.11733,2.23762 -1.90576,4.66055 -2.19036,7.15292 -0.16122,1.41186 -0.0962,2.02341 -0.0599,3.43753 0.33077,4.05129 1.97857,7.79212 3.60658,11.4619 1.43148,2.90778 2.97799,5.91864 5.58004,7.96562 0.42044,0.33076 0.8872,0.59797 1.3308,0.89695 0.47469,0.22198 0.93274,0.48375 1.42408,0.66595 2.44243,0.90569 5.84762,0.99548 8.34494,0.37044 4.43108,-0.4164 8.93493,-1.04514 13.07922,-2.75784 0.78362,-0.32385 1.53017,-0.73099 2.29526,-1.09649 2.63191,-1.46126 4.92572,-3.43101 6.36651,-6.11155 0.818,-1.52188 0.88911,-2.09607 1.3562,-3.72987 0.49169,-2.39052 0.49951,-4.86424 -0.0392,-7.25031 -0.29488,-1.3061 -0.71105,-2.33089 -1.1657,-3.59005 -1.37489,-3.45759 -3.1573,-6.71669 -5.43561,-9.65667 -1.38837,-1.80434 -3.22996,-3.05885 -5.18635,-4.16216 -1.43426,-0.80206 -2.98036,-1.22296 -4.59927,-1.41901 -2.29409,-0.11165 -2.378,-0.0359 -4.41385,-0.005 -1.14137,0.0611 -2.2586,-0.0697 -3.38308,-0.23961 -2.24394,1.14732 -3.8665,-2.026102 -1.62255,-3.17342 v 0 c 0.33688,-0.261001 0.64405,-0.565693 1.01064,-0.783003 0.81622,-0.483859 1.46049,-0.581168 2.36128,-0.811728 2.71201,-0.353772 5.49368,-0.396809 8.17528,0.2019 1.97347,0.513919 3.88973,1.215986 5.68675,2.190499 2.49116,1.331372 4.85064,2.906082 6.84311,4.927362 1.18246,1.29544 1.54844,1.61477 2.57301,3.08133 1.7565,2.51423 3.05821,5.31005 4.01872,8.21601 1.34191,4.52657 2.262521,9.09318 1.52234,13.8284 -0.56269,2.40051 -0.5769,3.02383 -1.65122,5.2904 -1.77344,3.74153 -4.59303,6.74832 -8.05743,8.98131 -2.60885,1.38645 -3.0496,1.76841 -5.87707,2.67924 -3.91084,1.25984 -8.02233,1.63913 -12.10955,1.67154 -1.43731,-0.0305 -2.87668,-0.009 -4.31193,-0.0916 -3.84719,-0.22163 -7.64034,-1.28144 -10.9788,-3.2035 -0.61072,-0.41906 -1.24799,-0.80185 -1.83216,-1.25719 -3.21064,-2.50253 -5.49189,-5.93774 -7.1439,-9.61665 -0.30649,-0.77969 -0.64004,-1.54928 -0.919476,-2.33907 -1.242734,-3.51243 -1.920613,-7.19867 -2.310235,-10.89505 -0.131194,-1.78069 -0.242221,-2.50368 -0.136001,-4.3084 0.190986,-3.24489 1.096441,-6.3691 2.658154,-9.21993 1.130498,-1.71888 1.531198,-2.53378 3.016828,-3.97729 2.3351,-2.26889 5.33638,-3.622236 8.4073,-4.564404 3.63729,-0.956969 7.48443,-1.932919 11.28192,-1.586114 0.50503,0.04612 0.99902,0.175184 1.49854,0.262774 1.5524,-0.6028 2.40489,1.592622 0.85249,2.195425 z"
       inkscape:connector-curvature="0" />
    <path
       style="fill:#cccccc;fill-opacity:1;stroke:none;stroke-width:0.37809786;stroke-opacity:1"
       d="m 69.177351,46.743839 c -5.409679,0.01794 -10.940052,1.5675 -15.427428,4.606592 -7.032739,5.479531 -7.758229,15.874783 -4.86727,23.746317 2.533296,6.162304 5.467694,13.460131 12.198086,16.027066 5.121965,1.183407 10.49756,0.232714 15.621182,-0.558149 7.518365,-1.383977 15.791825,-5.306518 18.129223,-13.213622 2.508898,-8.292402 -1.428337,-16.930124 -6.370066,-23.491545 -3.344198,-4.263308 -8.478901,-7.386563 -14.045004,-6.997766 -1.74572,-0.05682 -3.49174,-0.126828 -5.238723,-0.118893 z"
       id="path943"
       inkscape:connector-curvature="0" />
    <path
       style="fill:#b3b3b3;fill-opacity:1;stroke:none;stroke-width:0.26458332;stroke-opacity:1"
       id="path970"
       d="m 50.828289,85.465785 c 1.06122,-0.18252 2.09972,0.11856 3.06369,0.54333 0.63099,0.29057 1.16235,0.75493 1.81631,0.9954 0.78827,0.19235 1.61539,0.0605 2.41513,0.0178 1.32385,-0.0902 2.64709,0.004 3.9596,0.17662 0.7221,0.11015 1.44045,0.24832 2.16844,0.31593 0.42459,0.0394 0.5822,0.0108 0.3259,0.0455 0.75418,0.0255 1.50834,-0.0266 2.26256,-0.0369 0.90077,1e-4 1.80039,0.0148 2.70019,-0.0313 0.15775,-0.01 0.31686,-0.007 0.47325,-0.0301 0.0132,-0.002 -0.0271,-0.0355 -0.0139,-0.0374 0.18008,-0.0252 0.36299,-0.0225 0.54426,-0.037 0.60817,-0.0485 1.2159,-0.10507 1.824,-0.15493 1.06915,-0.0784 2.13283,-0.20846 3.19397,-0.35805 0.75477,-0.10776 1.51703,-0.14876 2.27167,-0.25702 0.58281,-0.10488 1.12698,-0.34747 1.66507,-0.58584 0.69654,-0.30964 1.34579,-0.70908 2.00093,-1.09541 0.94096,-0.56579 1.83115,-1.20741 2.70376,-1.87212 0.85592,-0.66066 1.68481,-1.35478 2.49763,-2.06744 0.49186,-0.45107 0.99635,-0.88735 1.47696,-1.35047 0.42651,-0.40448 0.76858,-0.88353 1.11943,-1.35203 0.37024,-0.52046 0.78853,-1.00152 1.2276,-1.46418 0.31652,-0.29271 0.59359,-0.61075 0.79667,-0.99116 0.18041,-0.34104 0.31103,-0.70286 0.43432,-1.06719 0.13,-0.3834 0.28613,-0.75735 0.44827,-1.12809 0.16315,-0.42154 0.42019,-0.79435 0.66411,-1.17141 0.14933,-0.21725 0.18824,-0.46885 0.22839,-0.72302 0.0493,-0.36503 0.0928,-0.73051 0.15807,-1.09314 0.0816,-0.43986 0.20709,-0.86866 0.34475,-1.29355 0.15883,-0.51492 0.36351,-1.01182 0.59638,-1.49711 0.25001,-0.47669 0.51963,-0.94243 0.7505,-1.42898 0.11046,-0.20608 0.12529,-0.42075 0.13007,-0.64799 0.002,-0.2442 -0.0123,-0.488 -0.0239,-0.73182 -0.0112,-0.29044 -0.012,-0.58109 -0.008,-0.87168 -0.009,-0.1613 0.0222,-0.32304 0.0167,-0.48397 0.002,0.005 0.006,0.0211 0.007,0.0155 0.008,-0.0593 -0.083,-0.29265 -0.10278,-0.35448 -0.0501,-0.19377 -0.0933,-0.388 -0.11775,-0.58679 -5.3e-4,-0.0192 -0.0145,-0.0434 -0.002,-0.0576 0.008,-0.008 0.004,0.0215 0.0509,0.10446 0.0582,0.10196 0.27685,0.37907 0.21312,0.28046 -0.0466,-0.0721 -0.10982,-0.13192 -0.16473,-0.19787 -0.15939,-0.26509 -0.18926,-0.54695 -0.18505,-0.84587 0.0134,-0.0636 0.005,-0.15429 0.0459,-0.20941 -0.0231,-0.17659 0.0224,-0.3527 0.048,-0.52682 0.0387,-0.17043 0.0729,-0.34393 0.12429,-0.51124 0.0365,-0.11812 0.0528,-0.2444 0.0724,-0.36649 0.0637,-0.15863 0.0899,-0.32702 0.13739,-0.49011 0.0192,-0.0131 0.0634,-0.29948 0.0901,-0.19308 0.055,0.26025 -0.0307,-0.20637 -0.0341,-0.23856 -0.014,-0.13018 0.0132,-0.25399 0.0436,-0.37881 0.53647,0.10792 1.07293,0.21584 1.60939,0.32376 -0.10807,1.01682 -1.54607,0.86399 -1.438,-0.15283 v 0 c 0.54364,0.0513 1.08727,0.10269 1.6309,0.15403 0.004,-0.0162 0.007,-0.0598 0.0177,-0.0471 0.004,0.004 0.002,0.0498 -0.002,0.0175 -0.0635,-0.31703 0.0526,0.15711 0.0604,0.19419 0.035,0.30697 0.009,0.61367 -0.12262,0.89765 -0.008,0.0183 -0.29256,0.62021 -0.1794,0.2834 0.0324,-0.29869 0.027,0.23409 0.0243,0.25337 -0.0239,0.24946 -0.0731,0.49879 -0.18985,0.72294 -0.0283,0.0534 -0.0554,0.21089 -0.0625,0.0543 -0.008,-0.18619 -0.007,-0.0591 -0.008,-0.0212 0.007,0.10168 0.0296,0.20213 0.0269,0.30433 -0.0274,0.32424 -0.0576,-0.0874 -0.16077,-0.18554 -0.0476,-0.0566 -0.17312,-0.10227 -0.14275,-0.16965 0.0297,-0.0659 0.10284,0.10208 0.14765,0.15879 0.12262,0.1552 0.19682,0.34008 0.25827,0.5258 0.0417,0.17653 0.0727,0.35486 0.0729,0.53695 0.0131,0.11173 0.0801,0.213 0.11514,0.33083 0.0827,0.28087 0.12387,0.57043 0.11882,0.8637 0.002,0.2948 -0.005,0.5895 -0.0289,0.88346 -0.016,0.20346 -0.0211,0.40381 0.0218,0.60512 0.0596,0.45583 0.0694,0.91772 -0.0404,1.36785 -0.17661,0.60922 -0.45573,1.17727 -0.81908,1.69826 -0.22845,0.37591 -0.45362,0.75561 -0.58495,1.17869 -0.12221,0.35141 -0.23576,0.70683 -0.32433,1.0683 -0.0796,0.35862 -0.1158,0.72482 -0.18488,1.08551 -0.0924,0.42157 -0.22897,0.83098 -0.41929,1.21938 -0.19115,0.39529 -0.38698,0.78995 -0.63137,1.15572 -0.17117,0.26355 -0.35267,0.52024 -0.42879,0.83095 -0.14413,0.45008 -0.29074,0.90057 -0.49342,1.32853 -0.26347,0.51348 -0.58034,0.98804 -0.98251,1.40507 -0.3879,0.42315 -0.73846,0.87631 -1.06601,1.3477 -0.41465,0.5536 -0.83691,1.10737 -1.35868,1.56629 -0.46453,0.41119 -0.9066,0.83952 -1.25191,1.36079 -0.73387,0.94577 -1.55636,1.81588 -2.53782,2.51123 -0.98342,0.69793 -2.01266,1.33122 -3.10212,1.85165 -0.7359,0.34792 -1.48324,0.6713 -2.22712,1.00173 -0.64651,0.27973 -1.30163,0.54321 -1.98329,0.72579 -0.74379,0.18971 -1.50113,0.29884 -2.25745,0.42637 -1.08331,0.21824 -2.15267,0.5139 -3.25491,0.62806 -1.36046,0.12524 -2.72748,0.11817 -4.08981,0.007 -0.66147,-0.0499 -1.40673,-0.0909 -1.66936,-0.0789 -0.75649,0.0238 -1.51007,0.0871 -2.26331,0.16039 -0.3816,0.006 -1.05676,0.0248 -1.49432,0.0132 -0.75906,-0.0202 -1.51305,-0.11242 -2.26885,-0.17787 -1.27043,-0.094 -2.54432,-0.10214 -3.81432,-0.20087 -0.96011,-0.11427 -1.92604,-0.27824 -2.80585,-0.6997 -0.57804,-0.29437 -1.14002,-0.63142 -1.78338,-0.76555 -0.88095,-0.19464 -1.79833,-0.32387 -2.61755,-0.71644 -1.06916,-0.37225 -0.54271,-1.88427 0.52645,-1.51201 z"
       inkscape:connector-curvature="0" />
    <path
       style="fill:#b3b3b3;fill-opacity:1;stroke:none;stroke-width:0.13367777;stroke-opacity:1"
       d="m 97.014166,61.101543 c -0.769329,0.2666 -0.486228,1.337641 -0.358997,1.9459 0.155977,1.478809 0.389471,3.107666 -0.05169,4.539041 -0.733544,1.309938 -1.498991,2.663258 -1.659223,4.179257 -0.492839,1.727134 -1.461156,3.269769 -2.12762,4.938713 -1.199036,1.88079 -2.69934,3.542424 -4.250272,5.138555 -2.256761,3.031016 -5.738,4.801541 -9.21421,6.047581 -2.060821,0.596577 -4.173313,1.055515 -6.293197,1.337 -5.493128,-0.06317 -11.013513,0.183356 -16.47709,-0.429421 -1.795352,-0.31967 -3.364987,-1.53289 -5.221007,-1.582463 -0.600488,0.347568 0.210785,0.980745 0.450902,1.311715 4.185836,4.666033 10.556727,6.868459 16.717439,6.943878 4.692573,0.209309 9.456465,-0.07948 14.013307,-1.272495 C 88.602622,92.518017 94.314116,88.725546 97.290404,83.061513 99.1518,79.726887 99.906728,75.85611 99.684332,72.058945 99.567321,68.566728 98.675609,65.145006 97.61755,61.833116 97.48691,61.562834 97.401857,61.082957 97.014171,61.101543 Z"
       id="path976"
       inkscape:connector-curvature="0" />
  </g>
</svg>
