<?xml version="1.0" encoding="UTF-8" standalone="no"?>
<!-- Created with Inkscape (http://www.inkscape.org/) -->

<svg
   xmlns:dc="http://purl.org/dc/elements/1.1/"
   xmlns:cc="http://creativecommons.org/ns#"
   xmlns:rdf="http://www.w3.org/1999/02/22-rdf-syntax-ns#"
   xmlns:svg="http://www.w3.org/2000/svg"
   xmlns="http://www.w3.org/2000/svg"
   xmlns:sodipodi="http://sodipodi.sourceforge.net/DTD/sodipodi-0.dtd"
   xmlns:inkscape="http://www.inkscape.org/namespaces/inkscape"
   width="2048"
   height="2048"
   viewBox="0 0 270.93334 270.93334"
   version="1.1"
   id="svg8"
   inkscape:version="0.92.4 (5da689c313, 2019-01-14)"
   sodipodi:docname="explosion.svg"
   inkscape:export-filename="C:\Users\panu-\PycharmProjects\nextgame\data\images\particles\explosion.png"
   inkscape:export-xdpi="10.923292"
   inkscape:export-ydpi="10.923292">
  <defs
     id="defs2" />
  <sodipodi:namedview
     id="base"
     pagecolor="#ffffff"
     bordercolor="#666666"
     borderopacity="1.0"
     inkscape:pageopacity="0.0"
     inkscape:pageshadow="2"
     inkscape:zoom="0.49481546"
     inkscape:cx="1008.0557"
     inkscape:cy="996.29223"
     inkscape:document-units="mm"
     inkscape:current-layer="layer3"
     showgrid="false"
     units="px"
     width="1024px"
     inkscape:window-width="1920"
     inkscape:window-height="1017"
     inkscape:window-x="-8"
     inkscape:window-y="-8"
     inkscape:window-maximized="1" />
  <metadata
     id="metadata5">
    <rdf:RDF>
      <cc:Work
         rdf:about="">
        <dc:format>image/svg+xml</dc:format>
        <dc:type
           rdf:resource="http://purl.org/dc/dcmitype/StillImage" />
        <dc:title></dc:title>
      </cc:Work>
    </rdf:RDF>
  </metadata>
  <g
     inkscape:groupmode="layer"
     id="layer1"
     inkscape:label="lines 2"
     style="display:inline"
     transform="translate(0,135.46667)"
     sodipodi:insensitive="true">
    <path
       style="fill:#ff6300;fill-opacity:1;stroke:none;stroke-width:0.13229167;stroke-opacity:1"
       id="path1309"
       d="m 93.693828,-78.184459 c -0.760044,0.433909 -1.618105,0.618056 -2.430418,0.919828 -0.609318,0.226359 -0.63385,0.26157 -1.212247,0.561079 -1.604135,1.054848 -3.050033,2.328565 -4.594366,3.468953 -2.041812,1.504637 -4.1843,2.869063 -6.315894,4.24215 -1.519948,0.965677 -3.059462,1.917474 -4.473467,3.037354 -0.877954,0.695331 -0.985164,0.835732 -1.784791,1.606536 -1.39084,1.517392 -2.69121,3.116238 -3.979041,4.721333 -0.847055,0.940272 -1.428086,2.055149 -1.994049,3.174799 -0.620385,1.244494 -1.305854,2.454953 -1.936417,3.69408 -0.513083,0.964305 -0.826886,1.995475 -0.982006,3.071722 -0.101502,1.029781 -0.143042,2.065241 -0.182288,3.099095 -0.0614,0.993107 -0.05938,1.988033 -0.08206,2.982209 0.01464,0.63984 -0.146229,1.265971 -0.161564,1.902551 0.01942,0.427724 0.02078,0.852052 -0.04886,1.275163 -0.07177,0.340426 0.04308,0.686613 0.09189,1.024061 0.05903,0.570661 0.102959,1.164511 -0.08225,1.71672 -0.593902,0.819582 0.333146,-1.54467 -1.518028,2.07273 -0.101104,0.197566 0.399583,-0.197031 0.581796,-0.323731 0.219827,-0.152855 0.269548,-0.279116 0.394309,-0.489528 0.02006,-0.04416 0.01303,-0.121162 0.06019,-0.132486 0.04043,-0.0097 -0.01169,0.08243 -0.02074,0.123012 -0.01999,0.08968 -0.03914,0.179777 -0.06631,0.267552 -0.153709,0.496717 -0.385368,0.910232 -0.668373,1.34309 -0.620293,0.818628 -1.397446,1.49619 -2.096722,2.24416 -0.992217,1.124137 -1.986344,2.244051 -3.041091,3.31034 -0.934265,0.930151 -1.953233,1.767021 -2.960515,2.615139 -0.728421,0.621764 -1.22922,1.438122 -1.728304,2.242635 -0.786851,1.329436 -1.724445,2.558985 -2.63804,3.801774 -0.970973,1.330967 -1.785014,2.769828 -2.431034,4.283812 -0.723199,1.86209 -1.219422,3.802079 -1.733616,5.729435 -0.478893,1.8760688 -1.036059,3.7307941 -1.561149,5.5941937 -0.43954,1.4972136 -0.561291,3.0485147 -0.658011,4.59712097 -0.05816,1.60758193 -0.246573,3.20669713 -0.282055,4.81505963 -0.007,1.5502599 0.310495,3.0767603 0.561332,4.5999401 0.311566,1.6745616 0.450607,3.3733056 0.685066,5.0586346 0.226257,1.624793 0.573948,3.228949 0.942336,4.826464 0.249275,1.424582 0.755895,2.745449 1.48277,3.98817 0.769506,1.190043 1.739055,2.226046 2.712136,3.248819 1.285666,1.279022 2.450192,2.660452 3.500636,4.136919 0.950761,1.387422 1.568872,2.943331 2.086378,4.531876 0.433868,1.493547 0.57676,3.036398 0.654847,4.582121 0.04893,1.564163 -0.01291,3.12838 -0.04264,4.692213 -0.02507,1.646198 0.0787,3.289671 0.116435,4.934638 0.02098,1.687632 -0.06121,3.373954 -0.09376,5.060964 0.02597,1.700146 0.206126,3.392778 0.286115,5.090795 0.08574,2.008928 0.06266,4.020357 0.110846,6.030291 -0.04613,1.46423 0.280706,2.840315 0.803726,4.193063 0.683428,1.555261 1.40868,3.091458 2.095889,4.644986 0.533861,1.243714 1.121528,2.463033 1.728587,3.672364 0.42597,0.911688 1.00254,2.047941 0.389073,3.036279 -0.19069,0.307207 -0.506978,0.515686 -0.760466,0.773536 0.106631,1.667761 -2.251935,1.81856 -2.358566,0.150799 v 0 C 57.776078,81.531171 57.47814,81.430709 57.210148,81.272792 56.620999,80.925619 56.473291,80.342914 56.180178,79.77869 55.411188,78.52094 54.5318,77.32673 53.916198,75.979128 53.134973,74.344386 52.481926,72.65694 51.853502,70.958222 51.207457,69.16485 50.650815,67.340085 50.528844,65.423721 c -0.147271,-2.053034 -0.130487,-4.110646 -0.07251,-6.167451 0.01254,-1.732081 0.0028,-3.463118 -0.03607,-5.194895 -0.02733,-1.677908 -0.107133,-3.354586 -0.102428,-5.032918 0.02316,-1.671095 0.09964,-3.340986 0.103756,-5.012544 0.0099,-1.520508 0.03478,-3.040632 0.07623,-4.560597 0.02294,-1.087504 0.112588,-2.211851 -0.247592,-3.257497 -0.440087,-1.171721 -1.155786,-2.20902 -1.881148,-3.221461 -0.966498,-1.313921 -2.008087,-2.566022 -3.131207,-3.74986 C 44.084399,27.927923 42.962438,26.592015 42.05243,25.107279 41.124988,23.457747 40.409882,21.721115 40.039548,19.856358 39.688752,18.146144 39.43213,16.42163 39.217979,14.689138 38.969295,13.002882 38.61231,11.33483 38.391473,9.6441157 38.180676,7.9153943 38.040344,6.1789471 38.032653,4.436216 c -0.05633,-1.7442392 -0.100624,-3.49235454 0.13912,-5.22739948 0.191775,-1.75196502 0.435357,-3.49562882 0.801636,-5.22099792 0.369508,-1.9440843 0.729732,-3.8923252 1.252724,-5.8026086 0.583154,-2.162677 1.246336,-4.305353 2.109286,-6.375021 0.322301,-0.697952 0.568683,-1.265599 0.940757,-1.937795 0.612205,-1.106021 1.366534,-2.12593 2.121055,-3.136833 0.917236,-1.203469 1.823523,-2.415816 2.779858,-3.588631 0.725057,-0.9161 1.461579,-1.822513 2.237966,-2.695906 0.834264,-1.002523 1.715929,-1.963346 2.636655,-2.887388 1.093041,-1.09271 2.184692,-2.188024 3.338019,-3.217866 0.699072,-0.605657 1.408693,-1.202171 2.181577,-1.711813 0.04487,-0.01591 0.087,-0.04758 0.134604,-0.04772 0.04421,-1.32e-4 0.08225,0.08837 0.11745,0.06162 0.192773,-0.146462 0.08917,-0.650267 0.293946,-0.741096 0.235276,-0.422523 0.323523,-0.676029 0.73508,-0.984993 0.250486,-0.188046 0.887285,-0.772699 0.81482,-0.467981 -0.0746,0.313701 -0.731445,2.530205 -1.261362,1.857647 -0.185805,-0.54925 -0.141124,-1.141082 -0.08451,-1.709148 0.04951,-0.35047 0.160847,-0.708216 0.09397,-1.062375 -0.05895,-0.39615 -0.05486,-0.792158 -0.04173,-1.191744 -0.03723,-0.661486 -0.236004,-1.309247 -0.208172,-1.977828 -0.009,-1.008494 0.05417,-2.014895 0.07209,-3.023019 -0.0035,-1.178607 -0.03582,-2.361507 0.07529,-3.536224 0.176485,-1.516573 0.504521,-2.993676 1.167598,-4.381032 0.617046,-1.297785 1.302348,-2.559073 2.077998,-3.769825 0.676065,-1.218808 1.290398,-2.469115 1.940215,-3.702021 1.155656,-2.014562 2.371458,-4.004288 3.966382,-5.709891 0.906975,-0.946695 1.188358,-1.294933 2.2071,-2.136202 1.536561,-1.268879 3.280893,-2.227053 5.015216,-3.191255 2.190195,-1.194515 4.335985,-2.463528 6.4891,-3.722814 1.784685,-1.054912 3.538938,-2.153617 5.283275,-3.273667 1.778561,-0.932414 3.385764,-1.528629 5.408538,-1.008498 2.050364,-0.583799 2.87598,2.315853 0.825617,2.899652 z"
       inkscape:connector-curvature="0" />
    <path
       style="fill:#ff6300;fill-opacity:1;stroke:none;stroke-width:0.13229167;stroke-opacity:1"
       id="path1311"
       d="m 59.7611,81.216317 c 1.735156,-0.04371 3.43904,0.362453 5.024605,1.042511 1.23721,0.664316 2.358911,1.492541 3.685788,1.976596 1.308202,0.428321 2.679834,0.581568 4.013137,0.910352 1.160558,0.297114 2.168176,0.944827 3.223306,1.481799 0.831763,0.321482 1.664239,0.611466 2.45339,1.032524 1.077732,0.598805 1.950575,1.463331 2.7436,2.393447 0.678099,0.913024 1.571405,1.597343 2.443131,2.308794 1.077469,0.826955 1.945408,1.858301 2.712967,2.969723 0.611528,0.960305 1.260923,1.893425 1.987034,2.770717 0.856059,0.882345 1.635139,1.827503 2.329121,2.84159 0.528553,0.79003 0.910692,1.6795 1.541731,2.39705 0.352577,0.3141 0.797433,0.49271 1.197676,0.73902 0.596888,0.40637 1.178935,0.82135 1.84925,1.09698 0.952903,0.32951 1.973987,0.39774 2.964401,0.55961 1.222297,0.22749 2.443273,0.4654 3.675103,0.63547 1.46912,0.26311 2.96162,0.32449 4.44951,0.38636 1.62554,0.0433 3.25201,0.0478 4.87294,0.18667 1.50099,0.0967 2.96391,0.4436 4.42089,0.79359 1.43262,0.37269 2.90542,0.45956 4.37844,0.46662 1.81776,-0.0268 3.63445,-0.0809 5.45166,-0.0119 1.89594,0.14709 3.79216,0.23045 5.6935,0.22398 1.06722,-0.069 2.95278,-0.13706 4.839,-0.11316 2.062,0.0729 4.1239,0.13156 6.18619,0.19635 -0.19711,0 -0.77721,0.0671 -0.59137,0.001 0.20236,-0.0716 0.42918,-0.01 0.64359,-0.0198 0.20856,-0.01 0.4169,-0.0239 0.62513,-0.0392 0.63452,-0.0466 1.26758,-0.11181 1.90038,-0.17705 1.20847,-0.14062 2.41304,-0.3143 3.62453,-0.42786 1.04623,-0.0842 2.07566,-0.29538 3.09346,-0.54419 0.8743,-0.23011 1.75848,-0.42001 2.64108,-0.61498 0.65233,-0.12655 1.29323,-0.2995 1.92647,-0.49937 1.00361,-0.36004 1.95495,-0.8505 2.91657,-1.30779 1.26806,-0.59526 2.57735,-1.09726 3.90329,-1.54676 1.1108,-0.32613 2.1964,-0.71646 3.25537,-1.18303 1.33133,-0.59846 2.68664,-1.13452 4.07974,-1.57003 1.32263,-0.40196 2.69486,-0.581255 4.05681,-0.790487 1.57751,-0.280816 3.15389,-0.559303 4.74173,-0.776036 1.43525,-0.184256 2.88329,-0.223124 4.31993,-0.390142 0.86544,-0.08947 1.63936,-0.423201 2.37887,-0.85983 0.53316,-0.298555 0.97149,-0.687877 1.34524,-1.166309 0.45777,-0.57834 0.9497,-1.128581 1.39777,-1.714646 0.45957,-0.549963 0.75196,-1.204158 1.06815,-1.840217 0.36924,-0.788842 0.83201,-1.52318 1.36431,-2.210739 0.3986,-0.491397 0.76338,-1.002916 1.09821,-1.53928 0.64939,-1.094475 1.53799,-2.006044 2.45054,-2.88077 1.3636,-1.255104 3.00685,-2.106692 4.67807,-2.870306 1.47263,-0.665612 2.99005,-1.223169 4.53037,-1.70901 1.39291,-0.407551 2.8169,-0.689425 4.22709,-1.028052 1.34035,-0.354766 2.64127,-0.834747 3.95383,-1.276575 1.71548,-0.554064 3.45321,-1.038873 5.20134,-1.478293 1.28782,-0.344593 2.61778,-0.534524 3.87703,-0.980083 0.53182,-0.194138 0.99397,-0.514032 1.41107,-0.890746 0.2356,-0.199191 0.12587,0.04108 0.15324,-0.342993 0.037,-0.890309 0.29111,-1.75297 0.55217,-2.598949 0.30603,-0.885494 0.58257,-1.777762 0.77096,-2.695813 0.19948,-0.902758 0.16507,-1.825255 0.13884,-2.742076 -0.14177,-1.848987 0.2657,-3.631895 0.85538,-5.368541 0.3606,-1.023567 0.90767,-1.975922 1.12011,-3.046135 0.16608,-1.343792 0.41324,-2.671829 0.71845,-3.990446 0.28262,-1.220642 0.74653,-2.394241 0.9819,-3.625598 0.0733,-0.891276 -0.11302,-1.779284 -0.20685,-2.663389 -0.15542,-1.297477 -0.0711,-2.599769 0.0471,-3.895527 0.14109,-1.049509 0.0743,-2.104125 0.0134,-3.15591 -0.10934,-1.176232 -0.0914,-2.356101 -0.044,-3.534582 0.0481,-0.965253 0.064,-1.93937 0.35131,-2.871722 0.0799,-0.259185 0.18964,-0.508198 0.28447,-0.762291 0.65115,-1.556914 1.69129,-2.880399 2.84761,-4.090088 0.56908,-0.638373 1.33227,-1.107215 1.80522,-1.829051 0.25798,-0.723635 0.39911,-1.484961 0.63431,-2.219127 0.3125,-0.989594 0.78459,-1.914974 1.1973,-2.863651 0.30805,-0.76294 0.38684,-1.595993 0.50206,-2.404732 0.13283,-1.175134 0.38767,-2.326349 0.66895,-3.472842 0.22299,-0.755729 0.25104,-1.253199 0.15679,-2.017487 -0.20609,-1.141757 -0.20981,-2.300486 -0.24712,-3.455551 0.007,-1.001501 -0.14449,-1.985592 -0.33259,-2.9652387 -0.26289,-1.1142398 -0.60668,-2.2049714 -0.84873,-3.3242913 -0.19308,-1.192067 -0.43498,-2.3641315 -0.85143,-3.4987839 -0.4274,-1.0542985 -0.97785,-2.05124848 -1.48,-3.07059549 -0.71074,-1.44899061 -1.08309,-3.02137111 -1.42091,-4.58945331 -0.20211,-1.2259999 -0.52125,-2.4273683 -0.81347,-3.633535 -0.3072,-1.1338004 -0.57547,-2.2777573 -0.80711,-3.4292913 -0.17757,-1.211956 -0.35735,-2.424159 -0.52387,-3.637894 -0.19675,-1.144444 -0.27906,-2.302159 -0.35746,-3.459187 -0.0381,-1.03538 -0.24037,-2.040896 -0.53576,-3.030235 -0.44386,-1.287559 -0.72105,-2.617403 -0.99585,-3.948061 -0.30353,-1.306474 -0.53057,-2.627945 -0.78261,-3.944635 -0.20587,-1.079775 -0.55881,-2.118474 -0.92418,-3.152112 -0.38393,-1.096072 -0.89274,-2.142118 -1.41827,-3.17581 -0.56681,-1.081352 -1.05598,-2.202149 -1.66293,-3.262099 -0.49636,-0.81039 -1.02746,-1.60503 -1.6703,-2.306949 -0.6036,-0.597626 -1.24648,-1.157032 -1.94859,-1.635884 -0.66883,-0.430133 -1.38103,-0.783737 -2.09119,-1.13891 -0.77573,-0.430819 -1.52667,-0.904576 -2.29302,-1.352097 -0.59627,-0.336337 -1.17338,-0.696561 -1.71958,-1.109128 -0.29919,-0.189017 -0.5412,-0.439987 -0.78841,-0.690096 -0.34435,-0.246219 -0.38791,-0.652158 -0.60156,-0.973267 -0.0334,-0.05023 -0.13324,-0.161725 -0.16867,-0.216278 -0.17019,-0.217821 -0.32619,-0.439239 -0.46305,-0.682936 -0.1877,-0.385818 -0.40808,-0.749242 -0.5934,-1.136415 -0.29579,-0.585736 -0.59072,-1.171476 -0.85932,-1.770266 -0.38567,-0.867632 -0.7119,-1.760737 -1.03177,-2.654319 -0.31291,-1.002834 -0.61863,-2.002067 -1.02646,-2.970814 -0.36698,-0.827092 -0.83633,-1.592079 -1.38685,-2.307671 -0.62208,-0.827393 -1.29212,-1.625096 -2.05828,-2.322732 -0.77704,-0.75701 -1.59878,-1.465552 -2.39535,-2.201581 -0.89567,-0.852883 -1.7468,-1.750424 -2.63625,-2.609775 -0.8574,-0.833363 -1.81716,-1.534981 -2.82997,-2.164371 -1.01804,-0.632431 -1.99732,-1.323788 -2.97102,-2.021657 -0.75912,-0.639101 -1.6153,-1.104716 -2.52687,-1.482191 -1.23461,-0.395729 -2.47316,-0.767753 -3.68735,-1.225595 -1.361,-0.618794 -2.76957,-1.101903 -4.19791,-1.535303 -1.68731,-0.483523 -3.41182,-0.833373 -5.13094,-1.184316 -1.2802,-0.309196 -2.57392,-0.522502 -3.88858,-0.591526 0.34773,0.01634 -1.4931,-0.03808 -1.12209,0.0093 0.25546,0.03263 0.52107,-0.04569 0.77253,0.0099 0.20509,0.04532 -0.41981,0.01469 -0.62972,0.02168 -0.69973,0.02329 -0.64144,0.02074 -1.35056,0.04077 -1.12549,0.05746 -2.24812,-0.06409 -3.37226,-0.07649 -0.82271,0.01939 -1.63039,0.207939 -2.44785,0.295586 -1.12566,0.183383 -2.21562,-0.124093 -3.33198,-0.110513 -0.0898,0.0011 -0.17957,9.26e-4 -0.26933,0.0033 -1.10241,0.02951 1.53495,0.03313 0.42169,0.0041 -0.0934,-0.0024 -0.18682,-0.0064 -0.28027,-0.0078 -0.0925,-0.0014 -0.18505,-5.29e-4 -0.27756,-7.93e-4 -1.11427,0.03745 -2.22304,-0.05565 -3.33325,0.03912 -0.15589,0.0095 -0.31174,0.02 -0.4677,0.02855 -0.16834,0.0092 -0.33671,0.0182 -0.50517,0.02481 -0.1746,0.0069 -0.69795,-5.29e-4 -0.52397,0.01557 0.26368,0.02442 0.53222,-0.02801 0.79437,0.0095 0.18832,0.02693 -0.38018,0.01535 -0.57028,0.02257 -0.20079,0.0076 -0.4016,0.01465 -0.6024,0.02198 -1.37934,0.04066 -2.75426,0.143703 -4.12901,0.25957 -1.60254,0.146678 -3.2095,0.222383 -4.81717,0.282645 -2.192,-0.02004 -4.38914,0.06455 -6.57836,-0.07388 -1.64498,-0.127182 -3.2591,-0.48085 -4.8591,-0.867897 -1.3742,-0.392389 -2.77402,-0.65573 -4.18484,-0.870943 -1.44216,-0.200129 -2.89266,-0.305532 -4.34665,-0.363201 -0.80434,-0.02451 -1.60921,-0.03316 -2.4135,-0.05951 -0.25389,-0.0083 -0.53833,0.09006 -0.76144,-0.0314 -0.19604,-0.106717 0.78096,0.174575 0.66936,-0.01873 -0.11712,-0.202852 -0.46781,-0.02486 -0.70171,-0.0373 -1.16651,-0.08929 -2.33507,-0.09758 -3.5029,-0.04077 -1.17057,0.05698 -2.33297,0.217131 -3.50132,0.304289 -0.89946,0.04815 -1.76367,0.229984 -2.61463,0.513294 -1.27408,0.406631 -2.58637,0.541183 -3.91998,0.343371 -0.43807,-0.0306 -1.43463,0.05988 0.62747,0.0059 0.0317,-7.94e-4 -0.0602,-0.02561 -0.092,-0.0247 -0.12909,0.0037 -0.35397,0.07532 -0.46534,0.105891 -0.88053,0.285527 -1.78416,0.472562 -2.70072,0.591746 -0.99832,0.107204 -2.00066,0.199307 -3.00507,0.213494 -0.83481,-0.04506 -1.6573,0.09532 -2.4837,0.187889 -1.55601,-0.01359 -3.108986,0.118061 -4.664498,0.09186 0.428839,-0.100402 -1.392502,0.03265 -1.056113,-0.07404 0.245266,-0.07779 0.519039,0.0076 0.770493,-0.04694 0.133174,-0.0289 -0.271587,-0.02315 -0.407586,-0.03183 -0.314841,-0.02008 -0.426468,-0.01928 -0.738911,-0.02604 -1.269861,0.02801 -2.539377,0.06963 -3.808842,0.115907 -0.416362,-0.0032 -0.579618,0.0038 -0.987683,-0.03 -0.134739,-0.01115 -0.534943,-0.0171 -0.402944,-0.04634 1.312825,-0.290839 0.920854,0.18066 0.574227,-0.275213 0.513665,-0.544259 1.059136,-0.993397 0.742019,-2.016501 -0.08664,-0.279537 -0.584978,0.01986 -0.877467,0.02979 0.317452,0.814368 -0.834237,1.263314 -1.151689,0.448948 v 0 c -0.332218,-0.07391 -0.894071,0.10277 -0.996651,-0.221742 -0.398473,-1.260571 0.217915,-1.638294 0.86358,-2.220179 0.624648,-0.502592 1.114954,-0.293609 2.034451,-0.345442 0.476134,-0.02684 0.951271,-0.108611 1.430788,-0.07026 0.173265,0.0073 0.346632,0.01242 0.519794,0.02185 0.161405,0.0088 0.641314,-0.0036 0.483822,0.0328 -0.241796,0.05589 -0.498216,-0.0069 -0.744012,0.02734 -0.252954,0.03525 0.51014,0.02976 0.765528,0.03188 0.116026,9.26e-4 0.232034,-0.0035 0.348051,-0.0052 1.319893,-0.05925 2.638526,-0.146939 3.959441,-0.194676 0.631662,0.0076 1.253722,0.04285 1.882862,0.100164 0.17564,0.016 0.35082,0.03705 0.52662,0.05124 0.14912,0.01204 0.5952,9.26e-4 0.44796,0.02742 -0.2621,0.04712 -0.53207,0.02369 -0.79811,0.03554 0.83172,0.07847 1.41377,-0.05741 2.22885,-0.23833 0.9728,-0.135894 1.95515,-0.134332 2.93522,-0.181425 0.72073,-0.04847 1.44687,-0.06034 2.16086,-0.173843 0.34437,-0.0927 0.93076,-0.318614 1.25861,-0.345913 0.81463,-0.06783 1.54842,-0.07712 2.33535,0.02402 0.0574,-0.0018 0.22963,-0.0061 0.1722,-0.0054 -0.35126,0.0039 -0.70285,-0.0012 -1.05376,0.01528 -0.0358,0.0017 0.069,0.01952 0.10345,0.02928 0.0438,-7.94e-4 0.0882,0.0048 0.13151,-0.0023 0.19993,-0.03267 0.35554,-0.103265 0.54797,-0.174114 1.02193,-0.380822 2.00185,-0.873558 3.06212,-1.147994 1.32914,-0.355529 2.69076,-0.499155 4.06508,-0.536098 1.1891,-0.0396 2.37762,-0.09538 3.56023,-0.232523 2.13435,-0.160075 4.29046,-0.112509 6.42159,0.07542 1.56211,0.178159 3.12411,0.365685 4.67793,0.606393 1.49893,0.255814 2.97486,0.607597 4.44622,0.98996 1.34535,0.277701 2.70345,0.430275 4.08026,0.404402 0.85114,0.0025 1.70085,0.01555 2.55156,0.0441 0.2817,0.0095 0.56332,0.02112 0.84501,0.03124 0.26714,0.0096 0.54773,-0.05626 0.80145,0.02787 0.20572,0.06821 -0.4332,0.01494 -0.6498,0.02241 1.49783,0.04334 2.98914,-0.05126 4.47971,-0.202365 1.49999,-0.11133 3.00673,-0.183767 4.51074,-0.125417 1.57213,0.02901 3.14973,-0.03608 4.71516,0.134136 0.36543,0.05427 0.73491,0.126196 1.10411,0.151518 0.0708,0.0049 0.28397,0.0018 0.21298,0.0032 -1.64645,0.03168 -1.23297,0.0195 -0.77175,0.0039 1.06323,-0.0561 2.12872,-0.113338 3.19279,-0.03006 0.51096,0.04674 2.83454,0.156752 0.42124,0.09646 0.72273,0.06414 1.39927,-0.272793 2.09353,-0.424267 1.22906,-0.25307 2.46946,-0.352276 3.72522,-0.325557 1.7822,-0.01037 3.56538,-0.04217 5.3468,0.02232 1.5901,0.04876 3.18659,0.07989 4.75904,0.347177 1.94443,0.363363 3.84488,0.872555 5.6768,1.631147 1.43708,0.546933 2.85929,1.131304 4.28922,1.696134 1.33207,0.510256 2.68532,0.981301 3.93943,1.670618 1.04855,0.581929 2.04138,1.244048 3.01472,1.943903 0.97762,0.643363 1.99693,1.217188 2.99529,1.827145 1.27073,0.862844 2.48277,1.808404 3.50074,2.967902 0.76874,0.837587 1.51105,1.703516 2.35198,2.470866 0.88191,0.788103 1.79455,1.543696 2.62706,2.38531 0.83921,0.94256 1.63286,1.921581 2.3424,2.966771 0.70192,1.036635 1.37329,2.101923 1.8674,3.256019 0.44003,1.091944 0.76554,2.217828 1.03645,3.36297 0.20983,0.775366 0.42927,1.547069 0.74537,2.287514 0.24956,0.614258 0.51103,1.231001 0.64217,1.883723 0.0248,0.205474 0.15579,0.359312 0.27953,0.516409 0.25109,0.338196 0.47315,0.700613 0.61585,1.098978 0.28351,0.897797 0.002,-0.03472 -0.3168,-0.292344 -0.0564,-0.06406 -0.13168,-0.115541 -0.16925,-0.192192 -0.0142,-0.029 0.0618,0.01927 0.0911,0.03285 0.21165,0.09814 0.4306,0.152 0.6405,0.266871 0.64836,0.264489 1.27564,0.56885 1.87176,0.938662 0.6912,0.402939 1.37241,0.825866 2.10042,1.161117 0.91496,0.466589 1.83473,0.932314 2.66566,1.541671 0.98913,0.733993 1.92954,1.534243 2.70527,2.498015 0.72997,0.935394 1.44268,1.885837 2.09014,2.880838 0.72759,1.169304 1.36496,2.385195 1.90849,3.651684 0.53408,1.198901 1.07305,2.398473 1.46624,3.653041 0.44444,1.235594 0.89681,2.472123 1.17347,3.758929 0.28354,1.29592 0.50235,2.603241 0.77417,3.901688 0.28782,1.281463 0.63212,2.54715 0.94886,3.821499 0.26287,1.264076 0.44494,2.540801 0.48521,3.833232 0.0727,1.036416 0.19592,2.064397 0.4195,3.080721 0.19288,1.168757 0.34225,2.343273 0.47875,3.519784 0.154,1.022294 0.37847,2.027537 0.71727,3.0062286 0.41186,1.294212 0.84043,2.5849726 1.14605,3.9097586 0.22243,1.1840488 0.39437,2.4006837 0.89705,3.5059078 0.56021,1.1800814 1.22491,2.31113548 1.69472,3.5331269 0.47398,1.3611886 0.80125,2.7499734 0.94581,4.18678 0.18939,1.1289109 0.49899,2.2284399 0.72652,3.3497177 0.24258,1.2380516 0.41423,2.4916074 0.44028,3.7547414 0.001,1.083959 -0.007,2.167705 -0.0223,3.251399 0.02,1.052632 0.0462,2.116693 -0.14838,3.156043 -0.18251,1.156665 -0.40906,2.306386 -0.72171,3.435733 -0.26264,1.054378 -0.4021,2.139434 -0.76097,3.168915 -0.33956,0.913844 -0.79015,1.774521 -1.16683,2.672874 -0.33004,0.87634 -0.61846,1.763845 -0.91386,2.652673 -0.48774,1.14972 -1.12189,2.213081 -1.96135,3.145353 -0.81694,0.964512 -1.7015,1.867046 -2.51895,2.831108 -0.0395,0.04333 -0.24148,0.254106 -0.28344,0.332079 -0.21209,0.394097 0.0215,0.93894 -0.0241,1.356452 0.0864,1.175359 0.21943,2.349434 0.19283,3.530137 -0.0326,1.159061 -0.0725,2.317909 -0.0882,3.477406 -0.0307,1.117693 -0.0642,2.234949 -0.0784,3.352959 0.0176,1.125299 0.19051,2.238176 0.18556,3.363886 -0.0689,1.489631 -0.33951,2.952353 -0.78871,4.37601 -0.36134,1.216528 -0.78753,2.415196 -1.05373,3.658301 -0.24005,1.185122 -0.49801,2.366698 -0.79353,3.539398 -0.3549,1.38557 -0.70651,2.772476 -0.98851,4.175164 -0.10917,1.159616 -0.10356,2.33094 -0.3297,3.477366 -0.23145,1.089356 -0.48907,2.177283 -0.89809,3.215892 -0.27231,0.705088 -0.61274,1.383877 -0.8123,2.114219 -0.23644,0.731057 -0.47381,1.471943 -0.9415,2.09464 -0.64425,0.829562 -1.37392,1.575965 -2.27772,2.128375 -1.38344,0.845661 -2.85724,1.505413 -4.43838,1.891996 -1.71623,0.432911 -3.45686,0.742831 -5.18205,1.135657 -1.36911,0.342781 -2.71537,0.75487 -4.05742,1.191565 -1.36708,0.434975 -2.75704,0.779436 -4.15162,1.113247 -1.34806,0.3447 -2.65579,0.806966 -3.89765,1.441503 -1.35415,0.655479 -2.69834,1.335405 -4.00533,2.080631 -0.8162,0.514376 -1.56066,1.117864 -2.21759,1.827239 -0.38403,0.424881 -0.74739,0.866391 -1.05728,1.349176 -0.34864,0.614257 -0.67192,1.24255 -1.01866,1.857958 -0.45536,0.849114 -0.85716,1.733034 -1.4482,2.501304 -0.49246,0.603184 -1.01942,1.171298 -1.58074,1.710955 -0.5863,0.660373 -1.07529,1.405008 -1.73235,2.001778 -1.11329,0.93742 -2.38917,1.60648 -3.80719,1.96233 -1.44184,0.35751 -2.91262,0.55203 -4.3759,0.80091 -1.64257,0.23326 -3.29023,0.40935 -4.94803,0.4923 -1.12522,0.0876 -2.2515,0.20467 -3.33194,0.55214 -1.29323,0.40029 -2.56025,0.87474 -3.81968,1.37025 -1.12878,0.4132 -2.26769,0.78818 -3.41003,1.16024 -1.22874,0.49371 -2.39708,1.11838 -3.62841,1.6059 -1.17694,0.44202 -2.35705,0.87755 -3.58596,1.15576 -0.67435,0.17334 -1.35837,0.30329 -2.02938,0.48896 -0.80122,0.24393 -1.58111,0.54933 -2.37073,0.82709 -1.23482,0.42324 -2.49263,0.76772 -3.79684,0.89506 -1.14939,0.10599 -2.2992,0.17789 -3.42655,0.45174 -1.84266,0.30867 -3.70528,0.49172 -5.57656,0.45149 -0.47352,0.009 -0.97693,0.0168 -1.44999,0.0318 -0.25857,0.008 -0.5222,-0.023 -0.77554,0.0293 -0.15098,0.0312 0.61217,0.005 0.46113,0.0356 -0.58684,0.12025 -1.20853,-0.0296 -1.7947,0.0928 -2.52753,0.0882 -5.06005,0.0611 -7.58767,0.002 -1.92617,-0.0701 -3.84964,-0.19645 -5.77527,-0.27936 -1.817,-0.0711 -3.63531,-0.0969 -5.45134,-0.19043 -1.70497,-0.15616 -3.39013,-0.4291 -5.02228,-0.96425 -1.20023,-0.30595 -2.41128,-0.49288 -3.65549,-0.44303 -1.69516,0.038 -3.39585,0.0775 -5.0851,-0.10348 -1.59023,-0.17489 -3.16478,-0.44459 -4.71865,-0.82879 -1.237861,-0.2763 -2.493623,-0.44329 -3.740525,-0.67308 -1.349165,-0.31281 -2.66865,-0.75214 -3.818312,-1.54784 -0.563256,-0.40694 -1.080377,-0.87636 -1.668422,-1.24513 -0.713879,-0.3627 -1.418738,-0.74657 -1.999026,-1.31082 -0.839166,-0.82585 -1.517216,-1.7753 -2.101805,-2.79677 -0.621856,-0.93101 -1.323486,-1.7882 -2.082482,-2.61192 -0.772695,-0.96534 -1.51714,-1.952619 -2.158246,-3.011998 -0.155314,-0.227488 -0.349899,-0.52959 -0.535754,-0.737843 -0.477133,-0.534644 -1.100184,-0.918978 -1.638879,-1.383679 -1.036849,-0.890481 -2.0181,-1.842889 -2.753973,-3.006248 -0.412618,-0.573855 -0.784879,-1.243397 -1.424262,-1.59094 -0.82855,-0.370059 -1.690755,-0.667888 -2.470143,-1.142219 -0.768283,-0.42422 -1.526252,-0.768046 -2.426325,-0.773682 -1.698756,-0.15617 -3.371658,-0.482666 -4.886105,-1.310666 -1.123576,-0.649724 -2.157603,-1.475145 -3.393644,-1.905582 -1.512512,-0.497708 -3.093142,-0.977398 -4.363908,-1.969956 -1.712557,-1.01297 -0.279995,-3.434887 1.432561,-2.421916 z"
       inkscape:connector-curvature="0" />
    <path
       style="fill:#ff6300;fill-opacity:1;stroke:none;stroke-width:2.02095532;stroke-opacity:1"
       d="m 904.37757,421.00863 c -29.34778,-0.29362 -57.53522,9.15918 -86.6603,11.52576 -44.79884,6.36533 -90.52248,2.47203 -135.32902,6.17339 -37.95829,28.50472 -77.54299,54.70144 -116.61491,81.58982 -38.32356,31.13011 -66.83709,73.67645 -83.83861,119.81891 -6.46687,32.10256 -2.73242,65.37781 -6.40627,97.47954 -5.26069,3.32378 -6.03601,9.47927 -4.55505,14.29668 -22.97659,35.62437 -60.22656,58.96533 -83.4329,94.46073 -18.11036,23.82824 -34.49603,49.53925 -41.11242,79.13617 -16.8928,55.27921 -31.50153,114.01617 -19.24671,171.86797 5.79728,33.5457 7.14488,69.409 23.3202,100.0295 20.68273,30.1043 53.07256,53.3171 62.28253,90.3588 7.50425,39.2541 3.49704,79.5455 5.45894,119.3666 0.92352,43.9964 1.48558,88.1114 4.11691,131.9937 12.30439,29.4134 28.39913,57.2955 37.98765,87.6668 -3.02279,6.2208 -2.81574,15.6614 6.11418,16.3216 25.8127,5.8657 47.74892,23.1013 74.20696,27.3579 27.02654,7.7977 53.5264,19.809 72.72992,41.0175 30.27616,26.6528 52.71026,60.4099 76.67079,92.4603 21.67998,24.2387 57.17687,23.7437 86.84573,28.506 34.39765,3.8836 69.24842,3.9436 103.21486,11.0408 70.84896,4.1962 142.05035,5.5944 212.95815,1.8275 40.144,-2.0213 80.0187,-10.7142 116.1984,-28.5292 38.7871,-14.3715 76.4579,-31.6206 117.9487,-36.7394 27.5958,-6.6184 60.419,-0.5862 83.6719,-20.1681 21.0447,-20.8797 30.9255,-50.0528 51.4633,-71.4873 24.2149,-27.576 61.5016,-37.5989 95.6756,-47.078 36.5446,-10.4562 72.9002,-21.6673 109.7119,-31.0564 19.0817,-7.3054 19.365,-31.1837 23.308,-48.1753 3.4524,-24.3545 2.5175,-49.5895 12.5315,-72.6274 6.309,-24.2034 12.902,-48.3762 16.8908,-72.9367 2.5952,-39.8298 -2.8101,-80.0734 2.9288,-119.5521 4.8454,-24.5529 28.1621,-38.2569 39.0692,-59.3538 10.448,-31.1921 21.7833,-63.1953 21.3133,-96.5589 -0.5595,-24.7246 -3.7246,-49.2055 -10.3007,-73.0276 -6.9221,-30.263 -23.2294,-56.9272 -29.1991,-87.43132 -14.8736,-53.57014 -16.6755,-110.52121 -31.4598,-164.56986 -7.941,-40.91806 -23.359,-81.91331 -51.0147,-113.6339 -24.3132,-21.63495 -61.5102,-30.10864 -75.375,-62.29712 -16.8997,-30.04326 -21.0706,-67.62011 -48.3472,-91.25401 -30.8494,-30.1932 -63.2863,-59.99682 -101.2196,-81.0297 -49.6886,-18.40694 -101.0971,-38.49774 -155.0687,-35.72969 -80.0168,0.96086 -160.2061,7.01476 -240.038,3.07223 -33.415,-7.00441 -66.99387,-14.61325 -101.40308,-13.9971 -11.99619,-0.24648 -23.99826,-0.28629 -35.99615,-0.1353 z"
       id="path1313"
       inkscape:connector-curvature="0"
       transform="matrix(0.13229167,0,0,0.13229167,0,-135.46667)" />
  </g>
  <g
     inkscape:groupmode="layer"
     id="layer2"
     inkscape:label="lines 3"
     style="display:inline"
     transform="translate(0,135.46667)"
     sodipodi:insensitive="true">
    <path
       style="fill:#ff9600;fill-opacity:1;stroke:none;stroke-width:0.15859464;stroke-opacity:1"
       id="path872"
       d="m 77.111784,-14.269383 c 0.193617,-0.490844 0.341248,-1.00242 0.580854,-1.472531 1.912452,-3.752273 5.201844,-6.84102 8.589358,-9.254057 1.126503,-0.802455 2.333701,-1.485162 3.500556,-2.227741 5.01467,-2.789223 10.527508,-4.466547 16.231718,-5.051661 3.99986,-0.410287 6.53194,-0.176224 10.77148,-0.07421 3.67454,0.359042 7.57832,0.697039 10.88418,2.539645 1.0024,0.558707 1.83728,1.375559 2.75592,2.063339 3.25317,1.660746 0.90449,6.261405 -2.34866,4.600659 v 0 c -1.13501,0.135468 -2.2651,0.322156 -3.40505,0.406409 -3.53196,0.261035 -7.07849,0.0019 -10.60591,-0.172152 -6.19042,-0.608201 -12.3736,0.706484 -17.975418,3.32735 -3.299038,1.678819 -2.985922,1.449673 -6.130756,3.322708 -2.296052,1.367508 -4.476189,2.919882 -6.781013,4.270141 -0.420042,0.246077 -0.859439,0.457515 -1.289159,0.686274 -2.095985,3.3786297 -6.874087,0.414455 -4.7781,-2.964173 z"
       inkscape:connector-curvature="0" />
    <path
       style="fill:#ff9600;fill-opacity:1;stroke:none;stroke-width:0.15859464;stroke-opacity:1"
       id="path886"
       d="m 109.0502,-70.965219 c -0.42506,0.127961 -0.84116,0.290826 -1.27522,0.383888 -1.56222,0.334945 -3.23046,0.383791 -4.82185,0.367431 -1.56835,-0.01613 -1.86274,0.200614 -1.34329,-0.128281 -2.457172,-0.2514 -4.419748,1.122622 -6.417078,2.350055 -3.434496,2.149227 -6.840331,4.322585 -9.91289,6.972523 -3.151929,2.981256 -5.0597,6.914648 -6.830289,10.807476 -1.18296,2.729077 -2.318282,5.461665 -2.121864,8.480554 0.1794,1.461715 1.047574,2.667775 1.660313,3.967153 0.960857,2.138345 0.608916,5.412688 -3.75944,3.912615 -2.75791,-1.456207 0.902083,-2.510585 4.437265,-2.454275 0.749228,0.01187 -0.122252,1.844459 -0.580399,2.957498 -1.276472,1.925112 -3.115709,3.382167 -4.825768,4.904383 -2.274046,2.020838 -4.514217,4.079671 -6.639808,6.2567 -1.485023,1.54295 -2.810015,3.230575 -3.723758,5.178439 -0.629217,1.341329 -0.827994,2.104814 -1.298207,3.537017 -1.267756,4.4074132 -2.060304,8.9278797 -2.284985,13.50588846 -0.04119,2.80745794 0.114895,5.63746834 0.773461,8.37665184 0.361788,1.5047768 0.612564,2.0708167 1.136494,3.5130607 1.128705,3.03106 3.212696,5.398084 5.422052,7.680562 1.471677,1.517402 3.09685,2.904947 4.408158,4.569508 0.294462,0.437452 0.395473,0.861899 0.341375,1.376681 -0.01433,0.136407 -0.06803,0.27034 -0.05905,0.407191 0.01139,0.172758 0.0793,0.337062 0.118947,0.5056 1.459469,0.57462 0.646811,2.638635 -0.812656,2.063998 v 0 c -0.33283,0.113252 -0.654542,0.266931 -0.998487,0.339758 -1.134887,0.240271 -2.321725,-0.04127 -3.369442,-0.472073 -2.011447,-1.12434 -3.867822,-2.530917 -5.648498,-3.985467 -3.192648,-2.927609 -5.568051,-5.958575 -7.324261,-9.958904 -0.785893,-1.953964 -1.056566,-2.464797 -1.615213,-4.5257647 -0.894376,-3.2995614 -1.186479,-6.7191947 -1.23293,-10.12693324 0.03732,-2.14224886 0.0053,-3.30325676 0.254841,-5.44246036 0.419254,-3.5939668 1.371637,-7.1075817 2.703003,-10.4666257 1.759647,-3.987501 3.736765,-7.915112 6.936976,-10.964952 2.355975,-2.282972 4.836292,-4.431343 7.438019,-6.431472 1.130528,-0.841106 3.285792,-2.597264 4.613777,-3.006942 0.09761,-0.03012 0.204267,0.0035 0.3064,0.0052 0.0014,0.190689 -0.01399,1.570387 0.1417,1.537814 1.836711,-0.384257 3.583683,-1.180751 5.232164,-2.077226 0.235997,-0.128339 -0.233625,-0.593733 -0.499451,-0.632482 -0.02186,-0.0032 -0.02347,0.03744 -0.0352,0.05615 0.148913,1.434501 -0.03156,-0.597654 -3.482242,2.00664 -0.216586,0.163461 0.300381,1.172114 -0.284775,0.559264 -0.125163,-0.131084 -0.23708,-0.274204 -0.355622,-0.411304 -1.285955,-1.607861 -2.293447,-3.400218 -2.875342,-5.386086 -0.318904,-1.248735 -0.508561,-1.802488 -0.630647,-3.129048 -0.28079,-3.050994 0.351692,-6.053785 1.424013,-8.900893 0.97021,-2.117271 1.200464,-2.781058 2.416248,-4.782504 1.751065,-2.882639 3.924978,-5.485729 6.324828,-7.846925 0.593707,-0.531536 1.167738,-1.085902 1.781121,-1.594606 2.90322,-2.407762 6.221238,-4.260222 9.686673,-5.723577 2.792717,-1.169006 5.625746,-2.336399 8.646864,-2.750607 2.92364,-0.116489 6.11811,-0.399289 8.93756,0.630291 0.36101,0.13183 0.68573,0.347304 1.0286,0.520957 2.45259,0.786429 1.3404,4.254919 -1.11219,3.468487 z"
       inkscape:connector-curvature="0" />
    <path
       style="fill:#ff9600;fill-opacity:1;stroke:none;stroke-width:0.15859464;stroke-opacity:1"
       id="path890"
       d="m 68.504426,25.50254 c -0.999308,3.430687 -3.464123,6.133552 -5.123706,9.23357 -0.314002,0.586546 -0.561944,1.206128 -0.842916,1.809199 -0.16142,0.593034 -0.384805,1.172601 -0.484255,1.779132 -0.344304,2.099776 0.08395,4.251668 0.423168,6.315508 0.44534,2.70951 0.447766,2.643486 0.955066,5.380037 0.885761,4.159857 1.397864,8.470683 2.894579,12.478067 0.233424,0.62499 0.532304,1.223541 0.798457,1.835305 2.231514,4.241661 6.374095,6.736798 10.263221,9.273298 2.527888,1.635475 5.075825,3.236233 7.542023,4.964677 1.300533,0.91149 2.562143,1.738055 3.640653,2.915445 0.370958,0.404956 0.642929,0.890525 0.96441,1.335779 0.09464,0.471805 0.189266,0.943622 0.283899,1.415426 1.661685,1.291118 -0.164236,3.641095 -1.825911,2.349977 v 0 c -0.580669,0.114056 -1.161326,0.228122 -1.741995,0.342183 -0.652657,-0.09159 -1.31856,-0.115159 -1.957994,-0.274797 C 82.57409,86.226204 81.140897,85.484393 79.585521,84.646872 76.746047,83.117909 74.060575,81.327407 71.547435,79.305912 70.739409,78.60199 69.907056,77.925045 69.12336,77.194144 65.862749,74.153157 63.010524,70.658524 60.815607,66.774795 59.814637,64.768747 59.486491,64.24464 58.699678,62.117695 57.36436,58.508034 56.526059,54.723332 55.9783,50.920994 55.392429,45.406499 54.983587,39.759119 56.911861,34.441775 c 0.344953,-0.776433 0.646756,-1.573498 1.034861,-2.329281 1.74834,-3.404661 4.305112,-6.479431 7.527363,-8.562047 1.380336,-2.142772 4.410676,-0.190679 3.030341,1.952093 z"
       inkscape:connector-curvature="0" />
    <path
       style="fill:#ff9600;fill-opacity:1;stroke:none;stroke-width:0.15859464;stroke-opacity:1"
       id="path892"
       d="m 91.805071,68.107862 c -0.492235,2.663232 -0.831502,5.313777 -0.05386,7.969666 0.203215,0.69409 0.515561,1.351464 0.773342,2.027204 1.830153,3.673479 4.604119,6.850543 7.946447,9.237186 0.68112,0.486378 1.4138,0.896155 2.12072,1.344232 0.7507,0.394345 1.4793,0.833954 2.25208,1.183052 1.99321,0.900454 3.15088,1.13557 5.23832,1.829929 2.72399,0.906098 5.4294,1.881568 8.12876,2.858113 2.71551,0.958213 5.44234,1.977882 8.31868,2.326346 1.31946,0.159832 2.03273,0.13609 3.35128,0.15539 -0.13407,1.44e-4 -0.53626,0.0019 -0.4022,0 2.07734,-0.02367 4.19113,-0.133044 6.25098,0.176389 0.0884,0.03353 0.84093,0.213802 0.86347,0.516591 0.0146,0.195848 -0.21413,0.359994 -0.19611,0.555557 0.0689,0.747266 0.30048,1.470489 0.45071,2.205743 -0.83555,-1.200539 0.86228,-2.382147 1.69781,-1.181619 v 0 c 0.2545,0.853229 0.67643,1.673549 0.7635,2.559639 0.0361,0.36732 -1.01641,1.31164 -1.30711,1.51353 -3.22216,1.35077 -6.87328,1.3999 -10.29965,1.45533 -4.75868,-0.15783 -9.45587,-0.98111 -14.04887,-2.23404 -2.97674,-0.86675 -5.96663,-1.76103 -8.78907,-3.067351 -2.88308,-1.334384 -5.552239,-3.093483 -8.177538,-4.865112 -0.79973,-0.644672 -1.62315,-1.261002 -2.399197,-1.933997 -4.054194,-3.515742 -7.407464,-7.777943 -9.118747,-12.914473 -0.223023,-1.03759 -0.533259,-2.060192 -0.669069,-3.112736 -0.43989,-3.409184 0.111935,-7.073892 2.224756,-9.868742 0.311005,-0.411395 0.716017,-0.742414 1.074003,-1.113621 1.681043,-2.83307 5.687608,-0.455721 4.006565,2.37735 z"
       inkscape:connector-curvature="0" />
    <path
       style="fill:#ff9600;fill-opacity:1;stroke:none;stroke-width:0.15859464;stroke-opacity:1"
       id="path894"
       d="m 138.81418,89.106028 c 0.53108,-4.6e-5 1.0632,-0.0335 1.59323,-1.41e-4 2.6152,0.164684 5.21745,0.641927 7.8284,0.868465 3.21265,0.278745 3.58131,0.231769 6.87138,0.303423 1.22243,-0.0256 2.44487,-0.05119 3.66729,-0.07679 0.26625,-0.06944 0.526,-0.17209 0.79878,-0.208314 4.00114,-0.531292 2.86968,-0.09711 6.74859,-0.945145 2.69789,-0.589829 3.26443,-0.872967 5.81828,-1.768424 4.71105,-1.783001 8.57272,-5.045673 12.68634,-7.844377 1.44736,-0.929793 2.95048,-1.80687 4.58892,-2.35846 0.27608,-0.09296 0.55931,-0.169997 0.8472,-0.21458 0.13076,-0.02024 0.39017,-0.110123 0.3964,0.02206 0.0131,0.277731 -0.23999,0.501618 -0.35996,0.752437 -3.96334,1.472027 0.49075,2.192777 0.21215,3.237884 -0.0368,0.138008 -0.24848,-0.146003 -0.35168,-0.244744 -0.59957,-0.573701 -0.88904,-1.250186 -1.1743,-2.010171 -0.044,-0.254434 -0.0996,-0.507138 -0.13209,-0.7633 0.13634,0.875267 -0.11388,-0.895108 -0.003,-0.692314 0.0664,0.122308 -0.0443,0.379693 0.0921,0.407304 5.69361,1.152761 5.73128,2.639332 5.6332,0.645132 0.58603,-0.165083 -0.23255,-2.16753 -0.009,-2.454665 0.18042,-0.23074 2.16107,-0.264568 2.34812,-0.277431 1.08423,-0.237178 2.23502,-0.05983 3.31578,-0.313763 0.0938,-0.02205 -0.28689,-0.189361 -0.19385,-0.21434 0.63101,-0.169333 1.29797,-0.153409 1.94334,-0.255164 1.78094,-0.280775 1.8315,-0.33649 3.51494,-0.776193 0.98202,-0.362278 2.13273,-0.702193 2.7082,-1.671191 0.53072,-0.893649 0.4443,-2.150337 0.48343,-3.130467 -0.0358,-3.846063 0.42153,-7.653905 1.06497,-11.43745 0.73796,-3.767114 1.45335,-7.538573 1.84477,-11.359578 0.20372,-2.182849 0.0395,-0.310021 0.15696,-1.887434 0.003,-0.05594 -0.0266,-0.200987 0.0182,-0.167285 0.0733,0.05509 0.0584,0.17466 0.10036,0.256303 0.20241,0.394902 0.24114,0.409222 0.51032,0.74197 0.0612,0.06063 0.12445,0.119211 0.18356,0.181876 0.56036,0.594031 1.45333,0.285644 1.94534,-0.151013 0.25781,-0.228805 0.84699,-0.35178 0.77185,-0.688191 -0.23162,-1.036892 -1.03194,-1.857475 -1.54792,-2.786206 0.85387,0.477513 0.17857,1.685084 -0.67531,1.207555 v 0 c -0.64137,-0.9686 -1.60148,-1.789803 -1.92411,-2.905801 -0.10618,-0.367401 0.55842,-0.525489 0.86679,-0.75166 1.12038,-0.821759 2.87956,-0.27762 4.07686,0.128493 0.32916,0.20668 0.68558,0.37525 0.98743,0.620073 1.92317,1.559779 2.53413,4.011049 2.77516,6.361628 0.065,1.678898 0.13646,2.321857 0,4.04264 -0.23203,2.911766 -0.97273,5.747327 -1.69652,8.565982 -0.34682,1.46949 -0.52275,2.101474 -0.76806,3.577974 -0.39138,2.355591 -0.44051,4.743565 -0.62,7.119868 -0.56354,4.081132 -1.36745,7.354509 -4.72594,10.111028 -0.64795,0.531798 -1.39103,0.935739 -2.08657,1.403609 -0.79508,0.341946 -1.56503,0.749582 -2.38526,1.025822 -1.58499,0.533813 -3.51087,0.873936 -5.18399,0.91536 -2.91944,0.07227 -5.65491,-0.02304 -8.42367,-0.927319 -2.14656,-0.824184 -4.65334,-1.886356 -5.05632,-4.485405 -0.0723,-0.466521 0.0684,-0.941718 0.10256,-1.412585 0.66367,-2.302256 0.13372,-1.040588 5.98626,-0.116778 0.004,0 0.11976,0.556746 0.17928,0.737196 0.002,0.0065 0,-0.01364 0,-0.02048 -0.0135,-0.06095 -0.0272,-0.12188 -0.0407,-0.182828 -0.0576,-0.120454 -0.25313,-0.46473 -0.21796,-0.335952 1.18983,4.357087 0.56525,-4.927835 0.80957,3.900715 -0.15817,0.302044 -0.61109,1.211457 -0.87569,1.603898 -0.95798,1.420723 -2.39339,2.442613 -3.6316,3.594247 -4.20065,3.67773 -8.318,7.535354 -13.20176,10.307731 -2.93626,1.492456 -3.7722,2.052706 -6.9619,3.104713 -6.30519,2.079495 -12.97433,2.393925 -19.54252,1.610155 -1.32528,-0.22629 -2.66092,-0.39862 -3.97586,-0.678888 -3.74298,-0.797795 -7.89222,-2.117619 -11.03044,-4.399479 -0.39456,-0.286881 -0.72437,-0.6536 -1.08657,-0.980399 -3.8614,-2.408624 -0.45508,-7.869483 3.40633,-5.460842 z"
       inkscape:connector-curvature="0" />
    <path
       style="fill:#ff9600;fill-opacity:1;stroke:none;stroke-width:0.15859464;stroke-opacity:1"
       id="path896"
       d="m 203.82477,37.780397 c 2.24372,-2.285094 5.28129,-3.495932 8.07937,-4.940301 2.74679,-1.4179 2.54754,-1.334273 5.19262,-2.810535 1.89252,-1.272104 4.65661,-2.609327 5.14173,-5.128919 0.21085,-1.095113 -0.0949,-1.903977 -0.32542,-2.975188 -1.53639,-4.646188 -2.68675,-9.433669 -2.90646,-14.33957 -0.0468,-1.0462172 -0.004,-2.0945118 -0.008,-3.1417756 0.14556,-2.2694416 0.37701,-4.56495594 1.06583,-6.7451883 0.20212,-0.6398183 0.50814,-1.5958424 1.12089,-1.9827344 14.0558,-0.687872 5.22155,2.4966603 3.87477,1.9265442 -0.41491,-0.1756434 -0.72488,-0.5353361 -1.08731,-0.8029963 -0.50015,0.2580811 -0.86513,-0.4492509 -0.36497,-0.7073319 v 0 c -0.26631,-0.29405 -0.48908,-0.634394 -0.79892,-0.882166 -0.29003,-0.231914 -0.73111,-0.204048 -1.01978,-0.44857 1.92551,0.478369 3.85105,0.956722 5.77657,1.4350754 0.65357,1.0369868 0.78363,2.2259865 0.94274,3.42370922 0.22306,1.67897798 0.31021,2.68993928 0.48501,4.41701898 0.26344,2.8956367 0.51617,5.7920988 0.81508,8.6843867 0.14813,1.433426 0.48491,4.370075 0.59317,5.818964 0.0712,0.952757 0.1008,1.908164 0.15127,2.862237 -0.041,2.299685 0.0666,3.515235 -0.49413,5.773685 -1.04318,4.200806 -3.73255,7.429192 -7.23379,9.862191 -1.0133,0.57573 -1.99091,1.219356 -3.03987,1.727207 -3.54273,1.715202 -8.13498,3.063905 -12.10412,3.003956 -0.64226,-0.0097 -1.27762,-0.134377 -1.91643,-0.201573 -2.70689,1.372414 -4.64779,-2.455727 -1.94088,-3.828126 z"
       inkscape:connector-curvature="0" />
    <path
       style="fill:#ff9600;fill-opacity:1;stroke:none;stroke-width:0.15859464;stroke-opacity:1"
       id="path898"
       d="m 208.26754,-44.648252 c 0.57855,0.387868 1.19051,0.729991 1.7356,1.163602 3.58276,2.850034 6.45251,6.735557 8.77098,10.645031 0.66563,1.122396 1.23511,2.299094 1.85264,3.448642 2.03698,4.254687 3.23549,8.810009 3.03353,13.549685 -0.11388,2.673389 -0.39497,3.29946 -1.01394,5.8737063 -1.40345,4.3422994 -3.95497,8.1671573 -7.33631,11.2225782 -0.54749,0.4947359 -1.14141,0.935518 -1.71213,1.4032769 -1.47115,0.9495694 -3.27887,2.0829977 -5.15319,1.680104 -0.58372,-0.1254801 -1.07784,-0.5139736 -1.61675,-0.7709602 -1.344,0.4506466 -1.98133,-1.4500625 -0.63732,-1.900709 v 0 c 0.005,-0.3038991 -0.0396,-0.6129048 0.0163,-0.91166542 0.20522,-1.09783956 1.2892,-1.87285998 1.94585,-2.66431068 2.74323,-2.8551634 5.56991,-5.7682544 6.92947,-9.5728321 0.42526,-1.782691 0.62116,-2.073019 0.54232,-3.953565 -0.15327,-3.65638 -1.96423,-6.922709 -3.63245,-10.079307 -2.33198,-4.143668 -1.15309,-2.062986 -3.53712,-6.241797 -1.47971,-2.620836 -3.02788,-5.26032 -4.1521,-8.061642 -0.21654,-0.539537 -0.36446,-1.104129 -0.54668,-1.656194 -2.24409,-3.189964 2.26719,-6.363605 4.51128,-3.173643 z"
       inkscape:connector-curvature="0" />
    <path
       style="fill:#ff9600;fill-opacity:1;stroke:none;stroke-width:0.15859464;stroke-opacity:1"
       id="path900"
       d="m 104.6748,-67.352122 c 0.26577,-0.503277 0.46596,-1.047099 0.79731,-1.509833 2.3188,-3.238141 6.18773,-5.316017 9.7753,-6.798215 1.17761,-0.48653 2.39794,-0.862517 3.5969,-1.293775 4.97635,-1.576464 10.15703,-2.273787 15.36271,-2.407077 3.42038,-0.08758 5.72616,0.08914 9.32794,0.239621 3.70787,0.380902 7.40216,1.150905 10.74056,2.870074 1.92577,0.991706 2.37649,1.454842 4.0727,2.754339 2.91508,2.609805 5.15286,5.867145 6.0922,9.701897 0.17282,0.705509 0.24738,1.431519 0.37106,2.147277 0.18509,1.761216 0.10993,3.526384 -0.19046,5.268922 -0.0721,0.418642 -0.20347,1.487507 -0.56036,1.860295 -0.74185,-1.848201 -1.50053,-2.155193 -3.87712,-2.055744 -0.82379,0.03447 -0.52208,1.100693 -0.28422,1.352843 0.27938,0.29617 0.68443,0.441187 1.02665,0.661778 0.44246,-1.121839 2.02898,-0.496087 1.58651,0.625755 v 0 c 0.28986,0.329786 0.69722,0.585534 0.86954,0.989358 0.13327,0.312358 0.13242,0.711684 -0.0128,1.018735 -0.79068,1.673347 -2.83768,0.998027 -4.21934,0.451542 -0.53006,-0.209649 -0.78706,-0.832267 -1.10324,-1.306546 -0.20883,-0.313262 -0.30432,-0.688741 -0.45649,-1.03311 -0.62384,-2.164156 -0.61938,-4.391643 -0.85624,-6.619546 -0.57244,-3.009392 -1.42191,-5.335796 -3.9482,-7.265864 -0.43474,-0.262658 -0.8492,-0.562214 -1.3042,-0.787973 -3.25256,-1.613899 -7.04223,-1.330924 -10.55549,-1.3308 -1.75019,0.233056 0.46125,-0.04147 -3.71404,0.159436 -4.56492,0.219662 -9.11953,0.749028 -13.61504,1.566558 -3.08271,0.687368 -3.26893,0.677426 -6.25039,1.539478 -2.39471,0.692402 -4.73783,1.608943 -7.15274,2.228691 -0.50614,0.129894 -1.02567,0.200591 -1.53851,0.300886 -2.35396,2.81472 -6.33458,-0.514281 -3.98061,-3.329002 z"
       inkscape:connector-curvature="0" />
    <path
       style="fill:#ff9600;fill-opacity:1;stroke:none;stroke-width:0.15859464;stroke-opacity:1"
       id="path902"
       d="m 161.73798,-67.62006 c 0.3704,-0.350728 0.70686,-0.741201 1.11121,-1.052183 3.76201,-2.893402 8.49753,-3.828862 13.05859,-4.584512 3.49707,-0.433987 7.04282,-0.401275 10.55279,-0.133116 1.97073,0.150562 3.91157,0.704484 5.79298,1.270131 3.08972,1.072302 5.61739,3.126617 7.9939,5.305219 2.03941,1.858649 3.98855,3.814949 5.8864,5.81718 1.48721,1.639265 2.77044,3.507909 3.25034,5.703438 0.10278,0.470365 0.13981,0.952735 0.20974,1.429102 0.19459,2.358836 -0.24463,4.681517 -0.75565,6.97081 -0.27076,1.042883 -0.3657,2.104949 -0.3579,3.177705 0.0181,0.908832 0.0677,1.815457 0.0282,2.724077 -0.14929,1.447962 -0.79957,2.702899 -1.77523,3.759179 -0.0744,0.01199 -0.54223,0.617826 -0.60926,0.570019 -0.0493,-0.03518 -0.002,-0.12123 -0.009,-0.181548 0.0123,-0.441869 0.008,-0.14516 -0.003,-0.890251 0.23718,4.25271 -5.77707,4.588135 -6.01424,0.335424 v 0 c -0.021,-0.930924 -0.0502,-0.524031 0.0377,-1.223261 0.2409,-0.888658 0.6529,-1.671767 1.23833,-2.385433 0.15933,-0.186662 0.45622,-0.633945 0.73265,-0.448539 0.14273,-0.552356 -0.042,-1.127087 -0.14242,-1.669982 -0.28595,-1.561677 -0.40947,-3.146194 -0.24215,-4.731313 0.19243,-1.822146 0.51547,-3.623715 0.78011,-5.435819 0.0605,-1.58338 -0.65007,-2.303408 -1.84777,-3.292464 -2.08074,-1.807582 -4.13964,-3.645223 -5.99106,-5.692634 -1.61539,-1.596292 -2.94636,-2.934621 -5.33767,-3.086414 -1.67464,-0.08799 -3.37104,-0.138335 -5.04409,0.02367 -0.0419,0.0041 -0.0214,0.10468 -0.0633,0.109176 -1.67805,0.180481 -3.37672,0.123506 -5.04829,0.387725 -4.7407,0.550044 -9.46749,1.324111 -14.23628,1.564752 -3.06893,2.259648 -6.26457,-2.080486 -3.19564,-4.340134 z"
       inkscape:connector-curvature="0" />
    <path
       style="fill:#ff9600;fill-opacity:1;stroke:none;stroke-width:0.15859464;stroke-opacity:1"
       id="path904"
       d="m 136.32539,99.408876 c 2.57867,-2.08671 5.85224,-3.101477 9.05144,-3.781387 0.39259,-0.04461 1.54204,-0.271467 2.02583,-0.03611 0.20662,0.100524 0.30442,0.344229 0.45665,0.516353 1.95438,-1.526871 4.11372,1.237068 2.15931,2.76394 v 0 c -0.0204,0.264313 0.0364,0.546563 -0.0617,0.792972 -0.21743,0.547726 -1.02176,0.963826 -1.42785,1.239616 -3.11231,1.6188 -6.54995,2.81479 -10.10297,2.66105 -2.93906,1.48549 -5.03986,-2.67095 -2.10083,-4.156432 z"
       inkscape:connector-curvature="0" />
    <path
       style="fill:#ff9600;fill-opacity:1;stroke:none;stroke-width:0.15859464;stroke-opacity:1"
       id="path906"
       d="m 221.88711,0.41686758 c -1.64156,-2.02741058 -2.48891,-4.61040988 -2.43502,-7.21922988 0.009,-0.42776 0.082,-0.851768 0.12295,-1.277653 0.38515,0.60234 0.0314,-1.6043291 0.48835,-1.4087831 0.26545,0.1136043 0.13712,0.6785969 0.41388,0.7609499 0.98157,0.2920922 2.04012,0.1818982 3.06018,0.2728482 -0.92075,1.140776 -2.53405,-0.161354 -1.6133,-1.3021294 v 0 c 1.26078,-0.138925 2.52513,-0.5851273 3.78231,-0.4167753 0.16055,0.0215 0.7661,1.5734707 0.88462,1.8699947 0.55195,2.236874 0.93101,4.5479626 0.7885,6.8577823 1.31733,3.8837605 -4.17512,5.7467558 -5.49247,1.86299558 z"
       inkscape:connector-curvature="0" />
    <path
       style="fill:#ff9600;fill-opacity:1;stroke:none;stroke-width:0.45327339;stroke-opacity:1"
       d="m 102.71326,-70.836708 c -6.314338,-0.1608 -11.133069,4.653172 -15.972588,8.021698 -5.729771,4.496372 -8.95992,11.526207 -10.823677,18.407151 -0.965771,3.348511 1.753155,6.245603 2.202626,9.333712 -2.977365,4.934496 -7.973531,8.33526 -11.771506,12.638674 -6.022771,5.612558 -6.842199,14.4197977 -7.36972,22.14800572 -0.574883,6.72714028 1.083614,13.79803328 5.89294,18.75141928 2.220421,2.716314 5.309502,5.011368 6.313734,8.440835 1.302465,1.470901 -1.825599,1.110352 -2.672719,1.235879 -3.142173,0.253133 -3.931227,4.140097 -5.533123,6.276779 -3.145486,5.849795 -0.345631,12.565105 0.402811,18.653266 1.26272,5.669315 2.012504,12.24127 7.055837,15.959284 4.157681,3.583778 8.725332,6.773132 13.528262,9.387723 2.121427,-0.61043 0.603609,-3.438949 1.072102,-5.051524 0.395558,-3.180805 1.79777,-7.074717 5.039127,-8.235058 2.488648,0.581773 0.601686,3.758613 0.812705,5.402098 -0.968158,8.116065 5.265031,15.109564 11.893129,18.834762 7.50111,3.154115 15.18489,6.075887 23.11162,7.948208 3.27227,0.580282 6.7938,0.04428 9.95078,0.870257 0.72395,2.813159 5.16266,-0.509185 2.67272,-2.031773 -1.83975,-1.310419 -5.5501,-3.421235 -3.46153,-6.077568 2.26452,-1.694044 5.33776,0.02983 7.91539,-0.06536 11.53156,1.030325 24.20186,1.754341 34.36381,-4.847097 3.98179,-2.625597 8.12617,-5.105097 11.95957,-7.897839 0.46111,-0.604864 0.099,-1.834448 1.40763,-1.251818 2.12987,0.790467 4.27278,0.44351 6.39894,-0.0027 3.75281,-0.197784 7.71307,-0.879899 10.95471,-2.82411 1.82085,-3.392895 0.94729,-7.597286 1.77501,-11.266326 0.71691,-5.249942 1.66049,-10.989482 2.50716,-15.897319 1.97762,1.525062 5.13471,-2.089341 2.37617,-3.259675 -1.63385,-0.08112 -2.27546,-2.011456 -4.04494,-1.681183 -2.36159,-0.358962 -5.22445,0.939626 -7.21608,-0.529405 -0.86362,-2.180913 2.36313,-3.405819 3.77934,-4.498203 4.97528,-3.057482 10.94784,-5.060374 14.96157,-9.464738 1.34923,-4.355436 -1.22187,-8.766048 -1.78478,-13.081202 -1.15514,-5.4464554 -0.89763,-10.8971148 0.19213,-16.3213684 -0.69105,-2.1609629 -2.6177,0.364371 -3.44118,1.1721253 -2.26055,2.13403368 -4.65844,5.1955284 -7.9969,5.3029604 -0.9498,-0.3499707 -3.78734,-0.5067099 -2.48505,-1.8352411 1.21766,-3.7485588 4.99149,-6.0586635 6.97352,-9.4204655 3.90584,-4.9397297 2.65843,-11.8976887 -0.52412,-16.8524157 -2.244,-3.9447 -4.11059,-8.24048 -7.00802,-11.739223 -1.36621,-0.141617 -2.5427,2.050986 -4.14408,0.814477 -2.11586,-1.479494 -1.02494,-4.289962 0.10178,-5.999677 0.60753,-4.263409 0.52549,-8.597756 0.97914,-12.841271 -1.77435,-3.440287 -5.36251,-5.598728 -7.95353,-8.409459 -2.36701,-2.625537 -5.84432,-3.964462 -9.35868,-3.305182 -7.09846,0.494735 -14.29959,1.197804 -21.23765,2.379251 -0.83219,2.101033 0.0576,5.445394 -0.66715,7.391274 -1.11647,-1.225276 -4.74354,-1.530624 -4.65402,0.686106 0.47,1.687283 2.99179,0.215357 3.15432,2.141539 1.45902,2.325589 -2.74686,2.082786 -3.34907,0.663976 -2.3754,-4.788966 -0.85874,-11.306058 -5.4207,-15.06957 -4.71629,-3.798086 -11.20447,-2.382739 -16.78439,-2.404474 -10.32029,0.340576 -20.41716,2.837852 -30.05415,6.422849 -2.32482,0.237313 -2.63623,-2.790562 -1.15974,-4.060869 2.49125,-2.129113 0.77246,-4.021239 -2.09333,-3.085806 l -0.45306,0.01393 z"
       id="path908"
       inkscape:connector-curvature="0" />
    <path
       style="fill:#ff9600;fill-opacity:1;stroke:none;stroke-width:0.15859464;stroke-opacity:1"
       id="path910"
       d="m 109.0741,-30.765369 c 0.59707,0.248469 1.2096,0.462674 1.79123,0.745405 1.549,0.752954 3.3777,1.88214 4.82,2.775855 2.75964,1.71 5.47198,3.49712 8.19905,5.25821 4.06644,2.607106 8.14993,5.193753 12.043,8.056597 0.97937,0.817102 2.35287,1.595814 2.72608,2.932555 0.11426,0.409115 0.0544,0.847781 0.0817,1.2716736 1.34941,1.3516121 -0.56204,3.2599861 -1.91147,1.9083731 v 0 c -0.44786,0.07257 -0.88995,0.208844 -1.34354,0.217718 -1.37998,0.027 -2.60947,-0.731727 -3.81831,-1.2728842 -4.58211,-2.1198555 -9.27092,-4.0536535 -13.57968,-6.7106015 -4.31331,-2.830628 -8.9301,-6.029532 -11.93158,-10.322808 -0.35797,-0.512036 -0.62108,-1.084227 -0.93162,-1.62634 -2.2866,-2.726032 1.56858,-5.959781 3.8552,-3.233753 z"
       inkscape:connector-curvature="0" />
  </g>
  <g
     inkscape:groupmode="layer"
     id="layer3"
     inkscape:label="lines 4">
    <path
       style="fill:#ff9600;fill-opacity:1;stroke:none;stroke-width:0.14091733;stroke-opacity:1"
       id="path1315"
       d="m 118.79585,104.19983 c -3.7223,3.08978 -7.98256,5.4645 -12.12688,7.93331 -3.06782,1.95661 -6.25512,3.87655 -8.84674,6.46893 -1.41693,1.41736 -1.67207,1.93652 -2.80234,3.56258 -2.06905,3.40692 -3.017802,7.2651 -3.240772,11.21864 -0.04749,0.84204 -0.03354,1.68645 -0.05031,2.52965 0.08761,2.90505 0.156455,5.94123 1.372132,8.6429 0.59533,1.32301 0.96313,1.64402 1.8581,2.77859 1.99036,2.29519 -1.25552,5.10998 -3.245876,2.8148 v 0 c -1.94872,-1.34349 -2.586797,-1.53317 -3.988892,-3.51466 -2.24759,-3.17638 -2.748101,-7.13227 -2.801682,-10.91112 0.113808,-2.56612 0.06265,-3.42417 0.531072,-5.95703 0.693126,-3.74787 2.102721,-7.32692 3.984298,-10.63071 1.402035,-2.14271 1.609989,-2.62265 3.310244,-4.56408 2.724896,-3.11141 6.046786,-5.572 9.605646,-7.65065 0.9415,-0.52857 1.8661,-1.08846 2.82451,-1.58573 3.71618,-1.92819 7.7122,-3.54212 11.90176,-3.98731 2.01659,-1.2132 3.73231,1.63868 1.71573,2.85189 z"
       inkscape:connector-curvature="0" />
    <path
       style="fill:#ffef00;fill-opacity:1;stroke:none;stroke-width:0.14091733;stroke-opacity:1"
       id="path1321"
       d="m 101.85574,89.316384 c -0.55196,0.269228 -1.21136,0.178 -1.77026,0.411822 -0.0571,0.0239 0.12122,0.149206 0.0645,0.174245 -0.32936,0.145558 -0.70369,0.156359 -1.04838,0.260546 -1.08853,0.329015 -1.30171,0.4792 -2.36532,0.977975 -3.11923,1.649257 -6.117658,3.519874 -9.032304,5.505637 -2.204271,1.52658 -4.176697,3.324238 -5.852445,5.413141 -1.101353,1.42142 -1.6439,2.80347 -1.805489,4.57965 0.03354,1.85868 0.356069,3.69805 0.518337,5.54922 0.174232,2.16701 0.06476,4.34066 -0.136568,6.50099 -0.150426,0.97587 -0.178948,1.98752 -0.428953,2.94727 -0.120697,-0.40935 0.484375,0.31666 0.546408,0.38814 0.573903,0.7663 0.749922,1.65766 0.769362,2.59286 -0.05594,0.7942 -0.06961,1.58578 -0.03988,2.38094 0.06628,1.07983 0.100086,2.16072 0.105359,3.24249 -0.0032,1.07212 -0.04031,2.14329 -0.02207,3.21547 0.146141,1.63217 -0.273232,3.1879 -0.79081,4.71678 -0.608205,1.51358 -1.082208,3.05787 -1.364076,4.66345 -0.210742,1.89227 -0.694119,3.71886 -1.327998,5.50856 -0.361413,0.99406 -0.79874,1.98322 -0.8542,3.05461 -0.02695,0.52053 0.02939,1.07358 0.0655,1.58988 0.339804,2.48049 0.278593,4.97555 0.168273,7.46825 -0.06621,1.57024 -0.302484,3.15812 -0.0511,4.72499 0.12455,0.77629 0.255585,1.05471 0.509052,1.7902 0.615592,1.53063 1.391113,2.98608 1.96472,4.53421 0.299394,1.05337 0.745964,1.66003 1.656601,2.24479 1.238231,0.73544 2.700771,0.94357 3.994133,1.5476 0.311856,0.14564 0.599664,0.33803 0.899496,0.50705 0.234537,0.34081 0.469075,0.68161 0.703612,1.02242 1.084621,0.38332 0.542518,1.9172 -0.542103,1.53389 v 0 c -0.525512,0.26053 -1.051025,0.52107 -1.576538,0.78159 -0.491961,0.0264 -0.984256,0.11149 -1.475882,0.0794 -2.102845,-0.13728 -3.937076,-1.34081 -5.362617,-2.80667 -0.51221,-0.6298 -0.616183,-0.70879 -1.018798,-1.37986 -0.404144,-0.67359 -0.666457,-1.41822 -1.057947,-2.09838 -0.891844,-1.54609 -1.900388,-3.03297 -2.561013,-4.70161 -0.393747,-1.12414 -0.529257,-1.3824 -0.758776,-2.56769 -0.34912,-1.80296 -0.30434,-3.64289 -0.185409,-5.46594 0.190366,-2.36589 0.468668,-4.73016 0.404775,-7.10823 0.0074,-2.04172 0.157687,-4.06861 0.966131,-5.97392 0.57501,-1.58267 1.160795,-3.16388 1.3239,-4.85526 0.289275,-1.84839 0.680629,-3.67577 1.505176,-5.37167 0.497658,-1.11145 1.080635,-2.2009 1.02723,-3.45605 0.02968,-1.05274 0.01287,-2.10487 -0.01402,-3.15756 -0.0231,-1.11523 -0.04673,-2.23193 0.02091,-3.34621 0.05629,-0.8024 0.149365,-1.6006 0.274726,-2.39519 0.03098,-0.22868 0.104156,-0.49171 -0.04218,-0.69497 -0.437738,-0.52638 -0.921523,-1.0133 -1.103213,-1.70197 -0.325875,-1.15921 -0.443825,-2.35715 -0.492004,-3.5586 -0.0683,-2.06072 -0.02221,-4.12146 -0.02689,-6.18284 -0.05441,-2.01765 -0.312867,-4.02058 -0.324834,-6.03903 0.02629,-0.36453 0.03521,-0.73073 0.07887,-1.09359 0.232207,-1.92955 0.953956,-3.7449 1.947784,-5.404493 1.624642,-2.637419 3.545527,-5.076951 5.954334,-7.051065 1.402608,-1.095707 1.698487,-1.381306 3.217423,-2.344336 2.184812,-1.385207 4.531077,-2.501318 6.919285,-3.485133 2.57273,-0.933268 5.47601,-1.936794 8.23221,-1.110959 0.26505,0.07941 0.50593,0.22419 0.7589,0.336283 2.1969,0.82377 1.03192,3.930664 -1.16499,3.106896 z"
       inkscape:connector-curvature="0" />
    <path
       style="fill:#ffef00;fill-opacity:1;stroke:none;stroke-width:0.14091733;stroke-opacity:1"
       id="path1323"
       d="m 85.936284,177.25578 c 0.141251,1.71878 -0.39659,3.4018 -0.791414,5.05633 -0.488865,2.26794 -0.715986,4.5853 -0.92341,6.89322 -0.168734,3.22834 -0.248198,6.463 -0.308913,9.69532 0.07747,2.62831 0.798555,3.41146 2.657438,5.07023 1.792444,1.49427 3.483125,3.09351 5.016696,4.85235 0.576898,0.64141 1.053344,1.35978 1.543679,2.06632 0.12273,0.17681 0.27717,0.49008 0.50679,0.57138 0.76005,-0.0307 1.49156,0.44856 2.14063,0.78723 1.20698,0.71236 2.417,0.87293 3.79254,0.89892 1.63261,-0.0538 2.97647,-0.12109 4.67642,-0.10194 1.13215,-0.0278 2.2322,0.16264 3.3071,0.49656 0.83025,0.23949 0.38337,0.13006 1.34434,0.31278 0.64667,-0.39628 1.20712,0.51826 0.56045,0.91454 v 0 c -0.51954,0.75564 -0.24311,0.39882 -0.82593,1.07307 -0.15947,0.11378 -0.30831,0.2442 -0.47841,0.34137 -0.79895,0.45644 -1.78527,0.50004 -2.65971,0.70204 -2.46463,0.40496 -4.99692,0.60373 -7.46813,0.1306 -1.63825,-0.42574 -3.20789,-1.0022 -4.50762,-2.12715 -0.11065,-0.0824 -0.32673,-0.25771 -0.47322,-0.32713 -0.412565,-0.19551 -0.932927,-0.12334 -1.327998,-0.37856 -1.401153,-0.67 -2.584056,-1.6517 -3.65113,-2.7767 -1.627778,-1.60288 -3.30175,-3.15365 -4.965882,-4.71834 -0.713716,-0.76468 -1.131191,-1.1574 -1.732708,-2.02821 -1.161585,-1.68159 -1.84969,-3.5942 -2.099795,-5.61869 -0.04688,-0.55216 -0.113749,-1.10297 -0.140641,-1.65647 -0.142311,-2.92905 0.241558,-5.8543 0.803351,-8.72273 0.496349,-2.36994 1.136614,-4.69554 1.781175,-7.028 0.385797,-1.64764 0.662924,-3.38067 1.538522,-4.85374 0.336147,-1.89913 3.021927,-1.42375 2.68578,0.47539 z"
       inkscape:connector-curvature="0" />
    <path
       style="fill:#ffef00;fill-opacity:1;stroke:none;stroke-width:0.14091733;stroke-opacity:1"
       id="path1325"
       d="m 108.00821,208.53947 c 0.93898,1.10181 1.56623,2.46438 2.76107,3.34499 0.3106,0.22892 0.66327,0.39444 0.99491,0.59168 2.7891,1.51471 5.90763,2.26269 8.90751,3.24134 2.24965,0.76685 4.45953,1.66769 6.54685,2.80954 0.98047,0.53637 1.5906,0.93389 2.52905,1.51855 1.67979,1.11768 3.41783,2.12427 5.30526,2.84272 0.86986,0.29474 1.77475,0.4322 2.69252,0.38095 0.25544,-0.0143 0.51906,0 0.76399,-0.0733 0.0991,-0.0299 -0.20231,-0.0438 -0.30346,-0.0656 2.60755,-0.30557 5.23173,-0.3122 7.85197,-0.22979 2.12075,0.0672 4.26755,0.10796 6.16476,0.0193 2.00633,-0.0702 3.38743,-0.7919 5.05488,-1.79616 0.8791,-0.64655 1.93267,-1.02737 2.81617,-1.66181 0.0426,-0.0471 0.092,-0.0888 0.12786,-0.14126 0.24655,-0.36144 0.38556,-0.83937 0.57954,-1.22562 0.38331,-0.76329 0.41928,-0.7838 0.89175,-1.55975 1.21995,-1.86237 2.90434,-3.28844 4.76677,-4.46973 0.19022,-0.0322 0.99455,-0.71081 1.21906,-0.666 0.0431,0.009 0.016,0.088 0.01,0.13148 0.003,-0.0392 0.004,0.10761 0.002,0.0807 -0.0266,-0.43923 0.0419,-0.84419 0.15008,-1.26832 0.28963,-0.71782 0.82649,-1.40862 1.5619,-1.71911 0.17349,-0.0732 0.36231,-0.1029 0.54345,-0.1543 0.23946,0.005 0.47892,0.01 0.71839,0.0148 1.53443,-1.12176 3.12085,1.04827 1.5864,2.17004 v 0 c -0.0524,0.14675 -0.10471,0.29352 -0.15712,0.44027 -0.0777,0.0959 -0.80408,0.94961 -0.64636,0.29772 0.0153,-0.11893 0.0122,-0.23975 0.0279,-0.35863 0.009,-0.0667 0.0515,0.12577 0.0609,0.19237 0.0584,0.41352 0.0421,0.40504 0.0395,0.83571 -0.20506,1.28085 -0.74999,2.27177 -1.64953,3.21117 -1.30772,1.35008 -2.78118,2.52126 -4.13915,3.81964 -0.8774,0.84363 -1.74156,1.69572 -2.37927,2.74291 -0.80392,1.07051 -1.71459,2.04374 -2.80144,2.83719 -2.01775,1.5125 -4.2095,2.76168 -6.7334,3.18146 -0.46368,0.0539 -0.92481,0.13851 -1.39104,0.16177 -2.63121,0.13123 -5.25944,-0.036 -7.88078,-0.24797 -0.74409,-0.0474 -1.49238,-0.0405 -2.23345,-0.12258 -0.0578,-0.006 0.22447,-0.0479 0.16647,-0.0525 -1.02213,-0.0804 -2.05692,0.0232 -3.08014,-0.0123 -0.7025,-0.006 -1.40544,0.007 -2.10751,-0.0182 -1.55676,-0.0563 -3.10996,-0.39697 -4.59868,-0.8304 -2.12399,-0.72288 -4.14111,-1.68741 -6.1324,-2.71774 -2.87323,-1.31631 -5.85285,-2.3593 -8.84563,-3.36902 -3.42002,-1.2605 -6.92855,-2.56926 -9.67526,-5.04881 -1.44587,-1.71311 -3.02999,-3.62061 -2.95036,-6.01359 0.01,-0.27306 0.0981,-0.53754 0.14723,-0.80629 -0.16791,-1.92107 2.54888,-2.15854 2.71679,-0.23747 z"
       inkscape:connector-curvature="0" />
    <path
       style="fill:#ffef00;fill-opacity:1;stroke:none;stroke-width:0.14091733;stroke-opacity:1"
       id="path1327"
       d="m 165.18043,206.97429 c 0.36123,-0.0984 0.71627,-0.22325 1.08368,-0.29514 2.62935,-0.51451 5.63039,-0.29874 8.30301,-0.21226 2.23903,0.24141 4.42119,-0.2247 6.57305,-0.79537 2.70016,-0.82569 5.3908,-1.68995 8.04549,-2.65294 1.31574,-0.50599 2.6841,-1.0389 3.77565,-1.96299 0.49263,-0.41705 0.71755,-0.75567 1.10953,-1.2565 0.86996,-1.22163 1.07462,-2.22166 0.98809,-3.68231 -0.27055,-1.62536 -0.26578,-3.23236 -0.0141,-4.85642 0.3039,-1.47393 0.62166,-2.94246 0.86042,-4.42885 0.15727,-0.56058 0.11511,-1.80988 0.71021,-2.1292 0.15701,-0.0843 0.34021,-0.1061 0.51032,-0.1592 0.27715,-0.0209 0.55427,-0.0417 0.83141,-0.0625 0.0251,-0.47385 0.69524,-0.43838 0.67016,0.0355 v 0 c 0.27271,0.0493 0.54543,0.0986 0.81813,0.14793 0.16282,0.0647 0.33871,0.10311 0.48842,0.19404 0.62658,0.38071 0.42366,1.78313 0.46934,2.3759 -0.10215,1.63111 -0.38977,3.22633 -0.94802,4.76777 -0.12989,0.47352 -0.19575,0.63843 -0.24875,1.12555 -0.10034,0.922 0.063,1.8414 0.12494,2.75917 0.14903,2.20424 -0.0389,4.22508 -1.13229,6.20164 -0.23033,0.36431 -0.43855,0.74359 -0.69098,1.09294 -1.3747,1.90234 -3.24759,3.34091 -5.31565,4.41775 -2.75498,1.27026 -5.6248,2.23238 -8.55458,3.01857 -1.06963,0.28007 -1.90702,0.52122 -2.99711,0.71855 -2.51663,0.45555 -5.06933,0.4451 -7.618,0.40634 -2.61634,-0.12308 -5.47965,-0.24043 -7.94225,-1.22356 -0.27859,-0.11122 -0.5366,-0.26834 -0.80489,-0.4025 -2.22164,-0.63978 -1.31684,-3.78163 0.90478,-3.14186 z"
       inkscape:connector-curvature="0" />
    <path
       style="fill:#ffef00;fill-opacity:1;stroke:none;stroke-width:0.14091733;stroke-opacity:1"
       id="path1329"
       d="m 187.99956,182.24851 c 0.24865,-0.20545 0.47888,-0.43547 0.74592,-0.61635 1.35587,-0.91847 2.92019,-1.57016 4.39027,-2.27363 2.16355,-1.03529 1.25018,-0.58934 3.35035,-1.64219 1.69448,-0.95873 3.80926,-2.01246 4.45741,-4.01869 0.0885,-0.27414 0.11427,-0.56472 0.17142,-0.84708 0.15448,-1.36876 -0.0407,-2.74188 -0.10577,-4.10959 -0.0554,-1.16242 -0.0341,-1.10236 0.002,-2.27359 0.10172,-1.97197 0.69882,-3.85917 1.17948,-5.75973 0.42312,-1.60915 0.37881,-3.27761 0.36932,-4.92633 -0.011,-0.18698 -0.0142,-0.37458 -0.0328,-0.56093 -0.01,-0.0981 -0.0747,-0.38524 -0.0723,-0.28671 0.002,0.0773 0.11205,0.22392 0.0349,0.2293 -0.0767,0.005 -0.14283,-0.0572 -0.21424,-0.0858 -1.43463,-0.90989 -1.92296,-2.44678 -2.1455,-4.04114 -0.18109,-1.0125 0.0135,-1.93545 0.39044,-2.8646 0.0805,-0.14061 0.22645,-0.58318 0.24172,-0.42184 0.0328,0.34695 -0.25109,0.64018 -0.29505,0.57325 -0.13219,-0.20122 -0.10699,-0.60468 -0.12268,-0.82762 0.009,-0.35849 0.52594,-0.1013 0.71039,-0.14565 0.22798,-0.0549 0.41889,-0.21087 0.62833,-0.3163 -0.77443,-0.56475 0.0243,-1.65998 0.79869,-1.09521 v 0 c 0.36807,-0.0286 0.74204,-0.15757 1.10419,-0.0858 0.50197,0.0994 0.98504,0.5371 1.19046,0.99846 0.0753,0.16913 0.0709,0.36342 0.10641,0.54513 -0.007,0.48519 -0.0338,0.98669 -0.17126,1.45616 -0.0767,0.26179 -0.21769,0.50624 -0.26123,0.77551 -0.0208,0.12862 0.12732,-0.22735 0.19099,-0.34103 0.0347,-0.0754 0.047,-0.16602 0.10407,-0.22636 0.0665,-0.0702 0.11087,0.16431 0.13064,0.25895 0.0904,0.4329 0.084,0.87832 0.10013,1.31768 0.002,0.0589 0.0427,0.94405 -0.0297,0.98419 -0.0412,0.0229 -0.0817,-0.0471 -0.12276,-0.0703 -0.0266,-0.015 -0.0886,-0.015 -0.0803,-0.0445 0.009,-0.0288 0.0587,0.0111 0.0881,0.0167 1.67573,0.86117 2.37517,2.1223 2.72886,3.93882 0.27941,2.14669 0.17599,4.29938 -0.46703,6.38065 -0.4537,1.50001 -0.98109,3.00595 -0.90428,4.59698 0.13761,2.45804 0.69709,4.90657 0.2896,7.3751 -0.31181,1.40804 -0.33999,1.90718 -0.97496,3.23389 -1.13777,2.37719 -3.09094,4.1334 -5.28205,5.52867 -0.63067,0.34008 -1.24441,0.71362 -1.89201,1.02023 -2.2442,1.06256 -4.95181,1.92606 -7.44879,2.05706 -0.40538,0.0213 -0.81126,-0.0321 -1.21689,-0.0481 -2.3742,1.17675 -4.03836,-2.18086 -1.66419,-3.3576 z"
       inkscape:connector-curvature="0" />
    <path
       style="fill:#ffef00;fill-opacity:1;stroke:none;stroke-width:0.14091733;stroke-opacity:1"
       id="path1331"
       d="m 196.22345,150.60639 c -0.11431,-0.22963 -0.26054,-0.44596 -0.34296,-0.68888 -0.51709,-1.52388 -0.18038,-3.30312 0.44266,-4.74345 0.18698,-0.43224 0.44318,-0.8311 0.66477,-1.24666 0.62324,-0.99579 1.43614,-1.84217 2.21693,-2.71094 0.41816,-0.46526 0.67603,-0.69637 0.84247,-1.29021 -0.0109,-0.13406 -0.0126,-0.26919 -0.0327,-0.40219 -0.11634,-0.76787 -0.35045,-1.52082 -0.50818,-2.2804 -0.23475,-1.13046 -0.19214,-0.9797 -0.33995,-2.1416 -0.23033,-1.75398 0.062,-3.49978 0.14635,-5.24749 0.0827,-1.07884 0.0921,-2.14595 -0.021,-3.22316 -0.18285,-1.44783 -0.46933,-2.88384 -0.8436,-4.29399 -0.29984,-1.24319 -1.01294,-1.75623 -2.02231,-2.42271 -1.44409,-0.87243 -2.81596,-1.85599 -4.21342,-2.79942 -0.96349,-0.7169 -2.03833,-1.17791 -3.20197,-1.43907 -0.88791,-0.15502 -1.76655,-0.35745 -2.56281,-0.78838 -1.20676,-0.832 -1.76433,-2.458 -0.57852,-3.62501 -0.50739,0.64206 -0.43879,1.15914 -0.44941,1.89009 -0.25747,-0.17278 -0.0313,-0.22863 0.14028,-0.33443 0.34154,-0.64044 0.16189,-0.28572 0.52941,-1.06895 -0.4938,0.1358 -0.68586,-0.56253 -0.19205,-0.69833 v 0 c 0.81629,-0.80752 0.39374,-0.47609 1.24136,-1.02694 0.17345,0.005 0.34946,-0.015 0.52033,0.0151 0.61038,0.10796 1.13792,0.58949 1.46042,1.09007 0.47071,0.99518 0.56091,2.04008 -0.26205,2.9126 0.37028,-0.65692 0.50969,-0.74823 0.35722,-1.80461 -0.10817,-0.74948 -0.46832,-0.61176 -0.64186,-1.14251 0.82935,-0.12059 1.69807,0.1473 2.51516,0.23911 1.64343,0.40083 3.18839,1.05081 4.59977,1.99495 1.50228,0.97706 2.98917,1.98623 4.39251,3.10194 1.58072,1.37876 2.70416,2.77342 3.3094,4.82152 0.4496,1.72047 0.75129,3.47274 0.67444,5.25968 -0.0396,1.19055 -0.0664,2.38507 -0.16144,3.57134 -0.10756,1.49966 0.12832,2.99906 0.27323,4.48947 0.26386,2.12024 0.70971,4.26746 0.36371,6.40259 -0.10609,0.37869 -0.18134,0.76738 -0.31824,1.13605 -0.59567,1.60404 -1.83658,2.74606 -2.97485,3.96545 -0.47418,0.5983 -0.5995,0.69436 -0.94704,1.38672 -0.50899,1.01396 -0.68635,2.15934 -1.26135,3.14259 0,1.99033 -2.81475,1.99033 -2.81475,0 z"
       inkscape:connector-curvature="0" />
    <path
       style="fill:#ffef00;fill-opacity:1;stroke:none;stroke-width:0.14091733;stroke-opacity:1"
       id="path1333"
       d="m 102.19125,91.598351 c -0.17726,-0.238328 -0.39712,-0.450241 -0.53178,-0.714987 -0.90822,-1.785706 -0.74508,-4.067859 0.0208,-5.866222 0.23752,-0.557724 0.59044,-1.058908 0.88565,-1.588362 0.40783,-0.476312 0.77498,-0.990726 1.22351,-1.428935 2.37679,-2.322138 5.64638,-3.445452 8.71952,-4.488072 4.09331,-1.297635 8.30611,-2.150099 12.53416,-2.865847 2.44126,-0.366155 4.90161,-0.665381 7.37357,-0.689608 1.03313,-0.01012 3.39358,0.101791 4.14859,0.13152 1.46797,0.2191 2.88993,0.671287 4.17413,1.423761 0.8182,0.479422 1.1448,0.772969 1.89457,1.355481 1.71697,1.508992 3.049,3.377584 4.5064,5.122781 1.07292,1.278004 2.28603,2.451569 3.1493,3.892972 0.20958,0.349931 0.3834,0.72008 0.5751,1.08012 1.05497,2.26879 1.17571,4.707605 0.87563,7.150069 0.15324,0.159709 -0.33956,1.140399 -0.19572,1.330776 0.0305,0.04032 0.0334,-0.131106 0.0838,-0.126354 0.0677,0.0064 0.1235,0.05739 0.18524,0.08609 0.67762,0.514128 1.29148,1.227792 1.45281,2.091313 0.0423,0.226635 0.0343,0.459837 0.0514,0.689757 -0.1164,0.375146 -0.10546,0.817432 -0.34921,1.125438 -0.9389,1.186378 -1.66539,1.042598 -2.97883,0.487066 -0.25865,-0.1094 -0.35283,-0.716802 -0.18841,-0.919431 0.23475,-0.289281 0.58414,-0.462538 0.8762,-0.693807 -0.15426,-0.338442 0.32437,-0.556595 0.47863,-0.218155 v 0 c 0.32261,-0.176559 0.67251,-0.310517 0.96782,-0.529681 0.0763,-0.05659 0.36539,-0.531851 0.0778,-0.639658 -0.49961,-0.187286 -1.04799,-0.422899 -1.56995,-0.312207 -1.13513,0.240728 -1.13308,1.051061 -1.34508,1.871474 0.0126,0.13985 0.0228,0.279934 0.0377,0.419552 0.005,0.05067 0.0322,0.100896 0.0233,0.151093 -0.0107,0.05992 -0.12259,-0.02308 -0.1736,-0.05623 -0.19986,-0.129903 -0.43006,-0.314655 -0.6118,-0.454149 -1.43943,-1.353479 -1.79169,-2.545763 -1.90783,-4.481489 -0.0847,-1.652581 0.023,-3.364937 -0.52328,-4.949356 -0.10343,-0.205993 -0.19094,-0.420815 -0.31036,-0.617977 -0.79453,-1.311769 -2.10062,-2.227572 -3.06377,-3.400446 -1.33471,-1.5125 -2.52334,-3.144988 -3.89918,-4.619752 -1.34679,-1.189756 -1.87029,-1.185257 -3.65864,-0.977518 0.75028,0.216272 0.41713,0.07067 -0.85739,0.253014 -1.60006,0.228927 -3.1855,0.543849 -4.77193,0.850435 -0.63171,0.122086 -1.26325,0.245205 -1.89488,0.367808 -4.02825,0.778958 -8.06207,1.5412 -12.05161,2.503423 -1.68903,0.410789 -3.38812,0.795537 -5.04226,1.335441 -0.70798,0.231076 -1.5931,0.54595 -2.25945,0.911708 -0.2651,0.145513 -0.50374,0.334743 -0.75562,0.502117 -0.18088,0.192743 -0.3862,0.365185 -0.54266,0.578231 -0.77176,1.050843 -0.61437,2.343943 -0.74739,3.561563 0.96537,2.888548 -3.11966,4.253786 -4.08502,1.365239 z"
       inkscape:connector-curvature="0" />
    <path
       style="fill:#ffef00;fill-opacity:1;stroke:none;stroke-width:0.14091733;stroke-opacity:1"
       id="path1335"
       d="m 139.87462,92.170369 c 0.11354,-0.287685 0.19384,-0.590822 0.3406,-0.863055 0.95774,-1.776464 2.71179,-3.079274 4.47358,-3.976886 0.54955,-0.279984 1.13043,-0.493676 1.69562,-0.740514 2.15323,-0.794482 4.41711,-1.104963 6.70313,-1.024808 2.58019,0.09047 1.75566,-0.05867 3.37222,0.357349 0.5404,0.119377 1.03781,0.425549 1.59974,0.45374 0.33488,0.0168 0.76158,-0.08376 1.07786,-0.122909 0.29652,-0.03671 0.5944,-0.06141 0.89161,-0.09211 2.275,-0.19073 4.58375,-0.143118 6.83215,0.280434 0.44952,0.08468 0.89206,0.203008 1.33809,0.304512 1.7028,0.507098 3.26923,1.365177 4.18396,2.945323 0.14653,0.253102 0.24889,0.529311 0.37334,0.793966 0.29602,0.944351 0.55951,1.878723 1.16396,2.674563 0.4526,0.604054 0.87263,0.846141 1.56417,1.084039 0.96243,0.301466 1.78019,0.876797 2.60792,1.431088 0.49716,0.433946 1.07176,0.673957 1.68949,0.862952 1.03014,0.129342 -0.67027,-0.01704 -0.53861,0.116259 0.4502,-0.117279 0.90753,-0.196275 1.36948,-0.255485 0.72389,-0.03053 1.44521,-0.09817 2.16846,-0.13813 0.64822,0.136281 1.35562,-0.07413 1.99125,0.05323 0.22972,0.04603 0.40184,0.240996 0.60277,0.361492 1.8332,1.406636 -0.15608,3.999171 -1.98927,2.592539 v 0 c 0.17986,0.109539 0.33328,0.286389 0.53961,0.328614 0.67025,0.137175 1.62332,-0.264234 0.74172,0.343682 -0.94185,0.420426 -1.95342,0.650876 -2.99027,0.597696 -0.46793,-0.057 -0.93397,-0.13819 -1.39242,-0.23366 -0.61967,0.17002 -1.81796,0.0646 -2.49095,-0.0893 -0.97029,-0.287629 -1.82212,-0.789966 -2.62466,-1.402575 -0.67288,-0.459337 -1.44783,-0.703127 -2.18212,-1.047294 -1.18549,-0.636616 -2.25497,-1.443336 -3.00987,-2.578043 -0.57697,-1.000199 -1.00305,-2.037898 -1.18246,-3.185278 -0.0256,-0.07567 -0.31698,-0.05992 -0.33257,-0.06152 -0.76835,-0.0785 -1.53288,-0.194092 -2.305,-0.235049 -2.49242,-0.254195 -4.98569,-0.526864 -7.43664,-1.063828 -1.20398,-0.237859 -2.37885,-0.593756 -3.60344,-0.26627 -0.26715,0.04853 -0.5343,0.09706 -0.80145,0.14559 0.10279,0.04044 0.41352,0.08805 0.30823,0.121303 -0.36803,0.11625 -0.76612,0.09438 -1.14885,0.144221 -1.38241,0.180026 -2.76584,0.36971 -4.12354,0.694087 -1.27412,0.350105 -2.49151,0.730534 -3.68512,1.306503 -1.5422,0.744181 -0.35286,0.22984 -1.70228,0.937475 -0.18428,0.09663 -0.37914,0.171587 -0.56871,0.25738 -1.28084,2.489524 -4.80157,0.678141 -3.52073,-1.811385 z"
       inkscape:connector-curvature="0" />
    <path
       style="fill:#ffef00;fill-opacity:1;stroke:none;stroke-width:0.14091733;stroke-opacity:1"
       id="path1337"
       d="m 173.35902,91.10528 c 0.28625,-0.198321 0.55331,-0.427671 0.85872,-0.59496 1.97802,-1.083436 4.57676,-1.585537 6.81399,-1.590738 1.12423,-0.0026 2.24667,0.08992 3.37001,0.134886 2.45754,0.52395 4.57214,1.650731 5.84126,3.897267 0.17748,0.314161 0.29945,0.656593 0.44917,0.984889 0.42222,1.391239 0.74309,2.809772 1.13115,4.211722 0.25208,0.946118 0.59746,1.861484 0.92133,2.784094 0.42779,1.4355 0.31511,2.67585 -0.059,4.10402 -0.50425,1.50965 -1.41952,2.82277 -2.19324,4.19936 -0.61482,1.21186 -1.14323,2.46234 -1.81542,3.64446 -0.58126,0.98797 -1.32176,1.86658 -2.0131,2.77698 -0.51572,0.67344 -0.96527,1.3977 -1.52409,2.03731 -0.0128,0.0144 -0.25661,0.29514 -0.30289,0.31808 -0.0202,0.01 -0.0369,-0.0263 -0.0567,-0.037 -1.12857,-0.60495 -2.27972,-1.1691 -3.3884,-1.80975 -0.25458,-0.1471 0.37658,0.0399 0.76991,0.14842 0.3159,0.13756 0.63179,0.27512 0.94769,0.41268 0.16286,-0.24698 0.51215,-0.0166 0.34929,0.23033 v 0 c 0.26899,0.19393 0.53798,0.38785 0.80697,0.58178 1.75744,1.74567 -2.28418,-0.43188 -3.20191,-0.86838 -0.0801,-0.0381 0.1654,-0.75296 0.16555,-0.76672 0.41174,-0.98867 1.04655,-1.83475 1.74939,-2.63812 0.59896,-0.68227 1.18564,-1.37349 1.59202,-2.19445 0.59854,-1.1974 1.06873,-2.45076 1.62633,-3.66721 0.62888,-1.29165 1.37253,-2.5074 2.20398,-3.67901 0.30148,-0.4582 0.53946,-0.99059 0.34133,-1.5402 -0.41298,-0.98944 -0.97904,-1.91536 -1.28233,-2.95165 -0.37259,-1.170815 -0.58105,-2.384069 -0.99649,-3.537573 -0.17487,-0.256761 -0.21789,-0.372264 -0.49481,-0.549191 -0.92233,-0.589312 -2.19386,-0.36423 -3.21119,-0.424082 0.5716,0.155124 -0.003,-0.0054 -1.58741,0.05348 -1.55132,0.05766 -3.10085,0.178587 -4.65473,0.132627 -0.33938,-0.01001 -0.67755,-0.04543 -1.01633,-0.06815 -2.64124,1.513259 -4.78131,-2.222022 -2.14007,-3.735281 z"
       inkscape:connector-curvature="0" />
    <path
       style="fill:#ffef00;fill-opacity:1;stroke:none;stroke-width:0.28478763;stroke-opacity:1"
       d="m 136.58508,78.787012 c -7.05693,0.898871 -14.02601,2.477753 -20.97361,4.002602 -3.01221,0.922786 -6.56122,1.219888 -8.90907,3.512009 -1.50051,1.657549 -0.23029,4.33661 -1.54965,5.980542 -0.95309,0.731433 -2.07837,0.179304 -2.44961,-0.863819 -0.72177,-0.875125 -1.04597,-3.23321 -2.63151,-2.246597 -0.79557,0.597999 -2.03801,0.573545 -2.89816,1.227619 -6.149311,3.19275 -12.428012,6.878632 -16.570301,12.582912 -2.100548,4.10641 -0.120366,8.79076 -0.580699,13.14751 -0.05446,2.44177 -0.904281,5.08152 0.467785,7.31994 0.421117,4.02101 0.287095,8.11912 0.08844,12.15408 -0.885852,3.55344 -1.971616,7.07721 -2.688796,10.69012 -0.911517,2.65546 -1.480726,5.41252 -1.288736,8.25271 0.109417,3.91956 -0.184427,7.91651 0.226161,11.78549 1.254421,2.45681 1.950189,5.32338 3.695192,7.47995 2.021103,1.39387 5.154211,1.63388 6.377686,3.89248 -2.073285,0.49002 -1.816209,3.18443 -2.308545,4.80125 -0.829775,5.9711 -1.578525,12.05163 -1.07442,18.0791 1.129428,2.84377 3.957559,4.57408 5.905866,6.83729 1.997576,1.80534 3.277724,4.50998 6.034457,5.32465 3.25582,1.52506 6.98362,0.60314 10.44054,0.87877 1.55947,-0.71487 -0.37015,-2.36565 -0.13072,-3.66109 -0.11445,-0.85184 0.19119,-2.72355 1.42227,-1.91062 1.51763,3.07001 4.306,5.38672 7.61865,6.29039 5.4158,1.88667 11.00955,3.53538 15.7674,6.85702 2.36496,1.33266 4.86316,3.07419 7.73312,2.45862 5.12725,-0.42443 10.47578,0.3296 15.62438,-0.48281 2.47041,-1.04658 5.26729,-2.00261 7.01513,-4.12719 1.39249,-3.17321 4.16627,-5.48405 6.95055,-7.35667 0.41624,-1.50461 -1.94232,-1.24583 -2.91012,-1.84164 -1.17287,-0.0315 -2.07811,-1.94841 -0.61965,-2.26551 5.69457,-1.31001 11.77969,0.34183 17.45071,-1.56479 3.90116,-1.37909 8.17114,-2.21346 11.56482,-4.69163 2.02818,-1.6076 2.37077,-4.29652 2.13758,-6.71254 -0.0925,-3.36395 0.86967,-6.57619 1.27431,-9.88803 -0.77182,-1.40424 -2.50428,0.0791 -3.7306,0.0178 -1.74808,0.11758 -3.77188,0.83621 -5.40931,0.0395 -0.72286,-1.97745 1.98877,-2.85368 3.22834,-3.68501 3.36987,-1.95019 7.54294,-3.01512 10.04655,-6.16631 1.24836,-2.40667 0.43558,-5.31046 0.73589,-7.89174 -0.0405,-3.97521 2.11671,-7.79028 1.30268,-11.77808 -1.46246,-1.63666 -2.60314,-3.7142 -2.37676,-6.00223 -0.81926,-1.69893 -2.00442,0.52827 -2.1854,1.55409 0.0185,0.99303 -1.64136,0.80063 -1.6125,-0.17688 -1.3565,-3.22466 0.40444,-6.62228 2.66427,-8.90303 0.98583,-0.93796 1.47847,-2.22517 0.86999,-3.5325 -1.3917,-5.60448 0.59199,-11.72732 -1.84834,-17.12565 -2.59513,-2.33711 -5.57421,-4.41701 -8.83343,-5.72801 -1.30394,-0.34373 -3.15466,-1.30843 -3.78177,0.45666 -0.74627,0.97826 -1.46088,2.52496 -2.7448,1.2043 -1.47058,-0.24787 -1.52497,-1.14143 -0.64707,-2.10984 2.82263,-3.38754 4.21277,-7.64528 6.57236,-11.32476 0.74304,-1.89135 -1.05158,-3.585213 -1.28177,-5.424818 -0.29894,-1.793399 -1.17145,-4.044691 -3.37105,-3.932566 -2.44433,0.0096 -5.01975,-0.083 -7.36277,0.489478 -0.34359,1.439349 1.78182,2.103124 2.98527,2.174286 1.67271,0.265856 3.64646,-0.511617 5.11616,0.441644 1.10865,1.130974 -0.79321,2.340684 -1.84278,2.445726 -2.92867,0.28448 -6.08962,0.03264 -8.53083,-1.768242 -2.37213,-0.903798 -4.43138,-2.709958 -5.20293,-5.186251 -0.7555,-2.124435 -3.46331,-1.481621 -5.19469,-1.894787 -4.20767,-0.412286 -8.6997,-1.99193 -12.80589,-0.228327 -0.1801,1.934504 -1.11729,4.494318 0.67858,5.986103 1.05815,1.014224 0.20643,3.483684 -1.37221,2.790029 -1.80334,-1.210179 -3.63414,-2.932825 -3.57318,-5.255778 -0.005,-1.011637 -0.51667,-2.726198 -1.83,-1.909524 -1.39057,0.484183 -2.39931,1.726551 -3.71169,2.242703 -1.61777,0.07691 -1.8525,-1.881863 -0.98006,-2.896824 0.98309,-1.970304 3.01978,-3.029939 4.58385,-4.367485 -0.67906,-1.485432 -2.27377,-2.537339 -3.22559,-3.934363 -1.5635,-1.549308 -2.76087,-3.927443 -5.00767,-4.537514 -0.17663,-0.02046 -0.35456,-0.02757 -0.5323,-0.02392 z"
       id="path1339"
       inkscape:connector-curvature="0" />
  </g>
  <g
     inkscape:groupmode="layer"
     id="layer4"
     inkscape:label="lines 5"
     sodipodi:insensitive="true">
    <path
       style="fill:#ffffff;fill-opacity:1;stroke:none;stroke-width:0.13229167;stroke-opacity:1"
       id="path1344"
       d="m 124.65039,97.155024 c -1.68096,0.737187 -3.56304,0.609269 -5.34872,0.879554 -0.25402,0.06675 -0.51471,0.111985 -0.76208,0.200251 -0.87265,0.311365 -1.67366,0.87342 -2.4401,1.377047 -0.43778,0.287668 -1.76729,1.186204 -2.16986,1.457654 -1.96859,1.37688 -4.04325,2.65439 -5.80894,4.29887 -0.29895,0.27843 -0.57044,0.58496 -0.85566,0.87744 -1.72066,1.9941 -2.48423,4.53457 -3.28794,6.99057 -0.58608,1.97266 -1.29546,3.97184 -1.35671,6.05213 -0.009,0.30191 0.0186,0.6038 0.0279,0.90571 0.12166,1.18575 0.60708,2.28252 0.95489,3.41038 0.2984,0.96761 0.30781,1.08004 0.54587,2.07743 0.23911,1.09214 0.34093,2.20499 0.43007,3.31696 0.0694,0.86567 0.0818,1.43805 0.35917,2.25889 0.0941,0.12686 0.16707,0.27256 0.28229,0.3806 0.4487,0.4207 1.20326,0.60608 1.75092,0.82486 0.90247,0.36055 0.92325,0.37847 1.83489,0.77659 1.64019,0.69722 3.01258,1.78396 4.19852,3.09408 0.18766,0.1443 0.41783,0.58334 0.72305,0.5531 0.0667,-0.007 0.12401,-0.0522 0.18894,-0.0688 0.30218,-0.0776 0.48707,-0.0792 0.81268,-0.11 1.40985,-0.11276 2.71639,0.30789 3.97838,0.88746 0.75791,0.38764 1.52832,0.75774 2.38797,0.83657 0.61328,0.0562 0.97543,0.01 1.60352,-0.0258 0.3466,-0.0302 0.6932,-0.0605 1.03981,-0.0907 -0.0137,-0.0381 -0.081,-0.10763 -0.041,-0.11431 0.41376,-0.0692 0.83697,-0.0584 1.25536,-0.0888 1.2135,-0.0883 2.41885,-0.19599 3.62683,-0.34098 1.88077,-0.27582 3.74267,-0.63923 5.65037,-0.57184 0.57698,0.0594 1.16302,0.0602 1.73095,0.17814 0.89033,0.18481 1.8001,1.24866 2.44865,1.85797 0.52797,0.40565 1.14277,0.67942 1.62741,1.14459 0.16826,0.1615 0.31569,0.3434 0.47354,0.5151 1.02314,1.33139 1.35521,2.96394 1.54773,4.59267 0.001,0.30293 0.1986,0.93129 -0.11,1.18972 -0.0988,0.0828 -0.23886,0.0977 -0.3542,0.15522 -0.24775,0.12364 -0.48965,0.25871 -0.73447,0.38808 0.32069,0.37399 -0.20821,0.82749 -0.5289,0.45351 v 0 c -0.30356,0.0771 -0.59747,0.23119 -0.91065,0.23135 -0.8962,0 -1.30082,-1.22148 -1.46117,-1.89007 -0.16889,-0.8927 -0.10452,-0.4763 -0.21482,-1.34976 -0.0537,-0.42534 -0.0644,-0.9177 -0.20388,-1.32943 -0.0237,-0.0699 -0.0668,-0.13154 -0.10024,-0.19732 -0.59182,-0.60464 -1.4116,-0.95034 -1.96954,-1.60008 -0.13397,-0.13876 -0.39075,-0.49571 -0.60991,-0.55446 -0.0219,-0.006 -0.29143,0.049 -0.24533,0.0577 0.23053,0.0434 0.46774,0.0362 0.70162,0.0543 -1.65339,0.20763 -3.21924,0.80082 -4.82646,1.2173 -1.07881,0.24519 -1.53737,0.37386 -2.64623,0.52421 -2.21736,0.30066 -4.50157,0.26415 -6.70993,-0.075 -0.38177,-0.0917 -0.76801,-0.16647 -1.14529,-0.27513 -1.23763,-0.35649 -2.34293,-0.98602 -3.47338,-1.58268 -0.97511,-0.33892 -2.0086,-0.21432 -3.01972,-0.3666 -0.57313,-0.10787 -0.83559,-0.12986 -1.38596,-0.34623 -0.76432,-0.30048 -1.42046,-0.79351 -2.07743,-1.27363 -1.21738,-0.783 -2.55436,-1.32355 -3.87579,-1.90519 -2.26744,-1.08359 -4.16831,-2.16845 -5.31741,-4.52767 -0.13472,-0.36123 -0.29308,-0.71449 -0.40414,-1.08368 -0.479018,-1.59232 -0.40618,-3.2731 -0.65027,-4.90252 -0.180244,-0.87241 -0.158215,-0.87059 -0.422605,-1.72669 -0.435614,-1.41052 -1.030291,-2.77712 -1.250294,-4.2483 -0.142254,-1.12047 -0.222338,-1.48076 -0.224548,-2.62815 -0.004,-2.08586 0.421664,-4.13396 1.104974,-6.09892 1.083873,-2.95938 2.254873,-5.93674 4.167743,-8.47316 0.96816,-1.12865 1.13147,-1.404 2.26276,-2.38127 1.6429,-1.419216 3.56014,-2.477859 5.45747,-3.510147 2.20931,-1.132262 4.45272,-2.228919 6.82296,-2.986123 0.36014,-0.08686 0.71622,-0.192744 1.08042,-0.260578 1.73762,-0.323634 3.54254,-0.25549 5.20126,0.37919 1.83061,-0.47002 2.49532,2.118851 0.66471,2.588872 z"
       inkscape:connector-curvature="0" />
    <path
       style="fill:#ffffff;fill-opacity:1;stroke:none;stroke-width:0.13229167;stroke-opacity:1"
       id="path1346"
       d="m 140.94779,146.51218 c 0.28418,1.84459 0.15222,3.72963 0.16423,5.59104 0.0292,2.01453 -0.28489,3.93846 -0.9549,5.83248 -0.4368,1.13527 -1.11117,2.13889 -1.85089,3.09389 -0.62303,0.82335 -1.31491,1.59058 -2.05257,2.31186 -1.02328,1.00719 -2.21845,1.78377 -3.48534,2.44319 -0.32688,0.0991 -0.77424,0.44883 -1.15281,0.37233 -0.0863,-0.0174 -0.14858,-0.0943 -0.22287,-0.14145 -1.34381,1.23899 -3.09601,-0.66144 -1.75221,-1.90043 v 0 c -0.009,-0.0909 -0.0451,-0.18335 -0.026,-0.27261 0.0768,-0.35845 0.56419,-0.58218 0.7901,-0.80656 1.05042,-0.74776 2.15274,-1.40362 3.25929,-2.06438 0.66512,-0.44421 1.38767,-0.86844 1.88326,-1.5084 0.47007,-0.75957 0.86099,-1.57291 1.09915,-2.43602 0.40928,-1.6086 0.48081,-3.24983 0.37613,-4.90523 -0.009,-2.07357 -0.0613,-4.26884 0.90183,-6.16355 0.39162,-2.13798 3.41519,-1.58414 3.02355,0.55384 z"
       inkscape:connector-curvature="0" />
    <path
       style="fill:#ffffff;fill-opacity:1;stroke:none;stroke-width:0.13229167;stroke-opacity:1"
       id="path1348"
       d="m 133.6319,166.87541 c -0.22467,0.14819 -0.43725,0.31659 -0.67402,0.44457 -1.156,0.62488 -2.4553,1.01314 -3.69022,1.4419 -2.55269,0.88629 -0.54071,0.17475 -3.14205,1.10283 -1.98831,0.76531 -3.96754,1.58151 -5.77112,2.7293 -1.02503,0.65233 -1.18911,0.83032 -2.11095,1.5834 -1.1047,1.00088 -2.1072,2.12217 -2.82772,3.43491 -0.39974,0.72829 -0.56238,1.19092 -0.87945,1.96533 -0.94955,2.41355 -1.48855,4.94845 -1.93034,7.49502 -0.19476,1.32222 -0.35529,2.6533 -0.40116,3.99022 -0.0246,0.7169 -0.0352,1.38868 0.10958,2.09295 0.0522,0.2536 0.15466,0.49419 0.23199,0.7413 0.1243,0.18956 0.22644,0.39565 0.3729,0.56866 0.79511,0.93926 2.55923,1.71403 3.66022,2.23765 1.81397,0.86307 3.57669,1.25314 5.55546,1.47754 2.20896,0.18869 4.42332,0.27518 6.62987,0.49528 2.1391,0.27465 4.2403,0.76891 6.36311,1.14261 1.14505,0.21434 2.30853,0.20759 3.46439,0.28353 0.1497,0.01 -0.60006,0.001 -0.45005,0.003 0.25992,0.003 0.51988,0.001 0.77981,0.001 1.50708,0.007 3.00695,-0.13095 4.4996,-0.32567 1.77128,-0.20472 3.44855,-0.7833 5.08359,-1.46758 1.76727,-0.78969 3.56006,-1.51478 5.37433,-2.18846 1.15138,-0.366 2.18348,-0.98515 3.1895,-1.63902 1.40063,-0.96585 2.77565,-1.9656 4.20723,-2.88585 0.90205,-0.56077 1.87766,-0.97941 2.6334,-1.7398 0.80127,-0.97793 1.52697,-2.01613 2.18095,-3.09749 0.55409,-0.93314 0.60006,-1.94173 0.43184,-2.98567 -0.0316,-0.10701 -0.0558,-0.21647 -0.0948,-0.32103 -0.11749,-0.31529 -0.3284,-0.60998 -0.48027,-0.90777 -0.29501,-0.57844 -0.27154,-0.55835 -0.53871,-1.19609 -0.58261,-1.47893 -0.74203,-3.06076 -0.99098,-4.61599 -0.0256,-0.14352 -0.0517,-0.28694 -0.0766,-0.43057 -0.11868,-0.68421 0.19092,0.40249 0.7373,0.50461 0.56323,0.10528 1.14591,0.0122 1.71886,0.0183 -2.6707,-5.25144 -3.13516,-0.66065 -2.98315,-3.4114 0.0334,-0.38405 0.0988,-0.76177 0.0603,-1.14712 -0.0235,-0.0289 -0.0742,0.014 -0.0956,-0.01 -0.27583,-0.30888 -0.43654,-0.81009 -0.58738,-1.18335 -0.30951,-0.84908 -0.36866,-1.7332 -0.25205,-2.62192 0.0338,-0.22571 0.0784,-0.44953 0.14442,-0.66808 0.008,-0.0251 0.0241,-0.10052 0.0254,-0.0744 -0.0185,0.39727 -0.023,0.20093 0.012,0.58904 0.004,0.0195 0.0102,0.0783 0.0109,0.0585 0.0268,-0.75313 0.122,-0.75233 0.69928,-1.23581 0.23633,-0.12596 0.47265,-0.25191 0.70898,-0.37787 -0.036,-0.81579 1.11772,-0.86668 1.1537,-0.0509 v 0 c 0.24759,0.0882 0.49516,0.17646 0.74274,0.2647 0.13414,0.072 0.27358,0.13485 0.40244,0.2159 0.0907,0.0571 0.15891,0.14774 0.25407,0.19706 0.23331,0.12092 0.18434,-0.28874 0.27011,0.14666 0.0175,0.13618 0.0458,0.2714 0.0526,0.40853 0.009,0.18975 -0.0674,0.44375 0.025,0.63153 0.13897,0.3721 0.2225,0.76592 0.34973,1.14246 0.23122,0.74479 0.42474,1.50608 0.47398,2.28754 0.0309,0.59583 0.17762,1.18773 0.10447,1.78828 -0.0471,0.39518 -0.0989,0.77791 -0.23719,1.15386 -0.0274,0.0744 -0.0317,0.25799 -0.0992,0.21628 -3.24246,-2.00495 -3.96121,-1.34194 -2.96605,-2.20857 0.63232,-0.006 1.27322,-0.12167 1.89694,-0.0176 0.30498,0.0509 0.55547,0.27981 0.80105,0.46768 0.79818,0.61064 1.21504,1.60866 1.52785,2.52426 0.31883,1.36482 0.46364,2.74026 0.54828,4.13748 0.22713,1.03997 1.09631,1.82468 1.28803,2.89261 0.55424,2.26777 0.46575,3.93751 -0.65138,6.04313 -0.18056,0.28229 -0.34865,0.57299 -0.5417,0.84691 -0.73413,1.04162 -1.66536,1.91241 -2.60034,2.76823 -0.88001,0.82176 -1.63888,1.75779 -2.55306,2.54334 -1.46173,1.18849 -3.04207,2.21882 -4.75409,3.01436 -1.13735,0.53998 -2.25937,1.11086 -3.2823,1.85212 -1.72365,1.07441 -3.49886,2.06998 -5.40287,2.79343 -2.03636,0.74451 -4.10272,1.4246 -6.2804,1.59352 -1.57827,0.13818 -3.1614,0.22017 -4.73575,0.40405 -2.39359,0.21543 -4.8234,0.18202 -7.19304,-0.24054 -2.00685,-0.35441 -4.00839,-0.76647 -6.05093,-0.85555 -2.3238,-0.16221 -4.65718,-0.2844 -6.95,-0.72439 -2.2772,-0.50667 -4.49146,-1.22991 -6.54538,-2.35687 -2.53834,-1.39744 -4.35741,-2.70246 -5.66498,-5.39922 -0.16676,-0.45808 -0.36861,-0.90485 -0.5003,-1.37421 -0.69644,-2.48224 -0.43594,-5.13154 -0.0267,-7.63358 0.60899,-2.81708 1.39111,-5.59577 2.51902,-8.25407 1.11137,-2.56152 2.35095,-5.07521 4.2939,-7.1257 1.03421,-1.05681 1.30592,-1.41016 2.50534,-2.31923 2.01413,-1.52654 4.32563,-2.60082 6.72196,-3.37294 2.5881,-0.78646 5.32625,-1.59049 8.06735,-1.36579 0.33463,0.0274 0.66222,0.11127 0.99334,0.1669 2.0702,-0.80273 3.20545,2.12499 1.13523,2.92772 z"
       inkscape:connector-curvature="0" />
    <path
       style="fill:#ffffff;fill-opacity:1;stroke:none;stroke-width:0.13229167;stroke-opacity:1"
       id="path1350"
       d="m 159.39712,161.92142 c 1.76375,0.77697 3.5197,1.57406 5.38103,2.09928 0.50123,0.14144 1.01187,0.24698 1.51781,0.37047 2.23504,0.55692 4.52238,0.49742 6.80067,0.42422 1.82563,-0.0647 2.71522,-0.43553 4.10142,-1.56366 1.47557,-1.27552 2.80636,-2.70314 4.07593,-4.18023 1.02384,-1.25299 2.08985,-2.47555 3.03014,-3.79368 0.85434,-1.33194 1.54996,-2.75702 2.31586,-4.14012 0.84331,-1.48232 1.68294,-2.96984 2.42539,-4.50582 0.56033,-1.10312 0.75965,-2.29701 0.77708,-3.52071 -0.0777,-1.11867 -0.18628,-2.23462 -0.24797,-3.35439 -0.071,-1.22806 -0.0277,-2.45803 -0.005,-3.68673 -0.0123,-0.73641 -0.12527,-0.83398 -0.66515,-1.22618 -0.78856,-0.56146 -1.42559,-1.28567 -2.01119,-2.04855 -0.59904,-0.85263 -1.30305,-1.61631 -1.9957,-2.39093 -0.78891,-0.874 -1.63948,-1.68743 -2.49636,-2.49367 -0.71151,-0.6347 -1.42757,-1.27895 -2.34185,-1.59031 -0.0891,-0.0117 -0.17758,-0.0307 -0.26735,-0.0352 -0.1676,-0.009 -0.45959,0.0213 -0.61705,0.0404 -0.13855,0.0168 -0.55048,0.0261 -0.41465,0.0581 0.28208,0.0667 1.46452,-0.0362 0.16919,0.057 -1.7611,0.18472 -3.52792,0.10827 -5.28996,-0.007 -0.20803,-0.0122 -0.41592,-0.0275 -0.6241,-0.0367 -0.25699,-0.0113 -0.95528,-0.0267 -1.21489,-0.0277 -0.20308,-6.6e-4 -0.67917,-0.18518 -0.60923,0.005 0.0708,0.19296 0.6362,-0.19041 0.61644,0.0142 -0.0198,0.20495 -0.4118,-6.6e-4 -0.61771,-10e-4 -1.17922,0.0155 -2.35679,0.084 -3.53614,0.0923 -0.87301,-0.0174 -1.74568,-0.0169 -2.6169,0.0443 -1.08895,0.12445 -2.18302,0.0962 -3.27684,0.088 -0.92931,-0.18564 -1.86615,-0.3334 -2.79518,-0.52065 -1.09388,-0.27641 -2.23091,-0.69526 -3.03845,-1.52456 -0.1826,-0.18752 -0.32671,-0.409 -0.49006,-0.6135 -0.44925,-0.71833 -0.55613,-1.47057 -0.57233,-2.29392 -0.005,-0.25393 0.0347,-0.52282 -0.0543,-0.76628 -0.0191,-0.0291 -0.0278,-0.0688 -0.0573,-0.0873 -0.0165,-0.0104 -0.0373,0.0207 -0.0562,0.016 -0.096,-0.024 -0.18212,-0.0795 -0.26581,-0.1323 -0.22436,-0.14168 -0.37614,-0.29763 -0.57765,-0.4783 -0.86426,-0.92485 -1.61036,-1.95316 -2.4104,-2.93439 -0.6685,-0.81338 -1.38254,-1.58775 -2.06747,-2.38693 -0.98315,-1.13371 -1.19927,-2.37935 -1.14721,-3.83279 0.0637,-1.1747 0.27985,-2.31245 0.65244,-3.4264 0.38505,-1.05636 1.00174,-2.00203 1.47897,-3.01493 0.32744,-0.65679 0.40485,-1.37633 0.49665,-2.09311 0.0954,-0.93426 0.41272,-1.81496 0.6907,-2.704156 0.21594,-0.543485 0.0773,-0.930419 0.23326,-0.03948 -0.24429,-0.143815 0.33295,0.524146 0.1443,0.624326 -0.27328,0.14513 -1.72353,-0.579745 -1.97637,-0.695693 -1.31252,-0.604157 -2.52355,-1.407472 -3.85356,-1.972651 -1.05586,-0.397383 -2.19809,-0.386239 -3.30754,-0.489637 -1.25025,-0.09056 -2.43351,-0.520242 -3.63281,-0.849453 -0.58524,-0.158586 -1.18229,-0.249252 -1.78843,-0.250016 -0.12587,-1.33e-4 -0.50341,0.0085 -0.37756,0.0065 0.30454,-0.0049 0.60907,-0.01015 0.91359,-0.01522 -0.69646,-0.0913 -1.39131,0.06218 -2.08556,0.06352 -0.58784,0.0012 -1.17553,-0.01788 -1.76329,-0.02683 -0.94432,-0.107012 -1.89145,-0.170518 -2.83945,-0.229947 -0.75698,-0.03679 -1.51046,-0.105603 -2.26917,-0.103954 -0.12163,9.26e-4 -0.48651,5.3e-4 -0.36489,0.0029 1.7099,0.03272 0.52828,-0.01955 0.15571,0.0193 -0.30809,0.03212 -0.4362,0.07744 -0.74697,0.155583 -0.87139,0.269695 -1.73344,0.566178 -2.62918,0.74796 -0.82483,0.266681 -1.429,0.184492 -2.36034,0.136251 -0.07,-0.0036 -0.13887,-0.0526 -0.20707,-0.03647 -0.0282,0.0067 -0.0344,0.08392 -0.006,0.08678 0.36644,0.03639 0.73634,0.01489 1.10452,0.02234 -0.46771,0.212806 -0.97377,0.244875 -1.47345,0.329891 -0.72497,0.04046 -0.78589,-0.171854 -1.32382,-0.699733 -0.96867,0.430743 -1.57783,-0.939164 -0.60916,-1.369907 v 0 c -0.013,-0.01694 -0.55919,-0.636488 -0.56425,-0.844259 -0.002,-0.07712 0.0605,-0.141915 0.0908,-0.212871 0.7407,-0.825436 1.34856,-1.110833 2.44638,-1.320191 0.52503,-0.0082 1.05045,-0.04659 1.57509,-0.02472 0.12945,0.0054 0.24851,0.07363 0.37398,0.105958 0.0275,0.0071 0.11273,0.0123 0.0843,0.01212 -1.36074,-0.0088 -0.88996,-0.196575 -1.43549,0.05031 0.80868,-0.568536 1.71083,-0.976217 2.63665,-1.314793 1.51444,-0.471243 2.87832,-0.644649 4.48821,-0.498995 0.81605,0.01725 1.62925,-0.02665 2.44468,-0.02846 0.95903,0.02407 1.90794,0.135942 2.8598,0.246107 -0.32239,0.0038 -0.64507,-0.0027 -0.96718,0.01135 -0.0938,0.0041 0.18724,0.01752 0.28116,0.01857 0.57099,0.0064 1.11944,-0.194299 1.68477,-0.247274 1.90102,-0.04794 3.3202,-0.101595 5.12003,0.536738 0.32409,0.09474 0.57145,0.178402 0.90178,0.234208 0.67177,0.113487 1.36086,0.03234 2.03531,0.119372 1.61331,0.14189 3.20598,0.433267 4.69268,1.105954 1.40963,0.649927 2.78541,1.367946 4.09344,2.206703 1.12157,0.703798 2.26648,1.38729 2.88559,2.61297 0.0821,0.277833 0.18436,0.550488 0.24629,0.833501 0.1565,0.715258 -0.0548,1.503418 -0.19573,2.198648 -0.19367,0.62773 -0.49685,1.22731 -0.51488,1.89541 -0.0875,1.17475 -0.20115,2.35806 -0.69014,3.44718 -0.40861,0.92065 -0.87573,1.80588 -1.38262,2.67614 -0.30882,0.76722 -0.43219,1.57428 -0.59696,2.38138 -0.0184,0.0662 -0.0309,0.13431 -0.0551,0.19859 -0.0397,0.10515 -0.18829,-0.0798 -0.0859,-0.0466 0.13264,0.0429 0.14625,0.29448 0.31677,0.27314 0.99683,0.81861 1.97282,1.67455 2.71332,2.74255 0.5735,0.8509 1.01436,1.80319 1.73691,2.54134 0.88229,0.92367 1.65302,1.93247 1.83778,3.23828 0.0382,0.42785 0.12342,0.9418 -0.001,1.3705 -0.004,0.014 -0.0315,-0.009 -0.0376,-0.0223 -0.0329,-0.0723 -0.0502,-0.15071 -0.0753,-0.22607 -0.0502,-0.1027 -0.10048,-0.2054 -0.15072,-0.30809 -0.0109,-0.0379 -0.0657,-0.0921 -0.0327,-0.11382 0.0431,-0.0283 0.10058,0.0233 0.15048,0.0365 0.11283,0.0297 0.2255,0.0602 0.3377,0.0922 0.53659,0.15303 1.06711,0.32626 1.58954,0.52251 0.49347,0.20092 0.97532,0.47349 1.47739,0.64937 0.0418,0.0146 0.10162,-0.005 0.1389,-0.0132 -1.97048,-0.002 -1.2119,0.0359 -0.87029,-0.0158 0.45234,-0.0685 0.8946,-0.20087 1.34767,-0.26739 0.96967,-0.15044 1.94248,-0.21103 2.92291,-0.23561 1.18053,-0.069 2.35524,-0.20182 3.53545,-0.27561 1.74792,-0.0652 3.49647,-0.003 5.24087,0.11326 0.20272,0.0109 0.40528,0.026 0.60818,0.0326 0.19183,0.006 0.76646,-0.016 0.57576,0.006 -0.22059,0.0251 -0.44768,-0.0357 -0.66602,0.005 -0.19087,0.0352 0.38807,0.0102 0.58215,0.0109 0.58612,0.002 0.62958,-0.008 1.22185,-0.0373 1.796,-0.1051 3.58522,-0.18189 5.2846,0.49602 1.39642,0.60422 2.638,1.44447 3.68232,2.56126 0.91989,0.94454 1.83303,1.89996 2.65515,2.93213 0.65821,0.86563 1.23197,1.78636 1.79077,2.71857 0.44209,0.6113 1.05504,1.03831 1.61437,1.5368 1.21529,1.26814 1.74913,2.35631 1.81586,4.14163 0.006,1.1549 -0.0843,2.30622 -0.0917,3.46087 0.0596,1.2187 0.32029,2.41896 0.29813,3.64271 -0.0474,1.76888 -0.35859,3.50249 -1.10806,5.12 -0.76868,1.65704 -1.66106,3.25136 -2.6272,4.8016 -0.87049,1.39583 -1.85346,2.71475 -2.72878,4.10728 -0.87639,1.4824 -1.76204,2.95976 -2.7591,4.36571 -1.37514,1.85516 -2.95428,3.53116 -4.88515,4.82283 -1.73578,1.19953 -3.51997,2.30591 -5.6044,2.79256 -0.81261,0.18737 -1.82711,0.451 -2.6545,0.50968 -2.82966,0.2007 -5.65115,0.0687 -8.37947,-0.75376 -0.60506,-0.22995 -1.2243,-0.4256 -1.81519,-0.68984 -1.89801,-0.84879 -3.82707,-2.1147 -4.90979,-3.94604 -0.14982,-0.25339 -0.23167,-0.54124 -0.34751,-0.81187 -1.12675,-1.93114 1.6043,-3.52462 2.73106,-1.59348 z"
       inkscape:connector-curvature="0" />
    <path
       style="fill:#ffffff;fill-opacity:1;stroke:none;stroke-width:2.02095532;stroke-opacity:1"
       d="m 969.82968,720.77316 c -22.8045,8.87106 -46.6631,14.04082 -70.65844,17.7702 -28.04487,10.35261 -51.28235,30.40429 -75.20559,47.81217 -30.5269,22.23951 -39.4754,60.91009 -48.89765,95.28884 -7.09997,23.31884 2.70813,46.28352 7.66937,68.82695 4.50707,15.45858 0.69423,34.37694 11.17841,47.51614 20.44516,11.12024 42.25585,18.68544 58.8169,35.31934 14.28682,7.9256 32.3408,2.894 46.63216,11.8634 20.98789,9.3356 44.61118,1.4367 66.54135,0.6926 21.60593,-1.6598 44.15741,-7.9045 65.34161,-1.2118 16.3399,11.7624 35.4322,25.8658 37.3324,47.6859 1.7485,7.2882 1.1456,14.6256 -4.263,19.7872 -3.0603,26.9928 1.8034,55.289 -9.5995,81.1263 -7.5844,21.1941 -26.1374,34.9103 -39.8231,51.7081 0.9305,6.7173 -3.0982,12.6422 -9.8166,15.0585 -42.22323,19.6968 -93.53844,28.1574 -125.12162,65.7481 -24.14175,30.8585 -30.85565,71.4518 -34.61798,109.4322 -0.85456,15.0396 -2.6515,34.4627 12.91244,43.0236 27.96525,19.5228 62.3517,24.8359 95.68028,25.9971 37.59751,2.4371 73.89598,15.0779 111.96898,11.2722 35.8252,-0.2275 68.2064,-17.8127 100.7007,-30.7615 27.3272,-13.8391 53.6558,-30.4985 76.8512,-50.5267 13.0162,-13.6839 25.8199,-33.8832 15.773,-52.8922 -5.4866,-12.7729 -10.8389,-28.7009 -11.0916,-41.2085 7.0958,3.9582 19.9592,-2.1719 13.1994,-10.76 -4.1947,-7.2123 -11.3846,-14.5316 -18.2913,-17.0953 -1.2498,-12.5544 -7.4082,-23.9713 -9.4021,-36.4127 -7.8679,-10.7952 -23.3232,-12.6248 -31.9209,-23.162 -6.7549,-7.3524 -19.0586,-18.0825 -13.4717,-28.8105 10.3129,-6.6315 18.922,7.7572 28.8087,9.3395 35.0124,15.5675 75.6803,22.1751 113.0253,11.845 24.1955,-16.4498 43.3337,-39.7793 60.8931,-62.9733 17.0125,-27.3184 35.1951,-54.7722 45.7004,-85.3617 3.3355,-24.1477 0.5211,-49.0851 -0.9531,-73.1239 -22.0298,-24.20666 -42.3109,-51.04503 -68.7817,-70.91256 -49.7619,-2.72166 -100.3482,1.74247 -150.3677,-1.58281 -17.1718,-0.68842 -38.6401,-7.53711 -41.8125,-27.02633 0.2389,-7.31771 -1.6688,-14.26429 -8.1864,-18.21228 -13.8503,-16.52337 -30.5689,-31.66047 -40.5376,-50.83571 -7.9231,-32.56846 17.5025,-59.83724 20.5846,-91.13641 3.5622,-13.20944 -16.1765,-13.73149 -23.6278,-19.94904 -22.155,-13.26149 -48.1294,-12.85166 -72.4379,-18.83322 -26.7114,-3.59601 -53.86063,-3.77836 -80.72452,-4.32488 z M 1168.6175,908.6115 c 0.7498,0.26138 -0.4586,-0.10736 0,0 z"
       id="path1352"
       inkscape:connector-curvature="0"
       transform="scale(0.13229167)" />
  </g>
</svg>
