<?xml version="1.0" encoding="UTF-8" standalone="no"?>
<!-- Created with Inkscape (http://www.inkscape.org/) -->

<svg
   xmlns:dc="http://purl.org/dc/elements/1.1/"
   xmlns:cc="http://creativecommons.org/ns#"
   xmlns:rdf="http://www.w3.org/1999/02/22-rdf-syntax-ns#"
   xmlns:svg="http://www.w3.org/2000/svg"
   xmlns="http://www.w3.org/2000/svg"
   xmlns:sodipodi="http://sodipodi.sourceforge.net/DTD/sodipodi-0.dtd"
   xmlns:inkscape="http://www.inkscape.org/namespaces/inkscape"
   width="1024"
   height="1024"
   viewBox="0 0 270.93333 270.93333"
   version="1.1"
   id="svg8"
   inkscape:version="0.92.4 (5da689c313, 2019-01-14)"
   sodipodi:docname="muzzleflash.svg"
   inkscape:export-filename="C:\Users\panu-\PycharmProjects\nextgame\data\images\particles\muzzleflash.png"
   inkscape:export-xdpi="10.923292"
   inkscape:export-ydpi="10.923292">
  <defs
     id="defs2" />
  <sodipodi:namedview
     id="base"
     pagecolor="#ffffff"
     bordercolor="#666666"
     borderopacity="1.0"
     inkscape:pageopacity="0.0"
     inkscape:pageshadow="2"
     inkscape:zoom="0.34988737"
     inkscape:cx="-1.4553218"
     inkscape:cy="587.45979"
     inkscape:document-units="mm"
     inkscape:current-layer="layer1"
     showgrid="false"
     units="px"
     width="1024px"
     inkscape:window-width="1920"
     inkscape:window-height="1017"
     inkscape:window-x="-8"
     inkscape:window-y="-8"
     inkscape:window-maximized="1" />
  <metadata
     id="metadata5">
    <rdf:RDF>
      <cc:Work
         rdf:about="">
        <dc:format>image/svg+xml</dc:format>
        <dc:type
           rdf:resource="http://purl.org/dc/dcmitype/StillImage" />
        <dc:title />
      </cc:Work>
    </rdf:RDF>
  </metadata>
  <g
     inkscape:groupmode="layer"
     id="layer3"
     inkscape:label="lines 1"
     sodipodi:insensitive="true">
    <path
       style="fill:#fffa99;fill-opacity:1;stroke:none;stroke-width:0.26458332;stroke-opacity:1"
       id="path972"
       d="m 51.629566,34.537904 c -0.448921,4.479078 -1.544391,8.876913 -2.597428,13.245401 -1.444059,5.935533 -3.419805,11.729331 -4.805317,17.679651 -0.30271,1.300036 -0.55847,2.610559 -0.837703,3.915839 -1.645123,9.921041 -3.102705,19.872436 -4.643559,29.81032 -1.288934,8.825775 -2.637843,17.655925 -3.33448,26.553715 -0.118367,1.51184 -0.191916,3.02686 -0.287875,4.54028 -0.424428,8.06739 0.957284,16.05357 1.944159,24.02816 0.459832,3.76433 0.701606,7.55139 0.885846,11.33778 0.109831,2.25719 0.130656,4.04849 0.307517,6.28835 0.07287,0.92288 0.187867,1.84194 0.281802,2.76291 0.451681,3.66292 1.633088,7.16883 2.684397,10.68824 0.845883,2.83172 0.783164,2.66761 1.555612,5.4971 1.060569,3.79666 1.489541,7.72027 2.204908,11.58441 0.39947,2.00242 1.818129,3.46608 3.004497,5.04475 1.511483,2.03066 2.354458,4.37147 2.841308,6.82912 0.0097,0.7049 0.367993,1.43894 0.310644,2.1509 -0.0037,0.046 -0.08739,-0.0415 -0.113099,-0.0798 0.600938,0.23046 1.056455,0.8519 1.367941,1.43379 0.247542,0.76588 -0.09186,0.79517 -0.753462,0.95973 0.442304,0.59206 -0.394996,1.21757 -0.8373,0.62551 v 0 c -0.442219,0.008 -0.97558,0.0837 -1.336664,-0.23696 -0.21167,-0.2873 -0.432367,-0.48473 -0.757071,-0.66193 -0.951434,-0.89303 -1.547167,-1.96626 -1.94296,-3.2132 -0.774282,-1.93514 -1.632609,-3.84078 -2.721602,-5.62258 -1.234959,-1.98208 -2.623635,-3.87843 -3.608803,-6.00551 -1.650426,-3.64481 -2.912697,-7.44776 -4.175834,-11.24031 -1.702287,-5.5887 -3.229859,-11.22677 -4.155652,-17.0046 -1.172474,-6.74727 -2.134195,-13.52831 -2.909027,-20.33304 -0.997085,-8.30072 -2.19383,-16.584 -2.844405,-24.92061 -0.155723,-4.29632 -0.287122,-5.69148 -0.104573,-10.06003 0.313402,-7.50004 1.520027,-14.92878 2.81708,-22.309756 1.831872,-10.107683 3.891005,-20.184996 6.829616,-30.038407 2.142426,-7.282587 4.453877,-14.516984 7.293163,-21.562986 0.995169,-2.464752 1.359156,-3.441906 2.435129,-5.822971 0.913625,-2.0218 1.878285,-4.079716 3.265932,-5.83153 0.25654,-0.323866 0.568341,-0.599827 0.852509,-0.899737 0.613778,-1.332722 2.498529,-0.464709 1.884754,0.868011 z"
       inkscape:connector-curvature="0" />
    <path
       style="fill:#fffa99;fill-opacity:1;stroke:none;stroke-width:0.26458332;stroke-opacity:1"
       id="path1010"
       d="m 51.242983,34.891802 c 0.283702,0.253056 0.5842,0.488458 0.851112,0.759167 0.771991,0.782973 1.490117,1.710814 2.147938,2.582677 1.294204,1.71532 2.496671,3.499067 3.71961,5.265097 2.329415,3.495191 4.850492,6.849745 7.442943,10.151679 2.423142,2.955843 4.838227,5.937109 6.759329,9.25423 0.456708,0.788583 0.863426,1.605077 1.295136,2.407613 2.307838,4.394423 3.768772,9.148538 5.703427,13.703848 0.56253,1.038336 0.740161,1.527913 1.524084,2.38874 1.278359,1.403766 3.33992,2.496458 4.932963,3.508306 2.693946,1.764094 5.202042,3.839414 7.187192,6.391651 0.343816,0.442031 0.64734,0.913979 0.971011,1.37097 1.248444,1.800985 1.881274,3.913701 2.914586,5.826252 0.519353,0.802143 1.225682,1.449734 1.779804,2.226058 0.49406,0.84029 0.526344,2.47724 -0.741537,2.68887 -0.396454,0.0662 -0.794401,-0.12306 -1.191601,-0.18459 -0.179636,-0.0753 -0.939916,-0.92809 -0.725622,-1.12635 1.841373,-1.70356 1.45307,-2.0147 2.140743,-1.3438 -0.342307,0.48393 -1.43815,1.98103 -1.012626,0.62472 -0.08803,-0.42676 0.515503,-0.55126 0.603538,-0.1245 v 0 c 0.102079,0.0971 0.347467,0.15661 0.306234,0.29133 -0.330171,1.07885 -0.501642,1.17353 -1.063127,1.6287 -0.722329,0.3238 2.62456,-1.23507 1.208495,-2.1136 -0.337442,-0.0358 -0.682763,-0.18823 -1.012331,-0.10739 -0.559879,0.13734 -0.703815,0.692 -0.792318,1.14676 -0.0226,0.11604 0.102206,0.36063 -0.01585,0.3543 -0.04542,-0.002 -0.07732,-0.0479 -0.115975,-0.0719 -0.842573,-0.70722 -1.743421,-1.35463 -2.415688,-2.2418 -1.275265,-1.634268 -2.293575,-3.458112 -3.678928,-5.009171 -2.364224,-2.48045 -4.997079,-4.667226 -7.708849,-6.758353 -2.80166,-2.215597 -5.732045,-4.352271 -7.763068,-7.350175 -0.376651,-0.6062 -0.782323,-1.1953 -1.129946,-1.818597 C 71.274651,75.466847 69.983188,71.340667 68.309701,67.40976 67.55217,65.73163 67.112477,64.674191 66.241974,63.065024 64.904585,60.592795 63.207965,58.347167 61.444705,56.166929 58.715314,52.806261 56.01604,49.411209 53.595328,45.81848 c -1.662084,-2.662899 -3.699394,-5.888688 -4.298667,-9.017098 -0.07045,-0.367747 -0.06017,-0.746448 -0.09025,-1.119671 -0.558551,-1.440069 1.478015,-2.229978 2.036564,-0.789909 z"
       inkscape:connector-curvature="0" />
    <path
       style="fill:#fffa99;fill-opacity:1;stroke:none;stroke-width:0.26458332;stroke-opacity:1"
       id="path1012"
       d="m 96.940173,100.9717 c -0.128283,-0.37303 -0.302787,-0.73326 -0.38485,-1.1191 -0.467378,-2.197547 0.01807,-4.537913 0.849638,-6.5836 0.216247,-0.531974 0.492056,-1.037744 0.738082,-1.556615 1.667872,-2.772733 3.875987,-5.163794 5.853217,-7.714105 2.36141,-3.20463 4.9429,-6.224097 7.74123,-9.052382 1.65298,-1.432378 3.32717,-3.292689 5.57452,-3.727932 0.11409,-0.01651 0.38462,-0.156752 0.34227,-0.04954 -0.0778,0.196882 -0.62979,0.564455 -0.48476,0.410258 0.2263,-0.240601 0.42409,-0.544925 0.72957,-0.670541 0.59103,-0.243033 1.55914,-0.07147 2.19563,0.01405 1.21633,0.200549 2.4267,0.437356 3.63071,0.701932 1.0555,0.163078 1.83209,0.723442 2.55967,1.468921 1.10349,1.258147 2.63623,2.064287 4.03588,2.948075 3.12955,1.830628 6.02864,3.985514 8.8077,6.304912 2.7596,2.376644 5.37341,4.915691 7.9829,7.454265 2.1678,2.098003 3.98533,4.503383 5.71147,6.966307 1.25586,1.745144 2.27198,3.645105 3.46665,5.429155 0.67705,0.78181 0.75839,1.17567 0.65255,2.20848 0.35408,0.6369 -0.54662,1.13765 -0.90071,0.50075 v 0 c -1.1784,0.2268 -1.57945,0.0844 -2.53799,-0.70769 -1.74583,-1.52488 -3.11214,-3.38908 -4.4239,-5.290171 -1.61023,-2.227971 -3.27448,-4.420451 -5.46376,-6.124236 -2.80136,-2.304216 -5.59536,-4.616661 -8.2798,-7.057974 -2.66894,-2.311927 -5.4716,-4.460984 -8.11295,-6.80361 -1.27372,-1.275868 -2.5157,-2.601373 -3.23874,-4.281196 -0.0271,-0.05119 -0.0507,-0.104421 -0.0813,-0.15357 -0.0209,-0.03351 -1.28651,0.03275 -1.3012,-0.0254 -1.30213,-0.122444 -2.5694,-0.416301 -3.78212,-0.914709 -0.12978,-0.05214 -0.26098,-0.10087 -0.38933,-0.15643 -0.99901,-0.432446 1.60153,0.07418 0.87374,-0.867254 -0.13656,-0.176638 -0.88639,0.643525 -0.3954,0.540639 -0.11346,0.48314 -0.44915,0.906373 -0.7347,1.299107 -0.83554,1.149189 -1.74783,2.242214 -2.65444,3.334943 -2.58176,2.966739 -5.19369,5.907693 -7.88123,8.779399 -2.02855,2.126779 -4.24402,4.162769 -5.71967,6.732024 -0.59412,1.207172 -0.67028,1.266814 -1.11269,2.556481 -0.56012,1.632783 -0.843198,3.340695 -1.407131,4.971307 0.166211,1.73859 -2.292525,1.97365 -2.458736,0.23506 z"
       inkscape:connector-curvature="0" />
    <path
       style="fill:#fffa99;fill-opacity:1;stroke:none;stroke-width:0.26458332;stroke-opacity:1"
       id="path1014"
       d="m 153.40923,104.29334 c 0.0947,-0.38951 0.14769,-0.7916 0.28407,-1.16855 1.18405,-3.272547 3.95385,-5.607047 6.57245,-7.72156 2.94852,-2.218577 6.20074,-4.010435 9.76691,-4.985967 0.6461,-0.141605 1.30812,-0.236863 1.96982,-0.162825 0.0827,0.0093 0.16297,0.03409 0.24451,0.05087 0.0493,0.01016 0.18369,-0.0058 0.14815,0.02993 -0.11227,0.112789 -0.27615,0.158258 -0.41422,0.237389 0.37936,-0.637138 0.93374,-1.107038 1.51713,-1.550823 1.0606,-0.773515 2.22627,-0.917821 3.49781,-0.952127 1.61874,0.323588 3.01695,1.27967 4.40618,2.122596 3.00029,1.880925 6.05718,3.667051 9.03991,5.576125 3.65888,2.325709 6.61445,5.495082 9.60226,8.588532 2.34656,2.59031 5.47639,4.10574 8.4808,5.76884 3.13704,1.71633 6.04199,3.80558 9.15726,5.55795 2.49437,1.43291 5.26002,2.07899 8.07067,2.5186 2.76573,0.30702 5.50882,0.77228 8.21264,1.42835 2.25356,0.65261 4.56508,1.00445 6.88191,1.33577 2.07674,0.30445 4.1547,0.61734 6.15341,1.27242 1.10543,0.35356 2.00764,0.96197 2.66338,1.9168 0.17359,0.33475 0.14359,0.23472 -0.0532,0.0328 -0.20056,-0.2057 -0.15699,-0.16883 0.0933,-0.15898 0.49336,0.007 0.82951,0.27993 1.16114,0.61197 0.37709,0.7246 0.37845,1.19266 -0.0371,1.82752 -0.9139,1.42461 -2.9286,0.13215 -2.0147,-1.29246 v 0 c -0.23939,0.39476 -0.0849,0.38962 0.18754,0.94969 0.30048,0.30337 0.3861,0.3579 -0.0497,0.31842 -0.63304,-0.0525 -1.10109,-0.42442 -1.53621,-0.86092 -0.48679,-0.33907 -1.23691,-0.12013 -1.7752,-0.25555 -2.09109,-0.13916 -4.1704,-0.37717 -6.229,-0.78048 -2.35628,-0.39842 -4.69672,-0.87447 -7.03782,-1.35275 -2.7126,-0.4446 -5.43523,-0.81668 -8.15101,-1.23994 -3.21145,-0.54475 -6.37943,-1.29541 -9.28158,-2.83668 -3.15598,-1.69994 -6.08616,-3.75685 -9.17265,-5.57535 -3.28029,-1.84511 -6.55109,-3.73953 -9.26127,-6.39433 -3.00876,-2.79348 -6.06954,-5.52104 -9.43473,-7.887931 -2.77112,-2.154724 -5.55095,-4.312864 -8.07036,-6.764427 -0.72507,-0.719588 -1.64317,-1.867242 -2.55898,-2.313813 0.1126,-0.01042 0.22489,-0.02508 0.33781,-0.03123 0.0757,-0.0041 -0.15293,0.0054 -0.22616,0.02516 -0.51915,0.139928 -0.98996,0.462097 -1.48731,0.656053 -0.56035,0.261641 -1.1504,0.632497 -1.75073,0.755076 -0.17069,0.112519 -0.35344,0.208597 -0.51207,0.33756 -0.0173,0.0141 0.0519,0.0091 0.06,0.02997 0.0103,0.02662 -1.4e-4,0.06034 -0.0159,0.08412 -0.2482,0.374285 -0.73095,0.577151 -1.03388,0.884303 -2.68967,1.978594 -5.50138,3.782836 -8.23634,5.697032 -1.26542,0.911871 -2.12459,1.506607 -3.33899,2.476607 -1.33398,1.0655 -2.55446,2.24584 -3.83855,3.36692 -0.27896,0.24354 -0.57165,0.4709 -0.85747,0.70635 -0.62017,1.50883 -2.75398,0.63178 -2.13381,-0.87706 z"
       inkscape:connector-curvature="0" />
    <path
       style="fill:#fffa99;fill-opacity:1;stroke:none;stroke-width:0.26458332;stroke-opacity:1"
       id="path1016"
       d="m 49.731149,219.33469 c -0.05598,-0.42364 -0.145185,-0.8442 -0.167931,-1.27092 -0.216739,-4.06586 0.889727,-8.16093 2.058445,-12.00735 1.129038,-3.24173 2.561823,-6.38407 4.374854,-9.30283 1.047622,-1.68654 1.402537,-2.08703 2.580819,-3.6524 2.35059,-3.04509 5.20065,-5.64239 8.052314,-8.20409 2.184437,-1.98304 4.434377,-3.89359 6.553051,-5.94787 1.329791,-1.24669 2.193179,-2.78266 2.893616,-4.43956 0.623485,-1.73502 1.47379,-3.35733 2.6577,-4.77139 0.521425,-0.57741 1.163656,-1.02847 1.588312,-1.68673 0.472625,-0.87886 1.002612,-1.72371 1.550466,-2.55711 0.627835,-1.11252 1.373257,-2.14837 2.128782,-3.17603 0.634918,-0.83874 1.213271,-1.71797 1.822789,-2.57488 0.530151,-0.77016 1.223703,-1.40222 1.832036,-2.10594 0.613402,-0.72286 1.202393,-1.46534 1.845116,-2.16292 0.43057,-0.29386 0.867323,-0.88268 1.405655,-0.98442 0.361471,-0.0683 0.735346,-0.0242 1.103021,-0.0362 -0.895511,-2.66438 -0.865833,0.39785 -1.290846,0.28227 -0.08588,-0.0234 0.458764,-1.12594 0.473779,-1.15655 0.47921,-0.95049 1.066969,-1.83492 1.73964,-2.65768 0.256765,-0.48397 1.007767,-0.71503 1.225013,-1.19867 0.16858,-0.60862 0.259027,-1.23676 0.407874,-1.85116 0.346715,-1.53858 0.450273,-0.74457 2.764623,-0.28762 -0.0061,0.008 -0.123094,0.21146 -0.194646,0.18868 -0.03942,-0.0126 -0.05916,-0.0635 -0.06788,-0.10389 -0.08228,-0.38173 -0.39883,-0.81576 -0.20321,-1.15371 0.07506,-0.12969 0.755909,0.40435 1.291323,0.80032 1.538734,1.42054 2.750486,3.15259 4.062516,4.77618 1.83223,2.36181 3.94114,4.47923 6.17591,6.45616 2.52149,2.09654 5.14272,4.06586 7.66754,6.15865 2.09144,1.69013 3.88327,3.68858 5.67424,5.68095 1.07642,1.24594 2.30469,2.3302 3.63979,3.28792 1.33674,0.83515 2.49644,1.84377 3.47171,3.07832 0.67475,0.91702 1.17526,1.94253 1.81435,2.88249 0.29216,0.44534 0.75205,0.67787 1.21736,0.90041 0.35284,0.18195 0.07,0.001 -0.53709,0.0518 -0.0482,0.004 -0.18813,0.13979 0.12667,0.0912 0.56581,-0.23433 1.13938,-0.59901 1.74591,-0.71257 0.25522,-0.0478 0.51848,-0.0295 0.77772,-0.0442 0.50076,-0.49328 1.19837,0.21491 0.6976,0.7082 v 0 c -0.0819,0.23236 -0.1175,0.48674 -0.24578,0.69709 -0.3229,0.52951 -1.25229,1.08452 -1.85331,1.25738 -0.1732,0.10323 -0.41042,0.3033 -0.61121,0.32289 -0.54848,0.0535 -1.06138,0.003 -1.57985,-0.14949 -0.86316,-0.34054 -1.59791,-0.87047 -2.19164,-1.59022 -0.73171,-0.84341 -1.32482,-1.78701 -2.03773,-2.6457 -0.8828,-0.98292 -1.91212,-1.79912 -3.05666,-2.46238 -1.52575,-1.01792 -2.98515,-2.12471 -4.3333,-3.37215 -1.92264,-1.71717 -3.87307,-3.40351 -5.96384,-4.91616 -2.68744,-2.03011 -5.36638,-4.07737 -7.87654,-6.3269 -2.35996,-2.21631 -4.57436,-4.58539 -6.227202,-7.39179 -0.959082,-1.6115 -1.835864,-3.2712 -2.845964,-4.85143 -0.06183,-0.0973 -0.123669,-0.19453 -0.185502,-0.29179 -0.01132,-0.0387 -0.01402,-0.0811 -0.03399,-0.11606 -0.246791,-0.43269 -0.858642,-1.14668 -0.923574,-1.78331 2.643193,0.037 2.784669,-0.59389 2.656713,1.30762 -0.124039,0.83826 -0.359211,1.66269 -0.738793,2.42291 -0.312531,0.60836 -0.670597,1.18922 -1.047321,1.75999 -0.528016,0.80928 -1.045739,1.62522 -1.576576,2.43291 -0.255614,0.36217 -1.053533,1.58576 -1.438372,1.73269 -0.424231,0.16196 -0.885942,0.1998 -1.328913,0.2997 -0.558601,-0.0925 0.251836,0.0532 0.780638,-0.0665 0.124949,-0.0283 0.518768,-0.52683 0.36908,-0.12849 -0.04171,0.11099 -0.09023,0.2193 -0.135342,0.32895 -0.54074,0.92422 -1.21811,1.7452 -1.978623,2.49887 -0.552307,0.5249 -1.110414,1.05658 -1.511567,1.71098 -0.553633,0.92192 -1.084527,1.85664 -1.679123,2.7532 -0.701326,1.04959 -1.385673,2.11001 -2.087359,3.15935 -0.605036,0.85051 -1.214027,1.70002 -1.892715,2.49411 -0.456774,0.55081 -0.860237,1.13308 -1.1522,1.79049 -0.708718,1.44743 -1.34725,2.92871 -2.044599,4.38169 -0.869021,1.94499 -1.730666,3.90583 -3.027931,5.61477 -1.846924,2.45542 -3.968057,4.68185 -6.249326,6.73951 -2.554425,2.40102 -5.145609,4.79085 -7.201173,7.65301 -0.936995,1.38874 -1.257157,1.80264 -2.085853,3.28223 -1.512319,2.70017 -2.609345,5.59812 -3.563699,8.53539 -1.433825,4.17043 -2.794421,8.50415 -5.359292,12.14081 -0.368416,1.90955 -3.068926,1.38853 -2.700509,-0.52102 z"
       inkscape:connector-curvature="0" />
    <path
       style="fill:#fffa99;fill-opacity:1;stroke:none;stroke-width:0.26458332;stroke-opacity:1"
       id="path1018"
       d="m 131.69098,181.33084 c -0.56978,-3.8294 1.06214,-7.39538 2.77644,-10.71191 1.28387,-2.36037 2.99508,-4.44078 4.45717,-6.68505 0.65404,-1.00394 1.27484,-2.02924 1.92699,-3.0344 1.91485,-3.00732 4.11322,-5.80367 6.66319,-8.29363 1.05155,-1.16619 2.57842,-1.76539 3.69557,-2.8391 0.59068,-0.85039 1.16257,-1.69628 1.88911,-2.43944 0.13692,-0.11509 0.26826,-0.23718 0.41077,-0.34528 0.2768,-0.20997 0.5398,-0.30935 0.84972,-0.44417 0.31556,-0.13728 0.42053,-0.22725 0.27809,-0.11324 -0.69994,0.541 0.002,-0.33085 0.20073,-0.47007 0.8571,-1.20287 2.97378,2.18484 1.43147,1.09622 -0.2256,-0.15924 -0.43913,-0.33494 -0.65869,-0.50241 0.0577,-0.0201 0.11533,-0.0403 0.173,-0.0604 0.23593,-0.3127 0.67815,0.0209 0.44222,0.33365 v 0 c -0.0173,0.0573 -0.0346,0.1145 -0.0519,0.17175 -1.01593,-0.22887 -0.76101,0.0307 -1.17618,-0.48088 -0.0554,-0.0682 -0.23845,-0.25057 -0.1615,-0.20821 1.99156,1.09624 1.292,1.60333 1.97238,1.01852 -0.20336,0.43026 -0.66872,0.63441 -1.00259,0.95379 -0.30672,0.19178 0.45068,-0.39282 0.0803,0.17991 -0.12582,0.19455 -0.33002,0.41429 -0.47778,0.584 -0.66501,0.72532 -1.36711,1.42143 -1.95595,2.21165 -0.85643,1.23737 -1.5802,2.56795 -2.51575,3.75271 -2.04167,2.67485 -4.15519,5.29801 -6.06141,8.07331 -2.12083,3.06161 -4.31531,6.08051 -6.04769,9.38966 -1.57784,3.04823 -2.97483,6.201 -4.75718,9.13595 -0.19301,1.68332 -2.57358,1.41037 -2.38057,-0.27295 z"
       inkscape:connector-curvature="0" />
    <path
       style="fill:#fffa99;fill-opacity:1;stroke:none;stroke-width:0.26458332;stroke-opacity:1"
       id="path1022"
       d="m 157.52269,143.61723 c 0.38083,0.0475 0.76869,0.0555 1.14251,0.14242 3.10425,0.72162 5.81361,2.67762 8.35495,4.49809 2.49092,1.97844 4.9706,3.95986 7.68722,5.6213 2.09641,1.20747 4.23733,2.32717 6.24421,3.68322 0.89376,0.56186 1.60027,1.37139 2.50063,1.91768 0.89913,0.49875 1.80197,0.97686 2.613,1.6122 0.58436,0.62103 0.33387,0.27672 0.74783,1.03554 1.06249,0.86743 -0.16424,2.37002 -1.22672,1.50259 v 0 c -1.13342,-0.13409 -0.60733,0.007 -1.58667,-0.38945 -0.76636,-0.48218 -1.39202,-1.13257 -2.17013,-1.58599 -1.0574,-0.43003 -2.16345,-0.73573 -3.19117,-1.24224 -2.23536,-1.02961 -4.4043,-2.19342 -6.57766,-3.34655 -2.92531,-1.6152 -5.8216,-3.29017 -8.53536,-5.24751 -1.57193,-1.14084 -3.13146,-2.28895 -4.60835,-3.55286 -0.54422,-0.46574 -1.68515,-1.48348 -2.19181,-2.06436 -0.2147,-0.24614 -0.38192,-0.52995 -0.57288,-0.79493 -1.26513,-0.96901 0.10527,-2.75817 1.3704,-1.78915 z"
       inkscape:connector-curvature="0" />
    <path
       style="fill:#fffa99;fill-opacity:1;stroke:none;stroke-width:0.26458332;stroke-opacity:1"
       id="path1024"
       d="m 184.92269,159.59043 c 0.15484,-0.39009 0.2621,-0.8026 0.46453,-1.17025 1.70338,-3.09374 5.09474,-5.15701 7.97009,-7.01059 4.17339,-2.53725 8.3538,-5.06302 12.52327,-7.60675 3.29958,-1.8494 6.24455,-4.17803 9.07642,-6.66332 1.72762,-1.54401 3.50936,-3.04126 5.47447,-4.27827 1.25327,-0.7889 1.65223,-0.95079 2.96502,-1.61127 2.39965,-1.06296 4.86142,-1.9614 7.15309,-3.25056 1.86112,-1.28298 3.72862,-2.50699 5.78891,-3.44676 2.13263,-0.88802 4.40588,-1.22424 6.69146,-1.39638 1.52205,-0.0175 3.08181,-0.12037 4.5947,0.084 0.72898,0.11875 1.46302,0.13074 2.19897,0.12935 -1.35783,0.0784 0.0968,-0.11758 0.30495,0.02 0.0431,0.0285 0.0557,0.0871 0.0835,0.13069 0.026,0.166 0.052,0.33201 0.078,0.49802 1.07192,-0.99483 2.47882,0.52109 1.4069,1.51592 v 0 c 5.3e-4,0.18311 0.001,0.36622 0.002,0.54934 -0.53926,0.76284 -1.97903,0.5112 -2.72395,0.58501 -0.79276,-0.002 -1.58295,-0.0732 -2.37561,-0.085 -0.9458,0.0415 0.0518,-0.0125 0.13805,0.0358 0.12086,0.0677 -0.27731,0.0135 -0.41414,0.0352 -0.59807,0.095 -1.17885,0.29786 -1.77725,0.39247 -1.93298,0.4302 -3.87294,0.83547 -5.79094,1.32816 -0.69721,0.21553 -1.12501,0.31704 -1.77797,0.63555 -1.23675,0.60327 -2.24872,1.55595 -3.33154,2.38346 -2.21906,1.64254 -4.65061,2.88739 -7.19814,3.94638 -1.08945,0.54062 -1.43733,0.68071 -2.47547,1.32776 -1.78138,1.11028 -3.34721,2.51425 -4.88153,3.93665 -2.88133,2.73525 -5.76642,5.48536 -9.01228,7.79329 -4.0619,2.86911 -8.30634,5.44842 -12.71136,7.75998 -1.86796,1.0118 -3.74893,2.00179 -5.57654,3.08591 -0.90142,0.53471 -1.77546,1.11497 -2.68075,1.6431 -0.31012,0.18091 -0.63065,0.34335 -0.94598,0.51502 -1.28128,2.29141 -4.52182,0.4794 -3.24054,-1.81201 z"
       inkscape:connector-curvature="0" />
    <path
       style="fill:#fffa99;fill-opacity:1;stroke:none;stroke-width:1.42903125;stroke-opacity:1"
       d="m 192.31154,156.20109 c -7.48104,3.13864 -6.36212,14.01439 -9.43942,20.53396 -9.58399,37.03441 -21.43137,73.65946 -26.2672,111.81574 -10.42511,69.18732 -23.11133,138.26076 -27.34659,208.18958 -0.68343,37.54567 7.44799,74.70586 9.54971,112.03849 2.17814,29.58306 2.27091,59.84428 12.57905,88.14059 8.02969,23.95818 11.37656,49.03751 17.03004,73.61996 6.22291,8.60461 10.52542,19.84173 19.5515,25.80909 8.2733,-0.81729 7.87829,-12.46144 11.1029,-18.37087 12.00253,-39.93981 44.83812,-67.89154 74.68753,-94.83606 15.17063,-12.46771 19.16256,-32.98107 32.33644,-47.11999 12.06965,-17.7924 24.35491,-35.46174 39.02187,-51.24363 4.54286,-7.88107 12.2584,-13.84996 14.88765,-22.71521 -0.63481,-7.03465 8.7414,-4.51404 10.92984,-0.32935 15.55601,18.45146 31.6706,36.82126 51.04726,51.24702 20.94354,17.4491 40.20724,36.94464 60.57349,55.1265 5.14284,4.20978 6.58124,14.66471 14.43545,14.25403 6.76815,-5.13334 3.31002,-15.92269 8.09412,-22.64402 12.72957,-26.01667 28.90108,-50.04796 47.57468,-72.10738 10.56047,-11.33823 22.38836,-21.43148 33.19908,-32.48264 3.83858,-1.38481 7.76955,-4.42646 5.98687,-9.00679 22.21744,1.38163 38.09966,19.12888 55.92682,30.38483 15.15562,10.35303 30.75589,19.2268 45.77164,29.48655 8.03173,3.32638 9.69228,-7.02781 14.00005,-11.09453 19.3665,-20.18225 45.88132,-31.14835 68.80078,-46.5836 27.64108,-14.83546 47.50217,-41.1826 77.0961,-52.70545 15.48155,-6.7336 30.64254,-15.21401 44.06379,-25.02551 -0.55652,-8.33763 -12.35425,-5.58924 -18.10292,-7.93224 -26.33269,-4.19056 -54.10669,-6.54051 -76.92207,-21.90995 -25.00862,-14.96397 -50.35624,-29.86397 -71.47042,-50.20824 -20.46194,-17.55141 -42.37382,-32.83103 -61.30948,-52.01774 -7.16251,-2.33648 -14.05278,4.78981 -20.06505,8.32578 -19.19886,15.35938 -42.27576,26.64407 -58.49818,45.52805 -1.20234,2.66876 -5.54996,2.51888 -7.67546,4.52991 -4.9538,-11.60568 -15.33274,-20.17143 -22.12989,-30.82466 -16.28074,-20.6717 -38.639,-35.4127 -57.99972,-52.97625 -12.12567,-9.33223 -23.22555,-19.90222 -32.73595,-31.82782 -6.27032,-3.77732 -14.31025,-4.92349 -21.44106,-5.27513 -9.42264,5.33004 -14.02039,16.45109 -22.00956,23.59644 -14.70578,18.23883 -33.68307,33.21437 -45.68521,53.50705 -6.06606,10.69575 -5.60839,24.44912 -12.98688,34.26047 -15.53715,-10.809 -22.82507,-29.83326 -38.11495,-41.14047 -19.22588,-17.77254 -43.96485,-30.7381 -54.16363,-56.29323 -12.33677,-29.23835 -23.64936,-59.66792 -44.95773,-83.8507 -12.55426,-15.34594 -23.7633,-31.75442 -34.87264,-48.0835 -1.06563,-1.06976 -2.48447,-1.89091 -4.05265,-1.78908 z"
       id="path1030"
       inkscape:connector-curvature="0"
       transform="scale(0.26458333)" />
  </g>
  <g
     inkscape:groupmode="layer"
     id="layer1"
     inkscape:label="lines 2">
    <path
       style="fill:#fffdd4;fill-opacity:1;stroke:none;stroke-width:0.26458332;stroke-opacity:1"
       id="path1043"
       d="m 58.724328,94.950713 c -0.134898,0.353769 -0.247605,0.716817 -0.40469,1.06131 -0.702138,1.539816 -1.669241,2.959343 -2.572176,4.383877 -1.214292,1.91576 -0.933165,1.47122 -2.176892,3.385 -1.708578,2.94802 -3.29838,6.00467 -4.477874,9.20907 -0.246036,0.66842 -0.448072,1.35222 -0.672108,2.02833 -0.895524,2.8477 -1.60496,5.75144 -1.889143,8.72778 -0.203759,2.13401 -0.157086,2.49418 -0.169328,4.64865 0.04875,4.93491 0.777687,9.8151 1.665793,14.65743 0.818877,3.00261 0.948761,6.30691 2.487427,9.06795 0.163084,0.18547 0.311171,0.3853 0.489251,0.55642 0.614551,0.59056 1.373585,1.03755 2.042856,1.55947 0.825582,0.64382 0.792282,0.65374 1.542185,1.39146 0.739201,0.91266 1.692108,1.99759 1.655498,3.26177 -0.0082,0.28342 -0.06106,0.56378 -0.0916,0.84567 0.3033,0.28158 -1.220941,1.78718 -1.477703,1.07286 -0.03762,-0.10466 0.008,-0.22229 0.01196,-0.33344 -0.0695,-0.1553 -0.139004,-0.31059 -0.208508,-0.46589 -0.318637,0.64862 -1.235916,0.19799 -0.917278,-0.45062 v 0 c -0.0344,-0.21338 -0.120637,-0.42471 -0.103193,-0.64015 0.03677,-0.45415 0.515109,-0.61719 0.228743,-0.65934 -0.450083,-0.0662 -0.762937,1.19319 -0.832057,1.08183 -0.01725,0.18881 -0.0013,0.38365 -0.05172,0.56643 -0.03448,0.12509 -0.273712,-0.0288 -0.372544,-0.11294 -0.464333,-0.39505 -0.877559,-0.84961 -1.349219,-1.23678 -1.596975,-1.3368 -3.379904,-2.45679 -4.786662,-4.01019 -0.861935,-1.04837 -1.104706,-1.25878 -1.802047,-2.47634 -1.4042,-2.45174 -2.210785,-5.18911 -2.903586,-7.9091 -0.190489,-0.83992 -0.403259,-1.6751 -0.571465,-2.51977 -0.876364,-4.40078 -1.151858,-8.89272 -1.144143,-13.37246 0.08316,-2.17174 0.06589,-3.19063 0.372102,-5.34366 0.471516,-3.31526 1.376384,-6.57511 2.610744,-9.6834 0.62724,-1.43843 1.225839,-2.86609 1.931794,-4.26872 1.328293,-2.63914 3.000365,-5.08553 4.776595,-7.44024 1.894348,-2.546035 3.934499,-5.269762 6.617568,-7.047569 0.352337,-0.23346 0.742394,-0.404267 1.113591,-0.606401 0.757809,-1.009634 2.185644,0.06207 1.427837,1.071703 z"
       inkscape:connector-curvature="0" />
    <path
       style="fill:#fffdd4;fill-opacity:1;stroke:none;stroke-width:0.26458332;stroke-opacity:1"
       id="path1059"
       d="m 57.835516,159.98442 c 0.302792,-0.37944 0.566672,-0.79352 0.908378,-1.13833 2.94934,-2.9762 7.157125,-4.74597 10.926974,-6.40308 3.940921,-1.66849 7.969065,-3.11636 11.988065,-4.58237 2.489845,-0.8954 4.917479,-1.94521 7.315112,-3.06092 1.739061,-0.92023 3.493617,-1.81247 5.232345,-2.73397 0.935823,-0.47825 1.835282,-1.02262 2.745046,-1.54767 0.90124,-0.51276 1.854293,-0.94013 2.892539,-1.05041 0.346345,-8e-4 0.188775,-0.006 0.472875,0.011 1.55967,-0.71244 2.56721,1.49327 1.00754,2.20571 v 0 c 2e-5,0.11698 0.0135,0.0412 -0.14997,0.1756 -0.7897,0.45875 -1.68578,0.66738 -2.552741,0.93355 -0.895331,0.3293 -1.456682,1.12434 -2.182317,1.71217 -1.658268,1.31497 -3.465539,2.36783 -5.422689,3.18306 -2.37813,1.09471 -4.785002,2.13829 -7.066647,3.42842 -3.655857,2.06209 -7.346466,4.06503 -11.159072,5.82621 -2.462329,1.13214 -4.932442,2.24861 -7.470672,3.2037 -1.365461,0.51379 -2.967942,1.06939 -4.406717,1.39183 -0.520557,0.11667 -1.054026,0.16552 -1.581039,0.24828 -1.27476,1.05854 -2.77177,-0.74424 -1.49701,-1.80279 z"
       inkscape:connector-curvature="0" />
    <path
       style="fill:#fffdd4;fill-opacity:1;stroke:none;stroke-width:0.26458332;stroke-opacity:1"
       id="path1061"
       d="m 61.276875,93.97585 c 3.191359,-0.166746 6.07737,1.506736 8.712792,3.113532 2.651467,1.706406 4.998342,3.821318 7.394803,5.856828 1.246693,1.02562 2.589683,1.96237 4.144243,2.45346 0.907068,0.28654 1.572003,0.36598 2.513787,0.52781 2.191155,0.25676 4.402125,0.40209 6.565032,0.86073 1.424432,0.30204 1.761959,0.4517 3.118088,0.89627 2.050926,0.79801 3.932918,1.93918 6.07703,2.47766 1.59944,0.3367 3.2364,0.47114 4.81658,0.89797 1.43532,0.19338 2.0483,2.57703 0.27874,2.88896 -0.94654,0.006 -0.60006,0.12779 -1.09688,-0.10796 -1.5727,-0.71494 -0.56163,-2.93907 1.01107,-2.22414 v 0 c -0.26404,-0.21522 -0.0591,-0.0853 -0.72406,-0.0743 0.71158,0.1909 0.42581,2.11496 0.26663,2.21922 -0.12117,0.0794 -0.6701,0.12294 -0.72386,0.12952 -1.84746,0.0949 -3.692336,-0.1038 -5.466838,-0.64293 -2.080641,-0.67245 -4.134858,-1.45893 -6.302695,-1.81425 -3.204665,-0.57474 -6.448964,-0.97262 -9.597429,-1.82378 -2.83436,-0.85517 -5.512856,-2.04269 -7.804862,-3.96138 -2.363991,-1.84219 -4.698704,-3.7369 -7.287493,-5.26324 -1.374346,-0.819493 -2.76897,-1.594989 -4.161067,-2.383487 -0.707139,-0.400529 -1.584886,-0.87068 -2.229099,-1.389714 -0.232011,-0.186928 -0.422331,-0.42038 -0.633495,-0.630573 -1.418603,-0.798312 -0.28962,-2.804517 1.128983,-2.006206 z"
       inkscape:connector-curvature="0" />
    <path
       style="fill:#fffdd4;fill-opacity:1;stroke:none;stroke-width:0.26458332;stroke-opacity:1"
       id="path1063"
       d="m 106.31558,111.78194 c 1.53486,-3.6064 4.6783,-6.15724 7.74357,-8.44145 1.29886,-0.90564 2.6597,-1.72365 4.09197,-2.40065 0.49081,-0.232 1.05128,-0.50546 1.59523,-0.60151 0.0795,-0.0713 0.0105,0.31763 0.036,0.24063 0.0161,-0.0487 0.007,-0.10225 0.0107,-0.15338 0.0309,-0.13694 0.0422,-0.27985 0.0928,-0.41084 0.20493,-0.531276 0.28154,-0.538732 0.65687,-0.946658 0.71716,-0.624285 1.59478,-0.874848 2.5237,-0.935747 0.78862,-0.03789 0.95587,-0.05623 1.44473,0.413176 1.16816,0.971622 -0.20592,2.623649 -1.37408,1.652029 v 0 c 0.30924,0.37022 0.0636,0.2877 0.73266,0.29733 -0.50274,0.0898 -0.95539,0.38257 -1.47213,0.42042 -0.0377,-0.0168 -0.0897,-0.0163 -0.11317,-0.0503 -0.0423,-0.0614 -0.0294,-0.28227 -0.0615,-0.215 -0.16265,0.34073 0.0627,0.85516 -0.21037,1.17164 -0.82537,2.06399 -2.76145,3.42095 -4.32448,4.89901 -2.79424,2.44307 -5.5876,4.9861 -8.83825,6.80994 -1.23648,1.79195 -3.77067,0.0433 -2.53419,-1.74865 z"
       inkscape:connector-curvature="0" />
    <path
       style="fill:#fffdd4;fill-opacity:1;stroke:none;stroke-width:0.26458332;stroke-opacity:1"
       id="path1067"
       d="m 103.91964,138.43608 c 3.3073,1.21237 6.00444,3.50585 8.51194,5.91105 1.96598,1.86414 3.4597,4.12198 5.09933,6.25667 0.7103,0.95337 1.78915,1.39806 2.78293,1.98003 1.05604,0.68246 1.62933,1.1289 1.89395,2.38057 -1.15087,1.51876 -0.504,1.54201 -1.7578,0.82521 -0.83688,-0.32615 -0.37562,-1.50968 0.46126,-1.18352 v 0 c -0.88255,-0.7103 -0.40131,-0.60065 -1.23018,0.82411 0.0227,0.1108 0.0685,0.21929 0.0682,0.3324 -2.6e-4,0.0984 -0.20132,-0.017 -0.28861,-0.0625 -0.38932,-0.20298 -0.7577,-0.44614 -1.15032,-0.64333 -1.26116,-0.67487 -2.55037,-1.31366 -3.66281,-2.22804 -2.08263,-1.69094 -3.94826,-3.62225 -5.92499,-5.43236 -1.74381,-1.58582 -3.74878,-3.24743 -5.18868,-5.11587 -0.69056,-0.89608 -0.91179,-1.4374 -1.39289,-2.40002 -1.02133,-1.25773 0.75738,-2.70212 1.77871,-1.44438 z"
       inkscape:connector-curvature="0" />
    <path
       style="fill:#fffdd4;fill-opacity:1;stroke:none;stroke-width:0.26458332;stroke-opacity:1"
       id="path1069"
       d="m 121.89221,153.08521 c 1.86686,-3.22997 5.04259,-5.37201 8.17683,-7.24577 2.04575,-1.16427 4.27484,-1.92823 6.45479,-2.79064 1.76103,-0.7185 3.51523,-1.45464 5.30422,-2.10142 0.22387,-0.0657 0.4454,-0.13984 0.6716,-0.19695 0.11793,-0.0298 0.62133,-0.15294 0.80852,-0.0994 0.0438,0.0125 0.057,0.0714 0.0803,0.11051 1.19573,2.01317 1.89356,1.86542 0.93164,1.97796 -1.46887,-0.006 -1.16088,0.29814 -1.42027,-1.95507 -0.0189,-0.16406 0.85936,-0.86032 1.01429,-0.97867 0.212,-0.0731 0.65326,-0.63034 0.53971,-0.11562 0.15107,-0.38987 0.41248,-0.71834 0.69501,-1.02079 0.18223,-0.19097 0.41813,-0.31152 0.607,-0.49528 0.20127,-0.23949 0.43372,-0.44761 0.68598,-0.63149 0.20515,-0.13808 0.39387,-0.29656 0.57814,-0.46084 0.17714,-0.11428 0.31398,-0.27414 0.48021,-0.40267 -0.15044,0.0644 0.53485,-0.37275 0.41709,-0.25908 -0.78941,0.76204 -0.43577,0.32589 -0.27111,0.0843 0.19914,-0.24585 0.39825,-0.49058 0.62121,-0.71552 0.26189,-0.27086 0.59047,-0.4505 0.90373,-0.65184 0.11727,0.01 0.21322,-0.2144 0.31918,-0.18832 0.0214,0.005 -0.0318,0.0308 -0.0461,0.0476 -0.0776,0.0907 -0.136,0.20067 -0.22954,0.27479 -0.0388,0.0307 0.0375,-0.0917 0.0563,-0.13749 0.16156,-0.35707 0.44282,-0.62529 0.73512,-0.87604 0.28465,-0.25644 0.60355,-0.44374 0.96272,-0.57146 1.4836,-0.70546 2.48126,1.39267 0.99766,2.09813 v 0 c 0.27925,-0.13067 -0.056,-0.001 -0.10398,0.10224 -0.15429,0.13495 -0.30424,0.28268 -0.50098,0.35246 -0.15914,0.0329 -0.29744,0.30496 -0.40488,0.45356 -0.013,0.0179 0.21426,-0.2386 0.0627,0.008 -0.2621,0.35087 -0.56754,0.6686 -0.986,0.82569 -0.17408,0.0686 -0.32938,0.11575 -0.4331,0.2871 -0.19405,0.17674 -0.39681,0.34436 -0.58215,0.53021 -0.0242,0.0243 0.14296,-0.0877 0.11975,-0.10684 -0.13712,0.0782 -0.21218,0.22632 -0.33376,0.32532 -0.23396,0.23167 -0.43693,0.49698 -0.71041,0.68685 -0.1814,0.12627 -0.37443,0.16961 -0.53279,0.32094 -0.17092,0.17393 -0.29447,0.37839 -0.45845,0.5581 -0.0848,0.0866 -0.63461,0.69509 -0.52916,0.26204 -0.15075,0.46213 -0.39211,0.86492 -0.7662,1.18279 -0.0932,0.079 -0.90562,0.75903 -0.96252,0.66801 -1.17621,-1.88161 -0.0393,-1.65623 -1.55068,-1.64196 0.83608,-0.38701 0.28505,-0.17634 1.69738,1.77847 0.13862,0.19187 -0.63528,0.84412 -0.67322,0.87394 -0.18817,0.14786 -0.39262,0.27376 -0.58893,0.41064 -1.72132,0.95886 -3.53514,1.70052 -5.43203,2.24075 -0.59823,0.21653 -0.98837,0.33656 -1.55433,0.62302 -1.31697,0.66658 -2.41844,1.66465 -3.55751,2.58475 -2.78143,2.25421 -5.57788,4.64291 -8.92275,6.01284 -1.44129,1.67596 -3.81146,-0.36234 -2.37017,-2.0383 z"
       inkscape:connector-curvature="0" />
    <path
       style="fill:#fffdd4;fill-opacity:1;stroke:none;stroke-width:0.26458332;stroke-opacity:1"
       id="path1071"
       d="m 125.85623,101.42356 c 3.68128,0.0672 6.84531,1.28207 10.06439,2.95644 2.41727,1.30177 4.06528,3.08565 5.77039,5.16348 1.0432,1.40024 2.28805,2.61397 3.5616,3.79917 1.02625,0.86281 1.95389,1.82033 2.84052,2.82367 0.40672,0.5159 0.94444,0.86848 1.48214,1.22702 0.44447,0.24163 0.82555,0.55709 1.15227,0.94186 -0.003,0.10257 0.46865,0.47865 0.20105,0.32662 -0.13842,0.25083 -0.27685,0.50166 -0.41528,0.75249 0.14277,0.0842 0.0237,0.28613 -0.1191,0.20192 v 0 c -0.23208,0.2182 -0.46416,0.4364 -0.69624,0.65461 -0.32448,-0.17456 -0.56767,-0.43285 -0.7845,-0.72781 -0.17933,-0.21796 -0.38089,-0.30932 -0.66005,-0.3904 -0.81952,-0.3255 -1.54246,-0.81847 -2.19237,-1.41464 -0.97635,-0.87022 -1.92774,-1.76614 -2.86116,-2.6821 -1.3591,-1.23208 -2.65257,-2.52509 -3.81247,-3.94993 -1.60175,-1.77444 -3.34174,-2.85973 -5.59904,-3.68997 -3.07632,-1.21881 -6.33327,-2.30104 -8.83908,-4.54767 -1.0216,-0.6413 -0.11466,-2.08606 0.90693,-1.44476 z"
       inkscape:connector-curvature="0" />
    <path
       style="fill:#fffdd4;fill-opacity:1;stroke:none;stroke-width:0.26458332;stroke-opacity:1"
       id="path1081"
       d="m 150.14111,133.84046 c 0.82273,-1.91235 2.39804,-3.47353 4.34998,-4.2067 1.1418,-0.16746 0.40272,-0.207 1.76713,1.34445 -0.35122,0.96306 -1.71319,0.46637 -1.36198,-0.49669 v 0 c 1.46531,1.04219 1.21102,0.4734 1.47901,1.1429 -0.9649,1.55358 -2.41723,2.82337 -3.98084,3.74277 -1.07956,1.59333 -3.33286,0.0666 -2.2533,-1.52673 z"
       inkscape:connector-curvature="0" />
    <path
       style="fill:#fffdd4;fill-opacity:1;stroke:none;stroke-width:0.26458332;stroke-opacity:1"
       id="path1083"
       d="m 151.12554,117.1172 c 2.02947,0.47852 3.78812,1.64201 5.1507,3.19709 0.51982,0.82914 0.59573,0.89945 0.3812,1.83647 0.0456,1.12057 -1.53911,1.18508 -1.58473,0.0645 v 0 c -0.28958,0.23352 -0.38985,0.0784 -0.73956,-0.0971 -1.6971,-0.89806 -3.40078,-1.90086 -4.54408,-3.4881 -1.06974,-0.94503 0.26673,-2.45787 1.33647,-1.51284 z"
       inkscape:connector-curvature="0" />
    <path
       style="fill:#fffdd4;fill-opacity:1;stroke:none;stroke-width:0.26458332;stroke-opacity:1"
       id="path1087"
       d="m 156.90984,118.99568 c 1.85182,-1.94483 4.28947,-3.21106 6.74267,-4.22892 0.37797,-0.1201 0.75101,-0.25701 1.13392,-0.36032 0.42486,-0.11463 1.00923,-0.2403 1.47268,-0.21047 0.89448,0.0576 2.17863,1.45586 1.36313,2.18164 -0.0496,0.0233 -0.0945,0.0767 -0.14888,0.0698 -0.0672,-0.009 0.17014,-0.5687 0.12806,-0.80418 -0.0502,-0.2808 -0.29346,-0.49252 -0.39523,-0.759 -0.0186,-0.0487 0.0918,-0.11963 0.0486,-0.14871 -0.10005,-0.0672 -0.23792,-0.039 -0.35688,-0.0585 0.69076,-0.14894 1.40417,-0.1732 2.10892,-0.16947 1.07427,-0.0739 2.07997,0.20743 3.07972,0.56344 1.18511,0.53038 2.36017,1.06251 3.64276,1.29404 1.83138,0.20304 3.63107,0.54297 5.4059,1.03377 1.64608,0.51422 3.19905,1.27858 4.68961,2.13754 1.15757,0.75289 2.36779,1.40982 3.59471,2.03977 0.66947,0.26714 1.27857,0.75382 1.98078,0.94208 -0.009,2e-5 -0.0184,5e-5 -0.0276,8e-5 -0.25439,0.0229 -0.50878,0.0459 -0.76317,0.0688 1.95396,-0.65846 2.88515,2.10485 0.9312,2.76331 v 0 c -1.0289,0.0924 -0.61296,0.0832 -1.24539,0.0823 -1.06811,-0.11027 -2.07837,-0.42986 -3.04505,-0.90139 -1.28928,-0.60276 -2.48787,-1.36027 -3.72739,-2.05577 -1.36334,-0.66787 -2.76869,-1.21362 -4.23848,-1.60627 -1.7193,-0.53123 -3.47347,-0.97588 -5.13313,-1.67918 -1.24619,-0.5501 -2.48384,-1.11288 -3.62289,-1.86859 -0.26957,-0.15802 -0.55057,-0.36016 -0.85453,-0.45038 -0.12287,-0.0365 -0.51173,-0.0307 -0.38367,-0.0253 0.11832,0.005 0.23684,0.003 0.35527,0.004 -0.66606,0.0321 -1.32052,0.16983 -1.9883,0.17208 -0.16545,-0.002 -1.15606,0.0945 -1.45174,-0.16421 -0.88936,-0.77834 -1.00552,-1.4628 -0.17223,-2.25327 0.0854,-0.0391 0.18519,-0.17864 0.2562,-0.11719 0.62535,0.54121 1.95128,1.24034 1.53083,1.95252 -0.19778,0.33499 -0.68149,0.70235 -0.96068,0.89959 -0.30107,0.21271 -0.62129,0.39694 -0.93193,0.59542 -2.40234,1.29087 -4.95077,2.43221 -7.65361,2.89896 -1.29965,0.96459 -2.66379,-0.8734 -1.36414,-1.838 z"
       inkscape:connector-curvature="0" />
    <path
       style="fill:#fffdd4;fill-opacity:1;stroke:none;stroke-width:0.26458332;stroke-opacity:1"
       id="path1089"
       d="m 157.16848,129.93302 c 2.3943,0.22487 4.36695,1.61478 6.31581,2.897 0.99283,0.75788 1.99779,1.00549 3.19139,1.19194 1.27654,0.12924 2.34807,0.73646 3.36116,1.48115 0.36484,0.28597 0.70074,0.60326 1.00956,0.94823 0.0543,0.0607 0.1053,0.12424 0.15931,0.18517 0.0163,0.0184 0.0724,0.0657 0.0515,0.0527 -0.0466,-0.029 -0.0864,-0.0676 -0.12963,-0.10139 -0.3411,-0.032 -0.68219,-0.0641 -1.02329,-0.0961 -0.0851,0.0442 -0.17018,0.0883 -0.25528,0.13247 5.3e-4,0.002 -2.6e-4,0.007 0.001,0.006 0.22218,-0.15054 0.4324,-0.2579 0.67961,-0.36716 0.39806,-0.11101 1.15437,-0.12121 1.43752,0.20371 0.14278,0.16383 -0.0393,0.43286 -0.059,0.64929 0.62768,0.25309 0.26976,1.14075 -0.35792,0.88766 v 0 c -0.38047,0.82844 -0.3484,0.59291 0.30592,0.84988 -0.0963,-0.35144 -1.87737,1.41941 -2.11982,0.26009 -0.72534,-0.32862 -1.41263,-0.72908 -2.03446,-1.23016 -0.67178,-0.47018 -1.35096,-0.78682 -2.18836,-0.83126 -1.52892,-0.18613 -3.00921,-0.57468 -4.40265,-1.24864 -1.99539,-0.91669 -4.05224,-1.89135 -5.57953,-3.51098 -1.66825,-1.1574 -0.0315,-3.51666 1.6368,-2.35927 z"
       inkscape:connector-curvature="0" />
    <path
       style="fill:#fffdd4;fill-opacity:1;stroke:none;stroke-width:0.26458332;stroke-opacity:1"
       id="path1091"
       d="m 169.14161,135.69796 c 1.62271,-3.02753 4.60244,-4.91107 7.59741,-6.38969 1.8028,-0.86308 3.76373,-1.20516 5.70014,-1.60958 1.1573,-0.26662 2.22681,-0.78515 3.24777,-1.37828 0.14822,-0.12214 1.53453,-0.95947 1.63823,-0.86235 0.0407,0.0382 -0.009,0.1113 -0.013,0.16695 0.90804,0.34802 1.76475,0.88511 2.72412,1.04406 0.20456,0.0339 -0.008,-0.43334 -0.11374,-0.61157 -0.18101,-0.30445 -0.39073,-0.64559 -0.71646,-0.78471 -0.65386,-0.27925 -1.48468,0.25623 -0.8773,-0.10424 1.14867,-0.48519 0.73563,-0.43777 2.12046,0.62863 0.60616,0.71862 -0.41012,1.57587 -1.01629,0.85724 v 0 c 0.34242,0.25407 0.66463,0.53791 1.02725,0.76222 0.0379,0.0234 0.29322,-0.16148 0.0313,0.0505 -0.0627,0.0507 -0.13013,0.0953 -0.19519,0.14295 -0.65987,0.35035 -1.22155,0.71382 -2.08913,0.47478 -0.41179,-0.11347 -0.73455,-0.47144 -0.98958,-0.81409 -0.17103,-0.22977 -0.518,-0.80861 -0.23217,-0.82736 0.94334,-0.0619 1.83855,0.44112 2.75782,0.66167 -0.21936,0.85752 -0.88401,1.44077 -1.57291,1.96125 -1.25908,0.88423 -2.62848,1.52864 -4.13145,1.8883 -0.58164,0.16952 -1.20033,0.32335 -1.75119,0.58135 -0.86513,0.40519 -1.63116,1.00363 -2.42838,1.519 -2.5628,1.78197 -5.13272,3.69067 -8.02512,4.89595 -1.59308,1.90392 -4.28563,-0.34903 -2.69255,-2.25295 z"
       inkscape:connector-curvature="0" />
    <path
       style="fill:#fffdd4;fill-opacity:1;stroke:none;stroke-width:0.26458332;stroke-opacity:1"
       id="path1095"
       d="m 55.959221,158.65954 c 1.754695,-0.11945 3.61728,0.16163 5.166611,1.02558 1.053386,0.87508 -0.08867,0.96045 -1.265108,2.83539 -1.451689,-0.91757 -0.154045,-2.97057 1.297644,-2.053 v 0 c -1.113549,2.46046 -0.337159,2.61299 -1.842889,2.7393 -1.712756,-0.0834 -3.426217,-0.67343 -4.865219,-1.59754 -2.085766,-1.067 -0.576805,-4.01672 1.508961,-2.94973 z"
       inkscape:connector-curvature="0" />
    <path
       style="fill:#fffdd4;fill-opacity:1;stroke:none;stroke-width:0.26458332;stroke-opacity:1"
       id="path1099"
       d="m 122.2547,104.98881 c -0.77488,-0.002 -3.15744,-0.19766 -3.42022,-1.18283 -0.0458,-0.17186 0.025,-0.35485 0.0375,-0.53227 -1.92333,-1.14718 -0.30097,-3.867173 1.62236,-2.71999 v 0 c 0.11962,-0.13941 0.20506,-0.31776 0.35885,-0.41822 0.8142,-0.531843 2.74132,0.27137 3.46071,0.70812 2.93109,1.4561 0.87186,5.60129 -2.05923,4.14519 z"
       inkscape:connector-curvature="0" />
    <path
       style="fill:#fffdd4;fill-opacity:1;stroke:none;stroke-width:1.42903125;stroke-opacity:1"
       d="m 222.81466,356.73777 c -7.13046,2.21806 -7.67799,11.97767 -12.29595,16.76945 -24.74045,36.41658 -42.55562,80.2217 -37.9636,125.08354 2.38235,24.08199 5.49035,48.47826 12.95401,71.55553 5.5741,12.28704 19.11477,18.41314 25.20343,30.37251 8.84571,7.26228 18.71668,-2.80382 26.14401,-7.38241 39.45441,-22.47797 84.58416,-32.05366 123.84288,-55.10702 7.9665,-4.84187 16.60516,-6.81033 25.29831,-9.65155 3.09081,-6.00987 9.51639,-0.0336 14.00283,1.88678 17.49748,9.30824 29.2854,25.3817 41.81312,40.1273 5.43918,4.84942 12.20655,12.94275 19.71637,11.49676 14.03996,-21.29057 38.74993,-31.54904 61.64631,-40.54349 20.27957,-5.77379 36.1705,-20.61482 48.94991,-36.75569 4.32108,-10.85668 17.6309,-13.59871 27.41116,-8.64675 13.41268,5.41185 25.47687,15.70484 40.42037,16.15754 9.60921,-4.4356 15.66595,-14.57149 25.98758,-18.25357 13.54483,-6.66944 29.03204,-8.2872 42.22075,-15.79198 6.92833,2.15784 8.08798,-8.12859 1.99005,-9.81064 -20.64708,-12.51626 -44.7923,-17.05536 -66.03408,-28.25407 -14.379,-3.91402 -26.27537,8.80216 -39.76727,11.57181 -5.61195,1.73045 -14.72035,1.93418 -15.36488,9.3836 -8.0999,-4.2653 -15.71508,-10.45638 -24.85732,-11.66392 -22.98093,-14.48456 -37.42308,-40.74124 -64.30344,-49.26123 -8.84092,-2.67852 -17.17331,-10.73929 -26.40098,-9.86494 -5.11931,7.12352 -13.32383,2.58278 -20.07919,2.63172 -13.72713,9.4326 -25.69813,22.13273 -39.98518,31.38026 -7.56741,6.67615 -18.60791,1.94785 -27.91427,2.44102 -20.19081,-2.07766 -39.75247,-10.3417 -60.4592,-12.68977 -20.70785,-2.67034 -38.59387,-14.00241 -54.53355,-26.79101 -14.74906,-10.84217 -31.3946,-19.08883 -45.81682,-30.20557 -0.59098,-0.16966 -1.21203,-0.23586 -1.82536,-0.18421 z"
       id="path1101"
       inkscape:connector-curvature="0"
       transform="scale(0.26458333)" />
  </g>
</svg>
