<?xml version="1.0" encoding="UTF-8" standalone="no"?>
<!-- Created with Inkscape (http://www.inkscape.org/) -->

<svg
   xmlns:dc="http://purl.org/dc/elements/1.1/"
   xmlns:cc="http://creativecommons.org/ns#"
   xmlns:rdf="http://www.w3.org/1999/02/22-rdf-syntax-ns#"
   xmlns:svg="http://www.w3.org/2000/svg"
   xmlns="http://www.w3.org/2000/svg"
   xmlns:sodipodi="http://sodipodi.sourceforge.net/DTD/sodipodi-0.dtd"
   xmlns:inkscape="http://www.inkscape.org/namespaces/inkscape"
   width="2048"
   height="2048"
   viewBox="0 0 270.93334 270.93334"
   version="1.1"
   id="svg8"
   inkscape:version="0.92.4 (5da689c313, 2019-01-14)"
   sodipodi:docname="smoke.svg"
   inkscape:export-filename="C:\Users\panu-\PycharmProjects\nextgame\data\images\particles\smoke.png"
   inkscape:export-xdpi="10.923292"
   inkscape:export-ydpi="10.923292">
  <defs
     id="defs2" />
  <sodipodi:namedview
     id="base"
     pagecolor="#ffffff"
     bordercolor="#666666"
     borderopacity="1.0"
     inkscape:pageopacity="0.0"
     inkscape:pageshadow="2"
     inkscape:zoom="0.17494369"
     inkscape:cx="1250.3157"
     inkscape:cy="1219.7698"
     inkscape:document-units="mm"
     inkscape:current-layer="layer5"
     showgrid="false"
     units="px"
     width="1024px"
     inkscape:window-width="1920"
     inkscape:window-height="1017"
     inkscape:window-x="-8"
     inkscape:window-y="-8"
     inkscape:window-maximized="1" />
  <metadata
     id="metadata5">
    <rdf:RDF>
      <cc:Work
         rdf:about="">
        <dc:format>image/svg+xml</dc:format>
        <dc:type
           rdf:resource="http://purl.org/dc/dcmitype/StillImage" />
        <dc:title></dc:title>
      </cc:Work>
    </rdf:RDF>
  </metadata>
  <g
     inkscape:groupmode="layer"
     id="layer1"
     inkscape:label="lines 2"
     style="display:inline"
     transform="translate(0,135.46667)"
     sodipodi:insensitive="true">
    <path
       style="fill:#666666;fill-opacity:1;stroke:none;stroke-width:0.13229167;stroke-opacity:1"
       id="path911"
       d="m 82.372842,-92.703148 c -0.03489,0.09222 -0.01704,0.231478 -0.104677,0.276671 -0.170475,0.08791 -2.128972,0.582486 -2.194868,0.599915 -1.395033,0.368958 -2.771385,0.773 -4.144939,1.214915 -2.969981,0.954942 -5.620153,2.576469 -8.166781,4.340296 -2.975499,2.057403 -5.605626,4.531047 -8.145595,7.091511 -1.898582,2.064597 -3.916172,4.056991 -5.537611,6.357309 -0.283942,0.402827 -0.540677,0.824159 -0.811015,1.236238 -1.486253,2.519342 -2.429066,5.300808 -3.26449,8.089444 -0.76289,2.628417 -1.320037,5.310446 -1.672036,8.023379 -0.248641,2.226238 -0.410591,4.462032 -0.416781,6.702351 -0.0081,2.686071 -0.133789,5.367426 -0.36109,8.043372 -0.226268,2.754347 -0.827427,5.454752 -1.181271,8.192393 -0.296,2.038476 0.188158,3.105146 1.079109,4.868348 1.021434,1.835363 1.729135,3.81136 2.401964,5.793409 0.443661,1.532782 1.221259,2.910589 2.017766,4.278663 0.929906,1.500057 1.470304,3.175911 1.957751,4.858536 0.295197,1.135346 0.623157,2.249939 1.237682,3.2541161 0.692109,0.9231591 1.263322,1.8044121 1.697522,2.8788216 0.508914,1.3807665 0.542038,2.8425101 0.503068,4.2938992 -0.06799,1.2940639 0.01947,2.58689744 0.101389,3.8777599 0.129127,1.7178734 0.147262,3.4399141 0.118595,5.1614521 -0.03931,1.8271067 -0.239874,3.6444771 -0.466927,5.4560791 -0.258771,1.728999 -0.493927,3.461028 -0.618731,5.205267 -0.08801,1.593453 -0.09303,3.191417 -0.05021,4.786418 0.03021,1.442416 0.40196,2.840951 0.73781,4.234485 0.408272,1.589325 0.647704,3.212385 0.913764,4.829201 0.284901,1.598084 0.527912,3.202689 0.734332,4.812665 0.177742,1.440538 0.417703,2.870928 0.772503,4.278511 0.274717,1.039813 0.747371,1.991136 1.33061,2.887822 0.753501,0.902494 1.490063,1.80713 2.065942,2.834746 0.43226,0.732472 0.560932,1.578888 0.848865,2.366473 0.02991,0.05489 0.05062,0.115914 0.08973,0.16469 0.147423,0.183925 1.171908,0.7713 1.379107,0.905483 1.02131,0.720844 2.042658,1.456783 2.962789,2.305394 0.338449,0.538176 0.286445,0.728134 0.20252,1.357551 0.287332,0.121655 0.115279,0.528002 -0.172055,0.406347 v 0 c -0.939538,0.667676 -0.887231,0.67691 -2.039247,0.495763 -1.284658,-0.596067 -2.315256,-1.466361 -3.286421,-2.489425 -0.62075,-0.684358 -1.274486,-1.360448 -1.690193,-2.196095 -0.342771,-0.659646 -0.67739,-1.323829 -1.063648,-1.959848 -0.633854,-0.957553 -1.376186,-1.8347 -2.000838,-2.798299 -0.698504,-1.119175 -1.318047,-2.289519 -1.757219,-3.537003 -0.477799,-1.52445 -0.81276,-3.085717 -0.958359,-4.679117 -0.186325,-1.573504 -0.35206,-3.149838 -0.618502,-4.712639 -0.260441,-1.569284 -0.566945,-3.130828 -0.858807,-4.694516 -0.309557,-1.558224 -0.658347,-3.11486 -0.771206,-4.703458 -0.09084,-1.689378 -0.151692,-3.382592 -0.05132,-5.073359 0.105776,-1.808255 0.315129,-3.605795 0.617286,-5.392235 0.239671,-1.706179 0.433416,-3.4193959 0.467333,-5.1439104 0.03696,-1.6854091 0.05713,-3.3710563 0.139729,-5.0552484 0.0297,-1.32355165 -0.0094,-2.6446163 -0.02417,-3.9680092 0.0022,-1.1436324 0.04664,-2.3076774 -0.201553,-3.4307808 -0.307288,-0.9196916 -0.911751,-1.6660045 -1.482702,-2.4384437 -0.773294,-1.1563046 -1.391751,-2.3968125 -1.820652,-3.7234695 -0.511719,-1.47127 -0.974092,-2.972387 -1.716421,-4.348677 -0.869294,-1.511042 -1.837324,-2.973856 -2.460863,-4.612046 -0.73339,-1.874825 -1.412074,-3.772637 -2.271294,-5.595819 -0.840085,-1.985334 -1.528869,-4.014371 -1.527992,-6.200684 -0.03255,-2.862512 0.373266,-5.605165 0.918427,-8.410589 0.401281,-2.582942 0.703778,-5.178797 0.958303,-7.780211 0.192994,-2.289613 0.11797,-4.582504 0.218686,-6.876472 0.222973,-2.911686 0.69652,-5.794431 1.516355,-8.602139 0.885186,-3.070737 1.878419,-6.132956 3.476061,-8.919413 0.769323,-1.277641 0.924967,-1.587247 1.787435,-2.812702 1.383423,-1.965665 2.960793,-3.783653 4.546527,-5.586153 2.629898,-2.843114 5.451753,-5.521246 8.721719,-7.626648 2.86864,-1.802273 5.827511,-3.477679 9.006472,-4.676954 0.521879,-0.178997 1.037312,-0.378021 1.565636,-0.53699 2.484713,-0.747637 4.919954,-0.983683 7.4716,-0.442425 1.600948,0.462368 0.947061,2.726451 -0.653888,2.264084 z"
       inkscape:connector-curvature="0" />
    <path
       style="fill:#666666;fill-opacity:1;stroke:none;stroke-width:0.13229167;stroke-opacity:1"
       id="path917"
       d="m 81.370909,-94.702034 c 0.185438,-0.163142 0.353489,-0.348487 0.556314,-0.489425 1.305371,-0.90707 2.92328,-1.368958 4.458091,-1.683241 1.254785,-0.248863 2.538572,-0.270681 3.785882,-0.553333 1.439547,-0.192653 2.880005,-0.379206 4.320323,-0.566339 1.594605,-0.166527 3.221244,-0.210231 4.815604,-0.01522 1.007357,0.216561 1.987707,0.475176 3.021457,0.517401 1.64604,-0.04989 3.28515,-0.01393 4.92318,0.157908 1.37684,0.133323 2.67255,0.616024 3.97194,1.056167 1.02547,0.345678 2.10297,0.215471 3.16246,0.190715 1.28734,-0.06594 2.56382,0.112714 3.84092,0.235536 0.71669,0.02264 1.55497,0.121759 2.26247,-0.01391 0.0471,-0.009 -0.0886,-0.03686 -0.13291,-0.05529 0.26019,-0.0264 0.52038,-0.0528 0.78056,-0.07919 1.87683,-0.187483 3.73942,-0.486063 5.5983,-0.800918 1.85164,-0.345677 3.70989,-0.653123 5.5645,-0.982135 1.93132,-0.354417 3.84644,-0.785276 5.75374,-1.249973 1.64604,-0.420623 3.28042,-0.876914 4.95449,-1.173469 1.54758,-0.19769 3.09624,-0.35029 4.63122,-0.63505 2.00873,-0.45235 4.0411,-0.76357 6.08375,-1.01202 1.96532,-0.21575 3.93763,-0.35949 5.90964,-0.49756 1.73929,-0.13449 3.47931,-0.22834 5.22403,-0.19481 1.46666,2.6e-4 2.92617,0.15145 4.39166,0.16975 1.2455,-0.006 2.48032,0.11042 3.70064,0.35372 1.2097,0.25804 2.33269,0.785 3.48225,1.22423 1.42468,0.47274 2.85692,0.911288 4.24617,1.483259 1.57453,0.683534 3.05768,1.551319 4.5512,2.391734 1.43177,0.819129 2.92132,1.527312 4.40289,2.249778 1.52982,0.72702 3.02465,1.525848 4.43239,2.468549 1.40338,0.955994 2.65856,2.100874 3.91237,3.239797 1.11951,1.010039 2.24044,2.018116 3.4501,2.919691 1.24671,0.927311 2.61525,1.668291 3.9635,2.433295 1.46557,0.848204 2.87447,1.788623 4.30063,2.700179 1.32521,0.875379 2.72852,1.620254 4.09066,2.434208 1.34805,0.777646 2.57884,1.715575 3.70897,2.780988 1.22522,1.205814 2.24537,2.595839 3.18903,4.026835 0.82497,1.293834 1.65645,2.582725 2.51103,3.857187 0.79166,1.18186 1.53335,2.395604 2.32005,3.580792 0.82079,1.139699 1.68966,2.242963 2.51508,3.379294 0.83469,1.21384 1.62428,2.456898 2.31211,3.759854 0.65759,1.249464 1.17438,2.565185 1.69937,3.873848 0.58105,1.389335 1.16649,2.776198 1.70954,4.180951 0.61502,1.641687 0.98078,3.361838 1.33376,5.07495 0.39004,1.670984 0.65753,3.35998 0.78317,5.070438 0.0997,1.609532 0.0307,3.221263 0.18886,4.827073 0.20844,1.437627 0.33581,2.880166 0.33062,4.332862 -0.0317,1.232792 -0.13315,2.461883 -0.14856,3.695122 0.002,1.30592 0.0686,2.610643 0.0865,3.916309 0.0313,1.294317 -0.0678,2.586844 -0.25089,3.867195 -0.19336,1.124583 -0.47763,2.228289 -0.65362,3.356196 -0.14757,1.176803 -0.21587,2.360946 -0.33667,3.540384 -0.1379,1.106261 -0.49647,2.1562418 -0.93088,3.1759645 -0.39013,0.7246369 -0.64204,1.5005778 -0.89478,2.2796421 -0.27115,0.8609661 -0.51893,1.7257528 -0.9113,2.5405861 -0.33937,0.6034353 -0.66828,1.2069499 -0.90282,1.8594124 -0.27365,0.80008677 -0.41949,1.63407992 -0.64812,2.446999 -0.18054,0.4685639 -0.25526,0.9271397 -0.20841,1.4241595 0.15642,0.8881534 0.172,1.7864535 0.0895,2.682121 0.0303,0.4449498 -0.23594,0.8630312 -0.23537,1.2984957 0.18152,0.7722526 0.29112,1.5436321 0.32474,2.3368397 0.0191,1.066972 -0.14853,2.132185 -0.58883,3.107333 -0.25104,0.472996 -0.097,0.393568 0.0339,0.980612 0.20807,1.07782 0.12594,2.17379 -0.16729,3.225284 -0.0506,0.129739 -0.0947,0.262202 -0.15174,0.389202 -0.11426,0.254159 -0.32224,0.619469 -0.48539,0.835951 -0.11723,0.155536 -0.44911,0.619271 -0.39231,0.432978 0.077,-0.252492 0.30492,-0.43098 0.45738,-0.64647 -0.0862,0.422394 -0.29156,0.888577 -0.75237,1.011965 -0.12701,0.03401 -0.26199,0.02283 -0.39298,0.03425 -0.22782,-0.04926 -0.45566,-0.09853 -0.68349,-0.147783 -0.34228,0.730369 -1.37517,0.246314 -1.03289,-0.484055 v 0 c -0.15769,-0.171291 -0.31537,-0.342569 -0.47306,-0.51386 -0.0349,-0.137253 -0.092,-0.270722 -0.10462,-0.411771 -0.0139,-0.156105 0.0525,-0.660136 0.3229,-0.601835 0.16257,-0.238879 0.36897,-0.453192 0.48773,-0.716611 0.0731,-0.162057 -0.24273,0.260972 -0.34717,0.404813 -0.0587,0.08084 -0.0767,0.187536 -0.1394,0.265324 -0.0557,0.06906 -0.0784,-0.49747 -0.0753,-0.389665 0.0269,-0.857012 0.1233,-1.71155 0.18378,-2.566683 0.0747,-0.561605 0.19996,-1.134005 0.16799,-1.700822 -0.0549,-0.881578 0.022,-1.7676808 0.11537,-2.6439941 0.10201,-0.704334 0.20501,-1.4073981 0.3447,-2.1040328 -0.0298,-0.5040048 -0.23077,-0.9913673 -0.20175,-1.504024 -0.0209,-0.8580041 0.0704,-1.705663 0.16543,-2.557661 0.0464,-0.6882739 -0.0176,-1.3746428 0.0335,-2.06295632 0.14424,-1.05464243 0.4501,-2.07168758 0.93859,-3.02103908 0.30436,-0.6466178 0.6663,-1.2612066 0.9789,-1.9034667 0.30425,-0.7654013 0.41605,-1.5814504 0.70334,-2.3526791 0.30939,-0.8032247 0.71058,-1.5598048 1.08323,-2.3345947 0.27704,-0.7675302 0.4197,-1.5743622 0.49127,-2.3861372 0.12417,-1.280391 0.17616,-2.574443 0.47128,-3.831551 0.24393,-1.034385 0.58115,-2.048638 0.73892,-3.101678 0.10273,-1.156483 0.10704,-2.314961 0.0785,-3.475339 -0.0131,-1.344957 -0.004,-2.690407 0.0387,-4.034823 0.0474,-1.182317 0.12589,-2.364494 0.12468,-3.547905 -0.0722,-1.377358 -0.35301,-2.722335 -0.52925,-4.088291 -0.1535,-1.631932 -0.18022,-3.267636 -0.24817,-4.904523 -0.10545,-1.546991 -0.27191,-3.09026 -0.66092,-4.595746 -0.38224,-1.57656 -0.77971,-3.150405 -1.25385,-4.702257 -0.43515,-1.383163 -0.89162,-2.760441 -1.44611,-4.101263 -0.49628,-1.198645 -0.98113,-2.405143 -1.59966,-3.547793 -0.65623,-1.166322 -1.36223,-2.305763 -2.1468,-3.390721 -0.8537,-1.169981 -1.74572,-2.312729 -2.55693,-3.513171 -0.77462,-1.173629 -1.49105,-2.384998 -2.29901,-3.536611 -0.88652,-1.267345 -1.77919,-2.530448 -2.62671,-3.824467 -0.83846,-1.221394 -1.63647,-2.483642 -2.65089,-3.570197 -0.9549,-0.910781 -2.04163,-1.637009 -3.21858,-2.2351 -1.45178,-0.777052 -2.89262,-1.575514 -4.26287,-2.491691 -1.39399,-0.897045 -2.79895,-1.776629 -4.23271,-2.609134 -1.41433,-0.8723 -2.8121,-1.774026 -4.12584,-2.79417 -1.24587,-0.97988 -2.46159,-1.997888 -3.64021,-3.057923 -1.14836,-1.015686 -2.28686,-2.054467 -3.5661,-2.906187 -1.35567,-0.829583 -2.78789,-1.505575 -4.22423,-2.182749 -1.51512,-0.759766 -3.00909,-1.559873 -4.48392,-2.395324 -1.40474,-0.77859 -2.83254,-1.515885 -4.30584,-2.157514 -1.34267,-0.581182 -2.69435,-1.142061 -4.02004,-1.761565 -0.95568,-0.414555 -1.92815,-0.783051 -2.96844,-0.920954 -1.09534,-0.157066 -2.19734,-0.264591 -3.30474,-0.277944 -1.13685,-0.04899 -2.07605,-0.06982 -2.53821,0.02625 -1.67352,0.166283 -3.34194,0.379369 -5.02041,0.495059 -1.89732,0.137704 -3.803,0.217904 -5.68632,0.497368 -2.04531,0.313327 -4.08573,0.663243 -6.14987,0.83424 -1.53404,0.144639 -3.07176,0.240078 -4.60437,0.394469 -1.56519,0.274755 -3.05116,0.821564 -4.54779,1.344819 -1.99867,0.620736 -4.02761,1.141434 -6.11301,1.372377 -1.81912,0.237132 -3.63803,0.495208 -5.41217,0.976774 -2.03706,0.464965 -4.11027,0.818627 -6.20911,0.72019 -1.61326,-0.08755 -3.2291,-0.108028 -4.84019,-0.241071 -1.23595,-0.06539 -2.47464,-0.03728 -3.71096,-0.09771 -1.27966,-0.06301 -2.54155,-0.239457 -3.75861,-0.658352 -1.19305,-0.296593 -2.40349,-0.381561 -3.63153,-0.412791 -1.69479,-0.100227 -3.40913,-0.207642 -5.03804,-0.724997 -0.8346,-0.283261 -1.658607,-0.716804 -2.562105,-0.633806 -0.156941,0.0095 -0.313883,0.01903 -0.470824,0.02854 0.06575,0.0113 0.262728,0.02102 0.197262,0.03388 -0.192447,0.03779 -0.391313,0.0271 -0.586822,0.04262 -0.725211,0.05757 -1.450119,0.11936 -2.175297,0.177468 -1.505524,0.09373 -3.010207,0.253139 -4.520348,0.228427 -1.145512,-0.101882 -2.263739,-0.06823 -3.347451,0.371116 -1.709782,0.61361 -3.481405,1.2318 -5.311954,1.278303 -1.076705,0.673817 -2.029627,-0.848873 -0.952922,-1.52269 z"
       inkscape:connector-curvature="0" />
    <path
       style="fill:#666666;fill-opacity:1;stroke:none;stroke-width:0.13229167;stroke-opacity:1"
       id="path919"
       d="m 65.469061,52.32293 c 1.813589,0.569291 3.154954,1.930572 4.309616,3.37947 0.458507,0.621096 0.755728,1.293019 1.463183,1.647587 1.04072,0.395922 1.822962,1.158227 2.531401,1.989058 0.642734,0.841256 1.003183,1.842413 1.506963,2.762991 0.361096,0.509852 1.029221,0.714362 1.551689,1.033224 0.921586,0.57703 1.697626,1.34624 2.537378,2.031008 0.813262,0.626825 1.730505,1.099357 2.633353,1.581574 0.833434,0.460745 1.628525,0.972661 2.503636,1.352761 0.845333,0.244303 1.714656,0.392695 2.567536,0.612577 0.748938,0.195672 1.425634,0.582414 2.149614,0.841891 0.763147,0.209074 1.558178,0.204046 2.336816,0.32512 1.183728,0.185063 2.180638,0.788418 3.13775,1.471493 0.991654,0.775362 2.012668,1.507067 3.082677,2.169914 0.92834,0.540002 1.888903,1.021067 2.833417,1.53166 0.79304,0.473684 1.55217,0.993127 2.42018,1.320972 0.77083,0.222607 1.56098,0.36023 2.33083,0.588526 0.56422,0.22737 1.16694,0.30222 1.75523,0.433904 0.57561,0.102896 1.15495,0.189957 1.73828,0.233243 0.67035,0.04356 1.3393,0.107857 2.01099,0.124844 0.77525,-0.05558 1.55174,-0.05428 2.3284,-0.05642 1.05254,-0.03855 2.10261,-0.08362 3.15615,-0.06713 1.19613,0.04428 2.385,0.189826 3.57916,0.268632 0.80974,-0.0056 1.64052,0.104153 2.44829,0 0.0489,-0.0062 -0.0949,-0.02679 -0.14241,-0.04019 0.2466,-0.01138 0.4932,-0.02279 0.73979,-0.0342 1.71044,-0.05622 3.42117,0.01058 5.13168,0.02549 1.22459,0.04109 2.45015,0.01697 3.67521,0.01454 0.59825,-0.01045 1.32238,0.05415 2.41161,0.02932 0.85664,-0.0809 1.71182,-0.138893 2.57204,-0.161185 -2.50074,-0.257095 1.93376,0.08729 1.45402,0.01808 -0.31406,-0.04531 -0.71841,0.0037 -0.0964,-0.02527 0.22045,-0.01032 0.46094,-0.03402 0.68045,-0.05352 0.72679,-0.06951 1.4546,-0.123323 2.18431,-0.147995 1.00515,0.0074 2.00978,0.0082 3.01464,-0.01733 0.14,-0.0044 0.36535,0.115715 0.42,-0.01326 0.0527,-0.124394 -0.36643,0.106641 -0.40466,-0.02294 -0.0365,-0.123799 0.25666,-0.02782 0.38457,-0.0451 0.44941,-0.06068 0.89363,-0.151593 1.33848,-0.238363 1.14346,-0.217157 2.29916,-0.349833 3.45977,-0.426549 1.21733,-0.0452 2.43513,-0.0397 3.64739,-0.170471 1.27954,-0.190724 2.5427,-0.467174 3.82143,-0.664911 1.27337,-0.180551 2.56209,-0.17313 3.84082,-0.285856 1.24811,-0.08463 2.43718,-0.48842 3.62875,-0.837789 1.34908,-0.418254 2.73591,-0.677889 4.12753,-0.904823 1.38133,-0.168182 2.75255,-0.373261 4.10616,-0.697296 1.88453,-0.528624 3.7318,-1.174922 5.61658,-1.705861 1.54016,-0.376515 3.06932,-0.764342 4.52168,-1.407412 1.39076,-0.67519 2.73968,-1.430893 4.12271,-2.121336 1.27932,-0.631693 2.56401,-1.263584 3.75926,-2.045917 0.95543,-0.677453 1.62608,-1.653448 2.34128,-2.562503 0.86709,-1.154814 1.89466,-2.161911 3.06507,-3.00355 0.64195,-0.442119 1.34187,-0.782744 2.0434,-1.116515 0.39976,-0.232953 0.74927,-0.540081 1.11432,-0.822418 0.5137,-0.4259 1.09959,-0.725329 1.70831,-0.986975 0.49564,-0.22065 0.98197,-0.456605 1.4453,-0.739273 0.69424,-0.447331 1.44227,-0.792122 2.19326,-1.130062 0.75838,-0.344553 1.52249,-0.675322 2.28346,-1.013949 0.76552,-0.291042 1.46332,-0.721162 2.17025,-1.127641 0.96752,-0.529206 1.95487,-1.020763 2.93171,-1.532467 0.93913,-0.511122 1.84628,-1.07094 2.70427,-1.708904 0.75819,-0.554686 1.31469,-1.307822 1.85318,-2.064888 0.63266,-0.892003 1.28568,-1.768356 1.96009,-2.629032 0.65366,-0.88601 1.35489,-1.72884 2.11677,-2.523331 0.6212,-0.552146 1.07679,-1.18196 1.39593,-1.943074 0.36588,-1.003141 0.76464,-1.992537 1.23862,-2.949588 0.155,-0.502113 0.73383,-0.936215 0.70956,-1.490425 -0.11326,-0.9194 0.0123,-1.830824 0.19751,-2.730711 0.20346,-0.894318 0.54444,-1.747256 0.82496,-2.618158 0.1846,-0.726731 0.26132,-1.474007 0.41473,-2.207697 0.13376,-0.7137 0.41664,-1.381178 0.68425,-2.051301 0.1843,-0.359622 0.16264,-0.713555 0.17928,-1.104689 0.0552,-0.849616 0.29634,-1.661424 0.60488,-2.449459 0.17939,-0.322646 0.18239,-0.411546 0.1297,-0.75659 -0.10642,-1.037299 0.2544,-1.986386 0.73577,-2.882582 0.28412,-0.418254 0.5461,-0.87548 0.90035,-1.241875 -0.0419,0.511347 -0.1974,-0.484452 -0.20106,-0.503052 -0.11459,-0.570191 -0.0692,-1.152949 -0.12238,-1.728629 -0.0263,-0.201467 -0.0912,-0.153154 -0.19314,-0.310899 -0.22039,-0.394282 -0.29909,-0.924269 -0.0195,-1.320456 0.0954,-0.135149 0.2325,-0.235347 0.34875,-0.353033 -0.1934,-0.9906 1.20753,-1.264113 1.40092,-0.273513 v 0 c 0.23431,0.009 0.46858,0.06183 0.70217,0.04159 0.581,-0.05032 -0.0985,-0.0537 0.28007,-0.107606 0.0284,-0.0041 0.0563,0.01177 0.0844,0.01758 0.54512,0.493077 0.84685,1.171178 0.99288,1.883436 0.095,0.58883 0.12188,1.17897 0.0754,1.774402 0.002,0.571672 0.16433,1.14177 0.0155,1.709923 -0.15248,0.729945 -0.44753,1.407014 -0.8584,2.03032 -0.19688,0.303834 -0.40394,0.704016 -0.70017,0.912375 0.0484,0.676646 0.17557,1.350632 0,2.025651 -0.15921,0.673496 -0.39321,1.325033 -0.66999,1.959001 -0.15491,0.440571 -0.1486,0.927762 -0.23681,1.38479 -0.0907,0.715473 -0.24747,1.412941 -0.47657,2.097815 -0.21537,0.720778 -0.34635,1.45714 -0.45193,2.201452 -0.16725,0.874184 -0.40742,1.728854 -0.66412,2.580773 -0.1986,0.791725 -0.35753,1.589762 -0.42166,2.404956 -0.14042,0.833888 -0.39852,1.634027 -0.7213,2.415699 -0.39526,1.003327 -0.75588,2.023004 -1.23943,2.988733 -0.51029,1.034164 -1.07213,2.038959 -1.8996,2.859022 -0.67989,0.715685 -1.35209,1.441781 -1.9349,2.240505 -0.65357,0.862634 -1.29429,1.733629 -1.92901,2.609943 -0.7418,0.93472 -1.47855,1.88288 -2.35276,2.699504 -0.97177,0.809545 -2.02141,1.518867 -3.15425,2.086358 -0.99114,0.525264 -2.01156,0.990984 -3.03951,1.439532 -0.81119,0.37342 -1.62406,0.742818 -2.44135,1.102863 -0.76949,0.318108 -1.49462,0.731123 -2.25155,1.076656 -0.691,0.280498 -1.40633,0.492773 -2.08223,0.809228 -0.57415,0.280617 -1.10736,0.63959 -1.70789,0.865716 -0.4107,0.167865 -0.8555,0.266648 -1.21131,0.541761 -0.40783,0.293463 -0.82902,0.567029 -1.2215,0.880957 -0.51324,0.445188 -1.06219,0.846151 -1.5743,1.292794 -0.89739,0.803368 -1.76697,1.63486 -2.54488,2.557171 -0.91544,1.074711 -1.79692,2.188396 -2.85824,3.12637 -1.24859,1.035606 -2.60937,1.900595 -4.08127,2.588922 -1.42428,0.693049 -2.87964,1.31904 -4.31099,1.997339 -1.537,0.738545 -3.05883,1.523365 -4.68495,2.053934 -1.98564,0.622168 -4.00382,1.119677 -6.05083,1.496841 -1.44984,0.250759 -2.90703,0.442066 -4.37399,0.560268 -1.25659,0.139991 -2.48653,0.437872 -3.70536,0.769462 -1.38985,0.401875 -2.78462,0.811635 -4.22906,0.964393 -1.22737,0.09741 -2.45737,0.113506 -3.6838,0.21758 -1.31528,0.167759 -2.60376,0.485457 -3.91541,0.67769 -1.2921,0.144608 -2.58707,0.233257 -3.88859,0.174334 -1.04365,-0.0093 -2.08815,-0.0091 -3.11656,0.199668 -1.26511,0.192656 -2.53409,0.345096 -3.81832,0.233138 -0.51838,-0.02741 -1.03617,-0.06843 -1.55458,-0.09365 -0.10596,-0.0052 -0.42333,0.0025 -0.31808,-0.01072 0.14461,-0.01819 0.29148,-0.0028 0.43722,-0.0042 -0.66823,-0.0021 -1.3297,0.07537 -1.99149,0.164518 -0.78568,0.07013 -1.53858,0.07885 -2.33155,0.0708 -0.1092,-0.0013 -0.43678,-0.0062 -0.32762,-0.003 0.13966,0.004 0.2794,0.0038 0.4191,0.0057 -0.7824,-0.0071 -1.55459,0.142994 -2.32538,0.261871 -1.41086,0.211111 -2.83301,0.260866 -4.25951,0.215543 -1.22393,-0.0069 -2.44797,-0.04698 -3.67173,-0.01819 0.0672,0.0038 0.26863,0.0065 0.20154,0.01164 -0.93442,0.07172 -1.88613,0.07463 -2.82291,0.08926 -0.25824,0.004 -0.51651,0.0056 -0.77477,0.0082 -1.65131,-0.02671 -3.30509,-0.03989 -4.94993,-0.205859 -1.15706,-0.09581 -2.31338,-0.200991 -3.47256,-0.269108 -1.0371,-0.06249 -2.07679,-0.09295 -3.10962,-0.213704 -0.76601,-0.08026 -1.53348,-0.149437 -2.29082,-0.294587 -0.68752,-0.09411 -1.38008,-0.146566 -2.06257,-0.27735 -0.62834,-0.111072 -1.25575,-0.226655 -1.87274,-0.391477 -0.59474,-0.132504 -1.17686,-0.325001 -1.78285,-0.406771 -0.91062,-0.145137 -1.8259,-0.289507 -2.67391,-0.674079 -0.91242,-0.404376 -1.771475,-0.901488 -2.631099,-1.407041 -0.981492,-0.537157 -2.000693,-0.989819 -2.998724,-1.494843 -1.14965,-0.686315 -2.18454,-1.515202 -3.149931,-2.44299 -0.676885,-0.571196 -1.347036,-0.901383 -2.234378,-1.02702 -0.885878,-0.159173 -1.772083,-0.359569 -2.584908,-0.759592 -0.6267,-0.289613 -1.275925,-0.501915 -1.960414,-0.609349 -0.965741,-0.214458 -1.958663,-0.348469 -2.859835,-0.783444 -0.906866,-0.410647 -1.758035,-0.930514 -2.654913,-1.362737 -1.022152,-0.533995 -2.025844,-1.101804 -2.912756,-1.847638 -0.800137,-0.658112 -1.557469,-1.365846 -2.34544,-2.038443 -0.609331,-0.512961 -1.263158,-0.97499 -1.81925,-1.548077 -0.695434,-0.802984 -1.168626,-1.73912 -1.65318,-2.67892 -0.421818,-0.735396 -0.947138,-1.384789 -1.661079,-1.858367 -0.746609,-0.491 -1.520039,-0.942896 -2.209377,-1.516287 -1.318069,-1.063903 -2.681461,-2.149542 -3.657945,-3.547679 -0.85215,-0.801145 0.280831,-2.00627 1.13298,-1.205124 z"
       inkscape:connector-curvature="0" />
    <path
       style="fill:#666666;fill-opacity:1;stroke:none;stroke-width:2.02095532;stroke-opacity:1"
       d="m 1273.5689,270.80299 c -52.1446,0.22498 -103.897,7.64643 -155.344,13.76482 -39.9079,1.93366 -76.6358,19.80204 -116.1911,24.12181 -31.1719,5.82688 -62.59063,13.95755 -94.42757,10.70709 -34.28526,-0.38511 -68.43114,-4.35011 -102.35102,-9.56685 -19.87339,-0.78337 -38.94816,-5.86974 -58.14519,-9.58091 -24.48592,1.01267 -48.45516,2.33522 -72.84518,3.5564 -20.66199,2.94563 -39.98644,11.09502 -58.94717,19.25829 -35.37377,9.22126 -70.63686,21.00039 -100.40044,42.92556 -41.24341,28.71926 -77.38909,64.82666 -107.88428,104.67918 -40.86652,60.06298 -47.31594,135.27589 -49.8538,205.83747 -0.35839,34.98629 -6.21422,69.80941 -10.4512,104.55287 -1.1041,26.97719 17.70383,49.06809 24.84749,74.00959 10.67977,27.28296 26.10827,52.54054 34.05066,80.93185 5.60832,19.29895 22.76234,34.13806 21.91639,55.39186 2.35034,50.18248 4.37574,100.17438 -3.36608,149.65168 -4.61462,33.2291 -1.28828,66.951 6.53961,99.2456 6.80808,32.2647 8.62262,65.7802 18.59516,97.2624 9.33318,18.5069 23.10496,34.5252 30.64589,53.9342 8.48636,12.7457 28.15998,15.8299 33.19972,30.8749 -0.014,14.9789 11.34643,26.4459 21.1332,36.3574 14.2424,6.709 23.22627,19.4891 29.99856,33.184 8.46784,11.9386 23.16843,17.156 33.63785,27.1408 20.67013,15.2475 44.3798,25.4394 69.16245,31.7077 15.52666,6.0458 33.49974,4.6168 46.84205,16.0006 38.57707,29.6034 85.90772,51.6084 135.56892,48.2239 80.86162,0.066 161.83058,1.6892 242.62118,-2.0802 30.0064,-4.8953 60.8749,-4.7338 90.8404,-10.3495 27.0912,-1.7422 53.2541,-7.5715 79.2805,-13.8936 41.0902,-6.4498 81.216,-17.9002 119.981,-32.8015 29.8285,-13.7655 61.6011,-27.431 81.7467,-54.7168 22.0309,-25.6967 54.5733,-38.392 83.6203,-54.1819 34.2504,-18.3281 74.7735,-31.7604 96.7335,-66.1508 21.3155,-26.0016 44.4996,-53.7861 50.666,-88.0221 3.7796,-35.2393 19.392,-68.3356 22.6055,-103.7515 1.8388,-10.4935 11.1707,-18.7262 11.435,-29.3039 -3.4368,-7.6829 -15.5189,2.4664 -14.8453,-8.5101 1.9625,-38.9636 5.5422,-78.105 6.7259,-117.2154 -0.2223,-23.7181 15.1993,-42.89989 20.8293,-65.14032 12.345,-24.60541 11.3117,-52.69637 17.3465,-79.0024 4.8996,-45.34699 4.9718,-91.26815 -0.5541,-136.46069 -2.7112,-70.86925 -26.367,-141.26442 -70.0838,-197.52794 -23.8146,-31.66221 -41.774,-68.31185 -70.729,-95.81213 -23.2411,-16.65357 -49.4522,-28.62279 -73.1179,-45.05641 -33.3008,-19.10507 -61.2776,-45.79104 -92.0517,-68.54734 -32.4291,-19.80026 -66.718,-36.54358 -100.7833,-53.34217 -24.8724,-10.80914 -50.1612,-24.58667 -78.1976,-22.30551 z"
       id="path921"
       inkscape:connector-curvature="0"
       transform="matrix(0.13229167,0,0,0.13229167,0,-135.46667)" />
  </g>
  <g
     inkscape:groupmode="layer"
     id="layer3"
     inkscape:label="lines 4"
     sodipodi:insensitive="true"
     style="display:inline">
    <path
       style="fill:#666666;fill-opacity:1;stroke:none;stroke-width:0.13229167;stroke-opacity:1"
       id="path849"
       d="m 130.56585,90.243693 c -1.2874,1.532529 -2.80353,2.853633 -4.19228,4.291146 -1.28295,1.327989 -2.64475,2.853251 -3.87826,4.213009 -3.13687,3.395722 -6.16513,6.898752 -9.43531,10.169342 -0.61408,0.61415 -1.2166,1.24325 -1.87889,1.80508 -0.46907,0.39792 -1.00402,0.71094 -1.50604,1.06641 -0.3413,0.0991 -0.6826,0.19814 -1.02391,0.29722 -0.30546,2.11307 -3.29379,1.68108 -2.98833,-0.432 v 0 c -0.20845,-0.67063 -0.41691,-1.34126 -0.62536,-2.01189 0.13385,-0.76523 0.14207,-1.56346 0.40155,-2.29569 0.60099,-1.696 2.22989,-3.9796 3.27542,-5.33585 2.29505,-2.977147 4.91692,-5.706772 7.68861,-8.238979 3.17868,-2.595901 6.77115,-5.592017 10.82499,-6.69029 0.35877,-0.0972 0.73141,-0.133047 1.09711,-0.199571 2.37734,-1.584415 4.61804,1.777648 2.2407,3.362063 z"
       inkscape:connector-curvature="0" />
    <path
       style="fill:#787878;fill-opacity:1;stroke:none;stroke-width:0.13229167;stroke-opacity:1"
       id="path859"
       d="m 96.395258,64.965423 c 0.03892,0.08398 0.194687,0.20197 0.116774,0.251945 -0.245987,0.157783 -0.565906,0.146199 -0.849223,0.217869 -0.339711,0.08594 -0.681525,0.163717 -1.019852,0.254951 -1.228008,0.331143 -2.397068,0.754309 -3.576456,1.227365 -1.905188,0.847646 -3.738093,1.870688 -5.444116,3.071913 -0.878599,0.618631 -2.054482,1.564239 -2.893113,2.225092 -1.986563,1.563988 -3.897737,3.228369 -5.622777,5.080238 -1.060457,1.138424 -1.35923,1.550804 -2.326647,2.748899 -1.648162,2.150417 -3.139652,4.414562 -4.288165,6.870136 -1.112626,2.608659 -2.038565,5.292823 -2.982818,7.965732 -0.622469,1.917355 -1.31958,3.833683 -1.686503,5.822617 -0.182335,0.98837 -0.160855,1.1757 -0.208128,2.14482 -0.0229,1.81019 0.466356,3.56568 0.86768,5.3157 0.354753,1.17673 0.40749,2.58688 1.215988,3.58206 0.123918,0.15253 0.282826,0.27293 0.424238,0.4094 0.181523,0.12373 0.355191,0.25986 0.54457,0.3712 0.788163,0.46338 1.664691,0.78094 2.499103,1.14618 0.958879,0.41972 1.103252,0.4961 2.056647,0.94575 1.733688,0.82804 3.266862,1.98036 4.680415,3.26826 0.560254,0.48156 0.967712,1.05835 1.325479,1.6921 -0.146222,2.70074 -0.549598,2.59113 0.0485,1.90209 0.04102,-0.0473 0.07052,-0.11776 0.130754,-0.13473 0.07145,-0.0201 0.135352,0.15953 0.157541,0.46816 0.01699,0.23626 0.0034,0.47374 0.0051,0.71061 -0.1934,2.32848 -1.328777,4.36373 -2.611811,6.25944 -0.491424,0.82346 -1.292792,1.51651 -1.598045,2.44948 -0.113905,0.34814 -0.0962,0.60294 -0.111616,0.97007 0.08255,1.76787 0.05872,3.53305 -0.01497,5.30046 -0.133162,1.86385 -0.04491,3.72723 0.07384,5.5884 0.217147,2.71709 0.208986,5.44034 0.06558,8.16014 -0.196385,2.55472 -0.458604,5.10115 -0.385711,7.66565 0.126254,2.04131 0.716081,4.0042 1.330191,5.94165 0.404186,1.17491 0.757222,2.38532 1.357405,3.48103 0.261022,0.47655 0.516118,0.80995 0.828982,1.25176 1.174831,1.41622 2.205481,2.9193 3.077798,4.53837 0.676724,1.36139 1.212335,2.78584 1.83901,4.16956 0.246896,0.58997 0.607747,0.93309 1.169384,1.19793 0.743319,0.35287 1.540625,0.56042 2.308266,0.85024 0.887425,0.31036 1.586516,0.88011 2.180515,1.59252 0.136565,0.083 0.172275,0.288 0.306983,0.37904 0.0082,0.006 0.05691,-0.14056 0.126378,-0.16768 0.06402,-0.025 0.135301,-0.0242 0.202951,-0.0363 1.403524,-0.0292 2.799059,0.17998 4.175532,0.43224 1.405976,0.24393 2.713053,0.81655 4.039994,1.31364 0.116231,0.0345 0.231357,0.073 0.348692,0.10358 0.311273,0.0811 0.586441,0.0811 0.44502,0.1746 -0.205669,0.13603 -0.546557,0.0413 -0.70224,0.23257 -0.08697,0.10681 0.146899,0.23444 0.23769,0.33802 0.13241,0.15108 0.286199,0.28198 0.429301,0.42296 0.869455,-0.66335 1.807562,0.56625 0.938112,1.2296 v 0 c -0.132852,0.34151 -0.306852,1.09674 -0.763136,1.27163 -0.433506,0.16617 -0.91412,0.16346 -1.373056,0.23357 -0.178972,0.0274 -0.358925,0.0604 -0.539966,0.0587 -0.14739,-0.001 -0.850954,-0.1312 -0.992022,-0.15598 -1.356736,-0.22953 -2.720505,-0.41708 -4.068802,-0.694 -1.444111,-0.30955 -2.895299,-0.65224 -4.233314,-1.29601 -0.681275,-0.36515 -1.273209,-0.80252 -1.776677,-1.39112 -0.423266,-0.024 -0.834472,-0.12152 -1.23734,-0.28045 -1.007972,-0.3429 -1.979278,-0.78161 -2.864208,-1.37983 -1.0035,-0.7042 -1.901767,-1.52482 -2.546168,-2.58247 -0.793755,-1.29779 -1.47594,-2.65503 -2.173696,-4.00594 -0.803798,-1.46184 -1.746757,-2.8209 -2.826166,-4.09553 -1.293142,-1.7959 -2.325675,-3.74052 -2.944884,-5.87612 -0.708321,-2.28908 -1.370106,-4.60812 -1.612806,-7.00055 -0.217203,-2.73883 -0.18614,-5.49263 0.02473,-8.23191 0.208828,-2.599 0.421453,-5.1984 0.495467,-7.80566 0.08671,-1.91692 0.116967,-3.83335 0.09274,-5.75225 0.03403,-1.8469 0.150086,-3.68847 0.314934,-5.52836 0.09062,-0.76583 0.109632,-1.10929 0.287836,-1.86637 0.297198,-1.26261 0.843994,-2.44325 1.48152,-3.56709 0.903131,-1.51808 1.921027,-2.96416 2.801989,-4.49459 0.476721,-1.06518 1.322344,-4.54323 1.048602,-0.42843 0.02794,0.0636 0.09162,0.12179 0.08383,0.19083 -0.0041,0.0366 -0.0964,0.0227 -0.334185,-0.0872 -0.403162,-0.18641 -0.781888,-0.42251 -1.172693,-0.63209 -1.449333,-0.85716 -2.930939,-1.65079 -4.481623,-2.31277 -2.201418,-1.05285 -4.436986,-2.1408 -6.014793,-4.07239 -0.222705,-0.31951 -0.46445,-0.62657 -0.668114,-0.95855 -0.865864,-1.41138 -1.263359,-3.0305 -1.580004,-4.63729 -0.429668,-1.99981 -0.941119,-3.98449 -1.253348,-6.00731 -0.113776,-1.2422 -0.190357,-1.63729 -0.133192,-2.91644 0.106885,-2.391752 0.727923,-4.701091 1.636272,-6.907893 0.70147,-1.570734 0.711066,-1.667043 1.501488,-3.15307 0.805608,-1.51458 1.72791,-2.975854 2.330417,-4.590904 1.062724,-2.847135 2.081289,-5.726647 3.801171,-8.26492 0.39049,-0.558026 0.760371,-1.131057 1.171472,-1.674079 2.168996,-2.86503 4.846431,-5.290435 7.862717,-7.23762 3.142584,-1.887408 6.376678,-3.651042 9.772544,-5.043238 1.163689,-0.423285 1.779687,-0.686857 2.982758,-0.970028 1.838682,-0.432779 3.670796,-0.446248 5.517707,-0.0439 1.973011,0.601165 1.122833,3.391424 -0.850177,2.790258 z"
       inkscape:connector-curvature="0" />
    <path
       style="fill:#787878;fill-opacity:1;stroke:none;stroke-width:0.13229167;stroke-opacity:1"
       id="path861"
       d="m 94.589461,63.403372 c 2.965299,0.226012 5.598329,1.693514 8.098159,3.186823 2.525,1.615256 4.78105,3.586975 6.67756,5.904111 0.44237,0.516481 0.79792,1.096822 1.21624,1.631296 0.0998,0.1275 0.24088,0.378598 0.43532,0.346183 0.15175,-0.140568 0.35014,-0.172894 0.54639,-0.21607 0.12793,-0.02815 0.50028,-0.01535 0.38519,-0.07791 -0.22335,-0.121405 -1.2666,-0.0018 -0.16348,-0.0987 0.93452,-0.05345 1.85458,-0.134851 2.75248,-0.407665 0.82157,-0.242403 1.44939,-0.770294 2.05465,-1.350769 0.93848,-1.020089 1.95948,-1.954153 2.99526,-2.873239 1.34355,-1.118284 2.52295,-2.405517 3.69826,-3.693678 1.61977,-1.894166 3.53483,-3.381198 5.65208,-4.672484 1.82434,-1.067374 3.78364,-1.870358 5.72059,-2.704858 1.46666,-0.622168 2.92512,-1.259942 4.43284,-1.776689 1.74442,-0.594503 3.53737,-0.6059 5.35687,-0.602825 1.70512,0.07403 3.4027,-0.129614 5.10126,-0.242797 3.36122,-0.254963 6.73002,-0.241805 10.09427,-0.07754 2.90827,0.131019 5.76356,0.640971 8.50541,1.612167 1.71862,0.674109 3.30506,1.619018 5.06462,2.189107 1.99974,0.434723 4.05173,0.570412 6.07836,0.844337 1.63355,0.303298 3.31945,0.47611 4.88134,1.078282 0.27988,0.107905 0.54877,0.242353 0.82317,0.36353 1.31606,0.635342 2.34738,1.614623 3.23198,2.755773 0.75385,1.000457 1.2734,2.146104 1.85636,3.247883 0.54878,1.04751 1.63966,1.493985 2.61649,2.057029 1.80275,1.034109 2.84765,2.240204 3.88757,4.009051 0.61025,1.214727 1.05146,2.500995 1.74996,3.66968 0.88536,1.176376 1.49755,2.490456 1.93369,3.889307 0.37678,1.455057 0.64852,2.933014 1.05056,4.382588 0.51203,1.50116 1.05255,2.991454 1.51554,4.509032 0.49856,1.694372 0.96006,3.39975 1.38424,5.114226 0.35205,1.52406 0.84984,3.004635 1.3698,4.477624 0.4453,1.396043 0.9474,2.767683 1.54933,4.103373 0.58015,1.17324 1.24987,2.29855 1.8478,3.46265 0.73043,1.38436 1.19929,2.86392 1.50779,4.39253 0.29987,1.46881 0.32875,2.9663 0.27701,4.45834 0.005,1.73262 -0.47387,3.36809 -1.13137,4.95217 -0.63426,1.37647 -1.2754,2.74714 -1.82485,4.16017 -0.43123,1.03015 -0.67143,2.09474 -0.63692,3.20922 0.0969,0.82453 0.67129,0.82024 1.3516,1.08765 1.48709,0.57626 2.8178,1.43564 4.02378,2.46789 1.09736,0.99773 1.80351,2.28022 2.4166,3.60749 0.44559,0.93534 0.73234,1.9302 1.05365,2.91154 0.2791,0.85049 0.49033,1.7183 0.60517,2.60574 0.10131,0.88996 0.0464,1.78662 -0.0584,2.67315 -0.084,0.16338 -0.006,0.66331 -0.21378,0.7522 0.0461,0.35909 0.10159,0.71624 0.13713,1.0769 0.0965,0.69342 -0.12046,0 -0.21113,-0.17797 -0.041,-0.055 -0.082,-0.11 -0.12296,-0.16499 -0.0107,-0.008 -0.04,-0.0344 -0.0323,-0.0236 0.24315,0.33957 -0.1172,-0.51154 0.39726,0.60012 0.0539,0.11651 0.16065,0.50924 0.21754,0.71482 0.0273,0.17673 0.14372,0.4724 0.0215,0.126 -0.19664,-0.35126 -0.63254,-1.06775 -1.12741,-0.92382 2.58628,0.94381 1.25155,4.60138 -1.33475,3.65757 v 0 c -0.64583,0.11134 -1.12317,-0.62735 -1.41086,-1.10168 -0.14346,-0.33463 -0.36306,-0.78554 -0.31434,-1.15839 0.0712,-0.16691 -0.0202,0.0297 0.15458,0.38271 0.0775,0.15643 0.4227,0.54179 0.27836,0.44361 -0.13806,-0.0939 -0.21933,-0.21923 -0.33049,-0.34914 -0.37953,-0.63021 -0.64429,-1.30304 -0.6165,-2.05252 0.0276,-0.21964 0.0905,-0.44086 0.0973,-0.65384 -0.11851,-0.47063 -0.18591,-0.9504 -0.18272,-1.437 0.0203,-0.59636 0.10713,-1.18982 0.0935,-1.78605 -0.15034,-0.68426 -0.43371,-1.32704 -0.6317,-1.99768 -0.23923,-0.78654 -0.49921,-1.56999 -0.9081,-2.28788 -0.41,-0.73504 -0.85596,-1.46281 -1.57785,-1.93101 -1.23136,-0.77544 -2.59045,-1.3252 -3.78996,-2.15508 -0.25338,-0.19624 -0.51997,-0.37654 -0.76015,-0.58874 -1.18695,-1.04866 -1.90728,-2.4113 -2.1488,-3.97234 -0.20958,-1.84095 -0.0878,-3.46016 0.65007,-5.18703 0.58993,-1.42818 1.24099,-2.82942 1.89123,-4.23098 0.48147,-1.09687 0.9973,-2.18531 1.01585,-3.40992 0.0503,-1.16036 0.027,-2.31006 -0.24947,-3.44673 -0.24133,-1.13863 -0.52006,-2.26534 -1.1175,-3.27966 -0.65643,-1.20509 -1.39472,-2.36326 -2.02123,-3.58472 -0.72513,-1.46448 -1.31827,-2.98224 -1.81565,-4.5392 -0.51627,-1.583331 -1.0763,-3.153048 -1.52264,-4.75861 -0.45826,-1.650189 -0.85716,-3.315495 -1.3018,-4.969342 -0.46581,-1.561683 -0.96812,-3.110325 -1.47098,-4.66034 -0.36757,-1.413323 -0.59036,-2.850018 -0.84876,-4.285801 -0.32297,-1.113827 -0.85038,-1.988805 -1.52255,-2.932618 -0.71478,-1.161417 -1.2697,-2.394257 -1.85617,-3.622279 -0.23263,-0.360511 -0.25981,-0.450587 -0.57242,-0.746457 -0.69867,-0.661277 -1.60706,-1.05147 -2.3657,-1.632206 -1.53977,-1.143476 -2.72267,-2.28383 -3.5533,-4.044582 -0.42096,-0.868238 -0.79219,-1.77004 -1.33786,-2.570092 -0.45187,-0.515119 -1.05142,-0.801434 -1.72816,-0.908617 -1.75852,-0.217597 -3.53775,-0.239418 -5.29371,-0.488833 -2.33873,-0.334199 -4.68095,-0.756668 -6.86116,-1.705375 -1.50904,-0.673788 -2.96206,-1.532887 -4.63095,-1.743109 -2.6251,-0.306962 -5.2699,-0.247114 -7.90834,-0.309993 -3.29134,-0.0831 -6.59198,-0.193421 -9.84851,-0.718398 -1.59247,-0.228549 -3.18369,-0.498431 -4.79446,-0.558372 0.22463,-0.0051 0.45301,0.02585 0.67389,-0.01531 0.15308,-0.02853 -0.31088,-0.0191 -0.46654,-0.02333 -0.61936,-0.01683 -1.23065,0.04813 -1.81349,0.271618 -1.35049,0.467838 -2.67156,1.018792 -3.92902,1.701468 -1.73539,0.898373 -3.44805,1.840949 -5.18607,2.734707 -1.80129,1.011067 -3.50758,2.156213 -4.94194,3.661345 -1.37031,1.331864 -2.72626,2.68426 -4.25009,3.844608 -1.05153,0.816509 -2.14506,1.581176 -3.14531,2.461173 -0.99885,0.893863 -1.98852,1.825167 -3.24464,2.350086 -1.24909,0.480904 -2.53608,0.776429 -3.88484,0.694782 -1.47568,-0.01499 -2.95345,0.04389 -4.28396,-0.687109 -1.06877,-0.633183 -2.05016,-1.397163 -3.05675,-2.122943 -2.21971,-1.580315 -4.43814,-3.163833 -6.713828,-4.663193 -2.126088,-1.406541 -4.427844,-2.705214 -6.271073,-4.473882 -2.091372,-1.350731 -0.181151,-4.308377 1.910222,-2.957647 z"
       inkscape:connector-curvature="0" />
    <path
       style="fill:#787878;fill-opacity:1;stroke:none;stroke-width:0.13229167;stroke-opacity:1"
       id="path863"
       d="m 213.48605,145.83761 c 1.7002,1.37475 2.90762,3.25103 3.96313,5.1396 0.67024,1.35712 1.13273,2.84371 0.87399,4.36939 -0.041,0.24142 -0.12302,0.47403 -0.18452,0.71103 -0.37886,0.82057 -0.29097,1.70123 -0.32342,2.57995 -0.0224,1.15377 -0.2095,2.28129 -0.64776,3.34915 -0.16166,0.50821 -0.57305,0.88736 -0.78455,1.36601 -0.14591,0.30409 -0.35343,0.57048 -0.5416,0.84824 -0.0619,0.0622 -0.0434,0.14844 -0.0808,0.0136 -0.21718,-0.71563 -0.38417,-1.75698 -0.16388,0.98931 0.004,0.0478 0.069,-0.12428 0.1074,-0.0956 0.0283,0.0211 0.0299,0.34635 0.0324,0.43915 -0.0665,0.28942 -0.0391,1.41329 -0.32052,0.41729 -0.36673,-0.98599 0.12805,1.76407 0.0205,1.34836 0.0147,-0.42449 -0.23377,-0.81877 -0.23652,-1.23932 -0.001,-0.17533 0.16522,0.31046 0.22648,0.47474 0.16349,0.43845 0.0928,0.74192 -0.0542,1.16712 -0.44766,2.62726 -4.16318,1.99416 -3.7155,-0.6331 v 0 c -0.11163,0.29315 -0.19843,0.49796 -0.0757,0.80246 0.0442,0.10978 0.18189,0.43329 0.1601,0.31695 -0.3531,-1.88472 -0.32098,-0.66994 -0.32844,-1.44601 0.0131,-0.20167 0.0382,-0.39813 0.10945,-0.58936 0.0266,-0.0716 0.0762,-0.28256 0.0949,-0.20852 0.54089,2.15087 0.35016,1.69831 0.0922,1.16607 -0.22517,-0.74576 -0.40968,-1.45732 -0.18314,-2.23652 0.16327,-0.52365 0.0697,-0.29193 0.28318,-0.74064 0.0693,-0.14569 0.16296,-0.59156 0.20852,-0.4368 0.77027,2.61684 -0.13266,1.35603 -0.14813,0.64384 -0.0509,-0.59014 0.0506,-1.17151 0.29254,-1.71443 0.19923,-0.42914 0.43382,-0.83757 0.7235,-1.21292 0.22676,-0.30005 0.0911,-0.15022 0.27062,-0.31797 0.0195,-0.0182 0.0447,-0.0797 0.0572,-0.0561 0.0111,0.0212 -0.13692,0.2217 -0.0954,0.042 -0.0434,-0.91878 0.0825,-1.83591 0.13477,-2.75151 0.12988,-1.16826 0.29185,-2.37689 0.89644,-3.40908 0.0375,0.0176 0.0959,0.1108 0.0545,0.11163 -0.0403,10e-4 -0.0586,-0.0558 -0.0839,-0.0871 -0.0896,-0.11094 -0.17339,-0.22653 -0.26069,-0.33933 -0.71972,-0.93004 -0.14305,-0.1728 -0.99026,-1.29663 -1.27629,-1.79123 -2.60751,-3.68768 -3.02041,-5.88854 -1.12885,-2.57223 2.50881,-4.16866 3.63767,-1.59643 z"
       inkscape:connector-curvature="0" />
    <path
       style="fill:#787878;fill-opacity:1;stroke:none;stroke-width:0.13229167;stroke-opacity:1"
       id="path865"
       d="m 89.635242,185.70997 c 0.830457,1.52639 1.215704,3.25254 1.687452,4.91461 0.350151,1.04773 0.639478,2.14526 1.260598,3.07268 0.326204,0.3862 0.719516,0.7185 1.108588,1.04162 0.186423,0.19193 0.170495,0.10663 0.254455,0.11089 0.376487,0.007 0.758189,0.23347 1.084452,0.4047 0.371129,0.14138 0.5704,0.57575 0.876675,0.76611 -0.08905,-0.0871 -0.292284,-0.30791 -0.433178,-0.2891 -0.04184,0.006 0.05328,0.0671 0.06859,0.10644 0.204278,0.52479 0.579874,1.0203 0.589184,1.58337 0.0033,0.20117 -0.372832,0.15134 -0.559248,0.22702 -0.02618,0.78095 -1.130635,0.74394 -1.104454,-0.037 v 0 c -0.180552,-0.0712 -0.550942,-0.40759 -0.541658,-0.21372 0.04475,0.9344 1.161674,1.6174 0.302928,1.29163 -0.106202,-0.0403 -0.210341,-0.0872 -0.309406,-0.14278 -0.100934,-0.0566 -0.192507,-0.1285 -0.28876,-0.19275 -0.22074,-0.16677 -0.414221,-0.3741 -0.662851,-0.49772 -0.116338,-0.072 -0.243433,-0.0814 -0.371764,-0.12764 -0.474063,-0.12989 -0.907902,-0.36069 -1.314382,-0.63477 -0.611091,-0.43867 -1.187843,-0.92386 -1.708095,-1.46848 -1.02177,-1.14756 -1.832313,-2.44427 -2.354839,-3.89721 -0.619652,-1.72636 -1.193588,-3.58321 -0.927854,-5.43521 -0.411991,-2.36427 2.931573,-2.94691 3.343563,-0.58266 z"
       inkscape:connector-curvature="0" />
    <path
       style="fill:#787878;fill-opacity:1;stroke:none;stroke-width:2.02095532;stroke-opacity:1"
       d="m 1076.0773,453.43095 c -33.7069,13.88814 -67.2103,29.55948 -97.26723,50.27325 -30.4503,26.38454 -59.73439,54.54726 -93.26309,77.03905 -17.13377,8.50734 -38.13937,7.24586 -56.25914,4.71688 -35.80973,-21.283 -69.39581,-47.71956 -104.81734,-70.28347 -10.64977,-6.04658 -20.96719,-21.27049 -34.79042,-13.83091 -47.23773,21.50951 -88.41847,55.53695 -122.01519,94.81912 -37.6892,44.63477 -56.28918,101.41514 -72.111,156.67141 -7.05172,29.99579 0.58002,61.31387 10.27845,89.80621 9.70945,12.99606 27.2741,17.38919 40.85936,25.41899 17.86158,9.28839 38.44237,19.65535 47.35613,38.62398 7.93437,24.83388 -4.84717,49.24801 -18.84993,69.05311 -8.30334,9.34438 -12.0484,20.44876 -10.09728,32.89433 0.0746,67.5065 -1.76315,135.075 -0.47111,202.5458 3.44421,34.3163 19.93768,65.4029 39.5647,93.0999 9.56223,15.6752 18.01647,32.3588 24.64406,49.2433 12.46625,11.3493 31.16223,12.5447 43.18213,24.808 13.01373,5.5266 28.11313,1.9508 41.55604,6.8542 8.17396,2.5269 19.6082,3.8719 24.76444,9.5818 -1.62157,8.9175 9.18721,5.4404 12.45335,8.3996 -0.37296,7.8229 -7.031,15.5154 -15.67818,12.3468 -17.60693,0.1957 -34.8131,-6.1483 -52.43037,-6.5997 -7.8725,7.1195 1.42247,18.6169 2.12452,27.2226 4.12084,17.3785 12.71549,37.6153 31.21335,43.0648 5.87161,5.8394 5.83956,19.8222 17.18601,18.2123 50.20281,-0.4114 100.12694,-1.2719 150.20282,2.8954 70.48779,6.1618 141.32802,2.3841 211.91992,0.3014 73.1546,-3.9661 141.2881,-33.4732 212.9851,-45.2816 37.1484,-8.1062 71.2299,-26.0421 105.737,-41.2243 17.6995,-18.6045 33.869,-40.5873 59.1604,-49.2924 15.083,-6.3355 30.3132,-12.4311 41.2046,-25.4593 19.1175,-21.1993 43.9013,-35.5724 68.7835,-48.8345 11.1717,-6.7675 23.3186,-17.1513 19.4754,-31.834 -0.6267,-15.3123 6.2452,-29.0417 10.9613,-43.0321 2.1279,-14.8432 4.4947,-29.2852 7.0536,-43.7545 -5.407,-15.6756 -19.1139,-27.2027 -25.0133,-43.0124 -3.8407,-8.8239 -12.7676,-26.1172 0.746,-31.1748 15.0094,-3.916 9.8326,-22.977 7.7444,-34.0089 -4.7688,-19.5361 -14.3906,-39.8529 -34.1668,-47.8833 -18.8389,-9.0618 -37.446,-25.30128 -37.6837,-48.10027 -1.4401,-38.33196 33.8821,-69.21028 26.7777,-108.41714 -4.8001,-35.7333 -31.3546,-63.17986 -39.5665,-97.74794 -12.786,-40.19838 -24.6873,-81.07317 -34.9862,-122.13917 -4.2033,-25.60636 -19.7859,-47.19933 -31.9698,-69.44503 -12.9253,-13.82197 -31.9329,-21.47379 -41.6783,-38.52052 -9.024,-12.59077 -13.2706,-34.36435 -32.3367,-34.70017 -32.9453,-4.0808 -66.4929,-6.19135 -97.1156,-20.70695 -28.786,-15.58675 -62.4717,-9.93423 -93.7764,-12.60671 -37.41,-0.64105 -74.4681,-6.00252 -111.5907,-10.00215 z"
       id="path869"
       inkscape:connector-curvature="0"
       transform="scale(0.13229167)" />
    <path
       style="fill:#666666;fill-opacity:1;stroke:none;stroke-width:0.13229167;stroke-opacity:1"
       id="path873"
       d="m 95.913095,198.70442 c 0.615357,0.74227 1.064989,1.62507 1.771672,2.2928 0.440709,0.41641 0.635499,0.4824 1.15456,0.76927 1.429803,0.57854 2.995783,0.63344 4.495673,0.93284 2.02096,0.46344 3.9059,1.35074 5.77024,2.23419 1.56339,0.74541 3.13873,1.46573 4.69962,2.21636 1.01193,0.51556 2.044,0.95547 3.16115,1.17107 0.83959,0.0977 1.72385,0.14008 2.56282,-0.003 0.0252,-0.004 0.0179,-0.048 0.0268,-0.072 0.2841,-0.0151 0.5682,-0.0303 0.8523,-0.0454 1.23474,-0.0948 2.46565,0.0319 3.69758,0.0824 1.2877,-0.11824 2.57802,-0.21369 3.86983,-0.30125 0.26998,-0.0119 0.53987,-0.0262 0.80995,-0.0356 0.82785,-0.0291 1.6518,-0.0209 2.47961,0.003 0.80618,0.0234 1.00272,-0.0264 0.6467,0.0474 1.01735,0.007 1.8959,-0.37696 2.80245,-0.77908 0.93738,-0.42246 1.93458,-0.6835 2.91674,-0.97779 1.19695,-0.29283 2.31169,-0.90726 3.52058,-1.15291 0.37449,-0.0761 0.75867,-0.0925 1.13802,-0.13868 0.44127,0.013 0.88255,0.026 1.3238,0.039 1.74968,-0.80777 2.89205,1.66662 1.14238,2.47441 v 0 c -0.33209,0.18244 -0.66418,0.3649 -0.99627,0.54734 -0.33233,0.12326 -0.656,0.27297 -0.99697,0.36977 -1.24198,0.35261 -2.56606,0.37381 -3.82906,0.61937 -0.83987,0.13112 -1.65067,0.33741 -2.41025,0.73437 -1.18845,0.60069 -2.40224,1.20814 -3.76298,1.243 -1.86107,0.0816 -3.72864,0.18099 -5.58781,0.002 -0.0208,-0.002 -1.24262,-0.11649 -1.32006,-0.14114 -0.059,-0.0188 0.22935,-0.041 0.17321,-0.0672 -0.30359,-0.14125 -0.77,-0.0384 -1.08819,-0.0245 -1.19494,0.28051 -2.37772,0.62595 -3.62234,0.60045 -1.88096,0.0342 -3.7664,-0.007 -5.58078,-0.55952 -1.17023,-0.36588 -2.30591,-0.82628 -3.47004,-1.21024 -1.74569,-0.54646 -3.47662,-1.14967 -5.1064,-1.9907 -1.64732,-0.8317 -3.22727,-1.83319 -4.9986,-2.38809 -1.69328,-0.44316 -3.469565,-0.68456 -5.001842,-1.58471 -0.275873,-0.20156 -0.571349,-0.37872 -0.827618,-0.60468 -1.184448,-1.04439 -1.983512,-2.5222 -1.748852,-4.12297 -0.127111,-0.94213 1.205255,-1.12189 1.332367,-0.17977 z"
       inkscape:connector-curvature="0" />
    <path
       style="fill:#666666;fill-opacity:1;stroke:none;stroke-width:0.13229167;stroke-opacity:1"
       id="path875"
       d="m 144.16736,203.48057 c 0.28918,0.0717 0.58121,0.13269 0.86752,0.21508 0.37819,0.10882 0.74998,0.23883 1.12497,0.35824 0.4518,0.13055 0.90244,0.2652 1.35539,0.39164 1.52481,0.42564 3.05476,0.77762 4.60481,1.0968 2.17285,0.42911 4.38654,0.58487 6.5584,1.01492 1.01512,0.22992 1.92151,0.75759 2.94899,0.928 0.4561,0 0.98739,0.0616 1.4313,-0.0764 0.0438,-0.0136 -0.16242,-0.0595 -0.11799,-0.071 0.42783,-0.11085 0.87908,-0.0923 1.31837,-0.14092 1.00807,-0.14987 2.02159,-0.15657 3.03546,-0.0898 0.60809,0.0628 1.13228,-0.29082 1.65561,-0.55068 1.47532,-0.81358 3.02029,-1.47324 4.59547,-2.06499 1.81367,-0.64729 3.65994,-1.18688 5.46152,-1.86821 1.14731,-0.38727 2.13781,-1.06032 3.11801,-1.74936 0.83496,-0.57158 1.62746,-1.20051 2.43373,-1.81095 0.56449,-0.46753 1.19893,-0.84476 1.7382,-1.34246 0.35509,-0.49625 0.56169,-1.08245 0.86876,-1.61076 0.24914,-0.40334 0.51315,-0.79127 0.76543,-1.19246 0.33551,-0.57385 0.78936,-1.05593 1.26935,-1.50974 0.20951,-0.27416 0.54822,-0.39079 0.79242,-0.61404 0.20328,-0.37741 0.47791,-0.69108 0.79027,-0.98166 0.47982,-0.4134 0.93064,-0.51358 1.53078,-0.28755 0.098,0.0987 0.19599,0.19735 0.29398,0.29604 0.12183,-0.0398 0.17808,0.13252 0.0562,0.17229 v 0 c 0.0182,0.1048 0.0363,0.20959 0.0544,0.31439 0.35833,0.40458 0.59583,0.23292 0.29447,0.88662 -0.16128,0.29359 -0.33262,0.57834 -0.53404,0.84519 -0.18481,0.48 -0.41629,0.93298 -0.77517,1.30992 -0.3951,0.41428 -0.81991,0.78547 -1.32785,1.05609 -0.16038,0.0799 -0.19999,0.75502 -0.35197,0.9265 -0.35983,0.75946 -0.8524,1.43584 -1.41591,2.05836 -0.55218,0.66674 -1.13549,1.31231 -1.84144,1.8217 -0.81355,0.62632 -1.6479,1.22339 -2.47605,1.83025 -1.07655,0.83161 -2.13135,1.70249 -3.31774,2.37694 -1.7789,0.95417 -3.65216,1.70921 -5.60296,2.23705 -1.6147,0.47727 -3.24865,0.88297 -4.86218,1.36402 -0.82889,0.2557 -1.67143,0.48287 -2.54135,0.53614 -0.89767,0.14416 -1.74887,0.53864 -2.66658,0.59548 -1.62354,0.16084 -3.28221,0.19746 -4.86512,-0.25734 -0.87854,-0.28293 -1.68536,-0.61782 -2.63065,-0.41499 -2.50048,0.26194 -5.01812,0.48411 -7.51156,-0.011 -0.59593,-0.14174 -1.20049,-0.25115 -1.7878,-0.42521 -2.02164,-0.59916 -4.10603,-1.5732 -5.55075,-3.15881 -0.20817,-0.22847 -0.35709,-0.5046 -0.53563,-0.7569 -1.1642,-1.23661 0.58465,-2.88304 1.74884,-1.64641 z"
       inkscape:connector-curvature="0" />
    <path
       style="fill:#666666;fill-opacity:1;stroke:none;stroke-width:0.13229167;stroke-opacity:1"
       id="path877"
       d="m 191.03573,187.83685 c 1.89613,-0.83327 4.06772,-0.54098 6.01671,-0.049 0.48391,0.0739 0.9657,0.44775 1.47619,0.38654 0.10099,-0.012 -0.22473,0.0175 -0.3011,-0.0497 -0.0429,-0.0377 0.10408,-0.049 0.14925,-0.0838 0.0673,-0.0519 0.12375,-0.1164 0.18562,-0.17461 0.59706,-0.8015 1.24731,-1.52648 2.04591,-2.13242 0.95349,-0.67373 2.09842,-0.87647 3.21298,-1.1215 0.89368,-0.1748 1.72714,-0.51937 2.54123,-0.91559 0.80815,-0.45013 1.6758,-0.7561 2.56324,-1.00443 0.66918,-0.16008 1.27298,-0.46126 1.84726,-0.8315 0.56943,-0.45394 1.11676,-0.93635 1.65875,-1.4228 0.41449,-0.3343 0.64141,-0.77442 0.84848,-1.25148 0.21865,-0.53525 0.4593,-1.06069 0.60665,-1.62114 0.12316,-0.4068 0.1,-0.82148 0.0711,-1.23856 -0.0948,-0.57234 -0.032,-1.14397 0.10184,-1.70361 0.10204,-0.28879 0.0498,-0.57203 0.0101,-0.86676 -0.007,-0.37141 -0.11419,-0.72549 -0.18649,-1.08646 -0.0797,-0.42438 -0.0608,-0.85239 0.007,-1.27607 0.012,-0.47883 0.0184,0.18403 0.0291,0.29665 0.40996,0.66696 -0.51512,-0.82367 -0.50395,-1.40445 0.0468,-0.47765 0.0251,-0.24016 0.11556,0.13416 0.14907,0.32862 0.30932,0.51576 -0.0904,0.15802 -1.41332,-1.24198 0.34309,-3.24073 1.75642,-1.99875 v 0 c -0.31121,-0.3606 0.90219,0.46438 0.80244,0.67867 0.17991,0.50261 0.2973,0.98529 0.12521,1.50905 -0.24616,0.50443 -0.0466,0.16212 -0.67232,-1.11504 -0.004,-0.008 0.0193,-0.008 0.028,-0.004 0.24487,0.10401 0.442,0.27812 0.62028,0.47226 0.33458,0.4731 0.53942,1.00822 0.40657,1.59463 -0.0177,0.14336 -0.0187,0.25486 0.0451,0.39293 0.1611,0.50403 0.29679,1.01867 0.27003,1.55348 -0.0172,0.46156 -0.0319,0.92364 -0.0956,1.38181 -0.0449,0.36405 -0.0729,0.70994 0.006,1.07558 0.0749,0.72421 0.0699,1.45321 -0.17902,2.14805 -0.21729,0.61613 -0.47715,1.21594 -0.75992,1.80487 -0.31826,0.75563 -0.72906,1.4662 -1.3387,2.02825 -0.5912,0.57227 -1.2452,1.07188 -1.87648,1.59858 -0.72923,0.56771 -1.53185,1.0227 -2.42536,1.27979 -0.72759,0.2273 -1.48275,0.39458 -2.14783,0.78184 -0.96389,0.58858 -1.93446,1.18348 -3.06105,1.40405 -0.46102,0.0813 -0.62484,0.11741 -1.0796,0.17104 -0.46203,0.0545 -0.9311,0.0445 -1.34919,0.2819 -0.84319,0.61995 -1.46843,1.49068 -2.35765,2.05966 -0.37845,0.20068 -0.77835,0.45714 -1.21732,0.5152 -0.93741,0.124 -1.87791,-0.0834 -2.81685,-0.0276 -0.84429,-0.0302 -1.71711,-0.0114 -2.55639,-0.1059 -0.0897,-0.0101 -0.16664,-0.0735 -0.25539,-0.0897 -2.68569,-0.49045 0.71059,0.23038 -1.64083,-0.28343 -1.3071,0.44957 -1.94291,-1.39897 -0.63579,-1.84854 z"
       inkscape:connector-curvature="0" />
    <path
       style="fill:#666666;fill-opacity:1;stroke:none;stroke-width:0.13229167;stroke-opacity:1"
       id="path879"
       d="m 190.6474,191.65466 c 0.31656,-0.6522 0.78447,-1.26251 1.44082,-1.61115 0.24422,-0.12973 0.52272,-0.18069 0.78408,-0.27103 1.0612,-1.1328 2.66322,0.36797 1.60201,1.50077 v 0 c -0.0947,0.19442 -0.16083,0.40553 -0.28402,0.58325 -0.36471,0.52616 -0.94273,0.9016 -1.48676,1.21123 -0.99918,1.45392 -3.05532,0.0408 -2.05613,-1.41307 z"
       inkscape:connector-curvature="0" />
    <path
       style="fill:#666666;fill-opacity:1;stroke:none;stroke-width:2.02095532;stroke-opacity:1"
       d="m 1601.8178,1273.4889 c -11.3556,3.1097 -18.5864,14.3801 -29.6275,18.7451 -25.5574,12.516 -47.2767,31.4908 -67.6152,50.445 -22.8928,17.6897 -53.7635,23.3985 -72.5198,46.7605 -12.1442,12.4578 -23.2472,26.4023 -40.9289,30.7847 -34.9738,16.3737 -71.3705,29.7381 -109.5022,36.465 -70.5486,15.3736 -139.737,42.2313 -212.8643,40.1258 -92.21452,1.9261 -184.30903,-0.1754 -276.34865,-3.7394 -23.37834,-0.042 -47.23774,-0.8659 -70.30769,1.356 -7.66009,6.9316 5.51616,15.4193 9.29819,22.1916 12.94805,18.5616 38.34766,15.3402 57.43935,22.5463 31.66356,9.5267 59.52388,28.421 91.04956,38.0271 39.67689,2.5075 79.61102,-0.6206 119.264,-2.7551 25.54704,-4.8625 50.52844,-13.6012 74.27804,-24.1054 5.2629,-2.8767 2.5175,-11.8456 10.8863,-11.21 35.6677,14.4571 74.4939,19.9825 112.3683,26.3632 14.7079,3.2247 29.399,10.0943 44.6307,4.9814 16.1871,-0.849 32.6874,-1.857 47.0298,-10.4101 33.9373,-16.0883 73.2168,-21.6031 102.2091,-47.0964 14.6595,-9.0815 25.1664,-22.5857 33.6407,-37.3005 8.1949,-10.6033 18.1805,-19.6499 24.7262,-31.3449 7.6401,-5.142 4.8373,-15.888 -4.5629,-15.0111 -5.6398,-6.0969 8.6195,-7.9725 12.3862,-8.5614 14.9753,-2.9523 29.7484,4.0332 44.5203,4.1445 9.6673,-12.8151 22.8443,-22.6539 38.9784,-25.1277 20.0474,-7.2971 41.353,-13.2148 58.9353,-25.633 16.2204,-11.3047 23.6161,-31.0841 21.8932,-50.3892 0.4758,-16.9557 0.9364,-39.3231 -15.0607,-49.6521 -1.3327,-0.5042 -2.7749,-0.7144 -4.1958,-0.5999 z m -757.67673,244.9224 c -1.15359,9.8383 -3.97555,-6.2761 -0.36016,-0.7621 z m 24.25146,2.021 c -1.15358,9.8383 -3.97554,-6.2762 -0.36015,-0.7622 z"
       id="path881"
       inkscape:connector-curvature="0"
       transform="scale(0.13229167)" />
  </g>
  <g
     inkscape:groupmode="layer"
     id="layer4"
     inkscape:label="lines 5"
     sodipodi:insensitive="true"
     style="display:inline">
    <path
       style="fill:#818181;fill-opacity:1;stroke:none;stroke-width:0.13229167;stroke-opacity:1"
       id="path890"
       d="m 101.47212,88.419352 c -1.777407,0.917484 -3.649141,1.590208 -5.304013,2.733472 -1.309284,1.004256 -1.785433,2.498567 -2.2654,4.005204 -0.636065,1.873372 -1.539896,3.636005 -2.321388,5.449322 -0.731136,1.6003 -0.615224,3.25813 -0.461646,4.95682 0.216789,2.03591 0.371661,4.07392 0.852717,6.06812 0.506107,1.74441 1.461281,3.29877 2.412179,4.82906 0.749718,1.21613 1.519557,2.4018 2.711406,3.21738 1.358255,0.64044 2.738376,1.22663 4.081535,1.902 1.48583,0.83916 3.06525,1.38887 4.7518,1.61854 1.3619,0.12569 2.74967,-0.015 4.02737,0.54254 0.85611,0.4457 0.95009,1.37816 1.40219,2.11938 0.65606,0.63377 1.35368,1.19714 1.95533,1.89306 0.8066,0.98853 1.29236,2.16337 1.46528,3.42051 0.11326,0.68411 -0.20132,1.32536 -0.18903,1.99982 0.003,1.43513 -0.54206,2.77978 -1.15016,4.05324 -0.29993,0.5417 -0.59733,1.09492 -1.00018,1.56982 -0.13067,0.15403 -0.27699,0.22581 -0.36986,0.40066 0.17978,1.00789 -0.117,1.98209 -0.45024,2.92257 -0.12792,0.25664 -0.22794,0.52917 -0.38375,0.76989 -0.28677,0.443 -0.91651,1.09027 -1.26084,1.48038 -0.62856,0.71214 -1.25736,1.39772 -1.93392,2.0651 -1.31446,1.15975 -2.25662,2.60763 -3.10197,4.12417 -1.00758,1.96642 -1.98615,3.94527 -2.89306,5.96021 -0.64832,1.42493 -0.92694,2.96008 -1.07331,4.50706 -0.0495,1.20343 -0.5405,2.31954 -0.74966,3.49261 -0.0318,1.07057 0.20677,2.13463 0.338,3.19582 0.0495,1.59633 0.36095,3.1391 0.72974,4.6859 0.48369,1.91171 1.3643,2.82692 2.93642,3.92187 2.07928,1.19704 3.93585,2.66516 5.61494,4.37069 1.31163,1.24587 2.12574,3.00159 3.58731,4.09741 0.21842,0.16375 0.46604,0.28441 0.69907,0.42662 1.18236,0.52114 2.48042,0.53126 3.74606,0.61439 0.54786,0.036 1.91585,0.14144 2.45121,0.18213 1.80333,0.11224 3.62016,0.20967 5.42769,0.12828 0.6425,-0.0289 1.27668,-0.15717 1.9158,-0.2291 2.75264,-0.42585 5.36448,-1.41579 8.00289,-2.267 1.9272,-0.62066 3.94167,-0.9024 5.84556,-1.59485 1.573,-0.67016 2.85229,-1.83984 4.22791,-2.82829 1.40216,-1.04367 3.07401,-1.57757 4.64388,-2.30015 2.10336,-1.14853 4.02965,-2.57086 6.14038,-3.71257 1.79792,-0.76794 0.8567,-0.5013 2.82751,-0.7863 1.5549,-0.9425 2.88781,1.25647 1.33291,2.19898 v 0 c -1.29268,0.92029 -0.59947,0.49741 -2.08934,1.25256 -2.23396,1.15751 -4.43517,2.40516 -6.81821,3.23924 -1.47334,0.48928 -2.90725,1.02992 -4.12939,2.0242 -1.50644,1.13015 -3.02802,2.2633 -4.72751,3.09152 -1.82952,0.80407 -3.72794,1.42944 -5.57658,2.18755 -2.7573,1.12059 -5.51365,2.33218 -8.47477,2.80036 -0.53305,0.065 -1.06318,0.16178 -1.59915,0.19508 -2.67279,0.16603 -5.3422,-0.069 -7.99269,-0.39804 -2.39863,-0.29449 -4.87227,-0.51099 -7.02472,-1.7089 -0.90324,-0.59931 -1.05874,-0.64873 -1.85381,-1.39086 -1.09792,-1.02483 -1.9588,-2.26968 -3.00169,-3.34595 -1.60847,-1.61362 -3.45242,-2.91395 -5.27488,-4.27188 -1.77975,-1.57439 -3.015969,-3.05013 -3.503833,-5.4458 -0.285603,-1.66734 -0.275508,-3.35553 -0.208404,-5.04341 0.02638,-1.15282 -0.0129,-2.30511 -0.0043,-3.45803 0.07155,-1.21881 0.352841,-2.39329 0.699353,-3.56257 0.348959,-1.6331 0.363101,-3.32592 0.86714,-4.93017 0.734264,-2.22831 1.826654,-4.29864 3.206054,-6.19976 1.06093,-1.49584 2.19761,-2.93034 3.43698,-4.28367 0.58635,-0.65005 1.24561,-1.28043 1.77244,-1.98019 0.414,-0.5499 0.517,-0.8648 0.87509,-1.43675 0.1319,-0.21068 0.28102,-0.41008 0.42153,-0.61511 0.39782,-0.59317 0.99444,-1.27481 0.9435,-2.03106 -0.36026,-1.07591 -0.16672,-2.06474 0.33786,-3.07952 0.55841,-1.10711 1.23585,-2.16542 1.67707,-3.32534 0.1439,-0.47302 0.30922,-0.81474 0.0644,-1.28017 -0.39151,-0.90354 -0.75816,-1.82684 -1.32726,-2.63818 -0.59679,-0.81379 -1.36745,-1.49329 -1.85595,-2.38422 -0.0838,-0.19232 -0.46239,-0.87094 -0.32018,-1.11142 0.0151,-0.0256 0.0784,0.26114 -0.0627,0.0633 -1.41734,0.22962 -2.84963,0.31546 -4.27031,0.036 -1.82313,-0.45132 -3.50084,-1.20607 -5.103462,-2.18776 -1.372534,-0.74751 -2.810019,-1.37444 -4.132924,-2.21065 -1.368941,-0.97829 -2.508918,-2.19406 -3.428969,-3.60732 -1.117771,-1.70132 -2.189503,-3.45133 -2.784911,-5.41501 -0.565266,-2.13357 -0.777004,-4.31585 -0.732206,-6.52367 0.0067,-1.94097 0.147287,-3.88779 0.818396,-5.728158 0.694936,-1.859485 1.533529,-3.650806 2.47412,-5.39927 0.806299,-1.63809 1.290415,-3.453664 2.563586,-4.82543 0.276214,-0.269042 0.531387,-0.56153 0.828641,-0.807126 1.548459,-1.279364 3.523665,-1.999451 5.532349,-1.871209 0.99136,-0.396705 1.55239,1.005291 0.56103,1.401995 z"
       inkscape:connector-curvature="0" />
    <path
       style="fill:#818181;fill-opacity:1;stroke:none;stroke-width:0.13229167;stroke-opacity:1"
       id="path892"
       d="m 104.69563,88.153558 c 2.73011,0.717246 5.09441,2.376622 7.48702,3.815782 1.60735,0.982211 3.34024,1.723648 5.20318,2.046783 1.2056,0.209119 1.68038,0.179787 2.90917,0.218209 0.52553,-0.02319 1.05217,-0.02819 1.57658,-0.06958 0.85419,-0.06741 1.7006,-0.213337 2.55344,-0.296097 1.83758,-0.17832 3.67404,-0.307074 5.51696,-0.413799 2.01658,-0.186574 4.25638,0.06127 6.12995,-0.881117 0.22469,-0.11301 0.42456,-0.269728 0.63685,-0.404593 1.19872,-0.960645 1.94236,-2.335137 2.79001,-3.589295 1.00343,-1.501805 2.26786,-2.780539 3.60024,-3.987128 1.18042,-1.040944 2.40593,-2.028927 3.60775,-3.044848 0.9863,-0.885097 2.02286,-1.7023 3.15834,-2.385938 1.79447,-1.024475 3.81752,-1.064211 5.8254,-1.076739 1.2585,0.04016 2.5123,0.169803 3.77276,0.141347 0.99334,-0.02242 0.71311,0.0291 1.27228,-0.110044 3.08739,-0.313669 6.18005,-0.388169 9.26205,-0.006 2.20882,0.358547 4.38369,0.997835 6.34814,2.07918 1.65214,1.143768 2.00221,2.330793 1.76536,4.259399 -0.30325,1.197465 -0.62305,2.375969 -0.66278,3.615685 0.0985,1.723768 -0.52611,3.006353 -1.49965,4.378426 -1.32604,1.623488 -2.95953,2.95614 -4.49464,4.373103 -1.49021,1.322173 -2.82874,2.796072 -4.16199,4.272246 -1.77445,1.95552 -3.4836,3.96846 -5.02829,6.11087 -1.09533,1.63302 -2.05099,3.37103 -2.60016,5.26554 -0.3143,1.46917 0.24505,1.77495 1.22998,2.74171 0.82621,0.86755 2.30011,2.17714 2.65505,3.33112 0.11678,0.37968 0.0678,0.79156 0.10168,1.18735 0.56957,1.12016 -1.0146,1.92565 -1.58415,0.80549 v 0 c -0.33565,-0.19365 -0.70494,-0.33814 -1.00695,-0.58095 -0.26959,-0.21674 -0.46408,-0.51334 -0.68509,-0.77945 -0.63522,-0.76488 -1.21502,-1.57662 -1.85831,-2.3353 -1.09202,-1.44174 -1.932,-2.93159 -1.81518,-4.8067 0.23506,-2.37883 1.13612,-4.57056 2.40941,-6.58861 1.58272,-2.36955 3.36401,-4.58479 5.59048,-6.389432 1.50223,-1.317293 3.00036,-2.638833 4.32012,-4.145389 1.41422,-1.483951 2.9133,-2.874012 4.55685,-4.104131 1.02274,-0.876015 1.4956,-1.350647 1.33284,-2.764129 -0.002,-1.384045 0.17863,-2.741085 0.69877,-4.035095 0.4206,-1.122024 0.36556,-0.989774 -0.84732,-1.351969 -1.96867,-0.480015 -3.96208,-0.838239 -5.98943,-0.950501 -2.38705,-0.13969 -4.77606,-0.185707 -7.16508,-0.287479 -2.25121,-0.05192 -4.49795,-0.170286 -6.74475,-0.321375 -0.28665,-0.192241 -0.0791,-0.07107 -0.86009,-0.08612 -0.83556,-0.0161 -1.67511,0.05065 -2.47497,0.305995 -1.05977,0.453466 -1.83769,1.241726 -2.60507,2.087693 -1.11279,1.10406 -2.31004,2.111652 -3.50288,3.127597 -1.17437,1.100623 -2.31233,2.24699 -3.2656,3.54936 -1.07027,1.476872 -2.02105,3.080381 -3.41448,4.281766 -0.81212,0.56651 -1.03345,0.768489 -1.9461,1.20438 -1.77975,0.850009 -3.73498,1.237141 -5.67634,1.494145 -3.93966,0.374551 -7.91564,0.59191 -11.8708,0.396793 -1.50139,-0.173409 -1.85998,-0.167122 -3.32268,-0.523312 -2.07789,-0.505997 -4.03287,-1.392557 -5.88078,-2.456833 -2.30351,-1.395035 -4.81497,-2.906687 -6.50339,-5.040209 -0.90357,-0.817615 0.25271,-2.095464 1.15629,-1.277849 z"
       inkscape:connector-curvature="0" />
    <path
       style="fill:#818181;fill-opacity:1;stroke:none;stroke-width:0.13229167;stroke-opacity:1"
       id="path894"
       d="m 156.75617,111.16583 c 0.43072,-0.16651 0.84866,-0.3708 1.29215,-0.49951 4.52116,-1.31225 9.89926,-1.05021 14.53708,-0.9745 3.03445,0.23661 6.12768,0.5844 8.9826,1.71286 1.47976,0.58491 1.76887,0.85051 3.08477,1.68113 2.33157,1.74119 3.81625,4.28139 5.57223,6.54667 1.31025,1.68368 2.75562,3.33963 3.55997,5.34601 0.15741,0.39264 0.2611,0.80474 0.39165,1.20711 0.50637,2.59907 0.13704,4.30079 -1.27893,6.49906 -0.91845,1.27392 -2.28286,2.04663 -3.51146,2.96963 -0.83594,0.64651 -1.20903,1.65826 -1.67163,2.57296 -0.76329,1.54903 -1.95335,2.73394 -3.34666,3.71711 -0.9315,0.57778 -1.92983,1.01243 -2.71333,1.79173 -1.20996,1.48198 -2.57587,2.78904 -4.10259,3.93806 -0.9219,0.58154 -2.26754,1.46555 -3.40791,0.83906 -0.21889,-0.12025 -0.37023,-0.33529 -0.55535,-0.50293 -0.46199,0.41961 -1.05541,-0.23375 -0.59342,-0.65335 v 0 c -0.0824,-0.2347 -0.20808,-0.45847 -0.24738,-0.7041 -0.16633,-1.03947 0.9804,-1.66861 1.66065,-2.17026 1.45501,-1.00664 2.9343,-1.99948 4.19452,-3.25136 0.91641,-0.82206 1.85899,-1.60555 2.92276,-2.23436 0.95756,-0.67435 1.85942,-1.41529 2.47276,-2.43293 0.75013,-1.25904 1.36533,-2.62161 2.4708,-3.62562 0.90158,-0.76799 1.89979,-1.42127 2.7165,-2.28367 0.69776,-0.936 1.12862,-1.97028 0.75621,-3.14237 -0.95921,-2.0109 -2.66953,-3.50871 -3.95673,-5.30249 -1.64201,-2.19737 -0.0358,-0.038 -1.58944,-2.15474 -0.81139,-1.10544 -1.61075,-2.21843 -2.8896,-2.81862 -0.34458,-0.11898 -0.68035,-0.26751 -1.03375,-0.35694 -3.12804,-0.79151 -6.52181,-0.26466 -9.69785,-0.30556 -3.67366,0.13483 -7.76491,-0.0472 -11.35998,-0.8706 -0.52009,-0.11913 -1.02334,-0.30251 -1.53501,-0.45377 -2.88762,0.79453 -4.01125,-3.28918 -1.12363,-4.08371 z"
       inkscape:connector-curvature="0" />
    <path
       style="fill:#818181;fill-opacity:1;stroke:none;stroke-width:0.13229167;stroke-opacity:1"
       id="path896"
       d="m 172.98534,140.93663 c 3.54308,1.9001 6.09277,5.07858 8.52871,8.18732 1.66804,2.28028 3.23348,4.77496 3.63371,7.6293 0.0627,0.44716 0.064,0.9008 0.0959,1.3512 -0.0917,2.29737 -0.83631,4.50467 -1.53554,6.67674 -0.87467,2.63344 -2.16554,5.10368 -3.57838,7.48306 -1.10719,1.8028 -2.47102,3.42284 -3.94823,4.93007 -0.83787,0.85573 -1.36728,1.9445 -2.03993,2.92549 -1.12737,1.6125 -2.59799,2.85411 -4.34915,3.72775 -0.23335,0.0909 -0.4622,0.19442 -0.70005,0.27281 -0.92788,0.30582 -1.70767,0.27799 -2.70039,0.25501 -0.0936,-0.002 -0.37351,-0.0276 -0.2799,-0.0246 0.30214,0.01 0.60387,0.03 0.9058,0.045 -1.20527,0.59627 -2.47169,0.95305 -3.78729,1.20742 -2.68594,0.44848 -4.60463,0.0247 -7.05768,-0.84108 -0.74463,-0.29552 -1.49329,-0.55256 -2.30404,-0.49964 -0.18907,0.0123 -0.41687,-0.0534 -0.5647,0.0651 -0.10757,0.0862 0.27286,0.0397 0.40929,0.0595 -2.81098,0.35157 -5.54029,-0.21577 -8.25043,-0.8734 -2.10601,-0.54856 -4.25819,-0.91177 -6.26609,-1.77123 -1.27734,-0.64876 -2.41828,-1.7536 -2.67982,-3.2249 -0.0358,-0.20157 -0.0127,-0.40926 -0.019,-0.61389 0.35725,-0.94107 0.35734,-0.8748 1.33846,-0.88917 0.31448,-0.78261 1.42127,-0.33786 1.10678,0.44477 v 0 c 1.46001,0.13148 0.2034,0.13536 1.04957,-0.0759 0.0643,-0.016 0.13232,0.007 0.19849,0.0107 0.35923,0.14254 0.71696,0.30227 1.13832,0.30264 2.17759,0.24347 4.3554,0.50989 6.46001,1.15499 1.08492,0.29649 2.17127,0.61767 3.275,0.83918 0.2974,0.0597 0.61713,0.0341 0.8976,0.1496 0.10298,0.0424 -0.42996,0.058 -0.32251,0.0873 0.27013,0.0735 0.55879,0.0354 0.83819,0.0532 0.6555,0.006 1.31135,-0.003 1.96651,0.0186 1.33383,0.0447 2.62886,0.40829 3.91335,0.7348 1.49513,0.3604 2.66884,0.43173 3.24312,0.41812 1.39266,-0.0355 2.76858,-0.19656 4.13387,-0.47734 0.50395,-0.005 1.00789,-0.0104 1.51186,-0.0134 0.0725,0 0.29005,0.003 0.21752,0.003 -0.31146,0.003 -0.62321,-0.01 -0.93445,0.003 -0.0388,0.002 0.0824,0.008 0.11598,-0.0118 0.0932,-0.0543 0.18093,-0.11737 0.27141,-0.17605 1.18373,-0.93493 2.35667,-1.88542 3.49902,-2.87054 0.80616,-0.7378 1.57544,-1.44517 1.94307,-2.51019 0.83962,-1.85529 1.90293,-3.59312 3.06126,-5.26625 1.43394,-2.08616 2.79426,-4.22127 3.94831,-6.47748 0.76479,-1.57675 1.51576,-3.20835 1.73153,-4.96533 -0.0234,-0.22275 -0.0114,-0.4521 -0.07,-0.66824 -0.53995,-1.98801 -2.98337,-3.98329 -4.19538,-5.56474 -2.46905,-2.90154 -5.1043,-5.84898 -6.35377,-9.51581 -1.20553,-1.77067 1.29858,-3.47555 2.50411,-1.70488 z"
       inkscape:connector-curvature="0" />
    <path
       style="fill:#818181;fill-opacity:1;stroke:none;stroke-width:0.13229167;stroke-opacity:1"
       id="path898"
       d="m 99.189474,89.079879 c 1.278716,-2.150882 3.515196,-3.361142 5.815816,-4.138271 1.2212,-0.320957 2.43938,-0.379047 3.69947,-0.27979 0.63814,0.05027 1.46094,0.300537 2.11452,0.41528 1.45911,0.162285 2.06592,0.0504 3.41494,-0.09167 1.58057,-0.147267 3.20828,-0.363416 4.79217,-0.0984 0.27933,0.04674 0.53151,0.195813 0.79726,0.293718 1.56503,0.86348 2.59028,2.358873 3.78407,3.641576 1.25739,1.36126 2.95303,2.158674 4.47153,3.17786 1.43647,1.017038 2.58374,2.380247 3.14044,4.069534 0.1127,0.341986 0.1718,0.699362 0.2577,1.049042 0.26093,1.673638 0.18007,3.381752 -0.1094,5.045562 -0.10229,0.48988 -0.0363,0.31104 -0.38093,0.29492 -0.1357,-0.006 -0.26992,0.031 -0.40489,0.0464 0.95483,0.59015 0.12023,1.94048 -0.8346,1.35032 v 0 c -0.26797,-0.0346 -0.55439,-4e-5 -0.80392,-0.10368 -0.63142,-0.26226 -0.81222,-1.0274 -0.97131,-1.60142 -0.20573,-1.44663 -0.0932,-2.902079 -0.18714,-4.356065 -0.27713,-1.602619 -0.79074,-2.136795 -2.22984,-2.920597 -1.86854,-1.083803 -3.67687,-2.274455 -5.03035,-3.99461 -0.68481,-0.886646 -0.48197,-0.592291 -1.07699,-1.479921 -0.26826,-0.400185 -0.5419,-0.978645 -0.91221,-1.307723 -0.0524,-0.04658 -0.1261,-0.06143 -0.18914,-0.09215 -0.80934,-0.03792 0.11918,0.0022 0.0819,0.01703 -0.19934,0.07955 -0.4263,0.05035 -0.63942,0.07584 -0.79083,0.09459 -1.5797,0.203458 -2.37103,0.293918 -1.98826,0.189412 -3.9984,0.25246 -5.94761,-0.264023 -1.66565,-0.373574 -1.06732,-0.424024 -2.42698,0.01805 -1.89337,0.910059 -3.59229,2.1988 -5.58047,2.905579 -1.39042,1.607686 -3.664026,-0.358664 -2.273606,-1.966351 z"
       inkscape:connector-curvature="0" />
    <path
       style="fill:#818181;fill-opacity:1;stroke:none;stroke-width:2.85806251;stroke-opacity:1"
       d="m 1163.6054,609.80891 c -31.4133,-1.36121 -49.2944,29.14909 -71.0052,46.68376 -24.9534,24.25134 -41.1602,61.97945 -78.7696,69.08452 -14.11415,1.26937 -28.81745,5.62737 -22.98729,23.34456 -0.87314,10.56309 1.32849,26.62746 -8.55744,33.18591 -20.44403,-5.99601 -7.46783,-34.85094 -15.50164,-48.66522 -45.18345,-2.31395 -94.95989,3.52162 -135.11239,-23.03492 -17.86381,-8.90182 -31.75821,-26.06323 -50.09788,-32.41819 -10.33474,3.20507 -25.42174,18.90447 -33.38128,3.67864 -13.93608,-9.20318 -28.66855,9.61637 -34.19069,21.13961 -16.47573,35.01346 -36.08615,72.66493 -26.85016,112.63111 5.01021,31.49332 16.13216,65.48344 40.99534,86.7969 29.39137,20.46944 64.40283,33.25207 99.76983,35.89326 10.18241,4.23765 12.08025,18.24201 21.2066,24.71218 22.44996,21.07784 15.06607,56.96527 0.78708,80.30487 -8.35666,8.855 -2.9796,23.6486 -12.05745,32.8956 -19.20984,26.6784 -44.87826,48.9768 -57.06329,80.3981 -15.89989,29.9968 -25.02339,63.2178 -25.79261,97.0195 2.49143,29.5466 3.93838,66.0385 32.8398,82.9285 29.37081,17.2016 48.43159,46.6444 74.73946,67.2705 46.10789,9.2248 95.10089,10.6092 140.12321,-4.8453 17.9767,-6.6869 38.9496,-7.95 55.1405,-18.2648 4.1336,-12.1222 -17.1013,-11.6248 -18.5327,-23.205 -10.1307,-8.2716 -0.9537,-20.6295 9.4282,-16.1045 19.9514,6.5958 41.4434,9.4413 62.1629,11.2759 31.6279,-12.0905 58.3965,-34.5912 90.6095,-44.914 6.6809,-4.2801 21.8877,2.4604 10.6563,8.9203 -19.5847,14.7637 -44.7834,21.465 -62.989,38.0982 -2.0058,14.1736 17.6783,9.1959 26.1133,11.1643 34.4534,6.246 77.0961,15.4328 104.9273,-12.4943 29.0551,-23.9159 41.2846,-60.9847 63.1987,-90.6091 11.5158,-22.1668 30.0049,-45.1991 27.3052,-71.4505 -14.11,-29.7144 -40.6803,-51.5749 -60.4659,-77.3631 -7.6431,-14.0551 -17.1642,-28.701 -20.2744,-44.1269 8.4051,-14.848 21.0468,3.2764 29.9801,7.5011 11.0918,14.8488 22.5677,1.5703 31.9372,-7.1718 19.6944,-14.5418 39.5578,-29.4939 51.6686,-51.3597 10.2064,-18.2286 39.1194,-28.91388 35.3851,-52.95399 -12.8459,-27.06699 -34.5388,-49.30724 -53.4101,-72.37819 -16.6501,-20.74926 -46.9756,-11.97219 -69.91,-15.27555 -28.5308,-0.55059 -57.0826,-1.61513 -85.6144,-1.26995 -12.4126,7.45643 8.403,18.93194 3.634,29.70264 0.087,11.51416 -12.3651,-2.73263 -15.8365,-5.54868 -11.9396,-11.64097 -20.033,-28.65206 -36.4068,-34.25208 -15.253,-10.15415 3.876,-20.87449 7.4856,-31.2154 18.5685,-58.64195 71.7038,-94.68986 113.0752,-136.81983 12.8291,-10.71712 27.3262,-23.03312 25.5353,-41.67511 -0.2387,-11.97494 9.2601,-31.89911 -8.2058,-35.70345 -49.9097,-10.47518 -101.5995,-8.72565 -152.337,-11.56064 l -2.8577,0.0428 z"
       id="path900"
       inkscape:connector-curvature="0"
       transform="scale(0.13229167)" />
    <path
       style="fill:#818181;fill-opacity:1;stroke:none;stroke-width:2.85806251;stroke-opacity:1"
       d="m 817.47837,661.53872 c -10.80113,-1.68366 -12.40241,12.34977 -3.47768,16.2664 32.99768,22.78089 73.24528,46.41355 114.80815,35.55831 9.5287,-4.09564 3.20078,-14.36198 -4.0359,-16.72413 -12.10899,-9.67208 -17.66389,-25.8989 -30.56229,-33.88925 -25.69236,3.32712 -51.22461,2.79276 -76.73228,-1.21133 z"
       id="path902"
       inkscape:connector-curvature="0"
       transform="scale(0.13229167)" />
  </g>
  <g
     inkscape:groupmode="layer"
     id="layer5"
     inkscape:label="lines 6"
     style="display:inline;opacity:0.17">
    <path
       style="fill:#000000;fill-opacity:1;stroke:none;stroke-width:1;stroke-opacity:1"
       d="m 1740.041,1051.0293 c -0.5779,1.1931 -1.1716,2.378 -1.7363,3.5645 0.078,-0.9179 0.068,-0.2964 -0.5918,1.0019 -0.6975,1.3754 -0.6513,0.9111 -0.4785,0.25 -0.084,0.2643 -0.053,0.1899 -0.1992,0.6387 -0.294,0.9579 -0.5532,1.926 -0.8809,2.873 -0.038,0.1028 -0.1974,0.3667 -0.2012,0.2578 -0.015,-0.424 0.2557,-1.6771 0.168,-1.2617 -0.1323,0.6262 -0.2372,1.258 -0.3477,1.8887 0.6546,-0.6954 1.2721,-1.4299 1.8711,-2.1817 0.9477,-0.9828 2.0994,-1.6838 3.3067,-2.4003 -0.2187,-0.925 -0.418,-1.8829 -0.5938,-2.877 h -0 c -0.083,-0.4681 -0.2096,-1.1787 -0.3125,-1.7539 z"
       transform="scale(0.13229167)"
       id="path1161" />
    <path
       style="fill:#000000;fill-opacity:1;stroke:none;stroke-width:1;stroke-opacity:1"
       d="m 1687.6699,1109.3203 c -6.0706,1.6332 -12.2758,2.6617 -18.5722,3.0508 -4.1685,0.3893 -8.3175,0.1462 -12.4981,0.4062 -1.9285,0.1202 -3.8498,0.3261 -5.7754,0.4864 -1.1243,0.093 -2.2487,0.1865 -3.373,0.2793 -0.2366,0.3519 -0.4712,0.7052 -0.7168,1.0508 -0.065,0.091 0.139,-0.2887 0.3027,-0.5977 -0.1014,0.1322 -0.2033,0.2642 -0.3047,0.3965 0.1482,-0.1407 -1.9084,2.8933 -0.2246,0.2929 -0.3964,0.5417 -1.4154,1.9941 -3.6113,5.1719 -0.7642,0.7865 -1.5124,1.5891 -2.293,2.3594 -0.3067,0.3026 -0.4734,0.4452 -0.539,0.4746 0,0.01 -0.01,0.012 -0.014,0.018 -1.6302,1.836 -3.1485,3.1874 -5.1192,4.8066 -0.22,0.1806 -0.8391,0.7026 -0.7304,0.4395 0.1822,-0.4414 0.8295,-0.592 0.9804,-1.0449 0.1096,-0.3296 -0.5585,0.4115 -0.8378,0.6171 -2.7028,2.1327 -5.5303,4.1317 -8.5684,5.7559 -0.5442,0.4528 -1.3482,1.1244 -3.3633,3.0391 -0.186,0.1232 -0.3375,0.3668 -0.5605,0.3691 -0.018,10e-5 -0.014,-0.011 -0.024,-0.016 -0.1609,0.1434 -0.3567,0.3205 -0.3769,0.3222 -0.027,0 -0.043,3e-4 -0.051,-0.012 -1.3737,1.4621 -2.8041,2.8195 -4.2266,4.1895 -2.5736,2.3874 -4.8344,5.1544 -7.914,6.957 -1.8106,1.2272 -3.5678,2.5578 -5.4512,3.5469 -1.3994,1.086 -2.8282,2.3739 -4.4551,3.4101 -0.2608,0.1663 0.4747,-0.3993 0.6992,-0.6132 0.038,-0.03 -0.086,0.046 -0.1289,0.068 -2.0567,1.8569 -6.1658,5.4954 -8.8027,6.2832 -0.1209,0.038 0.199,-0.1557 0.2988,-0.2343 -0.511,0.3409 -1.0078,0.7038 -1.5332,1.0214 -0.2344,0.1421 1.3406,-1.1879 0.6836,-0.664 -1.3001,1.0366 -2.5114,2.1341 -3.9219,3.0156 -2.9372,2.2008 -5.9076,4.3368 -8.9785,6.3594 -3.5105,1.9872 -6.8366,4.3069 -10.4179,6.1777 -4.1473,2.3167 -8.0116,5.1033 -12.1817,7.377 -4.833,2.4607 -9.4525,5.3165 -14.4023,7.5429 -2.6652,0.9213 -5.4608,1.9672 -8.2149,2.6074 -0.1104,0.023 0.1474,-0.1735 0.2207,-0.2597 -0.1867,0.045 -0.3738,0.088 -0.5605,0.1308 -0.5714,0.2517 -1.1115,0.5661 -1.668,0.8497 -1.5481,0.9102 -3.1233,1.793 -4.7265,2.6191 12.0302,-3.43 23.8099,-7.6797 35.4414,-12.2988 12.8844,-5.363 25.3602,-11.6308 37.7304,-18.0743 9.1752,-4.9416 18.6053,-9.3849 27.8418,-14.207 7.6842,-4.1203 15.2488,-8.4646 22.711,-12.9746 5.6734,-3.402 11.2689,-6.9377 16.5996,-10.8574 3.8267,-2.7382 6.6912,-6.4737 9.8027,-9.9356 3.373,-2.809 6.9422,-5.3611 10.252,-8.2617 0.5393,-0.4648 1.061,-0.9482 1.5722,-1.4414 z"
       transform="scale(0.13229167)"
       id="path1153" />
    <path
       style="fill:#000000;fill-opacity:1;stroke:none;stroke-width:1;stroke-opacity:1"
       d="m 1647.0371,1113.9961 c 0.1144,-0.1492 0.2295,-0.298 0.3438,-0.4473 -0.039,0 -0.078,0.01 -0.1172,0.01 -0.06,0.1189 -0.127,0.2497 -0.2266,0.4375 z"
       transform="scale(0.13229167)"
       id="path1151" />
    <path
       style="fill:#000000;fill-opacity:1;stroke:none;stroke-width:1;stroke-opacity:1"
       d="m 1647.2402,1113.5605 c -0.151,0.013 -0.3021,0.025 -0.4531,0.037 -0.1194,0.2663 -0.2581,0.5514 -0.3301,0.8613 -0.014,0.061 0.1034,0.034 0.1758,0.033 0.2326,-0.3579 0.091,-0.1504 0.457,-0.709 0.1406,-0.2323 0.1201,-0.182 0.1504,-0.2227 z"
       transform="scale(0.13229167)"
       id="path1129" />
    <path
       style="fill:#000000;fill-opacity:1;stroke:none;stroke-width:1;stroke-opacity:1"
       d="m 1646.5078,1114.6816 c 0.088,-0.1207 0.1132,-0.1486 0.1504,-0.1953 -0.01,-7e-4 -0.018,0 -0.025,0 -0.063,0.098 -0.07,0.109 -0.125,0.1933 z"
       transform="scale(0.13229167)"
       id="path1127" />
    <path
       style="fill:#000000;fill-opacity:1;stroke:none;stroke-width:1;stroke-opacity:1"
       d="m 1412.8594,1199.7715 c -14.125,3.8612 -28.5871,5.965 -43.1348,7.7734 -16.5805,2.4939 -33.1128,5.4673 -49.2344,10.0313 -1.3621,2.0346 -2.8463,4.0741 -4.664,5.5664 -0.045,0.038 0.038,-0.1073 0.061,-0.1602 -2.12,2.7335 -4.2677,5.4125 -6.4961,7.9903 -3.4508,4.3575 -6.8863,8.8562 -11.2949,12.2949 -3.6613,2.9704 -7.5279,5.6786 -11.7422,7.8183 -4.4856,2.7225 -8.6059,6.0839 -13.6035,7.8946 -4.1316,1.5903 -8.2816,3.2334 -12.5508,4.3906 -3.6506,0.7415 -7.253,1.7017 -10.8691,2.5957 -4.6156,1.1155 -9.3014,2.0295 -14.0293,2.3867 -4.1805,0.8465 -8.3636,1.0995 -12.5781,1.6074 -6.6213,0.9546 -13.244,1.3711 -19.9336,1.0371 -5.9467,-0.161 -11.8908,-0.1055 -17.8379,-0.2226 -6.3061,-0.3183 -12.5676,-1.0378 -18.8457,-1.6914 -4.8467,-0.8209 -9.6393,-1.9298 -14.2774,-3.502 -0.75,-0.1093 -1.4989,-0.2297 -2.2461,-0.3711 -6.65,-1.0253 -13.2408,-2.4856 -19.7422,-4.2089 -3.1714,-0.5972 -6.3145,-0.6304 -9.5175,-1.0196 -2.9189,-0.3549 -5.7966,-0.9147 -8.6582,-1.5527 -17.5693,0.4844 -35.1432,0.1268 -52.7168,0.027 -2.654,0.7221 -5.2205,1.6552 -7.8555,2.5118 -2.4058,0.7536 -5.7189,2.09 -8.2324,2.0917 -0.2124,2e-4 0.8071,-0.1718 0.5996,-0.2187 -0.2321,-0.053 -0.4573,0.1307 -0.6856,0.1973 -1.9541,0.5306 -3.8123,1.3748 -5.7871,1.8437 -2.4098,0.5548 -4.7262,1.355 -6.959,2.4297 -2.5388,0.7818 -4.9099,2.2125 -7.5937,2.5332 -2.6719,0.1814 -4.9758,1.9558 -7.543,2.6816 -3.1532,1.234 -6.3654,2.3106 -9.7109,2.8907 -2.881,0.4626 -5.795,1.5979 -8.76564,1.9707 -4.4452,1.2047 -8.92009,2.3785 -13.45898,3.1816 -1.79191,0.6291 -3.59998,1.2155 -5.41211,1.791 -4.79275,1.6963 -9.4181,3.7914 -14.09766,5.7676 3.83607,0.3532 7.67408,0.6918 11.51367,1.0059 26.39852,2.0326 52.85892,0.8905 79.24022,-0.6836 16.9188,-1.3157 33.8036,-1.3655 50.7266,-0.3692 19.7044,1.7227 39.6441,1.7968 59.3105,-0.4804 10.7151,-1.2408 18.5138,-2.7652 29.1348,-4.6231 23.5855,-4.7225 46.7686,-11.1803 70.1289,-16.8672 18.6936,-4.2913 37.1907,-9.382 55.8672,-13.7383 21.3673,-4.4484 42.6613,-9.1482 63.8105,-14.539 16.0362,-4.1471 32.192,-7.7912 48.2246,-11.9551 14.8804,-4.4504 29.4454,-9.8704 44.1133,-14.9609 1.2736,-0.4751 2.5569,-0.9178 3.8418,-1.3555 -2.701,0.56 -5.4205,0.9764 -8.2148,0.7988 -3.488,-0.076 -6.9633,-0.3402 -10.4473,-0.5019 -3.2312,-0.1179 -6.468,-0.06 -9.6933,-0.3282 -1.9451,-0.2622 -3.7322,-0.6999 -5.6504,-0.9511 -4.6338,-0.06 -9.3453,0.4637 -13.7246,-1.5117 -3.12,-1.1355 -6.0142,-2.9568 -9.4297,-3.3672 -0.8317,-0.2903 -4.3633,-1.5216 -4.543,-1.5957 -1.6426,-0.6778 -3.227,-1.4866 -4.7949,-2.334 z"
       transform="scale(0.13229167)"
       id="path1010" />
    <path
       style="fill:#000000;fill-opacity:1;stroke:none;stroke-width:1;stroke-opacity:1"
       d="m 641.25781,1214.9746 c 0.74249,0.2431 1.48844,0.4739 2.23047,0.7188 20.25512,7.1353 40.40039,14.5408 60.85352,21.0976 23.05274,7.0185 46.60117,12.2009 70.07031,17.5957 13.24561,3.2781 26.56536,6.2241 39.93359,8.9336 -0.0735,-0.075 -0.1521,-0.1429 -0.22461,-0.2187 -2.48526,-2.3726 -4.81684,-4.8754 -7.45117,-7.0996 -3.34034,-2.6708 -6.85944,-5.1025 -10.33789,-7.5879 -4.35023,-3.9594 -8.84508,-7.7386 -12.48242,-12.4082 -2.70992,-2.4307 -5.59618,-4.8736 -7.70508,-7.8731 -1.37863,-1.9608 -2.47286,-4.0739 -3.41601,-6.2598 -4.44916,-1.1156 -8.89642,-2.24 -13.34766,-3.3457 -1.32034,0.568 -2.65004,1.1141 -4.00977,1.5938 -2.41732,0.644 -4.76574,1.7356 -7.3164,2.3027 -2.48761,0.2608 -4.7152,0.5675 -7.15039,0.3438 h -2.10547 -1.65235 c -0.97476,1e-4 -1.94906,1e-4 -2.92382,0 h -2.19141 c -0.67706,-3e-4 -1.35667,0.014 -2.03516,-0.031 -0.82981,0 -1.66048,6e-4 -2.49023,-0.01 0.50918,-0.038 -1.02083,0.052 -1.53125,0.037 -0.88725,-0.023 -1.77243,-0.1101 -2.6582,-0.166 -0.1722,-0.01 -0.34374,-0.03 -0.51563,-0.045 0.30335,0 1.21355,-0.01 0.91016,-0.01 -2.61644,-0.022 -5.2253,-0.1666 -7.75391,-0.7813 -1.40449,-0.192 -2.80149,-0.4846 -3.91992,-0.7441 -1.27452,-0.04 -3.08021,-0.1103 -4.25977,-0.1719 -1.14988,0.034 -2.29784,0.064 -3.44922,0.014 -0.77614,-0.032 -2.81921,-0.088 -2.91992,-0.1778 -1.32501,0.02 -2.65202,0.054 -3.97265,-0.084 -1.2214,-0.091 -2.96835,-0.1446 -5.06446,-0.1446 -1.51583,-0.01 -3.03098,-0.069 -4.54492,-0.039 -2.88045,-0.061 -5.75496,-0.2362 -8.63086,-0.3965 -2.78939,-0.3401 -4.63766,-0.7129 -7.44726,-0.9141 -2.63886,-0.4362 -5.40269,-0.074 -8.02149,-0.75 -2.52301,-0.4256 -4.98807,-1.0676 -7.53711,-1.2617 -4.78305,-0.4785 -9.52124,-1.2735 -14.27734,-1.959 -0.2201,-0.048 -0.43549,-0.1069 -0.6543,-0.1582 z"
       transform="scale(0.13229167)"
       id="path1008" />
    <path
       style="fill:#000000;fill-opacity:1;stroke:none;stroke-width:1;stroke-opacity:1"
       d="m 404.76953,1124.4434 c -5.30156,-0.1908 -8.50043,7.3194 -2.6582,10.7656 10.44186,9.61 24.11529,14.9533 37.16601,20.0586 13.61738,5.6011 27.46241,10.4876 41.45313,15.0605 18.96286,6.8447 38.1697,12.8742 57.73047,17.75 17.98406,4.4293 36.27235,7.5403 54.11133,12.5449 3.84927,0.9928 7.68505,2.024 11.51367,3.0821 -1.08151,-0.4592 -2.19931,-0.8448 -3.27539,-1.3125 -0.5754,-0.2502 -1.12499,-0.5541 -1.6875,-0.8321 -0.32512,-0.2086 -0.6263,-0.4644 -0.97657,-0.6269 -1.13558,-0.5284 -2.31215,-0.961 -3.46875,-1.4414 -3.57885,-1.9289 -6.90252,-4.1507 -10.09375,-6.625 -1.94792,-1.5451 -4.52652,-2.3353 -6.80468,-3.4727 -5.14374,-2.242 -10.29949,-4.5814 -14.59766,-8.2754 -1.15046,-0.9485 -1.72334,-1.3649 -2.74219,-2.3945 -0.28943,-0.2925 -0.48623,-0.6845 -0.82226,-0.9219 -1.9478,-1.3768 -4.38988,-2.152 -6.61133,-2.9101 -2.91599,-0.9154 -3.90754,-1.1281 -6.69727,-2.3985 -6.7862,-3.0901 -12.73561,-7.6961 -19.05859,-11.58 -1.41006,-0.8662 -2.65663,-1.7518 -3.7832,-2.6465 -1.04621,0.396 -2.10128,0.7649 -3.18164,1.0469 -3.74096,1.1259 -7.38735,2.6704 -11.33399,2.9433 -2.18849,0.083 -4.36217,0.023 -6.54687,-0.078 -1.2384,-0.077 -2.48025,-0.093 -3.71485,-0.2461 -1.69474,-0.3931 -3.68729,0.4097 -5.38476,-0.1973 -0.34315,-0.048 -0.50018,-0.074 -0.66602,-0.1015 -2.35218,0.066 -4.70965,0.1097 -7.03125,-0.3731 -0.67797,-0.1899 -1.3557,-0.3786 -2.0332,-0.5703 -0.12912,-0.01 -0.25772,-0.017 -0.38672,-0.025 -0.24983,-0.03 -0.99877,-0.052 -0.75,-0.09 0.12775,-0.019 0.36844,0 0.57812,0.022 -1.47783,-0.149 -1.98012,-0.2312 -3.10937,-0.4336 -2.221,-0.3616 -4.41846,-0.7723 -6.47461,-1.6621 -0.94521,-0.1926 -1.71377,-0.3745 -2.17578,-0.5332 -0.003,-7e-4 -0.0106,-0 -0.0137,-0 -1.99874,-0.3424 -3.91188,-0.8589 -5.75196,-1.6699 -0.51058,-0.1033 -1.0207,-0.2073 -1.53125,-0.3106 -0.24536,-0.08 -0.49338,-0.1533 -0.73632,-0.2402 -0.54099,-0.1941 -0.82077,-0.3072 -1.12891,-0.4297 -0.0456,-0.01 -0.0911,-0.02 -0.13672,-0.029 -1.0054,-0.116 -5.04436,-0.6857 -5.22265,-0.8496 -1.96941,-0.5221 -3.88984,-1.1674 -5.80274,-1.8555 -0.97991,-0.2179 -1.55678,-0.3528 -1.26562,-0.3027 -0.46692,-0.08 -0.51549,-0.1035 1.18164,0.1289 -2.68345,-0.3643 -5.31155,-0.8568 -7.82032,-1.8926 2.56326,0.2722 -6.45689,-1.8429 -6.09765,-2.6816 0.009,-0.02 0.0231,-0.025 0.0332,-0.041 -2.09469,-0.8512 -4.12719,-1.8537 -5.88281,-3.2735 -0.94352,-0.7575 -1.98848,-1.4022 -2.83008,-2.2715 -0.77938,-0.805 -1.44982,-1.7073 -2.12109,-2.6074 -0.49733,-0.4431 -1.00564,-0.8743 -1.50196,-1.3183 -2.7987,-1.8702 -5.13159,-4.2126 -6.53125,-7.584 -0.0333,-0.1176 -0.11396,-0.3657 -0.16211,-0.5235 -1.7612,-1.5937 -1.31168,-1.1773 -0.14062,-0.4589 -0.0784,-0.2509 -0.14014,-0.458 -0.22461,-0.7266 -1.51794,-0.9886 -2.96237,-2.0594 -4.25977,-3.3223 -1.7936,-0.226 -3.6153,-0.1825 -5.42187,-0.289 -1.08189,-0.6382 -2.13542,-0.9374 -3.11719,-0.9727 z"
       transform="scale(0.13229167)"
       id="path1230" />
    <path
       style="fill:#000000;fill-opacity:1;stroke:none;stroke-width:1;stroke-opacity:1"
       d="m 414.54688,1125.8984 c 0.53576,0.7105 1.09379,1.4065 1.62695,2.084 0.0734,0.093 0.71471,0.5375 1.37695,0.9883 -0.37458,-1.1922 -0.70738,-2.2809 -0.36133,-1.6113 0.34371,0.6649 0.65296,1.3483 0.97071,2.0273 0.83203,0.5594 1.43306,0.9535 0.60742,0.4121 -0.20127,-0.1236 -0.39452,-0.2552 -0.59375,-0.3808 0.12129,0.2589 0.25036,0.5136 0.37695,0.7695 1.86856,1.0066 4.31699,1.7144 3.2461,-2.5371 -2.42675,-0.7337 -4.84825,-1.3343 -7.25,-1.752 z"
       transform="scale(0.13229167)"
       id="path1228" />
    <path
       style="fill:#000000;fill-opacity:1;stroke:none;stroke-width:1;stroke-opacity:1"
       d="m 419.11719,1131.2461 c 0.0212,0.037 0.041,0.075 0.0625,0.1113 0.23358,0.175 0.58487,0.4612 0.46484,0.3457 -0.26569,-0.2554 -0.37221,-0.3281 -0.52734,-0.457 z"
       transform="scale(0.13229167)"
       id="path1226" />
    <path
       style="fill:#000000;fill-opacity:1;stroke:none;stroke-width:1;stroke-opacity:1"
       d="m 419.29883,1131.5684 c 0.0164,0.027 0.0302,0.055 0.0469,0.082 0.37591,0.6032 0.96306,1.0471 1.47657,1.5391 0.0453,0.045 0.22404,0.096 0.18164,0.047 -0.38846,-0.424 -0.82544,-0.801 -1.23829,-1.2011 0.65001,0.388 0.046,0.031 -0.46679,-0.4668 z"
       transform="scale(0.13229167)"
       id="path1224" />
    <path
       style="fill:#000000;fill-opacity:1;stroke:none;stroke-width:1;stroke-opacity:1"
       d="m 425.37305,1138.8184 c 0.0618,0.044 0.11681,0.097 0.18164,0.1367 0.0311,0.019 0.0645,0.034 0.0957,0.053 -0.0129,-0.017 -0.0261,-0.034 -0.0391,-0.051 -0.0781,-0.048 -0.16079,-0.091 -0.23828,-0.1386 z"
       transform="scale(0.13229167)"
       id="path1222" />
    <path
       style="fill:#000000;fill-opacity:1;stroke:none;stroke-width:1;stroke-opacity:1"
       d="m 425.70898,1139.0156 c 0.0124,0.016 0.0247,0.031 0.0371,0.047 0.27975,0.1656 0.56683,0.319 0.85352,0.4727 -0.30121,-0.1689 -0.59751,-0.3428 -0.89063,-0.5196 z"
       transform="scale(0.13229167)"
       id="path1220" />
    <path
       style="fill:#000000;fill-opacity:1;stroke:none;stroke-width:1;stroke-opacity:1"
       d="m 427.16992,1140.5898 c 0.32508,0.2831 0.6681,0.5474 1.06055,0.7559 -0.86173,-0.6198 -0.97032,-0.6858 -1.06055,-0.7559 z"
       transform="scale(0.13229167)"
       id="path1218" />
    <path
       style="fill:#000000;fill-opacity:1;stroke:none;stroke-width:1;stroke-opacity:1"
       d="m 481.92578,1160.2305 c -0.27439,-0.076 0.53633,0.1886 0.8086,0.2695 0.10543,0.031 0.31165,0.059 0.47265,0.09 -0.42719,-0.1198 -0.85244,-0.2455 -1.28125,-0.3593 z"
       transform="scale(0.13229167)"
       id="path1216" />
    <path
       style="fill:#000000;fill-opacity:1;stroke:none;stroke-width:1;stroke-opacity:1"
       d="m 483.85352,1160.7109 c 0.39989,0.059 0.75955,0.1023 0.83007,0.1094 0.12042,0.015 0.48167,-0.014 0.36133,-0.029 -0.39622,-0.039 -0.79353,-0.058 -1.1914,-0.08 z"
       transform="scale(0.13229167)"
       id="path942" />
    <path
       style="fill:#000000;fill-opacity:1;stroke:none;stroke-width:2.02095532;stroke-opacity:1"
       d="m 1740.248,1053.1016 c -0.5703,0.3072 -1.1239,0.6415 -1.6855,0.9629 -0.086,0.1764 -0.1757,0.3521 -0.2598,0.5293 0.019,-0.2213 0.031,-0.3438 0.031,-0.3985 0,0 -0.01,0.01 -0.012,0.01 -0.024,-0.017 -0.1616,0.5076 -0.6114,1.3926 -0.6975,1.3754 -0.6513,0.9111 -0.4785,0.25 -0.084,0.2643 -0.053,0.1898 -0.1992,0.6386 -0.294,0.9579 -0.5532,1.9261 -0.8809,2.8731 -0.038,0.1028 -0.1973,0.3667 -0.2011,0.2578 -0.015,-0.424 0.2556,-1.6771 0.1679,-1.2617 -0.3817,1.8056 -0.5706,3.6514 -1.1543,5.4121 -1.1712,4.0846 -2.9118,7.8675 -4.5742,11.7617 -1.3251,2.5307 -2.4787,4.9092 -3.7949,6.6719 -1.2499,3.5884 -3.0283,6.8401 -5.543,9.7148 -3.8787,3.9131 -8.0419,7.636 -12.6562,10.6641 -2.7517,0.9956 -5.3642,2.8414 -8.375,3.3633 -2.8856,-0.734 -6.1123,1.7615 -8.7793,2.3515 -3.7752,1.1763 -7.6082,2.1056 -11.4863,2.7969 -11.4408,11.1517 -24.7043,20.5419 -37.4942,29.6387 -1.4745,9.4139 6.596,19.7119 3.4961,30.123 -3.1269,23.5109 -2.1776,50.2619 -18.3828,69.332 -4.0621,8.8328 -0.065,20.5648 -4.6035,27.918 -7.0475,-1.9572 -12.1643,6.0563 -18.4258,2.0156 -16.5181,1.5431 -26.9211,17.3837 -41.9434,23.2149 -32.5222,16.9061 -55.2664,47.5793 -88.789,62.875 -24.7646,10.5766 -43.8977,29.6776 -62.877,48.1426 -21.9936,16.3765 -48.8834,23.5097 -74.084,33.3984 -52.8682,16.4341 -107.6391,26.8378 -161.2402,41.3086 -66.7703,18.7137 -136.6463,11.7541 -205.27538,13.1035 -80.4587,0.3908 -160.89093,-2.8509 -241.32227,-2.2305 -6.83489,-0.5059 -13.75408,2.8928 -18.21679,7.0137 -11.01431,-7.8706 -25.07182,-12.1583 -32.92188,-24.2754 -17.23234,-20.4365 -22.36549,-47.6469 -21.99414,-73.6426 -2.95777,-11.4651 -17.9777,-10.5287 -25.92187,-16.582 -30.5219,-13.8811 -38.87483,-49.2405 -57.77539,-73.9473 -26.37038,-33.9877 -38.85359,-75.7208 -42.33985,-117.8066 0.13211,-13.8536 -17.93903,-12.159 -26.92187,-17.1172 -33.26556,-10.5737 -66.11232,-22.9186 -97.51368,-37.9824 -10.36247,1.5673 -5.85199,16.007 -7.41796,23.3281 -1.97813,50.1588 13.76968,98.6852 18.35156,148.2363 3.20483,33.4456 23.82341,60.7225 41.38672,87.9981 7.57576,14.2461 19.86033,25.2191 28.41211,38.668 14.3897,16.4021 32.86571,28.3101 48.96484,42.6718 15.20016,25.4866 37.04184,46.3793 62.0332,62.2813 20.43844,14.6496 44.43575,22.1846 68.54688,28.0937 14.90653,4.8483 31.05245,7.9365 42.52734,19.5547 30.63954,20.9554 64.2469,39.4784 101.72071,43.8594 65.13381,10.8296 131.39394,13.2015 197.24022,9.0117 56.7855,-2.7585 113.8151,-3.5693 170.3574,-9.5273 29.8953,-3.9912 60.5594,-6.9769 90.0391,-14.9121 43.3595,-6.9496 88.0763,-12.1883 127.4707,-33.1719 19.8399,-10.2627 41.7326,-17.7478 59.8535,-30.5742 27.4322,-25.4271 50.1311,-58.606 85.8242,-73.0645 32.8418,-17.1038 69.8781,-27.1491 99.3438,-50.1601 24.1929,-23.5221 45.1212,-50.5555 63.707,-78.6797 21.5768,-36.5927 22.5622,-80.5114 34.3399,-120.4961 4.6564,-11.9317 4.0244,-25.0423 7.9023,-36.9883 11.397,-14.6687 9.7937,-34.3727 7.4961,-51.7031 -3.3505,-8.4059 -11.0074,-15.6341 -8.0781,-25.5235 0.01,-15.3275 1.9728,-31.0173 1.1757,-46.3691 -2.6395,-3.545 -4.7834,-8.5077 -5.9746,-14.9785 -0.06,-0.016 -0.1236,-0.026 -0.1836,-0.043 z"
       transform="scale(0.13229167)"
       id="path1169" />
    <path
       style="fill:#000000;fill-opacity:1;stroke:none;stroke-width:2.02095532;stroke-opacity:1"
       d="m 1727.5312,1078.9551 c 0.061,-0.1988 -0.1503,0.3895 -0.207,0.5898 -0.025,0.089 -0.045,0.1785 -0.068,0.2676 0.091,-0.286 0.1853,-0.571 0.2753,-0.8574 z"
       transform="scale(0.13229167)"
       id="path992" />
    <path
       style="fill:#000000;fill-opacity:1;stroke:none;stroke-width:2.02095532;stroke-opacity:1"
       d="m 517.53906,1430.8086 c -2.11382,7.6631 -10.47941,1.5649 0,0 z"
       transform="scale(0.13229167)"
       id="path944" />
    <path
       style="fill:#000000;fill-opacity:1;stroke:none;stroke-width:2.02095532;stroke-opacity:1"
       d="m 1639.0859,1142.1113 c -25.3717,12.3059 -50.5346,25.9465 -76.5351,37.2266 -2.4688,1.5568 -4.9193,3.1435 -7.4824,4.541 -4.833,2.4607 -9.4526,5.3166 -14.4024,7.543 -2.6652,0.9213 -5.4607,1.9672 -8.2148,2.6074 -0.1104,0.023 0.1474,-0.1736 0.2207,-0.2598 -0.1867,0.045 -0.3739,0.088 -0.5606,0.1309 -0.5714,0.2517 -1.1114,0.566 -1.6679,0.8496 -4.8495,2.8513 -9.9257,5.5111 -15.5039,6.5938 -4.4752,1.6818 -9.0384,3.5816 -13.8653,3.8535 -5.0715,0.7211 -9.9585,2.7608 -15.1367,2.9316 -4.9013,0.9625 -9.7281,2.5544 -14.7949,2.2324 -1.5353,-0.033 -3.0674,-0.1059 -4.5996,-0.1875 -24.9488,7.7125 -49.8981,15.4281 -75.0606,22.2676 -8.8299,4.4064 -5.9076,16.9646 -11.4023,24.3711 -11.9854,27.206 -25.3609,53.9665 -46.459,75.1074 -16.5568,20.1815 -30.2405,44.9509 -55.5293,55.5078 -12.1272,3.2947 -24.6424,5.4004 -36.5508,9.8848 -24.3888,5.5127 -48.4031,-0.3241 -71.4472,-7.1914 -19.516,-1.4493 -38.5448,1.4186 -57.4141,-4.2598 -10.9566,-2.8514 -23.177,-5.2941 -32.8613,2.2188 -34.2678,13.7144 -67.9386,29.7159 -104.01371,37.6113 -38.02648,5.3576 -77.09144,0.3306 -114.11524,-8.9082 -28.94762,-9.9589 -43.62712,-39.8095 -67.48633,-57.2168 -20.51294,-15.5871 -46.18126,-34.0123 -45.33593,-62.8437 -2.27996,-17.3382 0.43419,-35.6782 -3.91992,-52.3868 -28.38111,-7.6736 -56.25986,-17.1986 -84.19727,-26.5429 -1.51008,-0.2978 -3.02046,-0.5781 -4.56055,-0.6953 -4.78305,-0.4785 -9.52124,-1.2735 -14.27734,-1.959 -3.08855,-0.6743 -6.03735,-1.7037 -9.17578,-2.1465 -2.71666,-0.5548 -5.37257,-1.2114 -7.98047,-2.1231 -3.44447,-0.7798 -6.86099,-1.5796 -10.24609,-2.6093 -2.16813,-0.7076 -4.05219,-1.3861 -6.07032,-2.4141 -0.19011,-0.097 -0.27366,-0.3468 -0.46679,-0.4375 -0.70972,-0.3326 -1.45565,-0.5807 -2.1836,-0.8711 -1.56087,-0.9196 -3.32285,-1.4248 -4.97851,-2.1445 -0.5754,-0.2502 -1.12499,-0.5541 -1.6875,-0.8321 -0.32512,-0.2086 -0.6263,-0.4644 -0.97657,-0.6269 -1.13558,-0.5284 -2.31215,-0.961 -3.46875,-1.4414 -2.32387,-1.2525 -4.53153,-2.6405 -6.67382,-4.1289 -10.80574,-2.8436 -21.68955,-5.4113 -32.68555,-7.5781 -9.37342,-0.3873 -20.60411,-8.5593 -28.99024,-2.6192 -2.38771,16.1652 4.47268,32.7826 6.92774,48.8125 9.56372,47.3476 42.40396,84.5894 65.33789,125.3887 11.93364,19.7859 34.42998,27.4398 52.89648,39.1523 0.12763,29.073 6.94031,59.8243 28.13868,81.1172 8.5706,8.0382 18.85205,17.2098 31.04101,17.9805 14.96503,-5.6617 32.21315,-1.1958 48.02149,-2.7168 105.23408,-0.8378 210.47645,2.5227 315.69529,0.8066 38.905,-0.2234 77.4871,-5.737 114.9473,-16.2031 64.4485,-17.0452 130.9583,-28.4727 192.4082,-55.1543 36.3854,-14.0604 58.8252,-49.0803 94.1445,-65.1367 35.9557,-19.8571 64.5889,-50.3957 100.584,-70.2695 12.3543,-10.1202 27.1825,-15.1057 42.8008,-16.3457 12.5986,-2.3769 7.8321,-18.9464 11.668,-27.9942 6.7779,-14.3763 13.62,-28.9807 15.5937,-45.0703 2.2806,-18.3054 7.8252,-39.8557 -3.3457,-56.2344 -1.0973,-1.1068 -2.6835,-1.0379 -4.1016,-1.1875 z"
       transform="scale(0.13229167)"
       id="path946" />
    <path
       style="fill:#000000;fill-opacity:1;stroke:none;stroke-width:2.02095532;stroke-opacity:1"
       d="m 1383.3711,1234.5449 v 0 c -0.2022,-0.011 -0.4071,-0.01 -0.6133,0 -0.2199,0.013 -0.443,0.04 -0.666,0.082 -39.9482,7.8014 -79.3916,18.1796 -118.9453,27.8418 -0.9771,0.3134 -1.9586,0.6129 -2.9473,0.8809 -3.6506,0.7415 -7.253,1.7017 -10.8691,2.5957 -1.8871,0.456 -3.7887,0.8641 -5.6973,1.2285 -21.1093,4.9734 -42.2788,9.5849 -63.6035,13.3281 -61.2484,7.0299 -123.0552,3.6915 -184.60938,3.957 -7.51058,0.1329 -14.99687,-0.01 -22.46484,-0.3691 -3.95367,1.5988 -7.84103,3.3591 -11.79297,4.9727 -7.54915,2.5717 -15.2796,4.2957 -23.2832,4.5566 -6.47978,0.669 -12.92602,1.6647 -19.43164,1.959 -6.55,-0.045 -13.10003,0.022 -19.64844,-0.1778 -4.94551,-0.1165 -9.88135,-0.409 -14.8125,-0.7871 -5.50451,-0.1829 -11.05164,-0.843 -16.32227,-2.5 -4.2791,-1.2675 -8.50505,-2.6665 -12.58203,-4.459 -4.46921,-1.6414 -9.05662,-2.9758 -13.41797,-4.914 -2.68588,-1.4144 -5.75453,-2.8714 -7.68164,-5.3047 -3.6675,-2.0257 -7.15099,-4.3382 -10.53125,-6.8164 -2.95922,-2.7098 -6.54237,-4.6099 -9.33008,-7.5273 -1.8606,-1.7764 -3.63576,-3.6244 -5.51562,-5.375 -20.73904,-4.2437 -41.47273,-9.2472 -61.66797,-13.2266 -9.24393,6.5761 -1.2475,22.8229 -3.08789,33.3144 -0.17006,23.4641 4.6685,48.9806 24.03125,64.459 23.00735,18.9676 44.52002,39.5521 65.65625,60.5528 21.73843,21.3685 54.27773,23.37 82.80469,27.7363 37.78699,3.8275 76.22175,-2.0067 110.9824,-17.3965 20.7304,-7.1428 40.5511,-16.9748 60.961,-24.6328 24.2537,-0.3599 48.0012,6.7944 72.3632,5.7949 24.9248,2.364 49.4206,12.2034 74.795,7.2578 19.4554,-3.887 40.0765,-7.6088 57.0371,-18.3144 26.1211,-21.5881 45.5965,-50.0131 65.5468,-77.0918 11.9252,-20.8494 25.9579,-41.8541 30.875,-65.6094 0.022,-3.0904 -2.4979,-5.8492 -5.5312,-6.0176 z"
       transform="scale(0.13229167)"
       id="path1030" />
    <path
       style="fill:#000000;fill-opacity:1;stroke:none;stroke-width:2.02095532;stroke-opacity:1"
       d="m 1060.0898,1376.6289 c 3.9876,4.2042 -2.1709,6.0776 0,0 z"
       transform="scale(0.13229167)"
       id="path948" />
  </g>
</svg>
