<?xml version="1.0" encoding="UTF-8" standalone="no"?>
<!-- Created with Inkscape (http://www.inkscape.org/) -->

<svg
   xmlns:dc="http://purl.org/dc/elements/1.1/"
   xmlns:cc="http://creativecommons.org/ns#"
   xmlns:rdf="http://www.w3.org/1999/02/22-rdf-syntax-ns#"
   xmlns:svg="http://www.w3.org/2000/svg"
   xmlns="http://www.w3.org/2000/svg"
   xmlns:sodipodi="http://sodipodi.sourceforge.net/DTD/sodipodi-0.dtd"
   xmlns:inkscape="http://www.inkscape.org/namespaces/inkscape"
   width="1024"
   height="1024"
   viewBox="0 0 270.93333 270.93333"
   version="1.1"
   id="svg8"
   inkscape:version="0.92.4 (5da689c313, 2019-01-14)"
   sodipodi:docname="spark.svg"
   inkscape:export-filename="C:\Users\panu-\PycharmProjects\nextgame\data\images\particles\spark.png"
   inkscape:export-xdpi="10.923292"
   inkscape:export-ydpi="10.923292">
  <defs
     id="defs2" />
  <sodipodi:namedview
     id="base"
     pagecolor="#ffffff"
     bordercolor="#666666"
     borderopacity="1.0"
     inkscape:pageopacity="0.0"
     inkscape:pageshadow="2"
     inkscape:zoom="0.49481546"
     inkscape:cx="247.08784"
     inkscape:cy="664.15362"
     inkscape:document-units="mm"
     inkscape:current-layer="layer3"
     showgrid="false"
     units="px"
     width="1024px"
     inkscape:window-width="1920"
     inkscape:window-height="1017"
     inkscape:window-x="-8"
     inkscape:window-y="-8"
     inkscape:window-maximized="1"
     inkscape:pagecheckerboard="true" />
  <metadata
     id="metadata5">
    <rdf:RDF>
      <cc:Work
         rdf:about="">
        <dc:format>image/svg+xml</dc:format>
        <dc:type
           rdf:resource="http://purl.org/dc/dcmitype/StillImage" />
        <dc:title></dc:title>
      </cc:Work>
    </rdf:RDF>
  </metadata>
  <g
     inkscape:groupmode="layer"
     id="layer3"
     inkscape:label="lines 1">
    <path
       style="fill:#ffdd55;fill-opacity:1;stroke:none;stroke-width:0.18702191;stroke-opacity:1"
       id="path917"
       d="m 137.53383,120.49223 c -0.17133,-0.24628 -0.36471,-0.47861 -0.51397,-0.73887 -0.70322,-1.2261 -1.12062,-2.60778 -1.5761,-3.93633 -0.82308,-2.40079 -0.216,-0.67294 -1.05759,-3.03835 -0.64097,-1.68847 -1.41634,-3.35369 -2.76207,-4.60196 -0.82808,-0.76811 -1.06739,-0.82271 -2.05687,-1.37543 -1.6163,-0.71626 -3.35278,-1.19426 -5.1219,-1.31425 -1.00216,-0.068 -1.43186,-0.002 -2.42921,0.0694 -2.84989,0.36517 -5.43779,1.65022 -7.97616,2.919 -2.00669,1.10525 -4.08244,2.29508 -5.44329,4.19891 -0.2199,0.30762 -0.3934,0.64588 -0.59012,0.96882 -0.14131,0.34239 -0.31127,0.67433 -0.42395,1.0272 -0.56018,1.75404 -0.51294,4.16139 0.01,5.90446 0.43798,3.11528 1.02827,6.27506 2.37226,9.14573 0.25413,0.5428 0.56587,1.05671 0.8488,1.58508 1.11732,1.81094 2.58269,3.36662 4.52226,4.29689 1.10118,0.52814 1.50893,0.55971 2.67775,0.83644 1.70394,0.26952 3.4509,0.19466 5.11821,-0.26323 0.91268,-0.25065 1.62277,-0.5778 2.4971,-0.93974 2.39676,-1.08316 4.64012,-2.44761 6.64205,-4.15186 1.22895,-1.03896 2.05494,-2.38008 2.77043,-3.79734 0.51975,-1.0388 0.76672,-2.14419 0.85255,-3.29368 0.004,-1.6235 -0.0519,-1.6803 -0.1394,-3.11683 -0.0802,-0.80395 -0.0241,-1.59709 0.0593,-2.39661 -0.88303,-1.54719 1.30503,-2.79599 2.18806,-1.2488 v 0 c 0.19524,0.2294 0.42037,0.43639 0.58572,0.68819 0.36818,0.56061 0.45781,1.01238 0.64989,1.64094 0.3379,1.90347 0.45866,3.86624 0.12303,5.77919 -0.29876,1.41018 -0.73224,2.78608 -1.36197,4.08661 -0.85916,1.80229 -1.89441,3.51949 -3.25692,4.99207 -0.87631,0.87703 -1.0899,1.14582 -2.09215,1.91692 -1.71825,1.32196 -3.65012,2.33195 -5.67083,3.10458 -3.15265,1.09458 -6.34726,1.89301 -9.71487,1.52419 -1.7133,-0.31932 -2.1539,-0.3091 -3.78924,-0.99406 -2.69955,-1.13068 -4.91427,-3.02393 -6.60355,-5.39762 -1.06374,-1.79708 -1.34777,-2.09589 -2.08277,-4.0628 -1.01664,-2.72054 -1.41804,-5.61137 -1.57371,-8.49633 -0.0251,-1.01589 -0.0865,-2.03157 -0.0755,-3.04766 0.0315,-2.72373 0.65662,-5.43653 1.90535,-7.85629 0.27604,-0.44485 0.52564,-0.90726 0.82817,-1.33454 1.66275,-2.34836 4.01426,-4.07078 6.5583,-5.3568 0.54058,-0.24174 1.07316,-0.50226 1.62176,-0.72524 2.43977,-0.99162 5.02065,-1.59003 7.61802,-1.98523 1.2531,-0.15046 1.76,-0.25238 3.03778,-0.23597 2.29744,0.0294 4.5329,0.56727 6.59663,1.57739 1.25043,0.74241 1.83886,0.99886 2.9064,2.00099 1.67794,1.57512 2.73105,3.65037 3.49609,5.78816 0.79389,2.53724 1.60801,5.22202 1.48651,7.91472 -0.0162,0.3581 -0.0913,0.7111 -0.13687,1.06666 0.47608,1.07659 -1.04643,1.74986 -1.52251,0.67328 z"
       inkscape:connector-curvature="0"
       inkscape:transform-center-x="-2.835734"
       inkscape:transform-center-y="-4.6316988" />
    <path
       style="fill:#ffdd55;fill-opacity:1;stroke:none;stroke-width:0.26726013;stroke-opacity:1"
       d="m 137.44488,118.7188 c -0.18844,-3.81923 -1.46225,-7.67392 -3.75397,-10.74376 -4.09762,-4.78784 -11.46135,-4.96239 -16.92558,-2.66534 -4.26894,1.98899 -9.32666,4.29809 -10.92053,9.13387 -0.6692,3.6551 0.17674,7.41997 0.90162,11.0121 1.2215,5.26381 4.26004,10.97833 9.91924,12.37188 5.93683,1.50215 11.90808,-1.55859 16.38059,-5.26116 2.90171,-2.49987 4.94024,-6.22699 4.48488,-10.14462 -0.0166,-1.23452 -0.0238,-2.46967 -0.0863,-3.70297 z"
       id="path943"
       inkscape:connector-curvature="0"
       inkscape:transform-center-x="-3.0849907"
       inkscape:transform-center-y="-4.8463932" />
    <path
       style="fill:#ffffff;fill-opacity:1;stroke:none;stroke-width:0.31357247;stroke-opacity:1"
       id="path1134"
       d="m 127.55701,112.27561 c -0.14932,0.0736 -0.29457,0.16624 -0.44795,0.22096 -0.98288,0.35073 -2.05166,0.22063 -3.04956,0.10155 -0.48647,-0.0112 -0.97879,-0.13624 -1.46629,-0.0735 -0.0534,0.007 0.21195,0.0243 0.1589,0.0354 -0.3294,0.0681 -0.66504,0.0479 -0.99743,0.075 -0.92897,0.0806 -1.85361,0.2386 -2.74991,0.59618 -0.90981,0.44959 -1.63386,1.39287 -2.37201,2.23123 -0.98455,1.15253 -2.05242,2.1456 -3.13712,3.09897 -0.57177,0.54465 -0.58968,0.40067 -0.63179,1.32026 -0.0492,1.12404 -0.26765,2.21134 -0.41732,3.31285 -0.10399,1.02697 -0.10195,1.47395 0.35036,2.29769 0.42066,0.69029 0.87075,1.34469 1.30287,2.02137 0.25855,0.35386 0.49652,0.81802 0.88123,0.89099 0.0898,0.0171 0.18116,0.01 0.27174,0.0142 0.74681,0.0232 1.49347,-0.043 2.23913,-0.0923 0.75171,-0.0497 0.60493,0.2385 0.75841,-0.0816 1.18056,-0.0239 2.36122,0.0566 3.54136,-10e-4 0.77473,-0.0326 1.52327,-0.30599 2.27063,-0.56653 0.72971,-0.24997 1.42796,-0.6256 2.10523,-1.07682 0.69506,-0.47808 1.30093,-1.16461 1.92461,-1.79938 0.52385,-0.49547 0.99868,-1.06845 1.42835,-1.71679 0.34621,-0.54956 0.63178,-1.15615 0.84544,-1.82443 0.19165,-0.62037 0.37725,-1.24384 0.55796,-1.87054 0.11451,-0.32105 0.0992,-0.61606 0.0664,-0.95802 -0.0623,-0.62 -0.0614,-1.24632 -0.0179,-1.86821 0.001,-0.0145 0.0297,-0.37817 0.0355,-0.41604 0.002,-0.01 0.007,0.0176 0.007,0.0273 0.006,0.075 0.002,0.15184 0.0125,0.2258 0.0179,0.12305 0.0819,0.40243 0.11548,0.55222 -0.37341,-0.13821 -0.6588,-0.60803 -0.91126,-0.99306 -0.11889,-0.18341 -0.22927,-0.37726 -0.31761,-0.59274 -0.0388,-0.0947 -0.0865,-0.27835 -0.14334,-0.37455 -0.10761,-0.0523 -0.2052,-0.17968 -0.30381,-0.30605 -0.13697,-0.1879 -0.27881,-0.36891 -0.40694,-0.56926 -0.0948,-0.14642 -0.16366,-0.31715 -0.23762,-0.48401 -0.0457,-0.1031 -0.071,-0.1459 -0.075,-0.13035 -0.008,0.0319 0.01,0.0663 0.0147,0.0995 0.0281,0.22866 -0.27967,-0.17163 -0.32745,-0.22332 -0.17867,-0.13892 -0.35327,-0.30949 -0.50954,-0.49631 -0.15733,-0.19198 -0.0964,-0.0673 -0.15181,-0.0318 -0.0694,0.0444 -0.15055,-0.0333 -0.20614,-0.0652 -0.27899,-0.30526 -0.21274,-0.10043 -0.0201,-0.67425 -0.92501,0.33712 -1.26444,-1.50032 -0.33943,-1.83743 v 0 c 0.89117,-0.5585 0.49723,-0.36931 1.16211,-0.64289 0.12298,10e-4 0.24705,-0.0197 0.36894,0.003 0.39192,0.0737 0.72447,0.41179 1.02841,0.73907 0.13817,0.11729 0.26156,0.26869 0.40257,0.38069 0.24888,0.21052 0.48942,0.42836 0.65897,0.77241 0.17838,0.38639 0.0711,0.13751 0.16741,0.38351 0.005,0.0126 0.0208,0.0514 0.0163,0.0381 -0.003,-0.008 -0.10789,-0.22295 -0.016,-0.12824 0.17363,0.1473 0.30883,0.37633 0.46211,0.55948 0.18569,0.24867 0.35559,0.51659 0.49851,0.81712 0.037,0.0729 0.0599,0.17156 0.11626,0.2133 0.007,0.006 0.003,-0.0313 0.0115,-0.0319 0.0894,-0.006 0.16363,0.21483 0.23682,0.25202 0.24521,0.28424 0.51927,0.52122 0.73722,0.85185 0.0781,0.13638 0.16982,0.2595 0.23423,0.40938 0.23138,0.53847 0.28641,1.13119 0.30019,1.74418 0.0253,0.55406 0.0201,1.10859 0.0316,1.66331 -0.005,0.72542 -0.0448,1.45169 -0.22276,2.13987 -0.16332,0.72607 -0.3178,1.45901 -0.54737,2.15096 -0.32348,0.96626 -0.69863,1.88121 -1.24698,2.63615 -0.51011,0.76642 -1.00888,1.55742 -1.58732,2.22446 -0.72211,0.80267 -1.48499,1.53546 -2.29354,2.15671 -0.81695,0.56369 -1.66835,1.02524 -2.55768,1.31022 -0.83028,0.2672 -1.67483,0.42174 -2.50863,0.66538 -1.20121,0.33633 -2.40891,0.64138 -3.63716,0.68937 -0.51772,3e-4 -1.03558,0.0181 -1.55315,7.4e-4 -1.17603,-0.0392 -2.35597,-0.35101 -3.42567,-1.04929 -0.62654,-0.50022 -1.16721,-1.06425 -1.69944,-1.74421 -0.61989,-0.73684 -1.24166,-1.48857 -1.69332,-2.44908 -0.0919,-0.22812 -0.19518,-0.44789 -0.27566,-0.68437 -0.38974,-1.14513 -0.46931,-2.40043 -0.34527,-3.64581 0.0256,-0.22289 0.0452,-0.44735 0.0769,-0.6687 0.12165,-0.84812 0.35765,-1.65291 0.48941,-2.497 0.17221,-1.30303 0.29933,-2.31417 0.93257,-3.37992 0.1298,-0.20511 0.25178,-0.42055 0.38939,-0.61535 0.80991,-1.14653 1.81673,-1.95829 2.7627,-2.85481 0.97413,-0.89042 1.94619,-1.79556 2.99601,-2.50438 1.07235,-0.65304 2.15683,-1.05538 3.33385,-1.08203 1.28014,-0.0497 2.56274,-0.01 3.8411,0.0921 0.85565,0.0837 1.99306,0.21857 2.78712,0.68377 0.11488,0.0673 0.21771,0.16957 0.32657,0.25435 1.08151,0.40708 0.67164,2.55538 -0.40987,2.1483 z"
       inkscape:connector-curvature="0" />
    <path
       style="fill:#ffffff;fill-opacity:1;stroke:none;stroke-width:0.15842898;stroke-opacity:1"
       d="m 124.22,112.3475 c -1.96683,0.12936 -4.09223,-0.21834 -5.90871,1.05763 -1.75862,1.75316 -3.45541,3.63287 -5.24633,5.32045 -0.6496,0.95847 -0.40889,2.48653 -0.69816,3.66615 -0.29397,1.3494 -0.1478,2.87847 0.64767,3.83562 0.59417,0.8221 1.08777,1.86562 1.78046,2.49588 2.89666,-0.21916 5.83762,0.12459 8.70211,-0.62049 2.58663,-0.71126 4.97691,-2.82005 6.58703,-5.73888 0.79593,-1.63147 1.32582,-3.67405 1.0018,-5.64683 -1.10013,-1.40669 -1.99119,-3.34724 -3.40121,-4.17223 -1.13678,-0.31246 -2.31372,-0.14874 -3.46466,-0.1973 z"
       id="path1136"
       inkscape:connector-curvature="0" />
  </g>
</svg>
