<?xml version="1.0" encoding="UTF-8" standalone="no"?>
<!-- Created with Inkscape (http://www.inkscape.org/) -->

<svg
   xmlns:dc="http://purl.org/dc/elements/1.1/"
   xmlns:cc="http://creativecommons.org/ns#"
   xmlns:rdf="http://www.w3.org/1999/02/22-rdf-syntax-ns#"
   xmlns:svg="http://www.w3.org/2000/svg"
   xmlns="http://www.w3.org/2000/svg"
   xmlns:sodipodi="http://sodipodi.sourceforge.net/DTD/sodipodi-0.dtd"
   xmlns:inkscape="http://www.inkscape.org/namespaces/inkscape"
   width="860"
   height="3500"
   viewBox="0 0 227.54167 926.04166"
   version="1.1"
   id="svg8"
   inkscape:version="0.92.4 (5da689c313, 2019-01-14)"
   sodipodi:docname="wall_vertical.svg"
   inkscape:export-filename="C:\Users\panu-\PycharmProjects\nextgame\data\images\tiles\wall_vertical.png"
   inkscape:export-xdpi="10.923292"
   inkscape:export-ydpi="10.923292">
  <defs
     id="defs2" />
  <sodipodi:namedview
     id="base"
     pagecolor="#ffffff"
     bordercolor="#666666"
     borderopacity="1.0"
     inkscape:pageopacity="0.0"
     inkscape:pageshadow="2"
     inkscape:zoom="0.12370387"
     inkscape:cx="148.15294"
     inkscape:cy="1673.313"
     inkscape:document-units="mm"
     inkscape:current-layer="layer2"
     showgrid="false"
     units="px"
     width="1024px"
     inkscape:window-width="1920"
     inkscape:window-height="1017"
     inkscape:window-x="-8"
     inkscape:window-y="-8"
     inkscape:window-maximized="1"
     showguides="false"
     fit-margin-left="20"
     fit-margin-right="20" />
  <metadata
     id="metadata5">
    <rdf:RDF>
      <cc:Work
         rdf:about="">
        <dc:format>image/svg+xml</dc:format>
        <dc:type
           rdf:resource="http://purl.org/dc/dcmitype/StillImage" />
        <dc:title />
      </cc:Work>
    </rdf:RDF>
  </metadata>
  <g
     inkscape:label="lines"
     inkscape:groupmode="layer"
     id="layer1"
     transform="translate(0,629.04168)"
     style="display:inline">
    <path
       style="fill:#9498a2;fill-opacity:1;stroke:none;stroke-width:8.0838213;stroke-opacity:1"
       d="M 595.95124,-5.6164013 C 407.45142,-2.4162032 217.74589,-8.7700072 29.957421,3.4305314 -10.750027,28.667472 14.740003,90.310512 6.7164341,129.15606 17.072343,167.37464 -16.71144,238.67966 29.099215,253.89516 c 266.500865,8.41759 533.540545,2.38558 800.240765,4.30206 32.68823,-20.24715 15.69596,-73.28879 23.91995,-108.02638 -0.17631,-49.9188 8.91411,-102.736068 -3.20515,-150.75064152 C 767.12491,-10.608203 680.1449,-3.400761 595.95124,-5.6164013 Z"
       id="path934"
       inkscape:connector-curvature="0"
       transform="matrix(0.26458333,0,0,0.26458333,0,-629.04168)" />
    <path
       style="fill:#717683;fill-opacity:1;stroke:none;stroke-width:5.71612501;stroke-opacity:1"
       d="m 125.86046,272.71843 c -33.693594,2.99584 -69.740589,-0.27639 -101.606358,9.80226 -4.835507,151.01517 -2.113731,303.392 6.952955,454.61995 4.418175,317.62786 5.651441,636.03406 -5.804053,953.56366 -6.378943,117.6694 14.77372,233.892 13.215559,351.5905 8.807517,265.6457 -5.879166,531.1487 -1.842458,797.0419 1.627129,94.9115 -2.971742,191.168 1.79221,285.2204 37.740964,10.9961 84.147525,1.9887 125.373585,3.7342 151.65433,-2.5282 304.18913,-30.7737 455.04597,-11.5439 6.75766,10.3177 19.09803,15.725 31.52803,18.2201 32.04214,18.1011 73.18978,-0.078 108.14154,2.2396 31.26446,-4.5326 65.05242,-0.032 94.64692,-10.222 1.02267,-110.6077 -2.09416,-224.7229 -15.2951,-334.1812 -2.30022,-142.7712 19.46392,-288.0801 11.09729,-431.7573 -5.73082,-46.313 -20.89918,-95.6689 -7.27909,-141.0722 10.53351,-87.2247 -0.91704,-176.3852 -3.53776,-264.1252 -11.59288,-128.576 -15.54626,-256.5217 -7.45978,-385.376 5.1819,-94.2202 -0.90063,-191.1643 14.80454,-282.9528 -8.18646,-75.4095 -19.67788,-150.6941 -10.13149,-226.4066 5.60603,-114.842 -6.87478,-229.88955 9.10436,-343.27446 3.69885,-135.76243 10.15029,-272.28996 -0.68862,-407.78442 6.87026,-48.10769 -47.11059,-29.90336 -76.27809,-32.97174 -213.85203,-1.17662 -428.49967,3.62901 -641.78016,-4.36475 z"
       id="path912"
       inkscape:connector-curvature="0"
       transform="matrix(0.26458333,0,0,0.26458333,0,-629.04168)" />
  </g>
  <g
     inkscape:groupmode="layer"
     id="layer2"
     inkscape:label="lines 1"
     style="display:inline"
     transform="translate(0,655.10834)"
     sodipodi:insensitive="true">
    <path
       style="fill:#000000;fill-opacity:1;stroke:none;stroke-width:0.26458332;stroke-opacity:1"
       d="m 100.76348,-664.16567 c -0.71044,0 -1.421331,0.005 -2.132691,0.0161 0.52067,-0.003 1.04149,-0.01 1.562171,-0.006 0.31014,0.003 -0.620561,0.007 -0.930691,0.0103 -1.194327,0.0124 -2.388521,0.005 -3.582718,0.0336 -1.99651,-0.003 -3.99515,-0.0274 -5.98929,0.0749 -0.13253,1.80168 -0.32462,3.58764 -0.97255,5.25394 -0.006,0.0161 -0.0132,0.0316 -0.0196,0.0476 v 2.26293 1.78231 c 0.79991,0.003 1.59975,0.003 2.39882,0.0175 0.78202,0.094 5.28674,-0.0491 1.25108,0.078 -0.27144,0.008 0.5434,0.009 0.81494,0.013 2.64938,0.10395 5.301098,0.0899 7.951949,0.0842 0.16113,0.0109 0.46043,0.0114 0.77462,0.007 0.10385,0.003 0.22553,0.003 0.28991,0.004 0.73324,0.0286 1.02227,0.0651 1.75855,0.13229 2.08238,0.25233 4.16253,0.49342 6.25491,0.64852 1.91243,0.13629 3.82595,0.25498 5.74127,0.34264 1.63052,0.13054 3.26702,0.16605 4.90202,0.19171 1.30741,0.0826 2.61681,0.11354 3.92276,0.21807 1.3675,0.16703 2.74013,0.23281 4.11655,0.23151 1.19282,-0.0122 2.36892,0.25813 3.54758,0.41238 2.35813,0.38505 4.75213,0.35753 7.13238,0.23151 0.23974,-0.006 0.47956,-0.0116 0.71935,-0.0164 0.71321,-0.0151 1.42271,-0.008 2.13577,0.0124 0.25437,0.007 1.01716,0.007 0.76327,0.0243 -0.54319,0.0364 -1.08871,0.0227 -1.63299,0.0341 2.05955,0.0929 4.11801,0.19492 6.17948,0.23305 3.31666,0.032 6.63435,0.0478 9.95132,0.0398 2.8474,-0.0675 5.68616,-0.31271 8.51265,-0.65371 2.70473,-0.28585 5.39856,-0.68268 8.11218,-0.87643 -0.80602,-0.12896 2.64441,0 1.98851,-0.10231 -0.52219,-0.0809 -1.06088,0.0175 -1.58388,-0.0579 -0.30501,-0.0439 0.61537,-0.0301 0.92345,-0.0372 4.13316,-0.0959 2.1127,0.009 4.1951,-0.11007 0.76978,-0.14589 6.21765,-0.10811 1.79988,-0.11472 1.17546,0 2.34884,-0.061 3.52227,-0.12195 1.81872,-0.0885 3.63151,0.0589 5.44671,0.10644 -0.0809,-0.004 0.41619,-0.01 0.61185,-0.0161 1.01317,-0.0319 0.19418,-0.0172 1.19216,-0.0295 1.33082,-0.0681 2.66298,-0.0626 3.9951,-0.0765 0.63831,0.0769 1.27492,0.19717 1.91876,0.23254 0.80843,0.0257 1.61962,0.0699 2.42879,0.0548 0.58082,-0.18521 1.20034,0.2421 1.75803,0.18243 0.29458,-0.0315 0.58843,-0.0698 0.88159,-0.11215 -0.0488,-0.0145 0.008,-0.019 0.11369,-0.0175 0.85767,-0.12679 1.71125,-0.28557 2.56834,-0.41701 -0.13658,0.34261 -0.68506,0.47604 -1.25368,0.51313 0.11409,0 0.22858,-0.004 0.34417,-0.0169 1.08752,-0.0557 2.18903,0.23291 3.27732,-0.0249 0.28424,-0.0861 0.55604,-0.22781 0.8206,-0.35761 0.0704,-0.0345 -0.14943,0.0806 -0.22632,0.0651 -0.84519,-0.16973 -1.68082,-0.38301 -2.5213,-0.57462 0.17706,-0.23003 0.33261,-0.46906 0.5121,-0.69766 3.60117,0.95017 4.94475,-4.14253 1.34358,-5.0927 0.17452,-0.24839 0.2639,-0.40386 0.23361,-0.71416 -0.91739,-0.19709 -1.83029,-0.41725 -2.75231,-0.59119 0,-1.8e-4 -0.003,1.9e-4 -0.003,0 0.0839,-0.0537 0.18103,-0.13028 0.29922,-0.26148 0.45159,-0.009 3.07705,0.0992 1.59265,-0.076 -0.43457,-0.0739 -0.8328,-0.0498 -1.26658,-0.0786 -0.75843,-0.0796 -1.52826,-0.15576 -2.28563,-0.14571 -1.01899,-0.2694 -2.05944,-0.45363 -3.11404,-0.50488 -1.04249,-0.0668 -2.09259,-0.008 -3.11505,-0.29405 -0.97557,-0.0246 -1.95151,-0.0443 -2.92695,-0.0734 -0.15605,-0.005 -0.62368,-0.0222 -0.46768,-0.0279 0.61016,-0.0222 1.22172,0 1.83192,-0.0217 0.1695,-0.006 -0.33911,-0.0159 -0.50847,-0.0238 -0.73697,-0.0145 -0.36589,-0.003 -1.11157,-0.0372 -2.07171,-0.0292 -4.14361,-0.0845 -6.21617,-0.0579 -0.60905,0.0132 -1.21428,0.0479 -1.82211,0.0827 -0.89321,-0.0597 -1.78652,-0.11798 -2.682,-0.12714 -2.28351,-0.004 -4.5661,0.0169 -6.84919,0.0222 -1.92707,-0.0238 0.31033,0.013 0.93276,-0.0501 0.28718,-0.0291 -0.576,-0.0362 -0.86455,-0.0439 -1.98784,-0.0533 -3.97833,-0.10377 -5.96707,-0.11006 -2.96468,0.0964 -5.91624,0.35229 -8.84288,0.85214 -2.44393,0.332 -4.89471,0.66807 -7.36907,0.57878 -1.2452,-2.7e-4 -2.48999,0 -3.73517,0.0124 -0.40921,0.004 -1.63103,-0.0562 -1.22783,0.014 0.44702,0.0777 0.91406,-0.0678 1.36118,0.009 0.38957,0.0672 -0.79074,0.0138 -1.186,0.0206 -2.09349,0.0323 -4.18528,0.11469 -6.27816,0.17208 -2.37263,0.0217 -4.74041,0.053 -7.10862,0.2031 -1.83858,0.0119 0.85972,-0.006 1.16737,0 0.9247,0.0188 -3.38426,0.10742 -2.30941,0.0164 -1.33903,-0.15209 -2.68505,-0.25752 -4.00802,-0.5328 -1.28166,-0.13856 -2.5609,-0.1062 -3.84524,-0.19378 -1.38615,-0.15409 -2.77233,-0.29707 -4.16772,-0.32713 -1.55075,-0.16827 -3.10734,-0.26675 -4.66018,-0.41444 -1.88381,-0.21905 -3.77717,-0.28379 -5.66579,-0.44492 -2.08915,-0.21463 -4.18118,-0.4022 -6.26681,-0.64958 -2.12691,-0.17582 -4.2544,-0.24138 -6.38564,-0.24442 z"
       id="path966"
       inkscape:connector-curvature="0" />
    <path
       style="fill:#000000;fill-opacity:1;stroke:none;stroke-width:0.26458332;stroke-opacity:1"
       d="m 204.80312,-653.40406 c -0.39174,-0.003 -0.77748,-0.0695 -1.17565,-0.093 -0.0801,-0.006 -0.0936,-0.003 -0.13901,-0.003 -0.0379,0.006 -0.0757,0.0122 -0.11369,0.0175 0.13827,0.0416 0.79187,0.12009 1.42835,0.0786 z"
       id="path964"
       inkscape:connector-curvature="0" />
    <path
       style="fill:#000000;fill-opacity:1;stroke:none;stroke-width:0.26458332;stroke-opacity:1"
       d="m 190.58849,-653.71825 c 0.007,0 -0.0414,0 -0.0249,0 0.0663,0 0.0618,0 0.12404,0.003 -0.0331,0 -0.0661,-0.003 -0.0992,-0.003 z"
       id="path962"
       inkscape:connector-curvature="0" />
    <path
       style="fill:#000000;fill-opacity:1;stroke:none;stroke-width:0.26458332;stroke-opacity:1"
       d="m 190.6877,-653.71516 c 0.0868,0.003 0.1736,0.007 0.26043,0.008 0.042,-0.003 0.11862,0 0.16952,-0.003 -0.17026,-0.003 -0.21415,-0.003 -0.42995,-0.007 z"
       id="path960"
       inkscape:connector-curvature="0" />
    <path
       style="fill:#000000;fill-opacity:1;stroke:none;stroke-width:0.26458332;stroke-opacity:1"
       d="m 191.11765,-653.70844 c 2.33992,0.041 0.80828,-0.0193 0,0 z"
       id="path958"
       inkscape:connector-curvature="0" />
    <path
       style="fill:#000000;fill-opacity:1;stroke:none;stroke-width:0.26458332;stroke-opacity:1"
       d="m 187.98811,-662.88823 c -0.0135,0 -0.15838,0.003 -0.49194,0.01 -0.0401,-0.003 -0.0803,-0.005 -0.12041,-0.008 0.34869,0 0.63169,-0.003 0.61235,-0.003 z"
       id="path956"
       inkscape:connector-curvature="0" />
    <path
       style="fill:#000000;fill-opacity:1;stroke:none;stroke-width:0.26458332;stroke-opacity:1"
       d="m 86.256368,-659.14737 c -0.0269,-0.0167 -0.13912,0.13663 -0.36071,0.50488 -0.54581,0.90707 -1.05683,1.83377 -1.54511,2.77296 -0.0737,0.21974 -0.1478,0.43921 -0.2217,0.65887 -0.0206,0.13848 -0.0363,0.23815 -0.0569,0.36949 0.12706,-0.20849 0.25332,-0.41733 0.38034,-0.62582 0.13444,-0.3516 0.2657,-0.70453 0.40463,-1.05418 -0.0941,0.28646 -0.19074,0.57216 -0.28575,0.85834 0.30117,-0.49462 0.59989,-0.99055 0.89813,-1.48672 0.0441,-0.10026 0.09,-0.204 0.13126,-0.29869 0.21743,-0.54645 0.43669,-1.09207 0.65627,-1.63764 0.006,-0.0333 0.007,-0.0566 0,-0.0615 z"
       id="path954"
       inkscape:connector-curvature="0" />
    <path
       style="fill:#000000;fill-opacity:1;stroke:none;stroke-width:0.26458332;stroke-opacity:1"
       d="m 85.469338,-657.14955 c -0.35693,0.81179 -0.80987,1.81353 -1.25418,2.79825 0.0249,-0.003 0.0499,-0.007 0.0749,-0.0108 0.15079,-0.30615 0.30123,-0.61245 0.45267,-0.91829 0.25221,-0.64262 0.50631,-1.28444 0.76118,-1.92598 -0.0114,0.0191 -0.0233,0.0378 -0.0346,0.0569 z"
       id="path952"
       inkscape:connector-curvature="0" />
    <path
       style="fill:#000000;fill-opacity:1;stroke:none;stroke-width:0.26458332;stroke-opacity:1"
       d="m 84.571208,-655.66283 c -0.0397,0.0652 -0.0791,0.13062 -0.11888,0.19584 -0.14589,0.38166 -0.29302,0.76277 -0.43717,1.14517 0.0385,-0.005 0.0767,-0.0119 0.11523,-0.0169 0.14708,-0.44127 0.29421,-0.88254 0.44082,-1.32395 z"
       id="path950"
       inkscape:connector-curvature="0" />
    <path
       style="fill:#000000;fill-opacity:1;stroke:none;stroke-width:0.26458332;stroke-opacity:1"
       d="m 84.128848,-655.21066 c 0.0156,-0.10546 0.0272,-0.2059 0.0424,-0.31266 -0.21283,0.41593 -0.42069,0.83463 -0.62476,1.25524 0.0638,-0.007 0.1275,-0.014 0.19122,-0.0217 0.0597,-0.0981 0.11903,-0.19646 0.17877,-0.29456 0.0707,-0.20881 0.14211,-0.41736 0.21241,-0.62633 z"
       id="path948"
       inkscape:connector-curvature="0" />
    <path
       style="fill:#000000;fill-opacity:1;stroke:none;stroke-width:0.26458332;stroke-opacity:1"
       d="m 195.29825,-653.90428 c 0.14762,-0.005 0.29486,-0.003 0.44186,0.005 -0.1473,-0.003 -0.29459,-0.003 -0.44186,-0.005 z"
       id="path853"
       inkscape:connector-curvature="0" />
    <path
       style="fill:#000000;fill-opacity:1;stroke:none;stroke-width:0.26458332;stroke-opacity:1"
       d="m 208.86322,-661.95064 c -0.27104,-0.004 -0.54244,-0.004 -0.81339,0 -1.80604,0.0337 -3.60081,0.29292 -5.26686,1.00925 h -0.003 c -5.35675,1.44521 -3.31294,9.02097 2.04381,7.57576 2.93463,0.87741 6.04437,0.70268 9.02167,0.1478 0.60508,-0.1397 0.75523,-0.16878 1.17099,-0.29456 0.99394,0.11943 2.0137,0.0498 3.02203,0.11522 0.98816,0.0922 1.97752,0.0997 2.96365,-0.009 0.1892,-0.0227 0.38249,-0.042 0.57619,-0.0625 0.30305,0.86995 0.58148,1.74837 0.85008,2.62983 0.29834,0.91556 0.44896,1.86324 0.46198,2.82411 -0.0781,1.22266 -0.21158,2.4412 -0.25838,3.66696 -0.0588,1.57607 -0.0243,3.15418 -0.0904,4.72993 -0.0628,1.32292 -0.092,2.66401 0.21342,3.9605 0.022,0.14742 0.25753,0.80227 0.1509,0.76583 -0.15385,-0.0525 0.0663,-0.52504 -0.14108,0.0656 -0.51554,1.20216 -0.54674,2.57418 -0.58394,3.86437 -0.0544,1.07323 0.21208,2.13453 0.22427,3.20239 -0.10279,0.97218 -0.20705,1.94312 -0.25166,2.92023 -0.0452,1.30529 -0.0475,2.61173 -0.0475,3.9176 0.0236,1.10752 0.053,2.21248 -0.032,3.31761 -0.13535,1.42415 -0.19263,2.8534 -0.22634,4.28295 -0.0262,1.46589 -0.12452,2.92634 -0.26975,4.38475 -0.27578,1.91262 -0.51365,3.82503 -0.65526,5.75263 -0.0673,1.75506 -0.11324,3.51123 -0.16433,5.26684 -0.007,1.57126 -0.0177,3.13775 -0.15089,4.70411 -0.21985,1.6115 -0.32485,3.23482 -0.38396,4.85915 -0.06,1.36798 0.11579,2.72865 0.154,4.09379 0.0276,1.30662 -0.0742,2.61179 -0.13074,3.91658 -0.0495,1.72455 -0.06,3.44916 0.0171,5.17279 0.0687,1.97784 0.53799,3.89599 1.03715,5.79966 0.48564,1.45511 0.61922,2.98226 0.817,4.49326 0.27395,1.93612 0.74747,3.83498 1.14308,5.74797 0.32895,1.68587 0.63535,3.37799 0.89401,5.07617 0.24421,1.58474 0.2776,3.19254 0.28163,4.793 -0.0559,2.10677 -0.0828,4.21177 -0.0222,6.31846 0.11118,2.114 0.15788,4.22971 0.15089,6.3464 -0.0222,2.07172 -0.0506,4.14248 -0.007,6.21409 0.0473,1.95717 0.0382,3.91401 -0.008,5.87094 -0.0901,2.08788 -0.0222,4.17762 0.0341,6.26526 0.001,0.0353 8e-4,0.0706 0.002,0.10594 2.21455,0.12882 4.4315,0.24172 6.70347,0.31059 0.90634,0.0275 1.81727,-0.0901 2.72025,-0.008 0.0837,0.008 0.16702,0.018 0.25063,0.0265 0.003,-0.14219 0.004,-0.28417 0.008,-0.42635 0.0614,-2.09616 0.1366,-4.19405 0.0413,-6.29058 -0.053,-1.94709 -0.0869,-3.89469 -0.046,-5.84253 0.0502,-2.05197 0.0666,-4.10456 0.10852,-6.15672 0.0301,-2.26197 0.0457,-4.52548 -0.0842,-6.78511 -0.12266,-1.99636 -0.27013,-3.99494 -0.23513,-5.99654 -0.0169,-1.98107 -0.13996,-3.95711 -0.42788,-5.91902 -0.26651,-1.84761 -0.53791,-3.69438 -0.82475,-5.53868 -0.35663,-1.7517 -0.84223,-3.46967 -1.20407,-5.21983 -0.27655,-1.85037 -0.45276,-3.72698 -1.0175,-5.52059 -0.38554,-1.31196 -0.74709,-2.6457 -0.80099,-4.01941 -0.0703,-1.58134 -0.0686,-3.16212 -0.0636,-4.74491 -0.0349,-1.43693 -0.0982,-2.87221 -0.16847,-4.30776 -0.0578,-1.07125 -0.0655,-2.14532 0.0491,-3.21376 0.19331,-1.65251 0.47272,-3.29623 0.5581,-4.96041 0.0607,-1.61298 0.007,-3.22548 0.0574,-4.83846 0.0882,-1.61026 0.23209,-3.21712 0.41031,-4.81986 0.23749,-1.99539 0.47259,-3.99341 0.46561,-6.00689 0.0449,-1.67048 0.23917,-3.33679 0.18758,-5.01055 -0.064,-1.19832 -0.16437,-2.39903 -0.092,-3.59926 0.098,-1.32508 0.22447,-2.64676 0.17518,-3.97803 -0.0267,-1.23587 -0.0869,-2.46984 -0.14159,-3.7047 -0.0209,-0.94798 -0.0177,-1.89317 0.0822,-2.83805 0.0435,-1.0999 0.0713,-2.20065 0.0951,-3.3011 -0.005,-1.03405 -0.008,-2.06823 -0.0186,-3.10214 -0.0249,-0.57957 -0.0836,-1.12948 0.13177,-1.67743 0.31528,-1.31667 0.29005,-2.67962 0.21756,-4.02402 -0.0778,-1.54673 -0.0785,-3.09608 -0.13436,-4.64365 -0.0331,-1.21634 -0.13142,-2.43284 -0.0956,-3.64993 0.0375,-1.52016 0.0772,-3.04511 -0.14211,-4.55578 -0.40767,-2.33788 -1.15872,-4.59367 -2.72283,-6.43009 -0.22593,-0.25596 -0.43911,-0.52353 -0.678,-0.76739 -0.20119,-0.20537 -0.45649,-0.79883 -0.64027,-0.57775 -0.60212,0.72438 -1.1468,1.49162 -1.6645,2.27894 -0.0356,-1.22751 -0.079,-2.45436 -0.15502,-3.67988 -0.003,-0.0531 -0.32052,0.0927 -0.33952,0.12557 -0.45487,0.78703 -1.0862,1.54294 -1.711,2.30166 0.0227,-0.75575 0.0437,-1.51156 0.0718,-2.26705 0.0227,-0.12954 0.0385,-0.0687 -0.12093,-0.14521 0.622,-0.0135 1.24406,-0.0267 1.86604,-0.0403 0.84532,-0.0388 -1.64005,-0.12877 -1.00511,-0.0481 -0.36965,0.0111 -0.73795,0.0833 -1.10484,0.093 -1.23997,0.0329 -1.96867,-0.10422 -3.0024,0.17002 -0.43066,-0.20643 -0.98269,-0.0854 -1.43971,-0.15298 -0.94491,-0.089 -1.89358,-0.0598 -2.836,0.0501 -1.11501,0.10461 -0.0262,-0.0159 1.28106,0.10181 0.31586,0.0284 -1.12211,0.24289 -0.78652,0.2377 -1.67663,-0.27289 -3.39896,-0.21039 -5.07565,-0.56586 -0.79995,-0.0693 -1.61154,-0.12137 -2.42466,-0.13436 z"
       id="path1072"
       inkscape:connector-curvature="0" />
    <path
       style="fill:#000000;fill-opacity:1;stroke:none;stroke-width:0.31979278;stroke-opacity:1"
       d="m 221.22732,40.862372 c -0.0496,0.426297 -0.0981,0.853135 -0.14417,1.280353 -0.32145,3.613571 -0.55197,7.243708 -0.79324,10.870223 -0.33526,3.722435 -0.58287,7.453767 -0.7059,11.203857 -0.0927,3.513604 0.058,7.025045 0.18552,10.532002 0.11699,2.656422 0.11873,5.318278 0.13384,7.97879 -0.0857,3.119782 0.19215,6.190434 0.66766,9.222972 0.48691,2.504053 1.05652,4.96596 1.41542,7.519069 0.29157,2.707462 0.36485,5.455412 0.46095,8.189452 0.0845,3.25595 0.37239,6.48747 0.62116,9.72193 0.21478,2.68868 0.20228,5.39222 0.16019,8.09282 -0.11531,3.06577 -0.10586,6.13534 -0.0315,9.20256 0.0774,2.29946 0.16123,4.59749 0.19792,6.89927 0.0114,1.82574 0.0342,3.65171 0.0946,5.47548 0.10048,1.19826 0.14091,2.39057 0.11162,3.59574 -0.0472,1.13386 -0.0228,2.26785 0.0496,3.39792 0.059,0.67003 0.0731,1.3388 0.0661,2.01261 -0.0377,0.85847 -0.064,1.71745 -0.0791,2.57735 -0.003,0.99935 0.005,1.99862 0.0176,2.99782 0.0384,0.87989 0.0259,1.75806 0.0114,2.63844 -0.031,0.79041 0.0334,1.57555 0.0744,2.36143 0.0281,0.49023 0.0267,0.98343 0.0238,1.47512 -0.005,0.30868 0.008,0.60645 0.0863,0.89383 -0.006,0.17997 -0.0341,0.35364 -0.0341,0.53527 0.0108,0.20295 0.016,0.40309 0.0109,0.60617 -0.0538,0.3057 -0.0164,0.6126 -0.008,0.92101 -0.0316,0.45683 -0.0729,0.90821 -0.076,1.37022 0.0308,0.56935 0.003,1.13796 -0.0217,1.70611 -0.0463,0.8507 -0.046,1.70205 -0.046,2.55469 -0.0241,1.14592 -0.0854,2.28894 -0.1111,3.43491 -0.0359,1.26536 -0.047,2.53056 -0.11266,3.79352 1.53768,0.0256 3.11396,0.0232 4.57285,0.72094 0.49683,0.23757 0.95211,0.63301 1.43609,0.92178 0.0801,0.0476 -0.14439,-0.14054 -0.22169,-0.19704 -0.14759,-0.10811 -0.30106,-0.19779 -0.45166,-0.29671 0.80648,0.024 1.62852,0.027 2.44275,-0.0589 0.36997,-0.0751 0.75364,0.004 1.1312,0.0922 0.14737,-1.6523 0.18571,-3.31099 0.10025,-4.97648 -0.0257,-1.14596 -0.087,-2.28825 -0.11111,-3.43417 0,-0.85264 1e-5,-1.70472 -0.046,-2.55542 -0.0254,-0.56815 -0.0526,-1.13681 -0.0217,-1.70615 -0.003,-0.46202 -0.0444,-0.91335 -0.076,-1.37018 0.009,-0.30845 0.0462,-0.61388 -0.008,-0.91951 -0.005,-0.20312 -1e-4,-0.40476 0.0114,-0.60772 0,-0.18163 -0.0286,-0.35452 -0.0346,-0.53449 0.0781,-0.28729 0.0913,-0.58593 0.0863,-0.89456 -0.003,-0.49173 -0.004,-0.98417 0.0243,-1.47439 0.0411,-0.78596 0.10491,-1.57172 0.0739,-2.36216 -0.0146,-0.88026 -0.0269,-1.75794 0.0114,-2.63771 0.0127,-0.99954 0.0207,-1.99964 0.0176,-2.99934 -0.0151,-0.85923 -0.0412,-1.71727 -0.0791,-2.57505 -0.007,-0.67393 0.009,-1.34177 0.0672,-2.01189 0.0723,-1.13385 0.0956,-2.2717 0.0465,-3.40923 -0.0307,-1.19332 0.0103,-2.37372 0.11523,-3.55949 0.0672,-1.84993 0.0972,-3.70223 0.0972,-5.55475 0.0214,-2.26523 0.0737,-4.52793 0.16226,-6.78981 0.0969,-3.07247 0.16997,-6.14923 0.10697,-9.22522 -0.0313,-3.01755 -0.12628,-6.03153 -0.19069,-9.0478 -0.10246,-3.241 -0.24793,-6.47657 -0.45216,-9.7076 -0.21254,-3.22047 -0.4978,-6.43447 -0.88057,-9.621544 -0.37899,-2.734461 -0.85513,-5.44105 -1.44074,-8.09734 -0.41121,-2.051284 -0.70121,-4.051541 -0.5395,-6.214553 0.0451,-2.790194 0.0551,-5.581264 0.0651,-8.37216 0.006,-3.203606 0.0217,-6.407578 0.14315,-9.60721 0.12711,-3.467031 0.23342,-6.938971 0.45733,-10.396097 0.33626,-3.394718 0.72742,-6.776171 1.13327,-10.154498 0.0693,-0.528646 0.14031,-1.056751 0.2098,-1.585353 -3.50403,0.490488 -6.93699,0.04003 -10.18387,-1.841284 z"
       id="path937"
       inkscape:connector-curvature="0" />
    <path
       style="fill:#000000;fill-opacity:1;stroke:none;stroke-width:0.26458332;stroke-opacity:1"
       d="m 213.72971,-653.80351 c 0.0826,0.0303 0.16531,0.0577 0.24855,0.0832 -0.1356,-0.005 -0.27101,-0.0107 -0.40616,-0.0217 -0.0562,-0.005 0.1012,-0.0613 0.15761,-0.0615 z"
       id="path935"
       inkscape:connector-curvature="0" />
    <path
       style="fill:#000000;fill-opacity:1;stroke:none;stroke-width:0.26458332;stroke-opacity:1"
       d="m 222.56121,-653.52755 c 0.0876,0.003 0.176,0.008 0.26509,0.0139 -0.0515,0.0528 -0.11798,0.0296 -0.26509,-0.0139 z"
       id="path861"
       inkscape:connector-curvature="0" />
    <path
       style="fill:#000000;fill-opacity:1;stroke:none;stroke-width:0.31979278;stroke-opacity:1"
       d="m 134.15316,169.02454 v 0.004 c -1.31295,0.0102 -2.62591,0.0545 -3.93774,0.12607 -1.93133,0.0364 -3.85959,0.17491 -5.78673,0.36164 -2.3749,0.11395 -4.74943,0.26731 -7.11946,0.52165 -2.54286,0.23698 -5.08842,0.37362 -7.63157,0.60394 -2.14738,0.26855 -4.28474,0.639 -6.42389,1.01084 -0.18318,1.45649 -0.50306,3.29939 -1.11207,6.76565 -0.15775,0.89774 -0.71176,3.54314 -0.62945,2.62414 0.26395,-2.94689 1.63293,-11.64477 1.17771,-8.74809 -2.08978,13.29827 -0.93588,9.85788 -2.57555,14.87506 1.13527,-0.0169 2.26893,-0.0815 3.39772,-0.26648 0.84545,-0.13849 1.88114,-0.41063 2.72285,-0.61828 2.10934,-0.70146 4.24818,-0.90824 6.40374,-0.86515 2.69214,0.21224 5.37234,-0.0155 8.05222,-0.38501 2.33569,-0.35 4.67257,-0.69169 7.00112,-1.13314 1.76556,-0.3465 3.54933,-0.2931 5.32474,-0.42428 0.29064,-0.0117 0.58107,-0.0305 0.87177,-0.0378 0.56962,-0.0159 1.13927,-0.0117 1.70895,-0.0197 0.27543,-0.004 1.10169,1.9e-4 0.82632,-0.009 -1.25918,-0.0336 -2.62229,0.007 -0.90951,-0.034 1.59896,-0.0359 3.19818,0.004 4.79711,0.0235 1.70876,-0.0812 3.41265,0.0508 5.11958,0.0831 0.3053,0.004 1.22089,0.006 0.91572,0.0197 -0.99091,0.0415 -2.72171,-0.0193 -0.78136,0.0371 1.86518,0.0481 3.70805,0.43128 5.54902,0.83191 2.07812,0.54874 4.18285,0.79674 6.28798,0.99275 1.77533,0.14302 3.54913,0.20601 5.32115,0.43255 2.49113,0.31946 5.01589,0.44114 7.51424,0.20309 0.88501,0.78545 1.82978,1.37551 2.8448,1.79597 0.92258,0.18452 1.9948,0.6455 2.91301,0.15476 0.6889,-0.11044 1.46815,0.4282 2.15593,0.63715 2.22007,0.68639 4.51578,0.67791 6.76857,0.35934 0.23397,-0.0548 0.63328,-0.0955 1.0387,-0.12534 1.03701,0.11117 2.07375,0.21134 3.11402,0.24911 2.26052,-0.0256 4.5426,0.12709 6.77788,-0.44466 1.79258,-0.70552 3.57579,-1.46558 5.35628,-2.23533 1.31043,-0.47944 2.67414,-0.51401 4.01783,-0.58733 1.42076,-0.14707 2.83202,-0.42273 4.25193,-0.58205 1.20724,-0.1382 2.41779,-0.15871 3.62564,-0.27707 1.1353,-0.15578 2.28005,-0.20193 3.41217,-0.39556 -0.0653,-0.009 -0.0665,-0.0148 -0.0987,-0.0221 0.14936,3e-4 0.24191,0 0.36381,0 0.57949,0.0555 1.15916,0.0897 1.73892,0.11394 0.76496,-0.46727 1.70299,-0.75719 2.82101,-0.78514 0.23887,-0.006 0.48548,-3.1e-4 0.74052,0.0181 1.53418,0.11045 3.15865,-0.0355 4.70566,0.33744 0.13775,-0.0481 0.26932,-0.0736 0.52142,0.0197 1.1625,0.34504 2.374,0.22136 3.55325,0.0989 0.19592,-0.0251 0.2441,-0.0324 0.27389,-0.31857 5.31289,-2.07327 3.8026,-12.4385 -1.04179,-12.03961 0.003,0.027 -0.006,0.0571 -0.0315,0.0906 -0.0715,0.0279 -0.1742,0 -0.2868,-0.0453 -0.25683,0.0448 -0.51962,0.10985 -0.79325,0.21669 -0.16505,-0.23417 -0.2707,-0.31209 -0.50797,-0.29748 -1.08794,-0.0204 -0.10086,-0.17532 0.73898,-0.16759 -0.0905,-0.0332 -0.17852,-0.0587 -0.25787,-0.0596 -1.67817,-0.44029 -3.35362,-0.45081 -5.06534,-0.35177 -0.8256,-0.019 -1.65055,-0.0584 -2.47581,-0.0877 -0.74171,0.0155 -1.81967,0.0364 -2.19729,0.0657 -1.80766,-0.0543 -3.61664,-0.007 -5.42395,0.0596 -1.1488,-0.0263 -2.29632,0.14506 -3.44422,0.19783 -1.2328,0.0546 -2.463,0.18429 -3.69591,0.23701 -1.44566,0.0861 -2.89023,0.21104 -4.33668,0.2718 -2.01753,0.22514 -4.02936,0.59965 -5.95519,1.55664 -1.2201,0.59215 -2.42451,1.53315 -3.70729,1.71971 -0.3902,-0.0383 -1.44642,-0.0871 -2.16109,-0.12607 -0.93024,0.0535 -1.85946,0.13031 -2.79,0.18496 -1.48617,0 -2.97175,-2e-4 -4.45762,0.004 -0.55166,0.0387 -1.34512,0.0824 -1.67018,0.10124 -0.88469,-0.07 -1.7607,-0.0646 -2.60708,-0.52695 -0.75914,-0.2531 -1.51585,-0.43708 -2.29081,-0.22344 -0.14182,0.0633 -0.29834,0.0789 -0.42582,0.18948 -0.30245,0.26248 -0.0214,0.6599 -0.54414,-0.0393 -2.22237,-2.63029 -3.91615,-3.23972 -6.61149,-3.12617 0.14208,-0.004 -0.48927,-0.004 -0.73382,-0.009 -0.82886,-0.0102 -1.65788,-0.0286 -2.48613,-0.0801 -1.79023,-0.17656 -3.57275,-0.48049 -5.3661,-0.58203 -1.81149,-0.19435 -3.63609,-0.282 -5.42758,-0.74134 -2.22692,-0.62092 -4.46442,-1.20823 -6.73653,-1.30905 -1.82388,-0.0879 -3.64855,-0.0857 -5.47304,-0.0378 -0.29514,0.007 -0.59018,0.009 -0.88521,0.0213 -0.28589,0.0117 -1.14271,0.0251 -0.85733,0.0522 0.28069,0.0267 0.56202,0.0317 0.84336,0.031 -1.29374,0.0102 -2.58726,0.0102 -3.88038,-0.0672 -1.31231,-0.0583 -2.62531,-0.0804 -3.93827,-0.0694 z"
       id="path1043"
       inkscape:connector-curvature="0" />
    <path
       style="fill:#000000;fill-opacity:1;stroke:none;stroke-width:0.31979278;stroke-opacity:1"
       d="m 111.78456,171.36529 c 0.33485,0.92198 0.66153,1.81976 1.02319,2.82343 -0.16396,-0.90921 -0.32795,-1.81839 -0.49196,-2.72756 -0.17704,-0.0324 -0.35444,-0.0614 -0.53123,-0.0958 z"
       id="path1039"
       inkscape:connector-curvature="0" />
    <path
       style="fill:#000000;fill-opacity:1;stroke:none;stroke-width:0.31979278;stroke-opacity:1"
       d="m 112.59587,171.51024 c 0.0751,0.20439 0.14941,0.40763 0.22739,0.61906 0.13462,0.28436 0.26805,0.57008 0.40047,0.8568 -0.16248,-0.48211 -0.3203,-0.96727 -0.48162,-1.45019 -0.0487,-0.009 -0.0975,-0.017 -0.14624,-0.0256 z"
       id="path1037"
       inkscape:connector-curvature="0" />
    <path
       style="fill:#000000;fill-opacity:1;stroke:none;stroke-width:0.31979278;stroke-opacity:1"
       d="m 113.22373,172.9861 c 0.15864,0.47074 0.31655,0.94192 0.47543,1.41246 0.29244,0.6397 0.68408,1.40146 1.07643,2.11684 -0.5022,-1.19137 -1.01679,-2.37078 -1.55186,-3.5293 z"
       id="path1035"
       inkscape:connector-curvature="0" />
    <path
       style="fill:#000000;fill-opacity:1;stroke:none;stroke-width:0.31979278;stroke-opacity:1"
       d="m 113.69916,174.39856 c -0.12991,-0.28417 -0.24178,-0.54549 -0.32245,-0.76322 -0.21309,-0.57495 -0.3638,-0.99169 -0.55345,-1.50604 -0.0681,-0.14389 -0.13547,-0.28858 -0.20413,-0.43183 0.90877,3.36167 1.77919,6.75027 2.9776,9.90387 0.21881,0.57584 0.6369,1.42113 1.09399,2.27686 0.0463,0.057 0.0922,0.11438 0.13849,0.17137 -0.9756,-3.26055 -2.05161,-6.45678 -3.13005,-9.65101 z"
       id="path1033"
       inkscape:connector-curvature="0" />
    <path
       style="fill:#000000;fill-opacity:1;stroke:none;stroke-width:0.31979278;stroke-opacity:1"
       d="m 116.82921,184.04957 c 0.0185,0.0622 0.0362,0.12505 0.0548,0.18724 0.58602,1.07272 1.1966,2.08448 1.55339,2.56446 0.0862,0.006 0.17225,0.004 0.25839,0.009 -0.0151,-0.0498 -0.0302,-0.10051 -0.0527,-0.16459 -0.0754,-0.21528 -0.15351,-0.42895 -0.22945,-0.64393 -0.52789,-0.65338 -1.0559,-1.30228 -1.5844,-1.95226 z"
       id="path1031"
       inkscape:connector-curvature="0" />
    <path
       style="fill:#000000;fill-opacity:1;stroke:none;stroke-width:0.31979278;stroke-opacity:1"
       d="m 116.88398,184.23681 c -0.0654,-0.11979 -0.12915,-0.23856 -0.19326,-0.35861 -0.32379,-0.39836 -0.6487,-0.79733 -0.97102,-1.19656 -0.74969,-0.92859 2.10217,4.81784 1.72808,3.49002 -0.1827,-0.64835 -0.3724,-1.29211 -0.5638,-1.93485 z"
       id="path1029"
       inkscape:connector-curvature="0" />
    <path
       style="fill:#000000;fill-opacity:1;stroke:none;stroke-width:0.31979278;stroke-opacity:1"
       d="m 85.519446,173.05814 c -0.0143,0 -0.0286,0.004 -0.0429,0.004 0.34105,1.49171 0.71152,3.09207 1.14621,4.92438 -0.35129,-1.64955 -0.72727,-3.28922 -1.10332,-4.92889 z"
       id="path1027"
       inkscape:connector-curvature="0" />
    <path
       style="fill:#000000;fill-opacity:1;stroke:none;stroke-width:0.31979278;stroke-opacity:1"
       d="m 56.471106,173.08381 c -0.0756,0.004 -0.15126,0.004 -0.22688,0.006 -0.16438,0.62327 -0.33557,1.26609 -0.50797,1.91224 -0.0108,0.0647 -0.0222,0.12929 -0.0331,0.194 0.27215,-0.75248 0.50474,-1.39234 0.76792,-2.11227 z"
       id="path1025"
       inkscape:connector-curvature="0" />
    <path
       style="fill:#000000;fill-opacity:1;stroke:none;stroke-width:0.31979278;stroke-opacity:1"
       d="m 107.46648,172.24703 c 0.0222,0.20717 0.045,0.41412 0.0672,0.62134 0.0579,0.3234 0.0926,0.52466 0.16018,0.89908 0.0341,0.052 0.0593,0.0935 0.0915,0.14346 -0.10594,-0.55469 -0.21177,-1.10959 -0.31882,-1.66386 z"
       id="path1023"
       inkscape:connector-curvature="0" />
    <path
       style="fill:#000000;fill-opacity:1;stroke:none;stroke-width:0.31979278;stroke-opacity:1"
       d="m 54.088296,174.73557 c -0.003,0 -0.006,0.0131 -0.01,0.0371 -0.19544,1.09497 -0.37168,2.11045 -0.53951,3.09144 0.1197,-0.21449 0.23667,-0.42924 0.35192,-0.64471 0.0365,-0.0853 0.0729,-0.17078 0.10957,-0.25593 0.0135,-0.53807 0.0312,-1.07484 0.0677,-1.60499 0.0116,-0.17011 0.0368,-0.63567 0.0201,-0.6228 z"
       id="path1019"
       inkscape:connector-curvature="0" />
    <path
       style="fill:#000000;fill-opacity:1;stroke:none;stroke-width:0.31979278;stroke-opacity:1"
       d="m 54.000456,176.96337 c 0,0.0197 0,0.0393 -0.003,0.0589 0.35886,-0.68051 0.67115,-1.32735 0.87231,-1.83143 0.0333,-0.14039 0.0673,-0.27999 0.10128,-0.41975 -0.3302,0.72465 -0.65434,1.45513 -0.97202,2.19232 z"
       id="path1017"
       inkscape:connector-curvature="0" />
    <path
       style="fill:#000000;fill-opacity:1;stroke:none;stroke-width:0.31979278;stroke-opacity:1"
       d="m 53.998896,177.02223 c -0.0346,0.0656 -0.0727,0.13104 -0.108,0.19706 -0.13436,0.31369 -0.2703,0.62569 -0.40257,0.94137 -0.31485,1.84923 -0.58309,3.50352 -0.81132,4.98026 0.0764,-0.17304 0.14616,-0.33736 0.20051,-0.48087 0.42767,-1.12895 0.76541,-2.32764 1.07074,-3.55118 0.0241,-0.69333 0.0337,-1.3912 0.0506,-2.08664 z"
       id="path1015"
       inkscape:connector-curvature="0" />
    <path
       style="fill:#000000;fill-opacity:1;stroke:none;stroke-width:0.31979278;stroke-opacity:1"
       d="m 107.84009,174.9331 c 0.0504,0.1539 0.0992,0.30894 0.14986,0.46274 -0.0188,-0.10284 -0.0394,-0.21348 -0.0579,-0.31479 -0.0324,-0.0514 -0.0592,-0.0961 -0.092,-0.14795 z"
       id="path1011"
       inkscape:connector-curvature="0" />
    <path
       style="fill:#000000;fill-opacity:1;stroke:none;stroke-width:0.31979278;stroke-opacity:1"
       d="m 107.93206,175.08105 c 0.0204,0.0321 0.0378,0.0602 0.0579,0.0922 -0.0101,-0.0355 -0.0196,-0.07 -0.0305,-0.10722 -0.0132,-0.0162 -0.0262,-0.0329 -0.0393,-0.0491 0.004,0.0205 0.008,0.0435 0.0119,0.0641 z"
       id="path1009"
       inkscape:connector-curvature="0" />
    <path
       style="fill:#000000;fill-opacity:1;stroke:none;stroke-width:0.31979278;stroke-opacity:1"
       d="m 107.98995,175.17316 c 0.0429,0.15094 0.0814,0.29326 0.10645,0.4069 0.0233,0.10489 0.0541,0.26402 0.0796,0.38574 0.003,0.009 0.006,0.0181 0.009,0.027 -0.0467,-0.24439 -0.094,-0.48856 -0.14054,-0.73299 -0.0188,-0.0298 -0.0354,-0.0568 -0.0543,-0.0868 z"
       id="path1007"
       inkscape:connector-curvature="0" />
    <path
       style="fill:#000000;fill-opacity:1;stroke:none;stroke-width:0.31979278;stroke-opacity:1"
       d="m 108.17598,175.9658 c -0.0626,-0.18955 -0.12358,-0.38026 -0.18603,-0.56996 0.0438,0.24014 0.0898,0.48887 0.13489,0.73532 0.0336,0.0263 0.0671,0.0505 0.10075,0.077 -0.0169,-0.0824 -0.0336,-0.16593 -0.0496,-0.24235 z"
       id="path1005"
       inkscape:connector-curvature="0" />
    <path
       style="fill:#000000;fill-opacity:1;stroke:none;stroke-width:0.31979278;stroke-opacity:1"
       d="m 108.22559,176.20815 c 0.003,0.0102 0.004,0.019 0.006,0.0286 -0.003,-0.009 -0.003,-0.0186 -0.005,-0.0278 0,0 0,0 0,0 z"
       id="path1003"
       inkscape:connector-curvature="0" />
    <path
       style="fill:#000000;fill-opacity:1;stroke:none;stroke-width:0.31979278;stroke-opacity:1"
       d="m 108.23128,176.23684 c 0.0407,0.2127 0.0817,0.42524 0.12248,0.63792 1.8e-4,0.004 0,0.006 0,0.009 0.003,0.009 0.007,0.017 0.0103,0.0256 0,0 0.003,0.004 0.004,0.004 -0.0495,-0.25422 -0.092,-0.45714 -0.13695,-0.67719 z"
       id="path1001"
       inkscape:connector-curvature="0" />
    <path
       style="fill:#000000;fill-opacity:1;stroke:none;stroke-width:0.31979278;stroke-opacity:1"
       d="m 108.3646,176.90945 c -0.003,-0.004 -0.006,-0.007 -0.009,-0.0117 0.0151,0.24487 0.03,0.48968 0.045,0.73455 0.40564,2.20422 0.80799,4.37369 1.0635,5.69139 0.42775,2.20612 -0.47575,-3.22194 -1.094,-6.40178 -0.003,-0.004 -0.003,-0.009 -0.005,-0.0131 z"
       id="path999"
       inkscape:connector-curvature="0" />
    <path
       style="fill:#000000;fill-opacity:1;stroke:none;stroke-width:0.31979278;stroke-opacity:1"
       d="m 108.40027,177.63269 c -0.055,-0.29906 -0.10623,-0.57771 -0.16073,-0.87493 -0.1137,-0.142 -0.22395,-0.29009 -0.33692,-0.43334 0.23698,2.22916 0.47741,4.45738 0.7493,6.67732 0.0452,0.3686 0.006,-0.74888 0.008,-1.12333 -0.0866,-1.41534 -0.17336,-2.83036 -0.25993,-4.24572 z"
       id="path997"
       inkscape:connector-curvature="0" />
    <path
       style="fill:#000000;fill-opacity:1;stroke:none;stroke-width:0.31979278;stroke-opacity:1"
       d="m 107.90262,176.32442 c -0.014,-0.13192 -0.0284,-0.26372 -0.0424,-0.39561 -0.21924,-0.16925 -0.439,-0.34048 -0.65733,-0.50352 0.23127,0.30322 0.46519,0.60169 0.69969,0.89913 z"
       id="path994"
       inkscape:connector-curvature="0" />
    <path
       style="fill:#000000;fill-opacity:1;stroke:none;stroke-width:0.31979278;stroke-opacity:1"
       d="m 107.86026,175.92881 c 0.0551,0.0425 0.11019,0.0831 0.16536,0.12608 -0.0704,-0.17808 -0.13901,-0.35751 -0.20878,-0.536 0.0145,0.13659 0.0289,0.27327 0.0434,0.40991 z"
       id="path991"
       inkscape:connector-curvature="0" />
    <path
       style="fill:#000000;fill-opacity:1;stroke:none;stroke-width:0.31979278;stroke-opacity:1"
       d="m 108.02562,176.0549 c 0.0527,0.13352 0.10573,0.26674 0.15864,0.40012 -0.0201,-0.10942 -0.0396,-0.21533 -0.0594,-0.32386 -0.0332,-0.0259 -0.0661,-0.0504 -0.0992,-0.0763 z"
       id="path989"
       inkscape:connector-curvature="0" />
    <path
       style="fill:#000000;fill-opacity:1;stroke:none;stroke-width:0.31979278;stroke-opacity:1"
       d="m 55.218466,177.22079 c -0.0582,0.14156 -0.10388,0.24965 -0.16743,0.40616 -0.0827,0.32836 -0.14285,0.59083 -0.20825,0.86967 0.008,0.0286 -0.003,0.13411 -0.0274,0.28912 0.11629,-0.33797 0.25763,-0.91075 0.40307,-1.56495 z"
       id="path986"
       inkscape:connector-curvature="0" />
    <path
       style="fill:#000000;fill-opacity:1;stroke:none;stroke-width:0.31979278;stroke-opacity:1"
       d="m 54.815396,178.78574 c -0.0357,0.10372 -0.0694,0.18649 -0.0997,0.24386 0.032,-0.14784 0.087,-0.36218 0.12713,-0.53298 -0.007,-0.0244 -0.0251,-0.004 -0.0594,0.077 -0.0916,0.21819 -0.18105,0.43823 -0.2713,0.65755 -0.48019,2.10141 -1.01015,4.41296 -1.32705,5.82574 -0.0971,0.71742 -0.24153,1.63283 -0.42788,2.71246 0.76613,-3.09024 1.86529,-7.76179 2.05827,-8.98364 z"
       id="path984"
       inkscape:connector-curvature="0" />
    <path
       style="fill:#000000;fill-opacity:1;stroke:none;stroke-width:0.31979278;stroke-opacity:1"
       d="m 52.757126,187.76938 c -0.004,0.0174 -0.007,0.0244 -0.0108,0.0415 0,-5e-5 0.003,7e-5 0.003,0 0.003,-0.0131 0.006,-0.0286 0.008,-0.0415 z"
       id="path982"
       inkscape:connector-curvature="0" />
    <path
       style="fill:#000000;fill-opacity:1;stroke:none;stroke-width:0.31979278;stroke-opacity:1"
       d="m 53.185006,185.05692 c 0.10015,-0.73973 0.15942,-1.30312 0.13746,-1.49473 -0.4114,1.68625 -0.75002,3.05257 -1.0599,4.27966 0.10475,-0.007 0.20947,-0.0117 0.31419,-0.0197 0.17137,-0.78816 0.3228,-1.49287 0.60825,-2.7653 z"
       id="path980"
       inkscape:connector-curvature="0" />
    <path
       style="fill:#000000;fill-opacity:1;stroke:none;stroke-width:0.31979278;stroke-opacity:1"
       d="m 53.322466,183.56219 c 0.0753,-0.30894 0.13096,-0.53374 0.21084,-0.8614 0.14105,-0.57867 0.23416,-1.17317 0.29766,-1.77785 -0.47162,1.20151 -0.92353,2.4199 -1.36687,3.6448 -0.15745,1.05922 -0.29678,2.03178 -0.41444,2.90344 0.33647,-1.25033 0.64939,-2.36018 0.91572,-3.22503 0.21987,-0.71402 0.33216,-0.90117 0.35709,-0.68396 z"
       id="path978"
       inkscape:connector-curvature="0" />
    <path
       style="fill:#000000;fill-opacity:1;stroke:none;stroke-width:0.31979278;stroke-opacity:1"
       d="m 52.049656,187.47118 c -0.0324,0.12067 -0.0684,0.26705 -0.10128,0.3903 0.0169,0 0.0341,-0.004 0.0512,-0.004 0.0185,-0.13805 0.0309,-0.24436 0.0501,-0.38653 z"
       id="path976"
       inkscape:connector-curvature="0" />
    <path
       style="fill:#000000;fill-opacity:1;stroke:none;stroke-width:0.31979278;stroke-opacity:1"
       d="m 108.26592,176.23912 c 0.10107,0.30561 0.20166,0.61159 0.30281,0.91721 0.32266,0.39661 0.6449,0.79369 0.97306,1.1792 1.01446,1.19173 0.54856,0.26817 -0.50488,-1.46983 -0.25725,-0.21104 -0.51448,-0.42435 -0.77099,-0.62658 z"
       id="path974"
       inkscape:connector-curvature="0" />
    <path
       style="fill:#000000;fill-opacity:1;stroke:none;stroke-width:0.31979278;stroke-opacity:1"
       d="m 109.9397,177.71346 c 1.30153,2.5005 2.50613,5.11552 3.74808,7.67989 0.14907,0.30772 0.23503,0.46012 0.27337,0.50051 0.008,0.004 0.0161,0.004 0.0243,0.007 0.0332,-0.27038 -2.32119,-6.07603 -4.04574,-8.18721 z"
       id="path901"
       inkscape:connector-curvature="0" />
    <path
       style="fill:#000000;fill-opacity:1;stroke:none;stroke-width:0.31979278;stroke-opacity:1"
       d="m 183.24371,175.44296 c 0.43783,-0.031 0.73573,-0.0579 0.33538,-0.0605 -3.12134,-0.02 -2.19112,0.0162 -1.33016,0.0612 0.33163,0 0.66318,-1.9e-4 0.99478,0 z"
       id="path899"
       inkscape:connector-curvature="0" />
    <path
       style="fill:#000000;fill-opacity:1;stroke:none;stroke-width:0.31979278;stroke-opacity:1"
       d="m 190.49133,175.25421 c 0.34476,-0.0197 0.68993,-0.0367 1.03508,-0.0475 -2.25309,-0.0317 -1.9095,-1.6e-4 -1.03508,0.0475 z"
       id="path897"
       inkscape:connector-curvature="0" />
    <path
       style="fill:#000000;fill-opacity:1;stroke:none;stroke-width:0.31979278;stroke-opacity:1"
       d="m 221.41295,171.27199 c 0.91133,-0.019 1.29548,-0.0289 -0.99012,-0.0301 0.33014,0.004 0.66016,0.0186 0.99012,0.0301 z"
       id="path895"
       inkscape:connector-curvature="0" />
    <path
       style="fill:#000000;fill-opacity:1;stroke:none;stroke-width:0.31979278;stroke-opacity:1"
       d="m 229.21197,171.77099 c 0.19063,0.0704 0.39047,0.18074 0.56224,0.24838 0.10728,-0.019 0.2141,-0.0367 0.31832,-0.0453 -0.0159,-0.14854 -0.4263,-0.19891 -0.88056,-0.20307 z"
       id="path893"
       inkscape:connector-curvature="0" />
    <path
       style="fill:#000000;fill-opacity:1;stroke:none;stroke-width:0.31979278;stroke-opacity:1"
       d="m 169.07712,171.8193 c -0.29739,0.0131 -0.59729,0.0279 -0.92138,0.0567 -1.45902,-0.0912 -0.68189,-0.027 0.92138,-0.0567 z"
       id="path887"
       inkscape:connector-curvature="0" />
    <path
       style="fill:#000000;fill-opacity:1;stroke:none;stroke-width:0.31979278;stroke-opacity:1"
       d="m 217.19875,184.45604 c -0.45977,0 -0.91631,0.0155 -0.863,0.0543 0.25252,-0.006 0.2117,-0.007 1.42214,-0.0278 0.60777,-0.0102 0.0347,-0.0301 -0.55914,-0.0263 z"
       id="path885"
       inkscape:connector-curvature="0" />
    <path
       style="fill:#000000;fill-opacity:1;stroke:none;stroke-width:0.31979278;stroke-opacity:1"
       d="m 169.24664,185.01318 c 0.30091,0.33739 0.60984,0.64654 0.92604,0.93155 -0.40282,0.004 -0.80586,0.006 -1.20716,-0.0393 -0.087,-0.0102 0.50033,-0.0507 0.46972,-0.30802 -0.0169,-0.14331 -0.39341,-0.47357 -0.1886,-0.58431 z"
       id="path874"
       inkscape:connector-curvature="0" />
    <path
       style="fill:#000000;fill-opacity:1;stroke:none;stroke-width:0.26458332;stroke-opacity:1"
       d="m 91.907181,-591.04558 c -1.1e-4,1.35924 0,2.71849 0,4.07779 0,2.15479 0.004,4.3094 -0.003,6.46419 0,0.16364 0,0.32729 0,0.49093 0.79979,0.0687 1.59835,0.15338 2.3957,0.24908 3.261194,0.46313 6.544159,0.36777 9.826789,0.32814 1.83909,-0.0831 0.33184,-0.01 2.01073,-0.10388 0.2835,-0.0159 1.13403,-0.0271 0.85058,-0.0444 -0.65381,-0.04 -1.31032,0.005 -1.96474,-0.0238 -0.26379,-0.0114 0.52718,-0.0249 0.79118,-0.0269 0.27112,-0.003 0.54232,0.0101 0.81338,0.0156 3.15823,0.26371 6.3183,0.29911 9.48624,0.32195 2.21258,0.0508 4.41812,-0.13676 6.62543,-0.24858 -0.63905,-0.01 -1.2786,-0.005 -1.9172,-0.03 -0.28321,-0.0114 0.56716,-0.0135 0.85061,-0.013 1.21648,0.003 2.43406,0.0513 3.65043,0.0708 2.89835,0.0804 5.80221,0.0689 8.69352,-0.15864 1.6663,-0.16137 3.34095,-0.11589 5.01105,-0.0672 1.74112,0.0267 3.46115,-0.26191 5.19711,-0.3292 0.0476,0.007 0.10205,0.0127 0.15814,0.0175 -0.21505,0.014 -0.38571,0.0233 -0.65889,0.0429 -0.2884,0.0206 0.57779,0.0297 0.86661,0.0434 4.0272,0.19135 -2.45202,-0.12216 2.00454,0.0941 3.04572,0.1423 6.07822,-0.11491 9.11572,-0.25426 0.30678,-0.007 0.61351,-0.0188 0.92035,-0.0228 0.3066,-0.004 0.6132,0 0.91985,0 0.30803,0 1.232,0.003 0.92398,0.003 -4.14401,0.003 -0.75441,0 0.0584,0.0169 2.9881,0.032 5.97667,0.0421 8.96482,0.0755 1.40941,0.033 2.81803,-0.0222 4.22662,-0.0605 0.31951,-0.009 1.27775,-0.009 0.95861,-0.0259 -0.6255,-0.0331 -1.25267,-0.0156 -1.87897,-0.0233 1.7784,-0.0669 3.55632,0.0413 5.33456,0.0579 2.49809,0.0566 4.99332,-0.0515 7.48689,-0.17672 1.43891,-0.0431 0.49154,-0.007 -1.37046,-0.0305 -0.20903,-0.003 0.41841,0 0.62735,-0.006 0.57507,-0.0183 1.13395,-0.0334 1.70997,-0.0119 2.25997,0.14963 4.52406,0.0924 6.78718,0.0941 0.98104,-0.0397 6.09068,-0.0369 1.2733,-0.093 1.00833,-0.12025 2.0192,-0.06 3.0303,-0.0449 2.03163,0.014 4.06252,0.0517 6.09317,-0.0119 0.0776,-0.008 0.17346,-0.0103 0.26665,-0.014 -0.34523,-0.0119 -0.56407,-0.0167 -1.15755,-0.0434 -1.14975,-0.0518 1.08161,-0.10707 1.36064,-0.12969 1.85269,0.0675 3.71494,0.0358 5.56969,0.11781 0.84828,0.0816 6.47891,0.10242 1.84796,0.032 1.27193,-0.0719 2.54754,-0.036 3.81939,-0.0946 1.87383,-0.0314 3.74711,-0.0541 5.62137,-0.0708 0.69969,-0.0765 1.40372,-0.12909 2.10788,-0.12041 -4.14203,0.0415 -1.46545,-0.0514 -0.50229,-0.0444 1.18666,0.11605 2.38911,0.0712 3.57601,0.0873 0.13861,0.003 0.39957,0.003 0.62372,0 4.08935,1.5703 8.2522,-3.70416 4.36409,-7.49361 -0.16428,-0.15237 -0.32821,-0.30496 -0.49249,-0.45733 -0.90117,-0.65609 -1.83176,-1.09675 -2.95537,-1.22991 -0.7194,-0.009 -1.43912,-0.0175 -2.15852,-0.0269 0.2595,0.0159 0.23754,0.0382 -0.61082,0.0713 -1.40743,0.003 -2.80842,-0.15807 -4.21886,-0.0574 -0.72451,0.0124 -1.45092,-0.008 -2.17247,-0.0765 4.34909,-0.0471 0.51387,-0.003 -0.47337,-0.17103 -1.32048,-0.12605 -2.6498,-0.16521 -3.97237,-0.27027 -2.31391,-0.0196 -4.6309,-0.0917 -6.94325,0.032 -1.52241,0.0691 -0.0564,-0.009 1.30432,0.047 1.42269,0.0588 -1.24923,0.0902 -1.47638,0.091 -0.12565,0 -0.25072,-0.014 -0.37621,-0.0206 -1.84063,-0.15688 -3.68326,-0.17458 -5.53196,-0.18706 -0.59386,-0.0175 -1.18861,-0.0388 -1.78284,-0.0367 -0.19905,0 -0.79589,0.007 -0.59687,0.0103 1.25518,0.0217 2.92631,0.007 1.4552,0.018 -1.0043,0.0132 -2.00829,0.0659 -3.0091,-0.0594 -2.19792,-0.0164 -4.3928,-0.0678 -6.5903,-0.0558 -1.69177,0.0249 0.18791,-0.005 1.33583,0.003 0.21796,0 -0.43582,0.0109 -0.6537,0.0161 -0.6226,0.0148 -1.24527,0.0233 -1.8681,0.0175 -2.18601,-0.0529 -4.36723,-0.25959 -6.55928,-0.14574 -0.54512,-0.022 -3.09475,-0.0853 -3.72846,-0.11832 -1.18067,0.007 -2.36138,0 -3.53933,-0.0998 -2.99595,-0.0349 -5.99212,-0.12515 -8.98808,-0.10541 -0.35496,0.006 -1.41901,-0.003 -1.06452,0.0169 0.58343,0.0319 1.16906,-0.004 1.75286,0.0206 0.33602,0.014 -0.67291,0.007 -1.00925,0.0109 -0.97467,0.01 -1.94948,0.0154 -2.92386,-0.0185 -2.93986,-0.0111 -5.88089,-0.0894 -8.82012,0.0151 -0.9946,0.0225 -1.98641,0.051 -2.98122,0.0543 -0.33682,0 -0.67345,0.005 -1.01026,0.008 -0.33084,0.003 -1.3235,-0.003 -0.99272,0.006 0.59989,0.0127 1.20039,0.008 1.80041,0.0114 -2.75889,0.13872 -5.52256,0.0562 -8.28063,0.21032 -1.68376,0.0648 -3.36505,-0.005 -5.04931,0.0455 -1.70649,0.0988 -3.41334,0.22159 -5.12424,0.17518 -0.83087,-0.0196 -0.89956,-0.0241 -1.75646,-0.0325 -0.0233,-2.4e-4 -0.0755,1.6e-4 -0.10491,0 1.14464,-0.0281 2.32619,-0.0796 -0.8387,-0.006 -0.28954,0.007 0.46019,0.004 0.83095,0.006 -0.38246,0.009 -0.76002,0.0164 -0.96843,0.0151 -2.7295,0.0412 -5.45738,0.11168 -8.18761,0.0217 -1.80049,-0.0868 -3.60016,-0.21463 -5.40277,-0.2341 0.0945,0.009 0.18878,0.0201 0.28215,0.0393 0.40262,0.0821 -0.82147,0.031 -1.23195,0.0491 -1.0714,0.0472 -2.14151,0.11901 -3.21273,0.16689 -0.29681,0.0132 -0.59396,0.018 -0.8909,0.0269 -2.77609,-0.004 -5.55329,-0.10075 -8.32972,-0.13332 0.61222,-0.007 1.22444,-0.0106 1.83658,-0.0201 0.33753,-0.005 -0.67482,0.004 -1.01235,0.007 -1.37147,0.014 -2.744331,0.0345 -4.113935,-0.0594 -1.962674,-0.0714 -3.911224,-0.33708 -5.870444,-0.46717 -0.0306,-0.003 -0.0614,-0.003 -0.092,-0.004 z"
       id="path1062"
       inkscape:connector-curvature="0" />
    <path
       style="fill:#000000;fill-opacity:1;stroke:none;stroke-width:0.26458332;stroke-opacity:1"
       d="m 114.54247,-590.6513 c -0.44542,-0.0406 -0.90191,0.0156 -1.35083,0.007 0.45043,-0.0114 0.90083,-0.0116 1.35083,-0.007 z"
       id="path1060"
       inkscape:connector-curvature="0" />
    <path
       style="fill:#000000;fill-opacity:1;stroke:none;stroke-width:0.26458332;stroke-opacity:1"
       d="m 177.20068,-590.77118 c 0.56808,-0.003 1.13585,-0.009 1.70375,-0.0119 -1.78461,-0.0169 -2.07893,-0.008 -1.70375,0.0119 z"
       id="path1058"
       inkscape:connector-curvature="0" />
    <path
       style="fill:#000000;fill-opacity:1;stroke:none;stroke-width:0.26458332;stroke-opacity:1"
       d="m 223.66966,-589.87718 c -0.57971,-0.0355 -2.71714,-0.0352 -1.27125,-0.0269 0.16619,0 0.33203,0.0148 0.49816,0.0175 0.25765,0.004 0.51544,0.006 0.77309,0.009 z"
       id="path1056"
       inkscape:connector-curvature="0" />
    <path
       style="fill:#000000;fill-opacity:1;stroke:none;stroke-width:0.26458332;stroke-opacity:1"
       d="m 202.04513,-580.40438 c 1.79133,0.0616 0.81711,-0.031 0,0 z"
       id="path1054"
       inkscape:connector-curvature="0" />
    <path
       style="fill:#000000;fill-opacity:1;stroke:none;stroke-width:0.26458332;stroke-opacity:1"
       d="m 223.12086,-581.84771 c 0.56578,0.55144 1.1584,0.93067 1.75339,1.1653 -0.52258,-0.007 -1.04529,-0.007 -1.56787,-0.0119 0.87498,-0.24529 1.1651,0.013 0.2403,-0.74414 -0.14195,-0.13644 -0.2839,-0.27283 -0.42582,-0.40928 z"
       id="path953"
       inkscape:connector-curvature="0" />
    <path
       style="fill:#000000;fill-opacity:1;stroke:none;stroke-width:0.26458332;stroke-opacity:1"
       d="m 42.32418,-663.55051 c -2.088428,-0.004 -4.186991,0.1497 -6.261632,0.19896 -3.422028,0.21455 -6.845125,0.41839 -10.26294,0.69247 -2.182042,0.19124 -4.362631,0.40129 -6.548954,0.53951 -0.468085,0.0296 -1.115992,-0.29223 -1.404566,0.0775 -0.0259,0.0332 -0.0351,0.0588 -0.03669,0.0806 -3.301209,0.0621 -6.609033,-0.037 -9.8898368,0.41185 -3.2634985,0.52922 -6.6349825,1.2182 -9.4454233,3.04686 -5.6293992,2.96339 -1.4384428,10.92465 4.1909608,7.96126 3.088588,0.10618 6.1303069,-0.62121 9.1798053,-1.01234 1.185508,-0.14714 1.154547,-0.17836 2.221053,-0.17725 -0.09268,0.01 -0.184005,0.0281 -0.270784,0.0667 -0.390583,0.17346 0.854468,0.023 1.281575,0.0377 0.461072,0.0159 0.92187,0.0367 1.382862,0.0548 4.22403,0.12023 8.443262,-0.0953 12.664859,-0.17002 3.573098,-0.0633 7.124825,-0.43667 10.661365,-0.92501 1.214011,-0.21495 2.434479,-0.39611 3.661791,-0.51522 0.288292,-0.028 1.153448,-0.0397 0.865581,-0.0718 -1.179052,-0.13139 -2.82699,0.0533 -1.145667,-0.10697 1.599468,-0.0382 3.193722,0.13261 4.789371,0.22063 1.902984,0.12885 3.805407,0.21487 5.712315,0.14367 2.276546,-0.13771 -0.71769,0.0316 4.153233,-0.11369 0.136671,-0.004 0.426011,-0.0183 0.582396,-0.0325 0.662694,0.10972 1.32284,0.24895 1.993675,0.27699 1.182783,0.0494 2.366682,0.055 3.550171,0.0827 2.303407,0.19632 4.611968,0.30705 6.922574,0.3333 0.0032,-0.009 0.0035,-0.0164 0.0083,-0.0265 0.200348,-0.4182 0.926669,-0.0388 1.390097,-0.0553 1.637268,-0.0582 3.263704,-0.0937 4.901509,-0.0444 2.864374,0.16573 5.715593,0.44458 8.585003,0.53483 3.529658,0.22238 7.027618,-0.15267 10.531188,-0.47231 0.37382,-0.0775 1.146864,-0.0849 1.526524,-0.0832 -0.278,-0.003 -0.821247,-0.0135 -1.793174,-0.0393 -0.24487,-0.006 0.48988,-0.0143 0.73484,-0.013 0.448277,0.003 1.137701,0.039 1.579751,0.0594 2.632228,0.13126 5.272078,0.12375 7.904968,0.009 1.0177,-0.0453 2.03616,-0.0548 3.05459,-0.0372 0.26879,0.005 1.07537,0.009 0.80667,0.0169 -0.58389,0.018 -1.16871,0.008 -1.75287,0.0124 1.82221,0.0519 3.64562,0.051 5.46789,0.0971 3.28145,0.0519 6.56009,-0.085 9.84126,-0.0501 2.62921,0.0949 5.25078,-0.0278 7.87289,-0.20466 2.24051,-0.21166 4.48886,-0.29929 6.73396,-0.44698 1.15428,-0.0612 2.30473,-0.1795 3.45818,-0.25271 0.22733,-0.0143 0.90989,-0.019 0.68265,-0.0346 -0.62783,-0.0433 -1.25812,-0.0319 -1.88723,-0.048 1.09253,-0.10821 2.19166,-0.084 3.28664,-0.0362 1.49804,0.16825 3.00018,0.29443 4.49688,0.47387 1.7854,0.26916 3.59143,0.3302 5.39242,0.40773 0.75169,0.0283 1.49424,0.12356 2.23191,0.25114 0.69242,-2.42359 1.38488,-4.8472 2.0774,-7.27086 -0.70516,1.83804 -1.64385,4.26059 -1.22731,3.0706 0.43168,-1.23328 0.91666,-2.44729 1.39681,-3.66281 0.01,-0.0334 0.0189,-0.0669 0.0284,-0.10026 5.3e-4,0 0.002,-0.004 0.003,-0.005 0.11898,-0.43029 0.2428,-0.85894 0.37724,-1.28468 0.0263,-0.0832 0.0801,-0.21114 0.13126,-0.33435 -0.59702,-0.10134 -1.19491,-0.19847 -1.79628,-0.27337 -1.70208,-0.2059 -3.40969,-0.25085 -5.11958,-0.36071 -1.71654,-0.20095 -3.43369,-0.40812 -5.16661,-0.3607 -1.19541,-0.0586 -2.3939,-0.0487 -3.58376,-0.19429 -2.59398,-0.0446 -5.18704,-0.14195 -7.78144,-0.13385 -2.26693,0.0476 -4.53096,0.15446 -6.79803,0.19018 -2.57838,0.0367 -5.1573,-0.0717 -7.73493,0.0413 -1.65377,0.088 -3.30431,0.21479 -4.95732,0.31213 -0.32626,0.0193 -1.30397,0.0124 -0.97927,0.0496 0.54611,0.0626 1.09939,0.0183 1.649,0.0274 -1.83802,0.0458 -3.6769,0.0442 -5.51491,0.0935 -2.42841,0.009 -4.85806,0.0715 -7.28586,0 -0.40078,-0.0156 -1.36328,-0.0269 -1.71772,-0.0367 -0.0246,0 -0.0493,0 -0.0739,0.003 -0.2936,0.01 -0.58704,0.0222 -0.88058,0.0336 -2.472081,0.0808 -4.952299,0.0419 -7.421789,-0.0956 -1.57195,-0.0954 -3.14251,-0.21365 -4.71653,-0.27286 -0.45149,-0.0169 -0.91431,0.0584 -1.357027,-0.0201 -2.441338,0.0418 -4.884013,0.0892 -7.323072,-0.047 -3.587337,-0.11171 -7.16634,-0.47924 -10.761618,-0.34468 -2.707536,0 -5.411179,0.13592 -8.101314,0.45321 1.992808,0.10678 2.287482,0.019 1.009759,0.18346 -0.657379,0.0846 -1.310008,0.20635 -1.969389,0.0548 -1.559872,-0.27069 -2.684336,-0.21918 -4.453475,-0.27493 -0.213391,-0.007 -0.8515,-0.027 -0.638722,-0.0444 0.622411,-0.0511 1.25082,0.005 1.872239,-0.0569 0.254376,-0.0254 -0.509807,-0.0357 -0.764813,-0.0537 -1.925666,-0.10916 -3.852867,-0.0882 -5.780524,-0.047 -1.503518,0.0851 -3.0071,0.13055 -4.499985,-0.123 -1.238494,-0.17222 -2.487801,-0.23167 -3.740857,-0.23411 z"
       id="path921"
       inkscape:connector-curvature="0" />
    <path
       style="fill:#000000;fill-opacity:1;stroke:none;stroke-width:0.26458332;stroke-opacity:1"
       d="m 87.475944,-663.01616 c 0.398367,-0.007 0.797017,-0.014 1.195287,-0.0196 -0.43618,0 -1.732724,-0.10546 -1.308977,-0.003 0.0375,0.009 0.0758,0.0151 0.11369,0.0217 z"
       id="path919"
       inkscape:connector-curvature="0" />
    <path
       style="fill:#000000;fill-opacity:1;stroke:none;stroke-width:0.26458332;stroke-opacity:1"
       d="m 101.92577,-662.66321 c 0.21608,-0.007 0.4324,-0.0135 0.64854,-0.0185 -0.61692,0.006 -0.87888,0.0122 -0.64854,0.0185 z"
       id="path917"
       inkscape:connector-curvature="0" />
    <path
       style="fill:#000000;fill-opacity:1;stroke:none;stroke-width:0.26458332;stroke-opacity:1"
       d="m 102.57431,-662.68181 c 0.29622,-0.003 0.48704,-0.006 1.08986,-0.009 0.30175,-0.003 -0.60365,0 -0.90537,0.004 -0.0615,0 -0.12301,0.004 -0.18449,0.005 z"
       id="path915"
       inkscape:connector-curvature="0" />
    <path
       style="fill:#000000;fill-opacity:1;stroke:none;stroke-width:0.26458332;stroke-opacity:1"
       d="m 69.422818,-659.70194 c -0.008,0.0275 -0.0147,0.0552 -0.0222,0.0827 0.0278,-0.0703 0.055,-0.14097 0.0827,-0.21135 -0.0195,0.0411 -0.0462,0.0997 -0.0605,0.12869 z"
       id="path913"
       inkscape:connector-curvature="0" />
    <path
       style="fill:#000000;fill-opacity:1;stroke:none;stroke-width:0.26458332;stroke-opacity:1"
       d="m 69.483278,-659.83064 c 0.1261,-0.26593 0.32417,-0.69733 0.25167,-0.50591 -0.1029,0.27168 -0.30983,0.80428 -0.46923,1.22008 -0.24558,0.92432 -0.4757,1.85314 -0.72605,2.77606 0.30824,-0.66003 0.62171,-1.31758 0.93328,-1.9761 0.13746,-0.78232 0.29714,-1.52357 0.45682,-1.97921 0.11352,-0.32396 0.23456,-0.64477 0.35915,-0.96428 -0.079,-0.0138 -0.15815,-0.0268 -0.2372,-0.0403 -0.18615,0.49118 -0.37579,0.98084 -0.56844,1.46968 z"
       id="path911"
       inkscape:connector-curvature="0" />
    <path
       style="fill:#000000;fill-opacity:1;stroke:none;stroke-width:0.26458332;stroke-opacity:1"
       d="m 69.472948,-658.31651 c -0.34058,1.93821 -0.52689,4.14724 -0.11111,3.02565 0.83396,-2.24957 1.47361,-4.15626 1.97766,-5.79242 -0.17145,-0.029 -0.34333,-0.0551 -0.5147,-0.0847 -0.45108,0.9503 -0.90198,1.90066 -1.35185,2.85152 z"
       id="path909"
       inkscape:connector-curvature="0" />
    <path
       style="fill:#000000;fill-opacity:1;stroke:none;stroke-width:0.26458332;stroke-opacity:1"
       d="m 97.813865,-652.59666 c 0.331017,0.004 0.241547,0 0,0 z"
       id="path907"
       inkscape:connector-curvature="0" />
    <path
       style="fill:#000000;fill-opacity:1;stroke:none;stroke-width:0.26458332;stroke-opacity:1"
       d="m 70.871274,-652.44989 c -0.128987,0.35811 0.91622,-0.003 1.353923,0.0103 -0.451546,0.003 -0.902552,-0.005 -1.353923,-0.0103 z"
       id="path905"
       inkscape:connector-curvature="0" />
    <path
       style="fill:#000000;fill-opacity:1;stroke:none;stroke-width:0.26458332;stroke-opacity:1"
       d="m 72.388528,-654.65213 c -0.98558,1.54985 -1.71589,2.63115 -2.33577,3.53208 0.19895,0.0437 0.39878,0.0823 0.59841,0.12144 0.53482,-1.07698 1.11236,-2.28359 1.73736,-3.65352 z"
       id="path903"
       inkscape:connector-curvature="0" />
    <path
       style="fill:#000000;fill-opacity:1;stroke:none;stroke-width:0.26458332;stroke-opacity:1"
       d="m 57.179087,-653.27672 c 0.314293,0.006 0.625819,0.0416 0.936376,0.0868 -0.524441,-0.0361 -0.936876,-0.0608 -1.22628,-0.0744 0.09402,-0.003 0.188023,-0.006 0.289904,-0.0124 z"
       id="path900"
       inkscape:connector-curvature="0" />
    <path
       style="fill:#000000;fill-opacity:1;stroke:none;stroke-width:0.26458332;stroke-opacity:1"
       d="m 14.967711,-651.73933 c 0.269875,-2.6e-4 0.450341,0.007 0.272852,0.0403 -0.278971,0.0516 -0.577668,-0.0124 -0.866098,-0.0346 0.188258,-0.003 0.395533,-0.006 0.593246,-0.006 z"
       id="path973"
       inkscape:connector-curvature="0" />
    <path
       style="fill:#000000;fill-opacity:1;stroke:none;stroke-width:0.26458332;stroke-opacity:1"
       d="m 2.1998657,-657.7783 c -1.38381215,0.0521 -2.73723844,0.97354 -3.01066891,2.91248 -1.60942389,2.61271 -1.81060009,5.76996 -1.78232009,8.76642 0.2229557,1.80414 0.2597621,3.58579 0.025321,5.38519 -0.4198482,2.42142 -0.6192657,4.87463 -0.7482747,7.32669 -0.1449721,2.86557 -0.1140341,5.73735 -0.021704,8.60411 0.1154599,2.41157 0.05071,4.82439 0.05271,7.23678 0.06723,1.95427 0.1252678,3.9075 0.075448,5.86269 -0.077261,2.06499 0.035226,4.12935 0.047025,6.19445 0.03188,1.97297 0.00943,3.94507 -0.034623,5.91746 -0.01664,2.02835 -0.013592,4.05643 -0.097152,6.08335 -0.092601,2.50812 -0.2328849,5.01433 -0.2196248,7.52462 0.034814,2.71852 0.2800942,5.4292 0.4687051,8.14007 0.2499167,2.53722 0.062019,5.08412 -0.040307,7.6233 -0.048232,2.36554 0.096228,4.7262 0.33538,7.07811 0.2734157,1.91188 0.1502316,3.83715 0.079582,5.75678 -0.1030672,2.50206 -5.557e-4,5.00181 0.2211751,7.49411 0.272234,1.93622 0.4309543,3.87167 0.4640543,5.82549 0.00787,2.11682 -0.022826,4.23333 -0.047026,6.35 -0.037541,1.4152 -0.00824,2.82927 0.063562,4.24159 2.20963875,0.35523 4.1484292,0.79293 6.233728,1.6061 1.2427477,0.0711 2.485277,0.14936 3.7269042,0.23876 -3.969e-4,-0.006 -6.35e-4,-0.0111 -0.00103,-0.0164 -0.077917,-1.99712 0.028792,-3.99084 0.047542,-5.98828 0.017867,-2.25267 0.023545,-4.50893 -0.1384927,-6.7572 -0.1225688,-2.00702 -0.2417869,-4.01497 -0.3007569,-6.02496 -0.071152,-2.31423 -0.066971,-4.62976 -0.1658813,-6.94325 -0.057495,-2.12963 -0.2485808,-4.24881 -0.4304647,-6.37066 -0.063327,-2.10727 0.2040877,-4.19984 0.2702676,-6.30452 0.00895,-2.82882 -0.069837,-5.65732 -0.2619994,-8.48011 -0.2259766,-2.53304 -0.4244398,-5.0669 -0.4568197,-7.61142 -0.073563,-2.46954 -0.1633056,-4.93858 -0.2847372,-7.40627 -0.09449,-1.98932 -0.1058675,-3.98045 -0.075448,-5.97173 -2.911e-4,-2.06483 0.050284,-4.12951 0.00259,-6.19395 -0.08261,-2.0039 -0.2012455,-4.00605 -0.2754355,-6.00995 -0.052106,-1.94678 0.010028,-3.89099 0.091467,-5.83634 0.015539,-2.43925 -0.038726,-4.87931 0.037724,-7.3184 0.047748,-2.80731 0.014719,-5.61594 -0.07028,-8.42225 -0.058116,-2.54029 -0.1015598,-5.0919 -0.4258136,-7.61452 -0.2194462,-1.60986 -0.7671255,-3.19257 -0.3782716,-4.82555 0.3949891,-2.73187 0.8958469,-5.54061 0.2811198,-8.27598 0.3515535,-2.49293 -1.4779784,-3.86358 -3.2571655,-3.79667 z"
       id="path1086"
       inkscape:connector-curvature="0" />
    <path
       style="fill:#000000;fill-opacity:1;stroke:none;stroke-width:0.26458332;stroke-opacity:1"
       d="m 3.9801188,-531.88209 c -0.012322,-0.004 0.029276,0.0156 0.034106,0.019 0.00551,0 0.011023,0 0.016536,0 -0.011205,-0.004 -0.043986,-0.018 -0.050643,-0.0201 z"
       id="path1084"
       inkscape:connector-curvature="0" />
    <path
       style="fill:#000000;fill-opacity:1;stroke:none;stroke-width:0.26458332;stroke-opacity:1"
       d="m 5.5919068,-531.11575 c 0.8394406,0.39103 1.6822023,0.77491 2.5285276,1.15086 -0.00303,-0.0381 -0.00629,-0.0761 -0.0093,-0.11422 -0.7449516,-0.33734 -1.5809516,-0.71464 -2.0308837,-0.92295 -0.1627757,-0.0379 -0.3255669,-0.0757 -0.4883423,-0.11369 z"
       id="path1082"
       inkscape:connector-curvature="0" />
    <path
       style="fill:#000000;fill-opacity:1;stroke:none;stroke-width:0.31979278;stroke-opacity:1"
       d="M 7.402132,9.0150385 C 7.9472975,9.0673377 8.3456801,9.13819 8.0387856,9.0671916 7.8273984,9.0182524 7.6150819,9.0068576 7.402132,9.0150385 Z"
       id="path1080"
       inkscape:connector-curvature="0" />
    <path
       style="fill:#000000;fill-opacity:1;stroke:none;stroke-width:0.31979278;stroke-opacity:1"
       d="m 5.7061116,9.2913187 c -0.1333463,0.019722 -0.2668188,0.035207 -0.3999757,0.041489 -1.5817281,0.074066 -2.6208368,0.1097116 -3.4494017,0.1018228 0.065452,0.9576165 0.1336706,1.9149115 0.201538,2.8717395 0.1898591,2.39367 0.2436417,4.804825 0.2552817,7.212592 -0.03283,2.233441 -0.023801,4.462251 0.064079,6.692405 0.119991,2.181389 0.1895311,4.359098 0.1467611,6.546726 -0.109865,3.059988 -0.2122007,6.11815 -0.2682007,9.181424 -0.03552,3.373536 -0.00825,6.747713 -0.00155,10.121322 -0.032368,3.523771 0.033517,7.046578 0.091467,10.568961 0.056412,3.083333 0.1990311,6.164226 0.4010091,9.234294 0.154135,2.169046 0.4224486,4.315214 0.6366536,6.471973 0.084234,1.278074 0.1560934,2.559742 0.1767333,3.844083 0.023961,1.171824 -0.021669,2.344029 -0.049609,3.514962 -0.0142,1.452005 -0.042736,2.902593 -0.082165,4.353635 -0.10425,1.961908 -0.1219117,3.927848 -0.079582,5.89373 0.109109,1.566392 -0.084822,3.094041 -0.2738851,4.625443 -0.351264,2.30955 -0.6197007,4.62486 -0.7307047,6.98609 -0.06472,2.62209 -0.057239,5.2504 -0.027389,7.8739 0.03196,1.78325 0.089862,3.56438 -0.00827,5.34486 -0.133937,1.876 -0.2826148,3.747 -0.3426148,5.63176 -0.05206,1.87293 0.044074,3.74308 0.1095541,5.61215 0.048013,1.45851 -0.171792,2.90367 -0.350883,4.33099 -0.28788,2.21937 -0.276739,4.48069 -0.116272,6.71812 0.058616,0.91984 0.2395249,1.85376 0.1844849,2.76603 -0.201246,1.24714 -0.2387474,2.53851 -0.3214274,3.81165 -0.10316,1.27671 -0.016222,2.55971 -0.045992,3.83877 -0.02773,1.04223 -0.038644,2.0856 -0.021704,3.12845 0.01064,0.0486 0.026499,2.78423 0.062528,1.69025 0.184699,-1.53185 -0.1063205,1.41476 -0.1085205,1.44722 -0.032025,0.57817 -0.031245,1.15726 -0.018603,1.7363 -0.033658,0.28595 -0.081822,0.77606 -0.109554,1.05539 -0.04892,0.9056 -0.068226,1.81574 -0.047026,2.7238 8.493e-4,0.47259 0.054966,0.93855 0.066146,1.40945 0.01451,0.48625 -0.014687,0.97477 -0.021187,1.46229 0.01323,0.41656 0.00499,0.83628 0.038757,1.2509 0.05495,0.2577 0.023271,0.49262 -0.012919,0.75117 -0.06416,0.53827 -0.05106,1.08622 -0.01602,1.62762 0.0692,0.24748 0.073321,0.3864 0.041341,0.64015 -0.0906,0.57651 -0.1243855,1.17237 -0.064596,1.75825 0.128396,0.32704 -0.016538,0.58933 -0.022738,0.96553 0.1617639,2.25625 2.3740227,1.25304 4.3697591,0.50051 1.8054018,0.83327 4.5981841,1.74879 4.7593991,-0.50051 -0.0062,-0.376 -0.151085,-0.63911 -0.02274,-0.96553 0.05969,-0.58476 0.02561,-1.17993 -0.06511,-1.7552 -0.03219,-0.25448 -0.02719,-0.39943 0.04186,-0.64773 0.03437,-0.53687 0.04763,-1.08118 -0.01705,-1.61481 -0.03939,-0.26345 -0.06202,-0.4944 -0.0098,-0.75945 0.03132,-0.43271 0.02272,-0.86859 0.03152,-1.30299 -0.0084,-0.38243 -0.04087,-0.76892 -0.0088,-1.14899 0.03283,-0.70192 0.09293,-1.40044 0.06356,-2.10628 -0.004,-0.1398 -0.04227,-1.6569 -0.12454,-0.99876 -0.133694,0.9644 0.305389,-2.09373 0.244429,-2.24288 -6.88e-4,-0.0654 -0.0089,-0.87733 -0.04599,-1.24109 0.05536,-0.36453 0.117051,-0.77664 0.147279,-0.94594 0.05467,-0.97059 0.08744,-1.93662 0.04547,-2.91023 0.0057,-0.7569 0.0584,-1.5059 0.12454,-2.25723 0.06849,-1.17946 0.09955,-2.36272 0.182934,-3.54061 0.08259,-1.40038 0.153216,-2.80276 0.171566,-4.20873 0.0223,-1.26825 -0.03996,-2.53613 0.02222,-3.80331 0.08855,-1.58152 0.200933,-3.15919 0.299723,-4.73942 0.13486,-2.06522 0.243375,-4.13564 0.202055,-6.2123 2.91e-4,-1.62239 -0.0041,-3.24475 0.0036,-4.86702 0.03046,-1.62139 0.100336,-3.24092 0.222209,-4.85341 0.180114,-2.14512 0.390812,-4.28751 0.435632,-6.45087 0.0574,-2.41956 -0.03221,-4.82613 -0.104903,-7.24202 0.0737,-2.00646 0.322533,-3.97604 0.50953,-5.96465 0.180931,-2.12402 0.3398,-4.250864 0.3576,-6.394242 0.0457,-1.983514 0.03083,-3.967277 -0.07906,-5.94657 -0.04422,-1.409728 -0.08806,-2.819339 -0.100252,-4.230615 -0.01948,-1.196557 -0.01889,-2.393377 0.0279,-3.588897 0.02123,-1.636338 0.01122,-3.270982 -0.031,-4.906283 -0.07798,-2.144269 -0.25749,-4.274207 -0.3514,-6.416898 -0.12822,-2.822771 -0.02186,-5.651883 -0.03307,-8.47857 -0.03641,-3.466797 -0.188202,-6.925121 -0.239262,-10.390808 -0.0172,-3.299469 -0.02479,-6.599902 -0.0098,-9.899385 -0.0028,-3.215323 0.0061,-6.432384 -0.115755,-9.644157 -0.109846,-2.311524 -0.298785,-4.606497 -0.469222,-6.908365 -0.0778,-1.877718 0.0309,-3.750119 0.127124,-5.62344 0.142907,-2.935945 0.213929,-5.879545 0.0078,-8.815257 -0.01109,-0.165049 -0.02054,-0.330215 -0.03152,-0.49525 C 10.67536,10.44535 9.6202233,10.285326 8.568526,10.083871 7.6246405,9.903103 6.3239449,10.542176 5.7475097,9.4354046 5.7195387,9.3816445 5.7071607,9.33402 5.7061687,9.2912165 Z"
       id="path979"
       inkscape:connector-curvature="0" />
    <path
       style="fill:#000000;fill-opacity:1;stroke:none;stroke-width:0.31979278;stroke-opacity:1"
       d="m 126.04523,165.76584 c -0.28587,0 -0.57183,-4e-5 -0.85783,0.006 -2.71281,0.0581 -5.42288,0.24393 -8.1287,0.53599 -2.21798,0.1817 -4.43641,0.37002 -6.65902,0.35103 -2.20243,0.034 -4.41136,0.0333 -6.60115,0.43032 -1.9484,0.26338 -3.896667,0.55281 -5.854954,0.60395 0.534437,0.0383 1.07582,-0.0193 1.602997,0.11468 0.28691,0.0749 -0.581187,0.0608 -0.87229,0.071 -0.29081,0.0102 -0.582037,0.006 -0.872817,-0.006 -1.743687,-0.0717 -3.463227,-0.54569 -5.221417,-0.21441 -2.26209,0.0876 -4.517187,0.31611 -6.770668,0.61377 -0.380122,0.0216 -0.759757,0.0475 -1.139981,0.065 -0.385874,0.0178 -1.527178,-0.12461 -1.158069,0.0408 0.462405,0.20718 0.987214,-0.11775 1.449523,0.0898 0.377232,0.16931 -0.788749,0.0251 -1.183389,0.0294 -0.401452,0.004 -0.80324,0 -1.204579,-0.0159 -0.397251,-0.0146 -0.794083,-0.0451 -1.191141,-0.0679 -3.530166,-0.27841 -7.086163,-0.52068 -10.591601,0.32765 -2.642285,0.60448 -5.274162,1.39418 -7.945252,1.66766 -0.397645,0.0392 -1.48194,-0.2836 -1.193208,0.11774 0.334865,0.4655 0.9862,-0.19898 1.383377,0.14646 0.332888,0.28954 -0.774851,0.0359 -1.162204,0.046 -0.814152,0.0205 -1.363112,0.0178 -2.17506,-0.0212 -0.359799,-0.0174 -0.719373,-0.0475 -1.079002,-0.071 -3.150129,0.004 -6.288802,0.0336 -9.423715,0.54202 -2.359652,0.22326 -4.721127,0.16532 -7.084322,0.11029 -0.548097,-0.019 -2.203259,-0.0765 -2.735233,-0.0989 -0.491189,-0.0209 -0.998633,0.11629 -1.473295,-0.0694 -0.354383,-0.13864 1.457809,0.0367 1.099155,-0.0763 -0.07761,-0.0244 -3.320401,-0.16157 -3.334162,-0.16157 -4.311732,-0.0454 -8.605598,0.18499 -12.909806,0.5828 -1.567305,0.31965 -3.136437,0.62771 -4.722709,0.45598 -0.397249,-0.0429 -1.149684,0.3868 -1.187525,-0.1925 -0.01063,-0.16275 0.05353,-0.2341 0.152963,-0.26198 -3.233565,-0.4021 -6.471686,-0.87694 -9.7198226,-0.69226 v 0.006 c -5.0407904,-4.45189 -9.350607,5.96226 -4.3098174,10.41423 3.428929,4.03081 7.827963,4.90048 12.088673,4.99836 2.851186,0.98694 5.417081,-0.88803 8.169527,-1.12486 0.917902,-0.0789 1.189212,0.0321 2.127519,0.19174 -0.38718,0.0853 -1.439997,-0.1464 -1.16117,0.25519 0.358409,0.5162 1.000333,0.16172 1.501201,0.23405 2.387753,0.34462 4.766218,0.4421 7.163904,0.49671 3.955124,-0.0868 7.907171,-0.23485 11.859742,-0.45597 2.575266,-0.0159 5.139491,-0.13572 7.701854,-0.51864 1.351896,-0.27501 2.707206,-0.50704 4.071069,-0.58883 3.073916,0.16451 6.139929,0.44623 9.221142,0.43182 3.111217,-0.14966 6.132703,-1.22655 9.171017,-2.10021 0.604022,-0.13601 1.029739,-0.24864 1.538925,-0.32614 0.505661,0.027 1.532517,0.0541 1.87172,0.0906 3.619273,0.56714 7.264022,0.72456 10.87892,0.0429 1.93386,-0.41864 3.85456,-1.00971 5.81157,-1.09915 0.26129,0.0263 0.52102,0.0619 0.86145,0.1049 2.313767,0.29156 0.37922,0.11453 4.663801,0.23176 2.21107,-0.0748 4.3913,-0.6281 6.58773,-0.94667 1.94848,-0.0738 3.89705,-0.004 5.84564,0.024 2.3466,-0.0438 4.69397,-0.0539 7.0404,-0.12535 2.66613,-0.11891 5.33236,-0.20988 7.99899,-0.30117 2.25309,0.0131 4.49725,-0.25159 6.74223,-0.48923 0.68581,-0.0912 5.97116,-0.21076 1.78645,-0.0717 -0.29331,0.0102 0.58718,0.004 0.88057,0.004 2.46628,0 4.93167,-0.065 7.39799,-0.08 1.5718,-0.0193 3.14425,0.006 4.71548,0.0695 0.12467,0.004 0.36045,0.004 0.56069,0.007 0.73216,-0.0324 1.59795,-0.0701 1.86138,-0.0839 1.41037,-0.0919 2.7854,0.2725 4.15841,0.68926 2.11806,0.67188 4.26299,1.04121 6.42906,1.0637 0.80668,-0.0162 1.29511,-0.0186 1.81023,-0.0239 0.73272,-4.06279 1.49684,-8.77206 2.24689,-14.16622 -0.42558,-0.009 -0.86565,-0.0151 -1.34049,-0.0294 -0.55765,-0.0167 -2.13636,-0.0348 -1.83348,-0.0982 -1.14958,0.0522 -2.29931,0.0909 -3.44062,-0.15399 -1.82302,-0.39004 -3.62214,-1.0852 -5.47253,-1.14976 -2.48087,-0.20932 -4.97191,-0.12826 -7.45484,-0.11248 -1.12002,0.0478 -2.24045,0.0717 -3.36104,0.0822 0.12454,-0.004 0.24915,0 0.37362,-0.009 0.2533,-0.0146 -0.50675,-0.0251 -0.76016,-0.034 -1.1193,-0.0387 -2.23893,-0.0665 -3.35845,-0.0846 -2.62735,-0.0333 -5.2536,0.0526 -7.88065,0.0166 -2.00025,-0.0812 -3.99854,-0.26801 -5.99964,-0.28084 z"
       id="path886"
       inkscape:connector-curvature="0" />
    <path
       style="fill:#000000;fill-opacity:1;stroke:none;stroke-width:0.31979278;stroke-opacity:1"
       d="m 74.618366,168.5103 c 0.55386,-0.0251 1.10769,-0.0514 1.66037,-0.0543 -0.53479,0.0148 -1.07165,-0.0244 -1.60456,0.0422 -0.0351,0.004 -0.0367,0.009 -0.0558,0.0117 z"
       id="path883"
       inkscape:connector-curvature="0" />
    <path
       style="fill:#000000;fill-opacity:1;stroke:none;stroke-width:0.31979278;stroke-opacity:1"
       d="m 61.286366,181.15909 c -1.30497,0.058 -2.32009,0.10576 0.30127,0.0131 0.16279,-0.006 -0.0398,-0.0102 -0.30127,-0.0131 z"
       id="path881"
       inkscape:connector-curvature="0" />
    <path
       style="fill:#000000;fill-opacity:1;stroke:none;stroke-width:0.31979278;stroke-opacity:1"
       d="m 17.000146,171.45723 c 0.206489,0.0256 0.41315,0.0514 0.6196,0.0762 -0.229582,-0.0539 -0.468542,-0.11862 -0.6196,-0.0762 z"
       id="path879"
       inkscape:connector-curvature="0" />
    <path
       style="fill:#000000;fill-opacity:1;stroke:none;stroke-width:0.31979278;stroke-opacity:1"
       d="m 17.619746,171.53348 c 0.14593,0.0345 0.286054,0.0617 0.393775,0.0491 -0.131202,-0.0155 -0.262558,-0.0333 -0.393775,-0.0491 z"
       id="path877"
       inkscape:connector-curvature="0" />
    <path
       style="fill:#000000;fill-opacity:1;stroke:none;stroke-width:0.31979278;stroke-opacity:1"
       d="m 94.189779,181.66386 c 0.21529,0.004 0.39493,0.0151 0.56741,0.0286 -0.43038,0 -0.86061,-5e-5 -1.29088,-0.0131 -0.24109,-0.009 0.48236,-0.0193 0.72347,-0.0151 z"
       id="path875"
       inkscape:connector-curvature="0" />
    <path
       style="fill:#000000;fill-opacity:1;stroke:none;stroke-width:0.31979278;stroke-opacity:1"
       d="m 77.66776,182.58865 c 0.223877,-0.004 0.372978,-0.004 0.223758,0 -0.543832,0.009 -0.659998,0.017 -0.936892,0.0256 0.01497,0 0.02667,-0.004 0.04186,-0.004 0.148976,-0.0131 0.4474,-0.0186 0.671277,-0.0212 z"
       id="path988"
       inkscape:connector-curvature="0" />
    <path
       style="fill:#000000;fill-opacity:1;stroke:none;stroke-width:0.26458332;stroke-opacity:1"
       d="m 151.09538,-590.92083 c -0.73116,0 -1.46493,0.0212 -2.20142,0.0692 4.41105,0.10295 -1.04085,0.14142 -1.86138,0.16952 -2.31823,-0.10054 -4.63969,-0.0626 -6.95875,-0.018 -0.83582,0.0193 -1.67154,0.041 -2.50734,0.061 -0.28292,0.007 -1.13156,0.005 -0.84904,0.0217 0.58748,0.0346 1.17832,-0.0103 1.76526,0.0325 0.285,0.0206 -0.57074,0.0222 -0.85627,0.0336 -2.36977,0.0709 -4.74616,0.0785 -7.1143,-0.0398 -1.98367,-0.0809 -3.96821,-0.18844 -5.95416,-0.12041 0.54184,0.018 1.08914,-0.023 1.62574,0.0543 0.321,0.0462 -0.6485,0.0266 -0.97255,0.0398 -0.84929,0.0346 -1.69356,0.0489 -2.54351,0.0449 -0.27237,0 -0.54463,-0.003 -0.817,-0.004 -2.55808,-0.0122 -5.11783,-0.0698 -7.67499,0.0279 -0.99709,0.051 -0.56294,0.023 -1.52652,0.094 -0.21558,0.0159 -0.86213,0.0331 -0.64647,0.0481 0.52691,0.0365 0.91835,0.0596 1.24075,0.0765 -0.0844,0.006 -0.17117,0.0116 -0.24598,0.0238 -0.66498,0.0111 -1.31185,-0.112 -1.97352,-0.13126 -1.05385,-0.0307 -2.1084,-0.035 -3.1626,-0.0491 -0.23799,-0.003 -0.47564,-0.003 -0.71366,-0.003 -1.61145,0.038 -3.21948,0.113 -4.82038,0.31469 -1.55115,0.18296 -3.104281,0.33804 -4.668965,0.32145 -0.954934,-0.0236 -1.909894,-0.043 -2.864964,-0.061 -0.36358,-0.007 -1.45327,0.009 -1.09089,-0.0217 0.33304,-0.028 3.389717,-0.01 0.29766,-0.0217 -3.53436,-0.006 -7.070704,-0.0438 -10.603522,0.0775 -0.421447,0.007 -1.934017,0.034 -2.453597,0.0393 0.02349,-0.007 0.0476,-0.0103 0.0708,-0.0185 0.82895,-0.29787 -3.554381,0.24569 -2.642217,-0.0537 -2.93058,-0.0918 -5.86034,-0.22054 -8.792744,-0.23617 -3.670998,-0.013 -7.341907,-0.0403 -11.012765,-0.0817 -1.564323,-0.0143 -3.125277,-0.01 -4.689121,0.0393 -0.521559,0.0164 -1.077248,-0.12801 -1.564245,0.0594 -0.371052,0.14279 1.488265,-0.1777 1.189593,0.0847 -0.358384,0.31488 -0.950444,0.0815 -1.425752,0.12247 -1.989852,0.12907 -3.992859,0.32026 -5.982581,0.0822 -1.923259,-0.27484 -3.837406,-0.65013 -5.786729,-0.68934 -2.357085,-0.11369 -4.713864,-0.11523 -7.072953,-0.13851 -3.328273,-0.0722 -6.665221,-0.25072 -9.980785,0.15089 -2.277122,0.17034 -4.833065,0.31134 -7.095691,0.0124 -0.261628,-0.0344 0.527532,-0.0233 0.791166,-0.0351 -4.449709,-0.0911 -8.9411018,-0.33507 -13.3655953,0.24598 v 0 c -5.5678498,-2.5038 -9.1087194,5.37065 -3.54087095,7.87445 4.19094595,2.45243 9.14498785,2.78321 13.88804625,2.87425 4.431687,0.52647 8.557038,-0.74141 12.828157,-1.51257 -1.250977,-0.0885 4.02197,-0.20627 2.76934,-0.0254 -0.487339,0.0704 -0.995279,-0.0796 -1.476912,0.0228 -0.360977,0.0767 0.736967,0.0344 1.105359,0.0563 0.395816,0.0236 0.791392,0.0534 1.187007,0.0801 2.441578,0.19373 4.887299,0.19942 7.333919,0.14933 1.651926,-0.0352 3.299397,-0.0439 4.941819,0.14936 2.214155,0.36632 4.427725,0.71477 6.662642,0.92501 4.027879,0.2867 8.088905,0.25053 12.125873,0.11988 -0.438669,-0.86936 3.154529,0.76767 2.757971,-0.062 -0.0048,-0.01 -0.01156,-0.0169 -0.01704,-0.0259 1.001567,0 1.59366,0.018 2.609144,0.0408 2.88776,0.11465 5.773753,0.25125 8.663553,0.30282 3.59142,0.0331 7.183088,-0.0614 10.77453,-0.0842 0.434057,0.006 0.868194,0.0132 1.302254,0.0175 0.438397,0.005 0.876747,0.006 1.315167,0.009 0.43631,0.003 1.74522,-0.003 1.30897,0.006 -3.671021,0.0677 0.59074,0.0122 1.12449,0.0151 3.1914,0.0854 6.374714,0.009 9.537949,-0.41444 1.61179,-0.22506 3.22058,-0.42529 4.84623,-0.50695 1.44864,-0.0951 2.89131,-0.29178 4.34133,-0.3607 1.34637,-0.0342 -0.10501,0.009 -1.58595,-0.0445 -0.14906,-0.005 0.29793,-0.022 0.447,-0.0268 0.4801,-0.0156 0.95528,-0.003 1.43403,0.032 2.18585,0.11851 4.37622,0.15647 6.56497,0.23566 0.84241,0.0212 1.68483,0.0317 2.52749,0.0341 0.28256,0 1.12998,0.006 0.8475,0 -1.1303,-0.0251 -2.81715,-0.0201 -0.97617,-0.0222 2.66877,0.003 5.33408,0.10666 8.00313,0.14574 1.9652,0.0674 3.92837,-0.0425 5.89111,-0.12507 0.25764,-0.0151 1.03052,-0.0269 0.77308,-0.045 -0.61301,-0.043 -1.22924,-0.006 -1.8433,-0.03 -0.23991,-0.009 0.47978,-0.0114 0.71986,-0.0135 0.75339,-0.007 1.50538,0.0271 2.25826,0.0501 2.75935,0.17415 5.51367,0.0701 8.25324,-0.25374 0.47233,-0.0582 0.94565,-0.11393 1.42058,-0.1452 2.27553,0.17761 4.54467,0.22344 6.83111,0.24752 -0.57153,0.0127 -1.14363,0.0103 -1.71462,0.0383 -0.30099,0.0148 0.60298,0 0.90434,0.003 1.07664,0.003 2.14738,0.0274 3.2215,0.10181 0.97061,0.11147 1.9387,0.23876 2.90577,0.37621 0.0114,-1.76215 0.006,-3.52433 0.003,-5.28651 2.7e-4,-1.68947 8e-4,-3.37894 0.001,-5.06844 -1.91357,-0.30025 -3.83059,-0.47244 -5.76398,-0.47593 z"
       id="path938"
       inkscape:connector-curvature="0" />
    <path
       style="fill:#000000;fill-opacity:1;stroke:none;stroke-width:0.26458332;stroke-opacity:1"
       d="m 79.760139,-589.84855 c 0.123984,0 0.249264,0.0114 0.374653,0.0238 -0.43493,0.0101 -0.815068,0.0169 -0.553972,-0.0135 0.05932,-0.007 0.119113,-0.01 0.179319,-0.0103 z"
       id="path936"
       inkscape:connector-curvature="0" />
    <path
       style="fill:#000000;fill-opacity:1;stroke:none;stroke-width:0.26458332;stroke-opacity:1"
       d="m 114.71513,-587.54512 c -0.0558,0.0415 -0.11106,0.0838 -0.1664,0.1261 -0.16561,0.2177 -0.33776,0.42984 -0.5178,0.63561 0.22257,-0.2466 0.44074,-0.48723 0.6842,-0.76171 z"
       id="path933"
       inkscape:connector-curvature="0" />
    <path
       style="fill:#000000;fill-opacity:1;stroke:none;stroke-width:0.26458332;stroke-opacity:1"
       d="m 102.43577,-580.55123 c -0.0994,0.0337 -0.1146,0.0386 -0.1943,0.0656 0.004,2.4e-4 0.0112,0 0.0155,0 0.0581,-0.0193 0.12567,-0.0408 0.18656,-0.061 -0.003,-0.003 -0.005,-0.004 -0.008,-0.006 z"
       id="path931"
       inkscape:connector-curvature="0" />
    <path
       style="fill:#000000;fill-opacity:1;stroke:none;stroke-width:0.26458332;stroke-opacity:1"
       d="m 96.033601,-579.0521 c -1.43701,0.1175 -2.93614,0.46736 -4.53409,1.10794 0.8683,0 1.73659,-0.014 2.60449,-0.0357 0.76017,-0.41661 1.3946,-0.7738 1.9296,-1.07228 z"
       id="path929"
       inkscape:connector-curvature="0" />
    <path
       style="fill:#000000;fill-opacity:1;stroke:none;stroke-width:0.26458332;stroke-opacity:1"
       d="m 62.914137,-579.73909 c 0.139811,0.003 0.339836,0.0167 0.538985,0.031 -0.235789,0.0653 -0.480896,0.12962 -0.663009,0.0501 -0.150664,-0.0658 -0.06497,-0.0839 0.124024,-0.0812 z"
       id="path993"
       inkscape:connector-curvature="0" />
    <path
       style="fill:#000000;fill-opacity:1;stroke:none;stroke-width:0.99999994;stroke-opacity:1"
       d="m 17.365234,429.98242 c -5.520994,0 -11.0410152,3.90308 -11.0410152,11.71094 -5.47772131,13.48728 -4.493958,28.04647 -3.3515626,42.21875 0.8734615,5.46962 -0.421087,10.44381 -2.22656245,15.54492 -2.92714565,8.68849 -4.01145045,17.65771 -4.27343755,26.77344 -0.5366542,8.45473 -0.5859266,16.94217 -1.2851562,25.38476 -1.0197846,8.5832 -1.7760476,17.20507 -2.3164062,25.83204 -0.5813458,7.71235 0.2251686,15.42901 0.3242187,23.14257 -0.2838047,7.32382 0.325506,14.60045 0.9101563,21.89063 0.2088857,7.79713 -0.1826603,15.61837 -0.5820313,23.4082 -0.3509511,10.42564 0.2759303,20.84265 1.3378906,31.20899 1.0603348,10.81296 3.9386832,21.29788 6.4863281,31.82031 2.2163339,8.20055 3.0411341,16.60727 3.0878907,25.07031 -0.3598968,8.28083 -0.8360412,16.54635 -1.0644531,24.83399 -0.3600318,7.32498 -0.8914685,14.63033 -1.71875,21.91601 -1.35899873,6.96658 -1.6151157,14.0821 -2.12500005,21.14649 -0.77339645,7.02153 -0.78836925,14.09146 -1.10742185,21.14062 -0.3125205,8.90313 -0.6264396,17.80694 -0.9101563,26.71094 -0.2066423,9.68821 0.070812,19.3764 0.2519532,29.0625 0.00303,9.43857 0.1348096,18.87141 0.3125,28.30859 0.3624952,10.68276 1.94606679,21.2623 3.1230468,31.8711 1.0547207,8.08667 2.2150312,16.12195 2.5664063,24.27734 0.2018536,9.31071 0.2484988,18.62029 -0.013672,27.92969 -0.1346925,9.71735 0.1906264,19.43245 0.3847656,29.14645 0.3043359,8.5048 0.2090852,17.0022 -0.1445312,25.502 -0.3020767,10.5272 -1.0665861,20.9893 -2.5898438,31.4101 -2.02875172,12.3665 -3.2826348,24.8176 -4.1582031,37.3125 -0.6006722,13.9844 -0.1757206,27.9919 0.095703,41.9805 0.3156169,13.1127 0.5128384,26.2276 0.640625,39.3438 -0.06247,12.79 -0.3256633,25.5742 -0.2851562,38.3652 -0.011383,12.3584 -1.4263895,24.6469 -1.8574219,36.9883 -0.4880341,10.7458 -0.8369988,21.5033 -1.8808594,32.2129 -1.2238856,7.7019 -2.7945249,15.3337 -4.2499999,22.9922 11.15911894,-0.3772 21.64412,0.384 33.851563,0.9453 2.94573,0.1334 6.54064,0.3021 10.30664,0.4687 0.902454,-6.7467 1.801656,-13.4946 2.652344,-20.248 1.512542,-11.3562 2.732909,-22.7473 3.585937,-34.1739 1.09225,-12.8332 1.932984,-25.6891 2.369141,-38.5625 0.441902,-12.856 -0.154876,-25.7058 0.179688,-38.5644 0.437026,-13.5818 0.981202,-27.1735 0.664062,-40.7637 -0.417298,-13.0332 -1.414899,-26.0392 -1.576172,-39.0801 0.309948,-11.737 2.633415,-23.2299 4.154297,-34.8496 1.103528,-11.9517 1.875872,-23.9455 0.726563,-35.9336 -0.416996,-8.3269 -0.678302,-16.6595 -0.246094,-24.9941 0.405135,-9.9269 1.183553,-19.8468 1.033203,-29.78907 -0.413246,-10.104 -1.047134,-20.18563 -2.152344,-30.24023 -0.852809,-8.23333 -1.094727,-16.45523 -1.330078,-24.72461 -0.647902,-10.45463 -1.476553,-20.90656 -3.08789,-31.26367 -1.087628,-8.55364 -1.292863,-17.14159 -0.996094,-25.75782 0.243741,-9.76728 0.640227,-19.53884 0.402344,-29.31054 -0.343722,-8.90313 -0.853545,-17.79706 -1.494141,-26.6836 -0.378527,-6.36604 -0.02329,-12.70318 0.373047,-19.0625 0.285989,-6.73357 1.468934,-13.39143 1.644531,-20.13672 0.522214,-7.66673 1.098435,-15.32656 1.353516,-23.00781 0.754885,-8.86579 1.285875,-17.75299 1.705078,-26.64062 0.09038,-11.383 -1.062008,-22.68903 -4.00586,-33.71875 -2.548227,-8.68113 -5.099504,-17.44378 -6.142578,-26.45508 -0.892943,-9.56111 -0.90248,-19.15736 -1.43164,-28.74024 -0.845425,-8.61819 -1.01186,-17.29797 -2.453125,-25.85546 -0.865258,-6.4232 -1.297109,-12.88433 -1.439454,-19.36524 -0.224034,-7.0049 0.286106,-13.97932 0.490235,-20.97852 0.320035,-8.79193 0.575683,-17.58829 0.230469,-26.38476 -0.06871,-8.75471 -0.335241,-17.50567 -0.546875,-26.25781 -0.205291,-7.44862 -0.572686,-14.89684 -0.503907,-22.34961 0.329568,-6.51719 1.754186,-12.81589 3.105469,-19.18946 2.085355,-14.40895 2.771095,-29.27171 -2.71875,-43.07617 v -0.002 c 0,-7.80786 -5.521974,-11.71094 -11.042969,-11.71094 z"
       transform="matrix(0.26458333,0,0,0.26458333,0,-655.10834)"
       id="path949"
       inkscape:connector-curvature="0" />
    <path
       style="fill:#000000;fill-opacity:1;stroke:none;stroke-width:0.99999994;stroke-opacity:1"
       d="m 864.51367,491.53125 c -6.86394,0.2864 -13.55918,4.90136 -14.82226,14.5332 -8.33881,16.63302 -8.46922,35.65121 -7.84571,53.84571 0.78633,11.42728 2.11286,22.80652 2.18164,34.26953 -0.23811,10.63748 -0.92032,21.26117 -1.4414,31.88867 -0.42546,10.62784 -1.38985,21.22239 -2.16016,31.82812 -0.70035,9.72771 -0.29391,19.46638 0.0273,29.19727 0.20561,8.14828 0.37709,16.29355 0.0547,24.43945 -0.28686,8.96644 -0.80292,17.89574 -2.0039,26.78711 -1.42802,7.24668 -3.69123,14.27409 -5.21094,21.49805 -1.51559,6.9922 -1.32662,14.1594 -1.91211,21.24609 -0.63046,5.74821 -1.15006,11.50317 -1.55274,17.27149 -0.52036,5.53054 -0.52943,11.08152 -1.05664,16.61328 -0.93199,6.64278 -1.71272,13.3109 -2.32421,19.99023 -0.78917,8.31799 -0.55946,16.66375 -0.26368,24.9961 0.41689,7.14368 0.251,14.29607 0.17579,21.44531 -0.24378,7.91637 0.23355,15.80782 1.17382,23.66406 0.98578,6.94798 2.09495,13.86594 3.55078,20.73047 1.09947,4.53725 1.64902,9.10456 1.375,13.75977 -0.61228,6.55638 -0.84797,13.09148 -0.33789,19.66015 0.62136,5.76862 0.75364,11.56462 1.47852,17.32031 0.46148,5.39082 1.45479,10.72593 1.58594,16.14063 0.096,5.31938 -0.18674,10.63055 -0.53907,15.93555 -0.21581,6.3008 -0.19085,12.5768 -0.92578,18.8477 -1.00146,7.4026 -2.62823,14.6671 -4.48047,21.8945 -2.52975,9.7109 -4.63784,19.5055 -6.33398,29.3945 -1.88194,9.8476 -1.61062,19.8508 -0.91016,29.793 0.58209,7.9499 0.60967,15.9283 0.50196,23.8945 -0.23018,8.9403 -0.4345,17.8805 -0.13867,26.8203 0.39809,9.2987 1.84358,18.5005 4.16992,27.502 1.8545,5.7231 2.20512,11.7428 3.21875,17.6328 1.44763,5.8607 2.33021,11.7626 2.77929,17.7734 0.50238,7.9168 1.21404,15.8183 2.08008,23.7032 0.87409,7.9131 2.21294,15.7608 3.35156,23.6367 1.17396,7.5434 0.70358,15.1901 0.42579,22.7812 -0.15891,4.2466 -0.27248,8.4939 -0.36524,12.7422 8.26893,-5e-4 16.53787,-3e-4 24.80664,0 h 3.80078 c 4.32005,-1.237 8.56297,-2.2489 12.76172,-3.0859 0.0786,-3.0195 0.15417,-6.038 0.24024,-9.0586 0.004,-9.2688 -0.42636,-18.5183 -1.91602,-27.6836 -0.89182,-7.7126 -1.78194,-15.4248 -2.72656,-23.1309 -0.89367,-7.8215 -1.9391,-15.6249 -2.87695,-23.4414 -0.85558,-6.6371 -2.17817,-13.1967 -3.69727,-19.7129 -1.06583,-6.4909 -1.15365,-13.099 -2.45313,-19.5625 -1.25162,-6.9246 -2.43926,-13.8598 -2.79492,-20.9023 -0.0952,-8.6534 0.36937,-17.3061 0.24805,-25.9609 -0.0786,-8.5871 -0.41279,-17.153 -1.16016,-25.711 -0.21203,-7.3932 0.33413,-14.7226 1.83203,-21.9844 1.70238,-9.4702 4.1249,-18.7826 5.82032,-28.2539 1.4942,-8.7241 2.73142,-17.482 3.5625,-26.2968 0.41348,-6.8694 0.45023,-13.748 0.26367,-20.627 -0.0654,-6.108 0.65875,-12.17592 0.54687,-18.28515 -0.32088,-6.25259 -0.98819,-12.42778 -2.43359,-18.5293 -0.48934,-5.1803 -0.0979,-10.41306 -0.52734,-15.60156 -0.22489,-5.47193 -0.68234,-10.92339 -0.0508,-16.39649 0.17613,-7.03857 0.15873,-14.0931 -1.32617,-21.01758 -0.98192,-6.08194 -2.32409,-12.10451 -2.83398,-18.25781 -0.60843,-6.66924 -0.9612,-13.33495 -0.68945,-20.03711 -0.0378,-7.39483 -0.26644,-14.788 -0.23243,-22.18359 -0.0151,-7.40307 0.019,-14.80807 0.21289,-22.20899 0.23698,-6.88943 0.24756,-13.78358 0.73047,-20.66406 -9.8e-4,-4.89362 -0.11225,-9.78123 0.67578,-14.63086 0.84492,-6.05552 1.55095,-12.12948 1.97071,-18.23047 0.3854,-5.24277 0.0884,-10.6084 1.28711,-15.74414 2.77115,-8.14828 6.54307,-16.00697 7.9082,-24.58593 1.59175,-10.54364 1.4781,-21.04428 0.74805,-31.66993 -0.30803,-8.30929 -0.2846,-16.6224 -0.44141,-24.93554 0.0435,-9.04505 0.49515,-18.07977 0.82813,-27.11719 0.25965,-10.78182 0.71774,-21.52845 1.46484,-32.28906 0.25247,-11.33322 -0.2124,-22.65363 -0.69531,-33.97656 -0.57748,-10.95425 -1.31768,-21.93686 -0.48047,-32.9004 1.10812,-16.65645 3.53335,-33.67512 0.29883,-50.20507 h -0.002 c 1.52697,-11.64386 -6.50603,-18.24991 -14.80273,-18.59766 -0.45754,-0.0192 -0.91545,-0.0191 -1.37305,0 z"
       transform="matrix(0.26458333,0,0,0.26458333,0,-655.10834)"
       id="path957"
       inkscape:connector-curvature="0" />
    <path
       style="fill:#000000;fill-opacity:1;stroke:none;stroke-width:0.31979278;stroke-opacity:1"
       d="m 222.99362,41.74414 c 0.0458,1.571417 0.16157,3.13683 0.3514,4.685823 -0.0167,0.284359 0.18203,0.905887 0.21963,0.968588 0.005,0.310947 0.0271,0.700605 0.0351,1.038008 0.004,0.167665 0.009,0.33511 0.0134,0.502789 0.44938,9.381856 9.3743,8.639397 9.26352,-0.436348 0.0252,0.399695 0.085,-0.433529 0.0951,-0.472563 0.0443,-0.855721 0.0581,-1.713297 0.10749,-2.568288 0.0489,-1.072456 0.14869,-2.133838 0.27595,-3.191057 -0.2714,0.08079 -0.5434,0.158168 -0.81339,0.246829 -3.26364,0.637233 -6.4773,0.509319 -9.54825,-0.773781 z"
       id="path1104"
       inkscape:connector-curvature="0" />
    <path
       style="fill:#000000;fill-opacity:1;stroke:none;stroke-width:0.31979278;stroke-opacity:1"
       id="path1128"
       d="m 223.68541,50.468765 c -1.24599,-5.067651 -1.22832,-10.626739 -0.83568,-15.925544 0.296,-2.602457 0.2548,-5.207106 0.0915,-7.82109 -0.32376,-2.679299 -0.52324,-5.384295 -0.62894,-8.100159 -0.15467,-2.553445 -0.0507,-5.124932 -0.20769,-7.6749 -0.26828,-3.1015353 0.001,-6.1201221 0.65187,-9.0804201 0.38038,-1.78806449 1.00117,-3.4360313 1.47404,-5.1681005 0.1215,-0.8268102 0.0721,-1.7185123 0.0703,-2.5693684 0.005,-1.3175466 -0.0359,-2.6316309 -0.0467,-3.9480818 -0.0201,-1.4219552 -0.021,-2.8441292 -0.0218,-4.2662742 -0.0359,-1.492793 -0.0359,-2.984739 0.007,-4.476845 0.0257,-1.134046 0.0813,-2.265595 0.0713,-3.400547 -0.0841,-1.240967 -0.0518,-2.483717 -0.0314,-3.727154 -0.16905,-1.629457 0.28757,0.803656 -0.33585,-1.053464 -0.48938,-1.345289 -0.92113,-2.730284 -1.31661,-4.139237 -0.54181,-1.966043 -0.63276,-4.079823 -0.89992,-6.135082 -0.15317,-1.449682 -0.54797,-2.805956 -0.8367,-4.207722 -0.53641,-2.479116 -0.77562,-5.069623 -1.01176,-7.638962 -0.26924,-2.529896 -0.34328,-5.098929 -0.43503,-7.653805 -0.11441,-2.565848 -0.0752,-5.140432 0.0518,-7.703153 0.11016,-1.875644 0.86722,-4.068852 2.19479,-4.720139 0.72887,-0.357519 1.53142,-0.203339 2.29713,-0.30503 1.10658,-3.177179 4.18227,-0.890972 3.07569,2.286149 v 0 c 0.58264,0.324606 1.14178,0.759873 1.74791,0.973774 1.38645,0.489261 1.56286,-1.000099 1.66453,2.092277 0.0379,2.204617 -0.003,4.409527 0.0269,6.614364 0.0995,2.399382 0.27102,4.790801 0.32076,7.194463 0.0436,1.873628 0.13767,3.746452 0.36667,5.593404 0.22309,1.619261 0.5763,3.192489 0.85096,4.793854 0.20824,1.363345 0.34089,2.737033 0.52322,4.102891 0.33443,1.336903 0.7412,2.62735 1.11482,3.94142 0.49897,1.915599 0.89852,3.883233 0.82775,5.961106 0.0208,1.248885 0.0532,2.497128 -0.0326,3.743428 -0.0115,1.121381 0.0417,2.239387 0.0712,3.359686 0.048,1.515217 0.0541,3.030931 0.0159,4.547186 -0.007,1.407112 -0.0257,2.813626 -0.0617,4.2198915 -0.0114,1.2203255 -0.007,2.426685 0.0627,3.6462362 0.0574,2.0837159 0.0572,4.1995564 -0.215,6.25206809 -0.31533,2.09356221 -0.76924,4.11465051 -1.4216,6.04062131 -0.40204,1.4027593 -0.43812,2.7393118 -0.32599,4.2821249 0.003,2.436751 0.0289,4.879695 0.16335,7.308864 0.17518,3.00313 0.14787,6.006992 0.0241,9.014636 -0.16331,2.613984 -0.20451,5.218633 0.0915,7.82109 0.39264,5.298805 0.41031,10.857893 -0.83568,15.925544 0,8.632487 -8.35676,8.632487 -8.35676,0 z"
       inkscape:connector-curvature="0" />
    <path
       style="fill:#000000;fill-opacity:1;stroke:none;stroke-width:0.31979278;stroke-opacity:1"
       d="m -1.6655314,-314.20821 c -0.1543383,3.0141 -0.32326,6.02616 -0.4883422,9.03953 -0.2771852,3.47828 -0.3749466,6.96486 -0.3607015,10.46401 0.070306,2.59257 0.2751849,5.17357 0.2940389,7.76895 -0.073903,2.97913 -0.2784748,5.93896 -0.3054078,8.92326 0.094779,2.94454 0.1858833,5.87341 0.1421101,8.82129 -0.0733,3.71151 0.1733357,7.39855 0.480591,11.07631 0.4288715,2.83975 0.4122837,5.69847 0.2986897,8.57899 -0.179947,3.10976 -0.0865,6.22259 0.045475,9.33016 0.1179828,2.44657 0.031884,4.89454 -0.00827,7.34164 0.1016049,2.44732 -0.3138487,4.78651 -0.6418211,7.15821 -0.3656468,2.84132 -0.6876463,5.69039 -0.9554975,8.55483 -0.3708818,2.76703 -0.6450211,5.54807 -0.8686808,8.34799 -0.2475457,3.04418 -0.3706092,6.08839 -0.2263425,9.14822 0.1131723,2.06743 0.2133608,4.13394 0.2170408,6.20852 -0.044911,2.13955 -0.083755,4.27827 -0.082166,6.41986 0.054619,2.75239 0.4103015,5.45961 0.747758,8.16005 0.359674,2.09328 0.5210487,4.23832 0.6635255,6.38137 0.074708,2.62568 0.2810314,5.23201 0.5239988,7.83388 0.179637,2.69596 0.5705856,5.34456 0.8583456,8.01733 0.2384434,2.87303 0.2297134,5.7726 0.3017904,8.66054 0.092214,3.38011 0.51650857,6.70898 0.89348544,10.03827 0.30045712,2.43231 0.25560402,4.89712 0.20257162,7.35369 -0.13436872,3.00623 -0.14451252,6.01785 -0.1245402,9.02894 0.04806,2.3736 0.1743825,4.74093 0.2222086,7.11445 0.1479603,1.51356 -0.1431969,2.95907 -0.29455562,4.44049 -0.2149045,2.11297 -0.1012074,4.24611 0.00362,6.36403 0.10775262,1.48056 0.023094,2.95712 -0.065112,4.432942 -0.1532239,2.513242 -0.183114,5.042188 -0.171049,7.564356 0.092847,2.451958 0.1357231,4.902923 0.2790527,7.349972 0.31446372,2.83402 0.47356172,5.688595 0.59634609,8.552534 0.116917,2.887517 0.3414329,5.764107 0.70693357,8.606936 0.2817301,2.115169 0.3281741,4.277217 0.4671549,6.419134 0.3257814,2.284308 0.263309,4.620916 0.296106,6.938547 0.080487,2.529209 0.1722155,5.062859 0.3622518,7.580206 0.1653307,1.732434 0.2745427,3.473108 0.3906738,5.213533 0.059921,1.507402 -0.00777,3.022488 -0.041858,4.531087 -0.058575,1.898098 -0.015416,3.79396 0.035657,5.690626 -0.010188,0.766476 0.2347307,1.698381 -0.1240235,2.345562 -0.4077211,1.364047 -0.6994957,2.819573 -1.0299113,4.234399 -0.385327,1.805288 -0.5009661,3.690398 -0.87384847,5.499645 -0.39348297,2.039715 -0.52709167,4.138697 -0.60874837,6.244749 -0.25390272,1.951726 -0.45851912,3.8962065 -0.53691812,5.889246 -0.023136,2.152523 -0.018931,4.3191873 0.243396,6.44255128 0.1274418,0.9388635 0.1394881,1.89055932 0.14882812,2.84384012 -0.047088,1.4041588 0.04616,2.8069269 0.3271118,4.1520635 0.06266,0.3135471 0.1254418,0.6270942 0.1881022,0.9406414 -0.0028,3.097e-4 -0.00591,3.476e-4 -0.00672,0.015076 -0.00562,0.1025386 0.060814,0.8547552 0.074931,1.0221581 0.030445,1.8412786 0.51343714,3.5552356 1.12137874,5.1357656 0.00136,0.0038 0.00175,0.0047 0.0031,0.0085 0.011015,0.161529 0.050058,0.470283 0.1121378,0.990465 0.2025699,1.385452 0.427785,2.899924 1.0226767,4.053965 0.017718,0.267358 0.036416,0.526056 0.057878,0.73532 0.1070019,2.861156 1.3152699,4.26605 2.8106811,5.812914 0.00447,4.231301 4.099828,4.222527 4.095358,-0.0082 1.4078546,-1.401646 2.6443736,-2.67319 2.8943976,-5.304867 0.361423,-1.931492 0.457926,-3.897693 0.152445,-5.87785 0.266537,-0.808102 -0.07979,-1.718788 -0.160714,-2.570529 C 12.319438,10.358434 12.0194,8.9255951 11.539864,7.5412647 11.487724,7.306761 11.436128,7.0060462 11.445814,6.7447954 11.393154,6.3329169 10.834869,2.7232595 10.98331,4.0210098 10.96659,3.8164233 10.96063,3.7950872 10.95385,3.7582908 c 0.0025,-0.1068337 0.004,-0.2733498 -5.29e-4,-0.6824453 0.05157,-1.2148399 0.09506,-2.42983465 0.167949,-3.642511 0.12575,-1.8230378 0.0521,-3.6411378 0.03307,-5.4702528 -0.003,-1.553945 0.01722,-3.1120973 0.253215,-4.6352327 0.30268,-1.686139 0.560608,-3.389634 0.640787,-5.134296 0.111601,-1.26196 0.226284,-2.483673 0.603581,-3.644059 0.43186,-1.754684 0.825666,-3.534275 1.149801,-5.338059 0.247913,-1.966364 0.415734,-3.939988 0.443384,-5.941282 0.05963,-1.83135 0.149645,-3.660406 0.152445,-5.495116 4.23e-4,-2.098544 -0.04034,-4.194809 -0.267684,-6.271951 -0.1185,-1.382935 -0.07878,-2.780713 -0.04444,-4.170967 0.148022,-2.694054 0.140529,-5.407567 -0.0677,-8.095091 -0.223121,-2.631762 -0.323544,-5.277227 -0.51263,-7.913898 -0.264577,-2.097653 -0.54821,-4.192179 -0.60203,-6.330035 -0.09775,-2.689701 0.088,-5.380395 -0.06046,-8.070942 -0.224709,-3.027367 -0.528613,-6.047605 -1.246435,-8.922486 -0.271763,-1.83788 0.04001,-3.760827 0.02377,-5.618925 0.01601,-2.491373 0.0028,-4.987449 -0.101803,-7.474527 -0.07885,-1.791775 -0.144009,-3.584425 -0.209289,-5.377345 -0.03441,-1.16896 0.01307,-2.32096 0.135909,-3.47944 0.206781,-2.18706 0.415059,-4.37875 0.453719,-6.58901 0.02191,-2.33219 0.07208,-4.66344 0.109037,-6.99517 0.02599,-2.8605 0.127206,-5.71625 0.192236,-8.57519 0.07342,-3.38699 0.03992,-6.7873 -0.375687,-10.13261 -0.293693,-2.9021 -0.344148,-5.83952 -0.473356,-8.76398 -0.230275,-3.32031 -0.45957,-6.64112 -0.806153,-9.94086 -0.292427,-2.65279 -0.5835856,-5.30525 -0.8645476,-7.96071 -0.2799344,-2.2816 -0.5065194,-4.56401 -0.4816244,-6.89022 -0.156781,-2.67977 -0.4977778,-5.32713 -0.815971,-7.97431 -0.255189,-1.70244 -0.6521701,-3.3975 -0.6273519,-5.15916 0.021577,-2.23452 0.015885,-4.46683 -0.040825,-6.69997 -0.029901,-1.99215 -0.069506,-3.9878 0.028939,-5.97749 0.1628818,-2.53571 0.2224408,-5.0808 0.306958,-7.62401 0.1649177,-2.59414 0.5587508,-5.13206 0.7896159,-7.7146 0.298862,-2.66334 0.6662524,-5.30116 1.0846894,-7.93053 0.4066456,-3.32107 0.7809326,-6.67249 0.6511226,-10.06091 -0.05441,-2.42257 -0.197758,-4.84436 -0.12609,-7.26995 0.143659,-2.94834 0.366708,-5.89114 0.362768,-8.85151 0.02189,-3.66802 0.01159,-7.34366 -0.249597,-10.99627 -0.277155,-3.04571 -0.6052206,-6.08676 -0.7281206,-9.15652 -0.0495,-2.92328 0.03406,-5.82644 0.144177,-8.7458 -0.01332,-3.04933 -0.197437,-6.07653 -0.274402,-9.12105 -0.0162,-2.52613 0.06858,-5.04949 0.142627,-7.57268 0.03138,-3.32714 0.06481,-6.65291 0.08423,-9.98013 -0.02575,-2.7116 -0.0099,-5.42944 0.2278926,-8.12299 0.06153,-0.48292 0.120643,-0.96624 0.180868,-1.44947 -0.243911,-4e-5 -0.4878266,0 -0.7317386,0 -3.7579446,0 -7.5158323,0 -11.2737306,-0.004 z"
       id="path1144"
       inkscape:connector-curvature="0" />
    <path
       style="fill:#000000;fill-opacity:1;stroke:none;stroke-width:0.31979278;stroke-opacity:1"
       d="m 219.61709,-309.7911 c 0.0266,0.7968 0.0642,1.59316 0.108,2.38781 0.16586,1.95338 0.15209,3.91085 0.12919,5.87259 -0.10415,1.91411 -0.18168,3.82283 -0.19068,5.74423 0.0288,1.84955 -0.14284,3.68191 -0.24857,5.52151 -0.1342,2.34508 -0.0779,4.69966 -0.0444,7.04879 0.0428,2.16944 0.0256,4.33933 -0.0202,6.50823 -0.0327,2.30399 0.0226,4.60626 -10e-4,6.9106 0.0418,2.32269 -0.25375,4.60854 -0.45992,6.90078 -0.31871,3.60745 -0.31926,7.24506 -0.24546,10.87319 0.0349,2.94483 0.27844,5.88833 0.20154,8.83416 -0.016,2.31538 -0.40571,4.5837 -0.73071,6.8389 -0.32128,2.63377 -0.53557,5.2913 -0.93121,7.90481 -0.54821,2.96436 -0.83893,5.99643 -1.06556,9.04254 -0.2135,2.90523 -0.0768,5.82161 0.12143,8.71791 0.1822,1.96763 0.0497,3.92947 -0.10283,5.88689 -0.21787,2.56183 -0.17353,5.14489 -0.12092,7.71839 0.0854,2.01951 0.0992,4.04067 0.11575,6.0628 -0.0868,2.36815 0.0136,4.71929 0.2527,7.06161 0.29149,1.93363 0.4722,3.89198 0.64957,5.85293 0.0855,2.12595 0.41433,4.19856 0.67128,6.28705 0.20033,1.85188 0.46711,3.69049 0.6444,5.54719 0.21688,1.93095 0.0941,3.88795 0.12041,5.83332 0.0264,2.48328 0.34646,4.92162 0.78083,7.31374 0.31121,1.50264 0.36776,3.07428 0.41806,4.63224 -0.0804,2.22649 0.0676,4.42661 0.34727,6.61239 0.20578,1.60125 0.59499,3.15051 0.68109,4.78094 -0.0402,1.89942 -0.16941,3.79136 -0.23771,5.68915 -0.10615,2.50119 -0.031,5.00666 -0.004,7.50924 0.006,2.39273 0.0124,4.78469 -0.0258,7.17711 -0.10468,2.34933 0.016,4.68728 0.17518,7.02231 0.0931,1.61508 0.0127,3.2304 -0.0103,4.84591 -0.0202,1.82987 -0.0149,3.66056 0.10852,5.482242 0.0502,1.07066 0.24197,2.095915 0.49454,3.096744 0.0172,0.06808 0.074,0.235653 0.0853,0.251387 -0.0109,1.667031 0.2221,3.290777 0.55966,4.874553 -0.0456,-0.318222 0.14707,0.355328 0.34881,1.037278 -0.055,0.985432 -0.10031,2.140062 -0.10025,2.335716 0.0428,0.959764 0.14973,1.914752 0.35295,2.831011 0.004,0.01899 0.0527,0.32259 0.11214,0.492197 -0.11554,0.765541 -0.26427,2.056442 -0.27544,2.156059 -0.2035,2.627073 -0.13847,5.252524 0.19121,7.847487 0.24367,1.058957 0.3471,2.187409 0.50229,3.263531 -0.0816,0.232411 -0.0525,0.554884 -0.0124,0.810799 0.0724,0.529581 -0.008,1.128262 -0.0527,1.66912 -0.12346,1.110015 -0.19101,2.229424 -0.16071,3.353405 0.0131,0.848679 0.0686,1.69543 0.19327,2.52449 -0.0123,0.742781 -0.10997,1.478637 -0.16537,2.217211 -0.0596,1.047942 -0.0816,2.140953 0.13643,3.155602 0.0314,0.528032 -0.002,1.058373 -5.3e-4,1.588348 -0.0254,0.856379 -0.11175,1.704751 -0.16795,2.558456 -0.17128,2.068757 -0.30329,4.143999 -0.39119,6.22437 -0.005,0.576081 -0.25477,4.20502 0.006,4.301569 0.98367,-2.187715 0.87723,-2.014777 2.01951,-1.224503 -0.24519,0.720327 -0.35386,1.611182 -0.25476,2.659635 -6.12639,1.812052 6.52313,7.448436 7.58817,2.507092 0.91372,-2.545396 1.25069,-5.378306 1.21439,-8.243793 -0.0879,-2.080414 -0.21997,-4.155613 -0.39119,-6.22437 -0.0562,-0.854055 -0.14235,-1.702516 -0.16795,-2.559201 0.001,-0.527988 -0.0324,-1.057058 -0.001,-1.583075 0.21798,-1.019075 0.19713,-2.114788 0.13643,-3.166938 -0.0547,-0.724184 -0.15041,-1.445753 -0.16691,-2.173414 0.13405,-0.84193 0.18603,-1.706343 0.20154,-2.569792 0.0292,-1.156792 -0.0348,-2.313379 -0.18553,-3.450756 -0.0542,-0.41185 -0.10076,-0.447524 -0.002,-0.873471 0.12777,-1.130306 0.0842,-2.274608 -0.0563,-3.400167 -0.19335,-1.341928 0.0655,0.325614 0.231,-1.841269 0.1398,-2.367841 0.10318,-4.758019 -0.32557,-7.06687 -0.13319,-1.177931 -0.3237,-2.248444 -0.18396,-3.462853 0.006,-1.062201 0.0356,-2.149689 -0.14728,-3.186529 -0.0376,-0.309573 0.0581,-0.862572 -0.154,-0.915762 -0.0658,-0.01665 -0.0243,0.267062 -0.091,0.260488 -0.31608,-0.0317 0.5505,-2.461995 0.0114,-2.13118 -0.11323,-1.167792 -0.25439,-2.315337 -0.47026,-3.450012 -0.18936,-0.69574 -0.36042,-1.327597 -0.38912,-2.097199 -0.0737,-1.036344 -0.15783,-2.136425 -0.33642,-3.127666 0.0485,-1.58548 0.0616,-3.17385 0.0444,-4.76057 -0.0246,-1.60916 -0.11104,-3.21792 -0.0196,-4.82701 0.16362,-2.32701 0.29603,-4.65728 0.20413,-7.00042 -0.0304,-2.46659 -0.0286,-4.9342 -0.0858,-7.39978 -0.0235,-2.24434 0.005,-4.48896 0.0506,-6.73245 0.0728,-2.60741 0.16914,-5.22988 -0.0481,-7.8286 -0.19202,-1.87873 -0.49243,-3.71475 -0.84439,-5.54192 -0.25578,-1.59618 0.12666,-3.32756 -0.0651,-4.941 -0.0884,-2.30946 -0.28408,-4.61998 -0.7214,-6.84944 -0.22886,-1.56027 -0.36556,-3.12364 -0.33176,-4.7281 -0.0417,-2.40932 -0.0952,-4.81901 -0.38034,-7.19975 -0.18061,-1.98086 -0.45017,-3.93979 -0.64441,-5.91785 -0.20809,-1.95759 -0.41506,-3.91468 -0.57257,-5.88243 -0.18248,-2.03894 -0.35647,-4.08426 -0.68316,-6.08772 -0.18639,-1.76305 -0.1388,-3.51883 -0.1478,-5.30108 -0.003,-2.02314 -0.0685,-4.04542 -0.0455,-6.06888 0.0325,-2.26904 0.20908,-4.52338 0.27078,-6.79054 0.0494,-2.43408 -0.0428,-4.85457 -0.078,-7.28733 0.0253,-2.30086 0.0852,-4.60063 0.21394,-6.89475 0.15484,-2.60081 0.39079,-5.18089 0.79272,-7.72818 0.36111,-2.69766 0.73938,-5.39134 0.98908,-8.1177 0.33505,-2.88273 0.65941,-5.77435 0.82062,-8.69074 0.0923,-3.21447 0.16081,-6.43181 0.12661,-9.6495 -0.0356,-3.12785 -0.15403,-6.25378 -0.11214,-9.38221 0.0951,-2.69437 0.31238,-5.38325 0.25529,-8.08529 -0.0231,-2.29462 0.0414,-4.58597 0.0217,-6.8804 -0.0382,-2.23595 -0.0551,-4.47249 -0.0631,-6.70903 -0.009,-2.11923 0.002,-4.23811 -0.0191,-6.35722 -0.004,-1.74139 8e-4,-3.48759 0.0403,-5.22636 0.22375,-2.14861 0.47619,-4.3008 0.38499,-6.48635 -0.004,-2.24682 -0.0851,-4.49271 -0.18397,-6.7347 -0.0158,-0.52977 -0.0179,-1.05571 -0.008,-1.58006 -3.32751,0 -6.65501,-0.007 -9.98234,-0.0221 z"
       id="path1148"
       inkscape:connector-curvature="0" />
  </g>
</svg>
