<?xml version="1.0" encoding="UTF-8" standalone="no"?>
<!-- Created with Inkscape (http://www.inkscape.org/) -->

<svg
   xmlns:dc="http://purl.org/dc/elements/1.1/"
   xmlns:cc="http://creativecommons.org/ns#"
   xmlns:rdf="http://www.w3.org/1999/02/22-rdf-syntax-ns#"
   xmlns:svg="http://www.w3.org/2000/svg"
   xmlns="http://www.w3.org/2000/svg"
   xmlns:sodipodi="http://sodipodi.sourceforge.net/DTD/sodipodi-0.dtd"
   xmlns:inkscape="http://www.inkscape.org/namespaces/inkscape"
   width="256"
   height="256"
   viewBox="0 0 67.733335 67.733335"
   version="1.1"
   id="svg8"
   inkscape:version="0.92.4 (5da689c313, 2019-01-14)"
   sodipodi:docname="elbow.svg"
   inkscape:export-filename="C:\Users\panu-\PycharmProjects\nextgame\data\images\bodies\camo\knee.png"
   inkscape:export-xdpi="10.173375"
   inkscape:export-ydpi="10.173375">
  <defs
     id="defs2" />
  <sodipodi:namedview
     id="base"
     pagecolor="#ffffff"
     bordercolor="#666666"
     borderopacity="1.0"
     inkscape:pageopacity="0.0"
     inkscape:pageshadow="2"
     inkscape:zoom="0.98963094"
     inkscape:cx="27.118562"
     inkscape:cy="180.66434"
     inkscape:document-units="mm"
     inkscape:current-layer="layer6"
     showgrid="false"
     units="px"
     width="1024px"
     inkscape:window-width="1920"
     inkscape:window-height="1017"
     inkscape:window-x="-8"
     inkscape:window-y="-8"
     inkscape:window-maximized="1"
     inkscape:pagecheckerboard="true"
     showguides="false" />
  <metadata
     id="metadata5">
    <rdf:RDF>
      <cc:Work
         rdf:about="">
        <dc:format>image/svg+xml</dc:format>
        <dc:type
           rdf:resource="http://purl.org/dc/dcmitype/StillImage" />
        <dc:title />
      </cc:Work>
    </rdf:RDF>
  </metadata>
  <g
     inkscape:groupmode="layer"
     id="layer6"
     inkscape:label="arm_color"
     transform="translate(0,-364.06667)">
    <path
       style="fill:#447821;fill-opacity:1;stroke:none;stroke-width:1.01047766;stroke-opacity:1"
       d="m 89.183999,13.351531 c -2.498626,1.223031 -4.777226,2.194838 -7.623976,2.711711 -10.995784,5.511211 -22.595777,11.246462 -30.985351,20.442438 -10.275314,14.671786 -20.180257,30.044039 -26.3711,46.9359 -4.600549,18.95473 -6.583571,38.82436 -4.847135,58.28602 2.674876,16.70387 10.152844,32.39095 18.745151,46.79576 11.414369,13.65055 24.992779,25.80108 41.236285,33.39776 11.113893,5.51484 21.846187,13.66359 34.886277,13.02686 11.65591,0.47082 23.45507,1.48983 35.03591,1.17244 11.61669,-6.91559 23.70355,-13.05365 36.13247,-18.35044 20.89594,-9.16744 37.32839,-26.46687 47.05036,-46.94379 6.05016,-9.93427 9.02198,-21.46396 7.96936,-33.08919 -1.21761,-19.38376 -0.0608,-39.69411 -7.15426,-58.110369 C 226.07388,66.187198 215.79317,54.542927 203.58112,45.469722 196.27339,39.072601 187.70837,34.242032 179.62176,28.891573 168.01024,21.702447 154.53314,18.295398 140.91524,18.659901 125.0523,17.679552 108.59554,18.456295 93.23183,16.232971 92.947624,14.344686 91.008865,13.143287 89.183999,13.351531 Z"
       id="path895"
       inkscape:connector-curvature="0"
       transform="matrix(0.26458333,0,0,0.26458333,0,364.06667)" />
    <path
       style="fill:#71c837;fill-opacity:1;stroke:none;stroke-width:0.26458332;stroke-opacity:1"
       id="path901"
       d="m 38.77524,369.20908 c -0.01521,2.4863 -0.919276,4.8973 -1.690814,7.2326 -0.478698,1.49472 -0.99105,2.99974 -1.182095,4.56563 -0.0847,0.69426 -0.07255,1.11071 -0.08221,1.80305 0.01524,1.31945 0.05401,2.25515 0.97118,3.24928 0.686498,0.65254 1.535797,0.76093 2.439767,0.79949 0.662009,-0.0546 1.380366,0.0491 2.032884,-0.10525 0.108802,-0.0257 -0.443807,-0.0165 -0.333563,-0.0352 0.167802,-0.0284 1.516118,-0.0753 1.676548,-0.0815 2.077104,-0.0885 4.156284,-0.11474 6.234936,-0.0793 1.35528,0.002 2.711791,0.0804 4.067183,0.0426 0.106269,-0.003 -0.212543,-0.006 -0.318813,-0.009 1.446382,0.0162 2.883937,-0.0513 4.313468,-0.2701 0.77911,-0.0833 1.544987,-0.33903 2.330479,-0.36474 0.169151,0.0817 0.170318,0.0698 0.274137,-0.0812 0.532167,-0.6858 1.302719,-0.98581 2.126256,-1.14969 0.902081,-0.1728 1.656474,0.0667 2.494248,0.25474 0.342617,0.0801 0.68068,0.18662 0.998251,0.33901 0.03637,0.0194 0.07273,0.0387 0.109093,0.0581 0.0092,0.004 0.0357,0.0178 0.02761,0.0119 -0.909679,-0.6654 -1.160899,1.93288 -1.702781,2.92113 -0.127614,0.23273 0.176027,-0.50082 0.264038,-0.75124 -0.983234,-0.36093 -0.4728,-1.75143 0.510434,-1.3905 v 0 c 0.264943,-0.22914 0.853464,-1.03277 0.794827,-0.68743 -0.928698,5.46956 -0.267517,3.04939 -1.779172,2.94327 -0.0705,0.0508 -0.543571,-0.0801 -0.656185,-0.0669 -0.236768,-0.0304 -0.107281,-0.009 -0.387308,-0.0714 -0.353475,-0.0541 -1.215599,0.17922 0.546132,-0.006 -0.105598,-0.11827 -0.352907,-0.10661 -0.488185,-0.0789 -0.305221,0.21047 -0.542711,0.47708 -0.782932,0.75644 -0.813199,0.70108 -1.791155,1.12871 -2.818852,1.42399 -1.645213,0.4391 -3.326431,0.71968 -5.036516,0.63361 -2.021212,-0.009 -4.042431,-0.023 -6.06353,-0.0469 -0.734433,-0.004 -2.190236,-0.0548 -3.74183,0.0559 -2.113589,0.11834 -4.258172,0.22198 -6.340901,-0.23324 -1.637734,-0.43475 -3.172986,-1.08418 -4.331372,-2.37378 -0.192426,-0.23875 -0.401148,-0.46523 -0.577276,-0.71625 -0.976495,-1.39166 -1.405405,-3.05498 -1.590931,-4.72328 -0.09171,-1.08105 -0.138301,-1.29238 -0.110699,-2.40251 0.04654,-1.87168 0.386807,-3.71949 0.879774,-5.52196 0.746924,-2.42526 1.567338,-4.91873 3.177463,-6.92486 0.76399,-2.64971 4.511244,-1.56927 3.747254,1.08044 z"
       inkscape:connector-curvature="0" />
    <path
       style="fill:#71c837;fill-opacity:1;stroke:none;stroke-width:0.26458332;stroke-opacity:1"
       id="path903"
       d="m 13.679824,420.94814 c -0.179952,-2.28024 0.695403,-4.28956 1.834634,-6.20663 0.843063,-1.28082 1.944544,-2.33515 3.314792,-3.02272 1.331443,-0.59634 2.826715,-0.38601 4.244688,-0.38552 1.355699,0.0742 2.740248,0.34397 3.896885,1.0956 0.260914,0.16955 0.494736,0.37753 0.742106,0.5663 1.441434,1.37901 1.910942,2.94193 2.211858,4.84897 0.157001,1.43299 0.158361,2.88128 0.07155,4.31901 -0.07737,0.90957 -0.126412,1.82265 -0.288456,2.72177 -0.136361,0.64624 -0.420249,1.24733 -0.57598,1.88764 -0.128757,0.59178 -0.203769,-0.60823 -0.565285,-0.6007 -0.919982,0.0192 -1.788091,0.43551 -2.682138,0.65327 -0.01539,0.0977 -0.02776,0.14005 -2.9e-5,0.25705 0.043,0.18139 -0.02028,0.48272 0.158238,0.53638 0.857713,0.2578 3.516903,0.15445 2.656464,0.40301 -0.0053,-0.0205 -0.01056,-0.041 -0.01585,-0.0615 -1.089173,2.00095 -3.918944,0.46063 -2.829771,-1.54033 v 0 c 0.0096,-0.0426 0.01923,-0.0851 0.02884,-0.12771 0.48579,-1.05368 1.247743,-0.52741 3.065187,-0.0928 0.289091,0.0691 0.223607,1.0651 0.19517,1.29032 -0.918999,0.31995 -1.788676,0.86351 -2.756998,0.95986 -0.26363,0.0262 -0.332923,-0.41381 -0.473388,-0.63844 -0.269323,-0.4307 -0.293652,-0.99893 -0.292034,-1.48631 0.08343,-0.70774 0.285548,-1.36072 0.57069,-2.01101 0.161303,-0.68809 -0.08421,-1.41934 -0.08167,-2.11335 -0.111014,-1.28546 -0.137613,-2.57511 -0.234887,-3.86139 -0.110907,-0.86093 -0.188345,-1.87299 -0.911201,-2.45653 -0.977448,-0.52542 -2.116281,-0.59838 -3.182776,-0.84427 -0.0559,-0.0117 -0.916963,-0.19284 -1.031918,-0.21356 -0.100758,-0.0181 -0.402054,-0.0144 -0.303999,-0.0438 0.387355,-0.11631 1.035883,-0.0599 0.558698,-0.13915 -0.724201,0.35195 -1.007961,1.17925 -1.346472,1.85499 -0.730975,1.72098 -1.375464,3.50463 -2.368503,5.0946 -0.454694,2.55156 -4.063154,1.90853 -3.60846,-0.64304 z"
       inkscape:connector-curvature="0" />
    <path
       style="fill:#c87137;fill-opacity:1;stroke:none;stroke-width:0.26458332;stroke-opacity:1"
       id="path905"
       d="m 41.069561,388.12852 c -0.176604,0.0863 -0.34721,0.18611 -0.529809,0.25885 -0.371743,0.14808 -1.490467,0.48537 -1.815206,0.58283 -1.300247,0.39025 -2.602997,0.76608 -3.898485,1.17233 -2.312027,0.71312 -4.479512,1.76004 -6.441776,3.16981 -0.360926,0.36276 -1.06459,0.69102 -1.21517,1.24216 -0.04063,0.14872 -0.0053,0.27168 0.0164,0.41955 0.192294,0.90157 0.261268,1.40338 0.895879,2.09642 1.403922,1.13104 2.821194,2.23254 4.153617,3.44935 1.903881,1.86005 3.195064,4.20832 4.805439,6.30329 1.309611,1.65128 3.052268,2.77425 4.889773,3.74636 1.713465,0.83026 3.390098,1.71985 4.963448,2.79356 1.06738,0.75219 1.988807,1.68323 3.033927,2.46257 0.327168,0.22724 0.687766,0.46023 1.095155,0.49562 -0.07462,-0.0204 0.137057,0.0261 0.10195,0.0265 -0.862137,0.0102 -0.796952,-0.0986 -1.333424,0.25502 -0.0082,0.007 -0.03394,0.0276 -0.02471,0.0217 0.80957,-0.5177 0.693328,-0.26585 1.817391,-0.38603 0.372507,-0.0267 1.317993,-0.0244 -0.308374,-0.0136 0.126894,0.0265 0.253378,0.023 0.38154,0.0175 2.071544,0.075 0.618908,-0.0437 1.207243,0.0671 0.02785,0.005 0.21704,0.0643 0.145452,0.0286 -0.01992,-0.006 -0.03984,-0.0119 -0.05976,-0.0179 2.394127,0.70878 1.391761,4.09458 -1.002363,3.3858 v 0 c -0.0352,-0.007 -0.07039,-0.0132 -0.105582,-0.0198 -0.364199,-0.0812 -1.086091,0.0919 0.718518,0.0162 -0.127971,-0.006 -0.253079,0.003 -0.379833,0.0256 -0.516099,0.003 -1.059106,0.0348 -1.577202,-0.0343 -0.355074,-0.0909 0.07682,0.0263 0.772649,-0.0374 0.01339,-10e-4 0.453401,-0.3222 0.470331,-0.33524 0.01913,-0.0147 -0.04016,0.0269 -0.06025,0.0403 -0.730462,0.45805 -1.295175,0.37503 -2.156672,0.28979 -0.832435,-0.16727 -1.631982,-0.44062 -2.372733,-0.86444 -1.135592,-0.66205 -2.191716,-1.44655 -3.316219,-2.1268 -1.552834,-0.9224 -3.195381,-1.64902 -4.854519,-2.35814 -2.482376,-1.2532 -4.554802,-2.69839 -6.277234,-4.92588 -1.464472,-1.97392 -2.708289,-4.10682 -4.317373,-5.97094 -1.324055,-1.49179 -2.831295,-2.8518 -3.868529,-4.57188 -0.560173,-1.11399 -0.935583,-2.27742 -1.129715,-3.51177 -0.201962,-2.00104 0.221081,-3.29458 1.466592,-4.89603 0.278255,-0.29715 0.538426,-0.61234 0.834765,-0.89146 1.904711,-1.79407 4.313372,-2.94346 6.790351,-3.7074 0.545118,-0.13493 1.085077,-0.29273 1.635352,-0.40478 1.92717,-0.39241 3.968195,-0.54642 5.90735,-0.16989 2.034299,-0.66597 2.976115,2.21097 0.941816,2.87693 z"
       inkscape:connector-curvature="0" />
    <path
       style="fill:#c87137;fill-opacity:1;stroke:none;stroke-width:0.26458332;stroke-opacity:1"
       id="path907"
       d="m 39.518873,385.61604 c 0.117705,-0.26439 0.208084,-0.54273 0.353118,-0.79317 1.086625,-1.87634 2.924421,-3.18243 4.692883,-4.34921 1.44718,-0.92443 3.057191,-1.55659 4.492947,-2.49821 0.649918,-0.47158 0.980615,-1.20726 1.406345,-1.86283 0.418262,-0.62604 0.921213,-1.18709 1.563354,-1.58547 0.698186,-0.44532 1.239616,-0.50745 2.102234,-0.38359 0.309862,-0.0693 1.112173,-0.0527 -0.203528,-0.0645 0.229431,0.004 0.468998,-0.0163 0.692944,0.0441 0.713205,0.2674 0.04069,0.002 0.730959,2.0424 -0.595305,0.68134 -1.558872,-0.16054 -0.96357,-0.84189 v 0 c 0.342164,0.57605 0.684329,1.1521 1.026493,1.72815 -7.94e-4,0.006 -0.0013,0.0115 -0.0021,0.0172 -0.207179,0.0924 -0.462827,0.0466 -0.681744,0.0707 -0.561377,-0.002 -1.136533,0.0387 -1.681022,-0.12856 -0.192347,-0.0174 0.687922,0.15374 1.132838,-0.1283 0.03794,-0.024 0.0392,-0.0283 0.06713,-0.0572 -0.24333,0.27472 -0.483497,0.54724 -0.642268,0.88536 -0.541804,0.89608 -1.075622,1.80716 -1.731357,2.62481 -1.251715,1.41226 -2.77322,2.45203 -4.399492,3.39743 -1.020765,0.6283 -2.038813,1.2617 -3.04501,1.91322 -0.582025,0.37687 -1.247309,0.84573 -1.859584,1.18306 -0.240112,0.13228 -0.494348,0.23713 -0.741521,0.3557 -1.109607,1.63339 -3.419576,0.0642 -2.309969,-1.56922 z"
       inkscape:connector-curvature="0" />
    <path
       style="fill:#c87137;fill-opacity:1;stroke:none;stroke-width:1.01047766;stroke-opacity:1"
       d="m 233.96848,92.413517 c -7.86032,3.736145 -16.16569,7.988243 -25.24533,7.47832 -21.9929,0.133163 -44.07635,1.170923 -66.02133,-0.452343 -5.55965,-1.254775 -11.0448,-4.695211 -16.34533,-0.536812 -8.39302,3.921168 -17.9721,7.374318 -24.02641,14.655868 -3.417,8.72713 6.35486,14.75251 11.86545,19.62721 15.70674,11.53097 22.18849,32.14009 39.75772,41.48498 12.18378,6.29605 23.90856,13.4328 34.47861,22.20683 4.9246,3.76859 12.37968,0.22383 16.37684,5.71156 4.53105,2.1566 7.22949,-4.53779 10.19161,-6.85427 10.91781,-12.85416 20.45205,-27.75086 24.35015,-44.3051 0.73694,-18.07925 0.3204,-36.34894 -1.82991,-54.325164 -0.41163,-1.882376 -1.02862,-4.864122 -3.55207,-4.691079 z"
       id="path925"
       inkscape:connector-curvature="0"
       transform="matrix(0.26458333,0,0,0.26458333,0,364.06667)" />
    <path
       style="fill:#c87137;fill-opacity:1;stroke:none;stroke-width:1.01047766;stroke-opacity:1"
       d="m 229.20818,77.070834 c -8.15991,7.27506 -20.01953,5.117675 -29.9272,6.182455 -12.76099,0.591066 -25.75585,-0.364811 -38.36491,0.890889 -5.31057,6.678517 -14.22217,7.315067 -21.00688,11.4705 -3.09259,4.801262 5.14825,5.282982 8.09961,5.484602 23.71857,1.30619 47.64129,1.1597 71.2742,-1.19994 5.77744,-1.681712 11.84144,-3.988128 16.55644,-7.564767 -0.67236,-5.256501 -1.52062,-11.26963 -4.98134,-15.427547 l -1.00553,0.09983 z"
       id="path927"
       inkscape:connector-curvature="0"
       transform="matrix(0.26458333,0,0,0.26458333,0,364.06667)" />
    <path
       style="fill:#c87137;fill-opacity:1;stroke:none;stroke-width:1.01047766;stroke-opacity:1"
       d="m 202.85485,48.615624 c -5.22795,9.807409 -12.92843,18.097995 -22.64102,23.491632 -3.83262,3.366035 -10.91057,5.204347 -12.04679,10.582386 2.77711,4.063928 9.21748,1.451046 13.36899,2.24661 14.29303,-0.863264 29.10296,0.685993 43.01843,-3.201827 3.97626,-1.108722 7.34222,-5.680395 3.68864,-9.232451 -6.5057,-9.459169 -13.73509,-19.484681 -24.08569,-24.764598 l -0.83782,0.564899 z"
       id="path929"
       inkscape:connector-curvature="0"
       transform="matrix(0.26458333,0,0,0.26458333,0,364.06667)" />
    <path
       style="fill:#71c837;fill-opacity:1;stroke:none;stroke-width:1.01047766;stroke-opacity:1"
       d="m 79.351577,190.51077 c -5.873654,1.32988 -6.245662,9.33347 -9.161401,13.57435 -3.334692,5.29081 -5.866257,12.15025 2.540976,13.65981 8.557279,3.97101 16.552843,10.05419 25.564908,12.64813 3.81747,-3.04662 1.141954,-9.2963 1.657843,-13.57249 -1.259673,-6.99735 0.614697,-15.88115 -4.750457,-21.40543 -4.623095,-3.0537 -10.501188,-3.95425 -15.851869,-4.90437 z"
       id="path931"
       inkscape:connector-curvature="0"
       transform="matrix(0.26458333,0,0,0.26458333,0,364.06667)" />
    <path
       style="fill:#71c837;fill-opacity:1;stroke:none;stroke-width:1.01047766;stroke-opacity:1"
       d="m 148.34826,18.378263 c -5.18486,1.78666 -3.13026,9.070091 -5.21225,13.104632 -3.38694,15.019764 -11.58966,30.035839 -8.6759,45.769509 1.88168,5.699921 9.57244,3.365536 14.07761,3.430098 5.86736,-2.16021 8.05107,-9.294424 13.61841,-12.239 10.01732,-8.697998 24.99219,-11.607401 31.23952,-24.301966 4.63488,-5.304909 -4.74458,-7.945584 -7.8813,-11.013807 C 174.2559,25.847295 161.61642,20.482155 148.34826,18.378263 Z"
       id="path933"
       inkscape:connector-curvature="0"
       transform="matrix(0.26458333,0,0,0.26458333,0,364.06667)" />
    <path
       style="fill:#6c5d53;fill-opacity:1;stroke:none;stroke-width:0.26458332;stroke-opacity:1"
       id="path935"
       d="m 7.809046,377.32357 c 0.2515807,-0.13172 0.4913868,-0.28892 0.7547417,-0.39517 0.7790185,-0.31427 1.8570303,-0.56413 2.6570663,-0.71954 1.871256,-0.36349 3.753546,-0.51997 5.651542,-0.65546 1.997784,-0.057 1.873148,-0.0867 3.830586,-0.0155 1.965468,0.0715 2.756572,0.006 4.446509,0.39165 1.088735,0.24865 1.33421,0.39579 2.332174,0.80755 1.411581,0.66093 2.461381,1.83427 3.749233,2.67674 0.998376,0.6257 2.059474,1.13991 3.130256,1.62738 1.217128,0.5709 2.458418,1.08772 3.67343,1.66308 1.197094,0.57766 2.241431,1.40359 3.349469,2.1249 0.664953,0.44647 1.4567,0.41139 2.220671,0.50686 1.07936,0.13876 2.020594,0.61378 2.927768,1.1842 0.571596,0.4923 1.130224,0.66137 1.836934,0.83369 1.053338,0.23449 1.782074,0.935 2.372791,1.79842 0.57122,1.00506 0.698148,2.11758 0.681889,3.25161 -0.04841,0.91648 -0.114855,1.85242 -0.492204,2.70371 -0.102092,0.23031 -0.236823,0.44473 -0.355232,0.66709 -0.981816,1.46574 -2.449415,2.45585 -3.924303,3.36946 -1.609799,0.93855 -3.291768,1.74602 -4.995836,2.49688 -1.284991,0.58021 -2.638062,0.9512 -4.036676,1.10572 -0.525658,-0.007 -1.051645,-0.002 -1.576978,-0.0221 -0.377007,-0.0143 -0.750091,-0.0866 -1.126881,-0.10577 -0.593016,-0.0301 -1.190554,-0.006 -1.783527,0.009 -0.222012,0.005 -0.44603,-0.0158 -0.666036,0.0143 -0.114864,0.0157 0.461523,0.0145 0.346559,0.0294 -0.242744,0.0316 -0.489431,0.0127 -0.734084,0.021 -0.801256,0.0273 -1.602152,0.063 -2.403464,0.0893 -1.439915,0.032 -2.878246,0.093 -4.308491,0.26687 -1.490274,0.19797 -2.98737,0.25685 -4.486075,0.11186 -0.864244,-0.0782 -1.728624,-0.14462 -2.596759,-0.1387 0.178765,0.006 0.367531,-0.0419 0.536294,0.0173 0.141014,0.0495 -0.298808,0.008 -0.448138,0.0136 -0.675924,0.0269 -1.351374,0.0464 -2.027695,0.0626 -0.811194,0.0323 -1.632789,-0.0903 -2.42065,0.14343 -0.612507,0.28428 -1.09233,0.77689 -1.52512,1.2833 -0.406776,0.42681 -0.673923,0.93818 -0.951142,1.45074 -0.276271,0.4912 -0.607187,0.94518 -0.943342,1.39589 -0.17443,0.26116 -0.404006,0.47615 -0.6075381,0.71301 0.022611,-0.18388 0.057483,-0.46244 0.045488,-0.68771 -0.188953,-0.56024 -0.069268,-0.86405 0.012367,0.56338 0.012464,0.21793 -0.1324935,0.49185 -0.2158142,0.68846 -0.08311,0.18184 -0.1533054,0.3736 -0.2570973,0.54495 -0.2028563,0.51134 -0.5611947,0.91035 -1.0054605,1.22204 -1.5916982,0.98486 -1.0456812,0.0597 -2.2750097,-2.51388 1.1214295,-0.60263 3.1790216,1.39275 2.3206148,2.41382 -0.09054,0.10769 -0.284468,0.27614 -0.4278722,0.30743 -0.1501,0.0328 -0.3068714,0.0155 -0.460307,0.0233 -0.2325172,-0.43473 -0.4650346,-0.86945 -0.6975517,-1.30418 0.2410092,-0.21896 0.5506767,0.12188 0.3096675,0.34084 v 0 c -0.3252409,-0.37413 -0.6504818,-0.74826 -0.9757227,-1.12239 -1.6659916,-0.0284 0.1583205,0.7227 1.8312151,2.08201 0.021492,0.0175 0.051288,-0.0209 0.076932,-0.0314 -0.557289,-0.9268 -1.0391222,-1.9034 -1.6718672,-2.78042 -0.023976,-0.0332 -0.536531,0.24337 -0.1337257,0.0618 0.379916,-0.13781 0.113215,0.0329 0.065394,0.31822 0.098525,-0.3283 0.2135664,-0.65346 0.3988485,-0.94431 0.016407,-0.0117 0.030289,-0.0418 0.049219,-0.035 0.062324,0.0225 -0.00704,0.13318 0.0022,0.19881 0.2325671,1.65206 0.1602615,0.79477 -0.0127,0.38168 -0.036783,-0.47087 0.024596,-0.91141 0.2609395,-1.32749 0.1333952,-0.22834 0.2471412,-0.46821 0.395047,-0.68813 0.2402424,-0.42776 0.4990314,-0.84267 0.7569117,-1.25981 0.3384169,-0.57843 0.5280819,-1.22978 0.8615678,-1.81181 0.6530477,-1.10672 1.4320944,-2.09479 2.5829954,-2.72484 1.258629,-0.61416 2.201124,-0.80193 3.593886,-0.73212 1.317839,0.006 2.635708,-0.0107 3.953497,0.0169 0.923298,0.0267 1.845831,0.0687 2.767499,0.13072 0.145247,0.003 0.580795,10e-4 0.435741,0.009 -0.186034,0.0103 -0.37315,-0.016 -0.558961,-0.002 -0.136283,0.0101 0.273104,0.0142 0.409759,0.0133 0.485063,-0.003 0.956974,-0.0965 1.425239,-0.21845 1.568111,-0.36115 3.147186,-0.69217 4.767306,-0.66155 1.928892,-0.006 3.860689,-0.0411 5.787562,0.0586 0.652534,0.0679 1.290672,0.16364 1.937769,0.2679 0.163001,0.0263 0.326358,0.0508 0.490325,0.0701 0.134388,0.0159 0.53561,0.002 0.404408,0.0355 -0.20198,0.051 -0.416422,0.0134 -0.624633,0.0201 0.978826,0.0917 1.85452,-0.35463 2.718091,-0.77045 1.586767,-0.79369 3.161691,-1.61124 4.762296,-2.37713 1.149971,-0.57806 2.336141,-1.10279 3.416461,-1.80674 0.556149,-0.39835 0.344982,-1.10085 0.425977,-1.71683 0.01061,-0.52466 0.01349,-1.05226 -0.135232,-1.56133 -0.0049,-0.0125 -1.067506,-0.16748 -1.111599,-0.27511 -0.841817,-0.31762 -1.62569,-0.73482 -2.382054,-1.22203 -0.611161,-0.31489 -1.281769,-0.40715 -1.961203,-0.4762 -1.158613,-0.18216 -2.284539,-0.49025 -3.316073,-1.06649 -1.09624,-0.58682 -2.15361,-1.24388 -3.269517,-1.79403 -1.203963,-0.59083 -2.427528,-1.13864 -3.637367,-1.71716 -1.2045,-0.61253 -2.403639,-1.248 -3.509352,-2.02893 -0.918233,-0.69394 -1.788781,-1.49011 -2.991213,-1.57812 -1.049519,-0.0556 -2.125611,-0.062 -3.17096,0.0656 -0.07991,0.01 -0.136585,0.098 -0.216602,0.1068 -0.630006,0.0694 -3.028087,0.16579 -3.61179,0.19192 -1.914109,0.0659 -3.831335,0.14525 -5.746673,0.065 -0.910859,-0.0382 -2.118945,-0.12803 -3.0314469,-0.31525 -0.341603,-0.0701 -0.6703607,-0.19244 -1.0055412,-0.28867 -2.2176711,0.66441 -3.1572912,-2.47185 -0.9396201,-3.13626 z"
       inkscape:connector-curvature="0" />
    <path
       style="fill:#6c5d53;fill-opacity:1;stroke:none;stroke-width:0.26458332;stroke-opacity:1"
       id="path937"
       d="m 41.757787,426.64963 c -0.115636,-0.227 -0.262908,-0.44049 -0.346913,-0.681 -0.775378,-2.21996 -0.315032,-4.56904 0.22417,-6.77513 0.545918,-1.87972 1.460265,-3.58759 2.82991,-4.9842 0.95677,-0.81477 2.10897,-1.35241 3.241079,-1.87717 1.414778,-0.56687 2.945895,-0.99493 4.487357,-0.91053 0.69291,0.0379 1.382001,0.12774 2.073003,0.19162 2.08861,0.64216 3.201294,1.93758 4.308181,3.72162 0.454057,0.76603 0.769221,1.61191 1.265322,2.35336 0.08121,0.15277 -0.180917,-0.1008 -0.194887,-0.1029 -1.082331,-0.16268 -1.620665,-0.41887 -2.256226,0.56381 -0.163002,0.25204 -0.150593,0.58111 -0.225888,0.87166 0.261522,0.72464 0.443518,0.6324 1.083953,0.39171 -0.824674,-0.68805 0.148381,-1.85432 0.973053,-1.16626 v 0 c 0.834411,-0.20774 0.94856,-0.2448 1.284036,0.6217 -0.07339,0.32558 -0.04679,0.69157 -0.220165,0.97675 -0.838848,1.37985 -2.538712,0.85129 -3.49145,-0.0354 -0.744884,-0.76264 -1.344758,-1.63672 -1.919031,-2.53254 -0.540543,-0.7843 -1.096303,-1.57124 -2.118137,-1.67322 0.172095,-0.005 0.684186,0.0233 0.516286,-0.0147 -0.220678,-0.0501 -0.452209,-0.0219 -0.678494,-0.022 -0.9471,-8e-4 -1.892467,0.0812 -2.816421,0.2953 -0.783923,0.17066 -1.558465,0.37826 -2.320703,0.62845 -0.249536,0.25432 -0.325088,0.58757 -0.41793,0.92619 -0.249397,0.9096 -0.434811,1.83627 -0.656492,2.75255 -0.528916,2.13111 -0.978004,4.29856 -1.856592,6.32157 0.112321,1.95658 -2.654697,2.11543 -2.767021,0.15885 z"
       inkscape:connector-curvature="0" />
    <path
       style="fill:#6c5d53;fill-opacity:1;stroke:none;stroke-width:1.01047766;stroke-opacity:1"
       d="m 91.601645,61.017659 c -18.526446,1.302403 -37.133,2.39393 -55.643375,0.933507 -4.781773,3.599339 -6.359049,10.795645 -9.279817,16.120277 -6.612004,17.246306 -6.974417,36.205957 -7.507533,54.459227 -0.01657,9.06915 1.007516,19.21435 6.591788,26.61385 4.860412,0.97826 6.129961,-6.30709 8.661376,-9.25566 3.916241,-7.22478 9.818951,-15.428 19.136629,-14.64056 12.875594,-0.92276 26.104991,0.76948 38.779055,-1.62427 3.405632,-4.99381 -2.36855,-10.95551 -1.851227,-16.44197 -1.396538,-14.91597 12.526869,-25.292836 24.753269,-30.406732 5.43299,-0.972177 7.39411,-5.250975 4.38085,-9.82291 -4.11265,-6.973792 -12.17349,-10.568011 -18.90303,-14.584824 -2.864117,-1.243183 -6.036353,-1.43654 -9.117985,-1.349935 z"
       id="path939"
       inkscape:connector-curvature="0"
       transform="matrix(0.26458333,0,0,0.26458333,0,364.06667)" />
    <path
       style="fill:#6c5d53;fill-opacity:1;stroke:none;stroke-width:1.01047766;stroke-opacity:1"
       d="m 128.30251,79.701628 c -8.1614,1.280765 -14.37157,6.705921 -21.66804,10.114645 -10.70665,5.883586 -19.784603,17.553867 -16.870236,30.391297 1.272872,4.31781 1.062209,10.94761 5.800379,12.92504 15.681647,-2.63836 31.795767,-0.8103 47.474687,0.37104 12.58633,-6.71096 26.1098,-12.37315 38.11231,-19.73895 0.37602,-4.18557 2.70575,-10.6832 -0.87857,-14.210737 -8.52292,-2.747889 -16.47786,-7.361344 -25.44352,-8.819971 -9.26324,-2.660905 -16.97795,-9.6591 -26.52701,-11.032364 z"
       id="path941"
       inkscape:connector-curvature="0"
       transform="matrix(0.26458333,0,0,0.26458333,0,364.06667)" />
    <path
       style="fill:#6c5d53;fill-opacity:1;stroke:none;stroke-width:1.01047766;stroke-opacity:1"
       d="m 72.076927,42.248825 c -8.328446,0.797525 -17.510279,-1.106204 -25.327071,2.21042 -8.599629,9.536271 -13.753451,21.770472 -19.722044,33.049228 -6.390705,14.87425 -6.556931,31.578277 -7.749756,47.497567 -0.85575,12.10359 0.3414,25.29167 6.644512,35.64827 0.836399,5.23332 3.124872,10.65017 6.335222,14.71903 4.139157,-0.87757 6.227001,-6.16233 6.941113,-9.7515 6.5913,-4.88016 8.207187,-16.6509 18.295173,-16.18146 30.247457,-0.75018 61.194914,-0.93365 91.637704,-2.52816 15.60439,-6.68236 33.505,-12.75008 43.55908,-27.3283 4.33531,-9.83721 5.0703,-24.377204 -5.15501,-30.922196 C 179.8395,85.401223 172.45242,81.04282 164.3067,78.856932 153.76739,77.048579 145.7715,68.841244 135.84952,65.251008 123.87106,60.510805 113.91583,52.461794 102.94978,45.96312 93.396311,41.367265 82.339648,42.463196 72.076927,42.248825 Z m 50.760713,36.467982 c -0.48248,1.752319 0.74067,0.582764 0,0 z"
       id="path943"
       inkscape:connector-curvature="0"
       transform="matrix(0.26458333,0,0,0.26458333,0,364.06667)" />
    <path
       style="fill:#6c5d53;fill-opacity:1;stroke:none;stroke-width:1.01047766;stroke-opacity:1"
       d="m 195.80321,193.23235 c -6.02802,0.46318 -12.06388,1.80296 -17.77809,3.69456 -2.53239,3.82704 -3.71634,10.55967 2.02885,12.15534 9.25107,4.36767 22.23031,1.74883 27.8434,-7.07532 0.35006,-5.28626 -7.4418,-9.21367 -12.09416,-8.77458 z"
       id="path945"
       inkscape:connector-curvature="0"
       transform="matrix(0.26458333,0,0,0.26458333,0,364.06667)" />
    <path
       style="fill:#6c5d53;fill-opacity:1;stroke:none;stroke-width:1.01047766;stroke-opacity:1"
       d="m 175.67852,206.57776 c -2.39167,3.47235 -2.93621,8.50022 -3.18932,12.68229 2.70079,4.72979 8.4996,-0.49306 11.93988,-1.71526 2.4206,-1.76556 10.78599,-3.66247 6.82106,-7.77179 -4.82563,-0.43879 -9.64547,-1.27071 -14.0934,-3.39852 l -1.00106,0.13766 z"
       id="path947"
       inkscape:connector-curvature="0"
       transform="matrix(0.26458333,0,0,0.26458333,0,364.06667)" />
  </g>
  <g
     inkscape:groupmode="layer"
     id="layer5"
     inkscape:label="arm"
     style="display:inline"
     transform="translate(0,-364.06667)">
    <path
       style="fill:#000000;fill-opacity:1;stroke:none;stroke-width:0.26458332;stroke-opacity:1"
       id="path834"
       d="m 28.876666,367.28074 c -0.960403,0.37483 -1.996085,0.46043 -3.013361,0.55195 -0.397631,0.0358 -0.799697,0.0287 -1.194448,0.0884 -0.05706,0.009 0.106101,0.0454 0.15915,0.0681 -0.336341,0.0358 -0.672682,0.0715 -1.009023,0.10729 -2.065446,0.31035 -3.788839,1.51032 -5.553022,2.53816 -1.169199,0.7335 -2.415122,1.37085 -3.464862,2.27928 -0.713732,0.61766 -0.803256,0.78712 -1.421315,1.52504 -1.739641,2.50915 -3.205067,5.20024 -4.7374252,7.83931 -0.806122,1.39834 -1.540598,2.84886 -1.940544,4.421 -0.160558,0.63113 -0.321776,1.63414 -0.431549,2.26442 -0.446437,2.81147 -0.717817,5.64877 -0.885687,8.48961 -0.104902,1.70997 -0.05675,3.42162 0.336121,5.09429 0.231121,0.98402 0.376282,1.34173 0.697825,2.29823 0.706835,2.07885 1.562518,4.1017 2.498521,6.08652 0.698776,1.59513 1.7058432,2.97795 2.8742782,4.25402 1.365853,1.38654 2.759678,2.74836 4.228388,4.0261 1.340014,1.13167 2.926323,1.89213 4.481994,2.67385 1.817939,0.89114 3.536138,1.96475 5.323975,2.9109 1.304898,0.76222 2.777323,0.8474 4.245652,0.94011 1.66946,0.1298 3.342564,0.13434 5.015744,0.13561 0.90062,-0.0117 1.80137,-0.01 2.70157,0.0223 0.26914,0.01 0.80441,-0.23261 0.80709,0.0367 0.002,0.19235 -1.81957,-0.0671 -0.21195,0.12831 0.21411,-0.0883 0.52604,0.1596 0.74645,0.13965 0.29276,-0.0265 0.66878,-0.3625 0.88173,-0.50573 1.34385,-0.95817 2.80257,-1.72472 4.28247,-2.44635 1.57378,-0.72983 3.18932,-1.36404 4.75329,-2.11504 1.38755,-0.66601 2.71491,-1.44119 4.00128,-2.28394 1.17473,-0.7481 2.22475,-1.65973 3.18124,-2.66722 0.89213,-0.98021 1.6503,-2.07071 2.41764,-3.1485 0.97983,-1.25307 1.75262,-2.63891 2.48334,-4.0461 0.7503,-1.50066 1.44084,-3.03484 1.86084,-4.66247 0.30377,-1.45948 0.17737,-2.95685 0.0965,-4.43225 -0.12134,-1.57693 -0.0342,-3.15744 -0.0774,-4.73615 -0.084,-1.23042 -0.14929,-2.46476 -0.29471,-3.6899 -0.14324,-1.11389 -0.39177,-2.20977 -0.64074,-3.30369 -0.24915,-1.10891 -0.50034,-2.22519 -0.99765,-3.25248 -0.61947,-1.03357 -1.39191,-1.96468 -2.09609,-2.94114 -0.63704,-0.78973 -1.04082,-1.75765 -1.70704,-2.52298 -0.77223,-0.53226 -1.52869,-1.08059 -2.25813,-1.67087 -0.88767,-0.67276 -1.60521,-1.54064 -2.476,-2.23038 -0.63295,-0.351 -1.27274,-0.6862 -1.88318,-1.07905 -0.71787,-0.49707 -1.37055,-1.07975 -2.07237,-1.59828 -0.37347,-0.20691 -0.76634,-0.375 -1.13937,-0.59037 -0.77114,-0.39507 -1.51465,-0.84066 -2.27361,-1.25797 -0.33137,-0.22319 -0.71653,-0.27849 -1.08278,-0.41207 -0.60365,-0.25557 -1.22142,-0.45381 -1.85593,-0.6148 -0.57943,-0.11288 -1.14848,-0.26293 -1.7157,-0.42587 -0.42143,-0.17414 -0.82995,-0.15014 -1.27015,-0.12449 -0.91664,0.0411 -1.8329,0.0503 -2.75025,0.0406 1.00946,-0.0464 -3.5656,0.0697 -2.53915,0.003 0.77303,-0.0502 1.62624,0.0149 0.4713,-0.0533 -1.508875,-0.0625 -3.020051,-0.0499 -4.529972,-0.0599 -0.880854,-0.0727 -1.762745,-0.11393 -2.64676,-0.11473 -0.3254,-0.008 -0.484179,-0.007 -0.802754,-0.0342 -0.103803,-0.009 -0.414345,-0.0264 -0.310544,-0.0353 1.188244,-0.1018 1.700983,0.0179 0.890016,-0.14165 -1.243605,-0.05 -1.357291,0.14934 -2.20201,-0.33576 -0.182303,-0.10469 -0.333108,-0.25853 -0.514652,-0.36453 -0.107146,-0.0626 0.189881,0.16006 0.289994,0.23336 0.08373,0.0613 0.385162,0.24851 0.486836,0.31229 0.0033,0.108 0.02336,0.0603 -0.117298,0.10148 0.416658,0.0112 0.834036,0.007 1.249974,0.0337 0.09074,0.006 -0.180507,0.0226 -0.271153,0.0297 -0.307441,0.0242 -0.371583,0.0174 -0.686681,0.0167 -0.240416,-0.0562 -0.929473,0.0303 -1.062807,-0.27866 -0.06183,-0.14326 0.122684,-0.69534 0.126711,-0.71082 -0.04991,-0.70121 0.132112,-0.48047 -0.575413,-0.63685 -0.236514,1.85199 -2.855616,1.51751 -2.619105,-0.33448 v 0 c -0.552331,-1.30455 -0.483531,-0.62484 -0.176252,-2.04196 0.175101,-0.27215 0.317688,-0.56822 0.525306,-0.81645 0.547045,-0.65406 1.434857,-0.89102 2.242558,-0.96726 0.331044,-0.008 0.652928,0.0155 0.982766,0.0239 0.808035,0.0207 1.491363,-0.087 2.225961,0.13913 0.328292,0.12934 0.452225,0.1599 0.750964,0.3498 0.12414,0.0789 0.478337,0.34251 0.356478,0.26012 -0.965692,-0.65293 -1.069975,-0.71215 -2.464535,-0.64767 0.603853,-0.36281 1.403709,-0.1289 2.107676,-0.1554 0.4347,-0.0164 0.869479,-0.079 1.305875,-0.0312 0.840994,0.056 1.683564,0.11542 2.526694,0.0793 -0.389009,-10e-4 -0.778087,0.004 -1.167027,-0.004 -0.143817,-0.003 0.287599,-0.007 0.431414,-0.0104 0.656711,-0.014 1.312082,-0.0563 1.966502,-0.11425 1.892348,-0.15435 3.809058,-0.11336 5.695808,0.0961 0.92292,0.10891 1.84533,0.22338 2.76397,0.36429 0.6374,0.11816 1.2627,0.29105 1.90295,0.39458 0.78764,0.13559 1.57173,0.29633 2.30578,0.6261 0.47471,0.20599 0.93177,0.48425 1.43394,0.61095 0.82688,0.0799 1.60111,0.50604 2.33517,0.85871 0.74713,0.43722 1.45981,0.92152 2.10787,1.49816 0.44004,0.25369 0.96376,0.35933 1.38274,0.66036 0.78335,0.46627 1.50879,1.00666 2.19846,1.60317 0.63374,0.45185 1.36387,0.72527 2.01758,1.14794 1.10454,0.7394 2.13807,1.57519 3.06199,2.5338 0.75208,0.76249 1.51634,1.51077 2.29516,2.24564 0.87109,0.90972 1.69117,1.86549 2.41647,2.89714 0.90303,1.28188 1.81066,2.57505 2.47144,4.00289 0.59776,1.44052 1.05568,2.9311 1.23071,4.48754 0.15755,1.14514 0.32702,2.28745 0.59807,3.41261 0.28213,1.44348 0.4998,2.89806 0.51285,4.37272 0.0518,1.53184 0.15261,3.05936 0.2717,4.58746 0.11758,2.03212 0.18082,4.08139 -0.22624,6.08938 -0.50006,2.10285 -1.19899,4.15034 -2.26239,6.04222 -0.94368,1.67806 -1.99819,3.29058 -3.31575,4.70417 -0.93891,1.03125 -1.76531,2.14435 -2.56811,3.28392 -1.19195,1.47778 -2.49974,2.8615 -4.10862,3.89532 -1.43516,0.89093 -2.92455,1.68488 -4.39551,2.51422 -1.61146,0.90597 -3.24173,1.7824 -4.98645,2.41053 -1.41484,0.54435 -2.8098,1.14004 -4.19126,1.76418 -1.21386,0.55982 -2.37088,1.28396 -3.71161,1.50775 -1.43134,0.22579 -0.36895,0.0872 -2.94407,0.1658 -1.21334,0.037 -2.42714,0.0749 -3.63971,-0.0197 -1.820264,-0.0856 -3.646098,-0.10606 -5.459377,-0.29448 -2.069264,-0.31579 -4.02408,-0.87318 -5.903381,-1.81506 -1.870006,-0.91302 -3.706733,-1.88783 -5.483889,-2.97253 -1.815367,-1.07297 -3.645231,-2.13977 -5.254858,-3.51494 -1.6739472,-1.45516 -3.2539462,-3.0151 -4.6181702,-4.76998 -1.293301,-1.66704 -2.460241,-3.42438 -3.426859,-5.30332 -1.157457,-2.18462 -2.27750399,-4.39816 -3.08403599,-6.74117 -0.965116,-3.09166 -1.56509001,-6.09294 -1.46574201,-9.3537 0.06676,-1.53621 0.04504,-1.87792 0.258649,-3.40623 0.27761401,-1.98625 0.83460201,-3.91036 1.30717401,-5.85465 0.674087,-2.7615 1.30031299,-5.55614 2.46519399,-8.16281 0.245192,-0.517 0.474954,-1.04159 0.735571,-1.55099 1.355855,-2.65009 3.074683,-5.11261 5.140079,-7.25811 0.360804,-0.35381 0.710681,-0.71913 1.082418,-1.06143 1.5186372,-1.3984 3.2472982,-2.54855 5.0575532,-3.53174 2.292911,-1.27766 4.652756,-2.50869 7.24295,-3.05225 0.453398,-0.0697 0.902441,-0.17926 1.360191,-0.20912 1.880177,-0.12266 4.062336,-0.15896 5.890099,0.47949 0.233085,0.0814 0.444577,0.2149 0.666866,0.32235 2.402009,0.73188 1.366975,4.12883 -1.035034,3.39695 z"
       inkscape:connector-curvature="0" />
  </g>
</svg>
