<?xml version="1.0" encoding="UTF-8" standalone="no"?>
<!-- Created with Inkscape (http://www.inkscape.org/) -->

<svg
   xmlns:dc="http://purl.org/dc/elements/1.1/"
   xmlns:cc="http://creativecommons.org/ns#"
   xmlns:rdf="http://www.w3.org/1999/02/22-rdf-syntax-ns#"
   xmlns:svg="http://www.w3.org/2000/svg"
   xmlns="http://www.w3.org/2000/svg"
   xmlns:sodipodi="http://sodipodi.sourceforge.net/DTD/sodipodi-0.dtd"
   xmlns:inkscape="http://www.inkscape.org/namespaces/inkscape"
   width="1024"
   height="512"
   viewBox="0 0 270.93334 135.46667"
   version="1.1"
   id="svg8"
   inkscape:version="0.92.4 (5da689c313, 2019-01-14)"
   sodipodi:docname="leg.svg"
   inkscape:export-filename="C:\Users\panu-\PycharmProjects\nextgame\data\images\bodies\camo\leg.png"
   inkscape:export-xdpi="10.173375"
   inkscape:export-ydpi="10.173375">
  <defs
     id="defs2" />
  <sodipodi:namedview
     id="base"
     pagecolor="#ffffff"
     bordercolor="#666666"
     borderopacity="1.0"
     inkscape:pageopacity="0.0"
     inkscape:pageshadow="2"
     inkscape:zoom="0.69977473"
     inkscape:cx="179.44413"
     inkscape:cy="292.04657"
     inkscape:document-units="mm"
     inkscape:current-layer="layer6"
     showgrid="false"
     units="px"
     width="1024px"
     inkscape:window-width="1920"
     inkscape:window-height="1017"
     inkscape:window-x="-8"
     inkscape:window-y="-8"
     inkscape:window-maximized="1"
     inkscape:pagecheckerboard="true"
     showguides="false" />
  <metadata
     id="metadata5">
    <rdf:RDF>
      <cc:Work
         rdf:about="">
        <dc:format>image/svg+xml</dc:format>
        <dc:type
           rdf:resource="http://purl.org/dc/dcmitype/StillImage" />
        <dc:title />
      </cc:Work>
    </rdf:RDF>
  </metadata>
  <g
     inkscape:groupmode="layer"
     id="layer6"
     inkscape:label="arm_color"
     transform="translate(0,-296.33334)"
     style="display:inline">
    <path
       style="display:inline;fill:#447821;fill-opacity:1;stroke:none;stroke-width:0.25440666;stroke-opacity:1"
       id="path840"
       d="m 60.363104,326.94244 c -0.224439,1.66036 -0.756606,3.21205 -1.082143,4.84116 -0.314053,1.94781 -0.193487,3.96149 -0.155302,5.93717 0.09358,3.53966 -0.08251,7.0735 -0.331581,10.59532 -0.283358,3.00403 -0.522329,6.01259 -0.689501,9.03167 -0.113528,2.45655 -0.380699,4.89363 -0.866927,7.26934 -0.136255,1.08856 -0.651777,2.09578 -0.684691,3.20918 0.09764,1.01625 0.174712,2.02385 0.163744,3.05051 -6.64e-4,0.8691 -0.161104,1.71933 -0.196049,2.58369 0.01999,0.89501 0.107777,1.78518 0.160497,2.67794 0.05252,1.11856 0.03859,2.24159 -0.105344,3.34722 -0.02693,0.39435 -0.200618,0.88818 -0.06132,1.27431 0.104291,0.38645 0.221281,0.76573 0.331217,1.14938 0.08171,0.39439 0.172152,0.78761 0.244743,1.18612 0.24284,0.2223 0.358181,0.81728 0.442234,1.18015 0.146607,0.65345 -0.142875,-0.0396 -0.281909,-0.22377 0.295882,0.31742 0.509465,0.76196 0.641662,1.22996 0.0527,0.18434 0.10047,0.42597 0.152053,0.56273 -0.01818,-0.22099 0.0114,-0.14271 0.05011,-0.0696 0.01634,0.036 0.107003,0.2349 0.09218,0.21393 -0.631008,-0.89209 1.269478,-0.75526 -2.004319,0.47551 0.221758,-1.56672 1.899367,-1.15253 1.677609,0.4142 v 0 c -2.725407,1.75037 -1.461946,1.99768 -2.136363,0.99366 -0.0077,-0.0116 0.07213,0.18239 -0.01043,0.0444 -0.194726,-0.32079 -0.375073,-0.64954 -0.444603,-1.062 -0.05802,-0.34074 -0.0092,-0.14895 -0.08334,-0.37628 0.02937,0.15387 -0.117303,-0.1084 -0.01741,-0.034 0.115339,0.0858 0.161359,0.35767 0.288269,0.45856 -0.383128,-0.36005 -0.631987,-0.89348 -0.851328,-1.43248 -0.204697,-0.6013 -0.343832,-1.23195 -0.336515,-1.89733 0.254097,0.6116 -0.127054,0.11934 -0.200365,-0.11271 -0.317291,-0.72576 -0.513659,-1.51511 -0.544398,-2.35769 -0.01043,-0.55034 0.01197,-1.09338 -0.100862,-1.63215 -0.135103,-1.0963 -0.141957,-2.20778 -0.0921,-3.31522 0.04815,-0.89439 0.122895,-1.78982 0.106868,-2.6874 -0.03328,-0.91174 -0.114889,-1.82361 -0.05523,-2.73766 0.04496,-0.86166 0.16218,-1.72963 0.01596,-2.5859 -0.165183,-1.50771 -0.159879,-3.02402 0.115717,-4.51408 0.337237,-2.14391 0.734591,-4.27881 0.714754,-6.487 0.05088,-3.09336 0.01018,-6.19192 0.20245,-9.27879 0.247838,-3.50486 0.570278,-6.99797 1.034428,-10.46577 0.295295,-2.15096 0.669544,-4.27339 1.075308,-6.39216 0.359129,-1.88398 0.774819,-3.82805 1.827411,-5.25944 0.64,-1.86295 2.634802,-0.66755 1.994803,1.1954 z"
       inkscape:connector-curvature="0" />
    <path
       style="display:inline;fill:#447821;fill-opacity:1;stroke:none;stroke-width:0.25440666;stroke-opacity:1"
       id="path842"
       d="m 166.90731,381.01911 c 0.53988,-1.70327 1.34998,-3.21989 1.92768,-4.90285 0.48312,-1.49071 0.34755,-3.07793 0.27383,-4.64851 -0.18021,-2.61641 -0.0237,-5.23689 0.24538,-7.83088 0.28477,-2.2689 0.66291,-4.51334 0.92042,-6.78854 0.17051,-1.94122 0.23587,-3.89497 0.35113,-5.84271 0.10364,-1.5515 0.25404,-3.09583 0.31979,-4.6514 0.0485,-1.14754 -0.0155,-2.28644 -0.10692,-3.42614 -0.0952,-0.96985 -0.17712,-1.94201 -0.3319,-2.89914 -0.16155,-0.80785 -0.29988,-1.62436 -0.4755,-2.42702 -0.1577,-0.83822 -0.28616,-1.68529 -0.41663,-2.53157 -0.0938,-0.41822 -0.0636,-0.88494 -0.18392,-1.29354 -0.17661,-0.43545 -0.28236,-0.90648 -0.38552,-1.37874 -0.006,-0.22517 -0.20712,-0.64981 0.0193,-0.16252 0.16854,0.2594 0.11181,0.19112 0.3948,0.48015 0.0421,0.043 0.18258,0.0884 0.13351,0.11561 -0.0791,0.0439 -0.60995,-0.39854 -0.66193,-0.44337 -0.32338,-0.28058 -0.50032,-0.74534 -0.772,-1.09176 -0.12619,-0.14319 -0.26998,-0.39929 -0.37309,-0.54202 -0.0134,0.0307 -0.0605,-0.0553 -0.048,-0.037 0.41004,0.5982 0.87922,0.51455 1.54618,0.3042 0.082,-0.0259 -0.0216,-0.22082 -0.0324,-0.33122 -0.11649,-0.18577 -0.23298,-0.37153 -0.34946,-0.55731 -0.71771,0.83448 -1.61126,-0.50605 -0.89355,-1.34053 v 0 c 4.4e-4,-0.28266 8.4e-4,-0.56531 0.002,-0.84796 0.0652,-0.14608 0.0707,-0.3975 0.19538,-0.43823 1.0772,-0.35223 1.46895,-0.1913 2.10794,0.64247 0.1776,0.26699 0.3757,0.50578 0.54664,0.77916 0.007,0.0127 0.34438,0.57184 0.21778,0.3988 -0.14185,-0.11704 -0.0478,-0.0499 -0.17563,-0.12209 -0.0283,-0.0159 -0.1111,-0.0694 -0.0841,-0.0501 0.26738,0.19171 0.5317,0.39606 0.72698,0.71471 0.2876,0.51964 0.51587,1.07457 0.60395,1.71655 0.0393,0.30227 0.0695,0.58023 0.19291,0.85153 0.19256,0.58827 0.3829,1.17985 0.50268,1.80303 0.16379,0.82571 0.30382,1.65814 0.43811,2.49296 0.11545,0.77247 0.25767,1.53809 0.47929,2.27111 0.29711,1.16698 0.50761,2.36731 0.56709,3.59981 0.0587,1.25693 0.12581,2.5134 0.17085,3.77125 0.0475,1.64873 0.008,3.29511 -0.10146,4.93899 -0.10675,2.03332 -0.18432,4.07095 -0.36613,6.09564 -0.20841,2.26774 -0.47877,4.52372 -0.69516,6.79014 -0.21567,2.41715 -0.50399,4.82094 -0.70507,7.23992 -0.0797,2.03957 0.0826,4.1113 -0.33623,6.10598 -0.0985,0.39854 -0.17993,0.8052 -0.29562,1.19563 -0.55,1.85617 -1.45749,3.57042 -2.7396,4.65239 -1.27149,2.1977 -3.62473,-0.1772 -2.35325,-2.37489 z"
       inkscape:connector-curvature="0" />
    <path
       style="display:inline;fill:#447821;fill-opacity:1;stroke:none;stroke-width:0.25707227;stroke-opacity:1"
       d="m 124.37266,322.32948 c -3.10041,0.0872 -6.11358,1.33155 -9.21223,1.12747 -5.22965,-0.0685 -10.45763,0.51928 -15.683189,0.34033 -2.392847,-0.61641 -4.817726,-0.39208 -7.211151,0.10575 -4.976967,0.59644 -10.01888,-0.0446 -14.94812,1.2864 -3.874882,0.86961 -7.862921,0.39258 -11.712113,1.41003 -2.14003,0.81465 -4.105408,2.33302 -6.203915,3.19555 -0.97046,1.25217 -0.401275,3.3847 -0.668449,4.9722 -0.291371,9.78172 -0.506704,19.62935 -1.943313,29.2666 -0.874678,5.02182 -0.571236,10.25022 -0.680682,15.36612 0.111686,1.92869 0.372186,4.11568 1.353502,5.61443 1.821337,1.14331 3.991553,0.62033 5.935662,1.21232 4.495967,0.68052 8.94586,1.81483 13.427107,2.64335 4.304094,0.26951 8.672731,-0.85214 12.902834,0.42007 9.515548,0.60071 19.052787,0.20639 28.576877,0.39595 4.25308,-0.008 8.51073,0.12246 12.74943,0.31892 6.34714,-0.28967 12.62713,-1.56146 18.95347,-2.12108 4.41499,-1.53706 9.0952,-2.06771 13.23662,-4.80255 1.36091,-0.95371 3.08964,-1.07565 4.233,-2.36239 0.86183,-2.25602 2.37172,-4.28428 2.01498,-7.00493 0.0469,-5.35482 0.2994,-10.63785 1.08675,-15.89334 0.67277,-7.30094 1.29937,-14.85584 -0.32781,-22.02989 -0.20314,-1.53826 -0.52576,-3.15265 -1.32596,-4.3028 0.54037,-1.39235 -1.57812,-2.77161 -2.03069,-1.11019 -0.41007,0.42461 -0.40544,1.45325 -0.37093,1.77666 -1.54033,-0.28258 -2.93791,-1.22707 -4.36852,-1.87706 -1.80834,0.10166 -3.24828,-1.8429 -4.77789,-2.87762 -1.80967,-0.41844 -3.73174,-0.21829 -5.44809,-1.30233 -1.93632,-1.31387 -4.08799,-1.98607 -6.2476,-1.93822 -3.12379,-0.0935 -6.16081,-1.78297 -9.32916,-1.25716 -4.04247,0.44722 -7.94331,-0.53518 -11.98042,-0.57258 z"
       id="path844"
       inkscape:connector-curvature="0" />
    <path
       style="display:inline;fill:#71c837;fill-opacity:1;stroke:none;stroke-width:0.25440666;stroke-opacity:1"
       id="path848"
       d="m 110.575,387.37172 c 1.03497,-3.04692 2.95137,-5.45962 4.75067,-7.73367 2.57874,-3.08614 5.60268,-5.37861 8.62986,-7.59397 3.19295,-2.23918 6.33229,-4.60843 9.54331,-6.80213 2.95663,-2.01806 6.1146,-3.39313 9.3399,-4.423 1.34631,-0.38432 2.69989,-0.73949 4.00687,-1.32429 0.69764,-0.31216 1.1444,-0.56331 1.83058,-0.92651 1.91178,-1.09901 3.86253,-2.06164 5.85553,-2.86836 1.50163,-0.58569 3.02201,-1.07427 4.58221,-1.27064 0.28561,-0.0118 0.56924,-0.039 0.85447,-8e-5 0.0787,0.0111 0.25059,0.0598 0.20896,0.14858 -0.0219,0.0465 -0.14662,0.18133 -0.19958,0.23968 0.57757,-1.04086 1.41034,-1.72282 2.25478,-2.32724 0.98725,-0.67693 2.0586,-0.95721 3.15998,-0.99913 0.64413,0.0446 1.27156,-0.11175 1.90303,-0.25003 0.93286,-0.13595 1.90903,-0.12049 2.8369,0.078 0.13187,0.0282 0.24772,0.13221 0.37157,0.19832 0.22963,0.0673 0.78451,0.85968 0.94354,0.66255 1.01978,-0.1136 -0.87067,-0.23337 -0.0703,0.0955 0.51222,0.57 0.98118,1.21567 1.53665,1.70998 0.0831,0.0739 -0.0194,-0.26635 -0.0539,-0.39052 -0.0651,-0.23369 -0.37561,-0.90077 -0.60696,-0.92302 -0.21855,-0.021 -0.43774,0.0276 -0.65662,0.0414 0.26779,0.1171 0.68533,-0.18772 0.95495,-0.0111 0.3408,0.22333 0.52892,0.72277 0.7826,1.09721 0.0157,0.0232 0.0165,0.13941 0.0142,0.0424 0.016,-0.0782 -0.24553,-0.53941 -0.14436,-0.49936 -0.612,-0.38608 0.30871,1.22159 0.59374,1.90091 0.0291,0.0696 0.0316,-0.15548 0.0316,-0.23506 4.4e-4,-0.47284 -0.0231,-0.42177 -0.17263,-0.83626 -0.24046,-0.34754 -0.43032,-0.50543 -0.0515,-0.28641 0.64607,0.50105 0.39445,0.71459 0.59527,1.66812 0.0248,0.11778 0.0317,-0.2441 0.0217,-0.36562 -0.0374,-0.45238 -0.0813,-0.47072 -0.24353,-0.81018 -0.25438,-0.27555 0.12093,-0.0708 -0.0816,-0.14882 1.39471,0.7017 0.64335,3.30674 -0.75135,2.60505 v 0 c -0.24943,-0.0788 -0.47605,-0.14403 -0.66907,-0.39753 -0.24899,-0.41067 -0.31762,-0.42577 -0.38777,-0.99911 -0.0195,-0.15904 -0.0389,-0.62922 0.0124,-0.48301 0.28349,0.80931 -0.0442,0.98716 0.53776,1.45691 0.1293,0.24048 -0.99352,-0.56354 -0.70468,-0.49435 -0.22215,-0.50191 -0.27774,-0.49187 -0.29704,-1.10241 -0.004,-0.14569 -0.0259,-0.54702 0.0436,-0.43365 1.17984,1.92606 1.14323,1.86499 0.46378,1.64569 -0.42629,-0.15458 -0.75236,-0.57771 -0.93078,-1.10665 -0.22338,-0.77501 -0.0531,0.23863 0.65728,0.66551 0.23079,0.13867 0.50659,-0.0327 0.76011,-0.0382 0.0103,-2.3e-4 -0.0173,0.0148 -0.0259,0.0221 -0.0445,0.0242 -0.089,0.0484 -0.13351,0.0726 -0.36927,0.0337 -0.7918,0.19817 -1.14957,-0.0451 -0.36673,-0.24936 -0.54649,-0.48093 -0.72242,-0.98358 -0.0645,-0.18427 -0.25644,-0.67224 -0.1161,-0.58943 0.57079,0.33678 1.02238,0.95055 1.53358,1.42582 0.0121,0.3364 -1.45935,0.16616 -1.77245,0.009 -0.10115,-0.0512 -0.20413,-0.0964 -0.30347,-0.15335 -0.0971,-0.0558 -0.60319,-0.53981 -0.66157,-0.31869 -0.27499,0.2153 0.0258,-0.0485 0.51027,0.13057 0.0905,0.0335 -0.18623,0.0343 -0.27956,0.0494 -0.19368,0.0314 -0.52655,0.0785 -0.71527,0.0988 -0.13714,0.0147 -0.27458,0.0243 -0.41187,0.0365 -0.68103,0.043 -1.36154,0.10034 -2.04362,0.0979 -0.70754,0.14275 -1.36857,0.54784 -2.03215,0.88303 -0.68468,0.36608 -1.36784,0.74209 -2.07923,1.00745 -0.49495,0.58895 -1.02954,1.09272 -1.66918,1.36934 -1.32622,0.60071 -2.69232,1.03033 -4.00796,1.67476 -1.90061,0.91695 -3.75042,1.99842 -5.64184,2.94645 -1.95827,0.95307 -3.95161,1.76708 -5.91452,2.70236 -2.83646,1.46452 -5.57517,3.21938 -8.32925,4.9321 -3.2515,2.0016 -6.48456,4.05296 -9.67895,6.20997 -2.81329,1.95215 -5.60334,3.99909 -8.09074,6.63503 -1.31291,1.35798 -1.09191,1.11777 -2.37075,2.48587 -1.16199,1.24305 -2.31737,2.55592 -3.67772,3.41114 -1.22378,2.12207 -3.49603,-0.16374 -2.27225,-2.28581 z"
       inkscape:connector-curvature="0" />
    <path
       style="display:inline;fill:#71c837;fill-opacity:1;stroke:none;stroke-width:0.25440666;stroke-opacity:1"
       id="path850"
       d="m 103.82985,324.71708 c 0.23159,0.0301 0.46961,0.0126 0.69478,0.0902 1.36559,0.47032 2.29613,1.98729 2.90433,3.58094 0.17882,0.46852 0.31132,0.96543 0.46696,1.44815 0.56197,2.00552 0.86481,4.11387 1.39428,6.13339 0.34682,1.32281 0.48569,1.6534 0.92072,2.92909 1.01555,2.95453 2.53195,5.52615 3.9201,8.18177 1.36063,2.55245 2.06455,5.51473 2.75072,8.46216 0.24966,0.86325 0.48016,2.0139 1.21349,2.39025 0.28071,0.14406 0.60265,0.11398 0.89326,0.12173 0.19576,-0.0322 0.39154,-0.0644 0.5873,-0.0966 -0.0619,-0.0416 -0.25152,-0.096 -0.1856,-0.12479 0.24873,-0.10852 0.52066,-0.0788 0.77923,-0.1341 0.77778,-0.16652 1.49489,-0.45517 2.23212,-0.81242 1.35587,-0.74291 2.05589,-1.89604 2.77778,-3.51833 0.82188,-1.86297 1.30163,-3.92276 1.72067,-5.99234 0.48242,-2.4628 0.78158,-4.97683 1.06082,-7.49083 0.25039,-2.43863 0.51966,-4.87347 0.78063,-7.31011 0.17982,-1.88138 0.3893,-3.75625 0.61089,-5.62966 0.15483,-0.98965 0.15453,-2.0416 0.41709,-2.99914 0.0164,-0.0203 0.0319,-0.0799 0.0491,-0.0609 0.0393,0.0436 0.0424,0.12339 0.063,0.18549 0.0754,0.22797 0.31138,0.90558 0.22474,0.6847 -0.23697,-0.60421 -0.33047,-0.97641 -0.382,-1.60622 -0.0432,-0.61803 0.0375,-1.22226 0.21104,-1.79513 0.71149,-1.82319 0.72634,-0.82771 2.9581,0.66197 0.0507,0.0339 -0.0689,0.12113 -0.11193,0.17046 -0.16659,0.19116 -0.26753,0.18409 -0.49967,0.27722 -0.0429,1.63794 -1.79679,1.55778 -1.75386,-0.0801 v 0 c -0.30955,-0.20436 -0.28082,-0.13558 -0.47429,-0.39286 -0.0344,-0.0457 -0.14318,-0.16409 -0.0964,-0.14551 2.5499,1.01382 2.14677,2.16625 2.87785,0.52867 0.0677,0.21822 -0.0425,0.54859 -0.0404,0.78308 -0.009,0.032 -0.002,0.0948 -0.0274,0.0961 -0.0649,0.003 -0.5632,-2.11392 -0.3031,-0.74692 0.0868,0.45632 0.37654,0.86981 0.43978,1.35182 0.22721,1.15695 0.18778,2.36634 0.13721,3.5499 -0.10437,1.87217 -0.26987,3.73802 -0.34057,5.61382 -0.12208,2.538 -0.24697,5.07976 -0.54695,7.59439 -0.34443,2.70874 -0.73949,5.41065 -1.34474,8.04228 -0.59244,2.40187 -1.30022,4.75862 -2.30448,6.91937 -1.06478,2.18088 -2.28313,4.20573 -4.07635,5.40311 -0.31936,0.18699 -0.6313,0.39791 -0.95809,0.56098 -1.88833,0.94227 -4.00207,1.13875 -5.97186,0.59449 -0.31632,-0.14768 -0.64443,-0.25707 -0.94896,-0.44302 -1.54287,-0.94202 -2.54098,-2.75359 -3.21886,-4.74964 -0.78516,-2.51551 -1.43995,-5.12625 -2.63454,-7.37618 -1.48684,-2.93623 -3.09005,-5.80047 -4.03382,-9.14309 -0.15128,-0.57821 -0.31728,-1.15006 -0.45383,-1.73462 -0.58934,-2.52276 -0.85036,-5.14551 -1.211,-7.7342 -0.16765,-0.87275 -0.18592,-1.18874 -0.48906,-1.9725 -0.35166,-0.90925 -0.92578,-1.5883 -1.43394,-2.33698 -1.03294,-0.70572 -0.27727,-2.63507 0.75568,-1.92933 z"
       inkscape:connector-curvature="0" />
    <path
       style="display:inline;fill:#71c837;fill-opacity:1;stroke:none;stroke-width:0.25440666;stroke-opacity:1"
       id="path852"
       d="m 53.677502,354.03807 c 0.0347,-0.2883 0.04159,-0.58492 0.104113,-0.86492 0.437494,-1.95917 1.558701,-3.63742 2.736208,-4.89707 0.356052,-0.38088 0.74663,-0.70175 1.119943,-1.05262 2.188429,-1.74065 4.21585,-2.18413 6.745893,-1.89198 0.315027,0.0364 0.618963,0.17162 0.928441,0.25744 1.034188,0.35899 2.088386,0.63912 3.102339,1.09499 0.707886,0.31826 0.883337,0.45112 1.568435,0.86274 1.626238,1.07904 2.879604,2.80879 4.041235,4.6159 1.040236,1.67809 1.99345,3.44697 2.832258,5.31089 0.902257,2.03028 1.442803,4.2643 1.723218,6.57728 0.173493,1.65165 -0.02445,3.28606 -0.276158,4.90045 -0.280559,1.66766 -0.862216,3.18786 -1.522939,4.64166 -0.185485,0.62732 -0.985787,1.50005 -1.036493,2.16632 0.169369,1.04941 0.30177,2.10114 0.379961,3.16983 0.09644,1.38712 0.0063,2.77209 -0.128427,4.14757 -0.08977,0.51473 -0.0293,1.00434 0.04425,1.511 0.03769,0.40362 0.16041,0.76893 0.27646,1.14057 0.159173,0.50636 0.301906,1.02076 0.424988,1.54429 0.110116,0.46632 0.184769,0.94436 0.270739,1.4189 0.04042,0.15145 -0.09751,-0.15493 -0.12673,-0.20295 0.05591,0.11235 -0.08059,-0.0657 -0.07586,-0.0389 0.291926,1.66146 0.519795,3.01991 0.540483,1.44628 -0.02429,-0.13233 -0.03536,-0.27014 -0.07287,-0.39698 -0.04058,-0.13719 -0.404716,-0.90772 -0.584435,-0.79716 -0.399586,0.24581 -0.706093,0.69718 -1.059143,1.04577 0.523711,-1.05939 1.658078,-0.0812 1.134367,0.97818 v 0 c -0.38871,0.40582 -0.720752,0.93068 -1.166126,1.21747 -0.117049,0.0754 -0.236516,-0.14759 -0.343695,-0.24526 -0.346281,-0.3156 -0.531743,-0.78546 -0.627677,-1.31451 -0.01693,-0.3721 -0.0682,-1.43131 0.07915,-1.11339 1.400286,3.02127 0.866448,2.15552 0.334051,1.83582 -0.329433,-0.36407 -0.595418,-0.7908 -0.768767,-1.31696 -0.172453,-0.53782 -0.301936,-1.0956 -0.372271,-1.67324 -0.06192,-0.3936 -0.161267,-0.75712 -0.311678,-1.10954 -0.192531,-0.57353 -0.356585,-1.16262 -0.42553,-1.78689 -0.111364,-0.70794 -0.262721,-1.4052 -0.340682,-2.12215 -0.12649,-1.32534 -0.133141,-2.65683 -0.100742,-3.99124 0.0099,-1.1961 -0.01365,-2.38887 -0.05487,-3.58341 0.06728,-1.42565 0.346421,-2.76334 0.916921,-3.9924 0.35791,-0.78469 0.282282,-0.63738 0.660438,-1.39392 0.253353,-0.50685 0.549722,-1.00734 0.76211,-1.54841 0.04693,-0.11956 0.07799,-0.24887 0.116981,-0.37331 0.184107,-1.12324 0.07207,-2.26309 -0.136506,-3.36966 -0.345619,-1.81215 -0.728644,-3.62833 -1.415243,-5.2755 -0.748957,-1.66642 -1.62924,-3.21651 -2.576431,-4.69601 -0.880217,-1.3372 -1.786255,-2.67204 -3.039018,-3.40446 -1.2724,-0.70023 -2.616393,-1.13346 -3.983963,-1.36251 -0.216425,-0.0154 -0.43463,-0.007 -0.64928,-0.0462 -0.102206,-0.0189 0.411891,-0.0322 0.309355,-0.0167 -0.22315,0.0337 -0.450071,0.0229 -0.671648,0.0714 -0.87073,0.19085 -1.676995,0.68805 -2.45084,1.22609 -0.882435,0.70864 -0.906988,0.69453 -1.744037,1.50305 -0.71132,0.68706 -1.361594,1.47158 -2.07011,2.16199 -0.149669,0.14585 -0.307747,0.27601 -0.46162,0.41401 -0.739782,2.38943 -3.298325,1.00765 -2.558543,-1.38176 z"
       inkscape:connector-curvature="0" />
    <path
       style="display:inline;fill:#71c837;fill-opacity:1;stroke:none;stroke-width:0.25707227;stroke-opacity:1"
       d="m 63.192447,349.66478 c -3.145062,0.69266 -5.43602,3.97976 -7.93009,6.30743 -0.602974,0.16085 -1.456277,0.32308 -1.346511,1.44141 -0.264761,3.88147 -1.070698,7.70024 -0.857221,11.63682 0.139946,4.55453 -0.206105,9.19047 0.413335,13.69044 0.528315,1.61508 0.880049,3.78543 2.122003,4.67562 0.946949,-0.13808 0.952388,-2.08095 2.02763,-2.12056 1.262064,-0.25298 2.498324,0.58456 3.781767,0.45873 4.028532,0.60115 8.023474,1.408 12.026422,2.22846 0.983739,-0.64495 -0.02136,-2.38818 -0.02272,-3.45637 -0.345954,-3.57795 -0.479434,-7.26666 -0.107476,-10.84456 0.453653,-2.29124 1.771325,-4.0812 2.377586,-6.26531 -0.488972,-4.29922 -1.637253,-8.5095 -3.852109,-11.79839 -1.62744,-3.08086 -4.129421,-5.33035 -6.994273,-5.72808 -0.541256,-0.11649 -1.087055,-0.26028 -1.638343,-0.22564 z"
       id="path854"
       inkscape:connector-curvature="0" />
    <path
       style="display:inline;fill:#71c837;fill-opacity:1;stroke:none;stroke-width:0.25707227;stroke-opacity:1"
       d="m 124.26431,322.34218 c -4.48353,0.88215 -8.99391,1.73843 -13.5455,1.22501 -1.85191,0.10741 -3.7966,-0.10531 -5.58003,0.618 -0.63878,1.25163 0.98076,2.05247 1.33645,3.0611 1.86523,3.84973 2.04134,8.6477 3.80887,12.59467 2.0901,5.18458 5.20574,9.7161 6.24246,15.57132 0.25966,1.65134 1.27703,3.61865 2.75103,2.92919 2.4201,-0.39716 5.03418,-1.64932 6.14537,-4.76217 2.28085,-5.62951 2.51222,-12.19932 3.35212,-18.37088 0.43087,-3.90173 0.85967,-7.81724 1.34407,-11.69201 -0.71361,-1.07186 -2.16434,-0.56449 -3.16683,-0.94073 -0.89348,-0.11028 -1.78947,-0.24199 -2.68801,-0.2335 z"
       id="path856"
       inkscape:connector-curvature="0" />
    <path
       style="display:inline;fill:#71c837;fill-opacity:1;stroke:none;stroke-width:0.25707227;stroke-opacity:1"
       d="m 168.41391,354.92261 c -3.19978,-0.16415 -6.02343,2.01091 -8.84014,3.67506 -5.30892,2.35613 -10.5061,5.07131 -15.76283,7.62319 -7.27579,4.18758 -14.50077,8.61124 -21.39486,13.81792 -2.85856,2.43313 -5.64235,5.15399 -8.05924,8.30383 -0.10788,1.5307 1.61535,0.92649 2.32559,1.15405 6.60505,-0.0318 13.22837,0.97349 19.81277,-0.0883 6.27666,-0.873 12.61111,-1.32676 18.77601,-3.22328 3.17084,-0.62435 6.148,-2.16026 9.06298,-3.8568 1.49503,-0.70868 3.1491,-1.43173 4.75385,-1.26425 0.28689,1.13784 1.08852,2.42776 1.78253,0.87707 2.46249,-3.62853 1.89158,-8.77106 2.3837,-13.22536 0.21719,-3.97714 0.96555,-8.00222 1.01186,-11.95187 -1.52228,-0.35439 -2.78637,-1.90201 -4.41964,-1.79454 -0.47678,-0.0425 -0.95485,-0.052 -1.43258,-0.0467 z"
       id="path858"
       inkscape:connector-curvature="0" />
    <path
       style="display:inline;fill:#c87137;fill-opacity:1;stroke:none;stroke-width:0.25440666;stroke-opacity:1"
       id="path860"
       d="m 121.42705,348.33552 c -1.10177,0.50188 -2.26975,0.41625 -3.41411,0.47356 -0.011,5.9e-4 0.0351,0.0293 0.024,0.0303 -0.30213,0.027 -0.60514,0.0323 -0.90771,0.0485 -2.54237,0.33658 -4.85446,1.90017 -7.10706,3.38593 -2.28416,1.64995 -4.61616,3.29247 -6.62124,5.50879 -0.27891,0.41076 -0.45637,0.5895 -0.6102,1.09346 -0.25418,0.83275 -0.15416,1.85778 -0.12235,2.72583 0.12147,0.82599 -0.0939,1.84321 0.2531,2.60399 0.12343,0.27063 0.33316,0.42951 0.51824,0.61039 1.52864,1.19216 3.07957,2.32471 4.58034,3.57945 1.29999,1.10687 2.52563,2.39308 3.9451,3.23636 0.91048,0.54092 1.16917,0.56965 2.13661,0.8977 2.11129,0.53219 4.26166,0.31305 6.39458,0.30304 0.71218,0.0239 3.03866,0.0967 3.41694,0.14092 0.94934,0.11091 1.96417,0.59173 2.79083,1.20599 0.24999,0.18575 0.47895,0.41707 0.71842,0.6256 0.70937,0.64523 1.27396,1.52189 1.97101,2.18683 0.32275,0.30787 0.48458,0.39937 0.83574,0.64333 1.1097,0.68991 2.26497,1.22982 3.44751,1.65303 1.75362,0.54702 3.52013,1.01116 5.27074,1.57546 1.58378,0.52973 3.17243,1.04848 4.80894,1.15468 -0.13618,0.0147 -0.2935,-0.0533 -0.40854,0.0441 -0.43106,0.36488 0.58467,-0.0385 0.6219,-0.0879 0.0648,-0.086 0.10623,-0.34389 0.12423,-0.42347 0.26935,-1.7483 0.58968,-3.47956 0.9618,-5.1945 0.53085,-2.31705 1.1467,-4.596 1.67824,-6.91268 0.366,-1.61279 0.60203,-3.27708 0.6513,-4.96012 -0.0223,-1.13229 -0.12898,-2.25772 -0.18564,-3.38836 -0.0755,-0.61917 0.17089,-2.10736 -0.21251,-2.53913 -0.72699,-0.45832 -1.39234,-1.07003 -2.06733,-1.64643 -1.1335,-1.06391 -2.46006,-1.54296 -3.79069,-1.97087 -1.80357,-0.43316 -3.57281,-1.04772 -5.31153,-1.80949 -1.61766,-0.72055 -3.15406,-1.70996 -4.72083,-2.59684 -1.08787,-0.66041 -2.26469,-0.96123 -3.4312,-1.26494 -1.20684,-0.30721 -2.40226,-0.67822 -3.59059,-1.0913 -1.20196,-0.33337 -2.3429,-0.91156 -3.48008,-1.50752 -0.66787,-0.44221 -1.39453,-0.6734 -2.10347,-0.96512 -0.6864,-0.33034 -1.31367,-1.47977 -0.92753,-2.49452 0.12957,-0.34049 0.47249,-0.43755 0.70873,-0.65632 0.29857,-0.99729 1.36646,-0.43962 1.06789,0.55768 v 0 c 0.18234,-0.0707 0.43926,-0.006 0.54699,-0.21213 0.13166,-0.25266 0.0749,-0.61482 0.0422,-0.91849 -0.0472,-0.43753 -0.33639,-0.63285 -0.15705,-0.70752 0.0759,-0.0316 0.15933,0.006 0.23899,0.008 0.90907,0.16566 1.78967,0.49726 2.65847,0.88363 1.05544,0.46856 2.12857,0.85057 3.20899,1.20532 1.14006,0.3677 2.28468,0.70817 3.44024,0.98103 1.38476,0.37477 2.77013,0.76156 4.09692,1.42256 1.50813,0.75003 2.99021,1.59587 4.53272,2.22103 1.77458,0.65256 3.60408,1.02466 5.34564,1.83256 1.59222,0.80243 3.11216,1.79844 4.43626,3.23808 1.04323,1.05834 2.13014,2.10172 2.7481,3.6845 0.0878,0.29497 0.19265,0.58207 0.26348,0.88491 0.26246,1.12196 0.19922,2.29366 0.12028,3.44361 -0.062,1.04308 0.0641,2.0334 0.28258,3.03966 0.3006,2.28831 0.23001,4.41553 -0.2364,6.66871 -0.50849,2.37747 -1.17011,4.68277 -1.85681,6.97952 -0.51056,1.88938 -1.00617,3.79244 -1.61002,5.63303 -0.62008,1.43014 -1.09535,2.30237 -2.29241,2.96213 -0.23398,0.12895 -0.47332,0.25948 -0.72434,0.30634 -0.55134,0.10287 -1.1114,0.0934 -1.66711,0.14 -0.74602,-1e-5 -0.994,0.0238 -1.75215,-0.0779 -1.31112,-0.17578 -2.59025,-0.60587 -3.86666,-1.01994 -1.79668,-0.61205 -3.58868,-1.2615 -5.32453,-2.13532 -1.33619,-0.68488 -2.67269,-1.402 -3.89379,-2.40496 -0.93682,-0.83415 -1.75933,-1.86332 -2.71993,-2.64351 -0.76595,-0.32561 -1.56477,-0.34874 -2.36376,-0.21142 -0.0221,0.003 0.0619,0.067 0.0398,0.0705 -0.38502,0.0616 -0.77372,0.0725 -1.16058,0.10873 -3.26838,0.2487 -6.60425,0.31568 -9.75604,-1.01973 -0.45835,-0.23588 -0.92541,-0.44411 -1.37503,-0.70764 -1.93534,-1.13432 -3.62211,-2.84472 -5.32491,-4.47636 -1.58092,-1.52129 -3.21294,-2.99926 -4.5397,-4.91668 -0.17108,-0.30025 -0.35808,-0.58577 -0.51325,-0.90074 -0.699208,-1.41938 -0.931242,-3.04904 -0.993213,-4.71463 -0.0613,-2.33119 0.07653,-4.65329 0.920723,-6.75615 0.20651,-0.44183 0.39067,-0.90332 0.61953,-1.32551 1.61773,-2.98441 4.01368,-5.02095 6.44211,-6.68178 0.57447,-0.32766 1.13935,-0.68637 1.72341,-0.98296 2.26994,-1.15271 4.67161,-1.74876 7.08806,-2.01766 1.45148,-0.11344 1.19543,-0.12447 3.03431,-0.0631 0.88504,0.0295 1.82341,0.11968 2.67211,0.48067 0.19729,0.0839 0.38031,0.21782 0.57046,0.32673 1.92602,0.80155 1.06775,4.39895 -0.85826,3.5974 z"
       inkscape:connector-curvature="0" />
    <path
       style="display:inline;fill:#c87137;fill-opacity:1;stroke:none;stroke-width:0.25440666;stroke-opacity:1"
       id="path862"
       d="m 70.491812,325.9289 c 0.766961,1.12662 1.37877,2.41559 2.096658,3.59457 0.647998,1.0642 0.68788,1.071 1.407244,2.04157 1.296304,1.63274 2.86239,2.75766 4.497459,3.67514 1.010755,0.5186 2.031205,1.02431 3.113962,1.18372 1.210896,0.0201 2.422547,10e-5 3.634181,0.008 1.358467,-5.9e-4 2.112589,-0.10443 3.657489,-0.30735 1.640463,-0.28304 3.254523,-0.7713 4.88173,-1.15783 1.128612,-0.2664 2.265556,-0.47215 3.387798,-0.78332 1.313492,-0.41639 2.553434,-1.13879 3.799347,-1.81229 1.12588,-0.62649 2.29335,-1.10712 3.48467,-1.45915 0.58943,-0.11028 0.79987,-0.36085 1.13046,-0.98348 0.51286,-1.03836 0.85779,-2.19551 1.21962,-3.33353 0.4143,-1.43146 0.92261,-2.79331 1.56003,-4.07292 0.59071,-1.06175 1.30285,-2.00903 2.18308,-2.64267 0.0287,0.003 0.0929,-0.0271 0.0861,0.01 -0.0339,0.18469 -0.17474,0.32679 -0.18266,0.51654 -0.0654,1.56456 -0.0853,1.55617 0.60197,2.47647 0.0667,0.0893 0.13862,0.20098 0.23281,0.21687 0.31806,0.0537 0.64123,-0.01 0.96183,-0.0152 0.48536,-0.35336 1.10489,-1.12145 0.50722,-2.00023 -0.13303,-0.19563 -0.23899,0.45343 -0.42125,0.55929 -0.22929,0.13318 -0.49738,0.0791 -0.74607,0.11873 -0.0612,0.28225 -0.36342,0.16797 -0.30224,-0.11428 v 0 c -0.19846,-0.15287 -0.37228,-0.38615 -0.59537,-0.45858 -0.11763,-0.0382 -0.29629,0.30034 -0.34427,0.15346 -0.45254,-1.38542 -0.0741,-1.94313 0.74436,-2.38538 0.37543,-0.014 0.75227,-0.0872 1.1263,-0.0422 0.14559,0.0175 0.28759,0.10895 0.40377,0.2261 1.09652,1.10588 1.11135,2.1906 0.42733,3.64838 -0.432,0.80317 -1.00183,1.44688 -1.48994,2.18777 -0.63923,1.0102 -0.95574,1.95263 -1.25824,3.2096 -0.48072,1.53029 -1.00326,3.05882 -1.84724,4.30932 -0.6867,0.95999 -1.38437,1.66691 -2.29863,2.21155 -1.00248,0.66765 -1.99658,1.3589 -3.01882,1.97276 -1.48893,0.84767 -3.02213,1.599 -4.647392,1.8183 -1.023934,0.15197 -2.052074,0.26321 -3.006135,0.82998 -1.741836,0.85162 -3.533741,1.50968 -5.398546,1.65494 -1.936629,0.11877 -3.877484,-0.004 -5.813966,-0.0972 -1.299601,-0.11257 -2.601167,-0.25429 -3.866687,-0.68701 -1.22523,-0.37944 -2.466268,-0.65349 -3.685224,-1.06606 -2.309058,-0.95892 -4.175909,-2.23725 -5.903519,-4.5406 -0.297239,-0.44924 -0.615152,-0.87603 -0.891718,-1.34774 -0.95454,-1.6281 -1.73944,-3.60032 -1.893674,-5.67908 -0.02468,-0.3326 0.0057,-0.66834 0.0086,-1.00251 -0.339651,-2.29519 2.117988,-2.92959 2.457636,-0.6344 z"
       inkscape:connector-curvature="0" />
    <path
       style="display:inline;fill:#c87137;fill-opacity:1;stroke:none;stroke-width:0.25440666;stroke-opacity:1"
       id="path864"
       d="m 62.336702,386.167 c 0.02163,-0.39233 0.0073,-0.79103 0.06488,-1.177 0.381397,-2.56103 1.539607,-4.88824 2.875245,-6.75801 0.380475,-0.53262 0.807898,-1.00314 1.211847,-1.50471 2.110935,-2.34836 4.658507,-3.63302 7.280033,-4.60034 1.644075,-0.56963 3.318552,-0.96756 5.019116,-1.02119 0.460032,0.0123 0.922377,-0.0252 1.380097,0.0369 0.989775,0.13423 2.271531,1.33155 3.088094,2.05467 1.160358,1.11717 2.371418,2.13606 3.536405,3.24483 1.283361,1.30724 2.528258,2.67848 3.810779,3.98722 1.008436,1.0323 2.114755,1.86373 3.269567,2.56982 0.787531,0.4114 1.496875,0.99783 2.178626,1.65244 0.164909,0.10542 0.723396,0.87216 0.888517,0.8559 -0.05196,-0.19329 0.384195,0.0834 0.432598,0.11006 0.159851,0.0839 0.252629,0.13619 0.412115,0.18806 0.174868,0.073 0.294585,0.29184 0.461126,0.38154 0.09222,0.0497 0.200769,0.0757 0.299164,0.13887 0.243172,0.17965 0.488308,0.34764 0.719043,0.55357 0.193929,0.17107 0.375206,0.36783 0.561191,0.55024 -0.008,-0.10851 0.410895,0.37269 0.487535,0.42446 0.28651,0.0529 0.51612,0.34789 0.73066,0.58602 0.16979,0.28439 0.5129,0.51499 0.0462,0.12417 1.70929,1.233 0.38901,4.4256 -1.32026,3.1926 v 0 c -0.29431,-0.20535 -0.56117,-0.45607 -0.823545,-0.72475 -0.206245,-0.19743 -0.431944,-0.36133 -0.612511,-0.60309 -0.140649,-0.17192 -0.152918,-0.0864 -0.362386,-0.29595 -0.148301,-0.13424 -0.291052,-0.28556 -0.458322,-0.37571 -0.268374,-0.1302 -0.514874,-0.32062 -0.758906,-0.51634 -0.02645,-0.0226 -0.675196,-0.64149 -0.384015,-0.37366 -0.04593,-0.0313 -0.127435,-0.0895 -0.240353,-0.10332 0.207581,0.25552 -0.665192,-0.14412 -0.68201,-0.14912 -0.49578,-0.28463 -0.953259,-0.65878 -1.40858,-1.04176 -0.598843,-0.44403 -1.263656,-0.61123 -1.923343,-0.84365 -1.535172,-0.64604 -2.980919,-1.56644 -4.22264,-2.94707 -1.207621,-1.31691 -2.330089,-2.76429 -3.577059,-4.01795 -1.172158,-1.12583 -2.38707,-2.18086 -3.473497,-3.45438 -0.32221,-0.37455 -0.658755,-0.84548 -1.048696,-1.10609 -0.268719,-0.1796 -0.479861,-0.091 -0.449754,-0.0874 0.142738,0.017 0.286565,0.009 0.429849,0.0129 -1.426738,0.28977 -2.757802,1.1148 -4.15178,1.58453 -2.165135,0.87774 -3.95068,1.76653 -5.673148,3.81646 -1.02391,1.2141 -0.972289,1.10551 -1.935659,2.4436 -0.848269,1.17824 -1.626257,2.45478 -2.503816,3.59588 -0.190121,0.2472 -0.399908,0.46657 -0.599862,0.69985 -0.590579,2.40255 -3.163177,1.29948 -2.572599,-1.10308 z"
       inkscape:connector-curvature="0" />
    <path
       style="display:inline;fill:#c87137;fill-opacity:1;stroke:none;stroke-width:0.25707227;stroke-opacity:1"
       d="m 79.42093,374.84202 c -1.229904,0.37435 -2.568801,0.72807 -3.636718,1.57816 -0.08415,4.13614 -0.429926,8.64852 1.089616,12.41809 4.695429,0.20687 9.505476,-0.9346 14.125267,0.67628 1.557511,0.30456 3.27027,0.44418 4.722398,-0.38776 -0.01088,-1.38196 -1.538498,-1.71998 -2.342195,-2.32771 -2.963531,-0.97041 -5.451962,-3.36696 -7.674663,-6.03962 -1.965468,-1.9702 -3.828531,-4.23686 -5.941617,-5.8886 -0.112234,-0.0319 -0.227772,-0.037 -0.342088,-0.0288 z"
       id="path866"
       inkscape:connector-curvature="0" />
    <path
       style="display:inline;fill:#c87137;fill-opacity:1;stroke:none;stroke-width:0.25707227;stroke-opacity:1"
       d="m 75.394937,376.28053 c -2.798577,1.1037 -5.300602,3.18944 -7.271253,6.03278 -0.671232,1.17191 -2.049742,2.07013 -2.107146,3.64793 0.628965,1.31238 2.197828,0.74528 3.175526,1.19591 2.443104,0.23579 4.804211,1.24367 7.240937,1.44974 1.061375,-0.69178 -0.345786,-2.40448 -0.141117,-3.61851 -0.318709,-2.82149 -0.02798,-5.8418 -0.4618,-8.6138 -0.144836,0.032 -0.290563,-0.20255 -0.435147,-0.094 z"
       id="path868"
       inkscape:connector-curvature="0" />
    <path
       style="display:inline;fill:#c87137;fill-opacity:1;stroke:none;stroke-width:0.25707227;stroke-opacity:1"
       d="m 96.587424,323.52854 c -4.342205,0.44816 -8.635181,1.13737 -13.004629,0.99536 -4.006269,0.16657 -7.954422,1.20897 -11.944722,1.63009 -1.080743,0.0494 -0.647891,1.63436 -0.08277,2.2363 1.545775,2.85592 3.491362,5.36262 5.986545,6.7064 2.229993,1.61689 4.779351,2.00288 7.280141,1.69782 6.142423,-0.21832 12.266892,-1.76201 17.972411,-4.7999 0.78189,-0.63126 2.38372,-0.15749 2.51172,-1.56661 -0.34549,-1.972 -1.67641,-3.18745 -2.37367,-4.84642 0.22326,-1.65525 -1.57184,-1.31146 -2.32515,-1.47949 -1.35428,-0.038 -2.671445,-0.55075 -4.019865,-0.57355 z"
       id="path870"
       inkscape:connector-curvature="0" />
    <path
       style="display:inline;fill:#c87137;fill-opacity:1;stroke:none;stroke-width:0.25707227;stroke-opacity:1"
       d="m 107.15199,323.72703 c -1.28229,0.007 -2.40931,0.94605 -3.68958,0.53894 -1.24851,0.12747 -0.6591,2.10165 -0.0957,2.83549 0.70699,0.93007 1.11855,2.80298 2.19628,2.96243 1.266,-1.17224 1.46213,-3.5674 2.16525,-5.29361 0.23807,-0.58277 -0.1143,-1.13114 -0.57627,-1.04325 z"
       id="path872"
       inkscape:connector-curvature="0" />
    <path
       style="display:inline;fill:#c87137;fill-opacity:1;stroke:none;stroke-width:0.25707227;stroke-opacity:1"
       d="m 122.80071,347.72945 c -3.60319,0.77652 -7.42494,0.44797 -10.75644,2.7613 -1.7699,0.64504 0.12185,3.03278 0.31508,4.44225 0.92064,2.82986 1.93836,6.00748 4.28595,7.20528 2.69148,1.41377 5.86819,0.61473 8.3709,-1.10904 2.73734,-2.50481 4.68947,-6.48056 5.53722,-10.69223 -0.40403,-1.26804 -1.85998,-0.93158 -2.70144,-1.45054 -1.66793,-0.44195 -3.33384,-1.20531 -5.05127,-1.15702 z"
       id="path874"
       inkscape:connector-curvature="0" />
    <path
       style="display:inline;fill:#c87137;fill-opacity:1;stroke:none;stroke-width:0.25707227;stroke-opacity:1"
       d="m 130.68231,349.99137 c -1.01567,1.25472 -1.12176,3.43489 -1.96472,4.93239 -1.48917,3.58621 -4.02648,6.72194 -7.19479,7.17528 -2.51322,0.56328 -5.65409,0.23868 -7.0847,-2.97166 -1.34733,-2.47447 -1.92237,-5.53273 -3.21773,-8.00447 -2.74523,1.53935 -5.34713,3.76796 -7.75884,6.13895 -1.75827,1.69579 -1.13457,4.97639 -0.77214,7.28829 2.99814,2.42475 5.95994,5.11147 9.07053,7.36521 3.10348,1.95157 6.67941,1.04262 9.99266,1.32202 2.04364,0.20825 3.60628,-2.06142 5.41908,-3.0191 4.96736,-3.66186 10.04927,-7.22849 15.63313,-8.88969 1.47639,-0.69298 3.2147,-0.74377 4.52324,-1.91963 0.21621,-1.34777 -1.26779,-1.78901 -1.86947,-2.54063 -2.96702,-2.71353 -6.72809,-2.60972 -9.98145,-4.4201 -1.65207,-0.62114 -3.15059,-1.89169 -4.7948,-2.45686 z"
       id="path876"
       inkscape:connector-curvature="0" />
    <path
       style="display:inline;fill:#c87137;fill-opacity:1;stroke:none;stroke-width:0.25707227;stroke-opacity:1"
       d="m 147.02089,359.09333 c -3.03669,1.74669 -6.45777,2.20034 -9.52095,4.0273 -4.43453,2.49812 -8.80091,5.30289 -12.9167,8.61931 -0.8554,0.63817 -0.1596,1.87124 0.58501,2.03516 2.58763,1.28101 4.31368,4.56863 7.08557,5.35535 3.53903,1.22058 7.10049,2.48962 10.71311,3.22728 1.47131,0.68327 1.64444,-1.28976 1.8022,-2.70046 0.90703,-5.51164 3.06935,-10.74241 2.82243,-16.53316 -0.24049,-1.11454 0.72089,-4.02908 -0.57067,-4.03078 z"
       id="path878"
       inkscape:connector-curvature="0" />
    <path
       style="display:inline;fill:#6c5d53;fill-opacity:1;stroke:none;stroke-width:0.25440666;stroke-opacity:1"
       id="path880"
       d="m 173.01719,337.91801 c -0.12198,0.15135 -0.23603,0.31469 -0.36596,0.45403 -0.66731,0.71565 -1.42278,1.28982 -2.12788,1.93519 -0.78369,0.71731 -0.93531,0.8883 -1.69698,1.65551 -1.48437,1.54389 -2.77852,3.36203 -3.99618,5.26078 -0.55123,0.83557 -0.91886,1.75317 -1.09275,2.82917 -0.14338,1.05606 -0.36356,2.08795 -0.60034,3.11281 -0.10744,0.58009 -0.29399,1.29993 -0.0666,1.86731 0.41064,0.57785 0.9154,1.02868 1.39402,1.5035 0.7039,0.70186 1.3475,1.49639 1.97984,2.30578 0.51111,0.65442 0.97585,1.36643 1.45561,2.05983 0.44646,0.63252 0.90117,1.25302 1.32877,1.9081 0.27999,0.45137 0.65372,0.75755 1.02416,1.06021 0.57924,0.40267 0.92286,1.10583 1.21461,1.85101 0.1615,0.48652 0.35839,0.9688 0.42612,1.49771 -0.006,0.0262 -0.006,0.0587 -0.0354,0.008 -0.20979,-0.36606 -0.32451,-0.74496 -0.72104,-0.88555 -0.33591,-0.11909 -2.2618,0.0119 -0.0285,-0.10144 0.60187,0.18213 0.97395,0.79635 1.15569,1.53246 0.0101,0.27177 0.007,0.54496 0.0299,0.81533 0.007,0.0918 0.0213,-0.18429 0.0164,-0.27649 -0.0295,-0.53945 -0.16187,-0.92394 -0.40748,-1.33995 -0.48282,-0.48315 -1.05778,-0.90407 0.79512,1.31724 0.0648,0.0777 -0.0299,-0.22768 -0.0448,-0.34152 0.0878,-0.1569 0.27666,0.16537 0.28384,0.2818 -0.48565,-0.43422 -0.46061,-0.44299 0.31367,1.94736 0.0613,0.18936 0.0663,-0.4055 0.0672,-0.61144 0.003,-0.47704 -0.19372,-0.79829 -0.41388,-1.13565 0.004,-0.5472 -2.00726,-0.38096 -1.50587,-0.28187 0.44186,0.0873 0.90542,-0.12219 1.3403,0.013 0.35662,0.11089 0.69107,0.79466 0.80991,1.21051 0.0533,0.18692 0.0548,0.39296 0.0822,0.58944 -0.0194,0.74095 -0.26864,1.62967 -0.84929,1.91549 -0.0987,0.0486 0.22234,-0.11069 0.25759,-0.24181 0.19709,-0.73313 0.27807,-1.51199 0.41711,-2.26798 0.65196,0.85906 -0.55386,1.8004 -0.97098,2.51859 -1.31679,0.55371 -1.90968,-1.90577 -0.59291,-2.45948 v 0 c -0.30044,0.66536 -0.61347,1.32108 -0.90136,1.99606 -0.0108,0.0252 0.0161,0.0559 0.014,0.0846 -0.01,0.13073 -0.21848,-0.37765 -0.19194,-0.31385 0.2964,-2.19724 -0.17337,-2.04358 0.61324,-2.70873 0.093,-0.0787 -0.19326,0.14833 -0.27085,0.25215 -0.31645,0.42336 -0.46673,0.87147 -0.45953,1.46135 0.0849,0.53031 0.28228,1.34284 0.77467,1.47634 0.40366,0.10951 1.38288,-0.52783 1.23616,-0.0192 -0.26315,0.91232 -1.36111,-0.01 -1.70306,-0.25572 -0.32912,-0.43352 -0.61845,-0.86081 -0.65188,-1.51607 -0.014,-0.27448 -0.0628,-1.05224 0.0517,-0.82249 1.34577,2.69878 0.73431,2.08158 0.30743,1.68773 -0.31965,-0.29572 -0.57347,-0.67462 -0.72581,-1.15643 -0.26821,-1.08883 -0.28523,-0.88269 0.85584,0.79814 0.0173,0.0255 -0.0523,0.002 -0.0779,-0.004 -0.20798,-0.0507 -0.40199,-0.1523 -0.57958,-0.30447 -0.28864,-0.2894 -0.51697,-0.59057 -0.64061,-1.06266 -0.0539,-0.20598 -0.0759,-0.42547 -0.0926,-0.6423 -0.009,-0.12282 -0.005,-0.49034 0.0149,-0.36982 0.0393,0.23469 0.029,0.47914 0.0435,0.71871 0.13788,0.55463 0.38654,0.97812 0.81764,1.19534 0.28347,-0.0176 1.12531,0.0405 0.85042,-0.0526 -0.35593,-0.12059 -0.74456,0.0793 -1.10208,-0.0327 -0.48797,-0.15288 -0.76085,-0.81821 -1.01246,-1.31967 -0.19323,-0.41553 -0.33908,-0.85821 -0.4491,-1.32443 -0.007,-0.0324 -0.047,-0.10962 -0.0231,-0.0971 0.0312,0.0164 0.0353,0.0756 0.0533,0.11299 0.0115,0.0239 0.0423,0.0439 0.0357,0.0709 -0.0286,0.11788 -0.44495,-0.3542 -0.43925,-0.24288 -0.62792,-0.47471 -1.19434,-1.06522 -1.65573,-1.80705 -0.4228,-0.62477 -0.83324,-1.26412 -1.26068,-1.88354 -0.42969,-0.62004 -0.88451,-1.20952 -1.3593,-1.76933 -0.61662,-0.70786 -1.24166,-1.4034 -1.88548,-2.06794 -0.8781,-0.9639 -1.69547,-2.01171 -2.04818,-3.49376 -0.24402,-1.34373 -0.26936,-2.55848 0.0211,-3.90003 0.20484,-0.85695 0.47849,-1.6945 0.55982,-2.59369 0.13322,-1.62102 0.30986,-3.2317 0.92214,-4.68312 0.15024,-0.35145 0.28708,-0.71348 0.45071,-1.05432 1.03725,-2.16063 2.41349,-4.01053 3.90057,-5.63158 1.6769,-1.65948 3.50811,-3.27577 5.65634,-3.50753 1.75405,-1.37866 3.2303,1.89758 1.47623,3.27622 z"
       inkscape:connector-curvature="0" />
    <path
       style="display:inline;fill:#6c5d53;fill-opacity:1;stroke:none;stroke-width:0.25440666;stroke-opacity:1"
       id="path882"
       d="m 92.000698,324.26244 c -0.06239,0.252 -0.113289,0.50948 -0.187163,0.756 -0.30051,1.00281 -0.722266,1.93633 -1.057496,2.91854 -0.307289,0.90036 -0.326806,1.02871 -0.570974,1.93445 -0.183525,0.87165 -0.536045,2.12094 -0.08147,2.96948 0.07278,0.13587 0.175362,0.23907 0.263039,0.3586 0.143404,0.13915 0.28312,0.28521 0.430209,0.41749 0.742855,0.66809 1.515266,1.28011 2.254867,1.95524 0.483031,0.44091 1.617649,1.54681 2.069982,1.98482 2.244038,2.35857 4.55407,4.59669 6.936248,6.70485 1.61869,1.41533 3.27426,2.87059 4.45001,4.95453 0.20157,0.35724 0.3687,0.74621 0.55304,1.11933 0.74275,1.64318 1.07014,3.52402 1.68668,5.24189 0.38984,0.973 0.99547,1.73298 1.58018,2.49933 0.13865,0.1325 0.81003,1.29145 0.93371,1.28559 0.0162,-8.7e-4 0.0155,-0.0375 0.0233,-0.0561 -0.0957,-0.78177 0.51789,0.37156 -0.5741,-0.34854 -0.0992,-0.0654 0.21323,-0.0813 0.32067,-0.11796 0.40108,-0.13658 0.49211,-0.1548 0.90802,-0.26975 0.9577,-0.23876 1.89375,-0.53427 2.74069,-1.18438 0.84795,-0.83105 1.36187,-2.08649 1.8424,-3.29813 0.36163,-0.92611 0.67513,-1.87058 0.73988,-2.91428 -0.01,-1.40751 -0.14776,-2.80804 -0.21632,-4.21253 -0.0972,-1.54925 0.0845,-3.15286 -0.31228,-4.64353 -0.29916,-0.91118 -0.87923,-1.55602 -1.40914,-2.2296 -0.77555,-0.9459 -1.29045,-2.12658 -1.69648,-3.39659 -0.33794,-1.3056 -0.59901,-2.64236 -0.92297,-3.95408 -0.26685,-1.1952 -0.62288,-2.35035 -0.91484,-3.5345 -0.32181,-1.23018 -0.39221,-2.51365 -0.3459,-3.80309 0.0507,-0.7102 0.14436,-1.41407 0.23559,-2.11686 0.28998,-2.22946 0.27731,-0.96329 3.42629,-0.58594 -0.15836,1.66414 -4.05552,1.31194 -3.24833,0.0206 0.89333,-0.39878 1.7927,-0.77473 2.68,-1.19632 0.0546,-0.026 -0.13723,-0.0495 -0.17395,0.01 -0.10911,0.17637 0.0253,0.45623 0.0652,0.67782 0.81537,0.67426 0.0933,2.1972 -0.72197,1.52293 v 0 c -0.0599,0.13266 -0.0836,0.31017 -0.17975,0.39797 -0.14668,0.1338 -0.55347,0.0415 -0.68989,-0.0161 -0.11895,-0.0503 -0.44626,-0.13204 -0.33787,-0.21402 0.78364,-0.5927 1.65929,-0.94195 2.48893,-1.41292 0.0543,-0.013 0.16653,0.15339 0.11164,0.16194 -0.55503,0.0864 -2.79508,1.57482 -3.32257,0.28502 1.08202,0.0262 2.16387,0.0854 3.24606,0.0785 0.0271,-1.8e-4 0.0135,-0.0718 0.0307,-0.0995 0.0631,-0.10122 0.0555,0.61599 0.0836,0.47149 0.0354,0.71665 0.0109,1.43385 1e-5,2.15123 -0.006,0.75811 0.0307,1.50244 0.27469,2.20359 0.39712,1.2266 0.84685,2.42871 1.11177,3.72235 0.26102,1.21023 0.45781,2.4358 0.66198,3.66385 0.20632,0.74829 0.57916,1.27547 1.05518,1.76333 0.96667,1.14067 1.81299,2.42582 2.27622,4.0542 0.20758,0.85359 0.29916,1.12035 0.40902,2.00364 0.16209,1.30328 0.12875,2.63204 0.11236,3.94635 -0.0387,1.53137 -0.11218,3.05972 -0.22567,4.58479 -0.0859,1.53625 -0.19534,3.07162 -0.65268,4.51004 -0.71787,2.1019 -1.57935,3.81131 -3.0335,5.15679 -1.2244,1.0088 -2.48056,1.7179 -3.9384,1.85496 -0.50138,0.0366 -0.98995,0.0276 -1.49132,0.0192 -0.94761,-0.0159 -1.34362,0.088 -2.13476,-0.43233 -0.64243,-0.50162 -1.22338,-1.11529 -1.79145,-1.75314 -0.86209,-1.02631 -1.68729,-2.11534 -2.26218,-3.46393 -0.3373,-0.82872 -0.33318,-0.7801 -0.62007,-1.63762 -0.33031,-0.98725 -0.57581,-2.03582 -1.04929,-2.92786 -0.12598,-0.19409 -0.24016,-0.40272 -0.37796,-0.58227 -1.19234,-1.55367 -3.02864,-2.31454 -4.395876,-3.5541 -1.114769,-0.91053 -1.487284,-1.17756 -2.5585,-2.20611 -1.621329,-1.55677 -3.094618,-3.35682 -4.527406,-5.20267 -1.532712,-1.99364 -3.224234,-3.8746 -4.29733,-6.37579 -0.11539,-0.34063 -0.2492,-0.67138 -0.346174,-1.02188 -0.46327,-1.67441 -0.384889,-3.4838 -0.01063,-5.16975 0.660199,-2.2092 1.500499,-4.44401 3.036723,-5.80703 0.738199,-1.52945 2.375891,-0.15064 1.637693,1.3788 z"
       inkscape:connector-curvature="0" />
    <path
       style="display:inline;fill:#6c5d53;fill-opacity:1;stroke:none;stroke-width:0.25440666;stroke-opacity:1"
       id="path886"
       d="m 84.122357,352.32575 c -1.278892,1.17176 -2.881844,1.56237 -4.36895,2.06413 -1.378105,0.40127 -2.690347,1.01899 -3.961385,1.81988 -1.59836,1.0886 -2.867944,2.74064 -4.011115,4.54078 -0.91062,1.47912 -1.645075,3.12307 -2.348087,4.78213 -0.365052,0.82007 -0.595151,1.20165 -0.435016,2.13368 0.405638,1.43103 0.851195,2.83942 1.226749,4.28522 0.395506,1.57647 0.810763,3.14379 1.411701,4.60603 0.605556,1.25905 1.080643,1.73434 2.173817,2.05932 0.647254,0.10951 1.30069,0.0662 1.94915,0.006 0.271297,-0.0256 0.545252,-0.0288 0.812963,-0.0923 0.0514,-0.0121 -0.200587,-0.0577 -0.148675,-0.0652 0.295411,-0.0422 0.593914,-0.0273 0.890874,-0.041 1.18936,-0.0258 2.38437,-0.0204 3.572065,0.0702 0.692367,0.0528 1.391151,0.25595 2.073413,0.4119 0.691046,0.16456 1.38926,0.24493 2.091348,0.22496 0.172554,-0.004 0.362628,0.0698 0.51723,-0.0315 0.125379,-0.0822 -0.279445,-0.0219 -0.419168,-0.0328 1.213431,-0.12915 2.187612,-1.00236 3.126831,-1.94727 0.753358,-0.86528 1.501782,-1.87846 1.767699,-3.19151 0.04091,-0.202 0.05551,-0.41174 0.08326,-0.61759 0.006,-1.60168 -0.295304,-3.17753 -0.526581,-4.74219 -0.199751,-1.29553 -0.410074,-2.58786 -0.580529,-3.89092 -0.143882,-1.00899 -0.034,-2.02669 -0.02154,-3.04084 -0.06315,-0.64685 -0.595402,-0.91815 -0.959528,-1.25216 -1.215719,-0.99521 -2.342234,-2.16533 -3.430514,-3.38724 -0.627246,-0.70451 -1.190126,-1.5001 -1.841176,-2.16707 -0.450753,-0.33781 -0.858777,-0.76221 -1.18265,-1.29768 -0.03925,-0.14842 -0.01087,0.008 0.05232,-0.0217 2.930454,-1.36882 3.165045,-1.26571 1.410768,-1.10211 -0.086,0.53965 -0.663846,0.37904 -0.577849,-0.16062 v 0 c -0.295894,-0.14445 -1.112789,-0.14146 -0.887676,-0.43333 1.764013,-2.28713 1.765044,-2.1167 2.728676,-1.39184 0.338511,0.21726 0.657452,0.48506 0.975313,0.74996 0.819327,0.61576 1.626956,1.26124 2.385329,2.00301 1.256563,1.22225 2.506505,2.49116 3.535707,4.05177 0.840299,1.43569 1.342618,2.65216 1.327471,4.50997 -0.01651,0.68124 -0.117561,1.36974 0.04254,2.03486 0.299084,1.29325 0.710755,2.5368 0.959039,3.8517 0.376145,2.09007 0.704014,4.22654 0.5899,6.38664 -0.04769,0.42376 -0.07338,0.85284 -0.143013,1.27126 -0.382303,2.29767 -1.368154,4.26199 -2.707512,5.78537 -0.2861,0.27503 -0.559839,0.57404 -0.858302,0.82514 -1.258226,1.05849 -2.705736,1.70107 -4.187449,1.8822 -0.52662,0.0152 -1.05312,0.0424 -1.579862,0.0457 -0.990351,0.007 -1.975817,-0.19025 -2.961916,-0.27812 -1.644182,-0.11457 -1.667946,0.0255 -3.253919,0.0821 -2.226917,0.0786 -4.490955,0.13908 -6.549762,-1.15123 -0.24837,-0.17722 -0.504971,-0.33565 -0.745109,-0.53167 -1.070712,-0.87398 -1.908841,-2.12499 -2.56173,-3.53269 -0.72443,-1.66157 -1.347362,-3.39253 -1.771908,-5.23161 -0.392489,-1.6745 -0.747239,-3.37229 -0.887774,-5.12096 -0.06023,-1.4102 0.01715,-2.64499 0.381594,-3.98622 0.507187,-2.1708 1.069373,-4.32455 2.106978,-6.17347 0.62202,-1.05276 0.831189,-1.47959 1.56325,-2.42024 1.087005,-1.39676 2.371177,-2.50242 3.760517,-3.297 0.291571,-0.15337 0.579018,-0.32118 0.874709,-0.46011 1.179806,-0.55433 2.421977,-0.8293 3.624489,-1.27799 1.581746,-0.58745 3.191532,-1.36805 4.858796,-1.11995 1.608831,-0.96583 2.643026,2.03913 1.034195,3.00497 z"
       inkscape:connector-curvature="0" />
    <path
       style="display:inline;fill:#6c5d53;fill-opacity:1;stroke:none;stroke-width:0.25707227;stroke-opacity:1"
       d="m 75.908727,355.88739 c -2.7835,1.48863 -4.712652,4.89976 -6.193101,8.23316 -0.657889,1.37302 -1.44955,2.99372 -0.718471,4.61113 0.581505,1.57492 0.627994,3.72977 1.677562,4.90609 1.132975,0.13667 2.196409,-0.9295 3.349564,-1.07443 1.292045,-0.73183 3.009983,-0.26979 4.073728,-1.58449 1.616425,-4.7691 0.719666,-10.61888 -1.566706,-14.74179 -0.161443,-0.2197 -0.383303,-0.38555 -0.622576,-0.34967 z"
       id="path888"
       inkscape:connector-curvature="0" />
    <path
       style="display:inline;fill:#6c5d53;fill-opacity:1;stroke:none;stroke-width:0.25707227;stroke-opacity:1"
       d="m 78.454078,370.61648 c -1.167951,0.29381 -2.24596,1.05539 -3.450601,1.1927 -1.466778,0.57988 -3.111608,0.79907 -4.419634,1.86378 -0.232427,1.52344 0.839677,2.90048 1.438696,4.09918 1.071454,2.1254 3.148045,0.88635 4.741571,1.15456 2.395434,-0.18585 4.76807,0.2011 7.142425,0.46975 1.280029,-0.1394 3.133628,0.0708 3.834194,-1.64047 0.0085,-1.59039 -1.569861,-2.09896 -2.295104,-3.06717 -2.156784,-1.81562 -4.232725,-4.43121 -6.991547,-4.07233 z"
       id="path890"
       inkscape:connector-curvature="0" />
    <path
       style="display:inline;fill:#6c5d53;fill-opacity:1;stroke:none;stroke-width:0.25707227;stroke-opacity:1"
       d="m 81.288656,353.46735 c -1.609185,0.50434 -3.342896,0.90946 -4.77614,1.99997 -0.266463,1.74661 0.972098,3.24777 1.259134,4.91161 0.877474,3.20998 1.092627,6.79777 0.137622,10.04424 0.227489,1.4506 1.760855,0.38049 2.579429,0.98787 2.513708,1.22322 4.655319,3.50581 6.767512,5.61154 0.447267,1.51946 1.734669,-0.0178 2.140785,-0.80494 1.7932,-2.62559 0.602403,-6.41209 0.287041,-9.4499 -0.410891,-1.89727 -0.249165,-3.95425 -0.657527,-5.81178 -1.517741,-1.78023 -3.315483,-3.10809 -4.786611,-5.01734 -0.916311,-0.84834 -1.781055,-2.30664 -2.951245,-2.47127 z"
       id="path892"
       inkscape:connector-curvature="0" />
    <path
       style="display:inline;fill:#6c5d53;fill-opacity:1;stroke:none;stroke-width:0.25707227;stroke-opacity:1"
       d="m 111.17013,326.03339 c -1.26066,0.9063 -1.39877,3.25722 -2.23167,4.68715 -0.67456,2.01619 -2.26922,2.85304 -3.37851,4.30517 -0.55256,1.6269 0.40862,3.43439 0.70297,5.0276 0.67873,2.16672 1.32545,4.47542 2.52438,6.23531 1.90277,-0.4163 3.76639,-1.37031 5.72462,-1.60555 0.83496,-0.44914 2.44313,0.12552 2.72144,-1.3263 -0.47535,-3.0109 -3.00658,-4.58406 -3.46197,-7.66806 -0.78381,-3.07829 -1.61796,-6.17174 -2.07481,-9.32181 -0.10803,-0.23348 -0.31934,-0.37493 -0.52645,-0.33351 z"
       id="path894"
       inkscape:connector-curvature="0" />
    <path
       style="display:inline;fill:#6c5d53;fill-opacity:1;stroke:none;stroke-width:0.25707227;stroke-opacity:1"
       d="m 105.15626,334.90339 c -2.45,1.8399 -5.217531,2.839 -7.979901,3.52041 -1.10228,0.6836 0.163449,1.96945 0.738742,2.42722 2.535229,2.5192 5.255149,4.76598 7.668009,7.46179 1.07133,-0.22921 2.18808,-1.05306 3.0823,-1.90994 0.45958,-1.0985 -0.74308,-1.8904 -0.89478,-2.9232 -0.98316,-2.68755 -1.90927,-5.54278 -2.12417,-8.49608 -0.16318,0.009 -0.32808,-0.25193 -0.4902,-0.0802 z"
       id="path896"
       inkscape:connector-curvature="0" />
    <path
       style="display:inline;fill:#6c5d53;fill-opacity:1;stroke:none;stroke-width:0.25707227;stroke-opacity:1"
       d="m 96.58961,323.43333 c -1.54688,0.29786 -3.300271,0.0487 -4.699687,0.98958 -1.119221,2.26026 -2.188771,4.84886 -2.304187,7.59363 0.362999,1.93906 2.130256,2.64251 3.178854,3.85162 1.344692,0.89965 2.312,2.76746 3.791812,3.25961 3.456008,-0.99934 6.941098,-2.36376 10.035488,-4.6762 2.55394,-2.15757 3.4198,-6.1769 5.13921,-9.24217 0.44256,-1.57774 -1.24898,-1.82413 -2.05122,-1.67452 -4.0361,0.29246 -8.09609,1.257 -12.112494,0.0727 -0.326702,-0.0962 -0.633919,-0.25407 -0.977776,-0.17426 z m 8.78683,6.7327 c 0.45107,0.32759 -0.0942,0.20531 0,0 z"
       id="path898"
       inkscape:connector-curvature="0" />
    <path
       style="display:inline;fill:#6c5d53;fill-opacity:1;stroke:none;stroke-width:0.25707227;stroke-opacity:1"
       d="m 116.56185,343.82474 c -3.30213,0.61899 -6.74587,1.29605 -9.68204,3.44771 -1.16453,0.007 -0.96698,1.94178 -0.38884,2.74373 1.30254,2.76681 1.70315,6.23654 3.67498,8.42962 0.80322,1.68338 2.36803,0.18927 3.50365,-0.0466 2.91911,-1.4025 4.14674,-5.98356 3.84205,-9.80188 -0.24039,-1.48516 0.29389,-3.54374 -0.61121,-4.6912 -0.10466,-0.0672 -0.22302,-0.0916 -0.33859,-0.0813 z"
       id="path900"
       inkscape:connector-curvature="0" />
    <path
       style="display:inline;fill:#6c5d53;fill-opacity:1;stroke:none;stroke-width:0.25707227;stroke-opacity:1"
       d="m 173.21845,337.66155 c -3.40432,2.28276 -6.34194,5.76443 -8.79994,9.6005 -0.62495,1.31796 -1.42668,3.00471 -1.07478,4.60003 0.84527,0.70722 2.02606,-0.1637 3.00974,0.001 1.80076,-0.0965 4.00748,-0.67528 5.42977,1.19642 1.04367,-0.15389 1.5661,1.97082 2.56677,1.3987 0.64358,-2.35341 0.36061,-5.04698 0.48312,-7.53188 -0.0689,-3.0237 -0.18397,-6.21505 -1.10308,-9.01483 -0.11896,-0.20143 -0.32085,-0.31222 -0.5116,-0.25042 z"
       id="path902"
       inkscape:connector-curvature="0" />
    <path
       style="display:inline;fill:#6c5d53;fill-opacity:1;stroke:none;stroke-width:0.25707227;stroke-opacity:1"
       d="m 166.84415,351.44893 c -1.24157,0.23503 -2.90728,-0.30753 -3.84032,1.02999 -0.51804,1.21128 -0.53564,2.90244 0.54255,3.58595 2.50592,2.82475 4.69729,6.12162 7.17171,8.97872 0.76078,1.20841 1.04587,3.44119 2.39724,3.69179 0.86911,-0.8842 0.50693,-2.80427 0.83055,-4.09397 0.37654,-2.675 0.3658,-5.49214 0.75015,-8.11987 0.48574,-0.69065 0.13424,-1.97517 -0.60685,-1.7905 -1.50432,-1.81176 -3.32777,-3.55421 -5.48016,-3.26249 -0.588,-0.0293 -1.17658,-0.0317 -1.76487,-0.0196 z m 2.71267,3.36808 c 0.25525,1.63369 -0.65488,-0.17188 0,0 z"
       id="path904"
       inkscape:connector-curvature="0" />
    <path
       style="display:inline;fill:#6c5d53;fill-opacity:1;stroke:none;stroke-width:0.25440666;stroke-opacity:1"
       id="path906"
       d="m 140.92271,388.62335 c -0.074,-0.2864 -0.17432,-0.56318 -0.22187,-0.8592 -0.37076,-2.30775 0.19766,-4.57589 0.84277,-6.68909 0.64301,-1.90488 1.62216,-3.55013 2.45387,-5.30824 0.41491,-0.87376 0.74412,-1.84743 1.30125,-2.58963 0.14463,-0.19266 0.31012,-0.35589 0.46518,-0.53385 1.11597,-1.02401 2.45523,-0.79166 3.74187,-0.70851 1.34473,0.0333 2.45914,1.01088 3.48016,2.06731 0.78433,0.8846 1.50741,1.86919 2.396,2.57483 0.85803,0.45178 1.39208,0.92482 2.05724,1.79494 0.68276,0.96354 1.03419,2.19239 1.46795,3.35386 0.27652,0.66454 0.67207,1.21846 1.01144,1.82628 0.40853,0.72219 0.82134,1.44474 1.11232,2.26369 0.56152,2.0893 -0.39969,1.36637 -3.08155,2.25472 -0.026,0.009 -0.12304,-0.58832 -0.12398,-0.59369 -0.44745,-1.69089 3.17699,-3.33149 3.17187,-1.52639 -0.002,0.49077 0.17265,1.05432 -0.0224,1.47203 -0.23454,0.50223 -0.67323,1.00028 -1.11953,0.97334 -0.33342,-0.0201 -0.38806,-0.71735 -0.58208,-1.07603 -0.17811,-0.0803 -0.0921,-0.41296 0.086,-0.33266 v 0 c -0.0641,-0.34278 0.0745,-1.00806 -0.19233,-1.02833 -1.26052,-0.0957 -0.88737,1.56901 -0.94323,2.29832 -0.004,0.0425 -0.12723,0.0224 -0.097,0.007 3.1013,-1.60439 3.10775,-0.0974 3.0005,-1.86779 -0.003,-0.0323 -0.004,-0.0645 -0.007,-0.0969 0.005,-0.006 0.0107,-0.0111 0.0162,-0.016 -1.03814,0.57353 -2.07628,1.14706 -3.1144,1.72061 -0.0517,0.0325 0.0344,0.1559 0.0132,0.22617 -0.0322,0.10697 -0.32407,-0.35773 -0.21514,-0.19635 -0.4013,-0.59989 -0.70719,-1.28931 -1.0511,-1.94562 -0.47204,-0.77798 -1.00513,-1.49842 -1.37059,-2.38037 -0.31263,-0.75972 -0.57641,-1.55148 -0.8989,-2.3034 -0.0878,-0.11637 -0.18258,-0.11836 -0.30781,-0.17014 -0.4308,-0.17815 -0.85661,-0.37701 -1.26223,-0.64176 -1.09829,-0.77694 -2.0595,-1.78926 -2.92812,-2.96974 -0.63596,-0.74241 -0.82878,-0.86293 -1.68522,-0.91785 -0.1257,-0.0189 -0.25126,-0.0393 -0.37709,-0.0567 -0.1045,-0.0144 -0.41744,-0.0154 -0.31383,-0.0383 0.22469,-0.0498 0.45865,0.0111 0.68275,-0.0435 0.0529,-0.0128 -0.10974,-0.0358 -0.14749,-0.0863 -0.0622,-0.0832 0.0426,-0.27462 0.058,-0.3157 0.0204,-0.0597 0.0439,-0.11754 0.0611,-0.17895 0.004,-0.0141 0.007,-0.0583 0.002,-0.0452 -0.23623,0.55852 -0.24728,1.256 -0.46387,1.82541 -0.53282,1.84387 -1.25281,3.55957 -1.94594,5.30443 -0.55825,1.63896 -0.93549,3.31907 -1.33638,5.03051 0.27998,3.37359 -3.33237,3.89657 -3.61237,0.52297 z"
       inkscape:connector-curvature="0" />
    <path
       style="display:inline;fill:#6c5d53;fill-opacity:1;stroke:none;stroke-width:0.25707227;stroke-opacity:1"
       d="m 149.26303,376.83793 c -1.09384,1.65267 -1.26196,4.13625 -2.08617,6.05067 -0.40851,1.65644 -1.48761,2.59232 -2.49117,3.58504 -0.66809,0.78681 0.01,2.14034 0.83795,1.67509 3.65685,-0.36737 7.38044,-1.01567 10.87175,-2.40278 0.30937,-1.2032 -0.95334,-2.24664 -1.17616,-3.50073 -0.75401,-1.92587 -2.71087,-2.00174 -3.78395,-3.53716 -0.71185,-0.57124 -1.295,-1.83829 -2.17225,-1.87013 z"
       id="path908"
       inkscape:connector-curvature="0" />
    <path
       style="display:inline;fill:#6c5d53;fill-opacity:1;stroke:none;stroke-width:0.25707227;stroke-opacity:1"
       d="m 148.5024,376.21187 c -1.21807,0.11293 -1.02114,2.28221 -1.64579,3.2723 -0.57386,1.96348 -1.58218,3.80359 -1.88433,5.85735 0.52325,1.29493 1.63482,-0.24136 1.96735,-1.03287 0.94236,-2.33975 1.5899,-4.89832 2.46933,-7.22144 0.004,-0.63168 -0.49582,-0.91225 -0.90656,-0.87534 z"
       id="path910"
       inkscape:connector-curvature="0" />
  </g>
  <g
     inkscape:groupmode="layer"
     id="layer1"
     inkscape:label="arm 1"
     style="display:inline"
     sodipodi:insensitive="true">
    <path
       style="fill:#000000;fill-opacity:1;stroke:none;stroke-width:0.26131126;stroke-opacity:1"
       id="path849"
       d="m 57.292574,88.595011 c 0.359757,-0.0206 0.719233,-0.06999 1.079271,-0.0618 0.880829,0.02002 1.949924,0.200028 2.815633,0.348182 1.426464,0.244114 2.850061,0.524427 4.275428,0.780184 1.906534,0.271872 3.810157,0.57121 5.702945,0.981067 1.675008,0.531425 3.353664,0.935128 5.076487,0.991681 1.009469,-0.100444 2.238536,0.01502 3.225418,-0.234961 0.16441,-0.04164 -0.666477,-0.02648 -0.500424,-0.05426 0.402406,-0.06732 2.074808,-0.0873 2.480904,-0.09572 0.406138,0.0053 0.812304,0.0078 1.218416,0.01601 0.95603,0.01951 1.912903,0.0073 2.867983,0.06739 1.327013,0.08344 2.654697,0.562571 3.95822,0.875074 0.69302,0.1546 1.388813,0.291021 2.092898,0.298511 0.206005,0.0022 0.822157,0.0139 0.617835,-0.02116 -0.314006,-0.0539 -0.640982,0.05931 -0.949432,-0.03575 -0.218191,-0.06724 0.447214,-0.03341 0.67082,-0.05011 2.027,-0.236396 4.060234,-0.228692 6.092877,-0.228671 1.768636,0.202905 3.539877,0.128281 5.309297,0.0015 0.37795,-0.02834 0.76426,0.02391 1.13387,-0.08502 0.20049,-0.05909 -0.81681,-0.02618 -0.61391,-0.06824 0.4003,-0.08299 0.80963,-0.04281 1.21462,-0.05632 1.21263,-0.04047 2.42541,-0.02677 3.63821,-0.01737 2.52503,0.109688 5.05073,0.169017 7.57609,0.265893 0.83845,0.02473 1.6769,-0.0073 2.51524,-0.02081 0.28392,-0.0045 1.13026,0.06325 0.85178,-0.01048 -0.28981,-0.07675 -0.59367,-0.05188 -0.88643,0.0013 -0.26661,0.04845 0.53814,0.0087 0.8072,0.01308 1.26871,0.04946 2.53599,0.144388 3.80346,0.230981 1.56139,0.07229 3.12274,-0.04465 4.68365,0.0073 0.64716,0.122494 3.79303,0.07553 0.68029,0.214651 0.2877,0.09721 0.56926,0.126182 0.86228,0.07318 1.25776,0.115863 2.4758,-0.190066 3.71522,-0.375587 -0.32936,-0.371649 1.90672,0.152626 1.4837,-0.194622 -0.26977,-0.221439 -0.65061,0.08495 -0.94987,-0.05391 -0.24766,-0.114911 0.52442,-0.01436 0.78663,-0.02183 1.89886,-0.05417 -0.35462,0.0086 1.51488,-0.04313 1.34287,-0.05456 2.68499,-0.160693 4.02218,-0.33503 1.40415,-0.165604 2.79636,-0.462031 4.19565,-0.68139 1.07433,-0.202301 2.15701,-0.205503 3.2377,-0.271688 0.97219,-0.220277 1.88246,-0.119644 2.89172,-0.122165 0.17074,-3.02e-4 0.67485,-0.09869 0.50466,-0.116741 -0.46687,-0.04951 -0.93656,-0.02011 -1.40484,-0.03016 0.98954,-0.192005 1.96616,-0.479526 2.94598,-0.742415 1.08413,-0.310823 2.18477,-0.497858 3.27229,-0.781936 0.90584,-0.306562 1.81293,-0.588078 2.73774,-0.772175 0.48205,-0.06917 0.94892,-0.227119 1.42083,-0.36084 0.47362,-0.252505 0.93936,-0.527174 1.39063,-0.845141 0.53968,-0.375398 1.1289,-0.581908 1.69363,-0.872387 0.67282,-0.308903 1.33262,-0.665433 2,-0.994284 0.84888,-0.482347 1.74722,-0.683645 2.65811,-0.801334 0.42951,0.04468 0.77278,-0.03272 1.1881,-0.185013 0.35492,-0.133653 0.50109,-0.262712 0.73753,0.183191 0.49531,0.942961 0.93199,1.948254 1.39832,2.921632 0.16159,-0.91659 1.13514,-0.612334 0.97356,0.304254 v 0 c 0.55085,1.305987 1.1487,2.052186 0.80692,3.477202 -0.11434,0.163202 -0.20753,0.358207 -0.34302,0.489608 -0.45946,0.445595 -1.19003,0.573821 -1.73748,0.466389 0.27298,-0.417933 -0.21605,0.211005 -0.37104,0.173559 -0.7099,0.333519 -1.43149,0.580535 -2.18,0.70815 -0.63014,0.183646 -1.26628,0.360167 -1.87533,0.645583 -0.50847,0.19862 -0.994,0.494632 -1.51198,0.657636 -0.42176,0.112435 -0.79658,0.395364 -1.17751,0.650848 -0.70319,0.520656 -1.43133,0.989541 -2.19746,1.323002 -0.85607,0.349909 -1.73017,0.510504 -2.60001,0.771066 -1.17883,0.518288 -2.35132,1.0746 -3.58736,1.30851 -1.22483,0.263328 -2.4576,0.491075 -3.69565,0.600808 -0.72691,0.01071 -1.45392,0.05031 -2.18075,0.03202 -0.13548,-0.0035 -0.26626,-0.06742 -0.39993,-0.09698 -0.0911,-0.02013 -0.36646,-0.04771 -0.2742,-0.05205 0.49482,-0.0232 1.98024,-0.02868 1.48514,-0.03372 -1.07938,0.556085 -2.18718,0.975316 -3.33777,1.181099 -1.50045,0.268608 -3.01028,0.420558 -4.52196,0.525818 -1.34278,0.10917 -2.67215,0.36813 -4.00188,0.63434 -2.21148,0.34085 -4.46595,0.43747 -6.67635,0.0287 -0.66283,-0.10633 -3.53793,-0.53889 -0.48566,-0.38576 -0.28069,-0.0626 -0.54979,0.0343 -0.82562,0.10814 -1.336,0.0458 -2.67006,0.14373 -4.00642,0.13423 -0.65644,-0.0116 -1.31221,-0.0458 -1.9687,-0.0481 -0.16266,-6e-4 -0.65065,-0.003 -0.48799,-0.002 0.37804,0.004 0.75609,0.005 1.13415,0.009 -1.23485,0.0878 -2.46916,0.19077 -3.70521,0.24543 -2.24904,0.0437 -4.4968,-0.002 -6.74534,-0.0447 -0.0244,6e-4 -1.70652,0.035 -1.71376,0.0501 -0.14924,0.31101 1.06359,-0.14938 0.83066,0.0506 -0.26731,0.22956 -0.63564,0.0345 -0.95335,0.0547 -2.11015,0.13399 0.1074,0.0114 -2.11621,0.12822 -3.05369,0.12668 -6.11886,0.19254 -9.16777,-0.10418 -1.687386,-0.23107 -3.364968,-0.6295 -5.061441,-0.69302 0.324025,-0.005 0.648187,-0.002 0.972083,-0.0165 0.223241,-0.009 -0.446703,6e-4 -0.670038,0.003 -0.980395,0.0139 -1.959976,0.0743 -2.940037,0.10758 -2.205774,0.0656 -4.411402,0.048 -6.596157,-0.40796 -0.808283,-0.12512 -1.604434,-0.219871 -2.419531,-0.20667 -0.300523,0.004 -0.614318,-0.0776 -0.901084,0.0421 -0.222806,0.0931 0.927436,-0.0276 0.699831,0.0419 -0.364617,0.11134 -0.746903,0.0576 -1.120355,0.0865 -3.169263,0.23109 -6.384899,0.38874 -9.508496,-0.493305 -0.376031,-0.121939 -0.754693,-0.230303 -1.128095,-0.36582 -1.191944,-0.432587 -2.335114,-1.16229 -3.576654,-1.301467 -2.011417,-0.120692 -4.033701,0.315679 -6.0413,-0.09875 -2.534623,-0.427693 -5.222787,-0.965478 -7.450507,-2.760727 -0.293795,-0.23676 -0.54926,-0.549066 -0.823888,-0.823601 -3.045588,-2.296493 -0.606353,-8.031219 2.439233,-5.734725 z"
       inkscape:connector-curvature="0" />
    <path
       style="fill:#000000;fill-opacity:1;stroke:none;stroke-width:0.26131126;stroke-opacity:1"
       id="path851"
       d="m 56.009938,29.974687 c 1.542112,-2.758134 4.040119,-3.975301 6.418962,-4.958924 3.099855,-1.135113 6.296353,-1.686555 9.489603,-2.094459 2.73318,-0.320981 5.478292,-0.359757 8.22002,-0.403117 1.157268,-1.035607 2.652972,0.441055 3.893487,-0.06729 0.21036,-0.0862 -0.850031,-0.0024 -0.652772,-0.132322 0.33216,-0.218875 0.737147,-0.103966 1.104859,-0.165581 0.835972,-0.140073 1.670082,-0.299393 2.50605,-0.439492 2.82039,-0.517325 5.65634,-0.236585 8.485424,-0.09087 0.259976,0.05402 0.520415,0.104166 0.779921,0.162059 1.395617,0.311382 2.236044,0.281751 3.641658,0.09769 -0.279466,-0.05605 -1.014717,0.125937 -0.838406,-0.168158 0.213509,-0.356144 0.681097,-0.09079 1.021556,-0.137346 1.56699,-0.214254 3.13263,-0.37704 4.7049,-0.505662 3.03099,-0.265669 6.07071,-0.07934 9.10109,-0.325778 -0.22406,-0.02847 -0.88971,-0.0084 -0.67219,-0.08539 0.41191,-0.145765 0.85036,-0.07928 1.275,-0.127927 1.70936,-0.195814 3.41065,-0.410926 5.12474,-0.526371 1.67103,-0.0599 3.34827,-0.07354 5.019,-0.02047 0.92556,0.0294 1.86276,0.189242 2.78753,0.265627 1.94365,0.213362 3.89013,0.308942 5.83951,0.243264 -0.27901,-0.0106 -1.11206,0.03148 -0.83702,-0.03178 0.34023,-0.07825 0.69051,-0.0092 1.03575,-0.01393 0.34706,-0.0048 0.6941,-0.01423 1.04117,-0.01456 1.58711,-0.0015 3.17527,0.09899 4.7605,0.172566 1.72334,0.4537 3.39855,0.954584 5.15503,1.117314 1.8564,-0.0038 3.69149,0.163329 5.5062,0.688767 1.58035,0.54635 3.01575,1.599632 4.58684,2.178233 1.47895,0.24708 2.9609,0.379742 4.41894,0.818483 1.56969,0.478588 2.62673,1.780429 3.77381,3.167914 0.36088,0.413001 0.78117,0.229934 1.21805,0.238755 0.81939,0.151228 1.54279,0.689943 2.23582,1.259199 0.34906,0.385641 0.72429,0.20704 1.11316,0.344027 0.41536,0.01713 0.73717,0.512673 1.11869,0.622181 -0.41018,-0.355187 0.57475,-0.138843 0.66143,-0.118499 0.62769,0.148124 1.10795,0.696661 1.63573,1.115708 -0.53253,-0.584556 0.02,-0.260592 0.26087,-0.103987 0.89554,0.751376 1.29962,1.310924 0.69188,3.23943 -0.13024,0.413296 -0.61557,0.362994 -0.92336,0.544486 0.47728,1.791673 -1.42575,2.690379 -1.90303,0.89871 v 0 c -0.38167,-0.04746 -0.89527,-0.529587 -1.145,-0.142383 -1.047,1.62335 -0.11057,1.993903 0.39979,2.728858 0.0489,0.29036 -1.04036,-0.542437 -1.12895,-0.614168 -0.71412,-0.461835 0.10098,0.114774 -0.13231,0.190083 -0.462,-0.03526 -0.89575,-0.217812 -1.32305,-0.451623 -0.3771,-0.153164 -0.76579,-0.09793 -1.14352,-0.260775 -0.70778,-0.256121 -1.32997,-0.733867 -1.95978,-1.221729 -0.13225,0.03099 0.0294,0.117733 -0.11742,0.164598 -0.33385,0.106566 -0.70398,-0.07577 -1.03017,-0.111386 -1.34807,-0.497828 -2.58265,-1.281413 -3.55565,-2.662368 -0.0976,-0.116714 -0.24005,-0.454324 -0.31606,-0.312016 -0.0965,0.180611 0.18302,0.120536 -0.12053,0.200632 -0.24891,0.06568 -0.6086,0.0404 -0.83961,0.03961 -1.88587,-0.123915 -3.75681,-0.526398 -5.5028,-1.527761 -1.1248,-0.631844 -2.22505,-1.430405 -3.48102,-1.377315 -1.89518,-0.03097 -3.80174,0.0038 -5.66446,-0.552576 -1.46455,-0.425323 -2.92315,-1.101348 -4.44153,-0.920585 0.35253,0.02055 0.73735,-0.135565 1.05761,0.06174 0.26363,0.162407 -0.58045,0.03269 -0.87051,0.05354 -2.04834,0.147136 -4.09785,0.267593 -6.15067,0.165988 -2.05941,-0.11623 -4.10895,-0.344204 -6.15177,-0.717126 -0.6909,-0.08467 -0.92008,-0.132275 -1.60573,-0.14158 -0.25474,-0.0035 -1.01799,-0.0087 -0.76412,0.01951 0.3421,0.03797 0.7056,-0.140118 1.02985,0.01006 0.5548,0.256827 -2.49122,-0.108742 -1.75234,0.246705 -3.35458,0.707061 -6.71349,1.402033 -10.12792,1.161994 -0.45289,-0.03474 -0.90582,-0.06799 -1.35864,-0.104218 -0.39258,-0.03141 -0.79911,0.04389 -1.17755,-0.09868 -0.24199,-0.09117 0.99639,0.02364 0.7531,-0.06122 -0.3299,-0.115075 -0.68178,-0.03481 -1.02281,-0.03286 -0.81461,0.0047 -1.21973,0.06767 -2.03737,0.152936 -3.04517,0.416804 -6.08338,0.803597 -9.149053,0.37553 -1.435409,-0.270477 -2.87146,-0.770391 -4.327694,-0.646804 0.354975,0.02539 0.737922,-0.109529 1.064925,0.07612 0.226759,0.128739 -0.490047,0.0721 -0.734797,0.111307 -1.512569,0.242289 -3.01831,0.560008 -4.536462,0.73907 -1.412184,0.136229 -2.817709,0.238829 -4.234596,0.212517 -0.982837,-0.01825 -1.965645,-0.04569 -2.948045,-0.08884 -0.347296,-0.01526 -0.704159,0.03019 -1.040439,-0.08636 -0.233618,-0.08097 0.482665,-0.01553 0.723995,-0.02331 -2.55119,0.129753 -5.05187,0.833901 -7.587205,1.19256 -1.347648,0.171543 -2.070804,0.285091 -3.429028,0.370334 -1.849298,0.116066 -3.703493,0.03731 -5.551119,0.205399 -0.872589,0.201155 -1.052459,0.200619 -1.898631,0.564091 -1.274305,0.547373 -2.47401,1.42065 -3.809156,1.70312 -2.779161,3.447853 -6.441318,-1.785201 -3.662157,-5.233057 z"
       inkscape:connector-curvature="0" />
  </g>
</svg>
