<?xml version="1.0" encoding="UTF-8" standalone="no"?>
<!-- Created with Inkscape (http://www.inkscape.org/) -->

<svg
   xmlns:dc="http://purl.org/dc/elements/1.1/"
   xmlns:cc="http://creativecommons.org/ns#"
   xmlns:rdf="http://www.w3.org/1999/02/22-rdf-syntax-ns#"
   xmlns:svg="http://www.w3.org/2000/svg"
   xmlns="http://www.w3.org/2000/svg"
   xmlns:sodipodi="http://sodipodi.sourceforge.net/DTD/sodipodi-0.dtd"
   xmlns:inkscape="http://www.inkscape.org/namespaces/inkscape"
   width="1024"
   height="512"
   viewBox="0 0 270.93334 135.46667"
   version="1.1"
   id="svg8"
   inkscape:version="0.92.4 (5da689c313, 2019-01-14)"
   sodipodi:docname="arm.svg"
   inkscape:export-filename="C:\Users\panu-\PycharmProjects\nextgame\data\images\bodies\camo\arm.png"
   inkscape:export-xdpi="10.173375"
   inkscape:export-ydpi="10.173375">
  <defs
     id="defs2" />
  <sodipodi:namedview
     id="base"
     pagecolor="#ffffff"
     bordercolor="#666666"
     borderopacity="1.0"
     inkscape:pageopacity="0.0"
     inkscape:pageshadow="2"
     inkscape:zoom="0.98963091"
     inkscape:cx="504.88641"
     inkscape:cy="288.40909"
     inkscape:document-units="mm"
     inkscape:current-layer="layer6"
     showgrid="false"
     units="px"
     width="1024px"
     inkscape:window-width="1920"
     inkscape:window-height="1017"
     inkscape:window-x="-8"
     inkscape:window-y="-8"
     inkscape:window-maximized="1"
     inkscape:pagecheckerboard="true"
     showguides="false" />
  <metadata
     id="metadata5">
    <rdf:RDF>
      <cc:Work
         rdf:about="">
        <dc:format>image/svg+xml</dc:format>
        <dc:type
           rdf:resource="http://purl.org/dc/dcmitype/StillImage" />
        <dc:title />
      </cc:Work>
    </rdf:RDF>
  </metadata>
  <g
     inkscape:groupmode="layer"
     id="layer6"
     inkscape:label="arm_color"
     transform="translate(0,-296.33334)"
     style="display:inline">
    <path
       style="fill:#447821;fill-opacity:1;stroke:none;stroke-width:0.26458332;stroke-opacity:1"
       id="path840"
       d="m 59.757309,332.72769 c -0.26825,1.50255 -0.904298,2.90676 -1.293381,4.38103 -0.375356,1.76268 -0.231256,3.58496 -0.185618,5.37286 0.11185,3.20323 -0.09862,6.40119 -0.396307,9.58828 -0.338669,2.7185 -0.624289,5.44111 -0.824092,8.17324 -0.135689,2.22306 -0.455012,4.42851 -1.036156,6.57841 -0.162851,0.9851 -0.779005,1.89659 -0.818343,2.90416 0.1167,0.91966 0.208815,1.83149 0.195707,2.76057 -7.94e-4,0.7865 -0.192553,1.55592 -0.234318,2.33812 0.02389,0.80994 0.128815,1.61551 0.191826,2.42341 0.06278,1.01225 0.04612,2.02854 -0.125907,3.02908 -0.03219,0.35687 -0.239779,0.80376 -0.07329,1.15319 0.124648,0.34972 0.264475,0.69295 0.395872,1.04014 0.09765,0.3569 0.205756,0.71275 0.292516,1.07338 0.290245,0.20117 0.428101,0.7396 0.528561,1.06798 0.175225,0.59135 -0.170765,-0.0358 -0.336939,-0.2025 0.353639,0.28725 0.608914,0.68954 0.766916,1.11306 0.06299,0.16682 0.120083,0.38548 0.181734,0.50924 -0.02172,-0.19998 0.01363,-0.12914 0.05989,-0.063 0.01953,0.0326 0.127891,0.21257 0.110175,0.1936 -0.754182,-0.8073 1.517285,-0.68348 -2.395569,0.43031 0.265046,-1.41781 2.27013,-1.04298 2.005084,0.37483 v 0 c -3.257415,1.58401 -1.747322,1.80781 -2.553388,0.89922 -0.0093,-0.0105 0.08621,0.16505 -0.01246,0.0402 -0.232738,-0.2903 -0.448289,-0.58781 -0.531392,-0.96106 -0.06934,-0.30836 -0.01106,-0.1348 -0.0996,-0.34052 0.0351,0.13925 -0.1402,-0.0981 -0.0208,-0.0308 0.137853,0.0776 0.192857,0.32367 0.34454,0.41497 -0.457917,-0.32583 -0.755353,-0.80856 -1.01751,-1.29633 -0.244655,-0.54414 -0.410949,-1.11485 -0.402204,-1.71699 0.303697,0.55347 -0.151855,0.108 -0.239477,-0.102 -0.379227,-0.65678 -0.613926,-1.3711 -0.650666,-2.1336 -0.01246,-0.49803 0.01431,-0.98946 -0.12055,-1.47702 -0.161477,-0.9921 -0.169666,-1.99794 -0.110079,-3.00012 0.05755,-0.80938 0.146886,-1.6197 0.12773,-2.43197 -0.03977,-0.82508 -0.137316,-1.65028 -0.06602,-2.47746 0.05373,-0.77976 0.193839,-1.56523 0.01908,-2.34012 -0.197427,-1.3644 -0.191087,-2.73659 0.138306,-4.08503 0.403066,-1.94014 0.877985,-3.87212 0.854276,-5.87043 0.06082,-2.79935 0.01217,-5.6034 0.241969,-8.39688 0.296217,-3.17173 0.681599,-6.33284 1.236353,-9.47103 0.352936,-1.94652 0.80024,-3.86722 1.285211,-5.78461 0.429231,-1.70492 0.926065,-3.46421 2.184127,-4.75955 0.764929,-1.68588 3.149124,-0.6041 2.384195,1.08178 z"
       inkscape:connector-curvature="0" />
    <path
       style="fill:#447821;fill-opacity:1;stroke:none;stroke-width:0.26458332;stroke-opacity:1"
       id="path842"
       d="m 187.09929,381.66457 c 0.64526,-1.54138 1.6135,-2.91385 2.30396,-4.43685 0.57743,-1.34902 0.4154,-2.78538 0.32729,-4.20669 -0.21539,-2.36773 -0.0284,-4.73914 0.29327,-7.08658 0.34037,-2.05325 0.79232,-4.08436 1.10011,-6.14331 0.20378,-1.75672 0.2819,-3.52477 0.41966,-5.28738 0.12387,-1.40404 0.30363,-2.80159 0.38221,-4.20931 0.058,-1.03847 -0.0184,-2.06912 -0.12778,-3.10049 -0.11387,-0.87767 -0.2117,-1.75743 -0.3967,-2.62359 -0.19308,-0.73107 -0.35842,-1.46997 -0.56831,-2.19634 -0.18848,-0.75855 -0.34202,-1.52511 -0.49796,-2.29095 -0.11212,-0.37847 -0.0761,-0.80083 -0.21982,-1.1706 -0.21109,-0.39406 -0.33747,-0.82032 -0.46078,-1.24769 -0.007,-0.20377 -0.24754,-0.58805 0.0231,-0.14708 0.20143,0.23475 0.13362,0.17296 0.47186,0.43452 0.0503,0.0389 0.21822,0.08 0.15957,0.10462 -0.0946,0.0397 -0.72901,-0.36066 -0.79114,-0.40123 -0.38651,-0.25391 -0.59798,-0.6745 -0.9227,-0.98799 -0.15082,-0.12958 -0.32268,-0.36134 -0.44592,-0.49051 -0.016,0.0278 -0.0722,-0.05 -0.0574,-0.0335 0.49007,0.54135 1.05084,0.46565 1.84799,0.27529 0.098,-0.0234 -0.0258,-0.19983 -0.0388,-0.29974 -0.13922,-0.16811 -0.27845,-0.33622 -0.41767,-0.50434 -0.85781,0.75517 -1.92578,-0.45795 -1.06797,-1.21312 v 0 c 5.3e-4,-0.25579 0.001,-0.51158 0.002,-0.76736 0.0778,-0.1322 0.0846,-0.35972 0.23352,-0.39658 1.28748,-0.31875 1.75569,-0.17312 2.51941,0.58141 0.21227,0.24161 0.44905,0.4577 0.65335,0.7051 0.009,0.0115 0.4116,0.51749 0.26028,0.3609 -0.16954,-0.10592 -0.0572,-0.0452 -0.2099,-0.11049 -0.0338,-0.0144 -0.13279,-0.0628 -0.1005,-0.0453 0.31959,0.17349 0.63551,0.35841 0.8689,0.64678 0.34374,0.47025 0.61657,0.97243 0.72185,1.5534 0.0469,0.27354 0.0831,0.52508 0.23056,0.77059 0.23014,0.53236 0.45764,1.06771 0.60081,1.63166 0.19575,0.74723 0.36312,1.50054 0.52363,2.25601 0.13798,0.69905 0.30796,1.3919 0.57285,2.05525 0.3551,1.05606 0.60669,2.14231 0.67778,3.25766 0.0702,1.13747 0.15037,2.27451 0.2042,3.41281 0.0567,1.49202 0.0104,2.98192 -0.12126,4.46956 -0.1276,1.84006 -0.2203,3.68402 -0.4376,5.51627 -0.24909,2.0522 -0.57223,4.09375 -0.83086,6.14476 -0.25776,2.18741 -0.60237,4.36273 -0.84271,6.55179 -0.0953,1.84572 0.0987,3.72054 -0.40185,5.52563 -0.11777,0.36066 -0.21506,0.72867 -0.35333,1.08199 -0.65736,1.67975 -1.74199,3.23106 -3.27438,4.2102 -1.51969,1.98881 -4.3323,-0.16036 -2.81261,-2.14917 z"
       inkscape:connector-curvature="0" />
    <path
       style="fill:#447821;fill-opacity:1;stroke:none;stroke-width:1.01047778;stroke-opacity:1"
       d="m 515.00501,121.77581 c -14.0055,0.29827 -27.61691,4.55431 -41.61445,3.85629 -23.6239,-0.23452 -47.24034,1.77609 -70.84574,1.16402 -10.80924,-2.10828 -21.76313,-1.34101 -32.57495,0.36167 -22.48247,2.04001 -45.25832,-0.15288 -67.5252,4.39987 -17.50401,2.97431 -35.51919,1.34273 -52.90716,4.82271 -9.66717,2.78633 -18.54538,7.97965 -28.02497,10.92974 -4.38386,4.28278 -1.81268,11.57666 -3.01959,17.00642 -1.31621,33.45637 -2.28894,67.1382 -8.77853,100.10044 -3.95119,17.17614 -2.58045,35.05881 -3.07485,52.55669 0.50452,6.5967 1.68128,14.07688 6.11418,19.20303 8.22753,3.91047 18.03106,2.12172 26.81319,4.14651 20.30965,2.32758 40.41116,6.20724 60.65431,9.04101 19.4429,0.92181 39.17736,-2.91456 58.28602,1.43678 42.98461,2.05461 86.0672,0.70594 129.09039,1.35426 19.21248,-0.0264 38.44561,0.41885 57.59306,1.09082 28.672,-0.99076 57.04064,-5.34067 85.61859,-7.25472 19.94387,-5.25722 41.0858,-7.07217 59.79384,-16.42619 6.1476,-3.26193 13.95689,-3.67902 19.12175,-8.08004 3.89314,-7.71624 10.71373,-14.65351 9.10232,-23.95896 0.21188,-18.31506 1.3524,-36.38462 4.90913,-54.35992 3.03913,-24.9714 5.86967,-50.8114 -1.4808,-75.34878 -0.91762,-5.26129 -2.37502,-10.783 -5.98982,-14.71684 2.44104,-4.76228 -7.12881,-9.47975 -9.17324,-3.79719 -1.85239,1.45227 -1.83143,4.97052 -1.67559,6.07669 -6.95817,-0.96651 -13.27141,-4.19692 -19.73391,-6.42009 -8.16882,0.34765 -14.67346,-6.30327 -21.58318,-9.84229 -8.17481,-1.43123 -16.85742,-0.74666 -24.61066,-4.45439 -8.74702,-4.4938 -18.46669,-6.79295 -28.22233,-6.62929 -14.11106,-0.31989 -27.83022,-6.09829 -42.14261,-4.29986 -18.26109,1.52963 -35.88241,-1.8305 -54.1192,-1.95839 z"
       id="path844"
       inkscape:connector-curvature="0"
       transform="matrix(0.26458333,0,0,0.26458333,0,296.33334)" />
    <path
       style="fill:#71c837;fill-opacity:1;stroke:none;stroke-width:0.26458332;stroke-opacity:1"
       id="path848"
       d="m 119.77073,387.41339 c 1.23699,-2.75732 3.52749,-4.9407 5.67802,-6.99861 3.08211,-2.79282 6.69634,-4.8674 10.31443,-6.87219 3.81622,-2.02636 7.56837,-4.17042 11.4062,-6.15562 3.53378,-1.82625 7.30818,-3.07062 11.16308,-4.00261 1.6091,-0.34779 3.2269,-0.6692 4.78902,-1.19842 0.83382,-0.28249 1.36779,-0.50977 2.18792,-0.83845 2.28495,-0.99455 4.6165,-1.86568 6.99854,-2.59573 1.79476,-0.53002 3.61192,-0.97216 5.47667,-1.14987 0.34136,-0.0107 0.68036,-0.0353 1.02127,-7e-5 0.0941,0.01 0.29951,0.0541 0.24975,0.13446 -0.0261,0.0421 -0.17524,0.16409 -0.23854,0.2169 0.69031,-0.94193 1.68564,-1.55908 2.69491,-2.10605 1.17998,-0.61259 2.46046,-0.86623 3.77683,-0.90416 0.76987,0.0404 1.51976,-0.10113 2.2745,-0.22627 1.11496,-0.12303 2.28168,-0.10904 3.39068,0.0706 0.15761,0.0255 0.29607,0.11964 0.44411,0.17947 0.27444,0.0609 0.93764,0.77797 1.12772,0.59957 1.21884,-0.1028 -1.04063,-0.21119 -0.0841,0.0864 0.6122,0.51582 1.17271,1.10012 1.83661,1.54745 0.0993,0.0669 -0.0231,-0.24103 -0.0645,-0.3534 -0.0779,-0.21148 -0.44894,-0.81516 -0.72544,-0.83529 -0.26121,-0.019 -0.5232,0.025 -0.7848,0.0375 0.32006,0.10597 0.81911,-0.16988 1.14136,-0.01 0.40732,0.2021 0.63217,0.65407 0.93537,0.99292 0.0188,0.021 0.0197,0.12616 0.017,0.0384 0.0191,-0.0708 -0.29343,-0.48814 -0.17251,-0.4519 -0.73147,-0.34938 0.36895,1.10549 0.70963,1.72024 0.0349,0.063 0.0377,-0.1407 0.0378,-0.21272 5.3e-4,-0.4279 -0.0276,-0.38168 -0.20633,-0.75678 -0.2874,-0.3145 -0.51432,-0.45739 -0.0615,-0.25918 0.77216,0.45342 0.47144,0.64667 0.71145,1.50957 0.0296,0.10658 0.038,-0.2209 0.0259,-0.33087 -0.0447,-0.40938 -0.0971,-0.42598 -0.29106,-0.73318 -0.30403,-0.24936 0.14454,-0.0641 -0.0975,-0.13467 1.66697,0.635 0.76894,2.99244 -0.89802,2.35745 v 0 c -0.29812,-0.0713 -0.56898,-0.13034 -0.79967,-0.35975 -0.2976,-0.37164 -0.37963,-0.3853 -0.46347,-0.90415 -0.0232,-0.14392 -0.0465,-0.56941 0.0147,-0.4371 0.33883,0.73239 -0.0528,0.89334 0.64274,1.31844 0.15454,0.21762 -1.18747,-0.50998 -0.84224,-0.44737 -0.26552,-0.4542 -0.33195,-0.44512 -0.35502,-0.99763 -0.005,-0.13184 -0.0309,-0.49502 0.0521,-0.39243 1.41014,1.743 1.36638,1.68773 0.5543,1.48927 -0.50951,-0.13988 -0.89922,-0.5228 -1.11246,-1.00146 -0.26699,-0.70135 -0.0636,0.21595 0.78558,0.60225 0.27584,0.12549 0.60547,-0.0296 0.90848,-0.0346 0.0123,-2.1e-4 -0.0206,0.0134 -0.0309,0.02 -0.0532,0.0219 -0.10638,0.0438 -0.15957,0.0657 -0.44134,0.0305 -0.94636,0.17933 -1.37397,-0.0408 -0.43831,-0.22566 -0.65317,-0.43522 -0.86343,-0.89009 -0.0771,-0.16676 -0.3065,-0.60835 -0.13876,-0.53341 0.6822,0.30477 1.22195,0.8602 1.83293,1.2903 0.0145,0.30443 -1.74423,0.15037 -2.11844,0.008 -0.1209,-0.0463 -0.24398,-0.0872 -0.3627,-0.13877 -0.11612,-0.0505 -0.72094,-0.48851 -0.79072,-0.28841 -0.32867,0.19484 0.0308,-0.0439 0.60988,0.11817 0.1082,0.0303 -0.22259,0.031 -0.33413,0.0447 -0.23149,0.0284 -0.62933,0.071 -0.85488,0.0894 -0.16392,0.0133 -0.32819,0.022 -0.49229,0.033 -0.81396,0.0389 -1.6273,0.0908 -2.44253,0.0886 -0.84566,0.12918 -1.63572,0.49578 -2.42884,0.7991 -0.81831,0.33129 -1.63484,0.67156 -2.4851,0.91171 -0.59157,0.53296 -1.2305,0.98885 -1.99501,1.23918 -1.5851,0.54361 -3.21786,0.9324 -4.79032,1.51559 -2.27163,0.82978 -4.48251,1.80847 -6.74316,2.66639 -2.34052,0.86249 -4.72297,1.59913 -7.06905,2.44551 -3.39014,1.32533 -6.66345,2.9134 -9.95513,4.46332 -3.88622,1.81136 -7.75037,3.66775 -11.56832,5.61974 -3.36246,1.76661 -6.69714,3.61899 -9.67009,6.00439 -1.56918,1.22891 -1.30505,1.01154 -2.83352,2.24959 -1.38881,1.12492 -2.76973,2.31299 -4.39561,3.08694 -1.46268,1.92036 -4.17848,-0.14818 -2.7158,-2.06855 z"
       inkscape:connector-curvature="0" />
    <path
       style="fill:#71c837;fill-opacity:1;stroke:none;stroke-width:0.26458332;stroke-opacity:1"
       id="path850"
       d="m 111.7089,330.71385 c 0.27681,0.0272 0.56128,0.0114 0.83041,0.0816 1.63215,0.42561 2.74433,1.7984 3.47126,3.24058 0.21372,0.42399 0.37209,0.87367 0.55812,1.31051 0.67166,1.8149 1.03361,3.72286 1.66645,5.55043 0.41451,1.19708 0.58048,1.49625 1.10043,2.65069 1.2138,2.67372 3.0262,5.00091 4.68534,7.40413 1.62622,2.30984 2.46754,4.99057 3.28765,7.65786 0.29839,0.7812 0.57389,1.82248 1.45037,2.16306 0.3355,0.13037 0.72029,0.10315 1.06763,0.11016 0.23398,-0.0291 0.46796,-0.0583 0.70194,-0.0874 -0.0739,-0.0376 -0.30062,-0.0869 -0.22183,-0.11293 0.29728,-0.0982 0.6223,-0.0713 0.93134,-0.12135 0.92961,-0.15069 1.7867,-0.41191 2.66785,-0.7352 1.62052,-0.6723 2.4572,-1.71583 3.32,-3.18393 0.98232,-1.6859 1.55571,-3.54991 2.05654,-5.42279 0.5766,-2.22872 0.93415,-4.5038 1.26791,-6.77885 0.29926,-2.20685 0.62109,-4.41027 0.93301,-6.61531 0.21492,-1.70256 0.4653,-3.39923 0.73014,-5.09458 0.18505,-0.89559 0.18469,-1.84756 0.4985,-2.71409 0.0196,-0.0184 0.0382,-0.0723 0.0587,-0.0551 0.0469,0.0395 0.0507,0.11166 0.0753,0.16786 0.0901,0.2063 0.37217,0.81951 0.26862,0.61962 -0.28324,-0.54678 -0.39498,-0.8836 -0.45657,-1.45355 -0.0516,-0.55929 0.0448,-1.10609 0.25223,-1.62451 0.85037,-1.6499 0.86812,-0.74904 3.53553,0.59905 0.0607,0.0307 -0.0824,0.10962 -0.13378,0.15426 -0.19911,0.17299 -0.31974,0.16659 -0.5972,0.25087 -0.0513,1.48226 -2.14753,1.40972 -2.09623,-0.0725 v 0 c -0.36995,-0.18494 -0.33562,-0.1227 -0.56686,-0.35552 -0.0411,-0.0414 -0.17114,-0.1485 -0.11528,-0.13168 3.04765,0.91746 2.56583,1.96035 3.43962,0.47842 0.0808,0.19748 -0.0508,0.49645 -0.0483,0.70865 -0.0109,0.029 -0.002,0.0858 -0.0327,0.087 -0.0775,0.003 -0.67314,-1.913 -0.36226,-0.67593 0.10378,0.41295 0.45004,0.78714 0.52563,1.22334 0.27156,1.04698 0.22443,2.14143 0.16398,3.21249 -0.12475,1.69423 -0.32254,3.38274 -0.40703,5.08025 -0.14593,2.29677 -0.2952,4.59695 -0.65372,6.87257 -0.41166,2.45128 -0.88384,4.89639 -1.60725,7.27789 -0.70808,2.17358 -1.55403,4.30633 -2.7543,6.26171 -1.27265,1.97359 -2.72881,3.80599 -4.87208,4.88956 -0.3817,0.16922 -0.75452,0.36009 -1.14511,0.50766 -2.25694,0.85271 -4.7833,1.03052 -7.13759,0.53799 -0.37807,-0.13364 -0.77022,-0.23264 -1.1342,-0.40091 -1.84404,-0.85249 -3.03699,-2.49187 -3.84719,-4.29821 -0.93843,-2.27642 -1.72103,-4.63902 -3.14881,-6.6751 -1.77707,-2.65715 -3.69323,-5.24915 -4.82123,-8.27407 -0.18081,-0.52325 -0.37921,-1.04075 -0.54243,-1.56975 -0.70436,-2.28298 -1.01634,-4.65645 -1.44738,-6.99909 -0.20038,-0.7898 -0.22221,-1.07576 -0.58452,-1.78502 -0.42032,-0.82283 -1.1065,-1.43734 -1.71385,-2.11486 -1.23458,-0.63865 -0.3314,-2.38462 0.90318,-1.74596 z"
       inkscape:connector-curvature="0" />
    <path
       style="fill:#71c837;fill-opacity:1;stroke:none;stroke-width:0.26458332;stroke-opacity:1"
       id="path852"
       d="m 51.766655,357.24798 c 0.04148,-0.2609 0.04971,-0.52932 0.124438,-0.78271 0.522894,-1.77296 1.862963,-3.2917 3.270324,-4.43162 0.425554,-0.34468 0.892374,-0.63505 1.338559,-0.95257 2.615618,-1.57521 5.038797,-1.97654 8.062714,-1.71216 0.376521,0.0329 0.739786,0.15531 1.109676,0.23297 1.236064,0.32487 2.496045,0.57838 3.707924,0.99092 0.846068,0.28801 1.055769,0.40824 1.874599,0.78074 1.943685,0.97648 3.441713,2.54182 4.830098,4.17717 1.243293,1.5186 2.382578,3.11935 3.385124,4.80611 1.078379,1.83731 1.724441,3.859 2.059596,5.95214 0.207357,1.49466 -0.02922,2.97373 -0.330065,4.43468 -0.335325,1.50915 -1.030523,2.88486 -1.820224,4.20048 -0.22169,0.5677 -1.178214,1.35748 -1.238817,1.96042 0.20243,0.94967 0.360675,1.90144 0.454129,2.86855 0.115265,1.25528 0.0076,2.50861 -0.153498,3.75336 -0.107289,0.46581 -0.03501,0.90888 0.05289,1.36738 0.04505,0.36526 0.191725,0.69585 0.330428,1.03217 0.190243,0.45823 0.360839,0.92374 0.507947,1.39751 0.131612,0.422 0.220837,0.8546 0.323588,1.28404 0.04831,0.13705 -0.116544,-0.14021 -0.151469,-0.18366 0.06683,0.10167 -0.09633,-0.0595 -0.09067,-0.0352 0.348911,1.50355 0.62126,2.73288 0.645986,1.30882 -0.02903,-0.11975 -0.04226,-0.24447 -0.08709,-0.35925 -0.0485,-0.12415 -0.483719,-0.82144 -0.698519,-0.72139 -0.477586,0.22244 -0.843925,0.63091 -1.265891,0.94637 0.625941,-0.9587 1.98174,-0.0735 1.355799,0.88521 v 0 c -0.464587,0.36725 -0.861446,0.84222 -1.393758,1.10175 -0.139896,0.0682 -0.282684,-0.13356 -0.410785,-0.22195 -0.413877,-0.2856 -0.635542,-0.7108 -0.750202,-1.18957 -0.02024,-0.33673 -0.08152,-1.29527 0.09459,-1.00756 1.673627,2.73411 1.035582,1.95064 0.399259,1.66133 -0.39374,-0.32947 -0.711647,-0.71564 -0.918832,-1.19179 -0.206118,-0.4867 -0.360876,-0.99147 -0.444939,-1.5142 -0.07401,-0.35619 -0.192749,-0.68516 -0.37252,-1.00409 -0.230113,-0.51901 -0.426191,-1.05211 -0.508595,-1.61705 -0.133102,-0.64065 -0.314005,-1.27164 -0.407184,-1.92045 -0.151182,-1.19937 -0.159131,-2.4043 -0.120406,-3.61188 0.01193,-1.08242 -0.01632,-2.16182 -0.06558,-3.24282 0.08042,-1.29015 0.414043,-2.5007 1.095906,-3.61294 0.427776,-0.71011 0.337384,-0.5768 0.789358,-1.26143 0.302808,-0.45868 0.65703,-0.9116 0.910876,-1.40124 0.05609,-0.1082 0.09321,-0.22522 0.139816,-0.33783 0.220046,-1.01648 0.08613,-2.04799 -0.163152,-3.04939 -0.413086,-1.63991 -0.870879,-3.28347 -1.691503,-4.77408 -0.895156,-1.50803 -1.947272,-2.91079 -3.079358,-4.24967 -1.052039,-1.2101 -2.134939,-2.41807 -3.632245,-3.08088 -1.520777,-0.63367 -3.127121,-1.02573 -4.761645,-1.23301 -0.258673,-0.0139 -0.519473,-0.006 -0.776021,-0.0418 -0.122158,-0.0171 0.492292,-0.0291 0.369742,-0.0151 -0.26671,0.0305 -0.537927,0.0207 -0.802756,0.0646 -1.040699,0.17271 -2.004351,0.62265 -2.929252,1.10955 -1.05469,0.64129 -1.084035,0.62852 -2.08448,1.36019 -0.85017,0.62176 -1.627381,1.33171 -2.474201,1.9565 -0.178885,0.13199 -0.367821,0.24978 -0.55173,0.37466 -0.88419,2.16232 -3.94217,0.91188 -3.05798,-1.25043 z"
       inkscape:connector-curvature="0" />
    <path
       style="fill:#71c837;fill-opacity:1;stroke:none;stroke-width:1.01047778;stroke-opacity:1"
       d="m 238.6354,215.27066 c -14.2072,2.36909 -24.55615,13.61198 -35.82262,21.5733 -2.72382,0.55015 -6.57845,1.105 -6.0826,4.93003 -1.19601,13.2758 -4.83667,26.33711 -3.87233,39.80137 0.63218,15.57786 -0.93104,31.43415 1.86716,46.82539 2.38656,5.52406 3.97545,12.94727 9.58573,15.99199 4.27766,-0.47226 4.30223,-7.11746 9.15942,-7.25295 5.70113,-0.86524 11.28569,1.99939 17.08339,1.56901 18.19811,2.05615 36.24447,4.81581 54.327,7.62201 4.44385,-2.20592 -0.0965,-8.16829 -0.10263,-11.82181 -1.56278,-12.23766 -2.16575,-24.85417 -0.4855,-37.09163 2.04929,-7.83672 8.00161,-13.95891 10.74027,-21.42924 -2.20883,-14.7046 -7.39596,-29.105 -17.40114,-40.35398 -7.35164,-10.53746 -18.65385,-18.23139 -31.59526,-19.59174 -2.44501,-0.39843 -4.91055,-0.89024 -7.40089,-0.77175 z"
       id="path854"
       inkscape:connector-curvature="0"
       transform="matrix(0.26458333,0,0,0.26458333,0,296.33334)" />
    <path
       style="fill:#71c837;fill-opacity:1;stroke:none;stroke-width:1.01047778;stroke-opacity:1"
       d="m 514.51556,121.81923 c -20.25352,3.01726 -40.62825,5.94595 -61.18917,4.18993 -8.36561,0.36736 -17.15039,-0.36001 -25.20668,2.11371 -2.88555,4.28096 4.43039,7.02008 6.03721,10.46989 8.42576,13.16722 9.22127,29.57771 17.20575,43.07754 9.44159,17.73279 23.51592,33.23193 28.19912,53.25851 1.17295,5.64805 5.76875,12.37688 12.42722,10.01871 10.93229,-1.3584 22.74092,-5.64118 27.76051,-16.28803 10.30333,-19.25461 11.34844,-41.7253 15.1425,-62.83389 1.94641,-13.34504 3.88343,-26.7373 6.0716,-39.99012 -3.2236,-3.6661 -9.77696,-1.93072 -14.3056,-3.21758 -4.03606,-0.37709 -8.08352,-0.82767 -12.14246,-0.79867 z"
       id="path856"
       inkscape:connector-curvature="0"
       transform="matrix(0.26458333,0,0,0.26458333,0,296.33334)" />
    <path
       style="fill:#71c837;fill-opacity:1;stroke:none;stroke-width:1.01047778;stroke-opacity:1"
       d="m 713.95268,233.254 c -14.4544,-0.56143 -27.20967,6.87792 -39.9336,12.56979 -23.98198,8.05867 -47.45925,17.34542 -71.20548,26.07358 -32.86692,14.32277 -65.50436,29.45299 -96.64707,47.26139 -12.91304,8.32205 -25.48821,17.6282 -36.40606,28.40158 -0.4873,5.23545 7.29699,3.16888 10.50542,3.94718 29.83703,-0.10892 59.75658,3.32961 89.5003,-0.30195 28.35356,-2.98591 56.96817,-4.53789 84.81691,-11.02457 14.32365,-2.13545 27.77239,-7.38872 40.94021,-13.19137 6.75355,-2.42391 14.22546,-4.89695 21.47462,-4.32414 1.29596,3.89174 4.91723,8.30366 8.05224,2.99986 11.12377,-12.41064 8.54484,-29.99963 10.76791,-45.23467 0.98108,-13.60301 4.36166,-27.36997 4.57083,-40.87895 -6.87657,-1.21212 -12.58684,-6.50543 -19.96484,-6.13787 -2.15375,-0.14562 -4.31332,-0.17809 -6.47139,-0.15986 z"
       id="path858"
       inkscape:connector-curvature="0"
       transform="matrix(0.26458333,0,0,0.26458333,0,296.33334)" />
    <path
       style="fill:#c87137;fill-opacity:1;stroke:none;stroke-width:0.26458332;stroke-opacity:1"
       id="path860"
       d="m 132.74114,352.08744 c -1.31685,0.45418 -2.71281,0.37669 -4.08056,0.42855 -0.0132,5.3e-4 0.0419,0.0265 0.0287,0.0274 -0.36111,0.0244 -0.72327,0.0292 -1.08491,0.0439 -3.03863,0.30459 -5.80206,1.71957 -8.49437,3.06411 -2.73003,1.49313 -5.51726,2.97953 -7.91374,4.9852 -0.33334,0.37172 -0.54544,0.53347 -0.7293,0.98953 -0.3038,0.7536 -0.18425,1.6812 -0.14624,2.46675 0.14518,0.74748 -0.11224,1.66802 0.30251,2.35649 0.14753,0.24491 0.3982,0.38869 0.61939,0.55237 1.82705,1.07885 3.68073,2.10376 5.47445,3.23924 1.55375,1.00167 3.01863,2.16563 4.71519,2.92876 1.08821,0.4895 1.3974,0.5155 2.55369,0.81237 2.52342,0.48161 5.09355,0.2833 7.64281,0.27424 0.85121,0.0216 3.63182,0.0875 4.08394,0.12753 1.13466,0.10036 2.34759,0.53548 3.33562,1.09136 0.29879,0.1681 0.57243,0.37743 0.85865,0.56614 0.84784,0.5839 1.52264,1.37724 2.35576,1.97898 0.38574,0.27861 0.57918,0.36141 0.99888,0.58218 1.32632,0.62434 2.7071,1.11293 4.12049,1.49592 2.09592,0.49503 4.20726,0.91505 6.29959,1.42572 1.89294,0.47938 3.7917,0.94882 5.74767,1.04493 -0.16277,0.0133 -0.3508,-0.0482 -0.4883,0.0399 -0.5152,0.3302 0.6988,-0.0348 0.7433,-0.0795 0.0774,-0.0778 0.12697,-0.31121 0.14848,-0.38322 0.32193,-1.58213 0.70478,-3.14884 1.14954,-4.70078 0.63448,-2.09683 1.37055,-4.15917 2.00585,-6.25566 0.43744,-1.4595 0.71955,-2.9656 0.77843,-4.48868 -0.0267,-1.02467 -0.15415,-2.04313 -0.22187,-3.06631 -0.0902,-0.56032 0.20424,-1.90706 -0.254,-2.29779 -0.86889,-0.41476 -1.66413,-0.96833 -2.47087,-1.48994 -1.35477,-0.96279 -2.94027,-1.39631 -4.53064,-1.78355 -2.15564,-0.39199 -4.27024,-0.94814 -6.34838,-1.6375 -1.93342,-0.65207 -3.76974,-1.54744 -5.64235,-2.35002 -1.30021,-0.59764 -2.70676,-0.86987 -4.10098,-1.14472 -1.44242,-0.27801 -2.87119,-0.61375 -4.29148,-0.98757 -1.43659,-0.30169 -2.80024,-0.82492 -4.1594,-1.36424 -0.79824,-0.40018 -1.66674,-0.60939 -2.51407,-0.87339 -0.82039,-0.29894 -1.5701,-1.33912 -1.10859,-2.25742 0.15486,-0.30813 0.56472,-0.39596 0.84708,-0.59394 0.35685,-0.9025 1.63319,-0.39784 1.27634,0.50467 v 0 c 0.21792,-0.064 0.525,-0.005 0.65376,-0.19196 0.15737,-0.22865 0.0896,-0.55639 0.0504,-0.83119 -0.0564,-0.39595 -0.40205,-0.5727 -0.1877,-0.64028 0.0908,-0.0286 0.19043,0.005 0.28564,0.007 1.08652,0.14991 2.13902,0.45 3.17742,0.79964 1.26147,0.42403 2.54406,0.76973 3.83539,1.09076 1.3626,0.33275 2.73064,0.64086 4.11178,0.88779 1.65508,0.33915 3.31087,0.68917 4.89665,1.28735 1.80252,0.67874 3.57391,1.44419 5.41754,2.00993 2.12097,0.59053 4.3076,0.92727 6.38912,1.65838 1.90302,0.72616 3.71965,1.6275 5.30223,2.93031 1.24687,0.95775 2.54594,1.90196 3.28453,3.3343 0.10497,0.26694 0.23026,0.52675 0.31492,0.80081 0.31368,1.01532 0.23811,2.07565 0.14376,3.1163 -0.074,0.94394 0.0766,1.84014 0.33773,2.75075 0.35928,2.07082 0.27491,3.99585 -0.28254,6.03488 -0.60775,2.1515 -1.39852,4.23769 -2.21926,6.31614 -0.61023,1.7098 -1.2026,3.43198 -1.92432,5.09763 -0.74112,1.29421 -1.30916,2.08354 -2.73989,2.68059 -0.27964,0.11669 -0.5657,0.23482 -0.86572,0.27722 -0.65898,0.0931 -1.32836,0.0845 -1.99254,0.1267 -0.89165,-10e-6 -1.18803,0.0215 -2.09417,-0.0705 -1.56706,-0.15907 -3.09588,-0.54828 -4.62145,-0.923 -2.1474,-0.55387 -4.2892,-1.1416 -6.36391,-1.93236 -1.59701,-0.61979 -3.19439,-1.26875 -4.65388,-2.17638 -1.11968,-0.75487 -2.10273,-1.68622 -3.25086,-2.39225 -0.91546,-0.29467 -1.8702,-0.3156 -2.82517,-0.19133 -0.0263,0.003 0.0739,0.0606 0.0476,0.0638 -0.46018,0.0557 -0.92476,0.0656 -1.38714,0.0984 -3.90636,0.22506 -7.89341,0.28567 -11.66043,-0.92281 -0.54782,-0.21346 -1.10605,-0.4019 -1.64345,-0.64038 -2.31312,-1.02651 -4.32915,-2.57434 -6.36434,-4.0509 -1.88953,-1.3767 -3.84013,-2.71419 -5.42587,-4.44937 -0.20448,-0.27171 -0.42799,-0.53009 -0.61344,-0.81513 -0.8357,-1.28447 -1.11303,-2.75924 -1.18709,-4.26652 -0.0733,-2.10962 0.0915,-4.21101 1.10045,-6.114 0.24682,-0.39984 0.46694,-0.81746 0.74047,-1.19953 1.93351,-2.70075 4.79716,-4.54372 7.69963,-6.0467 0.6866,-0.29651 1.36174,-0.62113 2.05981,-0.88953 2.71305,-1.04315 5.58354,-1.58255 8.47167,-1.82589 1.73481,-0.10266 1.42879,-0.11264 3.62663,-0.0571 1.0578,0.0267 2.17935,0.1083 3.19371,0.43498 0.2358,0.0759 0.45456,0.19712 0.68183,0.29568 2.30197,0.72536 1.27616,3.98084 -1.02581,3.25548 z"
       inkscape:connector-curvature="0" />
    <path
       style="fill:#c87137;fill-opacity:1;stroke:none;stroke-width:0.26458332;stroke-opacity:1"
       id="path862"
       d="m 71.863174,331.81049 c 0.916673,1.01954 1.64791,2.18599 2.505932,3.25292 0.774489,0.96305 0.822156,0.9692 1.681943,1.84752 1.549347,1.47756 3.421139,2.49556 5.375378,3.32583 1.208056,0.46931 2.427703,0.92696 3.721817,1.07122 1.447268,0.0182 2.895434,9e-5 4.343583,0.007 1.623647,-5.3e-4 2.524974,-0.0945 4.371443,-0.27814 1.960689,-0.25614 3.889817,-0.69799 5.83466,-1.04778 1.34892,-0.24108 2.7078,-0.42727 4.04911,-0.70887 1.56989,-0.37681 3.05187,-1.03055 4.54099,-1.64004 1.34566,-0.56694 2.74102,-1.00189 4.16489,-1.32046 0.70449,-0.0998 0.95601,-0.32655 1.35113,-0.89 0.61296,-0.93967 1.02523,-1.98684 1.45769,-3.01669 0.49518,-1.29541 1.10271,-2.52782 1.86455,-3.68581 0.70602,-0.96083 1.55717,-1.81808 2.60922,-2.39149 0.0343,0.003 0.11098,-0.0245 0.10287,0.009 -0.0405,0.16714 -0.20886,0.29573 -0.21833,0.46745 -0.0782,1.41585 -0.10191,1.40826 0.71948,2.24109 0.0797,0.0808 0.16567,0.18188 0.27826,0.19626 0.38013,0.0486 0.76639,-0.009 1.14958,-0.0138 0.5801,-0.31977 1.32057,-1.01486 0.60623,-1.81011 -0.15902,-0.17704 -0.28565,0.41033 -0.50349,0.50613 -0.27405,0.12052 -0.59447,0.0716 -0.8917,0.10745 -0.0731,0.25542 -0.43435,0.152 -0.36123,-0.10342 v 0 c -0.2372,-0.13834 -0.44495,-0.34945 -0.7116,-0.415 -0.14058,-0.0346 -0.35413,0.2718 -0.41147,0.13888 -0.54088,-1.25374 -0.0885,-1.75844 0.88966,-2.15866 0.44872,-0.0127 0.89911,-0.0789 1.34616,-0.0382 0.17401,0.0158 0.34372,0.0986 0.48258,0.20461 1.31056,1.00077 1.3283,1.98239 0.51075,3.30162 -0.51632,0.72683 -1.19739,1.30936 -1.78079,1.97983 -0.76399,0.91418 -1.14229,1.76704 -1.50384,2.90454 -0.57456,1.38484 -1.19911,2.76809 -2.20783,3.89973 -0.82075,0.86875 -1.6546,1.50848 -2.74733,2.00135 -1.19816,0.60419 -2.38631,1.22974 -3.6081,1.78526 -1.77957,0.7671 -3.61206,1.44702 -5.55458,1.64547 -1.22381,0.13753 -2.45265,0.2382 -3.59294,0.7511 -2.081849,0.77067 -4.223538,1.36619 -6.452359,1.49764 -2.314667,0.10748 -4.634383,-0.004 -6.948873,-0.088 -1.553287,-0.10187 -3.108923,-0.23012 -4.621475,-0.62171 -1.4644,-0.34337 -2.947693,-0.59138 -4.404595,-0.96473 -2.759792,-0.86778 -4.991058,-2.02461 -7.055903,-4.10904 -0.355261,-0.40654 -0.735232,-0.79276 -1.065784,-1.21964 -1.14087,-1.47335 -2.078985,-3.25812 -2.263325,-5.1393 -0.0295,-0.30099 0.0068,-0.60482 0.01027,-0.90723 -0.405951,-2.07704 2.531427,-2.65114 2.937377,-0.5741 z"
       inkscape:connector-curvature="0" />
    <path
       style="fill:#c87137;fill-opacity:1;stroke:none;stroke-width:0.26458332;stroke-opacity:1"
       id="path864"
       d="m 62.11616,386.32317 c 0.02585,-0.35504 0.0088,-0.71584 0.07754,-1.06513 0.455848,-2.31761 1.840145,-4.42363 3.436503,-6.11568 0.454745,-0.482 0.965602,-0.9078 1.448404,-1.3617 2.522995,-2.12515 5.567862,-3.28771 8.701119,-4.16309 1.965004,-0.51549 3.966345,-0.8756 5.998863,-0.92413 0.549833,0.0111 1.102429,-0.0228 1.649497,0.0334 1.182981,0.12147 2.71494,1.20499 3.690901,1.85938 1.386863,1.01099 2.834325,1.93304 4.226721,2.93642 1.533877,1.183 3.021782,2.4239 4.554657,3.60825 1.205285,0.93419 2.527561,1.68659 3.9078,2.32557 0.941255,0.3723 1.789065,0.90299 2.603895,1.49538 0.1971,0.0954 0.86461,0.78927 1.06196,0.77455 -0.0621,-0.17492 0.45919,0.0755 0.51704,0.0996 0.19106,0.0759 0.30195,0.12325 0.49256,0.17019 0.20901,0.0661 0.35209,0.2641 0.55114,0.34527 0.11025,0.045 0.23996,0.0685 0.35756,0.12567 0.29064,0.16258 0.58363,0.3146 0.85941,0.50096 0.23178,0.15481 0.44844,0.33287 0.67073,0.49794 -0.01,-0.0982 0.49111,0.33727 0.58269,0.38412 0.34244,0.0479 0.61688,0.31482 0.8733,0.53032 0.20293,0.25736 0.61302,0.46604 0.0553,0.11237 2.04294,1.1158 0.46495,4.00496 -1.57799,2.88915 v 0 c -0.35175,-0.18583 -0.67071,-0.41272 -0.9843,-0.65586 -0.2465,-0.17867 -0.51626,-0.32699 -0.73207,-0.54577 -0.16811,-0.15558 -0.18277,-0.0782 -0.43313,-0.26782 -0.17725,-0.12148 -0.34787,-0.25842 -0.54779,-0.34 -0.32076,-0.11783 -0.61538,-0.29015 -0.90704,-0.46727 -0.0316,-0.0204 -0.807,-0.58052 -0.45898,-0.33814 -0.0549,-0.0283 -0.15231,-0.081 -0.28727,-0.0935 0.2481,0.23123 -0.79504,-0.13042 -0.81514,-0.13495 -0.59256,-0.25758 -1.13934,-0.59616 -1.68354,-0.94274 -0.715738,-0.40183 -1.510324,-0.55314 -2.298785,-0.76347 -1.834841,-0.58463 -3.562803,-1.41755 -5.046911,-2.66696 -1.443353,-1.19174 -2.78493,-2.50155 -4.275313,-3.63606 -1.400968,-1.01882 -2.853033,-1.97357 -4.151537,-3.12605 -0.385104,-0.33895 -0.787344,-0.76512 -1.253403,-1.00096 -0.321175,-0.16253 -0.573532,-0.0824 -0.537548,-0.0791 0.170601,0.0154 0.342503,0.008 0.513757,0.0117 -1.705242,0.26224 -3.296134,1.00884 -4.962221,1.43392 -2.587775,0.79433 -4.721865,1.59864 -6.780564,3.45372 -1.223782,1.09872 -1.162084,1.00044 -2.313506,2.21136 -1.013854,1.06624 -1.943708,2.22145 -2.99257,3.25409 -0.227232,0.22371 -0.477972,0.42223 -0.716957,0.63334 -0.705861,2.1742 -3.780639,1.17596 -3.074778,-0.99824 z"
       inkscape:connector-curvature="0" />
    <path
       style="fill:#c87137;fill-opacity:1;stroke:none;stroke-width:1.01047778;stroke-opacity:1"
       d="m 311.94438,301.38428 c -5.55585,1.2804 -11.60405,2.49022 -16.42816,5.39777 -0.38014,14.14685 -1.9421,29.58051 4.92213,42.47361 21.21068,0.70755 42.93912,-3.19663 63.80812,2.31305 7.03575,1.04168 14.77279,1.51921 21.33252,-1.32625 -0.049,-4.7267 -6.94987,-5.88285 -10.58041,-7.96146 -13.38718,-3.3191 -24.62818,-11.51601 -34.6688,-20.65729 -8.87861,-6.73868 -17.29463,-14.49132 -26.84008,-20.14075 -0.507,-0.10919 -1.02892,-0.12673 -1.54532,-0.0987 z"
       id="path866"
       inkscape:connector-curvature="0"
       transform="matrix(0.26458333,0,0,0.26458333,0,296.33334)" />
    <path
       style="fill:#c87137;fill-opacity:1;stroke:none;stroke-width:1.01047778;stroke-opacity:1"
       d="m 293.75775,306.30444 c -12.64202,3.77498 -23.94443,10.90882 -32.84645,20.63387 -3.03216,4.00831 -9.25931,7.08047 -9.51862,12.47704 2.84122,4.48872 9.92825,2.54907 14.34481,4.09035 11.03624,0.80647 21.70208,4.25375 32.70951,4.95855 4.79455,-2.36611 -1.56202,-8.22402 -0.63747,-12.37638 -1.43971,-9.65034 -0.12642,-19.98069 -2.08609,-29.46174 -0.65427,0.10962 -1.31256,-0.6928 -1.96569,-0.32169 z"
       id="path868"
       inkscape:connector-curvature="0"
       transform="matrix(0.26458333,0,0,0.26458333,0,296.33334)" />
    <path
       style="fill:#c87137;fill-opacity:1;stroke:none;stroke-width:1.01047778;stroke-opacity:1"
       d="m 389.49065,125.87693 c -19.61506,1.53286 -39.00774,3.89015 -58.74586,3.40444 -18.09753,0.56973 -35.93254,4.13504 -53.95793,5.57539 -4.88205,0.16885 -2.92672,5.58999 -0.37392,7.64883 6.98273,9.76809 15.77154,18.34173 27.04303,22.93786 10.07356,5.53023 21.58978,6.85047 32.88661,5.80706 27.74719,-0.74672 55.41325,-6.02662 81.18685,-16.41708 3.53199,-2.15912 10.76797,-0.53867 11.34616,-5.35829 -1.56068,-6.74479 -7.57282,-10.90202 -10.7225,-16.57618 1.00844,-5.66146 -7.10052,-4.48556 -10.50345,-5.06028 -6.11771,-0.13004 -12.06773,-1.88374 -18.15899,-1.96175 z"
       id="path870"
       inkscape:connector-curvature="0"
       transform="matrix(0.26458333,0,0,0.26458333,0,296.33334)" />
    <path
       style="fill:#c87137;fill-opacity:1;stroke:none;stroke-width:1.01047778;stroke-opacity:1"
       d="m 437.21401,126.55584 c -5.79253,0.021 -10.88356,3.23579 -16.66696,1.84334 -5.63992,0.43599 -2.97735,7.18829 -0.43222,9.69821 3.19365,3.18114 5.05286,9.58706 9.92124,10.13241 5.71894,-4.00941 6.60491,-12.20157 9.78111,-18.10571 1.07546,-1.99325 -0.51638,-3.86886 -2.60317,-3.56825 z"
       id="path872"
       inkscape:connector-curvature="0"
       transform="matrix(0.26458333,0,0,0.26458333,0,296.33334)" />
    <path
       style="fill:#c87137;fill-opacity:1;stroke:none;stroke-width:1.01047778;stroke-opacity:1"
       d="m 507.90403,208.65124 c -16.27675,2.65594 -33.54072,1.53224 -48.59013,9.44446 -7.99513,2.20625 0.55046,10.37303 1.42332,15.19383 4.1588,9.67895 8.75609,20.54737 19.36091,24.64421 12.15828,4.83549 26.5084,2.10257 37.81397,-3.79324 12.36532,-8.56719 21.18371,-22.16544 25.01327,-36.57061 -1.82514,-4.33705 -8.4021,-3.18627 -12.2032,-4.96128 -7.53461,-1.51159 -15.06002,-4.12252 -22.81814,-3.95737 z"
       id="path874"
       inkscape:connector-curvature="0"
       transform="matrix(0.26458333,0,0,0.26458333,0,296.33334)" />
    <path
       style="fill:#c87137;fill-opacity:1;stroke:none;stroke-width:1.01047778;stroke-opacity:1"
       d="m 543.50758,216.38771 c -4.58809,4.29152 -5.06731,11.74831 -8.87523,16.87024 -6.72708,12.26587 -18.18887,22.99101 -32.50107,24.54158 -11.35294,1.92658 -25.5412,0.81637 -32.00372,-10.16398 -6.08632,-8.46341 -8.68392,-18.92357 -14.53549,-27.37763 -12.401,5.26502 -24.15452,12.88754 -35.04897,20.99701 -7.94269,5.8001 -5.12519,17.02073 -3.48798,24.92815 13.54346,8.29331 26.92281,17.48273 40.97434,25.19116 14.01928,6.67495 30.17288,3.56608 45.13978,4.52172 9.2318,0.71228 16.2907,-7.05068 24.47968,-10.32622 22.43906,-12.52463 45.39559,-24.72361 70.61964,-30.40539 6.66924,-2.37017 14.52169,-2.54391 20.43278,-6.56569 0.97672,-4.60979 -5.72694,-6.11894 -8.445,-8.68971 -13.40289,-9.28108 -30.39277,-8.92603 -45.08916,-15.11807 -7.46291,-2.12447 -14.23219,-6.47013 -21.6596,-8.40317 z"
       id="path876"
       inkscape:connector-curvature="0"
       transform="matrix(0.26458333,0,0,0.26458333,0,296.33334)" />
    <path
       style="fill:#c87137;fill-opacity:1;stroke:none;stroke-width:1.01047778;stroke-opacity:1"
       d="m 617.31391,247.51911 c -13.71764,5.97418 -29.1717,7.52578 -43.00898,13.77457 -20.03216,8.54429 -39.75645,18.13745 -58.34865,29.48058 -3.86413,2.18275 -0.72095,6.40021 2.64263,6.96085 11.68908,4.38145 19.48619,15.62609 32.00768,18.31689 15.98684,4.17474 32.07503,8.51525 48.39438,11.03828 6.64635,2.33699 7.42841,-4.41136 8.14105,-9.2364 4.09734,-18.85146 13.8652,-36.74221 12.7498,-56.54831 -1.08639,-3.81205 3.25646,-13.78063 -2.57791,-13.78646 z"
       id="path878"
       inkscape:connector-curvature="0"
       transform="matrix(0.26458333,0,0,0.26458333,0,296.33334)" />
    <path
       style="fill:#6c5d53;fill-opacity:1;stroke:none;stroke-width:0.26458332;stroke-opacity:1"
       id="path880"
       d="m 194.40184,342.66008 c -0.1458,0.13696 -0.28211,0.28478 -0.4374,0.41087 -0.79757,0.64763 -1.70051,1.16723 -2.54324,1.75126 -0.93669,0.64913 -1.11789,0.80387 -2.02824,1.49816 -1.77412,1.39715 -3.3209,3.04248 -4.77625,4.76076 -0.65883,0.75615 -1.09823,1.58654 -1.30606,2.56027 -0.17137,0.95568 -0.43453,1.8895 -0.71752,2.81695 -0.12841,0.52495 -0.35139,1.17637 -0.0796,1.68983 0.4908,0.52292 1.09408,0.9309 1.66613,1.36059 0.84132,0.63515 1.61054,1.35417 2.36631,2.08663 0.61089,0.59222 1.16635,1.23655 1.73975,1.86405 0.53362,0.5724 1.07708,1.13392 1.58815,1.72674 0.33465,0.40847 0.78134,0.68555 1.22409,0.95944 0.6923,0.3644 1.10299,1.00073 1.4517,1.67508 0.19303,0.44028 0.42835,0.87672 0.5093,1.35536 -0.007,0.0237 -0.007,0.0531 -0.0422,0.007 -0.25074,-0.33127 -0.38786,-0.67415 -0.8618,-0.80138 -0.40146,-0.10777 -2.7033,0.0108 -0.034,-0.0918 0.71935,0.16482 1.16407,0.72066 1.38128,1.38681 0.0119,0.24594 0.008,0.49316 0.0357,0.73783 0.009,0.0831 0.0255,-0.16677 0.0195,-0.25021 -0.0353,-0.48818 -0.19347,-0.83612 -0.48703,-1.21259 -0.57706,-0.43723 -1.26426,-0.81814 0.95033,1.19204 0.0774,0.0703 -0.0357,-0.20604 -0.0536,-0.30906 0.10501,-0.14199 0.33066,0.14965 0.33925,0.25502 -0.58045,-0.39295 -0.55052,-0.40089 0.37489,1.76227 0.0733,0.17136 0.0792,-0.36696 0.0803,-0.55333 0.003,-0.4317 -0.23153,-0.72241 -0.49467,-1.02771 0.005,-0.49519 -2.39908,-0.34475 -1.79982,-0.25508 0.52811,0.079 1.08215,-0.11057 1.60193,0.0118 0.42622,0.10035 0.82597,0.71913 0.96799,1.09546 0.0638,0.16915 0.0655,0.35561 0.0982,0.53341 -0.0231,0.67053 -0.32107,1.47478 -1.01506,1.73343 -0.11798,0.044 0.26574,-0.10017 0.30787,-0.21882 0.23556,-0.66345 0.33235,-1.36828 0.49853,-2.05242 0.77923,0.77741 -0.66197,1.62928 -1.16052,2.27921 -1.57382,0.50108 -2.28245,-1.72464 -0.70864,-2.22572 v 0 c -0.3591,0.60212 -0.73323,1.19552 -1.07732,1.80634 -0.0128,0.0228 0.0192,0.0506 0.0166,0.0766 -0.0116,0.1183 -0.26112,-0.34176 -0.2294,-0.28402 0.35426,-1.9884 -0.2072,-1.84935 0.73295,-2.45128 0.11118,-0.0712 -0.23098,0.13424 -0.32373,0.22819 -0.37822,0.38312 -0.55784,0.78864 -0.54923,1.32245 0.10142,0.47991 0.33738,1.21521 0.92589,1.33602 0.48246,0.0991 1.65282,-0.47766 1.47747,-0.0174 -0.31452,0.8256 -1.62681,-0.009 -2.03551,-0.23143 -0.39336,-0.39231 -0.73918,-0.77899 -0.77912,-1.37196 -0.0167,-0.2484 -0.0751,-0.95224 0.0619,-0.74432 1.60848,2.44228 0.87765,1.88373 0.36745,1.52732 -0.38206,-0.26762 -0.68542,-0.61051 -0.86749,-1.04651 -0.32057,-0.98534 -0.34091,-0.7988 1.02289,0.72227 0.0207,0.0231 -0.0626,0.002 -0.0932,-0.004 -0.24857,-0.0459 -0.48045,-0.13783 -0.69271,-0.27553 -0.34498,-0.2619 -0.61789,-0.53444 -0.76565,-0.96166 -0.0645,-0.1864 -0.0908,-0.38503 -0.11068,-0.58125 -0.0113,-0.11115 -0.006,-0.44374 0.0178,-0.33467 0.0469,0.21238 0.0347,0.4336 0.052,0.6504 0.16479,0.50191 0.46199,0.88515 0.97724,1.08172 0.33881,-0.0159 1.34497,0.0367 1.01643,-0.0476 -0.42541,-0.10913 -0.88989,0.0718 -1.31721,-0.0296 -0.58323,-0.13835 -0.90937,-0.74044 -1.2101,-1.19424 -0.23095,-0.37603 -0.40527,-0.77664 -0.53676,-1.19855 -0.009,-0.0293 -0.0562,-0.0992 -0.0276,-0.0879 0.0373,0.0148 0.0421,0.0684 0.0638,0.10225 0.0138,0.0216 0.0506,0.0397 0.0427,0.0642 -0.0342,0.10668 -0.5318,-0.32053 -0.52499,-0.21979 -0.75049,-0.42959 -1.42749,-0.96398 -1.97893,-1.6353 -0.50533,-0.56539 -0.9959,-1.14397 -1.50676,-1.70451 -0.51359,-0.56111 -1.05717,-1.09456 -1.62465,-1.60117 -0.73699,-0.64058 -1.48403,-1.27001 -2.25353,-1.87139 -1.04952,-0.87228 -2.02644,-1.8205 -2.448,-3.16169 -0.29166,-1.21601 -0.32193,-2.3153 0.0253,-3.52934 0.24483,-0.7755 0.5719,-1.53345 0.6691,-2.34717 0.15922,-1.46695 0.37035,-2.92454 1.10215,-4.23801 0.17956,-0.31804 0.34311,-0.64566 0.53868,-0.95411 1.23973,-1.95527 2.88462,-3.62934 4.66197,-5.09632 2.00425,-1.50175 4.19292,-2.96442 6.76048,-3.17415 2.09646,-1.24762 3.86086,1.71722 1.7644,2.96483 z"
       inkscape:connector-curvature="0" />
    <path
       style="fill:#6c5d53;fill-opacity:1;stroke:none;stroke-width:0.26458332;stroke-opacity:1"
       id="path882"
       d="m 97.570664,330.30242 c -0.07457,0.22805 -0.135403,0.46105 -0.223699,0.68414 -0.359172,0.9075 -0.863256,1.75229 -1.263923,2.64115 -0.367273,0.81478 -0.390599,0.93093 -0.682429,1.75058 -0.219348,0.78881 -0.640683,1.91936 -0.09738,2.68725 0.08699,0.12295 0.209593,0.21634 0.314386,0.32451 0.171397,0.12593 0.338386,0.2581 0.514186,0.37781 0.887862,0.60459 1.811052,1.15844 2.695022,1.7694 0.577318,0.39901 1.933423,1.39979 2.474053,1.79617 2.68208,2.1344 5.44305,4.15979 8.29024,6.06758 1.93465,1.28081 3.91339,2.59775 5.31866,4.48362 0.24091,0.32329 0.44067,0.67529 0.66099,1.01294 0.88774,1.487 1.27903,3.18908 2.01593,4.74367 0.46594,0.88052 1.18978,1.56827 1.88863,2.26178 0.16571,0.1199 0.96816,1.1687 1.11597,1.1634 0.0193,-8e-4 0.0186,-0.0339 0.0279,-0.0508 -0.11443,-0.70746 0.61898,0.33625 -0.68618,-0.31541 -0.11865,-0.0592 0.25485,-0.0736 0.38327,-0.10675 0.47938,-0.1236 0.58817,-0.14009 1.08527,-0.24411 1.14465,-0.21607 2.26341,-0.48349 3.27569,-1.07181 1.01347,-0.75206 1.6277,-1.88818 2.20203,-2.98465 0.43223,-0.83809 0.80691,-1.69279 0.88431,-2.63729 -0.0119,-1.27373 -0.1766,-2.54115 -0.25854,-3.81215 -0.11615,-1.402 0.10097,-2.85319 -0.37324,-4.20218 -0.35755,-0.82457 -1.05087,-1.40812 -1.68421,-2.01768 -0.92694,-0.856 -1.54235,-1.92446 -2.02764,-3.07376 -0.40391,-1.1815 -0.71594,-2.39121 -1.10314,-3.57826 -0.31893,-1.0816 -0.74447,-2.12695 -1.09342,-3.19855 -0.38462,-1.11326 -0.46876,-2.27474 -0.41342,-3.44162 0.0606,-0.6427 0.17254,-1.27967 0.28159,-1.91566 0.34657,-2.01756 0.33144,-0.87174 4.0951,-0.53025 -0.18927,1.50597 -4.84717,1.18724 -3.8824,0.0186 1.06771,-0.36087 2.14262,-0.70109 3.20313,-1.08261 0.0653,-0.0235 -0.16401,-0.0448 -0.2079,0.009 -0.13041,0.15961 0.0303,0.41287 0.078,0.6134 0.97452,0.61017 0.11161,1.98836 -0.86292,1.37818 v 0 c -0.0716,0.12005 -0.0998,0.28069 -0.21483,0.36014 -0.1753,0.12109 -0.6615,0.0376 -0.82455,-0.0146 -0.14218,-0.0455 -0.53338,-0.11949 -0.40383,-0.19368 0.9366,-0.53637 1.98318,-0.85242 2.97477,-1.27863 0.065,-0.0118 0.19905,0.13881 0.13344,0.14655 -0.66336,0.0782 -3.34069,1.42514 -3.97114,0.25793 1.29323,0.0237 2.58627,0.0773 3.8797,0.071 0.0324,-1.6e-4 0.0161,-0.065 0.0367,-0.09 0.0754,-0.0916 0.0663,0.55744 0.0999,0.42667 0.0422,0.64854 0.013,1.29757 2e-5,1.94677 -0.007,0.68605 0.0368,1.35964 0.3283,1.99414 0.47463,1.11002 1.01216,2.19787 1.3288,3.36856 0.31196,1.0952 0.54717,2.20428 0.79119,3.31561 0.2466,0.67717 0.69221,1.15424 1.26115,1.59573 1.15536,1.03226 2.1669,2.19526 2.72055,3.66887 0.2481,0.77246 0.35756,1.01386 0.48886,1.8132 0.19373,1.17941 0.15388,2.38187 0.13429,3.57126 -0.0462,1.38582 -0.13408,2.76891 -0.26972,4.14902 -0.10263,1.39024 -0.23346,2.77968 -0.78009,4.08138 -0.85799,1.90212 -1.88764,3.44906 -3.62564,4.66666 -1.46341,0.91291 -2.96477,1.55462 -4.70719,1.67865 -0.59925,0.0331 -1.18319,0.025 -1.78243,0.0174 -1.13258,-0.0144 -1.6059,0.0796 -2.55147,-0.39124 -0.76784,-0.45394 -1.46219,-1.00928 -2.14114,-1.58651 -1.03038,-0.92876 -2.01667,-1.91428 -2.70378,-3.13469 -0.40313,-0.74996 -0.39821,-0.70596 -0.74111,-1.48197 -0.39478,-0.89342 -0.6882,-1.84233 -1.25411,-2.64958 -0.15057,-0.17564 -0.28704,-0.36444 -0.45173,-0.52693 -1.42509,-1.406 -3.61984,-2.09455 -5.25397,-3.21629 -1.33238,-0.82399 -1.77761,-1.06564 -3.05793,-1.99643 -1.93782,-1.4088 -3.698704,-3.03776 -5.411172,-4.70817 -1.831903,-1.80415 -3.853616,-3.50633 -5.136184,-5.76979 -0.137914,-0.30825 -0.297844,-0.60757 -0.413747,-0.92475 -0.553702,-1.51527 -0.460021,-3.15268 -0.0127,-4.67839 0.789074,-1.99922 1.793401,-4.02162 3.629501,-5.25509 0.882298,-1.38408 2.839672,-0.13632 1.957377,1.24775 z"
       inkscape:connector-curvature="0" />
    <path
       style="fill:#6c5d53;fill-opacity:1;stroke:none;stroke-width:0.26458332;stroke-opacity:1"
       id="path886"
       d="m 88.154445,355.69841 c -1.528537,1.06039 -3.44439,1.41387 -5.221782,1.86794 -1.647118,0.36313 -3.215513,0.92214 -4.734663,1.64691 -1.910363,0.98513 -3.427775,2.48015 -4.794096,4.1092 -1.088375,1.33853 -1.966199,2.82623 -2.806441,4.3276 -0.436311,0.74213 -0.711327,1.08744 -0.519933,1.93088 0.48482,1.29502 1.017352,2.56955 1.466215,3.87793 0.47271,1.42663 0.969026,2.84498 1.687269,4.16824 0.723763,1.13938 1.291588,1.5695 2.598153,1.86359 0.773602,0.0991 1.554588,0.0599 2.32963,0.005 0.324255,-0.0232 0.651687,-0.0261 0.971656,-0.0835 0.06143,-0.011 -0.239742,-0.0522 -0.177697,-0.059 0.353078,-0.0382 0.70985,-0.0247 1.064776,-0.0371 1.421529,-0.0233 2.849808,-0.0185 4.269343,0.0635 0.827521,0.0478 1.66271,0.23162 2.478151,0.37275 0.825939,0.14892 1.660448,0.22165 2.499585,0.20358 0.206237,-0.004 0.433416,0.0632 0.618196,-0.0285 0.149852,-0.0744 -0.333994,-0.0198 -0.500991,-0.0297 1.450295,-0.11687 2.614641,-0.90709 3.737197,-1.76219 0.900419,-0.78304 1.794936,-1.69992 2.112761,-2.88817 0.0489,-0.1828 0.06635,-0.3726 0.09952,-0.55889 0.0073,-1.44944 -0.352949,-2.87551 -0.629372,-4.29146 -0.238742,-1.17239 -0.49012,-2.34189 -0.693852,-3.5211 -0.171965,-0.91309 -0.04063,-1.83406 -0.02574,-2.75182 -0.07548,-0.58537 -0.711626,-0.83088 -1.146829,-1.13315 -1.453033,-0.90062 -2.799445,-1.95952 -4.100161,-3.06529 -0.749688,-0.63755 -1.422442,-1.35752 -2.200581,-1.9611 -0.53874,-0.3057 -1.026414,-0.68976 -1.413505,-1.17434 -0.04692,-0.13431 -0.01299,0.007 0.06253,-0.0196 3.502488,-1.23873 3.782873,-1.14541 1.686156,-0.99736 -0.102783,0.48836 -0.79343,0.343 -0.690648,-0.14536 v 0 c -0.353652,-0.13072 -1.330007,-0.12801 -1.060952,-0.39214 2.108353,-2.06975 2.109586,-1.91551 3.261323,-1.25955 0.40459,0.19661 0.785788,0.43896 1.165696,0.67868 0.979262,0.55723 1.944544,1.14137 2.850954,1.81262 1.501846,1.10608 2.995782,2.25439 4.225888,3.66667 1.004326,1.29924 1.6047,2.40009 1.586597,4.08132 -0.01974,0.61649 -0.140509,1.23954 0.05084,1.84145 0.357468,1.17033 0.849495,2.29569 1.146249,3.48561 0.449569,1.89141 0.841433,3.82483 0.705043,5.77961 -0.057,0.38348 -0.0877,0.77178 -0.170929,1.15044 -0.45693,2.07928 -1.635217,3.85689 -3.236023,5.23548 -0.341948,0.2489 -0.669121,0.51949 -1.025845,0.74671 -1.503836,0.95789 -3.233904,1.5394 -5.004853,1.70332 -0.629418,0.0138 -1.258692,0.0384 -1.888255,0.0414 -1.183671,0.006 -2.361504,-0.17218 -3.540093,-0.2517 -1.965132,-0.10368 -1.993535,0.0231 -3.889094,0.0743 -2.661619,0.0711 -5.367605,0.12586 -7.828296,-1.04181 -0.296852,-0.16038 -0.603544,-0.30374 -0.890556,-0.48113 -1.279718,-0.79092 -2.281454,-1.92301 -3.06179,-3.19693 -0.865841,-1.50364 -1.610371,-3.07008 -2.117788,-4.73435 -0.469107,-1.51535 -0.893102,-3.05177 -1.061072,-4.63423 -0.07199,-1.27617 0.0205,-2.3936 0.456083,-3.60735 0.606192,-1.96447 1.278118,-3.91351 2.518267,-5.5867 0.74344,-0.9527 0.993439,-1.33896 1.8684,-2.19022 1.299192,-1.26399 2.83404,-2.26456 4.494583,-2.98362 0.348486,-0.13879 0.692044,-0.29066 1.045454,-0.41638 1.41011,-0.50164 2.894756,-0.75047 4.332001,-1.15652 1.890509,-0.53161 3.81453,-1.23802 5.80725,-1.01351 1.922881,-0.87403 3.158953,1.84533 1.236072,2.71937 z"
       inkscape:connector-curvature="0" />
    <path
       style="fill:#6c5d53;fill-opacity:1;stroke:none;stroke-width:1.01047778;stroke-opacity:1"
       d="m 296.07869,236.55384 c -12.57391,5.09156 -21.28847,16.75865 -27.97611,28.15984 -2.97188,4.69615 -6.54806,10.23942 -3.24555,15.77147 2.62683,5.38667 2.83684,12.75691 7.57806,16.78025 5.11799,0.46744 9.92184,-3.17913 15.13099,-3.67486 5.83656,-2.50309 13.59701,-0.92278 18.40227,-5.41944 7.30188,-16.3117 3.25095,-36.3197 -7.07729,-50.42126 -0.72929,-0.75146 -1.7315,-1.31872 -2.81237,-1.196 z"
       id="path888"
       inkscape:connector-curvature="0"
       transform="matrix(0.26458333,0,0,0.26458333,0,296.33334)" />
    <path
       style="fill:#6c5d53;fill-opacity:1;stroke:none;stroke-width:1.01047778;stroke-opacity:1"
       d="m 307.57682,286.93169 c -5.27599,1.00492 -10.14568,3.60974 -15.58741,4.0794 -6.62588,1.98336 -14.05608,2.73306 -19.96483,6.3747 -1.04994,5.2106 3.79308,9.92051 6.49903,14.02038 4.84008,7.26952 14.22067,3.03161 21.41911,3.94896 10.8209,-0.63566 21.53882,0.68779 32.2645,1.60669 5.78228,-0.47678 14.15555,0.24224 17.32022,-5.61091 0.0385,-5.4396 -7.09154,-7.17906 -10.36768,-10.49066 -9.74285,-6.20992 -19.12051,-15.15603 -31.58294,-13.92856 z"
       id="path890"
       inkscape:connector-curvature="0"
       transform="matrix(0.26458333,0,0,0.26458333,0,296.33334)" />
    <path
       style="fill:#6c5d53;fill-opacity:1;stroke:none;stroke-width:1.01047778;stroke-opacity:1"
       d="m 320.38147,228.27661 c -7.26918,1.72497 -15.10088,3.1106 -21.57528,6.84046 -1.20369,5.97392 4.39126,11.10836 5.68789,16.79919 3.96382,10.97906 4.93573,23.25036 0.62168,34.35427 1.02764,4.96146 7.95432,1.30136 11.65207,3.37879 11.35518,4.18379 21.02949,11.99093 30.5709,19.19315 2.02044,5.19701 7.83603,-0.0608 9.67058,-2.75315 8.10043,-8.98027 2.72124,-21.93125 1.29665,-32.32148 -1.85612,-6.4892 -1.12555,-13.52469 -2.97025,-19.87799 -6.8561,-6.08888 -14.97704,-10.63059 -21.62257,-17.16078 -4.13926,-2.90159 -8.04557,-7.8894 -13.33167,-8.45246 z"
       id="path892"
       inkscape:connector-curvature="0"
       transform="matrix(0.26458333,0,0,0.26458333,0,296.33334)" />
    <path
       style="fill:#6c5d53;fill-opacity:1;stroke:none;stroke-width:1.01047778;stroke-opacity:1"
       d="m 455.36511,134.44428 c -5.69472,3.09985 -6.31862,11.14066 -10.08109,16.03147 -3.04721,6.89595 -10.25071,9.75824 -15.26177,14.72495 -2.49602,5.56448 1.84589,11.74662 3.17551,17.19588 3.06608,7.41081 5.98755,15.30725 11.4034,21.32661 8.5954,-1.42385 17.01393,-4.68689 25.85984,-5.49146 3.77179,-1.53618 11.03641,0.42931 12.29358,-4.53635 -2.14733,-10.29816 -13.58159,-15.67882 -15.63872,-26.22703 -3.54074,-10.52868 -7.30885,-21.10919 -9.37257,-31.88334 -0.48798,-0.79858 -1.44254,-1.28239 -2.37818,-1.14073 z"
       id="path894"
       inkscape:connector-curvature="0"
       transform="matrix(0.26458333,0,0,0.26458333,0,296.33334)" />
    <path
       style="fill:#6c5d53;fill-opacity:1;stroke:none;stroke-width:1.01047778;stroke-opacity:1"
       d="m 428.19865,164.7823 c -11.06733,6.29302 -23.56913,9.71026 -36.0476,12.04086 -4.97936,2.33814 0.73835,6.73609 3.33713,8.30182 11.45241,8.6164 23.7391,16.30104 34.63867,25.52156 4.83957,-0.78399 9.88425,-3.60178 13.92367,-6.53258 2.07611,-3.75719 -3.35667,-6.46572 -4.04191,-9.99821 -4.44128,-9.19225 -8.62479,-18.95795 -9.59559,-29.05913 -0.73708,0.0314 -1.482,-0.86165 -2.21437,-0.27432 z"
       id="path896"
       inkscape:connector-curvature="0"
       transform="matrix(0.26458333,0,0,0.26458333,0,296.33334)" />
    <path
       style="fill:#6c5d53;fill-opacity:1;stroke:none;stroke-width:1.01047778;stroke-opacity:1"
       d="m 389.50052,125.55129 c -6.98773,1.01879 -14.90834,0.16667 -21.22991,3.3847 -5.05586,7.73075 -9.88735,16.58453 -10.40871,25.97244 1.63977,6.63216 9.62301,9.03818 14.35984,13.17371 6.0744,3.07705 10.44401,9.46553 17.12878,11.1488 15.61184,-3.41803 31.35503,-8.08476 45.33335,-15.99397 11.53691,-7.37953 15.4483,-21.12683 23.21533,-31.61098 1.99918,-5.39633 -5.64197,-6.23906 -9.266,-5.72735 -18.23219,1.0003 -36.57245,4.29931 -54.71579,0.24867 -1.47578,-0.32921 -2.86358,-0.86897 -4.41689,-0.59602 z m 39.69282,23.02784 c 2.03761,1.12047 -0.42544,0.70222 0,0 z"
       id="path898"
       inkscape:connector-curvature="0"
       transform="matrix(0.26458333,0,0,0.26458333,0,296.33334)" />
    <path
       style="fill:#6c5d53;fill-opacity:1;stroke:none;stroke-width:1.01047778;stroke-opacity:1"
       d="m 479.72118,195.29596 c -14.91671,2.11717 -30.47314,4.43291 -43.73672,11.7922 -5.2605,0.022 -4.36807,6.64149 -1.75649,9.38441 5.88395,9.46327 7.69367,21.33081 16.60099,28.83178 3.62842,5.75764 10.69712,0.64737 15.82706,-0.15947 13.18647,-4.79698 18.7321,-20.46557 17.35574,-33.52536 -1.08598,-5.07967 1.32754,-12.12063 -2.76105,-16.04528 -0.47279,-0.22987 -1.00745,-0.31349 -1.52953,-0.27828 z"
       id="path900"
       inkscape:connector-curvature="0"
       transform="matrix(0.26458333,0,0,0.26458333,0,296.33334)" />
    <path
       style="fill:#6c5d53;fill-opacity:1;stroke:none;stroke-width:1.01047778;stroke-opacity:1"
       d="m 735.65624,174.21605 c -15.37829,7.80769 -28.6485,19.71603 -39.75204,32.83658 -2.82301,4.50781 -6.44476,10.27698 -4.85503,15.73346 3.81828,2.41887 9.15228,-0.5599 13.59588,0.005 8.13457,-0.33011 18.10303,-2.30965 24.52795,4.09211 4.71458,-0.52633 7.07455,6.74077 11.59484,4.78398 2.90728,-8.04937 1.62901,-17.26216 2.18241,-25.76126 -0.31094,-10.34198 -0.83104,-21.25733 -4.98294,-30.83339 -0.53741,-0.68898 -1.44938,-1.06793 -2.31107,-0.85654 z"
       id="path902"
       inkscape:connector-curvature="0"
       transform="matrix(0.26458333,0,0,0.26458333,0,296.33334)" />
    <path
       style="fill:#6c5d53;fill-opacity:1;stroke:none;stroke-width:1.01047778;stroke-opacity:1"
       d="m 706.86157,221.373 c -5.60855,0.80387 -13.13303,-1.05186 -17.34785,3.52285 -2.34018,4.14296 -2.41966,9.92723 2.45083,12.26503 11.32003,9.66148 21.21912,20.93774 32.39684,30.70988 3.43664,4.13313 4.72449,11.76986 10.82908,12.62702 3.926,-3.0242 2.28992,-9.59145 3.7518,-14.00261 1.70093,-9.1493 1.65245,-18.78472 3.38865,-27.77235 2.19421,-2.36224 0.60638,-6.75568 -2.74132,-6.12405 -6.7955,-6.19674 -15.03257,-12.15646 -24.75559,-11.15865 -2.65618,-0.10003 -5.31493,-0.10832 -7.97244,-0.0671 z m 12.25402,11.51984 c 1.15301,5.58769 -2.9583,-0.58792 0,0 z"
       id="path904"
       inkscape:connector-curvature="0"
       transform="matrix(0.26458333,0,0,0.26458333,0,296.33334)" />
    <path
       style="fill:#6c5d53;fill-opacity:1;stroke:none;stroke-width:0.26458332;stroke-opacity:1"
       id="path906"
       d="m 156.04241,388.54606 c -0.0884,-0.25918 -0.20834,-0.50966 -0.26518,-0.77754 -0.44314,-2.08841 0.23625,-4.14097 1.00729,-6.05332 0.76852,-1.72382 1.93879,-3.2127 2.93286,-4.80371 0.49591,-0.79071 0.88938,-1.67184 1.55526,-2.34349 0.17286,-0.17435 0.37066,-0.32207 0.55599,-0.48311 1.33381,-0.92668 2.9345,-0.71642 4.47229,-0.64117 1.60722,0.0301 2.93917,0.9148 4.1595,1.87082 0.93743,0.80052 1.80167,1.69153 2.8637,2.3301 1.02553,0.40884 1.66383,0.83692 2.45883,1.62434 0.81604,0.87196 1.23606,1.98401 1.75449,3.03509 0.3305,0.60137 0.80327,1.10265 1.20887,1.65269 0.48829,0.65355 0.98168,1.30743 1.32946,2.04854 0.67113,1.89072 -0.47771,1.2365 -3.68307,2.04042 -0.0312,0.008 -0.14707,-0.53241 -0.14819,-0.53727 -0.5348,-1.53017 3.79715,-3.01484 3.79103,-1.38131 -0.002,0.44413 0.20636,0.95411 -0.0268,1.33212 -0.28032,0.4545 -0.80464,0.90521 -1.33807,0.88083 -0.3985,-0.0182 -0.4638,-0.64917 -0.69569,-0.97376 -0.21288,-0.0727 -0.11011,-0.37371 0.10276,-0.30104 v 0 c -0.0766,-0.3102 0.0891,-0.91225 -0.22988,-0.93059 -1.50657,-0.0866 -1.06059,1.41988 -1.12735,2.07987 -0.004,0.0385 -0.15206,0.0203 -0.11601,0.006 3.70669,-1.4519 3.71439,-0.0881 3.5862,-1.69026 -0.003,-0.0292 -0.005,-0.0584 -0.008,-0.0877 0.006,-0.005 0.0129,-0.01 0.0193,-0.0145 -1.24078,0.51902 -2.48157,1.03804 -3.72235,1.55707 -0.0618,0.0294 0.0412,0.14109 0.0159,0.20468 -0.0385,0.0968 -0.38732,-0.32373 -0.25713,-0.17769 -0.47964,-0.54287 -0.84525,-1.16677 -1.25628,-1.7607 -0.56418,-0.70403 -1.20134,-1.356 -1.63814,-2.15412 -0.37365,-0.68751 -0.68892,-1.40402 -1.07436,-2.08447 -0.10494,-0.10531 -0.21822,-0.10711 -0.3679,-0.15397 -0.51488,-0.16122 -1.02383,-0.34118 -1.50863,-0.58076 -1.31268,-0.7031 -2.46151,-1.6192 -3.49969,-2.68748 -0.7601,-0.67185 -0.99056,-0.78091 -2.01418,-0.83061 -0.15023,-0.0171 -0.30031,-0.0356 -0.4507,-0.0513 -0.12489,-0.013 -0.49892,-0.0139 -0.37509,-0.0347 0.26856,-0.0451 0.54819,0.01 0.81603,-0.0394 0.0632,-0.0116 -0.13116,-0.0324 -0.17629,-0.0781 -0.0743,-0.0753 0.0509,-0.24852 0.0693,-0.28569 0.0243,-0.054 0.0525,-0.10637 0.073,-0.16194 0.005,-0.0128 0.008,-0.0528 0.002,-0.0409 -0.28233,0.50544 -0.29554,1.13662 -0.55441,1.65191 -0.63684,1.66862 -1.49737,3.22125 -2.32579,4.80027 -0.66724,1.48318 -1.1181,3.0036 -1.59725,4.55237 0.33465,3.05295 -3.98287,3.52622 -4.31753,0.47327 z"
       inkscape:connector-curvature="0" />
    <path
       style="fill:#6c5d53;fill-opacity:1;stroke:none;stroke-width:1.01047778;stroke-opacity:1"
       d="m 627.44236,308.21093 c -4.94125,5.65261 -5.70069,14.14718 -9.42389,20.69505 -1.84534,5.66551 -6.71996,8.8665 -11.2534,12.26191 -3.0179,2.69113 0.0447,7.32062 3.78534,5.72933 16.51909,-1.25653 33.33967,-3.47391 49.11099,-8.21825 1.39751,-4.11531 -4.30656,-7.68416 -5.31309,-11.97354 -3.40608,-6.58705 -12.24581,-6.84655 -17.09326,-12.0981 -3.21566,-1.95383 -5.8499,-6.28752 -9.81269,-6.3964 z"
       id="path908"
       inkscape:connector-curvature="0"
       transform="matrix(0.26458333,0,0,0.26458333,0,296.33334)" />
    <path
       style="fill:#6c5d53;fill-opacity:1;stroke:none;stroke-width:1.01047778;stroke-opacity:1"
       d="m 624.00635,306.06958 c -5.5024,0.38629 -4.61279,7.80586 -7.43452,11.19223 -2.59233,6.7157 -7.14719,13.00941 -8.51209,20.0339 2.36365,4.42904 7.38497,-0.82552 8.88708,-3.53272 4.25693,-8.00262 7.18207,-16.75371 11.15472,-24.69947 0.0175,-2.16053 -2.23976,-3.12017 -4.09519,-2.99394 z"
       id="path910"
       inkscape:connector-curvature="0"
       transform="matrix(0.26458333,0,0,0.26458333,0,296.33334)" />
  </g>
  <g
     inkscape:groupmode="layer"
     id="layer1"
     inkscape:label="arm 1"
     style="display:inline"
     sodipodi:insensitive="true">
    <path
       style="fill:#000000;fill-opacity:1;stroke:none;stroke-width:0.27588603;stroke-opacity:1"
       id="path849"
       d="m 58.717814,89.184498 c 0.420317,-0.01965 0.840306,-0.06677 1.260951,-0.05896 1.029105,0.0191 2.278166,0.190838 3.289605,0.332186 1.666589,0.232899 3.329829,0.500335 4.995137,0.744342 2.227472,0.259382 4.451543,0.544968 6.662955,0.935996 1.956972,0.507011 3.918206,0.892168 5.931042,0.946123 1.179399,-0.09583 2.615362,0.01433 3.768371,-0.224167 0.192087,-0.03973 -0.778669,-0.02526 -0.584663,-0.05177 0.470146,-0.06423 2.424073,-0.08329 2.898529,-0.09132 0.474506,0.0051 0.949044,0.0074 1.423519,0.01528 1.116965,0.01861 2.234914,0.007 3.350768,0.06429 1.550397,0.07961 3.101578,0.536726 4.62453,0.834872 0.809681,0.147498 1.6226,0.277652 2.445208,0.284798 0.240683,0.0021 0.960556,0.01326 0.721839,-0.02019 -0.366864,-0.05142 -0.748882,0.05658 -1.109255,-0.03411 -0.254921,-0.06415 0.522496,-0.03187 0.783743,-0.04781 2.368217,-0.225535 4.743717,-0.218185 7.118527,-0.218165 2.06636,0.193583 4.13576,0.122387 6.20304,0.0014 0.44158,-0.02704 0.89291,0.02281 1.32474,-0.08111 0.23424,-0.05638 -0.9543,-0.02498 -0.71725,-0.0651 0.46768,-0.07918 0.94592,-0.04084 1.41908,-0.05373 1.41676,-0.03861 2.8337,-0.02554 4.25066,-0.01657 2.95008,0.104649 5.90095,0.161252 8.85141,0.253678 0.97959,0.02359 1.95918,-0.007 2.93865,-0.01985 0.33171,-0.0043 1.32052,0.06034 0.99516,-0.01 -0.33859,-0.07322 -0.6936,-0.0495 -1.03564,0.0012 -0.3115,0.04622 0.62872,0.0083 0.94308,0.01248 1.48227,0.04719 2.96289,0.137755 4.44371,0.22037 1.82423,0.06897 3.64842,-0.0426 5.47208,0.007 0.7561,0.116866 4.43154,0.07206 0.79481,0.20479 0.33613,0.09274 0.66509,0.120385 1.00743,0.06982 1.46949,0.110541 2.89257,-0.181334 4.34063,-0.358332 -0.38481,-0.354575 2.22769,0.145614 1.73346,-0.185681 -0.31518,-0.211266 -0.76014,0.08105 -1.10977,-0.05143 -0.28935,-0.109632 0.6127,-0.0137 0.91905,-0.02083 2.2185,-0.05168 -0.41432,0.0082 1.76989,-0.04115 1.56892,-0.05205 3.13697,-0.15331 4.69925,-0.319638 1.64052,-0.157996 3.26709,-0.440805 4.90193,-0.650087 1.25518,-0.193007 2.52011,-0.196062 3.78272,-0.259206 1.13585,-0.210158 2.19935,-0.114148 3.3785,-0.116553 0.19948,-2.88e-4 0.78846,-0.09416 0.58961,-0.111378 -0.54545,-0.04724 -1.09421,-0.01919 -1.64132,-0.02877 1.15611,-0.183184 2.29714,-0.457496 3.4419,-0.708308 1.26662,-0.296543 2.55254,-0.474986 3.82313,-0.746013 1.05832,-0.292478 2.11811,-0.561061 3.1986,-0.736701 0.56319,-0.06599 1.10865,-0.216685 1.66,-0.344263 0.55335,-0.240904 1.09749,-0.502955 1.62473,-0.806314 0.63053,-0.358152 1.31893,-0.555175 1.97873,-0.832309 0.78608,-0.294712 1.55695,-0.634863 2.33667,-0.948606 0.99178,-0.460188 2.04134,-0.652238 3.10556,-0.764521 0.50182,0.04263 0.90287,-0.03122 1.3881,-0.176513 0.41467,-0.127513 0.58544,-0.250643 0.86169,0.174775 0.57869,0.899641 1.08887,1.85875 1.6337,2.787411 0.18879,-0.874482 1.32623,-0.584203 1.13745,0.290276 v 0 c 0.64358,1.245989 1.34207,1.957907 0.94275,3.317457 -0.13359,0.155705 -0.24246,0.341751 -0.40076,0.467115 -0.5368,0.425125 -1.39035,0.54746 -2.02996,0.444963 0.31893,-0.398733 -0.25242,0.201312 -0.4335,0.165586 -0.8294,0.318197 -1.67246,0.553865 -2.54697,0.675617 -0.73622,0.175209 -1.47944,0.343621 -2.19102,0.615925 -0.59406,0.189495 -1.16132,0.471908 -1.7665,0.627423 -0.49275,0.10727 -0.93067,0.377201 -1.37573,0.620948 -0.82156,0.496737 -1.67227,0.944081 -2.56737,1.262223 -1.00017,0.333834 -2.02142,0.487051 -3.03768,0.735642 -1.37727,0.494478 -2.74713,1.025233 -4.19124,1.248397 -1.43101,0.25123 -2.87131,0.468514 -4.31776,0.573206 -0.84928,0.01022 -1.69867,0.048 -2.54785,0.03055 -0.15829,-0.0033 -0.31108,-0.06432 -0.46725,-0.09252 -0.10641,-0.01921 -0.42815,-0.04552 -0.32036,-0.04966 0.57811,-0.02213 2.31358,-0.02736 1.73514,-0.03217 -1.26108,0.530538 -2.55536,0.930509 -3.89964,1.126838 -1.75302,0.25627 -3.51701,0.40124 -5.28316,0.50166 -1.56882,0.10416 -3.12197,0.35122 -4.67555,0.6052 -2.58375,0.32519 -5.21772,0.41737 -7.80021,0.0274 -0.77441,-0.10144 -4.13349,-0.51413 -0.56742,-0.36804 -0.32794,-0.0597 -0.64234,0.0327 -0.9646,0.10318 -1.5609,0.0437 -3.11953,0.13712 -4.68084,0.12806 -0.76695,-0.0111 -1.5331,-0.0437 -2.30011,-0.0459 -0.19004,-5.7e-4 -0.76017,-0.003 -0.57013,-0.002 0.44168,0.004 0.88337,0.005 1.32506,0.009 -1.44271,0.0838 -2.8848,0.18201 -4.32893,0.23416 -2.62763,0.0417 -5.25377,-0.002 -7.88082,-0.0426 -0.0285,5.7e-4 -1.99379,0.0334 -2.00225,0.0478 -0.17436,0.29672 1.24263,-0.14252 0.97049,0.0483 -0.3123,0.21901 -0.74263,0.0329 -1.11383,0.0522 -2.46536,0.12783 0.12548,0.0109 -2.47244,0.12233 -3.56774,0.12086 -7.14888,0.18369 -10.71104,-0.0994 -1.97143,-0.22045 -3.93141,-0.60058 -5.91346,-0.66118 0.37857,-0.005 0.7573,-0.002 1.13572,-0.0157 0.26082,-0.009 -0.5219,5.7e-4 -0.78283,0.003 -1.14543,0.0133 -2.28991,0.0709 -3.43495,0.10264 -2.577085,0.0626 -5.154,0.0458 -7.706528,-0.38922 -0.944345,-0.11937 -1.874517,-0.20977 -2.826824,-0.19717 -0.351112,0.004 -0.71773,-0.07404 -1.052769,0.0402 -0.260313,0.0888 1.083556,-0.0263 0.817637,0.04 -0.425995,0.10623 -0.872633,0.055 -1.30895,0.0825 -3.702764,0.22047 -7.459707,0.37088 -11.109118,-0.470642 -0.43933,-0.116337 -0.881735,-0.219723 -1.317993,-0.349014 -1.392592,-0.412714 -2.728198,-1.108894 -4.178734,-1.241677 -2.35001,-0.115147 -4.712718,0.301177 -7.058268,-0.09421 -2.961291,-0.408044 -6.101969,-0.921123 -8.704694,-2.633897 -0.343252,-0.225883 -0.64172,-0.523842 -0.962578,-0.785764 -3.55827,-2.190991 -0.708424,-7.662261 2.849843,-5.471269 z"
       inkscape:connector-curvature="0" />
    <path
       style="fill:#000000;fill-opacity:1;stroke:none;stroke-width:0.27588603;stroke-opacity:1"
       id="path851"
       d="m 57.219265,33.257226 c 1.801704,-2.631424 4.720216,-3.792674 7.499503,-4.731108 3.621672,-1.082966 7.356255,-1.609074 11.087044,-1.998239 3.193272,-0.306235 6.400485,-0.343229 9.603745,-0.384597 1.352077,-0.988031 3.099562,0.420792 4.5489,-0.0642 0.245771,-0.08224 -0.993122,-0.0023 -0.762657,-0.126243 0.388075,-0.20882 0.861235,-0.09919 1.290847,-0.157974 0.976696,-0.133638 1.951217,-0.285639 2.927908,-0.419302 3.295163,-0.493558 6.608505,-0.225716 9.913825,-0.08669 0.30374,0.05154 0.60802,0.09938 0.91121,0.154614 1.63055,0.297077 2.61245,0.268807 4.25468,0.0932 -0.32651,-0.05347 -1.18553,0.120151 -0.97954,-0.160433 0.24945,-0.339782 0.79575,-0.08662 1.19352,-0.131036 1.83077,-0.204411 3.65996,-0.359719 5.4969,-0.482432 3.54122,-0.253464 7.09263,-0.07569 10.63314,-0.310811 -0.26178,-0.02716 -1.03949,-0.008 -0.78535,-0.08147 0.48125,-0.139069 0.99351,-0.07564 1.48963,-0.12205 1.99711,-0.186818 3.98478,-0.392048 5.98742,-0.502189 1.95232,-0.05715 3.9119,-0.07016 5.86387,-0.01953 1.08137,0.02805 2.17633,0.180548 3.25677,0.253424 2.27084,0.20356 4.54498,0.294749 6.82252,0.232088 -0.32598,-0.01011 -1.29927,0.03003 -0.97792,-0.03032 0.3975,-0.07465 0.80674,-0.0088 1.2101,-0.01329 0.40548,-0.0046 0.81094,-0.01358 1.21644,-0.01389 1.85427,-0.0014 3.70978,0.09444 5.56186,0.164638 2.01344,0.432857 3.97065,0.91073 6.0228,1.065984 2.1689,-0.0036 4.3129,0.155826 6.4331,0.657125 1.84637,0.52125 3.52341,1.526144 5.35897,2.078164 1.7279,0.235729 3.45932,0.362296 5.1628,0.780881 1.83393,0.456601 3.0689,1.698635 4.40908,3.022378 0.42163,0.394028 0.91267,0.219371 1.42309,0.227787 0.95732,0.14428 1.8025,0.658246 2.61219,1.20135 0.40782,0.367925 0.84621,0.197529 1.30054,0.328222 0.48528,0.01634 0.86127,0.489121 1.30701,0.593598 -0.47923,-0.338869 0.6715,-0.132464 0.77277,-0.113055 0.73336,0.141319 1.29446,0.664656 1.91109,1.064452 -0.62218,-0.557701 0.0234,-0.248621 0.30478,-0.09921 1.04629,0.716857 1.51839,1.250699 0.80835,3.090609 -0.15217,0.394309 -0.7192,0.346317 -1.0788,0.519472 0.55763,1.709362 -1.66575,2.566781 -2.22338,0.857422 v 0 c -0.44592,-0.04528 -1.04597,-0.505257 -1.33774,-0.135841 -1.22325,1.548772 -0.12919,1.902301 0.46709,2.603492 0.0571,0.277021 -1.21549,-0.517517 -1.319,-0.585953 -0.83433,-0.440618 0.11798,0.109502 -0.15458,0.181351 -0.53977,-0.03364 -1.04653,-0.207806 -1.54577,-0.430875 -0.44057,-0.146128 -0.8947,-0.09343 -1.33601,-0.248795 -0.82693,-0.244355 -1.55385,-0.700153 -2.28968,-1.165602 -0.15451,0.02957 0.0344,0.112324 -0.13719,0.157036 -0.39005,0.10167 -0.82248,-0.07229 -1.20358,-0.106269 -1.575,-0.474957 -3.0174,-1.222544 -4.15419,-2.540057 -0.11398,-0.111352 -0.28046,-0.433452 -0.36927,-0.297682 -0.11272,0.172314 0.21383,0.114999 -0.14082,0.191415 -0.29081,0.06266 -0.71105,0.03854 -0.98094,0.03779 -2.20334,-0.118222 -4.38922,-0.502215 -6.42912,-1.457574 -1.31415,-0.602817 -2.59961,-1.364692 -4.067,-1.314041 -2.21421,-0.02955 -4.44172,0.0036 -6.618,-0.52719 -1.71108,-0.405784 -3.41522,-1.050752 -5.1892,-0.878293 0.41188,0.01961 0.86148,-0.129337 1.23565,0.0589 0.30801,0.154946 -0.67816,0.03119 -1.01705,0.05108 -2.39315,0.140377 -4.78766,0.2553 -7.18605,0.158363 -2.40608,-0.110891 -4.80063,-0.328391 -7.18733,-0.684181 -0.8072,-0.08078 -1.07497,-0.126198 -1.87603,-0.135076 -0.29763,-0.0033 -1.18936,-0.0083 -0.89275,0.01861 0.39969,0.03623 0.82437,-0.133681 1.20321,0.0096 0.64819,0.245028 -2.91059,-0.103747 -2.04733,0.235371 -3.91927,0.674578 -7.8436,1.337623 -11.83281,1.108611 -0.52912,-0.03314 -1.0583,-0.06487 -1.58734,-0.09943 -0.45867,-0.02997 -0.93363,0.04187 -1.37578,-0.09415 -0.28273,-0.08698 1.16412,0.02255 0.87988,-0.05841 -0.38544,-0.109788 -0.79655,-0.03321 -1.19499,-0.03135 -0.95174,0.0045 -1.42506,0.06456 -2.38033,0.14591 -3.55778,0.397656 -7.10744,0.766679 -10.68917,0.358278 -1.67704,-0.258051 -3.35483,-0.734999 -5.0562,-0.61709 0.41473,0.02422 0.86214,-0.104497 1.24419,0.07262 0.26493,0.122824 -0.57254,0.06879 -0.85849,0.106193 -1.767188,0.231158 -3.5264,0.534281 -5.300111,0.705117 -1.649905,0.12997 -3.292031,0.227857 -4.947431,0.202754 -1.148283,-0.01741 -2.296533,-0.04359 -3.444306,-0.08476 -0.405759,-0.01456 -0.822695,0.0288 -1.215583,-0.08239 -0.272944,-0.07725 0.563915,-0.01482 0.84587,-0.02224 -2.980647,0.123792 -5.902282,0.795591 -8.864404,1.137773 -1.574506,0.163663 -2.419395,0.271994 -4.006257,0.353321 -2.160601,0.110734 -4.326924,0.0356 -6.485572,0.195963 -1.019477,0.191914 -1.229625,0.191402 -2.218238,0.538176 -1.488816,0.522227 -2.890475,1.355385 -4.450374,1.624878 -3.246993,3.289456 -7.525623,-1.703188 -4.278629,-4.992647 z"
       inkscape:connector-curvature="0" />
  </g>
</svg>
