<?xml version="1.0" encoding="UTF-8" standalone="no"?>
<!-- Created with Inkscape (http://www.inkscape.org/) -->

<svg
   xmlns:dc="http://purl.org/dc/elements/1.1/"
   xmlns:cc="http://creativecommons.org/ns#"
   xmlns:rdf="http://www.w3.org/1999/02/22-rdf-syntax-ns#"
   xmlns:svg="http://www.w3.org/2000/svg"
   xmlns="http://www.w3.org/2000/svg"
   xmlns:sodipodi="http://sodipodi.sourceforge.net/DTD/sodipodi-0.dtd"
   xmlns:inkscape="http://www.inkscape.org/namespaces/inkscape"
   width="1024"
   height="1024"
   viewBox="0 0 67.733333 67.733333"
   version="1.1"
   id="svg8"
   inkscape:version="0.92.4 (5da689c313, 2019-01-14)"
   sodipodi:docname="ash.svg"
   inkscape:export-filename="C:\Users\panu-\PycharmProjects\nextgame\data\images\decals\ash.png"
   inkscape:export-xdpi="10.173375"
   inkscape:export-ydpi="10.173375">
  <defs
     id="defs2" />
  <sodipodi:namedview
     id="base"
     pagecolor="#ffffff"
     bordercolor="#666666"
     borderopacity="1.0"
     inkscape:pageopacity="0.0"
     inkscape:pageshadow="2"
     inkscape:zoom="0.37865251"
     inkscape:cx="1127.1216"
     inkscape:cy="59.351827"
     inkscape:document-units="mm"
     inkscape:current-layer="layer1"
     showgrid="false"
     units="px"
     width="1024px"
     inkscape:window-width="1920"
     inkscape:window-height="1017"
     inkscape:window-x="-8"
     inkscape:window-y="-8"
     inkscape:window-maximized="1"
     inkscape:pagecheckerboard="true"
     showguides="false" />
  <metadata
     id="metadata5">
    <rdf:RDF>
      <cc:Work
         rdf:about="">
        <dc:format>image/svg+xml</dc:format>
        <dc:type
           rdf:resource="http://purl.org/dc/dcmitype/StillImage" />
        <dc:title></dc:title>
      </cc:Work>
    </rdf:RDF>
  </metadata>
  <g
     inkscape:groupmode="layer"
     id="layer3"
     inkscape:label="lines 1"
     style="display:inline"
     transform="translate(0,-80.433334)"
     sodipodi:insensitive="true">
    <path
       style="fill:#666666;fill-opacity:1;stroke:none;stroke-width:0.13229167;stroke-opacity:1"
       id="path832"
       d="m 68.929566,138.72204 c -0.102088,-0.18258 -0.224405,-0.35524 -0.306266,-0.54774 -0.907701,-2.13453 -0.566933,-4.82325 -0.382503,-7.06443 0.505551,-4.66938 0.757097,-9.35997 1.172623,-14.03719 0.474923,-4.23029 1.173531,-8.4903 2.784819,-12.45559 0.226859,-0.55828 0.500764,-1.09628 0.751145,-1.64442 0.941672,-1.7983 1.957052,-3.139701 3.660802,-4.232731 0.499085,-0.26984 1.045276,-0.57702 1.644626,-0.42746 0.133189,0.0332 0.214834,0.17095 0.322251,0.25642 1.078512,1.13068 1.606936,2.611771 2.120356,4.054871 0.966256,3.26523 1.272524,6.70487 1.143557,10.10092 -0.02924,0.7701 -0.107255,1.53756 -0.160884,2.30634 -0.402434,4.28151 -1.739982,8.37267 -3.118679,12.41863 -0.95464,2.7293 -2.083744,5.3927 -3.082064,8.10545 -0.18269,0.54262 -0.341968,1.09281 -0.457258,1.65375 -0.04117,0.20029 -0.05372,0.41361 -0.145631,0.59868 -0.402255,-0.3094 0.408256,0.29298 -1.146597,-0.18195 -0.07406,-0.0226 0.109492,-0.11295 0.177664,-0.14968 0.09871,-0.0532 0.203591,-0.11391 0.3157,-0.11618 0.604597,-0.0122 0.503377,0.0121 0.613572,0.4334 0.148929,0.13653 -0.04415,0.34715 -0.193077,0.21062 v 0 c -0.06082,0.0519 -0.214145,0.0824 -0.182463,0.15582 0.123223,0.28565 0.247488,0.0184 0.360322,0.0229 0.01278,5.3e-4 -0.0058,0.0249 -0.0086,0.0374 -0.404772,0.03 -0.809544,0.0599 -1.214316,0.0899 -0.07799,-0.005 -0.09834,-0.12153 -0.14751,-0.18229 -0.525324,-0.88884 -0.493336,-1.99319 -0.507667,-2.9901 0.04815,-0.95254 0.0421,-1.24771 0.188648,-2.23424 0.32881,-2.21352 0.969489,-4.36589 1.639124,-6.49555 0.596416,-1.86012 1.219803,-3.7179 1.690823,-5.61522 0.489473,-1.97165 0.813686,-3.97955 0.975229,-6.00474 0.259537,-3.88213 0.425529,-7.7764 0.343474,-11.66779 -0.03929,-0.87705 -0.05465,-1.37048 -0.115102,-2.21625 -0.03535,-0.49463 -0.139624,-1.018841 -0.133231,-1.517151 3.97e-4,-0.0321 0.01757,-0.0617 0.02636,-0.0925 0.06577,0.0395 0.121081,0.10971 0.197299,0.11861 0.560379,0.0654 0.826233,-0.23569 0.391905,0.30119 -0.06657,0.0823 -0.137423,0.16103 -0.206134,0.24155 -0.15056,0.170201 -0.407132,0.450271 -0.530156,0.633831 -0.650355,0.97039 -0.840492,2.16696 -1.080147,3.28308 -0.803534,4.54286 -1.305199,9.13254 -1.99745,13.69284 -0.705752,4.7059 -1.44355,9.41366 -2.648946,14.02319 -0.323036,1.27135 -0.498787,1.98212 -0.834009,3.23059 -0.352371,1.31234 -0.688963,2.64706 -1.293484,3.87124 0.0227,0.44414 -0.605393,0.47624 -0.628097,0.0321 z"
       inkscape:connector-curvature="0" />
    <path
       style="fill:#666666;fill-opacity:1;stroke:none;stroke-width:0.13229167;stroke-opacity:1"
       id="path834"
       d="m 72.487077,137.0672 c 0.160025,-0.18248 0.306589,-0.37771 0.480075,-0.54745 1.031797,-1.00949 2.252592,-1.82936 3.461202,-2.60609 1.147543,-0.73747 2.378233,-1.45761 3.548102,-2.15544 3.551917,-1.96591 7.217423,-3.74264 10.992563,-5.24006 0.804201,-0.31899 1.618827,-0.61104 2.428242,-0.91657 4.353454,-1.55978 8.837759,-2.70902 13.287879,-3.95253 3.15878,-0.87462 6.31263,-1.806 9.54122,-2.39501 0.51018,-0.0931 1.02428,-0.16325 1.53642,-0.24488 1.00785,-0.10119 2.06725,-0.23143 3.04937,0.1113 0.30998,0.10817 0.69639,0.13832 0.90287,0.39357 0.54779,0.67716 0.20237,1.10136 -0.0539,1.68562 -1.24823,1.83739 -3.14292,3.07671 -4.93777,4.32401 -2.90432,2.01958 -5.79021,4.06105 -8.75535,5.99118 -4.4839,2.80992 -9.161245,5.29584 -13.854175,7.73464 -4.087601,2.11367 -8.311128,3.94372 -12.601789,5.60032 -1.737054,0.59981 -3.495103,1.31124 -5.35011,1.44047 -0.785036,0.0547 -1.369874,-0.0543 -2.160519,-0.14442 -0.195239,-0.14967 -0.704083,-0.43438 -0.640719,-0.79529 0.03506,-0.19971 0.253816,-0.31628 0.380724,-0.47442 0.05987,-0.13909 0.256578,-0.0544 0.196709,0.0847 v 0 c 0.0786,-0.0662 0.180805,-0.11186 0.235812,-0.19868 0.291671,-0.4604 -0.412487,0.0395 0.291859,-0.36459 -0.0113,-0.0416 -0.07116,-0.10311 -0.0339,-0.12478 0.193261,-0.11238 0.423565,-0.14355 0.63243,-0.22326 0.277354,-0.10585 0.554336,-0.21333 0.825881,-0.33331 1.190535,-0.526 2.321984,-1.17289 3.435793,-1.84325 3.835348,-2.3304 7.670022,-4.66921 11.699927,-6.65552 4.691287,-2.43299 9.385947,-4.86242 14.158907,-7.13255 3.20455,-1.53904 6.41139,-3.07966 9.46852,-4.90107 1.84325,-1.05206 3.67671,-2.14048 5.60812,-3.02368 0.71919,-0.009 0.0105,-0.0995 0.72054,0.61159 0.13091,0.13112 0.44523,0.0754 0.49437,0.25409 0.0395,0.1434 -0.22192,0.20015 -0.34748,0.27985 -0.57267,0.36349 -1.13449,0.5794 -1.75993,0.85878 -1.34383,0.52193 -1.56762,0.62842 -2.99883,1.09616 -2.51848,0.82308 -5.09404,1.45356 -7.63218,2.21045 -4.2882,1.34038 -8.50798,2.87761 -12.737882,4.38998 -2.340588,0.84492 -4.682517,1.68154 -6.986993,2.6222 -1.791046,0.73108 -2.574001,1.09386 -4.337031,1.86883 -0.696021,0.30595 -1.392622,0.61058 -2.088932,0.91587 -1.305646,0.53438 -2.648457,1.0967 -3.971653,1.58984 -1.44685,0.53922 -2.919455,1.03613 -4.446102,1.29674 -0.272167,0.0465 -0.548849,0.0608 -0.823273,0.0913 -0.833382,0.60739 -1.692365,-0.57119 -0.858983,-1.17858 z"
       inkscape:connector-curvature="0" />
    <path
       style="fill:#666666;fill-opacity:1;stroke:none;stroke-width:0.13229167;stroke-opacity:1"
       id="path836"
       d="m 79.203736,144.07293 c 0.214645,0.054 0.434985,0.089 0.643933,0.162 0.604406,0.21114 1.256782,0.55997 1.799906,0.88101 1.180024,0.69751 2.251011,1.521 3.321682,2.37209 2.528585,2.12957 4.994627,4.3303 7.440067,6.55435 2.756118,2.53814 5.489457,5.10057 8.311246,7.56601 2.26862,1.95611 4.70649,3.70056 7.05224,5.56022 1.58149,1.26754 3.03844,2.68758 4.29363,4.2811 0.83049,1.05435 0.98851,1.35379 1.70964,2.46758 1.09396,1.79479 2.01624,3.68687 3.21108,5.41895 0.60645,0.82229 1.33709,1.55821 1.79043,2.48156 0.2163,0.54198 0.263,1.14859 -0.11099,1.64324 -0.19966,0.26406 -0.43759,0.35206 -0.71641,0.49975 -0.29131,0.0164 -0.58294,0.028 -0.87393,0.0493 -0.5781,0.0424 -0.16986,0.0642 -0.87822,0.0556 -0.81668,-0.01 -1.60018,-0.1411 -2.4019,-0.28528 -2.34628,-0.42907 -4.54732,-1.35312 -6.71807,-2.30834 -2.66438,-1.16557 -5.29265,-2.40153 -7.874476,-3.74001 -2.748368,-1.40589 -5.314343,-3.11338 -7.780994,-4.96104 -2.521954,-1.98857 -4.805073,-4.25475 -7.008928,-6.58444 -1.695275,-1.79174 -3.147954,-3.78338 -4.480069,-5.8534 -0.76684,-1.28571 -1.472733,-2.6103 -2.023781,-4.00403 -0.272534,-0.6893 -0.417995,-1.15835 -0.648334,-1.85286 -0.276194,-0.70963 -0.376778,-1.55855 -0.872025,-2.16997 -0.159773,-0.19725 -0.298394,-0.25986 -0.508809,-0.39195 -0.867998,-0.35056 -1.723385,-0.65515 -2.534672,-1.13109 -0.621218,-0.40877 -1.224053,-0.89613 -1.539865,-1.58478 0.04037,-0.3324 -0.0061,-0.16382 0.158315,-0.50016 -0.271821,-0.85466 0.93685,-1.23907 1.208671,-0.38442 v 0 c 0.205756,-0.20589 0.0915,-0.14596 0.323818,-0.21204 0.465177,0.20119 0.854037,0.56389 1.338493,0.73276 0.935305,0.40714 1.910397,0.74731 2.75955,1.32499 0.164076,0.12576 0.336101,0.24178 0.492229,0.37729 0.928451,0.80581 1.540406,1.89163 2.084789,2.97586 0.840515,1.77593 1.598067,3.60337 2.682688,5.25024 0.516864,0.7484 0.619263,0.93292 1.205753,1.63518 1.027431,1.23025 2.210324,2.31834 3.40074,3.38674 2.275484,2.07314 4.4929,4.21334 6.860461,6.1823 0.98016,0.77577 1.341135,1.08494 2.358888,1.79868 1.545008,1.0835 3.191815,2.00711 4.884668,2.83785 2.55195,1.27329 5.10022,2.55339 7.63975,3.85088 1.95117,0.94294 3.94781,1.77466 5.99921,2.47673 0.63928,0.21722 1.27875,0.43397 1.91843,0.65 0.12918,0.0436 0.25911,0.085 0.3883,0.12861 0.0956,0.0323 0.35482,0.0253 0.28595,0.099 -0.1052,0.11255 -0.30326,0.0545 -0.45489,0.0818 -0.15728,0.24931 -0.33976,0.43363 -0.40033,0.7351 -0.0135,0.0672 -0.004,0.3409 -0.0118,0.34514 -0.0269,0.0142 -0.0524,-0.0311 -0.0786,-0.0466 -0.8259,-0.60592 -1.62023,-1.26115 -2.32649,-2.00475 -1.49337,-1.61669 -2.78675,-3.39049 -4.00107,-5.22475 -0.54455,-0.76528 -1.00609,-1.4343 -1.58966,-2.17184 -1.11909,-1.41433 -2.39032,-2.70077 -3.79905,-3.82794 -0.96259,-0.73507 -1.23598,-0.95866 -2.23224,-1.65918 -1.73778,-1.22193 -3.535542,-2.36046 -5.204718,-3.67877 -1.222058,-0.96369 -1.71232,-1.32624 -2.89575,-2.35889 -1.957656,-1.70822 -3.786622,-3.55766 -5.593754,-5.42203 -2.217631,-2.32761 -4.356801,-4.7351 -6.69848,-6.94 -0.930267,-0.88879 -1.857426,-1.77922 -2.736735,-2.7192 -0.363884,-0.38899 -0.856014,-0.92488 -1.171256,-1.37466 -0.106501,-0.15196 -0.187445,-0.32031 -0.281167,-0.48046 -0.699305,-0.62431 0.183595,-1.61327 0.8829,-0.98897 z"
       inkscape:connector-curvature="0" />
    <path
       style="fill:#666666;fill-opacity:1;stroke:none;stroke-width:0.13229167;stroke-opacity:1"
       id="path842"
       d="m 75.516873,150.40355 c -0.236048,2.30607 -0.184302,4.62142 -0.113757,6.93422 0.122717,3.06348 0.23171,6.12853 0.236397,9.19494 1.32e-4,0.0971 -0.04226,4.44699 -0.04371,4.59737 -0.0051,3.71822 -0.158836,7.43157 -0.337093,11.14447 -0.132822,2.42453 -0.100439,4.8636 -0.404393,7.27671 -0.06102,0.48447 -0.148763,0.9652 -0.223145,1.4478 -0.372788,2.20004 -1.105419,4.30721 -2.102671,6.29696 -0.364233,0.66218 -0.753567,1.31597 -1.198246,1.92784 -0.565106,0.69921 -1.470271,0.88584 -2.325239,0.6162 -0.185301,-0.0584 -0.360958,-0.14393 -0.541437,-0.2159 -1.536968,-0.79712 -2.687194,-2.13706 -3.552996,-3.61595 -0.262024,-0.44757 -0.478901,-0.92009 -0.718351,-1.38013 -1.229088,-2.74341 -1.918625,-5.69999 -2.107842,-8.69797 -0.03594,-0.56942 -0.03171,-1.14067 -0.04757,-1.711 -0.01934,-1.99352 0.276473,-3.9696 0.375972,-5.95678 0.05927,-1.18369 0.04246,-1.79193 0.04081,-2.98875 -0.01395,-0.5462 -0.02275,-1.09257 -0.04186,-1.63862 -0.04843,-1.3839 -0.109695,-2.06157 -0.132825,-3.44898 -0.02458,-1.47459 0.03457,-2.93205 0.152755,-4.40078 0.06066,-0.95346 0.358123,-1.87611 0.42021,-2.82869 0.02812,-0.43148 0.0022,-0.60511 -0.02557,-1.04526 -0.218651,-1.6281 -0.303092,-3.23597 -0.135652,-4.87182 0.08049,-0.44805 0.08878,-0.59139 0.21605,-0.99495 0.08451,-0.26799 0.202274,-0.4286 0.16437,-0.71146 -0.255348,-0.83038 -0.277892,-1.68635 -0.204378,-2.54471 0.02798,-0.13115 0.04642,-0.26471 0.08395,-0.39346 0.03799,-0.13035 0.174085,-0.42962 0.221525,-0.43042 1.315543,-0.022 2.408554,-0.42745 1.90664,0.50925 -0.245479,0.26126 -0.02783,0.0833 -0.508571,0.23011 -0.07761,0.0237 -0.149037,0.0643 -0.223556,0.0964 0.02835,0.1722 -0.215175,0.21229 -0.243525,0.0401 v 0 c -0.08872,-0.0401 -0.175247,-0.0854 -0.266158,-0.12014 -0.480348,-0.1838 -0.254841,-0.026 -0.509291,-0.23282 -0.582861,-0.69431 0.234114,-0.23951 1.86781,-0.25513 0.0307,-2.6e-4 0.0649,0.0187 0.08017,0.0453 0.08078,0.14092 0.09913,0.43441 0.117076,0.56774 0.02769,0.84845 -0.03374,1.69585 -0.286393,2.51152 -0.04632,0.26766 0.0792,0.40579 0.166876,0.65916 0.139548,0.40327 0.150829,0.54505 0.243721,0.99519 0.207424,1.65292 0.165925,3.31387 -0.138725,4.95491 -0.04304,0.36444 -0.09112,0.61106 -0.06734,0.97304 0.0606,0.92273 0.508686,1.77868 0.628653,2.69106 0.22447,1.20334 0.297236,1.47565 0.434468,2.75126 0.251488,2.33763 0.250688,4.69459 0.08311,7.03809 -0.247658,2.85893 -0.599,5.72624 -0.372432,8.60007 0.293926,3.14168 0.777699,6.27428 1.745501,9.28703 0.522894,1.49662 1.030627,3.08033 2.081761,4.30361 0.0368,0.0311 0.07101,0.0656 0.110412,0.0934 0.0144,0.0101 0.06655,0.0158 0.04925,0.0191 -0.567175,0.10916 -0.44929,-0.0911 -0.593549,0.18819 -0.06032,0.11677 -0.0589,0.0699 -0.0484,0.14899 0.195532,-0.46828 0.116628,-1.0566 0.257105,-1.55088 0.335785,-2.00855 0.760412,-3.99992 1.124942,-6.00327 0.137971,-0.8955 0.280038,-1.73667 0.368993,-2.63913 0.184133,-1.86803 0.12773,-3.74659 0.08557,-5.61967 -0.117727,-3.69115 -0.295599,-7.38012 -0.452235,-11.06974 -0.03993,-1.21151 -0.123191,-3.45913 -0.124756,-4.65679 -0.0041,-3.15897 0.190415,-6.32148 0.652568,-9.44742 0.400983,-2.22927 0.833946,-5.21772 2.322448,-7.03717 0.142747,-0.17449 0.328418,-0.30892 0.492626,-0.46338 0.587652,-0.96162 1.947588,-0.13055 1.359936,0.83106 z"
       inkscape:connector-curvature="0" />
    <path
       style="fill:#666666;fill-opacity:1;stroke:none;stroke-width:0.13229167;stroke-opacity:1"
       id="path844"
       d="m 66.397372,158.50577 c -0.09568,0.17946 -0.179623,0.36569 -0.287042,0.53838 -0.304442,0.48942 -0.719535,1.0054 -1.073632,1.45154 -0.754445,0.95055 -1.530166,1.88455 -2.295033,2.8267 -2.444197,3.02083 -4.926187,6.01116 -7.455552,8.96098 -3.195709,3.60313 -6.339066,7.27744 -9.899846,10.53248 -0.627853,0.57394 -1.285432,1.1145 -1.928147,1.67174 -1.525916,1.24351 -3.161442,2.34718 -4.900748,3.26957 -1.177002,0.6242 -2.412107,1.15043 -3.620696,1.7098 -0.936288,0.42785 -1.827714,0.93999 -2.641077,1.57234 -0.625982,0.48668 -1.186665,1.04909 -1.763505,1.59101 -0.118401,0.10026 -0.452447,0.42156 -0.65271,0.48025 -0.04054,0.0119 -0.08204,-0.0229 -0.119247,-0.0429 -0.554364,-0.298 -1.147277,-0.53731 -1.654181,-0.91036 -0.08092,-0.0596 0.0047,-0.20089 0.0078,-0.30132 0.0043,-0.13848 0.0096,-0.27693 0.01436,-0.41539 0.0381,-1.29634 -0.05201,-2.59257 -0.142949,-3.88498 -0.137736,-1.67966 -0.329105,-3.36595 -0.124348,-5.04951 0.04992,-0.41047 0.136855,-0.81559 0.205283,-1.22338 0.6436,-2.81602 1.790692,-5.48599 2.903779,-8.14154 1.207093,-2.75432 2.609547,-5.45362 4.527238,-7.78809 0.378366,-0.4606 0.79485,-0.88852 1.192275,-1.33278 2.190387,-2.26681 4.882819,-3.93053 7.392624,-5.8057 1.870101,-1.43569 3.428751,-3.21139 5.115074,-4.84615 0.849046,-0.7983 1.784024,-1.51126 2.857664,-1.9793 0.471407,-0.2055 0.738774,-0.27244 1.218207,-0.41754 0.40983,-0.12413 0.837404,-0.20856 1.221251,-0.40675 0.385912,-0.19926 0.714588,-0.4938 1.047481,-0.76727 0.907136,-0.81596 1.926154,-1.46055 3.048668,-1.93158 0.439828,-0.16793 0.892109,-0.27921 1.363278,-0.28301 0.06571,-5.3e-4 0.160524,-0.0528 0.197136,0.002 0.322646,0.48089 0.552374,1.018 0.828562,1.527 -0.152565,0.0895 -0.07387,0.0477 -0.23626,0.12489 -0.972329,0.73208 -2.007649,-0.643 -1.035318,-1.37508 v 0 c -0.05202,0.022 -0.0548,0.0335 -0.03546,0.003 0.329491,0.46733 0.649302,0.94164 0.988472,1.40199 0.01031,0.014 0.05122,-0.008 0.0513,0.009 3.97e-4,0.0757 -0.678839,0.40695 -0.732769,0.46053 -0.928617,0.556 -1.857812,1.11342 -2.742901,1.73761 -0.870286,0.59826 -1.750961,1.19404 -2.753224,1.55248 -0.264562,0.1074 -0.62293,0.24603 -0.876807,0.37687 -0.789623,0.40692 -1.419529,1.01434 -1.965973,1.70889 -1.54597,1.95141 -3.030248,3.97282 -4.975671,5.55835 -1.20533,0.99172 -1.060302,0.89624 -2.314333,1.83221 -1.554338,1.16011 -3.173938,2.25754 -4.479537,3.71067 -0.927368,1.08972 -1.113614,1.2531 -1.936417,2.44997 -1.280312,1.86238 -2.330527,3.87005 -3.402581,5.85502 -0.516277,0.9869 -0.942307,1.79524 -1.447159,2.78344 -0.576031,1.12753 -1.169524,2.26213 -1.603306,3.45474 -0.121804,0.33487 -0.21469,0.67957 -0.322034,1.01935 -0.07267,0.33332 -0.157882,0.66414 -0.218023,0.99995 -0.276159,1.54192 -0.271074,3.12013 -0.288012,4.68061 0.0275,1.46403 0.12396,2.95187 -0.242759,4.38557 -0.06378,0.1878 -0.11554,0.38011 -0.191351,0.56338 -0.06415,0.15507 -0.05969,0.44675 -0.227481,0.44911 -2.073059,0.0291 -2.150098,-0.26587 -1.671954,-1.55087 0.131013,-0.24009 0.244907,-0.49034 0.393039,-0.72025 1.0528,-1.63407 2.631351,-2.79114 4.331778,-3.68186 0.56142,-0.29386 1.473022,-0.7552 2.007776,-1.09829 1.780596,-1.1424 3.204367,-2.73015 4.593203,-4.30246 3.746212,-4.25724 7.500895,-8.53267 11.876449,-12.16762 2.989096,-2.50972 6.089244,-4.90522 8.805732,-7.71998 0.900512,-0.90364 1.784684,-1.8225 2.769031,-2.63698 0.512356,-0.42394 1.02913,-0.82459 1.61603,-1.1412 0.204428,-0.11028 0.426318,-0.18457 0.639478,-0.27685 0.670225,-0.73901 1.715348,0.20883 1.045123,0.94784 z"
       inkscape:connector-curvature="0" />
    <path
       style="fill:#666666;fill-opacity:1;stroke:none;stroke-width:0.13229167;stroke-opacity:1"
       id="path848"
       d="m 59.624937,151.16588 c -0.501342,0.75523 -1.228635,1.33866 -2.041475,1.73525 -0.59582,0.29071 -1.191292,0.45335 -1.820988,0.65374 -2.832418,0.72444 -5.780379,0.63526 -8.681069,0.64446 -3.243379,0.0182 -6.482839,-0.15033 -9.722439,-0.27956 -2.345141,-0.0839 -4.694435,-0.10381 -7.034957,-0.28843 -1.460406,-0.1152 -1.867787,-0.18381 -3.306845,-0.36621 -2.89754,-0.41321 -5.765729,-1.00014 -8.645733,-1.51567 -2.544438,-0.41771 -5.09242,-0.80187 -7.587076,-1.46336 -1.2688522,-0.43839 -2.6490191,-0.89877 -3.596734,-1.90564 -0.1114512,-0.11841 -0.2017451,-0.25508 -0.3026177,-0.38262 -0.2131312,-0.39548 -0.4893075,-0.9575 -0.2617145,-1.42203 0.4076981,-0.83214 0.7478516,-0.77867 1.5795569,-0.65418 0.087372,0.0131 0.1436866,0.10283 0.21553,0.15424 0.1732085,0.39751 0.1744085,0.20655 -0.023848,0.1638 -0.184585,-0.0398 -0.3769379,-0.0279 -0.5637915,-0.0551 -0.022251,-0.003 0.044175,-0.009 0.065136,-0.0175 0.073313,-0.0285 0.1448146,-0.0614 0.217222,-0.0921 1.2177029,-0.39535 2.4704018,-0.6776 3.7130848,-0.98279 2.936308,-0.77783 5.887203,-1.48647 8.868629,-2.06819 2.465214,-0.45115 4.959026,-0.75405 7.464742,-0.83992 1.245333,-0.0427 2.114992,-0.0204 3.355088,-0.008 3.460178,0.0528 6.927372,0.1719 10.384731,-0.04 2.809804,-0.0661 5.609786,-0.30177 8.407389,-0.55468 1.259623,-0.12268 2.517255,-0.15476 3.780468,-0.0393 1.006256,0.092 1.987917,0.41498 2.9453,0.71546 1.316598,0.4769 2.655424,0.8679 4.032546,1.12022 0.124906,0.0211 0.275728,-0.0157 0.374717,0.0634 0.05901,0.0471 -0.237789,-0.0111 -0.217961,0.0618 0.02248,0.0826 0.167536,0.0358 0.250394,0.0574 0.05962,0.0155 0.115917,0.0444 0.176775,0.054 0.182658,0.0289 0.496411,-0.11555 0.551401,0.061 0.164303,0.52753 -0.01077,1.10499 -0.01616,1.65749 -0.0034,2.6e-4 -0.187981,0.0174 -0.205725,0.002 -0.01405,-0.0121 0.02687,-0.0297 0.02763,-0.0482 0.05491,-1.33945 -0.469917,-1.67623 0.267391,-1.57487 0.103571,0.0813 0.06221,0.0217 0.04274,0.21348 0.904945,0.23343 0.574823,1.51322 -0.330122,1.27978 v 0 c -0.127575,0.19866 -0.04563,0.14219 -0.213426,0.20881 -0.01554,5.3e-4 -0.268184,0.0149 -0.273245,-0.008 -0.152934,-0.68786 -0.688132,-1.53815 0.0056,-1.71854 0.406766,2.97258 -0.359108,1.24063 0.621624,1.6728 0.04612,0.0203 -0.0911,0.0437 -0.13882,0.0599 -0.07868,0.0267 -0.157164,0.0586 -0.239661,0.0686 -0.467058,0.0562 -0.939468,0.0574 -1.406936,0.11047 -0.620689,0.002 -0.699,0.0205 -1.342781,-0.0583 -1.124664,-0.13766 -2.213596,-0.46166 -3.299868,-0.7709 -0.546226,-0.14335 -1.104791,-0.30094 -1.661002,-0.40361 -0.270343,-0.0499 -0.545813,-0.0687 -0.816149,-0.11868 -0.03993,-0.007 -0.06941,-0.0505 -0.10997,-0.0524 -0.776625,-0.0362 -0.912129,0.0201 -1.687095,0.12856 -0.313174,0.0769 -0.628368,0.14605 -0.939523,0.23077 -0.984911,0.26817 -1.360894,0.42936 -2.380348,0.69793 -1.66088,0.43756 -3.353939,0.73622 -5.069809,0.8458 -0.987218,0.0251 -1.974122,0.0722 -2.961654,0.0754 -2.556079,0.008 -5.093527,-0.35833 -7.643763,-0.46854 -0.502688,0.008 -1.005783,0.003 -1.508063,0.0252 -2.92819,0.12777 -5.817354,0.67846 -8.724251,1.01136 -3.104424,0.38437 -6.213062,0.74834 -9.332297,0.99032 -1.363782,0.0827 -2.733048,0.13794 -4.0943885,-0.018 -0.4236666,-0.0533 -0.5931568,0.0559 -1.1129258,-0.0326 -0.090129,-0.0154 -0.1580373,-0.0946 -0.2444676,-0.12437 -0.059231,-0.0204 -0.1097776,0.0781 -0.1276572,0.10114 0.4178426,0.80199 1.2282041,-0.408 1.3051203,-0.59507 0.065579,-0.15951 0.00539,-0.34491 0.00425,-0.51736 -0.00123,-0.18588 -0.064735,-0.14273 0.0881,-0.16734 1.1477183,0.31727 2.2936078,0.64429 3.4878608,0.74261 2.57564,0.31612 5.159577,0.5809 7.709031,1.07922 2.792207,0.51165 5.583463,1.09332 8.42348,1.2612 3.429487,0.17311 6.866621,0.19727 10.28965,0.49335 3.1599,0.25368 6.318079,0.5527 9.488178,0.64762 0.947216,0.0482 1.896667,0.0641 2.841592,0.1457 0.15336,0.0132 0.300364,0.0714 0.453489,0.0872 1.098321,0.11285 2.207771,0.14251 3.310513,0.17533 0.288731,-0.007 0.578221,7.9e-4 0.866192,-0.0214 1.12924,-0.0867 2.222081,-0.41983 3.334422,-0.6079 0.554551,-0.5217 1.292344,0.26256 0.737793,0.78425 z"
       inkscape:connector-curvature="0" />
    <path
       style="fill:#666666;fill-opacity:1;stroke:none;stroke-width:0.13229167;stroke-opacity:1"
       id="path852"
       d="m 57.54464,145.30749 c -1.117271,-0.5641 -1.906379,-1.54844 -2.812955,-2.37657 -0.192562,-0.1759 -0.395139,-0.34051 -0.592709,-0.51076 -0.221021,-0.14698 -0.431692,-0.31087 -0.663064,-0.44095 -0.909183,-0.51114 -1.932874,-0.8423 -2.884569,-1.2608 -1.474144,-0.64824 -1.229731,-0.55495 -2.716591,-1.34323 -2.075903,-1.19736 -3.948197,-2.70512 -5.646477,-4.39043 -0.804391,-0.79825 -1.656356,-1.75361 -2.419733,-2.59096 -2.36013,-2.66432 -4.650153,-5.39091 -6.869942,-8.17306 -1.467267,-1.93725 -2.792847,-4.0038 -3.649229,-6.28983 -0.494095,-1.31894 -0.506065,-1.61227 -0.7888,-2.95033 -0.201238,-1.53058 -0.274588,-3.17963 0.378853,-4.6231 0.06474,-0.14303 0.151911,-0.2748 0.227866,-0.4122 0.856804,-1.11268 0.577816,-0.66565 2.416151,-0.33561 0.0053,9.2e-4 0.01425,-0.0616 0.06225,-0.0956 0.04142,-0.0293 0.09206,-0.0427 0.138085,-0.0641 1.543111,-0.0508 3.035731,0.49324 4.470909,0.99404 2.736406,1.1033 5.445099,2.27648 8.160093,3.43204 2.555306,1.10858 5.114355,2.23445 7.503252,3.67728 0.512869,0.30976 1.010169,0.6446 1.515255,0.96689 2.117756,1.41027 4.075703,3.05056 5.816996,4.90629 0.991155,1.0563 1.403858,1.60095 2.307533,2.71007 1.48062,1.92495 2.868489,3.91826 4.32984,5.8577 0.805307,1.0802 1.672454,2.11138 2.506419,3.16897 0.405951,0.45301 0.768035,1.14057 1.40875,1.28171 0.530022,-0.0119 1.056414,0.013 1.582857,0.0782 0.516214,0.066 0.987764,0.25296 1.423996,0.52943 0.654982,0.45394 0.720752,1.62657 -0.217774,1.89107 -0.878366,-0.38243 -0.787982,-0.0567 -0.685089,-0.74776 -0.285561,-0.13834 -0.08991,-0.54219 0.195647,-0.40384 v 0 c 0.505133,-0.50287 0.50301,-0.27964 -0.22595,-0.63044 -0.406903,0.23851 -0.215838,0.92162 -0.256484,1.39152 -0.0048,0.0557 0.06762,0.0904 0.09012,0.14163 0.01084,0.0247 -0.07318,0.06 -0.07319,0.0343 -0.325677,-0.0418 -0.657675,-0.0232 -0.984587,-0.0511 -0.66453,-0.0362 -1.337294,-0.0491 -1.980956,-0.23822 -0.144871,-0.0526 -0.293735,-0.0953 -0.434613,-0.15781 -0.808909,-0.35896 -1.44364,-0.97986 -2.036499,-1.61987 -0.933873,-0.98288 -1.87091,-1.96234 -2.867717,-2.88255 -1.773661,-1.71383 -3.502159,-3.47233 -5.183551,-5.27708 -2.351669,-2.45923 -4.756722,-4.89116 -7.504435,-6.91438 -1.209071,-0.81252 -1.387383,-0.97603 -2.665525,-1.66277 -1.899846,-1.02077 -3.921088,-1.79106 -5.869633,-2.70919 -2.6379,-1.23336 -5.228692,-2.56189 -7.727401,-4.06042 -1.153601,-0.65642 -2.311163,-1.31543 -3.594197,-1.68778 -0.434559,-0.21088 -0.398511,-0.15729 -0.749847,-0.45908 -0.0816,-0.0701 -0.338557,-0.22134 -0.231054,-0.22532 0.546227,-0.0202 1.087065,0.11567 1.630598,0.17351 0.286192,-0.29539 0.141393,-0.25753 0.343819,-0.28877 0.06712,0.32435 0.08533,0.65589 0.138111,0.9831 0.130027,0.806 0.332619,1.5965 0.613065,2.36408 0.410494,1.02855 0.459927,1.22414 0.993763,2.24381 1.006625,1.92272 2.273332,3.69234 3.571215,5.42577 2.075092,2.75774 4.212595,5.47005 6.459126,8.09077 2.128823,2.37766 4.393007,4.64824 7.037719,6.4583 0.398421,0.26824 0.793816,0.54103 1.195264,0.80471 1.656436,1.08801 3.412448,2.05959 4.783995,3.52059 0.211499,0.23405 0.433311,0.45917 0.634495,0.70214 0.769827,0.92972 1.394427,1.99122 1.673319,3.17313 0.617177,0.90282 -0.65961,1.77564 -1.276788,0.87282 z"
       inkscape:connector-curvature="0" />
    <path
       style="fill:#666666;fill-opacity:1;stroke:none;stroke-width:0.17468743;stroke-opacity:1"
       d="m 32.061857,111.64506 c -0.999113,0.36586 -0.217901,1.58587 -0.04981,2.27742 1.885231,4.97768 5.526614,8.99743 8.720725,13.16331 3.209877,3.87367 6.613201,7.71082 10.930813,10.38314 2.334311,1.44885 4.502504,3.17098 6.225745,5.32235 1.153328,0.79143 2.648263,0.83423 3.965949,1.19791 0.490454,0.14928 0.798104,0.98955 0.01331,0.95464 -1.386405,0.14931 -2.89186,0.41448 -4.24129,0.013 -1.77401,-0.62224 -3.671971,-1.2394 -5.571914,-1.12898 -3.1954,0.59571 -6.284147,1.83991 -9.583926,1.79123 -4.893583,0.31194 -9.840671,-0.72049 -14.762111,-0.0191 -3.780839,0.49631 -7.59095,0.8591 -11.340013,1.51862 -0.754694,0.54985 0.157477,1.22864 0.793941,1.08327 4.965464,0.84024 9.945023,1.84627 15.011769,1.86739 6.845457,0.32042 13.695269,0.86866 20.533028,1.29097 1.719504,0.17644 3.011389,-1.35427 4.364459,-2.17541 0.864717,-0.52544 1.851067,-1.14157 2.864258,-1.14058 0.15536,0.35113 0.821946,0.97333 0.113955,1.17402 -0.615478,0.23018 -1.177244,0.95353 -0.656782,1.53977 -1.529006,2.20984 -4.375454,2.60464 -6.853753,2.85505 -1.401269,1.15831 -2.348601,2.88651 -3.619646,4.18636 -3.443863,4.1054 -8.804565,6.31887 -11.582513,11.05311 -2.3992,3.89703 -4.605813,7.94415 -6.344102,12.18066 -0.814357,2.31898 -0.744128,4.85579 -0.740207,7.25925 0.559883,0.93673 1.594806,-0.36692 2.295436,-0.60267 2.161649,-1.15303 4.272446,-2.451 5.890908,-4.32652 4.647795,-5.04137 9.170383,-10.23621 14.463562,-14.62794 3.466113,-2.92824 6.961115,-5.88368 10.056335,-9.18811 0.497951,-2.34557 0.107033,-4.81481 0.472944,-7.1764 0.568868,0.0555 1.674499,-0.2634 1.53261,0.66736 -0.01675,1.47973 -0.659458,3.40838 0.62096,4.54972 0.438793,0.0442 0.80725,0.4734 0.385199,0.85126 -1.238231,2.00072 -1.267837,4.56726 -0.583088,6.76914 1.108886,4.862 0.519465,9.88051 0.28118,14.78155 -0.324669,3.99844 0.400771,8.01246 1.324472,11.8899 0.530606,1.7763 1.02482,3.64418 2.083254,5.18547 1.046736,0.56437 1.061925,-1.05787 1.229978,-1.69433 0.736728,-3.72295 1.588243,-7.46772 1.3743,-11.29123 0.01216,-7.16753 -0.772648,-14.3242 -0.416931,-21.48382 0.301393,-3.96107 0.582637,-8.08865 2.232068,-11.75445 -0.04139,-0.90326 -1.804194,-1.37979 -1.058729,-2.44778 1.657452,0.28767 3.149396,1.24839 4.625601,1.99986 2.333529,1.46674 2.999138,4.37152 4.361951,6.59967 2.103513,4.32817 6.075503,7.24301 9.461938,10.50068 3.221416,2.97166 6.699077,5.72061 10.6989,7.57233 3.85481,1.9095 7.66141,3.96948 11.67046,5.53341 0.9686,0.0659 0.67589,-1.06611 0.21249,-1.48605 -2.37757,-3.29449 -4.57526,-6.79803 -7.76396,-9.39404 -3.86876,-3.19223 -8.295927,-5.72284 -11.900923,-9.22261 -5.008657,-4.8746 -9.837537,-9.97826 -14.786336,-14.931 -1.062115,-0.32178 -2.164586,0.40169 -3.293471,0.27568 -0.619548,-0.0261 -1.480783,-0.0186 -1.913031,-0.41693 0.365334,-0.17464 0.785364,-0.36523 0.921201,-0.79258 4.356551,-1.83983 8.238479,-4.62799 12.402058,-6.85139 7.802778,-4.32453 15.955802,-7.98481 23.774952,-12.27449 0.58367,-0.71174 -0.48079,-1.19439 -1.05223,-0.79517 -7.21751,2.25963 -14.350428,4.80518 -21.392484,7.56324 -4.516366,1.9068 -8.994958,3.95516 -13.67873,5.41228 -0.712651,0.28659 -1.70595,0.0432 -2.26343,0.77347 -1.037521,-0.18878 -2.301294,-0.50051 -3.262084,0.0498 -1.382114,-0.86903 -2.665883,-2.03686 -3.83826,-3.22635 -4.560072,-4.39594 -8.843765,-9.12537 -13.637646,-13.28365 -4.221178,-3.31655 -9.446094,-4.82045 -14.063024,-7.43087 -1.843204,-0.95065 -3.592475,-2.10845 -5.500605,-2.92005 l -0.150463,-0.005 z"
       id="path864"
       inkscape:connector-curvature="0" />
    <path
       style="fill:#666666;fill-opacity:1;stroke:none;stroke-width:0.17468743;stroke-opacity:1"
       d="m 77.145546,100.20849 c -1.436961,2.47358 -1.391843,5.46405 -1.946809,8.20178 -1.325884,9.1173 -2.442767,18.2679 -4.98131,27.1372 -0.377952,0.65738 -0.01596,1.515 0.804164,1.43443 0.719434,-0.0703 1.909308,0.80561 2.176087,-0.31901 0.313008,-2.59718 0.488278,-5.22897 1.294948,-7.741 1.47202,-5.02494 3.289598,-10.03769 3.429802,-15.33241 0.201993,-4.39452 0.574111,-8.85161 0.07224,-13.21918 -0.09288,-0.386647 -0.595902,-0.391727 -0.849118,-0.16181 z"
       id="path866"
       inkscape:connector-curvature="0" />
    <path
       style="fill:#666666;fill-opacity:1;stroke:none;stroke-width:0.13229167;stroke-opacity:1"
       id="path870"
       d="m 80.478199,156.29633 c -0.75362,-0.47833 -1.21591,-1.27189 -1.887886,-1.84074 -0.106502,-0.0902 -0.224507,-0.16577 -0.336761,-0.24866 -0.721604,-0.44482 -1.609545,-0.41516 -2.429945,-0.39873 -0.151135,0.005 -0.3033,-0.004 -0.453406,0.0138 -0.110661,0.0134 0.445652,-0.007 0.334419,6.6e-4 -0.568535,0.0372 -1.140233,0.0269 -1.709736,0.067 -0.757022,0.0402 -1.506283,0.16103 -2.250473,0.3001 -0.129424,6e-5 -0.839758,0.23426 -0.872287,0.0885 -0.04624,-0.0219 -0.248571,0.63957 -0.287536,0.73322 -0.05575,-0.003 -0.0521,0.17639 -0.126029,0.18386 -0.01873,0.002 -0.0097,-0.0438 -0.02769,-0.0492 -0.702412,-0.21111 -2.635555,-0.2429 -2.079009,-0.7206 0.0138,0.002 0.03303,0.0162 0.0414,0.005 0.140727,-0.20692 0.281455,-0.41383 0.422185,-0.62075 0.0065,-0.0268 0.0052,-0.0568 0.01947,-0.0804 0.193963,-0.31976 0.522323,-0.57329 0.793287,-0.81872 1.008628,-0.82601 2.171974,-1.45086 3.40309,-1.87683 0.286291,-0.0991 0.579742,-0.17607 0.869613,-0.2641 1.055152,-0.28339 2.144677,-0.44422 3.238926,-0.40785 1.413717,0.047 0.949383,-0.0826 1.791597,0.25761 0.652226,0.4507 0.519466,0.53696 0.353839,1.27953 0.138313,0.10246 -0.0066,0.29806 -0.144901,0.1956 v 0 c -0.302763,0.38027 -0.52925,0.7593 -1.001988,0.92503 -0.129252,0.0392 -0.309905,0.007 -0.387754,0.11761 -0.05171,0.0733 0.343719,0.0223 0.262367,0.0602 -0.164184,0.0764 -0.359745,0.0422 -0.53891,0.0685 -0.694373,0.10184 -1.383311,0.23951 -2.067948,0.39279 -1.335466,0.3357 -2.663229,0.71435 -3.909151,1.31241 -0.359384,0.15535 -0.719295,0.30773 -1.082314,0.45434 -0.08261,0.0334 -0.257334,0.18857 -0.247892,0.1 0.129928,-1.21919 0.261892,-0.67661 0.316248,-0.47995 0.02024,1.05623 -2.570844,0.39226 -2.284385,-0.60881 0.09102,-0.56036 0.279472,-1.11272 0.557129,-1.60754 0.439714,-0.60968 0.944419,-0.95725 1.647415,-1.22328 0.861263,-0.30373 1.749353,-0.51084 2.662209,-0.58054 1.235325,-0.0969 2.468385,-0.31428 3.712228,-0.17476 1.404142,0.19958 2.47309,0.52834 3.621455,1.40366 0.816915,0.72452 1.612632,1.57139 1.926248,2.65106 0.04401,0.15151 0.05008,0.31155 0.07512,0.46732 0.653077,1.35923 -1.269163,2.28282 -1.922241,0.92359 z"
       inkscape:connector-curvature="0" />
    <path
       style="fill:#666666;fill-opacity:1;stroke:none;stroke-width:0.13229167;stroke-opacity:1"
       id="path872"
       d="m 72.310951,140.74054 c -0.889583,0.002 -1.767036,-0.42462 -2.103469,-1.29878 -0.07553,-0.19624 -0.09366,-0.41 -0.140485,-0.61499 0.01886,-0.21911 0.01013,-0.44237 0.05658,-0.65733 0.177269,-0.82041 0.787564,-1.40602 1.444794,-1.86308 0.242267,-0.17036 0.507985,-0.26691 0.789978,-0.34282 0.09692,-0.0261 0.214529,-0.14398 0.290665,-0.0786 1.5365,1.31973 1.69289,0.95066 1.21337,1.67117 -0.02425,0.0161 -0.06243,0.0754 -0.07274,0.0482 -0.0012,-0.003 0.08773,-0.19135 0.111903,-0.18888 0.07466,0.008 0.172462,0.65358 0.177848,0.687 0.04242,0.87775 -0.14515,1.79982 -0.790236,2.44432 -0.142172,0.14204 -0.314356,0.25046 -0.471534,0.3757 -0.189455,0.0794 -0.365771,0.20422 -0.568364,0.23816 -1.13346,0.1899 -2.013427,-0.0803 -3.007034,-0.55963 -0.84836,-0.52074 -1.310634,-1.14115 -0.614717,-2.15256 0.109795,-0.15957 0.331586,-0.20031 0.497379,-0.30046 0.219376,-0.0153 0.43875,-0.0307 0.658124,-0.046 0.633697,-0.40253 1.202966,0.49365 0.569271,0.89619 v 0 c -0.111929,0.11489 -0.223858,0.22978 -0.335786,0.34468 -0.299779,-0.0871 -0.0088,0.0209 0.09111,-0.71628 0.01192,-0.0879 -0.04668,-0.17866 -0.02587,-0.2649 0.0174,-0.0721 0.169091,-0.0154 0.323335,0.0366 0.09808,0.0331 0.194252,0.0716 0.291377,0.10746 0.303272,0.12414 0.606458,0.26733 0.920425,0.36321 0.06489,0.0198 0.261319,0.0197 0.198456,0.0453 -0.592843,0.24081 -0.509342,-0.12094 -0.549637,0.21518 0.007,0.0245 -0.004,0.0683 0.02101,0.0736 0.154133,0.0326 0.373478,-0.9291 0.383381,-1.06402 0.0738,-0.56125 0.150164,-1.12379 0.389753,-1.64174 -0.273409,0.63347 -0.08444,0.15879 1.406085,1.36027 0.03979,0.0321 0.09257,-0.0514 0.143628,-0.0536 0.03618,-0.002 -0.331701,0.2913 -0.2973,0.27503 -0.109907,0.0845 -0.734421,0.61942 -0.856533,0.51925 -0.03391,-0.0278 -0.04168,-0.0772 -0.06252,-0.11578 -0.01679,-0.0316 -0.06783,-0.1206 -0.03844,-0.1002 0.325201,0.2257 0.649894,0.46473 0.906622,0.77019 1.122953,0.67205 0.172524,2.26015 -0.95043,1.58809 z"
       inkscape:connector-curvature="0" />
    <path
       style="fill:#666666;fill-opacity:1;stroke:none;stroke-width:0.13229167;stroke-opacity:1"
       id="path874"
       d="m 109.3231,124.71817 c 0.50995,-1.00317 1.46956,-1.70971 2.50841,-2.10747 0.1957,-0.0749 0.40189,-0.11894 0.60283,-0.17841 0.59478,-0.0787 1.62348,-0.21711 2.08027,0.28492 0.57698,0.6341 0.38373,1.19447 0.006,1.70414 -0.0667,0.09 -0.16878,0.14744 -0.25318,0.22116 -0.28523,0.18748 -0.52786,0.43602 -0.81368,0.62209 -0.2964,0.19297 -0.50629,0.27946 -0.82793,0.43312 -0.37164,0.14119 -0.57194,0.26426 -0.98488,0.23229 -0.18628,-0.0144 -0.36296,-0.0888 -0.54444,-0.13324 -0.57733,0.39585 -1.13714,-0.42061 -0.55981,-0.81646 v 0 c 0.12261,-0.52626 0.16058,-0.63663 0.60773,-0.96891 0.50347,-0.41877 1.03601,-0.87158 1.67788,-1.05332 0.79615,1.20241 -2.18314,-1.05757 0.30893,1.39227 0.43188,0.42457 1.35623,0.0529 0.74997,0.39029 -0.89106,0.47886 -1.78077,0.97854 -2.72731,1.33855 -0.96239,1.29466 -2.79331,-0.0664 -1.83092,-1.36102 z"
       inkscape:connector-curvature="0" />
    <path
       style="fill:#666666;fill-opacity:1;stroke:none;stroke-width:0.13229167;stroke-opacity:1"
       id="path882"
       d="m 81.604633,157.98232 c -0.174865,-0.0225 -0.352473,-0.0294 -0.524595,-0.0676 -1.291775,-0.28669 -2.463297,-1.01776 -3.630929,-1.60645 -1.244989,-0.70537 -2.558768,-1.23166 -3.951668,-1.55037 -0.735636,-0.15231 -1.479323,-0.27129 -2.231265,-0.29662 -0.159947,-0.005 -0.322777,0.0267 -0.480107,-0.003 -0.111697,-0.0208 0.226698,-0.0156 0.340047,-0.0235 -0.602654,-0.0389 -1.371887,-0.0358 -1.775431,-0.58184 -0.07357,-0.0996 -0.115658,-0.21892 -0.173487,-0.32838 -0.663973,0.22389 -0.980604,-0.7151 -0.316631,-0.939 v 0 c -0.02404,-0.11244 -0.06961,-0.22236 -0.07211,-0.33731 -0.01457,-0.66912 0.971055,-0.79467 1.429143,-0.88546 0.721833,-0.0357 1.330757,-0.089 2.029339,-0.0684 0.951326,0.0281 1.897423,0.17579 2.815659,0.42447 0.60585,0.18797 0.924592,0.2733 1.517079,0.51293 1.044719,0.42252 2.032935,0.97878 2.968256,1.60436 0.961132,0.67448 2.082609,1.36046 2.928212,2.17412 0.106213,0.1022 0.195227,0.22089 0.29284,0.33133 1.159831,0.82332 -0.0045,2.46357 -1.164349,1.64025 z"
       inkscape:connector-curvature="0" />
    <path
       style="fill:#666666;fill-opacity:1;stroke:none;stroke-width:0.13229167;stroke-opacity:1"
       id="path884"
       d="m 80.947965,149.65741 c -0.982791,-0.15284 -1.847315,-0.75139 -2.333549,-1.62626 -0.100033,-0.17999 -0.164561,-0.37754 -0.246843,-0.56631 -0.32308,-1.15678 0.0017,-2.30262 0.30477,-3.4241 0.292438,-0.90351 0.673565,-1.79103 1.252266,-2.55193 0.402971,-0.52985 0.578636,-0.65467 1.063035,-1.10535 1.015955,-0.77735 2.169651,-1.49439 3.392898,-1.89886 0.278418,-0.0921 0.567789,-0.14691 0.851684,-0.22037 1.251883,-0.1529 0.614066,-0.13636 1.913736,-0.0371 1.205056,-0.62563 2.089824,1.07858 0.884768,1.7042 v 0 c -0.766087,0.68066 -0.356136,0.37608 -1.23003,0.91349 -0.228661,0.1142 -0.452277,0.23911 -0.685982,0.34259 -0.93018,0.41188 -1.942151,0.6543 -2.808049,1.20463 -0.120839,0.0966 -0.2484,0.1853 -0.362516,0.28974 -0.677557,0.6201 -1.125748,1.45838 -1.59356,2.23446 -0.225086,0.40332 -0.424974,0.80713 -0.614451,1.22799 -0.06051,0.1344 -0.143149,0.26084 -0.181924,0.40305 -0.01154,0.0423 -0.0059,0.0875 -0.0088,0.13119 0.303227,0.68464 1.068251,1.02204 1.410002,1.68858 0.912415,0.71238 -0.09505,2.00274 -1.00747,1.29035 z"
       inkscape:connector-curvature="0" />
    <path
       style="fill:#666666;fill-opacity:1;stroke:none;stroke-width:0.13229167;stroke-opacity:1"
       id="path890"
       d="m 87.580882,137.72367 c -0.08504,0.12041 -0.163069,0.24609 -0.255111,0.36124 -0.199248,0.24926 -0.68702,0.76781 -0.883609,0.98593 -0.576009,0.63909 -1.135774,1.28646 -1.678464,1.95402 -0.777026,1.02993 -1.505712,2.09708 -1.979063,3.30521 -0.344317,0.8788 -0.368659,1.14057 -0.583895,2.06789 -0.239826,1.61049 -0.495193,3.29664 -0.208838,4.92175 0.03383,0.19199 0.09755,0.37749 0.146333,0.56623 0.107426,0.34401 0.279958,0.60038 0.576469,0.80033 0.20202,0.13623 0.187608,0.0714 0.370757,0.24419 0.06503,0.0614 0.118283,0.1341 0.177425,0.20115 0.03431,0.13816 0.06862,0.27632 0.102936,0.41448 0.377582,0.12353 0.202874,0.65752 -0.174708,0.53398 v 0 c -0.145304,0.12426 -0.290606,0.24852 -0.43591,0.37277 -0.153055,0.0377 -0.302069,0.10014 -0.459165,0.11305 -1.214932,0.0998 -2.12865,-0.93631 -2.750341,-1.83 -0.142689,-0.29462 -0.310573,-0.57833 -0.428067,-0.88388 -0.586635,-1.52558 -0.652748,-3.25665 -0.42354,-4.86007 0.06539,-0.45745 0.185024,-0.90549 0.277535,-1.35823 0.142025,-0.43483 0.263049,-0.87708 0.426075,-1.30447 0.696245,-1.82532 1.830074,-3.43821 3.197348,-4.82217 1.139395,-1.18139 2.323761,-2.4597 3.922444,-2.99183 0.854485,-0.75192 1.917874,0.4565 1.063389,1.20843 z"
       inkscape:connector-curvature="0" />
    <path
       style="fill:#666666;fill-opacity:1;stroke:none;stroke-width:0.13229167;stroke-opacity:1"
       id="path892"
       d="m 62.900019,133.91767 c 0.93456,0.26403 1.90502,0.54277 2.887479,0.45627 0.210833,-0.0186 0.41767,-0.0688 0.626505,-0.1032 -0.01813,-0.0282 -0.08411,-0.069 -0.05439,-0.0845 0.184443,-0.096 0.397803,-0.12228 0.592389,-0.19563 0.20961,-0.079 0.41454,-0.17009 0.619232,-0.26108 0.660181,-0.29348 1.305244,-0.62235 1.954615,-0.93865 0.522207,-0.245 1.052568,-0.47081 1.585784,-0.69033 0.214951,-0.0885 0.440659,-0.16789 0.640735,-0.2879 0.08804,-0.24867 0.192105,-0.51163 0.288813,-0.76268 0.214689,-0.47878 0.469017,-0.93756 0.641098,-1.43421 0.02884,-0.0538 0.135958,-0.52668 0.185622,-0.5416 0.02878,-0.009 0.05615,0.1215 0.103116,0.27918 3.688133,-1.3691 1.966845,0.77594 1.420448,0.76541 -0.397729,-0.008 -0.791995,-0.10851 -1.189586,-0.0955 -0.0592,0.002 0.06243,0.11921 0.120568,0.13052 0.244959,0.0476 0.49844,0.0255 0.747661,0.0383 -0.555471,0.63749 -1.139972,1.26513 -1.71851,1.88612 -1.100905,1.20573 -2.354732,2.24874 -3.730617,3.12314 -0.931921,0.57724 -1.943516,0.96269 -3.025978,1.11829 -0.642391,0.0171 -1.363179,0.0862 -1.935953,-0.26501 -0.005,-0.004 -0.02147,-0.0147 -0.01497,-0.0132 0.214379,0.0477 0.876492,-0.006 0.658557,0.0208 -0.546556,0.0683 -0.807972,0.018 -1.274869,-0.15688 -0.412226,-0.16629 -0.77753,-0.4109 -1.049061,-0.76396 -0.157891,-0.22351 -0.260036,-0.47797 -0.379916,-0.72215 -0.102548,-0.1715 -0.14542,-0.35904 -0.153663,-0.55639 0.610673,-0.27323 1.221347,-0.54647 1.832021,-0.8197 -0.04048,-0.13319 -0.0999,-0.1685 0.05973,-0.24384 0.08609,-0.0406 0.231626,0.003 0.273332,-0.0827 0.03066,-0.0629 -0.256164,-0.0461 -0.194451,-0.0791 0.145686,-0.0779 0.326215,-0.0523 0.489324,-0.0785 1.167024,-0.17672 2.335883,-0.34145 3.507179,-0.48725 0.7134,-0.0899 1.427053,-0.1906 2.115191,-0.40387 0.436934,-0.14263 0.756152,-0.45838 1.062409,-0.7858 0.345122,-0.41064 0.651702,-0.85034 0.944795,-1.2988 0.268093,-0.44424 -0.04242,0.49354 0.363162,0.60892 0.557754,0.15867 1.158293,0.0585 1.737439,0.0877 0.361949,-0.966 -0.351176,0.50918 -0.409797,0.61706 -0.827498,1.388 -2.000983,2.50586 -3.220121,3.54529 -0.795931,0.62834 -1.643206,1.20639 -2.57924,1.60664 -0.516215,0.22073 -0.652424,0.24168 -1.1854,0.39353 -1.085585,0.21876 -2.213518,0.17654 -3.286748,-0.0861 -0.05866,-0.0182 -0.2704,-0.0798 -0.343705,-0.11559 -0.02334,-0.0114 -0.08805,-0.04 -0.0628,-0.0461 0.626631,-0.15166 0.466267,0.12211 0.603292,-0.22371 -1.21085,0.53647 -1.969528,-1.17593 -0.758678,-1.7124 v 0 c 0.04255,-0.0557 0.06046,-0.14709 0.127641,-0.1671 0.218663,-0.0651 0.454221,-0.0443 0.680494,-0.0736 0.200733,-0.0259 0.39914,-0.0861 0.604913,-0.0771 0.417039,-0.0141 0.162057,-0.009 0.608231,-0.01 0.113722,-2.6e-4 0.453344,-0.02 0.341164,-0.001 -0.114544,0.0191 -0.237865,-0.0332 -0.348353,0.003 -0.190649,0.0617 0.78326,-0.0284 0.601105,-0.002 0.09964,-0.0178 0.202098,-0.0239 0.298926,-0.0534 0.854781,-0.26028 1.508917,-1.08027 2.185192,-1.61206 1.157661,-1.05175 2.295531,-2.1381 3.587805,-3.02643 0.125159,-0.0766 0.248061,-0.15706 0.37548,-0.22986 0.08237,-0.0471 0.237963,-0.22307 0.253438,-0.12948 0.0233,0.14094 -0.109774,0.27332 -0.213398,0.37165 -0.125138,0.11875 0.325029,-0.67701 0.29265,-0.55959 0.624127,-0.0106 1.26417,-0.17234 1.87238,-0.0319 0.198498,0.0458 0.222386,0.34432 0.298643,0.53323 0.167853,0.41582 0.05848,0.92131 -0.05269,1.3308 -0.286846,0.72619 -0.728349,1.36492 -1.276592,1.92152 -0.558513,0.54862 -1.163059,0.97191 -1.899512,1.25328 -0.735527,0.28 -1.493117,0.49912 -2.239345,0.74845 -1.250958,0.37106 -2.537719,0.62639 -3.849381,0.59511 -0.813949,-0.0431 -1.722691,0.0515 -2.4599,-0.36625 -0.126887,-0.0719 -0.461011,-0.1564 -0.35467,-0.25622 0.464581,-0.43605 1.101375,-0.641 1.652062,-0.9615 0.03384,-0.15251 0.16281,0.27088 0.169698,0.29815 2.64e-4,0.0102 -7.94e-4,0.0204 6.61e-4,0.0305 5.29e-4,0.004 -0.03835,-0.0982 -0.03555,-0.10306 0.0064,-0.0111 0.02538,0.004 0.03807,0.006 0.0033,-0.0118 0.0066,-0.0237 0.0099,-0.0355 0.232213,0.0545 0.429923,0.21222 0.62541,0.34113 -0.0784,-0.0126 -1.230015,-0.0674 -0.652121,0.0135 0.288693,0.0404 0.626811,-0.0464 0.925598,0.0221 0.110778,-0.0201 0.219639,-0.0191 0.331325,-0.0309 0.04307,-0.005 0.171445,-0.015 0.128405,-0.0198 -0.204524,-0.0228 -0.723711,-0.0156 -0.315444,-0.0194 0.687288,-0.0695 1.250739,-0.54428 1.78576,-0.93944 1.146051,-0.94585 2.247559,-1.94246 3.341686,-2.94759 0.978296,-0.8619 1.959262,-1.78413 3.224447,-2.19799 0.369665,-0.0106 0.740546,-0.0636 1.108997,-0.0319 0.129012,0.0111 0.482652,0.13728 0.354845,0.1581 -0.349495,0.0569 -0.70737,-0.0483 -1.061433,-0.043 -0.639968,0.01 0.27282,2.01949 1.701648,0.66431 0.180976,0.5583 0.243404,1.09411 0.06313,1.66945 -0.187473,0.61769 -0.443523,1.19938 -0.804087,1.73756 -0.28717,0.45544 -0.547363,0.93343 -0.904378,1.33946 -0.681,0.66107 -1.452175,1.20192 -2.287727,1.65454 -1.776742,0.96557 -3.37561,1.75679 -5.463086,1.76769 -0.29912,-0.035 -0.601887,-0.0468 -0.897364,-0.10498 -1.214675,-0.23941 -2.341527,-0.81704 -3.000774,-1.89088 -0.620708,-0.73114 0.413284,-1.60895 1.033992,-0.87781 z"
       inkscape:connector-curvature="0" />
    <path
       style="fill:#666666;fill-opacity:1;stroke:none;stroke-width:0.13229167;stroke-opacity:1"
       id="path894"
       d="m 48.038519,144.2281 c -0.03182,-1.67734 0.761325,-3.19631 1.482842,-4.66188 0.192884,-0.47248 0.577377,-1.07507 0.35974,-1.61161 -0.09334,-0.23011 -0.263417,-0.36865 -0.431052,-0.5445 -0.955333,-0.91598 -2.038352,-1.68746 -3.077319,-2.50466 -0.122431,-0.097 -0.244323,-0.19471 -0.367292,-0.29105 -0.08541,-0.0669 -0.173149,-0.13084 -0.257833,-0.19866 -0.4817,-0.38582 0.442845,0.0963 0.70578,-0.17347 0.390934,-0.40112 0.453065,-1.02452 0.679597,-1.53679 0.174874,0.052 -0.318212,-0.43385 -0.26759,-0.30339 0.124038,0.31965 0.257116,0.31518 0.532847,0.43434 1.307498,0.67573 2.384434,1.69884 3.415544,2.73069 1.057204,1.17265 2.087853,2.42555 2.726463,3.88536 0.117744,0.26915 0.20366,0.55113 0.305491,0.82669 0.340066,1.3029 0.27499,2.63942 -0.411883,3.82157 -0.122552,0.21092 -0.277623,0.40119 -0.416435,0.60179 -0.700138,0.83856 -1.571101,1.55171 -2.602539,1.94018 -0.167133,0.063 -0.341356,0.10517 -0.512035,0.15775 -0.962925,0.18938 -2.110348,0.19689 -2.591064,-0.81874 -0.07639,-0.16138 -0.09844,-0.34326 -0.147658,-0.51489 0.0068,-0.49261 0.07525,-0.98647 0.166972,-1.47044 0.259141,-1.01579 0.962256,-1.76029 1.740516,-2.41701 0.307395,-0.25981 0.648324,-0.47408 0.974874,-0.70753 0.01275,-0.009 0.223052,-0.13977 0.214817,-0.206 -0.193443,-0.44109 -0.255528,-0.9448 -0.344463,-1.41728 -0.0086,0.0137 -0.09734,-0.47564 -0.172692,-0.38849 -0.0074,0.0608 0.0057,0.0362 -0.03522,0.0756 -0.314853,-0.0465 -0.586986,-0.25847 -0.826459,-0.45554 -0.926773,-0.64496 2.097916,-1.65286 1.782105,-0.87061 -0.158973,0.23879 -0.13882,0.11751 0.02026,0.25247 0.460975,0.72256 0.752956,1.53901 1.031488,2.34492 0.292157,0.86987 0.44664,1.77052 0.372994,2.68639 -0.219261,1.04045 -0.350091,0.61623 -2.225403,0.62415 -0.03613,1.4e-4 -0.23638,-0.56175 -0.25047,-0.60484 -0.01735,-0.0359 -0.0263,-0.0773 -0.05204,-0.10777 -0.06908,-0.0818 -0.178234,-0.12179 -0.251123,-0.2002 -0.330604,-0.35562 -0.598846,-0.77271 -0.867697,-1.174 -0.636888,-0.96021 -0.970165,-2.03996 -1.167891,-3.16243 -0.04167,-0.44212 -0.12413,-0.66589 -0.396354,-0.99569 -0.14994,-0.23482 -0.28651,-0.53834 -0.09563,-0.79719 0.06042,-0.0819 0.14851,-0.1393 0.222766,-0.20895 -0.483431,-0.55967 0.30805,-1.24334 0.791482,-0.68368 v 0 c 0.63339,-0.16827 0.844349,-0.13235 1.306533,0.35223 0.359293,0.49939 0.596565,1.05682 0.856765,1.6118 0.444326,0.86595 0.924412,1.71432 1.313833,2.60763 0.359457,0.81336 0.76441,1.66612 0.729939,2.57648 -0.05677,-0.003 -0.07609,0.0175 -0.117447,0.0252 -0.673145,0.12538 -1.351038,0.22528 -2.022375,0.36001 -0.02529,0.005 -0.02855,0.065 -0.0529,0.0565 -0.03523,-0.0123 -0.039,-0.0636 -0.05851,-0.0954 -0.24686,-0.70976 -0.466764,-1.42868 -0.700262,-2.14287 -0.276853,-0.89053 -0.561697,-1.79483 -0.605958,-2.73285 0.004,-0.27183 -0.0074,-0.27371 0.02981,-0.50734 0.0104,-0.0652 0.08492,-0.16669 0.02594,-0.19638 -0.04141,-0.0208 -0.01563,0.154 -0.09136,0.10488 -0.657968,-0.48479 1.461961,-1.03452 2.093944,-0.91592 0.06887,0.0209 0.07208,-0.007 0.137326,0.007 0.195268,0.0408 0.38198,0.12607 0.560571,0.2106 0.714346,0.45249 1.136462,1.0319 1.367924,1.84956 0.207935,0.82965 0.361598,1.69343 0.203095,2.54535 -0.05485,0.1709 -0.09544,0.34705 -0.164551,0.51269 -0.296103,0.70968 -0.874203,1.23777 -1.470268,1.69577 -0.457576,0.34631 -0.948714,0.66093 -1.352079,1.07137 -0.100783,0.17825 -0.117614,0.37097 -0.174944,0.56624 -0.05481,0.18668 -0.08445,0.21501 -0.0879,0.20665 -0.02552,-0.0618 -0.01787,-0.13254 -0.0268,-0.19881 -0.03792,-0.10126 -0.06335,-0.20813 -0.113759,-0.30379 -0.04274,-0.0811 -0.108778,-0.14763 -0.163028,-0.22154 -0.02254,-0.0307 -0.04791,-0.0596 -0.06733,-0.0923 -0.01021,-0.0172 -9.26e-4,-0.0545 -0.02083,-0.0564 -0.195214,-0.0185 -0.39226,-0.007 -0.588263,-0.001 -0.04088,0.001 0.08118,0.0101 0.121776,0.0151 0.783472,-0.20691 1.408246,-0.776 2.041218,-1.25371 0.136799,-0.13383 0.37235,-0.34406 0.479964,-0.5173 0.282809,-0.45529 0.07295,-1.00432 -0.115336,-1.44779 -0.745572,-1.40448 -1.727785,-2.6605 -2.77208,-3.85541 -0.881714,-0.99783 -1.813749,-1.96764 -2.560759,-3.07301 -0.02808,-0.0645 -0.02329,-0.15839 -0.08424,-0.19354 -0.04996,-0.0288 0.09222,0.14297 0.04037,0.16825 -0.137354,0.067 -0.625494,-0.50317 -0.656071,-0.5938 0.199977,-0.55656 0.196413,-1.23734 0.599932,-1.66969 0.227223,-0.24346 0.665134,-0.0423 0.998153,-0.0426 0.654146,-5.2e-4 1.281756,0.30827 1.863995,0.56094 0.22112,0.12523 0.449036,0.23916 0.663362,0.3757 1.250817,0.79683 2.300037,1.88021 3.024226,3.17519 0.110962,0.25538 0.242161,0.50288 0.332889,0.76612 0.4196,1.21746 0.293106,2.50961 -0.101829,3.71224 -0.579152,1.51469 -1.308562,2.99502 -2.443198,4.17746 -0.391425,1.37032 -2.329352,0.81676 -1.937927,-0.55356 z"
       inkscape:connector-curvature="0" />
    <path
       style="fill:#666666;fill-opacity:1;stroke:none;stroke-width:0.13229167;stroke-opacity:1"
       id="path896"
       d="m 18.824718,149.43867 c -0.82743,-0.0308 -1.632388,-0.24889 -2.461019,-0.27149 0.131233,-0.008 0.265676,0.007 0.3937,-0.0228 0.150503,-0.0351 -0.309085,-0.0206 -0.463424,-0.0128 -0.58873,0.0296 -0.522634,0.1121 -1.346796,-0.10665 -0.133342,-0.0354 -0.233653,-0.14676 -0.35048,-0.22014 -0.5386,-0.50213 -0.785241,-1.31616 -0.24521,-1.94786 0.13282,-0.15537 0.338347,-0.22944 0.507521,-0.34416 0.454902,0.18244 0.929895,0.32113 1.364703,0.54731 0.05421,0.0282 0.02669,0.11949 0.0338,0.18019 0.03861,0.3293 0.02714,0.46278 -0.311155,0.76306 -0.04645,0.0412 -0.09686,-0.0848 -0.156992,-0.10037 -0.108939,-0.0282 -0.224307,-0.0181 -0.33646,-0.0272 -0.0036,0.21404 -0.306291,0.20896 -0.302702,-0.005 v 0 c -0.110809,-0.0764 -0.235829,-0.13548 -0.332428,-0.22921 -0.0582,-0.0565 -0.0528,-0.25449 -0.121208,-0.21094 -0.360974,0.22985 -0.286477,0.38617 -0.296614,0.65843 -0.0013,0.0337 -0.04167,0.0874 -0.01065,0.10077 0.418098,0.17998 0.8596,0.2998 1.2894,0.4497 0.147353,-0.11168 0.328648,-0.189 0.442058,-0.33502 0.313545,-0.40369 0.329411,-1.00363 -0.01836,-1.37515 -0.288057,-0.2224 -0.10541,-0.11528 -0.788339,-0.15306 -0.0168,-9.2e-4 0.02625,0.0294 0.04287,0.0267 0.08907,-0.0144 0.172803,-0.0521 0.259916,-0.0756 0.668133,-0.18024 0.389587,-0.0939 1.466129,-0.15693 1.071284,0.0209 2.173077,0.17247 3.035763,0.86478 1.416743,0.91501 0.122717,2.91859 -1.294027,2.00358 z"
       inkscape:connector-curvature="0" />
    <path
       style="fill:#666666;fill-opacity:1;stroke:none;stroke-width:0.13229167;stroke-opacity:1"
       id="path898"
       d="m 47.275701,159.10676 c -0.08076,-0.16441 -0.179366,-0.3212 -0.242291,-0.49323 -0.355499,-0.97187 -0.344481,-2.01803 -0.472066,-3.02989 -0.02776,-0.2202 -0.07253,-0.43791 -0.108791,-0.65687 -0.04929,-0.17306 -0.07905,-0.35291 -0.14787,-0.51917 -0.301464,-0.72829 -1.156141,-0.91678 -1.83074,-1.12933 -1.048338,-0.23563 -2.054237,-0.61123 -3.045945,-1.01779 -0.318586,-0.17701 -0.723576,-0.24823 -1.011344,-0.48213 0.90214,-0.0622 -0.03975,0.0175 1.235564,-2.2651 0.05622,-0.10063 0.07341,0.28572 0.0047,0.0996 0.878631,0.0559 1.734171,0.22939 2.589444,0.42971 1.496562,0.36808 2.944571,0.88876 4.330989,1.55859 1.169995,0.59602 2.019181,1.39668 2.750143,2.4728 0.589841,0.92615 0.829277,1.77551 0.872412,2.86299 -0.0025,0.70786 -0.204412,1.34621 -0.542954,1.95626 -0.968202,0.79163 -0.434314,0.62751 -1.992572,0.31943 -0.06773,-0.0134 -0.119966,-0.0772 -0.188447,-0.086 -0.02582,-0.003 -0.03,0.0512 -0.0558,0.0546 -0.08526,0.0113 -0.481015,-0.0848 -0.50332,-0.0896 -0.918193,-0.27208 -1.780245,-0.71587 -2.475492,-1.37728 -0.06913,-0.0961 -0.147165,-0.18629 -0.207391,-0.28816 -0.225798,-0.38194 -0.43258,-0.95801 -0.293669,-1.3848 0.146188,-0.44915 0.543014,-1.01056 1.073379,-0.9819 0.06275,0.003 0.110772,0.0594 0.166158,0.0891 0.225817,0.17733 0.511919,0.27649 0.769848,0.39773 0.818708,-0.30106 1.244459,0.85677 0.425752,1.15782 v 0 c -0.143789,0.20744 -0.283422,0.41292 -0.484497,0.57076 -0.0203,0.0361 -0.08758,0.0767 -0.06091,0.10841 0.02685,0.0319 0.09321,-0.007 0.118793,-0.0395 0.214478,-0.27643 0.499767,-0.53131 0.587015,-0.87014 0.07532,-0.2925 -0.08853,-0.59757 -0.132117,-0.89646 -0.0082,-0.0565 -0.06238,-0.12799 -0.02337,-0.16968 0.03891,-0.0416 0.113598,0.008 0.170396,0.0125 0.78289,0.29341 1.501963,0.74132 2.151038,1.26584 0.07487,0.0664 0.149747,0.13286 0.22462,0.1993 0.06293,0.0558 0.127205,0.11019 0.188788,0.16751 0.624454,0.58121 -0.388131,-0.0445 -1.029037,0.0921 -0.246277,0.0525 -0.366094,0.34584 -0.549141,0.51876 -0.03333,0.0739 -0.05805,0.15233 -0.100001,0.2217 -0.0093,0.0153 -0.0026,-0.0358 -0.0016,-0.0536 0.0031,-0.0558 0.0089,-0.11148 0.01392,-0.16716 0.01957,-0.21631 0.04945,-0.43189 0.05342,-0.64935 -0.01266,-0.55721 -0.245586,-1.06846 -0.556906,-1.52467 -0.599987,-0.69319 -1.255797,-0.95183 -2.115155,-1.24684 -1.383412,-0.48333 -2.781269,-0.93102 -4.127252,-1.51461 -0.631142,-0.27986 -1.306477,-0.5428 -1.858937,-0.96446 -0.146386,-0.0545 -0.195809,-0.047 -0.340903,-0.0188 -0.03575,0.007 -0.122157,0.0403 -0.109077,0.006 0.908268,-2.36037 0.163117,-2.3621 1.112072,-2.31507 0.447003,0.0102 0.889368,0.10072 1.329591,0.16993 1.176267,0.21554 2.368318,0.41005 3.47987,0.86933 0.643653,0.30885 0.992682,0.43051 1.556889,0.89348 1.009865,0.82867 1.608045,1.96505 1.831194,3.23955 0.02348,0.29433 0.06133,0.58786 0.07045,0.88299 0.02911,0.94321 -0.06044,2.17102 -0.352993,3.0736 -0.0556,0.17155 -0.145877,0.32985 -0.218816,0.49478 0.03261,1.36262 -1.894432,1.40873 -1.927038,0.0461 z"
       inkscape:connector-curvature="0" />
    <path
       style="fill:#666666;fill-opacity:1;stroke:none;stroke-width:0.13229167;stroke-opacity:1"
       id="path900"
       d="m 53.688378,165.27523 c 0.101976,-0.19191 0.185289,-0.39497 0.305926,-0.57573 0.751848,-1.1266 1.909243,-2.00968 3.084404,-2.65345 0.318896,-0.1747 0.655382,-0.31517 0.983074,-0.47275 1.095122,-0.45283 2.24789,-0.72794 3.43704,-0.69071 1.280997,0.0401 0.905802,-0.0341 1.712497,0.20847 0.805651,0.2818 1.616994,0.5462 2.419691,0.83642 0.992172,0.38599 1.93485,0.87644 2.740169,1.57609 0.17727,0.16669 0.867637,1.14131 0.612471,1.38014 -1.218968,1.14095 -1.134463,1.11295 -1.839444,0.77699 -0.125669,-0.13506 -0.370705,-0.15413 -0.48861,-0.29452 -0.101703,-0.12109 -0.3316,-0.53866 -0.249859,-0.40328 0.49345,0.81722 0.610934,0.50988 0.463408,0.84701 -0.60218,0.0586 -1.207042,-0.03 -1.808308,-0.0718 -1.540425,-0.0404 -3.05965,-0.24626 -4.565793,-0.56209 -0.664934,-0.16396 -1.32912,-0.33308 -1.976833,-0.55704 -0.115974,-0.0401 -0.232144,-0.0804 -0.34474,-0.12914 -0.05373,-0.0233 -0.2088,-0.069 -0.152914,-0.0865 0.253158,-0.0792 0.525221,-0.0748 0.787832,-0.11216 0.186204,-0.72324 0.409101,-1.43801 0.558613,-2.16972 0.0082,-0.04 -0.06318,-0.0838 -0.101186,-0.0689 -0.002,8e-4 -0.0673,0.25041 -0.05834,0.29552 0.01298,0.0653 0.07114,0.1132 0.09695,0.17455 0.04746,0.11281 0.08143,0.23084 0.122141,0.34625 0.583097,0.29884 0.160483,1.12346 -0.422614,0.82463 v 0 c -0.09332,0.0791 -0.178155,0.16947 -0.279963,0.2373 -0.21975,0.14641 -0.657574,0.31984 -0.924876,0.25796 -0.135717,-0.0314 -0.373759,-0.0499 -0.372641,-0.18919 0.0062,-0.77685 0.261722,-1.53155 0.392584,-2.29732 0.490404,-0.069 0.977482,-0.16781 1.471087,-0.20802 0.921792,-0.0751 1.841964,0.0804 2.746486,0.23774 1.443276,0.28769 2.880097,0.61406 4.28913,1.04182 0.60105,0.18277 1.228018,0.32571 1.779729,0.63564 0.445625,0.28859 0.0708,0.0175 0.723264,0.92571 0.08525,0.11867 -0.14268,-0.25754 -0.23876,-0.36763 -0.03934,-0.0451 -0.118921,-0.0471 -0.171525,-0.0545 -2.008601,-0.86671 -1.490668,0.86121 -1.401937,1.40609 0.0063,0.0387 0.03466,0.0873 0.0094,0.11726 -0.0692,0.0822 -0.300672,-0.18318 -0.31413,-0.0727 -0.910093,-0.35381 -1.801987,-0.7548 -2.64151,-1.25681 -0.542251,-0.32977 -1.060524,-0.7386 -1.728394,-0.68022 -0.09993,0.014 -0.321756,-0.0564 -0.299789,0.0421 0.02335,0.10469 0.394359,-0.0328 0.318832,0.0433 -0.105452,0.10632 -0.295775,0.0482 -0.441929,0.0808 -0.662329,0.14784 -1.308737,0.36306 -1.921927,0.655 -0.838506,0.39927 -1.660008,0.81724 -2.469523,1.27309 -0.586701,0.33038 -0.888713,0.52872 -1.479234,0.82302 -0.179681,0.0896 -0.365829,0.16549 -0.548745,0.24824 -0.931199,1.28073 -2.742422,-0.0362 -1.811222,-1.31692 z"
       inkscape:connector-curvature="0" />
    <path
       style="fill:#666666;fill-opacity:1;stroke:none;stroke-width:0.13229167;stroke-opacity:1"
       id="path902"
       d="m 70.697957,161.69247 c -0.02194,-0.20388 -0.06808,-0.40659 -0.06581,-0.61164 0.01395,-1.26209 0.568697,-2.5065 1.273288,-3.52801 0.192507,-0.2791 0.41671,-0.53495 0.625066,-0.80242 0.971296,-1.11802 2.201948,-1.94436 3.613473,-2.3964 0.228292,-0.0731 0.463423,-0.12283 0.695134,-0.18424 1.377036,-0.31473 2.798185,-0.31083 4.191184,-0.1144 0.852334,0.0727 1.660197,0.33521 2.434529,0.68615 1.577718,0.79291 0.700884,0.81648 -0.767195,2.5802 -0.400244,0.12624 -0.828804,0.12418 -1.245125,0.14575 -0.717564,0.0802 -1.445503,0.0366 -2.163373,0.10002 -0.09519,0.008 0.381788,-7.9e-4 0.286575,0.007 -0.190353,0.0162 -0.381911,0.0114 -0.572867,0.0171 -1.102152,0.0161 -2.114876,0.40383 -3.102045,0.85508 -0.611122,0.36285 -1.464295,0.5771 -1.842419,1.22857 -0.149043,0.54375 -0.133469,1.11402 -0.200075,1.6698 -0.06917,0.57717 -0.09851,0.62617 -0.234572,1.18998 -0.182744,0.50375 -0.440221,1.52394 -1.07947,1.65664 -0.07371,0.0153 -0.150381,-0.007 -0.225572,-0.0107 -0.07804,-0.0556 -0.156084,-0.11129 -0.234127,-0.16693 -0.121286,0.77166 -1.212583,0.60013 -1.091295,-0.17153 v 0 c -0.07392,-0.0776 -0.147849,-0.15515 -0.221772,-0.23273 -0.0624,-0.0565 -0.246112,-0.21428 -0.296719,-0.29178 -0.224313,-0.3435 -0.04594,-0.84228 -0.08201,-1.21437 0.08272,-1.24748 0.245197,-2.50793 0.727096,-3.67139 0.100739,-0.20261 0.18857,-0.41216 0.302216,-0.60782 0.54616,-0.9403 1.408121,-1.6326 2.319647,-2.19691 1.314051,-0.74695 2.711564,-1.32347 4.23265,-1.46124 1.534775,-0.0974 3.101794,-0.12441 4.608005,0.22901 0.443497,0.12571 1.087757,0.28971 1.47126,0.56414 0.04537,0.0325 0.07669,0.081 0.11504,0.12155 -0.466025,0.6762 -0.944978,1.34367 -1.398077,2.0286 -0.01269,0.0192 0.02922,0.054 0.01107,0.0681 -0.103819,0.0807 -0.640012,-0.13512 -0.745787,-0.15698 -0.619395,-0.18336 -1.247346,-0.26316 -1.895063,-0.25662 -1.088558,-0.009 -0.573303,-0.0338 -1.932459,0.13689 -0.366691,0.0922 -0.56436,0.1277 -0.917297,0.27472 -0.742543,0.30931 -1.367781,0.83501 -1.92116,1.40798 -0.520432,0.60501 -0.99877,1.22828 -1.459157,1.88057 -0.23496,0.33291 -0.590305,0.8776 -0.851244,1.20398 -0.112088,0.1402 -0.239916,0.26706 -0.359874,0.40059 -0.266232,1.41539 -2.267892,1.03888 -2.001662,-0.37651 z"
       inkscape:connector-curvature="0" />
    <path
       style="fill:#666666;fill-opacity:1;stroke:none;stroke-width:0.13229167;stroke-opacity:1"
       id="path904"
       d="m 73.81323,163.19891 c -0.0709,-0.1536 -0.158119,-0.30067 -0.212695,-0.46079 -0.351282,-1.03065 -0.332299,-2.24067 -0.203468,-3.30671 0.280465,-1.40546 0.954881,-2.08892 2.032619,-2.94474 1.157678,-0.89309 2.414655,-1.63536 3.722046,-2.28404 0.788718,-0.33733 1.850115,-0.78656 2.734132,-0.68924 0.354804,0.0391 0.703933,0.11885 1.0559,0.17828 0.272109,0.13364 0.447787,0.36995 0.66706,0.56421 0.06788,0.0601 0.152749,0.10386 0.223624,0.16136 0.557234,0.64839 0.141307,0.84444 -0.30013,2.09107 -0.0076,0.0216 -0.389965,0.19863 -0.446633,0.22562 -0.984169,0.41894 -2.020417,0.69486 -3.02854,1.04859 -1.180418,0.45818 -2.333881,0.98198 -3.5018,1.4709 -0.767739,0.32025 -1.370344,0.58945 -1.891895,1.25018 -0.423749,0.72244 -0.750095,1.49985 -1.029905,2.28803 -0.198906,0.55985 -0.168152,1.15099 -0.17691,1.73432 0.008,0.0783 -0.107212,0.84033 -0.179428,0.85853 -1.892053,0.47682 -1.643474,0.80941 -2.043101,0.11732 -0.255453,-0.50664 -0.297861,-1.0364 -0.278105,-1.59223 0.14078,-1.1304 0.660229,-2.14451 1.23391,-3.11014 0.728443,-1.18199 1.657789,-2.21588 2.66993,-3.15907 0.994516,-0.90834 2.156455,-1.58723 3.368212,-2.15887 1.067731,-0.48885 2.184739,-0.6704 3.356666,-0.61158 0.147686,0.007 0.2892,0.0619 0.4338,0.0928 0.864927,0.2929 1.758418,0.43806 2.660777,0.55236 0.744643,0.0794 1.49254,0.16598 2.17794,0.48192 0.374898,0.20586 0.771351,0.48285 0.897082,0.91848 0.03361,0.11646 0.048,0.23762 0.072,0.35643 -2.65e-4,0.029 0.0012,0.24743 -0.015,0.24928 -0.788772,0.0896 -1.584773,0.10258 -2.378354,0.12314 -0.03372,9.2e-4 0.02854,-0.0966 0.0323,-0.0975 0.759657,-0.1818 1.523761,-0.34449 2.285642,-0.51673 0.0016,0.11101 -0.02546,0.14085 -0.117507,0.19274 0.357403,1.28338 -1.457581,1.78883 -1.814984,0.50544 v 0 c -0.106361,0.009 -0.148266,-0.002 -0.213919,-0.0923 0.73928,-0.23876 1.477563,-0.48063 2.21784,-0.71628 0.02782,-0.009 0.106473,0.0363 0.0776,0.0406 -0.771419,0.11423 -1.553469,0.15632 -2.320692,0.29598 -0.01127,0.002 -0.01191,0.16077 -0.01238,0.19403 0.03324,0.15205 0.04842,0.31145 0.126701,0.44957 0.01016,0.0179 0.269419,0.34953 0.268849,0.35965 -0.0013,0.0232 -0.0326,0.033 -0.0489,0.0495 -0.790638,0.17092 -1.615784,0.0632 -2.403717,-0.0675 -0.538906,-0.12572 -0.600025,-0.12421 -1.116063,-0.30564 -0.377346,-0.13267 -0.736605,-0.33126 -1.119211,-0.44765 -0.05942,-0.0181 -0.122141,-0.0226 -0.183211,-0.034 -0.470244,0.0412 0.104668,-0.0127 0.321409,0.001 0.07687,0.005 -0.154203,0.0131 -0.228858,0.0321 -0.410651,0.10447 -0.784274,0.32297 -1.174857,0.47875 -0.980064,0.46307 -1.972017,0.92481 -2.793497,1.64809 -0.874422,0.78047 -1.715438,1.6044 -2.421743,2.54362 -0.49648,0.70007 -0.965584,1.41731 -1.335081,2.19425 -0.113747,0.20778 -0.222561,0.62527 -0.370695,0.19967 -0.0021,-0.006 0.01162,0.005 0.01743,0.008 0.454006,0.47762 -0.08404,-0.0985 -1.836549,0.42328 -0.05506,0.0164 -0.01101,0.1272 -0.05592,0.16301 -0.08831,0.0704 -0.10128,-0.53157 -0.152244,-0.46 -0.131673,-0.83265 -0.142365,-1.6805 0.02768,-2.50975 0.252602,-1.03319 0.653004,-2.02159 1.171089,-2.9513 0.248111,-0.42108 0.335759,-0.6051 0.645087,-0.98767 0.496431,-0.61398 1.12783,-1.09589 1.804958,-1.49385 1.191932,-0.66795 2.443058,-1.21957 3.720921,-1.70256 1.140628,-0.40242 2.307195,-0.74192 3.527089,-0.7632 0.108192,-4e-4 0.21641,-0.003 0.324577,-0.001 0.07161,0.002 0.216408,-0.0586 0.214502,0.013 -0.01582,0.59415 -0.174547,1.17583 -0.26182,1.76374 0.02212,0.0373 0.05907,0.0692 0.06637,0.11194 0.009,0.0524 -0.259686,-0.13227 -0.150655,-0.0521 -0.05837,-0.0406 -0.670416,-0.57187 -0.319473,-0.21357 0.240126,0.0302 0.480158,0.0612 0.720377,0.0906 0.0069,7.9e-4 -0.01369,-0.007 -0.02021,-0.005 -0.05791,0.0207 -0.114046,0.0462 -0.169612,0.0725 -0.422131,0.20005 -0.820564,0.4451 -1.224132,0.67913 -1.230503,0.71478 -2.460768,1.4355 -3.774535,1.99034 -0.176868,0.0746 -0.557144,0.24197 -0.765453,0.30809 -0.08115,0.0258 -0.196915,0 -0.245709,0.0698 -0.0818,0.11696 -0.05695,0.36849 -0.05961,0.47087 0.02159,1.19372 0.09325,2.45449 -0.400772,3.56913 0.03757,1.46948 -2.040577,1.52261 -2.078148,0.0531 z"
       inkscape:connector-curvature="0" />
    <path
       style="fill:#666666;fill-opacity:1;stroke:none;stroke-width:0.13229167;stroke-opacity:1"
       id="path906"
       d="m 81.408071,160.94764 c -1.180028,-0.34502 -2.086263,-1.20931 -2.922461,-2.0698 -0.360203,-0.3069 -0.607606,-0.76683 -1.033167,-0.99766 -0.132794,-0.072 -0.274015,-0.0938 -0.418736,-0.12707 -0.851037,-0.0679 -1.706764,-0.0253 -2.559949,-0.0387 -0.113355,-0.002 -1.36642,-0.0741 -1.338315,-0.18318 0.038,-0.14754 0.348622,-0.0316 0.427392,-0.16197 0.0508,-0.0841 -0.154034,-0.13075 -0.197306,-0.21895 -0.05034,-0.10261 -0.04956,-0.22315 -0.07434,-0.33472 -1.00534,0.3656 -1.522375,-1.05617 -0.517035,-1.42177 v 0 c 0.0015,-0.0641 -0.03806,-0.51277 0.125935,-0.57057 0.315495,-0.11121 0.660759,-0.1052 0.990034,-0.1642 0.500032,-0.0896 0.9934,-0.18916 1.507334,-0.13945 1.152446,0.0624 2.307815,0.20576 3.348666,0.74269 0.782516,0.43254 1.477429,0.99422 2.171342,1.55553 0.889318,0.69846 1.835761,1.40336 2.358416,2.43412 1.19906,1.32075 -0.668753,3.01647 -1.867814,1.69573 z"
       inkscape:connector-curvature="0" />
    <path
       style="fill:#666666;fill-opacity:1;stroke:none;stroke-width:0.13229167;stroke-opacity:1"
       id="path908"
       d="m 75.190807,129.66493 c 0.689025,1.37697 0.911005,2.9328 1.226668,4.42625 0.156197,0.53003 0.328675,1.86896 0.817207,2.23095 0.04077,0.0302 0.09468,0.0366 0.142027,0.0548 0.184147,0.0255 0.359083,-0.0302 0.538035,-0.0578 0.08188,-0.0126 0.269608,0.0527 0.247084,-0.027 -0.02384,-0.0844 -0.316183,0.0436 -0.261829,-0.0252 0.06368,-0.0806 0.204383,-0.021 0.306574,-0.0315 0.585909,-0.0507 1.175321,-0.0864 1.759095,0.002 -0.03054,0.003 0.255088,0.0322 0.218962,0.098 -0.01953,0.0355 -0.08712,0.045 -0.08646,0.0856 0.03036,1.84662 0.732109,1.86345 0.0636,1.83021 -0.549914,-0.18402 0.47419,0.006 -0.86066,-1.25588 -0.177376,-0.16767 0.06888,0.59776 0.02099,0.67442 -0.02283,0.0365 -0.08614,0.002 -0.129211,0.004 -0.76797,-0.28633 -1.409787,-0.83295 -2.03876,-1.34413 -0.827737,-0.65347 -1.598706,-1.36448 -2.264001,-2.18287 -0.567686,-0.78278 -0.726972,-1.70124 -0.794953,-2.64084 -0.02398,-0.52965 -0.163806,-1.0314 -0.386409,-1.50902 -0.276926,-0.48834 -0.226583,-0.35654 0.309053,-0.007 0.629771,-0.50997 1.259541,-1.01994 1.889312,-1.5299 3.96e-4,0.01 0.0078,0.0225 0.0012,0.0299 -0.03374,0.0377 -0.06247,-0.0797 -0.09529,-0.11818 -0.02728,-0.032 -0.124657,-0.11284 -0.09215,-0.0862 0.08791,0.0722 0.172334,0.14848 0.258502,0.22272 0.829119,0.72011 1.390675,1.66932 1.903243,2.62573 0.462542,0.83443 0.694871,1.79694 1.267965,2.56723 0.306671,0.33742 0.756997,0.44386 1.182825,0.55427 0.284879,0.13943 1.348107,0.11357 0.174431,0.13019 0.279483,-0.001 0.555915,-0.0403 0.836497,-0.0315 1.073899,0.12071 1.013579,0.046 1.149987,1.03035 0.499422,0.66006 -0.434041,1.36635 -0.933464,0.70629 v 0 c -0.185615,0.66439 -0.3499,0.62967 0.444844,0.73335 -0.274616,0.0188 -0.550596,-0.005 -0.824154,0.0311 -0.703252,0.0108 -1.411321,0.037 -2.10276,-0.11928 -0.960605,-0.25633 -1.804411,-0.7186 -2.457695,-1.48718 -0.679756,-0.87395 -1.209872,-1.83873 -1.705556,-2.82715 -0.423782,-0.80934 -0.883211,-1.61036 -1.19368,-2.4716 0.05239,-0.1727 0.03138,-0.0262 -0.190714,-0.27338 -0.789628,-0.8788 0.464403,-1.20712 1.577232,-2.09197 0.668808,0.40719 1.022638,0.67364 1.368729,1.40828 0.3193,0.74951 0.494496,1.52651 0.503714,2.34466 0.02985,0.45236 0.04126,0.8463 0.379871,1.18928 0.592111,0.69626 1.341739,1.23921 1.984165,1.88697 0.553303,0.51758 1.128869,1.01347 1.648432,1.56519 0.144352,0.18814 0.363212,0.44535 0.430193,0.67252 0.06337,0.21495 0.28682,0.7787 0.09325,0.66578 -0.365279,-0.21307 -1.254029,-1.10064 -0.73532,-1.10906 0.725733,0.0378 0.271151,-0.0218 0.436001,1.85562 0.0075,0.0854 -0.556022,0.2948 -0.629949,0.30706 -0.582057,0.12326 -1.177105,0.0914 -1.7684,0.0771 -0.981079,-0.0496 -1.878401,0.0284 -2.771799,-0.45648 -0.150974,-0.0956 -0.309434,-0.18021 -0.452923,-0.28668 -1.019215,-0.75626 -1.55848,-1.92088 -1.90649,-3.109 -0.361178,-1.57375 -0.678316,-3.26332 -0.187731,-4.84392 -0.06111,-1.19551 1.629585,-1.28194 1.690701,-0.0864 z"
       inkscape:connector-curvature="0" />
    <path
       style="fill:#666666;fill-opacity:1;stroke:none;stroke-width:0.13229167;stroke-opacity:1"
       id="path910"
       d="m 72.582566,127.03449 c -0.07482,0.1532 -0.143086,0.30978 -0.224464,0.45959 -0.132664,0.24424 -0.691594,1.16678 -0.803604,1.35388 -0.557647,0.93148 -1.111722,1.86488 -1.673502,2.79389 -0.842639,1.37814 -1.742303,2.75217 -2.941295,3.85254 -0.786012,0.72135 -0.959,0.76737 -1.851919,1.30827 -1.309978,0.62551 -2.454897,0.83344 -3.905545,0.72883 -0.196067,-0.0141 -0.724596,-0.17265 -0.940468,-0.23395 0.390316,-0.0356 -0.594922,-0.0873 -0.447043,-0.13632 0.132387,-0.0439 0.281763,-1.3e-4 0.416993,-0.0342 0.03751,-0.009 0.04701,-0.0616 0.0738,-0.0896 0.430578,-0.44865 0.238898,-0.0999 0.386422,-0.92226 -0.35002,-0.84176 -0.392768,-0.3443 -1.32041,-0.31059 -0.05742,0.002 0.03962,-0.10786 0.05942,-0.16179 0.572732,-1.04268 1.541241,-1.81519 2.42306,-2.58802 1.51786,-1.27656 3.133503,-2.42868 4.64741,-3.70955 1.020826,-0.87288 1.938829,-1.87008 2.546151,-3.07455 0.347395,-0.77256 0.5748,-1.58921 0.89584,-2.37307 0.319563,-0.7314 0.636228,-1.46435 1.02558,-2.16177 0.144071,-0.30539 0.374115,-0.56456 0.525998,-0.86458 0.0536,-0.11671 -0.02017,-0.23653 -0.04304,-0.36213 -0.05099,-0.35657 -0.108281,-0.72797 -0.05226,-1.0877 -0.01155,0.1431 0.360349,0.53101 0.182867,0.41452 -0.334483,-0.32894 0.101374,0.10098 0.172474,0.0813 0.513182,-0.14185 0.991826,-0.38754 1.487739,-0.58131 -0.07637,0.76919 -0.389872,1.49545 -0.666515,2.20936 -0.588908,1.31804 -1.077172,2.67354 -1.502078,4.05208 -0.406934,1.29655 -0.773321,2.61738 -1.372943,3.84272 -0.111239,0.22731 -0.239781,0.44575 -0.359673,0.66863 -0.661675,1.16666 -1.644199,2.08356 -2.562375,3.04179 -0.857017,0.94077 -1.636889,1.94552 -2.509338,2.8726 -0.342763,0.30679 -1.121817,1.03872 -1.586924,1.08818 -0.275583,0.0293 -0.551512,-0.0553 -0.827268,-0.0829 -0.558505,0.78963 0.967599,-0.0888 0.919502,0.0236 -0.06796,0.15878 -0.277906,0.31423 -0.396665,0.43006 -0.148291,0.0828 -0.549547,0.47566 -0.725045,0.31002 -0.717017,1.02445 -2.165799,0.0104 -1.448782,-1.01401 v 0 c 0.0081,-0.28696 0.137013,-0.53174 0.319086,-0.7524 0.308421,-0.30668 1.002542,-0.90979 1.444632,-0.93544 0.276163,-0.016 0.550993,0.05 0.82649,0.075 -0.238034,-0.0177 -0.478085,-0.0889 -0.714104,-0.0532 -0.142415,0.0215 -0.250525,0.14228 -0.373394,0.21743 -0.03841,0.0235 -0.06952,0.0978 -0.110085,0.0783 -0.03737,-0.018 0.0045,-0.0837 0.01657,-0.12334 0.06722,-0.22127 0.192397,-0.45653 0.289223,-0.65939 0.702442,-1.22651 1.5801,-2.32234 2.647031,-3.2558 0.780677,-0.6988 1.639453,-1.36028 2.082974,-2.33798 0.579869,-1.3858 0.969871,-2.83457 1.443827,-4.25825 0.51848,-1.47208 1.069757,-2.93806 1.863142,-4.28875 0.397486,-0.66377 0.822294,-1.30536 1.281042,-1.92739 1.198936,-0.54939 1.116075,-1.01434 1.7725,-0.58418 0.07451,0.0488 0.156932,0.14791 0.215906,0.13818 0.355416,0.25339 0.572408,0.63869 0.666982,1.06063 0.08349,0.40384 0.09233,0.80979 0.04989,1.2203 -0.01838,0.33373 -0.03799,0.66838 -0.098,0.99773 -0.08116,0.43748 -0.191929,0.86875 -0.349039,1.28574 -0.270887,0.74707 -0.624868,1.4596 -1.002337,2.15824 -0.150033,0.30138 -0.307827,0.60756 -0.405873,0.93126 -0.134275,0.44331 -0.18964,0.90856 -0.305549,1.35621 -0.162121,0.54931 -0.214787,0.78291 -0.447135,1.3252 -0.515002,1.20201 -1.286076,2.25849 -2.223613,3.16705 -0.275144,0.24466 -0.542569,0.49829 -0.825432,0.73398 -1.322093,1.10164 -2.80383,1.98415 -4.266887,2.88085 -0.986854,0.58914 -1.971675,1.24884 -3.064984,1.61965 -0.552337,0.18322 -1.276043,0.64747 -1.705848,0.0409 -0.07116,-0.10042 -0.115276,-0.21749 -0.172914,-0.32624 0.0312,-0.24233 0.004,-0.4997 0.09361,-0.727 0.02977,-0.0755 0.394335,-0.44014 0.553889,-0.47119 0.422328,-0.0822 0.886192,-0.0453 1.316916,-0.0653 0.226432,-0.006 0.553543,-0.01 0.775153,-0.0418 0.0511,-0.007 -0.205685,0.004 -0.154803,-0.005 0.163666,-0.0282 0.332018,-0.0234 0.495327,-0.0535 0.608952,-0.11242 0.595171,-0.15647 1.175713,-0.4371 0.21924,-0.14328 0.448244,-0.27263 0.65772,-0.42984 1.415309,-1.06218 2.374385,-2.57129 3.32231,-4.03461 0.983437,-1.47056 1.998393,-3.0608 3.498922,-4.06539 0.173973,-0.11647 0.369545,-0.19689 0.554318,-0.29534 0.776662,-0.88723 2.031391,0.21114 1.25473,1.09837 z"
       inkscape:connector-curvature="0" />
  </g>
  <g
     inkscape:groupmode="layer"
     id="layer1"
     inkscape:label="lines 2">
    <path
       style="fill:#4d4d4d;fill-opacity:1;stroke:none;stroke-width:0.13229167;stroke-opacity:1"
       id="path921"
       d="m 65.200157,56.314882 c 0.0331,-0.159957 0.04895,-0.324482 0.09931,-0.479872 0.46253,-1.427096 1.616921,-2.52274 2.66352,-3.534878 0.994374,-0.822403 2.047574,-1.743279 3.334018,-2.066129 0.12472,-0.0313 0.254208,-0.03894 0.381313,-0.05841 0.462948,-7.94e-4 0.692528,-0.05354 1.123308,0.431741 0.259648,0.292499 -0.172978,0.577432 0.06784,0.70086 0.437601,0.381124 0.761266,0.881371 1.062041,1.372597 0.315032,0.55424 0.4939,1.166233 0.657887,1.777925 0.161974,0.521282 0.332606,1.039781 0.580469,1.527125 0.182926,0.340003 0.505998,0.499792 0.832093,0.674837 0.32968,0.173081 0.626953,0.391501 0.922169,0.616062 0.199992,0.168759 0.368769,0.12867 0.60211,0.06793 -0.04652,-0.08768 0.411079,0.02443 0.339478,-0.06591 -0.04748,-0.0599 -0.238747,0.05196 -0.22807,-0.02373 3.97e-4,-0.0025 0.707238,-0.06164 0.76506,-0.06614 0.72743,-0.05051 1.460859,-0.07514 2.187451,-0.0023 0.494145,0.07085 0.922086,0.275246 1.234427,0.664709 0.326362,0.666467 0.113813,0.07102 -0.360311,1.458628 -0.01021,0.0299 0.06094,-0.01916 0.08775,-0.03589 0.05544,-0.03458 0.102662,-0.08115 0.15731,-0.116979 0.0063,-0.0041 0.02514,-0.0082 0.02267,-0.0011 -0.01454,0.04213 -0.04202,0.07861 -0.06303,0.117913 -0.399,0.691786 -0.986534,1.247648 -1.561447,1.791607 -0.667245,0.621762 -1.416275,1.144115 -2.129562,1.709562 -0.319741,0.228618 -0.23361,0.314698 -0.210672,0.694827 0.06049,0.745367 -0.06636,1.483258 -0.211844,2.211017 -0.09777,0.496379 -0.130243,1.003591 -0.07649,1.506796 0.0948,0.420082 0.308363,0.801579 0.463654,1.201415 0.180774,0.526228 0.358525,1.052798 0.582358,1.562594 0.168021,0.456658 0.45475,0.847706 0.740009,1.235958 0.286273,0.366398 0.521296,0.766809 0.718786,1.186754 0.168176,0.329303 0.04729,0.105616 -0.105509,-0.01303 0.01779,-0.102372 0.41645,0.241663 0.45983,0.280684 -0.123458,0.546212 -0.181511,1.111455 -0.370373,1.638637 -0.028,0.07817 -0.157439,0.05976 -0.240254,0.06584 -0.551931,0.0405 -1.175493,0.01998 -1.742997,0.04958 -0.03711,0.0016 -0.779157,0.03148 -0.802071,0.03821 -0.08342,0.02451 0.339323,-0.01208 0.259818,0.02312 -0.116018,0.05137 -0.253319,0.01624 -0.379467,0.02985 -0.343832,0.03708 -0.402654,0.05718 -0.739753,0.12578 -0.53489,0.128256 -1.054803,0.313565 -1.558551,0.533329 -0.310446,0.128282 -0.437247,0.504997 -0.587429,0.779527 -0.461454,0.827079 -1.026082,1.587141 -1.612162,2.328564 -0.455647,0.561499 -0.946988,1.095356 -1.28057,1.741192 -0.233679,0.579542 -0.244265,1.222476 -0.318876,1.8366 -0.09992,0.753925 -0.25896,1.504204 -0.615019,2.180856 -0.06048,0.08494 -0.165624,0.236772 -0.233245,0.314261 -0.123929,0.142012 -0.192873,0.404836 -0.380902,0.417908 -0.49242,0.03423 -1.748282,-0.613679 -1.466043,-0.208721 0.02233,0.02266 0.219889,0.231755 0.261103,0.240341 0.184335,0.0384 0.736747,-0.03981 0.563814,0.03468 -0.514248,0.221503 -1.093708,0.01354 -1.560697,-0.184383 -0.799584,-0.412897 -1.316505,-1.123471 -1.770118,-1.874092 -0.277193,-0.588243 -0.6151,-1.136954 -0.997806,-1.661517 -0.358243,-0.472812 -0.83129,-0.822607 -1.320917,-1.146871 -0.444123,-0.278689 -0.908109,-0.525318 -1.371169,-0.770904 -0.246581,-0.09088 -0.512126,-0.289252 -0.786764,-0.245576 -0.231932,0.07623 -0.07681,0.01632 0.4217,0.0354 0.04157,0.0016 -0.08325,8.9e-5 -0.124783,0.0025 -0.05208,0.003 -0.104114,0.0074 -0.155893,0.01371 -0.03643,0.0045 -0.397929,0.06085 -0.414469,0.06341 -0.77768,0.126648 -1.568026,0.100088 -2.35206,0.06177 0.927018,0.0819 0.302373,-0.08235 0.152673,-0.02201 -0.07657,0.03086 -0.157671,0.111575 -0.214254,0.159188 -0.446198,0.445204 -0.941166,0.818245 -1.495711,1.116337 -0.577699,0.302077 -1.212494,0.454686 -1.828759,0.652583 -0.512757,0.204912 -0.923634,0.589134 -1.397367,0.868782 -0.626181,0.301868 -1.275094,0.476846 -1.970939,0.156253 -0.470379,-0.216715 -0.474341,-0.641467 -0.566574,-1.049688 -3.97e-4,-0.07363 0.0077,-0.1478 -0.0012,-0.220899 -0.0013,-0.01103 -0.02136,-0.0093 -0.02784,-0.01834 -0.01611,-0.02242 -0.02957,-0.04729 -0.03817,-0.07353 -0.06756,-0.206032 -0.101816,-0.427943 -0.138089,-0.640688 -0.08434,-0.591381 -0.03656,-1.174457 0.09146,-1.754296 0.187811,-0.618971 0.560954,-1.149645 0.889102,-1.698598 0.226773,-0.379392 0.33176,-0.81112 0.435676,-1.236261 0.08381,-0.441458 0.198574,-0.877312 0.269809,-1.321051 0.0032,-0.04213 0.0071,-0.08422 0.0097,-0.126397 0.0139,-0.225058 0.0014,-0.01733 -0.06149,-0.0039 -0.02474,0.0053 -0.04972,-0.0093 -0.07458,-0.01396 -0.456593,-0.266929 -0.842562,-0.635167 -1.243091,-0.976597 -0.3532,-0.307659 -0.717525,-0.602521 -1.07819,-0.901459 -0.361493,-0.320464 -0.758985,-0.593352 -1.15084,-0.874336 -0.459684,-0.29922 -0.884536,-0.643722 -1.285643,-1.016611 -0.310428,-0.321432 -0.533718,-0.7048 -0.674554,-1.127034 -0.129438,-0.308468 -0.149212,-0.644337 -0.125131,-0.973937 0.0093,-0.438808 0.119044,-0.762915 0.327586,-1.155927 0.409243,-0.584641 1.040295,-0.851944 1.699399,-1.050557 0.52411,-0.132838 1.043022,-0.274386 1.535222,-0.499866 0.549843,-0.282326 1.063181,-0.631936 1.522087,-1.045324 0.43681,-0.398101 0.668023,-0.936081 0.881534,-1.473907 0.148499,-0.420179 0.263183,-0.856044 0.268994,-1.303481 -0.03447,-0.619531 -0.07629,-1.237218 -0.08271,-1.858665 -0.01048,-0.63047 0.04408,-1.282428 -0.179174,-1.883119 -0.298609,-0.551196 -0.673464,-1.060051 -1.004926,-1.593766 -0.421283,-0.747739 -0.78973,-1.522847 -1.215111,-2.268547 -0.357956,-0.618674 -0.783803,-1.193636 -1.158155,-1.801666 -0.179712,-0.292427 -0.338668,-0.605639 -0.405628,-0.945201 -0.0199,-0.100936 -0.139008,-0.258345 -0.04731,-0.304992 0.806217,-0.410136 1.691642,-0.641193 2.537465,-0.96179 0.08555,0.122191 0.108967,0.257251 0.132575,0.400464 0.01981,0.120174 0.169947,0.410431 0.0588,0.360621 -2.129188,-0.954228 -2.16099,-0.856816 -1.344783,-1.166044 0.997517,-0.29021 2.102927,-0.300569 3.113111,-0.05478 0.195351,0.04753 0.385196,0.115366 0.577795,0.173049 0.983649,0.331091 1.787327,0.967669 2.550212,1.647792 0.509687,0.435925 1.017167,0.874356 1.526586,1.310558 0.416565,0.341016 0.76346,0.759963 1.179304,1.100856 0.355792,0.272099 0.737643,0.505702 1.094801,0.776108 0.425037,0.311506 0.73338,0.73696 1.049881,1.15004 0.0782,0.09047 0.09629,0.09917 0.203384,0.0658 0.31826,0.0054 0.633647,0.0613 0.948249,0.107149 0.349071,0.06682 0.692216,0.121947 1.047314,0.09021 -1.123906,0.01749 -0.154997,-0.01583 0.08724,-0.06256 0.154007,-0.0297 0.196771,-0.05424 0.348594,-0.112123 0.539421,-0.264492 1.066164,-0.553317 1.607999,-0.813576 0.498187,-0.242452 1.02646,-0.40166 1.555476,-0.558956 0.362054,-0.09611 0.708108,-0.240572 1.054599,-0.380526 0.109115,-0.04407 0.212911,-0.106421 0.328173,-0.130157 0.141307,-0.0291 0.288009,-0.01759 0.432014,-0.02639 0.188283,0.09755 0.376566,0.195096 0.564849,0.292643 1.040025,-0.637453 1.94152,0.833363 0.901496,1.470817 v 0 c -0.0089,0.170748 -0.01787,0.341494 -0.0268,0.512241 -0.08737,0.08155 -0.160594,0.18159 -0.262124,0.24465 -0.117673,0.07309 -0.255093,0.10829 -0.384729,0.157107 -0.467489,0.176042 -0.949054,0.310758 -1.439905,0.403102 -0.320274,0.0467 -0.675799,0.01594 -0.948336,0.208439 -0.611855,0.413636 -1.207934,0.861961 -1.915095,1.105503 -0.375842,0.126042 -0.462175,0.171072 -0.846277,0.239191 -0.578403,0.10258 -1.178292,0.01833 -1.758544,0.05929 -0.489077,-0.03608 -0.976206,-0.09972 -1.455603,-0.204578 -0.394086,-0.100047 -0.785541,-0.212662 -1.157457,-0.379631 -0.39488,-0.191551 -0.763839,-0.425729 -1.068788,-0.746084 -0.271244,-0.269338 -0.540105,-0.541211 -0.846867,-0.771188 -0.36727,-0.286894 -0.747774,-0.555532 -1.122221,-0.83287 -0.436673,-0.350521 -0.86748,-0.70794 -1.296221,-1.068118 -0.496102,-0.416885 -1.004419,-0.818956 -1.519654,-1.211933 -0.5643,-0.389616 -1.151582,-0.741044 -1.831338,-0.887262 -0.384951,-0.08288 -0.362176,-0.08518 -0.75202,-0.140344 -0.123353,-0.01745 -0.403271,0.07411 -0.370881,-0.04618 0.0349,-0.129615 0.31911,0.05119 0.398645,-0.05694 0.116135,-0.157885 -0.63237,0.06555 -0.582197,-0.08233 -1.122669,-0.288021 3.142628,0.819582 -2.0855,-1.040086 -0.106298,-0.03781 0.04307,0.221815 0.05438,0.33407 0.0078,0.07717 -0.02671,0.101088 -0.08752,0.07623 0.802784,-0.372132 1.631887,-0.692075 2.40835,-1.116393 0.05579,-0.03048 -0.02899,-0.127251 -0.01801,-0.189869 0.02671,-0.152275 0.493534,0.558416 0.486851,0.460745 0.520655,0.622425 0.984247,1.289388 1.407172,1.981847 0.420507,0.733115 0.748821,1.506384 1.125079,2.26179 0.413916,0.735111 0.931629,1.419873 1.171385,2.241275 0.223266,0.881176 0.325023,1.766988 0.220681,2.675714 -0.04006,0.614286 -0.112486,1.226586 -0.1313,1.842025 -0.02015,0.732112 -0.06935,1.464628 -0.346141,2.15348 -0.3486,0.879593 -0.820537,1.701846 -1.502604,2.369026 -0.632241,0.574805 -1.312111,1.083411 -2.08951,1.449154 -0.624413,0.293304 -1.261355,0.541141 -1.94766,0.644556 -0.126245,0.02372 -0.541571,0.123963 -0.672161,0.0747 -0.0453,-0.01709 -0.03368,-0.09491 -0.03472,-0.121929 0.03484,-0.419025 -0.03996,-0.02062 -0.05598,0.107408 -0.01812,-0.174223 -0.03645,-0.267831 0.0653,-0.0285 0.103854,0.202398 -0.07036,-0.10006 0.218692,0.08819 0.481019,0.291034 0.951807,0.599154 1.363291,0.98592 0.358316,0.309595 0.701756,0.636857 1.076275,0.927055 0.424257,0.310684 0.854339,0.615361 1.245597,0.967892 0.452939,0.429977 0.918504,0.858405 1.274755,1.374935 0.32217,0.537535 0.508161,1.110749 0.433951,1.744613 -0.05123,0.52312 -0.160171,1.035164 -0.267262,1.549383 -0.139049,0.608814 -0.294131,1.218543 -0.561279,1.785874 -0.222664,0.432611 -0.466634,0.878787 -0.823151,1.216819 -0.154016,0.271562 0.06547,0.658543 0.04704,0.95028 0.02926,0.361342 0.08946,0.893961 -0.02171,1.243269 -0.0058,0.01817 -0.0155,-0.03484 -0.02325,-0.05226 -0.0931,-0.329516 -0.121254,-0.682549 -0.509999,-0.846083 -0.266072,-0.111928 -0.570646,-0.09464 -0.858847,-0.110809 -0.04343,-0.0024 -0.222397,0.136976 0.0021,-0.0031 0.550943,-0.388629 1.072984,-0.823841 1.671259,-1.140428 0.573068,-0.265736 1.165503,-0.448063 1.78563,-0.569537 0.495863,-0.150994 0.725956,-0.33832 1.09321,-0.717768 0.829239,-0.684753 1.443316,-0.967513 2.563321,-0.901878 0.367473,-0.0046 0.582672,-0.0075 0.568764,-0.0059 -0.113658,0.01371 -0.237269,-0.03432 -0.343335,0.0088 -0.08482,0.03445 0.182705,0.01198 0.273949,0.01942 0.08216,0.0067 0.164075,0.01606 0.246212,0.02295 0.0702,0.0059 0.14051,0.01027 0.210765,0.01539 0.620345,0.02539 1.245694,-0.147181 1.862988,-0.0015 0.459241,0.107811 0.908559,0.253365 1.343892,0.435794 0.603897,0.24445 1.199513,0.512208 1.741405,0.878763 0.708851,0.494836 1.354779,1.065649 1.823093,1.802091 0.352878,0.561221 0.659953,1.148228 1.024081,1.702099 0.260584,0.377118 0.51817,0.762451 0.84412,1.087281 -0.137993,0.115241 -0.70547,0.02711 -0.533471,0.07944 0.242527,0.0738 0.508911,-0.01519 0.760319,0.01735 0.186497,0.02414 0.392959,0.189517 0.539661,0.289147 0.685453,0.610215 -0.06844,-0.03819 -1.127691,0.105538 -0.225652,0.03062 -0.362333,0.670246 -0.397458,0.309011 0.0212,-0.655878 0.183667,-1.298539 0.301244,-1.941355 0.155628,-0.777789 0.291188,-1.563502 0.543103,-2.317465 0.31863,-0.833923 0.719633,-1.627841 1.266878,-2.338298 0.568915,-0.751687 1.170596,-1.4768 1.844387,-2.137952 0.364581,-0.364349 0.664186,-0.776568 0.989702,-1.175002 0.577707,-0.57865 1.262111,-1.00511 2.043631,-1.259663 1.203812,-0.357211 2.331168,-0.467952 3.586399,-0.25542 0.269111,0.04852 0.393986,0.0675 0.651088,0.126009 0.0698,0.01588 0.275025,0.02673 0.208242,0.05251 -1.113178,0.429725 -0.378387,-0.163232 -0.403717,0.09689 -0.05246,0.538764 -0.126234,1.075242 -0.189351,1.612862 0.133701,0.122967 0.234215,0.228623 -0.0036,0.136533 -0.376419,-0.172918 -0.661458,-0.454076 -0.88544,-0.800582 -0.218737,-0.31663 -0.45202,-0.621464 -0.707837,-0.909393 -0.401436,-0.503497 -0.742817,-1.046438 -0.987407,-1.644706 -0.218189,-0.536185 -0.384363,-1.088762 -0.557606,-1.640643 -0.196956,-0.536056 -0.442562,-1.058902 -0.554457,-1.621892 -0.09503,-0.67646 -0.123548,-1.361712 -0.04486,-2.042058 0.07796,-0.658681 0.215905,-1.305906 0.329333,-1.958759 0.07959,-0.677179 0.09728,-1.361563 0.48534,-1.955771 0.568395,-0.843143 1.307559,-1.534959 2.142939,-2.114021 0.57557,-0.416464 1.176731,-0.79525 1.747436,-1.218334 0.199156,-0.174685 0.380721,-0.385418 0.611001,-0.521029 0.07135,-0.04202 0.23899,-0.168342 0.233154,-0.08574 -0.118991,1.683809 -0.525742,0.737839 -0.215571,1.376764 0.0035,0.01673 0.01783,0.03474 0.01049,0.05017 -0.01716,0.03608 -0.495565,0.01719 -0.544658,0.02921 -0.68301,0.01959 -0.289393,0.0043 -1.134059,-0.0031 -0.660389,0.0032 -1.338838,0.06919 -1.984405,-0.09155 -0.383432,-0.12425 -0.721873,-0.313481 -1.021396,-0.585606 -0.276057,-0.183804 -0.585642,-0.307848 -0.873002,-0.472681 -0.523038,-0.307933 -1.001203,-0.67663 -1.323918,-1.202604 -0.326017,-0.576943 -0.533038,-1.187391 -0.612496,-1.847787 -0.12343,-0.498975 -0.385933,-0.922222 -0.675505,-1.344288 -0.386844,-0.61277 -0.822398,-1.222272 -0.94709,-1.951755 -0.0034,-0.301644 -0.03111,-0.3332 0.06195,-0.608627 0.01164,-0.03445 0.03692,-0.122087 0.05794,-0.09242 0.05861,0.0827 0.0024,0.231823 0.08373,0.292314 0.170067,0.126503 0.540657,0.250773 0.809974,0.342649 -0.244114,0.303025 -0.537271,0.554735 -0.831391,0.808796 -0.628454,0.542859 -1.274592,1.065194 -1.908866,1.601143 -1.165365,0.977372 -2.275137,2.02686 -3.496296,2.933695 -0.314152,0.755597 -1.382728,0.31132 -1.068576,-0.444277 z"
       inkscape:connector-curvature="0" />
    <path
       style="fill:#4d4d4d;fill-opacity:1;stroke:none;stroke-width:1.32047188;stroke-opacity:1"
       d="m 539.46642,392.2527 c -4.38125,5.35367 -14.08878,8.74091 -14.60864,15.89586 0.55197,6.12331 12.07038,-0.60578 10.17526,6.54443 -1.53237,7.34721 -8.20795,10.78642 -15.19317,11.14406 -13.69315,3.29911 -25.08276,14.97592 -40.14286,12.44648 -12.54125,-0.37648 -24.76797,-5.01834 -33.36203,-14.357 -11.3735,-8.94202 -22.31759,-18.63028 -34.47979,-26.45642 -7.39623,-1.01834 -5.44299,7.71452 -2.48246,11.31352 4.57979,10.95936 14.502,20.43008 11.99595,33.10528 -1.01269,17.5148 3.42065,38.86759 -11.09703,52.25419 -8.42012,9.88617 -20.19287,16.21051 -32.96021,18.32929 -7.29733,4.39136 1.70546,9.161 5.661,11.91261 10.61344,9.42969 23.62992,17.10562 30.2058,29.94273 2.41947,13.69313 -3.8262,26.16362 -8.24263,38.58512 -0.65417,7.62015 8.13188,4.98273 12.11199,3.28974 11.50993,-2.32486 18.86805,-14.53573 31.5229,-13.15717 18.8756,-1.90327 39.09513,3.31941 51.67635,18.04301 5.87944,6.22541 8.79671,14.93625 15.11838,20.51374 7.80658,-1.1311 5.67955,-11.78567 8.41284,-17.62263 6.34315,-20.57958 22.07288,-36.75427 37.57156,-50.91554 6.86325,-4.51177 15.53274,-4.20124 22.7214,-7.38124 3.46369,-5.62851 -3.77579,-10.61848 -4.53529,-16.25469 -5.39425,-13.18217 -9.6082,-27.46612 -6.05831,-41.72333 1.41483,-11.68651 3.39958,-24.52076 13.92057,-31.74958 6.82284,-2.78117 11.6336,-13.78298 0.66111,-13.33618 -14.37447,-3.16092 -30.52392,-12.91601 -32.38854,-29.22841 -3.28847,-7.69147 -6.91061,-16.07885 -13.17635,-21.63047 -1.00926,0.1642 -2.01854,0.3284 -3.0278,0.4926 z m -93.47755,134.24196 c 6.06348,7.27016 -5.24289,1.00431 0,0 z"
       id="path923"
       inkscape:connector-curvature="0"
       transform="scale(0.13229167)" />
  </g>
</svg>
