<?xml version="1.0" encoding="UTF-8" standalone="no"?>
<!-- Created with Inkscape (http://www.inkscape.org/) -->

<svg
   xmlns:dc="http://purl.org/dc/elements/1.1/"
   xmlns:cc="http://creativecommons.org/ns#"
   xmlns:rdf="http://www.w3.org/1999/02/22-rdf-syntax-ns#"
   xmlns:svg="http://www.w3.org/2000/svg"
   xmlns="http://www.w3.org/2000/svg"
   xmlns:sodipodi="http://sodipodi.sourceforge.net/DTD/sodipodi-0.dtd"
   xmlns:inkscape="http://www.inkscape.org/namespaces/inkscape"
   width="2048"
   height="2048"
   viewBox="0 0 135.46667 135.46667"
   version="1.1"
   id="svg8"
   inkscape:version="0.92.4 (5da689c313, 2019-01-14)"
   sodipodi:docname="ash.svg"
   inkscape:export-filename="C:\Users\panu-\PycharmProjects\nextgame\data\images\ash.png"
   inkscape:export-xdpi="10.173375"
   inkscape:export-ydpi="10.173375">
  <defs
     id="defs2" />
  <sodipodi:namedview
     id="base"
     pagecolor="#ffffff"
     bordercolor="#666666"
     borderopacity="1.0"
     inkscape:pageopacity="0.0"
     inkscape:pageshadow="2"
     inkscape:zoom="0.37865251"
     inkscape:cx="818.5339"
     inkscape:cy="994.41379"
     inkscape:document-units="mm"
     inkscape:current-layer="layer1"
     showgrid="false"
     units="px"
     width="1024px"
     inkscape:window-width="1920"
     inkscape:window-height="1017"
     inkscape:window-x="-8"
     inkscape:window-y="-8"
     inkscape:window-maximized="1"
     inkscape:pagecheckerboard="true"
     showguides="false" />
  <metadata
     id="metadata5">
    <rdf:RDF>
      <cc:Work
         rdf:about="">
        <dc:format>image/svg+xml</dc:format>
        <dc:type
           rdf:resource="http://purl.org/dc/dcmitype/StillImage" />
        <dc:title></dc:title>
      </cc:Work>
    </rdf:RDF>
  </metadata>
  <g
     inkscape:groupmode="layer"
     id="layer3"
     inkscape:label="lines 1"
     style="display:inline;opacity:0.5"
     transform="translate(0,-12.7)"
     sodipodi:insensitive="true">
    <path
       style="fill:#000000;fill-opacity:1;stroke:none;stroke-width:0.06614583;stroke-opacity:1"
       id="path851"
       d="m 35.683657,129.9434 c -0.0076,-0.21172 -0.0385,-0.42388 -0.02276,-0.63514 0.100683,-1.351 0.621569,-2.71813 1.334066,-3.85759 0.202752,-0.32425 0.439596,-0.62589 0.659394,-0.93884 1.152849,-1.46484 2.454857,-2.8159 3.886407,-4.01119 0.318728,-0.26613 0.65067,-0.51601 0.976005,-0.77402 2.214709,-1.70658 4.778386,-2.85777 7.368309,-3.86507 2.546205,-0.98642 5.196045,-1.63356 7.879584,-2.10677 2.907503,-0.42908 5.854465,-0.38209 8.771759,-0.0957 2.185028,0.22584 4.281236,0.8905 6.362429,1.5581 2.217711,0.64923 4.336739,1.55843 6.408426,2.57198 1.867654,0.91435 3.711654,1.87314 5.481988,2.96498 1.054265,0.66491 2.027224,1.44801 2.866151,2.37143 0.474848,0.52268 0.595511,0.7114 1.010874,1.268 0.731507,1.12634 1.484749,2.23203 2.325271,3.28017 0.622227,0.82845 1.428518,1.46896 2.23477,2.10585 0.257704,0.28615 0.674608,0.44833 0.892836,0.77241 -0.487085,-0.0251 0.06354,-0.005 -0.973574,0.98541 -0.0091,0.009 -0.04303,-0.0873 -0.0228,-0.10044 0.370906,-0.24086 0.739887,-0.48669 1.129056,-0.69677 0.0226,-0.0122 0.02081,0.047 0.03121,0.0705 -0.0383,0.40416 -1.176952,0.61779 -1.392363,0.69472 -0.01365,0.005 -0.446749,-0.47589 -0.46476,-0.49648 -0.676811,-0.74662 -1.181358,-1.61533 -1.664143,-2.4935 -0.669502,-1.19442 -1.090117,-2.48933 -1.450155,-3.80314 -0.518101,-1.76446 -0.645034,-3.59102 -0.628425,-5.41924 0.02614,-1.17133 0.19046,-2.34094 0.564468,-3.45437 0.226801,-0.67521 0.363154,-0.91204 0.66808,-1.55222 0.901872,-1.72325 2.058888,-3.29143 3.288003,-4.79194 1.440769,-1.76084 3.215051,-3.17252 5.062266,-4.47812 1.877111,-1.31012 3.933021,-2.31869 5.998241,-3.29017 1.68687,-0.74579 3.33264,-1.59758 5.07454,-2.213149 0.35587,-0.125763 0.71814,-0.232661 1.07721,-0.348992 1.83042,-0.559574 3.73129,-0.810934 5.62481,-1.044423 0.85031,-0.04812 1.84826,-0.346895 2.6653,0.0522 0.22962,0.112163 0.41891,0.292821 0.62837,0.439234 0.0502,-0.02162 0.35593,0.688116 0.30574,0.709732 v 0 c -0.0534,0.19562 -0.0593,0.41101 -0.16033,0.586859 -0.39061,0.680079 -1.64649,0.783939 -2.30768,0.978269 -1.70214,0.35353 -3.40874,0.69944 -5.06053,1.25248 -1.99582,0.66679 -3.96327,1.40798 -5.83351,2.38172 -1.92835,0.92938 -3.85901,1.86351 -5.68765,2.98086 -0.718999,0.46583 -0.9847,0.61816 -1.663879,1.13639 -1.072991,0.81872 -2.050673,1.75573 -2.961494,2.74978 -1.184924,1.2825 -2.421262,2.53842 -3.40866,3.98426 -0.244224,0.45753 -0.357638,0.62155 -0.519503,1.11224 -0.298245,0.90412 -0.280644,1.86243 -0.25613,2.80209 0.02574,1.63344 0.04116,3.27369 0.254767,4.89569 0.216502,1.15916 0.559243,2.27887 1.061674,3.349 0.401862,0.84164 0.839549,1.66783 1.188402,2.53356 0.01779,0.0434 0.253451,0.62608 0.244105,0.63418 -1.209212,1.04744 -0.816637,1.10029 -1.345803,0.81145 -0.419894,-0.34075 0.521017,-1.0583 0.981802,-0.91791 0.555639,0.16929 -0.353701,1.34822 -0.837875,1.12681 -0.482581,-0.10204 -0.941884,-0.27593 -1.389242,-0.48468 -0.345955,-0.17903 -0.581812,-0.28997 -0.911707,-0.50997 -0.751457,-0.50115 -1.392059,-1.14823 -1.96678,-1.84039 -0.812807,-1.0526 -1.45974,-2.21652 -2.302418,-3.24608 -1.067858,-1.16581 -2.230311,-2.13264 -3.625479,-2.89405 -1.772999,-0.9707 -3.594113,-1.85149 -5.42671,-2.70353 -2.022528,-0.89925 -4.084465,-1.7049 -6.137413,-2.53146 -0.753388,-0.27095 -1.110748,-0.41749 -1.879633,-0.62407 -1.297332,-0.34855 -2.637036,-0.49071 -3.977799,-0.51349 -2.277785,-0.0132 -4.559075,0.0321 -6.826377,0.27121 -0.997874,0.10592 -1.591842,0.15041 -2.576239,0.32741 -1.645646,0.29589 -3.236808,0.82044 -4.785522,1.44287 -2.42423,0.9965 -4.850194,2.00056 -7.162603,3.24145 -0.32623,0.19671 -0.659013,0.38295 -0.978693,0.59014 -1.435123,0.93013 -2.703219,2.10064 -3.803408,3.40612 -0.63553,0.81402 -1.238931,1.64709 -1.846879,2.4818 -0.36029,0.49469 -0.698179,1.00656 -1.081872,1.48332 -0.137239,0.17053 -0.295004,0.32346 -0.442505,0.48519 -0.0111,0.037 -0.534114,-0.11998 -0.523014,-0.15697 z"
       inkscape:connector-curvature="0" />
    <path
       style="fill:#000000;fill-opacity:1;stroke:none;stroke-width:0.06614583;stroke-opacity:1"
       id="path853"
       d="m 118.17525,98.166392 c -0.17572,-0.01544 -0.35384,-0.01353 -0.52715,-0.04634 -1.07996,-0.204496 -2.18174,-0.980321 -3.05021,-1.62476 -1.26394,-0.966781 -2.53728,-1.92188 -3.8242,-2.858293 -1.25941,-0.936777 -2.45142,-1.9727 -3.51242,-3.131529 -0.74692,-0.81579 -0.93875,-1.103167 -1.61134,-1.976583 -1.45862,-1.975538 -2.5461,-4.181918 -3.52136,-6.425677 -0.82974,-2.094362 -1.45699,-4.267914 -1.85293,-6.486147 -0.0862,-0.482762 -0.15066,-0.969142 -0.22599,-1.453713 -0.412877,-2.75147 -0.334467,-5.524076 -0.163646,-8.289098 0.127646,-1.681176 0.354956,-3.359824 0.770716,-4.995924 0.30091,-1.184132 0.43352,-1.486608 0.83602,-2.649791 0.86426,-2.250826 2.09781,-4.340322 3.63936,-6.193338 0.28137,-0.338224 0.5837,-0.658452 0.87556,-0.987678 1.10878,-1.178695 2.36379,-2.212997 3.76187,-3.031004 0.83883,-0.490794 1.08598,-0.574835 1.96189,-0.969629 1.59489,-0.657803 3.26104,-1.115445 4.92552,-1.557805 0.88513,-0.225709 1.7719,-0.476942 2.68732,-0.534742 0.0748,-0.0022 0.14966,-0.0073 0.22454,-0.0065 0.0721,7.68e-4 0.26441,0.01977 0.26659,0.02475 0.62225,1.412559 1.3026,1.779171 0.52262,1.77855 -0.0552,0.005 -0.11047,0.0099 -0.16571,0.01488 -0.11958,0.03578 -0.62562,-1.65541 -0.50604,-1.691193 v 0 c -0.05,0.0047 -0.0999,0.0094 -0.14986,0.01414 0.0296,-0.374453 1.52763,1.502694 0.74331,1.788499 -0.71076,0.391609 -1.44753,0.737262 -2.18806,1.067934 -1.48409,0.628785 -3.00754,1.156721 -4.49115,1.786683 -0.64216,0.291585 -0.99211,0.430955 -1.60395,0.787713 -1.13435,0.661427 -2.11197,1.537505 -2.95066,2.544886 -1.53925,1.959622 -2.90526,4.048389 -3.94404,6.32049 -0.40124,0.922062 -0.58711,1.28558 -0.89341,2.233761 -0.45614,1.412004 -0.66705,2.881802 -0.67957,4.364109 -0.0211,2.583152 0.0363,5.170448 0.33541,7.73899 0.29387,2.469896 0.68451,4.938466 1.53895,7.286438 0.28523,0.768502 0.46594,1.299488 0.80667,2.043985 0.60512,1.322216 1.36989,2.567537 2.2549,3.720148 1.38224,1.734641 2.85089,3.400669 4.43459,4.955182 1.09682,1.069188 2.21803,2.119538 3.40238,3.090631 0.33449,0.255885 0.66123,0.521858 0.99722,0.775785 0.57107,0.431588 1.22762,0.763362 1.67867,1.335716 0.0874,0.05674 -0.71498,1.29325 -0.80241,1.23651 z"
       inkscape:connector-curvature="0" />
    <path
       style="fill:#000000;fill-opacity:1;stroke:none;stroke-width:0.06614583;stroke-opacity:1"
       id="path855"
       d="m 113.71003,47.539794 c -0.11629,0.125147 -0.22178,0.261278 -0.34888,0.37544 -1.19256,1.0712 -2.89578,1.770404 -4.35196,2.389423 -2.37929,0.976047 -4.8715,1.613969 -7.37508,2.174113 -3.082512,0.649113 -6.208914,1.055664 -9.344147,1.33863 -2.455505,0.182768 -4.926608,0.223666 -7.385844,0.07594 -0.906813,-0.05447 -1.726975,-0.217554 -2.618865,-0.368901 -1.96803,-0.378061 -3.849019,-1.107233 -5.53587,-2.192663 C 76.421796,51.120987 76.111083,50.885072 75.791936,50.66172 74.215628,49.441853 72.746741,48.074005 71.516097,46.501101 71.284686,46.205326 71.072808,45.894773 70.85116,45.59161 70.110327,44.523212 69.515543,43.362123 69.093242,42.132619 68.979491,41.801454 68.791379,41.139549 68.689025,40.786751 68.469163,39.77902 67.910918,38.92702 67.403619,38.048491 66.848114,37.11694 66.476275,36.097457 66.179802,35.058849 65.970777,34.286752 65.8811,33.497109 65.878518,32.699418 c 0.02593,-0.711561 0.08205,-1.425836 0.199952,-2.128415 0.127606,-0.429914 0.398413,-1.049422 0.840737,-1.252571 0.123369,-0.05666 0.264491,-0.06134 0.396743,-0.09201 0.02746,-0.0536 0.785495,0.334844 0.758031,0.388445 v 0 c 0.05575,0.09033 0.128991,0.171969 0.167263,0.270978 0.09662,0.249968 0.02846,0.726385 0.0038,0.986977 -0.09575,0.583853 -0.08704,1.174327 -0.08785,1.764552 0.04469,0.601492 0.183971,1.188215 0.409892,1.748543 0.360727,0.889873 0.802488,1.741182 1.240274,2.595099 0.50249,0.987616 1.010034,1.972803 1.496451,2.968474 0.671453,1.358392 1.40034,2.687066 2.42142,3.822064 1.372261,1.572335 2.765888,3.153276 4.386851,4.475038 0.595689,0.419457 0.92194,0.679148 1.567074,1.016322 1.163856,0.608283 2.442924,0.942648 3.745336,1.071189 0.381952,0.01635 0.76358,0.04481 1.145857,0.04904 2.434557,0.02699 0.47029,0.0069 1.719024,-0.07539 1.595272,-0.105152 3.195314,-0.124761 4.789984,-0.241876 3.087422,-0.168869 6.186004,-0.223931 9.259113,-0.585221 0.4138,-0.06274 0.82947,-0.114134 1.24138,-0.188236 1.98262,-0.356672 3.89969,-0.987881 5.80917,-1.615022 1.05673,-0.343427 2.1107,-0.697595 3.17998,-1.000734 0.35434,-0.100453 1.18821,-0.325085 1.58273,-0.396488 0.17751,-0.03213 0.35837,-0.04176 0.53756,-0.06264 0.0935,-0.07218 1.11429,1.250083 1.02079,1.322264 z"
       inkscape:connector-curvature="0" />
    <path
       style="fill:#000000;fill-opacity:1;stroke:none;stroke-width:0.06614583;stroke-opacity:1"
       id="path857"
       d="m 65.763493,28.399434 c 0.358423,0.664616 0.494434,1.394258 0.636912,2.126056 0.214617,1.102298 0.365688,2.196568 0.491345,3.312479 0.216594,2.115471 0.225458,4.273062 -0.32893,6.341854 -0.111753,0.41705 -0.265265,0.821778 -0.397894,1.232667 -0.893626,2.270651 -2.242636,4.410659 -3.761559,6.315235 -0.372507,0.467086 -0.77091,0.912919 -1.156365,1.369378 -1.769573,1.974391 -3.810567,3.69811 -6.170745,4.927987 -1.555122,0.810367 -1.916265,0.846424 -3.560238,1.363493 -1.933334,0.438804 -3.880794,0.484878 -5.845532,0.1932 -0.468913,-0.06961 -0.918864,-0.23595 -1.370098,-0.381252 -1.01826,-0.32789 -1.36982,-0.519063 -2.322125,-0.95193 -0.317604,-0.159544 -0.634068,-0.321379 -0.952814,-0.478632 -0.62002,-0.305886 -1.030328,-0.514511 -1.674745,-0.749089 -0.808632,-0.294354 -1.655367,-0.474708 -2.489086,-0.68032 -1.743132,-0.410068 -3.342008,-1.209938 -4.847865,-2.158284 -1.040624,-0.662845 -2.032818,-1.396583 -3.09397,-2.02697 -0.727942,-0.364372 -1.4832,-0.673625 -2.179814,-1.097036 -0.686465,-0.41436 -0.711128,-0.599478 -0.721721,-1.38601 -0.01107,-0.09736 1.365854,-0.253955 1.376926,-0.156591 v 0 c 1.33e-4,-0.03847 -0.03639,-0.448379 0.04514,-0.571162 0.132496,-0.199542 0.560791,0.06041 0.716898,0.07627 0.848248,0.253513 1.681691,0.561969 2.46433,0.979478 1.138812,0.56672 2.254643,1.176124 3.351722,1.820089 0.399198,0.209245 0.868779,0.4638 1.281133,0.645789 0.979472,0.432285 2.020074,0.677371 3.060218,0.913507 0.780987,0.195975 1.088367,0.26213 1.864757,0.502294 1.274957,0.394389 2.506146,0.909525 3.750196,1.388949 0.635926,0.231478 1.238175,0.475822 1.903545,0.61678 0.341284,0.0723 0.691657,0.09246 1.036002,0.148393 0.05745,0.0093 0.109908,0.04708 0.168111,0.0472 1.282043,0.0026 1.136838,-0.03734 2.431422,-0.294933 0.452687,-0.155794 0.91488,-0.286307 1.35806,-0.467383 2.646335,-1.081241 4.956349,-2.849607 7.127376,-4.672644 1.981901,-1.825787 3.995482,-3.716441 5.32917,-6.087614 0.337085,-0.843076 0.462539,-1.036099 0.628153,-1.937781 0.281109,-1.53049 0.125627,-3.095021 0.142217,-4.638726 -0.01074,-1.124244 -0.02617,-2.240568 0.05677,-3.362762 0.05268,-0.712762 0.06199,-1.029737 0.265248,-1.69728 0.05774,-0.189636 0.148242,-0.367706 0.222363,-0.551559 0.0019,-0.08241 1.16739,-0.05556 1.165491,0.02686 z"
       inkscape:connector-curvature="0" />
    <path
       style="fill:#000000;fill-opacity:1;stroke:none;stroke-width:0.06614583;stroke-opacity:1"
       id="path859"
       d="m 29.485693,48.302797 c 1.894076,0.489555 3.547685,1.623911 5.129654,2.733262 2.075874,1.522269 3.843163,3.402871 5.556847,5.310271 1.718956,2.012251 3.164608,4.268751 4.086285,6.760425 0.185818,0.502344 0.317597,1.023056 0.476396,1.534584 0.473474,1.779009 0.732066,3.615429 0.683043,5.458675 -0.0204,0.766961 -0.103771,1.342451 -0.192074,2.096526 -0.265858,1.68376 -0.845064,3.303476 -1.651862,4.803118 -0.195563,0.363502 -0.413421,0.714561 -0.620132,1.071842 -1.358753,2.2005 -3.018665,4.204282 -4.841273,6.035444 -0.392127,0.393964 -0.802664,0.76917 -1.203997,1.153755 -1.782934,1.654386 -3.727674,3.129207 -5.833273,4.349181 -0.380012,0.220179 -0.769941,0.422778 -1.154913,0.634166 -2.427883,1.254053 -4.826148,2.559057 -7.210778,3.893093 -2.226731,1.264212 -4.519893,2.402581 -6.884303,3.384199 -1.636946,0.696701 -3.36645,1.044747 -5.131908,1.173572 -0.161644,7.28e-4 -1.3060563,0.07593 -1.3839833,-0.155423 -0.023096,-0.06857 0.062062,-0.14093 0.047488,-0.211798 -0.068714,-0.334149 -0.1951381,-0.653779 -0.2927072,-0.980672 0.00656,0.08764 0.013119,0.175287 0.019679,0.26293 0.013813,0.0077 -0.094726,0.203015 -0.1085387,0.195342 v 0 C 8.8876646,97.863305 8.799987,97.921328 8.7123094,97.979345 8.5445073,97.63032 8.3135221,97.305134 8.2089026,96.932263 c -0.02662,-0.09488 0.083557,-0.17905 0.1359647,-0.2625 0.2588789,-0.412214 0.7980686,-0.515752 1.2177474,-0.677201 1.4225193,-0.409476 2.8960083,-0.681057 4.2340573,-1.340326 2.178675,-1.132198 4.184276,-2.554645 6.321816,-3.76008 1.177128,-0.637262 1.457678,-0.807971 2.66461,-1.386191 1.242771,-0.595392 2.515986,-1.10826 3.783743,-1.645404 0.369759,-0.156667 0.735282,-0.323142 1.102923,-0.484717 0.83671,-0.437865 1.195174,-0.594241 1.976642,-1.12778 1.485866,-1.014452 2.757333,-2.308529 4.044722,-3.553539 2.121288,-2.076456 4.318686,-4.080316 6.336377,-6.258904 0.769961,-0.913967 1.631979,-1.858724 2.076999,-2.988786 0.234509,-0.595504 0.219728,-0.791704 0.303843,-1.428494 0.06092,-2.246123 -0.232448,-4.328515 -0.952855,-6.467838 -0.323022,-0.896043 -0.630021,-1.794461 -1.014128,-2.667348 -0.754588,-1.714812 -1.691488,-3.355389 -2.779431,-4.87932 -0.664727,-0.866807 -0.824658,-1.112533 -1.550376,-1.914958 -1.036959,-1.146566 -2.209051,-2.165308 -3.42939,-3.110822 -0.498522,-0.383431 -1.331496,-1.019216 -1.823768,-1.416981 -0.704916,-0.569586 -1.435329,-1.157939 -2.00065,-1.874048 -0.109585,-0.138813 -0.193708,-0.295955 -0.290562,-0.443933 -0.06649,-0.06495 0.852017,-1.005244 0.918506,-0.940296 z"
       inkscape:connector-curvature="0" />
    <path
       style="fill:#000000;fill-opacity:1;stroke:none;stroke-width:0.06614583;stroke-opacity:1"
       id="path861"
       d="m 20.790916,93.605849 c 1.574842,-0.475715 3.252919,-0.500976 4.88582,-0.531079 1.477636,-0.0047 2.962239,0.05349 4.415514,0.340512 0.946783,0.186982 1.176329,0.280876 2.094475,0.55849 1.341418,0.450334 2.61012,1.09632 3.74524,1.943536 0.680028,0.50755 0.952168,0.793175 1.571005,1.370568 1.241537,1.265204 2.479737,2.566075 3.461314,4.050394 0.203013,0.30699 0.380938,0.62985 0.571407,0.94478 0.704666,1.30703 1.204366,2.71847 1.389694,4.19624 0.113185,0.90251 0.08098,1.36252 0.07537,2.26663 -0.09356,1.54357 -0.439352,3.06895 -0.941684,4.53003 -0.270001,0.78532 -0.547216,1.36983 -0.881829,2.12726 -0.846018,1.79743 -1.768438,3.55723 -2.662548,5.33081 -0.650299,1.18107 -1.046358,2.46858 -1.504153,3.72899 -0.278926,0.79142 -0.727501,1.49123 -1.221606,2.16136 -0.184368,0.27645 -0.172245,0.61821 -0.234479,0.93474 -0.211477,0.50846 -0.598435,0.23268 -1.158031,0.16362 -0.0058,-0.0239 0.331998,-0.10593 0.337799,-0.082 v 0 c -0.459775,0.0377 -0.926656,0.30388 -1.068441,-0.17067 -0.02401,-0.56921 0.08397,-1.12917 0.313223,-1.65229 0.256255,-0.64162 0.457986,-1.29931 0.60446,-1.97573 0.346035,-1.38108 0.688587,-2.76598 1.188382,-4.10163 0.704218,-1.85637 1.514421,-3.66779 2.369469,-5.4595 0.82303,-1.80596 1.704769,-3.61586 1.877658,-5.62387 0.05242,-0.73475 0.103047,-1.07203 0.05248,-1.80375 -0.08122,-1.17531 -0.481679,-2.27019 -1.093534,-3.27171 -1.055602,-1.62206 -2.229591,-3.16871 -3.576403,-4.562379 -0.211835,-0.197346 -0.415358,-0.404013 -0.635507,-0.592039 -1.111928,-0.949695 -2.420593,-1.617854 -3.823027,-2.021482 -0.303046,-0.07065 -0.603945,-0.151243 -0.909137,-0.211958 -1.672873,-0.3328 -3.387666,-0.410799 -5.081654,-0.571718 -0.940392,-0.07672 -1.872673,-0.166522 -2.804862,-0.315377 -0.428728,-0.06846 -0.904283,-0.143828 -1.322216,-0.278533 -0.13498,-0.04351 -0.261441,-0.109994 -0.392161,-0.164995 -0.0889,-0.02531 0.269064,-1.282508 0.357961,-1.2572 z"
       inkscape:connector-curvature="0" />
    <path
       style="fill:#000000;fill-opacity:1;stroke:none;stroke-width:0.06614583;stroke-opacity:1"
       id="path863"
       d="m 36.997275,125.81831 c -0.08105,0.10728 -0.153223,0.2219 -0.243161,0.32185 -0.144155,0.16021 -0.596949,0.56021 -0.747239,0.69769 -0.36288,0.33196 -0.709169,0.67113 -1.043331,1.03178 -0.286857,0.18838 -0.342639,0.641 -0.645052,0.80653 -0.106167,0.0581 -0.253552,0.004 -0.352812,-0.0138 0.0132,0.0281 -0.384623,0.21481 -0.397823,0.18668 v 0 c -0.09337,-0.046 -0.201067,-0.0703 -0.280108,-0.13798 -0.458518,-0.39285 -0.0037,-1.33301 0.17602,-1.73493 0.101559,-0.16269 0.192142,-0.33278 0.304679,-0.48808 0.481065,-0.66388 1.160774,-1.29038 1.938967,-1.58266 0.157127,-0.059 0.326723,-0.0771 0.490085,-0.11559 0.07272,-0.0566 0.872498,0.97192 0.799775,1.02847 z"
       inkscape:connector-curvature="0" />
    <path
       style="fill:#000000;fill-opacity:1;stroke:none;stroke-width:2.64094377;stroke-opacity:1"
       d="m 1013.8513,378.23369 c -10.5988,11.14868 -7.7139,29.9627 -13.92168,43.82316 -24.94604,69.35949 -72.88725,130.13195 -130.7783,174.97285 -61.56552,47.48766 -149.63949,67.16961 -222.13705,32.465 -28.55694,-11.77689 -56.52495,-28.7917 -87.65804,-31.95951 -12.71358,4.96793 2.93178,17.68427 7.18006,23.40743 47.49237,49.60214 93.75673,105.27339 107.85221,174.1777 13.68759,58.76594 11.13333,124.54427 -21.05698,177.81058 -50.2501,87.6299 -128.47091,158.7146 -218.06376,204.2773 -17.42477,10.3607 -36.91841,18.3299 -52.38538,31.4527 -2.60546,12.5433 16.29175,9.7292 23.86052,11.2521 54.93707,0 111.34405,17.3664 151.2877,56.7213 43.7134,40.7805 87.47297,92.8975 87.12118,156.0529 2.11724,43.8913 -10.53406,86.7397 -30.09023,125.4783 -19.45056,44.57 -45.13927,86.9514 -59.32115,133.5457 2.05741,13.0271 17.17381,2.6105 20.56532,-4.4721 38.44552,-44.3475 84.15278,-83.2698 138.30911,-106.659 115.47361,-53.6666 249.60548,-72.4161 372.23897,-31.6707 78.8522,25.9695 157.2688,58.7003 222.417,110.8423 12.2749,8.8956 20.2984,24.731 34.9203,29.6229 10.8902,-5.4755 2.2288,-21.3073 2.7544,-30.8351 -5.2238,-46.5414 -2.6092,-95.7382 24.2161,-135.7817 38.672,-66.6421 98.6918,-119.1844 167.4124,-153.6747 61.5598,-31.2692 124.8196,-63.6098 194.6081,-70.8466 10.6364,-4.3661 30.5557,1.1491 34.4472,-11.2706 -70.4865,-50.9089 -148.2425,-100.8756 -190.8928,-179.7994 -67.0538,-115.93803 -80.0757,-257.02763 -48.8348,-386.35288 11.8638,-45.99779 37.1476,-86.91279 63.6561,-125.66147 1.6734,-13.79099 -16.9199,-5.3945 -24.2276,-4.76608 -92.71,20.88331 -187.8366,34.18934 -282.9111,28.20962 -60.5903,-3.9987 -120.6898,-28.00244 -164.185,-71.43147 -37.7698,-33.64545 -66.4069,-77.14664 -79.1326,-125.91203 -7.0238,-14.47101 -10.6415,-33.987 -24.6712,-43.17324 z M 888.50448,817.12554 c 38.05708,-2.91661 63.89768,28.71601 91.99976,49.41454 19.17771,13.67531 33.54036,34.41057 54.58296,45.42732 26.9385,9.98174 55.4327,-5.29865 70.3892,-27.97404 20.7218,-21.89836 43.6626,-47.07389 74.5738,-52.83266 8.0533,-1.68508 16.2946,2.36151 15.9076,11.18791 10.1029,17.5449 22.2475,34.21097 26.8376,54.42304 6.8041,26.28299 35.1422,47.99601 62.5212,39.67606 15.1641,-0.84816 35.9284,-3.37275 45.9741,9.87259 -2.464,27.38247 -28.2823,43.47733 -47.2438,59.9097 -12.4027,5.6215 -17.2223,18.483 -15.4838,31.3886 -1.4698,20.3217 -8.7403,41.4718 1.5359,60.831 8.4942,25.2278 22.0845,48.3742 37.4696,69.973 0.049,17.5809 -10.1546,22.9165 -26.6983,20.6788 -23.6907,3.094 -56.0644,2.1732 -67.4627,27.9466 -15.1438,27.717 -45.5773,48.8911 -46.6291,82.7358 -3.7286,14.3431 -3.676,34.8647 -17.3467,44.045 -15.1376,6.0736 -31.7754,2.1937 -42.5491,-10.1563 -17.2927,-22.0236 -28.4454,-50.2901 -54.7551,-63.8791 -19.6088,-15.0595 -46.2582,-11.2124 -68.86379,-7.2201 -14.20059,9.4747 -28.13046,19.8588 -44.9889,24.5526 -17.60672,6.0691 -36.17031,26.4179 -55.76928,16.0571 -13.18378,-22.3723 -9.40137,-52.3644 4.1729,-73.8536 4.63617,-13.4847 15.06415,-28.9472 9.90354,-43.2661 -22.48215,-26.8876 -56.04646,-42.3876 -77.85627,-69.691 -10.81263,-16.8639 -3.41273,-42.5246 17.09391,-47.6195 26.55696,-8.9137 58.64926,-20.133 66.92627,-50.3791 5.2095,-25.38494 6.19887,-52.78175 -0.0671,-77.97487 -16.79283,-33.95728 -38.32347,-65.43826 -55.75383,-98.95287 -0.56981,-8.91648 20.22643,-5.38837 18.19776,-17.07845 -8.32689,-8.25261 9.16833,-5.63929 14.35496,-7.03563 3.00759,-0.13387 6.01636,-0.19094 9.02667,-0.20634 z"
       id="path865"
       inkscape:connector-curvature="0"
       transform="matrix(0.06614583,0,0,0.06614583,0,12.7)" />
  </g>
  <g
     inkscape:groupmode="layer"
     id="layer1"
     inkscape:label="lines 2"
     transform="translate(0,67.733334)"
     style="display:inline;opacity:0.7">
    <path
       style="fill:#000000;fill-opacity:1;stroke:none;stroke-width:0.13229167;stroke-opacity:1"
       id="path921"
       d="m 71.623336,-6.9287242 c 0.0331,-0.159957 0.04895,-0.324482 0.09931,-0.479872 0.46253,-1.427096 1.616921,-2.52274 2.66352,-3.5348778 0.994374,-0.822403 2.047574,-1.743279 3.334018,-2.066129 0.12472,-0.0313 0.254208,-0.03894 0.381313,-0.05841 0.462948,-7.94e-4 0.692528,-0.05354 1.123308,0.431741 0.259648,0.292499 -0.172978,0.577432 0.06784,0.70086 0.437601,0.381124 0.761266,0.881371 1.062041,1.372597 0.315032,0.55424 0.4939,1.1662328 0.657887,1.7779248 0.161974,0.521282 0.332606,1.039781 0.580469,1.527125 0.182926,0.340003 0.505998,0.499792 0.832093,0.674837 0.32968,0.173081 0.626953,0.391501 0.922169,0.616062 0.199992,0.168759 0.368769,0.12867 0.60211,0.06793 -0.04652,-0.08768 0.411079,0.02443 0.339478,-0.06591 -0.04748,-0.0599 -0.238747,0.05196 -0.22807,-0.02373 3.97e-4,-0.0025 0.707238,-0.06164 0.76506,-0.06614 0.72743,-0.05051 1.460859,-0.07514 2.187451,-0.0023 0.494145,0.07085 0.922086,0.275246 1.234427,0.664709 0.326362,0.666467 0.113813,0.07102 -0.360311,1.458628 -0.01021,0.0299 0.06094,-0.01916 0.08775,-0.03589 0.05544,-0.03458 0.102662,-0.08115 0.15731,-0.116979 0.0063,-0.0041 0.02514,-0.0082 0.02267,-0.0011 -0.01454,0.04213 -0.04202,0.07861 -0.06303,0.117913 -0.399,0.691786 -0.986534,1.247648 -1.561447,1.791607 -0.667245,0.621762 -1.416275,1.144115 -2.129562,1.70956197 -0.319741,0.228618 -0.23361,0.314698 -0.210672,0.694827 0.06049,0.745367 -0.06636,1.48325803 -0.211844,2.21101703 -0.09777,0.496379 -0.130243,1.003591 -0.07649,1.506796 0.0948,0.420082 0.308363,0.801579 0.463654,1.201415 0.180774,0.526228 0.358525,1.052798 0.582358,1.562594 0.168021,0.456658 0.45475,0.847706 0.740009,1.235958 0.286273,0.366398 0.521296,0.766809 0.718786,1.186754 0.168176,0.329303 0.04729,0.105616 -0.105509,-0.01303 0.01779,-0.102372 0.41645,0.241663 0.45983,0.280684 -0.123458,0.546212 -0.181511,1.1114552 -0.370373,1.6386372 -0.028,0.07817 -0.157439,0.05976 -0.240254,0.06584 -0.551931,0.0405 -1.175493,0.01998 -1.742997,0.04958 -0.03711,0.0016 -0.779157,0.03148 -0.802071,0.03821 -0.08342,0.02451 0.339323,-0.01208 0.259818,0.02312 -0.116018,0.05137 -0.253319,0.01624 -0.379467,0.02985 -0.343832,0.03708 -0.402654,0.05718 -0.739753,0.12578 -0.53489,0.128256 -1.054803,0.313565 -1.558551,0.533329 -0.310446,0.128282 -0.437247,0.504997 -0.587429,0.779527 -0.461454,0.827079 -1.026082,1.587141 -1.612162,2.328564 -0.455647,0.561499 -0.946988,1.095356 -1.28057,1.741192 -0.233679,0.579542 -0.244265,1.222476 -0.318876,1.8366 -0.09992,0.753925 -0.25896,1.504204 -0.615019,2.180856 -0.06048,0.08494 -0.165624,0.236772 -0.233245,0.314261 -0.123929,0.142012 -0.192873,0.404836 -0.380902,0.417908 -0.49242,0.03423 -1.748282,-0.613679 -1.466043,-0.208721 0.02233,0.02266 0.219889,0.231755 0.261103,0.240341 0.184335,0.0384 0.736747,-0.03981 0.563814,0.03468 -0.514248,0.221503 -1.093708,0.01354 -1.560697,-0.184383 -0.799584,-0.412897 -1.316505,-1.123471 -1.770118,-1.874092 -0.277193,-0.588243 -0.6151,-1.136954 -0.997806,-1.661517 -0.358243,-0.472812 -0.83129,-0.822607 -1.320917,-1.146871 -0.444123,-0.278689 -0.908109,-0.525318 -1.371169,-0.770904 -0.246581,-0.09088 -0.512126,-0.289252 -0.786764,-0.245576 -0.231932,0.07623 -0.07681,0.01632 0.4217,0.0354 0.04157,0.0016 -0.08325,8.9e-5 -0.124783,0.0025 -0.05208,0.003 -0.104114,0.0074 -0.155893,0.01371 -0.03643,0.0045 -0.397929,0.06085 -0.414469,0.06341 -0.77768,0.126648 -1.568026,0.100088 -2.35206,0.06177 0.927018,0.0819 0.302373,-0.08235 0.152673,-0.02201 -0.07657,0.03086 -0.157671,0.111575 -0.214254,0.159188 -0.446198,0.445204 -0.941166,0.818245 -1.495711,1.116337 -0.577699,0.302077 -1.212494,0.454686 -1.828759,0.652583 -0.512757,0.204912 -0.923634,0.589134 -1.397367,0.868782 -0.626181,0.301868 -1.275094,0.476846 -1.970939,0.156253 -0.470379,-0.216715 -0.474341,-0.641467 -0.566574,-1.049688 -3.97e-4,-0.07363 0.0077,-0.1478 -0.0012,-0.220899 -0.0013,-0.01103 -0.02136,-0.0093 -0.02784,-0.01834 -0.01611,-0.02242 -0.02957,-0.04729 -0.03817,-0.07353 -0.06756,-0.206032 -0.101816,-0.427943 -0.138089,-0.640688 -0.08434,-0.591381 -0.03656,-1.174457 0.09146,-1.754296 0.187811,-0.618971 0.560954,-1.149645 0.889102,-1.698598 0.226773,-0.379392 0.33176,-0.81112 0.435676,-1.236261 0.08381,-0.441458 0.198574,-0.877312 0.269809,-1.321051 0.0032,-0.04213 0.0071,-0.08422 0.0097,-0.126397 0.0139,-0.225058 0.0014,-0.01733 -0.06149,-0.0039 -0.02474,0.0053 -0.04972,-0.0093 -0.07458,-0.01396 -0.456593,-0.266929 -0.842562,-0.6351672 -1.243091,-0.9765972 -0.3532,-0.307659 -0.717525,-0.602521 -1.07819,-0.901459 -0.361493,-0.320464 -0.758985,-0.593352 -1.15084,-0.874336 -0.459684,-0.29922 -0.884536,-0.643722 -1.285643,-1.016611 -0.310428,-0.321432 -0.533718,-0.7048 -0.674554,-1.127034 -0.129438,-0.308468 -0.149212,-0.644337 -0.125131,-0.973937 0.0093,-0.438808 0.119044,-0.762915 0.327586,-1.155927 0.409243,-0.584641 1.040295,-0.851944 1.699399,-1.050557 0.52411,-0.132838 1.043022,-0.274386 1.535222,-0.499866 0.549843,-0.282326 1.063181,-0.631936 1.522087,-1.045324 0.43681,-0.39810103 0.668023,-0.93608103 0.881534,-1.47390703 0.148499,-0.420179 0.263183,-0.85604397 0.268994,-1.30348097 -0.03447,-0.619531 -0.07629,-1.237218 -0.08271,-1.858665 -0.01048,-0.63047 0.04408,-1.282428 -0.179174,-1.883119 -0.298609,-0.551196 -0.673464,-1.060051 -1.004926,-1.593766 -0.421283,-0.747739 -0.78973,-1.522847 -1.215111,-2.268547 -0.357956,-0.618674 -0.783803,-1.1936358 -1.158155,-1.8016658 -0.179712,-0.292427 -0.338668,-0.605639 -0.405628,-0.945201 -0.0199,-0.100936 -0.139008,-0.258345 -0.04731,-0.304992 0.806217,-0.410136 1.691642,-0.641193 2.537465,-0.96179 0.08555,0.122191 0.108967,0.257251 0.132575,0.400464 0.01981,0.120174 0.169947,0.410431 0.0588,0.360621 -2.129188,-0.954228 -2.16099,-0.856816 -1.344783,-1.166044 0.997517,-0.29021 2.102927,-0.300569 3.113111,-0.05478 0.195351,0.04753 0.385196,0.115366 0.577795,0.173049 0.983649,0.331091 1.787327,0.967669 2.550212,1.647792 0.509687,0.435925 1.017167,0.874356 1.526586,1.310558 0.416565,0.341016 0.76346,0.7599628 1.179304,1.1008558 0.355792,0.272099 0.737643,0.505702 1.094801,0.776108 0.425037,0.311506 0.73338,0.73696 1.049881,1.15004 0.0782,0.09047 0.09629,0.09917 0.203384,0.0658 0.31826,0.0054 0.633647,0.0613 0.948249,0.107149 0.349071,0.06682 0.692216,0.121947 1.047314,0.09021 -1.123906,0.01749 -0.154997,-0.01583 0.08724,-0.06256 0.154007,-0.0297 0.196771,-0.05424 0.348594,-0.112123 0.539421,-0.264492 1.066164,-0.553317 1.607999,-0.813576 0.498187,-0.242452 1.02646,-0.40166 1.555476,-0.558956 0.362054,-0.09611 0.708108,-0.240572 1.054599,-0.380526 0.109115,-0.04407 0.212911,-0.106421 0.328173,-0.130157 0.141307,-0.0291 0.288009,-0.01759 0.432014,-0.02639 0.188283,0.09755 0.376566,0.195096 0.564849,0.292643 1.040025,-0.637453 1.94152,0.833363 0.901496,1.470817 v 0 c -0.0089,0.170748 -0.01787,0.341494 -0.0268,0.512241 -0.08737,0.08155 -0.160594,0.18159 -0.262124,0.24465 -0.117673,0.07309 -0.255093,0.10829 -0.384729,0.157107 -0.467489,0.176042 -0.949054,0.310758 -1.439905,0.403102 -0.320274,0.0467 -0.675799,0.01594 -0.948336,0.208439 -0.611855,0.413636 -1.207934,0.861961 -1.915095,1.105503 -0.375842,0.126042 -0.462175,0.171072 -0.846277,0.239191 -0.578403,0.10258 -1.178292,0.01833 -1.758544,0.05929 -0.489077,-0.03608 -0.976206,-0.09972 -1.455603,-0.204578 -0.394086,-0.100047 -0.785541,-0.212662 -1.157457,-0.379631 -0.39488,-0.191551 -0.763839,-0.425729 -1.068788,-0.746084 -0.271244,-0.269338 -0.540105,-0.541211 -0.846867,-0.771188 -0.36727,-0.286894 -0.747774,-0.555532 -1.122221,-0.83287 -0.436673,-0.350521 -0.86748,-0.70794 -1.296221,-1.068118 -0.496102,-0.416885 -1.004419,-0.818956 -1.519654,-1.2119328 -0.5643,-0.389616 -1.151582,-0.741044 -1.831338,-0.887262 -0.384951,-0.08288 -0.362176,-0.08518 -0.75202,-0.140344 -0.123353,-0.01745 -0.403271,0.07411 -0.370881,-0.04618 0.0349,-0.129615 0.31911,0.05119 0.398645,-0.05694 0.116135,-0.157885 -0.63237,0.06555 -0.582197,-0.08233 -1.122669,-0.288021 3.142628,0.819582 -2.0855,-1.040086 -0.106298,-0.03781 0.04307,0.221815 0.05438,0.33407 0.0078,0.07717 -0.02671,0.101088 -0.08752,0.07623 0.802784,-0.372132 1.631887,-0.692075 2.40835,-1.116393 0.05579,-0.03048 -0.02899,-0.127251 -0.01801,-0.189869 0.02671,-0.152275 0.493534,0.558416 0.486851,0.460745 0.520655,0.622425 0.984247,1.289388 1.407172,1.981847 0.420507,0.7331148 0.748821,1.5063838 1.125079,2.2617898 0.413916,0.735111 0.931629,1.419873 1.171385,2.241275 0.223266,0.881176 0.325023,1.766988 0.220681,2.675714 -0.04006,0.614286 -0.112486,1.226586 -0.1313,1.842025 -0.02015,0.73211197 -0.06935,1.46462797 -0.346141,2.15347997 -0.3486,0.87959303 -0.820537,1.70184603 -1.502604,2.36902603 -0.632241,0.574805 -1.312111,1.083411 -2.08951,1.449154 -0.624413,0.293304 -1.261355,0.541141 -1.94766,0.644556 -0.126245,0.02372 -0.541571,0.123963 -0.672161,0.0747 -0.0453,-0.01709 -0.03368,-0.09491 -0.03472,-0.121929 0.03484,-0.419025 -0.03996,-0.02062 -0.05598,0.107408 -0.01812,-0.174223 -0.03645,-0.267831 0.0653,-0.0285 0.103854,0.202398 -0.07036,-0.10006 0.218692,0.08819 0.481019,0.291034 0.951807,0.599154 1.363291,0.98592 0.358316,0.309595 0.701756,0.636857 1.076275,0.927055 0.424257,0.310684 0.854339,0.615361 1.245597,0.967892 0.452939,0.429977 0.918504,0.858405 1.274755,1.374935 0.32217,0.537535 0.508161,1.1107492 0.433951,1.7446132 -0.05123,0.52312 -0.160171,1.035164 -0.267262,1.549383 -0.139049,0.608814 -0.294131,1.218543 -0.561279,1.785874 -0.222664,0.432611 -0.466634,0.878787 -0.823151,1.216819 -0.154016,0.271562 0.06547,0.658543 0.04704,0.95028 0.02926,0.361342 0.08946,0.893961 -0.02171,1.243269 -0.0058,0.01817 -0.0155,-0.03484 -0.02325,-0.05226 -0.0931,-0.329516 -0.121254,-0.682549 -0.509999,-0.846083 -0.266072,-0.111928 -0.570646,-0.09464 -0.858847,-0.110809 -0.04343,-0.0024 -0.222397,0.136976 0.0021,-0.0031 0.550943,-0.388629 1.072984,-0.823841 1.671259,-1.140428 0.573068,-0.265736 1.165503,-0.448063 1.78563,-0.569537 0.495863,-0.150994 0.725956,-0.33832 1.09321,-0.717768 0.829239,-0.684753 1.443316,-0.967513 2.563321,-0.901878 0.367473,-0.0046 0.582672,-0.0075 0.568764,-0.0059 -0.113658,0.01371 -0.237269,-0.03432 -0.343335,0.0088 -0.08482,0.03445 0.182705,0.01198 0.273949,0.01942 0.08216,0.0067 0.164075,0.01606 0.246212,0.02295 0.0702,0.0059 0.14051,0.01027 0.210765,0.01539 0.620345,0.02539 1.245694,-0.147181 1.862988,-0.0015 0.459241,0.107811 0.908559,0.253365 1.343892,0.435794 0.603897,0.24445 1.199513,0.512208 1.741405,0.878763 0.708851,0.494836 1.354779,1.065649 1.823093,1.802091 0.352878,0.561221 0.659953,1.148228 1.024081,1.702099 0.260584,0.377118 0.51817,0.762451 0.84412,1.087281 -0.137993,0.115241 -0.70547,0.02711 -0.533471,0.07944 0.242527,0.0738 0.508911,-0.01519 0.760319,0.01735 0.186497,0.02414 0.392959,0.189517 0.539661,0.289147 0.685453,0.610215 -0.06844,-0.03819 -1.127691,0.105538 -0.225652,0.03062 -0.362333,0.670246 -0.397458,0.309011 0.0212,-0.655878 0.183667,-1.298539 0.301244,-1.941355 0.155628,-0.777789 0.291188,-1.563502 0.543103,-2.317465 0.31863,-0.833923 0.719633,-1.627841 1.266878,-2.338298 0.568915,-0.751687 1.170596,-1.4768 1.844387,-2.137952 0.364581,-0.364349 0.664186,-0.776568 0.989702,-1.175002 0.577707,-0.5786502 1.262111,-1.0051102 2.043631,-1.2596632 1.203812,-0.357211 2.331168,-0.467952 3.586399,-0.25542 0.269111,0.04852 0.393986,0.0675 0.651088,0.126009 0.0698,0.01588 0.275025,0.02673 0.208242,0.05251 -1.113178,0.429725 -0.378387,-0.163232 -0.403717,0.09689 -0.05246,0.538764 -0.126234,1.0752422 -0.189351,1.6128622 0.133701,0.122967 0.234215,0.228623 -0.0036,0.136533 -0.376419,-0.172918 -0.661458,-0.454076 -0.88544,-0.8005822 -0.218737,-0.31663 -0.45202,-0.621464 -0.707837,-0.909393 -0.401436,-0.503497 -0.742817,-1.046438 -0.987407,-1.644706 -0.218189,-0.536185 -0.384363,-1.088762 -0.557606,-1.640643 -0.196956,-0.536056 -0.442562,-1.058902 -0.554457,-1.621892 -0.09503,-0.67646 -0.123548,-1.361712 -0.04486,-2.042058 0.07796,-0.658681 0.215905,-1.30590603 0.329333,-1.95875903 0.07959,-0.677179 0.09728,-1.36156297 0.48534,-1.95577097 0.568395,-0.843143 1.307559,-1.534959 2.142939,-2.114021 0.57557,-0.416464 1.176731,-0.79525 1.747436,-1.218334 0.199156,-0.174685 0.380721,-0.385418 0.611001,-0.521029 0.07135,-0.04202 0.23899,-0.168342 0.233154,-0.08574 -0.118991,1.683809 -0.525742,0.737839 -0.215571,1.376764 0.0035,0.01673 0.01783,0.03474 0.01049,0.05017 -0.01716,0.03608 -0.495565,0.01719 -0.544658,0.02921 -0.68301,0.01959 -0.289393,0.0043 -1.134059,-0.0031 -0.660389,0.0032 -1.338838,0.06919 -1.984405,-0.09155 -0.383432,-0.12425 -0.721873,-0.313481 -1.021396,-0.585606 -0.276057,-0.183804 -0.585642,-0.307848 -0.873002,-0.472681 -0.523038,-0.307933 -1.001203,-0.67663 -1.323918,-1.202604 -0.326017,-0.576943 -0.533038,-1.187391 -0.612496,-1.847787 -0.12343,-0.498975 -0.385933,-0.922222 -0.675505,-1.344288 -0.386844,-0.6127698 -0.822398,-1.2222718 -0.94709,-1.9517548 -0.0034,-0.301644 -0.03111,-0.3332 0.06195,-0.608627 0.01164,-0.03445 0.03692,-0.122087 0.05794,-0.09242 0.05861,0.0827 0.0024,0.231823 0.08373,0.292314 0.170067,0.126503 0.540657,0.250773 0.809974,0.342649 -0.244114,0.303025 -0.537271,0.554735 -0.831391,0.808796 -0.628454,0.542859 -1.274592,1.0651938 -1.908866,1.6011428 -1.165365,0.977372 -2.275137,2.02686 -3.496296,2.933695 -0.314152,0.755597 -1.382728,0.31132 -1.068576,-0.444277 z"
       inkscape:connector-curvature="0" />
    <path
       style="fill:#000000;fill-opacity:1;stroke:none;stroke-width:0.17468743;stroke-opacity:1"
       d="m 77.790092,-11.351841 c -0.579603,0.708245 -1.863828,1.156349 -1.932601,2.1028894 0.07302,0.8100629 1.596811,-0.08014 1.346102,0.8657736 -0.20272,0.9719746 -1.085843,1.4269535 -2.00993,1.4742663 -1.811489,0.4364447 -3.31824,1.9811894 -5.310566,1.6465656 -1.659103,-0.049805 -3.276596,-0.6638846 -4.413518,-1.8993115 -1.50462,-1.1829548 -2.952432,-2.4646309 -4.561389,-3.4999644 -0.97846,-0.134717 -0.720063,1.0205671 -0.328409,1.4966849 0.605868,1.449832 1.918494,2.7027294 1.586964,4.3795527 -0.13397,2.3170622 0.452524,5.14185842 -1.468045,6.9127941 -1.113911,1.3078579 -2.671348,2.1445154 -4.360361,2.4248124 -0.965376,0.5809403 0.225618,1.211924 0.748903,1.575939 1.40407,1.2474695 3.126042,2.2629311 3.995976,3.9611739 0.320076,1.811487 -0.506174,3.461229 -1.090431,5.10449 -0.08654,1.008082 1.07578,0.659174 1.602315,0.435205 1.522668,-0.30756 2.496086,-1.922956 4.170217,-1.740584 2.497085,-0.251787 5.17196,0.43913 6.836351,2.38694 0.777801,0.82357 1.163731,1.975941 2.000036,2.713797 1.032745,-0.149635 0.751357,-1.559146 1.112948,-2.331327 C 76.5538,13.935349 78.634713,11.795572 80.685059,9.922154 81.59301,9.3252844 82.739911,9.3663649 83.690911,8.9456774 84.149128,8.2010724 83.191405,7.5409409 83.09093,6.7953173 82.377315,5.051426 81.819845,3.1617784 82.289466,1.2756683 c 0.18717,-1.54602793 0.449736,-3.2438923 1.841575,-4.200205 0.902605,-0.3679256 1.539029,-1.8233734 0.08746,-1.7642655 -1.901622,-0.4181634 -4.03806,-1.7086805 -4.284734,-3.8666752 -0.435037,-1.0175174 -0.914216,-2.1270976 -1.743121,-2.8615306 -0.133517,0.02172 -0.267036,0.04344 -0.400553,0.06517 z M 65.423791,6.4072516 c 0.802148,0.9617816 -0.693591,0.1328618 0,0 z"
       id="path923"
       inkscape:connector-curvature="0" />
  </g>
</svg>
