<?xml version="1.0" encoding="UTF-8" standalone="no"?>
<!-- Created with Inkscape (http://www.inkscape.org/) -->

<svg
   xmlns:dc="http://purl.org/dc/elements/1.1/"
   xmlns:cc="http://creativecommons.org/ns#"
   xmlns:rdf="http://www.w3.org/1999/02/22-rdf-syntax-ns#"
   xmlns:svg="http://www.w3.org/2000/svg"
   xmlns="http://www.w3.org/2000/svg"
   xmlns:sodipodi="http://sodipodi.sourceforge.net/DTD/sodipodi-0.dtd"
   xmlns:inkscape="http://www.inkscape.org/namespaces/inkscape"
   width="1024"
   height="1024"
   viewBox="0 0 135.46667 135.46667"
   version="1.1"
   id="svg8"
   inkscape:version="0.92.4 (5da689c313, 2019-01-14)"
   sodipodi:docname="blood.svg"
   inkscape:export-filename="C:\Users\panu-\PycharmProjects\nextgame\data\images\bloodsplatter.png"
   inkscape:export-xdpi="10.173375"
   inkscape:export-ydpi="10.173375">
  <defs
     id="defs2" />
  <sodipodi:namedview
     id="base"
     pagecolor="#ffffff"
     bordercolor="#666666"
     borderopacity="1.0"
     inkscape:pageopacity="0.0"
     inkscape:pageshadow="2"
     inkscape:zoom="0.34988737"
     inkscape:cx="700.08169"
     inkscape:cy="703.40724"
     inkscape:document-units="mm"
     inkscape:current-layer="layer3"
     showgrid="false"
     units="px"
     width="1024px"
     inkscape:window-width="1920"
     inkscape:window-height="1017"
     inkscape:window-x="-8"
     inkscape:window-y="-8"
     inkscape:window-maximized="1"
     inkscape:pagecheckerboard="true"
     showguides="false" />
  <metadata
     id="metadata5">
    <rdf:RDF>
      <cc:Work
         rdf:about="">
        <dc:format>image/svg+xml</dc:format>
        <dc:type
           rdf:resource="http://purl.org/dc/dcmitype/StillImage" />
        <dc:title />
      </cc:Work>
    </rdf:RDF>
  </metadata>
  <g
     inkscape:groupmode="layer"
     id="layer3"
     inkscape:label="lines 1"
     style="display:inline"
     transform="translate(0,-80.433334)">
    <path
       style="fill:#d40000;fill-opacity:1;stroke:none;stroke-width:0.13229167;stroke-opacity:1"
       id="path848"
       d="m 34.935686,150.14252 c -0.304189,1.46513 -1.11179,2.75793 -1.795425,4.07003 -0.463417,0.84741 -0.693673,1.74932 -0.644473,2.71029 0.11642,1.08661 0.328268,2.16051 0.590087,3.22059 0.27225,1.14661 0.673677,2.25334 1.19078,3.31075 0.375687,0.73792 0.821976,1.41695 1.483038,1.92338 0.36373,0.23218 0.755659,0.30232 1.180213,0.28957 0.374871,-0.0113 0.366381,0.0989 0.361564,-0.0568 1.079709,-0.11383 2.155507,-0.27215 3.228622,-0.43791 1.320608,-0.22485 2.629085,-0.51556 3.953944,-0.71443 1.476882,-0.21339 2.974384,-0.18551 4.460954,-0.11742 1.362406,0.006 2.666475,0.31785 3.929114,0.80623 1.286182,0.54623 2.494167,1.25243 3.692269,1.96643 1.073007,0.65899 2.081351,1.40764 3.032563,2.23107 0.941948,0.81477 1.705689,1.79685 2.37638,2.83952 0.71616,1.08532 1.165635,2.29795 1.487965,3.54935 0.383523,1.63711 0.241164,3.31584 0.178744,4.97707 -0.01,1.727 -0.250538,3.32273 -0.699078,4.98524 -0.34194,1.19804 -0.750949,2.3747 -1.067652,3.57992 -0.182603,0.70667 -0.283777,1.42587 -0.291419,2.15474 0.02735,0.13124 0.02405,0.19013 0.105272,0.29969 0.199631,0.2693 0.618982,0.5603 0.869653,0.78879 0.703138,0.65831 1.310793,1.40652 1.914206,2.15449 0.454202,0.62771 1.063938,0.99475 1.76834,1.27564 0.509771,0.17271 1.037017,0.26652 1.575151,0.27181 0.468332,0.005 0.454711,0.14155 0.457796,-0.0438 1.249057,-0.0394 2.483763,-0.22722 3.706833,-0.47281 0.991708,-0.23034 1.978748,-0.51204 2.88739,-0.98056 0.568514,-0.29315 0.700769,-0.40594 1.223945,-0.76187 0.829368,-0.63244 1.561191,-1.37824 2.372257,-2.03294 0.640006,-0.51661 0.645487,-0.50047 1.318129,-0.95796 1.028148,-0.63975 2.128376,-1.15158 3.048818,-1.94789 0.792845,-0.78187 1.195353,-1.82733 1.625725,-2.83062 0.38877,-1.05855 0.927234,-2.04632 1.487766,-3.02073 0.468152,-0.70253 0.684112,-1.48224 0.822171,-2.30312 0.124593,-1.09176 0.334677,-2.16617 0.636733,-3.22193 0.312197,-1.00055 0.673104,-1.98416 1.089102,-2.94597 0.534207,-1.30592 1.419778,-2.36827 2.437962,-3.32216 0.945531,-0.82132 2.06209,-1.39719 3.111785,-2.06743 0.772005,-0.53051 1.519284,-1.09492 2.307786,-1.60125 0.826256,-0.53321 1.748661,-0.84099 2.704916,-1.03522 0.754726,-0.13382 1.519168,-0.11799 2.281738,-0.10748 0.5737,0.0285 1.14446,0.0568 1.71499,0.12804 0.71196,0.0916 1.39481,0.31439 2.0776,0.52577 0.56018,0.17728 1.13373,0.30463 1.7039,0.44414 0.79577,0.17014 1.56216,0.43713 2.29503,0.78809 0.56034,0.32836 1.15529,0.51574 1.78955,0.6286 0.69124,0.083 1.37811,0.16502 2.05427,0.33497 0.41505,0.13653 0.82435,0.25214 1.26302,0.23572 -0.0756,-0.002 -0.18267,0.055 -0.22693,-0.006 -0.041,-0.0568 0.13969,-0.0107 0.20935,-0.018 0.33442,-0.0351 0.66894,-0.072 1.00135,-0.12285 0.48814,-0.0993 0.90723,-0.37836 1.3156,-0.64977 0.25622,-0.18339 0.56849,-0.31695 0.76554,-0.57146 0.038,-0.26499 -0.0575,-0.55852 -0.10088,-0.8222 -0.12717,-0.57033 -0.5215,-1.0339 -0.83938,-1.5107 -0.64787,-0.90163 -1.16333,-1.88262 -1.66091,-2.87189 -0.47575,-0.99725 -1.00384,-1.96818 -1.4916,-2.95931 -0.53013,-1.11049 -0.90934,-2.28213 -1.26294,-3.45804 -0.35846,-1.26399 -0.54007,-2.5674 -0.6511,-3.87367 -0.0597,-1.1897 -0.0865,-2.38166 -0.10811,-3.57282 -0.0399,-0.94586 0.12127,-1.85658 0.44872,-2.73958 0.3562,-0.85105 0.93605,-1.57075 1.54692,-2.25076 0.84665,-0.93722 1.90256,-1.62046 2.99924,-2.22559 1.07209,-0.56119 2.16986,-1.06924 3.21427,-1.68184 0.91207,-0.61068 1.76746,-1.29637 2.68539,-1.89921 0.68882,-0.40406 1.30424,-0.89085 1.79523,-1.52127 0.32488,-0.46207 0.44447,-0.9996 0.47559,-1.5539 -0.0234,-0.80734 -0.0242,-1.61176 0.022,-2.41819 0.0697,-0.95744 0.0805,-1.91678 0.0581,-2.87605 0.002,-0.80227 -0.013,-1.61279 -0.31901,-2.36358 -0.34875,-0.60908 -0.9957,-0.9333 -1.58431,-1.27034 -0.80503,-0.43809 -1.68724,-0.73994 -2.60784,-0.7923 -0.23744,-0.0135 -0.47565,-0.002 -0.71347,-0.003 -0.27513,0.0169 -0.55219,0.014 -0.82537,0.0508 -0.0624,0.008 -0.10741,0.0739 -0.16973,0.0831 -0.70968,0.10499 -1.42905,0.12905 -2.14254,0.204 -1.1306,0.11877 -1.22396,0.13703 -2.36273,0.2818 -2.121,0.26991 -4.2259,0.66759 -6.36069,0.81388 -0.2414,-0.009 -0.48423,2.7e-4 -0.72419,-0.0275 -0.23592,-0.0273 -1.33594,-0.29692 -1.43645,-0.37962 -0.14664,-0.12066 -0.092,-0.3685 -0.13795,-0.55275 -0.38195,-0.29747 0.0387,-0.83764 0.42069,-0.54017 v 0 c 0.0486,-0.13399 0.0972,-0.26799 0.14575,-0.40198 -0.0797,-0.0781 -0.26308,-0.12535 -0.23917,-0.23438 0.068,-0.3102 0.83705,-0.12951 0.85789,-0.41435 2.0492,-0.69551 4.14741,-1.25001 6.30238,-1.49782 2.54305,-0.26381 5.12831,-0.42404 7.67151,-0.0782 0.29855,0.0657 0.60033,0.11807 0.89564,0.19704 1.11173,0.29729 2.14042,0.82747 3.07494,1.49233 0.86245,0.63814 1.68183,1.33333 2.12386,2.3402 0.39334,0.98264 0.58183,2.00805 0.56559,3.06992 1e-5,1.02761 -0.0161,2.05723 -0.17063,3.07563 -0.10089,0.79142 -0.17168,1.58485 -0.19272,2.3827 -0.0804,0.87413 -0.28114,1.72683 -0.74433,2.48466 -0.55514,0.83689 -1.2458,1.55612 -2.06827,2.13795 -0.90258,0.66362 -1.83519,1.28547 -2.7255,1.96615 -1.03604,0.71493 -2.1291,1.32753 -3.27271,1.85529 -0.94856,0.49223 -1.9325,0.95092 -2.76714,1.6278 -0.50649,0.46367 -1.01184,0.95279 -1.34149,1.56296 -0.28681,0.63375 -0.17368,1.31073 -0.0859,1.98156 0.11754,1.16953 0.17906,2.34235 0.24335,3.51579 0.0957,1.16412 0.20807,2.33625 0.54024,3.46101 0.32131,1.07009 0.64448,2.14396 1.0718,3.1773 0.48781,0.99567 1.09465,1.92677 1.56846,2.93015 0.45195,0.94708 0.87353,1.90965 1.37971,2.82989 0.38903,0.73738 0.78968,1.49084 0.83767,2.34086 -0.009,0.60959 -0.0495,1.21532 -0.38251,1.74679 -0.26664,0.39561 -0.59025,0.74698 -0.95809,1.052 -0.57515,0.43383 -1.1784,0.84091 -1.8916,1.00624 -0.69414,0.12625 -1.39257,0.0563 -2.09545,0.0789 -0.52599,-0.025 -1.04918,-0.082 -1.57114,-0.15119 -0.68838,-0.0948 -1.37119,-0.223 -2.05453,-0.34849 -0.73494,-0.15901 -1.44304,-0.39764 -2.12157,-0.72496 -0.68342,-0.26915 -1.37195,-0.52471 -2.06683,-0.76288 -0.54353,-0.18033 -1.09126,-0.34543 -1.65622,-0.44581 -0.66806,-0.13714 -1.33914,-0.26334 -1.99874,-0.43788 -0.46776,-0.11783 -0.94194,-0.20858 -1.42722,-0.18033 0.0729,0.002 0.19939,-0.0632 0.21878,0.007 0.0189,0.0685 -0.14205,0.007 -0.2128,0.0145 -0.3537,0.035 -0.7065,0.092 -1.051028,0.17957 -0.760081,0.20662 -1.494316,0.50601 -2.198363,0.85793 -0.775653,0.44001 -1.481746,0.98031 -2.162249,1.5557 -0.910465,0.73742 -1.835449,1.45287 -2.789979,2.13278 -0.885236,0.70762 -1.676685,1.51112 -2.192295,2.53546 -0.414339,0.84454 -0.819326,1.70143 -1.046543,2.61875 -0.231561,1.05173 -0.343325,2.1272 -0.606166,3.17302 -0.254225,0.93582 -0.586764,1.83172 -1.047377,2.68749 -0.42776,0.99042 -0.741613,2.02344 -1.167547,3.01478 -0.532306,1.26323 -1.184494,2.48195 -2.162119,3.46205 -0.927395,0.87234 -1.973461,1.58387 -3.027389,2.29453 -1.275154,0.9342 -2.452161,1.98329 -3.655173,3.00718 -0.238081,0.17679 -0.467996,0.36514 -0.714241,0.53036 -1.27573,0.85599 -2.728209,1.40389 -4.24502,1.63273 -1.356655,0.15562 -2.717108,0.15705 -4.080849,0.19973 -0.354026,-0.01 -0.708476,-0.009 -1.062077,-0.0289 -0.861776,-0.0483 -1.710309,-0.28943 -2.499712,-0.62781 -0.872757,-0.42625 -1.659316,-0.97381 -2.290795,-1.72219 -0.620479,-0.699 -1.216998,-1.41863 -1.806859,-2.14358 -0.477853,-0.61016 -0.982566,-1.21657 -1.138255,-1.99843 -0.173748,-0.8785 -0.206467,-1.76845 -0.04578,-2.6541 0.225815,-1.2281 0.573245,-2.42717 0.827582,-3.64906 0.302489,-1.54197 0.491255,-3.0992 0.545449,-4.67102 0.117985,-1.49639 0.238272,-3.00643 0.11962,-4.50592 -0.07028,-0.46493 -0.08389,-0.6721 -0.21778,-1.1172 -0.203299,-0.67587 -0.567776,-1.28411 -0.942515,-1.87614 -0.606956,-0.89424 -1.239423,-1.78052 -2.067778,-2.48686 -0.917219,-0.73958 -1.925747,-1.34578 -2.953692,-1.91921 -1.116051,-0.64965 -2.211689,-1.34741 -3.394396,-1.87156 -0.456161,-0.16165 -0.586395,-0.22458 -1.061476,-0.32566 -0.79441,-0.16903 -1.61209,-0.1807 -2.419268,-0.22961 -1.045772,-0.0539 -2.090389,-0.16919 -3.131782,0.0214 -1.337766,0.24606 -2.658316,0.59082 -4.01235,0.74018 -1.172382,0.11969 -2.34297,0.12318 -3.520464,0.11433 -0.286707,-0.0103 -0.574132,-0.008 -0.860122,-0.0309 -0.748648,-0.0595 -1.465017,-0.37232 -2.077745,-0.79103 -0.776142,-0.62902 -1.369477,-1.41418 -1.83161,-2.30026 -0.611249,-1.14851 -1.165212,-2.3261 -1.370939,-3.62503 -0.16921,-1.14244 -0.24672,-2.28456 -0.24627,-3.4398 -0.0023,-0.17874 -0.01281,-0.77052 -0.0027,-0.9467 0.04535,-0.787 0.237717,-1.55901 0.506693,-2.29725 0.590169,-1.43476 1.368787,-2.8138 2.558583,-3.84006 0.19343,-0.39447 0.751305,-0.12092 0.557875,0.27356 z"
       inkscape:connector-curvature="0" />
    <path
       style="fill:#d40000;fill-opacity:1;stroke:none;stroke-width:0.13229167;stroke-opacity:1"
       id="path850"
       d="m 108.275,125.81646 c -1.38247,0.76577 -2.97762,0.94105 -4.52556,1.08145 -1.06717,-0.0273 -2.80132,0.25468 -3.69047,-0.53569 -0.141097,-0.12543 -0.238663,-0.29258 -0.357997,-0.43887 -0.06416,-0.1936 -0.15773,-0.37983 -0.192489,-0.58081 -0.135892,-0.78574 0.265842,-1.93718 0.512446,-2.67904 0.42168,-1.09925 1.03671,-2.10625 1.49097,-3.19135 0.41874,-1.16323 0.84331,-2.32026 1.38574,-3.43224 0.41054,-0.83734 0.9974,-1.56851 1.4076,-2.40475 0.27437,-0.69095 0.39382,-1.43224 0.56698,-2.1531 0.18316,-0.88562 0.4166,-1.75793 0.64055,-2.63355 0.0204,-0.10469 0.24043,-0.82115 0.0799,-0.86626 -0.42006,-0.35115 -0.79328,-0.7601 -1.16994,-1.15746 -0.28688,-0.29688 -0.60036,-0.57787 -1.03493,-0.50082 0.11205,0.004 0.22768,-0.0169 0.33615,0.0114 0.0609,0.0159 -0.12573,0.0121 -0.18668,0.0276 -0.13709,0.035 -0.30957,0.12333 -0.42028,0.20001 -0.20569,0.14248 -0.48106,0.40042 -0.65998,0.56021 -0.98369,0.93199 -1.96356,1.79763 -3.081678,2.56697 -0.713261,0.49428 -1.525098,0.80254 -2.297699,1.18435 -0.550438,0.40232 -1.059143,0.86041 -1.606945,1.27122 -0.825452,0.6076 -1.765112,0.97077 -2.774373,1.10922 -0.873157,0.0519 -1.740228,-0.10076 -2.60457,-0.20646 -0.866381,-0.16683 -1.652404,-0.57849 -2.47725,-0.87219 -0.748861,-0.26033 -1.543607,-0.31547 -2.318782,-0.4568 -0.891966,-0.19724 -1.754624,-0.56202 -2.467244,-1.14276 -0.152274,-0.1241 -0.289471,-0.26562 -0.434208,-0.39843 -0.738956,-0.76985 -1.395963,-1.61523 -2.05139,-2.45627 -0.621589,-0.81158 -1.170187,-1.67596 -1.732416,-2.52895 -0.574991,-0.90321 -1.140144,-1.80981 -1.818186,-2.64035 -0.624548,-0.72679 -1.435286,-1.1781 -2.312016,-1.52659 -1.000892,-0.38035 -2.049274,-0.62058 -3.100236,-0.81447 -1.032284,-0.18841 -1.6687,-0.11193 -2.648558,-0.0293 -1.214815,0.10581 -2.359559,0.51051 -3.476652,0.97444 -0.78319,0.35821 -1.567304,0.73187 -2.256375,1.25371 -0.382783,0.30073 -0.273634,0.39892 -0.151724,0.8255 0.265388,1.02142 0.604373,2.02104 0.893593,3.0355 0.46809,1.7467 0.579062,3.55166 0.628674,5.3504 -0.01671,1.48478 -0.0053,2.9634 0.194552,4.43623 0.201176,1.05343 0.62947,2.03742 0.877895,3.07866 0.203546,1.05575 0.118191,2.12396 -0.123457,3.16316 -0.241066,0.87984 -0.658742,1.5497 -1.402672,2.07692 -0.724057,0.4609 -1.563378,0.3129 -2.374717,0.31782 -1.319047,-0.0114 -2.592583,-0.37259 -3.833489,-0.78681 -1.467444,-0.54188 -2.89443,-1.19129 -4.297849,-1.88076 -1.154864,-0.55906 -2.275195,-1.1833 -3.432988,-1.73637 -0.995912,-0.43884 -2.038756,-0.75663 -3.060677,-1.12746 -1.052982,-0.39709 -2.038356,-0.94093 -3.030839,-1.46524 -0.927732,-0.5286 -1.934334,-0.88781 -2.923176,-1.28093 -1.275583,-0.49466 -2.56352,-0.95598 -3.858451,-1.39725 -1.330047,-0.41221 -2.68118,-0.75154 -4.027753,-1.10469 -0.808335,-0.20759 -1.6292,-0.37798 -2.466594,-0.38944 -0.0077,-1.1e-4 0.0179,0.0196 0.01028,0.0207 -0.193995,0.0277 -0.389787,0.0409 -0.58468,0.0614 -1.038679,0.18549 -1.993633,0.64348 -2.812041,1.30195 -0.469232,0.41092 -0.510887,0.94588 -0.499393,1.53111 6.1e-5,0.90486 0.292878,1.59309 0.751688,2.35318 0.695058,1.01259 1.404288,2.01516 2.08586,3.03709 0.646493,1.0059 1.336722,1.97979 2.079249,2.91662 0.684818,0.80511 1.425588,1.56161 2.161945,2.31952 0.709216,0.7647 1.565332,1.35972 2.428385,1.93466 0.755456,0.49676 1.572446,0.97088 2.104861,1.72561 0.0989,0.14019 0.175309,0.29497 0.262963,0.44245 0.406683,0.81936 0.49604,1.73169 0.557964,2.63073 0.03767,0.49433 0.0087,0.98808 -0.02127,1.48143 -0.08178,0.69639 -0.627592,1.11235 -1.133409,1.52561 -0.678545,0.55326 -1.397556,1.04838 -2.151216,1.49276 -0.973615,0.55691 -2.003564,1.00629 -3.028383,1.45886 -1.10322,0.46086 -2.149827,1.04003 -3.189184,1.6274 -1.266719,0.72755 -2.524416,1.47045 -3.77619,2.22338 -1.488376,0.90716 -2.974105,1.81866 -4.432614,2.77327 -1.459172,0.96664 -2.645597,2.25741 -3.848614,3.51202 -0.956963,0.99715 -1.979329,1.92871 -2.913104,2.9481 -0.274048,0.3164 -0.541383,0.63984 -0.790139,0.97671 -0.04438,0.0601 -0.157076,0.27708 -0.240847,0.3291 -0.05813,-0.23315 0.550698,0.0976 0.588446,0.11595 0.673899,0.23832 1.381521,0.25551 2.086883,0.22417 0.01538,-0.0119 0.02712,-0.0317 0.04614,-0.0356 0.962367,-0.19677 -0.09716,0.0837 0.885686,-0.15822 0.505157,-0.12432 0.985111,-0.31166 1.468947,-0.49961 1.35455,-0.58837 2.686457,-1.21703 4.072469,-1.73001 1.494434,-0.54418 3.062649,-0.81007 4.61891,-1.10445 1.119731,-0.17199 2.178249,-0.56974 3.23832,-0.95103 0.687504,-0.22073 1.401869,-0.57152 2.145236,-0.53041 0.375277,0.0208 0.62278,0.1374 0.966416,0.26202 0.464461,-0.1223 0.637427,0.53455 0.172966,0.65685 v 0 c -0.166891,0.12223 -0.314371,0.27057 -0.486536,0.38525 -0.560008,0.37304 -1.243564,0.5429 -1.855367,0.80263 -1.108475,0.39177 -2.238547,0.71747 -3.361895,1.06352 -1.452581,0.43545 -2.896482,0.90003 -4.357161,1.30839 -1.428659,0.41366 -2.871848,0.78531 -4.264325,1.31341 -1.199747,0.40263 -2.39987,0.78637 -3.686026,0.68755 -0.838705,-0.0539 -1.655403,-0.19923 -2.424156,-0.55509 -0.599537,-0.20063 -1.093326,-0.54484 -1.265318,-1.18607 -0.01782,-0.11401 -0.04917,-0.22671 -0.05346,-0.34201 -0.02875,-0.77239 0.424984,-1.48022 0.824809,-2.09898 0.810849,-1.14304 1.703396,-2.22469 2.604932,-3.29699 1.249021,-1.44049 2.543359,-2.85709 4.112212,-3.95992 1.490933,-1.00481 3.078779,-1.8338 4.655024,-2.69535 1.298674,-0.74065 2.602512,-1.47461 3.938212,-2.14685 1.109865,-0.55516 2.237173,-1.07468 3.352534,-1.61872 0.997691,-0.44334 2.018932,-0.82436 3.031978,-1.22994 0.7539,-0.37073 1.449479,-0.82982 2.150419,-1.29135 0.09531,-0.05 0.766734,-0.44356 0.867811,-0.35482 0.0071,0.006 0.02518,0.0933 0.03059,0.11828 -0.06852,-0.4593 -0.290349,-0.89155 -0.312105,-1.36204 -0.07981,-0.64755 -0.05281,-1.344 -0.332326,-1.94318 -0.610029,-0.68835 -1.562127,-0.95898 -2.26171,-1.54198 -0.901552,-0.66787 -1.718125,-1.4268 -2.503018,-2.22792 -0.822266,-0.7747 -1.700099,-1.49702 -2.408645,-2.38377 -0.774903,-0.96152 -1.44822,-1.99509 -2.167607,-2.9978 -0.763733,-1.05243 -1.561225,-2.09049 -2.163657,-3.24722 -0.09159,-0.19881 -0.194164,-0.39292 -0.274772,-0.59643 -0.324786,-0.81998 -0.432265,-1.69217 -0.420947,-2.5684 0.02155,-0.95565 0.176212,-1.88879 0.713779,-2.70358 0.119646,-0.15501 0.228935,-0.31861 0.35894,-0.46504 0.838234,-0.94419 1.985496,-1.51969 3.185379,-1.85702 0.263685,-0.0518 0.523402,-0.13145 0.791055,-0.15543 1.437225,-0.12877 2.88004,0.0216 4.27357,0.37841 1.399948,0.35111 2.795515,0.7221 4.167187,1.17311 1.356006,0.44718 2.691328,0.95148 3.958686,1.61523 0.977722,0.48555 1.948232,0.9854 2.936539,1.44942 0.933085,0.46626 1.869096,0.93378 2.849727,1.29345 1.069904,0.38841 2.158856,0.72763 3.202268,1.18581 1.195741,0.51188 2.375857,1.05995 3.56358,1.59008 1.378734,0.60435 2.768448,1.18159 4.168335,1.73533 1.040545,0.41338 2.075529,0.85769 3.155286,1.15953 0.101637,0.025 0.203,0.0512 0.304914,0.0751 0.07363,0.0173 0.272797,-0.007 0.221665,0.0483 -0.0669,0.0729 -0.203093,-0.005 -0.295136,0.0317 -0.07398,0.0292 0.326533,0.0894 0.270695,0.0673 0.402666,-0.18748 0.480763,-0.7216 0.594122,-1.10276 0.134828,-0.7776 0.244285,-1.58544 0.08662,-2.36707 -0.317768,-1.07567 -0.889672,-2.05956 -1.144065,-3.15808 -0.369106,-1.54927 -0.50411,-3.13047 -0.546037,-4.72117 -0.0805,-1.67514 -0.174622,-3.35051 -0.376092,-5.01634 -0.135541,-1.05379 -0.297242,-2.10478 -0.385864,-3.16396 -0.09859,-0.90481 -0.09647,-1.56021 0.458728,-2.3335 0.667163,-0.82617 1.489391,-1.503484 2.414927,-2.02657 1.287798,-0.681795 2.655098,-1.190209 4.114017,-1.345629 1.48368,-0.137338 2.994934,-0.170135 4.464564,0.109361 1.182323,0.259527 2.346059,0.602074 3.459404,1.08213 1.144446,0.542352 2.19762,1.228918 2.997896,2.230528 0.709731,0.90513 1.309429,1.88186 1.837046,2.90412 0.475016,0.81999 0.985281,1.61845 1.597185,2.34497 0.612261,0.75615 1.206113,1.52963 1.863311,2.24763 0.583963,0.56835 1.138337,0.9498 1.960858,1.0908 0.863232,0.17026 1.739527,0.30181 2.567618,0.61175 0.729629,0.28329 1.44358,0.61408 2.199438,0.82406 0.306409,0.0896 0.612628,0.1826 0.927734,0.23754 0.07611,0.0133 0.280449,-0.0278 0.229747,0.0305 -0.05687,0.0654 -0.173694,0.0127 -0.25994,0.004 -0.0628,-0.006 0.125973,-0.007 0.188959,-0.0112 0.753198,-0.18704 1.448693,-0.54792 2.138459,-0.89462 0.603579,-0.32838 1.206113,-0.67317 1.736606,-1.11313 0.618475,-0.50254 1.23629,-1.00596 1.861742,-1.49986 1.050864,-0.83673 2.082436,-1.7007 3.181428,-2.47451 1.02048,-0.63759 1.8258,-1.11751 3.07001,-1.06731 0.13415,0.0165 0.27027,0.0213 0.40244,0.0496 0.70577,0.15113 1.26986,0.62536 1.74561,1.14312 0.39957,0.492 0.71145,1.04028 1.01362,1.59644 0.27305,0.59682 0.39353,1.22028 0.34177,1.88007 -0.11929,0.96374 -0.38579,1.89259 -0.72368,2.80233 -0.27352,0.74988 -0.54525,1.50036 -0.79861,2.25734 -0.32672,0.87797 -0.77575,1.69552 -1.17273,2.54249 -0.48672,1.12631 -0.90142,2.28182 -1.41228,3.39781 -0.48652,1.03917 -1.01511,2.05702 -1.50325,3.09536 -0.22789,0.51894 -0.20059,0.44408 -0.40631,0.96156 -0.0642,0.16158 -0.23929,0.74911 -0.40321,0.87406 -0.0197,0.015 -0.0492,-0.005 -0.0738,-0.008 0.75357,0.12521 1.52532,0.11233 2.28663,0.11724 0.59541,0.01 1.19066,0.0302 1.78614,0.0334 1.02646,0.006 2.05677,-0.0177 3.07125,0.17709 0.29654,-0.11721 0.4623,0.30217 0.16576,0.41937 z"
       inkscape:connector-curvature="0" />
    <path
       style="fill:#d40000;fill-opacity:1;stroke:none;stroke-width:0.13229167;stroke-opacity:1"
       id="path852"
       d="m 30.077933,168.84565 c -0.122895,0.0688 -0.238877,0.15174 -0.368686,0.20639 -0.518127,0.21811 -1.092523,0.30099 -1.626132,0.47163 -0.521155,0.16665 -0.462814,0.16286 -0.917494,0.41921 -0.110669,0.10648 -0.234933,0.20044 -0.332007,0.31945 -0.580528,0.7117 -0.872765,2.07619 -1.140135,2.95125 -0.349391,1.10739 -0.771039,2.19161 -0.856797,3.35761 0.0059,0.11894 -0.0052,0.23996 0.01758,0.35684 0.126119,0.64598 0.895343,0.69586 1.415267,0.72956 0.1755,-0.0142 0.353718,-0.009 0.526502,-0.0426 0.05869,-0.0115 0.09878,-0.0696 0.154628,-0.091 0.598303,-0.22921 0.518197,-0.0962 1.082281,-0.46007 0.504707,-0.32561 0.666519,-0.53641 1.095823,-0.96648 0.192002,-0.21245 0.389684,-0.41989 0.576003,-0.63734 0.231131,-0.26974 0.932772,-1.15589 1.151983,-1.42714 0.507878,-0.62844 1.030336,-1.24382 1.532685,-1.87669 0.202438,-0.30463 0.555789,-0.67467 0.507655,-1.08638 -0.0364,-0.31133 -0.416787,-0.46513 -0.641286,-0.59198 -0.736563,-0.42301 -1.753159,-0.5095 -2.444846,-0.97165 -0.145034,-0.27765 -0.13033,-0.12695 0.01246,-0.45408 -0.323883,0.12522 -0.500972,-0.33282 -0.177089,-0.45804 v 0 c 0.454844,-0.37347 0.223087,-0.22104 0.685341,-0.47206 0.138269,-0.0236 0.2746,-0.0667 0.414806,-0.0708 0.810322,-0.0237 1.723849,0.30742 2.390802,0.74624 0.207322,0.13641 0.388597,0.30879 0.582897,0.46319 0.406024,0.47633 0.589842,0.6038 0.806169,1.20099 0.323844,0.894 0.118135,1.83514 -0.227217,2.6837 -0.123865,0.23773 -0.236849,0.48144 -0.371593,0.71317 -0.824291,1.41761 -1.972001,2.62584 -3.214394,3.68248 -0.270702,0.1922 -0.531532,0.39912 -0.812103,0.5766 -1.321857,0.83618 -2.686255,1.20141 -4.24171,0.85258 -0.20787,-0.0698 -0.423979,-0.11864 -0.623608,-0.20934 -0.906869,-0.41205 -1.429862,-1.22134 -1.563021,-2.18829 -0.02895,-0.47426 -0.05335,-0.63338 -0.02007,-1.11841 0.06261,-0.91236 0.31189,-1.79712 0.549062,-2.6756 0.453724,-1.45418 0.969069,-2.93192 2.15343,-3.96175 0.189193,-0.13265 0.367532,-0.28231 0.567579,-0.39795 0.748414,-0.43259 1.693106,-0.66022 2.557678,-0.57501 0.172748,0.017 0.339006,0.0748 0.508508,0.11226 0.628935,-0.20439 0.917987,0.68506 0.289051,0.88945 z"
       inkscape:connector-curvature="0" />
    <path
       style="fill:#d40000;fill-opacity:1;stroke:none;stroke-width:0.13229167;stroke-opacity:1"
       id="path854"
       d="m 20.635249,186.26692 c -0.901946,0.0618 -1.785467,-0.19714 -2.672904,-0.32004 0.0098,-0.003 0.03956,-0.0119 0.02929,-0.0104 -0.437363,0.0596 -0.462742,0.48343 -0.519898,0.85072 0.02058,0.31275 -0.140384,1.00662 0.09641,1.25587 0.0324,0.0341 0.08008,0.0494 0.120117,0.074 0.415421,0.10284 0.839108,-0.0166 1.227169,-0.16739 0.565813,-0.35276 0.791627,-1.0474 1.017866,-1.64405 0.07017,-0.23588 0.120328,-0.48316 0.109777,-0.73092 -0.0025,-0.0582 -0.05288,-0.11498 -0.03639,-0.17081 0.0086,-0.029 0.03369,-0.0503 0.05054,-0.0754 -0.29178,-0.19944 -0.0097,-0.61208 0.282053,-0.41264 v 0 c 0.114196,0.0177 0.240054,-1.3e-4 0.342588,0.0531 0.460515,0.23938 0.42259,1.22315 0.351805,1.62994 -0.278133,1.00289 -0.719241,1.62414 -1.646174,2.12875 -0.753752,0.26307 -1.585321,0.37328 -2.279289,-0.10441 -0.08235,-0.0819 -0.175973,-0.15393 -0.247043,-0.24583 -0.378571,-0.48949 -0.389582,-1.15928 -0.332305,-1.74328 0.122272,-0.5507 0.274656,-1.08417 0.736227,-1.45581 0.106303,-0.0856 0.220004,-0.17153 0.350418,-0.21175 0.213155,-0.0657 0.441078,-0.0669 0.661617,-0.10036 0.957386,-0.0362 1.963045,0.0949 2.741883,0.69874 0.496377,0.27135 0.112624,0.97334 -0.383753,0.70198 z"
       inkscape:connector-curvature="0" />
    <path
       style="fill:#d40000;fill-opacity:1;stroke:none;stroke-width:0.13229167;stroke-opacity:1"
       id="path860"
       d="m 61.266791,202.01505 c -0.638188,-0.1934 -1.257431,-0.50378 -1.936407,-0.53133 -0.605385,-0.0246 -0.605553,-0.0692 -0.421938,0.12354 -0.155445,0.0614 -0.320056,0.10336 -0.466336,0.18419 -1.006765,0.55638 -1.594117,1.70824 -2.134476,2.66806 -0.32884,0.7135 -0.939269,1.58805 -0.648802,2.42292 0.04189,0.12041 0.119477,0.22526 0.179214,0.33788 0.73153,0.83438 1.659361,1.53575 2.66266,2.01536 0.244201,0.11674 0.50133,0.20424 0.751995,0.30636 0.772446,0.23734 1.575857,0.31354 2.379817,0.22231 0.05482,-0.006 0.09428,-0.0606 0.147503,-0.0751 1.49651,-0.40791 0.03001,0.0951 1.472566,-0.43389 0.849855,-0.43546 1.914923,-0.95232 2.486741,-1.75661 0.06911,-0.0972 0.113206,-0.20997 0.169808,-0.31495 0.01645,-0.10209 0.04942,-0.20287 0.04935,-0.30627 -6.62e-4,-0.9893 -0.871702,-1.85293 -1.475969,-2.53734 -0.773127,-0.76799 -1.609405,-1.5148 -2.585915,-2.01806 -0.249668,-0.12867 -0.632024,-0.26329 -0.904676,-0.36445 0.336575,-0.20969 0.278449,-0.0808 -0.130285,-0.4037 -0.832022,0.39321 -1.388099,-0.78345 -0.556076,-1.17665 v 0 c 0.637688,-0.7447 0.183668,-0.41143 1.581979,-0.59344 0.281214,0.0205 0.567,0.007 0.843642,0.0614 1.811715,0.35683 3.189893,1.69838 4.185918,3.1714 0.167955,0.31359 0.357212,0.61668 0.503865,0.94078 0.554441,1.22532 0.706306,2.59681 0.415527,3.90693 -0.07979,0.21397 -0.142972,0.43488 -0.239363,0.6419 -0.599005,1.28646 -1.734895,2.20302 -2.945232,2.88263 -0.676469,0.30324 -1.237186,0.60642 -1.9816,0.72832 -1.683619,0.27569 -3.340084,0.16333 -4.917665,-0.49626 -0.312679,-0.16648 -0.636667,-0.31327 -0.938041,-0.49943 -1.263818,-0.78069 -2.281257,-1.90662 -2.919174,-3.24526 -0.07785,-0.22432 -0.170957,-0.44393 -0.233564,-0.67298 -0.3432,-1.25565 -0.15258,-2.5548 0.350518,-3.73764 0.142311,-0.28326 0.267274,-0.57591 0.426934,-0.84976 0.834275,-1.43095 2.03064,-2.59957 3.623233,-3.12404 0.482473,-0.0418 0.963139,-0.12589 1.447421,-0.12543 0.979776,9.2e-4 2.060495,0.48733 2.724928,1.20395 0.11464,0.12364 0.194209,0.27568 0.291314,0.41352 0.72914,0.89054 -0.530273,1.9217 -1.259413,1.03116 z"
       inkscape:connector-curvature="0" />
    <path
       style="fill:#d40000;fill-opacity:1;stroke:none;stroke-width:0.13229167;stroke-opacity:1"
       id="path862"
       d="m 6.1304328,154.26092 c -0.2443934,0.0778 -0.5084308,0.0248 -0.7550124,0.0821 -0.029677,0.007 0.1117727,0.0237 0.083963,0.0361 -0.2155949,0.0965 -0.3274265,-0.009 -0.4577768,0.20972 -0.043656,0.50992 0.096493,1.03022 0.2269305,1.52091 0.1953955,0.4332 0.7107997,0.5111 1.1360031,0.57566 0.1674663,-0.007 0.5455254,0.10298 0.7654306,-0.13322 0.043565,-0.0468 0.066524,-0.1092 0.099785,-0.1638 0.2787198,-0.60849 0.3080257,-1.27227 0.3676141,-1.92591 -0.020666,-0.14234 0.086162,-0.48036 -0.058376,-0.59946 -0.056221,-0.0463 -0.1436526,0.0261 -0.2163397,0.031 -0.086512,0.006 -0.1733786,-0.003 -0.2600677,-0.005 -0.5997968,-0.0479 -1.1493238,0.0593 -1.6445429,-0.0777 -0.091722,-0.0254 -0.1722023,-0.0811 -0.2583034,-0.12159 -0.065181,-0.0521 -0.1303615,-0.10421 -0.1955422,-0.15631 -0.400353,0.51811 -1.1330766,-0.0481 -0.7327236,-0.56619 v 0 c 0.067522,-0.18539 0.1350441,-0.37078 0.2025662,-0.55618 0.1323193,-0.11178 0.2445639,-0.25301 0.3969581,-0.33535 0.623962,-0.33715 2.0443479,-0.16744 2.7340617,0.066 0.1793396,0.0607 0.3478837,0.14953 0.5218254,0.2243 0.1468098,0.0986 0.3068791,0.17992 0.4404292,0.29587 0.5667064,0.49201 0.7183637,1.15135 0.7295719,1.86675 -0.014144,0.96073 -0.2618315,1.92474 -0.8554726,2.6957 -0.1167745,0.11047 -0.2247585,0.23103 -0.3503237,0.33139 -0.6621542,0.52923 -1.4861317,0.55798 -2.2960184,0.43307 -0.9033041,-0.24623 -1.4798868,-0.60675 -1.9139432,-1.46511 -0.3645536,-0.85026 -0.5508163,-1.74268 -0.1934276,-2.63465 0.2722,-0.42088 0.3053992,-0.57199 0.7397695,-0.84888 0.5727783,-0.36511 1.3533169,-0.39838 1.9939523,-0.20665 0.1374353,0.0411 0.259429,0.12254 0.3891436,0.18382 0.8793667,0.45264 0.2392323,1.69625 -0.640134,1.24361 z"
       inkscape:connector-curvature="0" />
    <path
       style="fill:#d40000;fill-opacity:1;stroke:none;stroke-width:0.13229167;stroke-opacity:1"
       id="path866"
       d="m -2.020608,159.02803 c -0.2697643,0.36285 -0.6268752,0.64149 -0.986358,0.90923 -0.1373576,0.1023 -0.3777889,0.32534 -0.5703541,0.3314 -0.050345,-0.54781 -0.071195,-0.39996 -0.4715927,-0.53193 -0.021587,-0.007 0.04393,-0.0117 0.065785,-0.0179 0.1490102,-0.0426 0.1014726,-0.0288 0.2647977,-0.0866 0.3787886,-0.14728 0.7559275,-0.13593 1.1539166,-0.0996 -0.1900206,-0.20062 -0.3887847,0.13294 -0.5471745,0.12469 -0.083709,-0.004 -0.078268,-0.35276 -0.082606,-0.39175 -0.080881,-0.77027 0.049207,-0.47953 1.0286744,-0.45691 -0.02588,0.53384 -0.7808398,0.49724 -0.7549597,-0.0366 v 0 c 0.3332517,-0.0644 0.6621913,-0.15778 0.9997552,-0.1932 0.094008,-0.01 0.1242302,0.6563 0.096901,0.72833 -0.061368,0.40084 -0.1464126,0.99834 -0.613647,1.14233 -0.137611,0.0424 -0.2873715,0.0189 -0.4310572,0.0284 -0.03129,-0.002 -0.1251255,-0.007 -0.093871,-0.005 0.060124,0.004 0.1202534,0.0137 0.1804848,0.0113 0.030162,-0.001 -0.059283,-0.012 -0.089326,-0.0149 -0.113073,-0.011 -0.218963,0.0167 -0.3280537,0.0437 -0.4833282,0.16495 -1.0346008,0.39452 -1.3684875,-0.18945 -0.06555,-0.11464 -0.055486,-0.25823 -0.083229,-0.38734 0.014563,-0.10911 0.013355,-0.22152 0.043689,-0.32734 0.229185,-0.79947 1.0261205,-1.28538 1.76114,-1.53764 0.676594,-0.58377 1.5021671,0.37308 0.8255731,0.95685 z"
       inkscape:connector-curvature="0" />
    <path
       style="fill:#d40000;fill-opacity:1;stroke:none;stroke-width:0.13229167;stroke-opacity:1"
       id="path868"
       d="m 54.682841,218.03646 c -0.315333,0.74259 -0.964221,1.28163 -1.270208,2.02697 -0.01069,0.0869 -0.04047,0.18576 0.0068,0.27078 0.09457,0.17006 0.514894,0.21313 0.670312,0.25601 0.386168,0.0863 0.789328,0.15843 1.186727,0.10984 0.01625,-0.002 -0.06089,-0.0123 -0.0456,-0.0182 0.05279,-0.0202 0.111428,-0.0188 0.167142,-0.0282 0.02535,-0.0204 0.05971,-0.0331 0.07605,-0.0612 0.09235,-0.15918 -0.0548,-1.00107 -0.07612,-1.19786 -0.125862,-0.29817 0.01742,-0.73573 -0.229161,-0.98783 -0.01242,-0.0127 -0.191996,-0.085 -0.195963,-0.0867 -0.107055,-0.0342 -0.228624,-0.0357 -0.332344,-0.0814 -0.0077,-0.003 -0.02181,-0.0183 -0.01387,-0.0211 0.141883,-0.049 0.32401,-0.0204 0.432996,-0.1236 0.08953,-0.0848 0.05275,-0.2409 0.07913,-0.36137 -0.29608,0.54569 -1.0678,0.12698 -0.771719,-0.41871 v 0 c 0.04076,-0.14185 0.0084,-0.3316 0.122269,-0.42555 0.156092,-0.12881 0.387449,-0.11956 0.585969,-0.15889 0.423022,-0.0838 0.843315,0.15102 1.180002,0.37012 0.101564,0.0931 0.214299,0.17533 0.304691,0.27931 0.479215,0.55126 0.614617,1.2875 0.593823,1.99609 -0.05325,0.98257 -0.305915,1.87223 -1.242956,2.35153 -0.121717,0.0324 -0.2397,0.0859 -0.365151,0.0973 -0.70101,0.0637 -1.370813,-0.13021 -1.988084,-0.44694 -0.616494,-0.35695 -1.017134,-0.71343 -1.072459,-1.46697 0.0115,-0.13562 0.0083,-0.27328 0.03448,-0.40683 0.166016,-0.84632 0.787875,-1.54679 1.513918,-1.96934 0.355436,-0.45915 1.004764,0.0435 0.649328,0.50265 z"
       inkscape:connector-curvature="0" />
    <path
       style="fill:#d40000;fill-opacity:1;stroke:none;stroke-width:0.13229167;stroke-opacity:1"
       id="path870"
       d="m 18.450656,104.8627 c -0.126741,0.0931 -0.245252,0.19856 -0.380222,0.27924 -0.623678,0.37284 -1.337672,0.58238 -2.006559,0.85474 -0.828478,0.33735 -0.60622,0.24344 -1.369307,0.65047 -1.384091,0.94575 -1.613484,2.12529 -1.933713,3.67376 -0.09292,0.74775 -0.465911,2.09229 -0.105857,2.80389 0.05319,0.10511 0.143553,0.18683 0.215329,0.28024 0.705885,0.4273 1.566265,0.39646 2.362556,0.33389 0.943498,-0.0741 0.69117,-0.002 1.252932,-0.23663 1.635808,-0.28878 3.035325,-1.11397 4.114964,-2.37055 0.196034,-0.22817 0.365015,-0.47824 0.547523,-0.71736 0.444039,-0.71852 0.891286,-1.59173 0.523483,-2.44612 -0.175259,-0.40712 -0.451139,-0.63861 -0.749435,-0.95503 -0.807716,-0.68757 -1.674469,-1.31951 -2.614581,-1.81481 -0.230501,-0.18092 -0.215671,-0.40043 -0.232393,-0.67423 -0.370152,-0.11621 -0.205817,-0.63968 0.164335,-0.52348 v 0 c 0.278579,-0.4236 0.38857,-0.54424 0.924226,-0.58143 0.168773,0.0184 0.339578,0.0233 0.506322,0.0552 1.398934,0.26788 2.524763,1.15751 3.39709,2.24777 0.491013,0.75674 0.701886,0.9611 0.95855,1.84119 0.293203,1.00538 0.264925,2.11663 -0.04492,3.1144 -0.114483,0.36865 -0.298663,0.71194 -0.447996,1.06791 -0.222546,0.34516 -0.416631,0.71043 -0.667641,1.03548 -1.073993,1.39079 -2.603125,2.4374 -4.280887,2.95229 -0.407387,0.12503 -0.83184,0.18554 -1.247759,0.2783 -0.615718,0.0219 -1.231379,0.0862 -1.847151,0.0658 -0.366063,-0.0121 -0.728259,-0.0873 -1.086657,-0.16283 -1.193066,-0.25131 -2.266255,-0.75908 -3.004829,-1.75621 -0.113331,-0.19976 -0.245554,-0.38992 -0.339993,-0.59927 -0.498348,-1.10473 -0.463626,-2.38995 -0.375975,-3.56604 0.05239,-0.3031 0.08895,-0.60937 0.157156,-0.9093 0.366404,-1.61117 1.179183,-3.04314 2.504106,-4.05257 0.264403,-0.16615 0.51774,-0.35137 0.79321,-0.49845 0.981355,-0.52394 2.175632,-0.87864 3.296687,-0.82748 0.194994,0.009 0.386067,0.058 0.5791,0.0869 0.756787,-0.30992 1.19509,0.76033 0.438304,1.07026 z"
       inkscape:connector-curvature="0" />
    <path
       style="fill:#d40000;fill-opacity:1;stroke:none;stroke-width:0.13229167;stroke-opacity:1"
       id="path872"
       d="m 1.6674459,98.346505 c -0.80049591,0.60264 -1.78153337,0.875417 -2.7104936,1.213462 -0.3451184,0.132511 -0.3792281,0.264663 -0.2974076,0.605763 0.027002,0.11257 0.058629,0.22398 0.087944,0.33597 0.032202,0.13425 0.064404,0.26849 0.096606,0.40274 0.1322359,0.34024 0.20237988,0.91429 0.59768454,1.07927 0.14929602,0.0623 0.29964306,0.0168 0.44886693,-0.005 -0.0198917,-0.0172 -0.0776338,-0.0323 -0.0596751,-0.0515 0.65670621,-0.70165 -0.21600527,0.4927 0.41414583,-0.28757 0.18180025,-0.22511 0.24135868,-0.55499 0.31466813,-0.82482 0.0193529,-0.24314 0.12355528,-1.138656 -0.1563422,-1.25865 -0.0889239,-0.03499 -0.3328066,-0.01171 -0.39620124,-0.0659 -0.02600923,-0.02223 0.03718539,-0.05745 0.05577809,-0.08617 -0.09518356,-0.07072 -0.19036713,-0.141442 -0.2855507,-0.212163 -0.27560817,0.136271 -0.46832464,-0.253497 -0.19271647,-0.389768 v 0 c 0.055517,-0.108793 0.0614427,-0.264167 0.16655089,-0.326378 0.35507858,-0.210163 1.06399436,-0.185214 1.439427,-0.01706 0.1360849,0.06095 0.2476009,0.166223 0.3714013,0.249335 0.095631,0.115959 0.2052039,0.221708 0.286893,0.347877 0.4074729,0.629345 0.3629736,1.460647 0.2146409,2.156687 -0.058236,0.16808 -0.099137,0.3432 -0.1747084,0.50424 -0.2881646,0.61403 -0.8868999,1.2411 -1.57622642,1.38365 -0.26608197,0.055 -0.54121435,0.0489 -0.81182153,0.0734 -0.16760537,-0.0307 -0.3405655,-0.0399 -0.50281605,-0.092 -0.8908626,-0.28561 -1.3601741,-1.06851 -1.5470817,-1.93813 -0.1724343,-0.98053 -0.1962482,-1.951956 0.5651957,-2.702582 0.1302083,-0.104895 0.2523743,-0.220644 0.3906251,-0.314686 0.78932715,-0.536925 1.75456568,-0.806807 2.7009926,-0.834637 0.745688,-0.395712 1.3053089,0.658849 0.559621,1.054562 z"
       inkscape:connector-curvature="0" />
    <path
       style="fill:#d40000;fill-opacity:1;stroke:none;stroke-width:0.13229167;stroke-opacity:1"
       id="path874"
       d="m 60.1041,91.008612 c -0.148327,0.09444 -0.289082,0.201993 -0.444982,0.283331 -0.671575,0.350381 -1.416279,0.567048 -2.119504,0.841841 -0.783586,0.306195 -0.61224,0.240595 -1.34147,0.601684 -1.010716,0.592417 -1.594479,1.278044 -1.884566,2.410753 -0.108598,1.141447 0.326488,1.441505 1.30868,1.861243 0.962372,0.284848 2.010342,0.339509 3.000741,0.155504 0.086,-0.01598 0.149392,-0.09501 0.232995,-0.120746 0.273914,-0.08432 0.556202,-0.138526 0.834304,-0.20779 1.315728,-0.476943 2.436767,-1.341151 3.112609,-2.581906 0.110069,-0.20207 0.188307,-0.419918 0.282462,-0.629877 0.370173,-1.30287 0.172154,-1.869286 -0.789773,-2.766966 -0.317314,-0.272515 -0.664902,-0.494855 -1.07595,-0.591094 -0.0962,-0.02252 -0.236839,0.03966 -0.293534,-0.04126 -0.04429,-0.06322 0.149539,-0.03836 0.224309,-0.05754 -0.109573,-0.05415 -0.219148,-0.108297 -0.328721,-0.162445 -0.147209,-0.102723 -0.294418,-0.205446 -0.441625,-0.308169 -0.349699,0.202027 -0.635408,-0.292521 -0.285709,-0.494547 v 0 c 0.04966,-0.168938 0.09931,-0.337876 0.148968,-0.506814 0.130138,-0.101721 0.231141,-0.261402 0.390415,-0.305165 1.320356,-0.362782 2.586171,0.223728 3.56359,1.063964 0.181898,0.208077 0.382993,0.400823 0.545695,0.624231 0.925313,1.270556 1.134263,2.821823 0.828459,4.336137 -0.116362,0.338619 -0.200574,0.690055 -0.349087,1.015856 -0.661626,1.45144 -1.861661,2.61205 -3.287242,3.307418 -0.35636,0.173824 -0.738073,0.289965 -1.107109,0.434946 -0.374441,0.09057 -0.741092,0.223662 -1.123323,0.271721 -1.874255,0.235656 -3.736758,-0.0079 -5.366005,-0.991729 -0.21376,-0.170974 -0.443478,-0.323714 -0.641276,-0.512924 -0.854357,-0.817257 -1.205229,-1.911608 -1.131364,-3.073264 0.03353,-0.220017 0.04938,-0.443464 0.10058,-0.660052 0.303625,-1.284419 1.143084,-2.329358 2.179082,-3.110645 0.245209,-0.157519 0.481523,-0.329832 0.735629,-0.472556 1.194714,-0.67104 2.588674,-1.068893 3.961003,-0.93102 0.931887,-0.397195 1.493606,0.920692 0.561719,1.317887 z"
       inkscape:connector-curvature="0" />
    <path
       style="fill:#d40000;fill-opacity:1;stroke:none;stroke-width:0.13229167;stroke-opacity:1"
       id="path876"
       d="m 50.323634,81.390874 c -0.625225,0.612306 -1.419343,1.006475 -2.058682,1.601874 -0.125365,0.157345 0.01302,0.07607 0.122139,0.07551 0.134603,-7.01e-4 0.373763,0.01283 0.495934,0.01859 0.195411,-0.0041 0.532544,0.0018 0.717324,-0.05893 0.0288,-0.0095 -0.10337,-0.03185 -0.07748,-0.04762 0.262396,-0.159801 0.291197,0.04935 0.471845,-0.282708 0.07292,-0.52967 -0.08615,-1.097826 -0.39466,-1.528189 -0.171371,-0.182129 -0.381032,-0.309255 -0.595872,-0.43147 -0.04527,-0.02575 -0.160433,-0.03135 -0.135815,-0.07724 0.222254,-0.414337 0.417928,0.263733 0.103985,-0.412345 -0.25706,0.168375 -0.495178,-0.195163 -0.238118,-0.363538 v 0 c 0.03379,-0.130789 -0.01038,-0.316477 0.101367,-0.392367 0.183008,-0.124281 0.431936,-0.106593 0.652763,-0.119765 0.685691,-0.0409 1.294988,0.464026 1.726388,0.926515 0.106174,0.164441 0.228855,0.319332 0.318526,0.493325 0.353057,0.685049 0.434942,1.538738 0.210595,2.278384 -0.06055,0.199622 -0.166768,0.382425 -0.250153,0.573637 -0.133336,0.155721 -0.245421,0.332515 -0.400009,0.467162 -0.798998,0.695929 -1.924861,0.578883 -2.878864,0.35462 -0.145737,-0.05411 -0.297826,-0.09348 -0.43721,-0.162317 -0.578485,-0.285696 -0.998973,-0.815203 -1.005258,-1.480526 -0.0016,-0.168197 0.04414,-0.333502 0.0662,-0.500252 0.06743,-0.165642 0.114452,-0.34114 0.202287,-0.496924 0.520457,-0.923073 1.506433,-1.495495 2.527602,-1.659676 0.865678,-0.53398 1.62084,0.690275 0.755162,1.224255 z"
       inkscape:connector-curvature="0" />
    <path
       style="fill:#d40000;fill-opacity:1;stroke:none;stroke-width:0.13229167;stroke-opacity:1"
       id="path882"
       d="m 111.52957,95.114474 c -0.73477,0.296146 -1.52121,0.438861 -2.12227,0.985576 -0.31334,0.391834 -0.29738,0.878777 -0.28512,1.353848 0.0461,0.531577 0.0803,1.063562 0.099,1.596796 0.0467,0.446888 0.0745,0.816108 0.54686,0.960676 0.48295,0.10801 0.98714,0.0685 1.47554,0.0212 0.55782,-0.05405 0.3896,0.0262 0.64864,-0.128485 1.08837,-0.112437 1.91703,-0.47932 2.72932,-1.199013 0.17005,-0.218924 0.54943,-0.485466 0.48262,-0.81488 -0.005,-0.02324 -0.11311,-0.262555 -0.11339,-0.26317 -0.0356,-0.05067 -0.0667,-0.104806 -0.10675,-0.152002 -0.20527,-0.241754 -0.4705,-0.442778 -0.69934,-0.659826 -0.25448,-0.241354 -0.4924,-0.486267 -0.73906,-0.735788 -0.41766,-0.50644 -0.93392,-0.973636 -1.25634,-1.553974 0.25516,0.169289 0.0945,0.0825 0.72552,0.09819 0.01,2.65e-4 0.0222,-0.02814 0.0125,-0.02667 -0.27568,0.04206 -0.55879,0.157618 -0.83086,0.222135 -0.65911,0.186874 -1.12515,0.131126 -1.77639,-0.03483 -0.39174,0.228442 -0.71481,-0.325566 -0.32306,-0.554007 v 0 c 0.0838,-0.127651 0.14718,-0.271424 0.25151,-0.382952 0.29895,-0.319586 0.7263,-0.445897 1.13757,-0.533975 0.1516,-0.03341 0.30831,-0.04982 0.45425,-0.102757 0.10335,-0.03749 0.32928,-0.193083 0.41161,-0.201764 0.73112,-0.07708 0.67198,-0.05807 1.15716,0.129824 0.7664,0.378253 1.40883,0.935584 1.95944,1.588287 0.59711,0.736266 1.20657,1.498732 1.50676,2.41125 0.28626,1.101817 0.0962,1.973803 -0.59632,2.888247 -0.15782,0.16164 -0.30266,0.33704 -0.47345,0.48491 -0.95025,0.82272 -2.15606,1.18761 -3.39499,1.23269 -0.36844,-0.0105 -0.73761,-0.006 -1.10533,-0.0316 -0.8388,-0.0577 -1.66394,-0.31839 -2.37919,-0.75659 -0.65891,-0.54463 -0.92534,-1.028216 -0.96679,-1.89202 0.005,-0.501176 0.0559,-1.005456 -0.0491,-1.501143 -0.14238,-0.793668 -0.16161,-1.571455 0.26434,-2.293915 0.11155,-0.150097 0.20791,-0.312793 0.33467,-0.450293 0.68226,-0.740045 1.69432,-1.097293 2.68316,-0.954378 0.88415,-0.23854 1.2215,1.01184 0.33734,1.25038 z"
       inkscape:connector-curvature="0" />
    <path
       style="fill:#d40000;fill-opacity:1;stroke:none;stroke-width:0.13229167;stroke-opacity:1"
       id="path884"
       d="m 120.04079,87.045793 c -0.01,0.03883 0.008,0.09965 -0.0286,0.116482 -0.062,0.02879 -0.80778,0.166603 -0.86538,0.179137 -0.34267,0.07455 -0.65574,0.165913 -0.97132,0.316174 -0.30938,0.189455 -0.25153,0.421009 -0.15334,0.722202 0.17693,0.356323 0.63883,0.348021 0.9869,0.345817 0.45881,-0.04841 0.93787,-0.06865 1.41031,-0.177043 0.3336,-0.08686 0.61978,-0.276352 0.85883,-0.520889 0.14232,-0.18144 0.0972,-0.320456 0.001,-0.503682 -0.22684,-0.123952 -0.445,-0.263162 -0.65716,-0.416884 -0.0981,-0.08882 -0.59455,-0.332591 -0.47405,-0.516992 -0.6563,-0.400216 -0.0903,-1.328367 0.56599,-0.928151 v 0 c 0.3669,-0.07871 0.71015,0.09776 1.01843,0.287519 0.52393,0.357943 0.93962,0.811255 1.0116,1.470242 -0.0433,0.476299 -0.1669,0.925716 -0.48553,1.296342 -0.34354,0.405079 -0.76272,0.727832 -1.25538,0.935264 -0.78602,0.260323 -1.62386,0.356315 -2.44792,0.241525 -0.75277,-0.18705 -1.33138,-0.426788 -1.64518,-1.190541 -0.27777,-0.761967 -0.26895,-1.363492 0.26151,-2.026854 0.11624,-0.110488 0.22165,-0.233628 0.34873,-0.331463 0.83173,-0.640357 1.87178,-0.687722 2.86586,-0.511017 0.85759,0.244181 0.51226,1.456992 -0.34532,1.212812 z"
       inkscape:connector-curvature="0" />
    <path
       style="fill:#d40000;fill-opacity:1;stroke:none;stroke-width:0.13229167;stroke-opacity:1"
       id="path886"
       d="m 136.96815,121.78879 c -0.10474,0.0995 -0.20361,0.2056 -0.31424,0.29853 -0.54219,0.45545 -1.14295,0.8469 -1.70712,1.27388 -0.65946,0.49911 -0.64271,0.49668 -1.27065,1.01691 -0.62666,0.60035 -1.39907,1.28699 -1.36554,2.23882 0.005,0.14501 0.0411,0.28729 0.0616,0.43093 0.24114,0.851 0.38439,1.77531 0.83905,2.54959 0.0706,0.12027 0.16331,0.22612 0.24496,0.33919 0.29815,0.30065 0.60762,0.37146 1.02304,0.3349 0.17137,-0.0151 0.3494,-0.0185 0.50972,-0.0809 0.0361,-0.014 -0.0402,-0.10352 -0.004,-0.1161 0.23017,-0.079 0.47901,-0.0863 0.71853,-0.12947 1.10552,-0.26421 2.34657,-0.46689 3.21508,-1.27043 0.13265,-0.12273 0.23813,-0.2719 0.35718,-0.40784 0.39194,-0.64675 0.61276,-1.37365 0.58387,-2.13502 -0.0156,-0.4105 -0.11437,-0.8254 -0.19361,-1.22575 -0.32539,-1.17763 -1.10161,-2.10046 -1.9776,-2.91553 -0.14232,-0.20605 -0.67377,-0.49663 -0.81265,-0.71122 -0.0176,-0.0273 -0.0215,-0.0857 0.009,-0.097 0.83495,-0.30888 0.55187,0.1424 0.79243,-0.5382 -0.1202,-0.0423 -0.24042,-0.0846 -0.36062,-0.12687 -0.0141,0.20417 -0.30283,0.18424 -0.28874,-0.0199 v 0 c -0.11165,-0.14627 -0.2233,-0.29254 -0.33497,-0.43881 0.0856,-0.18331 0.086,-0.44154 0.25679,-0.54993 0.25796,-0.16368 0.5948,-0.14612 0.89807,-0.18285 0.73033,-0.0885 1.41199,0.43615 1.98458,0.79719 0.20289,0.16959 0.41709,0.32651 0.60867,0.50878 1.11494,1.06073 1.82198,2.42391 2.08423,3.93646 0.0291,0.28933 0.0759,0.57743 0.0873,0.86801 0.0595,1.51229 -0.25236,3.00461 -1.07729,4.28523 -0.51199,0.66061 -0.62996,0.9026 -1.30724,1.41391 -1.04367,0.78792 -2.31199,1.15192 -3.58747,1.33169 -1.65074,0.13407 -3.27204,0.2149 -4.61669,-0.90786 -0.18798,-0.15696 -0.34193,-0.35068 -0.51289,-0.52603 -0.13486,-0.19598 -0.28377,-0.38301 -0.40458,-0.58795 -0.5674,-0.96252 -0.79598,-2.09006 -1.01197,-3.17079 -0.0618,-0.59254 -0.12887,-0.92956 -0.0582,-1.53261 0.14192,-1.21088 0.75315,-2.2634 1.57712,-3.13804 0.24051,-0.22484 0.4672,-0.46544 0.72154,-0.67451 1.02062,-0.83897 2.31656,-1.51885 3.63509,-1.69379 1.09841,-0.70555 2.09621,0.84786 0.99779,1.55341 z"
       inkscape:connector-curvature="0" />
    <path
       style="fill:#d40000;fill-opacity:1;stroke:none;stroke-width:0.13229167;stroke-opacity:1"
       id="path888"
       d="m 149.79116,120.48006 c -0.51755,0.71189 -1.27242,1.19219 -1.81135,1.88541 -0.23328,0.42426 0.11753,0.67476 0.45745,0.87606 0.44558,0.21443 0.93551,0.30582 1.42837,0.30727 0.45321,0.001 0.48918,0.0378 0.30775,-0.0599 0.60523,-0.26419 0.68762,-0.91655 0.71534,-1.50477 0.009,-0.48345 -0.0251,-0.98732 -0.41881,-1.31073 -0.18114,-0.0727 -0.14761,-0.1923 -0.15181,-0.37304 -0.60191,-0.23876 -0.26425,-1.08999 0.33766,-0.85123 v 0 c 0.54831,-0.19641 0.65751,-0.24256 1.14697,0.12572 0.0993,0.0962 0.20962,0.18219 0.29774,0.2887 0.53,0.64058 0.66555,1.48622 0.67508,2.29079 -0.0274,0.19342 -0.0357,0.39055 -0.0823,0.58028 -0.26182,1.0665 -0.90146,1.7907 -1.92519,2.16783 -0.30684,0.0358 -0.61199,0.0919 -0.92052,0.10744 -0.87997,0.0444 -1.74522,-0.31569 -2.41406,-0.86238 -0.70484,-0.71748 -1.00852,-1.32159 -0.79752,-2.34858 0.0618,-0.16038 0.10772,-0.32785 0.18548,-0.48114 0.43479,-0.857 1.23663,-1.48654 2.13426,-1.79144 0.67436,-0.59074 1.5098,0.36294 0.83544,0.95368 z"
       inkscape:connector-curvature="0" />
    <path
       style="fill:#d40000;fill-opacity:1;stroke:none;stroke-width:1.42903125;stroke-opacity:1"
       d="m 525.11678,144.69781 c -18.43718,0.97892 -36.68182,8.01124 -51.52048,18.7672 -6.62906,9.30316 1.82783,20.51848 3.18739,30.26644 9.04547,31.58204 2.00885,65.42864 12.70221,96.67174 1.87327,12.51991 3.34314,29.67602 -8.56862,37.71582 -24.66945,6.43134 -49.45201,-5.31435 -71.03717,-15.67606 -28.46228,-14.84112 -58.867,-25.35985 -87.60798,-39.56623 -29.01141,-11.54463 -58.75512,-23.13583 -89.97001,-26.66186 -11.4407,0.86561 -23.8804,5.26343 -31.58661,14.03911 -6.97795,14.1559 1.23603,29.94607 9.95298,41.24653 18.28515,28.30428 39.82927,55.29906 67.99899,74.31522 12.72175,8.37991 13.38092,24.5642 12.66312,38.26565 -3.43196,8.14324 -12.99785,13.53693 -20.78326,18.20308 -40.41656,20.9476 -81.4903,41.49465 -118.06237,68.82952 -18.07368,15.81786 -35.26301,32.9012 -50.61266,51.34621 -2.889421,9.84504 10.67561,12.00863 17.65077,11.42107 26.68425,-2.87782 49.40546,-19.99668 75.90892,-24.13444 16.27014,-2.36126 31.5639,-8.59766 47.40644,-12.48168 5.04798,-0.20374 12.53823,-1.01454 15.95938,1.30343 -4.43923,18.25499 -19.97955,33.71729 -16.38642,53.63333 2.55681,21.38293 8.2509,44.00553 22.69425,60.57474 9.29823,10.32218 24.04473,3.31125 35.66739,2.69675 30.17804,-4.81195 61.21706,-11.4026 91.43267,-3.08751 27.45114,10.92189 54.10919,26.86405 71.40969,51.39769 18.97708,28.19634 14.83793,65.50785 8.75626,96.54236 -2.95559,17.27016 -12.47001,34.15575 -10.36671,51.8257 14.00628,12.92836 24.99065,32.82212 45.00331,37.00688 20.95819,0.30042 42.68977,-3.07269 61.68838,-12.27795 16.92757,-10.2289 30.36348,-25.40917 48.08189,-34.57027 20.49906,-11.74367 26.83271,-36.21231 37.14365,-55.79641 8.85846,-20.03054 9.13805,-42.7783 19.10492,-62.49221 9.91515,-23.45901 34.7083,-34.66207 54.47345,-48.294 21.62912,-15.16666 49.78731,-10.38696 73.56752,-3.93624 22.82441,6.268 45.52462,18.3976 69.79613,15.57502 8.07347,-3.14506 21.79793,-7.6042 19.62127,-18.67509 -7.65219,-16.19548 -17.88278,-31.27845 -25.36275,-47.57035 -13.12652,-23.01315 -19.1419,-48.97814 -19.90082,-75.08348 -2.02553,-18.62927 -0.27826,-39.93048 15.27904,-52.73464 18.57113,-16.52095 42.80041,-24.61851 62.33032,-39.90124 10.59469,-6.66375 22.33186,-16.17378 21.02701,-30.14992 0.17659,-18.78567 2.10447,-38.13736 -1.76579,-56.59117 -10.09289,-15.67073 -31.29303,-21.41376 -49.0313,-18.59464 -36.20916,3.89174 -72.2463,11.45074 -108.85754,8.79789 -8.47501,-1.61286 -20.35747,2.66004 -26.47574,-5.06014 -3.57696,-13.74651 5.44581,-26.65418 10.29908,-38.91878 6.77905,-16.91208 14.57307,-33.34044 23.04591,-49.44672 5.34401,-14.03462 8.90327,-28.96779 11.62684,-43.56952 -3.05106,-7.30526 -10.58317,-12.93238 -16.84893,-18.01558 -8.37734,-1.4827 -13.53762,8.25811 -20.01886,12.1987 -15.09617,13.98296 -34.25356,22.09143 -50.33581,34.71092 -15.9678,8.6248 -35.44104,3.83994 -51.47991,-2.13304 -13.93397,-4.27111 -30.28756,-4.8557 -40.14836,-17.2454 -18.43169,-18.58306 -28.60349,-44.00759 -48.24654,-61.39811 -14.57221,-9.74494 -33.16219,-13.47898 -50.50454,-13.28832 z"
       id="path894"
       inkscape:connector-curvature="0"
       transform="matrix(0.13229167,0,0,0.13229167,0,80.433334)" />
    <path
       style="fill:#d40000;fill-opacity:1;stroke:none;stroke-width:1.42903125;stroke-opacity:1"
       d="m 135.59131,182.88253 c -15.751,6.39607 -35.682776,12.84888 -40.411998,31.50847 -2.396849,10.27197 -6.366423,21.11414 -4.605277,31.67035 11.090675,17.27595 36.711375,8.96036 51.780055,1.376 13.1704,-7.84895 28.0165,-21.36531 25.62488,-38.18472 -4.39782,-12.97739 -18.17022,-19.937 -29.16918,-26.23685 -1.06681,0.0702 -2.18833,-0.90153 -3.21848,-0.13325 z"
       id="path896"
       inkscape:connector-curvature="0"
       transform="matrix(0.13229167,0,0,0.13229167,0,80.433334)" />
    <path
       style="fill:#d40000;fill-opacity:1;stroke:none;stroke-width:1.42903125;stroke-opacity:1"
       d="m -2.1846101,138.95657 c -7.0121016,-0.31542 -14.4655299,5.68458 -11.3792199,13.11248 0.383572,7.50092 6.4956956,19.09215 15.3230113,13.17667 8.6766677,-5.88238 10.2984377,-26.78082 -3.9437914,-26.28915 z"
       id="path898"
       inkscape:connector-curvature="0"
       transform="matrix(0.13229167,0,0,0.13229167,0,80.433334)" />
    <path
       style="fill:#d40000;fill-opacity:1;stroke:none;stroke-width:1.42903125;stroke-opacity:1"
       d="m 457.47224,70.717533 c -12.60851,15.026197 -37.25689,13.163971 -47.34783,31.268437 -4.95592,7.14464 -5.95766,17.96917 2.30264,23.16314 16.73529,11.57426 40.33332,5.40106 55.39729,-6.26038 10.63696,-8.61556 20.16637,-25.971689 9.91112,-38.315905 -4.76492,-5.032258 -13.0804,-13.532354 -20.26322,-9.855292 z"
       id="path900"
       inkscape:connector-curvature="0"
       transform="matrix(0.13229167,0,0,0.13229167,0,80.433334)" />
    <path
       style="fill:#d40000;fill-opacity:1;stroke:none;stroke-width:1.42903125;stroke-opacity:1"
       d="m 221.81046,666.81617 c -12.2395,1.20428 -24.55299,8.19587 -27.59537,20.91912 -3.93891,14.11176 -11.52488,28.60831 -9.29708,43.57429 4.2817,10.96795 19.77188,7.66072 27.81029,3.08972 15.67011,-11.10463 26.42115,-27.73343 37.87491,-42.85419 5.25153,-7.02367 -1.72264,-14.9515 -8.92865,-16.32222 -6.58923,-1.81899 -12.63035,-4.87353 -18.19503,-8.31741 -0.55148,-0.0863 -1.1116,-0.11384 -1.66907,-0.0893 z"
       id="path902"
       inkscape:connector-curvature="0"
       transform="matrix(0.13229167,0,0,0.13229167,0,80.433334)" />
    <path
       style="fill:#d40000;fill-opacity:1;stroke:none;stroke-width:1.42903125;stroke-opacity:1"
       d="m 447.59462,910.81489 c -14.52527,3.56255 -22.17226,18.70642 -28.75926,30.91397 -4.27218,6.92433 -4.25182,16.18618 2.6292,21.40756 14.32382,15.74965 38.11396,23.49248 58.13255,14.37683 10.32112,-4.82675 25.64368,-12.77771 22.28395,-26.49569 -6.48219,-14.13455 -19.25044,-24.94129 -32.30103,-32.96062 -6.88831,-3.30759 -14.27114,-6.75404 -21.98541,-7.24205 z"
       id="path904"
       inkscape:connector-curvature="0"
       transform="matrix(0.13229167,0,0,0.13229167,0,80.433334)" />
    <path
       style="fill:#d40000;fill-opacity:1;stroke:none;stroke-width:1.42903125;stroke-opacity:1"
       d="m 1034.8818,308.227 c -12.6732,11.17027 -30.1197,18.98258 -37.86372,34.73495 -2.26946,11.18859 2.39289,23.21963 8.33412,32.60815 4.818,7.04279 14.0369,6.52281 20.7322,2.81341 14.9815,-2.52401 33.0576,-9.90959 34.8605,-27.21021 2.3264,-17.60246 -8.9685,-34.36556 -22.658,-43.9455 -1.135,0.33306 -2.27,0.66613 -3.4051,0.9992 z"
       id="path906"
       inkscape:connector-curvature="0"
       transform="matrix(0.13229167,0,0,0.13229167,0,80.433334)" />
    <path
       style="fill:#d40000;fill-opacity:1;stroke:none;stroke-width:1.42903125;stroke-opacity:1"
       d="m 847.16796,104.40583 c -8.63912,4.43067 -20.93293,6.27133 -25.46858,16.06265 -1.45025,9.67496 -2.14276,21.44747 3.79866,29.72496 10.10406,5.32732 22.76422,1.11853 32.86772,-2.48964 7.55098,-2.90895 19.54971,-10.99143 13.47532,-20.22972 -6.84363,-7.94491 -13.83712,-16.19736 -21.82343,-22.89241 -0.94185,-0.13447 -1.89171,-0.45288 -2.84969,-0.17584 z"
       id="path908"
       inkscape:connector-curvature="0"
       transform="matrix(0.13229167,0,0,0.13229167,0,80.433334)" />
    <path
       style="fill:#d40000;fill-opacity:1;stroke:none;stroke-width:1.42903125;stroke-opacity:1"
       d="m 53.941152,551.48888 c -4.034937,2.65583 -8.482069,2.83079 -13.29948,3.40232 -10.038631,3.31585 -7.701107,19.87734 0.633574,23.80789 6.809629,3.88583 16.571473,2.1805 18.465764,-6.36924 1.97103,-6.5208 3.783862,-19.81787 -5.799858,-20.84097 z"
       id="path914"
       inkscape:connector-curvature="0"
       transform="matrix(0.13229167,0,0,0.13229167,0,80.433334)" />
    <path
       style="fill:#d40000;fill-opacity:1;stroke:none;stroke-width:1.42903125;stroke-opacity:1"
       d="m 135.68342,793.76271 c -8.97352,2.06278 -10.72009,16.45956 -5.07139,22.62726 10.25302,7.96378 26.548,-7.02395 21.59456,-18.04989 -3.62678,-5.16627 -11.12072,-3.90428 -16.52317,-4.57737 z"
       id="path916"
       inkscape:connector-curvature="0"
       transform="matrix(0.13229167,0,0,0.13229167,0,80.433334)" />
    <path
       style="fill:#d40000;fill-opacity:1;stroke:none;stroke-width:1.42903125;stroke-opacity:1"
       d="m 413.67187,1038.5764 c -7.25943,2.6341 -12.70498,10.9275 -13.51718,18.4128 1.82373,8.8083 13.88227,7.2417 20.4189,6.9349 7.08504,-3.5657 2.17284,-13.6366 0.99703,-19.9748 -1.13088,-3.2687 -4.24849,-6.0121 -7.89875,-5.3729 z"
       id="path918"
       inkscape:connector-curvature="0"
       transform="matrix(0.13229167,0,0,0.13229167,0,80.433334)" />
    <path
       style="fill:#d40000;fill-opacity:1;stroke:none;stroke-width:1.42903125;stroke-opacity:1"
       d="m 1131.4977,297.8749 c -5.5029,7.32372 -18.7709,13.86552 -15.7919,24.78755 6.1193,10.28332 27.3058,9.88056 28.4132,-4.02473 1.5304,-7.83677 -1.9665,-23.62245 -12.6213,-20.76282 z"
       id="path920"
       inkscape:connector-curvature="0"
       transform="matrix(0.13229167,0,0,0.13229167,0,80.433334)" />
    <path
       style="fill:#d40000;fill-opacity:1;stroke:none;stroke-width:1.42903125;stroke-opacity:1"
       d="m 908.70283,46.477031 c -7.38686,1.437948 -19.99279,1.883966 -21.0503,11.412713 1.4586,10.903054 14.89664,9.690541 22.73332,7.418681 7.86376,-0.409364 15.64071,-10.80159 7.13957,-16.269186 -2.56993,-1.776581 -5.69581,-2.71293 -8.82259,-2.562208 z"
       id="path922"
       inkscape:connector-curvature="0"
       transform="matrix(0.13229167,0,0,0.13229167,0,80.433334)" />
    <path
       style="fill:#d40000;fill-opacity:1;stroke:none;stroke-width:1.42903125;stroke-opacity:1"
       d="m 375.33364,8.0857702 c -7.09333,0.073637 -16.1584,10.8494728 -7.29308,15.3592958 8.04325,3.952846 19.92551,-7.824221 11.59413,-14.3572993 -1.26817,-0.8112783 -2.81066,-1.1191511 -4.30105,-1.0019965 z"
       id="path924"
       inkscape:connector-curvature="0"
       transform="matrix(0.13229167,0,0,0.13229167,0,80.433334)" />
    <path
       style="fill:#d40000;fill-opacity:1;stroke:none;stroke-width:0.13229167;stroke-opacity:1"
       id="path936"
       d="m 32.165833,156.38277 c -0.11655,-0.14467 -0.24584,-0.27995 -0.349653,-0.43402 -0.127721,-0.18955 -0.228412,-0.39597 -0.3429,-0.5938 -0.200806,-0.34697 -0.510396,-0.87239 -0.702244,-1.23062 -0.386448,-0.72159 -0.08775,-0.26172 -0.470966,-0.8108 -0.31541,-0.41812 -0.03761,0.0402 0.01982,0.0509 0.254573,0.0476 0.516984,0.0317 0.775507,0.047 0.04166,0.002 -0.08328,-0.006 -0.124922,-0.008 -0.744798,0.0449 -1.169732,0.001 -1.748878,-0.37376 -0.200697,-0.1299 -0.377235,-0.28132 -0.585326,-0.39994 -0.214563,-0.0714 -0.463489,-0.24549 -0.697415,-0.16272 -0.483856,0.29954 1.245289,-0.10423 0.481339,0.0284 -0.07955,0.0138 -0.158082,0.033 -0.237124,0.0495 -0.889119,0.15087 -1.468081,-0.068 -2.220655,-0.39698 -0.01176,-0.007 -0.02266,-0.0151 -0.03529,-0.0199 -0.03829,-0.0145 0.06871,0.0531 0.109578,0.0555 0.834712,0.049 0.883302,0.11732 1.421913,-0.26791 0.895599,-0.90582 -0.453378,-0.46452 -2.347853,-1.80646 -0.043,-0.0305 0.06402,-0.0838 0.09876,-0.12344 0.159979,-0.18247 0.291004,-0.39726 0.485269,-0.54269 0.178658,-0.13374 0.40638,-0.18461 0.609569,-0.27692 0.970733,0.0149 1.940427,0.008 2.910888,0.0353 0.02105,0.0502 1.340448,-0.0168 1.349174,0.013 0.04136,0.14139 -0.327223,-0.0783 -0.441701,0.0144 -0.10022,0.0812 0.257212,0.0194 0.385656,0.031 0.114814,0.0104 0.229386,0.0233 0.344078,0.0349 0.09871,0.013 0.196787,0.0323 0.296117,0.039 0.343491,0.0232 0.688934,0.0173 1.031575,0.0507 0.257398,0.0252 0.697351,0.25869 0.950065,0.36544 0.376364,0.0756 0.759165,0.0841 1.136386,0.16766 0.598109,0.15442 1.078443,0.51489 1.507332,0.94435 0.05218,0.0555 0.105014,0.11048 0.156552,0.16662 0.08219,0.0746 0.142479,0.16822 0.216626,0.24975 0.03239,0.0356 0.06252,0.0743 0.101125,0.10308 0.0078,0.006 -0.0093,-0.017 -0.01393,-0.0256 0.194113,0.1506 0.343196,0.35602 0.48506,0.55474 0.333194,0.39707 0.288318,0.86561 0.231965,1.34136 -1.211703,1.3693 -0.897771,1.39016 -0.90759,-0.79911 0.715752,0.57494 -0.09733,1.58717 -0.813085,1.01223 v 0 c -0.08923,-0.61619 -0.185574,-1.2314 -0.267698,-1.84858 -0.0031,-0.0235 0.0083,-0.0466 0.01242,-0.0699 -0.258838,0.31712 -0.517676,0.63424 -0.776514,0.95136 -0.04046,0.3927 -0.0792,0.39735 -0.0057,0.72841 0.11784,0.53062 0.0065,-0.0618 0.100418,0.27122 0.009,0.032 -0.207256,-0.22169 -0.06553,-0.0753 -0.06917,-0.0757 0.159076,0.18345 0.02152,0.10035 -0.04089,-0.0247 -0.07902,-0.0537 -0.118532,-0.0806 -0.237016,-0.19804 -0.462546,-0.40564 -0.679875,-0.62502 -0.05552,-0.0104 -0.0073,0.0311 -0.06759,0.038 -0.146425,0.0167 -0.301357,-0.036 -0.444824,-0.0459 -0.508301,-0.10724 -1.004644,-0.26589 -1.461366,-0.51792 -0.152835,-0.0549 -0.01948,-0.003 -0.04504,0.0415 -0.01586,0.0275 -0.115303,0.0398 -0.08397,0.0447 0.524347,0.0827 0.905371,-0.0129 0.394797,0.0873 -1.20459,0.19403 -2.43635,0.1576 -3.64512,0.0154 -0.429281,-0.0656 -0.856876,-0.1331 -1.277219,-0.24479 -0.270279,-0.0718 -0.496485,-0.16028 -0.489219,-0.16151 0.244881,-0.0415 0.496528,-0.0151 0.744793,-0.0226 0.135594,-0.0915 0.289563,-0.16038 0.40678,-0.27447 0.145947,-0.14205 0.243688,-0.32656 0.372671,-0.48417 0.0051,-0.006 0.03143,0.003 0.02431,-9.3e-4 -2.141829,-1.16743 -3.35443,-0.75429 -2.390278,-1.66972 0.121938,-0.0854 0.403703,-0.31449 0.580247,-0.32861 0.627322,-0.0502 1.0194,-0.0147 1.556827,0.16116 0.382465,0.1266 1.027436,0.0554 -0.439156,0.0774 0.126857,0.0619 0.284211,-0.0397 0.41552,-0.0508 0.595815,-0.0502 1.098566,-0.11505 1.661771,0.0328 0.585045,0.17325 1.126099,0.44888 1.587488,0.85395 0.08568,0.073 0.167016,0.15146 0.257507,0.21839 0.005,0.004 -0.0045,-0.0123 -0.0093,-0.0163 -0.02679,-0.0232 -0.05497,-0.0448 -0.08434,-0.0646 -0.293196,-0.19754 -0.305436,-0.0676 -0.893776,-0.0806 1.419188,-0.14527 2.213436,0.24235 3.147783,1.24876 0.269896,0.39795 0.561647,0.79548 0.764143,1.23488 0.300755,0.65261 0.528378,1.52386 0.596995,2.24125 0.01826,0.19093 -0.003,0.38359 -0.0045,0.57539 0.465581,1.74044 -1.995768,2.39887 -2.46135,0.65843 z"
       inkscape:connector-curvature="0" />
    <path
       style="fill:#d40000;fill-opacity:1;stroke:none;stroke-width:0.13229167;stroke-opacity:1"
       id="path944"
       d="m 34.180938,138.14577 c 0.135402,-1.13538 0.834904,-2.08222 1.611171,-2.88067 0.05085,-0.11437 0.741503,-0.5509 0.723286,-0.64556 -0.01366,-0.28164 -0.02575,-0.56353 -0.05889,-0.84437 -0.02856,-0.36956 0.04354,-0.73484 0.03327,-1.10393 -0.05022,-0.42747 -0.07515,-0.8578 -0.132657,-1.28431 -0.05957,-0.3222 -0.199017,-0.61999 -0.28488,-0.93677 -0.0978,-0.33193 -0.193918,-0.66205 -0.341657,-0.97569 -0.174878,-0.23789 -0.327604,-0.48826 -0.469657,-0.74665 -0.233595,-0.42204 -0.304949,-0.88271 -0.276273,-1.35822 0.02347,-0.0672 0.01488,-0.23797 0.06993,-0.0874 0.01949,0.0232 0.0298,0.0598 0.05847,0.0696 0.14121,0.0482 0.517057,-0.32303 0.582228,-0.33804 0.212943,-0.049 0.437002,-0.005 0.655504,-0.008 0.08591,-0.14041 0.284483,-0.0189 0.19857,0.1215 v 0 c 0.188653,0.0363 0.374008,0.11685 0.565961,0.10892 0.202333,-0.008 0.485075,-0.37733 0.638926,-0.0937 0.0341,0.14838 0.04383,0.29702 0.03567,0.44909 0.0025,-0.15562 -0.08816,-0.45953 0.106727,-0.14953 0.247853,0.38376 0.465916,0.78761 0.593132,1.22915 0.107493,0.37313 0.184137,0.75219 0.245754,1.13526 0.142947,0.44561 0.291615,0.88826 0.327848,1.35964 0.04034,0.55059 0.0211,1.09843 -0.07143,1.64386 -0.04739,0.33941 -0.07852,0.67916 -0.09998,1.02114 -0.06023,0.48924 -0.169881,0.96721 -0.352987,1.42657 -0.212565,0.46485 -0.48557,0.88583 -0.790373,1.29633 -0.577139,0.84688 -1.183816,1.71955 -2.022493,2.32537 -0.518765,1.0926 -2.063938,0.35896 -1.545174,-0.73364 z"
       inkscape:connector-curvature="0" />
    <path
       style="fill:#d40000;fill-opacity:1;stroke:none;stroke-width:0.13229167;stroke-opacity:1"
       id="path1018"
       d="m 129.92122,172.45377 c -0.83941,0.0299 -1.66101,-0.1855 -2.49889,-0.20769 0.0321,0.004 0.12766,0.003 0.0963,0.0105 -0.21498,0.0511 -0.26693,-0.0228 -0.4454,0.11608 -0.2839,0.22095 -0.39744,0.65588 -0.51883,0.96791 -0.31964,1.0396 -0.53782,2.1225 -0.5522,3.21375 -0.003,0.1925 0.0143,0.38477 0.0215,0.57715 0.0318,0.15892 0.0446,0.32285 0.0954,0.47674 0.2632,0.79697 1.11335,0.84748 1.82071,0.92391 1.02304,0.0432 2.05039,0.013 3.07205,-0.0555 0.68685,-0.0863 0.92125,-0.11415 1.12072,-0.79021 0.15489,-0.61909 0.17206,-1.24894 0.13532,-1.88175 -0.0553,-0.7832 -0.51095,-1.41191 -0.96125,-2.02317 -0.533,-0.72227 -1.13396,-1.38367 -1.73692,-2.04604 -0.0664,-0.0623 -0.13015,-0.1275 -0.19926,-0.18675 -0.0474,-0.0406 -0.0975,-0.0784 -0.14983,-0.11254 -0.2368,-0.15454 -0.20077,0.1401 0.28402,-0.0491 0.0478,-0.0186 -0.009,-0.1021 -0.014,-0.15316 -0.0689,-0.0908 -0.13772,-0.18154 -0.20657,-0.27232 -0.2376,0.30789 -0.67302,-0.0281 -0.43542,-0.33602 v 0 c -0.004,-0.156 -0.008,-0.31201 -0.012,-0.46801 0.0764,-0.0807 0.12201,-0.21275 0.22919,-0.24215 0.74938,-0.20556 1.43727,0.19861 1.98747,0.64507 0.75496,0.67036 1.38198,1.48354 1.95228,2.31311 0.56482,0.93592 0.9534,1.76652 0.97087,2.88302 0.01,0.80361 -0.0122,1.6127 -0.24812,2.38836 -0.0531,0.14164 -0.0968,0.28714 -0.15916,0.42492 -0.36121,0.79758 -1.00592,1.33861 -1.82629,1.62832 -0.18406,0.0517 -0.36601,0.1115 -0.55217,0.15495 -1.34585,0.31409 -2.7687,0.3136 -4.11966,0.0409 -0.64621,-0.19961 -0.88539,-0.2261 -1.46267,-0.59304 -0.9164,-0.58252 -1.46242,-1.46838 -1.68853,-2.51745 -0.0321,-0.26338 -0.0822,-0.52519 -0.0964,-0.79014 -0.073,-1.36722 0.26077,-2.73322 0.87835,-3.94615 0.30069,-0.48396 0.42293,-0.7447 0.82672,-1.14815 0.40094,-0.40061 0.96137,-0.76772 1.54265,-0.82159 0.30586,-0.0283 0.61434,0.001 0.9215,0.002 0.84909,0.1281 1.7472,0.25519 2.47257,0.7485 0.79622,0.38466 0.25223,1.51068 -0.544,1.12602 z"
       inkscape:connector-curvature="0" />
    <path
       style="fill:#d40000;fill-opacity:1;stroke:none;stroke-width:0.13229167;stroke-opacity:1"
       id="path1020"
       d="m 143.86198,181.62595 c -0.28131,0.56332 -0.76584,0.98781 -1.04612,1.55199 -0.13089,0.49749 0.21141,0.67538 0.59888,0.88973 0.42022,0.18275 0.8928,0.31599 1.35702,0.25347 0.0155,-0.002 -0.0346,-0.0364 -0.0202,-0.0425 0.0873,-0.0372 0.18455,-0.0446 0.27681,-0.0669 0.54594,-0.21923 0.58198,-0.6477 0.53696,-1.17187 -0.10034,-0.53416 -0.40984,-0.68754 -0.90412,-0.78749 -0.36509,-0.0372 -0.06,0.0423 -0.57112,-0.19258 -0.54306,0.27105 -0.92638,-0.49695 -0.38333,-0.76801 v 0 c 0.0728,-0.0797 0.12993,-0.17728 0.2184,-0.23911 0.41946,-0.2931 0.9883,-0.1441 1.4477,-0.0531 0.13381,0.0528 0.2735,0.0927 0.40145,0.15844 0.71087,0.36534 1.13109,1.03358 1.25317,1.81028 0.007,0.1552 0.0273,0.31044 0.0199,0.46561 -0.0336,0.70243 -0.33464,1.36314 -0.90215,1.79421 -0.14116,0.10722 -0.30533,0.18018 -0.458,0.27026 -0.16932,0.0485 -0.33296,0.12558 -0.50796,0.14543 -0.96668,0.10964 -1.90416,-0.11472 -2.67118,-0.71357 -0.10588,-0.10223 -0.22041,-0.19619 -0.31764,-0.30669 -0.44094,-0.5011 -0.60896,-1.12614 -0.50071,-1.7799 0.0365,-0.12845 0.0614,-0.26078 0.10959,-0.38534 0.24385,-0.63077 0.74218,-1.15535 1.34067,-1.45727 0.44185,-0.51046 1.16375,0.11441 0.7219,0.62487 z"
       inkscape:connector-curvature="0" />
    <path
       style="fill:#d40000;fill-opacity:1;stroke:none;stroke-width:1.01047778;stroke-opacity:1"
       d="m 964.43971,689.97531 c -10.02615,0.0526 -12.53762,11.88986 -14.17629,19.73194 -1.12343,9.08653 -3.91176,19.13935 0.0434,27.85524 5.48318,10.09741 18.49514,8.2907 28.10167,8.30128 7.98168,-0.75127 20.29681,1.64821 23.98141,-7.78222 1.7329,-7.93762 1.3393,-16.50318 0.4792,-24.46053 -5.17887,-7.81818 -9.96081,-17.51034 -18.76654,-21.82409 -6.39235,-1.5325 -13.11663,-1.53389 -19.66287,-1.82162 z"
       id="path1022"
       inkscape:connector-curvature="0"
       transform="matrix(0.13229167,0,0,0.13229167,0,80.433334)" />
    <path
       style="fill:#d40000;fill-opacity:1;stroke:none;stroke-width:1.01047778;stroke-opacity:1"
       d="m 1086.8496,763.84675 c -6.881,1.18532 -11.1569,9.17665 -11.7093,15.61899 2.1372,7.35973 11.6352,10.2211 18.5596,10.07517 10.0196,-0.53708 15.6175,-14.85281 7.0852,-21.03846 -4.1292,-2.5915 -9.0088,-4.56436 -13.9355,-4.6557 z"
       id="path1024"
       inkscape:connector-curvature="0"
       transform="matrix(0.13229167,0,0,0.13229167,0,80.433334)" />
  </g>
</svg>
