<?xml version="1.0" encoding="UTF-8" standalone="no"?>
<!-- Created with Inkscape (http://www.inkscape.org/) -->

<svg
   xmlns:dc="http://purl.org/dc/elements/1.1/"
   xmlns:cc="http://creativecommons.org/ns#"
   xmlns:rdf="http://www.w3.org/1999/02/22-rdf-syntax-ns#"
   xmlns:svg="http://www.w3.org/2000/svg"
   xmlns="http://www.w3.org/2000/svg"
   xmlns:sodipodi="http://sodipodi.sourceforge.net/DTD/sodipodi-0.dtd"
   xmlns:inkscape="http://www.inkscape.org/namespaces/inkscape"
   width="1024"
   height="1632"
   viewBox="0 0 135.46667 215.9"
   version="1.1"
   id="svg8"
   inkscape:version="0.92.4 (5da689c313, 2019-01-14)"
   sodipodi:docname="blood.svg"
   inkscape:export-filename="C:\Users\panu-\PycharmProjects\nextgame\data\images\decals\blood.png"
   inkscape:export-xdpi="10.173375"
   inkscape:export-ydpi="10.173375">
  <defs
     id="defs2" />
  <sodipodi:namedview
     id="base"
     pagecolor="#ffffff"
     bordercolor="#666666"
     borderopacity="1.0"
     inkscape:pageopacity="0.0"
     inkscape:pageshadow="2"
     inkscape:zoom="0.49481546"
     inkscape:cx="295.49881"
     inkscape:cy="451.07115"
     inkscape:document-units="mm"
     inkscape:current-layer="layer3"
     showgrid="false"
     units="px"
     width="1024px"
     inkscape:window-width="1920"
     inkscape:window-height="1017"
     inkscape:window-x="-8"
     inkscape:window-y="-8"
     inkscape:window-maximized="1"
     inkscape:pagecheckerboard="true" />
  <metadata
     id="metadata5">
    <rdf:RDF>
      <cc:Work
         rdf:about="">
        <dc:format>image/svg+xml</dc:format>
        <dc:type
           rdf:resource="http://purl.org/dc/dcmitype/StillImage" />
        <dc:title></dc:title>
      </cc:Work>
    </rdf:RDF>
  </metadata>
  <g
     inkscape:groupmode="layer"
     id="layer3"
     inkscape:label="lines 1"
     style="display:inline">
    <g
       id="g932"
       transform="matrix(0.56351244,-0.83057525,0.8262693,0.5687316,-84.870217,105.77648)">
      <path
         inkscape:connector-curvature="0"
         d="m 25.5823,131.28493 c -0.40996,2.9967 -1.37193,5.88988 -2.10883,8.81845 -0.76288,2.90812 -1.37256,5.85525 -1.9485,8.8054 -0.6755,3.1204 -1.13377,6.28008 -1.51045,9.44868 -0.37717,2.45418 -0.36648,4.93269 -0.34116,7.40684 0.0316,1.69347 0.21618,1.98491 1.70021,2.65993 2.25953,0.72856 4.53485,1.397 6.76156,2.22435 2.28148,0.92591 4.48322,2.0245 6.80598,2.84763 2.69824,0.90079 5.53615,1.10569 8.35973,1.1205 2.63113,-0.14463 5.27245,-0.2463 7.90946,-0.23076 2.62779,-0.23815 5.00987,0.89012 7.53231,1.30583 0.2032,0.0103 0.50638,0.20487 0.60959,0.0295 0.10145,-0.17221 -0.40877,0.0154 -0.59734,-0.0504 -0.0991,-0.0348 0.20817,-0.0281 0.31075,-0.0502 0.16743,-0.036 0.33252,-0.0826 0.49878,-0.1239 0.29832,-0.0583 0.59667,-0.11653 0.895,-0.17481 0.93942,-1.40373 2.92459,-0.0752 1.98517,1.32852 v 0 c -0.0965,0.4085 -0.0984,0.85185 -0.2895,1.2255 -0.95128,1.85885 -3.19631,1.84458 -4.97809,1.65207 -1.55834,-0.25316 -3.23651,-0.6038 -4.73656,-0.55639 -3.5298,0.12082 -7.03779,0.73725 -10.58161,0.46671 -3.20287,-0.26664 -6.34865,-0.84758 -9.28653,-2.21205 -2.24168,-0.96371 -4.47114,-1.9588 -6.79204,-2.72268 -2.41758,-0.88643 -4.8639,-1.81339 -6.95016,-3.35852 -1.802723,-1.51964 -2.56329,-2.75672 -2.904604,-5.11048 -0.429627,-2.69301 -0.691114,-5.41806 -0.444922,-8.14572 0.417658,-3.28448 1.170781,-6.49293 2.017327,-9.69209 0.675779,-2.97005 1.293981,-5.95251 1.902869,-8.93684 0.7806,-3.19274 1.61031,-6.52683 3.94698,-8.97513 0.70707,-1.5801 2.94165,-0.58014 2.23458,0.99993 z"
         id="path893"
         style="fill:#ff0000;fill-opacity:1;stroke:none;stroke-width:0.20506321;stroke-opacity:1" />
      <path
         inkscape:connector-curvature="0"
         d="m 20.14864,134.76376 c -0.76948,-2.13513 -0.57405,-4.47491 -0.0906,-6.65355 0.3367,-1.445 0.98586,-2.77662 1.69537,-4.06879 0.52769,-0.94213 1.13718,-1.83514 1.73142,-2.73587 0.60125,-1.02652 1.26967,-1.99396 2.04369,-2.89707 0.96048,-1.11378 2.05704,-2.06604 3.27682,-2.88165 1.39202,-0.83519 2.96805,-1.42736 4.606,-1.49947 0.69017,-0.0303 1.38164,-0.0103 2.07246,-0.0154 1.69804,0.14549 3.04184,0.4821 4.54622,1.28556 1.44141,0.91236 2.62143,2.11825 3.5208,3.55994 0.75777,1.33131 0.63096,2.76805 0.38392,4.21245 -0.19127,1.61372 -0.77905,3.11777 -1.46941,4.57464 -0.80473,1.56486 -1.70761,3.07578 -2.56625,4.6109 -0.56924,1.03419 -1.1047,2.08883 -1.43988,3.22301 -0.19257,0.71443 -0.0639,1.4538 -0.0194,2.17873 -0.097,0.0389 0.17479,1.57214 0.0985,1.12428 -0.29186,-0.73422 -1.91948,-0.40191 -1.29091,-0.49037 1.03665,-0.26139 2.09205,-0.24236 3.15478,-0.25784 -0.25903,-0.009 -0.5192,0.003 -0.77708,-0.0223 -0.0418,-0.003 0.0913,0.0384 0.39445,-0.1292 0.35996,-0.19896 0.68314,-0.46735 1.00822,-0.71614 0.7094,-0.58892 1.51806,-1.02244 2.33912,-1.43026 0.40041,-0.21816 0.52251,-0.95641 0.68455,-1.34935 0.6834,-1.69675 1.6074,-3.27037 2.66086,-4.76006 0.96326,-1.11953 1.79935,-2.2991 2.46709,-3.61461 0.74661,-1.61105 1.59893,-3.16762 2.55305,-4.66439 1.15027,-1.77235 2.38296,-3.48899 3.62373,-5.19858 1.34183,-1.95957 2.98731,-3.65388 4.74727,-5.23511 2.26016,-1.95711 4.96906,-3.23771 7.666811,-4.46525 3.12216,-1.35311 6.12301,-2.96049 9.19052,-4.42862 3.28739,-1.56634 6.77405,-2.620368 10.30235,-3.479618 2.49059,-0.52138 4.92864,-1.24452 7.3729,-1.94305 2.19984,-0.60346 4.50572,-0.91785 6.786139,-0.59053 0.27169,0.0391 0.50739,0.20958 0.76109,0.31437 0.30179,0.21361 0.64079,0.38256 0.90536,0.64084 1.34908,1.31702 1.53842,3.294028 1.74041,5.061518 0.20497,2.47728 0.11824,4.966 -0.34621,7.40668 -0.87901,3.38854 -3.4672,5.75618 -5.913169,8.08623 -3.38774,3.1541 -6.98158,6.07814 -10.74277,8.77331 -3.5674,2.57374 -7.55177,4.45369 -11.45287,6.44837 -3.8162,2.03271 -7.51956,4.26391 -11.387241,6.19975 -1.96755,1.07084 -4.19901,1.48151 -6.23531,2.36868 -1.37015,0.79311 -2.54857,1.86507 -3.83961,2.77818 -1.08517,0.75819 -2.31281,1.16403 -3.57892,1.48198 -0.13949,0.0195 -0.27759,0.0559 -0.41838,0.0584 -0.398,0.009 -0.86445,0.19603 -1.19388,-0.0274 -0.30875,-0.2094 0.74692,0.005 1.11892,-0.0235 0.0584,-0.005 0.10128,-0.0711 0.15989,-0.0737 0.12166,-0.005 -0.1812,0.16263 -0.27151,0.24423 -0.76818,0.63583 -1.56077,1.23542 -2.41722,1.74763 -0.60641,0.34367 -1.26601,0.6131 -1.82268,1.03682 -0.64576,0.62137 -1.21277,1.31702 -1.79943,1.99307 -0.48796,0.39263 -0.68517,0.85074 -0.86301,1.42556 -0.29579,1.0383 -0.69631,2.04169 -1.12688,3.03028 -0.12784,0.40121 -0.50072,0.80356 -0.4432,1.25005 0.28269,-0.28003 0.87523,0.4026 1.07939,0.56638 0.73564,0.51856 1.34816,1.20688 2.18096,1.57581 0.95739,0.11944 1.93021,0.048 2.8976,0.1071 1.43917,0.10728 2.82805,0.51405 4.24206,0.77341 1.259,0.23012 2.54411,0.18795 3.81678,0.28412 1.52131,0.0939 2.9715,0.53981 4.40993,1.0056 1.20385,0.39878 2.42592,0.72107 3.59997,1.20432 1.06897,0.43461 2.05326,1.03704 3.013121,1.6698 0.83609,0.54313 1.60464,1.18472 2.25627,1.93906 0.91771,1.03707 1.39844,2.2543 1.55333,3.61432 0.0658,1.3441 -0.40239,2.48914 -1.18956,3.55022 -1.01943,1.12141 -2.31575,1.93161 -3.640671,2.64217 -0.97345,0.42939 -1.977,1.013 -3.06307,1.09884 -0.5574,0.044 -1.11748,0.0423 -1.67623,0.0636 -1.25441,-0.0625 -2.51041,0.0356 -3.76437,0.0776 0.17354,0.009 0.69411,0.0137 0.52062,0.0228 -0.94574,0.0473 -1.93275,-0.0303 -2.87974,-0.0687 -0.76389,-0.14258 -2.44246,0.2347 -2.88778,-0.3494 -0.15937,-0.20908 -0.2474,-0.46402 -0.37111,-0.69604 0.0432,-0.34866 0.0862,-0.69734 0.12938,-1.04601 -0.53015,-0.88195 0.71713,-1.63172 1.24729,-0.74976 v 0 c 0.10556,-0.26551 0.21123,-0.53102 0.31684,-0.79653 -0.0137,-0.21599 -0.17102,-0.58221 0.11019,-0.72167 0.0884,-0.0439 0.38846,-0.0367 0.29121,-0.0536 -1.37266,-0.23876 -0.75918,0.0615 -0.0569,-0.0951 1.60911,-0.1215 3.2246,-0.21179 4.83861,-0.14138 1.21068,0.0672 2.40514,0.22579 3.60131,0.4164 -0.27687,0.0224 -0.55669,0.0214 -0.83065,0.0675 -0.0706,0.012 0.14052,0.0286 0.21163,0.0365 0.50668,0.055 0.88645,-0.36453 1.29362,-0.59567 1.0469,-0.68237 2.12653,-1.33523 3.31292,-1.74641 0.3729,0.0103 0.35594,0.30277 0.26419,-0.37473 -0.16263,-0.61428 -0.41791,-1.20917 -0.8018,-1.71889 -0.43653,-0.45343 -0.93412,-0.81044 -1.50715,-1.07569 -0.86476,-0.42612 -1.7578,-0.79486 -2.65759,-1.14009 -1.10206,-0.36819 -2.20362,-0.74504 -3.3275,-1.04131 -1.26234,-0.30256 -2.54728,-0.48551 -3.83356,-0.65455 -1.34149,-0.17292 -2.67982,-0.36996 -4.01846,-0.56337 -1.32753,-0.23258 -2.6523,-0.48104 -3.98316,-0.694 -1.34967,-0.20723 -2.72283,-0.39112 -3.94756,-1.04025 -1.02378,-0.59148 -1.94145,-1.32773 -2.72778,-2.21504 -0.70593,-0.73195 -1.42587,-1.47392 -1.66273,-2.5005 -0.24786,-1.09155 -0.20546,-2.17761 0.20902,-3.22984 0.3882,-0.95806 0.8624,-1.87456 1.32956,-2.796 0.35774,-0.83847 0.64037,-1.71193 1.16614,-2.46955 0.64059,-0.86267 1.31097,-1.70544 2.09285,-2.44655 0.63588,-0.6248 1.31769,-1.15222 2.08966,-1.60089 0.84892,-0.58278 1.62592,-1.26631 2.52921,-1.76977 0.39461,-0.18246 0.96321,-0.5426 1.3928,-0.60466 0.46625,-0.0673 0.94671,0.009 1.41177,-0.0658 0.34532,-0.0559 -0.83958,-0.12767 -1.04861,0.0416 -0.0278,0.0154 -0.0687,0.0768 -0.0835,0.0482 -0.012,-0.0224 0.1395,-0.13127 0.29114,-0.25693 0.48758,-0.40423 0.9759,-0.80752 1.48406,-1.18615 1.44644,-1.01909 2.91303,-2.00718 4.46766,-2.85637 1.75471,-1.07725 3.21917,-2.55762 4.94675,-3.67889 3.69641,-2.4484 7.537991,-4.67117 11.551281,-6.56298 3.65541,-1.74806 7.3545,-3.47615 10.61476,-5.91407 3.62191,-2.7489 7.1039,-5.6809 10.83562,-8.28413 0.97187,-0.68059 1.9571,-1.34228 2.91993,-2.03561 0.66592,-0.47952 1.68711,-1.10687 2.13165,-1.84946 0.11173,-0.18672 0.1532,-0.40739 0.22989,-0.61107 0.23077,-2.20051 0.0415,-4.4313 0.36139,-6.62922 0.0211,-0.21342 0.0925,-1.75979 0.20277,-1.96186 0.0399,-0.073 0.560019,0.49335 0.610439,0.59237 -0.735959,0.37321 0.2167,-0.17102 0.5152,0.21398 0.1359,0.17534 -0.44061,0.0535 -0.65946,0.0898 -0.968549,0.16074 -1.921749,0.40294 -2.866989,0.66516 -2.41324,0.70049 -4.81367,1.44522 -7.19587,2.24524 -3.17336,1.09407 -6.30966,2.28778 -9.42428,3.53948 -3.20856,1.31173 -6.39138,2.68629 -9.62398,3.93844 -2.38078,0.93724 -4.775891,1.87796 -6.941171,3.26324 -1.63639,1.1438 -3.08636,2.47227 -4.19234,4.15312 -1.22812,1.67277 -2.45797,3.34272 -3.73078,4.98185 -0.96896,1.31087 -1.87577,2.65937 -2.62786,4.10951 -0.78164,1.41427 -1.59297,2.81228 -2.551,4.11681 -0.95698,1.40901 -1.81427,2.87954 -2.75511,4.29881 -0.71054,1.00831 -1.45096,2.01972 -2.53758,2.65415 -0.58637,0.27394 -0.97265,0.83261 -1.47704,1.22222 -1.48981,1.22041 -2.93302,2.00958 -4.94131,1.85524 1.65733,-0.0702 -0.59294,-0.068 -0.89094,-0.16896 -1.44851,0.0576 -2.29653,0.0509 -3.27719,-1.0621 -0.57624,-0.88887 -0.86581,-1.81641 -0.88137,-2.88067 -0.12458,-1.04611 -0.19506,-2.10011 -0.08,-3.1512 0.1881,-1.55449 0.6955,-3.01736 1.38764,-4.42066 0.78322,-1.56929 1.72079,-3.04002 2.64468,-4.52891 0.65105,-1.16318 1.28397,-2.34383 1.65137,-3.6334 0.29264,-0.86759 0.51233,-0.57604 -0.0677,-1.18703 -0.73575,-0.80395 -1.42907,-1.70216 -2.37449,-2.26747 -0.97671,-0.39594 -2.08234,-0.32227 -3.11765,-0.34344 0.17786,-0.007 0.71132,-0.0103 0.53358,-0.0194 -1.10385,-0.0572 -2.20831,0.25963 -3.24393,0.59889 -1.01974,0.42049 -1.9161,0.99703 -2.627,1.85767 -0.72544,0.74988 -1.45739,1.49632 -2.10177,2.31865 -0.5823,0.80829 -1.03821,1.68825 -1.54483,2.54435 -0.55898,0.90304 -0.97759,1.81343 -1.00669,2.89955 -0.12766,2.06183 -0.22758,4.19496 -1.02546,6.12383 0,2.24301 -3.17209,2.24301 -3.17209,0 z"
         id="path911"
         style="fill:#ff0000;fill-opacity:1;stroke:none;stroke-width:0.20506321;stroke-opacity:1" />
      <path
         inkscape:connector-curvature="0"
         id="path913"
         d="m 98.686791,101.16334 c -10.96205,3.1135 -21.54206,7.52122 -31.984291,12.06198 -6.07596,2.71131 -9.27828,8.99674 -12.95801,14.16569 -3.41187,5.13703 -6.18526,11.66836 -12.27568,14.16082 -2.51249,0.48046 -6.66888,0.59087 -6.88899,-2.83217 -0.7065,-4.35141 1.05097,-8.44486 3.37691,-12.09437 0.7859,-1.93747 3.48439,-4.8756 1.15018,-6.71415 -2.93105,-2.91534 -7.68684,-1.77933 -10.26346,1.03768 -2.03509,2.24503 -4.55382,4.90067 -4.57646,8.09665 0.34192,0.81178 1.49444,1.06923 1.00449,2.22671 -2.11719,11.16513 -5.96223,22.17118 -5.48804,33.6913 -1.093658,3.16553 1.78107,3.79633 4.15996,4.47115 6.50548,2.02135 12.71951,5.98655 19.78933,5.2757 2.96198,-0.2722 6.29851,0.22543 9.02264,-1.05929 0.57675,-0.4473 1.8044,-0.54331 1.52415,-1.53222 4.12471,-0.40633 9.04889,0.93323 12.45457,-2.31576 1.395761,-1.25527 -1.1538,-2.49684 -2.03895,-3.12112 -6.71516,-3.84818 -14.96546,-2.75383 -22.0203,-5.54455 -2.50113,-1.41474 -5.15666,-4.54947 -3.51532,-7.56403 1.24072,-3.64571 3.17093,-7.16326 6.55564,-9.2186 4.96732,-3.26302 10.15541,-6.34105 14.9835,-9.88703 9.003891,-6.22725 19.644871,-9.83039 27.954211,-17.11532 3.3554,-2.77182 7.27509,-4.93307 10.36659,-7.97588 0.52103,-2.59514 0.92854,-5.50954 0.19993,-8.06993 -0.13246,-0.14892 -0.34561,-0.17932 -0.5326,-0.14326 z"
         style="fill:#ff0000;fill-opacity:1;stroke:none;stroke-width:0.41442361;stroke-opacity:1" />
      <path
         inkscape:connector-curvature="0"
         d="m 49.1074,172.28819 c 1.20853,-1.63804 3.08357,-2.58004 4.91182,-3.36167 1.21864,-0.44606 2.49627,-0.74381 3.80045,-0.72246 1.61556,0.0264 1.13389,-0.0692 2.13915,0.2375 0.14428,0.0658 0.29332,0.12235 0.43291,0.19772 0.0737,0.0397 0.84855,0.5526 0.77699,0.69284 -1.23619,2.42261 -0.67688,2.51004 -1.7241,2.22877 0.0663,0.0204 -0.512,-0.17927 -0.37491,-0.17085 0.42072,0.0257 0.83185,0.1508 1.25286,0.17141 0.1035,0.005 0.2086,-0.15148 0.29566,-0.0954 0.0673,0.0434 -0.0879,0.13435 -0.13761,0.19726 -0.10625,0.13435 -0.22013,0.26279 -0.3302,0.39419 -1.41028,1.58053 -3.19938,2.73804 -5.03071,3.76836 -0.93761,0.46739 -1.91476,0.89385 -2.95587,1.0634 -0.15183,0.0247 -0.30472,0.0567 -0.45854,0.0528 -0.48551,-0.012 -0.96898,-0.068 -1.45348,-0.10196 -0.24973,-0.6613 -0.64643,-1.28452 -0.74918,-1.98387 -0.0346,-0.23613 0.22591,-0.42235 0.36742,-0.61453 0.22447,-0.30488 0.60627,-0.44762 0.9529,-0.54719 0.0749,-0.023 0.14875,-0.0497 0.2247,-0.0689 0.11533,-0.0293 -0.18694,0.0936 -0.14652,0.009 0.0444,-0.0932 0.11567,-0.17119 0.17904,-0.25255 0.36691,-0.4709 0.46109,-0.54559 0.91375,-1.0296 1.52821,-1.48004 3.30929,-2.69549 5.2436,-3.58354 0.4225,-0.19398 0.85982,-0.35386 1.28974,-0.5308 1.91462,-0.73388 3.93496,-1.00954 5.96924,-0.81009 0.70691,-0.24219 1.34542,0.21186 2.01898,0.25506 0.0819,0.005 0.3277,0.002 0.24598,-0.005 -0.54571,-0.0444 -0.86702,0.005 -0.34055,-0.0538 0.3003,-0.0103 1.057441,-0.22437 1.322331,-0.0697 0.0214,0.012 0.0171,0.047 0.0248,0.0704 1.30141,3.11551 1.80313,2.19408 0.30909,3.66173 -0.772511,0.72638 -1.626871,1.34405 -2.570111,1.82584 -1.06143,0.45159 -2.27286,0.58118 -3.38825,0.24734 -0.0389,-0.0187 -0.43727,-0.19701 -0.43472,-0.25305 0.0442,-0.96612 0.18533,-1.92776 0.36055,-2.87889 0.0103,-0.0574 0.1155,-0.018 0.17387,-0.0219 0.0494,-0.003 0.12887,-0.0446 0.14823,7.7e-4 0.41427,0.96699 0.74446,1.9679 1.1167,2.95185 -1.15054,0.28431 0.20925,-0.0706 -2.04697,-0.19934 -0.11773,-0.007 0.18144,0.15457 0.24964,0.25091 0.0178,0.0252 -0.003,0.0617 -0.007,0.0925 -0.35135,0.13795 -0.1251,0.0279 0.5253,0.0852 0.0697,0.007 -0.13983,0.007 -0.2098,0.007 -0.16897,-9e-5 -0.32253,-0.009 -0.48049,-0.068 -0.1119,-0.5891 0.005,-0.0449 -1.39254,-0.92196 -0.99179,-1.07881 0.53387,-2.48141 1.52564,-1.4026 v 0 c -1.26419,-0.76369 -1.62183,-0.46526 -1.13831,-0.81051 0.26353,-0.11567 0.54842,-0.1316 0.83429,-0.12646 1.18307,0.0218 0.78084,-0.0507 1.42659,0.098 0.27484,0.10779 1.07177,0.41436 0.77676,0.42543 -0.49255,0.0185 -0.96485,-0.21193 -1.45507,-0.2632 -0.0944,-0.0103 -0.32953,0.15663 -0.27344,0.08 0.009,-0.012 0.0259,-0.0178 0.0387,-0.0267 1.61631,3.51196 1.38351,4.14435 1.44204,0.0252 0.002,-0.19052 -0.19694,-0.0375 -0.012,-0.14806 0.26956,-0.0471 0.98427,-0.17849 -0.26484,-0.0391 -0.12887,0.0137 0.25475,0.0495 0.38342,0.0651 0.0523,0.007 0.10505,0.005 0.15766,0.009 0.68599,-0.16862 1.18442,-1.04399 1.76541,-1.41794 0.60357,-0.46856 1.20771,-0.92833 1.92309,-1.21634 0.137261,-0.0554 0.334781,-0.25767 0.421921,-0.13812 0.60987,0.83706 0.98085,1.82438 1.4713,2.73657 -0.38518,0.44748 -1.08351,0.4493 -1.61868,0.55217 -0.682761,0.0629 -1.362431,0.0505 -2.046331,0.012 -0.10899,-0.007 -0.2182,-0.0154 -0.32727,-0.0103 -0.0989,0.003 -0.38526,-0.007 -0.29468,0.0338 0.16948,0.074 0.36645,0.0518 0.54967,0.0776 -1.47709,0.25357 -2.92003,0.67697 -4.31996,1.2104 -2.14535,0.90012 -4.18899,1.99554 -6.24298,3.08439 -0.60721,0.29539 -1.2173,0.57659 -1.83087,0.85744 -0.37884,0.1734 -0.39685,0.21314 -0.75959,0.3326 -0.0242,0.009 0.0439,-0.0257 0.0658,-0.0386 0.14669,-0.026 -0.097,0.0715 -0.0747,-0.026 0.28301,-1.2356 0.55773,0.51264 -0.66823,-2.2642 -0.42678,-0.0202 -0.85489,-0.0214 -1.28033,-0.0608 -0.1143,-0.0103 0.14377,-0.18183 0.23435,-0.2525 0.58096,-0.4536 1.19558,-0.86328 1.81535,-1.26119 1.74744,-1.06056 3.51441,-2.10047 5.37213,-2.9582 0.34135,-0.1424 0.6295,-0.26034 0.9631,-0.40714 0.19098,-0.084 0.36307,-0.2447 0.57145,-0.25556 0.45557,-0.0237 0.90449,0.1263 1.35977,0.15508 0.068,0.005 -0.16571,-0.0727 -0.17198,-0.11087 -0.12629,-0.89586 -0.0478,-0.37746 -1.33229,2.26225 -0.0327,0.0674 0.10214,0.11585 0.1239,0.18754 0.0435,0.14344 -0.42026,0.14755 -0.42337,0.17103 -0.97109,0.17085 0.18892,-0.0632 0.11995,0.0992 -0.0665,0.15645 -0.3382,0.0387 -0.50552,0.0694 -0.72147,0.13195 -1.42207,0.35776 -2.09886,0.63806 -0.90338,0.39131 -1.78611,0.81384 -2.67272,1.24146 -0.43842,0.21145 -1.19794,0.58395 -1.66732,0.75906 -0.2113,0.0788 -0.43177,0.13058 -0.64766,0.19574 -1.59799,1.57681 -3.82794,-0.6831 -2.22993,-2.25991 z"
         id="path915"
         style="fill:#ff0000;fill-opacity:1;stroke:none;stroke-width:0.20506321;stroke-opacity:1" />
      <path
         inkscape:connector-curvature="0"
         d="m 17.698429,166.31263 c -0.07237,-0.21902 -0.16876,-0.43153 -0.217126,-0.65708 -0.251902,-1.17489 -0.100882,-2.46294 0.316891,-3.58155 0.09202,-0.24641 0.219776,-0.47797 0.329664,-0.71696 0.317154,-0.56554 0.708594,-1.09524 1.260132,-1.45516 0.18345,-0.11978 0.36944,-0.25809 0.58429,-0.30072 0.4351,-0.0864 0.88578,-0.10796 1.32841,-0.0788 0.15637,0.0103 0.28534,0.12955 0.42801,0.19445 0.0742,0.0478 0.14957,0.0939 0.22255,0.14343 0.2363,0.16057 -0.0329,-0.0538 -0.052,-0.0545 -0.23619,-0.009 -0.47259,0.0103 -0.70889,0.0154 0.0132,0.009 0.0237,0.0267 0.0397,0.0274 0.63602,0.0235 -0.0541,-0.4581 1.37692,0.17017 0.6146,0.26983 0.77909,1.08458 0.90417,1.65019 0.13555,1.1108 -0.16862,2.22529 -0.85,3.11859 -0.15132,0.19837 -0.33612,0.36873 -0.50417,0.5531 -1.13319,0.9286 -1.89789,1.09733 -3.397484,0.86917 -0.216536,-0.0329 -0.68505,-0.31968 -0.889282,-0.43648 -0.667266,-0.47079 -1.124855,-1.2113 -0.863125,-2.07125 0.05763,-0.18932 0.231925,-0.32072 0.347887,-0.48107 0.635949,-0.32053 0.282479,-0.22781 1.072992,-0.22478 0.767586,-0.78959 1.884222,0.29595 1.116642,1.08553 v 0 c 0.0463,0.49067 -0.0863,0.36967 0.15822,0.51476 0.28718,-0.39976 0.31176,-0.3175 0.22297,-0.97361 -0.0232,-0.17119 -0.17904,-0.31322 -0.1804,-0.48602 -4.1e-4,-0.0456 0.0568,-0.03 0.0765,-0.03 0.30188,0.0475 0.7795,-0.25759 -0.637032,0.009 -0.0832,0.0154 0.100142,0.16999 0.184682,0.17436 0.0652,0.003 0.12829,-0.0245 0.19243,-0.0368 0.52452,-0.33593 0.80493,-0.86978 1.01612,-1.44315 0.0252,-0.0288 0.042,-0.10453 0.0756,-0.0864 0.68968,0.37458 -0.75443,0.11858 0.55601,0.57168 0.30788,0.10642 1.28762,0.026 0.9716,0.10539 -0.0574,0.0137 -0.11275,0.0358 -0.16919,0.0536 -0.94105,0.0286 -0.91561,0.079 -1.65305,-0.20894 -0.12324,-0.0482 -0.10977,-0.0636 -0.11786,0.005 0.41913,0.26198 0.27178,0.21705 1.17239,0.005 0.14524,-0.0343 0.32289,-0.4427 0.22876,-0.14652 -0.0317,0.0997 -0.0624,0.19978 -0.0936,0.29968 -0.27874,1.20125 -0.42188,2.4335 -0.78888,3.61158 0.20696,2.16486 -2.854613,2.45755 -3.061577,0.29271 z"
         id="path917"
         style="fill:#ff0000;fill-opacity:1;stroke:none;stroke-width:0.20506321;stroke-opacity:1" />
      <path
         inkscape:connector-curvature="0"
         d="m 35.29988,108.91107 c -0.42186,-0.59683 -0.69447,-0.91601 -0.9674,-1.64448 -0.5702,-1.52189 -0.66536,-3.2049 -0.50794,-4.80823 0.0605,-0.61693 0.19922,-1.2237 0.29886,-1.83554 0.77921,-3.411828 2.53957,-6.427178 4.44238,-9.317988 1.38378,-1.98727 2.82962,-3.9369 4.49695,-5.6965 0.90608,-0.88722 1.92541,-1.71121 3.18014,-2.02966 0.23047,-0.0584 0.46872,-0.0804 0.70308,-0.12064 1.47373,0.0423 3.00355,0.0994 4.36739,0.73202 0.26596,0.12338 0.51447,0.28131 0.77172,0.42195 0.25145,0.1988 0.5259,0.3715 0.75433,0.59636 1.15118,1.13319 1.62879,2.66931 1.7952,4.23862 0.0483,0.45521 0.0463,0.91437 0.0694,1.37155 -0.0641,2.83908 -0.93964,5.55618 -2.33085,8.01819 -0.28055,0.49648 -0.60438,0.96722 -0.90656,1.450838 -1.54372,2.31425 -3.63024,4.12737 -5.86079,5.74791 -1.65481,1.17921 -3.46737,2.08998 -5.35521,2.82697 -0.068,0.0274 -1.81418,0.65925 -1.86335,0.47217 -0.0274,-0.10453 0.0812,-0.20031 0.12167,-0.30043 -0.57739,-0.71785 -1.15479,-1.43568 -1.7322,-2.15352 -0.031,-0.042 0.31264,-0.14446 0.27542,-0.0653 -0.0403,0.0855 -0.12493,0.146 -0.1616,0.23307 -0.0994,0.23575 -0.22781,0.4725 -0.24356,0.72785 -0.0154,0.25486 0.10162,0.50049 0.15234,0.75075 0.3871,0.59936 0.66001,0.6698 1.47644,0.5496 0.1311,-0.0194 0.29977,-0.0744 0.34416,-0.1993 0.20764,-0.58431 0.2495,-1.21485 0.37426,-1.82229 0.40147,0.92784 0.0588,0.54272 -1.89307,1.26603 -0.13075,0.0485 0.17683,-0.21561 0.26524,-0.32342 -0.40418,-0.51318 0.32157,-1.08479 0.72575,-0.5716 v 0 c 0.12835,-0.0685 0.50753,-0.28416 0.38492,-0.20584 -0.60682,0.38755 -1.22559,0.75611 -1.83837,1.13415 0.0516,0.1556 0.0694,0.0996 0.037,0.17279 0.0913,-0.64933 0.0802,-1.32151 0.27397,-1.94797 0.0451,-0.14566 0.24737,-0.20171 0.39796,-0.22522 0.9865,-0.15406 1.38214,-0.007 1.96439,0.69106 0.0775,0.28649 0.23532,0.56271 0.23227,0.85944 -0.009,0.79621 -0.56652,1.44084 -1.29514,1.63028 -0.69905,-0.6797 -1.50218,-1.26666 -2.09714,-2.03912 -0.0937,-0.12167 0.13332,-0.27711 0.21132,-0.40935 0.37514,-0.63525 1.08176,-0.99578 1.68697,-1.36662 1.55676,-0.8213 3.22376,-1.46331 4.62125,-2.557 0.67638,-0.53854 0.86849,-0.66602 1.49959,-1.27445 1.15862,-1.11697 2.14537,-2.393738 3.00397,-3.752608 1.40968,-2.31424 2.6757,-4.74241 3.20712,-7.42594 0.0946,-0.66731 0.409,-1.92478 0.007,-2.56939 -0.1383,-0.22196 -0.35968,-0.31688 -0.573,-0.44654 -0.50801,-0.20154 -1.01396,-0.35263 -1.54401,-0.48657 -0.17664,-0.0447 -0.3532,-0.0898 -0.53078,-0.13041 -0.15183,-0.0348 -0.57633,0.005 -0.4573,-0.096 0.15611,-0.13178 0.40807,-0.0231 0.61209,-0.0348 -0.079,-0.0576 -0.14411,-0.15988 -0.24159,-0.16605 -0.35272,-0.0223 -0.85264,0.89462 -1.01905,1.08868 -1.21698,1.914 -2.35611,3.87657 -3.61108,5.76684 -0.50143,0.79299 -1.0434,1.6283 -1.50465,2.44576 -0.98265,1.74143 -1.81857,3.56406 -2.4485,5.462928 -0.33212,1.10373 -0.51701,1.62707 -0.74899,2.74427 -0.25397,1.22314 -0.31819,2.46684 -0.47797,3.70243 0.65054,1.7995 -1.89433,2.71948 -2.54486,0.92 z"
         id="path923"
         style="fill:#ff0000;fill-opacity:1;stroke:none;stroke-width:0.20506321;stroke-opacity:1" />
      <path
         inkscape:connector-curvature="0"
         d="m 91.232211,169.66152 c -0.21453,0.0103 -0.4288,0.0303 -0.64357,0.031 -0.62135,0.002 -1.24207,-0.0408 -1.86332,-0.0524 -1.15582,-0.0219 -2.31203,-0.0353 -3.46795,-0.0519 -1.04497,0.007 -2.03142,-0.0225 -3.10578,0.092 -0.70055,0.0745 -0.91777,0.13726 -1.58945,0.27901 -0.33809,0.11447 -1.77512,0.42041 -1.89356,0.82929 0.19777,1.11991 0.46787,2.22941 0.78699,3.32124 0.45293,1.32347 1.16764,2.57763 2.25656,3.48321 0.20891,0.17373 0.44325,0.31437 0.66488,0.47154 0.9742,0.57551 2.06132,0.83275 3.18909,0.82913 1.00628,-0.003 0.95076,0.2649 0.98814,-0.14994 2.54709,-0.28491 5.09094,-0.59611 7.64037,-0.86183 1.34248,-0.194 2.74191,-0.12766 4.05859,-0.48611 0.54846,-0.23357 0.50971,-1.02901 0.54374,-1.5342 0.009,-0.97731 0.032,-1.98158 -0.34468,-2.89857 -0.41223,-0.69231 -1.03578,-0.95211 -1.78156,-1.15061 -1.53282,-0.2343 -3.09499,-0.17945 -4.64072,-0.15697 0.0446,0.007 0.17863,0.0194 0.13367,0.0204 -0.20965,0.003 -1.56499,-0.002 -1.8072,-0.0326 -0.65798,-0.0829 -1.21348,-0.3069 -1.84019,-0.51613 -1.23198,0.81492 -2.38445,-0.92736 -1.15248,-1.74228 v 0 c 0.2146,-0.33612 0.36579,-0.72243 0.6438,-1.00833 1.2566,-1.2924 3.65292,-0.89773 5.21349,-0.93791 1.9284,0.12835 3.85794,0.39691 5.59825,1.2964 1.382499,0.79642 2.362859,1.61707 3.070749,3.08426 0.0941,0.23608 0.20271,0.46686 0.28203,0.70828 0.40086,1.21981 0.41438,2.52507 0.27479,3.78875 -0.31751,1.60467 -0.7659,2.76916 -2.08117,3.82307 -0.488989,0.32163 -0.599779,0.41789 -1.127479,0.67194 -1.07038,0.51534 -2.22287,0.83927 -3.36184,1.16003 -1.11005,0.25357 -1.35964,0.32847 -2.50988,0.51468 -1.84827,0.29918 -3.71574,0.4092 -5.58429,0.48966 -0.80914,-0.002 -1.61884,0.026 -2.42741,-0.005 -2.17602,-0.0812 -4.29276,-0.75199 -6.06863,-2.0126 -0.32763,-0.28239 -0.67434,-0.54407 -0.98291,-0.84716 -1.45845,-1.43259 -2.39102,-3.27568 -2.83802,-5.25708 -0.27379,-1.62792 -0.44469,-3.30323 -0.17378,-4.9438 0.0792,-0.25108 0.13675,-0.51 0.23734,-0.75327 0.55364,-1.33815 1.72569,-2.20741 2.98865,-2.82535 0.317,-0.13007 0.62824,-0.27503 0.951,-0.38992 2.30657,-0.82118 4.75711,-0.91936 7.18351,-0.79639 0.45768,0.048 0.91852,0.0718 1.37304,0.14378 1.49231,0.23614 3.06061,0.74262 4.27678,1.67198 0.17721,0.13538 0.32107,0.30966 0.4816,0.46449 1.58093,1.0968 0.0298,3.33256 -1.55112,2.23575 z"
         id="path931"
         style="fill:#ff0000;fill-opacity:1;stroke:none;stroke-width:0.20506321;stroke-opacity:1" />
      <path
         inkscape:connector-curvature="0"
         d="m 111.3754,177.51534 c -0.12681,0.0221 -1.51803,0.0975 -1.49849,0.16297 0.12989,0.43561 0.89087,-0.18557 0.28683,0.0829 -0.0464,0.0206 -0.0761,0.0673 -0.11396,0.1011 -0.15577,0.54676 -0.10333,1.25533 0.12664,1.77986 0.0494,0.11259 0.13143,0.20764 0.19717,0.31146 0.0929,0.0713 0.17712,0.1556 0.27888,0.21359 0.75124,0.4276 1.85126,0.45495 2.68907,0.48626 -0.0805,-0.007 -0.32184,-0.0103 -0.24177,-0.0213 0.52501,-0.0756 0.5228,0.0593 0.99834,-0.13435 0.49139,-0.20014 0.74717,-0.61134 1.02406,-1.03341 0.24762,-0.46901 0.44662,-0.97455 0.49383,-1.50811 7.8e-4,-0.012 0.0548,-0.43398 -0.10196,-0.4825 -0.0552,-0.0171 -0.11156,0.0302 -0.16742,0.0454 -0.47254,0.13418 -0.975,0.11739 -1.46076,0.13932 -0.26077,0.012 -0.52201,0.0171 -0.78214,0.0382 -0.0679,0.005 0.27171,0.0154 0.20389,0.0103 -0.23678,-0.0188 -0.4739,-0.0336 -0.71082,-0.0504 -0.88544,-0.14155 -0.83849,-0.16982 -1.10035,-1.00341 -0.84039,0.72741 -1.86913,-0.46107 -1.02872,-1.1885 v 0 c 0.0338,-1.05466 -0.0514,-1.04705 0.97061,-1.4398 0.27966,-0.0523 0.55501,-0.13966 0.83901,-0.15663 1.70801,-0.1023 3.63701,-0.0691 5.12557,0.91689 0.31695,0.20997 0.57933,0.49255 0.869,0.73882 0.19995,0.31104 0.44072,0.59935 0.59988,0.93311 0.58322,1.22298 0.44546,2.71414 -0.068,3.93227 -0.14257,0.33829 -0.34504,0.64817 -0.51757,0.97225 -0.62399,0.78262 -0.71423,1.00512 -1.5321,1.59746 -0.77745,0.56309 -1.79923,1.02348 -2.77138,1.08256 -0.59347,0.036 -1.18908,-0.012 -1.78363,-0.0175 -0.31267,-0.0392 -0.62856,-0.0584 -0.93803,-0.1179 -1.27512,-0.24524 -2.5439,-0.81665 -3.44485,-1.7737 -0.22903,-0.24332 -0.40602,-0.53084 -0.60903,-0.79625 -0.37469,-0.75224 -0.55325,-0.97484 -0.70256,-1.81064 -0.17351,-0.97136 -0.0679,-2.05421 0.34588,-2.95432 0.15097,-0.32856 0.37767,-0.61674 0.56651,-0.92513 0.50652,-0.46206 0.95291,-0.99617 1.66382,-1.16248 1.23593,-0.28915 2.53494,-0.27372 3.61003,0.42951 1.84031,0.93016 0.52487,3.53276 -1.31546,2.60261 z"
         id="path933"
         style="fill:#ff0000;fill-opacity:1;stroke:none;stroke-width:0.20506321;stroke-opacity:1" />
      <path
         inkscape:connector-curvature="0"
         d="m 120.4814,86.350772 c -0.41244,0.23149 -0.94776,0.0646 -1.36284,0.27005 -0.0811,0.0401 0.32861,0.0865 0.24411,0.11893 -0.24929,0.0958 -0.53166,0.0529 -0.7957,0.0929 -0.78351,0.11841 -0.79085,0.14788 -1.54955,0.36822 -1.05423,0.41306 -2.17211,0.98521 -2.75511,2.01071 -0.0963,0.16931 -0.15731,0.35627 -0.23585,0.53438 -0.34057,1.37177 -0.18893,2.80803 -0.0725,4.20095 0.0274,0.16108 0.0393,0.32551 0.0824,0.48306 0.0233,0.0853 0.0529,0.17623 0.11533,0.23907 0.10179,0.10265 0.2451,-0.0977 0.28328,-0.12201 0.10265,-0.0656 0.35077,-0.0536 0.32246,-0.1721 -0.0344,-0.14412 -0.27103,-0.11996 -0.40655,-0.18 2.04928,-0.55303 3.71602,-1.9184 5.28639,-3.2842 1.44623,-1.35978 2.67766,-2.93412 3.69572,-4.63545 0.0449,-0.10539 0.0984,-0.20754 0.13486,-0.31613 0.0593,-0.17656 -0.13469,0.14275 -0.33785,0.1556 -0.15508,0.0103 -0.30907,-0.0312 -0.46323,-0.05 -0.22145,-0.0271 -0.44232,-0.0588 -0.66349,-0.0881 -0.77232,-0.10248 -1.54433,-0.20408 -2.32329,-0.23904 -0.23262,-0.0103 -0.46969,0.0286 -0.69839,-0.0154 -0.12921,-0.0247 0.50544,0.0235 0.39225,-0.0434 -0.15423,-0.0913 -0.35731,-0.0278 -0.53596,-0.0416 -0.26615,-0.0439 -0.41069,-0.0274 -0.62274,-0.19193 -0.0867,-0.0673 -0.13555,-0.17775 -0.22714,-0.23836 -0.11499,-0.0763 -0.2533,-0.10916 -0.37993,-0.16383 -0.45482,1.10654 -2.01971,0.46334 -1.56489,-0.6432 v 0 c -0.0211,-0.26524 -0.10367,-0.53267 -0.0634,-0.79571 0.12698,-0.83266 0.75763,-1.28236 1.46138,-1.60301 0.24651,-0.0727 0.48467,-0.18484 0.7395,-0.21808 2.03765,-0.26582 4.10506,-0.18578 6.02264,0.59426 0.70753,0.3788 1.21902,0.58749 1.8018,1.16022 1.06648,1.04812 1.40842,2.41526 1.21903,3.86495 -0.0721,0.32921 -0.11978,0.66471 -0.21617,0.98761 -0.6588,2.20644 -2.12198,4.08051 -3.68756,5.71773 -0.40017,0.35293 -0.7823,0.72746 -1.20051,1.05879 -1.92443,1.52468 -4.18404,2.58593 -6.64055,2.8275 -0.69013,-0.0353 -1.38697,-0.003 -2.07039,-0.1059 -0.36439,-0.0545 -0.71485,-0.19687 -1.04488,-0.36073 -1.2411,-0.61615 -1.94214,-1.74702 -2.32733,-3.03351 -0.48368,-2.09313 -0.58627,-4.02665 0.0656,-6.10938 0.38113,-0.93157 0.44973,-1.24683 1.03427,-2.08026 0.93455,-1.33246 2.25913,-2.27085 3.73712,-2.91482 0.37979,-0.1299 0.75258,-0.28229 1.13938,-0.38945 0.66848,-0.18521 1.53829,-0.33466 2.23766,-0.3362 1.20874,-0.002 2.27238,-0.0202 3.3399,0.52551 2.23534,0.78427 1.12624,3.94555 -1.10913,3.16128 z"
         id="path935"
         style="fill:#ff0000;fill-opacity:1;stroke:none;stroke-width:0.20506321;stroke-opacity:1" />
      <path
         inkscape:connector-curvature="0"
         d="m 138.50514,73.444762 c -0.84229,0.74655 -1.80353,1.34192 -2.65046,2.08662 -0.19164,0.21518 -0.13795,0.21974 0.0708,0.31863 0.19262,0.0913 0.37939,0.19457 0.57092,0.28812 0.40656,0.17721 0.82664,0.32755 1.27188,0.36648 0.13847,0.012 0.49592,0.11876 0.41676,0.005 -0.0665,-0.0958 -0.83797,0.007 -0.19681,-0.0651 0.0504,-0.0382 0.10967,-0.067 0.15097,-0.11464 0.41537,-0.4802 0.67067,-1.54401 0.78447,-2.15482 0.0452,-0.30868 0.0584,-1.27412 -0.35986,-0.5545 0.0828,0.0577 -0.32736,0.10042 -0.24118,0.0948 0.22891,-0.0154 0.48205,0.0423 0.68518,-0.0643 0.0919,-0.0482 -0.19287,-0.0848 -0.27104,-0.15303 -0.34674,-0.30254 -0.38938,-0.5977 -0.57916,-1.04133 -0.5148,0.24092 -0.85554,-0.4871 -0.34073,-0.72804 v 0 c -0.0175,-0.20782 -0.14017,-0.82879 6e-4,-1.12006 0.20106,-0.4158 1.48028,-0.33318 1.9721,-0.23826 0.21712,0.042 0.42551,0.12047 0.63828,0.18077 0.61266,0.33512 0.83072,0.37758 1.28427,0.95299 0.71662,0.90918 0.85069,2.07361 0.764,3.1876 -0.049,0.29458 -0.0773,0.59339 -0.1472,0.88375 -0.30118,1.25188 -0.96897,2.48843 -2.01181,3.27575 -0.2587,0.19532 -0.5596,0.32737 -0.83941,0.49106 -0.27826,0.0888 -0.54446,0.23458 -0.8348,0.26652 -1.61977,0.17826 -3.16078,-0.19487 -4.49321,-1.11428 -0.49461,-0.43098 -0.78728,-0.62399 -1.1455,-1.1937 -0.69281,-1.10181 -0.71367,-2.33017 -0.2536,-3.52074 0.15234,-0.27194 0.27639,-0.5619 0.45725,-0.8158 0.71394,-1.00222 1.86861,-1.77304 3.04209,-2.12258 0.22242,-0.0663 0.45638,-0.0847 0.68457,-0.12699 1.93073,-1.11063 3.5014,1.61984 1.57068,2.73047 z"
         id="path937"
         style="fill:#ff0000;fill-opacity:1;stroke:none;stroke-width:0.20506321;stroke-opacity:1" />
      <path
         inkscape:connector-curvature="0"
         d="m 57.49163,71.115472 c -0.21256,0.93202 -0.69922,1.77374 -1.16859,2.59792 -0.0206,0.0307 -0.0247,0.0915 -0.0615,0.0922 -0.009,1.8e-4 -0.1923,-0.53032 -0.31077,-0.58349 -0.33489,-0.15029 -0.75264,-0.0454 -0.38918,-0.12167 0.45415,-0.0973 0.55114,-0.15783 0.62327,-0.59212 0.0204,-0.49992 0.009,-1.04366 -0.11739,-1.53336 -0.0103,-0.0195 -0.0195,-0.0768 -0.0315,-0.0583 -0.0571,0.0871 0.0269,0.21853 0.0943,0.29788 0.31384,0.36919 0.70779,0.24077 1.20624,0.16366 0.0884,-0.0137 0.14326,-0.10711 0.21496,-0.16057 0.0595,-0.0757 0.1928,-0.2249 0.20051,-0.32741 10e-4,-0.012 -0.17928,-0.003 -0.3288,-0.0194 -0.19413,-0.0204 -0.38709,-0.0507 -0.58065,-0.0761 -0.25782,0.59318 -1.09668,0.22855 -0.83886,-0.36461 v 0 c -0.22241,-0.14069 -0.49014,-0.23534 -0.65526,-0.4402 -0.1733,-0.21501 0.30064,-0.60619 0.38346,-0.73663 0.13418,-0.0954 0.24205,-0.2494 0.40252,-0.28628 1.46079,-0.33574 2.03234,0.11396 2.60902,1.3408 0.35887,1.14104 0.3483,2.06615 -0.13932,3.18281 -0.1023,0.16879 -0.18811,0.34864 -0.30671,0.50636 -0.47845,0.63628 -1.17725,0.9892 -1.95614,1.0815 -0.50203,0.0641 -0.72919,0.12081 -1.32735,-0.0408 -0.75476,-0.20379 -1.0147,-1.07418 -1.05417,-1.74775 0.0103,-0.17443 0.003,-0.35051 0.0303,-0.52331 0.15646,-1.04161 0.71528,-1.99988 1.48301,-2.70544 0.74543,-1.42741 2.76409,-0.37319 2.01865,1.0542 z"
         id="path939"
         style="fill:#ff0000;fill-opacity:1;stroke:none;stroke-width:0.20506321;stroke-opacity:1" />
      <path
         inkscape:connector-curvature="0"
         id="path941"
         d="m 47.63056,86.880562 c -1.23478,0.36639 -1.67234,1.89296 -2.44972,2.80139 -3.12173,4.90074 -6.47542,9.95691 -7.36331,15.822168 0.50342,1.12768 1.81535,-0.4736 2.62939,-0.66825 5.16226,-2.67932 8.4229,-7.980508 10.04656,-13.413248 0.22629,-1.2016 0.95096,-3.0509 -0.4043,-3.82088 -0.74996,-0.40238 -1.59698,-0.72555 -2.45862,-0.72118 z"
         style="fill:#ff0000;fill-opacity:1;stroke:none;stroke-width:0.20721181;stroke-opacity:1" />
      <path
         inkscape:connector-curvature="0"
         id="path943"
         d="m 122.4324,85.904402 c -2.91196,0.34595 -6.35011,0.65697 -8.34797,3.11424 -0.64585,1.59247 -0.8471,3.5447 -0.22865,5.16855 0.83198,0.66738 1.90354,-0.33986 2.71116,-0.65118 2.91686,-1.80113 5.40509,-4.39925 7.11731,-7.33455 0.019,-0.70393 -0.85306,-0.32794 -1.25185,-0.29706 z"
         style="fill:#ff0000;fill-opacity:1;stroke:none;stroke-width:0.20721181;stroke-opacity:1" />
      <path
         inkscape:connector-curvature="0"
         id="path945"
         d="m 138.49172,73.385882 c -1.05036,0.4713 -2.14504,1.19354 -2.79898,2.15023 0.14857,1.02298 1.72022,1.37134 2.55696,0.96727 0.65132,-0.72837 1.23095,-2.01275 0.72727,-2.94105 -0.12372,-0.12903 -0.30765,-0.19474 -0.48525,-0.17645 z"
         style="fill:#ff0000;fill-opacity:1;stroke:none;stroke-width:0.20721181;stroke-opacity:1" />
      <path
         inkscape:connector-curvature="0"
         id="path947"
         d="m 83.911641,169.37433 c -1.72341,0.19724 -3.78883,-0.0735 -5.21671,1.08948 -0.5412,1.13407 0.26061,2.44484 0.4901,3.58654 0.75541,2.83341 3.3843,5.29347 6.42722,5.10908 4.15421,-0.4238 8.33014,-0.81714 12.45293,-1.44767 1.45173,-0.60036 0.93322,-2.5243 0.91344,-3.74761 -0.012,-1.61864 -1.61382,-2.50591 -3.06973,-2.47966 -2.45996,-0.16348 -4.95324,0.0291 -7.37383,-0.51034 -0.61044,0.0543 -1.62355,0.0338 -1.35012,-0.88955 8.3e-4,-1.52634 -2.14738,-0.47466 -3.11624,-0.71576 z"
         style="fill:#ff0000;fill-opacity:1;stroke:none;stroke-width:0.20721181;stroke-opacity:1" />
      <path
         inkscape:connector-curvature="0"
         id="path949"
         d="m 112.47046,177.30059 c -0.95121,0.0519 -2.85418,-0.22139 -2.83622,1.21735 -0.0639,1.2905 0.9794,2.28698 2.24372,2.30605 1.28686,0.21721 2.93378,0.0761 3.48091,-1.33433 0.35294,-0.56764 1.15219,-1.9504 -0.007,-2.08345 -0.95377,-0.12372 -1.92151,-0.10127 -2.88114,-0.10556 z"
         style="fill:#ff0000;fill-opacity:1;stroke:none;stroke-width:0.20721181;stroke-opacity:1" />
      <path
         inkscape:connector-curvature="0"
         d="m 79.088711,145.9863 c -0.64957,0.20156 -1.33148,0.2658 -2.00683,0.31231 -0.26617,0.0183 -0.53438,0.009 -0.79947,0.0382 -0.0175,0.002 0.009,0.0343 0.012,0.0514 -0.22327,0.0224 -0.44656,0.0447 -0.66983,0.0672 -1.44008,0.17017 -1.91536,0.86298 -2.55751,2.07173 -0.23716,0.55447 -0.46675,1.12576 -0.54071,1.7297 -0.012,0.0958 -0.0603,0.4385 0.0699,0.55274 0.0392,0.0343 0.10247,0.0197 0.15354,0.0296 0.63009,-0.05 1.29464,-0.007 1.91123,-0.16862 0.0271,-0.007 -0.005,-0.056 -0.009,-0.084 0.27221,-0.044 0.54441,-0.0881 0.81662,-0.13195 1.50768,-0.29164 2.93084,-0.85233 4.1683,-1.76199 0.34203,-0.28359 0.64466,-0.61471 0.87158,-0.99828 0.0218,-0.037 0.17503,-0.27163 0.0946,-0.34244 -0.0725,0.0519 -0.0555,0.16725 -0.11875,0.22295 -0.20247,0.17899 -1.02348,-0.0692 -1.23881,-0.11567 -0.82233,-0.17437 -1.59919,-0.47917 -2.36276,-0.8217 -0.40456,-0.16742 -0.67098,0.0446 0.39213,-0.0583 0.0357,-0.003 -0.0658,-0.0339 -0.0869,-0.0629 -0.025,-0.0343 -0.0305,-0.0792 -0.0457,-0.11893 -0.20062,-0.30412 -0.47717,-0.40013 -0.80168,-0.57455 -0.2874,0.39863 -0.85115,-0.009 -0.56376,-0.40642 v 0 c -0.31714,-0.69629 -0.40702,-0.70709 0.12407,-1.29259 0.0994,-0.0751 0.36922,-0.31341 0.53301,-0.32883 0.67755,-0.0637 1.28551,-0.012 1.93027,0.158 0.85891,0.15406 1.72244,0.2956 2.53895,0.61988 1.17065,0.50944 2.10071,1.07604 2.4294,2.40155 0.024,0.1922 0.066,0.383 0.0721,0.57661 0.0386,1.23574 -0.60415,2.30152 -1.37902,3.21042 -0.21291,0.21056 -0.41356,0.43426 -0.63871,0.63165 -1.33188,1.16759 -2.9763,1.85629 -4.70689,2.17263 -1.76649,0.22942 -3.87345,0.45288 -5.48222,-0.52791 -0.26747,-0.16313 -0.49451,-0.38466 -0.74177,-0.577 -0.18425,-0.2517 -0.40175,-0.48217 -0.55275,-0.7551 -0.59551,-1.07629 -0.56103,-2.42611 -0.21544,-3.57327 0.0985,-0.327 0.2506,-0.63539 0.3759,-0.95308 0.17193,-0.30647 0.32135,-0.62673 0.51583,-0.91942 0.95074,-1.43091 2.33917,-2.40973 4.02134,-2.76307 1.65834,-0.15748 3.53934,-0.17472 5.1093,0.47693 1.42301,0.44025 0.80037,2.45269 -0.62262,2.01242 z"
         id="path953"
         style="fill:#ff0000;fill-opacity:1;stroke:none;stroke-width:0.20506321;stroke-opacity:1" />
      <path
         inkscape:connector-curvature="0"
         d="m 73.357481,86.929872 c -0.55365,0.98713 -1.38841,1.77234 -2.07326,2.66515 -0.20366,-0.29223 -0.0721,0.3435 -0.17554,0.29461 -0.03,-0.0137 0.0137,-0.0651 0.0228,-0.0967 0.0137,-0.044 0.009,-0.10864 0.0488,-0.12989 0.0766,-0.0398 0.43701,0.0738 0.50518,0.0915 0.34306,0.0816 0.68697,0.21415 1.04375,0.22728 0.0834,0.003 0.33167,-0.009 0.24962,-0.0237 -0.48189,-0.0934 -0.56706,0.13623 -0.43919,-0.11019 0.33583,-0.85142 0.59954,-1.72987 0.81548,-2.61872 0.0228,-0.16983 0.0577,-0.31771 0.0397,-0.48637 -0.002,-0.0137 -0.0218,-0.0509 -0.0207,-0.0368 0.0195,0.25497 0.18927,0.4255 0.21876,0.67332 -0.46135,0.0973 -1.22174,-0.18298 -1.36785,-0.67603 -0.0521,-0.17587 -0.0154,-0.36651 -0.0238,-0.54975 -0.62308,-0.33492 -0.14943,-1.21609 0.47364,-0.8812 v 0 c 0.16142,-0.13315 0.30905,-0.2848 0.4841,-0.39931 0.52911,-0.34609 1.18413,-0.27646 1.73966,-0.0603 0.15012,0.0835 0.31677,0.14223 0.45017,0.25026 0.79611,0.64502 0.93908,1.59619 0.90178,2.56178 -0.0254,0.22596 -0.0346,0.45437 -0.0763,0.67792 -0.24601,1.32041 -0.90422,2.53304 -1.93637,3.39608 -0.22375,0.1287 -0.42349,0.31379 -0.67125,0.38627 -1.12139,0.3281 -2.22961,0.14069 -3.2649,-0.32913 -1.04034,-0.60035 -1.7033,-1.25189 -1.5976,-2.55952 0.0183,-0.22567 0.086,-0.44456 0.12904,-0.66683 0.0927,-0.2235 0.16571,-0.45623 0.27819,-0.67052 0.55172,-1.05176 1.48928,-1.91076 2.54958,-2.42415 1.05721,-1.19955 2.75364,0.29557 1.69644,1.49512 z"
         id="path955"
         style="fill:#ff0000;fill-opacity:1;stroke:none;stroke-width:0.20506321;stroke-opacity:1" />
      <path
         inkscape:connector-curvature="0"
         d="m 82.111271,78.618342 c -0.39188,0.42772 -0.87994,0.75632 -1.37319,1.05615 -0.0567,0.0344 -0.10796,0.0852 -0.17296,0.0985 -0.023,0.005 -0.0307,-0.0355 -0.0459,-0.0533 0.12321,-0.25531 -0.15543,-0.64224 -0.1364,-0.8616 0.003,-0.0394 0.11618,-0.0699 0.0805,-0.0872 -0.11704,-0.0564 -0.27953,0.0154 -0.3852,-0.0596 -0.0716,-0.0512 0.17505,-0.0187 0.26259,-0.0281 0.35016,-0.0466 0.71628,-0.11191 0.81223,-0.49473 -0.0182,-0.10351 -0.0283,-0.30949 -0.1757,-0.29173 -0.0103,-7.8e-4 -0.0242,-0.0103 -0.0331,-0.003 -0.0348,0.0259 0.0538,0.0715 0.0924,0.0915 0.0632,0.0331 0.12767,0.0872 0.19868,0.08 0.31775,-0.0319 0.67711,-0.0103 0.93812,-0.19425 0.17907,-0.1263 0.14497,-0.41356 0.21737,-0.62034 -0.18349,-0.0504 -0.36699,-0.10094 -0.55047,-0.15132 -0.025,0.42959 -0.63251,0.39428 -0.60754,-0.0353 v 0 c -0.17841,-0.1239 -0.3568,-0.24793 -0.5352,-0.37189 0.0826,-0.23243 0.0485,-0.55226 0.24805,-0.69727 0.79341,-0.57637 1.6696,-0.12047 2.2257,0.45079 0.68146,0.92186 0.78025,1.67764 0.39057,2.76426 -0.0932,0.16297 -0.16982,0.33638 -0.27948,0.48872 -0.50085,0.69615 -1.29541,1.07881 -2.12367,1.20928 -1.12759,0.14583 -2.45222,0.11122 -2.85279,-1.188 -0.0658,-0.21347 -0.0303,-0.44573 -0.0456,-0.66861 0.0459,-0.18948 0.0675,-0.38656 0.13778,-0.56845 0.37921,-0.9826 1.34134,-1.58874 2.32341,-1.82085 1.38325,-0.98271 2.77302,0.9735 1.38976,1.95621 z"
         id="path957"
         style="fill:#ff0000;fill-opacity:1;stroke:none;stroke-width:0.20506321;stroke-opacity:1" />
      <path
         inkscape:connector-curvature="0"
         d="m 99.089911,147.42196 c -0.49156,0.7205 -1.21547,1.25403 -1.60504,2.04525 -0.002,0.0338 -0.0214,0.0715 -0.005,0.1011 0.0243,0.0453 0.061,-0.0831 0.0977,-0.11926 0.0966,-0.0954 0.27883,-0.15029 0.39796,-0.2012 -0.14703,-0.005 -0.3009,0.0279 -0.4412,-0.0171 -0.0202,-0.007 0.20962,-0.009 0.38448,-0.14874 0.22248,-0.17973 0.32677,-0.47145 0.44118,-0.72112 0.0483,-0.12167 0.1023,-0.24125 0.1448,-0.36506 0.1011,-0.29406 0.1759,-0.60541 0.17068,-0.91841 -0.003,-0.22144 -0.003,-0.20309 -0.0334,-0.12116 0.003,0.0922 0.25078,0.6935 0.27573,0.70085 0.22764,0.0672 0.47377,0.0312 0.70987,0.0554 0.0554,0.005 -0.11344,0.0154 -0.16673,1.5e-4 -0.0955,-0.0288 -0.1791,-0.0876 -0.26863,-0.13143 -0.14018,-0.13212 -0.28046,-0.26431 -0.42069,-0.39647 -1.05082,0.59657 -1.8945,-0.8895 -0.84369,-1.48607 v 0 c 0.007,-0.18012 0.0137,-0.36023 0.02,-0.54035 0.27459,-0.27999 0.26844,-0.36824 0.71003,-0.39578 1.05687,-0.0658 1.772059,-0.0881 2.494169,0.73183 0.15372,0.1745 0.24756,0.39364 0.37133,0.59047 0.0576,0.18612 0.13247,0.36771 0.17265,0.55835 0.22086,1.04949 -0.11104,2.13188 -0.58401,3.05821 -0.13486,0.20073 -0.25458,0.41263 -0.40478,0.60221 -0.5222,0.6591 -1.347299,1.3431 -2.209349,1.47592 -0.41502,0.0639 -0.83766,0.0607 -1.25648,0.091 -0.21516,-0.0319 -0.43581,-0.0379 -0.64551,-0.0956 -1.02687,-0.28313 -1.77921,-1.08092 -1.97119,-2.13568 -0.047,-0.25738 -0.0213,-0.52275 -0.0317,-0.78413 0.0478,-0.25772 0.0672,-0.52236 0.14343,-0.77313 0.3143,-1.03407 1.07987,-1.95405 2.02423,-2.47479 0.18655,-0.10282 0.39486,-0.16006 0.59229,-0.24005 1.45258,-1.22843 3.189839,0.82585 1.73724,2.05428 z"
         id="path959"
         style="fill:#ff0000;fill-opacity:1;stroke:none;stroke-width:0.20506321;stroke-opacity:1" />
      <path
         inkscape:connector-curvature="0"
         id="path961"
         d="m 75.577041,146.20505 c -1.98313,0.17815 -3.08238,2.3584 -3.30002,4.12561 0.044,1.17089 1.58082,0.64468 2.29553,0.60141 2.08136,-0.44569 4.4074,-1.07526 5.85332,-2.72208 0.26693,-1.1084 -1.32607,-0.95856 -1.96317,-1.3135 -0.94083,-0.28892 -1.87954,-0.73158 -2.88566,-0.69144 z"
         style="fill:#ff0000;fill-opacity:1;stroke:none;stroke-width:0.20721181;stroke-opacity:1" />
      <path
         inkscape:connector-curvature="0"
         id="path963"
         d="m 72.708451,87.913372 c -1.00546,-0.0315 -1.07781,1.83447 0.0449,1.2975 0.57902,-0.23535 0.80037,-1.31495 -0.0449,-1.2975 z"
         style="fill:#ff0000;fill-opacity:1;stroke:none;stroke-width:0.20721181;stroke-opacity:1" />
      <path
         inkscape:connector-curvature="0"
         id="path965"
         d="m 74.240281,84.426392 c -2.68874,0.11773 -5.37149,2.15116 -5.84524,4.85046 0.0997,3.24276 5.29082,4.51096 6.89748,1.6763 1.18513,-1.69717 2.00941,-4.54157 0.17565,-6.09656 -0.34099,-0.28765 -0.77772,-0.46126 -1.22789,-0.4302 z m -2.35623,4.89294 c 0.32789,0.18584 0.8407,0.39153 0.10522,0.20884 -0.51456,-0.0332 -0.19923,-0.11824 -0.10522,-0.20884 z"
         style="fill:#ff0000;fill-opacity:1;stroke:none;stroke-width:0.20721181;stroke-opacity:1" />
      <path
         inkscape:connector-curvature="0"
         id="path967"
         d="m 99.259081,144.48422 c -2.6131,0.22406 -5.50625,2.63689 -4.84561,5.47775 0.79783,2.68462 4.90889,2.83591 6.362059,0.63258 1.42387,-1.57542 1.97292,-4.72567 -0.22056,-5.88976 -0.40303,-0.18719 -0.855009,-0.24745 -1.295889,-0.22057 z m -0.0571,3.07581 c -0.007,0.0605 -0.002,-0.0302 0,0 z"
         style="fill:#ff0000;fill-opacity:1;stroke:none;stroke-width:0.20721181;stroke-opacity:1" />
    </g>
  </g>
</svg>
