<?xml version="1.0" encoding="UTF-8" standalone="no"?>
<!-- Created with Inkscape (http://www.inkscape.org/) -->

<svg
   xmlns:dc="http://purl.org/dc/elements/1.1/"
   xmlns:cc="http://creativecommons.org/ns#"
   xmlns:rdf="http://www.w3.org/1999/02/22-rdf-syntax-ns#"
   xmlns:svg="http://www.w3.org/2000/svg"
   xmlns="http://www.w3.org/2000/svg"
   xmlns:sodipodi="http://sodipodi.sourceforge.net/DTD/sodipodi-0.dtd"
   xmlns:inkscape="http://www.inkscape.org/namespaces/inkscape"
   width="1024"
   height="1024"
   viewBox="0 0 135.46667 135.46667"
   version="1.1"
   id="svg8"
   inkscape:version="0.92.4 (5da689c313, 2019-01-14)"
   sodipodi:docname="crack2.svg"
   inkscape:export-filename="C:\Users\panu-\PycharmProjects\nextgame\data\images\decals\crack2.png"
   inkscape:export-xdpi="10.173375"
   inkscape:export-ydpi="10.173375">
  <defs
     id="defs2" />
  <sodipodi:namedview
     id="base"
     pagecolor="#ffffff"
     bordercolor="#666666"
     borderopacity="1.0"
     inkscape:pageopacity="0.0"
     inkscape:pageshadow="2"
     inkscape:zoom="0.49481546"
     inkscape:cx="401.17212"
     inkscape:cy="292.76095"
     inkscape:document-units="mm"
     inkscape:current-layer="layer1"
     showgrid="false"
     units="px"
     width="1024px"
     inkscape:window-width="1920"
     inkscape:window-height="1017"
     inkscape:window-x="-8"
     inkscape:window-y="-8"
     inkscape:window-maximized="1"
     inkscape:pagecheckerboard="true" />
  <metadata
     id="metadata5">
    <rdf:RDF>
      <cc:Work
         rdf:about="">
        <dc:format>image/svg+xml</dc:format>
        <dc:type
           rdf:resource="http://purl.org/dc/dcmitype/StillImage" />
        <dc:title></dc:title>
      </cc:Work>
    </rdf:RDF>
  </metadata>
  <g
     inkscape:groupmode="layer"
     id="layer1"
     inkscape:label="lines 2"
     style="display:inline">
    <path
       style="fill:#727272;fill-opacity:1;stroke:none;stroke-width:0.26458332;stroke-opacity:1"
       id="path852"
       d="m 75.736955,72.189277 c -0.25672,-0.21519 -0.54057,-0.40165 -0.77017,-0.64557 -1.41334,-1.50149 -2.08454,-3.57747 -2.40331,-5.57273 -0.0916,-0.57356 -0.12094,-1.15535 -0.1814,-1.73302 -0.13437,-3.14088 0.22406,-6.27359 0.47133,-9.40023 0.11407,-2.26298 0.33239,-4.51214 0.84946,-6.71999 0.47855,-1.93263 1.42727,-3.64894 2.58324,-5.24942 1.26779,-1.67408 2.85443,-3.05165 4.48274,-4.3603 1.43419,-1.11499 2.99205,-2.05334 4.4868,-3.08156 0.59692,-0.43336 1.23519,-0.8635 1.3735,-1.62571 0.0896,-1.23708 -0.0523,-2.47516 -0.0311,-3.71455 -0.0603,-0.64771 0.0847,-1.30108 0.01,-1.946188 -0.14633,-0.478137 -0.42128,-0.888196 -0.50837,-1.385118 -0.0276,-0.431665 -0.3675,-0.637288 -0.66875,-0.900792 -0.74515,-0.655347 -1.26927,-1.487919 -1.67717,-2.382219 -0.22219,-0.405222 -0.16237,-0.930428 -0.53895,-1.232278 -0.65633,-0.505436 -1.16863,-1.131136 -1.64653,-1.800884 -0.55837,-0.718328 -1.01453,-1.505225 -1.52082,-2.259256 -0.42871,-0.613275 -0.67512,-1.321599 -1.00328,-1.987126 -0.33533,-0.738323 -0.66628,-1.479278 -0.96416,-2.233819 -0.2763,-0.795724 -0.3647,-1.593472 -0.16365,-2.411928 0.24234,-0.516417 0.30955,-1.035498 0.32219,-1.5988141 0.0178,-0.896678 0.29384,-1.742384 0.6411,-2.559569 0.3404,-0.737396 0.80547,-1.400564 1.28794,-2.049692 0.27064,-0.422328 0.67066,-0.692695 1.07405,-0.97186 0.33304,-0.463836 0.98901,0.0072 0.65596,0.471001 v 0 c -0.21749,0.401971 -0.43058,0.804405 -0.7656,1.124939 -0.46684,0.520404 -0.92231,1.052476 -1.08937,1.750486 -0.17454,0.767594 -0.15559,1.554023 -0.24034,2.3344271 -0.0612,0.483055 -0.21629,1.031872 -0.0889,1.503185 0.3293,0.497385 0.65081,0.998964 0.91612,1.53488 0.30686,0.706051 0.57793,1.426411 0.89149,2.129496 0.25245,0.542248 0.6055,1.00815 1.02103,1.438439 0.59745,0.697508 1.14194,1.434719 1.66793,2.187239 0.4536,0.561412 0.90245,1.125464 1.34571,1.695141 0.40698,0.496458 0.83127,0.971385 1.25954,1.448657 0.43323,0.555752 0.82783,1.140248 1.28503,1.676133 0.4308,0.442505 0.92603,0.815046 1.39813,1.211931 0.48857,0.29486 0.89819,0.701935 1.29393,1.10943 0.90948,1.115512 1.44386,2.427999 1.57328,3.867919 0.1849,1.65294 0.18271,3.32404 -0.1014,4.96748 -0.16326,0.72086 -0.21063,1.06082 -0.48855,1.75367 -0.45019,1.12232 -1.17644,2.09898 -2.01542,2.95923 -0.56339,0.53536 -0.77768,0.76144 -1.39176,1.25181 -0.95627,0.76361 -2.00637,1.40191 -2.97736,2.14586 -1.34507,1.0116 -2.61702,2.11407 -3.78285,3.33018 -0.76299,0.82698 -1.56736,1.64212 -1.75334,2.80087 -0.19878,2.02414 0.19542,4.05401 0.0983,6.0836 -0.0728,2.89196 -0.36639,5.7667 -0.48368,8.6561 0.027,0.96684 0.006,1.28922 0.14379,2.23046 0.12512,0.85718 0.40552,1.66289 0.59628,2.50348 0.0431,0.19003 0.0685,0.38366 0.10271,0.5755 2.17865,3.23522 -2.39665,6.31631 -4.57531,3.08108 z"
       inkscape:connector-curvature="0" />
    <path
       style="fill:#727272;fill-opacity:1;stroke:none;stroke-width:0.26458332;stroke-opacity:1"
       id="path858"
       d="m 82.501865,20.880591 c -0.16596,-1.432332 0.3687,-2.779011 1.14523,-3.953224 0.35712,-0.450673 0.74199,-0.91072 1.23963,-1.213096 0.0455,-0.02762 -0.0713,0.07914 -0.11016,0.11543 -0.0142,0.0098 -0.043,0.04665 -0.0425,0.02943 0.005,-0.181991 0.48421,-0.685204 0.60945,-0.82002 0.32492,-0.35169 0.63908,-0.713494 1.02391,-1.001461 0.25862,-0.1724 0.58875,-0.433943 0.8424,-0.499113 -0.17613,0.144399 0.0711,-0.04492 0.13366,-0.07668 0.21423,-0.124987 0.35194,-0.334743 0.53084,-0.501486 1.17453,-0.98121 -0.0265,2.184673 -0.19242,1.153599 -0.0663,-0.408157 0.001,-0.814848 0.0772,-1.216022 0.10468,-0.332864 0.14199,-0.679768 0.22106,-1.018323 0.0925,-0.438661 0.13137,-0.887862 0.27166,-1.315024 0.0304,-0.31165 0.23064,-0.541174 0.34521,-0.8156761 0.04,-0.495986 0.23939,-0.869019 0.55103,-1.248513 0.21569,-0.256559 0.41578,-0.518396 0.53443,-0.833552 0.0793,-0.408805 0.003,-0.835049 -0.0137,-1.248698 0.0184,-0.325596 -0.0272,-0.172913 0.13921,-0.457348 0.0261,-0.490125 0.71927,-0.453173 0.69314,0.03695 v 0 c 0.14378,0.205968 0.0937,0.08781 0.13435,0.360759 0.0568,0.542185 0.0587,1.094447 -0.1645,1.603468 -0.15072,0.291322 -0.32516,0.575318 -0.39888,0.8988 -0.0364,0.297466 0.0121,0.599062 0.0705,0.89204 0.10997,0.2724151 0.30685,0.5012511 0.34028,0.8072651 0.14538,0.425397 0.19295,0.874377 0.28934,1.31223 0.0829,0.375822 0.10463,0.759466 0.17878,1.137021 0.0267,0.176474 0.0642,0.346067 0.13563,0.510331 0.23052,0.627589 -0.40266,1.593093 -0.49882,1.865561 0.006,-0.143812 -0.28699,0.373631 -0.35601,0.411342 -0.26304,0.271584 -0.54973,0.503912 -0.87195,0.702689 -0.3634,0.232931 0.14327,-0.148884 -0.16789,0.112858 -0.21651,0.201546 -0.47715,0.348874 -0.6376,0.606533 -0.29632,0.3737 -0.64522,0.704043 -0.96827,1.054343 -0.0794,0.07103 -0.15677,0.144299 -0.23809,0.213069 -0.0545,0.04612 -0.1062,0.09788 -0.16927,0.131416 -0.0493,0.02619 0.0876,-0.06952 0.12707,-0.108974 0.10626,-0.106235 0.25581,-0.35538 0.22057,-0.06498 -0.22466,1.037789 -0.49645,2.083808 -1.03504,3.008249 -0.40389,2.820961 -4.39333,2.249768 -3.98944,-0.571193 z"
       inkscape:connector-curvature="0" />
    <path
       style="fill:#727272;fill-opacity:1;stroke:none;stroke-width:0.26458332;stroke-opacity:1"
       id="path860"
       d="m 90.225435,13.503942 c 1.13646,-0.416656 2.33159,-0.385213 3.52152,-0.387324 0.16652,0.14836 0.84037,-0.207396 1.02407,-0.146563 0.16289,0.05394 0.30325,0.160668 0.45486,0.241001 0.22312,-0.244899 0.56946,0.07063 0.34634,0.315531 v 0 c 0.0733,0.145135 0.20582,0.273423 0.21989,0.435404 0.0259,0.298119 -1.08924,0.870405 -1.30118,0.942745 -1.47442,0.47472 -3.16008,0.545785 -4.62837,0.01246 -0.99933,-0.256585 -0.63646,-1.669855 0.36287,-1.41327 z"
       inkscape:connector-curvature="0" />
    <path
       style="fill:#727272;fill-opacity:1;stroke:none;stroke-width:0.26458332;stroke-opacity:1"
       id="path868"
       d="m 78.361175,67.281757 c 1.73083,1.0597 2.9236,2.78341 3.57842,4.68795 0.14702,0.4276 0.23288,0.87383 0.34931,1.31074 0.43125,2.07674 -0.0143,4.07248 -0.74306,6.01365 -0.4259,0.95027 -0.8423,1.9011 -1.20122,2.87909 -0.38886,0.99258 -0.93644,1.90856 -1.59758,2.74186 -0.62554,0.78235 -1.37339,1.4423 -2.13746,2.08377 -1.01367,0.83121 -2.16332,1.45177 -3.36509,1.96093 -1.11892,0.42514 -2.29028,0.6834 -3.45569,0.94368 -1.14471,0.2501 -2.25015,0.65059 -3.35876,1.0248 -0.9189,0.3394 -1.87683,0.54711 -2.83887,0.71937 -0.50714,0.004 -0.80164,0.2396 -1.18187,0.5566 -0.90806,0.69514 -1.74643,1.46821 -2.580786,2.24832 -1.236313,1.19236 -2.578616,2.26593 -3.907663,3.35141 -1.424776,1.20805 -2.863829,2.396853 -4.271367,3.624903 -0.643475,0.60502 -1.458185,1.10956 -1.870673,1.91464 -0.246996,0.88542 -0.43412,1.78582 -0.689568,2.67124 -0.319376,0.95134 -0.345164,1.9576 -0.42809,2.94815 -0.110048,1.38294 -0.4484,2.7242 -0.948135,4.01414 -0.445082,0.92289 -0.783621,1.86377 -0.988702,2.86626 -0.220983,1.25386 -0.609111,2.45804 -1.073283,3.64002 -0.562972,1.2322 -1.204936,2.4296 -1.900023,3.5921 -0.866391,1.49496 -2.009309,2.74716 -3.386177,3.77909 -0.792647,0.54102 -1.665899,0.93551 -2.620894,1.05872 -0.566925,-0.18738 -0.928028,-0.0779 -1.511212,0.0659 -0.158888,0.0217 -0.317773,0.0435 -0.476658,0.0652 -0.372912,0.60695 -1.23126,0.0796 -0.85835,-0.52737 v 0 c -0.0093,-0.17257 -0.01871,-0.34514 -0.02805,-0.51772 0.282308,-1.02187 0.63603,-1.55716 1.595914,-2.04961 0.334119,-0.13595 0.53911,-0.63377 0.842476,-0.82068 0.992933,-0.98925 2.011479,-1.95637 2.948371,-2.99919 0.71325,-0.88148 1.399058,-1.78337 1.85031,-2.83337 0.43837,-1.04114 0.701623,-2.14145 1.030727,-3.22006 0.322694,-1.06593 0.650785,-2.12995 1.0663,-3.16451 0.368586,-1.0924 0.599501,-2.21516 0.788432,-3.35193 0.199991,-1.11564 0.386929,-2.23512 0.648359,-3.33841 0.246557,-0.93702 0.535146,-1.86476 0.675116,-2.82613 0.336431,-1.35167 0.931616,-2.558433 1.845765,-3.622713 1.273985,-1.50912 2.612475,-2.97469 4.144129,-4.22856 1.288148,-1.10482 2.632284,-2.13976 3.974356,-3.1779 0.958697,-0.78341 1.89415,-1.59885 2.904239,-2.31658 0.727625,-0.51226 1.424127,-1.08448 2.248807,-1.43723 0.75606,-0.34225 1.4834,-0.74266 2.25398,-1.05367 1.31248,-0.56595 2.65585,-1.06008 4.0628,-1.33707 0.92316,-0.14891 1.85951,-0.25214 2.74022,-0.58649 0.93465,-0.3308 1.82671,-0.75074 2.68437,-1.24979 0.55941,-0.28625 1.1182,-0.61623 1.5592,-1.06958 0.44448,-0.52101 0.80609,-1.0748 1.06417,-1.7165 0.42264,-0.89854 0.83801,-1.80044 1.23785,-2.7094 0.41566,-1.10572 0.55442,-2.27852 0.29919,-3.44288 -0.25318,-0.82049 -0.23936,-0.86046 -0.60482,-1.67484 -0.48855,-1.08867 -1.14623,-2.10661 -1.48578,-3.25853 -1.57818,-2.20406 1.53884,-4.43594 3.11702,-2.23188 z"
       inkscape:connector-curvature="0" />
    <path
       style="fill:#727272;fill-opacity:1;stroke:none;stroke-width:0.26458332;stroke-opacity:1"
       id="path872"
       d="m 49.765082,103.39494 c -0.356651,1.28465 -1.068229,2.43592 -1.752177,3.56883 -0.444201,0.58054 -0.707999,1.27565 -1.219396,1.80871 -0.150328,0.15669 -0.339238,0.27116 -0.508857,0.40673 -0.523399,0.4196 -1.085847,0.78505 -1.657797,1.13473 -1.056696,0.69388 -2.23661,1.11099 -3.47268,1.33621 -1.077638,0.12127 -0.524976,0.0794 -2.275271,0.0701 -0.134599,-7.9e-4 -0.537872,-0.0128 -0.403387,-0.0184 1.843358,-0.0774 0.78527,-0.021 0.38572,0.001 -0.837403,0.1152 -1.65323,0.3567 -2.469467,0.57155 -1.032677,0.29414 -2.088885,0.46117 -3.153555,0.5798 -0.756788,0.0886 -1.517627,0.13809 -2.274518,0.22409 -0.612542,0.0552 -1.208386,0.21201 -1.813885,0.31037 -0.561694,0.10543 -1.076955,0.32103 -1.578078,0.58816 -0.52587,0.33053 -1.08979,0.58639 -1.631765,0.88694 -0.542793,0.34956 -0.937667,0.8995 -1.28688,1.43328 -0.390197,0.60428 -0.856718,1.12703 -1.043533,1.83373 -0.07042,0.42261 -0.147926,0.66409 -0.429445,0.9929 -0.06715,0.3911 -0.620255,0.29613 -0.553098,-0.095 v 0 c -0.131472,-0.39223 -0.108924,-0.63699 -0.0377,-1.03843 0.05477,-0.78918 -0.198607,-1.56364 -0.04734,-2.35026 0.180044,-0.98406 0.407898,-1.94066 1.047049,-2.74358 0.454517,-0.54418 0.976852,-1.01252 1.530993,-1.45337 0.578443,-0.52385 1.123156,-1.09682 1.812063,-1.47985 0.716637,-0.41639 1.490694,-0.6887 2.290413,-0.90288 0.714666,-0.19223 1.426641,-0.39338 2.137894,-0.59811 0.933873,-0.24114 1.878663,-0.4183 2.8203,-0.62546 0.991629,-0.24766 1.981197,-0.50513 2.98705,-0.69118 0.956445,-0.15695 1.51075,-0.14611 2.593837,-0.15793 0.121449,-0.001 0.485781,-0.006 0.364337,-0.005 -0.310031,0.004 -0.620578,-0.005 -0.930098,0.0128 -0.08595,0.005 0.171249,0.018 0.256876,0.027 0.726803,0.0395 1.373098,-0.31633 2.004301,-0.63814 0.776552,-0.39584 1.61041,-0.87776 2.49496,-0.93233 -0.352364,0.42268 -0.236575,0.25703 -0.57944,0.81322 -0.02962,0.048 -0.0259,0.13653 -0.08103,0.14866 -0.04274,0.009 -0.0029,-0.0878 0.0021,-0.13128 0.01495,-0.13191 0.03331,-0.26355 0.05749,-0.39407 0.0351,-0.1895 0.08016,-0.37701 0.120245,-0.56551 0.522512,-1.59876 1.306957,-3.15241 2.67716,-4.18949 1.598594,-2.557343 5.215226,-0.29659 3.616635,2.26075 z"
       inkscape:connector-curvature="0" />
    <path
       style="fill:#727272;fill-opacity:1;stroke:none;stroke-width:0.26458332;stroke-opacity:1"
       id="path882"
       d="m 28.407666,112.21667 c -1.195025,-0.34521 -2.327589,-0.98015 -3.204747,-1.86699 -0.768868,-0.9909 -0.481356,-1.20803 -0.314962,-3.07525 0.009,-0.10073 0.261704,-0.30356 0.215378,-0.21367 -0.01669,0.0324 -0.0391,0.0615 -0.05865,0.0922 -0.187992,0.31893 -0.159753,0.6585 -0.06956,1.00004 -0.07787,-0.12288 -0.19594,-0.1735 -0.324816,-0.24214 -0.336841,-0.0597 -0.650449,-0.20391 -0.991968,-0.27733 -0.25019,-0.099 -0.549053,0.0187 -0.797695,-0.0791 -0.09489,-0.0374 0.405228,0.009 0.305644,-0.0131 -0.184057,-0.0406 -0.376343,-0.0235 -0.563729,-0.0437 -1.519253,-0.16401 0.393356,-0.003 -1.139986,-0.12298 -0.722424,-0.0636 -1.406499,0.15604 -2.105832,0.28067 -1.071272,0.19092 0.10623,-0.0634 -0.843468,0.1508 -0.477703,0.0655 -0.723953,0.46644 -1.088557,0.71633 -0.188759,0.19173 -0.42513,0.31618 -0.655968,0.44816 -0.254328,0.32351 -0.71184,-0.0362 -0.457512,-0.35968 v 0 c 0.170772,-0.27552 0.318817,-0.52101 0.634582,-0.64654 0.482544,-0.25899 0.675534,-0.15411 0.932114,-0.77668 0.102499,-0.19002 0.32884,-0.62482 0.45109,-0.77934 0.532591,-0.67316 1.356321,-1.0677 2.097964,-1.45269 0.431138,-0.18076 0.824449,-0.36691 1.28184,-0.47571 1.084939,-0.25808 2.243941,-0.11901 3.343111,-0.0439 0.962424,0.17338 1.897938,0.40114 2.558306,1.1808 0.284946,0.34139 0.51752,0.71667 0.722326,1.11119 0.320976,0.83861 0.352599,1.67471 -0.147831,2.46339 -0.135607,0.17621 -0.29096,0.42346 -0.493297,0.54795 -0.01476,0.009 -0.02286,-0.029 -0.02376,-0.0463 -0.04193,-0.80485 -0.07292,-1.61025 -0.104497,-2.41558 -0.0019,-0.0479 -0.04057,-0.12652 0.0042,-0.14373 0.0864,-0.0332 0.183573,0.0241 0.275363,0.0362 1.276299,0.35697 2.491795,1.0806 3.295406,2.14665 2.050733,1.93073 -0.67972,4.8309 -2.730452,2.90018 z"
       inkscape:connector-curvature="0" />
    <path
       style="fill:#727272;fill-opacity:1;stroke:none;stroke-width:0.26458332;stroke-opacity:1"
       id="path890"
       d="m 62.518805,91.022317 c -0.46746,1.16729 -1.41559,1.98735 -2.284304,2.85003 -0.02395,0.0191 -0.04181,0.0633 -0.07181,0.0572 -0.03599,-0.007 0.0636,-0.089 0.09004,-0.0635 0.04855,0.0468 0.08045,0.1087 0.113868,0.1673 0.159746,0.28012 0.204046,0.41798 0.332556,0.72792 0.30386,0.87333 0.25564,1.80336 0.55279,2.67676 0.29096,0.64612 0.7547,1.18588 1.14806,1.76867 0.30098,0.38376 0.55074,0.793543 0.74336,1.240743 0.0624,0.28935 0.23801,0.49536 0.37586,0.75269 0.10675,0.32085 0.2735,0.62745 0.30675,0.96799 0.0824,0.3716 0.10379,0.74554 0.11308,1.12556 -0.0131,0.4468 -0.22539,0.83395 -0.44276,1.21095 -0.22582,0.24091 -0.27253,-0.13482 -0.18969,0.14238 0.10563,0.36077 -0.0342,0.68175 -0.21428,0.99012 -0.14675,0.27706 -0.4161,0.47932 -0.55464,0.75864 -0.0388,0.40525 -0.0907,0.80128 -0.19659,1.19624 -0.20876,0.5855 -0.43502,1.16039 -0.60399,1.75926 -0.14043,0.85894 -0.39757,1.40448 -0.85106,2.13305 -0.0786,0.39141 -0.63214,0.28024 -0.553535,-0.11117 v 0 c -0.01595,-0.18499 -0.0598,-0.62905 -0.05244,-0.81074 0.02098,-0.51766 0.233835,-1.00104 0.367505,-1.49433 0.2042,-0.59806 0.42961,-1.18741 0.68145,-1.76721 0.16618,-0.37363 0.32364,-0.74928 0.40421,-1.1521 0.12158,-0.37621 0.32184,-0.68669 0.60582,-0.96292 0.14418,-0.14573 0.37052,-0.27142 0.40229,-0.48948 0.0353,-0.17261 -0.0896,-0.2169 -0.18222,-0.33015 -0.0782,-0.26961 -0.18295,-0.53612 -0.34293,-0.76829 -0.18295,-0.14887 -0.47536,-0.17026 -0.60155,-0.41488 -0.25745,-0.30039 -0.44761,-0.63481 -0.5903,-1.00449 -0.0965,-0.23538 -0.18713,-0.49693 -0.28634,-0.71939 -0.296,-0.10637 -0.490296,-0.45538 -0.743656,-0.63211 -0.801375,-0.7691 -1.455494,-1.665643 -1.74189,-2.756493 -0.182247,-0.89748 -0.164652,-1.63913 -0.209185,-2.52956 -0.277172,-1.0438 -0.699137,-1.81939 -0.270427,-2.94227 0.09258,-0.18658 0.168838,-0.38219 0.277751,-0.55973 0.702337,-1.14488 1.855669,-1.9189 3.122707,-2.30485 0.91085,-0.95141 2.25634,0.33672 1.3455,1.28813 z"
       inkscape:connector-curvature="0" />
    <path
       style="fill:#727272;fill-opacity:1;stroke:none;stroke-width:0.26458332;stroke-opacity:1"
       id="path892"
       d="m 81.690675,80.136637 c -0.3783,0.9354 -1.1632,1.67272 -1.2898,2.70013 0.0951,1.0811 0.48682,2.11194 0.79,3.14751 0.35149,1.25932 0.68681,2.52046 1.1262,3.75241 0.20483,0.57069 0.62748,0.91572 1.09107,1.27154 0.86466,0.73501 1.46264,1.68762 1.99463,2.67514 0.56388,1.02941 0.81151,2.14348 0.87328,3.30497 -0.0136,0.83191 -0.15942,1.65228 -0.26576,2.47527 -0.12563,0.927773 -0.4578,1.782793 -0.94569,2.575513 -0.32752,0.46147 -0.73886,0.85201 -1.17758,1.20568 -0.26133,0.19854 -0.47673,0.44104 -0.82063,0.44673 -0.14337,0.0233 -0.30085,0.143 -0.35756,0.22109 -0.14857,0.23613 -0.20873,0.50221 -0.28069,0.76832 -0.19096,0.52224 -0.38371,1.0426 -0.55624,1.5714 -0.20838,0.56749 -0.38953,1.12685 -0.45679,1.72927 -0.0356,0.77455 0.005,1.54935 -0.0118,2.32441 -0.026,0.76366 -0.0244,1.52255 0.13573,2.27155 0.3846,1.11035 0.86118,2.18755 1.2827,3.28484 0.34893,0.99207 0.60621,2.01253 0.86541,3.03072 0.18904,0.72142 0.66944,1.29664 1.11739,1.87463 0.31403,0.42248 0.79042,0.82433 0.80552,1.40163 0.007,0.27342 -0.0945,0.53879 -0.14178,0.80819 0.50571,0.82012 -0.65411,1.5353 -1.15982,0.71519 v 0 c -0.29046,-0.0454 -0.59213,-0.0442 -0.87136,-0.13613 -0.62007,-0.20416 -0.95612,-0.79924 -1.3162,-1.28785 -0.51674,-0.8136 -0.95178,-1.66599 -1.26165,-2.58136 -0.41265,-0.95714 -0.89235,-1.88539 -1.23774,-2.87065 -0.43027,-1.28189 -0.8442,-2.58384 -1.0188,-3.92889 -0.0558,-0.84372 -0.008,-1.68692 -0.0761,-2.53027 -0.0544,-0.86042 -0.044,-1.72203 0.0397,-2.58068 0.0433,-0.70392 0.0117,-1.41114 0.0943,-2.11208 0.0905,-0.6854 0.2006,-1.37744 0.45426,-2.02407 0.16625,-0.33401 0.31056,-0.67837 0.475,-1.01337 0.10842,-0.26007 0.1906,-0.51447 0.24658,-0.791 0.10586,-0.33272 0.27061,-0.6377 0.39218,-0.96343 0.18215,-0.36538 0.40304,-0.7109 0.63596,-1.045693 0.20071,-0.22415 0.26548,-0.50383 0.28421,-0.7992 0.0513,-0.60955 0.12656,-1.21765 0.16734,-1.82694 -0.024,-0.55471 -0.32714,-1.04749 -0.54736,-1.54341 -0.24447,-0.50139 -0.52407,-0.98017 -0.98824,-1.3097 -0.98608,-0.84307 -1.90952,-1.73845 -2.4411,-2.9525 -0.59469,-1.36708 -0.95253,-2.79739 -1.22048,-4.26215 -0.38761,-1.55011 -0.85569,-3.10327 -0.87356,-4.71346 0.0324,-0.36678 0.0352,-0.7374 0.0973,-1.10034 0.29794,-1.7418 1.23186,-3.31081 2.75219,-4.23577 2.15866,-2.54273 5.75462,0.51008 3.59596,3.05281 z"
       inkscape:connector-curvature="0" />
    <path
       style="fill:#727272;fill-opacity:1;stroke:none;stroke-width:0.26458332;stroke-opacity:1"
       id="path894"
       d="m 85.987365,122.02996 c 1.327,1.23235 1.74951,2.67194 1.78612,4.43399 -0.0697,1.25628 -0.57856,2.09579 -1.54802,2.8488 -0.26264,0.22752 -0.61372,0.33598 -0.86691,0.57435 -0.17288,0.16275 -0.31835,0.35246 -0.48355,0.523 -0.0782,0.10501 -0.15645,0.21002 -0.23468,0.31503 -0.0724,0.38304 -0.61413,0.28059 -0.54169,-0.10245 v 0 c -0.0244,-0.1329 -0.0488,-0.26581 -0.0732,-0.39872 -0.15478,-0.86724 -0.033,-1.73369 0.64746,-2.35404 0.46204,-0.39508 0.65594,-0.51588 0.51677,-1.18216 -0.29451,-1.24912 -0.91189,-2.40032 -1.09455,-3.67655 -0.69385,-1.33801 1.19839,-2.31926 1.89224,-0.98125 z"
       inkscape:connector-curvature="0" />
    <path
       style="fill:#727272;fill-opacity:1;stroke:none;stroke-width:0.26458332;stroke-opacity:1"
       id="path898"
       d="m 81.762915,111.45547 c 0.51406,0.90632 0.7376,1.9319 1.07111,2.90966 -0.002,0.01 0.003,0.0345 -0.005,0.0286 -0.0601,-0.0457 -0.0901,-0.13953 -0.16361,-0.15694 -0.82333,-0.19484 -0.95,-0.32516 -1.46875,0.0745 -0.1394,0.10741 -0.13149,0.10112 -0.12702,0.19494 0.72504,-0.94273 1.06929,-0.80992 2.23133,-0.47038 0.14588,0.0426 0.34748,0.28591 0.51313,0.36454 0.21202,0.10186 0.41501,0.23093 0.60188,0.37477 0.50652,0.28753 -0.59398,0.0351 -0.32454,0.13385 0.32016,0.0249 0.64297,0.003 0.9635,-0.0111 0.57671,-0.01 1.15318,0.006 1.72983,0.0111 0.4342,0.0316 0.84374,0.16546 1.24049,0.33566 0.4819,0.26915 0.94367,0.56584 1.35606,0.93355 0.45025,0.41058 0.78852,0.91596 1.13309,1.41322 0.2988,0.3329 0.45472,0.81263 0.81576,1.08903 -0.15625,-0.17242 -0.74128,-0.0828 -0.51659,0.2315 0.0595,0.0833 0.16226,0.12494 0.2434,0.1874 0.27276,-0.1583 0.49664,0.22745 0.22387,0.38575 v 0 c 0.0437,0.0752 0.12281,0.13896 0.13101,0.2255 0.0598,0.6314 -0.99649,0.36341 -1.28614,0.16815 -0.52944,-0.38975 -0.92773,-0.89041 -1.24165,-1.46834 -0.2144,-0.39391 -0.40822,-0.76741 -0.8187,-0.99116 -0.31613,-0.21819 -0.61579,-0.47227 -0.94069,-0.67014 -0.27242,-0.0542 -0.55064,-0.0127 -0.8253,0.004 -0.10251,-5.3e-4 -1.61546,-0.0117 -0.76364,-0.0159 -0.28434,-0.0109 -0.56925,-0.01 -0.84472,0.0711 -0.48517,0.10645 -0.94149,-0.0273 -1.4159,-0.0328 -0.4817,-0.0163 -0.95188,-0.14482 -1.35017,-0.42357 -0.0116,-0.009 -0.30479,-0.23655 -0.34204,-0.29522 -0.0169,-0.0265 0.0493,0.0444 0.0803,0.0495 0.38599,0.0637 0.77834,0.22554 1.16327,0.15567 0.32952,-0.0598 0.50509,-0.33959 0.67028,-0.58163 -0.77694,1.5688 -2.35549,1.24169 -3.43185,0.15728 -0.95626,-1.19945 -1.45591,-2.48068 -1.23362,-4.0357 -0.2452,-2.07303 2.6865,-2.4198 2.93171,-0.34678 z"
       inkscape:connector-curvature="0" />
    <path
       style="fill:#727272;fill-opacity:1;stroke:none;stroke-width:0.26458332;stroke-opacity:1"
       id="path900"
       d="m 76.052795,67.268367 c -0.0627,-0.25889 -0.15819,-0.51198 -0.18809,-0.77667 -0.16922,-1.49801 0.30486,-3.03919 1.14455,-4.2735 0.20094,-0.29537 0.45246,-0.55297 0.67869,-0.82945 0.98729,-0.95576 2.23993,-1.67569 3.65217,-1.67755 0.50493,-8e-4 1.00903,0.041 1.51355,0.0615 1.0178,0.20998 2.06215,0.12306 3.09201,0.0823 -0.14522,-0.005 -0.57894,0.008 -0.43568,-0.0162 0.41185,-0.0701 0.83539,-0.0173 1.25293,-0.0314 0.67828,-0.0229 1.35521,-0.0678 2.0325,-0.10972 1.19467,-0.12303 2.42028,0.0557 3.60273,-0.17703 0.0785,0.10504 0.36467,-0.19599 0.45719,-0.18758 0.0482,0.004 0.005,0.0977 -0.004,0.14525 0.003,1.0433 -0.14321,-0.21456 -0.14126,-0.4276 10e-4,-0.15257 0.0268,-0.30398 0.0401,-0.45597 0.0934,-0.55103 0.25323,-1.08628 0.45176,-1.60761 0.25468,-0.6121 0.17783,-0.35197 0.20151,0.0628 -0.0107,0.27478 -0.0941,-0.67964 -0.0946,-0.69498 0.025,-0.12415 0.0401,-0.55168 0.19054,-0.60512 0.008,-0.003 0.80944,-0.17105 0.49112,0.14218 -0.0133,0.0131 -0.0233,-0.0293 -0.0349,-0.0439 -0.20256,-0.72484 0.13071,-1.46062 0.4469,-2.09816 0.40672,-0.70287 0.95492,-1.33162 1.65581,-1.75052 0.0456,-0.0156 0.0887,-0.0443 0.13678,-0.0469 0.0894,-0.005 0.10315,0.0996 0.21531,0.0662 0.73313,-0.218 -0.4995,0.0637 0.49469,-0.14738 0.57586,-0.1175 1.10515,-0.39438 1.69154,-0.47098 0.35416,-0.0463 0.80216,-0.0279 1.15547,-0.0238 1.130985,0.0841 0.621315,-0.008 1.537065,0.22629 0.59917,0.18595 0.33619,1.0333 -0.26298,0.84735 v 0 c -0.76753,0.0936 -0.44619,0.0638 -0.9624,0.10521 -0.356615,0.0115 -1.180035,-0.0123 -1.484345,0.22447 -0.12619,0.0982 -0.0966,0.21029 -0.10111,0.34709 0.14321,0.3601 0.16776,0.41313 -0.0191,0.8052 -0.28998,0.5409 -0.73771,0.98801 -1.18702,1.39806 -0.42024,0.2886 -0.34162,-0.0134 -0.40911,0.60024 -0.0148,0.0797 -0.0263,0.1602 -0.0445,0.23925 -0.0272,0.11835 -0.17418,0.26346 -0.0917,0.35258 0.42581,0.46006 0.61613,0.0274 0.68,-0.25425 -0.0192,-0.41386 0.0152,0.0836 0.0794,0.21047 0.0643,0.57384 0.039,1.14739 -0.14397,1.69998 -0.10514,0.34286 -0.1997,0.83475 -0.4264,1.09732 -0.0257,-0.10003 -0.0428,-0.20213 -0.069,-0.30203 -0.008,-0.0319 -0.037,-0.12564 -0.0339,-0.0928 0.0392,0.41326 0.18732,0.81944 0.0968,1.24243 -0.30118,1.58234 -0.97631,2.40287 -2.42438,3.14619 -0.63894,0.237 -0.8762,0.35555 -1.54872,0.48313 -0.99659,0.18906 -2.01455,0.11358 -3.0205,0.0863 -1.68592,-0.0538 -3.36779,0.0414 -5.05436,0.009 -1.08359,-0.0702 -2.13936,-0.25919 -3.20275,-0.45986 0.23817,-10e-4 0.47717,0.0167 0.7145,-0.003 0.0596,-0.005 -0.11529,-0.0337 -0.17454,-0.0422 -0.33765,-0.0481 -0.61873,0.12915 -0.84462,0.36388 -0.75067,1.01023 -1.10404,2.19388 -1.5454,3.35885 0.14364,2.65589 -3.61234,2.85902 -3.75598,0.20314 z"
       inkscape:connector-curvature="0" />
    <path
       style="fill:#727272;fill-opacity:1;stroke:none;stroke-width:0.26458332;stroke-opacity:1"
       id="path904"
       d="m 89.953195,62.014607 c 1.95463,0.0783 3.74879,0.94986 5.32909,2.04626 0.92383,0.68402 1.48531,1.59948 1.80699,2.68344 0.11624,0.43345 0.4465,0.73952 0.67536,1.10923 0.30097,0.54124 0.53872,1.11746 0.68112,1.71993 0.0939,0.49523 0.10855,1.0009 0.17098,1.50049 0.0125,0.13508 0.12918,0.21941 0.21758,0.35759 0.11642,0.16397 0.27518,0.28051 0.45457,0.36617 -0.0231,-0.0567 0.0785,0.0411 0.0783,0.0146 -0.001,-0.24221 -0.6278,-0.1583 -1.11218,-0.15511 0.29699,0.0461 0.67644,-0.0512 0.9994,-0.0491 0.40436,0.0856 0.806015,0.0572 1.215265,0.0399 0.58862,-0.0347 1.15528,0.10703 1.72206,0.24358 0.65666,-0.47161 1.32362,0.45705 0.66696,0.92867 v 0 c -0.22786,0.67471 -0.41111,1.01305 -1.04047,1.37992 -0.53173,0.2777 -1.09443,0.50739 -1.69481,0.57958 -0.290455,0.0168 -0.583155,-0.0172 -0.861905,0.098 -1.15511,0.0194 -1.56275,0.0763 -2.47287,-0.59199 -0.40433,-0.33646 -0.76028,-0.7177 -1.04344,-1.16346 -0.38785,-0.54681 -0.67941,-1.14797 -0.73865,-1.82646 -0.0168,-0.38972 0.0206,-0.774 0.003,-1.16051 -0.0117,-0.36214 -0.2051,-0.67281 -0.35394,-0.99492 -0.24787,-0.5886 -0.43303,-1.22708 -0.40596,-1.87163 0.003,-0.0229 -0.005,-0.0511 0.01,-0.0688 0.008,-0.009 0.038,0.0215 0.0265,0.0261 -0.16547,0.0651 -1.01879,-0.5858 -1.16067,-0.51219 -1.60429,-0.69054 -3.34576,-1.3453 -4.58832,-2.61113 -1.47649,-1.00147 -0.0602,-3.08954 1.41629,-2.08806 z"
       inkscape:connector-curvature="0" />
    <path
       style="fill:#727272;fill-opacity:1;stroke:none;stroke-width:0.26458332;stroke-opacity:1"
       id="path910"
       d="m 73.636695,54.608307 c -0.99657,-0.74586 -1.63872,-1.83521 -2.45939,-2.75011 -0.50242,-0.34763 0.23498,0.0516 0.22277,0.1135 -0.009,0.048 -0.0976,-0.006 -0.14645,-0.009 -0.93717,-0.17464 -1.80241,-0.60616 -2.67321,-0.97793 -0.11753,-0.0356 -0.54306,-0.16955 -0.6701,-0.18852 -0.17971,-0.0268 -0.34493,0.009 -0.52141,0.0339 -0.0954,0.0131 -0.38246,0.0335 -0.2863,0.0394 0.36512,0.0223 0.73157,0.007 1.09735,0.0101 -0.83372,-0.0462 -1.6735,-0.0552 -2.50322,0.046 -0.80284,0.1348 -1.61244,0.22621 -2.40875,0.3973 -0.0411,0.008 -0.39577,0.0839 -0.46369,0.0737 -0.082,-0.0123 -0.17281,-0.23173 -0.26663,-0.18327 -0.0612,0.0316 -0.0965,0.0984 -0.14467,0.14764 -0.60883,0.88009 -1.24756,1.72136 -2.015799,2.47048 -0.752875,0.70547 -1.648658,1.16585 -2.631617,1.44865 -0.898946,0.37654 -1.149387,-0.0112 -1.852099,-0.074 -0.08478,-0.008 -0.340114,-0.007 -0.25536,10e-4 0.168708,0.0157 0.352689,-0.0459 0.507843,0.0222 0.126559,0.0556 -0.276145,0.0126 -0.414218,0.0188 -1.213522,0.18955 -2.400766,0.47674 -3.62621,0.59627 -0.523396,-0.005 -1.049721,0.0395 -1.570188,-0.0161 -0.930849,-0.0994 -2.093616,-0.83488 -2.531499,-1.66856 -0.09841,-0.18736 -0.137067,-0.40046 -0.205602,-0.60068 0.06051,-0.2314 0.121017,-0.46281 0.181525,-0.6942 -0.3117,-0.59765 0.533498,-1.03846 0.845201,-0.44082 v 0 c 0.191825,-0.0276 0.383654,-0.0551 0.575479,-0.0827 0.434155,0.0669 0.469794,0.061 0.897197,0.17294 0.338381,0.0886 0.430522,0.15141 0.771237,0.19091 0.120377,0.014 0.423965,-0.0917 0.363312,0.0132 -0.06448,0.11154 -0.257109,0.017 -0.385664,0.0255 1.213283,-0.10544 2.398421,-0.38219 3.59466,-0.60163 0.946484,-0.13618 0.595824,-0.11289 1.949442,-0.0931 0.07778,10e-4 0.559742,0.056 0.691473,0.0455 0.02975,-0.002 0.110339,-0.04 0.08051,-0.0392 -0.314193,0.009 -0.627187,0.043 -0.940779,0.0645 -0.03233,0.0232 -0.06735,0.0431 -0.09699,0.0697 -0.0086,0.008 0.02318,-0.005 0.03268,-0.012 0.0477,-0.0335 0.09342,-0.0699 0.137766,-0.10772 0.278492,-0.23761 0.546658,-0.48808 0.820782,-0.73065 0.503365,-0.45517 1.119063,-0.91968 1.302388,-1.60102 0.354986,-1.09674 0.780746,-1.96405 1.80421,-2.59212 1.00243,-0.58038 2.06031,-1.02157 3.21499,-1.1902 0.98915,-0.19943 1.96683,-0.4544 2.96341,-0.61513 0.71106,-0.007 1.42226,-0.0382 2.1332,-0.0225 1.1539,0.0255 2.26663,0.49108 3.26629,1.02803 0.0133,0.008 1.2107,0.702 0.70171,0.38333 1.12328,-0.004 2.18432,0.69787 3.07531,1.29701 1.2729,1.08821 2.44704,2.3708 2.85982,4.04091 1.79654,3.55017 -3.22416,6.09088 -5.02071,2.5407 z"
       inkscape:connector-curvature="0" />
    <path
       style="fill:#727272;fill-opacity:1;stroke:none;stroke-width:0.26458332;stroke-opacity:1"
       id="path918"
       d="m 59.667864,53.961447 c 0.902301,0.49326 1.671221,1.3338 1.868721,2.37532 0.0414,0.21822 0.0386,0.44253 0.058,0.66379 -0.16192,0.98507 -0.47047,1.55744 -1.415106,1.93 -0.06783,0.0267 -0.489567,0.1696 -0.56206,0.0499 0.155765,-0.16888 0.280432,-0.33382 0.377047,-0.5463 0.06888,-0.15149 0.07268,-0.34516 0.03265,0.0811 -0.05079,0.4757 -0.240228,0.91301 -0.457274,1.3336 -0.158549,0.19714 -0.221885,0.39288 -0.291383,0.62909 -0.02175,0.0425 -0.03263,0.0926 -0.06523,0.1274 -0.04098,0.0438 -0.09928,0.0672 -0.148735,0.10114 -0.198171,0.13582 -0.240165,0.25872 -0.329134,0.47512 0.101965,0.36019 0.267639,0.70606 0.390787,1.06951 0.472858,0.80909 -0.671367,1.47781 -1.144225,0.66872 v 0 c -0.521745,-0.42567 -0.852228,-0.73782 -1.171771,-1.33936 -0.116091,-0.30364 -0.205867,-0.61296 -0.318643,-0.91674 -0.06095,-0.16419 -0.189389,-0.40052 -0.211868,-0.57883 -0.01143,-0.0907 0.0132,-0.18235 0.01982,-0.27353 0.106595,-0.42898 0.227629,-0.86027 0.46483,-1.23745 0.07632,-0.11863 0.147947,-0.24023 0.18768,-0.37371 0.0619,-0.2798 -0.09259,0.4347 0.03592,-0.36753 0.112771,-0.70394 0.464577,-1.26665 1.083564,-1.6317 0.07204,-0.0342 0.617786,-0.34728 0.750954,-0.21841 0.09472,0.0917 -0.756409,1.11407 -0.426358,1.37248 -2.64e-4,0.0722 0.0492,0.16486 -0.0011,0.21665 -0.01828,0.0188 -0.18774,-0.1256 -0.377325,-0.32465 -0.348697,-0.3661 -0.668716,-0.75967 -0.872056,-1.22738 -1.455391,-1.78358 1.06698,-3.84182 2.522373,-2.05823 z"
       inkscape:connector-curvature="0" />
    <path
       style="fill:#727272;fill-opacity:1;stroke:none;stroke-width:0.26458332;stroke-opacity:1"
       id="path930"
       d="m 94.677405,68.208817 c 0.43398,-1.46411 1.47708,-2.40623 2.77976,-3.11088 0.81486,-0.36511 1.50968,-0.33079 2.40399,-0.28282 0.11067,0.006 0.218865,0.0357 0.328995,0.0481 0.0811,0.009 0.32605,0.0149 0.24441,0.0165 -0.18971,0.004 -0.37943,-0.007 -0.569145,-0.0101 0.244595,0.0725 0.336765,-0.061 0.551235,-0.14942 0.11099,-0.0458 0.22793,-0.0755 0.34189,-0.11319 0.19525,-0.0128 0.39049,-0.0256 0.58574,-0.0384 0.99477,-1.05719 2.48985,0.34962 1.49508,1.40681 v 0 c -0.0183,0.15706 -0.0366,0.31411 -0.0548,0.47117 -0.0819,0.12499 -0.14644,0.26333 -0.24579,0.37498 -0.48044,0.53995 -1.2472,0.7951 -1.93335,0.91739 -0.36179,-0.003 -0.723675,-0.001 -1.085385,-0.009 -0.10481,-0.002 -0.209,-0.0171 -0.31367,-0.0229 -0.0835,-0.005 -0.33431,-0.006 -0.25073,-0.008 0.70163,-0.0235 0.76373,0.0886 0.46966,-0.0959 -0.29441,0.15508 -0.47103,0.42761 -0.67982,0.68087 -0.40138,0.48689 -0.79484,0.988 -1.32006,1.35075 -1.00762,1.94311 -3.7556,0.51811 -2.74797,-1.425 z"
       inkscape:connector-curvature="0" />
  </g>
</svg>
