<?xml version="1.0" encoding="UTF-8" standalone="no"?>
<!-- Created with Inkscape (http://www.inkscape.org/) -->

<svg
   xmlns:dc="http://purl.org/dc/elements/1.1/"
   xmlns:cc="http://creativecommons.org/ns#"
   xmlns:rdf="http://www.w3.org/1999/02/22-rdf-syntax-ns#"
   xmlns:svg="http://www.w3.org/2000/svg"
   xmlns="http://www.w3.org/2000/svg"
   xmlns:sodipodi="http://sodipodi.sourceforge.net/DTD/sodipodi-0.dtd"
   xmlns:inkscape="http://www.inkscape.org/namespaces/inkscape"
   width="1024"
   height="1024"
   viewBox="0 0 270.93333 270.93333"
   version="1.1"
   id="svg8"
   inkscape:version="0.92.4 (5da689c313, 2019-01-14)"
   sodipodi:docname="crack.svg"
   inkscape:export-filename="C:\Users\panu-\PycharmProjects\nextgame\data\images\decals\crack.png"
   inkscape:export-xdpi="10.173375"
   inkscape:export-ydpi="10.173375">
  <defs
     id="defs2" />
  <sodipodi:namedview
     id="base"
     pagecolor="#ffffff"
     bordercolor="#666666"
     borderopacity="1.0"
     inkscape:pageopacity="0.0"
     inkscape:pageshadow="2"
     inkscape:zoom="0.69977474"
     inkscape:cx="118.33215"
     inkscape:cy="421.79831"
     inkscape:document-units="mm"
     inkscape:current-layer="layer1"
     showgrid="false"
     units="px"
     width="1024px"
     inkscape:window-width="1920"
     inkscape:window-height="1017"
     inkscape:window-x="-8"
     inkscape:window-y="-8"
     inkscape:window-maximized="1"
     inkscape:pagecheckerboard="true" />
  <metadata
     id="metadata5">
    <rdf:RDF>
      <cc:Work
         rdf:about="">
        <dc:format>image/svg+xml</dc:format>
        <dc:type
           rdf:resource="http://purl.org/dc/dcmitype/StillImage" />
        <dc:title />
      </cc:Work>
    </rdf:RDF>
  </metadata>
  <g
     inkscape:groupmode="layer"
     id="layer1"
     inkscape:label="lines 2"
     style="display:inline">
    <path
       style="fill:#727272;fill-opacity:1;stroke:none;stroke-width:0.26458332;stroke-opacity:1"
       id="path862"
       d="m 109.61231,134.26594 c 0.0745,-0.41423 0.11482,-0.83611 0.22356,-1.2427 0.79076,-2.95692 2.56861,-5.95399 4.08659,-8.59533 1.69131,-2.9175 3.7744,-5.55945 6.07917,-8.00984 2.78796,-2.99524 5.91326,-5.56766 9.26269,-7.90362 2.63674,-1.7059 5.44008,-3.14914 8.4205,-4.15265 1.79665,-0.60493 2.32733,-0.67845 4.15409,-1.09462 2.95823,-0.66415 6.00763,-0.76687 8.93696,-1.55796 1.63713,-0.54155 3.03592,-1.56697 4.46726,-2.495723 0.81319,-0.52214 0.95441,-0.336561 1.16421,-1.243637 0.28133,-1.208688 0.74201,-2.437551 1.6695,-3.308353 0.21425,-0.201155 0.47016,-0.352721 0.70524,-0.529079 0.89553,-0.65178 1.95091,-0.461841 2.95212,-0.662972 0.75668,-0.325686 1.49834,-0.707588 2.2136,-1.11769 0.72499,-0.339442 1.42277,-0.706511 2.00145,-1.265351 0.52771,-0.602853 0.96972,-1.236028 1.69673,-1.604619 0.69005,-0.296439 1.22081,-0.822888 1.78743,-1.297487 0.27017,-0.24388 0.57744,-0.438867 0.82878,-0.701829 0.0731,-0.04891 0.15942,-0.189793 0.17006,-0.224136 0.012,-0.0036 -0.002,0.07734 0.0247,0.07547 0.0909,-0.0065 0.11648,-0.141015 0.18405,-0.202168 0.20547,-0.185965 0.28782,-0.203002 0.54258,-0.328994 -0.0138,-0.244199 0.33159,-0.263652 0.34534,-0.01945 v 0 c 0.5463,0.113879 0.85871,-0.129482 0.91058,0.512593 0.003,0.480009 -0.15109,0.94584 -0.42464,1.341056 -0.26152,0.336024 -0.56667,0.625102 -0.87781,0.913837 -0.42459,0.48002 -0.82459,0.942147 -0.91049,1.606933 -0.22694,0.822389 -0.81722,1.422927 -1.34225,2.078892 -0.70914,0.800386 -1.5197,1.498582 -2.3983,2.10888 -0.87324,0.538509 -1.75897,1.049176 -2.68246,1.49932 -0.44201,0.201843 -1.71496,0.90025 -2.18147,0.649039 0.01,-0.07246 0.0979,-0.239501 0.0282,-0.217477 -0.0481,0.01519 -0.20997,1.379122 -0.23183,1.492887 -0.0716,0.426615 -0.18545,1.189609 -0.31442,1.591728 -0.3268,1.01902 -0.94245,1.90975 -1.66774,2.68286 -1.55484,1.59039 -3.22592,3.07878 -5.21265,4.11475 -0.45308,0.21774 -0.89627,0.45742 -1.35925,0.65322 -2.49472,1.05507 -5.18293,1.45061 -7.81453,2.00677 -1.43132,0.39306 -1.80579,0.45496 -3.20287,1.00747 -2.48598,0.98315 -4.82134,2.32248 -7.11501,3.68185 -3.15846,1.93872 -6.29471,3.92954 -9.19489,6.24493 -0.64929,0.58742 -1.21223,1.0586 -1.78495,1.71894 -1.26173,1.45474 -1.99391,3.25951 -2.82144,4.97376 -1.40612,2.93764 -2.84923,6.06054 -5.14331,8.43373 -0.31129,0.32202 -0.6818,0.581 -1.02269,0.8715 -1.75697,3.64326 -6.90932,1.15854 -5.15235,-2.48472 z"
       inkscape:connector-curvature="0" />
    <path
       style="fill:#727272;fill-opacity:1;stroke:none;stroke-width:0.26458332;stroke-opacity:1"
       id="path866"
       d="m 113.19757,133.40315 c 3.18828,-0.0386 6.38879,0.12905 9.56977,0.36344 2.01785,0.21432 4.04121,0.59404 5.87379,1.50304 1.00392,0.49796 1.42196,0.83849 2.33226,1.47286 2.16111,1.65311 4.24755,3.4017 6.13806,5.36008 1.57152,1.57698 2.92446,3.34384 4.33728,5.05795 0.92645,1.13544 2.09139,2.00717 3.31765,2.78916 1.21686,0.85009 2.45858,1.65744 3.72935,2.42454 1.0599,0.57016 1.95809,1.3764 3.03049,1.9215 0.90333,0.29229 1.84511,0.46904 2.77716,0.64986 1.15067,0.20221 2.24589,0.60335 3.30502,1.08606 1.14596,0.5985 2.12724,1.46725 3.10445,2.30436 1.18336,1.07876 1.81148,2.52213 2.30875,4.00976 0.37513,1.1329 0.6515,2.28467 1.25862,3.31861 0.68538,0.95212 1.11338,2.00091 1.33907,3.14598 0.10179,0.95717 0.32217,1.89686 0.5698,2.82536 0.26415,0.85009 0.57788,1.68389 0.9198,2.50549 0.45546,0.96779 0.75609,1.99467 1.13604,2.99167 0.20678,0.42952 0.29778,0.99996 0.76148,1.22505 0.75876,0.30004 1.41681,0.75895 2.05983,1.25243 0.50065,0.36815 0.9348,0.88087 1.53395,1.09984 1.1768,0.43007 -0.50236,-0.29478 0.58512,0.18904 1.03571,0.3584 0.52886,1.82312 -0.50685,1.46472 v 0 c -0.21496,0.0106 -0.43169,0.0612 -0.64488,0.0317 -0.94746,-0.13113 -1.69981,-0.94551 -2.37581,-1.53828 -0.512,-0.49715 -1.03972,-0.97984 -1.69335,-1.28567 -0.67916,-0.45186 -1.23647,-1.02303 -1.60482,-1.76102 -0.48063,-0.99214 -0.84798,-2.0307 -1.13564,-3.09508 -0.28359,-0.88766 -0.63724,-1.74974 -0.92385,-2.63643 -0.26996,-0.91346 -0.41374,-1.86427 -0.76478,-2.74909 -0.39466,-0.8805 -0.91803,-1.6812 -1.5163,-2.43858 -0.85467,-1.14689 -1.62331,-2.34157 -1.96528,-3.75156 -0.34383,-1.12297 -0.6219,-1.94413 -1.65454,-2.61752 -0.84551,-0.60884 -1.71834,-1.13203 -2.73412,-1.40951 -0.94181,-0.29342 -1.89791,-0.5114 -2.87292,-0.66555 -1.1511,-0.20941 -2.32068,-0.34597 -3.43185,-0.73109 -1.35924,-0.43594 -2.70339,-0.93729 -3.94855,-1.64209 -1.37731,-0.77824 -2.73337,-1.59628 -4.06752,-2.44616 -1.44627,-1.01753 -2.79728,-2.14926 -4.04879,-3.40083 -1.58767,-1.47369 -3.21785,-2.90037 -4.86377,-4.30851 -1.84113,-1.57991 -3.49353,-3.36057 -5.3624,-4.90646 -0.20873,-0.1234 -0.40544,-0.26986 -0.62618,-0.37019 -1.62764,-0.73978 -3.97945,-0.0194 -5.69179,-0.17979 -3.2775,-0.0888 -6.7611,-0.35403 -9.6073,-2.17554 -0.35308,-0.22596 -0.64898,-0.53078 -0.97346,-0.79618 -2.89024,-2.14042 0.13677,-6.22783 3.02701,-4.08741 z"
       inkscape:connector-curvature="0" />
    <path
       style="fill:#727272;fill-opacity:1;stroke:none;stroke-width:0.26458332;stroke-opacity:1"
       id="path868"
       d="m 111.36795,138.10783 c -0.27206,0.20718 -0.5352,0.42663 -0.81617,0.62154 -1.34266,0.93145 -2.77682,1.73175 -4.15091,2.61457 -1.3544,0.87016 -1.65598,1.10032 -2.957,2.01171 -1.12317,0.90274 -2.29277,1.75719 -3.28685,2.80798 -0.796756,0.8422 -1.437953,1.79864 -2.084751,2.75514 -0.926838,1.5218 -1.940147,2.981 -3.03069,4.38865 -0.7086,0.74831 -0.912194,1.63872 -1.088726,2.61598 -0.126985,1.3429 -0.57463,2.57231 -1.313855,3.69202 -0.795417,0.99895 -1.920494,1.46789 -3.153214,1.64179 -1.356027,0.19918 -2.721407,0.12686 -4.084807,0.0796 -0.986547,-0.14645 -1.595123,-0.15103 -2.663833,-0.038 -1.179343,0.1488 -2.361068,0.27149 -3.546258,0.36188 -1.037466,0.0682 -2.06475,0.21986 -3.093762,0.36086 -1.172216,0.18592 -2.332951,0.44034 -3.468714,0.78455 -1.304579,0.36691 -2.590565,0.79273 -3.868658,1.24212 -1.068888,0.28055 -2.084949,0.92199 -3.200715,1.02919 -0.254802,0.0245 -0.511821,-0.0114 -0.767734,-0.0171 -1.615966,0.30609 -2.994339,1.33214 -4.307218,2.27231 -1.555776,1.20814 -3.443446,1.80443 -5.275384,2.45002 -1.168376,0.38257 -2.206768,1.07346 -3.399486,1.37741 -0.503697,0.0702 -1.138004,0.0944 -1.550537,-0.29464 -0.09787,-0.0923 -0.03996,-0.26606 -0.05994,-0.3991 -0.335886,-0.3837 0.206759,-0.85872 0.542645,-0.47501 v 0 c 0.318738,-0.7943 -0.651878,-0.24894 -0.09445,-0.62686 0.966991,-0.68482 1.966071,-1.33037 3.011072,-1.88979 1.773359,-0.89559 3.634951,-1.63681 5.611254,-1.93263 1.615149,-0.34709 3.311549,-0.74939 4.621104,-1.81111 0.137686,-0.17669 0.249206,-0.37733 0.413054,-0.53007 0.803045,-0.74858 2.105721,-1.02981 3.071532,-1.49356 1.351621,-0.47119 2.710823,-0.93322 4.103613,-1.26803 1.257425,-0.24251 2.521072,-0.44663 3.798004,-0.55655 1.050467,-0.14551 2.095228,-0.31584 3.141575,-0.48816 1.170649,-0.1267 2.347474,-0.16287 3.514736,-0.3214 1.383829,-0.1682 2.768719,-0.26115 4.162782,-0.27901 -0.316712,-0.0565 -0.097,-0.008 0.393443,-0.0371 0.480796,-0.0282 0.971066,-0.0724 1.44757,-0.14295 0.150471,-0.0223 0.299797,-0.0517 0.449697,-0.0775 0.477562,-0.0871 1.068128,-0.0179 1.454475,-0.34122 0.471585,-0.86742 0.42827,-1.90729 0.693928,-2.84172 0.275127,-1.289 0.704728,-2.53328 1.343297,-3.69095 0.807892,-1.5522 1.588895,-3.11904 2.436371,-4.64992 1.555935,-2.6807 3.210714,-5.34914 5.79789,-7.16502 0.55431,-0.37918 1.08987,-0.78735 1.66293,-1.13753 2.55212,-1.55955 5.45596,-2.75547 8.47169,-2.84939 1.58888,-0.79267 2.70988,1.45435 1.121,2.24702 z"
       inkscape:connector-curvature="0" />
    <path
       style="fill:#727272;fill-opacity:1;stroke:none;stroke-width:0.26458332;stroke-opacity:1"
       id="path870"
       d="m 64.483516,164.26367 c -0.624803,1.56262 -1.807874,2.79076 -2.822323,4.10321 -0.416753,0.52669 -0.505312,1.16882 -0.637942,1.80294 -0.124683,0.28926 -0.279424,0.54164 -0.243512,0.86186 0.161858,0.71901 0.236029,1.44907 0.288126,2.18306 0.100758,1.3099 -0.180586,2.55352 -0.754015,3.7237 -0.645909,1.05749 -1.419879,2.02744 -2.124022,3.04584 -0.762916,1.12954 -1.241764,2.40873 -1.795286,3.64477 -0.510942,0.82558 -0.192301,0.45921 -0.96621,1.09008 -0.248087,0.70484 -1.244883,0.354 -0.996797,-0.35084 v 0 c -0.110159,-0.93262 -0.137461,-0.47495 0.07355,-1.37349 0.501383,-1.37242 1.059376,-2.73208 1.818987,-3.98475 0.618339,-1.02017 1.409541,-1.89019 2.111121,-2.84929 0.490545,-0.92995 0.480795,-1.92579 0.485024,-2.95944 0.05897,-0.68613 0.140464,-1.36778 0.282265,-2.04177 -0.03027,-0.39351 -0.284885,-0.73042 -0.326991,-1.12459 -0.02847,-0.90876 0.06517,-1.82459 0.300929,-2.70358 0.613373,-1.81197 1.642491,-3.46845 3.304083,-4.49405 1.008573,-1.41634 3.011585,0.01 2.003009,1.42634 z"
       inkscape:connector-curvature="0" />
    <path
       style="fill:#727272;fill-opacity:1;stroke:none;stroke-width:0.26458332;stroke-opacity:1"
       id="path874"
       d="m 166.45592,177.45656 c -1.09313,1.48875 -2.57982,2.61807 -3.83582,3.96308 -0.36376,0.47537 -0.70443,0.72032 -0.38015,1.26431 0.29498,0.526 0.42751,1.13429 0.47947,1.73041 0.0738,0.86624 0.0556,1.73512 -0.0133,2.60055 -0.1523,0.97921 -0.26792,1.57231 -1.04895,2.22054 -0.17959,0.51137 -0.90277,0.2574 -0.72319,-0.25398 v 0 c -0.15706,-0.81187 0.057,-1.33547 0.25028,-2.11813 0.12813,-0.78606 0.19373,-1.58137 0.24248,-2.37607 -0.0178,-0.42472 0.006,-0.86709 -0.27456,-1.21733 -0.61536,-0.85793 -0.67762,-1.78485 -0.30182,-2.77982 0.92066,-1.96945 2.37586,-3.50057 4.45883,-4.24003 0.8531,-0.81083 1.99979,0.39564 1.14669,1.20647 z"
       inkscape:connector-curvature="0" />
    <path
       style="fill:#727272;fill-opacity:1;stroke:none;stroke-width:0.26458332;stroke-opacity:1"
       id="path880"
       d="m 135.24585,145.08806 c 0.96015,-2.31966 2.87074,-4.02308 4.88021,-5.43707 1.99348,-1.26255 4.24182,-2.00017 6.52282,-2.5384 1.60279,-0.29589 3.26829,-0.45178 4.89655,-0.25878 0.5864,0.0695 0.99535,0.33515 1.50605,0.59553 1.12153,0.60287 1.43597,1.91907 2.33821,2.72229 0.9015,0.52342 1.92596,0.76763 2.92145,1.04519 0.96573,0.21374 1.94417,0.37596 2.88501,0.68606 0.46197,0.11477 0.88095,0.3745 1.36123,0.4071 0.0546,-0.003 0.21849,-0.0124 0.16382,-0.0104 -1.10034,0.041 0.29687,0.004 0.53754,-0.012 0.34277,0.004 0.64437,-0.0106 0.94358,-0.18151 0.49463,-0.36021 0.94182,-0.78241 1.40076,-1.18645 0.31177,-0.27898 0.5287,-0.69318 0.97979,-0.70574 0.10908,0.0252 0.21816,0.0503 0.32724,0.0755 0.0405,-0.94111 1.3714,-0.88389 1.33093,0.0572 v 0 c 0.10559,0.0933 0.21118,0.1866 0.31677,0.2799 0.16905,0.80559 -0.3175,1.45264 -0.84262,2.01816 -0.59146,0.58464 -1.26242,1.07654 -2.00768,1.45047 -0.5319,0.25245 -1.06236,0.53059 -1.65726,0.59506 -0.78856,0.0723 -1.58646,0.17551 -2.37747,0.10316 -0.56055,-0.0709 -1.11406,-0.1842 -1.68004,-0.21341 -1.08303,-0.083 -2.16956,-0.21057 -3.22575,-0.46869 -1.44339,-0.4377 -2.80342,-1.05266 -3.82614,-2.20404 -0.44653,-0.55821 -0.38557,-0.44641 -0.7387,-1.01295 -0.19116,-0.30669 -0.34256,-0.75813 -0.69949,-0.90752 -0.24103,-0.007 -0.57209,-0.0295 -0.79537,0.034 -0.0516,0.0147 0.20444,0.0435 0.15177,0.0539 -0.87508,0.17323 -1.80718,0.11836 -2.66944,0.39057 -1.88287,0.36906 -3.85448,0.65298 -5.47005,1.76276 -1.77664,1.41596 -3.27601,3.17713 -5.21957,4.37265 -1.06958,1.59392 -3.32372,0.0813 -2.25415,-1.5126 z"
       inkscape:connector-curvature="0" />
    <path
       style="fill:#727272;fill-opacity:1;stroke:none;stroke-width:0.26458332;stroke-opacity:1"
       id="path882"
       d="m 160.36092,143.60792 c 0.79568,1.32053 1.2542,2.81985 1.59648,4.31573 -0.001,0.0329 0.0298,0.0941 -0.003,0.0988 -0.0472,0.007 -0.0703,-0.0767 -0.11781,-0.0814 -0.12216,-0.012 -0.24658,0.059 -0.36669,0.0338 -0.0472,-0.01 0.0769,-0.0582 0.11586,-0.0866 0.29987,-0.21831 0.14721,-0.12964 0.52541,-0.27741 1.0795,-0.17923 1.78034,0.46089 2.41908,1.24124 0.47363,0.61318 0.71346,1.34188 0.97023,2.06047 0.14475,0.69688 0.63815,1.20226 1.0379,1.76291 0.28982,0.5785 0.91654,1.03929 1.11879,1.66516 0.0444,0.13738 0.0263,0.28757 0.0394,0.43135 0.38909,0.4943 -0.30995,1.04456 -0.69905,0.55026 v 0 c -0.18773,-0.0537 -0.39166,-0.0678 -0.56319,-0.16114 -0.65122,-0.35417 -0.9625,-1.19302 -1.33623,-1.77945 -0.34259,-0.6778 -0.61706,-1.38339 -0.85998,-2.10281 -0.20866,-0.61182 -0.47421,-1.20009 -0.83726,-1.73835 -0.19378,-0.27977 -0.3908,-0.5202 -0.64339,-0.74937 -0.0597,-0.0542 -0.11896,-0.10948 -0.18401,-0.15719 -0.0389,-0.0285 -0.14231,-0.0249 -0.12635,-0.0705 0.0205,-0.0584 0.11596,-0.0434 0.17393,-0.0651 -0.2156,0.0326 -0.23465,0.18034 -0.42179,0.26961 -0.61993,0.2957 -0.97811,0.26016 -1.54888,-0.0746 -1.4005,-1.1647 -2.03101,-2.98555 -1.91795,-4.78294 -0.21389,-1.15139 1.41441,-1.45388 1.6283,-0.30249 z"
       inkscape:connector-curvature="0" />
    <path
       style="fill:#727272;fill-opacity:1;stroke:none;stroke-width:0.26458332;stroke-opacity:1"
       id="path886"
       d="m 142.57018,153.35135 c -0.0294,0.30772 -0.022,0.62124 -0.0883,0.92315 -0.0785,0.35717 -0.22104,0.69733 -0.34353,1.04189 -0.40521,1.13991 -0.87736,2.21776 -1.5445,3.22738 0.009,-0.28269 -0.17448,0.40276 -0.29521,0.32155 -0.0513,-0.0345 -0.0524,-0.11191 -0.0799,-0.16724 -0.0167,-0.0336 -0.0895,-0.0931 -0.0526,-0.0995 0.1642,-0.0282 0.25589,0.21517 0.36695,0.33937 0.38661,0.67126 0.29316,1.44126 0.24649,2.18064 -0.001,1.06235 -0.40023,1.99989 -0.9171,2.90557 -0.52603,0.7521 -0.21215,0.42277 -0.94342,0.9863 -0.53899,0.86662 -1.76457,0.10437 -1.22558,-0.76225 v 0 c 0.31606,-0.77649 0.10523,-0.42477 0.62564,-1.05925 0.52913,-0.66274 1.06912,-1.26705 1.04304,-2.16529 0.0478,-0.49399 0.0249,-1.09006 0.22011,-1.54022 0.022,0.009 0.046,0.0153 0.0661,0.0283 0.0167,0.0108 -0.039,-0.0106 -0.0556,-0.0215 -0.0846,-0.0556 -0.17766,-0.10318 -0.24667,-0.17727 -0.29042,-0.31186 -0.39558,-0.7219 -0.46197,-1.12848 -0.0848,-1.47147 0.31178,-3.39379 0.97602,-4.70455 0.14342,-0.28302 0.35756,-0.52424 0.53634,-0.78636 0.46513,-1.53705 2.63884,-0.87926 2.17371,0.65779 z"
       inkscape:connector-curvature="0" />
    <path
       style="fill:#727272;fill-opacity:1;stroke:none;stroke-width:0.26458332;stroke-opacity:1"
       id="path888"
       d="m 92.230561,162.05792 c -1.020594,1.56341 -2.370781,2.868 -3.408082,4.42141 -0.55031,0.82307 -0.508627,1.63513 -0.391729,2.56024 0.04707,0.46409 0.03815,0.91781 0.361257,1.27702 0.401267,0.48256 0.822994,0.94717 1.210656,1.44073 0.456978,0.60785 0.890879,1.22131 1.570278,1.5882 0.68249,0.27207 1.367542,0.46896 1.99657,0.85866 0.685258,0.33918 0.848556,1.23259 1.441349,1.64589 0.447596,0.13853 0.925285,0.17781 1.361914,0.36154 0.624525,0.33089 0.566452,0.39475 0.654497,1.11478 0.658569,0.40543 0.0852,1.33679 -0.573368,0.93136 v 0 c -0.455448,0.39976 -0.680942,0.60466 -1.2944,0.58052 -0.94919,-0.0876 -1.802103,-0.52565 -2.479815,-1.1964 -0.289002,-0.32856 -0.540112,-0.8322 -0.912008,-1.0463 -0.829125,-0.19256 -1.651235,-0.44072 -2.374413,-0.90408 -0.874027,-0.65106 -1.600877,-1.42366 -2.121538,-2.39028 -0.337105,-0.55565 -0.703193,-1.09015 -1.068755,-1.62685 -0.376629,-0.66918 -0.638619,-1.3792 -0.847347,-2.11774 -0.376356,-1.47883 -0.365842,-2.99809 0.138528,-4.45161 0.95658,-2.37599 2.250112,-4.15805 4.671036,-5.19642 1.519807,-1.46044 3.585179,0.6889 2.06537,2.14933 z"
       inkscape:connector-curvature="0" />
    <path
       style="fill:#727272;fill-opacity:1;stroke:none;stroke-width:0.26458332;stroke-opacity:1"
       id="path890"
       d="m 92.233622,177.36088 c -0.944941,1.67198 -2.297303,3.09719 -3.737607,4.35493 -0.676461,0.60153 -0.711843,0.38905 -0.124429,0.79861 0.49308,0.31119 0.688147,0.81375 0.748874,1.37018 -0.0236,0.64147 -0.06352,1.28231 -0.09437,1.92372 -0.07221,0.87486 -0.09378,1.75287 -0.163547,2.62783 0.0016,0.30819 -0.06248,0.55827 -0.215641,0.8186 0.01879,0.29215 -0.394367,0.31871 -0.413152,0.0266 v 0 c -0.195604,-0.26149 -0.28207,-0.51193 -0.291396,-0.8469 -0.06451,-0.90899 0.02387,-1.80781 0.213106,-2.69907 0.09322,-0.61241 0.20856,-1.21736 0.359912,-1.81729 0.0016,-0.44264 -0.330017,-0.62049 -0.663987,-0.85452 -0.828117,-0.56483 -1.048343,-1.11969 -0.809279,-2.13734 0.09683,-0.25466 0.166257,-0.52149 0.290484,-0.76397 0.808712,-1.57847 2.220203,-2.85495 3.72515,-3.74254 0.665517,-0.83147 1.8414,0.10971 1.175883,0.94119 z"
       inkscape:connector-curvature="0" />
    <path
       style="fill:#727272;fill-opacity:1;stroke:none;stroke-width:0.26458332;stroke-opacity:1"
       id="path892"
       d="m 96.38831,176.95437 c 1.358152,-0.37441 2.935939,-0.009 4.082,0.0389 0.0525,-0.005 0.22398,0.0148 0.26935,-0.0731 0.176,-0.34091 0.16299,-1.08574 0.21311,-1.46305 0.0523,-0.36463 0.45574,-1.94713 0.8787,-2.07209 0.49383,-0.14589 1.02065,-0.13747 1.53098,-0.20621 0.91099,0.38519 0.75515,-0.21669 1.18311,0.90876 0.50581,0.20229 0.21973,0.91762 -0.28609,0.71533 v 0 c -1.07459,0.5755 -1.0277,0.67317 -2.00583,-0.0188 0.38704,-0.12385 0.78167,-0.22611 1.16113,-0.37156 0.0458,-0.0175 0.0512,-0.12853 0.0968,-0.11063 0.0415,0.0163 -0.0358,1.32054 -0.0419,1.42158 -0.1769,1.47362 -0.50879,2.88242 -1.91656,3.65619 -0.25237,0.0895 -0.49235,0.22849 -0.75711,0.26851 -1.739259,0.26293 -3.623,0.0698 -5.181552,-0.76011 -1.36733,-0.54715 -0.593537,-2.48085 0.773792,-1.9337 z"
       inkscape:connector-curvature="0" />
    <path
       style="fill:#727272;fill-opacity:1;stroke:none;stroke-width:0.26458332;stroke-opacity:1"
       id="path894"
       d="m 144.68231,106.49533 c -2.00995,-0.29758 -3.55592,-1.63962 -5.26391,-2.6072 -0.69463,-0.3508 -1.36216,-0.75599 -2.01429,-1.18028 -0.96742,-0.69446 -1.21655,-1.73705 -1.2977,-2.85507 7.9e-4,-0.609393 0.0864,-1.196424 -0.10674,-1.781373 -0.39456,-0.970939 -0.47862,-1.998599 -0.43795,-3.034168 0.0895,-1.488691 0.83671,-2.414926 1.93931,-3.320891 0.64664,-0.533728 1.41061,-0.923044 2.02063,-1.500743 0.1645,-0.267356 -0.0696,-0.81048 -0.14027,-1.112083 -0.11802,-0.886566 -0.19085,-1.744179 -0.56822,-2.562723 -0.47024,-0.890537 -0.82358,-1.844365 -1.0449,-2.825813 -0.12263,-0.709515 0.0452,-1.374505 0.25238,-2.048071 1.0571,-3.064065 5.39034,-1.569103 4.33324,1.494962 v 0 c 0.0417,-0.146484 0.15032,-1.029541 0.3109,-0.385437 0.20874,0.879181 0.54008,1.720948 0.72239,2.609292 0.24026,1.092104 0.33999,2.183601 0.36947,3.299841 0.0293,1.285843 0.0608,2.567781 -0.62474,3.718964 -0.71305,1.050065 -1.60895,1.898902 -2.77049,2.443269 -0.39205,0.183234 -0.62112,0.426667 -0.62934,-0.09881 -1.6e-4,-0.01 -0.006,0.01902 -0.009,0.02852 0.003,0.06771 0.006,0.135427 0.01,0.20314 0.088,0.847386 0.21603,1.690465 0.29773,2.538692 0.0591,0.771351 0.0943,1.541889 0.0207,2.313895 -0.0596,0.603207 -0.16297,0.106591 -0.41466,-0.103491 0.89418,0.07177 1.74619,0.561818 2.48264,1.030438 1.51752,1.00125 3.30607,1.61544 4.58641,2.9531 1.96719,1.43045 -0.0558,4.21249 -2.02297,2.78203 z"
       inkscape:connector-curvature="0" />
    <path
       style="fill:#727272;fill-opacity:1;stroke:none;stroke-width:0.26458332;stroke-opacity:1"
       id="path896"
       d="m 140.82151,86.700444 c 0.85572,-1.733622 2.3848,-3.119964 4.16515,-3.881613 0.31023,-0.132717 0.64144,-0.209695 0.96217,-0.314544 1.08789,-0.188286 1.1888,-0.26665 2.48045,-0.126299 0.49487,0.05377 0.95313,0.288989 1.43616,0.409258 0.62199,0.154868 0.67827,0.144761 1.30582,0.228158 1.00453,0.02212 1.85589,0.05261 2.87324,-0.06945 0.57086,-0.0767 1.0413,-0.279972 1.47253,-0.651944 0.12188,-0.05581 0.62217,-0.672399 0.34028,-0.230452 -0.35294,-0.170606 -0.28752,-0.9799 -0.27147,-1.270627 0.40692,-0.99813 0.68303,-0.845873 1.62151,-0.598046 0.19714,-0.176125 0.44621,0.102669 0.24907,0.278794 v 0 c 0.14946,0.211924 0.47498,0.853165 0.61972,0.504032 -0.0643,-0.267222 0.23563,1.2408 0.13131,0.92801 -0.0523,0.753239 -0.32202,1.397957 -0.86314,1.93499 -0.66326,0.615807 -1.4032,1.129522 -2.28894,1.368023 -1.60912,0.437036 -3.27521,0.613151 -4.93192,0.31763 -0.69752,-0.144151 -1.37996,-0.36298 -2.07737,-0.499767 -0.13927,-0.02732 -0.37708,0.08708 -0.42316,-0.04716 -0.0429,-0.125055 0.27747,-0.09464 0.39517,-0.0344 0.0931,0.04764 -0.20193,0.05442 -0.3029,0.08162 -1.51067,1.126323 -2.71847,2.660316 -4.45311,3.478159 -1.27589,1.72574 -3.71646,-0.07864 -2.44057,-1.804381 z"
       inkscape:connector-curvature="0" />
    <path
       style="fill:#727272;fill-opacity:1;stroke:none;stroke-width:0.26458332;stroke-opacity:1"
       id="path902"
       d="m 139.28707,82.736379 c -0.60711,-1.396124 -0.22432,-3.020491 -0.81742,-4.405333 -0.0492,-0.03897 -0.0866,-0.101852 -0.14755,-0.116898 -0.0866,-0.02138 -0.31391,0.106137 -0.23009,0.136652 0.14366,0.0523 0.31144,-0.0069 0.45688,0.04026 0.0791,0.02564 -0.16542,0.0173 -0.24795,0.02742 -0.11925,0.01461 -0.23824,0.03114 -0.35736,0.04671 -0.0747,0.0131 -1.58406,0.0088 -1.78978,-0.299437 -0.0789,-0.118234 -0.0377,-0.281787 -0.0566,-0.42268 -1.05452,-0.592555 -0.21652,-2.083871 0.838,-1.491313 v 0 c 0.14166,-0.08943 0.27004,-0.20456 0.42497,-0.268282 0.0884,-0.03638 1.05219,0.0927 -0.1563,0.02706 0.72588,0.04698 -0.36212,-0.0094 0.65907,-0.02392 1.44159,-0.0204 2.00863,0.10346 3.00612,1.173938 0.16404,0.241639 0.35319,0.468016 0.49212,0.724916 0.82535,1.526204 0.89133,3.377999 0.26178,4.975416 -0.0881,1.65173 -2.42395,1.527204 -2.3359,-0.124527 z"
       inkscape:connector-curvature="0" />
    <path
       style="fill:#727272;fill-opacity:1;stroke:none;stroke-width:0.26458332;stroke-opacity:1"
       id="path904"
       d="m 119.91529,118.24204 c -1.00993,-1.68384 -1.06255,-3.61209 -1.39303,-5.48159 -0.0285,-0.0771 -0.0328,-0.16831 -0.0856,-0.23132 -0.0537,-0.064 -0.12387,0.11813 -0.20143,0.14919 -0.0728,0.0292 -0.15445,0.0314 -0.23283,0.0336 -0.25725,0.007 -0.61344,-0.0385 -0.86196,-0.0637 -1.22058,-0.20233 -1.92133,-0.59827 -2.7053,-1.55163 -0.41812,-0.52464 -0.36425,-1.19697 -0.64225,-1.76807 -0.31745,-0.78719 -0.3446,-1.62627 -0.28903,-2.4607 0.0348,-0.11852 0.0682,-1.0839 0.31549,-1.045 2.75011,-2.45643 1.19591,-2.03579 1.05751,-1.52639 -0.008,0.0293 0.0583,-0.0197 0.0886,-0.0207 0.20964,-0.1306 0.58673,-0.54486 0.59586,-0.0861 -0.0846,0.02 0.0694,0.27083 -0.0267,0.30124 -0.11925,0.0377 -1.46228,-1.07376 -1.57508,-1.16801 -1.44697,-1.09714 -2.33037,-2.66647 -3.26189,-4.179114 -0.0625,-0.178077 -0.12502,-0.356158 -0.18754,-0.534236 -0.862,-0.748225 0.19615,-1.967285 1.05816,-1.219062 v 0 c 0.30636,0.04901 0.61273,0.09802 0.9191,0.147024 1.7345,0.85358 3.36942,1.897853 4.5929,3.427108 0.75112,0.94176 1.5245,1.97013 1.69717,3.19425 0.0106,0.75835 -0.0966,1.53913 -0.43504,2.22615 -0.51659,0.80479 -2.75085,2.64632 -0.56633,-0.29057 0.10215,0.29308 0.17226,0.56781 0.14701,0.88828 0.0143,0.44399 0.0463,0.88779 0.0873,1.33002 0.11746,0.61544 0.33116,1.33833 -0.12646,0.22117 -0.0738,-0.10726 -0.29131,-0.28781 -0.17618,-0.34861 0.28932,-0.15282 1.14531,0.22672 1.44247,0.23674 1.84462,0.61755 2.992,1.39746 3.86325,3.21741 0.81611,2.18326 0.99359,3.95856 0.33812,6.23136 0.2625,2.42981 -3.17377,2.80104 -3.43627,0.37123 z"
       inkscape:connector-curvature="0" />
    <path
       style="fill:#727272;fill-opacity:1;stroke:none;stroke-width:0.26458332;stroke-opacity:1"
       id="path910"
       d="m 110.84825,135.98718 c -1.15845,-1.77038 -1.18836,-3.89245 -1.28628,-5.93079 -0.0275,-0.11239 -0.0248,-0.23691 -0.0825,-0.33718 -0.0176,-0.0306 -0.44624,0.10358 -0.70429,0.0846 -0.53047,-0.0391 -1.11111,-0.16897 -1.62502,-0.26672 -2.46089,-0.43774 -4.86774,-1.11677 -7.226517,-1.93567 -1.459768,-0.53372 -2.861168,-1.21198 -4.293839,-1.81432 -1.306039,-0.43317 -2.682763,-0.56364 -4.04745,-0.65984 -0.942223,0.0468 -1.940999,-0.11138 -2.875624,0.0687 -0.15403,0.0297 0.623909,0.0292 0.468159,0.0479 -0.07513,0.009 -2.175912,0.0569 -2.25969,0.0588 -1.157713,0.0975 -2.34847,0.011 -3.493854,0.23955 -0.03604,0.0134 -0.07059,0.0485 -0.10812,0.0401 -0.05184,-0.0115 -0.05034,-0.0965 -0.0908,-0.13088 -0.0041,-0.003 0.02254,0.17691 0.103028,0.73088 0.135536,1.14621 -0.125999,2.19606 -0.795861,3.12423 -0.422082,0.64539 -1.127733,0.86549 -1.756471,1.22082 -1.046652,0.67821 -1.95622,1.59609 -3.113391,2.1081 -0.413277,0.18286 -0.857457,0.28584 -1.286188,0.42877 -2.605968,0.88313 -5.548108,1.17666 -8.218487,0.3524 -0.359683,-0.11103 -0.700725,-0.27528 -1.051089,-0.41291 -1.07981,-0.78069 -1.107443,-0.79633 -0.950034,-2.07073 -0.748467,-0.54078 0.0163,-1.59927 0.764773,-1.05849 v 0 c 0.729189,-0.59357 1.141679,-0.90826 2.117764,-0.92682 1.742551,0.0734 2.98494,0.2082 4.903682,0.0154 0.54324,-0.20677 1.098992,-0.38095 1.636517,-0.60215 0.917109,-0.3774 1.771837,-0.9048 2.654964,-1.35111 0.07371,-0.0338 1.080876,-0.50868 1.198454,-0.37822 0.08321,0.0923 -0.531591,0.37477 -0.499065,0.60397 -0.204857,0.27745 -0.03108,-0.29713 -0.147505,-0.41728 -0.28469,-1.51231 -0.488527,-2.98274 0.429482,-4.34833 0.205438,-0.28508 0.384339,-0.5913 0.61631,-0.85524 1.350846,-1.53699 3.292766,-2.17152 5.278567,-2.32969 2.895936,-0.20702 5.832927,-0.28774 8.693734,0.28798 1.643134,0.36574 3.235005,0.87752 4.761712,1.59431 1.399873,0.51191 2.833779,0.87416 4.276079,1.24529 2.38696,0.70261 4.74575,1.51224 6.98564,2.60626 2.01931,1.03094 3.64365,2.05851 4.33981,4.35994 0.50713,1.84069 0.89818,3.78409 0.73668,5.69767 0.64395,2.86608 -3.40931,3.77676 -4.05326,0.91068 z"
       inkscape:connector-curvature="0" />
    <path
       style="fill:#727272;fill-opacity:1;stroke:none;stroke-width:0.26458332;stroke-opacity:1"
       id="path916"
       d="m 66.573497,133.49011 c -1.614913,0.0414 -3.085724,-0.71539 -4.642466,-0.97807 1.11697,-0.13434 1.130162,0.1267 1.679117,-0.49178 0.09547,-0.10756 0.163092,-0.23702 0.249438,-0.35204 0.0081,-0.0108 0.03526,-0.037 0.03269,-0.0237 -0.02859,0.14703 -0.230746,0.72259 -0.249931,0.77937 -0.361643,0.98582 -1.02417,1.75713 -1.879904,2.34333 -0.155215,0.1999 -0.228415,-0.0142 -0.376113,0.0195 -0.199851,0.0457 -0.350737,0.40746 -0.438145,0.54868 -0.395161,0.66559 -0.895996,1.25127 -1.492462,1.74212 -0.553497,0.37972 -1.088689,0.77229 -1.619128,1.18455 -0.865523,0.6918 -1.829435,1.23308 -2.836987,1.68625 -0.314727,0.3088 -1.663472,0.45348 -1.877295,0.74817 -0.1294,0.38816 -0.289767,0.76414 -0.51452,1.10564 -0.0046,0.45226 -0.644191,0.44575 -0.63959,-0.007 v 0 c -0.325808,-0.46825 -0.584436,-0.9419 -0.479359,-1.53544 0.229293,-1.00982 0.614595,-1.83919 1.422262,-2.52421 0.761072,-0.76892 1.599973,-1.42762 2.552724,-1.94554 0.486289,-0.29542 0.925859,-0.65265 1.353402,-1.02592 0.307126,-0.30626 0.550976,-0.66749 0.768133,-1.0444 0.391856,-0.69597 0.676699,-1.48246 1.250455,-2.05338 0.176168,-0.1215 0.257064,-0.13412 0.303591,-0.37885 0.273863,-1.14785 0.713391,-2.87394 1.973342,-3.34016 0.708845,-0.2623 1.490083,-0.25436 2.235126,-0.38154 2.142516,-0.0161 4.32457,0.39963 5.950312,1.90036 2.845126,1.92665 0.120431,5.95026 -2.724692,4.02361 z"
       inkscape:connector-curvature="0" />
    <path
       style="fill:#727272;fill-opacity:1;stroke:none;stroke-width:0.26458332;stroke-opacity:1"
       id="path920"
       d="m 59.193379,135.20643 c 0.08811,1.88491 -0.354814,3.74862 -0.724464,5.58619 -0.219919,1.01603 -0.05762,0.75803 0.741215,1.0302 0.930939,0.33825 1.557652,0.94696 1.93489,1.8478 0.08445,0.49649 0.200035,0.96084 0.379029,1.42631 0.2273,0.42212 0.431911,0.84826 0.576836,1.3064 0.0966,0.44114 0.131292,0.91599 -0.02214,1.34761 -0.0098,0.0199 -0.01617,0.0418 -0.02944,0.0596 -0.02265,0.0303 0.01942,-0.13354 -0.01225,-0.11282 -0.08701,0.057 -0.140062,0.15379 -0.211492,0.22938 -0.133191,0.0648 -0.266382,0.12951 -0.399573,0.19427 0.02334,0.69532 -0.960001,0.72833 -0.98334,0.033 v 0 c -0.138054,-0.0569 -0.276109,-0.11383 -0.414163,-0.17074 -0.261885,-0.29183 -0.309152,-0.57107 -0.168577,-0.94291 0.03782,0.17833 0.02368,0.11346 -0.03138,-0.0545 -0.152167,-0.51248 -0.317606,-1.02727 -0.333796,-1.56654 -0.0079,-0.36659 0.0222,-0.74936 -0.01701,-1.10645 -0.293418,-0.43265 -0.899814,-0.61108 -1.3281,-0.86399 -1.258112,-0.58932 -1.883945,-1.33351 -2.117288,-2.74103 -0.188736,-2.06358 0.07989,-4.18831 1.242594,-5.95308 0.31909,-1.35655 2.237544,-0.90529 1.918454,0.45126 z"
       inkscape:connector-curvature="0" />
    <path
       style="fill:#727272;fill-opacity:1;stroke:none;stroke-width:0.26458332;stroke-opacity:1"
       id="path930"
       d="m 81.4561,123.38513 c -1.777732,-1.78458 -2.529157,-4.21541 -2.982483,-6.62979 -0.141785,-1.19568 -0.217927,-2.53516 0.398965,-3.63153 0.13208,-0.23473 0.319825,-0.43348 0.479737,-0.65021 0.532675,-0.44819 0.194482,-0.18625 0.06973,-5.3e-4 -0.09656,0.14381 -0.331504,0.58875 -0.3103,0.41683 0.02151,-0.17447 0.06031,-0.34686 0.105934,-0.51663 0.04985,-0.18547 0.120009,-0.36488 0.180014,-0.54732 0.439412,-1.18673 1.234419,-2.16157 2.053995,-3.10305 0.06251,-0.0635 0.118589,-0.13399 0.187518,-0.19042 0.145669,-0.11925 -0.0019,0.25779 0.08059,0.24745 0.03944,-0.005 -0.03928,-0.30469 -0.07943,-0.49029 -0.115523,-0.97487 -0.799174,-1.95448 -0.814756,-2.93134 -0.0049,-0.30629 0.09521,-0.60522 0.142812,-0.90784 -0.535398,-1.15119 1.092629,-1.90835 1.628026,-0.75717 v 0 c 0.313997,0.16455 0.660292,0.27844 0.941988,0.49365 0.912913,0.69747 1.488842,2.17012 1.826475,3.23576 0.446307,1.25939 0.577373,2.00941 0.04615,3.30898 -0.500153,1.02268 -1.132817,1.97879 -1.939579,2.78867 -0.06592,0.0659 -0.124568,0.14003 -0.197755,0.19778 -0.03542,0.028 -0.09814,0.0182 -0.123396,0.0556 -0.06726,0.0996 -0.08754,0.22397 -0.138896,0.33257 -0.370215,0.78295 -0.226438,0.59753 -0.707591,1.11206 -0.03493,0.0374 0.06604,-0.0781 0.09906,-0.11716 0.09988,-0.16363 0.21513,-0.31882 0.299648,-0.49089 0.07343,-0.14949 0.07093,-0.54027 0.212341,-0.45228 0.334727,0.20827 0.413708,1.15137 0.672547,1.38877 0.790393,1.97055 1.676797,3.98563 1.823448,6.12508 1.211366,2.79646 -2.743425,4.50959 -3.954791,1.71313 z"
       inkscape:connector-curvature="0" />
    <path
       style="fill:#727272;fill-opacity:1;stroke:none;stroke-width:0.26458332;stroke-opacity:1"
       id="path936"
       d="m 80.150241,116.09628 c -1.823836,-0.0309 -3.51846,-0.71969 -5.13961,-1.49278 0.762595,0.7293 0.507344,-0.40092 0.42658,-0.38882 -0.181245,0.0271 -0.316998,0.18402 -0.475734,0.27561 -0.657953,0.19545 -1.255028,0.4771 -1.851838,0.81532 -0.740783,0.47271 -1.493948,0.91802 -2.307156,1.25383 -0.505465,0.11132 -0.951598,0.37206 -1.410012,0.60106 -1.092912,0.52153 -2.215102,0.95435 -3.386876,1.25912 -0.916543,0.17055 -1.856483,0.21601 -2.786935,0.13792 -0.589275,-0.0495 -1.199513,-0.32023 -1.747195,-0.52318 -0.111683,-0.20673 -0.223369,-0.41346 -0.335052,-0.6202 -0.484217,-0.22013 -0.1729,-0.90491 0.311314,-0.68478 v 0 c 0.245213,-0.13112 0.490424,-0.26225 0.735637,-0.39337 1.039489,-0.0303 1.777976,-0.15327 2.764046,-0.22341 1.177788,-0.19298 2.304778,-0.57744 3.476072,-0.79799 0.460325,-0.0497 0.80907,0.0278 1.138619,-0.33355 0.6981,-0.50701 1.389422,-1.02556 2.161603,-1.41875 0.532339,-0.28243 1.289164,-0.76811 1.906611,-0.74951 0.671148,-0.9549 1.204987,-1.16184 2.58494,-1.11548 2.029955,0.0344 4.01093,0.68539 5.42349,2.20443 1.551765,1.05253 0.06326,3.24706 -1.488504,2.19453 z"
       inkscape:connector-curvature="0" />
    <path
       style="fill:#727272;fill-opacity:1;stroke:none;stroke-width:0.26458332;stroke-opacity:1"
       id="path938"
       d="m 67.491943,117.66441 c -0.728433,-0.47498 -1.728767,-0.91572 -2.167716,-1.72646 -0.14792,-0.2732 -0.152368,-0.60238 -0.228552,-0.90358 -0.888751,-0.86659 0.336791,-2.12347 1.225542,-1.25688 v 0 c 0.417758,0.052 0.857909,0.0114 1.253276,0.15602 0.981217,0.3589 1.593617,1.35501 2.023319,2.23131 1.060365,1.48907 -1.045504,2.98866 -2.105869,1.49959 z"
       inkscape:connector-curvature="0" />
    <path
       style="fill:#727272;fill-opacity:1;stroke:none;stroke-width:0.26458332;stroke-opacity:1"
       id="path950"
       d="m 100.46241,148.4885 c 1.49432,-0.63404 3.06815,-0.64074 4.66806,-0.72532 1.68532,-0.0891 3.35188,-0.076 5.03724,-0.0136 1.29694,0.0382 2.59081,0.15588 3.8766,0.32732 0.29814,0.0397 0.60217,0.0549 0.89231,0.1342 0.0489,0.0134 0.0518,0.0872 0.0777,0.13082 0.19666,0.0343 0.39332,0.0686 0.58997,0.10293 0.78205,0.22349 1.49457,0.11104 2.25971,-0.0939 1.2852,-0.29039 2.57783,-0.56229 3.88618,-0.72145 0.86099,0.0354 1.83407,-0.29771 2.68086,-0.0344 -0.0555,0.22652 -0.42433,0.68335 0.0404,-0.002 0.10064,-0.14835 0.33392,-0.39715 0.44195,-0.51755 0.65626,-0.66966 1.38518,-1.32136 2.27046,-1.67361 0.30568,-0.12162 0.63226,-0.18218 0.94838,-0.27326 0.74227,-0.7773 1.84154,0.27242 1.09927,1.04972 v 0 c -0.13811,0.26381 -0.24288,0.54797 -0.41433,0.79143 -0.5985,0.84989 -1.5388,1.38866 -2.49779,1.72475 -0.65774,0.16294 -0.4451,0.199 -0.45789,-0.12758 -0.002,-0.0476 -0.0342,0.0892 -0.0573,0.13079 -0.17326,0.31237 -0.14465,0.25386 -0.36836,0.50402 -0.78779,0.65725 -1.84868,0.7567 -2.83281,0.8757 -1.31482,0.10319 -2.6353,0.13317 -3.94706,0.28751 -0.83162,0.0385 -1.67508,0.0412 -2.48826,0.23841 -1.11015,0.22237 -0.0568,0.0301 -1.90854,0.24214 -1.66706,0.19089 -3.33132,0.43932 -5.01546,0.42647 -2.78811,0.0675 -5.52182,0.0962 -8.21037,-0.75446 -1.435052,0.40371 -2.005983,-1.62576 -0.57093,-2.02947 z"
       inkscape:connector-curvature="0" />
    <path
       style="fill:#727272;fill-opacity:1;stroke:none;stroke-width:0.26458332;stroke-opacity:1"
       id="path952"
       d="m 94.423898,129.63647 c 0.428009,1.98484 -0.0016,4.00816 -0.289745,5.98235 -0.204229,1.06354 -0.104227,2.14128 -0.05893,3.21312 0.08477,0.55972 -0.169958,1.12514 0.0081,1.66621 0.01823,0.77504 -0.167881,1.54774 -0.578104,2.20683 -0.397716,0.24478 -0.15209,0.14473 -0.770122,0.19998 -0.09709,1.00665 -1.520709,0.86934 -1.423618,-0.13731 v 0 c -0.582898,-0.47135 -0.416628,-0.18683 -0.588449,-0.7944 0.06053,-0.4613 0.228182,-1.43773 0.769009,-1.58249 0.278199,-0.36083 -0.243337,-0.94773 -0.17045,-1.36721 -0.139914,-1.16482 -0.222295,-2.33671 -0.398124,-3.49778 -0.136136,-2.09032 -0.104978,-4.23592 0.795097,-6.17336 0.200861,-1.91297 2.906207,-1.62891 2.705346,0.28406 z"
       inkscape:connector-curvature="0" />
    <path
       style="fill:#727272;fill-opacity:1;stroke:none;stroke-width:0.26458332;stroke-opacity:1"
       id="path954"
       d="m 101.68286,119.16893 c 0.90103,-2.2462 2.70554,-3.9045 4.69686,-5.19384 1.33728,-0.73112 2.39002,-0.91886 3.91872,-0.69682 0.0736,0.0107 0.97754,0.32869 1.09674,0.37019 0.60911,0.56588 0.36951,0.17324 0.34022,1.33734 0.47322,0.32713 0.0106,0.99635 -0.46262,0.66923 v 0 c -0.99455,0.73914 -0.49599,0.61149 -1.39643,0.65848 -0.93699,-0.28609 -0.86444,-0.0695 -0.10635,-0.21257 0.0487,-0.009 -0.087,-0.0629 -0.13646,-0.0593 -0.2332,0.0171 -0.45956,0.30341 -0.58792,0.42013 -1.52987,1.6083 -3.02069,3.33942 -5.0417,4.34448 -1.15777,1.64124 -3.47883,0.004 -2.32106,-1.63733 z"
       inkscape:connector-curvature="0" />
    <path
       style="fill:#727272;fill-opacity:1;stroke:none;stroke-width:0.26458332;stroke-opacity:1"
       id="path956"
       d="m 130.28403,121.80749 c 1.65087,1.81386 2.70947,4.09502 3.06236,6.52344 0.0642,0.44187 0.0683,0.8904 0.10249,1.3356 -0.0441,1.33196 -0.003,3.05627 -1.01619,4.08301 -0.46992,0.3419 -1.00119,0.56985 -1.50143,0.8649 -0.21124,0.50849 -0.93035,0.20976 -0.71911,-0.29873 v 0 c -0.085,-0.48227 -0.18813,-0.91419 -0.4595,-1.33116 -0.21153,-0.89039 -0.27519,-1.82213 -0.62748,-2.68308 -0.73,-2.46118 -1.40046,-4.97896 -1.41322,-7.56414 -0.65749,-1.81873 1.91458,-2.74856 2.57208,-0.92984 z"
       inkscape:connector-curvature="0" />
  </g>
</svg>
