<?xml version="1.0" encoding="UTF-8" standalone="no"?>
<!-- Created with Inkscape (http://www.inkscape.org/) -->

<svg
   xmlns:dc="http://purl.org/dc/elements/1.1/"
   xmlns:cc="http://creativecommons.org/ns#"
   xmlns:rdf="http://www.w3.org/1999/02/22-rdf-syntax-ns#"
   xmlns:svg="http://www.w3.org/2000/svg"
   xmlns="http://www.w3.org/2000/svg"
   xmlns:sodipodi="http://sodipodi.sourceforge.net/DTD/sodipodi-0.dtd"
   xmlns:inkscape="http://www.inkscape.org/namespaces/inkscape"
   width="2048"
   height="4096"
   viewBox="0 0 541.86666 1083.7333"
   version="1.1"
   id="svg8"
   inkscape:version="0.92.4 (5da689c313, 2019-01-14)"
   sodipodi:docname="exit.svg"
   inkscape:export-filename="C:\Users\panu-\PycharmProjects\nextgame\data\images\decals\exit.png"
   inkscape:export-xdpi="10.923292"
   inkscape:export-ydpi="10.923292">
  <defs
     id="defs2" />
  <sodipodi:namedview
     id="base"
     pagecolor="#ffffff"
     bordercolor="#666666"
     borderopacity="1.0"
     inkscape:pageopacity="0.0"
     inkscape:pageshadow="2"
     inkscape:zoom="0.17494369"
     inkscape:cx="77.206221"
     inkscape:cy="1712.7382"
     inkscape:document-units="mm"
     inkscape:current-layer="layer5"
     showgrid="false"
     units="px"
     width="1024px"
     inkscape:window-width="1920"
     inkscape:window-height="1017"
     inkscape:window-x="-8"
     inkscape:window-y="-8"
     inkscape:window-maximized="1"
     objecttolerance="4" />
  <metadata
     id="metadata5">
    <rdf:RDF>
      <cc:Work
         rdf:about="">
        <dc:format>image/svg+xml</dc:format>
        <dc:type
           rdf:resource="http://purl.org/dc/dcmitype/StillImage" />
        <dc:title />
      </cc:Work>
    </rdf:RDF>
  </metadata>
  <g
     inkscape:groupmode="layer"
     id="layer3"
     inkscape:label="color"
     style="display:inline"
     sodipodi:insensitive="true">
    <path
       style="fill:#5c5c5c;fill-opacity:1;stroke:none;stroke-width:4.04191065;stroke-opacity:1"
       d="m 346.45632,686.2282 c -58.63115,1.40526 -116.98836,12.83494 -174.21039,20.03107 -12.30024,19.60901 -1.30647,49.31797 -4.22707,72.84921 6.21881,129.20809 -7.69234,257.82532 -9.67234,387.25992 -3.88214,105.2395 -0.80694,210.7999 14.11051,315.111 6.04628,122.4738 10.03151,245.6978 3.02331,368.2428 -9.43885,120.9672 -7.27928,242.3961 -10.38898,363.5983 3.45094,130.9962 10.66235,261.7708 14.87816,392.8028 6.22336,104.469 14.25033,208.5876 5.91901,313.0603 -2.70419,52.2663 -4.85076,104.8472 -14.00012,156.3902 -6.40729,268.1384 -9.85396,536.8123 -10.19951,805.2165 10.72503,19.5708 41.01768,7.9783 60.50235,12.6784 73.67272,4.2043 147.5669,-4.3554 219.92889,-14.9835 103.41006,-9.427 207.17631,-7.3792 310.58294,1.7935 165.53974,3.7769 332.36052,-14.2927 496.54202,1.3 56.6719,10.0609 113.1484,25.0223 171.3322,19.907 73.1602,-4.2528 146.5175,-0.9956 219.5194,-5.6882 21.6477,-7.6798 6.3331,-35.536 10.4089,-51.9506 -2.9875,-155.9893 1.889,-312.3385 -9.5345,-467.9946 -3.0895,-120.2749 7.6819,-240.6102 13.1144,-361.0651 -1.3217,-258.2429 -4.4445,-516.5045 -6.2253,-774.7566 0.601,-62.503 -3.8068,-125.4265 -7.2707,-187.2891 -0.154,-79.0237 4.1606,-158.3406 14.9687,-236.5152 3.7856,-107.0229 7.1652,-214.6109 -0.6832,-321.4738 -8.9257,-78.1452 -3.4065,-157.4908 -4.5496,-236.3091 -2.083,-43.9416 6.104,-86.8943 11.6071,-130.5101 5.1846,-48.5391 -4.3013,-96.486 -14.0677,-143.66154 -1.6969,-46.05434 15.4802,-90.51668 14.6027,-136.79493 1.4717,-45.6005 5.6194,-93.81728 -8.5162,-137.30505 -99.6565,-12.8572 -201.0554,-12.55254 -301.7442,-10.59559 -135.0379,2.74962 -269.8671,4.29069 -404.37418,-2.45988 -88.7558,-2.62644 -177.83272,4.38228 -266.02411,8.27535 -98.23553,0.60614 -195.92652,-4.44021 -293.47741,-17.83135 -13.93104,-1.04388 -27.90574,-1.49386 -41.87508,-1.33211 z"
       id="path958"
       inkscape:connector-curvature="0"
       transform="scale(0.26458333)" />
  </g>
  <g
     inkscape:groupmode="layer"
     id="layer5"
     inkscape:label="shading"
     style="display:inline;opacity:0.15700001">
    <path
       style="fill:#000000;fill-opacity:1;stroke:none;stroke-width:0.26458332;stroke-opacity:1"
       id="path885"
       d="m 430.12558,450.83957 c -8.89966,-0.78071 -17.07184,-4.8669 -25.31708,-8.02166 -5.14527,-2.07516 -10.54515,-2.83155 -16.06243,-2.65766 -4.35039,0.13713 -4.7933,-1.00039 -4.09416,0.49694 -9.65571,0.70829 -19.29088,1.6592 -28.92333,2.62726 -13.62638,1.28309 -25.58076,7.52057 -37.01378,14.59923 -13.37595,9.067 -26.24949,18.88421 -38.76381,29.10353 -5.50442,4.67323 -10.85022,9.69999 -14.54129,15.98012 -2.01394,3.42659 -2.47774,4.95265 -3.97959,8.63981 -3.8817,13.08536 -8.33049,25.91207 -13.69922,38.46269 -7.48363,16.18983 -15.36033,32.1873 -22.04156,48.73164 -6.12686,15.13547 -10.93319,30.70612 -15.14173,46.46705 -3.77035,15.65133 -7.55727,31.29516 -11.47871,46.90904 -3.58471,11.59169 -3.18055,22.96533 -2.09671,34.84753 1.8296,14.08057 1.56443,28.22435 0.23076,42.32182 -1.2677,11.58243 -3.78884,22.98542 -4.67276,34.61052 -0.40934,8.63838 0.7717,17.24268 1.28353,25.85336 0.56637,9.935 0.26181,19.87376 -0.51079,29.78502 -1.02047,6.59117 0.44025,12.91712 1.79802,19.31969 2.03788,9.20202 1.98407,18.59378 1.10394,27.92106 -0.28274,3.81132 -1.35472,7.62762 -1.0268,11.47593 0.12895,1.5132 0.51006,2.63517 0.90674,4.11392 1.90167,5.93876 3.97713,11.81093 5.64591,17.82173 1.26648,4.78756 2.62602,9.57138 4.5565,14.13814 1.65697,3.38323 3.337,6.75455 4.94593,10.16101 1.31172,2.4652 2.26977,5.1086 3.60865,7.55711 1.65348,2.15688 2.9103,4.56215 4.03741,7.02635 1.23426,2.88002 1.96134,5.93577 2.56368,9.00012 -0.18265,0.5838 1.2094,4.60206 0.002,1.96421 2.25964,3.1581 2.8681,7.13566 3.06218,10.97202 -0.005,0.7036 0.0293,1.4087 -0.0154,2.1109 -0.0619,0.9737 -0.30966,2.3865 -0.5409,3.3627 -0.10018,0.4229 -0.36121,1.6107 -0.50696,1.2012 -0.14463,-0.4063 -0.15322,-0.8488 -0.22983,-1.2733 -1.33742,-3.9848 -0.008,-0.2618 -1.03605,-2.7141 -0.0671,-0.1601 -0.33071,-0.5156 -0.15824,-0.4961 0.84857,0.096 2.34581,1.792 2.88237,2.2989 1.75695,1.7653 2.73816,4.0523 3.97355,6.1682 1.46853,1.6389 2.92439,3.3186 4.34454,5.0236 1.18523,1.7238 1.11993,1.132 -0.10894,0.4844 -0.61503,-0.3242 -1.26529,-0.5766 -1.89793,-0.8649 -8.68852,0.089 -2.69747,-0.3776 4.68128,2.6096 0.95104,0.385 3.19644,3.8812 3.91536,4.9611 -0.0501,-0.081 0.9339,1.8626 0.88613,1.8242 -0.29906,-0.2403 -0.50278,-0.5796 -0.75418,-0.8694 -4.13628,-0.1519 -8.408,0.6051 -12.40885,-0.4555 -1.15659,-0.3067 1.96273,-1.3692 2.9441,-2.0538 2.62836,-0.1549 5.26427,-0.7171 7.88507,-0.4648 1.0359,0.1 1.87228,0.9206 2.74458,1.4881 2.24482,1.4605 3.18091,3.601 3.98799,6.03 -4.11739,7.368 -1.8373,8.1215 -5.93669,4.0811 -1.19013,3.9011 -6.70711,2.218 -5.51698,-1.6831 v 0 c -2.68283,-5.8316 -1.14584,-5.1521 -4.67837,1.8787 1.80225,5.3633 3.33411,4.5256 10.00525,3.6322 5.30062,-4.9908 1.19983,-0.3944 -11.69658,-1.1723 -0.54187,-0.033 -3.14368,-3.4423 -3.54845,-4.0838 -0.31866,-0.5506 -0.75324,-1.261 -1.00298,-1.8508 -0.0267,-0.063 -0.0711,-0.238 -0.011,-0.2051 0.23806,0.1304 0.35259,0.4611 0.61369,0.5352 8.30206,2.3579 11.83352,1.924 3.43304,2.0279 -3.46437,-1.2079 -6.53019,-2.8706 -8.99101,-5.6705 -1.95067,-2.3512 -3.61354,-4.8878 -4.81158,-7.7119 -0.5014,-0.8813 -0.9499,-1.7444 -1.80424,-2.3345 -2.06077,-1.8357 -3.92011,-3.7778 -4.71773,-6.5292 -0.69094,-3.0887 -1.34736,-6.226 -1.01097,-9.4094 0.1118,-1.25518 0.22776,-3.21945 0.66359,-3.06467 0.51915,0.18437 0.545,0.9787 0.9493,1.35295 0.20419,0.18902 -0.30255,-0.46704 -0.45383,-0.70056 -1.16709,-2.04775 -2.14552,-4.15139 -2.90364,-6.3858 -0.70631,-2.16289 -1.13931,-4.39814 -1.87836,-6.54778 -0.95541,-2.06033 -2.25821,-3.89675 -3.46528,-5.81641 -1.49434,-2.55887 -2.93059,-5.15067 -4.32086,-7.76761 -2.17973,-3.65297 -4.61107,-7.17775 -6.31233,-11.09329 -2.15915,-5.04775 -4.12056,-10.17807 -6.0724,-15.30893 -2.32317,-6.39215 -4.23494,-12.91952 -5.30837,-19.64891 -1.14301,-6.56963 -2.11503,-13.17162 -2.08963,-19.86153 -0.14946,-8.09519 0.18382,-16.19731 -0.2364,-24.28436 -0.84658,-7.51432 -2.63256,-14.90477 -2.95097,-22.48214 -0.47816,-9.70717 -0.34646,-19.4097 0.0391,-29.11991 0.17561,-8.78928 0.0575,-17.55212 -1.0986,-26.28649 -0.7495,-12.36789 -0.18695,-24.6879 1.86099,-36.93054 1.62817,-12.7158 3.03622,-25.50938 1.57836,-38.32714 -1.03434,-13.67687 -2.04459,-27.43806 0.35019,-41.05204 2.94804,-16.17451 7.3339,-31.9791 11.67329,-47.82823 4.30513,-16.79985 8.26372,-33.81406 15.08326,-49.81604 2.79166,-6.27819 4.99821,-11.41269 8.04721,-17.5768 5.24705,-10.6078 11.32792,-20.76942 16.99265,-31.15227 6.40656,-11.66818 12.02145,-23.69233 16.56543,-36.21747 4.97568,-11.94078 10.92836,-23.45833 19.94848,-32.91324 12.28339,-12.62713 25.72692,-24.13169 40.82781,-33.29762 6.73134,-3.67851 9.83617,-5.65539 16.9591,-8.45318 9.6198,-3.77849 19.83983,-5.73336 30.15763,-5.97625 1.91167,-0.005 3.82334,-0.0106 5.735,-0.0161 1.67304,0.0623 3.34495,0.17513 5.0191,0.1868 6.32407,0.044 12.6102,-0.81452 18.92054,-1.07871 3.17246,-0.0317 6.34566,-0.17102 9.51735,-0.095 8.36144,0.20037 16.5045,2.68682 24.33693,5.39298 7.90501,2.99915 16.09648,6.00646 22.93559,11.06892 7.77415,4.50038 1.40965,15.49466 -6.3645,10.99428 z"
       inkscape:connector-curvature="0" />
    <path
       style="fill:#000000;fill-opacity:1;stroke:none;stroke-width:5.71612501;stroke-opacity:1"
       d="m 342.62198,688.15383 c -56.18687,5.00191 -115.77062,5.76515 -168.71144,24.1091 -9.23272,96.98481 -5.57074,198.81663 -10.10121,297.67727 0.37431,107.1466 -15.14928,213.3676 -2.9936,320.2473 12.70083,150.5529 22.07126,300.8384 15.96151,451.9108 -4.49825,206.5307 -19.63938,413.551 -4.57203,620.1868 2.79939,134.4139 14.67998,269.0782 18.48172,402.6212 -9.85372,188.1082 -24.94342,378.7614 -24.17814,568.4635 -1.79237,169.4339 -2.87701,338.8745 -4.32433,508.3116 18.91519,22.8129 61.24734,5.0845 89.16932,11.756 95.75187,5.0182 186.35538,-21.7125 281.33805,-18.279 96.12744,-3.8357 192.58623,4.1997 287.76229,7.1941 12.54381,-24.0034 -29.01191,-43.1076 -31.40502,-69.9791 -7.47892,-44.8345 -14.67587,-90.535 -41.97265,-128.5607 -51.5998,-85.6158 -81.07797,-182.7929 -82.22993,-282.8522 -11.78031,-182.7797 -19.57938,-366.127 -6.43743,-548.9137 5.14484,-90.4965 -3.14473,-182.3972 7.2769,-271.9939 44.30777,-162.9437 75.00623,-332.459 164.1536,-478.3751 53.46069,-89.8689 85.73599,-190.709 140.39506,-279.6658 69.50395,-87.1465 161.74175,-159.7455 267.23995,-196.436 91.5053,-20.679 186.4949,-10.1947 280.1237,-14.8262 42.9785,15.5956 85.5777,33.0903 125.9445,54.1134 24.8887,-7.2171 8.5614,-43.9858 12.9729,-63.4133 -2.7082,-158.1437 -20.2152,-317.4462 4.8105,-474.5375 8.3137,-56.2989 -13.528,-110.602 -13.4851,-166.1262 10.6714,-80.83701 27.5127,-167.27709 5.6587,-247.37358 -104.4958,-16.51901 -215.046,-10.84482 -322.088,-13.46887 -256.1696,-2.74816 -513.39349,2.74414 -768.7525,4.48764 -73.58451,-1.72837 -146.08241,-19.66233 -220.03732,-16.27756 z"
       id="path887"
       inkscape:connector-curvature="0"
       transform="scale(0.26458333)" />
  </g>
  <g
     inkscape:groupmode="layer"
     id="layer1"
     inkscape:label="line"
     style="display:inline"
     sodipodi:insensitive="true">
    <path
       style="fill:#424242;fill-opacity:1;stroke:none;stroke-width:0.22863023;stroke-opacity:1"
       id="path884"
       d="m 43.50709,1028.4561 c 4.768295,-1.2266 9.79022,-1.1241 14.622627,-0.3554 1.678413,0.1869 3.252987,1.0259 4.95826,1.0371 0.560322,0 1.54145,-0.1707 2.063477,-0.2499 -0.254227,-0.073 -0.994937,-0.091 -0.762678,-0.2179 0.454299,-0.247 1.025434,-0.1351 1.537995,-0.2038 2.473983,-0.3319 4.910438,-0.5222 7.407222,-0.5404 3.240863,0.096 6.473697,0.3364 9.711879,0.4873 0.308943,0 0.617953,0.011 0.926832,0.01 0.784559,-0.017 1.141265,-0.064 1.92757,-0.1257 0.331973,-0.026 1.287666,0.087 0.99622,-0.074 -0.356976,-0.1973 -0.850756,0.1169 -1.22255,-0.051 -0.302398,-0.1364 0.662554,-0.035 0.993832,-0.053 1.740261,-0.039 3.482408,-0.027 5.220814,-0.121 2.027169,-0.2433 3.987516,-0.8359 5.995881,-1.1934 3.073029,-0.3834 6.136789,-0.8167 9.168629,-1.4521 3.96886,-0.8814 7.96241,-1.6003 12.00549,-2.0277 3.90897,-0.33 7.83785,-0.1752 11.75491,-0.1618 0.37476,0 -0.74951,-0.01 -1.12427,-0.01 3.35617,-0.1004 6.67615,-0.6551 10.0088,-1.0245 4.09106,-0.3999 8.20335,-0.2375 12.30421,-0.1613 2.37586,0.1778 4.75531,0.2068 7.1363,0.1954 -0.4519,0.01 -0.90683,-0.036 -1.35571,0.016 -0.37074,0.043 0.74646,0.01 1.11971,0.011 0.37169,0 0.7434,0 1.11509,0 1.09178,0.01 2.18215,0.011 3.27398,0 2.92873,-0.032 5.85748,0.048 8.78584,0.043 2.45633,0.109 4.86607,0.6386 7.30637,0.9189 2.703,0.2778 5.41733,0.341 8.13262,0.3266 2.53168,-0.06 5.02094,0.319 7.47638,0.8947 1.88636,0.5049 3.80342,0.8168 5.7531,0.8901 0.32106,0 0.64216,0.01 0.96318,0 0.6854,-0.01 2.74145,-0.042 2.05597,-0.044 -3.40682,-0.01 0.11633,0.041 0.68046,0.056 2.61563,-0.049 5.2187,0.2094 7.83132,0.1598 0.33891,-0.021 0.67776,-0.042 1.01672,-0.063 0.37174,-0.023 0.74346,-0.045 1.11538,-0.064 0.39738,-0.021 1.28452,0.3329 1.19247,-0.054 -0.094,-0.3952 -1.20583,0.3546 -1.2176,-0.052 -0.0117,-0.405 0.81021,-0.018 1.21527,-0.029 0.39346,-0.01 0.78687,-0.023 1.18031,-0.035 2.32264,-0.03 4.61738,-0.4303 6.9201,-0.6945 3.53649,-0.2904 -1.74318,0.1135 5.13679,-0.1719 0.41652,-0.017 -1.26661,0.3727 -1.24988,-0.044 0.0169,-0.4186 0.83655,-0.048 1.25467,-0.075 1.44569,-0.093 1.26017,-0.085 2.73487,-0.2088 2.88414,-0.2656 5.77727,-0.3576 8.67162,-0.4077 3.93575,0.1148 7.8692,0 11.80185,-0.1399 1.40063,-0.1199 4.71688,-0.048 8.26694,-0.025 4.35863,0.024 8.71788,0.041 13.07649,0.01 4.78884,0.01 3.43494,0.07 7.17816,0.064 2.51391,-0.052 5.0261,-0.1224 7.53147,-0.3408 2.20512,-0.269 4.42528,-0.319 6.6435,-0.3643 2.68219,-0.01 5.36405,-0.029 8.0419,0.1426 -2.59799,0.086 4.95357,0.042 2.41009,-0.011 -3.44595,-0.073 -0.53303,-0.011 0.14058,-0.013 2.34762,0.035 4.69053,0.071 7.03906,0.054 2.16363,-0.1495 4.31858,0.1 6.46862,0.3115 2.4939,0.1393 4.9629,0.5065 7.42506,0.9082 2.11609,0.3515 4.23837,0.6516 6.3695,0.895 2.23038,0.2209 4.41112,0.7451 6.58791,1.2587 1.798,0.5138 3.62039,0.9354 5.41746,1.4517 1.30349,0.2589 2.62466,0.334 3.92613,0.6184 1.45873,0.4554 2.94993,0.7818 4.46367,0.9837 1.61234,0.3106 3.25718,0.2909 4.89152,0.3102 1.68295,0.039 3.33576,0.3836 5.00591,0.555 0.98135,0.1615 1.97568,0.1419 2.96583,0.1209 0.25863,-0.01 1.03364,0 0.7757,-0.023 -0.51193,-0.039 -1.0266,-0.023 -1.5399,-0.035 2.35819,0 4.71587,0.034 7.07438,0.048 1.41336,0.1137 2.82987,0.1 4.24523,0.045 0.24984,0 0.99929,-0.01 0.74951,-0.013 -3.90071,-0.1098 0.65014,0.027 1.3724,0.044 1.4186,0.067 2.82914,0.016 4.25188,0.01 0.42592,0 1.70351,0.015 1.27761,0.017 -0.57352,0.01 -1.14709,0 -1.72062,0 1.29786,-0.012 2.58521,-0.2121 3.88191,-0.2608 1.43323,-0.112 2.85971,-0.2879 4.28775,-0.4508 0.28629,-0.026 0.57153,-0.069 0.85883,-0.077 2.91791,-0.08 2.26616,-0.061 4.02725,0 0.80739,0.026 2.58739,0.074 1.61031,-0.01 -0.52629,-0.046 -1.05622,-0.023 -1.58433,-0.035 1.84677,-0.074 3.6744,-0.3689 5.51707,-0.5005 2.60303,-0.1934 5.20748,-0.058 7.80857,0.069 0.75562,0.04 5.00163,0.2126 1.0883,0.057 -0.23921,-0.01 0.47855,-0.015 0.71783,-0.023 2.15056,-0.039 4.30033,0.042 6.45055,0.073 0.99767,0.1022 2.00097,0.073 3.00146,0.052 1.34696,-0.06 0.0414,0.01 -1.10639,-0.054 -0.21086,-0.012 0.42192,-0.02 0.63297,-0.028 0.68257,-0.027 1.36092,-0.038 2.04386,-0.026 2.10104,0.057 4.20209,0.01 6.30303,-0.012 0.63324,0.02 1.26632,0.028 1.89908,0.06 0.1824,0.01 0.72946,0.023 0.54707,0.032 -1.23751,0.065 -2.4956,-0.01 -1.25372,0.054 1.44149,0.1158 2.88767,0.1145 4.33286,0.1314 1.42166,0.1062 1.06875,0.048 -1.28382,0.146 0.38654,-0.069 0.78785,-0.073 1.16271,-0.1532 0.73091,-0.1609 1.46555,-0.2881 2.21086,-0.3844 1.16846,-0.131 0.58045,-0.08 2.89428,-0.054 0.10482,0 0.41654,0.037 0.31178,0.042 -2.36331,0.086 -1.52559,-0.27 -2.8088,0.4809 -0.21987,0.1802 -0.46432,0.334 -0.65966,0.5407 -0.60338,0.638 -0.80951,1.1451 -1.053,2.0199 -0.0564,0.2027 -0.23403,0.7355 -0.0525,0.6291 6.37882,-3.7416 3.45584,-4.6606 5.9095,-3.8241 1.70992,0.5958 -1.22057,0.4122 -3.78288,0.9798 -0.0667,0.015 0.1402,-0.01 0.20433,0.017 0.2522,0.093 0.22861,0.1685 0.33243,0.3997 3.18372,-3.7809 8.53079,0.7214 5.34706,4.5024 v 0 c 0.22278,2.399 -2.21908,1.2419 -4.7122,2.1108 -2.11438,0.7676 -2.66309,0.9848 4.95046,-3.8862 0.20044,-0.1282 0.005,0.4818 -0.0561,0.7116 -0.26194,0.9818 -0.49668,1.5671 -1.18778,2.2846 -0.25028,0.2598 -0.56337,0.4508 -0.84506,0.6762 -0.21746,0.113 -1.00248,0.5768 -1.36015,0.6015 -0.83109,0.058 -1.66614,0.013 -2.49898,0.033 -0.0649,0 -0.25718,0.03 -0.19227,0.031 0.64812,0.01 1.29649,0.01 1.94445,-0.011 0.0662,0 -0.13084,-0.021 -0.19628,-0.031 -0.42329,-0.048 -0.79229,-0.097 -1.20209,0.081 -0.60895,0.1118 -1.18556,0.2705 -1.78691,0.251 -1.22664,0.2736 -2.50327,0.066 -3.74756,0.211 3.98415,0.06 0.9661,0.01 0.0518,0.1317 -1.90462,0.095 -3.816,0.048 -5.7215,0.1455 -0.61405,-0.01 -0.7649,0 -1.3766,-0.017 -0.22125,-0.01 -0.88494,-0.015 -0.66367,-0.018 3.4857,-0.048 1.07228,0.028 0.33979,0.023 -2.03954,0.04 -4.08194,-0.1288 -6.12114,-0.1036 -1.00467,-0.025 -2.01238,-0.064 -3.01492,0.032 4.33192,0.101 -1.04475,0.085 -1.80717,0.1234 -2.25529,-0.031 -4.51064,-0.034 -6.76512,-0.049 -0.8689,-0.016 -0.64019,-0.019 -1.50167,-0.01 -0.24701,0 -0.98793,0.01 -0.74101,0.014 3.55946,0.1146 0.64959,-0.073 -0.0505,0.062 -2.00724,0.1431 -4.00455,0.3545 -6.01112,0.5043 -5.69662,-0.025 -1.65908,0.064 -4.21857,-0.076 -1.02486,-0.056 -1.71966,-0.023 -1.46895,-0.038 0.54883,-0.032 1.10101,0 1.64868,-0.046 0.19683,-0.017 -0.39398,-0.031 -0.59097,-0.048 -1.38892,-0.035 -2.73263,0.3222 -4.11475,0.4068 -1.451,0.1797 -2.91841,0.2051 -4.37342,0.3545 -0.99632,0.01 -1.99265,0.016 -2.98898,0.023 -0.42166,0 -1.68644,0.021 -1.26494,0.01 3.44866,-0.088 1.11775,-0.012 0.39149,0.015 -2.2899,0.093 -4.58027,0.1802 -6.873,0.088 -1.39517,-0.075 -2.7907,-0.1944 -4.18862,-0.1747 0.57844,0 1.15749,-0.017 1.73531,0.01 0.22639,0.01 -0.45255,0.026 -0.67881,0.04 -1.137,0.069 -2.27072,0.188 -3.4115,0.187 -2.5995,-0.025 -5.15863,-0.059 -7.72315,-0.503 -1.51731,-0.1832 -3.02391,-0.1288 -4.54975,-0.1233 -2.05211,-0.1306 -4.08685,-0.3867 -6.07266,-0.9438 -1.33447,-0.3608 -2.6541,-0.8404 -4.01891,-1.0535 -1.53695,-0.093 -3.065,-0.259 -4.56483,-0.6243 -1.8044,-0.3431 -3.58061,-0.8127 -5.38864,-1.1369 -1.95627,-0.3822 -3.91767,-0.7429 -5.90277,-0.9422 -2.16129,-0.2755 -4.32424,-0.5393 -6.48985,-0.7787 -2.47358,-0.2377 -4.95381,-0.4432 -7.40113,-0.8912 -1.77054,-0.2781 -3.54713,-0.5193 -5.34331,-0.5292 0.5134,-0.01 1.02677,-0.025 1.54023,-0.022 0.24338,0 -0.48639,0.019 -0.72963,0.027 -1.053,0.036 -2.1069,0.057 -3.16045,0.061 -2.43905,0 -4.87857,-0.01 -7.31639,-0.034 -1.10196,0.052 -0.59611,0.033 -1.71742,0.064 -0.30404,0.01 -1.21602,0.012 -0.91213,0.025 3.45788,0.1455 0.10115,-0.092 -0.502,0.023 -1.92882,0.013 -3.86483,-0.011 -5.78576,0.1846 -2.64633,0.4154 -5.26883,1.0024 -7.95172,1.1537 -4.25602,0.3427 -8.52585,0.2416 -12.79218,0.2784 -4.75857,-0.055 -3.76606,-0.034 -7.72103,0.01 -4.55988,0.069 -9.12396,0.2224 -13.68283,0.042 -1.67288,-0.084 -3.34399,-0.1854 -5.0158,-0.2884 -0.48236,-0.029 -0.9645,-0.064 -1.44712,-0.089 -0.44608,-0.023 -0.96395,0.1853 -1.33888,-0.058 -0.34813,-0.2255 0.82961,0 1.24439,0 -2.69244,-0.044 -5.36885,0.1778 -8.04879,0.4217 -2.79305,0.1651 -5.5669,0.2751 -8.36918,0.1956 -0.43872,-0.012 0.90962,0.1035 1.31508,-0.065 0.31256,-0.1295 -0.67546,-0.041 -1.01318,-0.061 -2.34772,-0.01 -4.60071,0.6207 -6.91355,0.9564 -3.34372,0.2637 -6.71234,0.2016 -10.04902,-0.1412 -0.85808,-0.063 -1.71691,-0.1564 -2.57854,-0.1392 -0.25416,0.01 -1.01467,0.014 -0.76164,0.039 0.5005,0.048 1.00841,-0.023 1.50808,0.034 0.30056,0.034 -0.60444,0.023 -0.90668,0.035 -3.16159,0.1835 -6.35014,0.3095 -9.49533,-0.1378 -2.00687,-0.3292 -3.95793,-0.9174 -5.97495,-1.1706 -2.19323,-0.06 -4.37609,0.2652 -6.5711,0.2191 -3.14292,-0.038 -6.28467,-0.2606 -9.35584,-0.9734 -1.96055,-0.4139 -3.90464,-0.9406 -5.92992,-0.7889 -1.43619,-0.01 -0.61639,-0.01 -2.0511,0.01 -0.34894,0.01 -1.39521,-0.01 -1.04685,0.013 3.41679,0.2022 -0.16923,-0.1416 -0.74429,0.01 -3.05325,-0.01 -6.10459,0.1288 -9.15833,0.097 -2.41632,-0.026 -4.83294,-0.093 -7.24924,-0.019 0.42684,0.015 1.48693,-0.3289 1.28051,0.045 -0.21326,0.3862 -0.88236,0.018 -1.32339,0.033 -2.00372,0.067 -3.9987,0.2362 -5.99214,0.4463 -3.62206,0.3806 -7.23907,0.869 -10.88309,0.9795 -4.42234,0.043 -4.16764,-0.051 -9.66123,0.4341 -3.90704,0.4472 -7.79578,1.0141 -11.68063,1.6239 -3.36708,0.3841 -6.73659,0.8829 -10.13675,0.7507 -2.00399,-0.06 -3.980349,-0.086 -5.938588,0.4385 -2.01419,0.3261 -4.029068,0.3365 -6.066082,0.3 -2.752698,-0.1016 -5.499171,-0.1003 -8.238403,-0.4199 -1.170991,-0.023 -1.964784,-0.047 -1.854006,0.012 0.341073,0.1799 1.034353,-0.2794 1.15349,0.087 0.112354,0.3458 -0.721914,0.088 -1.083319,0.1286 -0.440758,0.049 -0.882078,0.093 -1.323117,0.1397 -0.517377,0.058 -1.034753,0.1155 -1.55213,0.1733 -4.368966,0.4121 -8.713332,0.26 -13.082473,-0.132 -0.117333,-0.02 -2.110653,-0.356 -2.313322,-0.3782 -1.710328,-0.1881 -3.396469,0.1642 -5.094883,0.309 -4.731338,0.3485 -9.677957,0.3014 -14.12395,-1.5436 -4.81282,-1.4476 -2.765684,-8.2539 2.047137,-6.8064 z"
       inkscape:connector-curvature="0" />
    <path
       style="fill:#424242;fill-opacity:1;stroke:none;stroke-width:0.22863023;stroke-opacity:1"
       id="path888"
       d="m 43.658868,544.09671 c 1.48889,4.38074 1.450956,9.12868 1.641795,13.70927 0.219902,4.18985 0.104361,8.38396 0.08995,12.57604 -0.0043,3.79263 0.109197,7.5845 0.22353,11.37506 0.230308,4.28103 0.330435,8.56883 0.230469,12.85511 -0.108817,3.17095 -0.07026,6.35083 0.322215,9.50115 0.281123,2.87628 0.433236,5.7527 0.43844,8.64151 -0.04702,2.73092 0.01275,5.46122 0.03391,8.19207 0.219251,3.02732 0.782379,6.0136 1.227858,9.01254 0.393486,2.84403 0.619503,5.70549 0.601162,8.5761 -0.04325,2.54614 -0.04661,5.09176 -0.03201,7.63857 -0.0156,1.94612 -0.172977,3.88701 -0.172355,5.83317 0.01644,1.95932 0.103083,3.91694 0.176672,5.87468 0.03779,2.3816 0.09906,4.76321 0.10923,7.14513 0.02427,2.2971 -0.10699,4.59526 0.04996,6.88886 0.621467,2.6476 1.024076,5.32004 1.23943,8.03082 0.166155,3.0941 0.0866,6.19451 -0.06283,9.28759 -0.304691,2.2898 -0.356692,4.57718 -0.218975,6.87805 0.313629,2.7699 0.489987,5.55174 0.692914,8.33113 0.235723,2.63654 0.574498,5.26108 0.810374,7.89755 0.195122,2.50962 0.333493,5.02337 0.525419,7.5332 0.282869,2.57376 0.553197,5.14574 0.682487,7.73235 0.122073,2.50887 0.104079,5.02094 0.152114,7.53167 0.08774,3.09236 0.163157,6.18555 0.187916,9.27905 -0.02256,3.0321 -0.140802,6.06167 -0.451353,9.07818 -0.464993,2.89103 -0.635315,5.80928 -0.790702,8.72907 -0.221762,3.1051 -0.878932,6.15018 -1.098195,9.25409 -0.05673,2.72296 0.04975,5.44704 0.05328,8.17083 2e-4,2.97475 0.06186,5.94811 0.01388,8.92273 -0.129503,2.65552 -0.12466,5.31355 -0.168361,7.97124 0.08666,3.47136 -0.492429,6.86284 -1.341687,10.21161 0.267081,0.31793 -1.377206,3.28948 -1.350103,3.68872 0.363328,1.38358 0.506529,2.8086 0.6142,4.23103 0.13892,1.93138 -0.01502,3.86296 -0.132044,5.79041 -0.132626,2.17582 -0.505368,4.3258 -0.794179,6.48363 -0.341511,2.31186 -0.675383,4.62512 -0.960919,6.94512 -0.246397,2.42557 -0.17447,4.87211 -0.133316,7.30625 0.155123,2.77584 0.109838,5.55493 0.08865,8.33304 -0.06562,2.48857 -0.113387,4.97689 -0.106386,7.46631 -0.06242,2.48727 0.03518,4.97417 0.06671,7.46082 0.05812,2.41527 -0.106156,4.82663 -0.164847,7.23979 -0.04753,2.24999 0.05632,4.49909 0.09758,6.74836 0.06429,2.6204 -0.237253,5.22397 -0.494967,7.82599 -0.225681,2.37679 -0.299715,4.76424 -0.371604,7.14963 -0.04705,2.42648 0.07543,4.85032 0.04886,7.27735 -0.09301,2.11577 -0.121046,4.23213 -0.134763,6.3494 -0.01918,1.86983 -0.06081,3.73937 -0.104818,5.60878 -0.129645,1.51582 -0.103418,3.03344 -0.0424,4.55118 0.138542,1.90651 0.233049,3.80087 0.026,5.70431 -0.223308,0.97035 -0.116014,1.95577 -0.0486,2.93602 0.167476,1.55002 0.226344,3.10476 0.255746,4.66237 -6.86e-4,1.84028 -0.01,3.67977 0.03752,5.51954 -0.01097,1.93895 0.05333,3.87153 0.163768,5.80689 0.0985,2.20955 0.173528,4.41873 0.340579,6.62451 0.227814,2.48407 0.252952,4.97735 0.204677,7.46924 -0.09571,1.96046 -0.25517,3.91655 -0.297551,5.8795 0.0041,1.76274 0.04241,3.52538 0.01212,5.28805 -0.0092,1.53734 0.04763,3.07278 0.05819,4.6102 -0.01868,1.62066 0.0891,3.23802 0.119956,4.85828 0.197925,2.00218 0.128678,4.00162 -0.08495,5.9966 -0.194768,1.34295 -0.173522,2.68156 -0.0476,4.02721 0.120795,1.82261 0.11552,3.65442 0.08908,5.48051 -0.06857,1.59491 -0.10717,3.18826 -0.131874,4.78421 -0.05165,1.46634 -0.0045,2.93314 -0.03005,4.39952 -0.05877,1.0743 -0.151614,2.1444 -0.206435,3.2188 -0.07885,0.7747 -0.04828,1.5485 -0.02588,2.3242 0.06069,1.1558 -0.07905,2.3046 -0.28817,3.4388 -0.156208,0.7833 -0.311646,1.5663 -0.546049,2.3307 -0.03826,0.2787 0.06931,0.6487 0.100064,0.9531 0.07278,0.9521 -0.120901,1.8916 -0.177421,2.8376 -0.03819,0.8738 0.08645,1.7462 0.164433,2.6154 0.08966,1.3723 -0.09307,2.7338 -0.254536,4.0922 0.02063,1.0869 0.01052,2.1748 0.02788,3.2616 -0.13988,0.6149 -0.02051,1.1688 0.133062,1.7608 0.142949,0.1296 0.341377,3.1512 0.09317,1.8057 -2.417706,-0.2029 -4.842571,-0.3335 -7.253118,-0.6087 -0.08289,-0.01 0.16048,-0.2745 0.222005,-0.261 2.32285,0.5069 8.651429,0.4749 6.841533,2.0166 -2.293056,-1.2562 -7.97126,-1.2919 -3.593755,-1.2756 0.08212,-0.4411 0.706018,-0.325 0.6239,0.1162 v 0 c 2.870309,1.2414 2.618183,0.9509 -3.809018,0.1723 -0.07049,-0.01 -0.05938,-0.129 -0.08907,-0.1935 -0.01065,-0.035 -0.195157,-0.5847 -0.11287,-0.5786 2.454428,0.181 4.895241,0.5249 7.33096,0.8775 0.06538,0.01 0.04228,0.1258 0.05243,0.1911 0.01463,0.094 0.11678,0.2801 0.0216,0.2851 -2.465711,0.1297 -4.937757,0.069 -7.406634,0.1034 -0.02972,-0.1718 -0.0232,-0.3541 -0.08914,-0.5154 -0.199839,-0.4893 0.04295,0.3135 -0.06867,0.2404 -0.18927,-0.1238 -0.162447,-0.598 -0.277889,-0.7467 -0.277603,-1.0683 -0.417899,-2.1597 -0.553602,-3.2534 -0.03038,-1.2132 -0.121296,-2.4253 -0.05526,-3.6405 -0.03749,-1.249 -0.03336,-2.4992 0.151335,-3.7385 0.06145,-1.024 0.112532,-2.0482 0.114144,-3.0743 0.03504,-0.7179 0.05853,-1.4381 0.144819,-2.1519 -0.0061,-0.9503 0.02053,-1.9097 0.180948,-2.8476 0.122474,-0.5964 0.07152,-1.1669 0.131377,-1.8171 0.105689,-0.8002 0.328006,-1.586 0.336455,-2.3958 0.02241,-0.7755 0.05297,-1.5491 -0.02602,-2.3236 -0.05497,-1.0748 -0.147824,-2.1455 -0.206309,-3.2202 -0.02517,-1.46548 0.02259,-2.93134 -0.0296,-4.39679 -0.02557,-1.59712 -0.06636,-3.19152 -0.13476,-4.78754 -0.02563,-1.82731 -0.02758,-3.66053 0.0986,-5.484 0.127943,-1.33447 0.143161,-2.65869 -0.06871,-3.98868 -0.233878,-2.04039 -0.305635,-4.08734 -0.06074,-6.13376 0.06954,-1.48596 0.261299,-2.97347 0.166122,-4.46035 -0.130916,-1.62154 -0.34108,-3.23969 -0.321369,-4.87082 -0.04763,-1.78801 -0.04415,-3.57693 -0.03768,-5.36543 -0.01745,-1.95912 -0.07039,-3.91742 -0.116569,-5.87596 -0.02401,-2.33834 -0.105598,-4.67462 -0.233492,-7.00971 -0.07906,-2.23317 -0.0427,-4.46673 -0.104911,-6.7001 -0.06996,-2.039 -0.134814,-4.07865 -0.08823,-6.11913 0.03266,-1.87936 -0.0018,-3.75845 0.03555,-5.63775 0.05978,-1.44489 0.160764,-2.88369 0.354178,-4.31742 0.01463,-1.08582 -0.319139,-2.12663 -0.469074,-3.19594 -0.205966,-1.90284 -0.110186,-3.79629 0.02981,-5.70199 0.06091,-1.51536 0.08232,-3.03029 -0.05342,-4.54327 -0.04839,-1.88458 -0.08712,-3.76977 -0.08378,-5.65499 0.0073,-2.07352 4.57e-4,-4.14664 -0.147748,-6.21652 -0.0899,-2.51909 -0.06855,-5.03743 -0.04635,-7.55762 0.04585,-2.54978 0.151791,-5.10097 0.392078,-7.64044 0.18167,-2.3821 0.451229,-4.75752 0.486274,-7.14909 0.04064,-2.25145 0.144092,-4.50264 0.100303,-6.75483 -0.05517,-2.40725 -0.21628,-4.81255 -0.165566,-7.22174 0.02372,-2.49903 0.104645,-4.99816 0.05015,-7.49756 0.02213,-2.47781 0.02252,-4.95573 -0.02803,-7.43328 -0.02796,-2.74027 -0.154387,-5.47912 -0.137316,-8.2201 -0.03896,-2.79148 0.02585,-5.577 0.296484,-8.35762 0.286622,-2.46114 0.673266,-4.91199 1.083,-7.35316 0.397764,-1.84875 0.840699,-3.69988 0.986288,-5.58973 0.10205,-1.78634 0.06121,-3.57969 0.274823,-5.35896 0.110664,-1.03277 0.228123,-2.02946 -0.08625,-3.04494 -0.405512,-2.2155 -0.587582,-4.43422 -0.158571,-6.67032 0.524247,-2.80099 1.376781,-5.54654 1.595329,-8.39146 -0.05231,-2.66807 -0.06435,-5.3363 -0.186558,-8.00249 -0.03411,-2.96863 0.06603,-5.93401 0.09291,-8.90229 0.0026,-2.84359 -0.01904,-5.68576 -0.08486,-8.52867 0.06874,-3.24881 0.327555,-6.4871 0.775741,-9.70656 0.390548,-2.89034 0.879746,-5.76559 1.282047,-8.6531 0.206749,-2.77836 -0.02206,-5.54516 -0.08965,-8.32594 0.01052,-3.16642 0.100147,-6.33468 0.36945,-9.49076 0.151907,-2.21689 0.256612,-4.44084 -0.07462,-6.64974 -0.320348,-2.63029 -0.552004,-5.27178 -0.700956,-7.91735 -0.121513,-2.44984 -0.251448,-4.90006 -0.467398,-7.34373 -0.221163,-2.6389 -0.720062,-5.23875 -1.019515,-7.86858 -0.305644,-2.9744 -0.485887,-5.96575 -0.331051,-8.95607 0.08238,-2.42138 -0.01992,-4.83301 -0.134481,-7.25271 0.05465,-2.79943 0.285568,-5.59622 0.140029,-8.39563 -0.196421,-2.72926 -0.548788,-5.44145 -0.774393,-8.16796 -0.140057,-2.44995 -0.149836,-4.90197 -0.150615,-7.35565 0.0031,-2.39239 0.04944,-4.78494 0.09091,-7.17688 0.08244,-1.95321 0.199941,-3.90513 0.251877,-5.85946 0.0033,-1.90216 -0.262595,-3.78513 -0.371645,-5.68233 -0.08201,-2.62785 -0.06183,-5.2576 0.223808,-7.87462 0.04582,-2.41136 -0.208551,-4.75909 -0.920332,-7.07788 -0.729253,-3.46403 -1.226154,-6.97226 -1.052216,-10.52463 0.09065,-2.66329 0.335034,-5.31794 0.346779,-7.98333 -0.0767,-2.68006 -0.329028,-5.3553 -0.647723,-8.01663 -0.246554,-3.40233 -0.453404,-6.80484 -0.480699,-10.2178 -0.115091,-4.28785 -0.05906,-8.57901 0.138598,-12.86384 0.109434,-3.83239 0.2723,-7.66071 0.46242,-11.49008 0.119878,-4.04536 -0.03254,-8.09015 -0.298883,-12.1276 -0.258012,-4.66456 -0.68543,-9.55917 0.872642,-14.04698 0,-4.08146 5.772074,-4.08146 5.772074,0 z"
       inkscape:connector-curvature="0" />
    <path
       style="fill:#424242;fill-opacity:1;stroke:none;stroke-width:0.22863023;stroke-opacity:1"
       id="path894"
       d="m 441.87241,553.13447 c 0.12673,0.65544 0.29137,1.30465 0.38019,1.96629 0.41451,3.08717 0.41213,6.22715 0.53129,9.33255 0.32763,8.53782 0.0367,-1.21021 0.27539,7.50501 0.23478,8.14498 1.21114,16.24185 1.79979,24.36456 0.51449,8.50827 0.30086,17.03377 0.20716,25.55006 -0.17085,8.09751 -0.21507,16.19697 -0.38092,24.2945 -0.16635,6.21241 -0.47301,12.41945 -0.67648,18.63063 -0.38792,4.7948 -0.29259,9.58963 -0.10162,14.38916 0.35967,6.16119 0.48667,12.33089 0.34444,18.50025 -0.34798,6.13687 -0.90449,12.25504 -1.08465,18.40094 -0.28135,5.48978 0.31956,10.94389 0.98707,16.38097 0.89085,6.29355 1.39965,12.62155 1.73969,18.96517 0.24347,6.63705 0.0668,13.27905 -0.1284,19.91466 -0.21758,5.68102 -0.38849,11.36336 -0.4222,17.04859 0.0151,5.67576 0.23982,11.34118 0.0639,17.0163 -0.30867,5.89311 -1.24322,11.7267 -2.02921,17.56864 -0.77338,5.14729 -1.10266,10.33358 -1.32724,15.52786 -0.18684,4.75793 -0.18226,9.5197 -0.15762,14.28029 0.0933,4.66154 0.12029,9.32354 0.13364,13.98578 0.0307,5.06062 -0.3178,10.10233 -0.83764,15.13227 -0.61124,4.23297 -0.94876,8.48407 -0.95825,12.75907 -0.0741,3.6231 0.3006,7.2174 0.68408,10.81204 0.4547,3.59946 0.86333,7.20194 1.13787,10.81986 0.18891,3.48114 0.25078,6.96732 0.41821,10.4494 0.24086,2.86559 0.54697,5.718 0.63143,8.59444 0.052,2.75829 -0.21905,5.50448 -0.36321,8.25525 -0.069,2.45377 -0.13413,4.90761 -0.18905,7.36171 -0.12277,2.70755 -0.18338,5.41666 -0.25099,8.12584 -0.0622,2.41337 -0.049,4.82739 -0.0201,7.24115 0.0107,2.53503 0.075,5.06933 0.10681,7.6041 0.006,2.62175 -0.0467,5.24272 -0.0348,7.86477 0.0169,2.60928 -0.52186,5.14765 -1.27798,7.62864 -0.52615,1.20561 -0.53006,2.33776 -0.3701,3.60718 0.30821,1.96998 0.40842,3.95988 0.39218,5.95107 0.0185,1.62223 -0.21358,3.23073 -0.30183,4.84813 0.003,1.3048 0.0784,2.6088 0.0693,3.9137 -0.0181,1.4384 0.0544,2.8755 0.1013,4.3126 0.0431,1.461 -0.0291,2.9217 -0.11815,4.3796 -0.0896,0.8359 0,1.6427 0.29258,2.4264 0.39505,1.2154 0.63376,2.4659 0.82624,3.7266 0.15536,1.0313 0.13348,2.1255 0.64954,3.0576 0.13574,0.369 0.40603,0.9402 0.34368,1.2328 0.65761,0.9856 0.93331,2.0935 0.91388,3.2667 -0.0304,0.8757 -0.14962,-0.039 -0.23064,-0.2326 -0.27118,-0.6475 -1.29782,-2.6245 0.22017,0.3519 0.30236,0.9691 0.23453,1.8493 -0.0864,2.7838 -0.57835,2.1749 0.1551,-1.4903 0.32358,0.1837 0.0112,0.1111 0.0107,0.2232 0.0163,0.3348 -0.0447,1.9255 -1.32724,0.6084 -3.90674,0.3193 -0.0144,-0.5747 0.79838,-0.5952 0.8128,-0.021 v 0 c -2.65684,0.4403 -3.7753,1.7936 -3.91582,-0.1643 0,-0.9553 0.24763,-1.7741 0.56884,-2.6811 0.0731,-0.2064 -0.13183,0.4177 -0.19774,0.6266 -0.26318,0.6558 -0.15303,-0.6158 0.0274,0.16 1.64391,2.8694 -0.60756,-0.7813 -0.32049,-1.8199 0.0364,-0.5906 0.33921,0.473 0.4795,0.5998 -0.77096,-0.8231 -1.49682,-1.6623 -1.89129,-2.7448 -0.47892,-1.4385 -0.77563,-2.9124 -0.82781,-4.4321 -0.12415,-0.9988 -0.29468,-1.9852 -0.6152,-2.9433 -0.31551,-1.3235 -0.51021,-2.664 -0.53616,-4.0271 -0.0913,-1.4633 -0.16379,-2.9299 -0.11457,-4.3964 0.052,-1.4211 0.13572,-2.8426 0.10586,-4.2653 -0.0251,-1.3318 0.0194,-2.6638 0.0232,-3.9957 -0.057,-1.6102 -0.18404,-3.2204 -0.13114,-4.83226 0.003,-1.82139 0.0473,-3.64281 -0.0272,-5.46354 -0.0705,-1.84369 -0.10829,-3.69665 0.24406,-5.51839 0.34855,-2.03868 0.65194,-4.09171 0.7032,-6.16278 0.003,-2.63521 -0.0607,-5.26984 -0.0332,-7.90471 0.0534,-2.50565 0.16413,-5.0104 0.15495,-7.51699 -0.0153,-2.44156 -0.14433,-4.87824 -0.24434,-7.3172 -0.0503,-2.81222 0.0823,-5.62053 0.39031,-8.417 0.17669,-2.3919 0.29318,-4.79037 0.2491,-7.18959 -0.0213,-2.68051 0.003,-5.35859 0.11511,-8.03716 0.0215,-2.70115 -0.27417,-5.35929 -0.81863,-8.00766 -0.5138,-3.53975 -0.76369,-7.1003 -0.82908,-10.67699 -0.16503,-3.48791 -0.39071,-6.96583 -1.00252,-10.41049 -0.51687,-3.81655 -0.74119,-7.6563 -0.92426,-11.50179 -0.20419,-4.57443 -0.23615,-9.15724 0.29441,-13.71468 0.48666,-4.77874 1.05361,-9.56011 1.05229,-14.37134 0.0556,-4.60317 0.10809,-9.2076 0.008,-13.81059 -0.15931,-4.91491 -0.38067,-9.83436 -0.19198,-14.75199 0.22824,-5.4081 0.59739,-10.81127 1.2172,-16.18982 0.6713,-5.64742 1.30465,-11.30325 1.66566,-16.98032 0.38419,-5.51353 0.60795,-11.04016 0.46938,-16.56814 -0.0982,-5.74324 -0.29544,-11.4849 -0.30161,-17.22955 0.0241,-6.48435 0.16889,-12.96981 0.009,-19.45349 -0.13973,-6.13669 -0.41345,-12.27575 -0.96644,-18.38999 -0.63166,-5.79262 -1.3445,-11.58894 -1.22963,-17.42996 0.0554,-6.17552 0.41363,-12.33324 0.77335,-18.49731 0.22706,-6.0809 0.15029,-12.16931 0.46847,-18.24771 0.18249,-4.83924 0.3686,-9.67723 0.2448,-14.52109 0.005,-6.16296 -0.4708,-12.30145 -0.72888,-18.45693 -0.25629,-8.18002 -0.28988,-16.36484 -0.0323,-24.54592 0.28574,-8.26265 0.55663,-16.53854 0.0961,-24.80094 -0.43837,-8.32477 -1.18365,-16.64588 -1.07118,-24.98913 0.26514,-5.88343 0.61371,-12.17641 3.08397,-17.63228 0.30029,-0.66319 0.72183,-1.26448 1.08275,-1.89672 0.56881,-3.02399 4.84539,-2.21958 4.27657,0.80441 z"
       inkscape:connector-curvature="0" />
    <path
       style="fill:#424242;fill-opacity:1;stroke:none;stroke-width:0.22863023;stroke-opacity:1"
       id="path908"
       d="m 45.194152,185.81479 c 1.452227,3.85089 1.015708,8.06104 0.944465,12.09482 -0.11844,3.49334 0.0785,6.98162 0.246831,10.46918 0.38529,3.95239 0.445541,7.91904 0.391213,11.88588 -0.158827,3.10144 -0.26329,6.19398 -0.08532,9.29542 0.341035,3.57317 0.584159,7.14547 0.665574,10.73423 0.03667,3.88085 -0.637748,7.71353 -1.121034,11.55059 -0.478189,3.45197 -0.684137,6.93076 -0.863072,10.40824 -0.124741,2.55114 -0.229828,5.1025 -0.200671,7.65697 0.03851,2.5391 0.188697,5.07452 0.252406,7.6128 0.133035,3.0951 -0.127715,6.17856 -0.504761,9.2469 -0.538097,3.12207 -0.715356,6.27064 -0.715101,9.43331 0.03725,3.555 0.184576,7.10785 0.181558,10.66317 -0.06691,3.89204 -0.55304,7.75867 -1.086945,11.60917 -0.508135,3.02002 -0.642838,6.06608 -0.546691,9.12056 0.244301,3.32742 0.397275,6.65869 0.522932,9.99243 -0.02998,3.10602 0.06373,6.20451 0.311257,9.29994 0.351448,3.17218 0.679331,6.34481 0.924871,9.52692 0.211839,3.15891 0.44499,6.31659 0.722542,9.47044 0.325142,2.75341 0.510004,5.51577 0.508701,8.28775 -0.130235,2.22233 -0.02818,4.4291 0.272239,6.6314 0.458053,2.1457 1.020477,4.26423 1.424807,6.42163 0.50809,2.61152 0.721592,5.25728 0.861658,7.9091 0.01598,2.58736 0.139539,5.169 0.270748,7.7523 0.175497,2.77788 0.285824,5.55736 0.362537,8.33949 0.06277,2.88481 -0.04716,5.76843 -0.04042,8.65311 0.01566,2.65147 0.201579,5.29834 0.342619,7.94519 0.221821,3.28092 0.204818,6.56903 0.08637,9.8531 -0.153159,2.67163 -0.27651,5.34315 -0.25832,8.01952 0.01848,2.74848 0.128472,5.49531 0.198762,8.24283 0.124583,2.84579 0.129949,5.69319 0.150732,8.54092 0.0642,2.63128 0.110229,5.26298 0.147456,7.89476 0.03824,2.73263 0.0216,5.46541 -0.04737,8.19738 -0.03895,2.37361 -0.256755,4.73641 -0.437984,7.1016 -0.12759,2.76453 -0.458146,5.50639 -0.955042,8.22701 -0.402554,1.94429 -0.954367,3.85717 -0.979888,5.85295 0.195239,2.07021 0.239512,4.15117 0.131627,6.22693 -0.182639,2.07383 -0.660785,4.10078 -1.037102,6.143 -0.274017,1.36489 -0.323038,2.74317 -0.244298,4.12793 0.149684,1.57342 0.113707,3.15254 0.102379,4.73016 -0.0251,1.17289 -0.01125,2.33292 0.195399,3.48988 0.3037,1.32041 0.452564,2.66581 0.580475,4.01228 0.142743,1.30975 0.330179,2.614 0.474049,3.9235 0.133865,1.20577 9.51e-4,2.41113 -0.108919,3.6119 -0.03294,0.76369 -0.03089,1.52954 -0.01656,2.29389 0.06478,0.87166 0.02675,1.74331 -0.0014,2.61483 -0.02999,0.81824 -0.0014,1.63697 0.06052,2.45294 0.0682,1.03855 0.03852,2.0793 -0.0102,3.11784 -0.02926,0.74058 -0.07485,1.47998 -0.133762,2.21865 -0.009,0.58794 -0.0096,1.1742 -0.0457,1.76109 -0.07775,0.96228 -0.219832,1.907 -0.537987,2.82056 -0.757621,1.61912 -1.848318,1.69784 -3.485026,1.81546 -0.04892,0.28227 -0.4481,0.21309 -0.399184,-0.0692 v 0 c -1.211429,-0.44588 -2.390011,-0.84074 -2.886352,-2.14515 -0.200264,-0.79586 -0.326847,-1.60331 -0.393815,-2.42108 -0.03618,-0.5884 -0.03671,-1.17612 -0.0448,-1.76557 -0.05796,-0.73478 -0.103578,-1.47021 -0.134645,-2.20677 -0.05161,-1.04689 -0.0841,-2.09626 -0.01275,-3.14325 0.06367,-0.80208 0.105927,-1.60754 0.07826,-2.4123 -0.03654,-0.86305 -0.09996,-1.72588 -0.06105,-2.59083 0.0026,-0.91535 0.01669,-1.82978 0.118627,-2.74048 0.01207,-0.80886 -0.1718,-1.59538 -0.272767,-2.39559 -0.170958,-1.36262 -0.27718,-2.72948 -0.366568,-4.09943 -0.105647,-1.15973 -0.345293,-2.29252 -0.550331,-3.43698 -0.277921,-1.56145 -0.451387,-3.13429 -0.320213,-4.72263 -0.0046,-1.47105 -0.1291,-2.93749 -0.165886,-4.40785 -0.06074,-1.85004 -0.127243,-3.70877 0.184211,-5.54337 0.256537,-1.88005 0.616412,-3.74075 0.909342,-5.6145 0.22305,-1.83375 0.243293,-3.674 0.151338,-5.51883 -0.0949,-2.42738 0.0054,-4.84738 0.411587,-7.24774 0.414214,-2.57735 0.957055,-5.12925 1.440414,-7.69428 0.292493,-2.11726 0.316139,-4.22982 0.135854,-6.36132 -0.07258,-2.7624 -0.05959,-5.52551 0.06924,-8.28638 0.09482,-2.49076 0.179241,-4.9861 -0.03356,-7.47428 -0.254966,-2.95522 -0.430545,-5.91746 -0.400425,-8.88535 0.07581,-2.73211 0.190776,-5.46434 0.17698,-8.19786 -0.01038,-2.71544 -0.166161,-5.42528 -0.25722,-8.13869 -0.04449,-3.20734 0.06465,-6.40967 0.239483,-9.61237 0.03172,-2.65182 -0.18185,-5.28565 -0.341665,-7.93109 -0.129192,-2.92434 -0.111061,-5.84694 -0.02486,-8.77277 0.03794,-2.67223 -0.05601,-5.34174 -0.164673,-8.01162 -0.149184,-2.61573 -0.278835,-5.23039 -0.281543,-7.85116 -0.06108,-2.3363 -0.170774,-4.67107 -0.519585,-6.98552 -0.371295,-2.22627 -0.958175,-4.39503 -1.446369,-6.59653 -0.410378,-2.50956 -0.573638,-5.0381 -0.48073,-7.58181 -0.0651,-2.51438 -0.336015,-5.01113 -0.772347,-7.48893 -0.507294,-3.28053 -0.908467,-6.576 -1.044282,-9.89569 -0.136264,-3.09965 -0.242972,-6.20485 -0.584566,-9.29038 -0.364632,-3.27195 -0.784918,-6.54419 -0.781003,-9.843 -0.004,-3.26212 0.108046,-6.52681 -0.04785,-9.78632 -0.228829,-3.49095 -0.46088,-6.99778 -0.02117,-10.48483 0.440744,-3.51291 1.148974,-6.99711 1.335179,-10.53615 -0.06819,-3.65188 -0.411401,-7.29684 -0.302363,-10.9517 0.190262,-3.41995 0.692514,-6.78467 1.310659,-10.15263 0.408032,-2.77557 0.553236,-5.56132 0.580298,-8.36656 0.106896,-2.45943 0.348877,-4.91553 0.315366,-7.37921 -0.109651,-2.65797 -0.552012,-5.2882 -0.620256,-7.94946 -0.05113,-3.77159 0.210208,-7.53414 0.78256,-11.26443 0.49962,-3.47303 0.984357,-6.95852 1.032991,-10.47326 -0.01185,-3.53964 -0.05364,-7.07929 -0.0037,-10.61886 -0.02035,-3.17958 -0.09514,-6.35669 -0.224083,-9.53373 -0.0252,-3.94332 0.08187,-7.88263 0.436748,-11.81246 0.11919,-3.5162 0.157547,-7.02992 0.0034,-10.54635 -0.03164,-4.14486 -0.243358,-8.51583 1.689427,-12.31171 0.174209,-3.31449 4.861612,-3.06813 4.687402,0.24637 z"
       inkscape:connector-curvature="0" />
    <path
       style="fill:#424242;fill-opacity:1;stroke:none;stroke-width:0.22863023;stroke-opacity:1"
       id="path912"
       d="m 441.65164,186.45763 c 2.78465,4.84235 3.60603,10.50171 4.26606,15.96814 0.20334,4.40482 0.21727,8.81133 0.43541,13.21711 0.31804,5.10581 0.68908,10.20819 0.98587,15.31531 0.53038,6.64573 -0.58214,13.20917 -1.98042,19.67671 -1.08965,4.35583 -1.75142,8.78215 -1.64465,13.27311 0.12913,2.99486 1.07566,5.83162 1.9769,8.66035 0.93843,3.07027 1.30154,6.23615 1.31581,9.43306 -0.0489,2.50935 -0.11285,5.01602 -0.0391,7.52529 0.10876,2.88595 0.17218,5.77128 0.16014,8.65924 -0.003,2.72103 -0.23343,5.426 -0.57519,8.12244 -0.37267,3.08909 -0.82266,6.1685 -1.31188,9.2411 -0.50644,2.94774 -0.83951,5.9199 -1.11321,8.89695 -0.20098,2.61887 -0.0791,5.24806 0.0369,7.86779 0.18227,3.21221 0.17518,6.42078 -0.006,9.63179 -0.30963,3.26926 -0.67544,6.52933 -0.79623,9.81235 -0.0577,2.89446 -0.0376,5.78316 0.20314,8.66842 0.45694,3.24201 0.76161,6.48642 0.80051,9.76082 -0.0105,2.86049 -0.32542,5.70561 -0.50197,8.55739 -0.12933,2.16965 -0.0795,4.34317 -0.0222,6.51408 0.0644,2.07105 0.23471,4.12774 0.69094,6.15059 0.53149,2.0997 1.05229,4.19472 1.42875,6.32812 0.35246,2.48528 0.21322,5.00188 0.13252,7.50065 -0.16855,2.42256 -0.0132,4.84442 0.22269,7.25588 0.22931,2.87331 0.38446,5.75315 0.45732,8.63467 0.0492,3.23334 0.094,6.4667 0.14344,9.70006 0.11045,3.54004 -0.0164,7.07633 -0.21118,10.61033 -0.20773,2.80621 -0.27356,5.61658 -0.23542,8.42923 0.0716,2.74659 0.0401,5.49365 -0.0142,8.24012 -0.0908,2.56732 -0.0341,5.13478 0.027,7.70181 0.0797,3.0011 0.15745,6.00122 0.11356,9.00344 -0.0426,2.81556 -0.28195,5.62074 -0.55711,8.42132 -0.37204,3.34129 -0.79348,6.67575 -1.36835,9.98846 -0.64631,3.1174 -1.2015,6.24902 -1.63807,9.40249 -0.35547,2.49063 -0.45691,5.00504 -0.68332,7.50802 -0.15861,2.10751 -0.48035,4.19593 -0.83,6.27859 -0.22889,1.41316 -0.36155,2.84128 -0.47989,4.26752 -0.066,1.42482 0.0665,2.84901 0.10032,4.2736 -0.0132,1.55174 -0.0494,3.10067 -0.004,4.65218 0.17252,2.12639 0.2079,4.25192 0.11034,6.38198 -0.17861,2.06459 -0.33458,4.12991 -0.41945,6.20061 -0.0856,1.66719 -0.0379,3.33563 0.0296,5.0022 0.0919,1.58696 -0.0527,3.17691 0.11225,4.75935 0.14791,1.01279 0.16528,2.02914 0.11421,3.04796 0.0376,0.4619 -0.11352,0.97755 -0.005,1.43393 0.008,0.0313 0.0167,-0.10657 0.0421,-0.0867 0.0445,0.0348 0.0352,0.10742 0.0528,0.16112 0.0708,0.36896 0.0773,0.38055 0.13586,0.65411 0.0236,0.39482 0.47854,2.47261 0.1206,1.19473 -0.0895,-0.0949 -0.14109,-0.25629 -0.26837,-0.28465 -0.85951,-0.19141 -2.12299,1.38162 -2.45462,1.70563 0.4804,0.52704 -0.26496,1.20644 -0.74538,0.6794 v 0 c -1.05353,0.45806 -2.48406,1.31617 -3.64331,0.43234 -0.20673,-0.15762 -0.29759,-0.42631 -0.44635,-0.63948 -0.0813,-0.28064 -0.21318,-0.62231 -0.23758,-0.93585 -0.0103,-0.13263 -0.0549,-0.52519 -0.0133,-0.39885 0.004,0.0137 0.14923,0.82515 0.053,0.88309 -0.46511,-0.80661 -0.67833,-1.73693 -0.73366,-2.66113 -0.003,-0.37771 0.11275,-1.16838 -0.003,-1.25844 -0.34031,-0.93572 -0.63577,-1.89167 -0.83594,-2.86813 -0.30956,-1.90085 -0.38808,-3.8097 -0.27269,-5.73351 0.0353,-1.69882 -0.0739,-3.38842 -0.20599,-5.08193 -0.0801,-2.23911 -0.0144,-4.47603 0.21459,-6.70613 0.16976,-1.97203 0.16376,-3.95437 0.34292,-5.92642 0.062,-1.48427 0.0389,-2.9646 -0.0482,-4.44797 -0.0301,-1.63078 0.003,-3.26091 0.0677,-4.89064 0.0689,-1.56897 0.18455,-3.13575 0.23144,-4.70583 0.14127,-1.97166 0.37006,-3.93737 0.43637,-5.91402 0.10311,-2.60163 0.0955,-5.20755 0.27623,-7.80592 0.22056,-3.38943 0.58931,-6.7667 1.25746,-10.1006 0.57746,-3.17698 1.26867,-6.32602 1.9954,-9.4717 0.38705,-2.46463 0.38789,-4.91767 0.20768,-7.40659 -0.0469,-3.00582 0.0252,-6.00982 0.10627,-9.01459 0.0652,-2.56489 0.13755,-5.13035 0.057,-7.69601 -0.0537,-2.72736 -0.11031,-5.45487 -0.0941,-8.18295 0,-2.89856 -0.0636,-5.7961 -0.10055,-8.69433 -0.0224,-3.49876 -0.0881,-6.99911 0.0219,-10.49687 0.11604,-3.14056 0.31833,-6.27879 0.33143,-9.42229 -0.0508,-2.76899 -0.24868,-5.52837 -0.4057,-8.29285 -0.0918,-2.74023 -0.1819,-5.48651 0.0151,-8.22452 0.14971,-1.91091 0.42909,-3.83465 0.25292,-5.75213 -0.32153,-2.01572 -1.12981,-3.90621 -1.58096,-5.89398 -0.56824,-2.56922 -0.87875,-5.16349 -0.80469,-7.80083 0.0103,-2.25807 -0.0346,-4.51515 -0.0898,-6.77251 -0.0468,-2.75509 -0.0797,-5.51001 -0.0939,-8.26551 -0.0518,-3.06772 -0.20324,-6.12987 -0.51109,-9.18372 -0.2724,-3.19426 -0.52517,-6.39657 -0.5039,-9.60489 0.0698,-3.43522 0.35949,-6.85364 0.8235,-10.2588 0.31453,-2.89055 0.42817,-5.79219 0.34116,-8.69999 -0.0455,-2.89439 -0.1987,-5.78883 -0.0754,-8.6836 0.15739,-3.2469 0.43367,-6.49233 0.89719,-9.71057 0.51787,-3.06692 1.18159,-6.10575 1.97434,-9.11373 0.44384,-2.24821 0.78756,-4.49636 0.54398,-6.79659 -0.0656,-2.97122 -0.0747,-5.94399 0.12943,-8.911 0.17446,-2.35809 0.40343,-4.72335 0.31594,-7.08998 -0.17744,-2.53814 -0.42322,-5.08525 -1.17669,-7.52903 -0.919,-3.33194 -2.02509,-6.62198 -2.57964,-10.04375 -0.84046,-5.30651 -0.92003,-10.64871 0.21663,-15.93352 1.19309,-5.8666 2.83945,-11.68172 2.97569,-17.70965 0.20053,-5.16112 0.30687,-10.32402 0.5347,-15.48315 0.30296,-4.12035 0.75631,-8.2488 0.17106,-12.37149 -0.62316,-5.34135 -1.9197,-10.77043 -1.02895,-16.14446 -0.41233,-3.10031 3.97215,-3.68345 4.38449,-0.58315 z"
       inkscape:connector-curvature="0" />
    <path
       style="fill:#424242;fill-opacity:1;stroke:none;stroke-width:0.22863023;stroke-opacity:1"
       id="path914"
       d="m 44.025076,183.76973 c 3.726609,-3.03689 8.585207,-3.82796 13.247618,-4.10717 2.149181,0.0378 4.302485,0.17928 6.443593,0.36527 0.328327,0.0285 0.720279,-0.0682 0.979358,0.13553 0.226616,0.17817 -0.616647,0.10404 -0.863657,-0.0446 -0.184144,-0.11078 0.425494,-0.0607 0.638242,-0.091 0.235852,-0.0924 0.478969,-0.16807 0.707556,-0.27722 0.729945,-0.34854 1.417326,-0.78142 2.144585,-1.13553 1.597104,-0.77765 3.199429,-1.35248 4.898449,-1.86183 2.795581,-0.68975 5.644885,-0.64932 8.493969,-0.33779 0.723064,0.0791 1.422579,0.30961 2.14222,0.41539 -0.436036,-0.19917 2.084257,0.31925 1.688169,-0.0814 -0.24685,-0.24968 -1.098147,0.23589 -1.047396,-0.11153 0.05331,-0.3649 0.728187,-0.11757 1.090726,-0.18509 0.78268,-0.14577 1.890751,-0.3882 2.652358,-0.55075 3.380991,-0.60967 6.885011,-0.78201 10.291116,-0.2653 2.022762,0.53697 4.050988,0.70216 6.131898,0.689 0.3391,-0.0143 0.7444,0.15894 1.01732,-0.0428 0.24783,-0.18322 -1.21121,0.0864 -0.92424,-0.026 0.0181,-0.007 2.22997,-0.0719 2.27696,-0.0725 3.45968,-0.0504 2.32596,-0.0804 4.71485,0.0445 3.59427,0.28661 7.17911,0.65417 10.77884,0.88435 3.82974,0.20549 7.66282,0.32465 11.46635,0.84107 2.82191,0.44493 5.52018,1.41316 8.35405,1.7775 1.37214,-0.0247 2.84227,0.24694 4.20643,-0.006 0.22712,-0.0422 -0.91515,-0.0542 -0.68705,-0.0907 1.13735,-0.18186 2.30159,-0.0959 3.4523,-0.14561 3.06797,-0.10226 6.15256,-0.18062 9.22025,-0.0211 0.43112,0.0224 2.65364,0.37735 3.12017,0.44964 2.50059,0.56918 5.0161,0.72339 7.56836,0.61433 -0.28662,-0.0159 -1.14357,-0.004 -0.85987,-0.0476 0.90412,-0.13972 1.8294,-0.0362 2.74376,-0.0661 1.38462,-0.0453 2.76927,-0.0923 4.15385,-0.13972 5.44135,-0.14578 -6.3457,0.166 5.1019,-0.10533 0.53132,-0.0126 1.07275,0.0492 1.59336,-0.0577 0.22984,-0.0472 -0.91639,-0.0577 -0.6923,-0.12727 0.5253,-0.16297 1.09502,-0.10494 1.64148,-0.16721 0.5962,-0.0679 1.19084,-0.14891 1.78626,-0.22336 4.00249,-0.7543 8.02466,-1.31812 12.08837,-1.59168 3.99074,-0.24316 7.97628,0.45073 11.9582,0.19497 -0.2543,-0.0423 -1.01161,-0.059 -0.76289,-0.12682 0.53559,-0.14599 1.10776,-0.0747 1.66119,-0.11805 0.58753,-0.0461 1.17442,-0.1 1.7616,-0.15023 1.80832,-0.15478 3.61355,-0.31569 5.42456,-0.43583 4.14882,-0.2813 8.31211,-0.18384 12.46651,-0.0994 2.11518,0.11105 4.23568,0.0435 6.3514,0.0957 0.30986,0.008 -1.23789,-0.0123 -0.92963,0.0201 0.46914,0.0494 0.94323,0.0206 1.41486,0.031 2.36631,-4.6e-4 4.73104,0.0948 7.09711,0.1075 2.95394,0.0836 5.9015,-0.0125 8.85114,-0.14334 0.44037,-0.013 0.88215,-0.001 1.3211,-0.0391 0.34928,-0.03 -1.38273,-0.0992 -1.05159,0.0159 0.3877,0.13477 0.8206,0.0248 1.23052,0.0463 1.0037,0.0525 2.00405,0.15516 3.00699,0.21994 2.68935,-0.1288 5.32654,0.27465 7.98495,0.55684 0.99797,0.0594 2.00079,0.0622 3.00011,0.0359 0.34249,-0.009 1.36904,-0.0624 1.02687,-0.0451 -0.43172,0.0219 -0.88635,-0.0807 -1.29553,0.0587 -0.33332,0.1136 0.70415,0.0153 1.05622,0.0229 0.32777,0.0137 0.65533,0.0339 0.98332,0.041 1.0509,0.0229 2.10278,0.007 3.15307,0.0491 0.56334,0.0228 1.38049,0.19838 1.94029,0.26603 0.9287,0.11221 1.04742,0.0849 1.99907,0.0906 2.38838,-0.0932 4.77563,0.0247 7.16287,0.0878 -0.40623,0.0136 -0.87383,-0.17446 -1.21869,0.0407 -0.0585,0.0365 0.82037,0.0185 2.17773,0.0458 1.82741,0.0368 3.65762,0.11844 5.48579,0.10464 2.63467,-0.11924 5.26927,-0.14989 7.90584,-0.094 0.78548,0.3477 1.79751,-0.29373 2.58594,0.0551 0.33588,0.14863 -1.35614,-0.22491 -1.10118,0.0395 0.0632,0.0656 3.10535,0.0659 3.41119,0.069 3.10599,-0.0238 6.21266,-0.0681 9.31728,-0.17109 2.17113,-0.15154 4.36345,0.0789 6.53286,-0.0494 0.37008,-0.0219 -0.74143,-0.005 -1.11215,-0.008 2.19112,0.0665 4.37907,0.0755 6.56808,-0.0429 2.37522,-0.23572 4.71493,-0.72339 7.07984,-1.03579 2.9624,-0.37447 5.95186,-0.48011 8.93482,-0.53708 3.17999,-0.0615 6.34492,0.16747 9.51628,0.33509 0.63328,0.0892 3.70422,0.0716 0.25753,0.0987 -0.28405,0.002 0.56823,-0.005 0.85203,-0.017 0.64351,-0.0275 1.28557,-0.0818 1.92838,-0.12233 3.75297,-0.44532 7.52978,-0.41523 11.30243,-0.44035 1.99948,0.007 4.00188,0.0634 5.99679,0.2058 0.3953,0.0282 1.44117,-0.20228 1.18469,0.0998 -0.28675,0.33779 -0.885,0.0456 -1.32751,0.0684 2.03455,0.28182 4.07032,0.0437 6.1,-0.13429 3.22854,-0.28075 6.46338,-0.42995 9.70371,-0.39985 2.18317,0.0461 4.35699,0.26811 6.53721,0.36678 2.31382,0.0913 4.63482,-0.0689 6.94605,0.0802 1.88975,0.0379 3.74692,0.28251 5.5953,0.65948 1.4789,0.42912 2.99315,0.28653 4.50586,0.27826 -0.51816,0.005 -1.037,-0.0123 -1.55445,0.0148 -0.25648,0.0135 0.5132,0.0247 0.77004,0.0263 2.01223,0.0127 3.9576,0.0384 5.95683,0.16 1.88391,0.1479 3.721,0.60603 5.59707,0.80967 1.52987,0.29388 3.07728,0.53327 4.63254,0.62853 1.59908,0.004 3.1836,0.12816 4.75057,0.44636 0.9102,0.30746 4.46112,0.21957 0.42399,0.25925 0.83158,0.0388 1.65519,-0.0937 2.48855,-0.10977 0.93082,-0.0408 1.85282,-0.16498 2.78586,-0.15727 0.80365,-0.9302 2.58155,0.32008 3.66307,0.19821 0.9535,-0.0425 -3.30412,0.0718 -1.18584,0.008 1.47738,-0.0557 5.5875,-0.10033 1.18885,-0.0367 0.31384,-0.45857 -1.10865,0.65953 -0.82775,0.60503 0.0865,-0.0168 0.14067,-0.15117 0.22737,-0.13509 0.0633,0.0117 -0.0759,0.10412 -0.11382,0.15617 -1.74124,2.20834 -0.52529,0.34292 4.07849,5.36865 0.19743,0.21553 -0.41976,-0.41347 -0.57875,-0.65871 -0.20085,-0.3098 -0.32783,-0.66165 -0.49175,-0.99247 -0.71743,1.04423 -2.1942,0.0297 -1.47678,-1.01459 v 0 c -0.11027,-0.39241 -0.2314,-0.78192 -0.3308,-1.17722 -0.0706,-0.28066 -0.40825,-1.02605 -0.1789,-0.84956 5.62558,4.32909 6.49426,2.88818 4.66453,5.16133 -0.68211,0.69654 -1.55687,1.29344 -2.57799,1.56923 -8.03507,0.16605 1.12496,-0.0121 -1.37157,-0.008 -1.11391,0.0147 -2.22753,0.076 -3.34214,0.0359 -0.90083,-0.0928 -2.94986,0.12136 0.88672,0.0544 -0.77364,0.0539 -1.54177,0.13037 -2.30578,0.27344 -0.95982,0.10315 -1.90555,0.0214 -2.86173,0.13979 -1.91674,0.0269 -3.82082,0.0599 -5.73193,-0.0851 -1.66983,0.0789 -3.34654,0.0311 -4.99119,-0.29754 -1.54627,-0.26668 -3.10863,-0.44229 -4.67402,-0.55039 -1.75607,-0.2308 -3.50523,-0.51722 -5.2689,-0.68417 -0.50982,-0.0482 -1.03947,-0.10534 -1.55192,-0.12733 -0.2182,-0.009 -0.87357,-0.006 -0.65518,-0.009 0.52294,-0.006 1.04683,-0.0318 1.56897,-0.002 0.27456,0.0155 -0.54922,0.0296 -0.82382,0.0444 -1.06645,0.006 -2.1329,0.0126 -3.19934,0.0188 -1.95474,-0.045 -3.88582,-0.28498 -5.79966,-0.69036 -1.52819,-0.2405 -3.06994,-0.3452 -4.6142,-0.42515 -0.75936,-0.0319 -6.15731,-0.3099 -1.82948,-0.18309 -2.06539,0.20859 -4.07535,0.83299 -6.15765,0.93476 -3.33308,0.16535 -6.67698,0.21952 -10.00492,-0.0824 -2.05173,-0.17187 -4.11235,-0.41578 -6.16767,-0.12926 -3.62306,0.0708 -7.23363,0.35442 -10.85867,0.3616 -0.54776,-0.005 -1.09727,0.0297 -1.64326,-0.0145 -0.31574,-0.0256 1.26121,0.0141 0.94941,-0.0417 -0.5189,-0.0929 -1.05349,-0.0428 -1.57986,-0.0711 -1.33667,-0.0719 -2.66855,-0.19639 -4.0033,-0.29448 -2.64989,-0.12843 -5.3017,-0.14282 -7.95358,-0.0319 -1.06958,0.0184 -2.13984,0.0303 -3.20919,0.0582 -0.38643,0.01 -1.4692,-0.19112 -1.159,0.0395 0.11203,0.0833 3.24747,-0.0288 -0.0151,0.0651 -2.80095,0.0511 -5.59695,0.22075 -8.39795,0.26774 -2.4308,0.10899 -4.85716,0.24056 -7.27044,0.57737 -2.38427,0.26678 -4.77831,0.36448 -7.17736,0.37077 -3.3857,-0.007 -6.7713,0.018 -10.1562,-0.0671 -0.42001,-0.0155 -0.83996,-0.0328 -1.26005,-0.0464 -0.4027,-0.0131 -0.93073,0.25842 -1.20828,-0.0337 -0.25909,-0.27263 1.17758,0.32094 1.12712,-0.0518 -0.0178,-0.13128 -3.06881,0.004 -3.31557,-0.0291 -3.21016,0.069 -6.4193,0.18856 -9.63082,0.19004 -2.6336,0.003 -5.26131,-0.11795 -7.88713,-0.32009 -0.35542,-0.0182 -0.71053,-0.0447 -1.06629,-0.0545 -0.33473,-0.009 -1.3349,-0.0577 -1.00455,-0.003 0.41958,0.0696 0.86694,-0.072 1.27507,0.0478 0.3368,0.0988 -0.70192,0.008 -1.05277,0.0174 -3.98855,0.10159 4.96676,-0.0495 -4.5796,0.0868 -2.618,0.0138 -5.2496,-0.0454 -7.82209,-0.58804 -0.85532,-0.18939 -1.64805,-0.3524 -2.52588,-0.35194 -0.22801,1.2e-4 -0.91159,0.005 -0.68385,0.0161 0.47127,0.0229 0.94769,-0.0432 1.41533,0.0195 0.29999,0.0402 -0.60445,0.0325 -0.90668,0.0487 -3.14922,0.14352 -6.30491,0.28369 -9.40157,-0.42728 -0.5983,-0.11565 -5.51474,-0.74694 -1.6522,-0.41625 0.27134,0.0232 -0.54421,0.022 -0.8163,0.033 -3.02613,0.23095 -6.05168,0.51527 -9.09356,0.27549 -1.52668,-0.0838 -3.05182,-0.20686 -4.58011,-0.25707 -0.3195,-0.0105 -1.27664,0.009 -0.95873,-0.0251 0.42315,-0.0451 0.85107,-0.006 1.27662,-0.009 -2.25088,0.0227 -4.47632,0.34851 -6.71797,0.52421 -4.03464,0.29577 -8.08308,0.11969 -12.12072,-0.0276 -3.83033,-0.1764 -1.9624,-0.23014 -6.55145,0.16027 -4.60223,0.5733 -9.21949,0.95743 -13.86161,0.58161 -1.50365,-0.15135 -2.99318,-0.27939 -4.50316,-0.33801 -0.33741,-0.0131 1.34342,-0.0266 1.01223,0.0392 -0.90774,0.18036 -1.873,-0.17204 -2.77227,0.1523 -4.04978,0.50542 -8.04757,1.41126 -12.13226,1.64178 -2.73697,0.1463 -5.40809,0.1334 -8.15614,0.0554 -0.50511,-0.0143 -1.0191,0.0245 -1.51395,-0.0779 -0.26205,-0.0542 1.06415,-0.0286 0.79975,-0.0699 -0.44278,-0.0691 -0.89623,-0.0101 -1.34436,-0.0151 -3.54584,0.0128 -7.08201,0.33717 -10.62997,0.21242 -2.7477,-0.16631 -5.46376,-0.56486 -8.20332,-0.81242 -3.02144,-0.13225 -2.60759,0.13692 -6.80683,0.2768 -4.36081,0.17265 -8.79374,0.32659 -13.05908,-0.75365 -2.50769,-0.61679 -5.02178,-1.2425 -7.63063,-1.09247 -3.98645,0.0369 -7.98741,0.1257 -11.94544,-0.45481 -3.39266,-0.50804 -6.71162,-1.30108 -10.05003,-2.07741 -0.34676,-0.0299 -0.88622,0.22242 -1.04027,-0.0897 -0.14284,-0.28939 1.27352,0.0387 0.96631,-0.0602 -0.34426,-0.11078 -0.72328,0.01 -1.0847,0.0221 -1.91597,0.0655 -3.83673,0.16988 -5.7517,0.0188 -2.069329,-0.19641 -4.06647,-0.76388 -6.132671,-0.92847 -2.38073,0.11319 0.14257,-0.0371 0.14613,0.0989 0.0091,0.34521 -0.690315,0.0251 -1.034872,0.0483 -1.287426,0.0866 -2.568173,0.25415 -3.842692,0.45196 -3.432117,0.48991 -6.914234,1.04942 -10.369117,0.37367 -0.328343,-0.0411 -0.654916,-0.10045 -0.985033,-0.12326 -0.266807,-0.0185 -1.064868,-0.0513 -0.802332,-2.3e-4 0.383134,0.0744 0.802151,-0.0626 1.16871,0.0714 0.287255,0.10504 -0.612876,-0.009 -0.91734,0.0205 -0.682416,0.0653 -1.777329,0.31258 -2.417745,0.4445 -3.124801,0.76317 -6.237818,1.6215 -9.449337,1.94301 -2.361154,0.21361 -0.347715,0.0756 -3.921905,0.0718 -0.308994,-2.3e-4 -0.696063,-0.16896 -0.926233,0.0372 -0.186097,0.16667 0.943394,-0.0105 0.737837,0.13154 -0.731943,0.50555 -1.957859,-0.26813 -2.630604,0.44929 -4.28846,0.82505 -8.626988,1.75237 -13.013223,1.66329 -3.487135,2.07865 -6.426796,-2.8529 -2.939661,-4.93156 z"
       inkscape:connector-curvature="0" />
  </g>
</svg>
