<?xml version="1.0" encoding="UTF-8" standalone="no"?>
<!-- Created with Inkscape (http://www.inkscape.org/) -->

<svg
   xmlns:dc="http://purl.org/dc/elements/1.1/"
   xmlns:cc="http://creativecommons.org/ns#"
   xmlns:rdf="http://www.w3.org/1999/02/22-rdf-syntax-ns#"
   xmlns:svg="http://www.w3.org/2000/svg"
   xmlns="http://www.w3.org/2000/svg"
   xmlns:sodipodi="http://sodipodi.sourceforge.net/DTD/sodipodi-0.dtd"
   xmlns:inkscape="http://www.inkscape.org/namespaces/inkscape"
   width="1024"
   height="1024"
   viewBox="0 0 135.46667 135.46667"
   version="1.1"
   id="svg8"
   inkscape:version="0.92.4 (5da689c313, 2019-01-14)"
   sodipodi:docname="poster.svg"
   inkscape:export-filename="C:\Users\panu-\PycharmProjects\nextgame\data\images\decals\poster.png"
   inkscape:export-xdpi="10.173375"
   inkscape:export-ydpi="10.173375">
  <defs
     id="defs2" />
  <sodipodi:namedview
     id="base"
     pagecolor="#ffffff"
     bordercolor="#666666"
     borderopacity="1.0"
     inkscape:pageopacity="0.0"
     inkscape:pageshadow="2"
     inkscape:zoom="0.34988737"
     inkscape:cx="536.70613"
     inkscape:cy="324.63916"
     inkscape:document-units="mm"
     inkscape:current-layer="layer2"
     showgrid="false"
     units="px"
     width="1024px"
     inkscape:window-width="1920"
     inkscape:window-height="1017"
     inkscape:window-x="-8"
     inkscape:window-y="-8"
     inkscape:window-maximized="1"
     inkscape:pagecheckerboard="true" />
  <metadata
     id="metadata5">
    <rdf:RDF>
      <cc:Work
         rdf:about="">
        <dc:format>image/svg+xml</dc:format>
        <dc:type
           rdf:resource="http://purl.org/dc/dcmitype/StillImage" />
        <dc:title></dc:title>
      </cc:Work>
    </rdf:RDF>
  </metadata>
  <g
     inkscape:groupmode="layer"
     id="layer4"
     inkscape:label="lines 4"
     style="display:inline"
     sodipodi:insensitive="true">
    <path
       style="fill:#e6e6e6;fill-opacity:1;stroke:none;stroke-width:1.42903125;stroke-opacity:1"
       d="m 136.51851,100.2088 c -13.0222,0.94408 -25.54089,3.64731 -38.12611,3.79866 -7.38877,5.69504 -2.481131,16.91231 -3.469916,24.83545 1.857352,47.92786 7.153316,95.32826 4.522152,143.25993 -1.4076,87.81046 -1.738349,175.63702 -3.615048,263.43853 -0.730409,83.17018 3.076649,166.5525 1.499412,249.57813 -1.087039,36.00884 -4.656125,71.75758 -10.128817,107.42295 2.173342,9.78693 14.598477,4.02749 22.004847,6.3497 9.605,2.42979 19.02371,6.79555 29.31958,4.6143 76.78316,-4.00614 153.98325,-7.01315 231.05606,-6.47694 42.44961,1.24466 85.02163,6.39227 127.69009,5.18953 40.64428,-0.39943 81.56184,0.21277 122.02871,-1.27971 6.72994,-4.21464 3.42604,-14.74115 5.05181,-21.82474 1.76956,-13.858 -1.06064,-28.50166 3.02832,-41.88011 3.37934,-3.68937 4.29236,-9.96292 7.48286,-13.00362 16.88821,-4.45144 34.78658,-0.008 52.01173,1.09968 8.34787,-4.07918 2.35707,-15.56898 3.52979,-22.92353 -2.74447,-34.82195 -2.41032,-69.25836 1.8081,-103.93819 1.69125,-25.68471 6.56339,-51.26141 6.19762,-77.02365 -3.80883,-40.39551 -2.05975,-81.46861 -2.94055,-122.23485 -0.22178,-51.6442 -0.55829,-103.31334 -3.00444,-154.89116 -0.8036,-29.55974 2.5289,-58.63515 3.42745,-88.18965 0.394,-28.55019 -5.69809,-56.6421 -5.98966,-85.15296 -1.3764,-8.51481 -3.01544,-22.27368 -14.55239,-20.85282 -15.22187,-2.45098 -30.62667,-2.8234 -45.85767,-0.44309 -4.87587,1.8173 -5.4595,-2.47229 -8.92308,-4.4406 -3.83272,-2.0848 -10.58956,3.0503 -10.5726,-3.4107 -4.46998,-14.00963 -14.60418,-24.88697 -25.8342,-33.85855 -6.80051,-10.700578 -20.57723,-4.43342 -30.91855,-5.77438 -122.46392,2.79101 -244.96839,2.66798 -367.4537,2.32774 -16.62912,0.61196 -32.75662,-3.98119 -49.2718,-4.31535 z"
       id="path915"
       inkscape:connector-curvature="0"
       transform="scale(0.26458333)" />
    <path
       style="fill:#c7c7c7;fill-opacity:1;stroke:none;stroke-width:1.42903125;stroke-opacity:1"
       d="m 610.41822,110.41298 c -9.03477,1.52219 -3.80603,10.99168 0.36356,14.88349 5.9148,5.62749 4.20468,19.66885 14.98178,18.57873 14.65251,-2.97985 30.46273,-0.16689 44.84423,-4.80065 7.24597,-5.31749 -1.47626,-12.64326 -7.28974,-13.93121 -10.63721,-4.52078 -18.80894,-15.07324 -31.44401,-13.87163 -7.14304,-0.40667 -14.29759,-0.94538 -21.45582,-0.85873 z"
       id="path917"
       inkscape:connector-curvature="0"
       transform="scale(0.26458333)" />
    <path
       style="fill:#c7c7c7;fill-opacity:1;stroke:none;stroke-width:1.42903125;stroke-opacity:1"
       d="m 664.33345,826.77074 c -8.72322,1.3819 -19.62196,-2.72924 -26.839,2.88318 -6.65589,9.91422 -9.57023,21.56854 -8.18023,33.43654 1.09294,8.53019 -1.55735,18.07577 2.41666,25.89338 8.38893,2.69887 15.43488,-6.28166 23.05709,-9.11566 12.39296,-5.91954 22.42457,-16.71448 24.56147,-30.63207 1.24448,-5.9122 4.68373,-10.69074 9.31103,-14.15076 2.97284,-8.89935 -8.66187,-8.68814 -14.33496,-8.34572 -3.33077,-0.0235 -6.66137,0.0129 -9.99206,0.0311 z"
       id="path919"
       inkscape:connector-curvature="0"
       transform="scale(0.26458333)" />
  </g>
  <g
     inkscape:groupmode="layer"
     id="layer1"
     inkscape:label="lines 2"
     style="display:inline"
     sodipodi:insensitive="true">
    <path
       style="fill:#424242;fill-opacity:1;stroke:none;stroke-width:0.26458332;stroke-opacity:1"
       id="path834"
       d="m 25.820882,28.313972 c 0.553048,1.967487 0.485384,4.025331 0.496589,6.047563 0.0099,1.789321 0.01521,1.697371 0.05474,3.469246 -0.03425,3.098091 0.225731,6.185881 0.511209,9.267422 0.298363,3.366228 0.55367,6.733823 0.673401,10.111388 0.04905,3.703397 0.0024,7.407053 0.0083,11.110677 0.0038,3.347646 -0.179006,6.68881 -0.398242,10.027727 -0.160309,2.605209 -0.176673,5.211363 -0.09893,7.819133 0.13971,2.96009 0.205028,5.920571 0.193037,8.883769 -0.02487,2.897243 -0.05401,5.794803 -0.134774,8.691083 -0.09526,2.53995 -0.179837,5.07907 -0.193997,7.62091 -0.01201,2.50429 0.04765,5.00787 0.08734,7.51161 0.0482,2.63564 -0.09571,5.26722 -0.279469,7.89501 -0.199731,1.88053 -0.266287,3.76328 -0.207317,5.65209 0.1411,2.03544 0.134641,4.07061 -0.01138,6.10459 -0.187243,1.77378 -0.432595,3.53491 -0.472424,5.31991 0.001,1.78041 0.206735,3.55295 0.354999,5.32532 0.14623,1.90027 0.128678,3.80691 0.178041,5.71076 0.0669,2.11665 0.09256,4.23428 0.08132,6.35189 -0.02426,2.12756 -0.04742,4.25451 -0.03116,6.38222 0.01976,2.19846 0.04536,4.39714 0.03453,6.59568 -0.01574,2.09489 -0.02902,4.18972 -0.04009,6.28463 0.0011,1.79553 -0.01863,3.5915 0.0065,5.38695 0.01617,1.38157 0.126606,2.75919 0.279585,4.13157 0.1426,1.40974 0.268092,2.82137 0.292558,4.23855 -0.01005,1.14437 -0.05206,2.28746 -0.03019,3.43217 0.02273,1.25317 0.105397,2.50395 0.131635,3.75703 0.02869,1.44483 -0.02199,2.8827 -0.189685,4.31779 -0.185959,1.23483 -0.29819,2.47669 -0.360537,3.7233 -0.01527,1.43192 0.0043,2.86173 -0.04305,4.2936 -0.03454,1.18096 -0.12496,2.35909 -0.181041,3.53896 -0.0051,1.12513 -0.235365,2.22647 -0.469602,3.32137 -0.210354,0.79255 -0.253422,1.60002 -0.251496,2.41435 0.07449,0.9071 0.08756,1.81312 -0.0024,2.71871 -0.115645,0.94753 -0.301052,1.90213 -0.731927,2.7606 -0.188998,0.35542 -0.09404,0.75123 -0.07089,1.1349 0.06356,0.82439 -0.04768,1.64471 -0.233931,2.44605 -0.05513,0.50806 -0.354505,0.96218 -0.414009,1.4654 0.07487,0.52578 0.0758,1.05185 0.05833,1.58151 -0.02751,0.46547 -0.06347,0.93123 -0.131516,1.39275 0.02923,0.14263 -0.09966,0.17479 -0.09711,0.22474 0.05496,0.23591 0.100218,0.46368 0.113872,0.70778 -0.03,0.29252 0.04144,0.85139 -0.289365,1.01972 -0.141424,0.072 -0.311861,0.0588 -0.467792,0.0882 -0.355122,0.80488 -1.493385,0.30266 -1.138263,-0.50222 v 0 c -0.513566,-0.23762 -0.441136,-0.0809 -0.454216,-0.61584 0.0033,-0.0512 0.05032,-0.70973 0.123085,-0.49749 -0.0055,-0.012 -0.137899,-0.3038 -0.132278,-0.41574 -0.06441,-0.49294 -0.06636,-0.99019 -0.04303,-1.48637 0.02796,-0.58398 0.01094,-1.16936 0.06659,-1.7514 0.06938,-0.53208 0.182758,-1.05667 0.224292,-1.59258 0.07963,-0.72014 0.184755,-1.43588 0.332926,-2.14529 0.09607,-0.51323 0.048,-1.03457 0.07293,-1.5536 0.02032,-0.87323 0.263179,-1.7123 0.444273,-2.56213 0.123164,-0.73351 0.261998,-1.4804 0.124643,-2.22236 -0.163898,-1.04153 -0.187608,-2.09894 0.03251,-3.13618 0.207905,-0.92177 0.557864,-1.8275 0.524323,-2.78417 -0.06686,-1.19345 -0.152332,-2.38626 -0.152877,-3.5824 -0.01243,-1.48613 -0.01853,-2.97474 0.10369,-4.45715 0.124334,-1.2464 0.301366,-2.48721 0.395816,-3.7366 0.06066,-1.37346 0.04179,-2.74613 0.04532,-4.12061 0.03727,-1.23376 0.13938,-2.46574 0.126079,-3.70064 -0.01855,-1.11779 -0.0948,-2.23374 -0.143337,-3.35051 -0.111945,-1.37242 -0.223652,-2.74423 -0.328725,-4.11722 -0.108026,-1.41227 -0.215411,-2.82443 -0.401176,-4.22931 -0.173368,-1.84076 -0.327434,-3.68527 -0.300288,-5.53648 -0.01071,-2.0948 -0.02292,-4.18951 -0.03831,-6.28428 -0.01097,-2.19812 0.01294,-4.39638 0.0294,-6.59445 0.01438,-2.13027 -0.0083,-4.25991 -0.02137,-6.39011 -0.0021,-2.10841 0.03518,-4.21646 0.07529,-6.32443 0.02136,-1.83277 0.03765,-3.66982 -0.158507,-5.49507 -0.149088,-1.86978 -0.27947,-3.74407 -0.254448,-5.62104 0.03596,-1.81304 0.161178,-3.6203 0.269304,-5.43004 0.08057,-1.96225 0.150655,-3.92406 0.174058,-5.88811 -0.0037,-1.93569 -0.156415,-3.86211 -0.236855,-5.79535 -0.02454,-2.59854 0.103244,-5.19232 0.164226,-7.78969 0.02589,-2.5088 0.04526,-5.0174 0.01838,-7.52633 -0.0055,-2.55259 -0.0073,-5.1053 0.01142,-7.65782 -0.0094,-2.88439 -0.07451,-5.768296 -0.0679,-8.652826 -0.0052,-2.949784 0.05119,-5.897777 0.116095,-8.846698 0.02556,-2.652818 -0.03127,-5.304764 -0.0058,-7.957489 -0.01093,-3.319645 -0.03626,-6.638489 -0.06155,-9.957996 0.075,-3.668776 0.164321,-7.337864 0.134086,-11.007725 -0.0035,-3.30228 0.02573,-6.608376 -0.150842,-9.906799 -0.243203,-3.162223 -0.616514,-6.312974 -0.80996,-9.47901 -0.04218,-3.285262 -0.06603,-6.724597 1.296923,-9.781135 0.144264,-1.60551 2.414798,-1.40149 2.270534,0.20402 z"
       inkscape:connector-curvature="0" />
    <path
       style="fill:#424242;fill-opacity:1;stroke:none;stroke-width:0.26458332;stroke-opacity:1"
       id="path844"
       d="m 23.798975,236.89255 c 1.552681,-0.5062 3.235718,-0.59161 4.846758,-0.32677 0.892318,0.14669 1.580325,0.39572 2.434664,0.66531 0.918078,0.29235 1.799535,0.76037 2.760068,0.91595 0.897858,0.14544 1.842365,-0.0199 2.736294,-0.10384 0.08265,-0.0329 0.159676,-0.0877 0.247957,-0.0988 0.874128,-0.10908 1.757402,-0.12505 2.63539,-0.19668 1.658321,-0.1353 3.31361,-0.26895 4.974458,-0.37111 3.97706,-0.23121 7.961677,-0.18821 11.943185,-0.26994 3.994936,-0.19931 7.989131,-0.33606 11.989152,-0.35216 3.680947,0.0573 7.345151,0.1915 11.01984,-0.0553 0.621721,-0.0678 1.244071,-0.13013 1.865165,-0.20349 1.585436,-0.18724 2.506519,-0.33999 4.109455,-0.49246 2.1415,-0.20368 4.268155,-0.25486 6.417331,-0.25205 3.826232,-0.0293 7.63007,0.41235 11.446448,0.60716 2.60205,0.0931 5.19517,0.33015 7.7919,0.50996 2.41011,0.13818 4.81013,0.40297 7.21731,0.57585 2.35053,0.27702 4.71802,0.15041 7.07659,0.20334 2.50431,0.0542 5.00805,0.0412 7.51237,0.007 2.32971,-0.0334 4.65892,-0.10105 6.98779,-0.17108 1.90957,-0.0476 3.81957,-0.0656 5.72963,-0.0478 1.69486,-0.018 3.3836,-0.17438 5.07706,-0.23099 1.80428,-0.0368 3.60701,0.0836 5.4107,0.0953 -0.0639,0.001 -0.25571,0.002 -0.19178,0.003 1.1383,0.0165 2.2779,-0.0178 3.41637,-0.0198 1.60041,0.0183 3.20362,-0.0402 4.80263,0.0386 0.10148,0.005 1.42696,0.0969 1.42545,0.11866 -0.01,0.13789 -0.30361,-0.0487 -0.41313,0.0356 -0.15602,0.12013 0.3913,0.045 0.58611,0.0736 1.13783,0.0348 1.89399,3.20303 0.59363,2.76669 -3.97201,-2.95757 -0.32686,-3.08069 -0.16031,-2.70879 0.10728,0.69503 0.21456,1.39006 0.32184,2.08509 -1.01915,0.26188 -1.38952,-1.17942 -0.37036,-1.4413 v 0 c 0.2512,0.69499 0.50239,1.38999 0.75359,2.08499 -0.52102,0.74816 -0.86703,-1.44976 -1.25773,-2.66993 -0.004,-0.0138 0.0133,-0.0257 0.0199,-0.0386 1.16004,-0.47043 2.10145,2.62497 0.83454,2.76795 -1.05184,0.16993 -2.12914,0.10023 -3.18762,0.22566 -1.4575,0.0634 -1.7821,0.007 -3.06976,0.0322 -1.66198,0.0119 -3.32387,0.0175 -4.98584,0.0277 -1.53903,-0.004 -2.09069,0.0112 -3.48922,0.0784 -1.72722,0.0786 -3.45192,0.19904 -5.17928,0.27279 -1.82463,0.0332 -3.64833,0.11484 -5.46387,0.3083 -2.37054,0.21638 -4.74495,0.40361 -7.12815,0.33697 -2.48315,0.005 -4.95475,0.16459 -7.43221,0.32133 -3.20623,0.0304 -6.39608,-0.0601 -9.56959,-0.57046 -2.36304,-0.256 -4.73123,-0.48136 -7.10722,-0.572 -2.5849,-0.13039 -5.17007,-0.16826 -7.75836,-0.1363 -2.951884,0.0165 -5.908124,-0.005 -8.856863,0.11973 -4.098562,0.14681 -8.192997,0.37052 -12.283394,0.66998 -3.735314,0.18981 -7.469926,0.15874 -11.208422,0.18024 -3.96942,0.0478 -7.934346,0.22866 -11.900419,0.39104 -4.042531,0.1226 -8.086024,0.19162 -12.125309,-0.0712 -3.33484,-0.16928 -6.665023,-0.42243 -10.00221,-0.54776 -2.058794,-0.24782 -4.025117,-0.82658 -6.011267,-1.40604 -1.085025,-0.24056 -2.156788,-0.39075 -3.258485,-0.53437 -0.435096,-0.0567 -1.807497,-0.23332 -2.25753,-0.34173 -0.284045,-0.0684 -0.55408,-0.1856 -0.83112,-0.2784 -1.420662,-0.36476 -0.904808,-2.37389 0.515854,-2.00912 z"
       inkscape:connector-curvature="0" />
    <path
       style="fill:#424242;fill-opacity:1;stroke:none;stroke-width:0.26458332;stroke-opacity:1"
       id="path846"
       d="m 164.0844,239.44018 c -0.83074,-2.24694 -0.40699,-4.64355 0.0255,-6.92725 0.37879,-1.30705 0.2994,-2.61611 0.1615,-3.94567 -0.21486,-1.4898 -0.24051,-2.99715 -0.16369,-4.49784 0.11349,-1.51117 0.71563,-2.86212 1.54226,-4.10766 0.31184,-0.49427 0.68837,-0.94188 1.03853,-1.40823 0.30895,-0.76848 2.27723,-0.90422 2.3293,-0.56543 1.78404,0.81269 0.63472,3.3357 -1.14932,2.52301 v 0 c -1.52742,-0.18721 1.13128,0.0441 1.42821,-0.73238 -0.0232,0.53269 -0.34704,1.12122 -0.58271,1.62172 -0.43307,0.89389 -0.96066,1.75126 -0.9792,2.77787 -0.0252,1.40138 -0.001,2.80332 -0.0215,4.20474 0.0378,1.50627 0.11256,3.01246 0.0623,4.51947 -0.14627,2.23856 -0.32587,4.54017 -1.2878,6.59995 -0.044,1.69948 -2.44747,1.63717 -2.40342,-0.0623 z"
       inkscape:connector-curvature="0" />
    <path
       style="fill:#424242;fill-opacity:1;stroke:none;stroke-width:0.26458332;stroke-opacity:1"
       id="path848"
       d="m 165.3292,237.02846 c 1.62266,-2.05651 4.01937,-3.30387 6.26312,-4.5685 1.48704,-0.83235 3.03966,-1.56168 4.38734,-2.61524 0.80572,-0.65616 1.33005,-1.53572 1.8,-2.4443 0.52653,-1.10517 0.68564,-2.32921 0.99081,-3.5036 0.3546,-1.27159 0.90742,-2.25047 1.9362,-3.07303 0.20838,-0.10654 0.39521,-0.27591 0.62512,-0.31962 0.40726,-0.0774 0.82887,-0.0506 1.24315,-0.0356 0.0839,0.003 0.1568,0.0598 0.23541,0.0891 0.0446,0.0166 -0.0873,-0.0631 -0.13343,-0.0511 -1.59469,0.41634 -1.29013,0.0538 -1.72743,0.72203 0.0905,-0.17461 0.48692,0.0105 0.58975,0.0346 -0.12324,-1.38218 1.83145,-1.55646 1.95469,-0.17428 v 0 c 0.64507,0.35831 0.60743,0.55944 0.38264,1.22395 -0.0862,0.1579 -0.10255,0.38429 -0.25867,0.47371 -2.79928,1.60337 -0.96057,0.62272 -2.03738,0.61325 -0.0203,-1.7e-4 0.0132,0.051 0.0335,0.0509 0.33451,-8e-4 0.67648,0.0235 1.00212,-0.053 0.13983,-0.0328 0.22771,-0.17513 0.34156,-0.26269 0.0336,-0.036 0.0546,-0.0913 0.10094,-0.10813 0.0374,-0.0136 -0.0148,0.0546 -0.10626,0.29387 -0.1818,0.47569 -0.32082,0.96552 -0.47934,1.44911 -0.42157,1.37559 -0.86956,2.75616 -1.56643,4.02099 -0.65028,1.15266 -1.43639,2.22059 -2.31065,3.21442 -1.28386,1.37406 -2.69293,2.61117 -4.27616,3.63618 -2.24184,1.45327 -4.59032,2.86088 -7.23458,3.42221 -1.43917,1.24172 -3.19524,-0.79358 -1.75606,-2.0353 z"
       inkscape:connector-curvature="0" />
    <path
       style="fill:#424242;fill-opacity:1;stroke:none;stroke-width:0.26458332;stroke-opacity:1"
       id="path850"
       d="m 167.83392,217.05517 c 2.88397,-1.00553 5.99104,-0.72154 8.96619,-0.35821 1.63118,0.21878 3.25589,0.56062 4.90466,0.52575 1.0585,-0.0116 2.14497,-0.0981 3.19807,0.0601 0.32879,0.0494 0.58129,0.24796 0.85029,0.41828 0.61928,0.77925 0.6007,0.88681 -0.17361,1.42314 -0.0899,0.36138 -0.60101,0.2342 -0.51108,-0.12719 v 0 c -0.45587,-0.0342 -0.58024,-0.061 -0.38501,0.44189 -0.12181,0.0723 -0.29605,0.0387 -0.40469,0.12963 -0.0412,0.0344 0.20268,0.0443 0.15056,0.0572 -0.64649,0.15942 -1.36248,0.0375 -2.01634,0.12275 -2.21134,0.0688 -4.42115,0.17885 -6.63287,0.22336 -2.38599,0.001 -5.18754,0.0806 -7.4842,-0.61791 -0.33517,-0.10193 -0.64591,-0.27152 -0.96886,-0.40729 -1.33751,-0.35842 -0.83062,-2.24994 0.50689,-1.89152 z"
       inkscape:connector-curvature="0" />
    <path
       style="fill:#424242;fill-opacity:1;stroke:none;stroke-width:0.99999994;stroke-opacity:1"
       d="m 692.74023,140.32422 c -4.75628,0.8285 -9.55145,1.83572 -14.31054,0.76953 -0.0995,-0.0223 -0.19425,-0.0509 -0.29297,-0.0742 0.26485,3.04109 0.75947,6.04273 1.6875,8.96875 1.55338,4.75563 3.24166,9.45948 4.84766,14.19531 0.98362,3.38914 1.88989,6.83855 1.68164,10.40235 -0.42558,6.04537 -1.03822,12.11312 -0.3418,18.16797 0.64702,5.6659 1.68516,11.25761 2.58594,16.88476 0.47119,3.80101 0.77276,7.62204 1.3164,11.41406 0.27288,3.43708 0.002,6.87194 0.35547,10.30469 0.40479,2.88634 1.19108,5.70837 1.46094,8.60547 -0.12813,3.80217 -0.49909,7.59969 -0.34375,11.41016 0.0926,4.06306 0.1971,8.12523 0.32031,12.1875 0.0151,4.3052 -0.40865,8.58664 -0.92773,12.85742 -0.51239,5.46319 -1.19356,10.90875 -1.61524,16.38086 -0.4032,5.35233 -0.4999,10.71418 -0.64844,16.07812 -0.23357,5.9669 -0.3894,11.93827 -0.27148,17.91016 0.0786,6.48806 0.36184,12.98047 0.0859,19.4668 -0.18569,7.37297 -0.26197,14.76493 0.70703,22.0957 0.72771,6.25639 1.63425,12.52789 1.5957,18.83789 -0.0435,6.70503 -0.17992,13.41001 -0.0703,20.11523 0.16157,6.3707 0.37994,12.73943 0.49219,19.11133 -0.0279,6.43045 -0.32948,12.84634 -0.83008,19.25782 -0.4515,8.2481 -0.61016,16.51602 0.19141,24.75195 0.64531,6.95561 1.68367,13.87227 2.10546,20.84765 0.2665,6.98491 0.14441,13.98215 -0.19726,20.9629 -0.48854,8.83551 -1.2325,17.66385 -1.32813,26.51562 0.12511,8.16563 0.51692,16.32948 0.33399,24.49609 -0.34904,8.76945 -1.21334,17.53105 -0.88867,26.31641 0.46257,7.98762 1.28302,15.93132 3.01367,23.75781 1.08642,6.47675 1.02364,13.02487 0.75,19.57422 -0.45691,8.05818 -1.44296,16.063 -2.14063,24.10156 -0.63813,6.83456 -1.50249,13.64044 -2.41211,20.44336 -0.84381,5.98277 -1.54433,11.98317 -1.42187,18.03907 -0.19688,5.583 -0.38084,11.16972 -0.95117,16.73046 -0.87939,6.68565 -1.91348,13.35358 -2.50196,20.07422 -0.66633,7.65778 -1.19413,15.33039 -1.28711,23.01953 0.12129,8.63199 0.95381,17.2032 2.29883,25.73243 0.956,8.40189 1.46049,16.79256 0.94727,25.2539 -0.002,9.11879 -0.18835,18.67739 3.38281,27.23242 h 0.002 c 0,5.94535 8.40821,5.94535 8.40821,0 3.57123,-8.55503 3.3858,-18.11363 3.38281,-27.23242 -0.0282,-8.89047 -0.3337,-17.76103 -1.24805,-26.60547 -0.89779,-8.24299 -1.99534,-16.44812 -2.36914,-24.73632 -0.12756,-7.27276 0.0255,-14.55945 0.43164,-21.82227 0.51617,-6.59909 1.36613,-13.16127 1.86914,-19.76172 0.53654,-5.86968 0.50852,-11.76497 0.55274,-17.65234 -0.19026,-5.56679 0.8517,-11.03097 1.83789,-16.47852 1.36611,-6.84068 2.4391,-13.73305 3.63672,-20.60351 1.58921,-8.36897 2.50607,-16.79517 2.61718,-25.3086 0.0164,-7.28318 -0.8587,-14.51208 -1.78125,-21.7207 -1.18582,-7.34347 -1.13729,-14.78023 -0.83984,-22.1875 0.44825,-8.64087 0.3467,-17.29174 0.30664,-25.93945 -0.0719,-8.18022 0.0699,-16.35916 0.42969,-24.53125 0.48181,-8.78593 1.02463,-17.55904 1.00195,-26.36133 -0.15938,-7.26225 -0.5783,-14.51639 -0.83984,-21.77539 -0.37591,-7.1311 -1.09659,-14.23302 -1.49805,-21.36328 -0.18935,-7.80446 0.15952,-15.60967 0.14063,-23.41602 -0.0819,-6.57203 -0.34472,-13.13974 -0.47852,-19.71094 -0.0503,-6.33834 0.1215,-12.67429 0.28516,-19.00976 0.13228,-6.70118 0.038,-13.402 0.008,-20.10352 -0.21608,-6.63976 -0.5572,-13.2745 -0.83008,-19.91211 -0.23773,-6.919 -0.23442,-13.84217 -0.14258,-20.76367 0.17095,-6.68239 -0.0134,-13.36427 -0.22656,-20.04297 -0.15179,-5.83225 -0.24637,-11.66537 -0.38281,-17.49804 -0.21918,-4.997 0.0531,-9.99019 0.61133,-14.95508 0.65238,-5.5001 1.31847,-10.98938 1.71093,-16.51563 0.3724,-4.74881 0.15464,-9.50321 -0.0449,-14.25195 -0.20182,-3.96484 -0.2428,-7.93403 -0.15625,-11.90234 0.12337,-3.93981 0.0258,-7.8757 -0.29883,-11.80274 -0.45244,-3.28513 -1.04848,-6.54084 -1.46679,-9.83203 -0.40608,-2.92208 -0.14136,-5.8624 0.0117,-8.79102 0.11705,-4.20635 -0.26348,-8.40437 -0.58399,-12.59375 -0.75919,-5.48367 -0.59149,-11.01578 -0.66406,-16.5332 -0.0593,-5.96351 -0.54404,-11.90954 -1.38672,-17.81055 -0.77798,-4.13765 -1.2686,-8.31742 -1.82227,-12.48828 -0.64425,-5.72314 -2.68503,-11.0618 -4.88671,-16.32812 -0.19301,-1.40256 -1.91134,-3.26686 -2.67579,-4.85547 z"
       transform="scale(0.26458333)"
       id="path856"
       inkscape:connector-curvature="0" />
    <path
       style="fill:#424242;fill-opacity:1;stroke:none;stroke-width:0.99999994;stroke-opacity:1"
       d="m 251.6875,86.386719 c -12.68237,0.04375 -25.35839,0.439058 -38.00586,1.644531 -6.19522,0.462089 -12.38796,0.955001 -18.58398,1.40625 -2.96673,0.216064 -5.94359,0.304997 -8.90235,0.611328 -1.22255,0.126577 -2.40188,0.546271 -3.62304,0.685547 -3.53144,0.402731 -11.58018,0.866942 -15.27539,1.099609 -2.00781,0.127824 -10.30266,0.678086 -12.51563,0.736328 -8.03482,0.211552 -16.10776,-0.522445 -24.12109,0.425782 -9.89132,1.113955 -20.37289,2.641097 -28.66602,8.541016 -4.618956,2.6086 -0.9295,9.14181 3.68945,6.5332 9.8168,0.0267 19.31686,-2.7752 29.01953,-3.92773 9.4028,-0.3735 18.69379,1.77511 27.93165,3.26953 19.03892,2.81735 38.35293,2.55659 57.53711,1.97851 12.51281,-0.40602 25.01235,-1.08642 37.52343,-1.55078 10.66365,-0.39582 5.3627,-0.0539 11.46485,-0.49023 15.01146,-0.2831 29.99807,0.78271 44.96093,1.83984 19.13944,1.55319 38.36012,1.15061 57.54102,0.98243 13.17979,-0.17912 26.35793,-0.52423 39.53711,-0.82618 12.3617,-6e-5 24.66916,-1.22263 36.99023,-2.06054 7.17835,-0.50117 11.77218,-0.41602 19.48438,-0.15039 9.82087,0.37775 19.64874,0.43249 29.46289,-0.11915 1.14357,-0.0719 2.28788,-0.14789 3.43164,-0.21679 4.02013,-0.24212 8.08209,-0.51672 12.11133,-0.3418 0.35353,0.0153 -0.70716,0.0353 -1.06055,0.0527 6.2228,0.26056 12.4479,0.0758 18.67188,0.008 4.94366,-0.027 9.88559,0.11888 14.82812,0.19726 5.18166,0.0785 10.35553,-0.14537 15.52539,-0.45703 0.89911,-0.20628 6.06326,-0.0325 0.81055,-0.15625 -0.48805,-0.0113 0.97679,0.004 1.46484,0.0156 0.90475,0.0212 2.27982,0.0883 3.17383,0.1289 5.01562,0.25796 10.05589,0.031 14.99414,-0.86718 2.41228,-0.57549 4.81783,-1.00611 7.29883,-0.92383 -0.82685,-0.0148 -1.65581,0.0169 -2.48047,-0.0449 -1.82177,-0.13644 1.8528,-0.15648 2.54687,-0.2461 1.78859,-0.231 3.59512,-0.30685 5.39258,-0.45312 0.18312,-0.0906 0.34559,-0.18804 0.51172,-0.28321 0.0514,0.001 0.10287,8.2e-4 0.1543,0.002 -0.0551,-0.0284 -0.11091,-0.0556 -0.16602,-0.084 -0.0184,-0.009 -0.0363,-0.0198 -0.0547,-0.0293 -0.72197,0.0243 -1.25554,-0.0791 -1.09375,-0.59375 -1.13215,-0.61912 -2.25458,-1.25628 -3.40039,-1.84961 -0.74227,-0.38436 -2.63945,-0.30711 -2.27344,-1.058597 1.71549,-3.522454 3.30782,-6.578457 4.82422,-9.376953 -0.57613,0.01013 -1.15238,0.01424 -1.72852,0.02148 -0.12965,0.143111 -0.25598,0.289659 -0.38476,0.433594 -2.21252,-0.0724 -5.17066,-0.113015 -5.40235,-0.210937 -3.02389,0.06935 -6.01389,0.469006 -9.02148,0.759765 -1.60007,0.119842 -3.20106,0.266125 -4.80078,0.378906 -0.51871,0.03655 -2.07322,-0.01199 -1.5586,0.0625 0.71331,0.103106 1.45303,-0.105671 2.16211,0.02344 0.57162,0.104088 -1.16146,0.03535 -1.74219,0.05273 -4.38455,0.122533 -8.77429,0.08257 -13.1582,-0.05273 -1.39812,-0.02759 -6.49838,0.24027 -7.45898,-0.03711 -0.0363,-0.01048 -0.022,-0.01306 -0.0332,-0.01953 -0.003,-3e-6 -0.007,1.6e-5 -0.01,0 -4.83462,-0.125869 -9.60459,-0.851916 -14.41797,-1.269531 -6.3323,-0.403086 -12.68222,-0.372775 -19.02344,-0.199219 -7.69383,0.05216 -15.3899,0.173911 -23.07031,-0.414062 -7.05974,-0.333619 -12.92289,-0.459308 -20.35352,-0.238281 -9.72911,0.07963 -19.45607,-0.181863 -29.18359,-0.291016 -8.58671,-0.09366 -17.22883,0.217037 -25.80469,-0.277344 -0.26827,-0.01546 -0.51844,-0.146334 -0.77734,-0.21875 -16.95969,-0.665352 -33.91099,-1.52656 -50.89258,-1.380859 -15.2744,0.123859 -30.4896,0.799873 -45.74023,1.523437 -15.19642,-0.02525 -30.25763,-1.810563 -45.42774,-2.496093 -7.61054,-0.126216 -15.22261,-0.22742 -22.83203,-0.201172 z"
       transform="scale(0.26458333)"
       id="path891"
       inkscape:connector-curvature="0" />
    <path
       style="fill:#424242;fill-opacity:1;stroke:none;stroke-width:0.99999994;stroke-opacity:1"
       d="m 549.2207,91.849609 c 0.06,6e-5 0.12279,-0.0139 0.1836,-0.01758 -0.15938,-0.0093 -0.22058,-0.0037 -0.1836,0.01758 z"
       transform="scale(0.26458333)"
       id="path889"
       inkscape:connector-curvature="0" />
    <path
       style="fill:#424242;fill-opacity:1;stroke:none;stroke-width:0.99999994;stroke-opacity:1"
       d="m 549.4043,91.832031 c 0.59436,0.03457 2.14936,0.211579 1.72461,0.02734 -0.52832,-0.22916 -1.14075,-0.06263 -1.72461,-0.02734 z"
       transform="scale(0.26458333)"
       id="path887"
       inkscape:connector-curvature="0" />
    <path
       style="fill:#424242;fill-opacity:1;stroke:none;stroke-width:0.99999994;stroke-opacity:1"
       d="m 589.80078,91.384766 c -1.39911,1.579782 -2.77337,3.18269 -4.25976,4.679687 -0.24155,0.243303 0.0354,-0.706534 0.19531,-1.009765 0.83527,-1.583252 1.50918,-2.702635 3.03906,-3.595704 0.46997,-0.02888 0.65095,-0.04816 1.02539,-0.07422 z"
       transform="scale(0.26458333)"
       id="path885"
       inkscape:connector-curvature="0" />
    <path
       style="fill:#424242;fill-opacity:1;stroke:none;stroke-width:0.99999994;stroke-opacity:1"
       d="m 591.79102,103.36523 c 0.13608,0.001 0.27212,0.009 0.4082,0.0117 -0.287,0.006 -0.57429,0.0138 -0.86133,0.0176 -0.15099,0.002 0.30232,-0.0313 0.45313,-0.0293 z"
       transform="scale(0.26458333)"
       id="path864"
       inkscape:connector-curvature="0" />
    <path
       style="fill:#424242;fill-opacity:1;stroke:none;stroke-width:0.26458332;stroke-opacity:1"
       id="path909"
       d="m 182.50024,40.851624 c -2.26039,0.409382 -4.54744,0.02807 -6.78995,-0.308883 -1.1881,-0.196638 -2.38493,-0.323791 -3.58631,-0.393377 -0.33009,-0.09551 -1.34814,-0.01479 0.17518,-0.07505 0.079,-0.0031 -0.1581,-0.0042 -0.23713,-0.0024 -0.23755,0.0054 -0.36206,0.02265 -0.60608,0.0464 -0.90551,0.100499 -1.797,0.302276 -2.69643,0.44735 -1.12388,0.194341 -2.24875,0.0681 -3.37734,0.01709 -0.29644,-0.213172 -0.28021,-0.251455 0.66138,-0.0026 0.0759,0.02005 -0.15231,0.03919 -0.22978,0.05206 -0.24183,0.04017 -0.3245,0.03298 -0.57256,0.03871 -0.41382,-0.0016 -0.82766,-0.0031 -1.24149,-0.0046 -0.0954,-0.0013 -0.38142,-0.0021 -0.28607,-0.004 0.23453,-0.0046 0.46928,0.0038 0.70372,-0.0042 0.13835,-0.0047 -0.27941,-0.019 -0.41035,-0.06395 -0.0995,-0.105606 0.10234,-0.238053 0.0709,-0.332118 -0.006,-0.01918 -0.0347,0.0208 -0.052,0.0312 0.005,-0.03439 0.0102,-0.06878 0.0153,-0.103169 0.4888,-1.774558 -0.80459,-0.403027 -3.38389,-0.81025 -0.004,-5.29e-4 -0.21087,-1.288571 -0.23042,-1.402908 -0.15887,-1.008203 -0.6766,-1.895305 -1.23162,-2.733765 -0.38616,-0.569748 -0.74769,-1.152564 -1.05763,-1.767284 -0.20356,-0.511194 -0.54163,-0.898874 -0.92931,-1.280419 -0.52238,-0.389356 -0.97299,-0.867183 -1.48834,-1.263415 -0.56563,-0.313708 -1.05253,-0.72096 -1.52009,-1.164836 -0.51201,-0.514789 -1.05551,-1.032642 -1.41584,-1.671172 0.001,-0.02222 -0.0173,-0.07482 0.003,-0.06665 0.0817,0.03226 0.14315,0.101839 0.21473,0.152758 1.12744,-0.610889 2.18431,-1.375445 3.38234,-1.832663 0.17095,-0.06524 0.0424,0.375899 -0.0179,0.548663 -0.17186,0.492419 -0.21154,1.161839 -0.66744,1.41514 -0.68967,0.383186 -1.5682,0.175096 -2.35229,0.262642 -0.46783,-0.716974 -0.39913,-0.338987 -0.27616,-1.11896 -1.01022,-1.152005 0.61896,-2.58067 1.62918,-1.428667 v 0 c 0.52914,-0.324269 0.45663,-0.09757 0.37711,-0.606337 -0.70452,0.111997 -1.50765,-0.04053 -2.11356,0.335991 -0.40212,0.249879 -0.38147,0.867496 -0.54065,1.313367 -0.0326,0.09135 -0.11493,0.338754 -0.0315,0.289287 3.83091,-2.271125 2.14455,-2.884425 3.8062,-1.857043 0.55499,0.462356 1.03618,1.000595 1.40124,1.627348 0.2741,0.334502 0.80505,0.356811 1.12262,0.647811 0.96004,0.641569 1.78535,1.426281 2.28982,2.485501 0.15452,0.358875 0.19513,0.436131 0.31924,0.781357 0.0931,0.258945 0.0946,0.283014 0.16457,0.531572 0.005,0.01934 0.0291,0.07379 0.0168,0.05795 -0.0248,-0.03164 -0.0368,-0.07142 -0.0552,-0.10713 0.61811,0.265253 1.22366,1.288431 1.63407,1.768018 0.82634,1.411007 1.47611,2.909953 1.39271,4.583617 -0.006,0.06377 -0.13784,1.258848 -0.16448,1.264116 -2.94278,0.581927 -3.7956,1.402633 -3.32811,-0.382407 0.2244,-0.623618 0.67324,-1.101014 1.24751,-1.43106 0.8656,-0.365004 1.44404,-0.340408 2.42903,-0.353275 0.095,-0.0013 0.3801,-0.0011 0.28508,-0.0027 -0.2204,-0.0038 -0.44085,-0.0026 -0.66128,-0.0038 0.60485,0.01413 1.62959,0.336061 2.02703,0.08489 -0.27562,-0.01632 -0.55411,-0.006 -0.82685,-0.04896 -0.0671,-0.01056 0.13098,-0.0362 0.19744,-0.05013 0.35727,-0.07489 0.71972,-0.117247 1.08064,-0.168793 0.15781,-0.02254 0.3152,-0.04796 0.47279,-0.07193 1.04598,-0.140986 2.08766,-0.337545 3.1479,-0.326081 0.97432,0.03347 1.95196,-0.05515 2.92704,-0.06042 1.23923,0.07968 2.47955,0.14914 3.72268,0.07949 2.3461,0.0024 4.81581,0.06825 6.8211,1.444374 2.12032,0.96208 0.75974,3.960667 -1.36058,2.998589 z"
       inkscape:connector-curvature="0" />
    <path
       style="fill:#424242;fill-opacity:1;stroke:none;stroke-width:0.26458332;stroke-opacity:1"
       id="path911"
       d="m 156.93659,25.977695 c 2.79147,-0.546615 5.63265,0.03086 8.40013,0.461569 1.88889,0.333846 3.79626,0.66103 5.58973,1.360708 1.06461,0.452522 1.94895,1.204237 2.90335,1.838192 0.98726,0.624554 2.04111,1.138473 3.07877,1.673466 0.8281,0.453453 1.59372,0.998694 2.30454,1.617702 0.81982,0.640257 1.63739,1.279131 2.38978,1.998618 0.82729,0.843258 1.30811,1.884322 1.53487,3.02987 0.0509,0.654312 0.11907,1.297652 0.28282,1.933689 0.0973,0.318212 -0.4007,-0.52233 -0.7015,-0.474062 -3.02095,0.484738 -2.14035,0.639218 -1.24349,0.941081 0.3455,-1.110575 1.91609,-0.621969 1.57059,0.488606 v 0 c 0.87798,0.819314 1.20567,0.837639 -1.49246,1.487948 -0.4941,0.119091 -1.33702,-1.099079 -1.51695,-1.49124 -0.29797,-0.804164 -0.4533,-1.658604 -0.27687,-2.512094 0.13774,-0.488916 -0.72347,-0.869378 -0.94333,-1.187259 -0.68481,-0.67631 -1.32994,-1.386888 -1.95263,-2.120543 -0.57993,-0.470853 -1.31597,-0.637429 -1.99521,-0.921869 -1.2496,-0.575432 -2.43829,-1.264994 -3.45158,-2.208028 -0.53831,-0.520708 -1.06098,-1.142243 -1.85545,-1.191918 -1.93934,-0.06778 -3.88859,-0.0071 -5.81193,-0.32416 -2.63385,-0.422622 -5.41831,-0.768908 -7.7263,-2.199836 -1.55594,-0.64567 -0.64283,-2.846109 0.91312,-2.20044 z"
       inkscape:connector-curvature="0" />
  </g>
  <g
     inkscape:groupmode="layer"
     id="layer2"
     inkscape:label="lines 3">
    <text
       xml:space="preserve"
       style="font-style:normal;font-weight:normal;font-size:10.58333302px;line-height:1.25;font-family:sans-serif;letter-spacing:0px;word-spacing:0px;fill:#000000;fill-opacity:1;stroke:none;stroke-width:0.26458332"
       x="34.781521"
       y="55.626801"
       id="text923"><tspan
         sodipodi:role="line"
         id="tspan921"
         x="34.781521"
         y="65.282295"
         style="stroke-width:0.26458332" /></text>
    <text
       xml:space="preserve"
       style="font-style:normal;font-weight:normal;font-size:10.58333302px;line-height:1.25;font-family:sans-serif;letter-spacing:0px;word-spacing:0px;fill:#000000;fill-opacity:1;stroke:none;stroke-width:0.26458332"
       x="34.028809"
       y="51.258472"
       id="text927"><tspan
         sodipodi:role="line"
         id="tspan925"
         x="34.028809"
         y="51.258472"
         style="font-style:normal;font-variant:normal;font-weight:normal;font-stretch:normal;font-family:Century;-inkscape-font-specification:Century;fill:#8b8b8b;fill-opacity:1;stroke-width:0.26458332">Lorem ipsum dolor sit </tspan><tspan
         sodipodi:role="line"
         x="34.028809"
         y="64.533302"
         style="font-style:normal;font-variant:normal;font-weight:normal;font-stretch:normal;font-family:Century;-inkscape-font-specification:Century;fill:#8b8b8b;fill-opacity:1;stroke-width:0.26458332"
         id="tspan929">amet, consectetur </tspan><tspan
         sodipodi:role="line"
         x="34.028809"
         y="77.808128"
         style="font-style:normal;font-variant:normal;font-weight:normal;font-stretch:normal;font-family:Century;-inkscape-font-specification:Century;fill:#8b8b8b;fill-opacity:1;stroke-width:0.26458332"
         id="tspan931">adipiscing elit, sed do </tspan><tspan
         sodipodi:role="line"
         x="34.028809"
         y="91.082962"
         style="font-style:normal;font-variant:normal;font-weight:normal;font-stretch:normal;font-family:Century;-inkscape-font-specification:Century;fill:#8b8b8b;fill-opacity:1;stroke-width:0.26458332"
         id="tspan933">eiusmod tempor incididunt </tspan><tspan
         sodipodi:role="line"
         x="34.028809"
         y="104.35779"
         style="font-style:normal;font-variant:normal;font-weight:normal;font-stretch:normal;font-family:Century;-inkscape-font-specification:Century;fill:#8b8b8b;fill-opacity:1;stroke-width:0.26458332"
         id="tspan935">ut labore et dolore magna </tspan><tspan
         sodipodi:role="line"
         x="34.028809"
         y="117.63261"
         style="font-style:normal;font-variant:normal;font-weight:normal;font-stretch:normal;font-family:Century;-inkscape-font-specification:Century;fill:#8b8b8b;fill-opacity:1;stroke-width:0.26458332"
         id="tspan937">aliqua. Ut enim ad minim </tspan><tspan
         sodipodi:role="line"
         x="34.028809"
         y="130.90744"
         style="font-style:normal;font-variant:normal;font-weight:normal;font-stretch:normal;font-family:Century;-inkscape-font-specification:Century;fill:#8b8b8b;fill-opacity:1;stroke-width:0.26458332"
         id="tspan939">veniam, quis nostrud </tspan><tspan
         sodipodi:role="line"
         x="34.028809"
         y="144.18228"
         style="font-style:normal;font-variant:normal;font-weight:normal;font-stretch:normal;font-family:Century;-inkscape-font-specification:Century;fill:#8b8b8b;fill-opacity:1;stroke-width:0.26458332"
         id="tspan941">exercitation ullamco </tspan><tspan
         sodipodi:role="line"
         x="34.028809"
         y="157.45711"
         style="font-style:normal;font-variant:normal;font-weight:normal;font-stretch:normal;font-family:Century;-inkscape-font-specification:Century;fill:#8b8b8b;fill-opacity:1;stroke-width:0.26458332"
         id="tspan943">laboris nisi ut aliquip ex ea </tspan><tspan
         sodipodi:role="line"
         x="34.028809"
         y="170.73193"
         style="font-style:normal;font-variant:normal;font-weight:normal;font-stretch:normal;font-family:Century;-inkscape-font-specification:Century;fill:#8b8b8b;fill-opacity:1;stroke-width:0.26458332"
         id="tspan945">commodo consequat. Duis </tspan><tspan
         sodipodi:role="line"
         x="34.028809"
         y="184.00676"
         style="font-style:normal;font-variant:normal;font-weight:normal;font-stretch:normal;font-family:Century;-inkscape-font-specification:Century;fill:#8b8b8b;fill-opacity:1;stroke-width:0.26458332"
         id="tspan947">aute irure dolor in </tspan><tspan
         sodipodi:role="line"
         x="34.028809"
         y="197.28159"
         style="font-style:normal;font-variant:normal;font-weight:normal;font-stretch:normal;font-family:Century;-inkscape-font-specification:Century;fill:#8b8b8b;fill-opacity:1;stroke-width:0.26458332"
         id="tspan949">reprehenderit in voluptate </tspan><tspan
         sodipodi:role="line"
         x="34.028809"
         y="210.55643"
         style="font-style:normal;font-variant:normal;font-weight:normal;font-stretch:normal;font-family:Century;-inkscape-font-specification:Century;fill:#8b8b8b;fill-opacity:1;stroke-width:0.26458332"
         id="tspan951">velit esse cillum dolore eu </tspan><tspan
         sodipodi:role="line"
         x="34.028809"
         y="223.83125"
         style="font-style:normal;font-variant:normal;font-weight:normal;font-stretch:normal;font-family:Century;-inkscape-font-specification:Century;fill:#8b8b8b;fill-opacity:1;stroke-width:0.26458332"
         id="tspan953">fugiat nulla pariatur.</tspan></text>
  </g>
</svg>
