<?xml version="1.0" encoding="UTF-8" standalone="no"?>
<!-- Created with Inkscape (http://www.inkscape.org/) -->

<svg
   xmlns:dc="http://purl.org/dc/elements/1.1/"
   xmlns:cc="http://creativecommons.org/ns#"
   xmlns:rdf="http://www.w3.org/1999/02/22-rdf-syntax-ns#"
   xmlns:svg="http://www.w3.org/2000/svg"
   xmlns="http://www.w3.org/2000/svg"
   xmlns:sodipodi="http://sodipodi.sourceforge.net/DTD/sodipodi-0.dtd"
   xmlns:inkscape="http://www.inkscape.org/namespaces/inkscape"
   width="1024"
   height="1024"
   viewBox="0 0 270.93333 270.93333"
   version="1.1"
   id="svg8"
   inkscape:version="0.92.4 (5da689c313, 2019-01-14)"
   sodipodi:docname="radioactive.svg"
   inkscape:export-filename="C:\Users\panu-\PycharmProjects\nextgame\data\images\decals\radioactive.png"
   inkscape:export-xdpi="10.173375"
   inkscape:export-ydpi="10.173375">
  <defs
     id="defs2" />
  <sodipodi:namedview
     id="base"
     pagecolor="#ffffff"
     bordercolor="#666666"
     borderopacity="1.0"
     inkscape:pageopacity="0.0"
     inkscape:pageshadow="2"
     inkscape:zoom="0.34988737"
     inkscape:cx="390.45631"
     inkscape:cy="134.98579"
     inkscape:document-units="mm"
     inkscape:current-layer="layer2"
     showgrid="false"
     units="px"
     width="1024px"
     inkscape:window-width="1920"
     inkscape:window-height="1017"
     inkscape:window-x="-8"
     inkscape:window-y="-8"
     inkscape:window-maximized="1"
     inkscape:pagecheckerboard="true" />
  <metadata
     id="metadata5">
    <rdf:RDF>
      <cc:Work
         rdf:about="">
        <dc:format>image/svg+xml</dc:format>
        <dc:type
           rdf:resource="http://purl.org/dc/dcmitype/StillImage" />
        <dc:title />
      </cc:Work>
    </rdf:RDF>
  </metadata>
  <g
     inkscape:groupmode="layer"
     id="layer4"
     inkscape:label="lines 4"
     style="display:inline"
     sodipodi:insensitive="true">
    <path
       style="fill:#d5d52a;fill-opacity:1;stroke:none;stroke-width:1.42903125;stroke-opacity:1"
       d="m 476.46049,236.00585 c -9.10059,0.88944 -19.73598,0.0743 -27.4307,5.29188 -3.19993,7.36801 -8.29348,13.07194 -13.27436,19.02398 -7.39042,14.11209 -11.7824,29.88989 -21.36011,42.7565 -16.43699,24.33076 -31.728,49.54074 -45.41095,75.31981 -23.6476,39.00109 -43.59603,80.01015 -65.19663,120.11417 -7.9183,14.13147 -18.28143,27.12149 -23.70462,42.69231 -7.54879,12.78462 -13.26929,26.73393 -23.6256,37.65215 -9.04716,13.96309 -20.04013,27.43075 -25.07031,43.45934 0.0993,10.5994 -4.7572,22.54438 2.42823,32.18669 6.91936,10.82181 18.04712,19.88282 30.23824,23.31561 9.11997,0.79447 19.52325,-2.19529 28.07015,1.00025 10.41886,3.94 22.31312,0.31328 33.2349,0.96889 37.73842,-1.87782 75.37252,-2.62608 113.09289,-1.03308 50.40436,-0.20242 100.97229,-0.0614 151.19262,-4.73925 25.01262,-3.51888 50.44835,-0.1139 75.6112,0.25985 9.96298,1.15689 19.96007,1.4872 29.45608,-2.30571 8.32195,-1.39805 18.10247,-1.86196 22.39002,-10.6033 5.30771,-7.27515 12.65323,-14.37264 9.90475,-24.26526 -1.01626,-15.01262 1.34553,-31.16709 -6.22052,-44.85575 -5.90524,-27.10474 -27.44729,-46.50232 -39.37373,-70.59192 -11.46203,-22.55916 -25.51272,-43.82863 -43.65243,-61.59348 -23.35767,-27.58979 -48.68971,-56.50389 -56.30719,-92.89541 -8.63112,-26.63911 -25.99509,-48.99079 -42.48539,-71.12592 -8.35796,-14.53771 -16.64215,-29.21973 -22.94024,-44.74004 -7.97379,-14.77468 -24.74373,-15.63029 -39.5663,-15.29231 z m -34.3749,18.41831 c 0.0581,-0.0418 0.25379,-0.0401 0,0 z m 3.95495,79.98947 c 13.29981,0.56495 25.76475,6.62136 39.29279,5.98686 14.18731,1.30519 29.92129,0.1245 43.26727,3.0339 -1.59743,4.91752 4.68118,7.38968 6.63996,9.5399 -4.99829,16.75503 -8.85585,33.80332 -13.31064,50.69154 -9.85407,27.39749 -20.5503,54.72655 -29.40839,82.6649 -5.51037,13.28152 -9.08404,28.17608 -17.51239,39.80475 -3.60966,2.65601 -6.62246,0.22452 -5.95338,-4.01636 -4.13044,-37.79724 -19.70799,-73.06753 -29.97721,-109.40749 -4.88389,-17.97888 -12.43725,-37.14453 -7.98143,-55.8717 5.31563,-4.46447 2.84404,-11.4649 -0.0195,-16.34175 4.2183,-4.25763 8.64306,-6.68879 14.96295,-6.08455 z m 20.4586,223.35312 c 7.2827,0.62701 13.16628,5.86248 20.68467,5.69101 12.6885,3.50532 24.13024,12.92931 25.94026,26.60175 3.61957,16.28037 -7.45214,33.35948 -21.16752,41.26328 -16.57291,4.0999 -37.2542,0.46192 -48.38053,-13.26041 -8.81083,-18.75428 2.85468,-38.24325 10.9494,-54.93955 2.1328,-4.54822 7.41125,-5.69042 11.97372,-5.35608 z"
       id="path943"
       inkscape:connector-curvature="0"
       transform="scale(0.26458333)" />
    <path
       style="fill:#d5d52a;fill-opacity:1;stroke:none;stroke-width:1.01047766;stroke-opacity:1"
       d="m 445.14836,330.34218 c -7.35881,-0.19489 -19.04312,3.82421 -17.17417,13.07108 1.04303,3.61809 3.18317,7.35248 0.10262,10.63963 -6.42525,16.33313 0.13881,34.03124 3.94809,50.18285 11.06472,40.66994 28.2367,79.76338 33.04882,121.94373 2.05367,7.43351 12.82268,5.69228 15.35255,-0.61378 12.39061,-21.82801 18.45086,-46.5836 27.3308,-69.86154 12.04991,-32.83215 23.94153,-65.95208 30.76377,-100.32107 1.34656,-6.14021 -5.53256,-8.67593 -6.79506,-13.85065 -6.05865,-5.6933 -15.60738,-3.31642 -23.17899,-4.60008 -18.2524,-0.64997 -36.56419,-1.61496 -54.38505,-5.88362 -2.98276,-0.43931 -5.99511,-0.74475 -9.01338,-0.70655 z"
       id="path828"
       inkscape:connector-curvature="0"
       transform="scale(0.26458333)" />
    <path
       style="fill:#d5d52a;fill-opacity:1;stroke:none;stroke-width:1.01047766;stroke-opacity:1"
       d="m 464.14218,553.49395 c -12.44558,0.13581 -16.45617,14.03283 -20.88432,23.24509 -6.0241,13.85339 -11.98244,31.90829 -1.54947,45.22859 12.45449,14.63376 34.07705,17.9541 51.88764,13.19542 17.83065,-9.31357 28.56247,-31.43723 22.68443,-51.06465 -4.77537,-14.50966 -19.0189,-23.11752 -33.28756,-26.1288 -6.17296,-1.83543 -12.31255,-4.42768 -18.85072,-4.47565 z"
       id="path830"
       inkscape:connector-curvature="0"
       transform="scale(0.26458333)" />
  </g>
  <g
     inkscape:groupmode="layer"
     id="layer1"
     inkscape:label="lines 2"
     style="display:inline"
     sodipodi:insensitive="true">
    <path
       style="fill:#424242;fill-opacity:1;stroke:none;stroke-width:0.26458332;stroke-opacity:1"
       id="path891"
       d="m 118.38255,64.58232 c -0.47414,2.249789 -1.76557,4.199882 -2.83899,6.199602 -0.76959,1.515965 -1.14389,3.181496 -1.7458,4.76413 -0.64775,1.622595 -1.63065,3.068521 -2.57122,4.529217 -1.07543,1.625256 -2.14203,3.256119 -3.22292,4.877787 -1.29323,1.931204 -2.60745,3.84819 -3.90821,5.774325 -1.13574,1.680461 -1.96315,3.542829 -2.86608,5.352928 -1.05117,2.162648 -2.286139,4.223841 -3.551298,6.265701 -1.450705,2.33977 -2.72706,4.78133 -4.027574,7.20612 -1.156827,2.24567 -2.509288,4.37896 -3.849714,6.51691 -1.002843,1.63696 -1.709471,3.4301 -2.484014,5.18082 -1.103236,2.36885 -2.373337,4.65383 -3.560273,6.98095 -1.098204,2.31047 -2.288022,4.57245 -3.653171,6.73637 -0.814684,1.341 -1.840616,2.53056 -2.786452,3.7761 -0.569206,0.53234 -0.689385,1.1721 -0.892212,1.88401 -0.276936,1.25328 -0.857657,2.39961 -1.498761,3.50046 -0.545023,0.85301 -1.148273,1.66479 -1.538168,2.60334 -0.535038,1.68807 -1.40615,3.21635 -2.457588,4.6302 -0.865174,0.92706 -1.743213,2.14248 -2.995478,2.58018 0.2217,-0.86586 0.160481,-1.00484 -0.121568,-1.88419 -0.01614,-0.0503 -0.107444,-0.17808 -0.0673,-0.14366 0.325519,0.2791 0.383913,0.56928 0.564957,0.97032 0.210386,0.99423 -0.140274,1.82143 -0.72875,2.59386 -0.298381,0.32167 -0.511138,0.70281 -0.714976,1.08833 -0.315214,0.61912 -0.680537,1.2063 -1.126998,1.73873 -0.04339,-0.10226 -0.210121,0.31489 -0.255796,0.21362 -0.02011,-0.0446 0.03665,-0.19229 0.02768,-0.14418 -0.01037,0.0556 -0.01979,0.11138 -0.02967,0.16707 -0.131945,0.64539 -0.443362,1.20111 -0.876837,1.68814 -0.571513,0.5864 2.44e-4,-0.20106 -0.442857,0.36858 -0.841843,0.91807 0.0552,0.0251 -0.01667,-0.0901 -0.07845,-0.12578 -0.242041,-0.17122 -0.363062,-0.25684 -0.385021,-0.0805 -0.770043,-0.16108 -1.155065,-0.24163 -0.06671,0.19477 -0.342154,0.10043 -0.275444,-0.0943 v 0 c -0.343699,-0.18027 -0.687396,-0.36053 -1.031095,-0.5408 -0.317658,-0.44079 -0.38709,-0.27754 -0.186925,-0.61609 0.02956,-0.05 0.637328,-0.89427 0.348573,-0.40472 -0.06643,0.11263 -0.164577,0.20324 -0.246865,0.30486 -0.230978,0.31951 0.179216,-0.39222 0.239189,-0.47262 0.0574,-0.0812 0.45915,-0.66935 0.47036,-0.37848 0.186124,-0.42835 0.166788,-0.94819 0.421598,-1.35747 0.304858,-0.5545 0.685557,-1.05707 1.044321,-1.57732 0.310322,-0.46423 0.636598,-0.91512 0.939908,-1.3836 0.495935,-0.63428 0.31132,-0.21532 0.473361,0.36554 0.072,0.13933 0.135718,0.28326 0.215995,0.41798 0.03157,0.053 0.159505,0.1881 0.117973,0.14251 -0.721164,-0.79163 -0.773695,-1.77949 -0.334973,-2.71694 0.517887,-1.06047 1.340715,-1.91025 2.055135,-2.8382 0.9261,-1.14099 1.910773,-2.25901 2.555515,-3.5925 0.481261,-1.01259 0.983718,-2.01292 1.569712,-2.97025 0.503526,-0.89761 1.046692,-1.77646 1.468647,-2.7165 0.343124,-0.95129 0.612364,-1.93146 1.09388,-2.82725 0.708136,-1.26072 1.354748,-2.55481 2.019728,-3.83857 1.080069,-2.25186 2.116217,-4.52461 3.241263,-6.75485 1.195435,-2.32275 2.495801,-4.5858 3.841974,-6.82434 0.950045,-1.68108 1.930728,-3.354 2.650355,-5.15094 0.967367,-2.34714 2.022375,-4.65576 3.253566,-6.87823 1.380733,-2.53248 2.834526,-5.02823 4.496932,-7.388578 1.283578,-1.872691 2.512639,-3.7769 3.557847,-5.795743 1.019849,-1.88586 2.009531,-3.788095 3.058551,-5.658058 1.241174,-2.080546 2.658044,-4.053626 4.146504,-5.963957 1.2047,-1.498622 2.45469,-2.963424 3.56395,-4.535983 0.8916,-1.223962 1.70592,-2.503387 2.40587,-3.847475 0.78495,-1.571501 1.28499,-3.177688 1.77392,-4.862888 1.0039,-2.431844 2.30777,-4.63382 4.63091,-6.020446 0.95393,-1.537684 3.12854,-0.188627 2.17461,1.349058 z"
       inkscape:connector-curvature="0" />
    <path
       style="fill:#424242;fill-opacity:1;stroke:none;stroke-width:0.26458332;stroke-opacity:1"
       id="path897"
       d="m 64.603079,159.33883 c -0.333153,1.75466 -1.431933,3.2004 -2.219931,4.76603 -0.360034,0.69736 -0.252047,1.4513 -0.202843,2.2028 0.07513,1.05761 0.01479,2.1083 -0.210897,3.14432 -0.01982,0.40412 -0.28835,0.7993 -0.25292,1.20677 0.0053,0.0248 0.04295,0.24296 0.08139,0.27212 0.02363,0.0179 0.06147,-0.0278 0.08779,-0.0142 0.267618,0.13854 0.49572,0.59052 0.654981,0.81596 0.571418,0.76289 0.918295,1.65045 1.375907,2.47616 0.198258,0.48461 0.497438,0.8256 0.892773,1.14647 0.385935,0.32736 0.83964,0.54397 1.265881,0.81069 0.485135,0.26851 0.963697,0.54118 1.442773,0.82153 0.574437,0.24952 1.098867,0.58537 1.630471,0.91139 0.210613,0.20912 0.339471,0.14208 0.570076,0.176 0.510448,0.0663 1.011349,0.19591 1.527638,0.20216 -0.772117,-0.0278 1.386758,-0.0171 0.675296,-0.0748 -1.842058,-0.14937 -0.883256,-0.0139 -0.423484,-0.0282 0.871995,-8e-4 1.74816,-0.04 2.609067,0.11656 1.412113,-0.13186 -1.826445,0.0925 -0.05878,-0.14579 1.098306,-0.11577 2.196843,0.009 3.297269,0.0384 0.972968,0.0644 0.740119,1.13357 0.747191,1.86074 0.738918,0.37148 0.213559,1.41647 -0.525359,1.04498 v 0 c -0.278448,0.90199 -0.386649,1.68315 -1.427927,1.76634 2.365777,0.0958 -0.384202,0.1181 -0.837351,0.0504 -0.852556,-0.0949 -1.711087,-0.0466 -2.559502,-0.15764 -1.564762,0.12122 1.680083,0.011 0.18388,0.0816 -1.184069,0.0901 -2.391577,0.14078 -3.550536,-0.15916 -0.637271,-0.1752 -1.266992,-0.37599 -1.852539,-0.68831 -0.376044,-0.18904 -0.741976,-0.39755 -1.140595,-0.54058 -0.646398,-0.31627 -1.281316,-0.65747 -1.820447,-1.14245 -0.44781,-0.31913 -0.939906,-0.57269 -1.395338,-0.88147 -0.678791,-0.44191 -1.294263,-0.97637 -1.808189,-1.60463 -0.426225,-0.57468 -0.797386,-1.1844 -1.195404,-1.77874 -0.530047,-0.84211 -1.111874,-1.66185 -1.468678,-2.59828 -0.304398,-0.76319 -0.603149,-1.53303 -0.647078,-2.36389 -0.116491,-0.77605 -0.182586,-1.5568 2.65e-4,-2.33112 0.15984,-0.74096 0.448161,-1.46429 0.433509,-2.23408 -0.07306,-1.16489 -0.280803,-2.32971 -0.07897,-3.49658 0.482324,-2.04526 1.466783,-3.96429 3.199024,-5.22801 1.100595,-2.1224 4.102118,-0.56592 3.00152,1.55648 z"
       inkscape:connector-curvature="0" />
    <path
       style="fill:#424242;fill-opacity:1;stroke:none;stroke-width:0.26458332;stroke-opacity:1"
       id="path899"
       d="m 76.382075,179.33013 c 1.675868,-0.52705 3.440051,-0.46457 5.160163,-0.23699 -0.286504,0.0229 -0.577924,0.0111 -0.859515,0.0687 -0.224782,0.046 0.459907,0.0483 0.68792,0.0228 0.454816,-0.0508 0.91187,-0.1725 1.358037,-0.26903 1.610476,-0.41938 3.267361,-0.53942 4.924316,-0.5696 1.2611,-0.0821 2.512238,0.0603 3.768617,0.10845 0.225422,0.009 0.891392,-0.0544 0.676606,0.0146 -0.0083,0.003 -1.700604,0.008 -0.160745,0.003 0.980368,-0.0207 1.948201,-0.18786 2.927948,-0.21931 0.600575,-0.0117 1.454224,-0.0322 1.92532,0.0102 0.254603,0.0229 0.519803,0.3585 0.755856,0.17614 1.340181,-0.34644 -1.552265,-0.19872 -0.408892,-0.10787 0.953391,-0.1649 1.92352,-0.12345 2.883444,-0.23407 1.12138,-0.15753 2.25108,-0.12495 3.37899,-0.10229 -0.28394,0.009 -0.56927,-10e-4 -0.85181,0.0283 -0.10682,0.0112 0.33447,0.0131 0.89344,0.0171 0.9835,0.007 1.95939,0.0192 2.94108,0.0445 0.769,0.0169 1.53819,-0.002 2.30726,1e-4 0.18724,5.3e-4 0.74716,-0.0193 0.56168,0.006 -0.28098,0.0388 -0.56686,0.0224 -0.8503,0.0335 1.49173,-0.16894 2.78277,0.23957 4.17982,0.60719 0.35961,0.12123 3.33191,0.0286 1.05474,-0.0791 1.20015,-0.0948 2.40283,-0.13828 3.6059,-0.17315 1.23121,0.0226 2.48083,-0.0676 3.70486,0.0848 0.73226,0.18407 1.46242,0.0997 2.20173,0.0377 0.15462,-0.0109 0.61788,-0.0154 0.46384,-0.0326 -0.28952,-0.0324 -0.58297,0.002 -0.87388,-0.0132 -0.16929,-0.009 0.33904,-0.004 0.50856,-0.006 0.49629,-0.006 0.99005,-2e-5 1.48611,0.0152 1.31809,-0.001 2.63672,0.0204 3.95469,0.004 0.35067,-0.0867 3.41911,0.0126 1.15347,-0.0584 -0.1759,-0.005 0.35198,-5.3e-4 0.52797,-7.9e-4 1.53241,0.0326 3.06391,-0.0282 4.59609,-0.0509 0.16873,-0.0419 2.13302,-0.0533 2.13679,-0.10244 0.0192,-0.24975 -0.56033,0.14649 -0.75132,-0.0156 -0.17633,-0.14964 0.46207,-0.0212 0.69299,-0.0339 0.23705,-0.013 0.47393,-0.0289 0.71089,-0.0433 1.77636,-0.15958 3.55503,-0.13205 5.33611,-0.11738 0.18143,0.0129 0.36279,0.0268 0.54429,0.0386 0.54442,0.0354 1.07718,0.0339 1.62211,0.005 0.20964,-0.011 0.79703,0.0867 0.6286,-0.0386 -0.20286,-0.15093 -0.50428,-0.0377 -0.75642,-0.0565 1.46507,-0.0805 2.92239,-0.24284 4.38631,-0.33875 1.11658,-0.003 2.23378,-0.0111 3.35006,0.0217 0.5219,0.0153 0.99783,0.0846 1.52107,0.0342 -0.33149,-0.01 -0.66675,0.0221 -0.99445,-0.0288 -0.13223,-0.0205 0.2655,-0.0358 0.39629,-0.064 0.1576,-0.0341 0.31313,-0.0776 0.46788,-0.12287 0.6558,-0.19195 1.30125,-0.4039 1.96215,-0.57974 1.65505,-0.40494 3.43947,-0.61883 5.11249,-0.1853 0.29124,0.10223 0.58241,0.15748 0.88793,0.0993 0.0716,-0.0136 0.28384,-0.051 0.21118,-0.0561 -0.36086,-0.0255 -0.72361,0.003 -1.08527,-0.006 -0.0914,-0.002 0.1827,-0.009 0.27405,-0.0137 1.05138,-0.10717 2.10706,-0.0831 3.16251,-0.0809 0.34476,0.15947 0.65213,0.0788 1.00624,0.0494 0.45313,-0.0368 0.7101,-0.0529 -0.88668,-0.0137 -0.0608,0.002 0.12085,0.0134 0.18117,0.0209 0.12911,0.0162 0.25669,0.0387 0.38491,0.0604 0.59188,0.0388 1.21034,0.12365 1.78667,-0.028 0.0678,-0.0124 0.13505,-0.0278 0.2033,-0.0372 0.17387,-0.0239 1.98143,-0.0934 1.02192,-0.0503 -0.67925,0.0305 -1.27076,-0.004 -0.41909,0.0332 1.13555,0.10665 2.26694,0.072 3.40633,0.0564 0.94574,-0.008 1.87238,0.18488 2.80351,0.32077 -0.70669,0.096 1.72508,0.0514 0.96512,0.0304 -1.84689,-0.0509 -0.45263,-0.0136 -0.0685,-0.0256 1.09239,0.0477 2.23113,-0.11736 3.30524,0.0946 0.43094,0.14117 0.82439,0.21351 1.27195,0.15409 -1.94485,-0.0905 -0.41511,-0.0124 0.0411,0.0674 0.55916,0.087 1.13146,0.0465 1.69658,0.0506 1.34269,0.0666 -1.39964,0.004 -0.16648,0.0186 0.16137,-0.004 0.31359,0.0323 0.45118,0.109 2.67324,-0.69103 3.65051,3.08948 0.97728,3.78052 v 0 c -0.0963,0.0925 -0.24631,0.11213 -0.38576,0.11294 -0.66041,0.0131 -1.32268,-0.0215 -1.98299,0.0146 -1.03141,-0.031 1.20073,-0.0963 0.61912,0.0412 -0.793,0.2458 -1.6441,0.15457 -2.45929,0.13797 -0.45231,-0.0521 -0.92224,-0.18997 -1.37173,-0.0894 -0.49641,0.11217 -0.10588,0.009 0.72775,0.0553 0.0933,0.005 -0.18651,0.0122 -0.27972,0.019 -0.46654,0.0338 -0.17962,0.0165 -0.67813,0.0493 -0.13197,0.009 -0.26399,0.0165 -0.39599,0.0247 -1.32029,0.0705 -2.64658,0.10984 -3.96398,-0.0277 -0.77308,-0.0769 -1.54532,-0.17481 -2.32191,-0.20515 2.16288,-0.0558 -0.58487,-0.005 -0.94214,0.0589 -1.09916,0.0507 -2.22167,0.11943 -3.31187,-0.0578 -1.08959,-0.30004 1.39315,-0.0805 0.81472,-0.0303 -0.77275,0.19993 -1.57926,0.16233 -2.37203,0.1031 -0.13666,-0.0123 -0.98144,-0.19834 -0.95635,-0.091 2.53048,-0.002 0.64199,0.0301 -0.0476,0.28118 -1.36363,0.20477 -2.68552,0.12184 -4.02128,-0.12682 -0.56886,0.076 -0.31667,0.0314 0.96912,0.066 0.0671,0.002 -0.13375,-0.0165 -0.20081,-0.0142 -0.4248,0.0149 -0.81918,0.19064 -1.2281,0.28538 -1.95082,0.65686 -3.87886,1.24007 -5.97511,1.07944 -0.20534,-0.0164 -0.84046,-0.0721 -1.08568,-0.0761 -0.14784,-0.002 -0.59107,0.004 -0.4434,0.0116 2.08056,0.10287 0.35302,-0.0516 -0.0712,0.11902 -1.59692,0.20106 -3.19116,0.502 -4.80823,0.46003 -0.72658,-0.0178 -1.45354,-0.0237 -2.17972,-0.0534 -0.90404,-0.037 -1.80191,-0.2465 -2.71148,-0.17532 0.3093,0.002 0.61923,-0.0149 0.92791,0.005 0.15247,0.01 -0.3053,0.0139 -0.45766,0.0252 -0.8493,0.0631 -1.69147,0.19805 -2.53281,0.32526 -2.00782,0.22283 -4.02839,0.23643 -6.04234,0.0789 0.2615,-0.01 0.52961,0.0298 0.7845,-0.0295 0.18176,-0.0422 -0.37283,-0.0175 -0.55937,-0.0229 -0.51175,-0.0145 -1.02273,-0.007 -1.53441,0.002 -0.17352,0.003 -0.34706,0.005 -0.52059,0.007 -1.47786,0.004 -2.958,0.0195 -4.43383,-0.0708 -0.29397,-0.009 -0.55994,-0.0198 -0.85369,-0.0215 -0.13521,-7.9e-4 -0.54082,0.004 -0.40561,0.003 1.99837,-0.0101 0.53389,-0.0157 0.12355,0.017 -1.50347,0.12246 -3.02095,0.17917 -4.5265,0.0704 -0.75022,-0.092 -1.48165,-0.26991 -2.22183,-0.3978 -0.59462,0.0286 0.0447,-0.006 0.95155,0.0351 0.0621,0.003 -0.12413,0.008 -0.18577,0.0164 -0.37118,0.0485 -0.72763,0.16436 -1.09761,0.22091 -1.31381,0.23615 -2.63689,0.36295 -3.97373,0.33961 -1.69739,-0.0122 -3.34208,0.006 -4.9355,-0.64953 -0.16132,-0.0464 -0.33803,-0.10935 -0.50924,-0.11569 -0.4332,-0.016 -1.79737,0.28475 0.12939,0.13638 -1.69151,0.0386 -3.38488,0.11056 -5.06497,-0.1454 -0.39837,-0.0449 -1.982,-0.10894 0.0277,-0.0901 0.14729,0.001 -0.29461,0.002 -0.44188,0.005 -0.14876,0.003 -0.29743,0.0102 -0.44614,0.0153 -0.60813,0.01 -1.21627,0.0194 -1.8244,0.0291 -1.11599,0.0217 -2.234975,0.0544 -3.342261,-0.12173 -0.833567,-0.11418 -0.215884,-0.002 0.530595,-0.11935 0.258053,-0.0405 -0.495059,-0.075 -0.690933,-0.0792 -0.91427,0.14941 -1.861648,0.15682 -2.749317,-0.12363 -0.167815,-0.0579 -0.328186,-0.13688 -0.497687,-0.1897 -0.08136,-0.0254 0.123796,0.14039 0.208706,0.14768 1.083202,0.093 1.637507,-0.16713 1.173417,0.0405 -0.99999,0.38575 -2.05105,0.63018 -3.10569,0.81009 -1.7224,0.20929 -3.426603,0.0256 -5.147061,0.10452 -0.218183,0.01 0.436819,0.003 0.655227,0.004 -1.53168,0.0114 -3.057686,0.1193 -4.587025,0.19434 -0.576321,0.0167 -1.145051,-0.009 -1.720144,-0.007 -0.868196,0.003 0.102124,0.026 -0.802566,0.0882 -0.586285,0.0403 -1.17407,0.0546 -1.761103,0.0819 -1.740395,0.15279 -3.550418,0.1085 -5.130758,-0.72194 -2.831245,-0.91377 -1.538981,-4.91776 1.292265,-4.00399 z"
       inkscape:connector-curvature="0" />
    <path
       style="fill:#424242;fill-opacity:1;stroke:none;stroke-width:0.26458332;stroke-opacity:1"
       id="path903"
       d="m 180.18549,177.86115 c 1.84688,-1.11608 4.02581,-1.487 6.14829,-1.65677 0.19569,-0.005 0.59557,-0.0371 0.82319,0.0133 0.21459,0.0475 -0.0447,0.32506 0.26481,-0.18137 0.6669,-0.96189 1.43011,-1.84835 2.12681,-2.78823 0.5653,-0.743 1.13995,-1.48416 1.51099,-2.34594 0.19025,-0.4513 0.27493,-0.92368 0.27154,-1.41047 -0.074,-0.62052 -0.10237,-1.24537 -0.14068,-1.86883 -0.0897,-0.75572 0.0845,-1.50067 0.14486,-2.24946 0.009,-0.73242 -0.002,-1.4725 -0.12074,-2.19628 -0.13452,-0.2833 0.0386,-1.07207 -0.14903,-1.29662 -0.28753,-0.52671 -0.40573,-1.14293 -0.45141,-1.7363 -0.0296,-0.73271 0.1673,-1.46283 0.63804,-2.03576 -0.3395,0.20725 -0.42073,1.69939 -0.53214,1.12671 -0.13117,-0.46748 0.0832,0.65113 0.009,0.25283 -0.22315,-0.76063 -0.01,0.0553 0.62256,0.84503 0.0536,0.0669 -0.0323,-0.17166 -0.0189,-0.25629 0.0222,-0.14121 0.0825,-0.27373 0.12375,-0.41059 -1.54428,-1.69492 0.85269,-3.87887 2.39698,-2.18395 v 0 c 0.44422,-0.93024 0.0316,-0.70225 1.07468,0.61275 0.0458,0.0577 -0.0407,-0.14152 -0.0611,-0.21228 0.20134,0.23707 0.30659,0.72122 0.25145,1.00869 -0.0279,0.62026 -0.13875,1.25172 -0.51632,1.76343 0.22218,-0.29328 0.34351,-0.62635 0.4275,-0.97819 0.18506,0.36946 0.24725,0.80546 0.40952,1.1841 0.17377,0.71864 0.23637,1.41861 0.16217,2.15617 -0.0665,0.93203 0.0402,1.87346 -0.11984,2.8011 -0.0941,0.58258 -0.25536,1.1475 -0.31124,1.73135 -0.0166,0.641 0.05,1.27785 0.045,1.91882 0.006,0.83469 -0.0783,1.66672 -0.25915,2.48259 -0.35742,1.36749 -0.91461,2.64025 -1.88502,3.69501 -0.90464,0.93026 -1.85718,1.86255 -3.0577,2.40129 -0.70458,0.38503 -1.07569,1.22448 -1.83271,1.55985 -2.07623,1.12594 -4.43542,1.72243 -6.79755,1.34867 -2.18806,0.84703 -3.38595,-2.24736 -1.19788,-3.09439 z"
       inkscape:connector-curvature="0" />
    <path
       style="fill:#424242;fill-opacity:1;stroke:none;stroke-width:0.26458332;stroke-opacity:1"
       id="path909"
       d="m 139.14893,64.43891 c 1.10404,1.743282 1.93447,3.654886 2.82144,5.517211 0.67129,1.368626 1.42796,2.692376 2.14632,4.036581 0.69046,1.391317 1.58907,2.659727 2.48524,3.922837 0.89375,1.139092 1.85735,2.220142 2.72925,3.376311 0.86167,1.110422 1.63372,2.279986 2.3537,3.485472 0.62593,1.053606 1.24051,2.11287 1.82713,3.189118 0.41777,0.783117 0.928,1.509517 1.3881,2.266942 0.70045,0.999202 1.02619,2.173719 1.28278,3.349292 0.0858,0.728173 0.30338,1.41387 0.58542,2.085464 0.3184,0.710335 0.61873,1.418527 0.82024,2.171706 0.24488,0.735748 0.0401,1.548405 0.23811,2.284706 0.25354,0.52518 0.59764,1.01616 0.89049,1.52687 0.459,0.81229 0.84632,1.66123 1.22745,2.51188 0.35159,0.76892 0.83851,1.46639 1.30635,2.16788 0.51821,0.82901 1.01913,1.66858 1.51937,2.5085 0.41587,0.74932 1.01841,1.3549 1.5773,1.99415 0.63936,0.74571 1.07885,1.62677 1.63898,2.42728 0.45206,0.55616 0.90405,1.11181 1.35879,1.66573 0.49783,0.69275 1.03045,1.35869 1.58575,2.00593 0.62991,0.60208 1.24774,1.2165 1.8799,1.81615 0.72624,0.69741 1.3291,1.50553 1.98321,2.26772 0.51405,0.66096 1.02506,1.27783 1.66409,1.82016 0.76792,0.60445 1.388,1.36604 1.94022,2.1662 0.37583,0.67035 0.75673,1.3278 1.21325,1.94635 0.48372,0.63844 1.01975,1.22161 1.448,1.90087 0.45946,0.69286 0.6183,1.54734 1.11828,2.21169 0.47055,0.52049 0.83593,1.11528 1.22716,1.69411 0.60635,0.87527 1.01842,1.85731 1.45147,2.82382 0.2959,0.80742 0.75641,1.52489 1.26379,2.21236 0.54856,0.77334 1.04452,1.58309 1.51758,2.40437 0.464,0.81225 0.95153,1.60954 1.45027,2.40085 0.4323,0.69184 0.98791,1.2917 1.47144,1.94627 0.42079,0.6591 0.8704,1.30338 1.26158,1.98065 0.34255,0.5916 0.59559,1.22934 0.91362,1.83371 0.23215,0.38729 0.525,0.7311 0.7779,1.10503 0.36659,0.58417 0.61657,1.23331 0.78308,1.90069 0.0195,0.0859 0.0398,0.17157 0.0583,0.25764 0.0917,0.42499 -0.15526,-0.22361 0.0435,0.10496 0.3249,0.45973 0.48928,1.0097 0.61895,1.55113 0.0547,0.0213 0.11846,1.46827 0.0732,0.92547 -0.08,-0.39691 0.34034,0.77719 0.34493,0.79172 0.12084,0.41132 0.24693,0.82319 0.33565,1.24293 0.0777,0.12678 0.054,0.33545 0.14008,0.45945 0.003,0.005 0.0285,-0.0548 0.0379,-0.0531 0.019,0.003 0.0317,0.0221 0.0476,0.0331 0.32907,0.35527 0.59221,0.75313 0.79804,1.18967 0.0111,0.0278 0.29448,0.74466 0.0657,0.35079 1.19081,2.58571 -2.46593,4.26977 -3.65674,1.68406 v 0 c -0.062,-0.10816 -0.15239,-0.34646 -0.25433,-0.40088 0.0404,0.16007 -0.4478,-0.45402 -0.50429,-0.4778 -0.46861,-0.61198 -0.81484,-1.30424 -0.90868,-2.07802 -0.0545,-0.29868 -0.0915,-0.6003 -0.14681,-0.89805 0.0587,0.17626 -0.37026,-0.53013 -0.37841,-0.69552 -0.12059,-0.4447 -0.2296,-0.88534 -0.19534,-1.34899 -0.0408,-0.56905 0.0899,0.20626 -0.01,-0.12309 -0.34747,-0.36197 -0.48327,-0.87304 -0.70515,-1.31139 -0.12941,-0.30822 -0.20639,-0.6454 -0.39021,-0.92608 -0.36649,-0.47246 -0.74496,-0.94115 -1.04838,-1.4571 -0.31244,-0.55556 -0.57996,-1.13298 -0.89557,-1.68642 -0.31557,-0.49882 -0.60689,-1.02011 -1.03253,-1.43637 -0.68298,-0.72149 -1.32654,-1.47886 -1.85091,-2.32618 -0.52851,-0.84682 -1.01211,-1.71777 -1.46705,-2.60641 -0.36631,-0.67684 -0.76528,-1.33427 -1.28088,-1.91033 -0.74558,-0.95627 -1.41989,-1.965 -1.82907,-3.11702 -0.27451,-0.75076 -0.47806,-1.53738 -0.87773,-2.23498 -0.39539,-0.62499 -0.97995,-1.10124 -1.35505,-1.74467 -0.39598,-0.69898 -0.70232,-1.43761 -1.07178,-2.14925 -0.41801,-0.60826 -0.91769,-1.15755 -1.32983,-1.77083 -0.42667,-0.61704 -0.7883,-1.27528 -1.23076,-1.88105 -0.44812,-0.55879 -0.97018,-1.02619 -1.52238,-1.48228 -0.73595,-0.69113 -1.37951,-1.46639 -2.02212,-2.24359 -0.54832,-0.67452 -1.09728,-1.34888 -1.74686,-1.93099 -0.72155,-0.71518 -1.46475,-1.41307 -2.11972,-2.19114 -0.53934,-0.68077 -1.01853,-1.40129 -1.5103,-2.11624 -0.48542,-0.62879 -1.06116,-1.17797 -1.53585,-1.81533 -0.50502,-0.70634 -0.96992,-1.44446 -1.53996,-2.1018 -0.65537,-0.8064 -1.29077,-1.62855 -1.84527,-2.50905 -0.53437,-0.83515 -1.04416,-1.68607 -1.50972,-2.56176 -0.45598,-0.84217 -0.93208,-1.67377 -1.34433,-2.53892 -0.4029,-0.77899 -0.77385,-1.57241 -1.15425,-2.36237 -0.42653,-0.85359 -0.91842,-1.68649 -1.12694,-2.62842 -0.12348,-0.70007 -0.17314,-1.401534 -0.16597,-2.112607 -0.0953,-0.539326 -0.44757,-0.991504 -0.66223,-1.485778 -0.44252,-0.893945 -0.80189,-1.82459 -1.01349,-2.802226 -0.17104,-0.738981 -0.28907,-1.504971 -0.6672,-2.174237 -0.52868,-0.777245 -1.17341,-1.472046 -1.64996,-2.286355 -0.64017,-1.019704 -1.24293,-2.062477 -1.88265,-3.082454 -0.65207,-1.040368 -1.27449,-2.106644 -2.06254,-3.052685 -1.01762,-1.159211 -2.10805,-2.26245 -2.98402,-3.537972 -0.98399,-1.411694 -1.79585,-2.915319 -2.45655,-4.505653 -0.71724,-1.391909 -1.64656,-2.644364 -2.44289,-3.99035 -1.1178,-2.131462 -1.96113,-4.450122 -1.63231,-6.896761 -0.33466,-2.337406 2.97093,-2.810688 3.30559,-0.473282 z"
       inkscape:connector-curvature="0" />
    <path
       style="fill:#424242;fill-opacity:1;stroke:none;stroke-width:0.26458332;stroke-opacity:1"
       id="path917"
       d="m 114.15532,66.118795 c 0.0712,-1.898687 1.03424,-3.600874 2.31712,-4.953643 1.16363,-1.038167 1.55286,-1.138047 3.36273,-1.052872 0.20469,0.0096 0.36888,0.1789 0.5571,0.259939 0.0631,0.02717 0.12951,0.08218 0.19585,0.06426 0.0364,-0.0098 -0.0162,-0.07373 -0.0243,-0.110593 -1.58845,-0.154829 -1.60315,-0.0136 -1.17005,-0.253588 0.54135,-0.299963 0.27399,-0.163533 0.90876,-0.445381 0.83305,-0.336179 1.71186,-0.348586 2.5922,-0.36087 0.48647,-0.0028 0.95938,-0.114983 1.43635,-0.195223 1.01388,-0.150193 2.06009,-0.139883 3.07929,-0.03318 -0.54942,0.0885 1.3162,0.01169 0.62559,0.0073 -1.87004,-0.01185 -1.06774,0.01326 -0.6421,-0.01799 0.96611,-0.129574 1.92856,-0.12356 2.9041,-0.130278 0.90039,-0.114123 1.77351,-0.02445 2.62582,0.27673 0.61021,0.22157 1.07175,0.694225 1.63576,0.995093 0.28788,0.03115 0.57558,0.08826 0.85349,0.166857 0.92433,0.288898 1.63427,0.93699 2.1878,1.708727 0.031,0.05967 0.11148,0.114424 0.0928,0.178998 -0.015,0.05206 -0.0712,-0.08189 -0.10994,-0.11975 -0.098,-0.09575 -0.19401,-0.194252 -0.30021,-0.280858 -0.0778,-0.06347 -0.73494,-0.475163 0.0544,-0.03321 0.13528,0.07574 0.26283,0.164534 0.39424,0.2468 0.74003,0.496499 1.28228,1.176801 1.78014,1.902439 0.45543,0.619226 0.71129,1.312003 0.83144,2.062144 0.18234,1.185389 -6.61965,2.172274 -3.55626,0.583814 -0.51018,-1.56958 1.70954,-2.291088 2.21972,-0.721508 v 0 c 0.72194,-0.15761 0.39978,-0.145301 0.96091,-0.110072 -1.38107,0.484465 -2.79501,0.869849 -4.18697,1.322051 -0.0184,0.006 -0.0213,0.03234 -0.0319,0.04852 -0.004,0.0438 0.0265,0.10772 -0.0105,0.131395 -0.0579,0.03704 -0.59269,-0.813213 -0.63821,-0.885558 -0.025,-0.03678 -0.70251,-0.900382 -0.49481,-0.756026 0.19261,0.121947 0.74233,0.526082 -0.11427,-0.04436 -0.5648,-0.376118 -0.32265,-0.275177 -0.75793,-0.64348 -0.0387,-0.03278 -0.0868,-0.05262 -0.13016,-0.07894 -0.25863,-0.111252 -0.36158,-0.171249 -0.63252,-0.259866 -0.55188,-0.220366 -1.10422,-0.459679 -1.58472,-0.814604 -0.38331,-0.268963 -0.21629,-0.242928 -0.47649,-0.06243 -0.59016,0.180287 -1.25427,0.02641 -1.85739,0.01823 2.0271,-0.02625 0.0537,-0.03376 -0.42206,-0.114882 -0.84488,-0.03266 -1.69089,0.0084 -2.53576,-0.02786 -0.0875,0.0027 -0.17505,0.0073 -0.26263,0.0082 -1.81593,0.01664 1.49414,0.0259 -0.0161,-0.07709 -0.5198,-0.0329 -1.02254,0.100745 -1.53744,0.152265 -0.54232,0.05701 -1.08336,0.117052 -1.62539,0.06601 -0.39096,0.04078 -0.67686,0.161981 -1.04408,0.310015 -1.05885,0.42685 -1.69256,0.479039 -2.9482,0.21237 -0.14432,-0.06985 -0.28904,-0.138911 -0.43298,-0.209558 -0.0561,-0.02755 -0.21574,-0.124449 -0.16721,-0.08503 0.62282,0.505859 1.76671,0.232643 2.2181,-0.399696 -0.65804,1.295673 -1.26957,2.648689 -2.23092,3.751501 -0.84515,2.752164 -4.7373,1.556954 -3.89216,-1.195213 z"
       inkscape:connector-curvature="0" />
  </g>
  <g
     inkscape:groupmode="layer"
     id="layer2"
     inkscape:label="lines 3">
    <path
       style="fill:#424242;fill-opacity:1;stroke:none;stroke-width:0.25378299;stroke-opacity:1"
       d="m 126.92592,125.37476 c -0.54952,0.011 -1.17457,0.0964 -1.57624,0.13284 -0.94237,0.63064 -0.85694,0.62901 -0.71475,1.70263 -0.0161,0.0228 -0.0268,0.0456 -0.0397,0.0684 -1.38497,-0.29775 -2.88907,-0.0757 -4.11158,0.66073 -0.29303,0.17653 -0.55147,0.4048 -0.82727,0.60719 -1.49059,1.34887 -2.42257,3.14842 -3.14056,4.99784 -0.49832,1.33828 -0.44686,2.5506 -0.0134,3.88457 0.7554,1.8343 2.22026,3.01446 3.83004,4.07837 1.79611,1.11483 3.53424,1.5923 5.62388,1.70412 1.7734,0.0126 3.53362,-0.26186 5.10886,-1.11824 0.31089,-0.16901 0.59871,-0.377 0.89816,-0.56556 1.35744,-1.0013 2.52402,-2.31428 3.09694,-3.9262 0.0988,-0.27784 0.15235,-0.56967 0.22851,-0.85453 0.26614,-1.47855 0.0313,-2.97187 -0.32417,-4.41295 -0.50587,-1.73837 -1.47302,-3.28149 -2.8045,-4.50911 -0.30815,-0.28411 -0.64675,-0.53373 -0.97003,-0.80051 -1.13365,-0.76012 -2.36708,-1.47517 -3.75123,-1.63075 -0.15522,-0.0175 -0.32984,-0.0225 -0.51301,-0.0188 z"
       id="path898"
       inkscape:connector-curvature="0" />
    <path
       style="fill:#424242;fill-opacity:1;stroke:none;stroke-width:0.25378299;stroke-opacity:1"
       d="m 125.85229,127.95522 c 0.45766,0.13843 0.24299,0.0373 0.52938,0.5036 -0.20847,0.0165 -0.42377,-0.004 -0.62653,0.0426 0.0998,-0.16808 0.12895,-0.36136 0.0971,-0.54623 z"
       id="path896"
       inkscape:connector-curvature="0" />
    <path
       style="fill:#424242;fill-opacity:1;stroke:none;stroke-width:0.25378299;stroke-opacity:1"
       d="m 125.72986,128.5411 c 0.0661,0.0143 0.18633,0.0271 0.24338,0.0416 0.93098,0.23742 1.85739,0.50575 2.69198,0.99877 1.46881,0.89539 2.75579,1.92151 3.54602,3.48902 0.39916,0.93299 0.75085,1.94161 0.43718,2.95122 -0.58514,1.33243 -1.56117,2.38746 -2.73362,3.24168 -0.81172,0.55061 -1.61372,1.07726 -2.5864,1.29469 -0.21577,0.0482 -0.43923,0.055 -0.65577,0.0996 -0.0118,0.002 0.004,0.0228 0.006,0.0342 -0.21107,-0.001 -0.42307,0.0141 -0.63347,-0.003 -1.35476,-0.10705 -2.56919,-0.81647 -3.74974,-1.42456 -1.29211,-0.74998 -2.62712,-1.49513 -3.69126,-2.55964 -0.0549,-0.0864 -0.12341,-0.16543 -0.16456,-0.25924 -0.28852,-0.65687 0.39019,-1.41135 0.58093,-1.98515 1.10626,-2.1798 -0.44622,0.88146 0.74994,-1.48553 0.36216,-0.71664 0.70079,-1.47715 1.20894,-2.10709 0.13857,-0.17177 0.30465,-0.31915 0.45701,-0.47881 0.176,-0.11698 0.34186,-0.25069 0.52789,-0.35094 1.02804,-0.55397 2.23175,-0.6211 3.26646,-1.14946 h 5.1e-4 c 0.2349,-0.0699 0.39591,-0.1969 0.49865,-0.34796 z"
       id="path835"
       inkscape:connector-curvature="0" />
    <path
       style="fill:#424242;fill-opacity:1;stroke:none;stroke-width:0.25378299;stroke-opacity:1"
       id="path837"
       d="m 129.95185,120.04318 c 9.6e-4,-0.22825 -0.02,-0.45769 0.003,-0.68473 0.19876,-1.92722 1.19268,-3.90352 2.013,-5.63073 1.1044,-2.09824 2.42254,-4.07303 3.75042,-6.03406 0.89432,-1.33771 1.75575,-2.69759 2.67797,-4.01648 0.28802,-0.33913 0.58463,-0.80198 1.02698,-0.96936 0.14475,-0.0548 0.30541,-0.0504 0.45812,-0.0756 0.40849,-0.62507 1.29249,-0.0474 0.88399,0.57771 v 0 c 0.057,0.091 0.13839,0.17069 0.17099,0.273 0.12226,0.38361 -0.11707,0.8467 -0.19651,1.20364 -0.5859,1.54436 -1.38343,2.98836 -2.21199,4.4146 -1.11442,1.99416 -2.19081,4.00638 -3.21746,6.04745 -1.10065,1.94989 -2.18532,4.02095 -3.94416,5.46359 -0.40241,1.00034 -1.8171,0.43125 -1.41469,-0.56908 z"
       inkscape:connector-curvature="0" />
    <path
       style="fill:#424242;fill-opacity:1;stroke:none;stroke-width:0.25378299;stroke-opacity:1"
       d="m 113.88038,121.62452 c -0.001,0.0986 -0.002,0.19728 -0.003,0.29592 0.1357,0.0704 0.26752,0.14384 0.39604,0.22008 -0.0653,-0.18413 -0.19413,-0.36163 -0.39307,-0.516 z"
       id="path841"
       inkscape:connector-curvature="0" />
    <path
       style="fill:#424242;fill-opacity:1;stroke:none;stroke-width:0.25378299;stroke-opacity:1"
       d="m 87.98012,132.19469 c -0.0201,0.0311 -0.04037,0.0621 -0.06047,0.0932 0.07809,0.11945 0.154302,0.24013 0.231972,0.35986 -0.04877,-0.13101 -0.110263,-0.29266 -0.171501,-0.45304 z"
       id="path914"
       inkscape:connector-curvature="0" />
    <path
       style="fill:#424242;fill-opacity:1;stroke:none;stroke-width:0.25378299;stroke-opacity:1"
       d="m 88.06934,132.79147 c 0.0063,0.0102 0.01251,0.0205 0.01883,0.0307 0.04577,0.027 0.08262,0.0504 0.131353,0.0793 l 0.03321,0.0119 c -0.0023,-0.007 -0.0075,-0.0192 -0.0099,-0.0258 -0.05227,-0.0307 -0.115774,-0.0641 -0.173486,-0.0962 z"
       id="path912"
       inkscape:connector-curvature="0" />
    <path
       style="fill:#424242;fill-opacity:1;stroke:none;stroke-width:0.25378299;stroke-opacity:1"
       d="m 87.534513,133.70301 c 0.0569,0.26582 0.120199,0.5315 0.171501,0.75788 0.188414,0.53398 0.306088,1.12159 0.55862,1.63273 0.07646,0.15477 0.18551,0.29147 0.278072,0.43719 0.08934,0.83639 1.272006,0.70999 1.182667,-0.1264 0.05441,-0.15383 0.126676,-0.30241 0.163076,-0.46147 0.12362,-0.54016 0.09465,-1.1189 0.159109,-1.66594 0.0023,-0.0367 0.006,-0.0733 0.0084,-0.11004 -0.251312,0.025 -0.502184,0.0407 -0.748957,0.0511 -0.296459,0.31769 -0.716828,0.22604 -1.155903,-0.0421 -0.210541,0.17985 -0.291059,0.0902 -0.413885,-0.29493 -0.0688,-0.056 -0.135365,-0.11788 -0.202729,-0.17794 z"
       id="path843"
       inkscape:connector-curvature="0" />
    <path
       style="fill:#424242;fill-opacity:1;stroke:none;stroke-width:0.25378299;stroke-opacity:1"
       id="path845"
       d="m 117.31899,150.06325 c -0.0727,0.22963 -0.12748,0.46575 -0.21819,0.6889 -0.22274,0.54794 -0.66278,1.32681 -0.93856,1.83023 -0.5943,1.08492 -1.21048,2.15719 -1.82106,3.233 -1.2941,2.3881 -2.6237,4.75664 -3.93266,7.13655 -1.08304,2.00085 -2.16826,4.0041 -3.55248,5.81512 -0.15895,0.17459 -0.31791,0.34918 -0.47687,0.52377 -0.21899,0.79127 -1.33803,0.48156 -1.11903,-0.30971 v 0 c -0.0202,-0.24189 -0.0406,-0.48377 -0.0608,-0.72566 0.0219,-0.29331 0.0246,-0.58866 0.0655,-0.87993 0.28721,-2.04873 1.25956,-3.92864 2.19902,-5.74075 1.31108,-2.40779 2.64243,-4.80446 3.96097,-7.2081 1.19526,-1.98945 2.53201,-4.03508 4.56083,-5.26132 0.63491,-0.94283 1.96826,-0.0449 1.33334,0.8979 z"
       inkscape:connector-curvature="0" />
    <path
       style="fill:#424242;fill-opacity:1;stroke:none;stroke-width:0.25378299;stroke-opacity:1"
       id="path849"
       d="m 107.06876,167.19595 c 2.39848,-0.15425 4.75727,0.53363 7.05739,1.12779 1.79138,0.43034 3.63063,1.06111 5.50145,0.86147 2.20946,-0.14827 4.42341,-0.28553 6.6267,0.006 1.33156,0.19958 2.59238,0.68908 3.91773,0.91182 0.92203,0.0497 1.65042,-0.0425 2.6372,-0.0854 1.27046,-0.003 2.47341,-0.3958 3.67847,-0.74857 1.3882,-0.42979 2.81572,-0.6802 4.26931,-0.64347 0.40977,0.0574 0.82468,0.055 1.23567,0.0974 0.0663,0.007 0.25179,0.016 0.19374,0.0486 -0.78102,0.0975 -0.18391,-0.0695 -0.32301,0.10751 -0.0411,0.17278 0.43223,0.48762 0.4392,0.49383 0.15907,-0.27114 0.54252,-0.0461 0.38345,0.22497 v 0 c 0.23234,0.3725 0.43809,0.52062 0.0647,0.80115 -0.40885,0.20597 -0.54229,0.15868 -1.05969,0.20558 -0.0699,0.007 -0.25061,-0.0117 -0.20616,0.0426 0.0607,0.0741 0.29237,-0.0442 0.28298,0.0512 -0.01,0.10045 -0.19656,0.046 -0.29484,0.0691 -1.26778,0.30146 -2.51685,0.6786 -3.79385,0.94254 -1.37323,0.28023 -2.7601,0.50349 -4.16326,0.55367 -1.40047,0.11821 -2.81324,0.22998 -4.21179,0.0181 -1.29381,-0.18216 -2.57917,-0.46271 -3.89123,-0.47509 -1.65795,-0.007 -3.31433,0.11809 -4.96869,0.22919 -2.63692,0.0624 -5.27768,0.0329 -7.8505,-0.63878 -2.19546,-0.56083 -4.48742,-1.12567 -6.38332,-2.41723 -1.26158,-0.607 -0.40315,-2.39114 0.85843,-1.78415 z"
       inkscape:connector-curvature="0" />
    <path
       style="fill:#424242;fill-opacity:1;stroke:none;stroke-width:0.25378299;stroke-opacity:1"
       id="path853"
       d="m 115.51948,150.50475 c -0.0624,-1.36798 0.50966,-2.61936 1.33144,-3.67865 0.53165,-0.55572 1.34386,-1.1053 2.01981,-0.38534 -0.43172,-0.62863 -1.29636,0.63395 -0.96356,-0.40926 0.13936,-0.28986 0.38244,-0.45488 0.64687,-0.61847 1.02822,-0.60378 1.88209,0.85034 0.85388,1.45411 v 0 c 0.0597,-0.0437 0.1193,-0.0875 0.17896,-0.13117 0.0124,-0.0126 0.0235,-0.0266 0.0371,-0.0379 0.004,-0.003 -0.005,0.009 -0.008,0.0133 -0.0185,0.024 -0.0369,0.048 -0.0554,0.0719 -0.41725,0.49595 -1.16156,1.11391 -1.752,0.53043 0.66597,0.50498 1.00898,-0.47877 0.76052,0.29619 -0.36096,1.1485 -0.70468,2.344 -1.49679,3.28087 -0.27305,1.09834 -1.82634,0.71218 -1.55329,-0.38615 z"
       inkscape:connector-curvature="0" />
    <path
       style="fill:#424242;fill-opacity:1;stroke:none;stroke-width:0.25378299;stroke-opacity:1"
       id="path855"
       d="m 119.38698,146.78509 c 1.69297,-0.30973 3.4069,0.0558 5.04417,0.49252 0.14696,0.0411 0.31826,0.0326 0.44086,0.12345 0.0518,0.0384 -0.20223,0.009 -0.1804,0.0696 0.0581,0.16151 0.71357,0.0266 0.81609,9.6e-4 0.91326,-0.24871 1.87093,-0.21611 2.80942,-0.20643 0.8092,0.0281 0.85992,0.0847 1.71018,-0.0481 0.62905,-0.13322 1.2537,-0.287 1.87345,-0.45814 0.41377,-0.0962 0.78207,-0.29259 1.14492,-0.50559 0.23967,-0.1366 0.42227,-0.0994 0.68687,-0.0562 0.40044,-0.45225 1.03999,0.11405 0.63956,0.56629 v 0 c 0.0863,0.28552 0.0921,0.41183 -0.11467,0.6448 -0.41628,0.40017 -0.90223,0.71253 -1.43732,0.93249 -0.65032,0.2588 -1.32239,0.44959 -2.00112,0.61945 -1.00306,0.25747 -2.01908,0.33116 -3.05452,0.26854 -0.0899,-0.004 -0.75496,-0.0301 -0.85367,-0.0495 -0.0339,-0.007 0.13197,-0.0228 0.0987,-0.0325 -0.26542,-0.0774 -0.5705,-0.038 -0.84171,-0.0879 -0.35622,0.0286 -0.64538,0.23638 -0.98949,0.2872 -0.31169,0.046 -0.62853,0.0455 -0.9425,0.0719 -0.19641,0.0165 -0.39237,0.038 -0.58855,0.057 -1.66733,0.0366 -3.40425,-0.11204 -4.91638,-0.86686 -1.2892,-0.46393 -0.6331,-2.28712 0.6561,-1.82319 z"
       inkscape:connector-curvature="0" />
    <path
       style="fill:#424242;fill-opacity:1;stroke:none;stroke-width:0.25378299;stroke-opacity:1"
       id="path859"
       d="m 133.90524,145.14879 c 0.20061,0.16058 0.41507,0.30522 0.60183,0.48172 0.5022,0.47461 0.91917,1.02742 1.34359,1.56876 0.68551,0.87437 1.35695,1.76005 2.02728,2.64607 1.08761,1.46881 2.25472,2.87779 3.23259,4.42391 0.85234,1.37021 1.39926,2.88852 1.9052,4.41172 0.28096,0.84289 0.51069,1.7314 1.10533,2.41275 0.46447,0.46106 0.91311,0.93028 1.33236,1.43319 0.4315,0.56955 0.79342,1.18375 1.13573,1.80949 0.21009,0.37141 0.40014,0.75747 0.68906,1.07446 -0.25621,-0.3056 -0.83344,0.004 -1.06983,0.0144 -0.096,0.005 0.17165,-0.13717 0.26478,-0.11367 0.50295,0.12692 0.97096,0.36538 1.45644,0.54806 0.24572,0.57583 0.45472,0.85251 -0.30912,-0.0499 0.40813,0.10637 0.70299,0.38655 0.93536,0.72412 0.10924,0.18381 0.13032,0.38324 0.16683,0.59096 0.14883,1.46301 -1.92018,1.67349 -2.06901,0.21048 v 0 c 0.0197,0.10688 0.0617,0.23932 0.0462,0.34929 -0.01,0.0354 0.0181,0.0572 0.0681,0.0909 -0.29344,-0.29148 -0.58689,-0.54032 -0.81249,-0.83904 0.43822,0.1128 0.86783,0.26704 1.31467,0.3384 0.0674,0.0107 0.24686,-0.10788 0.179,-0.0998 -1.07222,0.12705 -0.93395,0.36891 -1.7955,-0.11317 -0.65622,-0.43276 -1.12581,-1.04668 -1.44281,-1.76508 -0.21016,-0.47996 -0.36316,-1.00311 -0.74296,-1.38296 -0.45897,-0.47813 -0.98146,-0.89191 -1.42731,-1.38389 -0.78639,-0.89588 -1.38528,-1.89747 -1.77663,-3.02956 -0.50686,-1.31016 -0.96819,-2.652 -1.7176,-3.84944 -1.03554,-1.4598 -2.25426,-2.75973 -3.41883,-4.11575 -1.11191,-1.42153 -2.42045,-3.02066 -2.94999,-4.77559 -0.0747,-0.2477 -0.0933,-0.50896 -0.14004,-0.76344 -0.59921,-1.32066 1.26848,-2.16808 1.8677,-0.84743 z"
       inkscape:connector-curvature="0" />
    <path
       style="fill:#424242;fill-opacity:1;stroke:none;stroke-width:0.25378299;stroke-opacity:1"
       id="path861"
       d="m 141.13483,168.95051 c 1.16521,-0.53275 2.44796,-0.72052 3.66741,-1.10021 0.54496,-0.17932 1.07946,-0.38439 1.63253,-0.53651 0.0239,-0.002 0.0477,-0.004 0.0716,-0.007 0.88667,-0.8891 2.14405,0.36485 1.25738,1.25396 v 0 c -0.002,0.0171 -0.004,0.0341 -0.006,0.0512 -0.29098,0.67235 -1.07782,1.03292 -1.67158,1.36745 -1.43065,0.57655 -2.95587,0.96376 -4.48738,0.54363 -1.11246,0.32804 -1.57637,-1.24523 -0.46391,-1.57327 z"
       inkscape:connector-curvature="0" />
    <path
       style="fill:#424242;fill-opacity:1;stroke:none;stroke-width:0.25378299;stroke-opacity:1"
       id="path865"
       d="m 132.91286,120.02366 c 0.19929,0.19237 0.41082,0.37283 0.59789,0.57711 1.38366,1.51098 2.59117,3.38314 3.76121,5.06825 0.97494,1.32118 1.81496,2.72895 2.63859,4.14642 0.43686,0.78658 0.86343,1.57934 1.27661,2.37872 0.23411,0.51216 0.3243,0.95656 0.1113,1.48229 -0.0607,0.0454 -0.12145,0.0907 -0.18218,0.13601 -0.51474,0.48931 -1.20671,-0.23864 -0.69198,-0.72794 v 0 c -0.0444,0.0341 -0.0888,0.0681 -0.13318,0.10209 -0.0215,0.0656 -0.0425,0.13144 -0.0645,0.19688 -0.008,0.0232 -0.003,0.0586 -0.025,0.069 -0.11976,0.0557 -0.39837,-0.52727 -0.4946,-0.51207 -0.52478,-0.71882 -0.95143,-1.49196 -1.40967,-2.25343 -1.01896,-1.31194 -2.41275,-2.26361 -3.45473,-3.55971 -1.36644,-1.69846 -2.70753,-3.55987 -3.25807,-5.70906 -0.0697,-0.27209 -0.0879,-0.55483 -0.13179,-0.83224 -0.39757,-1.03249 1.06259,-1.59473 1.46016,-0.56224 z"
       inkscape:connector-curvature="0" />
    <path
       style="fill:#424242;fill-opacity:1;stroke:none;stroke-width:0.25378299;stroke-opacity:1"
       d="m 112.35917,133.35208 c -0.003,-0.003 0.0399,0.008 0.0818,0.0431 0.0943,0.006 0.18904,0.0129 0.28254,0.0159 0.0653,0.0275 0.10961,-0.0197 0.18389,-0.0263 -0.42214,0.005 -0.5427,-0.0276 -0.54821,-0.0327 z"
       id="path934"
       inkscape:connector-curvature="0" />
    <path
       style="fill:#424242;fill-opacity:1;stroke:none;stroke-width:0.25378299;stroke-opacity:1"
       d="m 112.44095,133.3952 c -0.27558,-0.0181 -0.55248,-0.0375 -0.8233,0.0109 -0.0549,0.0138 -0.0765,0.0246 -0.0788,0.0332 -0.15714,-0.007 -0.31452,-0.0122 -0.47187,-0.007 -0.3971,-0.0339 -0.79087,-0.0786 -1.19259,-0.0441 -0.26389,0.016 -0.52569,0.059 -0.79009,0.0595 -0.0733,-0.009 -0.29434,-0.0174 -0.22058,-0.0203 1.12966,-0.0406 -0.38333,0.0185 -0.68898,-0.004 -0.31689,0.0288 -0.63165,0.0982 -0.9502,0.0808 -0.18663,1e-4 -0.37277,0.002 -0.55911,0.0139 -0.0585,0.004 -0.2336,0.006 -0.17547,0.0139 0.13675,0.0177 0.27628,0.002 0.41339,0.0168 0.0585,0.006 -0.11717,0.006 -0.17596,0.009 -0.36029,0.0127 -0.71987,0.01 -1.07362,0.0654 -0.27646,-0.0258 -0.57632,0.0114 -0.85355,-0.004 -0.3221,0.014 -0.64684,0.0272 -0.96457,0.0843 -0.23321,0.042 -0.47108,0.0539 -0.70534,0.0897 -0.14317,0.0191 -1.36808,-0.002 -0.51947,-0.001 -0.81548,-0.0302 -1.64218,-0.0679 -2.44069,0.13136 -0.192544,0.0562 -0.394699,0.13772 -0.59282,0.17397 -0.06685,0.0123 -0.269792,2.6e-4 -0.203227,-0.0134 0.116677,-0.024 0.237315,-0.0228 0.355892,-0.0342 -0.957317,-0.17256 -2.132152,-0.11548 -3.106364,-0.0411 -1.263258,0.14847 -2.523052,0.37226 -3.799309,0.35787 -0.861873,0.0148 -1.762429,-0.028 -2.619119,0.0724 -0.08526,0.01 -0.154633,0.0785 -0.238417,0.0971 -1.613727,0.36006 -0.154962,-0.0876 -1.562351,0.38266 v -0.001 c -1.266819,-0.32527 -1.726801,1.46659 -0.459982,1.79185 0.193482,0.078 0.37952,0.17775 0.580427,0.23396 0.751632,0.21033 1.655812,0.20954 2.397556,0.23544 0.918434,0.032 1.822254,-0.0392 2.734611,-0.13036 1.29992,-0.17644 2.582009,-0.45774 3.877129,-0.66222 0.44106,-0.0498 0.881937,-0.10295 1.32344,-0.1487 0.112274,-0.0117 0.255334,0.0477 0.337055,-0.0302 0.06493,-0.0619 -0.26416,0.0525 -0.266173,-0.0372 -0.002,-0.0892 0.176014,-0.0277 0.264191,-0.0416 0.622874,0.059 1.184471,-0.21237 1.797301,-0.21908 0.006,0.0247 0.7393,-0.0181 0.70535,0.0436 -0.0104,0.019 -0.0316,0.0242 -0.057,0.0233 0.10954,0.002 0.24042,0.004 0.36283,0.005 0.81568,0.086 1.26986,-0.0453 1.99558,-0.25081 0.1474,-0.0296 0.30954,-0.022 0.47485,-0.0124 0.30881,0.0398 0.62185,0.0152 0.93236,0.008 -0.10848,-0.007 0.36089,-0.007 0.27063,-0.0129 -0.1412,-0.009 -0.56369,0.0109 -0.42429,-0.0134 0.4903,-0.0854 0.57863,-0.0118 0.9507,-0.10657 -0.025,-0.0252 0.24493,0.0268 0.22949,0.0288 -0.32365,0.0388 -0.60794,0.006 -0.28501,0.0357 0.58047,0.067 1.16661,0.0273 1.74277,-0.053 0.28955,-0.0776 0.58354,-0.076 0.87982,-0.0575 0.0491,0.002 0.19682,0.003 0.14771,0.005 -1.12352,0.0332 0.5099,0.0135 0.84016,-0.0446 0.17572,-0.0478 0.35206,-0.0506 0.52987,-0.0416 0.0946,-0.002 0.19183,-0.005 0.24635,-0.006 0.23242,0.003 0.46632,-0.0183 0.69889,-0.0198 -0.0595,-0.004 -0.0706,-0.007 0.0922,-0.004 0.27349,-0.017 0.55871,-0.0148 0.82876,0.0446 0.0887,0.0179 0.24586,0.0247 0.37324,0.0273 0.21132,0.0297 0.5038,0.10142 0.47534,-0.10409 1.35864,-0.3524 0.85999,-2.27362 -0.49864,-1.92122 -0.014,-0.0411 -0.0372,-0.0671 -0.061,-0.0872 z"
       id="path932"
       inkscape:connector-curvature="0" />
    <path
       style="fill:#424242;fill-opacity:1;stroke:none;stroke-width:0.25378299;stroke-opacity:1"
       d="m 110.28578,135.46611 c -0.28415,0.007 -0.57651,0.0139 0.1259,0.004 -0.0423,-0.004 -0.0839,-0.002 -0.1259,-0.004 z"
       id="path930"
       inkscape:connector-curvature="0" />
    <path
       style="fill:#424242;fill-opacity:1;stroke:none;stroke-width:0.25378299;stroke-opacity:1"
       d="m 101.63831,135.97615 c -0.003,-5e-5 -0.007,6e-5 -0.01,0 0.004,2.5e-4 0.007,-1.1e-4 0.01,0 z"
       id="path928"
       inkscape:connector-curvature="0" />
    <path
       style="fill:#424242;fill-opacity:1;stroke:none;stroke-width:0.25378299;stroke-opacity:1"
       d="m 101.6284,135.97615 c -0.0869,-0.008 -0.21831,-0.0815 -0.2176,-0.0109 7e-5,0.005 0.0929,0.009 0.2176,0.0109 z"
       id="path926"
       inkscape:connector-curvature="0" />
    <path
       style="fill:#424242;fill-opacity:1;stroke:none;stroke-width:0.25378299;stroke-opacity:1"
       d="m 105.48621,133.65542 c -0.0293,0.006 -0.059,0.009 -0.0882,0.0169 -0.0337,0.002 -0.13379,-0.0125 -0.10013,-0.0154 0.0418,-0.003 0.12019,-0.002 0.18836,-0.002 z"
       id="path924"
       inkscape:connector-curvature="0" />
    <path
       style="fill:#424242;fill-opacity:1;stroke:none;stroke-width:0.25378299;stroke-opacity:1"
       d="m 111.23201,135.43984 c 0.14243,0.01 0.62749,0.0279 0.23247,0.007 -0.0772,-0.006 -0.15483,-0.007 -0.23247,-0.007 z"
       id="path922"
       inkscape:connector-curvature="0" />
    <path
       style="fill:#424242;fill-opacity:1;stroke:none;stroke-width:0.25378299;stroke-opacity:1"
       d="m 112.23575,135.46611 c 0.0177,7.6e-4 0.0365,0.006 0.0545,0.0134 -0.0443,-0.002 -0.0429,-0.003 -0.0971,-0.005 0.0159,-0.007 0.0299,-0.009 0.0426,-0.008 z"
       id="path877"
       inkscape:connector-curvature="0" />
    <path
       style="fill:#424242;fill-opacity:1;stroke:none;stroke-width:0.25378299;stroke-opacity:1"
       id="path881"
       d="m 140.30008,133.68818 c 1.57752,-0.28771 3.19085,-0.0252 4.76165,0.19517 1.2308,0.10858 0.65944,0.111 1.98336,0.0484 1.01563,-0.0531 2.03513,-0.0853 3.03979,0.0942 0.33609,0.0694 0.67805,0.11805 1.02206,0.10492 0.0773,-0.003 0.30872,-0.0105 0.23158,-0.0169 -0.15133,-0.0125 -0.30369,-9.6e-4 -0.45554,-0.002 0.49965,-0.002 0.99819,-0.032 1.49786,-0.0397 0.66098,-0.0623 1.31861,0.0425 1.97815,0.0391 0.21255,-0.0332 0.90517,0.0378 -0.0803,-0.0177 -0.0718,-0.004 0.14391,-0.003 0.21585,-0.005 0.0876,-0.003 0.38723,-0.0152 0.47047,-0.0186 0.60685,0.01 1.22069,-0.0149 1.8222,0.0753 0.25173,0.0779 0.82097,0.0392 -0.24343,0.0336 0.20117,-0.036 0.40349,-0.0199 0.60618,-0.0192 0.37969,-0.0433 0.76298,0.0254 1.14318,0.01 0.22809,-0.0371 0.65983,0.015 -0.31607,-0.0271 -0.0441,-0.002 0.0881,-0.006 0.13232,-0.008 0.31383,-0.0143 -0.0403,0.007 0.29378,-0.0144 0.51391,-0.004 1.0283,-0.002 1.54195,0.018 0.0409,9.6e-4 0.0816,0.004 0.1225,0.004 0.0834,-7.6e-4 0.86612,0.004 0.45654,-0.03 -0.35945,-0.03 -0.72301,0.008 -0.27159,-0.0297 0.42557,-0.0294 0.85181,-0.01 1.27606,0.0281 0.27373,0.003 0.54746,0.006 0.82119,0.009 0.0516,7.6e-4 0.20641,0.002 0.1548,0.002 -0.17817,9.5e-4 -0.35643,0.007 -0.53452,9.5e-4 -0.0449,-0.002 0.0893,-0.009 0.1339,-0.0136 0.1273,-0.0147 0.20072,-0.0263 0.32982,-0.0448 0.33638,-0.0399 0.67314,-0.0782 1.00694,-0.1364 0.19565,-0.0179 0.39316,-0.0285 0.58717,-0.0531 0.0996,-0.036 0.20722,-0.0178 0.29409,-0.0315 0.0809,0.0282 0.28606,-0.0611 0.43015,-0.0933 0.34003,-0.0272 0.75539,-0.106 1.07772,0.0537 -0.49195,0.15312 -0.96515,0.39109 -1.47582,0.45936 -0.12674,0.017 0.15378,-0.20566 0.24541,-0.29485 0.041,-0.04 0.4702,-0.36203 0.54057,-0.32512 1.21791,0.63877 2.44624,1.8324 1.86456,1.26841 -0.0159,-0.0619 0.0155,-0.17836 -0.048,-0.18552 -0.86668,-0.0978 -1.74376,-0.0571 -2.61403,-0.11498 -0.0484,-0.003 0.0884,-0.048 0.13699,-0.0498 0.1927,-0.007 1.02662,0.15903 1.02906,0.15946 0.01,-0.32535 0.47008,-0.31125 0.46012,0.0141 v 0 c 0.23437,0.054 0.47345,0.0907 0.70313,0.16212 0.37365,0.11614 0.41944,0.29638 0.3928,0.29946 -0.88968,0.1031 -1.7877,0.18653 -2.68264,0.15125 -0.0896,-0.004 -0.0463,-0.17316 -0.0694,-0.25975 -0.18211,-0.91131 -0.0427,0.0285 1.85521,0.86857 0.0523,0.0231 0.28364,-0.19628 0.31979,-0.24367 0.0447,-0.0586 0.18604,-0.20949 0.11519,-0.18893 -0.54407,0.15784 -1.0562,0.41009 -1.5843,0.61515 -0.23693,0.15325 -0.59874,-0.10385 0.46487,0.0254 0.0531,-0.13515 -0.11715,0.002 -0.19504,0.0103 -0.11824,0.0212 -0.28622,0.072 -0.37797,0.0506 -0.1409,0.0386 -0.28371,0.075 -0.42199,0.12488 -0.36265,0.076 -0.71208,0.20646 -1.07927,0.2639 -0.35787,0.047 -2.70925,0.11151 -1.21538,0.088 -0.41937,0.0389 -0.84081,0.057 -1.26161,0.0281 -0.54437,-0.0431 -1.09289,-0.0308 -1.6379,-0.0561 -0.92001,0.0359 0.93325,0.031 -0.0683,0.0219 -0.0542,-5.1e-4 -0.10843,-0.003 -0.16264,-0.004 -0.46834,-0.0282 -0.93812,-0.01 -1.40541,-0.049 -0.25694,-0.0113 -0.97417,0.0292 0.13182,0.009 -0.20557,7.7e-4 -0.41062,0.0163 -0.61486,-0.0185 -0.37406,-0.002 -0.69171,-0.0507 -1.03946,0.032 -0.3586,0.0492 -0.48476,-0.0308 0.21172,0.0595 0.0688,0.009 -0.13823,0.0126 -0.20753,0.016 -0.1928,0.01 -0.28542,0.005 -0.47977,0.002 -0.66388,-0.0218 -1.32803,-0.0174 -1.99192,-0.0374 -0.20366,-0.006 -1.78457,0.0243 -0.58464,0.0109 -0.4929,0.002 -0.98606,0.0185 -1.47751,0.0578 -0.83369,0.006 -1.65251,-0.0198 -2.47807,-0.1398 -0.11455,-0.005 -1.07505,-0.044 -0.53304,-0.009 1.11834,0.0724 -0.57429,-0.046 -0.70423,0.0283 -1.25686,0.0908 -2.5129,0.20423 -3.775,0.1819 -1.5632,-0.0136 -3.19942,-0.0872 -4.63996,-0.74864 -1.69533,-0.5831 -0.8707,-2.98067 0.82464,-2.39757 z"
       inkscape:connector-curvature="0" />
    <path
       style="fill:#424242;fill-opacity:1;stroke:none;stroke-width:0.25378299;stroke-opacity:1"
       id="path883"
       d="m 163.20081,133.97226 c -0.5984,-1.52155 -0.71833,-3.17204 -1.12863,-4.74717 -0.20745,-0.89597 -0.89913,-1.46739 -1.4681,-2.13804 -0.78342,-0.92746 -1.22588,-2.03582 -1.58482,-3.17897 -0.34045,-1.07 -0.48281,-2.18874 -0.83773,-3.25363 -0.32175,-0.88265 -1.06736,-1.41224 -1.78654,-1.95612 -0.94824,-0.67688 -1.66257,-1.55766 -2.22513,-2.56674 -0.29756,-0.66713 -0.5707,-1.34364 -1.10879,-1.85237 -0.58641,-0.46959 -1.17447,-0.93616 -1.74917,-1.42026 -0.58959,-0.48396 -1.08241,-1.06319 -1.48549,-1.70818 -0.29265,-0.58152 -0.64597,-1.10395 -1.10068,-1.56848 -0.48783,-0.51497 -1.08481,-0.90017 -1.66932,-1.29355 -0.61065,-0.33441 -1.17375,-0.74033 -1.73323,-1.15173 -0.48901,-0.3128 -1.02304,-0.5426 -1.56547,-0.74479 -0.59848,-0.21974 -1.22595,-0.3453 -1.86299,-0.362 1.12925,-0.0335 0.32816,-0.002 0.0886,-0.361 -0.39556,-0.59386 0.3686,0.0814 -0.50861,-0.56706 -0.19221,0.31405 -0.63635,0.0422 -0.44415,-0.27181 v 0 c -0.25288,-0.69435 -0.26303,-0.3728 -0.0711,-0.98808 0.0302,-0.097 0.0362,-0.20581 0.0924,-0.29041 0.30296,-0.45594 1.34053,-0.34127 1.63888,-0.38145 1.03353,0.0239 2.0043,0.31213 2.87738,0.87873 0.51041,0.34406 0.99987,0.72172 1.54981,1.00298 0.66373,0.34035 1.3231,0.69423 1.92384,1.1399 0.77172,0.54283 1.52203,1.133 2.06996,1.91266 0.3791,0.57569 0.67635,1.18733 0.98087,1.80359 0.36222,0.44098 0.86758,0.71829 1.29951,1.08344 0.7159,0.6029 1.42778,1.23957 1.82524,2.10726 0.31609,0.67452 0.59882,1.37139 1.01192,1.99423 0.55833,0.78042 1.25912,1.43294 1.92571,2.11931 0.80151,0.85353 1.58419,1.74444 2.03097,2.84322 0.4125,1.08205 0.66867,2.20642 0.94756,3.32865 0.25865,0.92923 0.56695,1.85089 1.11087,2.6578 0.64712,0.86969 1.51136,1.57213 1.98288,2.57038 0.10558,0.25846 0.22782,0.51072 0.31675,0.77537 0.49086,1.46068 0.58977,3.07374 0.12444,4.55008 0.0242,1.03783 -1.4435,1.07207 -1.46771,0.0342 z"
       inkscape:connector-curvature="0" />
    <path
       style="fill:#424242;fill-opacity:1;stroke:none;stroke-width:0.25378299;stroke-opacity:1"
       id="path942"
       d="m 89.030698,135.42976 c -0.07231,-0.23305 -0.167598,-0.46018 -0.216929,-0.69916 -0.330428,-1.60071 -0.10399,-3.32991 0.0537,-4.93706 0.111995,-1.33995 0.404183,-2.64923 0.869949,-3.90816 0.489146,-1.09267 0.966681,-2.18959 1.430684,-3.29325 0.527763,-1.29666 1.057619,-2.5939 1.540454,-3.90813 0.266815,-0.77973 0.622665,-1.52286 0.973987,-2.26662 0.38423,-0.78554 0.858445,-1.52034 1.35299,-2.23976 0.46609,-0.62614 0.85215,-1.30235 1.215849,-1.99114 0.405396,-0.7866 0.88457,-1.52784 1.402303,-2.24411 0.38621,-0.52532 0.847755,-0.98684 1.291471,-1.46221 0.371922,-0.38259 0.705398,-0.79991 1.063074,-1.1957 0.39771,-0.47906 0.82153,-0.93343 1.29811,-1.33449 0.3458,-0.28928 0.69469,-0.57154 1.08119,-0.80474 0.53886,-0.34652 1.14371,-0.5264 1.77078,-0.62625 0.0944,-0.009 0.1885,-0.0206 0.28309,-0.0265 0.007,-5.1e-4 0.72349,-0.0229 0.65878,0.044 -0.0601,0.0623 -0.14228,0.0987 -0.21342,0.14801 0.378,1.7288 0.0624,2.01958 0.60599,1.13584 -0.18066,0.19657 -0.45864,-0.0589 -0.27798,-0.25549 v 0 c 0.77752,-1.01668 0.35324,-0.79385 1.01709,1.01614 -0.34657,0.2221 -0.68131,0.36893 -1.09849,0.41227 -0.44032,0.0593 -0.8852,0.081 -1.31553,0.1977 -0.044,0.0112 -0.0871,0.027 -0.13206,0.0336 -0.0246,0.004 -0.0448,-0.0401 -0.068,-0.0309 -0.11478,0.0456 -0.1415,0.25626 -0.24519,0.30875 -0.37511,0.5107 -0.77789,1.00387 -1.22863,1.45 -0.36173,0.32492 -0.77261,0.60118 -1.08475,0.97541 -0.34703,0.44689 -0.59459,0.96138 -0.91952,1.42388 -0.452873,0.65966 -0.955632,1.28662 -1.350011,1.98451 -0.427789,0.73048 -0.755946,1.51755 -1.229832,2.22243 -0.441319,0.65907 -0.94979,1.26463 -1.41972,1.90292 -0.351417,0.59579 -0.38787,1.28161 -0.523804,1.94869 -0.363554,1.50715 -0.826421,2.98685 -1.591965,4.34567 -0.562947,0.98654 -1.213187,1.91365 -1.797063,2.88507 -0.381167,1.06448 0.128564,2.23746 -0.01474,3.33609 -0.05681,1.64492 -0.185899,3.3997 -0.826635,4.93964 -0.08974,0.21569 -0.220281,0.41205 -0.33042,0.61808 -0.07421,1.43176 -2.099039,1.32682 -2.02483,-0.10495 z"
       inkscape:connector-curvature="0" />
    <path
       style="fill:#424242;fill-opacity:1;stroke:none;stroke-width:0.25378299;stroke-opacity:1"
       id="path948"
       d="m 115.94567,120.8399 c -0.16578,-0.2107 -0.34699,-0.41013 -0.49735,-0.63212 -1.05289,-1.55436 -1.7729,-3.34254 -2.61301,-5.01442 -0.48448,-1.22409 -1.38468,-2.18935 -2.07682,-3.28196 -0.38964,-0.61714 -0.39855,-1.32298 -0.5002,-2.01627 -0.0198,-0.0382 -0.0326,-0.0808 -0.0593,-0.11443 -0.13581,-0.17146 -0.36046,-0.31399 -0.51358,-0.46649 -0.18746,-0.18671 -0.39818,-0.43366 -0.57187,-0.63151 -0.51225,-0.55929 -0.898,-1.1973 -1.20077,-1.88819 -0.19758,-0.43416 -0.51455,-0.78847 -0.8027,-1.16109 -0.222,-0.27068 -0.38103,-0.57827 -0.51438,-0.89901 -0.18366,-0.35075 -0.10459,-0.72597 -0.11002,-1.09751 0.0515,-0.41396 0.0908,-0.50123 0.52141,-0.57741 0.13592,-0.006 0.27184,-0.011 0.40776,-0.0166 -0.0387,-0.41155 0.54334,-0.46625 0.58201,-0.0547 v 0 c 0.13686,0.003 0.27372,0.006 0.41058,0.009 0.48077,0.0858 0.50468,0.23941 0.54345,0.69524 -0.008,0.15342 -0.016,0.30402 -0.037,0.45623 -0.005,0.0346 -0.009,0.13858 -0.0142,0.10399 -0.10142,-0.6725 0.0961,0.0451 -0.1184,-0.63468 0.0101,-0.23268 0.71471,0.65911 0.72933,0.70262 0.28197,0.46379 0.48383,0.9661 0.73424,1.44636 0.36209,0.49504 0.80694,0.9243 1.17696,1.41366 0.56437,0.73311 1.08909,1.52044 1.20403,2.46187 0.0366,0.32876 0.0132,0.67086 0.28581,0.90038 1.08932,0.9906 2.16554,2.00807 2.97707,3.24912 1.05871,1.71613 2.0623,3.61034 2.26279,5.65665 0.0266,0.27146 -0.005,0.54552 -0.007,0.81828 0.40548,1.5549 -1.79347,2.12834 -2.19896,0.57344 z"
       inkscape:connector-curvature="0" />
    <path
       style="fill:#424242;fill-opacity:1;stroke:none;stroke-width:0.25378299;stroke-opacity:1"
       id="path954"
       d="m 109.76713,133.89412 c -0.1408,-2.00877 0.57274,-3.9544 1.31223,-5.78834 0.61072,-1.46169 1.41552,-2.82749 2.29461,-4.14114 0.62388,-0.94458 1.35276,-1.806 2.13807,-2.61827 0.62713,-0.64167 1.34642,-1.16657 2.14181,-1.57647 0.30329,-0.12231 0.69372,-0.31335 1.02707,-0.14735 0.14245,0.0709 0.24681,0.20095 0.37022,0.30142 0.84243,-0.23798 1.17898,0.9534 0.33656,1.19138 v 0 c 0.24101,0.4244 0.29296,0.43599 -0.13965,0.67232 -0.54411,0.31701 -1.08629,0.6537 -1.50034,1.13708 -0.63322,0.77223 -1.20048,1.59867 -1.75479,2.42838 -0.74095,1.15918 -1.22906,2.43948 -1.67054,3.73899 -0.59307,1.80794 -1.10514,3.6942 -2.14505,5.30586 -0.35628,1.70426 -2.76648,1.2004 -2.4102,-0.50386 z"
       inkscape:connector-curvature="0" />
    <path
       style="fill:#424242;fill-opacity:1;stroke:none;stroke-width:0.25378299;stroke-opacity:1"
       id="path956"
       d="m 103.80986,104.91395 c 1.04386,-0.83444 2.36841,-1.31412 3.69921,-1.39629 0.62977,0.0805 0.23109,0.01 1.17576,0.30633 0.95706,0.31066 0.51771,1.66413 -0.43934,1.35348 v 0 c 0.73763,0.27744 0.79283,0.0507 0.53961,0.44599 -1.08708,0.84296 -2.51018,1.22886 -3.87342,1.2059 -1.3544,0.7791 -2.45623,-1.13631 -1.10182,-1.91541 z"
       inkscape:connector-curvature="0" />
    <path
       style="fill:#424242;fill-opacity:1;stroke:none;stroke-width:0.25644204;stroke-opacity:1"
       d="m 107.20011,105.32685 c -1.96581,0.50107 -4.36779,0.55419 -5.5676,2.47427 -2.75773,2.71811 -4.439101,6.27948 -6.532272,9.48885 -0.815953,1.6742 -0.828307,3.63745 -1.819264,5.27287 -0.836684,2.04847 -2.804558,3.72136 -2.298051,6.12925 0.130475,2.06599 -0.322147,4.12533 -0.369921,6.14212 1.233075,1.40882 3.349481,0.29852 4.984057,0.46479 4.824141,-0.38344 9.727021,-0.27686 14.508561,-0.9942 1.28064,-0.9249 0.64148,-2.78178 1.40042,-4.04497 1.15129,-3.26215 3.0479,-6.21746 5.217,-8.8629 0.50785,-1.44377 -1.14859,-2.58529 -1.51613,-3.94117 -1.11964,-2.74835 -3.10644,-5.05972 -4.05899,-7.86506 -0.84539,-1.34646 -1.83556,-2.62431 -2.79382,-3.87919 -0.32163,-0.26109 -0.73611,-0.41811 -1.15399,-0.38466 z m 6.91993,15.56734 c 1.71743,0.15937 0.61402,2.88622 -0.73276,1.79208 -0.77971,-0.5843 -0.23443,-1.92173 0.73276,-1.79208 z"
       id="path958"
       inkscape:connector-curvature="0" />
    <path
       style="fill:#424242;fill-opacity:1;stroke:none;stroke-width:0.25644204;stroke-opacity:1"
       d="m 140.19299,103.85081 c -3.06236,4.83432 -5.2099,10.25933 -8.49615,14.99034 -0.67789,1.79758 1.57194,2.80501 2.33653,4.21326 2.28803,3.16071 4.5678,6.308 6.16462,9.88454 0.19377,2.09361 2.80919,1.78963 4.3241,1.9844 6.1027,0.19469 12.23089,0.4696 18.32895,0.17733 1.67179,-0.20723 1.42349,-2.10277 0.94916,-3.23719 -0.37488,-2.12667 -0.93411,-4.29516 -2.55292,-5.84848 -1.71521,-2.40914 -1.17009,-5.94871 -3.74461,-7.82836 -2.13733,-1.73101 -3.09247,-4.47445 -5.32603,-6.09564 -1.86682,-2.05472 -3.4556,-4.48563 -6.05794,-5.71585 -1.10632,-0.82747 -2.55783,-1.01626 -3.67183,-1.71997 -0.57492,-0.67191 -1.35129,-1.29253 -2.25388,-0.80438 z"
       id="path960"
       inkscape:connector-curvature="0" />
    <path
       style="fill:#424242;fill-opacity:1;stroke:none;stroke-width:0.25644204;stroke-opacity:1"
       d="m 117.46381,147.92829 c -3.41005,6.1668 -6.85002,12.31976 -10.24617,18.49338 -0.48245,2.02808 2.01723,1.92905 3.31816,2.23099 3.40299,0.77751 6.7912,1.80527 10.32883,1.58583 3.01943,-0.0438 6.04497,0.0724 8.97301,0.85172 3.92025,0.59614 7.60716,-1.34831 11.49732,-1.34932 1.78168,-0.43578 4.0874,-0.36162 5.3398,-1.8727 0.71309,-1.44091 -1.183,-2.07406 -1.53375,-3.27668 -0.703,-1.71066 -2.47691,-2.52977 -3.16896,-4.25584 -1.2738,-2.60093 -2.27561,-5.39129 -4.32917,-7.5243 -1.51358,-1.65868 -2.66715,-3.70899 -4.26314,-5.23669 -1.88638,-0.39011 -3.75064,0.74345 -5.67728,0.54293 -2.96958,-0.134 -6.1377,0.52538 -8.94335,-0.64867 -0.56264,-0.19177 -0.8736,0.14801 -1.2953,0.45935 z"
       id="path962"
       inkscape:connector-curvature="0" />
    <path
       style="fill:#424242;fill-opacity:1;stroke:none;stroke-width:0.25644204;stroke-opacity:1"
       d="m 114.5027,120.65327 c -1.56067,-0.0462 -2.84958,2.13705 -1.27169,3.08832 1.70883,1.00274 4.01218,-2.06115 1.89126,-3.02121 -0.20569,-0.0291 -0.40749,-0.11355 -0.61957,-0.0671 z"
       id="path964"
       inkscape:connector-curvature="0" />
  </g>
</svg>
