<?xml version="1.0" encoding="UTF-8" standalone="no"?>
<!-- Created with Inkscape (http://www.inkscape.org/) -->

<svg
   xmlns:dc="http://purl.org/dc/elements/1.1/"
   xmlns:cc="http://creativecommons.org/ns#"
   xmlns:rdf="http://www.w3.org/1999/02/22-rdf-syntax-ns#"
   xmlns:svg="http://www.w3.org/2000/svg"
   xmlns="http://www.w3.org/2000/svg"
   xmlns:sodipodi="http://sodipodi.sourceforge.net/DTD/sodipodi-0.dtd"
   xmlns:inkscape="http://www.inkscape.org/namespaces/inkscape"
   width="1024"
   height="1024"
   viewBox="0 0 135.46667 135.46667"
   version="1.1"
   id="svg8"
   inkscape:version="0.92.4 (5da689c313, 2019-01-14)"
   sodipodi:docname="warning.svg"
   inkscape:export-filename="C:\Users\panu-\PycharmProjects\nextgame\data\images\decals\warning.png"
   inkscape:export-xdpi="10.173375"
   inkscape:export-ydpi="10.173375">
  <defs
     id="defs2" />
  <sodipodi:namedview
     id="base"
     pagecolor="#ffffff"
     bordercolor="#666666"
     borderopacity="1.0"
     inkscape:pageopacity="0.0"
     inkscape:pageshadow="2"
     inkscape:zoom="0.34988737"
     inkscape:cx="312.96644"
     inkscape:cy="419.94685"
     inkscape:document-units="mm"
     inkscape:current-layer="layer4"
     showgrid="false"
     units="px"
     width="1024px"
     inkscape:window-width="1920"
     inkscape:window-height="1017"
     inkscape:window-x="-8"
     inkscape:window-y="-8"
     inkscape:window-maximized="1"
     inkscape:pagecheckerboard="true" />
  <metadata
     id="metadata5">
    <rdf:RDF>
      <cc:Work
         rdf:about="">
        <dc:format>image/svg+xml</dc:format>
        <dc:type
           rdf:resource="http://purl.org/dc/dcmitype/StillImage" />
        <dc:title></dc:title>
      </cc:Work>
    </rdf:RDF>
  </metadata>
  <g
     inkscape:groupmode="layer"
     id="layer4"
     inkscape:label="lines 4"
     style="display:inline">
    <path
       style="fill:#d5d52a;fill-opacity:1;stroke:none;stroke-width:0.37809786;stroke-opacity:1"
       d="m 67.458333,8.3752181 c -2.407864,0.235331 -5.221811,0.019659 -7.257706,1.4001432 -0.846648,1.9494527 -2.194317,3.4586177 -3.512174,5.0334277 -1.955382,3.733824 -3.117427,7.908367 -5.651529,11.312657 C 46.68797,32.55896 42.642224,39.2291 39.021943,46.049813 32.765182,56.368851 27.48716,67.219164 21.772002,77.83002 c -2.09505,3.738951 -4.836962,7.175894 -6.271848,11.295673 -1.997284,3.382598 -3.510832,7.073352 -6.2509394,9.962131 -2.3937278,3.694406 -5.3022844,7.257716 -6.6331861,11.498616 0.026273,2.80443 -1.2586759,5.96487 0.6424691,8.51606 1.8307474,2.86327 4.7749671,5.26067 8.0005344,6.16892 2.412992,0.21021 5.165526,-0.58083 7.426894,0.26465 2.756656,1.04246 5.903679,0.0829 8.7934,0.25636 9.984957,-0.49684 19.942312,-0.69482 29.922494,-0.27334 13.336153,-0.0536 26.715584,-0.0162 40.003046,-1.25393 6.617924,-0.93103 13.347794,-0.0301 20.005464,0.0688 2.63604,0.30609 5.2811,0.39348 7.79359,-0.61006 2.20185,-0.3699 4.78961,-0.49264 5.92402,-2.80545 1.40433,-1.92489 3.34784,-3.80276 2.62064,-6.42019 -0.26889,-3.97209 0.356,-8.24629 -1.64585,-11.86808 C 130.5403,95.458678 124.84063,90.326401 121.6851,83.952695 118.65243,77.983917 114.93486,72.35637 110.13539,67.656087 103.95534,60.356288 97.252906,52.706099 95.237447,43.07751 92.953797,36.029245 88.35958,30.115364 83.996521,24.258777 81.785145,20.412341 79.593286,16.527724 77.926916,12.421308 75.817184,8.5121743 71.380138,8.2857942 67.458333,8.3752181 Z m -9.095026,4.8731779 c 0.01537,-0.01106 0.06715,-0.01061 0,0 z m 1.046414,21.16388 c 3.518908,0.149477 6.816924,1.751902 10.396218,1.584024 3.753725,0.345331 7.916674,0.03294 11.447798,0.802719 -0.422653,1.301094 1.238562,1.955186 1.756823,2.524098 -1.322465,4.433102 -2.343111,8.943795 -3.521774,13.412137 -2.607222,7.248919 -5.437267,14.479733 -7.78097,21.871754 -1.457952,3.514069 -2.403485,7.454921 -4.633486,10.531674 -0.955056,0.702736 -1.752193,0.0594 -1.575165,-1.062662 C 64.406319,74.0755 60.284759,64.743569 57.567695,55.128622 56.275499,50.37171 54.277006,45.300798 55.455941,40.345901 c 1.406428,-1.181224 0.752486,-3.033421 -0.0052,-4.323754 1.116092,-1.126498 2.28681,-1.769743 3.958947,-1.609871 z m 5.413005,59.095512 c 1.926881,0.165897 3.483578,1.551115 5.472819,1.505747 3.357165,0.927449 6.384459,3.42088 6.86336,7.038375 0.957678,4.30752 -1.971712,8.82637 -5.600573,10.91758 -4.384916,1.08477 -9.85684,0.12222 -12.800682,-3.50848 -2.331198,-4.96207 0.755301,-10.118529 2.897029,-14.536092 0.564303,-1.203383 1.960893,-1.50559 3.168047,-1.41713 z"
       id="path943"
       inkscape:connector-curvature="0" />
  </g>
  <g
     inkscape:groupmode="layer"
     id="layer1"
     inkscape:label="lines 2"
     style="display:inline">
    <path
       style="fill:#424242;fill-opacity:1;stroke:none;stroke-width:0.26458332;stroke-opacity:1"
       id="path891"
       d="m 59.77738,10.514324 c -0.47414,2.249789 -1.76557,4.199882 -2.83899,6.199602 -0.76959,1.515965 -1.14389,3.181496 -1.7458,4.76413 -0.64775,1.622595 -1.63065,3.068521 -2.57122,4.529217 -1.07543,1.625256 -2.14203,3.256119 -3.22292,4.877787 -1.29323,1.931204 -2.60745,3.84819 -3.90821,5.774325 -1.13574,1.680461 -1.96315,3.542829 -2.86608,5.352928 -1.05117,2.162648 -2.286139,4.223841 -3.551298,6.265701 -1.450705,2.33977 -2.72706,4.78133 -4.027574,7.20612 -1.156827,2.24567 -2.509288,4.37896 -3.849714,6.51691 -1.002843,1.63696 -1.709471,3.4301 -2.484014,5.18082 -1.103236,2.36885 -2.373337,4.65383 -3.560273,6.98095 -1.098204,2.31047 -2.288022,4.57245 -3.653171,6.73637 -0.814684,1.341 -1.840616,2.53056 -2.786452,3.7761 -0.569206,0.53234 -0.689385,1.1721 -0.892212,1.88401 -0.276936,1.25328 -0.857657,2.39961 -1.498761,3.50046 -0.545023,0.85301 -1.148273,1.66479 -1.538168,2.60334 -0.535038,1.68807 -1.40615,3.21635 -2.457588,4.6302 -0.865174,0.92706 -1.743213,2.14248 -2.9954781,2.58018 0.2217,-0.86586 0.160481,-1.00484 -0.121568,-1.88419 -0.01614,-0.0503 -0.107444,-0.17808 -0.0673,-0.14366 0.325519,0.2791 0.383913,0.56928 0.564957,0.97032 0.210386,0.99423 -0.140274,1.821426 -0.72875,2.593856 -0.298381,0.32167 -0.511138,0.70281 -0.714976,1.08833 -0.315214,0.61912 -0.680537,1.2063 -1.126998,1.73873 -0.04339,-0.10226 -0.210121,0.31489 -0.255796,0.21362 -0.02011,-0.0446 0.03665,-0.19229 0.02768,-0.14418 -0.01037,0.0556 -0.01979,0.11138 -0.02967,0.16707 -0.131945,0.64539 -0.443362,1.20111 -0.876837,1.68814 -0.571513,0.5864 2.44e-4,-0.20106 -0.442857,0.36858 -0.841843,0.91807 0.0552,0.0251 -0.01667,-0.0901 -0.07845,-0.12578 -0.242041,-0.17122 -0.363062,-0.25684 -0.385021,-0.0805 -0.770043,-0.16108 -1.155065,-0.24163 -0.06671,0.19477 -0.342154,0.10043 -0.275444,-0.0943 v 0 c -0.343699,-0.18027 -0.687396,-0.36053 -1.031095,-0.5408 -0.317658,-0.44079 -0.38709,-0.27754 -0.186925,-0.61609 0.02956,-0.05 0.637328,-0.89427 0.348573,-0.40472 -0.06643,0.11263 -0.164577,0.20324 -0.246865,0.30486 -0.230978,0.31951 0.179216,-0.39222 0.239189,-0.47262 0.0574,-0.0812 0.45915,-0.66935 0.47036,-0.37848 0.186124,-0.42835 0.166788,-0.94819 0.421598,-1.35747 0.304858,-0.5545 0.685557,-1.05707 1.044321,-1.57732 0.310322,-0.46423 0.636598,-0.915116 0.939908,-1.383596 0.495935,-0.63428 0.31132,-0.21532 0.473361,0.36554 0.072,0.13933 0.135718,0.283256 0.215995,0.417976 0.03157,0.053 0.159505,0.1881 0.117973,0.14251 -0.721164,-0.791626 -0.773695,-1.779486 -0.334973,-2.716936 0.517887,-1.06047 1.340715,-1.91025 2.055135,-2.8382 0.9261,-1.14099 1.9107731,-2.25901 2.5555151,-3.5925 0.481261,-1.01259 0.983718,-2.01292 1.569712,-2.97025 0.503526,-0.89761 1.046692,-1.77646 1.468647,-2.7165 0.343124,-0.95129 0.612364,-1.93146 1.09388,-2.82725 0.708136,-1.26072 1.354748,-2.55481 2.019728,-3.83857 1.080069,-2.25186 2.116217,-4.52461 3.241263,-6.75485 1.195435,-2.32275 2.495801,-4.5858 3.841974,-6.82434 0.950045,-1.68108 1.930728,-3.354 2.650355,-5.15094 0.967367,-2.34714 2.022375,-4.65576 3.253566,-6.87823 1.380733,-2.53248 2.834526,-5.02823 4.496932,-7.388578 1.283578,-1.872691 2.512639,-3.7769 3.557847,-5.795743 1.019849,-1.88586 2.009531,-3.788095 3.058551,-5.658058 1.241174,-2.080546 2.658044,-4.053626 4.146504,-5.963957 1.2047,-1.498622 2.45469,-2.963424 3.56395,-4.535983 0.8916,-1.223962 1.70592,-2.503387 2.40587,-3.847475 0.78495,-1.571501 1.28499,-3.177688 1.77392,-4.862888 1.0039,-2.431844 2.30777,-4.63382 4.63091,-6.0204456 0.95393,-1.537684 3.12854,-0.188627 2.17461,1.3490576 z"
       inkscape:connector-curvature="0" />
    <path
       style="fill:#424242;fill-opacity:1;stroke:none;stroke-width:0.26458332;stroke-opacity:1"
       id="path897"
       d="m 5.9979089,105.27083 c -0.333153,1.75466 -1.431933,3.2004 -2.219931,4.76603 -0.360034,0.69736 -0.252047,1.4513 -0.202843,2.2028 0.07513,1.05761 0.01479,2.1083 -0.210897,3.14432 -0.01982,0.40412 -0.28835,0.7993 -0.25292,1.20677 0.0053,0.0248 0.04295,0.24296 0.08139,0.27212 0.02363,0.0179 0.06147,-0.0278 0.08779,-0.0142 0.267618,0.13854 0.49572,0.59052 0.654981,0.81596 0.571418,0.76289 0.918295,1.65045 1.375907,2.47616 0.198258,0.48461 0.497438,0.8256 0.892773,1.14647 0.385935,0.32736 0.83964,0.54397 1.265881,0.81069 0.485135,0.26851 0.963697,0.54118 1.442773,0.82153 0.574437,0.24952 1.0988671,0.58537 1.6304711,0.91139 0.210613,0.20912 0.339471,0.14208 0.570076,0.176 0.510448,0.0663 1.011349,0.19591 1.527638,0.20216 -0.772117,-0.0278 1.386758,-0.0171 0.675296,-0.0748 -1.842058,-0.14937 -0.883256,-0.0139 -0.423484,-0.0282 0.871995,-8e-4 1.74816,-0.04 2.609067,0.11656 1.412113,-0.13186 -1.826445,0.0925 -0.05878,-0.14579 1.098306,-0.11577 2.196843,0.009 3.297269,0.0384 0.972968,0.0644 0.740119,1.13357 0.747191,1.86074 0.738918,0.37148 0.213559,1.41647 -0.525359,1.04498 v 0 c -0.278448,0.90199 -0.386649,1.68315 -1.427927,1.76634 2.365777,0.0958 -0.384202,0.1181 -0.837351,0.0504 -0.852556,-0.0949 -1.711087,-0.0466 -2.559502,-0.15764 -1.564762,0.12122 1.680083,0.011 0.18388,0.0816 -1.184069,0.0901 -2.391577,0.14078 -3.550536,-0.15916 -0.637271,-0.1752 -1.2669921,-0.37599 -1.8525391,-0.68831 -0.376044,-0.18904 -0.741976,-0.39755 -1.140595,-0.54058 -0.646398,-0.31627 -1.281316,-0.65747 -1.820447,-1.14245 -0.44781,-0.31913 -0.939906,-0.57269 -1.395338,-0.88147 -0.678791,-0.44191 -1.294263,-0.97637 -1.808189,-1.60463 -0.426225,-0.57468 -0.797386,-1.1844 -1.195404,-1.77874 -0.530047,-0.84211 -1.11187398,-1.66185 -1.46867798,-2.59828 -0.304398,-0.76319 -0.603149,-1.53303 -0.647078,-2.36389 -0.116491,-0.77605 -0.182586,-1.5568 2.65e-4,-2.33112 0.15984,-0.74096 0.448161,-1.46429 0.433509,-2.23408 -0.07306,-1.16489 -0.280803,-2.32971 -0.07897,-3.49658 0.482324,-2.04526 1.46678298,-3.96429 3.19902398,-5.22801 1.100595,-2.1224 4.102118,-0.56592 3.00152,1.55648 z"
       inkscape:connector-curvature="0" />
    <path
       style="fill:#424242;fill-opacity:1;stroke:none;stroke-width:0.26458332;stroke-opacity:1"
       id="path899"
       d="m 17.776905,125.26213 c 1.675868,-0.52705 3.440051,-0.46457 5.160163,-0.23699 -0.286504,0.0229 -0.577924,0.0111 -0.859515,0.0687 -0.224782,0.046 0.459907,0.0483 0.68792,0.0228 0.454816,-0.0508 0.91187,-0.1725 1.358037,-0.26903 1.610476,-0.41938 3.267361,-0.53942 4.924316,-0.5696 1.2611,-0.0821 2.512238,0.0603 3.768617,0.10845 0.225422,0.009 0.891392,-0.0544 0.676606,0.0146 -0.0083,0.003 -1.700604,0.008 -0.160745,0.003 0.980368,-0.0207 1.948201,-0.18786 2.927948,-0.21931 0.600575,-0.0117 1.454224,-0.0322 1.92532,0.0102 0.254603,0.0229 0.519803,0.3585 0.755856,0.17614 1.340181,-0.34644 -1.552265,-0.19872 -0.408892,-0.10787 0.953391,-0.1649 1.92352,-0.12345 2.883444,-0.23407 1.12138,-0.15753 2.25108,-0.12495 3.37899,-0.10229 -0.28394,0.009 -0.56927,-0.001 -0.85181,0.0283 -0.10682,0.0112 0.33447,0.0131 0.89344,0.0171 0.9835,0.007 1.95939,0.0192 2.94108,0.0445 0.769,0.0169 1.53819,-0.002 2.30726,10e-5 0.18724,5.3e-4 0.74716,-0.0193 0.56168,0.006 -0.28098,0.0388 -0.56686,0.0224 -0.8503,0.0335 1.49173,-0.16894 2.78277,0.23957 4.17982,0.60719 0.35961,0.12123 3.33191,0.0286 1.05474,-0.0791 1.20015,-0.0948 2.40283,-0.13828 3.6059,-0.17315 1.23121,0.0226 2.48083,-0.0676 3.70486,0.0848 0.73226,0.18407 1.46242,0.0997 2.20173,0.0377 0.15462,-0.0109 0.61788,-0.0154 0.46384,-0.0326 -0.28952,-0.0324 -0.58297,0.002 -0.87388,-0.0132 -0.16929,-0.009 0.33904,-0.004 0.50856,-0.006 0.49629,-0.006 0.99005,-2e-5 1.48611,0.0152 1.31809,-0.001 2.63672,0.0204 3.95469,0.004 0.35067,-0.0867 3.41911,0.0126 1.15347,-0.0584 -0.1759,-0.005 0.35198,-5.3e-4 0.52797,-7.9e-4 1.53241,0.0326 3.06391,-0.0282 4.59609,-0.0509 0.16873,-0.0419 2.13302,-0.0533 2.13679,-0.10244 0.0192,-0.24975 -0.56033,0.14649 -0.75132,-0.0156 -0.17633,-0.14964 0.46207,-0.0212 0.69299,-0.0339 0.23705,-0.013 0.47393,-0.0289 0.71089,-0.0433 1.77636,-0.15958 3.55503,-0.13205 5.33611,-0.11738 0.18143,0.0129 0.36279,0.0268 0.54429,0.0386 0.54442,0.0354 1.07718,0.0339 1.62211,0.005 0.20964,-0.011 0.79703,0.0867 0.6286,-0.0386 -0.20286,-0.15093 -0.50428,-0.0377 -0.75642,-0.0565 1.46507,-0.0805 2.92239,-0.24284 4.38631,-0.33875 1.11658,-0.003 2.23378,-0.0111 3.35006,0.0217 0.5219,0.0153 0.99783,0.0846 1.52107,0.0342 -0.33149,-0.01 -0.66675,0.0221 -0.99445,-0.0288 -0.13223,-0.0205 0.2655,-0.0358 0.39629,-0.064 0.1576,-0.0341 0.31313,-0.0776 0.46788,-0.12287 0.6558,-0.19195 1.30125,-0.4039 1.96215,-0.57974 1.65505,-0.40494 3.43947,-0.61883 5.11249,-0.1853 0.29124,0.10223 0.58241,0.15748 0.88793,0.0993 0.0716,-0.0136 0.28384,-0.051 0.21118,-0.0561 -0.36086,-0.0255 -0.72361,0.003 -1.08527,-0.006 -0.0914,-0.002 0.1827,-0.009 0.27405,-0.0137 1.05138,-0.10717 2.10706,-0.0831 3.16251,-0.0809 0.34476,0.15947 0.65213,0.0788 1.00624,0.0494 0.45313,-0.0368 0.7101,-0.0529 -0.88668,-0.0137 -0.0608,0.002 0.12085,0.0134 0.18117,0.0209 0.12911,0.0162 0.25669,0.0387 0.38491,0.0604 0.59188,0.0388 1.21034,0.12365 1.78667,-0.028 0.0678,-0.0124 0.13505,-0.0278 0.2033,-0.0372 0.17387,-0.0239 1.98143,-0.0934 1.02192,-0.0503 -0.67925,0.0305 -1.27076,-0.004 -0.41909,0.0332 1.13555,0.10665 2.26694,0.072 3.40633,0.0564 0.94574,-0.008 1.87238,0.18488 2.80351,0.32077 -0.70669,0.096 1.72508,0.0514 0.96512,0.0304 -1.84689,-0.0509 -0.45263,-0.0136 -0.0685,-0.0256 1.09239,0.0477 2.23113,-0.11736 3.30524,0.0946 0.43094,0.14117 0.82439,0.21351 1.27195,0.15409 -1.94485,-0.0905 -0.41511,-0.0124 0.0411,0.0674 0.55916,0.087 1.13146,0.0465 1.69658,0.0506 1.34269,0.0666 -1.39964,0.004 -0.16648,0.0186 0.16137,-0.004 0.31359,0.0323 0.45118,0.109 2.67324,-0.69103 3.65051,3.08948 0.97728,3.78052 v 0 c -0.0963,0.0925 -0.24631,0.11213 -0.38576,0.11294 -0.66041,0.0131 -1.32268,-0.0215 -1.98299,0.0146 -1.03141,-0.031 1.20073,-0.0963 0.61912,0.0412 -0.793,0.2458 -1.6441,0.15457 -2.45929,0.13797 -0.45231,-0.0521 -0.92224,-0.18997 -1.37173,-0.0894 -0.49641,0.11217 -0.10588,0.009 0.72775,0.0553 0.0933,0.005 -0.18651,0.0122 -0.27972,0.019 -0.46654,0.0338 -0.17962,0.0165 -0.67813,0.0493 -0.13197,0.009 -0.26399,0.0165 -0.39599,0.0247 -1.32029,0.0705 -2.64658,0.10984 -3.96398,-0.0277 -0.77308,-0.0769 -1.54532,-0.17481 -2.32191,-0.20515 2.16288,-0.0558 -0.58487,-0.005 -0.94214,0.0589 -1.09916,0.0507 -2.22167,0.11943 -3.31187,-0.0578 -1.08959,-0.30004 1.39315,-0.0805 0.81472,-0.0303 -0.77275,0.19993 -1.57926,0.16233 -2.37203,0.1031 -0.13666,-0.0123 -0.98144,-0.19834 -0.95635,-0.091 2.53048,-0.002 0.64199,0.0301 -0.0476,0.28118 -1.36363,0.20477 -2.68552,0.12184 -4.02128,-0.12682 -0.56886,0.076 -0.31667,0.0314 0.96912,0.066 0.0671,0.002 -0.13375,-0.0165 -0.20081,-0.0142 -0.4248,0.0149 -0.81918,0.19064 -1.2281,0.28538 -1.95082,0.65686 -3.87886,1.24007 -5.97511,1.07944 -0.20534,-0.0164 -0.84046,-0.0721 -1.08568,-0.0761 -0.14784,-0.002 -0.59107,0.004 -0.4434,0.0116 2.08056,0.10287 0.35302,-0.0516 -0.0712,0.11902 -1.59692,0.20106 -3.19116,0.502 -4.80823,0.46003 -0.72658,-0.0178 -1.45354,-0.0237 -2.17972,-0.0534 -0.90404,-0.037 -1.80191,-0.2465 -2.71148,-0.17532 0.3093,0.002 0.61923,-0.0149 0.92791,0.005 0.15247,0.01 -0.3053,0.0139 -0.45766,0.0252 -0.8493,0.0631 -1.69147,0.19805 -2.53281,0.32526 -2.00782,0.22283 -4.02839,0.23643 -6.04234,0.0789 0.2615,-0.01 0.52961,0.0298 0.7845,-0.0295 0.18176,-0.0422 -0.37283,-0.0175 -0.55937,-0.0229 -0.51175,-0.0145 -1.02273,-0.007 -1.53441,0.002 -0.17352,0.003 -0.34706,0.005 -0.52059,0.007 -1.47786,0.004 -2.958,0.0195 -4.43383,-0.0708 -0.29397,-0.009 -0.55994,-0.0198 -0.85369,-0.0215 -0.13521,-7.9e-4 -0.54082,0.004 -0.40561,0.003 1.99837,-0.0101 0.53389,-0.0157 0.12355,0.017 -1.50347,0.12246 -3.02095,0.17917 -4.5265,0.0704 -0.75022,-0.092 -1.48165,-0.26991 -2.22183,-0.3978 -0.59462,0.0286 0.0447,-0.006 0.95155,0.0351 0.0621,0.003 -0.12413,0.008 -0.18577,0.0164 -0.37118,0.0485 -0.72763,0.16436 -1.09761,0.22091 -1.31381,0.23615 -2.63689,0.36295 -3.97373,0.33961 -1.69739,-0.0122 -3.34208,0.006 -4.9355,-0.64953 -0.16132,-0.0464 -0.33803,-0.10935 -0.50924,-0.11569 -0.4332,-0.016 -1.79737,0.28475 0.12939,0.13638 -1.69151,0.0386 -3.38488,0.11056 -5.06497,-0.1454 -0.39837,-0.0449 -1.982,-0.10894 0.0277,-0.0901 0.14729,10e-4 -0.29461,0.002 -0.44188,0.005 -0.14876,0.003 -0.29743,0.0102 -0.44614,0.0153 -0.60813,0.01 -1.21627,0.0194 -1.8244,0.0291 -1.11599,0.0217 -2.234975,0.0544 -3.342261,-0.12173 -0.833567,-0.11418 -0.215884,-0.002 0.530595,-0.11935 0.258053,-0.0405 -0.495059,-0.075 -0.690933,-0.0792 -0.91427,0.14941 -1.861648,0.15682 -2.749317,-0.12363 -0.167815,-0.0579 -0.328186,-0.13688 -0.497687,-0.1897 -0.08136,-0.0254 0.123796,0.14039 0.208706,0.14768 1.083202,0.093 1.637507,-0.16713 1.173417,0.0405 -0.99999,0.38575 -2.05105,0.63018 -3.10569,0.81009 -1.7224,0.20929 -3.426603,0.0256 -5.147061,0.10452 -0.218183,0.01 0.436819,0.003 0.655227,0.004 -1.53168,0.0114 -3.057686,0.1193 -4.587025,0.19434 -0.576321,0.0167 -1.145051,-0.009 -1.720144,-0.007 -0.868196,0.003 0.102124,0.026 -0.802566,0.0882 -0.586285,0.0403 -1.17407,0.0546 -1.761103,0.0819 -1.740395,0.15279 -3.550418,0.1085 -5.130758,-0.72194 -2.831245,-0.91377 -1.538981,-4.91776 1.292265,-4.00399 z"
       inkscape:connector-curvature="0" />
    <path
       style="fill:#424242;fill-opacity:1;stroke:none;stroke-width:0.26458332;stroke-opacity:1"
       id="path903"
       d="m 121.58032,123.79315 c 1.84688,-1.11608 4.02581,-1.487 6.14829,-1.65677 0.19569,-0.005 0.59557,-0.0371 0.82319,0.0133 0.21459,0.0475 -0.0447,0.32506 0.26481,-0.18137 0.6669,-0.96189 1.43011,-1.84835 2.12681,-2.78823 0.5653,-0.743 1.13995,-1.48416 1.51099,-2.34594 0.19025,-0.4513 0.27493,-0.92368 0.27154,-1.41047 -0.074,-0.62052 -0.10237,-1.24537 -0.14068,-1.86883 -0.0897,-0.75572 0.0845,-1.50067 0.14486,-2.24946 0.009,-0.73242 -0.002,-1.4725 -0.12074,-2.19628 -0.13452,-0.2833 0.0386,-1.07207 -0.14903,-1.29662 -0.28753,-0.52671 -0.40573,-1.14293 -0.45141,-1.7363 -0.0296,-0.73271 0.1673,-1.46283 0.63804,-2.03576 -0.3395,0.20725 -0.42073,1.69939 -0.53214,1.12671 -0.13117,-0.46748 0.0832,0.65113 0.009,0.25283 -0.22315,-0.76063 -0.01,0.0553 0.62256,0.84503 0.0536,0.0669 -0.0323,-0.17166 -0.0189,-0.25629 0.0222,-0.14121 0.0825,-0.27373 0.12375,-0.41059 -1.54428,-1.69492 0.85269,-3.87887 2.39698,-2.18395 v 0 c 0.44422,-0.93024 0.0316,-0.70225 1.07468,0.61275 0.0458,0.0577 -0.0407,-0.14152 -0.0611,-0.21228 0.20134,0.23707 0.30659,0.72122 0.25145,1.00869 -0.0279,0.62026 -0.13875,1.25172 -0.51632,1.76343 0.22218,-0.29328 0.34351,-0.62635 0.4275,-0.97819 0.18506,0.36946 0.24725,0.80546 0.40952,1.1841 0.17377,0.71864 0.23637,1.41861 0.16217,2.15617 -0.0665,0.93203 0.0402,1.87346 -0.11984,2.8011 -0.0941,0.58258 -0.25536,1.1475 -0.31124,1.73135 -0.0166,0.641 0.05,1.27785 0.045,1.91882 0.006,0.83469 -0.0783,1.66672 -0.25915,2.48259 -0.35742,1.36749 -0.91461,2.64025 -1.88502,3.69501 -0.90464,0.93026 -1.85718,1.86255 -3.0577,2.40129 -0.70458,0.38503 -1.07569,1.22448 -1.83271,1.55985 -2.07623,1.12594 -4.43542,1.72243 -6.79755,1.34867 -2.18806,0.84703 -3.38595,-2.24736 -1.19788,-3.09439 z"
       inkscape:connector-curvature="0" />
    <path
       style="fill:#424242;fill-opacity:1;stroke:none;stroke-width:0.26458332;stroke-opacity:1"
       id="path909"
       d="m 80.54376,10.370914 c 1.10404,1.743282 1.93447,3.654886 2.82144,5.517211 0.67129,1.368626 1.42796,2.692376 2.14632,4.036581 0.69046,1.391317 1.58907,2.659727 2.48524,3.922837 0.89375,1.139092 1.85735,2.220142 2.72925,3.376311 0.86167,1.110422 1.63372,2.279986 2.3537,3.485472 0.62593,1.053606 1.24051,2.11287 1.82713,3.189118 0.41777,0.783117 0.928,1.509517 1.3881,2.266942 0.70045,0.999202 1.02619,2.173719 1.28278,3.349292 0.0858,0.728173 0.30338,1.41387 0.58542,2.085464 0.3184,0.710335 0.61873,1.418527 0.82024,2.171706 0.24488,0.735748 0.0401,1.548405 0.23811,2.284706 0.25354,0.52518 0.59764,1.01616 0.89049,1.52687 0.459,0.81229 0.84632,1.66123 1.22745,2.51188 0.35159,0.76892 0.83851,1.46639 1.30635,2.16788 0.51821,0.82901 1.01913,1.66858 1.51937,2.5085 0.41587,0.74932 1.01841,1.3549 1.5773,1.99415 0.63936,0.74571 1.07885,1.62677 1.63898,2.42728 0.45206,0.55616 0.90405,1.11181 1.35879,1.66573 0.49783,0.69275 1.03045,1.35869 1.58575,2.00593 0.62991,0.60208 1.24774,1.2165 1.8799,1.81615 0.72624,0.69741 1.3291,1.50553 1.98321,2.26772 0.51405,0.66096 1.02506,1.27783 1.66409,1.82016 0.76792,0.60445 1.388,1.36604 1.94022,2.1662 0.37583,0.67035 0.75673,1.3278 1.21325,1.94635 0.48372,0.63844 1.01975,1.22161 1.448,1.90087 0.45946,0.69286 0.6183,1.54734 1.11828,2.21169 0.47055,0.52049 0.83593,1.11528 1.22716,1.69411 0.60635,0.87527 1.01842,1.85731 1.45147,2.82382 0.2959,0.80742 0.75641,1.52489 1.26379,2.21236 0.54856,0.77334 1.04452,1.58309 1.51758,2.40437 0.464,0.81225 0.95153,1.60954 1.45027,2.40085 0.4323,0.69184 0.98791,1.2917 1.47144,1.94627 0.42079,0.6591 0.8704,1.30338 1.26158,1.98065 0.34255,0.5916 0.59559,1.22934 0.91362,1.83371 0.23215,0.38729 0.525,0.7311 0.7779,1.10503 0.36659,0.58417 0.61657,1.23331 0.78308,1.90069 0.0195,0.0859 0.0398,0.17157 0.0583,0.25764 0.0917,0.42499 -0.15526,-0.22361 0.0435,0.10496 0.3249,0.45973 0.48928,1.0097 0.61895,1.55113 0.0547,0.0213 0.11846,1.468266 0.0732,0.925466 -0.08,-0.396906 0.34034,0.77719 0.34493,0.79172 0.12084,0.41132 0.24693,0.82319 0.33565,1.24293 0.0777,0.12678 0.054,0.33545 0.14008,0.45945 0.003,0.005 0.0285,-0.0548 0.0379,-0.0531 0.019,0.003 0.0317,0.0221 0.0476,0.0331 0.32907,0.35527 0.59221,0.75313 0.79804,1.18967 0.0111,0.0278 0.29448,0.74466 0.0657,0.35079 1.19081,2.58571 -2.46593,4.26977 -3.65674,1.68406 v 0 c -0.062,-0.10816 -0.15239,-0.34646 -0.25433,-0.40088 0.0404,0.16007 -0.4478,-0.45402 -0.50429,-0.4778 -0.46861,-0.61198 -0.81484,-1.30424 -0.90868,-2.07802 -0.0545,-0.29868 -0.0915,-0.6003 -0.14681,-0.89805 0.0587,0.17626 -0.37026,-0.53013 -0.37841,-0.69552 -0.12059,-0.4447 -0.2296,-0.88534 -0.19534,-1.348986 -0.0408,-0.56905 0.0899,0.206256 -0.01,-0.12309 -0.34747,-0.36197 -0.48327,-0.87304 -0.70515,-1.31139 -0.12941,-0.30822 -0.20639,-0.6454 -0.39021,-0.92608 -0.36649,-0.47246 -0.74496,-0.94115 -1.04838,-1.4571 -0.31244,-0.55556 -0.57996,-1.13298 -0.89557,-1.68642 -0.31557,-0.49882 -0.60689,-1.02011 -1.03253,-1.43637 -0.68298,-0.72149 -1.32654,-1.47886 -1.85091,-2.32618 -0.52851,-0.84682 -1.01211,-1.71777 -1.46705,-2.60641 -0.36631,-0.67684 -0.76528,-1.33427 -1.28088,-1.91033 -0.74558,-0.95627 -1.41989,-1.965 -1.82907,-3.11702 -0.27451,-0.75076 -0.47806,-1.53738 -0.87773,-2.23498 -0.39539,-0.62499 -0.97995,-1.10124 -1.35505,-1.74467 -0.39598,-0.69898 -0.70232,-1.43761 -1.07178,-2.14925 -0.41801,-0.60826 -0.91769,-1.15755 -1.32983,-1.77083 -0.42667,-0.61704 -0.7883,-1.27528 -1.23076,-1.88105 -0.44812,-0.55879 -0.97018,-1.02619 -1.52238,-1.48228 -0.73595,-0.69113 -1.37951,-1.46639 -2.02212,-2.24359 -0.54832,-0.67452 -1.09728,-1.34888 -1.74686,-1.93099 -0.72155,-0.71518 -1.46475,-1.41307 -2.11972,-2.19114 -0.53934,-0.68077 -1.01853,-1.40129 -1.5103,-2.11624 -0.48542,-0.62879 -1.06116,-1.17797 -1.53585,-1.81533 -0.50502,-0.70634 -0.96992,-1.44446 -1.53996,-2.1018 -0.65537,-0.8064 -1.29077,-1.62855 -1.84527,-2.50905 -0.53437,-0.83515 -1.04416,-1.68607 -1.50972,-2.56176 -0.45598,-0.84217 -0.93208,-1.67377 -1.34433,-2.53892 -0.4029,-0.77899 -0.77385,-1.57241 -1.15425,-2.36237 -0.42653,-0.85359 -0.91842,-1.68649 -1.12694,-2.62842 -0.12348,-0.70007 -0.17314,-1.401534 -0.16597,-2.112607 -0.0953,-0.539326 -0.44757,-0.991504 -0.66223,-1.485778 -0.44252,-0.893945 -0.80189,-1.82459 -1.01349,-2.802226 -0.17104,-0.738981 -0.28907,-1.504971 -0.6672,-2.174237 -0.52868,-0.777245 -1.17341,-1.472046 -1.64996,-2.286355 -0.64017,-1.019704 -1.24293,-2.062477 -1.88265,-3.082454 -0.65207,-1.040368 -1.27449,-2.106644 -2.06254,-3.052685 -1.01762,-1.159211 -2.10805,-2.26245 -2.98402,-3.537972 -0.98399,-1.411694 -1.79585,-2.915319 -2.45655,-4.505653 -0.71724,-1.391909 -1.64656,-2.644364 -2.44289,-3.99035 -1.1178,-2.131462 -1.96113,-4.450122 -1.63231,-6.896761 -0.33466,-2.3374056 2.97093,-2.8106876 3.30559,-0.473282 z"
       inkscape:connector-curvature="0" />
    <path
       style="fill:#424242;fill-opacity:1;stroke:none;stroke-width:0.26458332;stroke-opacity:1"
       id="path917"
       d="m 55.55015,12.050799 c 0.0712,-1.898687 1.03424,-3.6008736 2.31712,-4.9536426 1.16363,-1.038167 1.55286,-1.138047 3.36273,-1.052872 0.20469,0.0096 0.36888,0.1789 0.5571,0.259939 0.0631,0.02717 0.12951,0.08218 0.19585,0.06426 0.0364,-0.0098 -0.0162,-0.07373 -0.0243,-0.110593 -1.58845,-0.154829 -1.60315,-0.0136 -1.17005,-0.253588 0.54135,-0.299963 0.27399,-0.163533 0.90876,-0.445381 0.83305,-0.336179 1.71186,-0.348586 2.5922,-0.36087 0.48647,-0.0028 0.95938,-0.114983 1.43635,-0.195223 1.01388,-0.150193 2.06009,-0.139883 3.07929,-0.03318 -0.54942,0.0885 1.3162,0.01169 0.62559,0.0073 -1.87004,-0.01185 -1.06774,0.01326 -0.6421,-0.01799 0.96611,-0.129574 1.92856,-0.12356 2.9041,-0.130278 0.90039,-0.114123 1.77351,-0.02445 2.62582,0.27673 0.61021,0.22157 1.07175,0.694225 1.63576,0.995093 0.28788,0.03115 0.57558,0.08826 0.85349,0.166857 0.92433,0.288898 1.63427,0.93699 2.1878,1.708727 0.031,0.05967 0.11148,0.114424 0.0928,0.178998 -0.015,0.05206 -0.0712,-0.08189 -0.10994,-0.11975 -0.098,-0.09575 -0.19401,-0.194252 -0.30021,-0.280858 -0.0778,-0.06347 -0.73494,-0.475163 0.0544,-0.03321 0.13528,0.07574 0.26283,0.164534 0.39424,0.2468 0.74003,0.496499 1.28228,1.176801 1.78014,1.902439 0.45543,0.6192256 0.71129,1.3120026 0.83144,2.0621436 0.18234,1.185389 -6.61965,2.172274 -3.55626,0.583814 -0.51018,-1.56958 1.70954,-2.291088 2.21972,-0.721508 v 0 c 0.72194,-0.15761 0.39978,-0.145301 0.96091,-0.110072 -1.38107,0.484465 -2.79501,0.869849 -4.18697,1.322051 -0.0184,0.006 -0.0213,0.03234 -0.0319,0.04852 -0.004,0.0438 0.0265,0.10772 -0.0105,0.131395 -0.0579,0.03704 -0.59269,-0.813213 -0.63821,-0.885558 -0.025,-0.03678 -0.70251,-0.900382 -0.49481,-0.756026 0.19261,0.121947 0.74233,0.526082 -0.11427,-0.04436 -0.5648,-0.376118 -0.32265,-0.275177 -0.75793,-0.64348 -0.0387,-0.03278 -0.0868,-0.05262 -0.13016,-0.07894 -0.25863,-0.111252 -0.36158,-0.171249 -0.63252,-0.259866 -0.55188,-0.220366 -1.10422,-0.459679 -1.58472,-0.8146036 -0.38331,-0.268963 -0.21629,-0.242928 -0.47649,-0.06243 -0.59016,0.180287 -1.25427,0.02641 -1.85739,0.01823 2.0271,-0.02625 0.0537,-0.03376 -0.42206,-0.114882 -0.84488,-0.03266 -1.69089,0.0084 -2.53576,-0.02786 -0.0875,0.0027 -0.17505,0.0073 -0.26263,0.0082 -1.81593,0.01664 1.49414,0.0259 -0.0161,-0.07709 -0.5198,-0.0329 -1.02254,0.100745 -1.53744,0.152265 -0.54232,0.05701 -1.08336,0.117052 -1.62539,0.06601 -0.39096,0.04078 -0.67686,0.161981 -1.04408,0.310015 -1.05885,0.4268496 -1.69256,0.4790386 -2.9482,0.2123696 -0.14432,-0.06985 -0.28904,-0.138911 -0.43298,-0.2095576 -0.0561,-0.02755 -0.21574,-0.124449 -0.16721,-0.08503 0.62282,0.5058586 1.76671,0.2326426 2.2181,-0.399696 -0.65804,1.2956726 -1.26957,2.6486886 -2.23092,3.7515006 -0.84515,2.752164 -4.7373,1.556954 -3.89216,-1.195213 z"
       inkscape:connector-curvature="0" />
  </g>
  <g
     inkscape:groupmode="layer"
     id="layer2"
     inkscape:label="lines 3">
    <path
       style="fill:#424242;fill-opacity:1;stroke:none;stroke-width:0.23814948;stroke-opacity:1"
       id="path930"
       d="m 58.43946,40.882369 c 0.13068,0.242518 0.27567,0.477358 0.39204,0.727554 0.39043,0.839435 0.69268,1.728603 1.00333,2.600166 0.66432,1.863815 1.26056,3.746195 1.85308,5.635485 1.10436,3.56063 1.84837,7.22052 2.62706,10.86697 0.51248,2.45887 1.19148,4.87393 1.85889,7.29099 0.59399,2.07299 0.98277,4.19573 1.28255,6.33261 0.10996,1.1886 0.37873,2.34956 0.58469,3.52144 0.15911,0.75973 0.28374,1.52301 0.29421,2.30115 0.0481,0.36976 -0.1152,0.76878 -0.0541,1.13447 0.004,0.0189 0.0265,-0.0527 0.0402,-0.0399 0.0337,0.0315 0.0368,0.086 0.0551,0.12899 0.23036,0.82175 0.25841,1.68144 0.25395,2.53116 0.16572,0.0924 -0.19712,0.57273 -0.20108,0.63037 -0.0846,1.23184 -2.4e-4,0.62914 0.0483,0.34007 -0.0217,-1.79079 -3.91112,1.38081 -4.09382,-0.6931 -0.0237,-1.81661 0.4285,-3.58301 0.88547,-5.32131 0.8205,-2.80013 1.7734,-5.5558 2.71088,-8.31559 0.89725,-2.72613 1.88819,-5.41285 3.00576,-8.05021 0.87843,-1.9738 1.9168,-3.86402 2.8803,-5.79337 0.70802,-1.3746 1.28789,-2.81068 1.80336,-4.2722 0.46377,-1.42788 0.8988,-2.86656 1.29103,-4.31728 0.29096,-1.02561 0.52375,-2.06667 0.76384,-3.105778 0.24332,-1.060306 0.62509,-2.069261 1.10425,-3.037037 0.28127,-0.474893 0.51065,-0.967655 0.65776,-1.502653 0.11526,-0.437714 0.17295,-0.887395 0.26813,-1.329741 0.11277,-0.588429 0.37906,-1.117794 0.66961,-1.629547 0.0341,-0.06417 0.57135,-0.806633 0.64006,-0.764455 3.56194,2.186047 4.17644,1.344844 3.18444,2.539646 -1.12454,1.443691 -0.24318,0.640536 -3.6101,0.540564 -0.17241,-0.0051 -0.18601,-0.06858 -0.35739,-0.01996 -0.14672,0.04162 -0.28099,0.121917 -0.42618,0.168946 0.11099,0.165671 -1.05535,0.0058 -0.82806,0.178331 0.17961,0.136356 0.68332,-0.175113 0.6663,0.05466 -7.1e-4,0.0082 -2.0517,0.20667 -2.22241,0.223616 -2.18504,0.232769 -4.37679,0.223645 -6.56454,0.05 -1.41697,-0.157668 -2.84031,-0.208121 -4.26272,-0.278129 -1.35794,-0.07198 -2.68686,-0.360612 -3.98381,-0.769501 -0.98405,-0.309657 -1.92539,-0.73646 -2.93174,-0.966515 -0.10881,-0.01054 -0.21735,-0.02511 -0.32646,-0.03157 -0.0833,-0.0049 -0.16679,-0.0017 -0.25019,-0.0026 -0.0637,0.0076 -0.25521,0.02296 -0.19109,0.02284 1.6249,-0.003 1.45253,-0.0176 0.88509,-0.09614 -0.99859,0.201241 -1.99601,0.269181 -3.02168,0.214262 -0.4047,0.0061 -0.79056,-0.136817 -1.19186,-0.163986 -0.70807,-0.296575 -0.83656,-1.081042 -0.99158,-1.762732 -1.06997,-0.286737 -0.67792,-1.851856 0.39205,-1.565119 v 0 c 0.60162,-0.801004 1.07249,-1.477679 2.06858,-1.706204 0.39176,0.01773 0.78209,0.03237 1.17345,0.02948 0.64126,0.0076 -0.32076,-0.0065 -0.99393,0.04432 -0.14201,0.01073 0.84133,0.149924 0.531,-0.02625 0.11235,-0.03706 0.6963,-0.233823 0.77571,-0.240413 1.25471,-0.104091 2.45625,-0.128311 3.65814,0.261861 0.97669,0.31631 1.92333,0.722833 2.90413,1.027745 0.97945,0.242304 1.96693,0.344553 2.97587,0.282069 1.50755,0.01233 3.00508,0.132832 4.50418,0.294602 0.24279,0.02018 0.48523,0.04563 0.72838,0.06051 0.2449,0.01499 0.50978,-0.07051 0.73543,0.02906 0.17994,0.07941 -0.7735,-0.02003 -0.58579,0.03697 0.54724,0.166207 1.82867,-0.02873 2.43127,0.05499 1.93417,-0.0189 3.92818,-0.279374 5.81419,0.253392 0.66762,0.262948 0.68225,0.224506 1.26964,0.624418 0.1466,0.09981 0.28567,0.211789 0.41892,0.329947 0.0968,0.08586 0.39531,0.258051 0.26967,0.280687 -3.32062,0.59831 -2.2028,-0.700255 -3.19853,0.713102 -0.0116,-1.455377 -0.0174,0.187289 3.48181,1.991021 0.0805,0.04147 0.15074,-0.27431 0.19458,-0.193138 0.0146,0.02703 -0.0198,0.05243 -0.0274,0.0727 -0.0323,0.06374 -0.22476,0.567599 -0.23226,0.429489 -0.0514,0.495209 -0.10491,0.990352 -0.17596,1.482964 -0.12649,0.877378 -0.32549,1.740307 -0.70128,2.54367 -0.32734,0.703936 -0.68017,1.399706 -0.88171,2.156308 -0.22827,1.019868 -0.20913,2.073428 -0.37557,3.104168 -0.2757,1.71278 -0.70645,3.38813 -1.37248,4.98668 -0.59547,1.51288 -1.1714,3.03262 -1.72351,4.56319 -0.74529,1.94718 -1.61206,3.83743 -2.38853,5.77085 -0.93465,2.63221 -1.6011,5.35343 -2.4893,8.00256 -0.95641,2.71353 -2.05652,5.36574 -3.05096,8.06363 -0.6151,1.63863 -1.14728,3.32413 -1.9369,4.88411 -1.09792,1.87323 -4.63168,1.86489 -4.52472,-0.33742 0.14369,-1.53584 0.261,0.88533 -0.15917,-0.44441 -0.0369,-0.1169 -0.0611,-0.23771 -0.0916,-0.35656 -0.10485,-0.90978 -0.10304,-1.81865 0.0725,-2.72075 0.0342,-0.22946 0.0844,-0.91128 0.12862,-0.68367 0.008,0.0399 -0.008,0.28486 -0.0832,0.0816 -0.28279,-0.69671 -0.43566,-1.43748 -0.59085,-2.17329 -0.27265,-1.14985 -0.73758,-2.23153 -1.0864,-3.35762 -0.58438,-1.9676 -1.02159,-3.97492 -1.57016,-5.95312 -0.73164,-2.42729 -1.5535,-4.8252 -2.34624,-7.23163 -1.19564,-3.52941 -2.43905,-7.04551 -3.41282,-10.64979 -0.74034,-2.99283 -1.62762,-6.266068 -1.31347,-9.388459 0.0366,-0.363 0.13447,-0.716548 0.20169,-1.074822 -0.085,-3.204897 4.29692,-3.329297 4.38197,-0.124403 z"
       inkscape:connector-curvature="0" />
    <path
       style="fill:#424242;fill-opacity:1;stroke:none;stroke-width:0.23814948;stroke-opacity:1"
       id="path936"
       d="m 66.2595,97.263164 c -0.25724,-0.0111 -0.51571,-0.005 -0.77171,-0.0333 -0.75728,-0.0838 -1.45425,-0.33894 -2.1851,-0.53463 -0.12154,-0.0326 -0.4937,-0.0572 -0.36944,-0.0758 0.35325,-0.0528 0.7136,-0.0193 1.07039,-0.029 0.16532,0.0715 0.2629,-0.37073 0.43369,-0.32028 0.0619,0.0183 0.0213,0.13316 0.013,0.19915 -0.0971,0.78333 -0.36167,1.5422 -0.60003,2.28656 -0.51927,1.620456 -1.43722,3.028556 -2.32182,4.448956 -0.46679,0.7565 -0.40752,1.61782 -0.34204,2.47424 0.15038,0.61899 -0.11752,1.92824 0.3061,2.37907 0.76734,0.35532 1.5182,0.74999 2.27366,1.13222 0.78389,0.42214 1.55414,0.98752 2.46846,0.92568 0.13129,-0.0234 0.50605,0.005 0.3939,-0.0701 -0.17561,-0.11649 -0.62818,0.13517 -0.62099,-0.0805 0.007,-0.21651 0.41716,-0.0394 0.62567,-0.06 0.73059,-0.0719 1.45516,-0.13303 2.18861,-0.16332 0.68841,-0.12374 1.47764,0.17367 2.14797,-0.0766 0.58416,-0.63563 0.97351,-1.45368 1.39755,-2.20872 0.54095,-1.03439 1.2119,-2.02004 1.56706,-3.14539 0.12027,-0.70274 -0.0744,-1.39538 -0.20577,-2.08021 -0.10957,-0.48872 -0.3329,-0.92489 -0.66068,-1.29164 -0.46136,-0.56837 -1.14164,-0.75684 -1.75984,-1.066746 -0.79285,-0.3606 -1.62662,-0.60378 -2.45222,-0.86752 -0.87988,-0.20689 -1.76809,-0.25288 -2.58693,-0.67141 -0.60487,-0.39829 -0.5222,-0.82407 -0.50179,-1.51802 -1.42938,-0.77559 -0.36894,-2.86645 1.06044,-2.09086 v 0 c 0.36264,-0.55943 0.59148,-0.99291 1.25792,-1.14137 1.20067,-0.18572 2.37198,0.14997 3.49888,0.56989 1.12728,0.42997 2.25258,0.90397 3.25309,1.6019 1.04604,0.79845 1.90897,1.79746 2.50514,3.0003 0.37217,0.80165 0.70374,1.623576 0.93722,2.481156 0.38301,1.35545 0.59029,2.76955 0.33833,4.17414 -0.38171,1.58418 -1.0467,3.03292 -2.03267,4.31853 -0.74913,1.10111 -1.48948,2.22714 -2.42697,3.16836 -1.24612,1.05607 -2.36435,1.50075 -3.98348,1.54659 -1.84099,0.0968 -3.72393,0.18467 -5.54816,-0.0956 -1.26384,-0.32879 -2.47986,-0.79378 -3.64546,-1.40096 -1.40709,-0.79424 -2.72749,-1.7182 -3.48346,-3.23639 -0.49089,-1.22857 -0.72243,-2.51571 -0.80221,-3.8427 -0.0411,-1.5156 0.1077,-2.99199 0.66905,-4.40991 0.54336,-1.4526 1.23652,-2.832226 1.87213,-4.242906 0.62203,-1.39465 1.11703,-3.11238 2.27132,-4.15044 0.28663,-0.25776 0.64198,-0.42002 0.96296,-0.63002 0.6689,-0.0534 1.3361,-0.14014 2.0067,-0.16019 1.38466,-0.0414 2.84887,0.49233 3.91197,1.38348 2.46403,1.55821 0.33353,5.1625 -2.13049,3.60429 z"
       inkscape:connector-curvature="0" />
    <path
       style="fill:#424242;fill-opacity:1;stroke:none;stroke-width:0.34032306;stroke-opacity:1"
       d="m 58.1962,37.366656 c -1.69886,-0.264387 -2.24815,1.912276 -1.04637,2.925084 4.28915,10.274844 6.15797,21.337594 9.0003,32.125224 1.68528,2.46268 2.91084,-1.28353 3.28996,-2.79531 2.341,-7.55651 6.9898,-14.11371 8.68048,-21.9109 0.49922,-2.341812 1.4222,-4.54479 2.25122,-6.760582 -0.19241,-2.336655 -3.14145,-1.369499 -4.6553,-1.579421 -5.37494,0.195857 -10.79811,-0.261676 -15.95892,-1.868892 -0.51505,-0.09529 -1.03705,-0.163272 -1.56137,-0.135203 z"
       id="path938"
       inkscape:connector-curvature="0" />
    <path
       style="fill:#424242;fill-opacity:1;stroke:none;stroke-width:0.34032306;stroke-opacity:1"
       d="m 63.83127,96.332754 c -1.44163,3.63682 -4.66364,7.263566 -3.40052,11.468456 0.95613,2.176 3.65763,3.15206 5.85206,3.16913 2.2015,-0.36592 5.28893,0.55876 6.44876,-2.07602 1.55533,-2.36687 3.3323,-5.59828 1.28949,-8.27366 -1.76742,-2.105126 -4.72241,-2.394766 -7.07162,-3.362456 -0.95459,-0.59127 -1.98593,-2.00477 -3.11817,-0.92545 z"
       id="path940"
       inkscape:connector-curvature="0" />
  </g>
</svg>
