<?xml version="1.0" encoding="UTF-8" standalone="no"?>
<!-- Created with Inkscape (http://www.inkscape.org/) -->

<svg
   xmlns:dc="http://purl.org/dc/elements/1.1/"
   xmlns:cc="http://creativecommons.org/ns#"
   xmlns:rdf="http://www.w3.org/1999/02/22-rdf-syntax-ns#"
   xmlns:svg="http://www.w3.org/2000/svg"
   xmlns="http://www.w3.org/2000/svg"
   xmlns:sodipodi="http://sodipodi.sourceforge.net/DTD/sodipodi-0.dtd"
   xmlns:inkscape="http://www.inkscape.org/namespaces/inkscape"
   width="1024"
   height="1024"
   viewBox="0 0 298.02667 298.02667"
   version="1.1"
   id="svg8"
   inkscape:version="0.92.4 (5da689c313, 2019-01-14)"
   sodipodi:docname="clown.svg"
   inkscape:export-filename="C:\Users\panu-\PycharmProjects\nextgame\data\images\heads\clown.png"
   inkscape:export-xdpi="13.234793"
   inkscape:export-ydpi="13.234793">
  <defs
     id="defs2" />
  <sodipodi:namedview
     id="base"
     pagecolor="#ffffff"
     bordercolor="#666666"
     borderopacity="1.0"
     inkscape:pageopacity="0.0"
     inkscape:pageshadow="2"
     inkscape:zoom="0.69977474"
     inkscape:cx="488.48806"
     inkscape:cy="524.38883"
     inkscape:document-units="mm"
     inkscape:current-layer="layer1"
     showgrid="false"
     units="px"
     width="1024px"
     inkscape:window-width="1920"
     inkscape:window-height="1017"
     inkscape:window-x="-8"
     inkscape:window-y="-8"
     inkscape:window-maximized="1"
     inkscape:pagecheckerboard="true" />
  <metadata
     id="metadata5">
    <rdf:RDF>
      <cc:Work
         rdf:about="">
        <dc:format>image/svg+xml</dc:format>
        <dc:type
           rdf:resource="http://purl.org/dc/dcmitype/StillImage" />
        <dc:title />
      </cc:Work>
    </rdf:RDF>
  </metadata>
  <g
     inkscape:groupmode="layer"
     id="layer2"
     inkscape:label="color"
     style="display:inline">
    <path
       style="fill:#ffffff;fill-opacity:1;stroke:none;stroke-width:0.37431687;stroke-opacity:1"
       d="m 173.16624,64.356826 c -5.60435,-0.124371 -11.50275,2.868703 -13.46445,8.363643 -0.39806,1.40574 -1.33144,3.888502 -3.26723,2.866595 -1.15552,-0.780134 -1.18812,-2.653252 -2.79568,-2.89145 -1.68158,-0.627104 -0.74591,-3.364482 -2.71233,-3.402484 -4.59633,-0.10082 -9.24063,-0.04681 -13.64283,-1.649332 -1.38561,-0.33166 -3.81657,-1.453761 -4.34485,0.552702 -4.54185,0.711074 -9.35238,0.594658 -13.694,2.242245 -0.82767,0.586931 0.0129,2.474754 -0.50007,2.562464 -0.89465,-0.979502 -2.82857,-0.217424 -1.71367,1.132453 0.44199,1.228741 1.31492,2.457623 1.47314,3.689801 -4.32254,1.784341 -9.19906,1.887891 -13.50902,3.852144 -1.26935,0.323574 -2.35068,1.339363 -1.76413,2.748115 0.48915,2.909696 0.83912,5.8306 0.75083,8.789865 -1.4626,0.462868 -2.70341,1.278172 -3.3228,2.646538 -1.439752,1.529446 -3.869964,3.19239 -2.801895,5.630065 0.342129,2.82095 1.581434,5.78375 1.483483,8.46325 -1.149767,1.76024 -2.989959,3.6304 -2.935055,5.82955 0.21509,1.66789 1.168323,3.39142 2.136973,4.76085 -0.526492,1.71046 0.165366,3.39314 1.737064,4.26151 1.1502,1.42222 3.59342,2.38964 3.71622,4.24016 -0.45188,4.45163 -0.85682,9.35281 -3.47569,13.15315 -2.26698,2.54725 -5.66054,4.38707 -9.011391,4.6212 -2.08018,-1.6407 -5.307532,0.61418 -6.940946,-1.97905 -1.631221,-1.84267 -1.217747,-4.91274 -3.134171,-6.46063 -2.120714,-1.12063 -5.110754,-0.3622 -6.826167,-2.13843 -0.771904,-1.54772 0.503886,-3.96806 -0.872187,-4.948 -1.810934,0.47965 -3.981343,0.20434 -5.58478,1.20337 -0.05674,1.74145 2.076444,2.88665 2.740118,4.46329 0.771919,1.62412 2.150978,2.82473 2.931662,4.36898 0.366621,0.89826 -0.59717,1.71559 -0.824668,2.47401 -3.32876,1.26896 -7.220588,0.32118 -10.494762,1.60619 -0.790792,2.23852 1.048166,4.55295 1.765508,6.61009 0.926743,1.92635 2.777387,4.53139 1.063799,6.472 -4.266254,0.92573 -7.076823,-3.49648 -8.148702,-7.01406 -0.730555,-2.94634 -1.465423,-6.25479 -0.159376,-9.09473 1.550182,-2.57467 4.738473,-2.94874 7.351084,-3.65105 1.236537,-1.30113 -1.340884,-2.01493 -2.337286,-2.0083 -3.304158,-0.0331 -6.560754,0.69759 -9.836055,1.04107 -1.542835,-1.1126 -1.040049,-3.11104 0.478864,-3.99759 3.542092,-2.66371 8.242539,-2.46151 12.354652,-1.94834 1.076235,-1.27244 -1.140607,-2.7544 -1.062272,-4.20668 -0.317526,-2.06867 0.36583,-4.29095 -0.04752,-6.36047 -4.101451,-0.20119 -8.530932,-0.007 -12.099763,2.35951 -5.136817,2.6962 -7.654474,8.38659 -9.747142,13.49324 -1.222659,4.24371 -2.080609,9.02435 0.10539,13.12664 1.531989,4.94592 3.514623,9.99834 7.585988,13.42831 2.913521,2.92529 6.196774,5.89518 10.509593,6.29371 4.739576,0.67994 9.085645,-2.28177 12.65074,-5.03793 1.334873,-1.05925 1.710382,-2.95847 3.377627,-3.57282 0.812459,-1.4188 2.86662,-1.08203 3.187541,0.59876 1.235245,3.68524 -2.427943,6.27131 -4.608777,8.63414 -2.11404,2.23271 -5.427372,2.50258 -7.859191,4.23519 0.674567,5.97517 2.927298,11.84571 6.364117,16.83476 3.905027,5.47284 6.848791,11.49895 8.477403,18.03702 1.765121,6.48995 7.61621,10.48756 11.36578,15.73484 4.86261,6.22392 10.15707,12.75913 17.84007,15.53585 7.64918,3.1808 15.27449,6.46124 23.29823,8.6171 10.32539,3.11032 21.15032,4.19557 31.87472,4.84971 3.82814,0.11279 7.9244,0.94646 11.41937,-1.13497 5.28299,-2.4411 10.43722,-5.24428 14.99626,-8.86891 2.78356,-2.14278 4.53148,-5.49768 5.82092,-8.71895 0.706,-1.13705 -0.71707,-3.11657 -1.72902,-1.66615 -5.22101,2.41681 -11.16996,1.1664 -16.71704,1.49879 -6.73574,-0.21921 -13.5799,0.64635 -20.15311,-1.20601 -4.34787,-1.02636 -8.916,-1.43411 -13.0953,-3.02193 -6.92279,-3.99544 -13.96568,-7.78788 -20.86525,-11.81877 -4.8899,-3.37809 -10.79711,-6.84676 -12.56009,-12.96803 -1.04453,-4.94683 -1.82957,-10.20229 -1.17924,-15.26438 1.18451,-4.66837 2.85321,-9.46509 5.81069,-13.39133 1.86844,-1.93897 4.99828,-1.28827 7.40445,-1.82114 2.21605,-0.43725 4.67488,0.18611 6.7845,-0.65871 0.34031,-1.5414 -1.68026,-2.69818 -2.35191,-4.00636 -3.82587,-4.18258 -6.14112,-9.3756 -8.16659,-14.59611 -1.65028,-3.90623 -4.34129,-7.28501 -5.64,-11.33703 -2.76968,-5.52215 -1.72626,-12.18684 0.88096,-17.5483 1.294,-3.02095 3.72424,-5.76097 3.47924,-9.29212 0.73633,-8.20641 6.27565,-14.84897 9.71457,-22.054147 3.0096,-5.055837 4.63094,-11.08052 8.92378,-15.274461 1.74635,-1.528167 5.01785,-2.161472 6.10531,0.441574 5.40187,7.685113 9.1987,16.533736 10.50433,25.835944 0.61993,3.65433 2.32472,7.02235 2.92064,10.65849 1.87309,2.99953 4.26896,5.86513 5.18268,9.3221 1.99705,5.96867 1.60883,13.31884 -3.17585,17.99646 -2.71103,2.4977 -4.33983,5.85022 -5.14337,9.38761 -1.97215,6.13853 -7.45983,10.11394 -10.70807,15.51031 -1.43535,2.38687 -3.89145,4.41859 -4.55833,7.16539 1.6043,1.58206 4.31567,1.52592 6.3919,2.21081 3.57914,0.60828 7.16158,1.52858 10.5591,2.61948 0.4386,-1.46495 -0.80965,-3.21779 -0.28659,-4.86173 -0.009,-1.71655 1.87789,-2.62335 1.56745,-4.42893 -0.12226,-6.57946 3.17641,-12.55606 7.1792,-17.55385 2.42415,-3.64404 5.70759,-6.83833 10.05473,-7.98523 2.68712,-0.72687 4.99864,-2.25092 7.1151,-3.8485 2.63523,-1.6805 5.85545,-1.95383 8.72977,-2.77223 -0.514,-1.65825 -2.42527,-2.82362 -3.07788,-4.58831 -3.46736,-6.6029 -2.41434,-14.99879 2.37603,-20.70441 1.45854,-3.65634 0.37597,-7.78434 1.74511,-11.51462 1.63086,-5.529801 4.07614,-10.946762 6.47865,-16.116704 -3.60336,-6.416995 -8.44857,-12.463723 -10.19477,-19.786285 -1.46423,-0.857625 -3.6601,0.35361 -5.26968,-0.785189 -3.31733,-1.6618 -6.48827,-3.487672 -10.35439,-3.115896 z"
       id="path1031"
       inkscape:connector-curvature="0" />
    <path
       style="fill:#ff0000;fill-opacity:1;stroke:none;stroke-width:0.37431687;stroke-opacity:1"
       d="m 192.72064,147.68913 c -5.91157,1.04295 -11.47424,3.53413 -17.20761,5.21119 -3.61462,1.93709 -5.46495,5.95753 -7.9921,9.02388 -2.49798,3.3904 -5.03404,7.13546 -4.80731,11.55041 0.10589,2.05975 -0.74783,4.169 -0.42231,6.18059 3.4785,4.9597 10.15238,5.37322 15.60287,6.33195 11.01034,1.63976 23.08147,1.80002 32.90591,-4.19262 4.74524,-2.54175 7.36875,-8.06469 7.71467,-13.26983 0.19255,-5.02587 -0.55255,-10.41156 -3.59903,-14.52921 -7.21115,-2.35799 -14.37518,-5.26378 -21.92313,-6.31075 z"
       id="path1033"
       inkscape:connector-curvature="0" />
    <path
       style="fill:#ffffff;fill-opacity:1;stroke:none;stroke-width:0.37431687;stroke-opacity:1"
       d="m 130.9759,118.84114 c -2.41744,-0.12743 -3.056,2.89047 -4.27321,4.42381 -2.51713,4.93035 -5.74982,9.79286 -6.57833,15.35942 -0.51585,3.44089 1.67875,6.61891 4.76085,7.98713 5.96781,3.09532 13.6206,5.05176 19.81832,1.44536 4.76678,-2.7912 9.62307,-5.77727 13.33796,-9.91647 2.19626,-3.86665 -0.45513,-8.3133 -2.44402,-11.68644 -1.72329,-2.65438 -3.59197,-6.2867 -7.32916,-5.9993 -3.76175,-0.24716 -7.63183,0.27025 -11.19075,-1.06958 -2.01296,-0.34402 -4.05822,-0.55361 -6.10166,-0.54393 z"
       id="path1035"
       inkscape:connector-curvature="0" />
    <path
       style="fill:#ffffff;fill-opacity:1;stroke:none;stroke-width:0.37431687;stroke-opacity:1"
       d="m 203.62846,115.54539 c -1.98729,-0.0331 -3.55912,1.34921 -5.34644,2.05144 -4.60942,2.70605 -7.10368,8.45595 -5.55992,13.63185 0.72962,3.26903 3.22274,6.3645 6.79327,6.47744 3.42327,0.56422 6.92121,-0.44608 10.28201,-1.02864 1.16919,-1.96224 0.70829,-4.61607 1.05716,-6.84883 -0.0841,-3.7949 0.9958,-8.15513 -1.23701,-11.52194 -1.50236,-1.69628 -3.64528,-2.99137 -5.98907,-2.76132 z"
       id="path1037"
       inkscape:connector-curvature="0" />
    <path
       style="fill:#0066ff;fill-opacity:1;stroke:none;stroke-width:0.37431687;stroke-opacity:1"
       d="m 141.20528,85.82668 c -2.11772,3.894047 -2.93863,8.452718 -5.0581,12.398225 -2.44892,5.415885 -5.63956,10.407955 -8.55403,15.565145 0.33226,1.50185 2.59431,0.42096 3.65179,0.68649 3.73099,0.27856 7.45581,0.66166 11.19932,0.2215 3.13947,-0.19421 6.31231,0.1217 9.44586,-0.17178 0.74389,-1.36194 -1.06764,-2.94117 -1.14781,-4.40261 -2.61089,-8.14023 -4.89711,-16.489663 -8.75331,-24.141982 -0.18353,-0.221106 -0.52304,-0.326444 -0.78372,-0.154988 z"
       id="path1039"
       inkscape:connector-curvature="0" />
    <path
       style="fill:#0066ff;fill-opacity:1;stroke:none;stroke-width:0.37431687;stroke-opacity:1"
       d="m 149.93008,153.31777 c -3.70518,1.14218 -7.52559,2.43924 -11.44737,2.27368 -3.86475,0.0768 -7.79019,-0.2857 -11.55558,-1.17559 -1.16388,1.03579 0.62222,2.89713 0.75382,4.21971 1.77166,5.13751 4.8638,9.77178 8.33214,13.90176 1.56838,0.48917 1.9323,-2.10945 2.72568,-2.97223 2.75928,-5.73475 7.38059,-10.13523 11.52614,-14.83487 0.56035,-0.47314 0.63231,-1.45256 -0.33483,-1.41246 z"
       id="path1041"
       inkscape:connector-curvature="0" />
    <path
       style="fill:#0066ff;fill-opacity:1;stroke:none;stroke-width:0.37431687;stroke-opacity:1"
       d="m 199.72665,98.266137 c -1.4688,1.169522 -1.2873,3.644313 -1.96441,5.328143 -0.38383,2.45824 -1.47571,4.90731 -1.55285,7.36866 1.23518,1.07391 3.1735,-0.45512 4.60878,-0.37798 0.95218,-1.61912 0.13397,-4.02745 0.35823,-5.96129 -0.25814,-2.02693 0.35428,-4.53332 -0.9548,-6.244947 -0.14606,-0.09184 -0.32346,-0.133209 -0.49495,-0.112586 z"
       id="path1043"
       inkscape:connector-curvature="0" />
    <path
       style="fill:#0066ff;fill-opacity:1;stroke:none;stroke-width:0.37431687;stroke-opacity:1"
       d="m 121.37013,181.40762 c -2.53097,5.2259 -4.55774,11.0538 -4.16646,16.93126 0.62185,3.87777 0.80422,8.43221 4.19229,11.04873 4.71644,4.97398 10.77457,8.25004 16.90448,11.13938 3.70684,1.65156 7.08124,3.88387 10.69823,5.66267 6.82968,1.76364 13.8873,2.61001 20.8316,3.76643 8.33108,-0.23743 16.72532,0.28855 25.0193,-0.5511 2.42283,-0.93035 5.27335,-0.78982 7.46952,-2.44184 3.08928,-2.02393 4.68584,-5.75955 5.64107,-9.1905 0.2128,-2.39574 -2.45839,-4.11501 -4.62081,-3.10162 -9.00265,2.427 -18.10395,-1.3999 -27.22318,-1.05681 -5.51712,-0.38805 -10.97485,-1.90409 -16.49668,-2.6259 -6.41376,-1.72126 -12.30791,-4.99486 -18.03697,-8.29582 -2.70086,-1.68839 -5.43275,-3.47891 -8.11654,-5.10957 -1.33014,-1.3346 -1.41147,-3.71618 0.52346,-4.48229 3.09491,0.20003 5.68141,2.51026 8.46339,3.7522 7.4554,3.8964 15.0907,7.88869 23.52185,9.10517 4.70171,1.13018 9.44318,2.05251 14.30252,2.07697 5.22056,-0.0932 10.08215,2.02984 15.25082,2.49406 3.2222,-0.15033 6.64543,0.0693 9.71925,-0.69507 3.87316,-2.48978 7.8264,-5.96848 8.64567,-10.72233 -0.12371,-3.44633 -0.32322,-7.0159 -1.01475,-10.34197 -2.9925,0.78247 -5.82925,2.66925 -8.97849,3.29209 -11.99237,2.97743 -24.48577,0.55845 -36.30435,-2.17572 -3.77735,-1.66542 -7.92079,-0.94626 -11.72665,-2.35995 -6.52687,-1.78018 -13.17265,-2.96176 -19.6116,-5.08759 -4.74296,-1.44475 -9.90326,-1.58974 -14.72688,-1.13268 z"
       id="path1045"
       inkscape:connector-curvature="0" />
    <path
       style="fill:#ff0000;fill-opacity:1;stroke:none;stroke-width:0.37431687;stroke-opacity:1"
       d="m 115.67642,20.528852 c -1.43536,0.224934 -3.83442,-0.51308 -4.44062,1.288908 -1.11508,1.207517 -2.31266,3.021185 -3.72826,3.411415 -3.45958,-0.866548 -6.75173,-3.335928 -10.433641,-2.851402 -3.242223,1.165951 -6.494531,2.924387 -8.815454,5.516057 -1.156548,1.548641 -1.362293,3.538291 -1.821872,5.355948 -1.545075,-0.321336 -3.640523,0.574659 -4.896094,-0.483249 -1.27831,-2.656683 -4.849776,-1.629624 -7.162016,-1.615182 -3.775109,-0.02931 -7.232073,1.971976 -9.324742,5.065185 -0.77479,1.529034 -1.971095,3.347177 -3.994662,2.441101 -0.923683,-0.63379 -1.157177,-2.598683 -2.626068,-1.772887 -4.719131,1.356476 -10.011502,0.763462 -14.541332,2.870981 -2.17471,1.244242 -0.826944,4.277562 -1.096538,6.238028 -0.143369,2.178039 0.686281,4.612235 -0.241355,6.580863 -4.771025,0.201293 -8.727225,3.382446 -12.95999,5.251404 -0.874932,2.996466 1.426334,5.899163 2.614085,8.567719 0.886658,2.438507 4.224859,4.43362 3.01529,7.345864 -1.050683,2.471653 -4.02447,1.099771 -5.941549,0.797618 -1.551755,0.677198 -2.920904,2.19621 -3.673716,3.598414 1.468971,4.362734 4.032232,8.381864 4.995522,12.886883 -0.2932,1.967347 -1.057053,3.962802 -2.082137,5.523368 1.495177,4.892352 5.688409,8.468022 7.617202,13.165422 -0.01617,1.41883 0.674044,3.97827 -1.138303,4.61097 -2.710142,-0.19702 -2.085233,1.90774 -0.916704,3.45232 1.025463,2.95596 3.568741,5.061 6.621152,5.6601 1.971567,0.64743 2.773848,-2.27596 4.558559,-2.84114 5.233373,-2.89701 10.897452,-6.54628 17.11184,-5.58625 2.335796,0.50405 5.799152,-0.0382 6.794727,2.84028 1.044049,2.79384 -0.348597,5.99212 0.388207,8.8096 3.140796,0.15738 6.988736,-1.49924 9.836057,0.50518 0.420489,1.23309 -0.825284,2.81486 0.239794,3.84553 -0.307693,2.46476 2.641194,2.05912 4.137957,2.88852 2.791117,1.35765 3.519476,4.58438 4.678233,7.13323 1.503783,0.66163 3.237634,-0.41498 4.782044,-0.60754 1.817236,-0.76133 4.782062,-1.93409 4.045106,-4.43258 -0.296645,-2.12063 1.247247,-4.28041 0.513953,-6.29905 -2.938227,-1.58298 -4.702001,-4.85965 -4.397491,-8.19915 -0.07175,-2.00079 -2.960413,-2.43486 -2.711603,-4.60951 0.629986,-4.29068 2.045959,-8.7087 0.971615,-13.05942 -0.615537,-3.66648 0.416999,-7.468473 3.0172,-10.153343 0.863134,-1.528798 3.843886,-1.96473 2.991798,-4.186002 -0.890035,-3.965108 -1.227389,-8.892068 2.433606,-11.606956 3.6113,-2.84927 8.34797,-3.659147 12.53313,-4.967938 0.55939,-2.453912 0.40055,-5.790362 3.10995,-7.135945 5.34476,-3.976539 12.35637,-3.502828 18.64341,-3.903068 2.89452,-0.287694 5.74741,0.187969 8.31326,1.593557 2.92088,0.595562 5.93183,-0.632419 8.90551,-0.05995 1.97862,-0.09353 3.73199,0.85115 5.00854,2.321939 1.69645,-0.150202 2.70205,-2.409864 4.30611,-3.212399 5.22685,-3.626844 12.0736,-4.695711 18.10173,-3.182425 2.60604,0.605529 4.64556,2.923424 7.32038,3.103467 1.64893,-0.85609 -0.18948,-2.678688 -1.25016,-3.149526 -1.91816,-1.680049 -4.89071,-2.497558 -6.08703,-4.855153 -0.2584,-1.773537 1.70939,-3.342983 1.1288,-5.002834 -1.4013,-1.181586 -3.25436,-2.181344 -4.98675,-2.492277 -2.18084,2.213201 -5.39966,3.171356 -8.40751,2.376766 -1.67804,0.54161 -2.95241,-1.704496 -1.53748,-2.811032 1.11528,-1.615579 3.23905,-1.778629 4.63583,-2.89803 0.5062,-1.856377 -2.9363,-1.415518 -2.93605,-2.975529 0.29321,-1.421249 2.28686,-3.412491 0.87804,-4.697968 -0.97853,-0.493122 -1.92206,1.621273 -1.89498,-0.09718 -3.48424,-1.01264 -7.41009,-0.722457 -10.9188,-1.775133 -1.67709,-0.807824 -1.07296,-2.972844 -1.46509,-4.337543 -3.82426,-0.706973 -8.79545,0.560203 -11.82901,-2.563193 -0.86807,-1.678482 0.16503,-3.594649 -0.19958,-5.331822 -4.03175,-0.03262 -8.33267,-0.06632 -12.27277,1.123681 -1.04866,0.121448 -1.81836,1.680276 -2.72476,1.45194 -2.12862,-1.344047 -3.45201,-4.542687 -6.36047,-3.875495 -1.47802,0.0013 -2.95604,-0.004 -4.43405,0.0058 z"
       id="path1047"
       inkscape:connector-curvature="0" />
  </g>
  <g
     inkscape:groupmode="layer"
     id="layer1"
     inkscape:label="lines 2">
    <path
       style="fill:#000000;fill-opacity:1;stroke:none;stroke-width:0.2619375;stroke-opacity:1"
       id="path933"
       d="m 160.63201,177.05316 c 1.14346,1.75709 2.34297,3.47738 4.04681,4.74533 0.45359,0.33755 0.94826,0.61607 1.42239,0.9241 3.31325,1.8209 7.07169,2.26761 10.75238,2.78242 2.65514,0.34878 5.30523,0.78199 7.97589,1.00204 1.83409,0.15112 2.3402,0.13006 4.18689,0.16281 3.40338,0.0481 6.78882,-0.15048 10.14719,-0.71355 3.41368,-0.60338 6.61477,-1.92345 9.74712,-3.36038 1.5407,-0.79098 3.11499,-1.58622 4.4122,-2.75604 0.67314,-0.60703 0.81655,-0.85539 1.37292,-1.56839 1.28559,-1.78776 2.18122,-3.81029 2.88834,-5.88508 0.84598,-2.3838 0.82246,-4.86832 0.66594,-7.35466 -0.12482,-3.04817 -0.87505,-5.98541 -2.1614,-8.74059 -1.12071,-2.02529 -1.79377,-2.34549 -3.8796,-2.99528 -2.53221,-0.68008 -4.98898,-1.59599 -7.46268,-2.457 -2.39338,-0.89439 -4.86007,-1.53693 -7.35211,-2.08258 -1.65499,-0.38628 -3.28388,-0.90098 -4.99551,-0.87475 -0.2613,0.0234 -0.93945,-0.141 -0.78391,0.0703 0.17866,0.24266 0.88877,-0.214 0.8998,0.0871 0.011,0.29975 -0.59712,0.0628 -0.89236,0.11579 -1.07355,0.1925 -2.11895,0.52172 -3.15723,0.84687 -1.73968,0.55573 -3.42304,1.27298 -5.20356,1.69443 -0.33006,-0.004 -1.26949,0.38192 -1.56285,0.20732 -0.24332,-0.14482 0.0382,-0.58633 -0.0743,-0.84625 -0.0874,-0.20211 -0.30591,-0.31677 -0.45886,-0.47515 -0.6424,1.46263 -2.71086,0.55415 -2.06846,-0.90848 v 0 c -0.0683,-0.31611 -0.22406,-0.62551 -0.20483,-0.94834 0.038,-0.63825 0.35359,-0.74633 0.54733,-1.24338 0.0946,-0.24264 -0.13074,0.0169 -0.10124,-0.18465 0.0126,-0.0864 0.0786,-0.15591 0.1178,-0.23387 1.33182,-1.69934 3.23572,-2.81318 5.17729,-3.69032 1.31599,-0.46537 1.68452,-0.64717 3.05164,-0.92702 2.23272,-0.45704 4.55065,-0.46169 6.80835,-0.22846 1.95181,0.23243 3.90062,0.48994 5.8533,0.7158 2.90905,0.4772 5.77445,1.19774 8.50099,2.33869 2.39495,0.99966 4.78203,2.01765 7.21645,2.91933 0.97387,0.43128 1.58245,0.66201 2.50153,1.2362 1.99036,1.24345 3.58397,2.97378 4.75842,4.99801 0.29622,0.60251 0.62638,1.18948 0.88863,1.80753 1.30774,3.0819 1.71451,6.43939 1.6794,9.76256 -0.13362,3.21352 -0.47036,6.3032 -1.60235,9.34207 -0.95061,2.65277 -2.02663,5.26813 -3.65108,7.5921 -0.78746,1.02945 -1.08463,1.47241 -1.98192,2.42244 -1.54079,1.63132 -3.35392,2.97573 -5.28804,4.10368 -3.53261,1.99151 -7.28754,3.55359 -11.27108,4.38808 -2.14037,0.41668 -4.31041,0.8667 -6.49438,0.98371 -2.94914,0.15802 -5.90411,0.14443 -8.84589,-0.12073 -4.1566,-0.49835 -8.26788,-1.26665 -12.39668,-1.95024 -4.63934,-0.77383 -9.1423,-1.64236 -12.97652,-4.58218 -0.61108,-0.55209 -1.26977,-1.05568 -1.83324,-1.65628 -1.82776,-1.94819 -3.26585,-4.5294 -3.21635,-7.26738 0.007,-0.40372 0.12101,-0.79846 0.18153,-1.19769 0,-2.91034 4.11583,-2.91034 4.11583,0 z"
       inkscape:connector-curvature="0" />
    <path
       style="fill:#000000;fill-opacity:1;stroke:none;stroke-width:0.2619375;stroke-opacity:1"
       id="path935"
       d="m 159.12334,177.60922 c -1.24998,-1.96323 -1.30142,-4.28077 -1.11847,-6.52557 0.16006,-1.65535 0.67074,-3.25011 1.12511,-4.84288 0.52472,-2.0934 1.50021,-4.00563 2.62998,-5.82886 1.30165,-1.89686 2.65176,-3.76157 4.01103,-5.61783 1.20033,-1.77989 2.60601,-3.37909 4.2413,-4.76546 1.56469,-1.25646 3.4143,-2.00214 5.29222,-2.64632 1.44338,-0.47173 2.88637,-0.94717 4.32069,-1.44625 0.58892,-0.18522 1.36029,-0.38181 1.95025,-0.051 0.35865,0.20107 0.61308,0.54806 0.91962,0.82208 1.19159,-0.36764 1.71152,1.31751 0.51993,1.68515 v 0 c 0.0927,0.28625 0.17621,0.57563 0.27808,0.85874 0.22738,0.63193 0.19829,0.47564 -0.37926,0.95613 -1.48003,1.02254 -3.0892,1.77474 -4.83665,2.22737 -1.32232,0.35685 -2.74051,0.58614 -3.88131,1.38903 -1.35572,1.09291 -2.28256,2.55294 -3.25681,3.9784 -1.3058,1.81727 -2.71978,3.54962 -4.06893,5.33449 -1.02911,1.45061 -2.03173,2.92682 -2.72293,4.57577 -0.50389,1.17909 -1.08187,2.34009 -1.15616,3.64475 -0.0829,1.87354 0.12154,3.77201 -0.24366,5.62082 0.44655,2.56257 -3.17747,3.19408 -3.62403,0.63152 z"
       inkscape:connector-curvature="0" />
    <path
       style="fill:#000000;fill-opacity:1;stroke:none;stroke-width:0.2619375;stroke-opacity:1"
       id="path947"
       d="m 167.11379,188.1572 c -0.27158,0.13732 -0.52955,0.30575 -0.81473,0.41196 -1.84859,0.68843 -4.44769,0.59403 -6.32777,0.41821 -0.44537,-0.0417 -0.87636,-0.17977 -1.31454,-0.26966 -2.2312,-0.69161 -4.42642,-1.46638 -6.68445,-2.06931 -2.2018,-0.40396 -4.41733,-0.727 -6.6048,-1.20759 -1.7951,-0.4756 -3.56159,-1.05208 -5.33634,-1.59778 -2.0016,-0.56671 -3.98098,-1.20585 -5.99228,-1.73821 -1.55089,-0.3782 -3.14693,-0.67504 -4.7517,-0.61481 -0.21682,0.008 0.43366,0.0154 0.65049,0.0231 -2.22926,0.0577 -4.45671,0.0127 -6.68584,-0.0331 -0.71077,-0.0521 -1.41608,-0.18502 -2.12738,-0.22982 -0.41365,-0.0261 -1.6824,0.0388 0.86905,-0.0484 0.026,-0.0559 0.15383,-0.21707 -0.006,0.0206 -0.31612,0.46905 -0.59084,0.95801 -0.86868,1.45053 -0.69373,1.19782 -1.30798,2.43058 -1.79275,3.72672 -0.62173,1.81463 -0.95214,3.70962 -1.33364,5.58443 -0.42355,1.76145 -0.60189,3.53506 -0.53129,5.34046 0.096,1.83911 0.38839,3.65678 0.71284,5.46676 0.27501,1.83498 0.68195,3.31194 1.66413,4.88738 1.05908,1.33716 2.44662,2.36783 3.76452,3.43475 1.43019,1.15425 2.78536,2.39743 4.27504,3.47624 1.24839,0.92946 2.64279,1.63024 4.01705,2.34964 1.32628,0.74742 2.66869,1.46603 3.9895,2.2231 1.15925,0.62882 2.38007,1.12729 3.57283,1.68663 1.71544,0.67667 3.37722,1.47056 4.98397,2.3738 1.17527,0.64792 2.21526,1.52078 3.39424,2.16092 0.59875,0.3251 0.97477,0.45341 1.60614,0.7052 2.03305,0.62527 4.15095,0.90423 6.24609,1.23693 2.56724,0.39195 5.13127,0.80329 7.69411,1.22282 2.44252,0.45222 4.87248,0.97701 7.35023,1.19125 2.32487,0.072 1.84871,0.0392 4.77956,-0.12496 3.0264,-0.1488 6.05705,-0.109 9.08601,-0.12902 2.85156,-0.0585 3.453,-0.007 5.72201,0.0647 1.21156,0.058 2.4238,0.0559 3.63574,0.025 0.29069,-0.0121 0.59921,-0.0593 0.36722,0.24909 0.22717,-0.20374 0.43846,-0.42828 0.65663,-0.64258 0.25735,-0.23188 0.37388,-0.35352 0.68129,-0.54933 0.0289,-0.0184 0.18516,-0.008 0.18666,-0.008 0.0798,-0.0364 0.15176,-0.0879 0.22764,-0.13195 0.72843,-0.37653 0.99788,0.0584 1.51854,0.62946 1.44407,-0.82444 2.61,1.21779 1.16593,2.04223 v 0 c 0.13633,0.20472 0.27135,0.41032 0.40901,0.61416 0.22183,0.32846 0.18086,0.32803 -0.0867,0.55144 -0.18874,0.15699 -0.51556,0.50975 0.0578,-0.0508 -0.26086,0.39147 -0.57732,0.74024 -0.92186,1.0617 -0.57587,0.53264 -1.22481,0.96622 -1.96412,1.2417 -1.3019,0.50783 -2.63923,0.92579 -4.02139,1.15255 -3.09739,0.43222 -6.22539,0.31818 -9.34363,0.23631 -2.48622,-0.0547 -2.72484,-0.0775 -5.59946,-0.0619 -2.85348,0.003 -5.70864,0.12781 -8.56083,-0.0166 -2.71104,-0.1815 -5.40624,-0.51785 -8.06177,-1.10769 -2.4576,-0.54407 -4.91819,-1.08554 -7.41287,-1.43407 -2.57455,-0.41094 -5.14612,-0.92989 -7.46278,-2.18809 -1.80625,-0.96562 -3.50407,-2.1079 -5.26009,-3.15988 -1.47584,-0.84996 -2.94051,-1.71925 -4.41013,-2.5799 -1.24117,-0.62209 -2.49743,-1.21554 -3.71988,-1.8734 -1.34247,-0.69862 -2.6467,-1.46802 -3.99593,-2.15422 -1.54257,-0.84504 -3.07722,-1.70719 -4.51515,-2.72454 -1.6008,-1.13858 -3.14433,-2.353 -4.64783,-3.61737 -1.68399,-1.44956 -3.37946,-2.92004 -4.60219,-4.80045 -1.25064,-2.08185 -2.13878,-4.32097 -2.3944,-6.75621 -0.20895,-1.91277 -0.21663,-3.8345 -0.44081,-5.74431 -0.30529,-2.3022 -0.47707,-4.63256 0.0548,-6.92035 0.51558,-2.12026 1.2569,-4.15087 2.16994,-6.13282 0.61042,-1.5208 1.0405,-3.11997 1.87089,-4.5457 1.05002,-1.70651 2.22908,-3.35495 4.20964,-4.03281 1.53243,-0.10723 3.064,-0.15673 4.5953,-0.27345 -0.26594,-0.0145 -0.6309,0.16416 -0.79781,-0.0434 -0.15284,-0.19005 0.48708,-0.0255 0.73051,-0.0403 1.23757,-0.0752 2.47251,-0.1883 3.70934,-0.27405 1.04039,0.003 2.6913,-0.0364 3.86701,0.0666 1.64137,0.14376 3.25862,0.50012 4.83741,0.96161 1.9753,0.64715 3.89902,1.42854 5.85035,2.1429 1.61735,0.51474 3.27522,0.85002 4.96018,1.05842 2.40284,0.39482 4.83519,0.76991 7.0931,1.72474 1.92011,0.75004 3.72006,1.84073 5.74151,2.29291 0.30577,0.0328 0.61153,0.0655 0.9173,0.0983 -0.11017,0.0186 -0.44126,0.041 -0.33052,0.0561 1.49721,0.20243 3.06321,-0.15958 4.51199,0.43074 2.71189,-0.93274 4.03099,2.90246 1.31909,3.8352 z"
       inkscape:connector-curvature="0" />
    <path
       style="fill:#000000;fill-opacity:1;stroke:none;stroke-width:0.2619375;stroke-opacity:1"
       id="path949"
       d="m 216.2256,187.55156 c 1.34836,2.50028 1.75739,5.36179 1.99144,8.15536 0.17326,2.58462 -0.12544,5.13349 -0.84171,7.61395 -0.80678,2.42294 -2.02806,4.17274 -3.77579,5.98823 -1.2906,1.25911 -2.70761,2.38481 -4.13704,3.48154 -1.07056,0.8374 -2.25521,1.46009 -3.54917,1.8609 -1.12914,0.24386 -0.25394,0.0938 -2.22734,0.12928 -0.22291,0.004 -0.88276,0.0447 -0.66343,0.0848 0.64176,0.11708 1.4209,-0.0191 0.51146,0.10829 -1.34632,0.21797 -2.67578,0.52104 -4.0198,0.75303 -1.9854,0.3377 -4.0017,0.29098 -6.00163,0.14064 -1.38483,-0.12629 -2.74735,-0.4133 -4.11603,-0.64787 -1.83728,-0.2649 -3.66986,-0.5548 -5.49917,-0.87154 -1.25562,-0.18786 -2.50714,-0.44894 -3.77851,-0.51133 -0.2684,-0.0131 -0.56909,-0.1352 -0.80613,-0.009 -0.23,0.12283 0.52127,0.0143 0.7819,0.0215 -1.86192,0.0856 -3.71107,0.16204 -5.57747,0.0812 -0.58602,-0.0254 -1.70581,-0.21883 -2.28185,-0.30969 -2.11628,-0.45567 -4.21001,-0.99769 -6.34842,-1.34246 -2.51286,-0.26396 -5.00349,-0.60275 -7.46265,-1.1887 -2.44032,-0.60264 -4.69197,-1.72957 -6.9057,-2.88871 -1.73421,-0.86176 -3.53334,-1.57943 -5.28672,-2.39991 -1.53658,-0.72122 -2.94859,-1.66405 -4.3207,-2.65505 -0.86636,-0.6843 -1.86553,-1.14844 -2.83946,-1.6523 -0.96521,-0.53565 -1.88523,-1.14585 -2.79958,-1.76278 -0.43755,-0.39067 -1.1067,-0.68061 -1.38322,-1.23101 -0.008,-0.0148 -0.041,-0.052 -0.0256,-0.0446 0.22404,0.1067 -0.005,0.11549 -0.18629,0.045 -0.39249,-0.0743 -0.73404,-0.29407 -1.10578,-0.41702 1.49548,0.5198 -1.76832,-0.85839 -1.30144,-1.89106 -1.04865,-3.4226 3.79164,-4.9056 4.84028,-1.483 v 0 c 0.63653,-0.67525 0.91273,0.80598 -1.53932,-1.62794 -0.0439,-0.0437 0.12448,7.9e-4 0.18533,0.0121 0.18163,0.034 0.49109,0.13172 0.66832,0.18478 0.54927,0.20596 1.10174,0.43188 1.55877,0.80894 0.22525,0.18867 0.45982,0.37917 0.7253,0.50638 0.20529,0.10612 0.23897,0.0377 0.45296,0.12876 0.37706,0.16039 0.72056,0.38875 1.07906,0.58432 0.8135,0.49691 1.63215,0.98283 2.5095,1.36262 1.10842,0.57042 2.1651,1.2237 3.23301,1.86534 1.2908,0.68827 2.63226,1.27174 3.9745,1.85183 1.83495,0.77099 3.66977,1.54274 5.45828,2.41821 1.92289,0.82219 3.89029,1.52796 5.94648,1.94118 2.41541,0.48328 4.85806,0.81602 7.26293,1.35349 2.00123,0.47134 3.9847,1.03178 6.01109,1.38583 0.28544,0.0371 0.56982,0.0835 0.85631,0.11138 0.27807,0.027 0.64857,-0.15375 0.83646,0.053 0.17047,0.18759 -0.99912,-0.0521 -0.75978,0.0313 0.55485,0.19353 2.26326,-0.10751 2.89033,-0.0374 2.72608,0.008 5.46167,0.0264 8.12384,0.70144 1.77952,0.4185 3.5397,0.91056 5.31162,1.35942 1.12219,0.27855 2.24181,0.6018 3.39512,0.72038 0.40906,0.0323 2.11419,-2.1e-4 0.12187,0.0464 -0.19416,0.004 0.38859,0.002 0.58263,-0.007 0.47638,-0.0208 0.90408,-0.0731 1.37968,-0.12251 1.53875,-0.20181 3.07998,-0.41934 4.63588,-0.41404 0.58205,0.009 2.16094,0.0338 2.32984,0.0419 0.13389,0.006 0.26394,0.047 0.39607,0.0696 0.10142,0.0174 0.40692,0.0399 0.30455,0.0504 -1.11887,0.11462 -1.1811,-0.33628 -1.08887,0.11767 -0.009,0.1908 0.36158,-0.10006 0.37549,-0.10838 0.5131,-0.30724 0.98746,-0.67079 1.48232,-1.00561 1.27912,-0.87874 2.60344,-1.7096 3.73379,-2.78227 1.2384,-1.33963 2.35082,-2.79923 3.22315,-4.40604 1.03757,-2.10525 1.10112,-3.44785 0.78968,-5.7828 -0.3571,-2.71905 -0.9778,-5.48846 -0.53219,-8.22996 -0.24107,-2.26377 2.96039,-2.60471 3.20147,-0.34094 z"
       inkscape:connector-curvature="0" />
    <path
       style="fill:#000000;fill-opacity:1;stroke:none;stroke-width:0.2619375;stroke-opacity:1"
       id="path951"
       d="m 194.81096,229.48125 c 1.29245,-0.62817 2.72072,-0.88569 4.08794,-1.29702 0.94169,-0.28332 1.31944,-0.44084 2.22983,-0.78093 1.90777,-0.79053 2.76324,-1.55089 3.77733,-3.30145 0.71315,-1.45036 1.46414,-2.8818 2.18529,-4.32821 0.41326,-0.65837 0.64569,-1.30403 0.572,-2.07465 -0.12488,-0.80982 -0.175,-1.65683 -0.60823,-2.37256 -0.23254,-0.19838 -0.56135,-0.21659 -0.84273,-0.32779 -0.85666,-0.38698 -1.39742,-1.1214 -1.76154,-1.96138 0.0764,0.0481 -0.14457,-0.37277 -0.0457,-0.36941 0.065,0.002 0.0743,0.10853 0.12396,0.15059 0.18071,0.15325 0.36247,0.17845 0.59114,0.25327 -1.90185,-2.09174 1.05631,-4.78134 2.95814,-2.68961 v 0 c 0.55018,0.21571 0.80694,0.45092 1.11051,0.85541 -0.0801,-0.19636 -0.1139,-0.30931 -0.23752,-0.48665 -0.37883,-0.54343 -0.17672,-0.28762 0.30353,-0.1629 1.29209,0.6026 2.3067,1.53716 2.95684,2.8227 0.55708,1.36989 0.78856,2.77623 0.72278,4.25766 -0.0458,1.39722 -0.28553,2.75344 -0.86301,4.03796 -0.70714,1.58565 -1.40687,3.17613 -2.18764,4.72728 -1.46274,2.56036 -3.00729,4.44728 -5.73336,5.75785 -0.48771,0.19526 -0.96387,0.42228 -1.46312,0.5858 -2.16997,0.71075 -4.55075,0.92794 -6.77689,0.3833 -2.60162,0.7775 -3.70118,-2.90175 -1.09956,-3.67926 z"
       inkscape:connector-curvature="0" />
    <path
       style="fill:#000000;fill-opacity:1;stroke:none;stroke-width:0.2619375;stroke-opacity:1"
       id="path965"
       d="m 141.36516,118.93946 c -2.70551,0.91116 -5.61286,0.63356 -8.39582,0.29213 -1.04465,-0.0843 -2.08991,-0.31561 -3.14347,-0.28439 -0.20552,0.006 0.5112,-0.1348 0.61532,0.0425 0.0887,0.15091 -0.34965,0.0645 -0.50405,0.14696 -0.19644,0.10485 -0.35395,0.27029 -0.53092,0.40543 -0.20904,0.24045 -0.43638,0.46615 -0.62713,0.72137 -1.02647,1.37334 -1.81699,2.94348 -2.60736,4.45649 -0.58436,1.11864 -1.56242,3.06483 -2.12512,4.17879 -1.36142,3.01236 -3.19,5.99542 -3.6544,9.32937 -0.0655,0.47063 -0.0617,0.94835 -0.0925,1.42252 0.0373,2.34982 0.90178,4.08748 2.75172,5.54339 0.40752,0.32072 0.85654,0.58488 1.2848,0.87732 3.2207,1.90224 6.84056,2.87208 10.48569,3.55785 2.17801,0.26742 4.04309,0.30164 6.17436,-0.24356 0.4949,-0.12661 0.97172,-0.31558 1.45758,-0.47335 3.85419,-1.66976 7.27981,-4.18314 10.66722,-6.63441 1.793,-1.46643 4.28689,-3.0411 5.25977,-5.25864 0.11661,-0.26582 0.17101,-0.55479 0.25651,-0.83219 0.22784,-2.46457 -0.68217,-4.83637 -1.70173,-7.0302 -1.46536,-2.75407 -3.14376,-5.44628 -5.37357,-7.6473 -1.48111,-1.21968 -3.01986,-0.90076 -4.79465,-0.78481 0.15647,0.0186 0.62583,0.0366 0.46942,0.0558 -0.44383,0.0543 -2.25817,0.0589 -2.68966,0.0532 -1.96262,-0.026 -3.34993,-0.0361 -5.18601,-0.38536 -1.19031,-0.40109 -1.20053,-0.37258 -1.46741,-1.56254 -2.03449,-0.54464 -1.26426,-3.42185 0.77024,-2.8772 v 0 c 0.81014,-1.05656 0.94483,-1.20105 2.28238,-1.51703 0.35963,-0.0561 0.71766,-0.12371 1.07891,-0.16826 0.4029,-0.0497 0.81516,-0.0311 1.21246,-0.11433 0.13669,-0.0287 -0.55503,-0.0446 -0.41562,-0.0527 1.88559,-0.11025 3.78609,0.19858 5.67002,0.056 3.17727,0.22563 5.81262,0.7637 8.43056,2.73407 0.47281,0.39942 0.96898,0.77272 1.41842,1.19827 2.57057,2.43386 4.36133,5.5594 5.60474,8.84555 0.20327,0.66 0.43504,1.31188 0.6098,1.98 0.72899,2.78697 0.86536,5.73196 0.49752,8.58135 -0.3297,1.44589 -0.38413,1.97275 -0.97412,3.3612 -1.14636,2.6978 -3.06718,4.95478 -5.22165,6.90402 -0.67354,0.5476 -1.32395,1.12492 -2.02059,1.64281 -3.36866,2.50428 -7.20692,4.31919 -11.21581,5.52957 -1.65131,0.40824 -2.27874,0.60848 -3.94538,0.8478 -3.13446,0.45008 -6.34714,0.34892 -9.47821,-0.0608 -0.71881,-0.12882 -1.44361,-0.22781 -2.15645,-0.38644 -3.83958,-0.85439 -7.47622,-2.47553 -10.51215,-4.99763 -0.53789,-0.52005 -1.10994,-1.00697 -1.61368,-1.56018 -2.35549,-2.58686 -3.62833,-5.79384 -3.88198,-9.26598 -0.0324,-1.86316 -0.11413,-2.38577 0.15644,-4.26417 0.47064,-3.26745 1.73809,-6.35749 3.21695,-9.28464 0.42722,-0.77225 0.82765,-1.55993 1.28165,-2.31674 1.89498,-3.15888 4.23933,-6.1059 7.28635,-8.21841 0.77868,-0.41325 1.86571,-1.0796 2.77405,-1.23112 2.00205,-0.33397 4.01903,-0.11689 6.00874,0.14163 1.36423,0.16757 2.72846,0.3402 4.08434,0.56773 0.89163,0.14963 1.67191,0.27221 2.5212,0.5826 0.29353,0.10727 0.56475,0.26779 0.84713,0.40169 2.11783,0.59742 1.27295,3.59249 -0.84489,2.99507 z"
       inkscape:connector-curvature="0" />
    <path
       style="fill:#000000;fill-opacity:1;stroke:none;stroke-width:0.2619375;stroke-opacity:1"
       id="path967"
       d="m 203.87619,115.67506 c -0.7572,0.36277 -1.70049,0.21604 -2.44828,0.59905 -0.0983,0.0503 0.20559,0.25975 0.1088,0.31294 -0.43974,0.24159 -0.97314,0.25091 -1.44509,0.42122 -1.35391,0.4886 -1.4937,0.66286 -2.71297,1.41705 -2.01758,1.56987 -3.60655,3.68056 -4.41695,6.12131 -0.14423,0.43438 -0.23,0.88604 -0.345,1.32906 -0.34712,2.33111 -0.063,4.71671 0.84187,6.89763 0.17967,0.43305 0.40946,0.84357 0.61419,1.26536 1.95155,3.04404 3.85844,3.35158 7.28008,3.48377 0.60227,-0.0401 1.20842,-0.0413 1.80681,-0.12054 0.0404,-0.005 -0.0225,-0.1156 0.0179,-0.12094 0.60142,-0.0795 1.21106,-0.0748 1.81592,-0.12151 1.31781,-0.10172 2.60564,-0.25076 3.90278,-0.4982 0.2849,-0.0854 0.64888,-0.13406 0.8796,-0.36134 0.36455,-0.35913 0.38071,-1.7383 0.42512,-2.17914 0.14202,-2.39289 0.45037,-4.77169 0.59794,-7.16382 0.0758,-2.25113 0.0402,-4.51838 -0.42087,-6.72852 -0.445,-1.65715 -1.7346,-2.64597 -3.08615,-3.56568 -1.12714,-0.67292 -2.27328,-1.37332 -3.57757,-1.62065 -0.0875,-0.0172 -1.58025,-0.0724 -1.49414,-0.23335 0.55661,-1.04036 1.64227,0.37116 0.008,-1.09683 -2.36904,0.79452 -3.49266,-2.55581 -1.12363,-3.35033 v 0 c 0.15975,-0.26877 0.19635,-0.67319 0.47925,-0.80631 0.67836,-0.31918 1.46475,-0.32208 2.20247,-0.4555 0.98152,-0.1775 1.89854,-0.11181 2.84855,0.19966 1.92359,0.59556 3.80836,1.32763 5.44749,2.52721 2.65371,2.01814 4.191,3.98276 5.07131,7.26178 0.0969,0.49401 0.21759,0.98395 0.29085,1.48202 0.32486,2.2088 0.15938,4.46439 0.18601,6.68618 -0.11717,2.66231 -0.35489,5.32134 -1.08142,7.89777 -0.75597,2.86749 -1.58494,5.08093 -4.12241,6.87241 -0.46783,0.26603 -0.9167,0.56855 -1.40349,0.79807 -3.7451,1.76583 -8.34024,1.83493 -12.34405,1.26319 -2.01898,-0.50576 -2.74009,-0.56217 -4.60301,-1.52101 -2.69077,-1.38493 -4.7417,-3.57759 -6.12739,-6.24467 -0.2684,-0.62389 -0.57321,-1.23333 -0.8052,-1.87166 -1.13862,-3.13291 -1.32294,-6.52763 -0.92203,-9.81206 0.1451,-0.68078 0.24616,-1.37245 0.43533,-2.04233 1.04097,-3.68639 3.26911,-6.86012 6.247,-9.23859 0.68409,-0.43567 1.33478,-0.9289 2.05229,-1.30701 2.881,-1.51818 6.63294,-2.20994 9.76909,-1.10565 0.40926,0.14411 0.7718,0.39672 1.1577,0.59508 2.9238,1.41873 0.91741,5.55361 -2.00639,4.13488 z"
       inkscape:connector-curvature="0" />
    <path
       style="fill:#000000;fill-opacity:1;stroke:none;stroke-width:0.2619375;stroke-opacity:1"
       id="path983"
       d="m 66.788509,120.79069 c -2.301935,0.92195 -4.868668,0.78989 -7.307209,0.81132 -1.685946,-0.0408 -3.321667,0.32278 -4.885245,0.92587 -1.327652,0.60071 -2.636306,1.25369 -3.896572,1.9861 -1.599553,0.93299 -2.767713,2.31677 -3.82549,3.80382 -1.253931,1.7982 -2.206755,3.7719 -3.190998,5.72268 -0.849259,1.56249 -1.553772,3.16173 -1.94974,4.89633 -0.350252,1.95619 -0.526361,3.93991 -0.604478,5.92433 -0.148652,1.62051 0.425014,3.04825 1.026627,4.50973 0.794778,1.82727 1.463403,3.69899 2.076657,5.59314 0.382363,1.52562 0.949601,2.97462 1.84072,4.27233 1.063094,1.40553 2.323242,2.64455 3.562439,3.89211 1.312512,1.2773 2.645017,2.53326 3.982878,3.7838 0.824441,0.74619 1.697803,1.43785 2.747059,1.82823 0.916338,0.19905 1.836727,0.36451 2.746908,0.59768 0.788379,0.14164 1.436747,0.67833 2.189124,0.9038 0.02658,-0.004 0.06023,0.008 0.07974,-0.0103 0.01689,-0.0159 5.24e-4,-0.0467 0.005,-0.0695 0.09982,-0.50007 -2.343333,0.0222 -0.719129,-0.17098 0.783211,-0.15345 1.585049,-0.14564 2.373803,-0.24857 0.730481,-0.10736 1.450356,-0.25525 2.163243,-0.44561 0.379932,-0.0268 0.632186,-0.0817 0.94881,-0.27922 0.858123,-0.73329 1.816914,-1.28604 2.842665,-1.74696 0.538119,-0.38962 1.346424,-0.27627 1.8487,-0.69634 0.544869,-0.59575 1.13866,-1.14143 1.733869,-1.68552 0.393534,-0.33832 0.800557,-0.64904 1.110858,-1.06772 0.237229,-0.39137 0.450792,-0.79563 0.692631,-1.18456 0.176799,-0.33437 0.37852,-0.58574 0.511401,-0.87089 0.177398,-0.48291 0.440605,-0.1928 0.860976,-0.0206 0.943032,-2.85657 4.982823,-1.52291 4.039789,1.33365 v 0 c 0.331914,0.2697 0.653536,0.4181 0.438103,0.83834 -0.148589,0.27638 -0.223087,0.41793 -0.244558,0.65222 -0.222896,0.89838 -0.638108,1.73672 -1.153546,2.50294 -0.507002,0.62239 -1.048059,1.23228 -1.719601,1.6819 -0.501124,0.43104 -0.872973,0.99107 -1.332896,1.46313 -0.923204,1.05246 -1.95627,1.98863 -3.323775,2.41107 -0.875002,0.30401 -1.800171,0.49524 -2.59261,0.99579 -0.636446,0.32273 -1.240719,0.70695 -1.915803,0.94961 -0.828304,0.24262 -1.60985,0.62986 -2.461814,0.79671 -0.98643,0.22503 -1.969284,0.38456 -2.984199,0.27302 -1.355415,0.049 -2.741425,0.20919 -4.025074,-0.32504 -0.637278,-0.20468 -1.283548,-0.32441 -1.948421,-0.40349 -1.264113,-0.23311 -2.522103,-0.51004 -3.693922,-1.05964 -1.473621,-0.71974 -2.872587,-1.56997 -4.1391,-2.61873 -1.557794,-1.25114 -3.062837,-2.57133 -4.454241,-4.00704 -1.496479,-1.55333 -2.942748,-3.16742 -4.060854,-5.02298 -1.009376,-1.73756 -1.848495,-3.55115 -2.43401,-5.47855 -0.59402,-1.79533 -1.307063,-3.5444 -2.001137,-5.30287 -0.768609,-2.09676 -1.414596,-4.23831 -1.47685,-6.49082 -0.137223,-2.54879 0.01365,-5.08343 0.75767,-7.54345 0.608672,-1.95585 1.40404,-3.83734 2.186397,-5.72894 0.94544,-2.4553 1.825809,-4.96262 3.395389,-7.1092 1.682766,-2.15884 3.48468,-3.98654 5.944419,-5.25599 1.384995,-0.72223 2.85306,-1.25309 4.19615,-2.05425 2.077838,-1.16981 4.231459,-2.18828 6.620958,-2.53224 2.674513,-0.25397 5.442894,-0.29587 8.012131,0.60368 3.872562,-0.9943 5.278721,4.48232 1.406159,5.47663 z"
       inkscape:connector-curvature="0" />
    <path
       style="fill:#000000;fill-opacity:1;stroke:none;stroke-width:0.2619375;stroke-opacity:1"
       id="path987"
       d="m 51.901019,134.0875 c 0.346318,-0.2896 0.661618,-0.62097 1.038955,-0.8688 2.308926,-1.5165 5.378352,-2.32448 8.13362,-2.16109 1.265852,0.0751 2.516439,0.31561 3.774658,0.47341 3.817461,1.47079 5.67589,3.72085 7.438033,7.25319 0.140775,0.28266 0.508596,1.02951 0.685844,1.35969 0.05233,0.0975 0.112033,0.19081 0.16687,0.28688 0.0055,0.01 0.02357,0.035 0.01391,0.0299 -0.770516,-0.41118 1.400533,0.017 -1.706531,-0.22965 -0.247973,0.16788 -0.533412,0.29066 -0.743924,0.50364 -0.608404,0.61554 -0.596219,1.66014 -0.09337,2.32569 0.146463,0.19384 0.34946,0.33762 0.52419,0.50644 0.80945,0.0935 1.67574,-0.0317 2.42835,0.28064 0.03726,0.0155 -0.5893,0.43931 -1.399113,0.7267 -1.25696,0.44608 -2.618826,0.29496 -3.933793,0.36824 -0.919333,0.0569 -1.842911,0.0569 -2.763229,0.0229 -0.280021,-0.0103 0.56737,-0.0473 0.840505,0.0153 0.253967,0.0582 -0.521143,-0.006 -0.78165,-0.002 -0.24038,0.004 -0.480438,0.0197 -0.720656,0.0295 -1.021337,0.0292 -1.974983,0.35695 -2.93254,0.67064 -0.129709,-0.0448 0.130731,-0.35922 0.131784,-0.35914 0.09192,0.007 0.244684,0.55445 0.288487,0.70667 0.08101,0.28154 0.148694,0.56674 0.223043,0.85012 0.555952,1.86321 1.245225,3.68121 2.075514,5.4387 0.248987,0.52786 0.536042,1.03379 0.894902,1.49422 0.05054,0.0649 0.230546,0.23265 0.164211,0.18407 -0.06142,-0.045 -0.123281,-0.0894 -0.18492,-0.13404 -0.812952,-0.50901 -2.56308,-0.47731 -2.775278,0.65142 -0.05277,0.28069 0.06339,0.56768 0.09508,0.85152 1.149029,-2.45333 4.618558,-0.82835 3.469528,1.62498 v 0 c 0.01294,0.31646 0.130076,0.64609 0.03884,0.9494 -0.422947,1.40609 -2.569182,1.24552 -3.695791,0.87014 -1.923494,-0.82863 -3.151097,-2.02193 -4.252183,-3.81173 -1.255441,-2.23898 -2.165603,-4.62258 -2.342845,-7.20912 -0.175079,-2.26942 -0.383016,-4.32291 1.131837,-6.24162 0.241595,-0.24878 0.464247,-0.51747 0.724792,-0.74634 1.329199,-1.16756 3.057685,-1.7101 4.762471,-2.03256 2.433889,-0.35298 4.908809,-0.3174 7.350144,-0.0417 1.677244,0.2052 0.223273,-0.037 -0.168648,0.21629 -0.135199,0.0874 0.314139,0.0887 0.450276,0.17451 0.279495,0.17635 0.117484,0.28029 0.0067,0.49969 0.924115,0.0325 1.848233,0.0649 2.772351,0.0974 0.211656,0.17808 0.453897,0.32511 0.634966,0.53421 0.698762,0.80689 0.79086,2.15412 0.04517,2.97657 -0.253778,0.2799 -0.611875,0.4434 -0.917816,0.66511 -0.624354,-0.0278 -1.254673,0.007 -1.873063,-0.0834 -1.093908,-0.16005 -2.576933,-1.89605 -3.213143,-2.71308 -1.425817,-1.83333 -2.645325,-3.56648 -5.101018,-3.97285 0.520138,-0.4361 0.29517,-0.204 -1.50712,-0.12237 -1.781686,0.0807 -3.542201,0.45323 -5.315451,0.62309 -0.4416,0.0423 -0.885332,0.0582 -1.327999,0.0873 -2.558815,1.80664 -5.113796,-1.81207 -2.55498,-3.61871 z"
       inkscape:connector-curvature="0" />
    <path
       style="fill:#000000;fill-opacity:1;stroke:none;stroke-width:0.2619375;stroke-opacity:1"
       id="path989"
       d="m 69.713443,119.02842 c 0.06305,0.36729 0.157065,0.7306 0.189168,1.10189 0.203672,2.35568 -0.200298,4.79473 -0.55262,7.11712 -0.03008,0.27326 -0.06776,0.54579 -0.09024,0.81977 -0.0093,0.11339 0.0063,0.22806 -0.0049,0.34127 -0.0066,0.0661 0.0052,-0.13426 -0.0091,-0.19913 -0.03812,-0.17179 -0.139005,-0.33111 -0.147567,-0.50688 -0.0063,-0.12961 0.204371,-0.292 0.104607,-0.37499 -0.20439,-0.17001 -0.517434,-0.12241 -0.776152,-0.18362 2.136378,-0.86667 4.371865,-1.26192 6.66567,-1.32604 1.333833,0.0201 2.975479,-0.14157 4.092894,0.80729 0.24322,0.20653 0.714259,0.33012 0.703616,0.64901 -0.04391,1.31606 -0.569318,2.57131 -0.853979,3.85697 0.815632,-0.33001 0.829381,-1.19244 0.88246,0.27262 -0.05781,1.31815 -0.269246,2.67998 -0.850983,3.87741 -0.04063,0.045 -0.09866,0.19088 -0.121869,0.1349 -0.423613,-1.02174 0.550417,-0.9933 -1.001368,-2.07151 -0.867917,-0.60306 -2.677175,-0.14651 -0.832328,-0.59318 2.574316,-0.51505 4.692817,-0.18583 7.020355,0.86376 1.97338,1.07239 2.946027,2.73722 3.679122,4.78133 0.465541,1.30005 0.668863,2.67693 1.116456,3.98086 0.222065,0.52386 -0.352576,-0.52318 -0.55788,-0.56208 -0.419176,-0.0795 -1.705795,-0.0499 -1.27941,-0.0355 0.853104,-0.29134 1.703429,-0.58596 2.575964,-0.82012 -0.207756,0.14416 1.07485,-0.36418 1.012671,-0.0775 -0.02506,0.1156 -0.119689,0.20406 -0.179535,0.30609 2.265556,-2.73918 6.139344,0.46479 3.873789,3.20398 v 0 c -0.54269,0.74277 -1.178113,1.29032 -2.087613,1.55258 -0.59043,0.17309 -1.185662,0.3396 -1.808227,0.33898 -0.506593,-5.2e-4 -0.153845,-0.11927 -0.685787,-0.008 -0.153212,0.032 -0.300225,0.0887 -0.450336,0.13308 -2.535788,0.74076 -4.219942,0.0155 -5.604083,-2.07936 -0.713305,-1.4028 -1.111424,-2.892 -1.394709,-4.43723 -0.243882,-0.90269 -0.382156,-1.16644 -1.311904,-1.45038 -0.572779,-0.17598 -1.130213,-0.30474 -1.727585,-0.36969 -0.206624,-0.0225 -0.764752,0.0996 -0.621449,-0.0509 0.176111,-0.185 0.582955,0.0887 0.760362,-0.095 0.141476,-0.14655 -0.405219,-0.0419 -0.607831,-0.063 -1.086087,-0.0667 -2.537855,0.10492 -3.472935,-0.40158 -1.216089,-0.65872 -1.346487,-1.81059 -1.496747,-2.95346 -0.02707,-1.15626 0.263516,-2.26958 0.462419,-3.40202 0.267844,-1.87381 0.605374,-3.62819 2.557702,-4.43412 -0.807229,7.1425 -1.264899,2.21857 0.167875,4.31136 0.131404,0.19194 -1.011296,0.37461 -1.008729,0.37777 0.149113,0.18354 0.471003,0.043 0.706506,0.0645 -2.121055,0.1332 -4.223033,0.42223 -6.324059,0.7383 -0.865825,0.0317 -1.733759,0.16326 -2.597475,0.095 -0.491552,-0.0388 -0.981066,-0.18892 -1.420597,-0.4124 -1.902732,-0.96744 -2.654375,-2.87515 -2.86765,-4.87483 -0.07644,-2.88708 0.175603,-5.90756 1.590044,-8.48396 0.382199,-3.24143 4.966273,-2.70092 4.584072,0.54051 z"
       inkscape:connector-curvature="0" />
    <path
       style="fill:#000000;fill-opacity:1;stroke:none;stroke-width:0.2619375;stroke-opacity:1"
       id="path991"
       d="m 90.846796,142.91935 c 1.689479,-1.90314 3.770092,-3.44088 5.884093,-4.84264 0.146127,-0.0904 1.630239,-0.93715 1.841966,-0.82995 3.213215,1.62687 4.283325,1.07445 3.533065,3.0029 -0.22378,0.32575 -0.1509,0.11487 -0.25076,0.0746 -1.39322,-0.56141 -3.160706,-2.47828 -4.263644,-1.4586 -0.250103,-0.2341 -0.359488,-0.81981 -0.423864,-1.11951 -0.248718,-1.15787 -0.205831,-2.27477 -0.152904,-3.45005 0.229696,-1.89385 0.713442,-3.84182 1.854274,-5.40709 0.03122,-0.004 0.08362,-0.0434 0.09366,-0.0135 0.03475,0.10344 -0.003,0.21902 0.01171,0.32715 0.0252,0.18601 0.04895,0.37442 0.107494,0.55276 0.261615,0.79693 0.722552,1.09017 -0.100039,0.80175 -1.207621,-0.53498 -2.303982,-1.28423 -3.323849,-2.11646 -1.27546,-1.05687 -1.992254,-2.47707 -2.457563,-4.03443 -0.353416,-1.39397 -0.285569,-2.82434 -0.04651,-4.22819 0.236354,-1.4361 0.78076,-2.52561 1.883778,-3.47425 0.107903,-0.0684 1.138491,-0.7553 1.22081,-0.63731 0.976035,1.39891 1.843178,2.93736 2.259036,4.59165 0.08827,0.35116 -0.637287,0.3821 -0.995554,0.43452 -1.654094,0.24203 -1.83971,0.13205 -3.06091,-0.14449 -1.644009,-0.49666 -2.678327,-1.07018 -3.697874,-2.4597 -0.832341,-1.46372 -0.506003,-2.78662 -0.06654,-4.27429 0.377777,-1.24347 0.974161,-2.4224 1.789751,-3.43513 0.06523,-0.0635 0.11591,-0.14659 0.195709,-0.19033 0.02135,-0.0117 0.04108,0.037 0.03971,0.0613 -0.01763,0.31352 -0.231437,0.65392 -0.09587,0.93717 0.4389,0.917 1.4211,1.53861 1.742468,2.50311 0.128196,0.38473 -0.76416,-0.29954 -1.089089,-0.54218 -0.330538,-0.24683 -0.564168,-0.60203 -0.846254,-0.90304 -0.745497,-1.0693 -1.080738,-2.26055 -1.016394,-3.55282 0.09162,-0.47354 0.123446,-1.63451 0.807764,-1.65166 0.416142,0.20595 0.84326,0.27709 1.298377,0.37964 -0.258091,-1.23347 1.486293,-1.59846 1.744382,-0.365 v 0 c 0.562687,0.16025 1.006595,0.18415 1.287872,0.71835 0.137436,0.23071 0.284872,0.44554 0.467445,0.63699 0.05009,0.10444 0.46952,1.27751 0.13588,0.94767 -0.364085,-0.34615 -1.96243,-1.91843 -1.368694,-0.93406 0.560368,0.92905 1.54711,1.55993 2.074736,2.50796 0.231283,0.41557 -0.198981,1.39179 -0.315479,1.86408 -0.406997,1.01908 -1.021756,1.92753 -1.656551,2.81732 -0.127008,0.20079 -0.230534,0.4159 -0.359289,0.61558 -0.02146,0.0333 -0.07008,0.11762 -0.08637,0.0815 -0.09866,-0.21864 -0.07324,-1.01376 -0.328734,-1.26775 -0.0032,-0.04 -0.04586,-0.10281 -0.0096,-0.11987 0.232656,-0.1094 1.356522,0.6051 1.689191,0.61398 1.235946,0.26379 -1.824636,-0.20493 -1.447221,0.50073 1.801051,3.3675 1.573176,5.41947 3.498508,3.87211 0.321141,-0.35667 -0.03636,-0.12415 0.007,0.3741 -0.02402,0.79862 -0.124962,1.60733 0.01445,2.40035 0.129437,0.57947 0.36104,0.88243 0.902462,1.16454 0.988709,0.60265 1.980999,1.21629 2.850699,1.98592 1.32352,1.17343 1.83595,2.19766 1.71152,3.97987 -0.0734,1.63432 -0.48025,3.22462 -0.87346,4.8068 -0.39391,1.50362 -0.65951,3.02761 -0.92682,4.55745 -0.14676,0.46852 -0.32465,1.10732 -0.42627,1.09187 -2.818766,-0.4286 -4.721569,0.12467 -4.284728,-1.9217 0.823298,-1.69416 4.219568,1.35655 4.142798,1.78313 -0.0329,0.18284 -0.12346,0.35236 -0.21377,0.51472 -0.15599,0.28041 -0.34824,0.53906 -0.52236,0.8086 -0.27889,0.33315 -0.53792,0.68399 -0.83668,0.99944 -1.851996,1.95551 -4.233739,3.40163 -6.898435,3.88195 -2.699449,1.87281 -5.348009,-1.94479 -2.648559,-3.81761 z"
       inkscape:connector-curvature="0" />
    <path
       style="fill:#000000;fill-opacity:1;stroke:none;stroke-width:0.2619375;stroke-opacity:1"
       id="path995"
       d="m 41.979209,128.81614 c -2.32003,0.25837 -4.657511,0.52349 -6.929864,-0.18731 -1.653801,-0.51732 -1.991282,-0.84321 -3.490941,-1.73968 -2.773495,-2.15764 -4.780367,-5.06275 -5.593893,-8.50193 -0.13386,-0.5659 -0.186342,-1.14801 -0.279513,-1.72201 -0.230529,-2.15261 0.169067,-4.22515 1.405652,-6.00567 0.972673,-1.25719 2.308898,-1.79528 3.790506,-2.18385 1.573559,-0.26962 3.244141,-0.22029 4.821514,-0.005 0.178135,0.0242 0.820961,0.50038 0.908848,0.56136 -0.120539,1.74133 -0.122637,3.49494 -0.361619,5.224 -0.01903,0.13763 -0.244965,0.14937 -0.383113,0.16423 -0.713444,0.0768 -1.434556,0.16389 -2.149957,0.10826 -1.11767,-0.0869 -2.245925,-0.99928 -3.162833,-1.55627 -2.724759,-1.7487 -5.0904,-4.06013 -6.818893,-6.8082 -0.386474,-0.61445 -0.699586,-1.27208 -1.049379,-1.90812 -1.236884,-2.62401 -1.800356,-5.484972 -1.195938,-8.352111 0.07956,-0.377415 0.206479,-0.743274 0.309719,-1.114911 0.05771,-0.158391 0.719947,-1.928789 0.958689,-1.950501 0.05649,-0.0051 0.06967,0.397369 0.08441,0.568351 0.04755,0.175897 0.08614,0.700917 0.142652,0.527692 0.09209,-0.282269 -0.245805,-0.692665 -0.02432,-0.890401 2.337084,-2.086497 3.13004,-3.016125 5.464584,-2.922581 0.23968,0.02569 0.434646,0.03329 0.663118,0.100613 0.04827,0.01422 0.187161,0.05817 0.137094,0.06317 -0.516808,0.05171 -1.24238,-0.335058 -1.556171,0.07883 -2.919763,3.851104 -0.535568,5.589824 -2.319818,4.11678 -1.897228,-1.887198 -3.315111,-4.162903 -4.645672,-6.464961 -1.407711,-2.62254 -2.53749,-5.507857 -2.54144,-8.529474 -6.28e-4,-0.482902 0.06741,-0.963448 0.101112,-1.445172 0.281084,-2.327681 1.416146,-3.839477 2.866229,-5.548224 1.01977,-1.271636 2.110172,-2.51925 3.538087,-3.348638 0.4109,-0.238667 0.852036,-0.420994 1.278054,-0.631492 3.01697,-0.954972 5.703772,-0.797086 8.343251,0.824907 1.936326,1.678152 2.639095,4.098143 -0.06949,5.986503 -0.850275,0.592791 -2.109581,0.265306 -3.066579,0.05893 -1.901962,-0.826087 -3.485113,-2.266862 -4.955369,-3.699555 -2.074601,-2.334853 -3.731256,-5.095109 -4.369308,-8.185411 -0.124922,-0.605037 -0.164429,-1.22461 -0.246643,-1.836915 -0.133405,-2.500652 0.364796,-4.965817 1.754846,-7.076771 0.257417,-0.390915 0.56323,-0.747724 0.844845,-1.121585 1.73873,-1.922254 3.773112,-3.610468 6.061196,-4.845438 0.524583,-0.283138 1.07666,-0.512075 1.614989,-0.768113 2.537224,-1.015521 5.158981,-1.444198 7.900714,-1.092251 0.649891,0.08342 1.513708,0.74478 2.034419,1.093747 0.990666,0.89526 1.846298,2.128865 1.658033,3.551424 -0.05998,0.453191 0.05149,1.183373 -0.385997,1.315982 -1.671496,0.506655 -3.483752,0.256656 -5.225628,0.384986 -1.355375,-1.954869 -2.093342,-4.21078 -2.711846,-6.483745 -0.504419,-2.460188 -0.683938,-5.01899 0.153393,-7.438922 0.663931,-1.918799 1.088529,-2.226914 2.289002,-3.833391 3.258338,-3.21678 7.044605,-4.06286 11.403269,-4.718267 2.891801,-0.257942 5.789057,-0.613541 8.69315,-0.697571 1.461245,0.0487 1.55543,0.359337 2.578877,1.417637 1.63691,-1.003518 3.056101,1.311422 1.41919,2.31494 v 0 c 0.388276,1.600356 0.569799,1.608148 -0.820199,2.561723 -0.356532,0.171274 -0.702176,0.36735 -1.069594,0.513822 -2.514086,1.002246 -5.253753,1.274896 -7.91409,1.603657 -2.629357,0.267877 -5.401782,0.407332 -7.818902,1.566185 -0.199709,0.122197 -0.422657,0.212725 -0.599128,0.36659 -1.196685,1.043396 -0.41473,3.742835 -0.34857,5.087439 0.11141,1.161994 0.237477,2.327576 0.300421,3.493673 0.01179,0.218474 0.02504,0.437682 0.01444,0.656216 -0.0042,0.08678 0.02504,0.2773 -0.05864,0.253958 -0.158443,-0.04419 -0.222549,-0.24228 -0.333826,-0.363421 -1.648333,0.231057 -3.377047,0.134667 -4.944997,0.693167 -0.4373,0.155764 -0.280864,1.595066 -0.214392,1.952066 0.06817,0.366105 0.261288,0.68412 0.358287,1.039538 -0.347231,0.831772 -1.079938,-0.05377 1.100701,0.407344 0.196411,0.04153 -0.394426,0.07924 -0.585755,0.140027 -0.874975,0.277986 -1.082468,0.429452 -1.96099,0.866204 -2.187588,1.125045 -4.414176,2.173167 -6.60725,3.285891 -0.118254,0.05135 -0.393667,0.134489 -0.481291,0.27654 -0.348822,0.565486 -0.04287,1.73164 -5.24e-4,2.334363 0.713586,2.471035 1.990219,4.704563 3.322763,6.891236 0.07696,0.129855 1.577192,2.572603 1.514725,2.661161 -0.127106,0.180195 -0.522692,-0.545257 -0.619702,-0.231529 -2.26093,-0.318157 -3.316887,0.386463 -3.804574,2.94735 -0.123206,0.646961 0.443327,1.240329 0.664991,1.860492 0.04691,0.112429 0.158019,0.216695 0.140727,0.337281 -0.01054,0.07349 -0.134946,0.06194 -0.202419,0.0929 -0.506212,-1.68e-4 -1.008969,-0.03512 -1.514571,-0.04499 -0.193482,-0.0038 -0.770616,0.04348 -0.580511,0.0073 1.289066,-0.245429 1.82447,0.04187 1.06238,-0.283917 -0.08911,-0.02224 -0.176218,-0.07829 -0.267319,-0.06668 -0.784453,0.09991 -1.842565,1.632754 -2.444852,2.110593 -0.12629,0.128043 -0.841039,1.012653 -1.100968,0.932772 -0.0065,-0.0021 -0.0044,0.01286 -0.0067,0.01928 0.0127,0.107256 0.0254,0.214512 0.0381,0.321769 0.582566,2.368321 1.876239,4.479287 2.837573,6.701046 0.941911,2.121811 1.953393,4.26364 2.429242,6.548036 -0.555142,1.57613 -1.688252,4.794287 -1.752032,4.883922 -0.33358,0.468814 -1.150101,0.04504 -1.723935,0.08718 -0.223081,0.0164 -0.430887,0.145326 -0.663423,0.100872 -0.15406,0.0085 -0.308565,0.0039 -0.462847,0.0058 -3.142196,-0.203526 -0.141646,-0.558548 2.431614,-3.130567 0.195755,-0.19566 -0.236604,-0.650818 -0.0256,-0.829924 0.181361,-0.153937 0.129571,0.457786 0.194357,0.686678 0.08756,1.06866 -0.0021,2.104882 -0.250197,3.149914 -0.150789,1.593834 0.822154,2.953944 1.629703,4.248532 1.784776,2.62621 3.707092,5.16056 5.393241,7.85175 0.09135,0.16541 0.236068,0.31112 0.27405,0.49622 0.01133,0.0552 -0.111686,0.0313 -0.167456,0.0233 -0.173743,-0.0252 -0.336821,-0.12292 -0.512382,-0.12194 -0.55991,0.003 -1.116261,0.0895 -1.674391,0.13412 0.03612,0.0363 0.106969,0.0577 0.108359,0.1089 0.04658,1.71619 0.02294,3.43357 0.03441,5.15035 1.23284,1.23798 -2.012326,-0.47911 1.219599,0.57216 0.187561,0.061 -0.391616,0.0484 -0.588236,0.064 -0.657991,0.052 -0.718815,0.0365 -1.379909,0.0293 -0.132101,-0.005 -1.245045,-0.006 -1.355175,-0.12217 -0.07463,-0.0787 0.537984,-0.7111 0.702496,-0.92576 0.07034,-0.0967 0.102855,-0.27412 0.222193,-0.28162 0.100051,-0.006 0.499793,1.73338 0.54062,1.86467 0.705526,2.18274 1.567827,4.42672 3.248454,6.05122 0.975676,0.73619 1.494864,0.99592 2.6697,1.36528 0.337517,0.10611 0.678717,0.20035 1.020249,0.2927 0.31733,0.0859 0.779057,-0.0352 0.956093,0.24176 0.123189,0.19275 -0.422979,0.1743 -0.63447,0.26144 3.786798,-0.97228 5.161816,4.38306 1.375017,5.35535 z"
       inkscape:connector-curvature="0" />
    <path
       style="fill:#000000;fill-opacity:1;stroke:none;stroke-width:0.2619375;stroke-opacity:1"
       id="path999"
       d="m 59.848693,36.537407 c -0.02177,-0.41608 -0.09986,-0.833025 -0.06531,-1.248237 0.209959,-2.522817 1.664883,-4.886037 3.447465,-6.61251 0.551499,-0.534139 1.186818,-0.974312 1.780227,-1.461468 0.693482,-0.400445 1.357247,-0.857455 2.080449,-1.201335 3.362572,-1.598885 7.085972,-1.771519 10.739401,-1.457896 0.613363,0.05265 1.206229,0.246882 1.809344,0.370322 2.482695,0.670018 4.747689,1.98445 6.105768,4.232759 0.212038,0.351028 0.360714,0.736618 0.541071,1.104928 0.309796,0.795748 0.52112,1.622544 0.494659,2.481521 -0.0086,0.280644 -0.101973,0.729481 -0.150769,0.734825 -1.67403,0.183317 -3.362788,0.188616 -5.044183,0.282924 -0.526521,-1.160949 -0.797492,-2.531541 -0.811627,-3.810084 -0.005,-0.457581 0.04014,-0.914337 0.0602,-1.371505 0.484014,-3.354488 2.323916,-6.228897 4.83078,-8.464237 0.573242,-0.511152 1.207975,-0.948858 1.811961,-1.423287 2.372161,-1.620602 5.030866,-2.748715 7.90502,-3.044595 1.941216,-0.199838 3.118004,0.05684 5.214251,0.253844 2.66458,0.648091 5.23721,1.605455 7.69759,2.809067 1.07703,0.643096 2.36958,1.197064 3.14588,2.237036 0.13152,0.176197 0.24707,0.522401 0.32467,0.728149 -1.25657,1.299225 -2.4355,2.678308 -3.7697,3.897675 -0.0934,0.0854 -0.24192,-0.07583 -0.35877,-0.124543 -0.80639,-0.336191 -1.47981,-0.799088 -2.16013,-1.342784 -1.22982,-1.148033 -2.09737,-2.650165 -2.14246,-4.368273 -0.009,-0.346654 0.0485,-0.69185 0.0727,-1.037774 0.14418,-0.428378 0.21478,-0.889065 0.43256,-1.285134 1.24482,-2.263938 3.81075,-2.806048 6.11931,-3.303902 4.14611,-0.765915 8.35217,-1.106187 12.56258,-1.201212 1.83269,-0.106179 3.62502,0.217634 5.42693,0.458642 0.87267,0.116719 1.76399,0.115181 2.62358,0.305659 0.53946,0.119538 1.90962,1.742946 2.00421,1.841419 -0.091,1.092201 -0.0804,2.197667 -0.27288,3.276605 -0.008,0.04726 -0.61687,0.874346 -0.7127,1.005632 -0.45511,0.623443 -0.91753,1.240103 -1.38643,1.853266 -0.77002,0.835862 -1.96799,2.713426 -3.17621,2.886599 -1.46619,-1.072519 -2.98528,-2.076244 -4.39858,-3.217558 -7.9e-4,-5.76e-4 0.16121,-0.270785 0.31813,-0.513028 0.42387,-0.654369 0.90427,-1.209725 1.43363,-1.782285 2.18567,-2.083975 5.06224,-2.948037 7.93678,-3.592195 2.38514,-0.442138 4.79953,-0.451787 7.21838,-0.379496 0.84774,0.02534 2.2304,0.206688 3.07024,0.41112 0.43923,0.106916 0.86244,0.271317 1.29365,0.406975 0.39231,0.192809 0.80964,0.341405 1.17692,0.578427 1.80154,1.162586 2.63939,3.032617 2.70997,5.127053 0.0139,0.413784 -0.0376,0.827184 -0.0563,1.240776 -0.19069,1.016139 -0.32167,3.30208 -1.00381,4.109406 -0.81769,-1.961728 0.0716,-0.08413 -5.40166,-0.96381 -0.0762,-0.01225 0.14823,-0.406326 0.17575,-0.345214 0.0335,0.07437 0.0257,0.161058 0.0386,0.241587 1.6202,-0.631375 3.24039,-1.262749 4.86059,-1.894123 0.0518,-0.116958 0.0506,-0.277788 0.15563,-0.350873 0.186,-0.129447 0.42664,-0.156247 0.64729,-0.207891 0.33798,-0.07911 0.72775,-0.0044 1.02506,-0.183528 0.13364,-0.08052 -0.58591,-0.130569 -0.43542,-0.171766 0.4627,-0.126669 0.95704,-0.06802 1.43557,-0.102031 2.49243,-0.02534 5.20974,-0.351233 7.47826,0.916464 1.14551,0.640137 1.17737,0.878965 2.03194,1.902848 1.03804,1.879014 0.62943,3.530496 0.29458,5.474976 -0.0121,0.07116 -0.0243,0.142335 -0.0365,0.213501 -0.007,0.01118 -0.0159,0.04578 -0.0206,0.03353 -0.17383,-0.451951 -0.37926,-1.228251 -0.95332,-1.368139 -0.70886,-0.172738 -1.45598,-0.09691 -2.18398,-0.145371 0.69713,-0.03751 -0.83578,0.355038 -0.62485,0.527785 0.0608,0.04984 0.12915,-0.08986 0.19357,-0.134993 0.22114,-0.154944 0.42479,-0.338329 0.66311,-0.465261 0.23688,-0.12616 0.48571,-0.252951 0.75174,-0.288298 0.63813,-0.08479 1.28668,-0.04534 1.93003,-0.06801 2.0555,-0.26886 4.11503,-0.255745 6.17702,-0.08983 1.95372,0.26268 4.06973,0.709234 5.4454,2.256363 0.27413,0.308294 0.47856,0.672121 0.71783,1.008181 0.81586,1.606476 0.55906,3.217564 0.12547,4.869558 -0.25026,0.621129 -0.30543,1.309847 -0.60372,1.913674 -0.12596,0.25499 -0.30785,0.478296 -0.46179,0.717442 -0.17535,0.169424 -0.33617,0.355316 -0.52606,0.508272 -0.15452,0.124475 -0.32598,0.228333 -0.50203,0.319869 -0.4656,0.242091 -2.74959,0.749207 -2.69738,0.251537 0.18061,-1.72154 1.53824,-3.101468 2.30736,-4.652203 1.31617,0.268964 2.54248,0.786529 3.73228,1.395167 1.39498,0.796233 2.51709,1.91897 3.37772,3.262722 0.5988,1.167102 0.91416,2.60499 0.5084,3.896079 -0.11561,0.367892 -0.29928,0.710829 -0.44892,1.066244 -1.16762,1.705855 -2.95682,3.02142 -4.9891,3.516809 -0.46567,0.113514 -0.94993,0.128737 -1.4249,0.193106 -1.87009,-0.14163 -0.96589,0.04927 -2.71438,-0.564069 -2.3842,0.997146 -3.79439,-2.374629 -1.41018,-3.371778 v 0 c 0.8265,-1.049445 0.35051,-0.597545 1.42223,-1.361724 0.97936,-0.465227 1.74091,-0.702183 2.78147,-0.983306 0.12608,-0.03406 0.98574,-0.281485 1.22889,-0.265474 0.0834,0.0055 0.14701,0.07957 0.22051,0.119355 0.0238,0.104265 0.0374,0.21136 0.0713,0.312793 0.0304,0.0912 0.34167,0.555514 0.0149,0.201592 -0.63159,-0.604756 -1.36306,-1.080228 -2.13816,-1.481649 -0.83037,-0.44927 -1.67944,-0.866317 -2.5434,-1.247297 0.55932,-1.603423 1.67413,-3.112094 1.67798,-4.810269 7.9e-4,-0.328165 -2.08013,-0.301348 -2.12957,0.534038 -0.0529,0.135096 -0.11832,0.265953 -0.1588,0.405288 -0.035,0.120549 -0.0395,0.248081 -0.0666,0.370658 -0.16915,0.765605 0.10056,-2.034756 0.0907,-1.340146 0.0301,-0.133703 0.31703,-1.337722 0.37486,-1.337404 0.1735,9e-4 0.0133,0.594853 0.24924,0.456952 0.0346,0.0751 0.12225,0.144722 0.10369,0.225275 -0.0248,0.107474 -0.43743,0.07762 -0.69081,0.06602 -1.03888,-0.04753 -2.07529,-0.155473 -3.11017,-0.252718 -1.878,-0.233284 -3.77572,-0.464263 -5.58512,-1.042038 1.4199,-0.13481 1.01858,0.06181 1.81226,-0.727717 0.0104,-0.01039 -0.0188,0.02273 -0.0292,0.03318 -0.5712,0.576085 -0.25619,0.294575 -1.13758,0.878731 -0.83655,-0.0303 -1.69138,0.08564 -2.50965,-0.0909 -0.37265,-0.0804 -0.6646,-0.388289 -0.93881,-0.653115 -0.91157,-0.880371 -1.18269,-2.155323 -1.20922,-3.365877 0.016,-0.214795 0.20209,-2.20991 0.41607,-2.223483 0.28802,-0.01827 -0.01,1.149899 0.43778,0.746991 0.0677,0.112782 0.2115,0.207067 0.20313,0.338347 -0.01,0.15146 -0.55094,0.179425 -0.95381,0.211263 -0.35941,0.0284 -0.72379,0.0063 -1.07974,0.06367 -0.15032,0.02422 0.30356,0.02461 0.45532,0.03691 -0.50064,-0.0044 -1.00129,-0.0088 -1.50193,-0.01318 -0.53064,-0.01078 -1.06161,-0.01088 -1.59192,-0.03235 -1.90822,-0.07723 -3.95388,-0.0029 -5.72834,-0.871276 -0.39053,-0.191108 -1.41454,-0.386999 -1.10527,-0.692586 1.12877,-1.115321 2.77064,-1.54784 4.15594,-2.321761 0.0145,0.159194 0.10008,1.460745 -0.10747,1.474536 -5.54499,0.368466 -4.95214,1.656968 -5.6421,-0.626977 -0.36476,-1.550154 -0.0844,-3.127874 0.3015,-4.651469 0.13017,-0.397269 0.20034,-0.718253 0.31517,-0.689225 0.10251,0.02591 0.14081,0.158074 0.20458,0.242418 0.42937,0.567951 -0.1009,0.354355 -0.58218,0.414708 -2.83024,0.108468 -3.70352,0.09053 -6.3698,0.135103 -2.03886,0.117055 -4.12488,0.195816 -6.02956,1.014194 -0.43595,0.228121 -0.92618,0.434456 -1.32108,0.735017 -1.9619,1.493198 0.84159,1.574583 -5.15942,-2.479251 -0.0761,-1.173046 1.63961,-2.711913 2.30482,-3.56054 0.69519,-0.719126 1.39604,-1.446307 2.18913,-2.061007 0.43057,-0.333729 0.91606,-0.662336 0.95139,-0.427757 0.14309,0.950156 0.0776,1.920174 0.11632,2.880262 0.3933,0.394224 0.7866,0.78845 1.17989,1.182675 -0.10408,0.101387 -0.40566,0.192847 -0.31226,0.304161 0.18176,0.216631 0.97866,0.05841 0.80129,0.278653 -0.26334,0.32699 -0.81923,0.186017 -1.23297,0.257359 -1.5077,0.259975 -2.05761,0.277911 -3.64106,0.426893 -4.22117,0.259576 -8.45195,0.323316 -12.67389,0.02061 -0.41991,-0.02927 -2.51037,-0.07968 -2.94081,-0.31419 -0.45177,-0.24613 0.15181,-1.006647 0.0308,-1.378772 -0.002,-0.03026 -0.0194,-0.06347 -0.006,-0.09078 0.0339,-0.07031 0.0779,0.13541 0.12003,0.201158 0.20251,0.316112 0.42901,0.615783 0.67743,0.897397 2.04444,2.227895 2.63997,-0.172671 -2.04186,5.184932 -0.009,0.328444 0.0734,0.311881 -0.39064,0.270391 -1.1741,-0.104957 -2.23661,-0.781906 -3.31934,-1.177188 -1.97269,-0.839674 -3.96599,-1.738346 -6.126659,-1.938829 0.297909,0.0032 0.638446,0.163217 0.893727,0.0096 0.246402,-0.148249 -0.575589,-0.05182 -0.862209,-0.02859 -0.343064,0.02781 -0.68444,0.0907 -1.0166,0.180897 -1.447606,0.3931 -2.770864,1.143953 -4.070158,1.867751 -1.675677,1.041643 -4.068589,2.356712 -5.124249,4.09634 -0.138026,0.227452 -0.224467,0.482446 -0.336703,0.723669 -0.07072,0.257245 -0.157697,0.510563 -0.212156,0.771734 -0.168533,0.808225 -0.161791,1.72396 -0.47748,2.499515 -0.03271,0.08036 -0.08973,0.14853 -0.134589,0.222794 -1.642299,0.272586 -3.286941,0.531417 -4.926898,0.817758 -0.0387,0.0068 -0.06305,0.06905 -0.101318,0.06017 -0.249424,-0.05783 -0.501602,-0.946695 -0.653984,-1.140381 -0.185753,-0.262652 -0.289063,-0.453717 -0.557152,-0.647606 -0.90459,-0.654233 -2.181926,-0.514445 -3.218394,-0.621448 -2.168251,0.01459 -4.942562,0.02641 -7.51286,1.032463 -1.069882,0.550884 -1.431224,0.654801 -2.340025,1.438577 -1.104862,0.952866 -1.88025,2.195682 -2.82269,3.290567 -0.349985,3.426807 -5.196222,2.931858 -4.846239,-0.494951 z"
       inkscape:connector-curvature="0" />
    <path
       style="fill:#000000;fill-opacity:1;stroke:none;stroke-width:0.2619375;stroke-opacity:1"
       id="path1003"
       d="m 94.381045,110.26413 c -1.953034,-1.9191 -2.968048,-4.59604 -3.240373,-7.29496 -0.05412,-0.53635 -0.03529,-1.07757 -0.05293,-1.61635 0.08581,-3.053373 1.052486,-5.130712 2.916912,-7.475234 1.170156,-1.257412 2.501498,-2.460649 4.105205,-3.138991 0.302087,-0.127779 0.620229,-0.213665 0.930345,-0.320496 2.330176,-0.491292 4.016636,-0.09466 5.013586,1.997262 0.0675,0.279242 0.44817,0.688862 0.20247,0.837727 -1.45361,0.880694 -3.05152,1.634977 -4.729521,1.905048 -0.376147,0.06054 -1.429746,-3.114634 -1.584362,-3.549377 -0.805608,-2.365269 -1.23458,-4.809089 -1.321353,-7.301033 0.01967,-2.509949 1.017825,-4.748294 2.886146,-6.42911 0.343421,-0.308955 0.7291,-0.567441 1.09364,-0.85116 2.28216,-1.608001 4.92879,-2.490659 7.58521,-3.252769 2.40156,-0.656667 4.85525,-1.092835 7.3482,-1.08307 0.0529,0.0051 0.87204,0.03387 1.02026,0.185101 0.0506,0.05159 -0.0568,0.146062 -0.0328,0.214192 0.59269,1.683532 1.36084,3.30634 1.87402,5.015788 0.0338,0.112641 -0.22282,0.08848 -0.34034,0.09301 -0.69743,0.0269 -1.39589,5.25e-4 -2.09384,7.87e-4 -0.32934,-0.168073 -0.6998,-0.272597 -0.98801,-0.504215 -1.458,-1.171733 -1.85706,-2.975545 -2.21083,-4.705589 -0.29746,-1.63031 -0.047,-3.198608 0.4045,-4.765461 0.21863,-0.376381 0.40066,-0.776545 0.65587,-1.129139 1.20836,-1.669406 3.35399,-2.702739 5.15555,-3.550977 2.20193,-0.914871 4.54262,-1.455492 6.92862,-1.537716 1.49312,-0.05145 3.38306,0.160515 4.77182,0.268142 0.36381,0.106177 0.73357,0.193797 1.09145,0.318529 0.19319,0.06733 1.83996,0.799564 1.80727,1.140903 -0.49021,5.115815 0.67029,4.796406 -1.46113,5.092761 -0.61152,-0.02198 -1.22482,-0.01433 -1.83456,-0.06594 -0.12217,-0.01035 -0.23813,-0.06464 -0.34811,-0.118846 -1.45191,-0.715697 -1.09065,-0.955664 -1.80272,-3.369896 -0.0235,-0.07961 0.18225,-0.668544 0.22852,-0.806907 0.49562,-1.363848 1.54658,-2.385619 2.88946,-2.930727 0.34084,-0.138353 0.70487,-0.21069 1.0573,-0.316033 2.04848,-0.200147 4.09146,-0.222718 6.09911,0.266862 0.85327,0.208078 1.44923,0.436029 2.27233,0.721861 1.45599,0.598763 2.92849,1.297488 3.89106,2.58516 1.15537,2.042735 0.59525,0.666215 -3.6077,4.227905 -0.13079,0.110833 -0.84804,-0.683459 -0.9269,-0.78042 1.09373,-1.402164 2.16525,-2.821941 3.28119,-4.20649 0.0752,-0.09323 0.97407,-0.315143 0.96334,-0.324334 -0.21414,-0.18333 -0.9026,0.132079 -0.83378,-0.141281 0.0761,-0.302598 0.61124,-0.12588 0.91685,-0.188821 3.11564,-0.7196 6.06431,-0.432084 9.20863,-0.204188 2.28926,0.802564 3.64807,2.285208 3.19685,4.842234 -0.0868,0.470566 -0.11928,-0.471464 -0.12131,-0.480988 -0.0309,-0.144781 -0.14281,-0.399245 -0.053,-0.189747 0.27947,0.664316 0.53635,1.340185 0.73708,2.032763 0.28861,0.943046 -0.26991,-0.537098 -0.88109,-0.727105 -0.65748,-0.2044 -1.3682,-0.155687 -2.0523,-0.23353 -1.06893,0.42666 0.54873,-0.137234 0.72576,-0.17246 2.37933,-0.0034 1.60486,-0.138355 3.30715,1.465853 0.14861,0.140044 -0.2382,-0.338343 -0.39746,-0.46615 -0.52917,0.0096 -0.45332,0.223137 -0.42843,0.71262 1.814,0.57982 0.99401,3.145212 -0.81999,2.565393 v 0 c -0.88756,0.554416 -1.08138,0.67458 -2.12403,0.405049 -0.16134,-0.116724 -0.34134,-0.21126 -0.48403,-0.350171 -0.14692,-0.143029 -0.53784,-0.612615 -0.37584,-0.486942 0.35079,0.272117 0.61405,0.64334 0.95064,0.93283 0.53366,0.458977 1.1724,0.294614 1.85314,0.282023 0.50531,-0.5107 -0.44163,0.147887 -0.56999,0.101412 -0.75046,-0.07264 -1.52697,-0.0089 -2.25138,-0.21793 -0.93669,-0.270264 -1.64233,-1.706182 -1.92673,-2.574342 -0.004,-0.01381 -0.38708,-1.644782 -0.0895,-1.047368 -0.4949,-0.778264 -0.55634,-1.745376 -0.41759,-2.635256 0.12003,0.712336 0.17039,0.943942 0.60715,1.583464 0.39289,0.57528 0.78559,0.527566 -0.12634,0.801063 0.26264,0.04594 0.99845,-0.02578 0.78792,0.137826 -0.29161,0.226615 -0.73433,0.08141 -1.10277,0.106852 -1.72341,0.119035 -3.45233,0.06294 -5.1764,-0.0045 -1.41613,-0.06326 -2.86063,0.0779 -4.24287,-0.268182 -0.1744,-0.04367 -0.34665,-0.09566 -0.51848,-0.148549 -0.14111,-0.04343 -0.49146,-0.01108 -0.42013,-0.140357 0.83017,-1.504357 1.90868,-2.857624 2.86303,-4.286435 -0.0509,-0.07587 -0.19436,-0.188733 -0.12255,-0.245244 0.0327,-0.02569 0.15171,-0.01792 0.12401,0.01307 -3.59365,4.020102 -4.18476,2.244173 -3.40162,4.208293 -0.84343,0.176722 -2.25758,-0.631073 -3.12014,-0.715779 -1.12979,-0.297736 -2.26347,-0.551003 -3.42262,-0.707254 -0.24772,-0.03339 -0.92324,0.0915 -0.74519,-0.08393 0.23548,-0.231997 0.65372,-0.09865 0.98057,-0.147979 -0.10436,-0.06131 -0.23066,-0.0953 -0.31309,-0.18394 -0.12507,-0.134487 0.0603,-0.854186 -0.25994,-0.482782 -0.1745,0.289226 -0.0569,0.172677 -0.11847,0.03098 -0.3964,-0.912274 -0.74043,-1.852208 -1.22381,-2.721531 -0.29931,-0.538295 -1.35264,-0.375305 -1.72301,-0.386099 1.61855,0.81225 0.0704,-0.01511 -0.23997,5.03935 -0.005,0.08763 0.10484,0.19062 0.0494,0.258721 -0.23811,0.2926 -1.58104,0.172607 -1.87519,0.282217 0.24399,0.03058 0.9673,0.02046 0.73196,0.09175 -0.36695,0.111162 -0.76682,0.01488 -1.14972,0.0348 -1.84539,0.09599 -3.66783,0.39552 -5.47201,0.787643 -1.09417,0.254768 -2.18529,0.547353 -3.28443,0.779586 -0.24187,0.05111 -0.7081,0.174474 -0.73826,-0.0709 -0.0204,-0.166406 0.0621,-0.329517 0.0931,-0.494273 0.0124,-0.118538 -0.0244,-0.253645 0.0374,-0.355612 0.0374,-0.0619 0.0346,0.140548 0.05,0.211222 0.12174,0.55415 0.22037,1.10914 0.28815,1.672771 0.0302,0.250976 0.0526,0.502827 0.0788,0.754242 0.0257,0.504525 0.0637,0.845804 0.0228,1.334136 -0.008,0.100106 0.045,0.286748 -0.0551,0.296299 -0.0581,0.0056 -1.06992,-1.243829 -1.4524,-1.197091 -0.49998,0.01574 -1.00107,0.0105 -1.49994,0.0472 -0.10153,0.0075 0.25382,-0.04846 0.30266,0.04087 0.88332,1.616047 1.7074,3.267925 2.43151,4.961306 0.085,0.198685 -0.95322,0.771959 -1.03127,0.779445 -2.16271,0.766177 -4.43483,1.029113 -6.67765,1.467889 -2.1116,0.458934 -4.18972,1.051431 -6.15456,1.967903 -0.0892,0.04208 -1.66509,0.700696 -1.71866,0.791457 -0.13923,0.235846 -0.0138,0.876192 -9e-4,1.014206 0.37616,2.295168 0.87558,4.582985 0.95211,6.914519 -5.2e-4,0.14766 0.0245,1.24973 -0.0643,1.521915 -0.12594,0.386274 -0.25123,-0.577334 -0.57171,-0.465256 -4.809525,1.681966 -4.821438,0.677672 -4.255317,2.889799 0.04135,0.113668 0.05437,0.236763 0.09977,0.34887 0.316714,0.781969 1.684137,0.848703 2.301937,0.398063 -0.95572,0.580142 -1.7036,1.53064 -2.606083,2.209443 -1.247752,1.096447 -1.476655,1.574588 -1.276371,3.292787 0.176736,1.17473 0.401031,2.32302 0.689707,3.47627 0.187091,0.74743 0.460646,1.67295 0.601037,2.43899 0.05593,0.30518 0.07751,0.61568 0.116261,0.92351 1.787029,3.54661 -3.228648,6.07385 -5.015672,2.52723 z"
       inkscape:connector-curvature="0" />
    <path
       style="fill:#000000;fill-opacity:1;stroke:none;stroke-width:0.2619375;stroke-opacity:1"
       id="path1007"
       d="m 155.01486,73.775449 c -0.0673,-0.396212 -0.1835,-0.787167 -0.20197,-1.188633 -0.10884,-2.365864 0.81195,-4.739508 2.1401,-6.658805 0.35701,-0.515917 0.78802,-0.976492 1.18203,-1.464742 2.23148,-2.511239 5.03225,-3.879805 8.12593,-5.005093 2.98945,-1.016197 6.10302,-1.278161 9.24507,-1.177237 0.51083,0.0164 1.01571,0.114836 1.52357,0.172256 2.80953,0.433731 5.29135,1.759272 7.59204,3.363479 0.76261,0.593713 1.60686,1.130574 2.21669,1.896163 0.24086,0.302376 0.37211,0.597309 0.55768,0.94408 -2.02938,2.280915 -1.77666,4.181306 -3.61755,3.444182 -0.20467,-0.08195 -0.5913,-0.303611 -0.7383,-0.460103 -0.22008,-0.234287 -0.66726,-0.445194 -0.59546,-0.758514 0.31297,-1.365635 1.10316,-2.575786 1.65473,-3.86368 0.64942,0.0077 1.22672,-0.110202 1.81762,0.07115 0.14058,0.04315 0.19828,0.0763 0.32822,0.131081 0.0112,0.0047 0.0437,0.02003 0.0344,0.01223 -0.0457,-0.03828 -0.0967,-0.06987 -0.14503,-0.104803 0.28872,-0.444157 0.0618,-0.04319 -1.23002,-0.15333 -0.0738,-0.0063 0.13257,-0.06612 0.20051,-0.09552 0.2397,-0.103712 0.16364,-0.07164 0.44015,-0.226139 0.45748,-0.270039 0.92348,-0.555218 1.21798,-1.009109 0.14993,-0.243476 0.0809,-0.157537 0.0117,-0.377286 -0.13817,-0.438719 0.0106,-0.224861 -0.26366,-0.511127 -1.1125,-1.016184 -2.32085,-1.91427 -3.58165,-2.736411 -0.99961,-0.759658 -2.24806,-1.164582 -3.21194,-1.96933 -2.17609,-2.173891 -1.14244,-1.513567 0.63135,-5.881877 0.0275,-0.06778 0.22431,-0.03137 0.21554,0.04126 -0.006,0.0521 -0.0581,0.08741 -0.0871,0.13111 -0.89526,0.735956 -0.43874,0.267125 -1.32169,1.722931 -0.009,0.01517 -0.0195,0.0682 -0.0147,0.05115 0.19122,-0.670662 0.44382,-1.202575 0.80688,-1.798682 0.46557,-0.681517 1.05096,-1.263894 1.67478,-1.798715 0.27416,-0.235044 0.14959,-0.248699 0.30964,-0.214139 -0.29475,0.370029 -0.0386,1.485841 -0.21998,1.721488 -0.19182,0.249262 -0.63141,-0.08359 -0.92044,-0.207633 -2.03688,-0.975704 -3.99581,-2.104888 -5.97842,-3.184783 -1.2322,-0.747536 -2.63657,-1.156535 -3.90072,-1.832137 -0.23918,-0.798192 0.64248,2.212184 2.09647,-0.16128 0.86421,-1.410747 0.72613,-3.233158 0.93558,-4.874258 0.0201,-0.157643 -0.29129,0.173186 -0.3542,0.319125 -0.13603,0.315556 -0.14513,0.671749 -0.21769,1.007621 1.39023,1.345403 -0.51246,3.311495 -1.90269,1.966092 v 0 c -0.19165,0.251523 -0.31302,0.5774 -0.57495,0.754574 -0.20762,0.140441 -0.73513,0.385384 -0.7398,0.134767 -0.0317,-1.70064 -0.20167,-3.588009 0.64806,-5.061484 0.39185,-0.679481 1.56545,-0.104508 2.34919,-0.135866 0.1905,-0.0076 0.38109,0.01267 0.57164,0.01901 2.02831,0.195615 3.93452,0.974156 5.74417,1.880437 2.22049,1.152112 4.37542,2.454494 6.23907,4.138854 1.95508,1.886416 2.96863,3.563351 1.9863,6.320261 -0.626,1.178891 -1.39905,2.256236 -2.63085,2.861288 -0.7018,0.01616 0.16631,-0.2996 -0.21864,-0.438764 -0.0799,-0.02889 -0.0312,0.170084 -0.0723,0.2445 -0.87091,1.578873 -0.48067,1.142342 -1.53408,1.962188 -2.45881,1.382854 0.1408,-1.659799 0.39957,-4.258379 0.18752,-1.882961 -1.23704,-0.533441 -0.68464,-1.029399 1.9382,0.216064 3.69803,1.195242 5.28516,2.275523 2.24343,1.801883 3.96587,3.632499 4.6786,6.506037 0.26153,1.652813 0.36771,3.323837 -0.30464,4.9056 -0.81706,1.627766 -1.86203,2.854272 -3.54806,3.629104 -1.32582,0.532344 -3.12483,1.052098 -4.52429,0.532674 -0.18673,-0.0718 -0.33835,-0.141635 -0.34218,-0.114734 -0.005,0.03904 0.0689,0.05569 0.0704,0.09511 5.3e-4,0.01493 -0.0411,0.03581 -0.0262,0.03638 0.42579,0.01619 0.85215,0.0075 1.27823,0.01119 0.42128,-1.28631 1.05071,-2.522274 1.26383,-3.858928 0.0455,-0.285565 -0.3512,-0.459942 -0.54032,-0.678702 -1.20944,-1.399068 -1.22625,0.973968 -2.94493,3.379704 0.051,0.1254 0.17491,0.242602 0.15303,0.376198 -0.0123,0.0751 -0.29951,-0.01145 -0.64028,-0.145167 -0.72054,-0.282727 -1.3961,-0.661573 -2.08414,-1.012723 -1.79589,-0.88904 -3.61402,-1.75946 -5.66034,-1.815489 -1.35287,-0.02106 -3.46578,-0.11871 -5.68087,0.465143 -2.22866,0.588307 -4.44708,1.371872 -6.24629,2.861704 -0.78923,0.806789 -0.95337,0.902347 -1.59455,1.857944 -0.84577,1.260517 -1.35116,2.687298 -2.05987,4.019431 0,3.161116 -4.47049,3.161116 -4.47049,0 z"
       inkscape:connector-curvature="0" />
    <path
       style="fill:#000000;fill-opacity:1;stroke:none;stroke-width:0.2619375;stroke-opacity:1"
       id="path1009"
       d="m 192.44422,65.846109 c 1.56936,2.313271 2.7142,4.887436 3.99791,7.365454 1.41377,2.669926 3.15498,5.143489 4.80755,7.667044 1.02214,1.568678 2.0199,3.167506 2.76153,4.892412 0.45107,1.049114 0.54996,1.458236 0.89145,2.542839 0.58984,2.190047 0.60284,4.455675 0.60301,6.705113 -0.003,1.43837 0.2815,2.847884 0.52201,4.258708 0.24916,1.372571 0.27306,2.768621 0.22918,4.158491 -0.0244,1.14361 -0.0485,2.28759 -0.0874,3.43079 -0.016,0.85548 -0.0525,1.71287 -0.20926,2.55522 -0.003,0.0682 -0.23945,0.85426 -0.27675,0.8482 -4.81023,-0.78298 -5.42797,0.34692 -4.39961,-1.2217 0.67412,-0.75104 0.20029,-0.40631 1.63343,-0.64965 0.1201,-0.82759 1.29046,-0.65775 1.17038,0.16983 v 0 c 1.25379,0.44546 0.8062,0.17046 1.44659,0.62526 0.78123,1.7771 0.23742,0.25673 -4.45919,-0.005 -0.0377,-0.002 -0.0239,0.0757 -0.0526,0.10019 -0.0205,0.0175 -0.062,-0.21446 -0.0632,-0.21149 -0.12042,-0.73959 -0.18181,-1.48844 -0.19386,-2.23761 -0.0229,-1.17461 0.029,-2.34891 0.12452,-3.51976 0.0194,-1.05631 -0.0282,-2.11298 -0.263,-3.14765 -0.37337,-1.657148 -0.74028,-3.328823 -0.79446,-5.032952 -0.0873,-1.79088 0.016,-3.614729 -0.48189,-5.358649 -0.7257,-2.255814 -2.11366,-4.181358 -3.39418,-6.153434 -1.69108,-2.693236 -3.37443,-5.396452 -4.83501,-8.22403 -1.32355,-2.715703 -2.7079,-5.594464 -2.60581,-8.687762 -0.61498,-2.778021 3.31374,-3.647721 3.92871,-0.869701 z"
       inkscape:connector-curvature="0" />
    <path
       style="fill:#000000;fill-opacity:1;stroke:none;stroke-width:0.2619375;stroke-opacity:1"
       id="path1013"
       d="m 119.76439,146.69053 c 3.22847,1.56257 4.98186,4.46162 6.5539,7.54315 1.32626,2.98679 2.13646,6.15823 3.52119,9.11957 1.04254,2.02962 2.53169,3.7661 3.88017,5.59042 1.03386,1.4395 1.83878,3.01881 2.65776,4.58489 0.38928,0.57773 0.58601,1.31597 1.03539,1.85347 0.24351,0.31991 -0.10459,-0.12036 -0.23599,-0.13372 -0.53287,-0.0542 -1.07083,-0.0291 -1.60624,-0.0437 0.27184,-0.60809 0.64715,-1.24412 0.95282,-1.86182 1.29754,-2.73977 2.67778,-5.42631 4.26082,-8.01234 1.95281,-3.15548 4.56108,-5.78909 7.21505,-8.34801 0.96878,-0.934 1.95548,-1.89744 2.53168,-3.13481 0.24717,-0.53077 0.37554,-0.98137 0.55714,-1.53717 0.42949,-1.548 1.11573,-2.97558 2.03703,-4.28538 0.52025,-0.71062 1.1672,-1.30474 1.8616,-1.83969 0.42178,-0.3048 0.74168,-0.29703 1.24535,-0.24976 2.09206,-0.94211 3.42442,2.01652 1.33235,2.95864 v 0 c 0.13178,0.0289 0.26142,0.0704 0.39534,0.0868 0.0512,0.006 0.10355,-0.0327 0.15344,-0.0196 0.0186,0.005 -0.013,0.0364 -0.0194,0.0545 -0.31647,0.35044 -0.55295,0.76873 -0.83133,1.14822 -0.554,1.05357 -0.81465,2.22251 -1.08308,3.3745 -0.66167,2.54285 -1.55214,4.9836 -3.27939,7.02183 -2.15817,2.56953 -4.50377,4.9902 -6.40067,7.77021 -1.78859,2.59501 -3.49307,5.27012 -5.5749,7.64447 -0.96609,0.99531 -1.99242,2.12537 -3.40219,2.44494 -2.07993,0.0634 -1.93324,0.27105 -3.20838,-0.86833 -0.61356,-0.674 -1.24334,-1.33455 -1.77155,-2.08113 -0.96444,-1.32879 -1.8497,-2.71511 -2.88188,-3.99435 -1.65116,-1.98472 -3.47282,-3.85788 -4.69677,-6.15673 -1.48893,-2.91698 -2.53108,-6.00415 -3.70386,-9.05549 -0.64384,-1.39307 -0.63453,-1.45928 -1.40772,-2.78682 -0.71892,-1.23437 -1.5809,-2.38189 -2.27922,-3.6277 -0.16629,-0.29665 -0.30158,-0.60965 -0.45238,-0.91447 -1.58717,-1.86956 1.05678,-4.11417 2.64396,-2.24461 z"
       inkscape:connector-curvature="0" />
    <path
       style="fill:#000000;fill-opacity:1;stroke:none;stroke-width:0.2619375;stroke-opacity:1"
       id="path1017"
       d="m 120.03956,120.10565 c -0.0346,-0.40525 -0.11201,-0.80911 -0.10385,-1.21576 0.0767,-3.82014 1.86956,-7.42492 3.45637,-10.80325 2.17809,-4.16321 4.73449,-8.104624 6.91267,-12.268755 1.61575,-2.954283 2.87567,-6.078993 4.30066,-9.124346 0.72579,-1.630315 1.67582,-3.135989 2.89919,-4.433808 0.7598,-0.681609 1.55385,-1.333207 2.39012,-1.919568 1.33434,-0.782145 2.38078,-1.164556 4.05502,-0.54237 0.3627,0.134788 0.52569,0.567901 0.78853,0.851852 0.89607,1.145849 1.7331,2.329355 2.52018,3.554304 1.63957,2.554031 2.97862,5.281134 4.27396,8.020591 1.68323,3.498657 2.81495,7.202784 3.66835,10.97914 0.56934,2.52736 0.67433,5.13549 1.37141,7.63323 0.58738,1.52995 1.32714,2.97964 1.79178,4.55665 0.46943,1.86635 0.15316,2.0201 -0.5837,4.02127 0.29605,-0.37654 1.06758,-1.33317 0.66091,-1.91933 -1.17752,-1.22135 -1.39148,-0.18957 -3.19972,1.20101 -0.23483,0.18059 0.53752,-0.24919 0.80628,-0.37379 0.0915,-1.07858 1.61683,-0.94922 1.52535,0.12938 v 0 c 0.24976,0.0635 0.90598,-0.0143 0.74927,0.19028 -1.81562,2.37017 -2.04638,2.73033 -3.45523,1.47619 -0.6503,-0.75453 -1.11906,-1.84988 -0.70207,-2.85753 0.16299,-0.39383 0.45669,-0.7198 0.68503,-1.0797 -0.19308,0.64672 -0.35842,1.30237 -0.57922,1.94014 -0.0221,0.0641 -0.13843,-0.0372 -0.18325,-0.088 -0.28066,-0.3182 -0.41964,-0.75013 -0.62948,-1.10968 -0.73902,-1.51477 -1.56396,-2.98731 -2.23413,-4.53514 -1.02831,-2.5391 -1.79241,-5.16943 -2.53444,-7.80438 -0.97808,-3.43413 -2.01124,-6.855631 -3.36136,-10.165749 -1.02785,-2.683905 -2.08376,-5.357237 -3.23548,-7.990864 -0.34785,-0.837906 -0.70479,-1.674535 -0.99911,-2.533402 -0.0653,-0.190365 -0.36724,-0.895868 -0.24907,-1.130258 0.19878,0.188724 0.3327,0.491175 0.59633,0.566168 0.66247,0.188437 1.36884,0.190135 2.05757,0.188739 0.13829,-2.62e-4 0.23705,-0.146085 0.36689,-0.193656 0.11115,-0.04072 -0.69073,0.71104 -0.52744,0.546957 -0.66265,0.482146 -1.36912,0.964158 -2.14158,1.247271 -0.15747,0.05789 -0.21945,0.580634 -0.23053,0.625245 -0.2245,0.904292 -0.44823,1.809021 -0.70345,2.705285 -0.98024,3.415376 -2.21077,6.751536 -3.72551,9.968406 -2.10414,4.245938 -4.44917,8.365098 -6.95629,12.386378 -1.4401,2.35037 -1.14748,1.8486 -2.52179,4.18543 -0.94507,1.60694 -1.839,3.26017 -2.8866,4.80464 -0.19885,0.29315 -0.42223,0.56887 -0.63335,0.8533 -0.3836,2.47433 -3.88282,1.93184 -3.49922,-0.54249 z"
       inkscape:connector-curvature="0" />
    <path
       style="fill:#000000;fill-opacity:1;stroke:none;stroke-width:0.2619375;stroke-opacity:1"
       id="path1021"
       d="m 202.71373,87.738905 c 0.14785,2.677753 -1.12507,5.133734 -2.18466,7.515183 -1.33417,2.903154 -1.96553,6.033732 -2.64695,9.134002 -0.65992,3.00731 -1.45753,5.98171 -2.00964,9.0117 -0.23988,1.16362 -0.0754,2.39417 -0.40157,3.54292 -0.0693,0.24397 -0.17893,0.47463 -0.26839,0.71195 -0.41311,0.73071 -1.00609,1.47879 -1.88594,1.60304 -1.62091,-2.61226 -2.33473,-2.78972 -0.78119,-2.06372 0.85765,-0.36048 1.36744,0.85242 0.5098,1.21289 v 0 c 0.68839,1.2553 0.32673,0.53334 -1.61787,-1.80296 -0.24876,-0.0474 0.1229,-0.32094 0.21535,-0.20294 0.11118,-0.0176 0.0268,-0.30965 -0.023,-0.55389 -0.17628,-0.86411 -0.40176,-1.71991 -0.46579,-2.604 -0.26385,-3.48279 0.24425,-6.77221 1.30497,-10.10064 1.06249,-3.219394 2.25444,-6.396277 3.63953,-9.492122 1.06033,-2.450711 2.09518,-5.080518 4.16158,-6.867422 0.676,-1.735079 3.12977,-0.779071 2.45377,0.956009 z"
       inkscape:connector-curvature="0" />
    <path
       style="fill:#000000;fill-opacity:1;stroke:none;stroke-width:0.2619375;stroke-opacity:1"
       id="path1029"
       d="m 67.143289,175.26695 c 0.117657,0.35363 0.253696,0.70167 0.352965,1.06091 0.436686,1.58027 0.71032,3.20505 1.144483,4.78713 0.441635,1.60931 0.569403,1.86412 1.135301,3.42166 1.26088,3.29384 3.301905,6.1898 5.250556,9.10077 1.738766,2.57171 3.385945,5.23493 4.591193,8.10534 0.255679,0.60893 0.468792,1.23487 0.703186,1.8523 1.127647,3.11771 1.711833,6.39273 3.013426,9.44679 1.145113,2.22324 2.944801,3.99512 4.648061,5.79096 1.863326,1.91834 3.58178,3.9703 5.291619,6.02459 1.526847,1.8874 2.94292,3.86072 4.4503,5.76325 1.14178,1.41855 2.423081,2.71303 3.690291,4.01762 0.93505,0.98944 1.96238,1.87666 3.08719,2.64162 1.53334,1.02152 3.14917,1.90427 4.81683,2.6837 1.8073,0.82837 3.67564,1.50273 5.5536,2.14874 1.64917,0.49242 3.16272,1.2951 4.67545,2.0959 1.50714,0.76596 3.09415,1.35772 4.70472,1.86397 1.57449,0.48658 3.15854,0.93708 4.72762,1.44145 1.46846,0.55106 2.93844,1.09254 4.42142,1.60359 1.54735,0.52625 3.11241,0.99084 4.70439,1.36075 1.75118,0.32222 3.49613,0.67599 5.23393,1.06378 2.05243,0.47716 4.15028,0.68341 6.24502,0.8669 2.28106,0.20974 4.53981,0.59242 6.79602,0.97865 2.03365,0.37118 4.09199,0.48181 6.15404,0.52555 0.0512,1.9e-4 2.03407,0.006 2.10308,0.0124 0.23585,0.0225 -0.94511,-0.01 -0.71043,0.0226 0.32278,0.0447 0.65167,0.009 0.9775,0.0145 2.5497,0.0436 -0.63304,-0.005 1.82299,0.0314 1.94069,-0.0801 3.8431,0.10788 5.75176,0.40799 0.37135,0.0512 0.74467,0.0996 1.11966,0.11499 0.0934,0.004 0.37375,7.8e-4 0.28033,0.003 -0.99491,0.0248 -1.6779,0.015 -0.93865,0.023 0.65757,0.0473 1.23672,-0.23088 1.84758,-0.43293 0.99126,-0.32826 1.96794,-0.69576 2.94697,-1.0584 0.68615,-0.29736 1.38419,-0.57063 2.02483,-0.95877 0.86778,-0.63292 1.79422,-1.16193 2.74878,-1.65072 1.02352,-0.49227 2.06721,-0.93946 3.11523,-1.37638 0.73932,-0.26534 1.392,-0.64778 2.0328,-1.09402 0.7109,-0.48422 1.33414,-1.07709 1.95919,-1.66388 0.7153,-0.6797 1.52646,-1.24156 2.35324,-1.77473 0.38732,-0.31626 0.9126,-0.45198 1.30942,-0.73534 0.43679,-0.61077 0.8365,-1.24615 1.27169,-1.8581 0.54881,-0.6886 1.09333,-1.47705 1.85515,-1.95257 -0.0873,0.13805 0.10295,-0.0819 0.0881,-0.0513 -0.29296,0.60206 0.0702,-0.60158 0.0719,-0.60754 0.26791,-0.87899 0.74666,-1.66332 1.22604,-2.43868 0.23443,-0.35623 0.4726,-0.71792 0.52858,-1.14596 -0.0174,-0.48092 0.0139,-0.96273 0.10144,-1.43586 0.0874,-0.3611 0.0193,-0.73785 0.006,-1.10456 -0.0137,-0.3225 -0.0102,-0.65011 0.0679,-0.96481 0.0243,-0.21706 -0.0411,-0.4467 -0.0554,-0.66816 -0.0615,-0.23792 0.0853,-0.45433 0.10072,-0.67345 0.10588,-0.44371 0.6545,-0.45116 1.01145,-0.54797 -2.6e-4,-2.50053 3.53591,-2.50103 3.53626,-5.3e-4 v 0 c 0.39076,0.10871 0.92301,0.11145 1.01004,0.58976 0.0101,0.19043 0.16499,0.39332 0.0989,0.61313 -0.0147,0.24453 -0.0835,0.48943 -0.0474,0.73272 0.0532,0.31086 0.0683,0.62665 0.0381,0.94126 -0.0196,0.30294 -0.0272,0.58321 0.0798,0.87769 0.17475,0.94397 0.15609,1.9084 -0.053,2.84755 -0.23913,0.87097 -0.60065,1.6591 -1.03315,2.44851 -0.284,0.55633 -0.55602,1.11853 -0.86847,1.65973 -0.39307,0.80502 -0.65392,1.6824 -1.23766,2.38064 -0.36979,0.51379 -0.75853,1.01421 -1.10868,1.54204 -0.67495,0.98743 -1.38939,1.94734 -2.27389,2.76081 -0.54183,0.47189 -1.09446,0.89451 -1.76418,1.1657 -0.58712,0.38908 -1.03252,0.95122 -1.583,1.38712 -0.80691,0.7079 -1.60253,1.43215 -2.49552,2.03313 -0.84673,0.60155 -1.65057,1.27136 -2.57687,1.74976 -1.05425,0.57816 -2.12226,1.13594 -3.25544,1.54605 -0.77503,0.26521 -1.5779,0.50389 -2.26973,0.95231 -0.79151,0.52378 -1.56082,1.08099 -2.41252,1.50771 -1.129,0.62411 -2.3123,1.1525 -3.54861,1.52641 -1.05221,0.29917 -2.13646,0.54408 -3.23266,0.59063 -1.32495,0.0859 -2.65408,0.0518 -3.98035,0.025 -0.53373,0.005 -1.06674,0.003 -1.59997,0.0304 -0.20213,0.0106 -0.8035,-0.005 -0.60594,0.0393 0.30644,0.0683 0.65624,-0.0964 0.94122,0.0355 0.23144,0.10701 -0.50903,0.0311 -0.76354,0.0467 -2.67646,0.20991 -5.36418,0.37446 -8.04784,0.18711 -2.21022,-0.18648 -4.40375,-0.50404 -6.5998,-0.81192 -2.24963,-0.26392 -4.50586,-0.46475 -6.75328,-0.74774 -2.26091,-0.35275 -4.50241,-0.80347 -6.70041,-1.44835 -1.73817,-0.44534 -3.48863,-0.81908 -5.23828,-1.21479 -1.7606,-0.4742 -3.48651,-1.05491 -5.1706,-1.75676 -1.34269,-0.54229 -2.68379,-1.1 -4.09207,-1.45324 -1.676,-0.45962 -3.38293,-0.80732 -5.03575,-1.35047 -1.86079,-0.6851 -3.65084,-1.52408 -5.31145,-2.61684 -1.16496,-0.66858 -2.39949,-1.05724 -3.7342,-1.24326 -2.42881,-0.53843 -4.80076,-1.3196 -6.90818,-2.67725 -1.66211,-1.12221 -3.2011,-2.38919 -4.74475,-3.66695 -1.2615,-0.99765 -2.573037,-1.93707 -3.729022,-3.0617 -1.448865,-1.37036 -2.83123,-2.81011 -4.175534,-4.28276 -1.637786,-1.84395 -3.162257,-3.77997 -4.700375,-5.70705 -1.584798,-1.98826 -3.188835,-3.96009 -4.951819,-5.79536 -2.089865,-2.26656 -4.154792,-4.58072 -5.553957,-7.35876 -0.246371,-0.5195 -0.512112,-1.03025 -0.739112,-1.55849 -1.138286,-2.6489 -1.763114,-5.47349 -2.62805,-8.21404 -0.382403,-1.08843 -0.674618,-1.9929 -1.145463,-3.04656 -0.913332,-2.04389 -2.156325,-3.91257 -3.404843,-5.76175 -2.203457,-3.30438 -4.420305,-6.63185 -5.933829,-10.32389 -0.249229,-0.71061 -0.536158,-1.4091 -0.747688,-2.13184 -0.752015,-2.56941 -1.177705,-5.46053 -0.627206,-8.11512 0.09046,-0.4362 0.270876,-0.84879 0.406314,-1.27319 0.22644,-3.43922 5.090248,-3.11899 4.863808,0.32024 z"
       inkscape:connector-curvature="0" />
    <path
       style="fill:#000000;fill-opacity:1;stroke:none;stroke-width:0.2619375;stroke-opacity:1"
       id="path1053"
       d="m 146.32146,130.59985 c -0.3133,0.0687 -0.62261,0.15918 -0.93991,0.206 -0.82302,0.12144 -1.34345,0.0994 -2.17144,0.0794 -0.30208,-0.007 -1.09728,0.19897 -0.90583,-0.0348 0.25208,-0.30784 1.49832,0.10688 0.7376,-0.1277 -0.1189,-0.005 0.0987,-0.16351 0.0987,-0.11341 -5.2e-4,0.30919 -0.13738,0.60294 -0.20421,0.90481 -0.17754,0.80208 -0.16843,0.7965 -0.32093,1.62771 -0.39652,1.64107 -0.37847,3.3116 -0.28609,4.98324 0.0753,1.37821 0.37771,2.67626 1.4756,3.5769 0.15018,0.0737 0.29361,0.16316 0.45056,0.22105 0.35838,0.13216 0.62136,0.16 1.00184,0.12568 0.19236,-0.0174 0.7268,0.0148 0.57087,-0.0991 -0.23736,-0.17351 -0.79592,0.16145 -0.87357,-0.12213 -0.0723,-0.26374 0.54355,-0.0604 0.81533,-0.0906 1.25759,-0.25552 2.66262,-0.48566 3.6372,-1.40324 0.16394,-0.15436 0.29709,-0.33845 0.44564,-0.50767 0.90016,-1.19889 1.0534,-2.61502 0.93005,-4.06054 -0.19128,-1.61282 -0.57555,-3.18824 -0.9418,-4.76709 -0.18401,-0.65763 -0.1976,-1.49561 -0.78171,-1.9442 -0.7072,-0.27494 -1.43075,-0.49814 -2.13175,-0.7944 -1.09714,-0.4911 -2.20506,-0.96382 -3.36432,-1.28782 -0.14062,-0.0403 -0.27893,-0.0898 -0.42185,-0.12089 -0.33106,-0.0721 -0.80847,-0.0139 -0.4851,-0.002 2.61453,0.0968 1.58045,0.0916 1.08317,-0.0432 -0.51167,0.17769 -0.86423,0.62542 -1.38539,0.80174 -0.21369,0.0723 -0.43999,0.0998 -0.65998,0.14971 -0.3005,0.041 -0.601,0.0821 -0.90149,0.12316 -1.08418,2.34179 -4.39598,0.80852 -3.31179,-1.53327 v 0 c -0.054,-0.39328 -0.10803,-0.78656 -0.16205,-1.17985 0.0785,-0.35413 0.10148,-0.72534 0.23552,-1.0624 0.56477,-1.42031 2.16231,-2.23796 3.46231,-2.81868 0.28619,-0.0896 0.98002,-0.33405 1.3204,-0.35061 1.51595,-0.0738 2.9216,-0.0393 4.36807,0.39771 1.37105,0.467 2.69973,1.03382 3.96825,1.73694 1.19122,0.63014 2.32607,1.36422 3.24081,2.36817 1.09443,1.23473 1.87259,2.64704 2.27946,4.25631 0.47337,1.82125 0.94396,3.64628 1.27832,5.49917 0.0485,0.43866 0.12289,0.87523 0.14563,1.31599 0.13788,2.67167 -0.64345,5.16434 -2.27124,7.28922 -0.36369,0.38568 -0.70017,0.79897 -1.09107,1.15705 -1.76382,1.61578 -3.98461,2.46333 -6.33334,2.75281 -3.66161,0.4183 -6.36048,0.1575 -9.10488,-2.37958 -0.3012,-0.35841 -0.63102,-0.69461 -0.90362,-1.07524 -1.22896,-1.71602 -1.73909,-3.79016 -1.84121,-5.86909 -0.0944,-2.12519 -0.14015,-4.26225 0.25575,-6.36422 0.60662,-2.56741 1.43967,-5.07372 3.77367,-6.58371 0.40407,-0.17726 0.77837,-0.45125 1.2122,-0.53179 1.75005,-0.32488 4.29991,-0.38092 6.05265,0.27753 0.27233,0.10231 0.52146,0.25808 0.78219,0.38711 3.55662,1.292 1.72945,6.32183 -1.82717,5.02982 z"
       inkscape:connector-curvature="0" />
    <path
       style="fill:#000000;fill-opacity:1;stroke:none;stroke-width:0.2619375;stroke-opacity:1"
       id="path1057"
       d="m 209.13487,123.73336 c -0.27226,0.0853 -0.66849,0.0121 -0.81677,0.25588 -0.0989,0.16264 0.66024,0.0854 0.52662,0.22103 -0.20881,0.21192 -0.58994,0.0806 -0.88161,0.13923 -0.76548,0.15395 -1.39737,0.39794 -2.06946,0.78256 -0.86925,0.62113 -1.06106,1.55178 -1.02386,2.55979 0.26972,1.63884 0.47269,3.29011 0.90879,4.89501 0.263,0.72977 0.61644,1.87818 1.57291,1.82643 0.11097,-0.0274 0.22327,-0.0497 0.3329,-0.082 1.09148,-0.32134 -0.13612,0.0416 -0.35181,-0.23358 -0.13016,-0.16605 0.41767,-0.0634 0.62304,-0.11178 0.49666,-0.11706 0.53031,-0.16011 0.9712,-0.36971 1.18295,-0.78476 1.54977,-2.19179 1.84555,-3.49922 0.17532,-1.38549 0.18499,-2.82123 -0.18376,-4.17637 -0.38833,-0.8557 -1.02448,-1.58265 -1.56055,-2.35222 -0.15434,-0.30614 -1.15383,-1.85481 -0.98037,-2.18299 0.0331,-0.0626 0.13472,-0.0436 0.20208,-0.0655 0.22329,-0.003 0.44659,-0.005 0.66988,-0.008 -1.68591,-1.81468 0.88043,-4.19891 2.56634,-2.38423 v 0 c 0.26582,0.0317 0.53164,0.0633 0.79745,0.0949 0.139,0.0793 0.288,0.14313 0.41698,0.23783 0.52936,0.38866 0.73122,1.10518 1.16435,1.57864 0.80193,1.13442 1.69267,2.2185 2.24053,3.51003 0.84761,2.24017 1.26206,4.59022 0.8392,6.98045 -0.11911,0.48366 -0.20407,0.97702 -0.35731,1.45097 -0.75597,2.3381 -2.2419,4.31566 -4.37405,5.55094 -0.38644,0.1703 -0.76057,0.37184 -1.15931,0.51091 -0.58681,0.20467 -1.45779,0.36982 -2.09029,0.39373 -1.60132,0.0606 -2.90586,0.0866 -4.36769,-0.53329 -0.32228,-0.16686 -0.65895,-0.30847 -0.96685,-0.50058 -1.62108,-1.01143 -2.6663,-2.63153 -3.26747,-4.41243 -0.52914,-1.96038 -0.69407,-3.9632 -0.80458,-5.987 -0.0674,-2.6473 0.38083,-4.66595 2.18695,-6.71833 0.38187,-0.32873 0.73469,-0.69459 1.14562,-0.98618 2.15129,-1.52651 4.64076,-1.76798 7.20377,-1.36642 0.35339,0.0554 0.65878,0.27897 0.98817,0.41846 3.22662,1.37645 1.28002,5.93958 -1.94659,4.56313 z"
       inkscape:connector-curvature="0" />
  </g>
</svg>
