<?xml version="1.0" encoding="UTF-8" standalone="no"?>
<!-- Created with Inkscape (http://www.inkscape.org/) -->

<svg
   xmlns:dc="http://purl.org/dc/elements/1.1/"
   xmlns:cc="http://creativecommons.org/ns#"
   xmlns:rdf="http://www.w3.org/1999/02/22-rdf-syntax-ns#"
   xmlns:svg="http://www.w3.org/2000/svg"
   xmlns="http://www.w3.org/2000/svg"
   xmlns:sodipodi="http://sodipodi.sourceforge.net/DTD/sodipodi-0.dtd"
   xmlns:inkscape="http://www.inkscape.org/namespaces/inkscape"
   width="1024"
   height="1024"
   viewBox="0 0 270.93333 270.93333"
   version="1.1"
   id="svg8"
   inkscape:version="0.92.4 (5da689c313, 2019-01-14)"
   sodipodi:docname="hat.svg"
   inkscape:export-filename="C:\Users\panu-\PycharmProjects\nextgame\data\images\heads\hat.png"
   inkscape:export-xdpi="13.234793"
   inkscape:export-ydpi="13.234793">
  <defs
     id="defs2" />
  <sodipodi:namedview
     id="base"
     pagecolor="#ffffff"
     bordercolor="#666666"
     borderopacity="1.0"
     inkscape:pageopacity="0.0"
     inkscape:pageshadow="2"
     inkscape:zoom="0.24740773"
     inkscape:cx="107.55706"
     inkscape:cy="666.14059"
     inkscape:document-units="mm"
     inkscape:current-layer="layer3"
     showgrid="false"
     units="px"
     width="1024px"
     inkscape:window-width="1920"
     inkscape:window-height="1017"
     inkscape:window-x="-8"
     inkscape:window-y="-8"
     inkscape:window-maximized="1"
     inkscape:pagecheckerboard="true"
     showguides="false" />
  <metadata
     id="metadata5">
    <rdf:RDF>
      <cc:Work
         rdf:about="">
        <dc:format>image/svg+xml</dc:format>
        <dc:type
           rdf:resource="http://purl.org/dc/dcmitype/StillImage" />
        <dc:title />
      </cc:Work>
    </rdf:RDF>
  </metadata>
  <g
     inkscape:groupmode="layer"
     id="layer4"
     inkscape:label="color 1"
     style="display:inline">
    <path
       style="fill:#ffccaa;fill-opacity:1;stroke:none;stroke-width:1.42903125;stroke-opacity:1"
       d="m 732.87011,554.85211 c -17.19125,2.2247 -34.56002,2.48914 -51.74348,4.44819 -32.54593,6.50446 -65.49591,10.97595 -97.71976,18.94948 -34.94796,4.19295 -70.42948,3.63014 -105.37044,0.96564 -27.19571,-1.97607 -52.9396,-11.40066 -77.77056,-21.93507 -10.15345,0.2085 -5.20922,12.77828 -5.56272,19.25694 2.98775,20.11239 -2.88617,40.03656 -0.31618,60.16824 1.03016,24.75835 7.41419,48.74994 11.71504,73.00109 1.70442,22.90454 4.18914,46.18925 8.84319,68.88567 2.33343,27.62949 3.29753,57.39817 1.35261,84.2663 -0.73876,13.85802 -8.68898,25.74843 -13.74499,38.07044 0.57434,8.62796 13.09515,7.95869 19.2797,11.78378 37.94676,14.96487 79.57701,10.05826 119.3911,11.20059 24.58381,0.71917 48.98261,-2.21483 73.43555,-3.91889 11.67464,-0.37489 23.76399,-0.23496 34.38095,5.07998 5.40997,0.6759 9.65136,-3.85632 15.39558,-2.42266 8.92547,-0.87246 18.40506,1.49037 26.89481,-1.48486 3.93531,-13.32579 1.19529,-27.82868 3.7847,-41.5675 0.10257,-8.08799 7.08704,-15.8718 3.93263,-23.59856 -8.62761,-4.21915 -18.83821,-6.68642 -24.80987,-15.13321 -2.6181,-3.32624 -8.40592,-10.4788 -0.68382,-11.59972 7.2741,-5.24347 11.36077,5.97693 17.15116,9.37802 9.36596,9.49633 22.6942,1.35228 31.65919,-4.40432 11.85388,-9.76983 15.40395,-27.85465 11.11965,-42.16758 -2.65329,-8.01249 -11.2295,-15.13333 -19.77317,-10.53993 -22.14794,7.70345 -45.47543,2.62454 -68.21553,3.52316 -24.20594,3.71162 -48.767,2.1367 -73.05085,4.53829 -12.17099,1.70023 -24.31976,4.80979 -36.20864,7.20656 -4.05117,-2.98013 -10.63565,4.62642 -11.53831,-2.77991 4.17212,-12.00295 19.74699,-13.22793 30.05555,-16.19022 37.46753,-9.59992 76.2511,-5.26457 114.44966,-10.41433 16.00319,-1.16194 31.76941,1.51658 47.78043,1.73605 6.6818,-2.88885 6.16074,-12.65556 5.81941,-18.66951 -8.81458,-5.62394 -21.01974,0.37768 -30.5623,-3.7233 -1.88167,-3.38402 -4.31247,-7.44515 0.73127,-8.52116 6.80967,-6.1417 -1.63799,-15.09114 -1.92026,-22.26162 -3.5369,-9.90268 -1.10507,-20.86759 -4.15313,-30.593 -7.70237,-2.1925 -16.39131,-1.70459 -23.90277,-5.61006 -7.45893,-1.04017 -13.49239,-11.96061 -20.84098,-6.76278 -3.59236,17.13366 -21.18145,25.66438 -37.0627,28.07265 -19.22571,2.7852 -44.5279,3.1105 -56.22345,-15.43465 -6.40758,-18.12925 2.43024,-40.48305 19.48171,-49.67 8.99318,-6.06471 21.24328,-6.86452 31.03399,-5.91709 2.43553,5.53414 3.72956,11.72176 -4.54005,11.59565 -14.55288,4.62113 -33.39259,10.28884 -36.76963,27.58436 -2.85312,6.08313 -2.87835,14.57325 4.86379,16.75038 16.934,7.52923 36.18365,1.36606 53.18676,-2.86923 12.67871,-1.80856 23.05601,-15.80079 17.9857,-28.13963 3.43424,-4.2565 7.80527,-5.54721 11.64158,-0.61962 11.85894,8.15709 20.92156,23.29086 37.12013,22.27621 14.47057,0.32473 29.35975,3.27671 43.58913,1.28696 10.94551,-13.95096 24.62606,-28.49679 26.74999,-47.17847 2.21761,-23.22144 1.5074,-47.56121 -6.47251,-69.67365 -2.46709,-5.26732 -8.55905,-6.65163 -13.86886,-6.2241 z"
       id="path957"
       inkscape:connector-curvature="0"
       transform="scale(0.26458333)" />
    <path
       style="fill:#916f6f;fill-opacity:1;stroke:none;stroke-width:1.42903125;stroke-opacity:1"
       d="m 428.85207,108.42497 c -48.67485,0.79176 -99.23572,4.2301 -143.83255,25.43787 -13.36025,7.70603 -19.07413,23.11349 -30.44079,32.65297 -23.34551,23.12389 -47.25168,47.57163 -58.15545,79.35378 -9.6218,25.22487 -21.63197,49.54913 -30.54925,75.00935 -5.75882,29.12865 -2.37498,59.14862 -3.39871,88.6446 0.82924,26.98868 -1.9053,54.32792 2.29624,81.09472 8.34403,35.64033 7.43775,73.05691 8.89193,109.55917 2.9309,16.47901 8.15011,32.20728 8.36291,49.20394 2.78172,42.30011 0.54337,85.52992 5.81137,127.23371 0.81569,25.55493 -3.14486,51.82991 5.80469,76.51382 5.14119,21.15903 14.0424,41.46926 28.54713,57.92879 11.98376,14.52717 24.26725,34.15869 45.38264,34.62135 26.61401,1.80653 52.76795,-5.90558 78.34859,-12.22574 17.78173,-6.11699 31.42914,-20.19187 39.98405,-36.61742 6.05858,-10.71344 15.25265,-21.07598 13.36814,-34.30065 -0.0912,-28.39592 1.44484,-57.03495 -2.00754,-85.26779 -9.9196,-30.10672 -4.59258,-62.48245 -12.66592,-92.96519 -6.67601,-34.89176 -2.66639,-71.00292 -1.72489,-106.43492 -0.23134,-8.94898 -5.35779,-17.09838 -4.68342,-26.13007 7.6255,-6.11127 -3.04276,-14.00172 -5.93857,-19.76139 -10.13061,-14.57437 -19.68337,-30.24693 -21.10469,-48.39581 -5.13138,-38.10195 -6.36112,-77.41476 1.45913,-115.23147 8.37992,-32.2548 19.16998,-64.7668 39.05911,-91.83597 10.75886,-16.66872 23.52078,-34.6563 44.07982,-39.41622 28.46733,-9.03914 58.00053,-11.90108 87.58957,-14.46057 30.91429,-3.82833 61.37525,0.98519 92.22425,2.31316 22.61737,-0.0602 45.48789,-0.0661 67.94385,-0.84123 7.68936,-3.97021 0.13933,-13.4524 -1.38375,-19.67813 -7.22648,-15.74142 -18.00539,-29.51932 -27.00925,-44.21624 -10.30388,-10.35131 -23.78261,-16.94066 -34.38885,-27.05948 -14.93941,-9.26982 -33.09376,-11.57141 -49.94507,-15.60106 -45.793,-7.35751 -92.38027,-8.33373 -138.67031,-9.1368 -1.08479,0.003 -2.1696,0.006 -3.25441,0.009 z M 246.9911,540.48644 c 20.38609,0.64864 40.77615,-0.39184 60.67522,3.40511 2.86945,3.41927 -5.64857,3.79759 -7.60848,3.69818 -28.51797,1.22895 -57.18437,2.3384 -85.74467,1.18342 -5.92215,-5.47405 4.26916,-5.60938 8.06063,-6.60648 8.12762,-1.47734 16.37759,-1.71627 24.6173,-1.68023 z"
       id="path959"
       inkscape:connector-curvature="0"
       transform="scale(0.26458333)" />
    <path
       style="fill:#c8b7b7;fill-opacity:1;stroke:none;stroke-width:1.42903125;stroke-opacity:1"
       d="m 505.9165,235.11194 c -24.82457,4.30563 -49.57464,10.87581 -72.755,20.86888 -17.78207,7.96984 -23.60908,28.50448 -35.04224,42.73596 -14.52114,17.85931 -18.94037,40.76222 -26.90292,61.5275 -5.73136,9.91598 -6.53754,20.90145 -5.83474,32.09409 0.21713,24.0443 -0.91883,48.07621 -3.01297,71.99912 1.80952,17.43115 2.58746,36.84832 13.95817,50.97343 6.95585,10.20837 12.0207,24.00857 25.47801,27.59596 22.62748,8.81152 45.20885,19.80454 70.01139,20.06627 18.87004,1.58122 37.44741,7.04444 56.5238,4.28529 28.81276,-0.55977 57.07973,-5.87456 85.50465,-9.11565 17.67116,-2.03478 34.7803,-7.76265 52.62016,-9.13241 22.2106,-3.62867 44.42943,-7.33171 67.03117,-7.12372 14.55861,-1.09345 29.69151,0.40633 43.90576,-2.72878 9.06093,-8.95812 16.8803,-20.23424 20.55348,-32.54396 2.10315,-17.6835 7.16026,-34.90457 8.90354,-52.61178 0.74025,-41.71298 -0.0232,-83.55808 -0.87012,-125.20651 -9.42498,-23.97429 -29.79789,-41.91051 -52.90556,-52.36459 -17.71586,-9.61249 -31.58639,-27.25901 -52.88382,-29.14257 -37.5372,-6.96515 -76.01641,-1.79987 -113.58973,-8.40131 -26.78781,-2.95871 -53.7814,-3.11415 -80.69303,-3.77522 z"
       id="path961"
       inkscape:connector-curvature="0"
       transform="scale(0.26458333)" />
    <path
       style="fill:#6c5353;fill-opacity:1;stroke:none;stroke-width:0.26458332;stroke-opacity:1"
       id="path967"
       d="m 95.623276,240.67557 c -1.687862,-0.39356 -3.186629,-1.29011 -4.403815,-2.52189 -0.580438,-0.5874 -1.03473,-1.29546 -1.504212,-1.96803 -0.635624,-0.99547 -1.279102,-2.02603 -2.13374,-2.85499 -0.251915,-0.24435 -0.971153,-0.81358 -1.239467,-1.02987 -1.615276,-1.2183 -3.097975,-2.5421 -4.366221,-4.12078 -1.508873,-2.09192 -2.676988,-4.39881 -3.87808,-6.67381 -0.988874,-1.88426 -2.112308,-3.68869 -3.254046,-5.48195 -1.380628,-2.05987 -2.292493,-4.36366 -3.139655,-6.67924 -0.912608,-2.39288 -1.727641,-4.81768 -2.465019,-7.26979 -0.693936,-2.18924 -1.356014,-4.38917 -2.108277,-6.55928 -1.087051,-2.52061 -1.9587,-5.10903 -2.633835,-7.76816 -0.576005,-2.63915 -1.217546,-5.26054 -1.939009,-7.86339 -0.802248,-2.69013 -1.512747,-5.40408 -1.919983,-8.1832 -0.280456,-2.31927 -0.326134,-4.66037 -0.390777,-6.99364 -0.02011,-2.382 -0.538287,-4.709 -1.034864,-7.02634 -0.60765,-2.70693 -0.822585,-5.46775 -1.051148,-8.22459 -0.146439,-2.55577 -0.56896,-5.07812 -1.064739,-7.58546 -0.561231,-2.53036 -1.183661,-5.03839 -1.531604,-7.60913 -0.283323,-2.26946 -0.08348,-4.54517 0.07389,-6.8135 0.08997,-2.42371 -0.04956,-4.84254 0.04315,-7.26736 0.262816,-2.09827 0.553254,-4.17521 0.612952,-6.291 0.0577,-2.49759 0.178025,-4.9911 0.386472,-7.48057 0.19558,-2.92178 0.854231,-5.76924 1.538465,-8.605361 0.490468,-1.915504 0.770874,-3.872111 1.247288,-5.79065 0.701106,-2.80902 2.047962,-5.364919 3.485875,-7.853402 1.028099,-1.712291 2.123379,-3.382558 3.156267,-5.091996 0.867238,-1.510546 1.390949,-3.17867 1.96914,-4.812353 0.620369,-1.894811 1.528146,-3.665164 2.453749,-5.423278 0.567576,-1.271339 1.009721,-2.592602 1.566378,-3.870479 0.821238,-1.641525 1.753177,-3.227379 2.649477,-4.829481 1.037584,-1.840868 2.419776,-3.429122 3.979161,-4.84105 1.020614,-0.813313 1.822043,-1.772843 2.518503,-2.864948 0.856736,-1.497462 1.948256,-2.827795 3.131042,-4.075599 0.716814,-0.673629 1.307705,-1.453528 1.828196,-2.283611 0.622131,-1.078352 1.169525,-2.192041 1.857513,-3.231311 0.687337,-0.956845 1.424474,-1.873721 2.342404,-2.617214 0.15508,-0.06383 0.104947,0.06408 0.114646,0.162762 0.0013,0.01389 0.0083,-0.02678 0.01005,-0.04062 0.01585,-0.125643 0.02117,-0.252709 0.04266,-0.377508 0.02848,-0.165378 0.07139,-0.327948 0.107082,-0.491921 0.238961,-0.979003 0.775475,-1.827255 1.304697,-2.669953 0.453168,-0.652544 0.853012,-1.342607 1.355916,-1.959171 0.337251,-0.25442 0.487881,-0.666736 0.690054,-1.030824 0.310174,-0.555038 0.692857,-1.063011 1.083329,-1.562907 0.09626,-0.300781 0.471202,-0.344368 0.630227,-0.565708 0.190486,-0.466326 0.443243,-0.894697 0.745551,-1.296459 0.08711,-0.07247 0.236132,-0.3137 0.365447,-0.358494 0.07734,-0.02679 -0.155932,0.471641 0.04214,0.21699 2.40901,-3.01408 -0.361646,0.264417 0.794792,-1.395143 1.124762,-1.351015 1.802588,-0.232579 3.571112,1.510755 0.2628,0.259062 -0.72738,-0.12506 -1.09107,-0.187592 -0.01,0.04113 -0.591261,-0.09489 -0.581643,-0.136012 v 0 c -0.302819,-0.27954 -1.298636,-0.971285 -0.908455,-0.838618 1.621268,0.551265 4.012278,0.827559 2.936098,2.113876 -0.46235,0.499784 -2.336544,2.513552 -0.67295,0.233262 0.33557,-0.302504 -0.5582,1.525127 -0.53255,1.308092 -0.0619,0.07483 -0.710685,0.843068 -0.738048,0.664786 -0.173466,0.342025 -0.188132,0.765276 -0.446154,1.074595 -0.366768,0.568254 -0.764921,1.118367 -1.297789,1.544884 -0.297921,0.175516 -0.298696,0.50543 -0.424511,0.812799 -0.308832,0.725967 -0.642329,1.444274 -1.022702,2.135683 -0.381793,0.611282 -0.782312,1.270844 -1.346178,1.729954 -0.02761,-0.02246 -0.08348,-0.08975 -0.0915,-0.05506 -0.121515,0.525335 -0.06788,1.100113 -0.309658,1.602284 -0.440055,1.179513 -1.095245,2.235248 -1.852644,3.240032 -0.646089,0.835594 -1.446456,1.569104 -1.889466,2.539963 -0.514961,1.134684 -1.136314,2.201836 -1.834396,3.234333 -0.897787,1.354339 -1.848371,2.678356 -2.87315,3.939479 -0.912794,1.160129 -1.803855,2.337515 -2.763819,3.459739 -1.050121,1.396741 -2.157167,2.7504 -3.173794,4.172429 -0.977849,1.424901 -1.885831,2.891428 -2.804091,4.35492 -0.618238,0.953958 -1.192088,1.912607 -1.325758,3.067831 -0.349181,2.152814 -0.878835,4.266438 -1.951903,6.188387 -0.872691,1.587349 -1.876758,3.105631 -2.60849,4.766262 -0.744894,1.905675 -1.385263,3.859318 -2.359392,5.66661 -1.160169,2.253549 -2.458988,4.427109 -3.621477,6.677846 -0.234929,0.549563 -0.414787,0.90969 -0.565229,1.482608 -0.292352,1.113346 -0.251114,2.277118 -0.292248,3.416155 -0.115454,2.914617 -0.240372,5.835997 -0.879311,8.694957 -0.448334,2.24943 -1.051449,4.48575 -1.163085,6.78606 -0.06709,2.16039 0.217424,4.30596 0.152181,6.46666 -0.179025,2.44872 -0.47384,4.88527 -0.6622,7.3333 -0.13626,1.80545 -0.259461,3.63081 0.168162,5.4106 0.556138,2.50506 1.347184,4.95404 1.810281,7.48127 0.49267,2.73367 0.844508,5.48656 0.998691,8.2617 0.174303,2.53738 0.526611,5.05074 1.030031,7.54472 0.460248,2.7002 0.862383,5.42119 0.67455,8.17023 -0.063,1.93288 -0.200922,3.88145 0.389721,5.75777 0.800536,2.63118 1.587569,5.26594 2.135272,7.96464 0.580818,2.59738 1.12227,5.20512 1.83225,7.77167 0.727636,2.52697 1.4634,5.05121 2.247037,7.56148 0.667915,2.17714 1.321393,4.3591 2.105928,6.4983 0.909452,2.4142 1.874266,4.81229 2.535258,7.31071 0.532792,1.87372 0.966671,3.82447 2.096982,5.44858 1.390962,1.90527 2.888551,3.74889 3.95116,5.86928 1.028618,2.02944 1.871147,4.14445 2.925937,6.15733 0.970728,1.44293 2.231898,2.52956 3.519692,3.68613 1.378344,1.45576 2.537915,3.0718 3.651088,4.73423 1.222105,1.58192 2.613533,3.06658 3.476763,4.8889 0.163121,0.15504 -2.029442,2.4619 -2.19256,2.30686 z"
       inkscape:connector-curvature="0" />
    <path
       style="fill:#6c5353;fill-opacity:1;stroke:none;stroke-width:0.26458332;stroke-opacity:1"
       id="path969"
       d="m 97.326914,238.38974 c 2.0143,0.62348 3.373666,2.25642 4.056886,4.19452 0.0992,0.41712 0.18302,0.82487 0.0209,1.23126 0.0261,0.14474 -2.020789,0.51435 -2.046924,0.36961 v 0 c -0.230376,-0.0839 -0.381447,-0.14147 -0.550246,-0.35452 -1.218301,-1.15888 -2.577116,-2.35173 -3.154363,-3.9681 -0.10414,-0.11836 1.56958,-1.59112 1.673723,-1.47277 z"
       inkscape:connector-curvature="0" />
    <path
       style="fill:#6c5353;fill-opacity:1;stroke:none;stroke-width:0.26458332;stroke-opacity:1"
       id="path971"
       d="m 149.02361,30.917933 c 0.14243,0.29006 0.29798,0.57404 0.4273,0.87018 0.30745,0.704075 0.60945,1.610945 0.88017,2.321494 0.50573,1.327345 1.07119,2.618218 1.67217,3.904578 0.84189,1.827342 1.91524,3.538566 2.66063,5.411983 0.56594,1.422379 0.57384,1.648571 0.95769,3.135929 0.52074,2.904148 0.2045,5.824582 -0.61564,8.634304 -0.47813,1.544759 -1.40979,2.807446 -2.65112,3.815725 -0.33298,0.07967 -0.48482,0.52252 -0.77093,0.646965 0.0333,-0.115581 -0.0334,-0.163658 -0.10341,-0.339696 0.0858,0.245081 -3.38019,1.458036 -3.46596,1.212956 v 0 c -0.31487,-0.771761 -0.33797,-1.532951 -0.0617,-2.331842 0.35415,-0.821682 0.88346,-1.426649 1.66668,-1.872888 0.64583,-0.370824 0.50875,-1.422812 0.74232,-2.022316 0.33859,-2.218047 0.70496,-4.491715 0.38243,-6.730455 -0.0919,-0.389837 -0.15654,-0.787132 -0.27574,-1.169508 -0.73377,-2.353805 -2.25995,-4.382011 -3.20928,-6.642333 -1.02232,-2.378445 -2.09976,-4.966462 -1.84899,-7.621508 0.0337,-0.356658 0.15141,-0.700307 0.22712,-1.050459 -0.0122,-0.239443 3.37399,-0.412552 3.38624,-0.173109 z"
       inkscape:connector-curvature="0" />
    <path
       style="fill:#6c5353;fill-opacity:1;stroke:none;stroke-width:1.42903125;stroke-opacity:1"
       d="m 362.23775,113.06848 c -26.84591,2.72125 -53.71243,9.30274 -78.06922,21.03355 -14.62277,11.31977 -23.30716,28.55829 -37.17834,40.81851 -21.81942,19.06109 -39.65077,42.64778 -50.18475,69.76554 -10.8271,29.14601 -25.49164,56.78125 -34.32227,86.66972 0.59756,50.79325 -1.25944,101.66918 1.13876,152.41233 5.41382,23.08084 8.03054,46.71628 8.39006,70.44231 0.76808,23.02381 -0.3447,46.71699 6.73961,69.06127 8.10776,49.29934 2.34835,99.49986 8.52582,149.12042 0.0673,29.60801 -2.05765,60.09129 8.36374,88.45326 7.87188,29.27161 26.95706,54.02046 48.10421,75.05205 15.63934,14.90085 39.07421,9.6638 58.22779,7.31296 23.17334,-4.98834 49.4635,-7.06208 67.72513,-23.7859 4.44186,-7.46419 -4.38247,-14.90621 -11.42666,-15.63282 -14.47269,-8.21197 -21.5098,-24.45848 -34.61883,-34.43119 -17.28676,-15.02867 -24.90365,-37.46184 -37.15349,-56.23003 -15.43171,-28.46217 -22.33198,-60.46527 -33.75082,-90.56994 -9.45392,-33.29419 -19.59196,-66.64092 -20.78889,-101.47963 -2.45202,-21.61888 -6.51876,-43.02209 -8.45791,-64.69732 -0.36302,-5.068 -5.18012,-7.88125 -9.445,-8.32578 -3.76064,-4.64738 6.5828,-5.90395 5.6296,-11.75322 -1.22614,-13.54532 -5.27472,-26.89357 -4.84841,-40.69148 -1.06607,-35.59943 2.02755,-71.2509 6.37233,-106.55178 4.16505,-28.04242 11.08798,-56.41924 27.7461,-79.91131 17.41418,-29.94168 24.19409,-65.488 47.46505,-91.84318 12.66272,-13.00486 23.1222,-27.98964 34.08183,-42.4132 4.25467,-9.15113 12.75162,-15.5465 16.83858,-24.5838 4.79422,-11.74738 14.0975,-21.43215 20.38601,-32.42952 -0.64255,-2.95066 -2.50203,-4.5654 -5.49003,-4.81182 z"
       id="path973"
       inkscape:connector-curvature="0"
       transform="scale(0.26458333)" />
    <path
       style="fill:#ac9393;fill-opacity:1;stroke:none;stroke-width:0.26458332;stroke-opacity:1"
       id="path981"
       d="m 171.35707,66.560038 c 0.25547,0.310073 0.52996,0.605401 0.7664,0.930219 0.78246,1.074957 1.19675,1.858709 1.8417,3.047347 1.09905,2.025523 2.07525,4.093871 3.02817,6.191062 1.88673,3.999611 3.56103,8.090918 4.91818,12.299648 1.01819,3.142408 1.90771,6.317324 2.58818,9.549503 0.58159,3.202533 0.72384,6.454283 0.80155,9.700563 0.0947,3.26977 -0.48757,6.48127 -1.0449,9.68547 -0.44805,2.23791 -0.36171,4.52495 -0.50204,6.79086 -0.10238,2.45326 -0.87802,4.73963 -1.92409,6.93364 -0.8467,1.44139 -1.45918,2.95904 -1.87884,4.57144 -0.30512,1.30995 -0.66654,2.58584 -1.23454,3.80674 -0.57079,0.89564 -1.24075,1.71585 -1.78715,2.62814 -0.44143,0.81876 -1.03901,1.51385 -1.68842,2.16946 -0.32796,0.31148 -0.65975,0.61471 -1.02233,0.88543 -8e-5,-0.0258 0.0948,-0.063 0.0644,-0.0772 -0.069,-0.0323 -0.29816,0.263 -0.39013,0.37227 -0.10049,0.0904 -0.19157,0.19253 -0.30147,0.27122 -0.18382,0.13163 -0.35037,0.35599 -0.57645,0.3574 -0.89099,0.006 -3.25365,0.0155 -2.19972,-0.48891 -0.21134,-0.15861 2.03167,-3.14739 2.24301,-2.98879 v 0 c 0.14559,-0.0237 0.58871,-0.0103 0.44187,-0.0244 -1.64083,-0.15709 -2.00698,-0.64101 -2.91958,0.33151 -0.0258,0.0384 -0.0334,0.12948 -0.0773,0.11512 -7e-5,-2e-5 0.0967,-0.19313 0.21529,-0.36101 0.19614,-0.27764 0.44767,-0.51556 0.72027,-0.71656 0.0706,-0.0416 0.13724,-0.0909 0.21188,-0.12474 0.13588,-0.0616 -0.16562,0.35802 -0.0131,0.0937 0.11735,-0.75962 0.69645,-1.43182 1.05167,-2.08184 0.54896,-0.77221 1.15634,-1.4872 1.7734,-2.20214 0.59285,-0.77748 0.25048,-1.96911 0.50174,-2.85823 0.35417,-1.97142 0.99014,-3.85173 1.94071,-5.62132 0.81408,-1.68371 1.47968,-3.41947 1.6229,-5.30499 0.19433,-2.34569 0.0931,-4.69628 0.20349,-7.04602 0.2267,-3.06848 0.66115,-6.11282 0.87109,-9.18179 0.16048,-2.94949 0.11223,-5.89497 -0.42867,-8.810414 -0.46838,-2.994245 -1.26256,-5.886627 -2.7093,-8.572826 -1.92219,-3.960807 -3.97092,-7.866689 -5.63551,-11.946334 -1.25507,-3.192116 -2.70146,-6.821514 -2.8089,-10.294519 -0.013,-0.420518 0.0408,-0.840452 0.0611,-1.260676 -0.0543,-0.231603 3.22105,-0.999633 3.27535,-0.76803 z"
       inkscape:connector-curvature="0" />
    <path
       style="fill:#ac9393;fill-opacity:1;stroke:none;stroke-width:0.26458332;stroke-opacity:1"
       id="path983"
       d="m 166.99386,70.193534 c -1.07307,-0.959231 -2.27647,-2.298999 -2.50185,-3.783295 1.21593,0.365394 6.09127,-2.405489 3.14029,-1.085022 0.0245,0.135085 -1.88589,0.481846 -1.9104,0.34676 v 0 c -0.32898,-0.05861 -1.24775,0.03308 -0.98694,-0.175824 3.25622,-2.608214 2.68884,-2.792407 4.23535,-1.661498 1.29596,1.115584 2.11025,2.658078 2.27123,4.368776 0.14072,0.300355 -4.10696,2.290461 -4.24768,1.990103 z"
       inkscape:connector-curvature="0" />
    <path
       style="fill:#ac9393;fill-opacity:1;stroke:none;stroke-width:1.42903125;stroke-opacity:1"
       d="m 653.11538,242.82006 c -5.92494,-1.40789 -14.46829,3.42309 -9.90553,9.99484 18.43113,27.62626 30.84426,59.12309 41.26771,90.15377 11.2661,33.72589 14.48824,70.22052 6.91186,105.10996 -1.11129,16.4256 -1.05673,33.44888 -8.91191,48.47542 -6.23249,15.14969 -9.9296,31.62017 -20.33857,44.6991 -2.91167,10.39556 10.39372,7.25993 16.57341,6.26876 29.60706,-7.8462 60.46116,-4.12337 90.63743,-6.82699 14.2636,-0.83678 19.30564,-16.0822 25.72535,-26.3952 5.9723,-15.47991 5.78159,-32.58682 10.4777,-48.48379 3.63563,-31.0299 0.5658,-62.45297 1.03394,-93.63077 -0.94046,-15.07794 1.16096,-30.7481 -1.6708,-45.4635 -9.65523,-22.47756 -28.47702,-40.85525 -51.24646,-49.73882 -17.7407,-10.71812 -32.61826,-27.74327 -54.34227,-30.22178 -15.22093,-2.69108 -30.76405,-3.84659 -46.21186,-3.941 z"
       id="path985"
       inkscape:connector-curvature="0"
       transform="scale(0.26458333)" />
    <path
       style="fill:#715656;fill-opacity:1;stroke:none;stroke-width:1.42903125;stroke-opacity:1"
       d="m 562.16536,118.38269 c -3.55175,8.13038 4.67993,16.20981 6.89477,24.02246 8.56089,18.11317 19.94405,37.91571 13.60569,58.64644 0.0704,6.88036 -8.62218,14.80602 -2.02632,20.60373 21.65544,5.39896 44.52963,2.68705 66.68432,3.44798 12.28751,-1.13402 25.67039,1.85821 37.34748,-2.5967 5.23199,-5.96396 -1.74588,-13.47205 -3.20974,-19.84735 -8.16665,-15.59937 -17.55747,-30.68754 -28.48852,-44.44231 -10.74074,-9.15422 -22.16715,-16.74051 -32.98494,-25.55789 -12.58104,-8.26627 -28.2065,-9.70898 -42.30994,-14.2959 -5.03948,-1.0715 -10.70382,-2.61424 -15.5128,0.0195 z"
       id="path987"
       inkscape:connector-curvature="0"
       transform="scale(0.26458333)" />
    <path
       style="fill:#ffb380;fill-opacity:1;stroke:none;stroke-width:0.26458332;stroke-opacity:1"
       id="path991"
       d="m 159.7311,243.25982 c -0.78819,-1.89014 -0.70246,-3.99813 -0.67829,-6.01004 0.10109,-1.57239 0.0212,-3.14647 -0.0153,-4.71949 -0.0372,-1.81754 0.42493,-3.55646 1.01983,-5.25456 0.45155,-1.11204 0.73448,-2.27665 1.04129,-3.43318 0.30403,-1.23527 0.8495,-2.37975 1.48741,-3.47326 0.44653,-0.64616 0.79282,-1.31893 0.98954,-2.07772 0.22744,-1.02842 0.43269,-2.06242 0.62709,-3.09774 0.1676,-0.95215 0.21894,-1.91777 0.1956,-2.88265 -0.0784,-1.27189 -0.19771,-2.54003 -0.24719,-3.81384 -0.0378,-1.5841 0.23591,-3.14653 0.53474,-4.69497 0.3002,-1.39003 0.31307,-2.82211 0.35657,-4.23814 -0.0198,-1.65675 0.0108,-3.30775 0.3314,-4.93645 0.27134,-1.29722 0.90366,-2.46807 1.24793,-3.74263 0.31737,-1.64837 0.56744,-3.30697 0.91715,-4.94929 0.40287,-1.47048 0.755,-2.9446 0.96087,-4.45582 0.23356,-1.63154 0.40822,-3.27054 0.61722,-4.90531 0.23438,-1.83501 0.69909,-3.62474 1.25985,-5.3839 0.38247,-1.06661 0.51814,-2.19105 0.70576,-3.30156 0.23212,-1.3243 0.37715,-2.6604 0.54448,-3.99364 0.18695,-1.46146 0.5204,-2.89648 0.93044,-4.30986 0.29495,-0.73428 0.32756,-1.4385 0.28982,-2.21112 -0.0966,-1.07266 0.0319,-2.14365 0.16415,-3.20676 0.0472,-0.51771 0.15879,-1.02829 0.21836,-1.54367 0.008,-0.41003 -0.0399,-0.82175 -0.0464,-1.23323 0.005,-0.35001 0.0344,-0.69771 0.0472,-1.04771 0.0815,-0.51453 -0.047,-0.58111 0.16172,0.0674 0.20096,0.41871 0.79562,0.62115 1.17841,0.27069 0.11251,-0.103 0.16622,-0.25582 0.24934,-0.38373 -0.12756,-0.0382 0.41302,-1.84216 0.54058,-1.80394 v 0 c 0.16565,-0.12399 0.30688,-0.2902 0.49696,-0.37197 0.78157,-0.33623 1.60017,0.14751 1.96845,0.8216 0.16351,0.46054 0.26494,0.91453 0.29019,1.40151 0.0111,0.3738 0.0256,0.74588 0.0143,1.11948 -0.0161,0.26873 -0.072,0.54008 0.0126,0.8029 0.14975,0.76456 0.25492,1.52994 0.19722,2.31305 -0.0575,0.89942 -0.20968,1.78911 -0.21577,2.69102 -0.002,1.08534 0.015,2.1748 -0.1752,3.24892 -0.17009,1.37264 -0.38605,2.73964 -0.60247,4.10555 -0.23998,1.36005 -0.60588,2.685 -0.92653,4.02625 -0.20474,1.18672 -0.27335,2.38761 -0.41854,3.58244 -0.23242,1.74437 -0.60553,3.46585 -0.95554,5.18959 -0.33628,1.56154 -0.73229,3.1149 -0.94417,4.69951 -0.21892,1.58904 -0.32342,3.19346 -0.59644,4.77561 -0.33617,1.93972 -0.74759,3.88201 -1.58618,5.6765 -0.39048,0.81626 -0.95104,1.62471 -1.00966,2.54703 0.0411,1.58923 0.12754,3.18289 -0.0305,4.76909 -0.15783,1.59908 -0.39006,3.18856 -0.69283,4.76689 -0.2252,1.26446 -0.42216,2.53569 -0.43966,3.82326 -0.0426,1.23143 -0.11875,2.46453 -0.046,3.69651 0.0443,1.29437 0.0342,2.58773 -0.21105,3.86552 -0.22755,1.16146 -0.50656,2.3111 -0.8431,3.44606 -0.33438,1.11813 -0.72795,2.21802 -1.41591,3.17508 -0.45547,0.69745 -0.71871,1.45476 -0.88486,2.27328 -0.28938,1.2345 -0.59169,2.46516 -0.9518,3.68136 -0.32474,1.31353 -0.57498,2.6454 -0.66629,3.99774 -0.0888,1.45372 -0.21431,2.91083 0.0994,4.34972 0.25897,2.03789 0.52507,4.1815 -0.19191,6.15603 0.01,0.34678 -4.89459,0.4834 -4.90425,0.13662 z"
       inkscape:connector-curvature="0" />
    <path
       style="fill:#ffb380;fill-opacity:1;stroke:none;stroke-width:0.26458332;stroke-opacity:1"
       id="path993"
       d="m 107.16877,163.28146 c 1.59187,1.24862 2.63144,2.90819 4.35913,4.00598 0.93794,0.46041 1.92275,0.40685 2.93307,0.38479 0.72453,-0.0158 1.44935,-0.0118 2.17401,-0.0188 0.40798,-0.005 0.81604,-0.007 1.22396,-0.0165 1.28921,-0.0293 2.57616,-0.10762 3.86487,-0.15046 1.2534,-0.0417 1.64585,0.0554 1.10593,-0.0628 1.31251,-0.0174 2.6452,0.109 3.95472,-0.0403 0.54275,-0.0619 1.07698,-0.18595 1.61901,-0.25385 1.56835,-0.2007 3.1356,-0.40821 4.70607,-0.59226 1.50777,-0.20439 3.02774,-0.21175 4.54592,-0.2157 1.26578,0.0473 2.51091,-0.15302 3.75351,-0.36177 1.22468,-0.22452 2.44066,-0.39238 3.68136,-0.49193 1.30335,-0.0916 2.47105,-0.68847 3.67059,-1.14851 1.9006,-0.74784 3.91957,-1.0671 5.93602,-1.30644 1.66258,-0.19454 3.33548,-0.2796 5.00439,-0.40264 1.14632,-0.0746 2.27491,-0.28847 3.41013,-0.45187 0.13315,-0.009 0.26619,-0.0203 0.39944,-0.028 0.83558,-0.0481 1.5291,-0.0703 2.41464,0.0417 0.33425,0.0423 0.48389,0.32112 0.32543,0.0688 -0.61325,-0.1103 -1.79099,0.0279 -1.0884,-0.3316 0.39751,-0.20338 0.82407,-0.352 1.24,-0.51168 2.2977,-0.95313 2.59644,-0.26551 5.46182,0.78574 -0.0719,-0.12243 -0.58391,-1.11873 -0.86841,-1.2197 -0.41536,-0.14741 -0.88272,-0.0628 -1.31241,-0.16088 -0.0795,-0.0181 0.1515,-0.0607 0.22889,-0.0864 0.33887,-0.11268 0.56984,-0.17034 0.92066,-0.26644 0.18513,-0.0368 0.36897,-0.0809 0.55541,-0.11041 0.11133,-0.0176 1.22531,-0.13551 1.29636,-0.0212 2.50392,4.02871 1.52549,5.64315 2.42438,4.0501 -0.93147,-4.37207 0.50141,-3.80484 -2.03675,-3.96653 -0.0454,-0.003 0.091,-0.005 0.13634,-0.002 0.13435,0.008 0.27003,0.041 0.40234,0.0647 0.0889,0.0796 0.0647,0.0289 -0.072,0.1521 0.29033,-0.15484 2.48008,3.95106 2.18974,4.1059 v 0 c -0.20988,0.15005 -0.11439,0.0846 -0.28501,0.19853 -0.59462,0.25679 -2.40011,0.61715 -2.70045,0.2012 -0.80284,-1.11193 -0.80897,-2.62095 -1.21346,-3.93142 0.097,-0.11398 0.19741,-0.45877 0.29095,-0.34194 2.82383,3.52692 4.04494,3.80886 1.4028,4.56395 -1.53199,0.32708 -3.75964,0.75127 -5.01512,-0.35871 -0.30145,-0.26651 -0.4958,-0.63387 -0.74369,-0.95081 1.07686,0.32595 4.05466,0.56919 3.14353,1.22928 -0.4314,0.31254 -0.91304,0.53374 -1.42002,0.6948 -1.56241,0.53543 -3.09434,0.73677 -4.74309,0.42951 -0.1075,-0.0483 -0.20974,-0.11052 -0.32249,-0.14476 -0.0651,-0.0198 0.10978,0.0939 0.17745,0.10071 1.19596,0.12075 1.94911,-0.16468 1.11609,0.27195 -1.24807,0.52626 -2.53766,0.95939 -3.88291,1.15627 -1.58048,0.20139 -3.17788,0.23037 -4.74879,0.5126 -1.76149,0.3044 -3.54447,0.49178 -5.28579,0.90524 -1.56863,0.38336 -3.13221,0.81057 -4.73896,1.00278 -1.18193,0.14076 -2.35419,0.10907 -3.52915,0.27106 -1.42182,0.19679 -2.8361,0.47108 -4.27291,0.53831 -1.39483,0.05 -2.79428,0.0284 -4.18362,0.18174 -1.51847,0.14038 -3.03158,0.34707 -4.52697,0.64857 -2.20409,0.34189 0.52031,-0.0562 -1.81991,0.20288 -1.41291,0.15639 -2.81564,0.43766 -4.24162,0.47627 -3.00188,-0.0142 -5.98119,-0.11672 -8.92939,-0.74936 -2.13086,-0.36937 -4.31694,-0.72007 -6.24338,-1.7571 -2.16752,-1.42164 -3.75776,-2.98793 -4.35931,-5.59818 -0.0844,-0.17784 2.43065,-1.372 2.51509,-1.19416 z"
       inkscape:connector-curvature="0" />
    <path
       style="fill:#ffb380;fill-opacity:1;stroke:none;stroke-width:1.42903125;stroke-opacity:1"
       d="m 395.91766,555.91188 c -7.80726,3.83127 0.17451,12.28602 -1.59724,18.4835 1.22199,18.81811 -0.29342,37.85461 -0.12416,56.52827 6.62428,12.80959 20.44922,20.04099 34.45236,21.92512 27.63823,7.13208 56.18565,2.75693 83.85232,-0.89873 14.73792,-1.64734 30.78988,-0.0944 44.25252,-7.07538 10.78044,-10.19351 26.28164,-17.77833 41.31631,-15.31743 3.07613,3.61178 3.90895,11.22912 10.77356,9.80784 11.12512,-1.51273 22.76896,-6.94391 33.16357,-6.94419 -1.38823,7.33205 -4.82028,17.76123 3.941,21.96298 6.30696,3.64103 12.36348,15.63292 20.61768,10.2907 4.76059,-10.63451 3.61495,-23.36854 6.88839,-34.42514 3.47197,-21.60587 7.31509,-44.21366 3.06565,-65.8387 -5.0681,-7.27832 -14.48554,0.64889 -21.26069,0.60844 -17.87942,0.91422 -35.81522,5.95546 -53.56218,9.14187 -35.82109,8.87415 -73.38923,7.60935 -109.85238,6.28141 -31.45239,-1.52051 -62.76294,-9.52622 -91.51122,-23.93327 -1.36741,-0.81123 -2.90408,-0.56102 -4.41549,-0.59729 z m 251.71325,51.26929 c 7.17333,1.52503 -6.88837,7.59089 -3.55583,1.38995 0.8827,-0.9851 2.23901,-1.51689 3.55583,-1.38995 z"
       id="path995"
       inkscape:connector-curvature="0"
       transform="scale(0.26458333)" />
    <path
       style="fill:#ffb380;fill-opacity:1;stroke:none;stroke-width:1.42903125;stroke-opacity:1"
       d="m 733.12439,555.14712 c -19.28327,0.96472 -39.18808,0.81551 -57.78832,5.98778 -5.96512,5.49165 -1.08889,15.66687 -2.21146,23.12036 0.61741,27.54776 -7.77258,54.29645 -9.89436,81.6697 2.41431,10.48386 16.1991,11.61221 25.04433,10.34373 12.94843,-0.13107 26.27501,4.57159 38.93273,1.02712 13.61139,-16.04389 27.38124,-34.53405 26.82783,-56.6784 -0.17693,-21.7852 0.58146,-45.385 -9.92228,-64.95114 -3.53307,-1.24858 -7.32386,-0.35009 -10.98847,-0.51915 z"
       id="path997"
       inkscape:connector-curvature="0"
       transform="scale(0.26458333)" />
    <path
       style="fill:#ffb380;fill-opacity:1;stroke:none;stroke-width:1.42903125;stroke-opacity:1"
       d="m 656.6154,679.28305 c -6.0992,7.17489 -2.83271,18.45264 -5.94216,27.21558 -1.87164,13.67677 -9.95228,25.76493 -9.23307,39.90209 0.9158,7.22295 -4.18709,18.8616 4.12814,23.00341 23.36199,-2.79558 47.36706,-2.10494 71.0022,0.15351 7.21823,-2.32097 6.41051,-12.67171 6.10688,-18.6723 -8.7696,-5.73737 -21.29088,0.81333 -30.55113,-4.11684 -1.76469,-3.28441 -4.49253,-7.66086 0.60567,-8.76956 7.4305,-6.14124 -1.55808,-15.31369 -1.79466,-22.70541 -3.327,-9.46202 -1.22143,-19.87648 -3.98845,-29.17513 -8.47255,-3.2544 -18.23175,-2.82877 -26.62129,-6.98606 -1.23738,0.0502 -2.47476,0.10047 -3.71213,0.15071 z"
       id="path999"
       inkscape:connector-curvature="0"
       transform="scale(0.26458333)" />
    <path
       style="fill:#ffb380;fill-opacity:1;stroke:none;stroke-width:1.42903125;stroke-opacity:1"
       d="m 720.00354,779.85113 c -25.23393,9.23842 -52.62159,3.41093 -78.75023,6.00361 -8.40957,5.44295 -3.4982,17.52877 -5.4518,25.86742 -0.928,19.11757 -13.91863,34.76039 -15.67107,53.75641 -2.62427,17.11027 -3.24892,35.24146 0.96445,51.9295 7.95988,4.83092 19.61997,1.6492 27.61059,7.79117 5.79598,1.65866 10.45908,-3.91854 16.65157,-2.21332 9.05291,-0.57987 24.63101,3.12432 27.21579,-9.27196 1.99874,-17.43632 0.003,-35.61979 7.53311,-52.16243 2.27007,-9.88878 -10.7669,-7.90494 -15.94263,-12.23887 -6.43606,-3.97678 -12.96121,-10.14585 -14.75084,-17.48052 4.21437,-2.9355 11.58417,-7.00267 14.37963,0.13956 5.45536,7.32773 14.82451,14.62387 24.2237,9.56756 13.01339,-2.68649 23.58338,-12.99508 25.55515,-26.29169 3.90819,-12.74562 1.63802,-29.87394 -12.00721,-35.60856 l -1.416,0.19252 z"
       id="path1001"
       inkscape:connector-curvature="0"
       transform="scale(0.26458333)" />
    <path
       style="fill:#ffb380;fill-opacity:1;stroke:none;stroke-width:0.26458332;stroke-opacity:1"
       id="path1005"
       d="m 167.48246,172.85934 c -1.21578,-1.26307 -1.80169,-2.90921 -2.25621,-4.56429 -0.0245,-0.0806 -0.0457,-0.16238 -0.0735,-0.24194 -0.077,-0.22008 0.0535,0.17532 0.0357,0.20729 -0.0765,0.13697 -0.59162,-0.11076 -0.88697,-0.22817 -0.97377,-0.3862 -1.88066,-0.93365 -2.76522,-1.49149 -0.84418,-0.64517 -0.18582,-0.20584 0.25351,-0.005 -0.0729,0.16275 -0.82856,-0.52807 -0.57064,-0.61414 0.5069,-0.16918 1.04573,-0.22069 1.56859,-0.33103 0.34514,-1.01386 0.37834,-0.52986 -0.0371,-1.45494 -0.0838,0.15557 -2.28392,-1.02989 -2.2001,-1.18546 v 0 c -0.0104,-1.49728 -0.20143,-0.79876 0.58643,-2.09188 1.00878,-0.19521 1.63137,-0.10676 2.32927,-0.66128 0.0367,-0.0292 0.0603,-0.0718 0.0905,-0.1077 -0.004,-0.0319 -0.0345,-0.0723 -0.0125,-0.0957 0.0254,-0.0271 0.074,-0.006 0.11105,-0.01 0.89829,0.24528 1.75071,0.6005 2.60308,0.97272 0.93039,0.53089 1.81536,1.16093 2.58902,1.90375 0.9086,0.87552 1.8616,1.70282 2.55185,2.77689 1.08092,1.56992 2.00261,3.30135 1.93598,5.26551 0.13832,0.41385 -5.71438,2.36986 -5.85269,1.95601 z"
       inkscape:connector-curvature="0" />
    <path
       style="fill:#ffb380;fill-opacity:1;stroke:none;stroke-width:0.26458332;stroke-opacity:1"
       id="path1007"
       d="m 167.60802,162.16096 c -0.6454,-1.17884 -0.90904,-2.68963 -0.13387,-3.89715 0.32177,-0.50123 0.74345,-0.93077 1.11517,-1.39616 0.80369,-0.0327 1.60737,-0.0653 2.41106,-0.098 0.22297,0.0637 -0.678,3.21696 -0.90097,3.15326 v 0 c 0.57591,-0.04 1.15182,-0.08 1.72773,-0.11998 0.24013,-0.35586 0.45014,-0.73403 0.72039,-1.0676 0.75048,-0.92635 0.92692,2.51821 0.70098,2.6055 0.058,0.39885 -5.5825,1.21898 -5.64049,0.82014 z"
       inkscape:connector-curvature="0" />
  </g>
  <g
     inkscape:groupmode="layer"
     id="layer3"
     inkscape:label="lines 1"
     sodipodi:insensitive="true">
    <path
       style="fill:#000000;fill-opacity:1;stroke:none;stroke-width:0.26458332;stroke-opacity:1"
       id="path914"
       d="m 133.3224,63.343165 c -0.63343,0.440296 -1.44862,0.2043 -2.11934,0.477268 -0.10201,0.04152 0.38833,0.138404 0.28299,0.170532 -0.36202,0.110403 -0.75505,0.0543 -1.13198,0.08838 -1.23865,0.112012 -0.91958,0.08072 -2.10454,0.29731 -2.15757,0.457496 -4.21445,1.2597 -6.34245,1.831036 -2.42014,0.641376 -4.76671,1.525383 -7.03018,2.59004 -2.53363,1.152001 -3.52589,2.816749 -4.91598,5.099418 -1.55172,2.846493 -3.45941,5.463654 -5.33158,8.101134 -1.55903,2.049076 -2.28339,4.497036 -2.99498,6.929139 -0.73333,2.822482 -1.782643,5.541417 -2.912329,8.224345 -1.041382,2.111555 -1.067274,4.043123 -1.015297,6.338933 0.191318,3.40875 0.196226,6.81906 0.08057,10.22987 -0.107894,2.71273 -0.552077,5.39351 -0.795327,8.09336 -0.200932,1.67262 0.174157,3.30805 0.486537,4.93907 0.29668,1.63513 0.465429,3.28672 0.794613,4.91639 0.19136,1.22166 0.876046,2.16018 1.605936,3.11312 1.077107,1.2751 1.878167,2.73731 2.654697,4.20536 0.44697,0.97861 1.04618,1.85012 1.85966,2.55373 1.08587,0.79136 2.41289,1.16235 3.6498,1.65145 2.0856,0.71368 4.14837,1.4888 6.19412,2.30914 1.3734,0.51576 2.70148,1.17827 4.12063,1.56742 0.80807,0.22158 1.12363,0.24608 1.95468,0.37521 2.76585,0.1733 5.52301,0.33026 8.26908,0.72028 2.40394,0.42609 4.78282,0.94942 7.23249,0.94907 -0.19085,-0.008 -0.76253,-0.004 -0.57256,-0.024 0.31993,-0.0337 0.6434,-0.008 0.96496,-0.0174 1.32133,-0.04 2.64179,-0.11634 3.96268,-0.16836 2.1349,-0.0743 4.26917,-0.16717 6.40149,-0.29643 2.38732,-0.13517 4.74846,-0.48631 7.10532,-0.87104 2.01451,-0.23837 3.98598,-0.72384 5.98281,-1.05688 1.3214,-0.2405 2.6555,-0.0871 3.98502,-0.0949 1.06973,-0.0824 2.06908,-0.51307 3.07855,-0.84367 1.64448,-0.52998 3.3439,-0.86408 5.05392,-1.09346 1.29583,-0.11488 2.59115,-0.18762 3.87826,-0.38272 1.07483,-0.22665 2.15816,-0.36322 3.25459,-0.4127 0.68916,0.075 1.21662,-0.0769 1.8633,-0.30481 1.45091,-0.47452 2.96577,-0.70801 4.46315,-0.98578 2.32806,-0.50283 4.69621,-0.35656 7.05506,-0.28757 -0.31741,0.0195 -0.64035,-0.004 -0.95223,0.0585 -0.15177,0.0302 0.30796,0.0328 0.46258,0.039 0.68508,0.0272 1.37541,-0.0554 2.05669,-0.1125 2.65827,-0.16369 2.47368,-0.081 3.93521,-0.1297 1.33405,-0.0331 2.66151,-0.15005 3.99653,-0.15602 0.89524,0.0584 1.7619,0.0669 2.64417,-0.0963 0.48022,-0.12586 0.9937,-0.0199 1.34512,-0.40699 0.61054,-0.9648 1.15046,-1.97037 1.762,-2.93765 0.80876,-1.14106 1.66365,-2.24228 2.234,-3.52543 0.47186,-1.39291 0.52631,-2.88833 0.70783,-4.33901 0.21598,-2.12633 0.68048,-4.21257 1.19634,-6.28276 0.53386,-1.70478 0.83115,-3.44198 0.91619,-5.22242 -0.0401,-2.00624 -0.19352,-4.00784 -0.25835,-6.01386 -0.0774,-2.05458 0.0321,-4.10783 0.0864,-6.1612 0.004,-2.10007 -0.11999,-4.19662 -0.12935,-6.29677 0.0208,-1.932621 0.11091,-3.863529 0.0711,-5.796506 -0.1005,-1.801328 -0.0766,-3.604615 -0.0635,-5.407443 0.0924,-1.104868 -0.13003,-2.090433 -0.59985,-3.075371 -0.4912,-1.011555 -0.95424,-2.039639 -1.51023,-3.017951 -0.51362,-0.862304 -1.07721,-1.73268 -1.78639,-2.448738 -0.84266,-0.755081 -1.68914,-1.504598 -2.5171,-2.276165 -0.92016,-0.887026 -1.8825,-1.726062 -2.92666,-2.463305 -1.16279,-0.722527 -2.4847,-1.095269 -3.73777,-1.623465 -1.56498,-0.695814 -2.89598,-1.789049 -4.23582,-2.834457 -1.23769,-0.953823 -2.45066,-1.939084 -3.67146,-2.914335 -1.11427,-0.911167 -2.41575,-1.46516 -3.79938,-1.811542 -1.34261,-0.282654 -2.68725,-0.551629 -4.02202,-0.871196 -1.51432,-0.387599 -3.059,-0.562607 -4.61452,-0.667253 -0.30256,-0.0043 -0.60509,-0.01053 -0.90767,-0.01304 -0.002,-1.8e-5 -1.85679,-0.01336 -1.84064,0.02413 0.12537,0.290955 0.6338,0.02633 0.95035,0.01336 0.3096,-0.01267 -0.61962,-0.01035 -0.92945,-0.01421 -0.30373,-0.0038 -0.60748,-0.0058 -0.91122,-0.0087 -2.2117,-0.0013 -4.42177,0.0046 -6.6337,-0.01347 -1.32079,-0.107759 -2.64603,-0.120192 -3.96905,-0.180692 -0.17532,-0.01003 -0.70094,-0.01537 -0.52595,-0.03007 0.39856,-0.03345 0.80016,-0.0057 1.19957,-0.02647 0.16657,-0.0087 -0.33349,-0.0091 -0.50028,-0.0099 -1.08803,-0.0055 0.0836,0.01251 -1.02798,0.01971 -0.75386,0.0049 -1.50776,0.0021 -2.26163,0.0032 -1.13476,-0.104071 -2.25447,-0.342588 -3.37002,-0.570955 -0.70186,-0.130035 -1.39734,-0.279781 -2.11376,-0.264081 -0.70905,-0.02432 -1.41397,-0.109056 -2.11766,-0.194738 -0.97869,-0.15049 -1.96611,-0.213188 -2.9552,-0.235712 -0.85862,-0.06609 -1.72513,-0.111033 -2.55724,-0.349652 -0.0597,-0.0114 -0.23983,-0.03118 -0.17912,-0.03424 0.47268,-0.02384 1.89046,0.01892 1.41955,-0.02834 -0.82435,-0.08274 -1.77101,-0.04256 -2.62209,0.05463 -0.98486,0.134961 -1.96263,0.104277 -2.94455,-0.0258 -0.81372,-0.269301 -3.05008,-0.288528 -0.27021,-0.304414 -0.55764,-0.09304 -1.11661,0.01286 -1.67701,-0.01011 -0.11134,0.0026 -0.22266,0.0076 -0.33403,0.0076 -0.60719,1.61e-4 -1.21441,-2.65e-4 -1.82156,-0.007 -0.20219,-0.0021 -0.40394,-0.02005 -0.60606,-0.02582 -0.095,-0.0027 -0.37988,-0.0053 -0.2849,-0.0071 0.44465,-0.0084 0.88942,-0.0084 1.33413,-0.01262 -0.57541,-0.0655 -1.13308,0.161017 -1.68902,0.277077 -1.12506,0.230624 -2.28303,0.126793 -3.42133,0.09995 -0.6954,-0.331258 -0.16797,-0.0021 -0.0927,2.65e-4 1.40478,0.04763 1.91046,-0.164518 1.25186,0.06501 -0.49956,0.218091 -0.89843,-1.93e-4 -1.36806,-0.123399 -0.29073,-0.168846 -0.652,-0.296743 -0.90002,-0.546687 -0.0937,-0.09442 -0.13689,-0.234103 -0.2385,-0.319953 -0.29021,-0.245184 -0.61752,-0.442748 -0.92627,-0.664125 -0.009,0.01553 -0.22905,-0.118192 -0.2196,-0.133721 v 0 c -0.26777,-0.275153 -0.59313,-0.504163 -0.80332,-0.825465 -0.0896,-0.137028 -0.0366,-0.325438 -0.0559,-0.488037 -0.0657,-0.553273 -0.003,-0.96437 0.48671,-1.315136 0.6051,-0.383825 1.07992,-0.93514 1.86619,-0.909571 0.7796,-0.04577 1.45925,-0.08832 2.2868,-0.07446 0.1553,0.0026 0.35192,0.233246 0.45172,0.114242 0.0426,-0.05076 -0.11914,-0.05794 -0.17871,-0.08691 -2.07292,-0.04513 -1.74199,0.01191 -0.65675,-0.282059 0.83412,-0.185803 1.67567,-0.337733 2.51281,-0.510963 0.63373,-0.01241 1.26743,-0.0263 1.90119,-0.03722 0.59103,-0.01019 -0.008,0.0096 0.5828,-0.0029 0.0975,-0.0021 0.38982,-0.0086 0.29233,-0.01003 -3.05648,-0.04473 -1.19713,-0.0031 -0.92306,0.0033 0.55317,-0.04294 1.11105,0.01463 1.65774,-0.116605 1.29047,-0.0085 2.58061,-0.02357 3.8708,-0.03528 0.86474,-0.01209 1.72453,0.01445 2.58255,0.136552 0.19001,0.02763 0.37268,0.05673 0.56332,0.07581 0.0621,0.0062 0.24927,0.01304 0.18683,0.01341 -0.46692,0.0029 -1.86584,0.03558 -1.40077,-0.006 0.60907,-0.05446 1.22294,-0.01577 1.8342,-0.03275 0.10403,-0.0029 0.20737,-0.01791 0.31106,-0.02687 0.99601,-0.1422 2.00206,-0.134175 3.00181,-0.02476 1.01335,0.145415 2.0051,0.359775 2.99113,0.633339 0.55773,0.06773 1.11783,-0.02429 1.67835,-0.0013 1.01625,0.06486 2.03227,0.170942 3.02746,0.393869 0.78338,0.148619 1.55661,0.286996 2.35679,0.177229 -0.40808,0.0027 -0.81618,0.0026 -1.22423,0.0081 -0.50939,0.007 0.52869,0.0078 1.02901,-0.0083 2.232,-0.07169 -3.78262,0.04289 2.78048,-0.0581 0.2009,-0.0045 0.40142,-0.01947 0.60214,-0.02921 1.33242,-0.0268 2.66227,0.06461 3.99464,0.03725 -0.36443,-0.0027 -0.72928,0.0093 -1.09331,-0.008 -0.22496,-0.01069 0.45034,-0.0083 0.67552,-0.01183 1.03977,-0.01609 2.07559,-0.09495 3.10688,-0.233667 2.82946,-0.275418 5.71424,-0.351134 8.50391,0.273847 1.57417,0.359293 3.10364,0.874627 4.68573,1.199247 1.59826,0.256511 3.21404,0.451681 4.75899,0.958842 0.77931,0.289754 1.32397,0.463177 2.06295,0.856809 1.28596,0.684987 2.41415,1.622028 3.48007,2.604423 0.99254,0.955648 1.94836,1.961668 3.10359,2.726939 1.10056,0.738468 2.24867,1.368811 3.48454,1.858031 1.61874,0.764455 3.21128,1.607725 4.57534,2.783715 1.11675,0.943391 2.21154,1.913909 3.20815,2.985725 0.91752,0.920867 1.90307,1.777035 2.74066,2.774098 0.84384,1.078045 1.5964,2.209642 2.21215,3.43544 0.60958,1.134116 1.22314,2.266598 1.76777,3.434093 0.68553,1.646259 1.14324,3.366707 1.20711,5.158904 0.0649,1.778471 0.0728,3.558331 0.11788,5.337376 0.0689,1.977864 0.14326,3.955635 0.1806,5.934327 0.004,2.13424 -0.10884,4.26344 -0.16856,6.39627 -0.005,1.96426 0.0296,3.92856 0.0719,5.89225 0.0734,2.17264 0.20173,4.3473 0.0898,6.52118 -0.13747,2.11193 -0.43722,4.21007 -0.99894,6.25461 -0.47087,1.90382 -0.89159,3.82038 -1.23491,5.75153 -0.33656,1.90149 -0.66558,3.82102 -1.37375,5.62716 -0.69042,1.58171 -1.53595,3.07833 -2.58286,4.45483 -0.91043,1.2137 -1.86555,2.39634 -2.95175,3.45933 -0.9067,0.78465 -1.84723,1.57323 -2.99415,1.97586 -1.21902,0.40329 -2.47277,0.70648 -3.7667,0.67725 -1.24303,0.0138 -2.48611,0.0525 -3.7195,0.22196 -1.26036,0.0972 -2.4656,0.1101 -3.74292,0.0931 -0.27197,-0.004 0.55194,0.0498 0.81583,-0.0161 0.41751,-0.10428 -1.67719,0.0632 -1.2891,-0.07 -1.53214,-0.10059 -3.03918,0.007 -4.57444,0.0771 0.32626,0.0184 0.67172,-0.0565 0.97877,0.0553 0.19148,0.0697 -0.40418,0.0524 -0.60602,0.0804 -1.20452,0.16728 -2.40334,0.38372 -3.61774,0.47146 -1.49067,0.13677 -3.01021,0.28096 -4.49276,-0.007 -0.807,-0.0138 -1.51287,0.42728 -2.31051,0.51016 -0.90283,0.14251 -1.81443,0.22511 -2.70895,0.41121 -1.349,0.35609 -2.70116,0.71686 -4.09042,0.87945 -1.55093,0.19355 -3.0892,0.4542 -4.62883,0.72175 -1.26375,0.18072 -2.48743,0.50858 -3.73454,0.77466 -1.15264,0.21531 -2.31712,0.29968 -3.4783,0.44717 -1.96366,0.42058 -3.8518,1.09973 -5.81487,1.52692 -2.57074,0.50796 -5.17729,0.81802 -7.79669,0.92332 -2.2179,0.12494 -4.43217,0.0437 -6.65133,-0.0106 -2.55149,0.0474 -5.08545,0.38859 -7.64133,0.29761 -2.67652,-0.0859 -5.34497,-0.30395 -7.99972,-0.66091 -2.80447,-0.36931 -5.60743,-0.77191 -8.36461,-1.41565 -2.39918,-0.59083 -4.78228,-1.26976 -7.03596,-2.29952 -2.03706,-0.89945 -4.06974,-1.81045 -6.095,-2.73582 -1.64898,-0.85964 -3.27042,-1.79015 -4.54812,-3.17025 -0.95548,-1.07842 -1.862596,-2.19401 -2.638564,-3.41144 -0.834448,-1.2971 -1.700064,-2.57198 -2.56333,-3.84998 -0.946656,-1.49767 -1.801091,-3.04587 -2.231827,-4.78101 -0.433914,-1.68704 -0.784439,-3.39378 -1.051322,-5.11548 -0.32634,-1.92669 -0.599757,-3.86024 -0.696198,-5.81436 -0.234275,-2.7475 -0.460142,-5.49633 -0.375478,-8.25784 0.06785,-3.46309 0.129426,-6.93645 0.500758,-10.38248 0.329205,-2.62055 0.773861,-5.226967 1.459688,-7.780476 0.746241,-2.768992 1.641478,-5.492957 2.62959,-8.185126 0.983973,-2.845221 1.965587,-5.71173 3.46859,-8.335137 1.634023,-2.783986 3.396783,-5.488443 5.161573,-8.190889 1.92254,-2.83732 3.98305,-5.606873 7.02581,-7.334737 1.28762,-0.665361 1.54889,-0.843573 2.8982,-1.369298 1.74987,-0.681789 3.58135,-1.106699 5.41247,-1.502386 2.2369,-0.472699 4.50222,-0.816692 6.68499,-1.521846 2.81627,-0.615633 5.99087,-1.169369 8.72235,0.03289 0.30788,0.0871 -0.92394,4.441147 -1.23182,4.354044 z"
       inkscape:connector-curvature="0" />
    <path
       style="fill:#000000;fill-opacity:1;stroke:none;stroke-width:0.26458332;stroke-opacity:1"
       id="path918"
       d="m 182.77461,61.359975 c -1.64052,-1.731187 -2.38708,-4.042984 -3.09793,-6.267754 -0.31865,-0.830958 -0.5388,-1.709529 -0.97421,-2.492859 -0.33795,-0.607976 -0.7689,-1.198796 -1.16418,-1.770952 -1.13494,-1.396529 -2.13842,-2.883445 -3.06562,-4.424074 -0.79631,-1.355984 -1.38872,-2.857772 -2.48562,-4.008162 -0.67255,-0.626047 -1.5081,-1.028901 -2.29886,-1.482826 -1.4919,-0.889582 -2.82029,-2.023057 -4.1225,-3.165234 -1.11259,-1.064389 -2.27777,-2.053172 -3.65252,-2.75781 -0.16801,-0.06275 -0.33159,-0.138972 -0.50403,-0.18824 -0.57235,-0.163518 -1.19265,-0.201237 -1.77398,-0.329039 -0.69227,-0.152188 -0.95949,-0.236942 -1.65424,-0.42967 -1.65878,-0.534805 -3.28647,-1.153155 -4.97107,-1.60469 -1.53579,-0.335002 -3.10924,-0.447828 -4.67374,-0.563515 -1.69119,-0.04373 -3.35238,-0.350186 -5.00853,-0.66657 -1.7332,-0.32915 -3.50406,-0.341699 -5.26017,-0.435954 -1.96971,-0.0777 -3.93009,-0.267025 -5.88949,-0.473668 -1.96096,-0.198657 -3.93011,-0.214201 -5.89857,-0.235013 -2.49215,-0.0054 -4.9771,-0.178017 -7.465,-0.29732 -0.36816,-0.009 -0.7379,0.0082 -1.10447,-0.02714 -0.25253,-0.02437 1.01479,-0.0069 0.76109,-0.006 -1.56243,0.0056 -3.12462,0.05114 -4.68678,0.07951 -1.83082,0.0298 -3.6633,0.01101 -5.49411,-0.0048 -0.38723,-0.0033 -0.77615,0.01572 -1.16151,-0.02233 -0.24708,-0.02439 0.99243,-0.0042 0.74459,-0.01884 -0.34122,-0.02019 -0.68363,0.0016 -1.02545,0.0021 -1.95458,-5.29e-4 -3.88541,0.325687 -5.81066,0.625105 -1.976937,0.316169 -3.964048,0.555194 -5.952162,0.786725 -2.132396,0.157475 -4.244538,0.490308 -6.335604,0.929048 -1.785281,0.378523 -3.55311,0.831336 -5.310896,1.320392 -1.447295,0.404278 -2.83623,0.979511 -4.248134,1.488747 -0.250534,0.09127 -0.496779,0.195315 -0.751602,0.273823 -0.252537,0.0778 -0.517885,0.110783 -0.768522,0.194505 -0.960726,0.320916 -1.792372,0.929347 -2.60658,1.511658 -1.047708,0.715123 -1.600279,1.233037 -2.268572,2.287865 -0.808344,1.437772 -1.799238,2.750928 -2.874462,3.997005 -1.457574,1.78698 -3.120202,3.385833 -4.807508,4.951574 -1.34656,1.16106 -2.765994,2.2299 -3.943723,3.56907 -1.200277,1.545466 -2.329929,3.147092 -3.469852,4.737946 -1.217253,1.633215 -2.214936,3.409884 -3.076125,5.251659 -0.937832,2.117125 -1.859815,4.241504 -2.718845,6.391908 -1.090308,3.153579 -2.392738,6.22088 -3.820658,9.234455 -1.433843,3.002765 -2.637062,6.104017 -3.516569,9.31286 -0.667266,2.392061 -0.57409,4.856903 -0.437382,7.30627 0.188989,2.566178 -0.05322,5.127353 -0.163029,7.68923 -0.03163,2.65661 -0.10741,5.31247 -0.140972,7.96908 -0.01667,2.87846 0.146759,5.75201 0.14928,8.63084 -0.02955,2.97215 -0.131871,5.9378 0.299024,8.88589 0.507,2.52671 1.181878,5.01187 1.638565,7.54962 0.372189,2.326 0.38467,4.68317 0.48433,7.03015 0.179618,2.16959 0.3502,4.33839 0.450565,6.51327 0.104028,2.40909 0.03826,4.82025 -0.04749,7.2286 -0.203303,1.76256 0.09505,3.43909 0.554966,5.12846 0.724194,2.07816 1.215168,4.21807 1.59571,6.3821 0.317905,2.2728 0.430128,4.57169 0.500835,6.86408 0.05987,1.74155 0.08943,3.48373 0.187867,5.22371 0.16454,1.96189 0.247949,3.92609 0.252476,5.89451 -0.04509,1.8999 -0.176966,3.7963 -0.193391,5.69686 0.0145,1.87805 0.09272,3.75536 0.164401,5.632 0.107982,1.79944 0.419034,3.576 0.662355,5.35972 0.399119,2.22089 0.521925,4.46515 0.450588,6.71635 -0.04748,0.61683 -0.07039,1.03271 -0.146999,1.63113 -0.05079,0.3967 -0.09153,0.88917 -0.229643,0.76566 0.172233,0.68878 0.228116,1.44225 -0.289809,2.01276 -0.164475,0.18118 -0.386932,0.29966 -0.580398,0.44949 -0.0045,0.19036 -2.696553,0.12601 -2.692005,-0.0643 v 0 c -0.275447,-0.11735 -0.587486,-0.33642 -0.916154,-0.23966 -0.332418,0.0979 -0.115274,0.59184 -0.580338,-0.11551 -0.735253,-1.37114 -1.194159,-2.83663 -1.27391,-4.4013 -0.09078,-1.9863 0.01344,-3.97741 -0.161504,-5.95894 -0.317072,-1.97227 -0.800053,-3.9223 -0.904142,-5.9245 -0.08563,-1.948 0.01365,-3.89156 0.0085,-5.84039 -0.03224,-1.93859 -0.150738,-3.87578 -0.11829,-5.81538 0.06549,-1.8105 0.246092,-3.61899 0.20624,-5.43087 -0.145497,-1.76704 -0.539692,-3.49731 -0.672359,-5.2663 -0.171111,-2.08516 -0.20992,-4.18171 -0.510228,-6.25532 -0.295436,-1.99549 -0.761656,-3.95086 -1.274252,-5.90136 -0.543993,-2.17706 -1.037674,-4.37855 -1.035219,-6.63644 -0.0078,-2.3342 0.07763,-4.6649 0.161602,-6.99727 0.003,-2.10657 -0.181951,-4.20053 -0.394179,-6.29546 -0.164274,-2.06611 -0.134006,-4.15168 -0.4533,-6.2006 -0.649623,-2.63375 -1.835245,-5.11301 -2.259679,-7.80955 -0.495781,-3.28391 -0.611502,-6.58904 -0.437076,-9.90717 0.08911,-2.84496 0.294802,-5.68877 0.200597,-8.53667 -0.0329,-2.81412 -0.110019,-5.63602 0.243737,-8.43627 0.25569,-2.242635 0.544986,-4.50155 0.231875,-6.755885 -0.308141,-3.077363 -0.611999,-6.181471 -0.06966,-9.255146 0.310465,-1.511599 0.407471,-2.164582 0.865208,-3.651739 0.751639,-2.442009 1.811513,-4.783497 2.89841,-7.089809 1.475904,-2.95973 3.055012,-5.867421 4.651822,-8.763307 1.086729,-2.086864 2.064216,-4.220221 3.018581,-6.370386 1.030222,-2.117521 2.161133,-4.177215 3.534842,-6.095873 1.269341,-1.79056 2.592154,-3.541379 4.066532,-5.170824 1.282707,-1.332801 2.565881,-2.664224 3.807618,-4.035483 1.583672,-1.615093 3.212767,-3.181514 4.931662,-4.653438 0.921988,-0.829927 1.967375,-1.593991 2.583333,-2.693541 0.805492,-1.500113 1.559369,-3.054339 2.845943,-4.215238 1.672762,-1.45782 3.591171,-2.668016 5.718109,-3.337565 1.382318,-0.366586 2.78761,-0.668232 4.086121,-1.287582 1.808031,-0.810945 3.584491,-1.711271 5.487284,-2.287049 2.435241,-0.669289 4.908386,-1.089563 7.444801,-1.037245 1.792396,-0.0089 3.560455,-0.210472 5.306226,-0.631476 2.169337,-0.428478 4.339637,-0.893882 6.545357,-1.089992 4.15526,-0.263306 4.24736,-0.05492 7.01248,-0.160271 3.0033,-0.03115 6.00568,-0.112711 9.00936,-0.112939 2.55761,0.0034 5.10929,0.115133 7.64528,0.469308 1.97284,0.217594 3.95169,0.356405 5.93048,0.508202 1.99639,0.09372 3.99866,0.07827 5.98892,0.283963 1.90236,0.207699 3.77163,0.579096 5.63882,0.994048 1.49082,0.230818 2.99778,0.198423 4.50068,0.295194 2.02109,0.1429 4.03148,0.409055 5.95541,1.079181 1.58037,0.54274 3.11621,1.215218 4.73331,1.647097 1.76267,0.479949 3.56475,0.878687 5.15429,1.826374 1.6914,1.035529 3.17489,2.331503 4.56087,3.749159 0.9453,0.944293 1.83234,1.971741 2.94752,2.723488 1.26381,0.827487 2.58905,1.594361 3.5461,2.797559 1.12692,1.49052 2.07613,3.090257 2.94295,4.744868 0.84022,1.480386 1.71563,2.937701 2.61639,4.382299 1.04371,1.703099 1.92905,3.494442 2.63938,5.363991 0.82341,2.100521 1.67189,4.289702 1.56393,6.583277 0.10229,0.313444 -4.33048,1.760083 -4.43277,1.446639 z"
       inkscape:connector-curvature="0" />
    <path
       style="fill:#000000;fill-opacity:1;stroke:none;stroke-width:0.26458332;stroke-opacity:1"
       id="path920"
       d="m 50.421801,209.51664 c 0.04592,0.29492 0.113213,0.5873 0.137748,0.88477 0.0577,0.69951 0.01262,1.64247 -0.0029,2.33397 -0.02771,1.23934 -0.03352,2.47067 0.0013,3.70982 0.175948,2.71964 0.865852,5.36611 1.48472,8.00965 0.704122,3.02286 1.69985,5.96149 2.915309,8.81388 1.022805,2.4293 2.634742,4.51471 4.241051,6.5768 1.581846,1.9843 3.121049,4.00274 4.834094,5.87706 1.082976,1.05687 2.232691,2.17343 3.664738,2.74532 0.265271,0.10594 0.544473,0.17295 0.81671,0.25942 2.140686,0.4843 4.363345,0.5351 6.549793,0.48107 -0.116322,-0.005 -0.465127,-0.008 -0.348962,-0.0161 1.452605,-0.10091 0.777581,0.0406 2.205791,-0.1198 1.141312,-0.12816 2.261296,-0.38821 3.379092,-0.6421 2.361459,-0.562 4.739354,-1.04761 7.121012,-1.51484 1.573479,-0.31028 3.155809,-0.57605 4.615203,-1.26198 1.428467,-0.72791 2.780671,-1.59115 4.119806,-2.4698 1.48231,-0.88965 2.423134,-2.23104 3.273341,-3.69282 1.116233,-2.08699 2.431093,-4.05274 3.721213,-6.03317 1.19748,-1.78355 1.68919,-3.15587 1.71768,-5.29394 -0.21492,-3.13101 -0.5267,-6.25096 -0.63084,-9.38905 -0.11993,-3.13707 0.3204,-6.25266 0.42533,-9.38007 -0.10023,-2.58241 -1.02747,-5.02538 -1.70099,-7.49485 -0.82147,-3.06002 -0.95804,-6.223 -0.90611,-9.37249 0.0935,-2.30726 -0.0408,-4.60765 -0.51062,-6.86839 -0.48811,-2.0173 -0.91962,-4.04786 -1.25188,-6.09666 -0.314122,-1.84651 -0.424152,-3.71726 -0.546405,-5.58357 -0.09454,-1.42794 -0.229957,-2.85043 -0.23096,-4.28247 -0.0096,-1.19072 -0.03463,-2.38108 -0.03791,-3.57183 -0.02326,-1.14132 0.0088,-2.27998 0.09263,-3.41795 0.0532,-1.01642 0.127985,-2.0262 0.268735,-3.03459 0.16309,-0.82621 0.31697,-1.64705 0.33002,-2.48981 -0.0522,-0.89007 -0.0952,-1.77881 -0.0962,-2.6705 0.0301,-0.76668 0.0918,-1.52884 0.0713,-2.29631 -0.0661,-0.64079 -0.23752,-1.26491 -0.379313,-1.89201 -0.04107,-0.40661 -0.217651,-0.70926 -0.415044,-1.05365 -0.450995,-0.944 -0.624792,-1.95316 -0.495871,-2.98728 0.174585,-0.65017 0.09103,-0.0761 0.238466,0.32665 0.240379,0.65658 0.311341,0.67944 0.68494,1.09068 -0.576186,-0.56261 -0.987176,-1.36741 -0.833707,-2.17777 0.269391,-0.56539 0.795724,-0.63307 1.359689,-0.73499 0.02,-0.13842 1.9776,0.14429 1.95761,0.28272 v 0 c 0.44921,-0.0151 0.90475,-0.0552 1.35149,0.0154 0.39558,0.0502 -0.35032,-0.87159 -0.53903,-1.11077 0.70967,0.71706 0.99959,1.59899 1.07628,2.58461 0.0103,0.0679 0.0529,0.57562 -0.0205,0.45398 0.3693,0.62406 0.78569,1.22525 1.04854,1.90621 0.39182,1.08825 0.60883,2.21874 0.53314,3.38137 -0.0416,0.6979 -0.0599,1.39563 -0.001,2.09364 0.0504,0.91634 0.15852,1.82876 0.19015,2.74632 0.0269,1.1783 -0.0293,2.36495 -0.41059,3.4915 -0.20882,0.69116 -0.28504,1.34123 -0.152,2.06433 0.0878,1.16494 0.10778,2.33045 0.0432,3.49789 -0.0342,1.08755 -0.0884,2.17822 0.0235,3.2635 0.15149,1.34903 0.40658,2.68364 0.56119,4.03253 0.2124,1.7367 0.44079,3.47143 0.70854,5.20057 0.32208,1.96349 0.88081,3.85602 1.45568,5.75932 0.60887,2.66357 0.94848,5.35421 0.84457,8.09378 0.0338,2.65584 0.24521,5.2926 0.96746,7.86407 0.70583,2.94627 1.34272,5.92289 1.34405,8.96955 0.11658,3.10822 0.39037,6.21124 0.34909,9.32501 -0.0348,3.30049 -0.0825,6.60616 -0.29257,9.9003 -0.15645,1.25652 -0.17154,1.70525 -0.48067,2.92343 -0.43278,1.70546 -1.19683,3.29078 -2.10548,4.79046 -1.23464,2.03254 -2.49557,4.04869 -3.76953,6.05672 -1.36268,1.98243 -2.85224,3.85587 -4.90996,5.16533 -1.56237,0.99511 -3.185959,1.89204 -4.858914,2.68823 -1.672754,0.73364 -3.353448,1.45518 -5.09714,2.00686 -2.387825,0.80174 -4.821928,1.44114 -7.309651,1.85185 -3.081391,0.54582 -6.171692,1.11217 -9.319146,0.9802 -2.789312,-0.12376 -5.552541,-0.47185 -8.102032,-1.6982 -2.196046,-1.12556 -4.272729,-2.44788 -5.990312,-4.24541 -1.868336,-1.94624 -3.592811,-4.01235 -5.224264,-6.16152 -1.853803,-2.38916 -3.68355,-4.81324 -5.031028,-7.53511 -0.635473,-1.34954 -0.891103,-1.81398 -1.405927,-3.2315 -0.803648,-2.21275 -1.256379,-4.52514 -1.565984,-6.85361 -0.384503,-2.96798 -0.697849,-5.96023 -0.565605,-8.9573 0.13553,-2.55031 0.28284,-5.25568 1.644991,-7.49067 0.04413,-0.22413 3.213762,0.40001 3.169627,0.62413 z"
       inkscape:connector-curvature="0" />
    <path
       style="fill:#000000;fill-opacity:1;stroke:none;stroke-width:0.26458332;stroke-opacity:1"
       id="path922"
       d="m 160.50454,169.73647 c -1.48442,0.82853 -3.16502,1.19647 -4.76653,1.72681 -1.06985,0.35429 -1.58134,0.56816 -2.61953,0.97227 -1.65536,0.73108 -2.98505,1.53024 -3.79204,3.18494 -0.47484,1.15782 -0.8017,2.3819 -0.99739,3.61768 -0.0157,0.53773 -0.21808,0.58923 0.24605,0.80927 0.27526,0.1305 0.53716,0.28749 0.80579,0.43116 1.50768,0.81724 3.16311,0.98063 4.84615,0.95085 0.37527,-0.0328 0.75053,-0.0655 1.1258,-0.0983 -0.0777,-0.0346 -0.31623,-0.0856 -0.23315,-0.10392 0.4369,-0.0965 0.89109,-0.0835 1.33501,-0.13942 1.35633,-0.17077 2.68736,-0.44327 4.02159,-0.73483 1.71464,-0.42692 3.45389,-0.90467 4.97567,-1.82911 0.39812,-0.26734 0.74976,-0.58735 0.89764,-1.05209 0.23247,-0.77009 0.46159,-1.54194 0.72177,-2.30324 0.37938,-0.93148 0.88026,-2.06076 1.93639,-2.38124 0.26427,-0.0802 0.54646,-0.0804 0.81969,-0.12054 0.34807,0.13693 0.69613,0.27386 1.0442,0.41078 0.0653,-0.0482 0.74753,0.87477 0.68226,0.92301 v 0 c 0.16681,0.22641 0.33363,0.45282 0.50045,0.67923 0.0816,0.11986 0.18911,0.2257 0.24476,0.3596 0.24617,0.59232 -0.42844,1.26061 -0.59743,1.77987 -0.29885,0.56011 -0.64919,1.10416 -0.87063,1.69932 -0.29224,1.11175 -0.58632,2.21383 -1.29419,3.15355 -0.49449,0.63726 -0.71276,0.96923 -1.3216,1.53114 -1.41684,1.30761 -3.15403,2.18289 -4.96748,2.79722 -0.53563,0.14663 -1.06554,0.31606 -1.6069,0.43988 -3.02658,0.69226 -6.21171,0.70981 -9.28509,0.42954 -2.58562,-0.45625 -4.94656,-1.18224 -6.85127,-3.09112 -1.27375,-1.48123 -1.91689,-2.68523 -2.04944,-4.6599 -0.0832,-1.81799 0.20178,-3.5973 0.79619,-5.32114 0.34834,-0.8558 0.5394,-1.41168 1.01458,-2.21712 1.03912,-1.76135 2.50679,-3.17758 4.2611,-4.22018 0.52729,-0.27551 1.03769,-0.58608 1.58186,-0.82653 2.5115,-1.10973 5.36149,-1.64504 8.06502,-1.04263 0.30018,-0.0941 1.63088,4.15109 1.3307,4.24518 z"
       inkscape:connector-curvature="0" />
    <path
       style="fill:#000000;fill-opacity:1;stroke:none;stroke-width:0.26458332;stroke-opacity:1"
       id="path924"
       d="m 169.39745,170.85003 c 2.47529,1.21957 4.42645,3.25305 6.42817,5.10947 1.37258,1.22571 2.12657,1.83936 3.96455,1.93626 0.21662,-0.003 0.43362,0.005 0.64987,-0.008 1.45642,-0.0873 0.0143,-0.0738 1.48793,-0.11842 0.7763,-0.0235 1.54685,0.0282 2.32038,0.0841 1.19695,0.0345 2.35243,0.34007 3.50396,0.63657 0.15054,0.0283 0.29959,0.0663 0.45163,0.085 0.50462,0.062 0.9476,-0.002 1.44497,-0.0665 0.17211,-0.0224 0.67001,0.0385 0.51862,-0.0464 -0.19048,-0.10678 -0.43628,-0.0198 -0.65441,-0.0298 0.45347,0.061 1.72095,-0.11253 2.05637,0.20305 -0.64801,0.66883 -0.0399,-5.3e-4 0.16225,-0.26915 0.3886,-0.4433 0.69103,-0.95004 1.03668,-1.42624 0.59687,-0.8474 1.24343,-1.65756 1.91102,-2.44966 0.50949,-0.61252 0.98861,-1.24879 1.3473,-1.96209 0.3411,-0.61562 0.54672,-1.36332 1.04867,-1.87575 0.38586,-0.34244 0.25196,-0.39733 0.33901,-0.8303 0.24233,-0.79502 0.5119,-1.57663 0.67678,-2.39214 0.17183,-0.98986 0.42223,-1.96906 0.51161,-2.97083 -0.0665,-1.37639 -0.19856,-2.7518 -0.30096,-4.12713 -0.15503,-1.86545 -0.11164,-3.73724 -0.15492,-5.60619 -0.007,-1.08564 -0.34125,-2.10658 -0.71017,-3.11389 -0.51953,-1.40399 -0.93382,-2.84384 -1.22147,-4.31261 -0.14796,-0.49602 -0.11599,-1.01687 -0.14123,-1.51799 -0.0209,-0.0594 -0.0318,-0.12334 -0.0626,-0.17831 -0.0122,-0.0218 0.0254,0.0888 0.005,0.0748 -0.27357,-0.18374 -0.42779,-0.67865 -0.55153,-0.95777 -0.69515,-2.2338 0.14383,-1.28715 3.60039,-1.71865 0.0496,0.16683 -2.3098,0.86772 -2.35936,0.70089 v 0 c 1.21511,-0.30952 2.44075,-0.5803 3.64533,-0.92855 0.0686,-0.0198 0.001,-0.27621 0.12898,-0.009 0.0346,0.0724 0.0542,0.15126 0.0911,0.22269 0.078,0.24395 0.12991,0.52181 0.28665,0.7213 0.5664,0.6379 0.92674,1.46064 1.25869,2.23362 0.49274,1.38715 0.81523,2.81693 1.06102,4.2677 0.28688,1.33477 0.87315,2.57296 1.14166,3.91376 0.38158,2.05424 0.4228,4.12101 0.26285,6.20419 -0.10617,1.52663 -0.26509,3.04279 -0.50935,4.55244 -0.12158,1.29412 -0.18894,2.60214 -0.60938,3.84588 -0.35838,1.00958 -0.70571,2.07475 -1.4125,2.90213 -0.62999,0.63964 0.41036,-0.4332 -0.31781,0.38604 -0.0727,0.0817 -0.17645,0.0317 0.01,-0.084 0.0564,-0.035 0.0962,0.29574 0.0547,0.19155 -0.12843,0.90968 -0.48214,1.76546 -0.889,2.58449 -0.50885,0.89568 -1.13045,1.695 -1.75785,2.50915 -0.60229,0.88276 -1.19339,1.77331 -1.83856,2.62539 -0.69429,0.80918 -1.53208,1.8104 -2.64733,1.97705 -0.0894,-0.0118 -0.17389,-0.0581 -0.26407,-0.0588 -0.27586,-0.002 -0.77061,0.77186 -1.11544,0.75182 -0.80193,0.37281 -1.67107,0.49424 -2.55104,0.5302 -0.61535,-0.006 -1.23112,0.005 -1.84605,-0.0189 -0.9911,-0.0381 -1.92601,-0.4614 -2.89443,-0.63488 -1.02135,-0.14608 -2.05548,0.0124 -3.08234,-0.0798 -1.5532,-0.0353 -3.10074,-0.0932 -4.63753,-0.33951 -2.24585,-0.38782 -4.33734,-1.21359 -6.19577,-2.55665 -2.29965,-1.67608 -4.65055,-3.59223 -5.72103,-6.31365 -0.15895,-0.21499 2.88154,-2.46291 3.04049,-2.24792 z"
       inkscape:connector-curvature="0" />
    <path
       style="fill:#000000;fill-opacity:1;stroke:none;stroke-width:0.26458332;stroke-opacity:1"
       id="path926"
       d="m 185.62994,182.09171 c 1.56228,2.61218 2.02343,5.70292 2.54395,8.65731 0.093,1.29673 0.56086,2.55231 0.68612,3.84156 -1.07738,-1.27853 -4.33867,1.7907 -2.75498,0.26516 0.0384,-0.18882 2.70872,0.35417 2.67033,0.54299 v 0 c 0.0693,0.1476 0.3383,0.34475 0.20799,0.44279 -2.43667,1.83312 -2.35151,2.14016 -3.78128,0.90172 -1.27127,-1.36438 -2.18461,-2.97408 -2.82947,-4.72595 -1.01634,-2.97414 -1.84837,-6.14378 -1.28311,-9.29944 -0.0443,-0.32106 4.49618,-0.94719 4.54045,-0.62614 z"
       inkscape:connector-curvature="0" />
    <path
       style="fill:#000000;fill-opacity:1;stroke:none;stroke-width:0.26458332;stroke-opacity:1"
       id="path938"
       d="m 181.15705,194.99281 c 0.3515,-0.15577 0.68967,-0.34601 1.0545,-0.46732 2.37,-0.78806 5.43918,-0.78933 7.85141,-0.3601 0.5011,0.0892 0.9536,0.35619 1.43041,0.53428 0.41028,0.25617 0.85937,0.45872 1.23084,0.76849 1.88991,1.57604 2.18363,3.51072 2.07001,5.79898 -0.25392,1.4269 -0.50203,2.99112 -1.40246,4.18298 -0.24348,0.32229 -0.55393,0.58803 -0.83089,0.88204 -2.57191,1.83072 -5.78604,2.24867 -8.83968,2.64878 -3.25292,0.43336 -6.50675,0.0903 -9.74837,-0.22373 -1.87083,-0.24887 -3.7245,0.12239 -5.56823,0.39829 -2.69217,0.40496 -5.41511,0.48053 -8.13259,0.5005 -2.19976,-0.0311 -4.39653,-0.15682 -6.59284,0.01 -1.67873,0.19483 -3.33391,0.54813 -4.99306,0.86269 -1.57246,0.29303 -3.13849,0.57851 -4.68912,0.97321 -0.62223,0.23131 -1.31772,0.2564 -1.94314,0.43945 -0.17281,0.049 -0.53253,0.4204 -0.69456,0.26803 0.21097,-0.1743 0.19705,-1.16076 -0.0817,-1.13265 -0.0202,0.002 -0.3239,0.39732 -0.37196,0.45884 -0.29383,0.29986 -0.633,0.50218 -0.9978,0.70237 -0.0196,0.0933 -1.33852,-0.1844 -1.31889,-0.27766 v 0 c -0.24065,-0.27257 -0.4872,-0.53946 -0.65408,-0.8665 -0.64119,-0.4506 -0.54405,-1.36833 -0.16965,-1.97405 0.093,-0.29216 0.28923,-0.49204 0.49362,-0.71671 0.72191,-0.84679 1.57039,-1.54624 2.56929,-2.05286 1.72743,-0.81281 3.5521,-1.41279 5.46014,-1.60637 1.69453,-0.25532 3.37646,-0.55852 5.03562,-0.9947 2.35527,-0.52245 4.7327,-0.99672 7.15579,-1.0195 2.63846,0.008 5.27189,0.12343 7.90863,0.19936 1.95991,0.019 3.88958,-0.2124 5.80998,-0.60774 3.13826,-0.4309 6.29428,-0.6795 9.46404,-0.45146 1.70886,0.10293 3.41558,0.21717 5.12184,0.357 0.35692,0.0292 1.47536,0.10625 1.91998,0.20445 0.13696,0.0302 0.26209,0.1 0.39313,0.14996 0.1003,0.10954 0.20969,0.34984 0.34301,0.28439 0.3664,-0.17989 0.4014,-1.72193 0.57678,-2.09174 0.0166,-0.0658 0.37848,-1.41714 0.3275,-1.45932 -0.2288,-0.18927 -0.71348,0.1002 -0.87948,-0.14149 -0.33291,0.008 -0.66581,0.015 -0.99872,0.0226 0.0104,0.0183 0.0523,0.0541 0.0313,0.0549 -2.02199,0.0743 -4.08907,0.0348 -6.05425,-0.48526 -0.26672,0.0909 -1.55302,-3.681 -1.2863,-3.77195 z"
       inkscape:connector-curvature="0" />
    <path
       style="fill:#000000;fill-opacity:1;stroke:none;stroke-width:0.26458332;stroke-opacity:1"
       id="path942"
       d="m 179.89136,217.62225 c 1.63769,1.11472 2.65274,2.93315 4.2895,4.04767 0.21553,0.14675 0.46281,0.24033 0.69422,0.36049 0.23346,0.0333 1.15623,0.23092 1.37664,-0.0113 0.11192,-0.123 -0.61484,-0.0483 -0.47801,-0.14285 0.29072,-0.20084 0.69117,-0.14871 1.03248,-0.24019 0.90224,-0.24184 1.21098,-0.37636 2.08689,-0.69604 2.11346,-0.93892 2.91518,-2.02672 3.75794,-4.10759 0.48437,-1.50431 0.87978,-3.06458 0.8284,-4.65347 -0.0982,-0.80606 -0.0554,-1.68794 -0.40787,-2.4406 -0.16058,-0.34295 -0.40752,-0.62416 -0.63695,-0.91986 -0.65959,-0.76458 -1.34944,-1.50839 -2.11985,-2.16346 -0.0305,-0.027 -0.0627,-0.0522 -0.0915,-0.081 -0.009,-0.009 0.0199,0.0187 0.0326,0.0222 0.0793,0.0223 0.15868,0.0594 0.24086,0.0546 0.56747,-0.033 1.15198,-0.006 1.69705,-0.16722 0.48583,-0.14371 0.10953,-0.58949 0.0236,-0.74343 -0.0726,-0.16859 -0.14519,-0.33719 -0.21779,-0.50578 -0.144,0.15 -2.26532,-1.8865 -2.12132,-2.0365 v 0 c 0.0241,-0.24366 0.0482,-0.48733 0.0724,-0.73099 0.0263,-0.15553 -0.001,-0.33083 0.079,-0.46657 0.87238,-1.47395 3.27956,-0.61125 4.48762,-0.066 1.88313,1.07284 3.25656,2.48343 4.06587,4.5316 0.62266,1.8723 0.86965,3.62768 0.98186,5.58842 0.0462,2.3781 -0.19388,4.71165 -1.14214,6.92536 -0.21867,0.45398 -0.41256,0.92074 -0.656,1.36193 -1.33663,2.42238 -3.31057,4.34938 -5.83315,5.50676 -0.47994,0.18557 -0.94991,0.39936 -1.43983,0.55671 -2.88754,0.92737 -6.11859,1.05918 -8.96292,-0.0496 -0.49229,-0.26062 -1.00842,-0.48047 -1.47686,-0.78184 -1.77425,-1.14146 -3.29042,-2.90459 -4.02273,-4.8955 -0.13085,-0.35574 -0.18137,-0.73607 -0.27206,-1.1041 -0.13801,-0.29219 3.99415,-2.24407 4.13217,-1.95188 z"
       inkscape:connector-curvature="0" />
    <path
       style="fill:#000000;fill-opacity:1;stroke:none;stroke-width:0.26458332;stroke-opacity:1"
       id="path948"
       d="m 106.51733,238.50573 c 0.43903,0.12041 0.88433,0.21992 1.31708,0.36122 0.97706,0.31904 2.59885,0.99215 3.52462,1.34372 2.07895,0.78948 4.16162,1.4617 6.30334,2.05699 3.93931,1.0368 8.01579,0.84392 12.04407,0.89827 3.79442,0.0177 7.5886,0.059 11.38287,0.0899 3.40489,0.14918 6.80665,0.0544 10.21162,0.0111 -0.02,-0.0145 -0.0845,-0.0417 -0.0599,-0.0435 3.53071,-0.25643 -0.58964,0.14585 2.83926,-0.14207 1.36377,-0.11451 2.72131,-0.31356 4.07483,-0.51074 3.03394,-0.49837 6.1383,-0.71362 9.19619,-0.30155 1.19791,0.26104 2.3948,0.48673 3.61513,0.60005 -0.28943,0.0173 -0.58311,-5.3e-4 -0.86829,0.0518 -0.0833,0.0153 0.16541,0.0376 0.24641,0.0624 0.0638,0.024 0.12764,0.048 0.19145,0.0721 0.0333,0.0212 0.0629,0.0495 0.0998,0.0637 2.81497,1.08486 3.03113,1.79871 2.33249,0.44366 0.0483,-0.29952 -0.0261,-0.24918 0.32911,-0.35933 0.15289,-0.0474 0.59324,-0.008 0.46807,-0.1073 -0.1768,-0.14089 -0.65863,0.16723 -0.67573,-0.0582 -0.0169,-0.2225 0.44446,-0.0406 0.66701,-0.0567 0.23561,-0.0171 0.47158,-0.0287 0.70737,-0.0431 1.60807,-0.0196 3.21707,0.0233 4.8255,0.0438 0.67165,-0.0204 1.33762,-0.0998 2.0091,-0.12742 0.25426,-0.0104 0.51275,0.0236 0.7631,-0.0221 0.18876,-0.0344 -0.76596,-0.0349 -0.57545,-0.0121 0.22339,0.0267 0.44967,0.016 0.6745,0.024 0.19127,0.0184 1.63572,0.0133 1.61294,0.26871 -0.006,0.0644 -0.0575,0.11582 -0.0862,0.17373 -1.0055,1.41683 -0.43072,0.29598 0.29164,3.51444 0.0119,0.0529 -0.10287,-0.0357 -0.15032,-0.0619 -0.10339,-0.057 -0.258,-0.0652 -0.31019,-0.1711 -0.4117,-0.83556 -0.70007,-1.72644 -1.0501,-2.58966 -0.2719,-0.86298 -0.28601,-1.81612 -0.34199,-2.71542 -0.0562,-2.04918 0.0838,-4.10027 0.27797,-6.13932 0.1347,-1.76141 0.37149,-3.50959 0.91258,-5.19406 0.34856,-0.81095 0.70447,-1.59499 0.90804,-2.4542 0.1007,-0.63053 0.28928,-1.23858 0.49303,-1.84224 0.12226,-0.57592 0.6746,-0.91965 0.93212,-1.39896 0.7771,-0.27654 1.66368,0.0798 2.40207,0.28297 0.0223,-0.0279 0.4173,0.28773 0.39498,0.31566 v 0 c 0.88257,0.55699 1.97424,0.938 1.19238,2.08482 -0.42746,0.48734 -1.00597,1.10782 -0.3903,0.017 0.19325,-0.60649 0.0109,1.5576 -0.0724,1.56113 -0.2087,0.82436 -0.5511,1.60797 -0.71011,2.44294 -0.084,1.51867 0.10888,3.04372 -0.0102,4.5634 -0.10606,1.95376 -0.34744,3.8895 -0.66598,5.81993 -0.1144,1.28385 -0.16961,2.61441 -0.72546,3.8004 -0.38821,-0.73548 -0.74156,-1.49045 -1.16462,-2.20646 -0.0433,-0.0733 -0.16164,-0.0693 -0.21778,-0.13324 -0.0712,-0.0811 0.27976,-0.0579 0.32118,0.0418 0.40885,0.98426 0.8822,1.96825 1.04633,3.02133 0.0421,0.27002 -0.31386,0.44747 -0.4708,0.67121 -0.79356,0.84055 -1.81859,1.22699 -2.96047,1.36857 -1.87839,0.18303 -3.76192,0.0754 -5.62958,-0.1581 -0.16586,-0.004 -0.66339,-0.007 -0.49759,-0.013 0.2519,-0.01 0.50604,-0.0277 0.75622,0.003 0.15344,0.0189 -0.30848,0.0208 -0.46258,0.0331 -0.59131,0.0471 -1.17804,0.13077 -1.76999,0.17125 -1.91625,0.11398 -3.98536,0.38277 -5.69653,-0.65414 -0.26069,-0.25813 -1.14845,-0.75548 -0.78207,-0.77437 5.0533,-0.26071 1.3676,1.65809 0.19782,1.02055 -1.31917,0.0672 -2.64444,-0.008 -3.96102,0.13355 -0.31404,0.0206 -0.63405,-0.003 -0.94212,0.0617 -0.14438,0.0301 0.58585,0.0187 0.44037,0.043 -0.35724,0.0596 -0.72344,0.0375 -1.08461,0.0645 -1.24858,0.0933 -2.49545,0.23053 -3.72997,0.44104 -3.56227,0.62091 -7.11947,1.2795 -10.76114,1.01208 -2.39009,-0.0861 -4.7836,-0.34936 -7.17697,-0.29274 -0.0379,8e-4 0.0732,0.0199 0.10986,0.0299 -1.06603,0.0365 -1.91295,0.0524 -2.98271,0.14509 -2.68982,0.23307 -5.35617,0.70746 -8.05513,0.84795 -2.61234,0.0672 -4.40816,0.18159 -6.89941,0.0522 -3.53893,-0.18379 -7.04108,-0.7986 -10.40332,-1.93002 -0.80389,-0.31009 -1.62174,-0.5862 -2.41168,-0.93028 -2.63671,-1.14849 -5.33497,-2.71307 -7.26932,-4.88669 -0.28639,-0.32182 -0.50267,-0.69976 -0.75401,-1.04963 -0.19445,-0.18835 2.46917,-2.93828 2.66362,-2.74993 z"
       inkscape:connector-curvature="0" />
    <path
       style="fill:#000000;fill-opacity:1;stroke:none;stroke-width:0.26458332;stroke-opacity:1"
       id="path954"
       d="m 54.856808,143.4834 c 0.321577,-0.16182 0.629655,-0.35386 0.964729,-0.48548 2.840368,-1.11578 6.038133,-1.18039 9.043231,-1.23096 3.842845,-0.0125 7.679531,0.22834 11.514317,0.4477 0.305424,0.0179 2.361165,0.13305 2.71753,0.17332 0.07843,0.009 0.143793,0.0736 0.222329,0.0815 0.683903,0.069 1.387774,-0.01 2.056776,0.14834 0.810411,0.19123 1.157264,0.85134 1.617837,1.43942 0.09387,0.0517 -0.636974,1.37927 -0.730848,1.32759 v 0 c -3.664786,1.5627 1.888792,-0.78196 -1.861471,0.72218 -0.04616,0.0185 -0.06632,0.0901 -0.1159,0.094 -1.680557,0.13122 -3.378216,0.11515 -5.061334,0.20775 -3.013009,0.0439 -6.026182,-0.004 -9.037756,0.10082 -3.435006,0.11063 -6.97147,0.36548 -10.354787,-0.34025 -0.189923,0.0689 -1.164576,-2.61699 -0.974653,-2.68591 z"
       inkscape:connector-curvature="0" />
  </g>
</svg>
