<?xml version="1.0" encoding="UTF-8" standalone="no"?>
<!-- Created with Inkscape (http://www.inkscape.org/) -->

<svg
   xmlns:dc="http://purl.org/dc/elements/1.1/"
   xmlns:cc="http://creativecommons.org/ns#"
   xmlns:rdf="http://www.w3.org/1999/02/22-rdf-syntax-ns#"
   xmlns:svg="http://www.w3.org/2000/svg"
   xmlns="http://www.w3.org/2000/svg"
   xmlns:sodipodi="http://sodipodi.sourceforge.net/DTD/sodipodi-0.dtd"
   xmlns:inkscape="http://www.inkscape.org/namespaces/inkscape"
   width="1800"
   height="2000"
   viewBox="0 0 476.24999 529.16666"
   version="1.1"
   id="svg8"
   inkscape:version="0.92.4 (5da689c313, 2019-01-14)"
   sodipodi:docname="wounds.svg"
   inkscape:export-filename="C:\Users\panu-\PycharmProjects\nextgame\data\images\bodies\template.png"
   inkscape:export-xdpi="10.173375"
   inkscape:export-ydpi="10.173375">
  <defs
     id="defs2" />
  <sodipodi:namedview
     id="base"
     pagecolor="#ffffff"
     bordercolor="#666666"
     borderopacity="1.0"
     inkscape:pageopacity="0.0"
     inkscape:pageshadow="2"
     inkscape:zoom="0.24740773"
     inkscape:cx="-220.06564"
     inkscape:cy="848.31571"
     inkscape:document-units="mm"
     inkscape:current-layer="layer2"
     showgrid="true"
     units="px"
     width="1024px"
     inkscape:window-width="1920"
     inkscape:window-height="1017"
     inkscape:window-x="-8"
     inkscape:window-y="-8"
     inkscape:window-maximized="1"
     inkscape:pagecheckerboard="true"
     showguides="true"
     inkscape:snap-global="false">
    <inkscape:grid
       type="xygrid"
       id="grid1069"
       enabled="true"
       spacingx="47.624999"
       spacingy="21.166666"
       dotted="false"
       originy="1.3229166" />
  </sodipodi:namedview>
  <metadata
     id="metadata5">
    <rdf:RDF>
      <cc:Work
         rdf:about="">
        <dc:format>image/svg+xml</dc:format>
        <dc:type
           rdf:resource="http://purl.org/dc/dcmitype/StillImage" />
        <dc:title />
      </cc:Work>
    </rdf:RDF>
  </metadata>
  <g
     inkscape:groupmode="layer"
     id="layer1"
     inkscape:label="template"
     transform="translate(0,97.366667)"
     style="display:none;opacity:1"
     sodipodi:insensitive="true">
    <path
       style="fill:#666666;fill-opacity:1;stroke:none;stroke-width:0.25135416;stroke-opacity:1"
       id="path5855"
       d="m 81.488302,38.571517 c 0.08503,-2.343936 0.227173,-4.70853 0.647915,-7.019347 0.274514,-0.914477 0.528872,-1.89524 1.026571,-2.720227 0.02212,-0.01016 -0.06474,0.07652 -0.05904,0.05112 0.167929,-0.748647 0.395973,-1.501938 0.64702,-2.224913 0.325617,-0.951298 0.847157,-1.80266 1.356657,-2.661702 0.246241,-0.357804 0.201143,-0.954817 0.321047,-1.478815 0.209456,-0.927354 0.662393,-1.777738 1.02567,-2.652638 0.322307,-0.766186 0.694432,-1.508181 1.074703,-2.247356 0.360334,-0.692559 0.746366,-1.371903 1.124294,-2.056074 0.554978,-0.798771 1.040335,-1.638307 1.593692,-2.438186 0.549842,-0.833797 1.439751,-1.333502 2.2683,-1.658555 0.49421,-0.202863 0.931737,-0.806151 1.510347,-1.350617 1.085663,-0.7273082 2.32814,-1.0630822 3.615981,-1.2019126 0.496153,0.054823 1.11319,-0.087521 1.493543,-0.2360945 0.890358,-0.400925 1.783118,-0.7778883 2.711938,-1.0939612 0.79371,-0.069726 1.5498,-0.7383302 2.37872,-0.608267 1.48056,-0.5217258 2.90994,-0.5636668 4.47729,-0.5837801 0.2028,0.013473 0.40564,0.026377 0.6084,0.040433 1.18851,0.082394 0.34639,0.018148 -0.66302,0.045885 -0.0406,0.00101 0.0785,0.030286 0.11895,0.026749 0.17948,-0.01566 0.57483,-0.1624903 0.7011,-0.2043736 0.83621,-0.3916323 1.759,-0.2656486 2.61361,-0.5003154 1.58726,-0.5261797 3.24806,-0.4679108 4.89788,-0.3532933 0.68804,0.051518 1.3775,0.083339 2.06753,0.084428 0.15848,2.512e-4 0.6339,-7.542e-4 0.47544,-0.0035 -0.28146,-0.00503 -0.563,-0.00201 -0.84451,-0.00309 1.57423,-0.091392 3.09448,0.031248 4.66324,0.2054443 0.47213,0.1280523 0.87723,0.4993577 1.37461,0.5523834 0.0726,0.00774 0.14753,-0.03019 0.21857,-0.013447 0.37251,0.087828 0.72658,0.2417273 1.09495,0.3455769 0.37771,0.1787479 0.82147,0.015785 1.20545,0.087557 0.54624,0.1021127 1.07511,0.3601102 1.60823,0.5176287 -0.23956,0.099315 1.03439,-0.016263 0.77669,-0.045361 -0.31753,-0.035861 -1.27651,-0.060438 -0.95807,-0.033732 2.70976,0.2272393 1.31066,-0.051879 2.79047,0.2832686 0.60435,0.2791012 1.3126,0.1147331 1.93184,0.2472747 0.38749,0.082934 0.90358,0.3128153 1.27886,0.4683633 1.0713,0.2189295 1.80992,0.8915784 2.58205,1.6304867 0.0231,-0.015559 0.0463,-0.06221 0.0694,-0.046694 0.15599,0.1044954 0.27068,0.2615817 0.42045,0.3748221 0.0583,0.02511 0.11661,0.05024 0.17492,0.07535 0.0156,-0.03312 0.0123,-0.111946 0.0466,-0.09937 0.26084,0.09549 0.47674,0.290996 0.73587,0.391032 0.9658,0.37906 1.69379,1.163277 2.61423,1.618944 0.52637,0.44444 1.09683,0.845888 1.54938,1.369187 0.62358,0.721045 0.19845,0.379359 0.54105,0.641169 0.1952,0.265181 1.00562,1.288683 1.26941,1.350981 0.30386,0.382031 0.71382,0.673041 1.0529,1.006621 0.59131,0.581714 0.17742,0.340092 0.53468,0.530425 0.21823,0.273956 0.44756,0.55969 0.78225,0.701914 0.0528,0.02245 0.12199,-0.02061 0.17208,0.0074 0.58043,0.430034 0.31053,0.271237 0.78546,0.51541 0.50761,0.438326 1.04295,0.853906 1.47226,1.370877 0.53767,0.647454 0.18664,0.405332 0.5048,0.608261 0.33704,0.394802 0.64557,1.043526 1.24433,1.041639 1.25533,0.824899 1.79193,1.835903 2.32311,3.19043 0.0902,0.180538 0.32465,1.369156 0.44803,1.394954 0.0813,0.01699 -0.11581,-0.217485 -0.0379,-0.246318 0.0825,-0.03053 0.1191,0.129486 0.17865,0.194229 0.5491,0.730988 1.0003,1.5174 1.41323,2.342246 0.3182,-0.110309 0.94679,1.87573 1.10011,2.303271 0.13885,0.489433 0.32143,0.942189 0.55282,1.409467 0.008,0.01573 0.0397,-0.02818 0.0507,-0.01448 0.0754,0.09406 0.12419,0.206673 0.18629,0.31001 7.5e-4,-0.04556 -0.0373,-0.159019 0.002,-0.136697 0.41321,0.232179 1.20222,1.803323 1.38326,2.226028 0.34687,0.717938 0.68103,1.442821 0.95877,2.193633 0.21384,0.0906 0.42119,0.809353 0.48127,0.929224 0.15845,0.31615 0.37386,0.643494 0.52227,0.997639 0.27761,0.230337 0.38306,0.747058 0.52362,1.041723 0.16366,0.343063 0.35898,0.655388 0.50824,1.0321 0.25349,0.191761 -0.27644,-0.224886 0.26263,0.411909 0.0253,0.02981 -0.0191,-0.138289 0.0133,-0.116424 0.34412,0.232439 0.41269,0.725212 0.71124,1.003119 0.14559,0.262002 0.85924,1.120906 1.11916,1.148468 0.13161,0.138457 0.2521,0.288408 0.39482,0.415377 0.77743,0.691591 0.95598,1.116973 1.56974,1.931142 0.16646,-0.168166 1.00407,0.881765 0.97947,0.433475 1.08284,0.552489 1.75714,1.606563 2.34493,2.625804 0.0225,0.108919 0.77676,1.874031 0.82341,1.371464 0.10078,0.101633 0.18669,0.220575 0.30235,0.304899 0.0229,0.01664 0.058,-0.04223 0.0808,-0.0255 0.63665,0.467633 1.05473,1.266939 1.42265,1.95061 0.30248,0.479254 0.69437,0.671965 1.09423,1.094949 0.61524,0.104563 1.037,0.765139 1.66684,0.789413 0.0864,0.05323 0.61266,0.404069 0.81131,0.456738 0.0443,0.01174 0.0935,-0.04245 0.13527,-0.02375 0.28734,0.128466 0.63992,0.506745 0.99304,0.465583 0.0138,0.0087 0.71298,0.472529 0.88676,0.531672 0.11846,0.11619 0.18682,-0.100735 0.28055,-0.07617 0.34313,0.08993 0.65164,0.280996 0.98305,0.407422 0.15965,0.139529 0.34701,-0.02373 0.51087,0.02328 0.69528,0.199401 1.44515,0.567771 2.04989,0.946788 0.51515,0.163161 0.87026,0.665169 1.37733,0.837245 0.0367,0.01244 0.0744,-0.02176 0.11152,-0.03263 0.17282,0.117445 0.34563,0.234893 0.51845,0.35234 0.86553,0.489372 1.55466,1.303687 2.12957,2.103828 0.0396,0.02529 0.0994,0.118641 0.11889,0.07587 0.0301,-0.06614 -0.12974,-0.219048 -0.0576,-0.210333 0.15622,0.01888 1.06063,0.692334 1.23967,0.793517 0.46128,0.443771 0.9367,0.882615 1.34611,1.36841 0.49494,0.587306 0.16499,0.388501 0.48204,0.559431 0.5108,0.523114 0.70756,1.247619 1.08883,1.851051 0.0104,0.01634 0.0382,-0.04153 0.0512,-0.02724 0.0914,0.100298 0.15336,0.223916 0.23005,0.335877 0.01,-0.02955 0.003,-0.106972 0.0275,-0.08864 0.11902,0.08758 0.18303,0.2354 0.29807,0.32814 0.0207,0.01669 0.054,-0.04373 0.075,-0.02744 0.31037,0.24054 0.68749,0.602194 0.95804,0.881233 0.59528,0.502687 1.15996,1.085681 1.65312,1.695461 0.50056,0.469522 1.01669,0.947284 1.47185,1.476927 0.0415,0.01802 0.0923,0.02234 0.12445,0.05405 0.14047,0.138199 0.24557,0.309467 0.38577,0.447935 0.14018,0.138451 0.47276,0.193857 0.58034,0.25419 0.17992,0.100891 0.33216,0.244678 0.49824,0.367014 0.27119,0.257453 -3.36972,4.092612 -3.6409,3.83516 v 0 c -0.84306,-0.513682 -1.52998,-1.2051 -2.20978,-1.911254 -0.56212,-0.481786 -1.02798,-1.073863 -1.55331,-1.593609 -0.47896,-0.435533 -0.88366,-0.950475 -1.39778,-1.349422 -0.72524,-0.441465 -1.29018,-1.176995 -1.84054,-1.803155 -0.3567,-0.49952 -0.75315,-1.29263 -0.98792,-1.57845 -0.34532,-0.409019 -0.77305,-0.94383 -1.15411,-1.185166 -0.80398,-0.564456 -1.72789,-0.980472 -2.2811,-1.853239 -0.40893,-0.396429 -0.56327,-0.613825 -1.05035,-0.821031 -0.68355,-0.185205 -1.18706,-0.821822 -1.86438,-1.036625 0.0374,0.224975 0.025,0.05015 -0.46608,-0.126014 -0.36681,-0.131598 -0.64578,-0.134444 -1.04908,-0.267166 -0.17857,-0.05877 -0.35236,-0.131157 -0.52854,-0.196735 -0.71529,-0.260483 -1.50653,-0.503324 -2.12892,-0.870764 -0.71278,-0.351438 -1.41535,-0.660536 -2.14483,-0.979728 -1.02053,-0.550149 -2.04193,-1.131177 -2.86373,-1.963097 -0.70888,-0.605863 -1.26053,-1.373212 -1.74361,-2.164199 -0.28191,-0.454918 -0.34418,-0.370579 -1.03008,-1.00272 -0.64575,-0.744199 -1.22132,-1.529158 -1.53964,-2.471251 -0.18559,-0.289678 -0.0685,-0.108235 -0.37715,-0.577096 -0.0173,-0.02623 0.0772,0.09709 0.0517,0.07876 -0.0616,-0.04429 -0.21747,-0.211401 -0.1629,-0.15876 0.29653,0.286039 0.36978,0.277658 0.10167,0.208825 -1.07714,-0.611497 -2.09131,-1.31783 -2.83968,-2.325845 -0.34128,-0.525765 -0.63958,-0.987603 -1.17876,-1.343169 -0.65328,-0.629607 -1.3042,-1.263681 -1.78686,-2.041253 -0.51072,-0.767965 -1.13481,-1.464436 -1.47168,-2.338232 -0.26667,-0.689486 -0.69829,-1.31469 -1.00157,-1.988332 -0.30024,-0.721723 -0.78112,-1.369568 -1.06401,-2.102125 -0.25748,-0.694984 -0.59674,-1.362096 -0.90459,-2.035929 -0.31558,-0.483246 -0.77304,-1.001435 -1.13213,-1.494847 -0.46153,-0.775599 -0.84913,-1.622593 -1.10598,-2.487533 -0.26405,-0.720954 -0.37775,-1.128693 -0.90508,-1.774499 -0.28622,-0.529578 -0.54505,-1.044231 -0.94862,-1.501467 -0.60539,-0.774226 -0.97338,-1.624932 -1.1979,-2.573381 -0.15364,-0.378213 -0.17844,-0.489596 -0.7368,-0.783401 -0.78122,-0.581727 -1.46386,-1.236813 -2.06219,-2.006852 -0.35394,-0.424602 -0.70926,-0.820292 -1.21364,-1.068567 -0.81158,-0.541153 -1.62679,-1.072983 -2.27094,-1.819125 -0.51513,-0.52201 -1.05285,-1.020184 -1.58052,-1.529415 -0.50961,-0.533627 -1.02184,-1.069062 -1.48319,-1.643477 -0.39468,-0.45391 -0.84118,-0.831203 -1.38944,-1.13839 -0.71846,-0.497098 -1.42604,-0.998668 -2.22046,-1.370559 -0.85995,-0.466312 -1.71,-0.941236 -2.4156,-1.635589 -0.0776,-0.07246 -0.14567,-0.156637 -0.23272,-0.217384 -0.0616,-0.04296 0.21829,0.122668 0.15513,0.163242 -0.0354,0.02275 -0.88174,-0.376883 -1.05556,-0.319851 -0.067,-0.007 -0.13388,-0.014 -0.20082,-0.02099 -0.0457,0.013 -0.0896,0.04166 -0.13705,0.039 -0.80673,-0.04519 -1.59154,-0.283341 -2.38464,-0.415958 -0.13071,-0.01742 -0.5237,-0.04328 -0.39213,-0.05223 0.36438,-0.02478 1.4608,0.01209 1.09566,0.0044 -1.26012,-0.02656 -2.44143,0.04668 -3.63566,-0.382516 -0.95559,-0.262311 -1.98761,-0.178944 -2.91681,-0.599877 -0.75254,-0.248393 -1.54092,-0.536656 -2.28423,-0.729256 3.3045,0.176634 -0.5473,0.01805 -1.17468,0.113848 -1.53504,0.002 -3.06805,0.0013 -4.59918,-0.124124 -1.16249,-0.04377 0.0259,0.0083 0.39077,-0.02493 0.12627,-0.01151 -0.25216,-0.02688 -0.37833,-0.03939 -0.30783,-0.0305 -0.61437,-0.06656 -0.921,2.51e-4 -0.8489,0.240963 -1.63515,0.595091 -2.529,0.452759 -0.49615,0.1326 -1.02737,0.460044 -1.52832,0.521703 -1.06427,0.130991 -2.06126,0.114917 -3.10856,0.08026 2.22013,-0.08077 -0.34026,-0.177114 -0.83688,0.19856 -0.22552,0.07287 -0.44367,0.174674 -0.67658,0.218603 -0.15759,0.02972 -0.31726,-0.07196 -0.47726,-0.06093 -0.46944,0.03236 -0.86698,0.358634 -1.30413,0.49049 -0.65328,-0.148538 -1.14224,0.514283 -1.77975,0.515673 -0.29354,0.163096 -0.90515,0.510503 -1.16581,0.612198 -0.10494,0.04094 -0.22449,0.02358 -0.33455,0.04755 -0.58278,0.126917 -1.128556,0.390454 -1.722194,0.477626 -0.245549,-0.03854 -0.54473,-0.130194 -0.796892,-0.111651 -0.241787,0.01777 -0.454664,0.275609 -0.691716,0.224781 -0.08427,-0.01807 0.06566,-0.159372 0.0985,-0.239058 0.0066,-0.05436 0.07419,-0.158489 0.01963,-0.163079 -0.06722,-0.0057 -1.458103,1.786123 -1.783611,1.738574 -1.901764,1.26505 -0.0138,0.130538 -0.824163,0.442481 -0.132079,0.05084 -0.248699,0.248658 -0.378526,0.192312 -0.0456,-0.01978 0.541336,-0.95121 -0.07264,-0.104956 -0.0091,-0.02255 -0.01335,-0.08746 -0.02741,-0.06762 -0.412751,0.58232 -0.58492,1.335414 -1.126793,1.824042 -0.408895,0.727748 -0.902642,1.371486 -1.218886,2.14762 -0.154306,0.06124 -0.777406,1.613892 -0.890455,1.840064 -0.228222,0.283223 0.0088,-0.03254 -0.288487,0.744342 -0.228119,0.596079 -0.393469,0.51092 -0.471646,1.057998 -0.260216,1.028862 -0.257042,2.14531 -0.943885,3.023994 -0.116952,-0.224439 -0.0062,-0.04581 -0.268165,0.466056 -0.04968,0.09706 -0.160075,0.156123 -0.203376,0.25619 -0.131913,0.304845 -0.18714,0.63959 -0.345141,0.934801 -0.440571,0.994194 -0.559751,2.132855 -1.122317,3.082663 -0.195061,0.217278 -0.09337,0.133115 0.03828,-0.394161 0.325936,-0.513645 -0.136915,0.554012 -0.18611,0.890751 -0.01697,0.116081 -0.02806,0.232942 -0.0421,0.349412 -0.129236,2.333157 -0.06195,4.695108 -0.672885,6.977577 -0.03976,0.379185 -5.402235,-0.183016 -5.36248,-0.562201 z"
       inkscape:connector-curvature="0" />
    <path
       style="fill:#666666;fill-opacity:1;stroke:none;stroke-width:0.25135416;stroke-opacity:1"
       id="path5859"
       d="m 86.776926,34.662426 c -0.02551,2.262082 -0.194955,4.573527 -0.792987,6.76332 -0.308341,0.933216 -0.830039,1.692715 -1.514343,2.388612 -0.62455,0.528441 -1.228365,1.088174 -1.868165,1.598041 -0.562163,0.727077 -1.43163,1.064862 -2.101816,1.553123 -0.791183,0.423277 -1.273649,0.76577 -1.993792,1.283745 -0.876838,0.583007 -1.886802,0.907173 -2.81172,1.393629 -0.660888,0.3365 -1.342412,0.646251 -1.950269,1.016219 -0.796328,0.418573 -1.610819,0.813835 -2.446488,1.186089 -0.727432,0.308913 -1.549961,0.458054 -2.232425,0.81032 -0.810567,0.424482 -1.616984,0.831997 -2.41342,1.281273 -0.637133,0.153444 -0.807183,0.639937 -1.483758,0.965282 -0.671358,0.415243 -1.300881,0.979199 -2.027543,1.297171 -0.871587,0.828432 -1.957142,1.311511 -3.042816,1.784397 -0.776775,0.301775 -1.500054,0.70124 -2.221518,1.1143 -0.558339,0.262233 -1.147661,0.662228 -1.675836,1.041106 -0.877274,0.673409 -1.707862,1.406445 -2.56149,2.110931 -0.551783,0.392572 -0.891604,0.766153 -1.285536,1.237499 -0.480409,0.554749 -1.009471,1.066976 -1.525504,1.589348 -0.529013,0.504872 -1.056899,1.010989 -1.565542,1.536535 -0.617271,0.712931 -1.162626,1.499813 -1.752974,2.239933 -0.582953,0.77922 -1.300147,1.428181 -2.00836,2.085287 -0.443964,0.286617 -0.628886,0.645985 -0.94899,1.145338 -0.587691,0.90077 -1.246885,1.756594 -1.935953,2.582146 -0.562696,0.770589 -1.289898,1.400814 -1.899961,2.127356 -0.327577,0.512433 -0.675536,1.056059 -1.052025,1.513401 -0.472757,0.783543 -0.883123,1.598268 -1.390832,2.360602 -0.383929,0.588039 -0.660331,1.227873 -0.983632,1.847881 -0.502336,0.862864 -0.902274,1.772271 -1.320824,2.675529 -0.362659,0.859961 -0.926745,1.627187 -1.268067,2.494987 -0.42551,0.883819 -0.866163,1.757227 -1.28681,2.642565 -0.298536,0.570015 -0.458731,1.205743 -0.632349,1.826039 -0.278028,0.984127 -0.691684,1.909015 -1.098294,2.842834 -0.279803,0.695316 -0.469033,1.40802 -0.682681,2.123246 -0.31063,0.75405 -0.365343,1.559308 -0.59745,2.34046 -0.260305,0.78226 -0.174397,1.61109 -0.244339,2.42184 -0.171426,0.9885 -0.407551,1.95893 -0.43252,2.96506 0.02794,0.95956 0.106637,1.91634 0.139147,2.87591 0.159733,1.20218 -0.248426,2.28436 -0.653906,3.38506 -0.115083,0.6709 0.0037,1.36877 0.06231,2.04177 0.110851,1.11794 0.116976,2.24099 0.09501,3.3629 -0.05016,1.10985 -0.597657,2.10457 -0.70481,3.20032 -0.0022,0.89428 0.116044,1.78409 0.17531,2.67587 0.06331,1.08369 0.02468,2.16933 -0.0039,3.25342 -0.02895,0.99099 -0.02509,1.98243 -0.01834,2.97368 0.01,1.02148 0.01306,2.043 0.01256,3.06453 -0.002,1.01597 -0.0044,2.03194 -0.005,3.04791 -1.66e-4,1.01517 8.79e-4,2.03035 0.0013,3.04552 3.77e-4,1.01642 7.5e-5,2.03285 -1.17e-4,3.04926 1.51e-4,0.81448 -0.01422,1.81575 0.03097,2.50899 0.514073,0.82546 0.57774,1.91525 0.625352,2.85943 0.174821,0.9488 0.370815,1.87375 0.647482,2.79606 0.417003,1.21896 0.299901,2.51441 0.535395,3.75983 0.344831,0.8457 0.103698,2.17123 0.344762,2.95412 0.32519,1.09646 0.451948,2.22517 0.479529,3.36411 -0.01493,1.05795 -0.118858,2.11131 -0.15363,3.16857 -0.002,0.15425 -0.02176,0.30928 -0.0062,0.46274 0.01393,0.1368 0.122115,0.24737 0.165547,0.37782 0.149875,0.45018 0.24281,0.90728 0.438911,1.33999 0.344132,0.8183 0.565734,1.68235 0.631614,2.56879 0.09567,1.28731 -0.03136,0.37784 0.04207,0.87921 0.261365,0.44236 0.190071,1.94462 0.393789,2.19276 0.248116,0.85649 0.575859,1.67907 0.826596,2.53559 0.113139,0.98055 0.384521,1.91969 0.581078,2.88356 0.0078,-0.0238 0.0052,-0.0891 0.02347,-0.0717 0.204748,0.19495 0.64686,1.72926 0.781696,2.13005 0.284505,1.16689 0.431769,2.35471 0.658937,3.53507 0.153704,0.85692 0.513606,1.6329 0.668244,2.50781 0.02658,0.93833 0.300466,1.82966 0.619004,2.70273 0.306374,1.1222 0.715884,2.19702 0.918079,3.34627 0.403426,1.00055 0.346451,2.10719 0.597061,3.13352 0.160377,0.96571 0.466833,1.87834 0.728932,2.81708 0.227418,0.90216 0.187744,1.81475 0.430475,2.70814 0.221229,1.15435 0.566305,2.26285 0.748015,3.42998 0.0586,0.9785 0.30153,1.98467 0.500406,2.91143 0.540105,0.94346 0.588073,2.0562 0.581957,3.11441 0.124144,0.6317 0.33262,1.21366 0.566209,1.80771 0.32212,0.97073 0.454113,1.97683 0.715456,2.96354 0.06277,0.85128 0.381219,1.573 0.580638,2.39737 0.170235,0.92551 0.491699,1.79482 0.626785,2.73876 0.113024,1.19146 -0.01737,2.38552 -0.09168,3.57498 0.337647,0.83989 0.501549,1.73846 0.6183,2.63193 0.342762,1.05061 0.486623,2.13754 0.531526,3.23716 -0.126604,0.98368 -0.0015,1.19138 0.240816,2.02889 0.650809,1.03342 0.790825,2.31062 0.847496,3.50229 -0.106869,0.78892 0.164081,1.50782 0.297912,2.27445 0.165353,1.17242 0.08824,2.35811 0.0313,3.53527 -0.05691,0.98722 -0.05666,1.97597 -0.0445,2.96432 0.462236,1.0673 0.596267,2.28742 0.687022,3.4383 0.06178,1.12167 -0.109863,2.23447 -0.189193,3.35018 -0.04681,0.92946 -0.0035,1.86037 0.02114,2.78988 0.02946,1.0506 0.0243,2.10167 0.01639,3.15251 -0.01046,1.00581 -0.01289,2.01166 -0.01202,3.01753 0.0023,1.01722 0.0047,2.03448 0.0051,3.05171 1.7e-5,1.01655 -10e-4,2.03313 -0.0015,3.04968 -2.52e-4,1.0154 -8e-6,2.03079 1.86e-4,3.04622 2e-4,1.01619 1.48e-4,2.03239 9e-5,3.0486 -7.8e-5,1.01587 -9e-5,2.03174 -8.1e-5,3.04761 1.8e-5,1.01597 3.4e-5,2.03192 3.6e-5,3.0479 0,1.01595 -8e-6,2.0319 -1e-5,3.04786 0.446978,0.35563 0.540353,1.55156 0.621752,2.1429 0.09768,1.19879 -0.04669,2.39737 -0.12355,3.59296 -0.0018,0.469 -0.06805,0.94504 -0.03339,1.41432 0.0025,0.033 0.06194,-0.0879 0.07924,-0.0597 0.0516,0.0841 0.08529,0.17796 0.127944,0.26694 0.540938,1.22542 0.534777,2.55297 0.458551,3.86228 0.126637,0.55281 0.451121,0.95364 0.689577,1.49524 0.320243,1.143 0.829429,2.21249 1.19064,3.34009 0.419648,0.96339 0.780146,1.9489 1.198982,2.91263 0.321271,0.8192 0.795352,1.57125 1.155767,2.38403 0.62054,0.76622 0.982983,1.82878 1.259558,2.76666 0.03559,0.15012 0.742397,2.03191 0.895248,2.01096 0.630298,0.95559 -0.02021,0.038 0.139974,0.0941 0.117099,0.041 0.156501,0.19907 0.261929,0.2645 0.02618,0.0163 -0.0075,-0.10761 0.01825,-0.0906 0.77827,0.51398 0.144021,0.28699 0.551001,0.4188 0.410881,0.41617 0.878304,0.77962 1.273494,1.20399 0.596259,0.64027 0.179029,0.35199 0.542834,0.58498 0.311918,0.34993 0.520824,0.62795 0.847868,0.96222 0.292428,0.29892 -0.435019,-0.47316 0.439279,0.0898 0.127439,0.24844 0.195787,-0.0591 0.287494,-0.0296 0.725026,0.23331 1.311767,0.73669 1.900152,1.19437 0.443408,-0.0179 0.398853,0.6985 0.743498,0.8497 0.03597,0.0159 -0.02272,-0.13551 0.01204,-0.11722 0.109256,0.0575 0.454518,0.56176 0.522484,0.21911 0.658778,0.18817 1.098102,0.76972 1.693344,1.05602 0.03667,0.0176 0.08102,-0.008 0.121527,-0.0113 0.167369,0.12696 0.334736,0.25391 0.502102,0.38085 0.07989,0.0422 0.159773,0.0844 0.239662,0.12653 0.03168,-0.0176 0.06204,-0.0675 0.09503,-0.0526 0.182006,0.0822 0.539134,0.39288 0.792027,0.45571 0.04763,0.0118 0.09701,-0.0148 0.145521,-0.0224 0.16685,0.0699 0.333698,0.13981 0.500545,0.20971 1.082233,0.39781 2.131908,1.10291 3.002797,1.86193 0.29273,0.29487 0.675809,0.31049 1.052724,0.44037 0.685639,0.29756 0.356214,0.17675 0.983429,0.3753 0.482791,0.13862 0.859666,0.71319 1.385152,0.76226 0.04766,0.005 0.08968,-0.0625 0.135329,-0.0481 0.295819,0.0934 0.55925,0.26987 0.847495,0.38454 0.955909,0.11145 0.720145,0.74775 1.644055,0.43464 0.907598,0.45003 1.896862,0.38414 2.840101,0.62987 0.415062,0.33735 3.856736,0.34438 1.39394,0.27267 0.999483,0.003 1.995009,-0.10457 2.99299,-0.15069 1.482615,-0.0513 2.965461,0.0188 4.447998,0.0341 1.177743,-0.0246 2.231264,0.60523 3.395974,0.70696 0.432646,-0.0784 1.690754,0.0331 -0.243668,-0.0592 -0.143458,-0.007 0.28725,-0.005 0.430703,-0.0118 0.283927,-0.0138 0.715281,-0.0521 0.99454,-0.0753 1.524355,-0.14669 3.057143,-0.12058 4.585844,-0.0744 0.808893,0.1439 1.69096,-0.12585 2.49328,0.0226 0.284752,0.0526 0.555025,0.16544 0.832538,0.24816 0.902685,0.46956 1.189815,0.56525 2.120215,0.41451 -0.30687,-0.007 -1.22703,-0.0399 -0.92062,-0.0214 0.71206,0.0429 1.42718,0.0342 2.13797,0.0947 0.7539,0.0642 1.49457,0.32988 2.25434,0.40546 0.41058,-0.0283 1.8544,0.0505 -0.12517,-0.0258 -0.14294,-0.006 0.28613,0 0.42913,-0.003 0.30895,-0.009 0.65499,-0.0327 0.96248,-0.0518 1.2915,-0.12047 2.52641,-0.0739 3.82685,0.11449 0.44184,0.064 0.8497,0.27448 1.27486,0.41069 0.38257,0.11906 0.77126,0.16843 1.17026,0.14267 0.11313,-0.008 0.45105,-0.0262 0.33814,-0.0364 -0.31551,-0.0284 -1.26527,-0.0518 -0.95019,-0.0188 0.68268,0.0713 1.36989,0.0895 2.05483,0.13431 0.45567,0.11187 0.88047,0.35322 1.353,0.39921 0.18862,0.0183 0.38258,-0.065 0.56797,-0.0256 0.24603,0.0522 0.47682,0.1603 0.71523,0.24042 0.38076,0.14826 0.76148,0.32875 1.17837,0.33337 0.19792,0.003 0.39577,-0.088 0.59111,-0.0561 0.24299,0.0396 0.47315,0.13633 0.70972,0.20451 0.34077,0.15128 -1.79854,4.97057 -2.13932,4.81931 v 0 c -0.88788,0.20304 -1.81224,-0.46415 -2.67299,-0.58094 -0.59401,0.21856 -1.49389,-0.49222 -2.13073,-0.39409 0.40502,0.0103 1.61961,0.009 1.21506,0.0308 -1.56474,0.0855 -3.0562,-0.01 -4.53816,-0.52071 -0.62538,-0.17467 -1.80183,-0.21274 0.43117,-0.15767 1.44917,0.0357 -2.8326,-0.0933 -1.4162,0.0206 -1.58394,0.0948 -3.18283,0.25384 -4.75917,-0.0189 -0.55999,-0.0951 -1.11851,-0.21835 -1.681,-0.2972 -0.13345,-0.0186 -0.5366,-0.0295 -0.40227,-0.0404 0.14835,-0.0121 4.32003,-0.0276 -0.91533,-0.003 -0.971563,-0.11512 -1.924641,-0.3941 -2.82936,-0.70179 -0.0028,0.0256 0.01689,0.0732 -0.0086,0.0768 -0.846007,0.11568 -1.736357,-0.11575 -2.586196,-0.0473 -0.378476,-0.006 -2.061727,0.055 -0.119431,-0.0176 1.38405,-0.0517 -2.738724,-0.0306 -1.392318,0.0209 -1.631849,0.12127 -3.289399,0.35318 -4.908575,-0.007 -0.901675,-0.21129 -1.774696,-0.56203 -2.710603,-0.4726 -0.350883,-0.008 -3.461703,0.0311 -1.178959,-0.0391 0.153638,-0.005 -0.307358,-0.007 -0.461039,-0.01 -1.023122,-0.003 -2.04042,0.0733 -3.05795,0.17862 -1.699299,-0.0156 -3.324294,-0.0682 -4.955421,-0.5835 -0.841378,-0.0811 -1.630445,-0.40578 -2.459906,-0.49775 -0.97547,-0.24371 -1.836167,-0.71724 -2.620327,-0.9654 -0.805201,-0.30935 -1.613684,-0.61233 -2.386819,-1.00663 -1.083794,-0.46631 -2.172883,-0.93449 -3.076686,-1.71564 -0.675043,-0.3812 -1.287111,-0.85479 -2.046279,-1.06813 -0.862753,-0.354 -1.688029,-0.80632 -2.465753,-1.31577 -0.671976,-0.21593 -0.878474,-0.7262 -1.542139,-0.80732 -0.882477,-0.51184 -1.539416,-1.05408 -2.243779,-1.7865 -0.02547,-0.0265 0.04182,0.0604 0.06272,0.0906 -0.353594,-0.25012 -1.257361,-0.37274 -1.862338,-0.86116 -0.806857,-0.42993 -1.364795,-1.13379 -1.989503,-1.77611 -0.413188,-0.45092 -0.836607,-0.90796 -1.325584,-1.2684 -0.718094,-0.58829 -1.473788,-1.13537 -1.961656,-1.95289 -0.615244,-1.03976 -1.18048,-2.1062 -1.455492,-3.29395 -0.213291,-0.79466 -0.660458,-1.47774 -1.057132,-2.18947 -0.377204,-0.84878 -0.919753,-1.60985 -1.232118,-2.48799 -0.423507,-1.07357 -0.916156,-2.11702 -1.301216,-3.20602 -0.343761,-0.9796 -0.755598,-1.93539 -1.030285,-2.93918 -0.521613,-1.165 -1.050962,-2.30977 -1.025107,-3.62309 0.04772,-0.56567 0.172562,-1.17514 -0.06204,-1.71288 -0.527429,-1.20235 -0.708889,-2.42301 -0.570009,-3.73032 0.05297,-0.93582 0.153178,-1.86882 0.17944,-2.80574 -0.05028,-0.92124 -0.719225,-1.70869 -0.66957,-2.66149 5e-6,-1.01595 10e-6,-2.0319 10e-6,-3.04782 -5e-6,-1.01598 -2e-5,-2.03193 -3.3e-5,-3.04789 -2e-6,-1.01595 2.1e-5,-2.03193 8.3e-5,-3.04788 4.3e-5,-1.01584 6.3e-5,-2.03172 -1.31e-4,-3.04757 -1.76e-4,-1.01632 -5.02e-4,-2.03265 -2.4e-5,-3.04897 5.02e-4,-1.015 0.0015,-2.02997 10e-4,-3.04493 -7.55e-4,-1.01754 -0.0031,-2.03504 -0.0046,-3.05255 -1.1e-5,-1.01615 0.0037,-2.03227 0.01231,-3.0484 0.0054,-1.00431 0.0062,-2.00872 -0.02086,-3.01278 -0.02481,-1.07117 -0.0578,-2.14403 0.0091,-3.21447 0.06207,-0.87998 0.182902,-1.76096 0.133921,-2.64442 -0.129159,-1.2723 -0.506829,-2.4964 -0.65335,-3.76659 -0.01755,-1.0823 -0.02961,-2.16539 0.02623,-3.24692 0.04289,-0.86385 0.122347,-1.7309 0.07468,-2.59573 -0.137529,-0.94155 -0.52046,-1.85816 -0.406691,-2.82739 -0.01358,-0.87154 -0.318391,-1.64 -0.636339,-2.44608 -0.288738,-1.01448 -0.579474,-2.02367 -0.43448,-3.0923 -0.02631,-0.96638 -0.310363,-1.8787 -0.498795,-2.82216 -0.151446,-1.17196 -0.696656,-2.26935 -0.658611,-3.47306 0.05202,-0.91425 0.150235,-1.82752 0.149277,-2.74363 -0.07165,-0.79436 -0.494713,-1.50456 -0.541995,-2.30509 -0.151909,-0.73939 -0.484817,-1.44054 -0.529007,-2.20312 -0.257958,-0.86255 -0.437193,-1.73406 -0.672285,-2.59951 -0.397494,-1.13242 -0.705401,-2.30647 -0.787365,-3.50775 0.05,-0.6054 0.02707,-0.87132 -0.319428,-1.43701 -0.400875,-1.22279 -0.685788,-2.49618 -0.81428,-3.77778 -0.137835,-0.98207 -0.33472,-1.95357 -0.516163,-2.92679 -0.243557,-0.87798 -0.361646,-1.75807 -0.48349,-2.65478 -0.309441,-1.06195 -0.598984,-2.12422 -0.808963,-3.21147 -0.180771,-1.08078 -0.306378,-2.16683 -0.607737,-3.22591 -0.133084,-0.89937 -0.557629,-1.71876 -0.787276,-2.59455 -0.381648,-1.1265 -0.694939,-2.31653 -0.706162,-3.51324 -0.02965,-0.78711 -0.774013,-1.47989 -0.702122,-2.3084 -0.211987,-1.01718 -0.347941,-2.04105 -0.541877,-3.05858 -0.254094,-0.85996 -0.506035,-1.69928 -0.854101,-2.52734 -0.173735,-0.84362 -0.497829,-1.65567 -0.568921,-2.52118 -0.266484,-0.93261 -0.570163,-1.85375 -0.827622,-2.78921 -0.164681,-0.86023 -0.199716,-1.73406 -0.457097,-2.57935 -0.117122,-0.85475 -0.103354,-1.69107 -0.5227,-2.4804 -0.426891,-1.25779 -0.877252,-2.55708 -0.81796,-3.9028 0.03194,-0.97717 0.111217,-1.95128 0.146444,-2.92813 -0.01545,-0.95943 -0.229695,-1.88155 -0.431466,-2.81679 -0.100395,-0.92274 -0.07013,-1.85593 -0.328525,-2.7581 -0.217751,-1.13432 -0.231006,-2.2905 -0.521259,-3.41192 -0.308519,-1.2686 -0.606233,-2.54391 -0.714162,-3.84885 0.01281,-0.752 -0.277574,-1.38054 -0.520926,-2.09018 -0.186685,-1.13288 -0.154137,-2.26478 -0.143496,-3.41202 1.92e-4,-1.01547 5.02e-4,-2.03093 1.1e-4,-3.0464 -4.78e-4,-1.0168 -0.0015,-2.03361 -0.0013,-3.05041 6.53e-4,-1.01572 0.0031,-2.03144 0.005,-3.04715 4.52e-4,-1.01081 -0.0028,-2.0216 -0.01264,-3.03237 -0.0069,-1.04052 -0.01028,-2.08125 0.02003,-3.1215 0.02507,-0.94491 0.06348,-1.89132 0.0095,-2.83597 -0.07864,-1.14893 -0.241367,-2.29772 -0.162024,-3.45149 0.104982,-0.94039 0.242407,-1.95386 0.688338,-2.80136 0.01429,-0.97435 -0.006,-1.94835 -0.105671,-2.91863 -0.102426,-1.31014 -0.191275,-2.64096 0.210121,-3.91511 0.05957,-0.16735 0.114285,-0.3365 0.178708,-0.50204 0.0379,-0.0974 0.07841,-0.19416 0.128026,-0.28611 0.01292,-0.0239 0.03039,-0.0566 0.05757,-0.0579 0.02099,-9.5e-4 0.03105,0.0748 0.03273,0.0539 0.0083,-0.1028 -0.0038,-0.83449 -0.0052,-0.94076 -0.03302,-1.0462 -0.130766,-2.08899 -0.142442,-3.13587 0.02964,-1.13963 0.16358,-2.2663 0.446257,-3.3731 0.231192,-1.04097 -0.03218,-2.19893 0.437163,-3.211691 0.269795,-0.814866 0.264678,-1.701015 0.656605,-2.484536 0.07337,-0.06158 0.592009,-2.018942 0.714502,-2.325036 0.309147,-0.806907 0.670629,-1.588867 0.99357,-2.387158 0.254449,-0.898755 0.496142,-1.809499 0.882294,-2.660285 0.275257,-0.434521 -0.04764,0.100062 0.368125,-0.843404 0.208861,-0.473951 0.534564,-0.883364 0.718279,-1.37075 0.375028,-0.987153 0.93224,-1.857708 1.37758,-2.807925 0.452551,-0.929909 0.774676,-1.939886 1.436467,-2.75464 0.376478,-0.76703 0.734673,-1.540872 1.140529,-2.29961 0.416374,-0.658754 0.839991,-1.311533 1.250444,-1.973834 0.439769,-0.842174 1.012342,-1.465748 1.465711,-2.310882 0.645315,-0.803542 1.323509,-1.5656 1.96099,-2.377009 0.631548,-0.613997 1.220554,-1.272784 1.652023,-2.039125 0.490938,-0.630223 0.839048,-1.322176 1.442685,-1.867931 0.01779,-0.01608 0.05267,0.02776 0.07091,0.01219 0.143883,-0.122786 0.262464,-0.272446 0.393696,-0.40867 -0.01779,0.261824 -0.02149,0.03484 0.295791,-0.247423 0.01342,-0.01194 0.02499,0.05202 0.03729,0.03893 0.317952,-0.338383 0.584496,-0.747964 0.861991,-1.116502 0.762891,-0.883407 1.454373,-1.828086 2.240315,-2.696161 0.333638,-0.159929 -0.03718,0.03863 0.509188,-0.51476 0.346467,-0.350921 0.763006,-0.671277 1.078202,-1.06718 0.378707,-0.195368 -0.07748,0.06302 0.538327,-0.518612 0.03022,-0.02855 0.08894,-0.0089 0.118848,-0.03782 0.547374,-0.528403 0.262057,-0.275201 0.76341,-0.833102 0.09054,0.25147 -0.0057,0.03742 0.369209,-0.417255 0.320353,-0.388568 0.74118,-0.792437 1.080448,-1.185534 0.955242,-0.775199 1.824053,-1.659428 2.848552,-2.354048 0.313758,-0.204215 0.591416,-0.460667 0.905534,-0.664329 0.08161,-0.05292 0.188643,-0.054 0.27375,-0.10111 0.409172,-0.226492 0.792002,-0.518103 1.185341,-0.768826 0.02687,0.0139 0.05233,0.05245 0.08062,0.04172 0.319516,-0.12107 0.550643,-0.406774 0.845025,-0.580239 0.445839,-0.262713 1.012653,-0.39918 1.408935,-0.763598 0.631105,-0.196979 0.301509,-0.07719 0.984313,-0.37146 0.185962,-0.06199 0.371763,-0.1255 0.561485,-0.174806 0.02872,-0.0075 0.05122,0.05795 0.07741,0.04398 0.107331,-0.05724 0.18645,-0.156272 0.279675,-0.234408 0.68206,-0.643552 1.448184,-1.186354 2.314011,-1.542478 0.142458,-0.114086 0.284915,-0.228171 0.427375,-0.342256 0.0092,0.02973 -10e-4,0.101507 0.02763,0.08917 0.541352,-0.233757 1.006156,-1.120466 1.639739,-1.287764 0.771946,-0.179721 1.332921,-0.934244 2.142782,-1.024664 0.846053,-0.529789 1.773529,-1.066266 2.756078,-1.273302 0.582013,-0.174472 0.274866,-0.0647 0.915706,-0.344946 0.60279,-0.191077 -0.555641,0.449542 0.449321,-0.127799 0.188751,-0.108436 0.355427,-0.256632 0.554072,-0.345662 0.02877,-0.01289 0.04398,0.04517 0.06599,0.06776 0.675095,-0.324637 1.172254,-0.72657 1.873765,-1.060894 0.382204,-0.231482 0.744468,-0.498289 1.142993,-0.700383 0.550408,-0.279109 1.178293,-0.394236 1.727675,-0.67152 0.218967,0.116761 0.894326,-0.630475 0.921364,-0.650671 0.235034,-0.175558 0.488673,-0.328834 0.754153,-0.453664 0.02847,-0.0134 0.03549,0.05195 0.05324,0.07793 0.315979,-0.185917 0.909206,-0.713301 1.232847,-0.82085 0.04525,-0.01503 -0.05989,0.145853 -0.01234,0.142501 0.08156,-0.0058 0.126717,-0.103353 0.190076,-0.155031 0.358222,-0.412583 1.640146,-1.754156 2.124295,-1.831421 0.109022,-0.09635 0.217358,-0.193478 0.327069,-0.289041 0.07235,-0.06301 0.253312,-0.276311 0.219083,-0.18668 -0.578506,1.514751 -0.427888,0.597984 -0.30537,0.433626 0.211652,-1.921945 0.22701,-3.873914 0.673026,-5.76759 0,-0.381094 5.38946,-0.381094 5.38946,0 z"
       inkscape:connector-curvature="0" />
    <path
       style="fill:#666666;fill-opacity:1;stroke:none;stroke-width:0.25135416;stroke-opacity:1"
       id="path5863"
       d="m 119.99346,320.89966 c 2.32645,-0.23251 4.67316,-0.1848 7.00203,-0.0139 0.66018,0.091 1.31702,0.11979 1.98145,0.094 1.05001,-0.0487 2.10118,-0.0557 3.1521,-0.0553 1.04381,0.006 2.08757,0.0174 3.1314,0.0206 0.9942,0.003 1.9884,-0.003 2.9826,-0.005 1.02536,-0.003 2.05072,0 3.07607,1.9e-4 1.01323,0 2.02645,0 3.03967,0 0.16911,-4e-5 0.67627,-0.008 0.50734,-1.2e-4 -2.29516,0.10783 -1.27147,0.0741 -0.84565,-0.0224 0.5637,-0.12764 1.11743,-0.305 1.67998,-0.43992 1.62415,-0.37193 3.28916,-0.14059 4.92711,-0.0145 -1.33718,0.0533 2.76916,0.0758 1.39068,0.0231 -1.94338,-0.0744 -0.26355,-0.0121 0.11588,-0.0179 1.47436,-0.0504 2.94908,-0.048 4.42407,-0.0461 1.41468,-0.11957 2.16773,0.18319 3.44179,0.74765 0.25478,0.0996 0.46351,0.0418 0.71811,-0.005 0.10365,-0.0188 0.4161,-0.0405 0.31152,-0.0531 -0.41307,-0.0499 -1.57022,0.005 -0.45355,-0.0388 0.7393,0.005 1.4857,-0.1884 2.22505,-0.15062 0.0294,0.003 0.0404,0.0427 0.0605,0.0639 0.044,0.003 0.0881,0.004 0.13203,0.005 0.74752,-0.30595 1.49999,-0.45453 2.23734,-0.75643 0.84726,-0.35885 1.70638,-0.66918 2.54502,-1.04737 0.62883,-0.36205 1.37094,-0.60558 2.06164,-0.86493 -0.0414,0.0415 -0.18034,0.14108 -0.12414,0.12449 0.33546,-0.099 1.27115,-0.99571 1.59765,-1.26531 0.79748,-0.52028 1.52688,-0.93562 2.30679,-1.45562 0.1897,0.0686 1.00163,-0.79503 0.6627,-0.30042 0.40483,-0.8631 0.8566,-1.68694 1.5072,-2.39264 0.49915,-0.39342 1.12149,-1.17616 1.69004,-1.46607 0.51272,-0.43872 0.92495,-0.97912 1.41498,-1.44028 0.45742,-0.58172 0.81099,-1.23026 1.14606,-1.88687 0.33346,-0.7784 0.83586,-1.46017 1.25847,-2.18593 0.47612,-0.81707 1.00038,-1.63237 1.73425,-2.24449 -0.0274,0.0397 -0.10914,0.15888 -0.0822,0.11896 0.30489,-0.45097 0.47168,-0.8558 0.69624,-1.361 0.32238,-0.68927 0.5564,-1.38974 0.79311,-2.10836 0.25175,-0.73936 0.47453,-1.48425 0.72388,-2.22665 0.25239,-0.79154 0.82367,-1.43694 1.15959,-2.18313 0.31394,-0.6361 0.71929,-1.24428 0.96615,-1.91157 0.29226,-0.71534 0.7356,-1.36883 1.02483,-2.08351 0.21935,-0.80486 0.49746,-1.60936 0.77908,-2.39877 0.13423,-0.81783 0.53819,-1.56938 0.70353,-2.3758 0.20821,-0.87757 0.6771,-1.64129 1.06147,-2.44165 0.25894,-0.75311 0.51957,-1.51786 0.78562,-2.27395 0.20652,-0.9638 0.5356,-1.89195 0.87807,-2.81555 0.28937,-0.78306 0.52833,-1.58217 0.79027,-2.37678 0.20784,-0.8592 0.55962,-1.68651 0.88727,-2.5074 0.14525,-0.78134 0.5281,-1.50607 0.67637,-2.28421 0.1088,-0.91196 0.38885,-1.82391 0.68005,-2.69512 0.3849,-0.65759 0.33618,-1.3352 0.4476,-2.06455 0.22834,-0.7651 0.34834,-1.52177 0.33641,-2.31716 -0.17105,-1.14205 0.1386,-2.2184 0.46311,-3.29832 0.0568,-0.7981 0.3982,-1.53368 0.56129,-2.30839 0.0369,-0.92013 -0.0616,-1.81749 0.021,-2.73813 0.16383,-0.81445 0.49717,-1.55942 0.50806,-2.39502 -0.10993,-1.20333 -0.12947,-2.36507 0.0959,-3.55724 0.24968,-0.83432 0.43129,-1.6615 0.41171,-2.53277 -0.0767,-1.00345 -0.15049,-2.00585 -0.17504,-3.0122 -0.0958,-1.26424 0.1002,-2.44699 0.58798,-3.6142 0.23044,-0.56093 0.10907,-1.18594 0.0598,-1.77225 -0.0576,-1.0306 0.4313,-1.96795 0.52477,-2.9736 0.0133,-0.9201 -0.0755,-1.83847 -0.12229,-2.75694 -0.0516,-1.07269 -0.0267,-2.1467 -0.005,-3.21975 0.0229,-0.99197 0.0215,-1.98422 0.017,-2.97636 -0.008,-1.02214 -0.0102,-2.04427 -0.0102,-3.06642 9.5e-4,-1.01542 0.003,-2.03086 0.004,-3.04629 2.6e-4,-1.01542 -5e-4,-2.03084 -9.5e-4,-3.04623 -2.5e-4,-1.01635 -1.2e-4,-2.03271 3e-5,-3.04906 1.6e-4,-1.01579 1.4e-4,-2.03156 1.1e-4,-3.04734 -6e-5,-1.016 -8e-5,-2.03199 -7e-5,-3.048 1e-5,-1.01595 2e-5,-2.03189 3e-5,-3.04784 0,-1.01595 -1e-5,-2.03189 -1e-5,-3.04784 0,-1.01595 0,-2.0319 0,-3.04788 0,-1.01595 0,-2.0319 0,-3.04784 0,-1.01595 0,-2.03189 0,-3.04784 0,-1.01595 0,-2.0319 0,-3.04788 0,-1.01595 0,-2.0319 0,-3.04785 0,-1.01594 0,-2.03188 0,-3.04783 0,-1.01595 0,-2.0319 0,-3.04788 0,-1.01595 0,-2.0319 0,-3.04785 0,-1.01595 0,-2.03188 0,-3.04783 0,-1.01595 0,-2.0319 0,-3.04785 0,-1.01598 0,-2.03193 0,-3.04788 0,-1.01595 0,-2.03189 0,-3.04783 0,-1.01596 0,-2.03191 0,-3.04787 -0.13402,-1.15364 0.25238,-2.20069 0.62082,-3.26571 0.11208,-0.68816 -9.5e-4,-1.40006 -0.0575,-2.0902 -0.10376,-1.1142 -0.10898,-2.23293 -0.0882,-3.35061 0.031,-0.9891 0.0457,-1.97842 0.0461,-2.96797 -0.005,-1.01754 -0.0138,-2.03503 -0.0167,-3.05256 -0.0519,-1.23338 -0.014,-2.40935 0.36394,-3.59209 0.35768,-0.67906 0.30333,-1.39538 0.41102,-2.13356 0.28318,-0.88059 0.32911,-1.79644 0.50348,-2.69586 0.27036,-0.70427 0.39362,-1.38382 0.37489,-2.13091 -0.17195,-1.27529 -0.0464,-2.50872 0.26046,-3.75215 0.25717,-0.76699 0.27937,-1.5447 0.23099,-2.34146 -0.12732,-1.18239 -0.18752,-2.3408 -0.009,-3.51684 0.36996,-0.82482 0.54006,-1.64068 0.70078,-2.51598 0.23875,-0.89337 0.34307,-1.79827 0.32727,-2.72016 -0.0904,-1.13825 -0.16593,-2.2465 -0.008,-3.37895 0.22401,-0.73715 0.57018,-1.37758 0.56556,-2.15247 -0.10646,-0.99719 0.29134,-1.94041 0.43609,-2.90989 -0.01,-1.04229 -0.009,-2.03581 0.23082,-3.05964 0.28194,-0.67811 0.33192,-1.34646 0.30469,-2.06751 -0.16226,-1.06598 0.30191,-2.05475 0.49168,-3.07617 0.004,-1.02613 0.25897,-2.02242 0.43934,-3.0267 0.1441,-0.84656 0.0678,-1.70459 0.0113,-2.55503 -0.0821,-1.06452 -0.0835,-2.132158 -0.0694,-3.198953 0.0225,-1.009551 0.0344,-2.019203 0.0351,-3.028993 -0.003,-1.01295 -0.0101,-2.025877 -0.0125,-3.038832 -0.0225,-0.339835 0.0215,-0.68175 -1.9e-4,-1.021586 -0.002,-0.03177 -0.0723,-0.01214 -0.0864,-0.04066 -0.0458,-0.09261 -0.0844,-0.188812 -0.11988,-0.28582 -0.0599,-0.163583 -0.11093,-0.330309 -0.1664,-0.495464 -0.37435,-1.259254 -0.29007,-2.570355 -0.19616,-3.861466 0.008,-0.09829 0.0721,-0.937126 0.0731,-1.051542 2.3e-4,-0.02385 -0.0588,0.02578 -0.0713,0.0055 -0.0417,-0.06775 -0.0466,-0.275384 -0.10022,-0.216595 -0.0625,0.06856 0.0317,0.182825 0.0477,0.27424 -0.40262,-0.36702 0.14025,0.150021 -0.50824,-0.65239 -0.6132,-0.758748 -0.75501,-1.085981 -1.0399,-2.062768 -0.18076,-0.393274 -0.22113,-0.831877 -0.34762,-1.240099 -0.0311,-0.100269 -0.13198,-0.166564 -0.17279,-0.263283 -0.0684,-0.16202 -0.12628,-0.328253 -0.18943,-0.49238 -0.13986,0.133903 0.0525,-0.02383 -0.2271,-0.252518 -0.037,-0.03029 0.0445,0.165766 0.002,0.143467 -0.11369,-0.05992 -0.15827,-0.207776 -0.26368,-0.281305 -0.0219,-0.0153 -0.035,0.04052 -0.0524,0.06078 -0.12773,-0.11964 -0.25544,-0.239282 -0.38317,-0.358924 -0.17955,-0.19038 -1.31081,-2.011984 -1.41797,-1.932496 -0.0883,-0.263389 -0.21153,0.01682 -0.30462,-0.02456 -0.58674,-0.260728 -1.08358,-0.726155 -1.61131,-1.08246 -0.30418,-0.1605 -1.54103,-1.879254 -1.67724,-1.890801 -0.81655,-1.208491 -0.1903,-0.189353 -0.33341,-0.199118 -0.14303,-0.0098 -1.10385,-0.675029 -1.12575,-0.69132 -0.0933,-0.05613 -0.18652,-0.112262 -0.27978,-0.168392 -0.0395,0.0092 -0.0825,0.04596 -0.1186,0.02752 -0.18507,-0.09436 -0.33842,-0.241564 -0.5152,-0.350684 -0.53289,-0.328952 -0.0549,0.108854 -0.93534,-0.435657 -0.0993,-0.04816 -0.19202,-0.113295 -0.29788,-0.144458 -0.12099,-0.109251 -0.19293,0.103478 -0.29057,0.07987 -0.45068,-0.108977 -0.8129,-0.364966 -1.27638,-0.439975 -0.21438,-0.279131 -0.97105,-0.476291 -1.27183,-0.651299 -0.22292,-0.129699 -0.67823,-0.62363 -1.01186,-0.583755 -0.52493,0.560518 -1.58684,0.02423 -2.23401,-0.122683 -0.48798,-0.06476 -0.24835,-0.04632 -0.71862,-0.05875 -0.35024,-0.129659 1.48339,-5.082801 1.83363,-4.953143 v 0 c 0.72335,0.132574 0.37412,0.06324 1.04806,0.206111 1.04128,0.191494 2.14621,0.01498 3.09744,0.639176 0.52961,0.314913 1.18414,0.746539 1.71468,0.871638 0.90143,0.320313 1.84404,0.506875 2.65971,1.042662 0.68694,0.115731 1.53106,0.897548 2.1629,1.194521 0.62397,0.04949 1.73015,1.211318 2.10836,1.644225 0.34458,0.432508 0.70558,0.936695 1.06789,1.15679 0.85654,0.592826 1.86268,0.989754 2.53164,1.832442 0.43709,0.560719 0.82129,1.148767 1.23991,1.72193 0.0305,0.04177 -0.0605,-0.0839 -0.0907,-0.125856 0.87741,0.635549 1.51949,1.53838 1.97051,2.51238 0.33286,0.829985 0.63924,1.659415 0.86309,2.527145 -0.34097,-0.347979 0.7924,0.924517 0.82821,1.003897 0.76012,1.28782 1.17949,2.608945 0.93143,4.125546 -0.0562,0.69185 -0.16903,1.405308 -0.0565,2.095134 0.36527,1.062611 0.74957,2.107424 0.61677,3.257465 0.002,1.016687 0.01,2.033345 0.013,3.050027 0,1.030796 -0.0104,2.061489 -0.0354,3.092008 -0.0149,0.945277 -0.0195,1.891511 0.0575,2.834691 0.0827,1.20948 0.15956,2.42742 -0.0377,3.63133 -0.18084,1.04342 -0.46884,2.0554 -0.50691,3.11876 -0.14917,0.72329 -0.47229,1.39834 -0.38284,2.14228 5e-4,1.10606 -0.0721,2.21595 -0.47046,3.2608 -0.29176,0.68691 0.13193,1.88849 -0.14673,2.64419 -0.13601,0.80119 -0.4318,1.57049 -0.36566,2.39106 -0.0603,0.94002 -0.1534,1.99714 -0.66311,2.78758 -0.0744,-0.23116 -0.0364,-0.1409 -0.0114,0.36378 0.0251,0.50623 0.0718,1.01088 0.10285,1.5167 0.0122,0.19784 0.0208,0.39589 0.0312,0.59383 0.0214,1.26356 -0.0643,2.52455 -0.42329,3.74406 -0.22319,0.77389 -0.19148,1.79529 -0.72036,2.44334 -0.0975,-0.20367 -0.038,-0.10272 -0.0213,0.3967 0.0163,0.48743 0.0541,0.97307 0.0894,1.45935 0.0133,0.18287 0.0259,0.36579 0.0388,0.54867 0.0596,1.23935 0.0237,2.47993 -0.32466,3.68136 -0.0632,0.23876 -0.23908,0.63582 -0.24381,0.89424 -0.0107,0.58763 0.12084,1.17802 0.0849,1.76733 -0.0195,1.04948 -0.10715,2.10363 -0.50107,3.08884 -0.13972,0.27676 -0.0108,-0.004 -0.0925,0.71036 -0.0672,0.58727 -0.19749,1.16436 -0.36206,1.73139 -0.10379,0.40928 0.0173,-0.10787 -0.0707,0.83034 -0.0682,0.7271 -0.23537,1.44579 -0.53814,2.11194 -0.0185,0.0222 -0.0286,0.0562 -0.0557,0.0667 -0.0142,0.006 -0.0301,-0.0483 -0.0311,-0.0332 -0.0455,0.66994 0.0311,1.34813 -7.6e-4,2.01876 0.004,1.02515 0.0139,2.05026 0.0156,3.07541 -0.003,1.01091 -0.0219,2.0215 -0.0497,3.03203 -0.0132,0.97927 0.007,1.95821 0.10061,2.93385 0.0945,1.29266 0.1794,2.6054 -0.19715,3.86588 -0.0559,0.16535 -0.10716,0.33229 -0.16751,0.49605 -0.0357,0.0969 -0.0745,0.19311 -0.12053,0.28557 -0.014,0.0281 -0.0845,0.006 -0.0865,0.037 -0.022,0.33794 0.022,0.67802 0,1.01595 0,1.01596 0,2.03191 0,3.04786 0,1.01595 0,2.0319 0,3.04784 0,1.01595 0,2.0319 0,3.04788 0,1.01595 0,2.0319 0,3.04785 0,1.01594 0,2.03189 0,3.04783 0,1.01595 0,2.0319 0,3.04785 0,1.01598 0,2.03193 0,3.04788 0,1.01595 0,2.03189 0,3.04783 0,1.01595 0,2.0319 0,3.04785 0,1.01598 0,2.03193 0,3.04788 0,1.01595 0,2.03189 0,3.04783 0,1.01595 0,2.0319 0,3.04788 0,1.01595 0,2.0319 0,3.04785 1e-5,1.01595 1e-5,2.03189 1e-5,3.04786 -1e-5,1.01592 -2e-5,2.03187 -3e-5,3.04782 1e-5,1.01595 3e-5,2.0319 8e-5,3.04785 3e-5,1.01605 3e-5,2.03208 -1.4e-4,3.04812 -1.5e-4,1.01555 -2.5e-4,2.03112 8e-5,3.04669 5.1e-4,1.01703 9.5e-4,2.03403 7.6e-4,3.05107 -7.6e-4,1.01401 -0.003,2.02802 -0.004,3.04206 5.1e-4,1.01675 0.005,2.03347 0.0109,3.0502 0.003,1.02684 9.5e-4,2.05372 -0.0228,3.08035 -0.0182,0.96538 -0.037,1.93174 0.0179,2.8964 0.0651,1.17526 0.17459,2.3552 0.0647,3.53131 -0.0975,0.72219 -0.23682,1.43196 -0.46803,2.12313 0.0774,1.29638 0.0904,2.61017 -0.41698,3.83333 -0.0436,0.0988 -0.0809,0.20063 -0.13071,0.29647 -0.0143,0.0275 -0.0306,0.0616 -0.0601,0.0708 -0.0169,0.006 -0.0314,-0.0593 -0.033,-0.0417 -0.0451,0.47471 0.008,0.95884 -0.0134,1.43443 0.0236,1.02456 0.11793,2.04393 0.17006,3.06712 0.007,1.19436 -0.10927,2.37671 -0.47527,3.5206 -0.25829,0.92744 0.0434,1.88744 -0.043,2.8443 -0.061,0.89969 -0.15834,1.82603 -0.53632,2.657 -0.0708,0.19232 0.0361,2.13028 -0.0108,2.57694 -0.0229,0.21825 -0.0632,0.43434 -0.0947,0.65151 -0.20365,0.87778 -0.53283,1.69896 -0.63207,2.6 -0.24187,0.81616 -0.40606,1.12527 -0.26725,2.0589 -0.0199,1.02258 -0.10925,2.03987 -0.41118,3.02301 -0.22804,0.98951 -0.10404,2.08328 -0.69325,2.98435 -0.16415,0.5363 -0.4476,1.25652 -0.46357,1.89903 -0.21418,1.07347 -0.58015,2.10831 -0.87356,3.16046 -0.30043,0.68854 -0.6795,1.34454 -0.79286,2.08785 -0.28145,0.94116 -0.5479,1.88719 -0.90575,2.80129 -0.47169,0.7845 -0.44476,1.78949 -0.78412,2.62403 -0.3322,0.87085 -0.69221,1.72759 -0.96639,2.61834 -0.0878,0.18758 -0.17546,0.37514 -0.2632,0.56273 -0.0572,0.0901 -0.0931,0.19809 -0.17173,0.27026 -0.0235,0.0217 -0.007,-0.12186 -0.0211,-0.0933 -0.0887,0.17869 -0.15017,0.56939 -0.31386,0.72156 -0.21793,1.02835 -0.58401,2.01328 -0.82513,3.03578 -0.32133,0.82248 -0.66211,1.63659 -0.8629,2.50013 -0.14143,0.34784 -0.35274,0.6783 -0.50324,0.99437 -0.12777,0.26833 -0.23125,0.78692 -0.49058,0.99896 -0.26637,0.69419 -0.64658,1.55747 -1.05612,2.16074 -0.0579,0.12812 -0.92638,1.85279 -1.01102,1.7486 -0.26039,0.79058 -0.52252,1.55962 -0.76533,2.35875 -0.20129,0.35378 0.0367,-0.0884 -0.24232,0.81178 -0.1727,0.5572 -0.50691,0.98395 -0.63588,1.54933 -0.41209,0.95469 -0.80895,1.90398 -1.46971,2.72389 -0.41844,0.42932 -0.63911,0.41617 -0.96693,1.02626 -0.39275,0.78545 -0.9316,1.4393 -1.28743,2.24391 -0.35196,0.59555 0.23888,-0.42416 -0.42404,0.91206 -0.31925,0.64352 -0.79951,1.22709 -1.20894,1.80985 -0.4818,0.59315 -1.02847,1.14188 -1.5796,1.66744 -0.31626,0.34518 -0.68401,0.70776 -1.04792,1.00531 -0.0328,0.0268 -0.0905,0.003 -0.1239,0.0276 -0.13365,0.1044 -0.22628,0.25691 -0.36502,0.35445 -0.0219,0.0153 -0.0308,-0.0436 -0.0462,-0.0654 -0.0867,0.0987 -0.17352,0.19741 -0.26027,0.29612 -0.006,-0.0366 0.01,-0.13638 -0.0161,-0.10975 -0.3195,0.33237 -0.39622,0.79808 -0.65606,1.18253 -0.68783,1.28 -1.21946,1.75277 -2.40779,2.51052 -0.11192,-0.2884 -1.19229,1.02123 -1.60569,0.909 -0.87254,0.60783 -1.63644,1.35522 -2.53462,1.94279 -0.30678,0.11449 -0.58748,0.30269 -0.90539,0.38113 -0.0672,0.0166 -0.0152,-0.27116 -0.17596,-0.11009 -0.33555,0.14199 -0.57598,0.46981 -0.91874,0.59224 -0.50259,0.1311 -0.88128,0.4412 -1.36028,0.63731 -0.43571,0.17836 -0.9746,0.15865 -1.35891,0.49268 -0.48069,0.10127 -0.85657,0.38263 -1.32419,0.52759 -0.2613,0.0809 -0.61027,-0.12716 -0.84212,0.18746 -0.48355,0.21556 -0.87967,0.41876 -1.41064,0.52895 -0.67723,0.14051 -1.43308,-0.0513 -2.11255,0.12309 -1.7272,0.14779 -3.4424,0.17861 -5.03688,-0.57005 -0.57055,-0.20161 -0.32746,-0.0226 -0.40049,-0.0121 -0.49415,0.0725 -1.0195,-0.068 -1.51599,-0.008 0.27397,0 0.54795,0.003 0.8219,0 0.16472,-0.003 -0.32946,-0.003 -0.49419,-0.003 -0.66667,-0.003 -1.33337,0.006 -1.99975,0.0264 -1.52956,0.047 -3.06328,0.0714 -4.58825,-0.0783 -0.28504,-0.0238 -0.70118,-0.0615 -0.99049,-0.0752 -0.14246,-0.007 -0.57019,-0.004 -0.42774,-0.0108 1.93895,-0.0958 0.68216,0.0163 0.24863,-0.0598 -0.72373,0.0681 -1.3562,0.41258 -2.06149,0.51614 -0.72454,0.1064 -1.45709,0.15023 -2.18728,0.20603 -0.16859,0.0128 -0.33818,-7e-5 -0.50728,-1.3e-4 -1.01331,-2e-4 -2.02663,0 -3.03996,0 -1.02538,0 -2.05077,0.003 -3.07616,1.8e-4 -0.99334,-0.003 -1.98669,-0.007 -2.98004,-0.005 -1.04738,0.004 -2.09468,0.0153 -3.14203,0.0206 -1.04147,0 -2.0832,-0.006 -3.12372,-0.0553 -0.6803,-0.027 -1.35325,0.007 -2.02968,0.094 -2.32649,0.16451 -4.67139,0.22561 -6.99489,-0.0138 -0.36912,-0.0948 0.97119,-5.31493 1.3403,-5.22014 z"
       inkscape:connector-curvature="0" />
    <path
       style="fill:#666666;fill-opacity:1;stroke:none;stroke-width:0.25135416;stroke-opacity:1"
       id="path5865"
       d="m 115.69059,320.05402 c 1.72146,0.0106 3.43582,0.19063 5.14798,0.35173 0.37904,0.12331 -1.36489,5.48379 -1.74393,5.36048 v 0 c -1.77235,-0.10289 -3.55218,-0.23172 -5.28219,-0.658 -0.35738,-0.13282 1.52075,-5.18702 1.87814,-5.05421 z"
       inkscape:connector-curvature="0" />
  </g>
  <g
     inkscape:groupmode="layer"
     id="layer2"
     inkscape:label="template 1">
    <path
       style="fill:#ff0000;fill-opacity:1;stroke:none;stroke-width:0.26458332;stroke-opacity:1"
       id="path860"
       d="m 61.176516,180.25141 c -1.210403,1.68482 -3.053422,2.7076 -4.596898,4.04123 -0.662352,0.5723 -1.338566,1.27684 -1.957146,1.90177 -1.390597,1.81109 -1.334365,3.94809 -1.336805,6.12823 -0.07208,4.04891 -0.276206,8.09187 -0.457496,12.13685 -0.02942,5.7522 -0.0033,11.50455 -0.01712,17.25703 -0.05862,4.98722 -0.409659,9.96685 -0.067,14.94924 0.158033,2.35027 0.936746,4.56109 1.786561,6.73397 0.805643,1.97392 1.697522,3.90556 2.351813,5.93759 0.61641,1.95746 0.964861,3.96473 1.123997,6.00652 0.15285,2.17708 -0.03311,4.30785 -0.688361,6.38667 -1.808437,3.77079 -2.126178,2.80382 -8.464147,2.99239 -0.347626,0.0103 -0.517779,-0.47668 -0.826575,-0.63667 -0.07937,-0.0411 -0.170751,0.0967 -0.257479,0.075 -0.198334,-0.0496 -0.365067,-0.1841 -0.5476,-0.27616 -3.262024,-2.37246 -5.204931,-5.84976 -6.962431,-9.38597 -2.021684,-4.69153 -3.303079,-9.70116 -3.515505,-14.8174 -0.03729,-0.89815 5.29e-4,-1.79785 7.93e-4,-2.69678 0.198041,-4.07934 0.972855,-8.09993 1.81909,-12.0862 0.816351,-3.54345 1.485686,-7.11362 1.826686,-10.73464 0.192172,-2.60578 0.330041,-5.21622 0.438081,-7.82687 0.141285,-2.6365 0.546367,-5.25195 1.050587,-7.84087 0.58344,-2.7227 1.5455,-5.34077 2.608082,-7.90759 1.078783,-2.63877 2.733429,-4.94319 4.642228,-7.03637 0.868654,-0.68835 2.540104,-2.63724 3.658804,-2.83669 0.02503,0.0266 0.08424,0.0445 0.07513,0.0799 -0.06215,0.24144 -0.206076,0.45598 -0.274744,0.69565 -0.200083,0.69835 -0.180001,0.79151 -0.224083,1.37034 -0.0046,0.0608 -0.0048,0.24236 -0.01569,0.18233 -0.03388,-0.18717 -0.03609,-0.37871 -0.05413,-0.56806 0.03916,-0.53212 -0.05225,-1.74218 0.309155,-2.07759 0.09363,0.43217 -0.122751,1.28906 0.07898,-0.32636 7.93e-4,-0.006 0.234714,-0.98424 0.0636,-0.42562 -0.243097,0.71384 0.100766,-1.10061 0.176273,-1.43391 0.419463,-1.22949 1.34207,-2.17371 2.189649,-3.12446 1.024962,-1.06913 2.283648,-1.81486 3.719071,-2.16024 2.187051,-0.36511 1.252014,-0.4017 4.545121,2.50276 0.13131,0.11581 -0.320336,0.15213 -0.452035,0.2675 -0.271328,0.23769 -0.498031,0.52194 -0.747046,0.7829 0.03837,0.0369 -0.483603,0.5796 -0.521978,0.54269 v 0 c -0.373745,0.1733 -0.721495,0.42026 -1.121233,0.51989 -0.248623,0.062 -0.966041,-0.21073 -0.767104,-0.0493 2.891126,2.34681 2.154942,2.31047 3.861814,2.20947 0.04079,0.0366 0.110463,0.0564 0.122383,0.10991 0.05645,0.25345 -1.317115,1.26795 -1.542595,1.41638 -0.20583,0.0947 -0.308928,0.12915 -0.489313,0.25773 -0.03344,0.0238 -0.106899,0.12223 -0.08884,0.0854 0.161494,-0.32982 0.444159,-0.59076 0.495229,-0.97571 0.346369,-1.92567 0.0039,-0.0631 -0.02363,0.51643 -0.05222,0.21755 -0.167884,1.11394 -0.0663,0.11774 0.03849,-0.3775 0.02808,-1.30868 0.04949,-0.16896 0.0026,0.1388 7.94e-4,0.27763 0.0013,0.41645 -0.0058,0.094 -0.06726,1.70853 -0.17666,0.77002 -0.158832,-0.52161 0.0077,0.78402 -0.03894,1.15079 -0.1325,1.04289 -0.426325,1.99613 -0.953759,2.90694 -0.773808,1.4024 -1.833041,2.59437 -2.922283,3.76131 -1.166347,1.18833 -2.411833,2.33186 -3.005042,3.93299 -0.812806,2.25092 -1.256253,4.60954 -1.963942,6.89385 -0.53876,1.64411 -1.35701,3.31836 -1.367559,5.0681 0.431035,2.94209 1.20088,5.84847 1.036457,8.85529 -0.0313,0.76012 -0.0324,1.52209 -0.09389,2.28037 -0.285234,3.51705 -1.240374,6.9244 -2.378014,10.24996 -0.267054,0.88347 -0.585512,1.82687 -0.741124,2.74323 -0.340495,2.0051 -0.06725,4.04549 0.246875,6.03226 0.864952,4.76062 1.752925,9.52276 2.909318,14.22249 0.66049,2.2929 1.374775,4.57131 2.399692,6.73195 0.05939,0.0988 0.582443,0.95975 0.57722,0.99648 -0.01984,0.13959 -0.235172,-0.21463 -0.374909,-0.19585 -9.902849,1.33083 -5.337371,-0.88023 -7.30635,2.03145 -0.02344,0.0347 -0.08304,0.0106 -0.124555,0.0159 -0.165428,-1.53032 0.178281,-3.08841 0.373901,-4.59866 0.245735,-1.34987 -0.140036,-1.81556 -0.704498,-3.08064 -0.817893,-1.84334 -1.610167,-3.69784 -2.414175,-5.54722 -1.25182,-2.76569 -2.661816,-5.47624 -3.496214,-8.40926 -0.538247,-2.10937 -0.702125,-2.54858 -1.042723,-4.77194 -0.608127,-3.96975 -0.686075,-8.00518 -0.691796,-12.01256 0.212432,-6.00904 0.719336,-11.99467 1.79601,-17.91774 0.571463,-4.04327 1.100614,-8.09218 1.726362,-12.12769 0.705733,-3.70325 1.257125,-7.53353 3.732498,-10.54402 0.451482,-0.54019 0.860692,-1.11872 1.35445,-1.62056 1.980509,-2.01293 4.657439,-3.77973 7.426684,-4.44298 0.566214,-0.13562 1.155076,-0.14752 1.732611,-0.22128 0.397357,-0.2527 3.971007,5.36677 3.57365,5.61946 z"
       inkscape:connector-curvature="0" />
    <path
       style="fill:#ff0000;fill-opacity:1;stroke:none;stroke-width:0.26458332;stroke-opacity:1"
       id="path862"
       d="m 47.262211,190.49302 c 0.01333,-0.5304 -0.03829,-1.06645 0.04003,-1.5912 0.441106,-2.95574 2.188803,-5.62505 4.279832,-7.68658 0.561247,-0.55333 1.193829,-1.02931 1.790742,-1.54396 3.02215,-2.28309 6.61407,-3.43129 10.237893,-4.33864 1.932043,-0.35335 3.797901,-0.94355 5.672828,-1.5108 2.96422,-0.89624 6.041342,-0.8592 9.107675,-0.7263 2.310789,0.33825 4.740199,1.05682 6.356218,2.8586 0.251645,0.28057 0.443119,0.60978 0.664678,0.91467 1.760548,3.23781 0.343027,5.52207 -1.816086,7.82388 -3.303382,3.31116 -7.573002,5.24241 -11.889798,6.85237 -4.310285,1.44684 -8.837753,2.01016 -13.356223,1.54764 -1.265838,-0.0742 -2.536449,-0.0902 -3.797519,-0.2227 -0.234884,-0.0247 -0.447863,-0.15187 -0.664377,-0.24622 -0.116565,-0.0508 -0.457099,-0.16548 -0.331946,-0.18794 0.893487,-0.1603 1.843834,0.0236 2.712731,-0.2392 1.63432,-0.49419 2.022342,-1.7561 2.83251,-3.07538 -0.351145,1.6592 -1.511618,2.93109 -2.747532,4.00851 -0.584504,0.61732 -1.361596,0.84323 -2.088409,1.20109 -0.05246,0.0218 -0.113808,0.029 -0.157384,0.0654 -0.256406,0.21445 -0.430475,0.51195 -0.659742,0.7552 -0.581326,0.61678 -1.180399,1.0605 -1.943163,1.4213 -3.305749,1.13882 -1.42475,0.72522 -5.968757,-6.55846 -0.182477,-0.2925 0.318408,-0.61289 0.507212,-0.90134 0.643858,-0.98368 1.384146,-1.58498 2.350455,-2.22934 1.585121,-0.75929 3.223366,-0.86594 4.842267,-0.1356 0.77969,0.35175 1.745114,0.50286 2.28623,1.1653 0.306046,0.37467 -0.103791,0.96197 -0.155686,1.44296 0.06065,0.14198 -1.947352,0.99969 -2.008,0.8577 v 0 c -0.18596,0.22384 -0.739754,0.44434 -0.557874,0.6715 0.148029,0.18489 2.876907,0.97982 2.610792,1.97792 -0.04676,0.17537 -0.178538,0.31606 -0.267806,0.47409 -0.192119,0.20208 -1.489049,1.42275 -1.77382,1.14052 -6.149771,-6.09482 -3.230959,-7.24585 -6.234911,-5.89178 -0.314674,0.21633 -0.335407,0.20871 -0.640535,0.55839 -0.322985,0.37015 -0.478962,0.82957 -0.105778,0.0358 0.607478,-1.28199 1.429427,-2.39964 2.62377,-3.2041 0.08693,-0.0549 1.071433,-0.68196 1.150305,-0.56388 0.193519,0.28973 -0.456488,0.82892 -0.17549,1.09408 0.869865,-1.47228 1.2481,-2.83698 3.062708,-3.38181 0.99501,-0.29876 2.073431,-0.1497 3.103983,-0.2811 0.167521,-0.0213 0.315838,-0.1198 0.475345,-0.17527 0.218292,-0.0759 0.87598,-0.1423 0.657905,-0.21885 -0.59536,-0.20896 -1.254106,-0.14033 -1.881158,-0.2105 3.351326,-0.62173 6.750949,-0.98459 10.065514,-1.80983 4.034756,-1.03955 7.999378,-2.31702 12.044886,-3.31021 0.08007,-0.0173 1.436818,-0.35225 1.629971,-0.27694 0.558636,0.21782 -0.353753,1.21991 -0.428008,2.12808 -0.0612,0.74846 0.134855,1.49817 0.273428,2.23624 0.04458,0.23746 0.181687,0.44777 0.272529,0.67166 -0.02551,0.0716 -0.0064,0.18539 -0.07649,0.21467 -0.480425,0.20074 -2.984412,-0.71832 -3.63755,-0.62411 -2.208834,-0.36345 -0.186449,0.0446 0.173927,-0.23627 0.23064,-0.17974 -0.580387,-0.072 -0.87109,-0.10357 -0.384474,-0.0417 -0.982533,-0.1053 -1.379776,-0.0934 -0.20183,0.006 -0.401849,0.0401 -0.602774,0.0601 -1.761635,0.30056 -3.218447,1.35727 -4.850984,2.03337 -2.582977,1.04462 -5.262759,1.85948 -7.748032,3.13317 -0.950759,0.61324 -1.233429,0.71922 -2.029431,1.53935 -1.258287,1.29641 -2.049301,2.94042 -3.239685,4.28773 -0.112853,0.54733 -7.853402,-1.04863 -7.740552,-1.59596 z"
       inkscape:connector-curvature="0" />
    <path
       style="fill:#ff0000;fill-opacity:1;stroke:none;stroke-width:0.26458332;stroke-opacity:1"
       id="path864"
       d="m 57.299092,279.10456 c -0.736103,2.52365 -2.312326,4.67212 -2.985013,7.22374 -0.208585,1.48354 0.586814,1.50177 1.690576,2.23969 0.309303,-0.0544 0.850688,0.83193 1.196721,0.69932 0.04806,-0.0185 -0.07871,-0.0835 -0.130172,-0.083 -2.403584,0.0246 -1.709172,-0.30893 -2.895256,0.55507 -0.505548,-0.17352 -0.479896,0.93927 -0.928111,0.98102 -0.362069,0.0337 -0.362548,-2.59062 -0.370718,-2.72886 -0.02731,-2.07145 -0.06348,-4.14676 0.0643,-6.21575 -0.126209,-0.83185 0.100433,0.0114 0.06826,0.0233 -0.05637,0.0209 -0.110112,-0.0482 -0.165169,-0.0724 -0.608396,-0.39232 -1.220296,-0.76954 -1.849676,-1.12575 -0.62534,-0.33475 -0.02037,0.27141 0.260414,0.28009 0.743257,0.023 1.486733,-0.0383 2.230101,-0.0575 0.143621,-0.26858 -0.302993,-0.29054 -0.296738,-0.47794 0.01815,-0.54425 0.852268,-1.22542 0.07363,-1.81272 -0.380741,-0.28717 -0.943198,-0.14179 -1.414796,-0.21267 -0.01884,0.0917 -1.316167,-0.1746 -1.297334,-0.26633 v 0 c -0.369229,-0.48731 -0.939967,-0.874 -1.107686,-1.46195 -0.387006,-1.35663 0.685778,-2.76516 1.743315,-3.42025 2.822872,-0.0846 3.493376,-0.31527 5.625029,1.26709 0.703855,0.52221 1.297119,1.15438 1.943041,1.74567 1.32769,1.2559 2.334962,2.73013 2.778805,4.53149 0.660189,2.6501 0.683544,5.38787 0.251222,8.08382 -0.559758,2.36344 -1.378656,4.59449 -3.09363,6.38622 -0.368567,0.24397 -0.67546,0.63063 -1.105701,0.73192 -2.749468,0.64717 -5.22028,0.0332 -7.494747,-1.49593 -3.169787,-2.49854 -4.427175,-4.90778 -4.692377,-8.97501 0.04105,-0.69636 0.02122,-1.39899 0.12314,-2.08907 0.528203,-3.5759 2.454217,-6.82959 5.523931,-8.76144 0.318772,-0.44228 6.573411,4.06588 6.254636,4.50813 z"
       inkscape:connector-curvature="0" />
    <path
       style="fill:#ff0000;fill-opacity:1;stroke:none;stroke-width:0.26458332;stroke-opacity:1"
       id="path866"
       d="m 61.172812,319.55356 c -0.29754,0.56361 -1.595136,2.61276 -2.163019,2.82051 -0.06376,0.0233 -0.05038,-0.12845 -0.05467,-0.19621 -0.01717,-0.27157 -0.0062,-0.5442 -0.0093,-0.8163 0.219654,-0.24947 -0.404048,-0.92921 -0.161981,-1.2878 0.171037,-0.25339 1.186722,-0.21424 0.882904,-0.24808 -0.416142,-0.0463 -0.838536,-0.0262 -1.256144,0.004 -0.181911,0.0132 0.363403,0.0318 0.545105,0.0476 -0.178903,0.27313 0.793031,-0.0954 0.73769,0.14933 -0.04262,0.18844 -0.288051,0.26024 -0.407963,0.41174 -0.273971,0.34613 -0.539319,0.70107 -0.770485,1.07715 -0.132644,0.21579 -0.140296,0.50879 -0.316312,0.69096 -0.05953,0.0616 -0.142889,-0.0945 -0.214334,-0.14182 -0.08406,-0.1493 -0.983197,-2.46385 -1.244518,-1.99215 0.987592,1.42401 4.446974,0.73136 4.15716,-1.32033 -0.06721,-0.47577 -0.655236,-0.70294 -0.982853,-1.05441 0.01148,0.2074 -2.921797,0.36986 -2.933282,0.16245 v 0 c -0.336582,-0.48739 -0.975588,-0.87082 -1.009743,-1.46217 -0.137099,-2.37341 2.517886,-2.32023 4.019098,-2.39167 0.803375,-0.0382 1.772861,0.70234 2.386962,1.08723 1.777164,1.76162 2.613155,3.33737 2.625831,5.87737 -0.02426,2.8072 -0.836499,4.42865 -3.446455,5.52148 -2.521204,0.70554 -6.180129,0.7868 -8.204954,-1.27666 -0.519125,-0.52904 -0.850468,-1.21415 -1.275704,-1.82124 -0.159348,-0.71022 -0.426794,-1.40456 -0.478049,-2.13063 -0.207034,-2.93288 1.751467,-5.41399 4.218974,-6.6951 0.352457,-0.37872 5.708528,4.60576 5.356072,4.98449 z"
       inkscape:connector-curvature="0" />
    <path
       style="fill:#ff0000;fill-opacity:1;stroke:none;stroke-width:0.26458332;stroke-opacity:1"
       id="path870"
       d="m 170.21547,390.20771 c -0.31059,-0.58825 -0.67383,-1.15155 -0.93175,-1.76472 -1.23466,-2.93521 -1.74652,-6.14537 -2.33127,-9.25177 -2.70937,-14.39291 1.37788,7.06242 -1.51974,-8.10974 -1.63517,-8.57697 -3.75327,-17.05229 -5.44311,-25.61693 -0.47689,-3.11833 -1.02219,-6.27055 -0.63979,-9.43234 0.16106,-1.33163 0.32234,-1.7031 0.68901,-2.97419 0.25811,-0.52411 0.44281,-1.09132 0.77434,-1.57239 1.78635,-2.59204 4.82967,-3.12703 7.77315,-2.38379 3.25129,1.06852 5.87183,3.39934 7.98276,6.03713 0.66856,0.83542 1.25588,1.73273 1.88382,2.59911 3.48842,5.66536 5.80104,12.03119 6.26816,18.69834 0.0896,1.27847 0.0391,2.56294 0.0587,3.84443 -0.066,5.05478 -1.63441,9.85797 -2.73727,14.73453 -0.52926,2.24185 -0.44073,4.55288 -0.57067,6.83626 -0.082,1.32299 -0.34121,2.61834 -0.62434,3.90929 -0.28197,0.93798 -0.38091,-1.08844 -0.55475,-1.1385 -4.8801,-1.40528 -8.54358,0.36584 -6.02765,-0.79131 5.32927,2.12902 7.57706,1.55985 3.93015,3.65617 0.0137,0.12866 -1.80576,0.3216 -1.8194,0.19293 v 0 c -0.45955,-0.21243 -0.93971,-0.38505 -1.37866,-0.63733 -1.47507,-0.84777 -5.60317,-7.06448 5.00155,1.01746 2.14742,0.45103 -4.444,0.35192 -6.58122,-0.14518 -0.50783,-0.11811 -0.31035,-0.99557 -0.45606,-1.49619 -0.0985,-0.3383 -0.13945,-0.6939 -0.17658,-1.0427 -0.0692,-1.14895 -0.14001,-2.29767 -0.23334,-3.44495 -0.21372,-2.63586 -0.35697,-5.2795 -0.31661,-7.9252 0.16286,-4.36703 0.7121,-8.73728 0.31844,-13.10806 -0.11533,-0.96198 -0.19799,-1.92842 -0.34598,-2.88592 -0.82257,-5.32202 -2.44232,-10.48639 -4.12856,-15.58557 -0.62239,-1.73003 -1.26555,-3.4375 -1.95211,-5.14178 -0.0651,-0.16151 -0.13572,-0.32179 -0.18168,-0.48975 -0.009,-0.0316 0.052,-0.0842 0.0214,-0.0958 -0.0443,-0.0167 -0.0876,0.0361 -0.13137,0.0541 -0.54044,0.14118 -2.80316,0.70811 1.60043,-0.014 0.0751,-0.0122 0.0136,-0.15491 0.0468,-0.22336 0.0732,-0.15066 0.18446,-0.27985 0.26805,-0.425 0.16267,-0.28247 0.33592,-0.56042 0.47044,-0.85733 0.10587,-0.23366 0.16538,-0.48567 0.24807,-0.72851 0.051,-0.0537 0.0849,-0.1905 0.15296,-0.16115 0.22732,0.098 0.87906,1.32328 0.88273,1.3299 1.24137,2.23287 2.22762,4.58515 3.15598,6.96328 2.96241,8.78628 5.18268,17.84783 5.90153,27.11645 0.22423,4.04974 0.35773,8.05575 0.20279,12.11123 -0.0573,1.50074 -0.18705,3.76705 -0.42048,5.30934 -0.0854,0.56414 -0.2379,1.11604 -0.35685,1.67407 0.0961,0.54956 -7.67585,1.90915 -7.77198,1.35959 z"
       inkscape:connector-curvature="0" />
    <path
       style="fill:#ff0000;fill-opacity:1;stroke:none;stroke-width:0.26458332;stroke-opacity:1"
       id="path872"
       d="m 172.07068,389.80864 c -2.46519,-0.24747 -4.76721,-1.19047 -7.12197,-1.88601 -1.77692,-0.52488 -2.062,-0.5556 -3.83749,-0.94596 -0.22618,-0.24646 -5.53655,-0.58224 -1.7306,-0.34907 0.36431,0.0222 -0.72926,-0.0333 -1.09413,-0.0426 -1.13809,-0.0291 -0.84524,-0.0254 -1.91217,0.0561 -0.46265,-0.0212 -1.87765,0.57968 -2.15484,0.094 0.0773,-0.20355 0.18968,-0.39704 0.23204,-0.61063 0.12103,-0.61021 0.50052,-1.2768 0.25572,-1.8487 -0.57744,-1.34898 -1.68237,-2.40583 -2.57531,-3.57026 -0.0338,-0.044 -0.21358,-0.0342 -0.1664,-0.005 0.16588,0.10277 0.3644,0.14232 0.5365,0.23429 0.40519,0.21653 0.7954,0.46 1.1931,0.69001 0.20418,0.12689 0.39576,0.27678 0.61255,0.38068 0.59308,0.28421 1.36386,0.35602 1.98887,0.52985 0.6193,0.17225 1.85247,0.5791 2.43997,0.76928 2.25968,0.71961 4.49124,1.53866 6.81477,2.033 0.19859,0.0122 0.7945,0.0271 0.59577,0.0367 -4.10664,0.19785 1.00689,-0.16135 1.6766,-0.22281 1.49336,-0.023 3.01086,-0.0313 4.49543,0.10874 0.50687,0.0478 1.11409,0.4961 1.52218,0.75666 1.57827,1.96736 0.59584,0.48821 -0.44677,0.29906 -0.1478,-0.0268 -0.0231,0.30705 -0.09,0.44156 -0.19883,0.40029 -0.46537,0.76319 -0.69805,1.1448 0.21648,-0.0613 1.08391,3.00019 0.86743,3.06152 v 0 c -0.56321,0.39135 -1.11469,0.80013 -1.68963,1.17404 -0.24414,0.15877 -0.47611,0.45992 -0.76489,0.42222 -0.59088,-0.0771 -1.04185,-0.83272 -1.62965,-0.73486 -0.36897,0.0615 0.45292,0.59542 0.67938,0.89313 0.0979,0.088 0.23032,0.14875 0.29385,0.26414 0.0701,0.12737 -0.37968,0.2549 -0.31523,0.26426 2.8898,0.41952 1.65796,-0.0833 0.56022,0.19577 -2.75753,0.22275 -5.49311,0.78359 -8.28035,0.45714 -3.22571,-0.2718 -6.36032,-1.05547 -9.21155,-2.63805 -1.37456,-0.81325 -3.63567,-2.11423 -4.50111,-3.52915 -0.023,-0.0377 0.0864,0.018 0.12964,0.0269 0.29765,0.17415 0.60124,0.33856 0.89295,0.52248 0.0864,0.0545 0.32482,0.13557 0.23929,0.19139 -0.14455,0.0943 -0.39887,0.1155 -0.51774,-0.01 -2.82889,-2.97871 -3.77015,-3.33415 -2.24547,-6.69756 1.17799,-1.89857 2.92869,-3.17214 5.03302,-3.92488 1.45338,-0.50348 3.03073,-1.14483 4.58609,-1.21672 3.1471,-0.14546 6.25564,-0.004 9.32243,0.71065 3.63407,1.12932 7.50139,2.52301 10.24007,5.30471 0.32207,0.32713 0.56373,0.72469 0.8456,1.08704 0.43005,0.35851 -4.64011,6.44041 -5.07016,6.0819 z"
       inkscape:connector-curvature="0" />
    <path
       style="fill:#ff0000;fill-opacity:1;stroke:none;stroke-width:0.26458332;stroke-opacity:1"
       id="path874"
       d="m 173.14098,395.4345 c -1.03019,0.79483 -2.45106,0.42918 -3.54563,0.98232 -0.16308,0.0824 0.56268,0.32033 0.39134,0.38383 -0.73293,0.27154 -1.54795,0.21817 -2.32134,0.33126 -2.72641,0.3987 -2.11803,0.31125 -4.82626,0.76607 -2.68214,0.60251 -5.39564,1.2473 -7.93073,2.33616 -0.91436,0.39273 -1.96439,0.94764 -2.85494,1.40349 -1.40444,0.8809 -2.97829,1.63377 -4.15496,2.83096 -0.14786,0.1166 -0.25289,0.0647 -0.29787,-0.1243 -0.83887,-3.52417 -0.79063,-1.80319 -6.59337,-3.07848 1.617,-0.87609 1.12487,-0.73618 4.14777,-0.83074 0.52017,-0.0164 1.00143,0.33517 1.52166,0.34949 0.3495,0.01 0.69485,-0.0792 1.04314,-0.10988 0.23732,-0.0254 0.47432,-0.0539 0.71198,-0.076 0.58924,-0.0547 2.35446,-0.007 1.77186,-0.11089 -0.44443,-0.0792 -0.90697,0.0316 -1.35393,-0.0318 -0.53407,-0.0758 1.07721,-0.0633 1.61425,-0.11395 1.92159,-0.23993 3.27287,-1.67976 4.65133,-2.9087 2.77961,-2.65509 5.80803,-5.00547 9.02457,-7.10208 2.36761,-1.50228 4.93603,-2.59474 7.64443,-3.29142 2.25484,-0.53419 3.19325,0.76177 4.72597,2.23534 0.0989,-0.0535 0.8551,1.34543 0.75618,1.3989 v 0 c -0.004,1.50961 0.22204,2.0601 -0.96771,3.0171 -0.21238,0.17084 -0.49261,0.43344 -0.7858,0.45804 -0.37661,0.16952 -0.71662,0.51012 -1.0174,0.77505 -1.05166,0.92628 -2.05546,1.90685 -3.15287,2.78095 -2.94423,2.31879 -6.09617,4.31131 -9.22569,6.36638 -2.52463,1.77671 -5.00859,3.72949 -7.98373,4.69223 -3.19365,0.78105 -6.60092,0.88455 -9.77738,-0.0446 -0.82538,-0.29734 -0.77465,-0.25193 -1.51572,-0.61436 -0.0893,-0.0437 -0.35716,-0.12626 -0.25981,-0.14613 0.13059,-0.0266 0.24818,0.13322 0.38093,0.12144 2.82018,-0.25029 2.16252,0.12825 3.32068,-0.70723 -2.16921,-0.35914 -4.43191,-0.35229 -6.50763,-1.07746 -0.47024,-0.16428 -0.40827,-0.91173 -0.55171,-1.38874 -0.39021,-1.29776 -0.18309,-2.69973 0.17984,-3.96881 1.2034,-3.10602 2.81795,-5.19723 5.44195,-7.28765 4.15426,-3.14439 8.38919,-5.17517 13.50874,-6.29545 3.01023,-0.58068 5.63844,-0.98359 8.72266,-0.89709 2.93531,0.0823 5.64469,-0.0993 8.22209,1.33064 0.54066,0.15253 -1.61623,7.79859 -2.15689,7.64609 z"
       inkscape:connector-curvature="0" />
    <path
       style="fill:#ff0000;fill-opacity:1;stroke:none;stroke-width:0.26458332;stroke-opacity:1"
       id="path876"
       d="m 127.53281,406.69662 c -0.5936,0.6464 -1.31296,1.15541 -2.04472,1.63166 -0.42215,0.27477 -0.63356,0.39444 -0.66967,0.3244 -0.0589,-0.11419 0.009,-0.2568 0.0134,-0.38523 0.35851,-0.29898 -0.40414,-1.67579 -0.18529,-1.97408 0.10255,-0.13976 1.58811,-0.18079 1.73899,-0.19209 2.17725,-0.0368 -0.10944,-0.10036 -0.15553,-0.0676 -0.25353,0.18013 0.62129,0.0305 0.93179,0.0483 0.31493,0.018 0.98911,-0.0246 1.31317,0.13041 -0.49214,0.83325 -0.4224,0.54041 -0.88216,-0.0536 -0.0268,0 -0.0746,-0.0249 -0.0805,0.003 -0.24933,1.11104 1.4408,1.04304 1.97893,0.60463 0.25744,-0.20974 -0.13669,-0.6499 -0.20503,-0.97483 -0.22377,0.19095 -2.92452,-2.97368 -2.70075,-3.16466 v 0 c 0.27602,-0.53223 0.29946,-1.31378 0.82807,-1.5967 0.82697,-0.4426 1.85514,-0.34425 2.79309,-0.34132 1.84362,0.006 3.18139,1.75369 3.98398,3.17358 0.94352,2.70959 0.7963,5.48386 -1.3908,7.57983 -0.3849,0.26747 -0.74616,0.57267 -1.15469,0.8024 -2.31554,1.30212 -5.14222,1.14816 -7.68435,0.95211 -2.52273,-0.4907 -4.96103,-1.25709 -5.98514,-3.93756 -0.23318,-0.61031 -0.24092,-1.28429 -0.36138,-1.92643 0.0737,-0.57563 0.0749,-1.16525 0.2211,-1.72686 0.66934,-2.57082 2.82357,-4.36567 5.27133,-5.12662 0.43975,-0.31297 4.86588,5.90595 4.42613,6.2189 z"
       inkscape:connector-curvature="0" />
    <path
       style="fill:#ff0000;fill-opacity:1;stroke:none;stroke-width:0.26458332;stroke-opacity:1"
       id="path878"
       d="m 173.21514,308.15777 c -0.88718,1.57734 -2.10212,3.00725 -3.3857,4.28517 0.0597,-0.49097 -0.31123,-1.03355 -0.28428,-1.5081 0.0222,-0.39087 0.74648,-0.40204 0.65037,-0.43471 -0.31749,-0.10795 -0.67033,-0.022 -1.00549,-0.0331 0.693,-0.0228 0.48672,-0.004 1.04475,-0.0559 0.0309,-0.003 0.12212,-0.0201 0.0925,-0.0108 -0.3024,0.0957 -0.23711,-0.27723 -0.24705,-0.46993 0.0198,-0.21545 -0.20856,-1.79811 -0.1692,-1.82682 0.0657,-0.0479 0.0633,0.15053 0.10708,0.21897 0.18003,0.28128 0.37556,0.55232 0.56334,0.82849 0.81725,0.22109 1.61209,0.55486 2.45175,0.66323 0.13878,0.018 0.30442,-0.17208 0.28271,-0.31033 -0.0291,-0.18555 -0.26025,-0.27096 -0.39458,-0.40224 -0.2481,-0.24252 -0.50171,-0.47932 -0.75257,-0.71895 -0.13907,0.14949 -2.25328,-1.81724 -2.11421,-1.96676 v 0 c -0.0275,-0.41984 -0.14834,-0.84402 -0.0824,-1.25957 0.35915,-2.26227 3.65212,-1.0744 4.67487,-0.71784 0.38398,0.396 0.8127,0.75303 1.15193,1.18795 1.19907,1.53733 1.15791,3.72581 0.8964,5.53495 -0.13716,0.46709 -0.2226,0.95258 -0.41148,1.40126 -0.93054,2.21054 -2.83429,3.60169 -5.16555,3.9851 -1.39541,0.0429 -2.75957,0.28694 -4.10618,-0.16375 -2.33257,-0.78068 -3.56763,-2.75532 -3.62999,-5.15522 0.0567,-0.49787 0.0593,-1.00492 0.1701,-1.4936 0.61071,-2.69296 2.56301,-4.88371 5.06463,-5.96249 0.31005,-0.32515 4.90824,4.05971 4.59818,4.38486 z"
       inkscape:connector-curvature="0" />
    <path
       style="fill:#ff0000;fill-opacity:1;stroke:none;stroke-width:0.26458332;stroke-opacity:1"
       id="path880"
       d="m 177.55769,281.67573 c 0.008,0.4163 -0.77952,3.2294 -1.11675,3.32695 -0.10197,0.0295 -0.0828,-0.19561 -0.12951,-0.29094 -0.15061,-0.30734 -0.30822,-0.61118 -0.46233,-0.91678 -0.0599,-0.0693 -1.98375,-0.0103 -1.70373,-0.7294 0.0829,-0.21283 0.1055,-0.18674 0.0982,-0.37909 -0.24113,0.29866 0.18425,0.5648 0.37969,0.7481 0.26779,0.1128 0.53558,0.22561 0.80337,0.33841 -0.30825,-0.10483 1.17406,-4.46413 1.48231,-4.3593 v 0 c 0.30783,0.11644 0.61566,0.23291 0.92349,0.34935 1.29801,1.04574 1.89732,2.37625 1.63678,4.07646 -0.47158,1.59893 -1.0654,2.62999 -2.62566,3.40456 -0.37149,0.18441 -0.74945,0.43407 -1.16416,0.43907 -0.91506,0.0111 -1.81147,-0.26151 -2.7172,-0.39227 -0.40714,-0.45133 -0.89998,-0.83809 -1.2214,-1.354 -1.00693,-1.61616 -0.56025,-3.88107 0.42737,-5.37427 0.23871,-0.36092 0.56918,-0.65191 0.85377,-0.97788 0.14786,-0.32073 4.68366,1.7703 4.5358,2.09103 z"
       inkscape:connector-curvature="0" />
    <path
       style="fill:#ff0000;fill-opacity:1;stroke:none;stroke-width:0.26458332;stroke-opacity:1"
       id="path882"
       d="m 168.85988,170.08519 c 0.47413,-0.27926 0.91811,-0.61756 1.42238,-0.8378 3.58817,-1.56709 7.95834,-1.35634 11.70572,-0.72292 0.67522,0.11413 1.28686,0.46879 1.93028,0.70319 2.62648,1.32052 4.39221,3.47629 4.82534,6.39245 0.0166,0.10037 0.0165,0.20497 0.0497,0.30112 0.0158,0.0457 -0.0421,-0.31864 0.0645,-0.27435 0.11525,0.0479 0.19153,0.16143 0.27425,0.25487 0.45966,0.51922 0.54563,0.73992 0.94089,1.38863 1.21137,2.36099 1.34692,4.95887 1.18993,7.55354 -0.11919,1.53609 -0.50984,3.02973 -0.585,4.56921 0.0262,0.95965 0.0411,1.91687 -0.0729,2.8714 -0.0729,0.4888 -0.0337,0.98265 -0.0696,1.47286 -0.0568,0.4564 -0.0949,-1.05103 0.0381,0.10909 0.0779,0.34958 -0.0273,0.51677 -0.23286,0.76831 -0.42718,0.61533 -0.2194,1.40648 -0.51209,2.0626 -0.10415,0.23345 -0.26766,0.4356 -0.4015,0.65341 -0.91513,0.9651 -0.38169,0.5047 -1.63915,1.33488 7e-5,0.17067 -2.41354,0.17175 -2.41362,0.001 v 0 c -1.25832,-0.82821 -0.72429,-0.36877 -1.64082,-1.332 -0.1342,-0.2176 -0.29814,-0.41947 -0.40258,-0.65281 -0.30074,-0.67187 -0.10007,-1.48365 -0.51086,-2.12659 -0.0968,-0.16607 -0.27378,-0.32413 -0.22041,-0.52447 0.16262,0.38257 0.0396,-0.46798 0.0243,-0.61228 0.004,-0.32518 0.0626,-0.64494 -0.0272,-0.96748 -0.21136,-1.01961 -0.26367,-2.06193 -0.27321,-3.10124 -0.04,-1.63464 -0.0764,-3.27196 -0.007,-4.90617 0.0513,-1.3694 0.11227,-2.73837 0.0909,-4.10849 -0.20585,-1.12369 -0.9508,-2.08848 -1.17929,-3.21484 -0.0302,-0.0423 -0.0476,-0.15612 -0.0907,-0.12706 -0.1271,0.0855 0.0401,0.30461 0.0407,0.45782 0.002,0.53213 -0.85666,0.35173 -1.15382,0.42257 -0.40848,0.0173 -0.81695,0.0345 -1.22542,0.0517 0.3286,0.031 1.3154,0.0757 0.9858,0.0931 -0.60639,0.032 -1.21406,-0.0316 -1.82104,-0.049 -1.83322,-0.0525 -3.68167,-0.042 -5.49233,-0.3751 -0.5324,0.25534 -4.14355,-7.27394 -3.61115,-7.52928 z"
       inkscape:connector-curvature="0" />
    <path
       style="fill:#ff0000;fill-opacity:1;stroke:none;stroke-width:0.26458332;stroke-opacity:1"
       id="path888"
       d="m 171.75266,178.40919 c -1.66793,0.16842 -4.34246,0.22422 -5.80622,-0.75532 1.93824,-0.23676 3.5508,0.0886 4.50765,-2.2218 0.43893,-1.05985 0.23123,-2.28519 0.25268,-3.43213 0.003,-0.1853 -0.30816,-0.39396 -0.17864,-0.52652 0.11741,-0.12015 0.2121,0.26313 0.2912,0.41133 0.17103,0.32043 0.30432,0.65963 0.45648,0.98944 0.56716,1.78128 0.19049,3.59649 0.094,5.40917 -0.042,1.59347 -5.3e-4,3.18703 -0.0361,4.78053 -2.1e-4,0.30857 0.0465,0.8735 -0.0213,1.09851 0.68646,1.05792 0.97933,2.23486 1.15438,3.46843 0.0425,0.94637 0.0529,1.92994 -0.31284,2.82063 -2.52239,1.2907 -5.63645,-0.60092 -8.43962,-1.01401 -0.10621,-0.0157 0.17558,-0.12881 0.27672,-0.16481 0.34667,-0.1234 0.50775,-0.0181 0.8778,0.0641 0.86639,0.0469 1.73278,0.0938 2.59917,0.14073 0.004,-0.0748 1.06151,-0.0252 1.058,0.0496 v 0 c 0.86174,0.13023 1.72347,0.26047 2.58521,0.3907 4.50782,1.36812 -6.71273,3.1426 -7.4319,-0.2292 -0.10177,-0.52217 -0.10568,-1.05249 -0.0229,-1.57852 0.12876,-0.20975 0.51098,0.60987 0.0584,-0.0861 -0.93224,-1.36677 -1.54666,-2.88435 -1.7316,-4.54243 -0.2584,-2.15367 -0.32687,-4.33697 0.11647,-6.47445 0.0378,-0.15835 0.5745,-2.46382 0.8249,-2.32176 0.30507,0.17308 -0.2594,1.11758 0.32315,1.00138 0.0825,0.1656 0.16807,0.32972 0.24753,0.49681 0.14555,0.30609 -0.46544,-0.55117 -0.49367,-0.88892 -0.10377,-1.24167 -0.3431,-2.56988 0.0937,-3.73683 0.98588,-2.63411 3.07803,-2.25643 5.23922,-2.5409 2.42155,-0.34821 4.93354,-0.28403 7.09371,1.00693 0.59293,0.2599 -3.08258,8.64523 -3.67551,8.38533 z"
       inkscape:connector-curvature="0" />
    <path
       style="fill:#ff0000;fill-opacity:1;stroke:none;stroke-width:0.26458332;stroke-opacity:1"
       id="path890"
       d="m 155.96423,170.40669 c 2.96052,-1.33981 6.30323,-1.2434 9.4654,-0.88006 1.97968,-0.75982 3.83476,0.71245 5.76465,0.61246 1.0186,-0.0868 0.11911,0.003 -1.36664,-0.0699 -0.12752,-0.006 0.25441,-0.0237 0.38204,-0.0274 0.36877,-0.0108 0.74246,-0.007 1.11144,-9e-5 1.26584,-0.051 2.53428,0.002 3.80247,-0.0102 3.67807,-0.35132 0.92836,10.43803 -2.21294,8.93608 -1.49885,-2.93024 -1.14785,-2.19791 2.89252,-9.29658 0.35153,-0.61762 1.22066,0.9232 1.39515,1.61211 0.33895,1.33822 0.72632,2.93084 0.062,4.14096 -0.3641,0.66326 -1.51095,-0.0836 -2.26643,-0.12532 -0.0773,0.11374 -1.68583,-0.97926 -1.60854,-1.093 v 0 c -0.57376,-0.25298 -1.44162,-1.32017 -1.72127,-0.75893 -0.56176,1.12739 -0.10317,2.55488 0.21972,3.77238 0.16038,0.60476 0.91153,2.03754 1.16996,1.46774 5.37932,-11.8605 -0.0972,-7.14787 2.44962,-9.32536 3.34664,-1.17642 0.85151,9.37425 -2.54928,8.94369 -0.74286,-0.0168 -1.95681,-0.0531 1.47174,-0.007 0.75945,0.0102 -1.45781,0.13334 -0.9034,6e-5 -1.51219,0.0633 -3.03803,-0.0118 -4.54613,-0.0722 -0.74635,-0.0591 -4.46671,0.27705 -1.15668,0.47799 -3.18045,0.43961 -6.47332,0.52385 -9.56463,-0.46856 -0.55357,0.16198 -2.84435,-7.66677 -2.29077,-7.82875 z"
       inkscape:connector-curvature="0" />
    <path
       style="fill:#ff0000;fill-opacity:1;stroke:none;stroke-width:0.26458332;stroke-opacity:1"
       id="path892"
       d="m 182.85432,180.53753 c -1.92119,-0.51709 -3.53238,-1.68799 -4.78731,-3.20548 -0.58568,-0.41967 -0.19326,0.18002 -0.2635,0.35025 -0.0291,0.0706 -0.48037,0.14963 -0.48355,0.15033 -0.80868,-0.0886 -1.67094,-0.22452 -2.41355,-0.57789 -0.008,0.004 -0.20452,0.0603 -0.15078,0.14474 1.21768,1.91368 3.47958,-2.91383 5.29122,-4.2787 0.15962,-0.12026 0.32973,0.22589 0.49523,0.33792 0.19118,0.12941 0.3832,0.25758 0.57481,0.38637 2.04115,1.55349 3.64896,3.54969 5.16687,5.59414 1.57897,2.2093 2.63529,4.70328 3.19273,7.35151 0.36767,1.69747 0.3388,3.42183 0.24431,5.14242 -0.0733,1.156 0.15171,2.29886 0.245,3.44857 0.0689,1.35514 0.0871,2.71445 -0.031,4.067 -0.0769,0.92563 -0.0467,1.85684 -0.033,2.7847 -0.002,0.69447 -0.0979,1.3838 -0.12207,2.07696 -0.002,0.65155 0.0394,1.29961 0.0965,1.94815 0.0332,1.02621 -0.0417,2.0661 -0.42687,3.02685 -0.23003,0.27485 -0.0718,0.059 -0.28188,0.75194 -3.01194,-0.10063 -6.029,-0.0998 -9.03584,-0.30189 -0.0145,-0.001 0.0403,-0.6005 0.0437,-0.60329 2.09921,-1.71494 4.28704,-3.31845 6.43056,-4.97768 -2.55136,-0.104 -2.45312,-0.61188 -3.89117,0.22549 -0.18442,0.10738 -0.32022,0.36182 -0.53348,0.35394 -0.10589,-0.004 -0.0356,-0.20996 -0.0353,-0.31592 0.25124,-1.22952 0.4049,-2.47567 0.55359,-3.72096 0.11211,-1.09403 0.28273,-2.18039 0.39727,-3.27372 0.0545,-0.73721 0.0576,-1.2144 0.81555,-1.46386 0.1883,-0.0225 0.37659,-0.045 0.56489,-0.0675 -0.0246,-0.46672 6.57574,-0.81508 6.60038,-0.34836 v 0 c 0.18924,-0.007 0.37849,-0.0147 0.56773,-0.0221 0.93006,0.17649 0.88924,1.08253 0.97817,1.88012 0.0901,1.29792 0.0871,2.59355 -0.0328,3.89017 -0.0494,1.95774 -0.10448,3.93562 -0.7367,5.81163 -0.73837,1.87467 -1.62259,3.60838 -3.36117,4.76673 -0.4716,0.31422 -0.952,0.69569 -1.5131,0.77512 -1.28478,0.18188 -2.59516,-0.007 -3.89274,-0.01 1.95982,-1.69057 3.92642,-3.37331 5.87946,-5.07171 0.0312,-0.0271 0.0289,-0.0999 0.0702,-0.10226 0.0502,-0.003 0.17072,0.089 0.12043,0.0911 -2.95488,0.12398 -5.91209,0.18395 -8.86813,0.27592 -0.0437,0.14293 -0.0171,0.33202 -0.131,0.4288 -0.0752,0.0639 -0.0177,-0.19658 -0.0266,-0.29487 0.004,-0.57643 0.0389,-1.15071 0.18287,-1.71145 0.0572,-0.63584 0.10216,-1.27124 0.0954,-1.91028 -0.0307,-0.71621 -0.13414,-1.42862 -0.12866,-2.14688 0.0215,-0.90541 0.0782,-1.81462 0.004,-2.7183 -0.13643,-1.3283 -0.15955,-2.66583 -0.14808,-4.00033 0.0694,-1.41558 0.26977,-2.80698 0.49142,-4.20605 0.12408,-0.94531 0.18841,-1.88954 0.005,-2.83398 -0.0406,-0.16459 -0.2259,-0.94022 -0.29012,-1.10611 -0.44613,-1.15247 -1.37432,-2.06084 -2.08816,-3.04007 -1.50862,-1.96088 -3.07946,-3.93414 -4.00981,-6.25069 -0.0704,-0.21369 -0.33538,-0.8964 -0.24314,-1.00168 0.33722,-0.38489 3.94353,-7.2146 5.15262,-4.35601 -0.16288,0.072 -0.15112,0.21531 -0.19196,0.32879 0.63813,0.44071 1.30631,0.84091 1.92671,1.3027 1.86639,0.72095 3.56167,1.86122 4.56604,3.63901 0.18289,0.18398 -2.41895,2.77041 -2.60183,2.58643 z"
       inkscape:connector-curvature="0" />
    <path
       style="fill:#ff0000;fill-opacity:1;stroke:none;stroke-width:0.26458332;stroke-opacity:1"
       id="path896"
       d="m 189.70314,229.01416 c -0.18671,1.60803 -0.67111,3.92938 -1.77993,5.18344 -0.0561,-0.21225 -0.0679,-0.44159 -0.1684,-0.63677 -0.28227,-0.54794 -0.43727,-1.26474 -0.97045,-1.57399 -1.43687,-0.83339 -3.79033,-0.0206 -1.79838,-0.86339 -0.17218,0.0937 1.14307,-0.43407 1.0647,-0.30921 -0.0824,0.13125 -0.24038,0.19748 -0.34408,0.31264 -0.35228,0.3912 -0.41371,0.51506 -0.65796,0.90227 -0.0305,0.0436 -0.0422,0.11078 -0.0915,0.13087 -0.0583,0.0238 -0.12788,-0.34132 0.0169,-0.5663 0.15948,-0.24786 0.74855,-0.79036 0.89974,-0.93769 0.34342,-0.2012 0.68684,-0.4024 1.03025,-0.60359 0.0238,-0.17407 2.48552,0.16288 2.46169,0.33695 v 0 c 0.30941,0.007 0.61883,0.0139 0.92824,0.0208 0.20336,0.0368 0.42044,0.0282 0.61009,0.11028 1.09774,0.47526 0.63456,2.1426 0.49972,2.99873 -0.5538,1.35632 -1.38711,2.73327 -2.92503,3.05958 -3.19805,1.19489 -6.1504,1.23374 -6.9961,-2.83791 -0.29163,-2.62105 0.36645,-5.17741 2.18249,-7.15563 0.17175,-0.42696 6.20978,2.00196 6.03803,2.42891 z"
       inkscape:connector-curvature="0" />
  </g>
</svg>
