<?xml version="1.0" encoding="UTF-8" standalone="no"?>
<!-- Created with Inkscape (http://www.inkscape.org/) -->

<svg
   xmlns:dc="http://purl.org/dc/elements/1.1/"
   xmlns:cc="http://creativecommons.org/ns#"
   xmlns:rdf="http://www.w3.org/1999/02/22-rdf-syntax-ns#"
   xmlns:svg="http://www.w3.org/2000/svg"
   xmlns="http://www.w3.org/2000/svg"
   xmlns:sodipodi="http://sodipodi.sourceforge.net/DTD/sodipodi-0.dtd"
   xmlns:inkscape="http://www.inkscape.org/namespaces/inkscape"
   width="1024"
   height="1024"
   viewBox="0 0 270.93333 270.93333"
   version="1.1"
   id="svg8"
   inkscape:version="0.92.4 (5da689c313, 2019-01-14)"
   sodipodi:docname="foot.svg"
   inkscape:export-filename="C:\Users\panu-\PycharmProjects\nextgame\data\images\bodies\speedo\foot.png"
   inkscape:export-xdpi="7.2179537"
   inkscape:export-ydpi="7.2179537">
  <defs
     id="defs2" />
  <sodipodi:namedview
     id="base"
     pagecolor="#ffffff"
     bordercolor="#666666"
     borderopacity="1.0"
     inkscape:pageopacity="0.0"
     inkscape:pageshadow="2"
     inkscape:zoom="0.50581613"
     inkscape:cx="500.67306"
     inkscape:cy="527.89444"
     inkscape:document-units="mm"
     inkscape:current-layer="layer3"
     showgrid="false"
     units="px"
     width="1024px"
     inkscape:window-width="1920"
     inkscape:window-height="1017"
     inkscape:window-x="-8"
     inkscape:window-y="-8"
     inkscape:window-maximized="1"
     inkscape:pagecheckerboard="true" />
  <metadata
     id="metadata5">
    <rdf:RDF>
      <cc:Work
         rdf:about="">
        <dc:format>image/svg+xml</dc:format>
        <dc:type
           rdf:resource="http://purl.org/dc/dcmitype/StillImage" />
        <dc:title />
      </cc:Work>
    </rdf:RDF>
  </metadata>
  <g
     inkscape:groupmode="layer"
     id="layer2"
     inkscape:label="color"
     style="display:inline"
     sodipodi:insensitive="true">
    <path
       style="fill:#ffccaa;fill-opacity:1;stroke:none;stroke-width:1.3979522;stroke-opacity:1"
       d="m 314.32087,378.5767 c -19.7348,5.27248 -38.06965,15.22889 -56.29101,24.34899 -22.48433,14.79253 -46.23538,29.49775 -63.17384,50.81278 -1.94998,4.64378 1.13307,10.34345 -3.55495,14.16519 -11.64392,13.42635 -26.75895,24.15115 -34.19062,40.84659 -10.39057,15.37598 -20.04605,31.53119 -23.85995,49.94543 -6.79632,22.76649 -12.42303,47.2192 -7.92895,70.93904 4.83005,22.69507 23.51787,40.52173 45.85651,45.91484 28.00694,6.33578 56.47137,10.84807 84.98581,14.33908 25.78312,1.71786 51.8608,1.76817 77.56347,0.55098 20.84493,-7.72856 41.97223,-13.07883 64.10761,-14.67019 17.66556,-2.56536 34.62953,-7.389 52.59963,-6.80425 30.71114,-2.9435 61.1184,-8.73113 91.52588,-13.34548 17.97464,-5.00054 35.84847,-10.10972 54.648,-11.32747 53.51322,-5.11777 107.68692,-4.86825 161.43466,-2.75793 25.93759,2.36999 52.29092,0.19089 77.90317,4.84508 3.04107,0.96886 8.05024,0.003 6.97799,4.47582 6.67691,8.18252 17.93182,11.2888 26.92423,16.40955 28.56955,12.42316 60.66083,8.34993 90.93884,10.48754 6.55725,1.36748 13.58534,0.36727 16.20929,-6.49846 8.31385,-20.32088 17.23309,-41.56712 17.17678,-63.87714 -0.34217,-14.14954 -11.90071,-25.02703 -22.15698,-33.33242 -19.14177,-9.79007 -40.01374,-15.00403 -59.50853,-23.8471 -16.01247,-7.2012 -33.84841,-2.5767 -48.80274,4.91195 -6.02643,4.20147 -12.53658,-0.29027 -18.95153,0.77543 -5.42727,-2.32706 -1.59037,-7.49893 -0.12834,-11.0116 3.53903,-9.13688 14.02457,-13.73712 21.78568,-18.93243 18.8957,-10.05884 40.99409,-5.43841 60.65254,-1.02116 6.14598,-3.34366 7.98857,-11.74681 9.66008,-18.15154 -0.12509,-11.60689 -13.61688,-17.47481 -23.45666,-19.15358 -23.56154,-4.00439 -48.78969,-1.34363 -70.39999,-13.43072 -11.21857,-3.45013 -20.05212,7.708 -29.39796,11.93993 -6.13483,3.79253 -13.16857,5.82674 -19.79521,8.07645 -5.87479,-1.52058 -1.87963,-9.89274 -1.32971,-14.00409 7.76229,-12.28831 20.46949,-22.48622 34.71946,-26.24437 16.80803,-4.53756 33.21136,5.60014 49.84573,3.75973 3.82985,-4.47147 -3.85677,-9.87663 -5.25482,-14.20469 -4.61276,-11.14189 -16.7908,-14.24482 -27.36497,-16.70316 -15.35515,-3.45365 -33.01492,-13.48536 -47.96723,-3.17543 -8.88137,6.25047 -19.91726,10.86792 -26.26895,19.86894 -0.5674,2.40623 0.69429,5.64621 -3.14539,4.90649 -10.31662,0.31125 -20.24085,4.74048 -30.59932,4.07645 -3.46503,3.40869 -6.65917,-2.13231 -10.71126,-1.23959 -32.1343,-0.17628 -64.40437,3.64974 -96.41502,-1.15768 -23.00172,-0.98346 -45.34395,-5.55929 -67.53473,-11.72847 C 509.0972,425.51219 455.08059,415.65812 406.35909,391.41219 376.95364,380.04443 344.86163,383.13462 314.32087,378.5767 Z"
       id="path917"
       inkscape:connector-curvature="0"
       transform="scale(0.26458333)" />
    <path
       style="fill:#ffb380;fill-opacity:1;stroke:none;stroke-width:0.26458332;stroke-opacity:1"
       id="path927"
       d="m 100.9246,176.24422 c 0.39148,-0.26917 0.76075,-0.57391 1.17444,-0.80751 1.15115,-0.65004 2.56907,-1.18048 3.79867,-1.62203 2.3156,-0.83154 4.67733,-1.52043 7.03778,-2.20975 3.61288,-1.0452 7.26829,-1.93052 10.92482,-2.80676 2.8742,-0.73725 5.78719,-1.30905 8.67948,-1.96913 3.20331,-0.85702 6.43502,-1.6032 9.70383,-2.16083 2.8051,-0.45592 5.64605,-0.50866 8.47878,-0.6081 2.29013,-0.13153 4.57961,-0.27797 6.8699,-0.41171 1.7986,-0.12808 3.59594,-0.22534 5.38224,-0.48151 1.52154,-0.31634 3.0481,-0.5937 4.58318,-0.83573 1.48628,-0.23807 2.97716,-0.13417 4.48058,-0.15579 0.40679,-0.006 1.62443,-0.0517 1.21823,-0.0743 -0.59335,-0.0331 -1.18837,-0.0207 -1.78256,-0.0311 1.59344,-0.10856 3.1757,-0.32453 4.76069,-0.5135 2.33806,-0.19184 5.0712,-0.33806 7.34262,0.0155 1.23727,0.12433 2.48497,-0.0669 3.72356,-0.13548 -0.55861,-0.008 -1.1178,0.003 -1.67583,-0.0239 -0.27772,-0.0133 0.55594,-0.0121 0.83394,-0.0164 1.07803,-0.0166 2.15273,0.0216 3.23029,0.0436 2.47165,0.10459 4.93639,-0.0346 7.40337,-0.1365 0.68096,0.005 1.36059,-0.0556 2.04129,-0.059 0.33017,-0.002 1.31862,-0.0109 0.99024,0.0235 -0.53171,0.0555 -1.07352,-0.0311 -1.60329,0.0406 -0.53764,0.0728 1.08227,0.0787 1.62293,0.12391 2.01372,0.18646 4.04175,0.15079 6.06051,0.0759 0.84246,-0.065 6.27385,-0.11663 1.74611,0.008 1.47645,0.23076 2.98608,0.13963 4.46539,0.28916 0.29379,0.0297 1.20447,0.43796 1.47264,0.55135 0.68964,0.41462 1.46957,0.51275 2.22998,0.72384 0.73919,0.25479 1.44609,0.58447 2.19972,0.79605 0.8869,0.24539 1.77103,0.46766 2.67578,0.63926 1.12429,0.20219 2.12262,0.68731 3.06416,1.31457 0.0462,-0.0925 0.58491,0.60279 0.75259,0.3912 0.16594,-0.2094 -0.30985,-0.0342 0.14346,-0.14942 0.72692,-0.0522 1.40058,0.1845 2.06736,0.44566 0.52853,0.17516 1.19352,0.93516 1.81438,0.77343 0.53179,-0.18396 0.98141,-0.0519 1.5302,0.0692 0.73816,0.28238 1.50474,0.45192 2.24204,0.73564 0.66074,0.14919 1.33925,0.21505 2.01424,0.27507 1.06969,0.0655 2.07599,0.42481 3.09532,0.7204 0.59729,0.18011 1.20361,0.0429 1.81625,-0.0562 1.89445,-0.13034 3.78118,-0.0229 5.65356,0.27209 1.20463,0.13114 2.29493,0.67047 3.43827,1.02023 0.46083,0.11307 0.93405,0.0426 1.40752,0.0161 -3.70758,-0.0711 -2.15316,0.15863 -1.07608,-0.0368 1.19231,-0.2007 2.37133,-0.1093 3.59293,-0.11964 0.31877,-0.003 1.27488,-0.0158 0.95613,-0.0201 -0.6668,-0.009 -1.33371,-0.005 -2.00057,-0.007 0.64306,0.0456 1.07075,-0.0825 0.46426,0.57273 -0.15629,-0.0767 -0.46394,0.76566 -0.57441,0.73572 -0.0569,-0.0154 0.44512,-1.35019 0.46884,-1.41523 0.43522,-1.19169 1.00713,-2.3249 1.54777,-3.47045 0.34949,-0.64943 0.55253,-1.3565 0.75511,-2.06107 0.20773,-0.44605 0.1718,-0.72575 0.12209,-1.16259 -0.0302,-0.60662 -0.0573,-1.2137 -0.0668,-1.82106 -0.0458,0.2616 0.17713,0.66334 -0.0437,0.8061 -0.39192,-0.0803 -0.72939,-0.33906 -1.07735,-0.52529 -0.51239,-0.34529 -1.10316,-0.52228 -1.68237,-0.71705 -0.58958,-0.18346 -1.2079,-0.20157 -1.80621,-0.34235 -0.91546,-0.23215 -1.78663,-0.60166 -2.67622,-0.9135 -1.1472,-0.44894 -1.98542,-1.32832 -2.68509,-2.31157 -2.09576,-4.15966 0.1831,-3.06635 6.48371,-6.90949 0.21668,-0.13216 0.50571,-0.0668 0.7593,-0.0565 0.38283,0.0155 0.7611,0.0891 1.14165,0.13365 2.28679,0.47233 4.55545,1.32492 6.27058,2.96912 0.36122,0.34628 0.66966,0.74372 1.00449,1.11557 1.95416,2.67123 1.76274,5.45804 1.32677,8.53185 -0.31625,2.91774 -1.33774,5.25991 -3.00031,7.65 -1.39644,1.8523 -3.24941,3.18904 -5.23369,4.33474 -0.82322,0.45698 -1.70151,0.82197 -2.62035,1.01435 -1.99843,-3.34953 -2.82377,-10.36534 -5.3253,-6.93493 -0.25326,0.3473 -0.41379,0.75363 -0.63084,1.12464 -0.0712,0.12164 -0.096,0.38429 -0.23334,0.35256 -0.16416,-0.0379 -0.32904,-1.11137 -0.40953,-1.51216 -0.53445,-3.35333 -0.159,-6.73111 0.43164,-10.04603 0.23809,-0.49704 0.36173,-2.58585 0.79294,-2.99365 0.0476,-0.045 0.0658,0.0826 0.14847,0.44869 -0.0134,0.0108 -0.0267,0.0216 -0.0401,0.0324 -0.0507,-0.0384 -0.11374,-0.0644 -0.15196,-0.11522 -0.22901,-0.30433 -0.37795,-0.66263 -0.59668,-0.97443 -0.16647,-0.23731 -0.36684,-0.4491 -0.54203,-0.68005 -0.009,-0.10701 -0.53223,-0.76119 -0.44685,-0.73332 0.1538,0.0502 0.63469,0.6649 0.81592,0.83119 -1.06077,-0.47618 -1.86265,-1.32287 -2.63638,-2.16089 -0.88811,-1.0438 -1.2839,-2.36059 -1.35484,-3.71458 0.0126,-0.21184 0.0433,-0.42337 0.0378,-0.63551 -0.006,-0.21999 -0.0675,0.43805 -0.0561,0.65783 0.0343,0.66399 0.21566,1.13774 0.4941,1.74029 -0.19828,0.0783 0.6972,0.80742 0.54238,0.83788 -0.23913,0.047 -0.85745,-0.6281 -0.97063,-0.73402 -0.26696,-0.16762 -1.44886,-1.91025 -0.49557,-0.54756 0.9091,0.90477 -0.40378,0.25784 -0.84645,0.18449 -0.12901,-0.0507 -0.26323,-0.0898 -0.38702,-0.1522 -0.26495,-0.13353 -1.05686,-0.7441 -1.34016,-0.78278 -0.028,-0.004 0.0416,0.0383 0.0623,0.0574 -0.11978,-0.0835 -0.72996,-0.49703 -0.49951,-0.11054 -0.69101,-0.0838 -1.34667,-0.47977 -1.98546,-0.75448 -0.0908,-0.0286 -0.17719,-0.085 -0.27236,-0.0857 -0.0368,-2.7e-4 -0.15364,0.24406 -0.71307,0.13733 -0.39208,-0.0587 -0.73749,-0.26752 -1.13672,-0.28043 -0.38851,-0.0268 -0.8288,-0.20459 -1.17742,-0.42054 -2.00103,-1.68678 -0.1347,-0.09 -0.25719,-7.68156 -8e-4,-0.0433 0.0371,0.10223 0.0804,0.10216 0.18654,-2.7e-4 0.36509,-0.0788 0.55004,-0.10321 0.31387,-0.0414 0.62896,-0.11097 0.9451,-0.0941 0.44053,0.0235 0.8707,0.14271 1.30604,0.21407 0.47583,0.18743 0.95165,0.37486 1.42748,0.56229 2.33023,-1.20368 4.03249,2.09177 1.70225,3.29545 v 0 c -0.004,0.31943 -0.008,0.63886 -0.0122,0.95829 0.11733,0.57685 0.30967,1.0441 -0.11567,1.53529 -0.17068,0.19709 -0.52432,0.78737 -0.57396,0.53141 -0.46916,-2.41922 -0.49953,-4.90319 -0.7493,-7.35478 0.005,-0.009 0.009,-0.0171 0.0137,-0.0256 0.41761,-0.0465 -0.54897,-0.29356 0.21135,-0.13495 0.39228,0.0785 0.72226,0.0283 1.12259,0.0391 1.0604,0.0936 2.05264,0.48642 2.9761,1.00598 0.35622,0.16445 0.60832,0.10362 0.97402,0.27346 0.49976,0.25881 0.65699,0.39078 1.15869,0.4671 0.56805,0.26041 1.12428,0.50757 1.72287,0.64534 0.88569,0.42433 1.74914,0.83445 2.42502,1.57959 0.34398,0.36502 1.24122,1.5278 0.48138,0.42469 -0.64341,-0.82383 1.56631,1.15504 1.43506,1.27724 0.74605,1.30757 1.05094,2.25204 0.93433,3.74379 -0.0118,0.15084 0.009,-0.30248 0.0134,-0.45371 -0.0532,-0.80708 -0.001,-0.55611 -0.31601,-1.58518 -0.0434,-0.14184 -0.14498,-0.26627 -0.16513,-0.41322 -0.0111,-0.0812 0.47973,0.3312 0.3672,0.22256 0.65884,0.68074 -0.10905,-0.0735 0.17845,0.1292 1.28281,0.83521 2.37536,1.89305 3.17794,3.2045 0.58996,1.09654 1.00176,2.26852 1.45612,3.42625 0.62248,1.99002 1.01924,4.03697 0.93926,6.13414 -0.12463,2.8939 -0.54383,5.75277 -0.88421,8.62724 -0.10995,1.29106 -0.10755,2.75003 -0.52774,3.98593 -0.22556,0.66343 -0.49585,1.32307 -0.87988,1.90921 -0.31102,0.47471 -0.76907,1.62475 -1.17701,1.2302 -2.16149,-2.09055 -3.45621,-4.92183 -5.18431,-7.38275 -0.37264,0.0515 0.43502,-0.33752 0.48054,-0.42243 1.02806,-0.79405 2.00995,-1.65335 2.9863,-2.50969 1.14584,-1.16555 1.551,-2.31058 1.78849,-3.93789 0.0219,-0.0916 0.4323,-1.81913 0.56489,-1.84324 0.0474,-0.009 0.41672,0.80556 0.50943,1.06331 -0.35073,0.15847 -1.04894,-0.13549 -1.36687,-0.2228 -0.99675,-0.27371 -1.98545,-0.57781 -2.96176,-0.9174 -0.31822,-0.12347 -0.64233,-0.23274 -0.95466,-0.37042 -0.29773,-0.13125 -1.09911,-0.20095 -0.8736,-0.43552 4.57214,-4.75566 7.52761,-3.01068 5.59392,-6.7715 -0.15676,-0.26413 -0.79179,-1.01127 -0.0694,-0.75467 0.6047,0.21984 1.20881,0.377 1.84874,0.45868 1.09384,0.24835 2.13017,0.67338 3.13758,1.16243 0.90111,0.46105 1.75518,0.99419 2.58,1.58072 0.86153,0.62184 1.72532,1.24551 2.38191,2.097 0.86771,1.17359 1.52335,2.44281 1.67772,3.91983 0.0929,0.80794 0.18148,1.61792 0.22718,2.43011 -0.01,1.13031 -0.10312,2.26589 -0.46771,3.34439 -0.22726,1.02521 -0.33296,2.07839 -0.67737,3.07693 -0.46245,1.33869 -1.00346,2.64737 -1.73387,3.86538 -0.7857,1.34431 -1.3323,2.841 -2.51576,3.91373 -1.25316,1.01593 -2.60176,1.78619 -4.25097,1.88725 -1.00541,0.009 -2.01078,0.0253 -3.01623,0.0274 -0.30423,5.2e-4 -1.21624,-0.0252 -0.9121,-0.0327 0.63685,-0.0157 1.27452,0.003 1.911,-0.0237 0.22897,-0.01 -0.83573,-0.0573 -0.6817,-0.0894 -1.18961,-0.24709 -2.87545,0.89524 -3.88039,0.0601 -0.87716,-0.0559 -1.72973,-0.19329 -2.58137,-0.4105 -1.05684,-0.0918 -2.11129,0.10362 -3.17002,-0.006 -1.64095,-0.0992 -3.26668,-0.30634 -4.88843,-0.57568 -1.06546,-0.19189 -2.12984,-0.36799 -3.19006,-0.58647 -0.9982,-0.17379 -2.01072,-0.27287 -2.98361,-0.57178 -0.85289,-0.25012 -1.69338,-0.52971 -2.5306,-0.82814 -0.47333,-0.0582 -0.93213,-0.29182 -1.40572,-0.23128 -0.92633,-0.0684 -1.8231,-0.2783 -2.67356,-0.67746 -0.0391,-0.0194 -1.65913,-0.99212 -1.31517,-0.51632 -0.69987,0.12768 -1.43058,-0.24866 -2.08458,-0.42957 -0.31082,-0.13662 -1.72815,-0.97596 -1.93199,-1.00147 -0.0254,-0.003 -0.009,0.0505 -0.0132,0.0757 -0.46526,0.33529 -1.77864,-0.2824 -2.27519,-0.35852 -0.95567,-0.34223 -1.89303,-0.73245 -2.84866,-1.07519 -0.69918,-0.26146 -1.40678,-0.48306 -2.13009,-0.6684 -0.72881,-0.25467 -1.46994,-0.584 -2.17076,-0.83938 0.53551,0.83682 -0.11882,0.11935 2.38629,0.28094 0.13136,0.008 -0.26113,0.0337 -0.39197,0.0482 -1.34176,0.14861 0.51452,-0.0708 -0.97323,0.10781 -2.19799,0.0358 -4.39566,0.13254 -6.59237,0.007 -1.24573,-0.0478 -0.77593,-0.0192 1.1912,-0.0466 0.18537,-0.003 -0.3708,5.3e-4 -0.55614,0.005 -0.41396,0.0102 -0.73558,0.0304 -1.14996,0.063 -0.21615,0.017 -0.432,0.0378 -0.64799,0.0566 -2.68221,0.23883 -5.38042,0.20953 -8.06946,0.12869 -0.75569,-0.0347 -6.04109,-0.18559 -1.6505,-0.15977 0.23763,10e-4 -0.47525,0.005 -0.71288,0.008 -2.45516,0.0743 -4.90847,0.16228 -7.36644,0.0737 -1.31282,-0.0704 -2.61092,-0.26397 -3.91951,-0.33432 -1.15676,0.15865 -0.009,-0.0208 1.58525,0.10944 0.18098,0.0148 -0.36042,0.045 -0.54113,0.0627 -0.79064,0.0777 -1.58314,0.13985 -2.37441,0.21082 -1.84094,0.14761 -3.68214,0.35654 -5.53126,0.33968 -1.06401,-0.002 -2.12808,0.005 -3.19203,-0.006 -0.22336,-0.002 -0.44632,-0.0201 -0.66921,-0.0348 -0.21075,-0.0139 -0.84237,-0.0373 -0.63159,-0.0508 3.24559,-0.20839 2.08113,0.0618 1.23887,-0.11275 -1.28472,-0.0116 -2.51596,0.71868 -3.77427,0.89867 -2.08199,0.51853 -4.20629,0.82357 -6.35034,0.93151 -2.36325,0.21319 -4.73285,0.36918 -7.10282,0.47688 -2.43694,0.13379 -4.8982,0.0673 -7.30518,0.51829 -3.23441,0.62739 -6.43347,1.44857 -9.70272,1.88443 -2.7994,0.45862 -5.6164,0.82018 -8.39461,1.39807 -3.47535,0.97957 -6.75672,2.51361 -10.20608,3.57832 -4.44464,1.32249 -9.08707,2.6644 -13.76804,2.15709 -4.851042,2.29969 -8.103297,-4.56072 -3.25225,-6.86041 z"
       inkscape:connector-curvature="0" />
    <path
       style="fill:#ffb380;fill-opacity:1;stroke:none;stroke-width:0.26458332;stroke-opacity:1"
       id="path929"
       d="m 238.78832,141.30302 c -1.30196,-1.49915 -2.00717,-3.35665 -2.61494,-5.2172 -0.24359,-0.7457 -0.22352,-0.49082 -0.23377,-0.89041 1.34471,1.90121 2.50201,1.52535 4.9667,1.0447 0.24436,-0.0476 0.38996,-0.31081 0.56911,-0.4837 0.0443,-0.0428 0.1445,-0.19575 0.0958,-0.15798 -0.3975,0.30846 -0.76725,0.65113 -1.15087,0.97669 -2.05664,-0.68983 -4.15474,-1.26655 -6.16992,-2.06948 -0.15465,-0.0616 -0.11533,-0.31281 -0.18665,-0.46324 -0.007,-0.0151 -0.0143,0.0333 -0.01,0.0493 0.0306,0.10448 0.0699,0.20649 0.11364,0.30617 0.17936,0.40854 0.26778,0.4336 0.62134,0.86654 2.02766,1.63045 -0.55243,-0.22829 5.70174,-0.0326 0.33355,0.0104 -0.49579,0.45438 -0.78407,0.62247 -2.16093,1.26002 -3.88513,0.9563 -6.00314,-0.30949 -0.25941,-0.0923 -1.88065,-1.54277 -2.00543,-1.18258 -0.28444,0.18188 -1.12685,-0.18507 -1.45428,-0.2819 -0.70382,-0.23179 -1.378,-0.53417 -2.08532,-0.73556 -0.48644,-0.21971 -0.91571,-0.4704 -1.43971,-0.58536 0.039,0.31242 -1.0786,0.0886 -1.32546,0.0708 -0.61815,0.0226 -1.18108,-0.32313 -1.78775,-0.36974 -0.37165,-0.0249 -0.75854,0.0301 -1.14436,0.0368 -0.0342,-0.008 -0.13765,-0.0237 -0.1025,-0.0253 0.76045,-0.0347 1.52525,0.003 2.2825,-0.0743 0.12917,-0.0133 0.33344,-0.0648 0.33743,-0.19459 -0.0281,-2.67787 -0.0563,-5.35573 -0.0844,-8.03359 0.1629,0.12851 0.0883,0.0936 0.20505,0.13774 0.6626,-0.0803 -2.27195,-0.19963 -1.74654,0.0517 0.74387,0.35583 1.66744,0.0385 2.45907,0.26931 1.05971,0.30897 1.06733,2.42253 1.11173,3.12234 1.1574,0.62251 0.27703,2.25932 -0.88037,1.63681 v 0 c -0.46167,0.36399 -0.92103,0.73096 -1.38502,1.09198 -0.27553,0.21438 -0.58245,0.39159 -0.83348,0.63419 -0.12674,0.12248 -0.4463,0.37679 -0.28416,0.44591 0.57154,0.24364 2.33787,-0.16367 1.85066,0.22189 -0.13211,0.10455 -1.77891,0.072 -2.52091,0.0595 -3.10243,0.0998 -0.77466,7.19997 -1.14672,-7.98034 -0.004,-0.15878 0.27071,-0.19233 0.42878,-0.20781 0.83972,-0.0822 1.68674,-0.0506 2.5299,-0.082 0.10117,-0.004 0.20188,-0.0155 0.30283,-0.0233 0.68017,0.0343 1.34613,0.15615 2.01228,0.28718 0.63918,0.1132 1.28237,0.0735 1.91902,0.19811 0.94504,0.20694 1.90086,0.43029 2.75719,0.8956 0.36476,0.18349 0.25977,0.1249 0.64196,0.34362 0.063,0.036 0.21505,0.17768 0.18752,0.11055 -0.0359,-0.0876 -0.30902,-0.15969 -0.21725,-0.18306 0.16694,-0.0425 0.31062,0.20011 0.4907,0.16223 0.56959,0.20816 1.1084,0.49102 1.6941,0.64935 0.85317,0.22461 1.71994,0.4309 2.50307,0.85425 0.59576,0.3327 2.15571,1.2442 2.44668,1.90085 0.0112,0.0253 -0.0539,-0.0123 -0.0809,-0.0185 -1.26502,-0.78079 -1.0626,-0.75276 -3.74392,-0.53276 -0.38074,0.0312 -0.6704,0.37128 -0.97674,0.5995 -0.17193,0.12809 -0.66182,0.47325 -0.44774,0.46174 1.8287,-0.0984 3.61505,-0.6655 5.44523,-0.73055 0.2961,-0.0105 0.48478,0.34077 0.72716,0.51116 0.58897,0.61706 1.02558,1.12265 1.40543,1.88554 1.22176,2.45377 -1.67879,0.075 -5.68294,-0.98247 -0.31429,0.29675 -0.60034,0.6266 -0.94286,0.89027 -0.15409,0.11861 0.23022,-0.31609 0.37109,-0.45013 0.29611,-0.28176 0.54039,-0.68759 0.9353,-0.79298 3.53305,-0.94283 4.40084,-0.85059 6.6803,1.43449 1.83962,2.22332 3.07072,4.81637 3.13288,7.75306 1.77369,5.27116 -5.68087,7.77954 -7.45456,2.50837 z"
       inkscape:connector-curvature="0" />
    <path
       style="fill:#ffb380;fill-opacity:1;stroke:none;stroke-width:0.26458332;stroke-opacity:1"
       id="path931"
       d="m 239.75816,136.50404 c -1.13828,-1.28396 -1.91394,-2.94574 -2.23244,-4.58644 2.24369,2.90653 0.43218,1.36252 6.86124,-1.20061 0.19474,-0.0777 0.20825,0.50197 0.1214,0.55227 -5.23724,2.99295 -7.29059,2.54452 -7.87574,1.23671 0.32826,-1.41045 -0.224,-1.07804 1.13229,-1.83044 -1.03157,-2.63351 2.69279,-4.09236 3.72435,-1.45885 v 0 c 0.31473,-0.12704 0.70422,-0.14111 0.9442,-0.38112 0.26003,-0.26007 0.03,-1.18224 0.6385,-0.839 0.43968,0.2686 0.76358,0.85877 1.02428,1.29763 0.0659,0.11085 0.3076,0.2956 0.1862,0.33903 -2.40174,0.85934 -4.88327,1.47678 -7.3249,2.21517 -0.11701,-0.16315 -0.0824,-1.0219 -0.0303,-1.05311 6.07228,-3.63765 4.59358,-4.54364 7.01226,-1.66111 1.0766,1.75104 1.74322,3.76588 1.51536,5.84159 1.08066,4.02814 -4.61599,5.55642 -5.69665,1.52828 z"
       inkscape:connector-curvature="0" />
    <path
       style="fill:#ffb380;fill-opacity:1;stroke:none;stroke-width:0.26458332;stroke-opacity:1"
       id="path933"
       d="m 219.66804,121.03694 c -1.53277,-0.93395 -2.52075,-2.50226 -4.03708,-3.44969 -0.02,0.008 -0.0729,0.006 -0.0601,0.0236 0.50103,0.67499 1.68269,0.1866 2.51956,0.10734 0.14054,-0.0133 0.40029,-0.35517 0.26075,-0.33373 -0.17237,0.0265 -0.32664,0.12231 -0.48996,0.18347 -1.49515,-0.20485 -3.01916,-0.25752 -4.48544,-0.61454 -0.019,-0.005 -0.69237,-0.66233 -0.917,-0.84516 -0.0174,-0.0142 -0.27608,-0.29996 -0.19538,-0.1365 0.15104,0.12253 0.62717,0.51515 0.66912,0.48065 2.01068,-1.6539 3.71591,-3.64873 5.62837,-5.41529 0.0448,-0.0414 0.0948,0.20733 0.0411,0.17837 -0.13099,-0.0706 -0.18612,-0.23812 -0.30861,-0.32266 -0.56985,-0.3933 -1.17281,-0.73634 -1.75922,-1.10451 -0.88347,0.0823 -1.76364,0.21639 -2.65041,0.24683 -0.10878,0.004 0.18337,-0.11834 0.28146,-0.16552 0.41849,-0.20127 1.23985,-0.54067 1.65415,-0.56731 2.32424,-0.14946 2.57946,-0.062 4.32584,0.18238 2.15415,0.39094 4.25254,1.05808 6.2847,1.86481 1.32685,0.53351 2.40947,1.43751 3.35678,2.48914 0.10419,0.12304 0.19286,0.26113 0.31258,0.36913 0.0332,0.03 0.0662,-0.0973 0.10768,-0.0804 0.28787,0.11735 0.60516,0.33689 0.86411,0.5042 0.24592,0.27977 0.64716,0.32499 0.89744,0.57535 1.03841,0.85202 -0.27598,-0.27919 1.65869,2.22633 0.58097,0.7524 -0.31208,-0.86967 -0.50289,-1.10206 -1.74233,-1.72149 0.52766,1.24003 -0.0257,3.47799 -0.12419,0.50228 -1.03466,0.0167 -1.55199,0.0251 -0.19431,1.86825 -2.83641,1.59346 -2.64211,-0.27479 v 0 c -0.48328,-0.26624 -1.29502,-1.32833 -1.44985,-0.79873 -0.71046,2.43027 1.84274,4.38953 -0.0731,2.77289 -1.20103,-1.1487 -1.92452,-3.54592 0.30034,0.16424 -0.86801,-0.0756 -1.58884,-0.8065 -2.29382,-1.24806 -0.63269,-0.50077 -1.23151,-1.06338 -1.75874,-1.66404 0.0484,0.13314 0.18107,0.22473 0.22905,0.35804 0.16396,0.45557 -1.93019,-0.30917 -1.71777,-0.0689 -1.8082,-0.4284 -3.57137,-0.99894 -5.3476,-1.54191 -0.16038,-0.0401 -0.64443,-0.0943 -0.48116,-0.12019 0.59651,-0.0947 1.21742,0.0277 1.80968,-0.0907 0.34992,-0.07 -0.2885,-0.41251 -0.52354,-0.38802 -0.99903,0.10413 -1.9954,0.23242 -2.9931,0.34863 -4.55193,-2.5464 -3.58817,-1.82766 2.54059,-7.57106 0.0327,-0.0306 0.81146,0.53583 0.9517,0.63631 0.16584,0.1485 0.34576,0.28093 0.50947,0.43177 0.12394,0.11421 0.4723,0.47979 0.34387,0.37065 -0.13363,-0.11356 -0.21172,-0.32908 -0.3845,-0.35907 -1.37957,-0.23944 -2.78547,-0.28855 -4.1782,-0.43282 -0.0658,0.0378 -0.26205,0.15333 -0.19752,0.11336 0.2796,-0.17318 0.98739,-0.60032 1.22816,-0.62891 1.64589,-0.19545 2.89128,-0.26321 4.39037,0.14674 0.44281,0.12109 0.86728,0.30133 1.30092,0.452 0.44582,0.22137 0.91135,0.40684 1.33747,0.66411 2.36984,1.43079 4.29723,3.64188 5.02856,6.33177 2.54515,5.52085 -5.26252,9.12023 -7.80767,3.59938 z"
       inkscape:connector-curvature="0" />
    <path
       style="fill:#ffb380;fill-opacity:1;stroke:none;stroke-width:0.26458332;stroke-opacity:1"
       id="path935"
       d="m 52.911131,131.59904 c -1.771137,2.38984 -3.982196,4.40108 -5.826694,6.73874 -1.490789,2.00599 -2.657628,4.21977 -3.806997,6.43114 -0.836517,1.69312 -1.174506,3.58005 -1.571109,5.41337 -0.494797,2.41007 -0.880478,4.83894 -1.182947,7.28026 -0.19998,1.64867 -0.210751,3.30958 -0.118319,4.96528 0.149053,0.71122 0.860846,1.16193 1.342099,1.67141 0.901131,0.97415 1.844657,1.90756 2.811238,2.81639 1.041789,1.04007 2.049928,2.11245 3.082838,3.16042 0.868055,0.91627 1.736976,1.8203 2.723409,2.60995 0.758669,0.56719 1.728822,0.72067 2.637932,0.90985 1.517537,0.42266 3.010207,0.92516 4.508752,1.40911 1.503899,0.53449 3.028815,1.06757 4.613714,1.29463 0.474864,0.0398 0.780793,0.0771 1.256887,0.0711 0.197948,-0.002 0.790501,-0.0202 0.592961,-0.0331 -3.377288,-0.22036 -1.386975,-0.0271 -0.402286,-0.0581 1.876499,-0.17718 3.751977,-0.36992 5.621258,-0.61226 2.635499,-0.40546 5.24869,-0.93603 7.879979,-1.36703 2.259603,-0.41159 4.542891,-0.61001 6.830592,-0.7698 1.694008,0.0141 3.305556,-0.45468 4.919726,-0.90783 2.972006,-0.89147 5.99395,-1.55699 9.086464,-1.82029 1.310767,-0.1612 2.622482,0.0237 3.929802,0.0604 0.92476,0.026 1.85207,-0.0265 2.77514,0.035 0.66571,0.0444 -1.33431,0.011 -2.00147,0.0165 1.29134,-0.28374 2.52226,-0.80472 3.79529,-1.17229 1.94751,-0.44725 3.98583,-0.56145 5.97774,-0.39981 0.29903,0.0243 1.21746,0.51346 1.49687,0.65354 -0.54661,-0.37506 0.54927,0.334 0.41574,0.24446 -0.97176,-0.65163 -2.23806,-0.79105 -3.33515,-0.2538 -2.70889,1.54997 -0.61439,0.15757 -0.6293,7.92054 -1.7e-4,0.0924 0.11285,0.16487 0.10445,0.25693 -0.007,0.081 -0.2261,0.18282 -0.14579,0.19568 1.59351,0.25506 2.81264,-0.10098 1.42272,0.2393 -2.28972,0.62887 -4.62653,1.00716 -6.98322,1.26545 -3.26638,0.31979 -6.529918,0.44681 -9.810579,0.49308 -2.705373,-0.0107 -5.409483,0.0859 -8.112866,-0.0411 -2.691659,-0.0763 -5.260224,-0.77974 -7.737202,-1.78931 -1.318983,-0.51414 -2.505062,-1.3398 -3.845426,-1.80215 -0.217969,-0.0752 -1.425315,-0.37857 -1.617974,-0.42781 -2.19392,-0.31977 -4.357968,-0.7357 -6.480905,-1.37746 -1.891234,-0.60956 -3.687466,-1.46353 -5.460484,-2.35144 -1.21811,-0.65262 -2.487787,-1.18001 -3.789019,-1.6399 -1.847162,-0.53342 -3.657243,-1.18423 -5.463847,-1.83961 -1.825826,-0.63375 -3.506959,-1.59741 -5.078185,-2.71037 -1.102905,-0.93563 -2.308873,-1.73537 -3.46638,-2.59971 -0.292843,-0.27366 -1.57013,-0.97008 -1.729856,-1.31338 -0.01961,-0.0421 0.08159,0.0445 0.12238,0.0668 3.103975,1.68655 0.384559,0.47113 7.345267,-4.53746 0.03091,-0.0223 0.01061,0.088 -0.01831,0.11278 -0.197458,0.1695 -0.104751,-0.75495 -0.357727,-0.69392 -3.013927,0.72711 -5.89996,1.90794 -8.849939,2.86191 0.318076,0.91685 0.213714,0.79846 0.841425,1.69294 0.521626,0.74331 0.902652,0.85575 -0.30634,0.7983 -1.37631,-0.13108 -2.57859,-0.72569 -3.668935,-1.54554 0.247198,-0.34582 -1.391311,-0.80786 -1.075518,-1.26123 1.959248,-2.81279 3.506528,-8.93433 6.030817,-6.75254 0.62283,0.53832 1.407327,0.93996 1.8542,1.63134 0.517935,0.80132 0.63087,1.80097 0.946306,2.70145 0.741482,1.43251 1.922286,2.65183 3.046553,3.79579 2.133373,2.10218 4.771086,3.55825 7.395591,4.9493 2.353106,1.17749 4.500565,2.66399 6.553057,4.29681 1.202984,1.00884 2.011225,0.75492 3.455958,0.6468 0.260303,-0.0149 1.041596,-0.04 0.78091,-0.0446 -4.305062,-0.0771 -0.197765,0.0316 -0.16697,0.36745 0.0113,0.12308 -0.145405,0.19991 -0.218107,0.29987 0.504568,8.85996 2.167567,9.16216 -3.876307,6.40407 -3.648432,-1.63103 -7.315068,-3.21975 -10.989678,-4.79061 -1.421527,-0.61785 -2.877523,-1.15362 -4.30367,-1.76013 -0.239472,-0.10184 -0.480536,-0.20161 -0.710827,-0.3228 -0.112038,-0.059 -0.437515,-0.19522 -0.312584,-0.21574 0.840129,-0.13796 1.699757,-0.10107 2.549639,-0.15161 0.603705,-2.58321 1.196898,-5.1689 1.811112,-7.74963 0.02479,-0.10419 0.305277,-0.23288 -0.349263,-0.16724 -1.158023,0.11612 -2.306471,0.31334 -3.459705,0.47002 0.500597,-0.2312 0.956432,-0.61216 1.501794,-0.69361 3.524967,-0.52652 7.874328,0.29923 11.351217,0.99388 3.646895,0.68201 7.228621,1.6479 10.814693,2.58703 2.006367,0.56397 4.053954,0.95139 6.100956,1.33262 2.491713,0.46339 5.00829,0.7617 7.537677,0.90625 0.411853,0.0256 0.823682,0.0515 1.235557,0.0767 1.16636,0.0714 1.113996,0.0593 2.244801,0.15388 0.305814,0.0256 1.211866,-0.001 0.916877,0.0832 -0.772374,0.2215 -2.555367,-0.0112 -0.794142,0.1767 2.23488,0.10351 4.476062,0.28331 6.709074,0.0964 0.09939,-0.008 2.174288,-0.18422 2.174232,-0.18569 -0.01468,-0.3921 -1.491567,0.14474 -1.174009,-0.0857 0.366149,-0.26574 0.904161,-0.0358 1.356447,-0.0467 1.352185,-0.0324 1.408526,-0.019 2.751138,-6e-5 1.399796,-0.04 2.783366,0.27166 4.175436,0.32825 0.99373,0.0404 1.99141,-0.0103 2.98289,0.0679 0.55569,0.0438 -1.11459,0.0237 -1.67188,0.0355 1.45282,0.002 2.86428,-0.39869 4.27653,-0.69181 1.7178,-0.41849 3.47922,-0.57846 5.2311,-0.77749 1.53855,-0.22685 2.90126,-1.03257 4.28842,-1.68482 2.43098,-1.18606 4.92537,-2.22465 7.56055,-2.85131 1.09335,-0.39704 2.37975,-0.0938 3.4585,-0.51173 1.75795,-0.94471 3.61585,-1.66154 5.49458,-2.32274 2.01607,-0.7185 4.11815,-0.98804 6.23989,-1.10876 0.72324,0.12281 1.39585,-0.13718 2.08613,-0.31241 1.64572,-0.42793 3.31359,-0.77394 4.98485,-1.08609 2.55886,-0.54675 5.17177,-0.70194 7.77526,-0.87616 2.00384,-0.14418 4.00731,-0.28206 6.01354,-0.38814 2.52463,-0.0191 5.02884,0.15244 7.55056,0.0474 0.31567,-0.0134 1.26105,-0.005 0.94701,-0.0402 -0.50467,-0.0558 -1.01681,0.0155 -1.52305,-0.0235 -0.33248,-0.0256 0.66685,-0.0105 1.00026,-0.0168 1.10046,-0.0207 2.19514,-0.0624 3.29383,-0.12856 2.94644,-0.20572 5.89154,-0.41335 8.84326,-0.52521 2.62124,-0.0182 5.24173,-0.0838 7.86279,-0.11515 2.3294,-5.3e-4 4.65703,0.0376 6.98591,0.0596 0.344,0.003 1.3727,-0.0271 1.03187,0.0196 -0.5072,0.0695 -1.02336,0.0329 -1.53504,0.0494 1.08297,0.0649 2.16752,0.16115 3.19662,0.51787 0.25211,0.0575 6.31271,-0.0102 1.10704,-0.0634 0.74592,-0.002 1.48178,-0.12082 2.21785,-0.22783 0.2367,-0.0325 0.47141,-0.0872 0.71011,-0.0975 2.3957,-0.1043 4.8288,-0.19431 7.23045,-0.15752 1.74015,0.0884 3.43284,0.48421 5.09404,0.98581 -0.42759,-0.23165 1.76163,0.65416 1.21068,0.54808 -0.11769,-0.0226 -0.22932,-0.0698 -0.34398,-0.10467 -0.80844,-0.0298 -1.61689,-0.0596 -2.42533,-0.0893 1.55511,0.006 3.0892,-0.0512 4.60524,0.29247 0.57687,0.16941 1.10805,0.51192 1.72418,0.48349 0.62199,-0.0811 1.29364,0.0321 1.91821,0.11039 0.94945,0.11797 1.86731,0.33075 2.77708,0.61774 0.69158,0.2021 1.39428,0.28883 2.11244,0.30874 0.8848,-0.0502 1.73989,0.11627 2.59812,0.30479 0.82632,0.32801 1.64229,0.58451 2.5365,0.54841 -1.16973,-0.0818 2.24049,-0.0731 1.05139,-0.09 -3.72242,-0.0527 -1.90047,0.006 -1.08305,0.0135 1.51956,0.0353 3.07659,-0.17195 4.5796,0.0689 2.367,0.10401 -2.46538,0.32692 -1.45167,-0.0158 0.85626,-0.31668 1.72803,-0.6412 2.64947,-0.67102 0.49316,-0.0561 0.90976,-0.35187 1.37206,-0.50033 0.59308,-0.51577 1.12976,-1.09258 1.65767,-1.67373 0.56513,-0.51192 0.93184,-1.16682 1.30241,-1.82182 0.39454,-0.73288 0.87564,-1.41202 1.30515,-2.12299 0.0411,-0.0736 0.0475,-0.16371 0.05,-0.248 -0.045,-0.26756 -0.0845,-0.54105 -0.1068,-0.8118 -0.0359,-0.43651 -0.0489,-0.45813 0.004,-0.29447 -0.008,0.19059 0.18966,0.74251 0.0697,0.56927 -0.008,-0.0357 -0.0153,-0.0714 -0.023,-0.10711 0.0268,0.0129 0.083,0.0683 0.0803,0.0387 -0.0105,-0.11431 -0.11507,-0.21285 -0.10695,-0.32735 0.006,-0.0828 0.1071,-0.12874 0.14456,-0.20283 0.57796,-1.14309 -0.0883,-0.29611 1.14704,-1.48086 -1.03267,-3.0866 3.33244,-4.54702 4.36511,-1.46042 v 0 c 0.30944,-0.21267 0.61889,-0.42535 0.92833,-0.63802 0.13412,-0.15736 0.23478,-0.35096 0.40234,-0.47207 0.0756,-0.0547 0.19656,0.0227 0.27926,-0.0206 0.0426,-0.0223 -0.0155,-0.15754 0.0297,-0.14113 0.17194,0.0624 0.23428,0.29784 0.4028,0.3727 0.50534,0.75426 0.90123,1.55273 1.06929,2.45601 0.14975,0.70806 0.38695,1.40379 0.39945,2.14022 0.0547,1.61364 -0.17188,3.17689 -1.01891,4.58524 -0.3664,0.61262 -0.82549,1.15662 -1.10231,1.81575 -0.58754,1.17563 -1.09204,2.40278 -1.91418,3.44413 -0.984,1.1648 -2.05989,2.25291 -3.36853,3.05586 -0.77669,0.52752 -1.60605,0.92026 -2.4104,1.4 -1.12337,0.65577 -2.32132,1.08343 -3.61402,1.26974 -0.25091,0.0578 -1.25612,0.30175 -1.51592,0.31158 -1.14661,0.0434 -2.25094,-0.0431 -3.37561,-0.006 -0.82147,0.19778 -0.10701,0.0121 1.86437,0.0635 0.077,0.002 -0.15336,0.0136 -0.22996,0.0212 -0.37769,0.0379 -0.75577,0.0727 -1.13218,0.12226 -2.09987,0.25232 -4.26876,0.33063 -6.33161,-0.18766 -0.51579,-0.15587 -1.49063,-0.69782 -2.00175,-0.47308 -0.98547,0.0353 -1.96756,0.027 -2.92683,-0.24703 -0.836,-0.20288 -1.66225,-0.44069 -2.511,-0.5857 -0.77708,-0.0676 -1.55216,-0.13475 -2.32215,-0.2808 -0.77844,-0.13211 -1.56177,-0.26199 -2.32356,-0.47109 -0.52299,-0.17244 -1.04477,-0.40527 -1.60616,-0.34797 -1.01506,-0.13183 -3.08565,-0.59582 1.34405,-0.15975 -0.88473,-0.0288 -1.77086,-0.0291 -2.65421,-0.0865 -0.18169,-0.0118 -0.3534,-0.0892 -0.53278,-0.12037 -0.46598,-0.081 -0.92564,0.0302 -1.39109,-0.0447 -1.2508,-0.0936 -2.49684,-0.0274 -3.74672,0.0666 -0.99262,0.0144 -1.98384,0.0159 -2.97598,-0.0283 -0.3102,-0.0138 -1.23413,0.006 -0.92981,-0.0561 0.51821,-0.105 1.06686,0.0318 1.58437,-0.0765 0.24814,-0.052 -0.50287,-0.0649 -0.75431,-0.0973 -0.7762,-0.10528 -1.55214,-0.22274 -2.33773,-0.2148 -0.83716,-0.007 -1.6744,-0.007 -2.51147,-0.0205 -0.15952,-0.003 -0.31833,-0.0246 -0.47635,-0.0465 -0.0733,-0.0102 -0.29237,-0.0369 -0.21842,-0.0396 0.72919,-0.0265 1.45914,-0.0384 2.18879,-0.032 0.0192,1.7e-4 -0.0182,0.0339 -0.0273,0.0508 -0.92459,0.46396 -1.99972,0.47229 -3.00677,0.5806 -1.91336,0.0281 -3.82046,0.0807 -5.73252,0.0402 -0.37309,-0.008 -0.74613,-0.0189 -1.11925,-0.0253 -0.3499,-0.006 -1.39948,10e-4 -1.04979,-0.012 0.50647,-0.0194 1.01367,-0.004 1.5205,-0.006 -2.41796,0.0133 -4.80387,0.34294 -7.19626,0.6736 -3.16243,0.28158 -6.32706,0.3797 -9.49398,0.0786 -2.98488,-0.13279 -5.9741,-0.008 -8.95811,-0.15591 -0.9002,-0.0676 -1.79976,-0.15196 -2.70066,-0.20975 -0.25057,-0.0161 -0.50124,-0.0326 -0.75225,-0.0393 -0.2278,-0.006 -0.91154,0.002 -0.68366,10e-4 0.58844,-0.002 1.17687,-0.003 1.7653,-0.005 -1.71898,-0.0574 -3.38962,0.33759 -5.07248,0.64108 -2.62477,0.43216 -5.26638,0.75902 -7.93246,0.74017 -1.68836,0.0305 -3.37747,0.12409 -5.0655,0.0879 -0.71799,0.008 -1.45333,-0.0151 -2.12,0.29667 -1.46773,0.5053 -2.85967,1.23938 -4.37017,1.63239 -2.29419,0.68574 -4.61356,1.27793 -6.99342,1.58273 -0.87477,0.12743 -1.37958,0.18369 -2.12661,0.71118 -2.31592,1.10983 -4.73819,1.97644 -7.15387,2.84088 -2.05138,0.66767 -4.14116,1.22406 -6.25722,1.64746 -1.58053,0.3203 -3.10763,0.84749 -4.69071,1.15935 -1.93478,0.38047 -3.88884,0.60406 -5.86213,0.63657 -6.811802,0.1123 -2.07703,-0.0209 -1.32164,0.11274 0.24597,0.0435 -0.49591,0.0603 -0.74398,0.0895 -1.05149,0.12372 -2.10358,0.2515 -3.16206,0.2991 -3.454048,0.1283 -6.945649,0.13191 -10.375704,-0.31574 -0.777444,-0.1253 -5.35282,-0.70698 -1.062244,-0.37535 0.194487,0.015 -0.386858,0.0505 -0.580287,0.0757 -1.845032,0.26689 -0.128895,0.0437 -3.961884,0.22308 -1.73936,0.0814 -3.479202,0.22813 -5.220621,0.0399 -2.862021,-0.30368 -5.671309,-0.84923 -8.394065,-1.8056 -1.916604,-0.52625 -3.857154,-0.58782 -5.83956,-0.59636 -4.059301,-0.28667 -8.100385,-0.84995 -11.984188,-2.11813 -1.713098,-0.55611 -3.395488,-1.13418 -5.04548,-1.85947 -0.261353,-0.11488 -1.030499,-0.2405 -0.774197,-0.36626 3.711889,-1.82126 1.02761,0.87903 2.630582,-0.89955 -3.388534,0.56432 -2.707507,0.86658 -4.563255,0.5387 -0.240903,-0.0426 -1.929125,-0.39462 -1.912493,-0.71415 0.141803,-2.72425 0.761479,-5.40248 1.142217,-8.10373 1.432774,-0.0829 2.862384,-0.25159 4.297513,-0.26232 2.645614,-0.0198 5.231765,0.68196 7.704653,1.56156 0.804154,0.34572 1.62419,0.6566 2.412455,1.03715 3.219731,1.55438 6.202418,3.62393 8.615744,6.27285 0.341479,0.45222 0.602803,0.57922 0.07144,0.42017 -0.180956,-0.0542 -0.367477,-0.0991 -0.535445,-0.18551 -0.227277,-0.11691 1.291712,0.37227 0.750602,0.15654 0.342714,2.62434 0.685429,5.24868 1.028144,7.87302 -2.13763,1.58356 -4.883195,1.32586 -7.438165,1.13137 -2.580706,-0.40103 -4.931468,-1.29627 -7.06306,-2.83465 -2.025864,-1.14954 -4.268856,-1.8209 -6.37985,-2.79242 -3.897196,-1.94308 -7.547472,-4.31365 -10.148004,-7.89452 -0.395152,-0.61814 -0.829797,-1.21273 -1.185455,-1.8544 -1.156324,-2.08621 -2.004946,-4.62424 -1.560502,-7.02309 0.305197,0.71844 0.460629,1.52105 0.915591,2.15534 0.422132,0.58852 1.14109,0.8989 1.646939,1.41723 0.04396,0.0451 -0.170554,0.18447 -0.133409,0.13365 1.719363,-2.35216 3.596079,-4.59488 5.181338,-7.03943 0.03818,-0.0589 -0.579638,-0.8002 -0.6213,-0.8518 -0.02146,-0.0889 -0.120956,-0.18476 -0.07501,-0.26379 0.174887,-0.30085 1.270886,0.11375 1.490371,0.0696 2.273345,0.52069 4.125582,1.81439 4.963935,4.08486 -2.888575,1.13234 -5.69283,2.50935 -8.665723,3.39703 -0.249785,0.0746 -0.206661,-0.47875 -0.317251,-0.71481 -0.04121,-0.088 -0.09592,-0.16912 -0.137888,-0.25673 -1.456071,-3.03919 4.692965,-7.24617 7.387969,-5.30135 1.1534,0.55948 2.303015,1.1305 3.280653,1.9774 0.896488,0.69611 1.752396,1.49564 2.754463,2.02791 1.354929,0.49548 2.761964,0.82715 4.10853,1.34771 1.866437,0.71862 3.712432,1.49315 5.500298,2.39201 1.291206,0.61378 2.563291,1.26986 3.898223,1.78626 1.427199,0.52549 2.899066,0.91016 4.399674,1.16247 2.42887,0.43293 4.867262,0.88458 7.162612,1.82498 1.814621,0.74717 3.51617,1.74207 5.368845,2.39149 1.781689,0.41102 3.599141,0.30632 5.417921,0.30329 2.620325,-0.005 5.230841,0.16023 7.847415,0.27701 -0.504585,0.0189 -1.016757,-0.0325 -1.513751,0.0568 -0.332755,0.0597 0.675614,0.0316 1.013688,0.033 1.417262,0.006 2.822935,-0.17203 4.224006,-0.36622 2.36115,-0.24053 4.71936,-0.52225 7.0868,-0.69183 1.63661,-0.0834 2.435,-0.14481 4.41532,-0.0354 3.82736,0.21153 5.08477,7.12282 1.44677,8.65055 -1.75211,0.62664 -2.85198,0.27164 -4.35843,-0.29249 -0.15268,-0.0572 -0.13576,-0.0479 -0.23426,0.008 0.97678,0.85621 0.11145,0.35695 2.68514,0.40004 0.0761,0.001 -0.15155,0.0187 -0.2253,0.0377 -0.38447,0.0989 -0.75288,0.25559 -1.14528,0.32667 -1.85865,0.49526 -3.71301,1.06136 -5.63707,1.23719 -6.108324,0.13941 -2.33533,0.0138 -1.093,0.0995 0.12793,0.009 -0.2523,0.046 -0.3783,0.0698 -0.67641,0.12786 -1.33313,0.32775 -2.00103,0.49388 -2.965043,0.78784 -5.976946,1.40037 -9.030103,1.72668 -1.881563,0.17516 -3.769942,0.23981 -5.648319,0.4288 -1.989791,0.35937 -3.913042,1.05135 -5.905791,1.40894 -2.904173,0.62522 -5.843625,1.13267 -8.810604,1.33219 -1.991357,0.11087 -3.971748,0.0233 -5.962375,0.0815 -2.800974,0.27965 -5.65391,0.33361 -8.399153,-0.37002 -1.765429,-0.51016 -3.493614,-1.1107 -5.200253,-1.79137 -1.498817,-0.51533 -3.020028,-0.96667 -4.497197,-1.54409 -1.727869,-0.74113 -3.392807,-1.61427 -4.779962,-2.90897 -1.12068,-1.01187 -2.163162,-2.10357 -3.18915,-3.21069 -0.937173,-1.02285 -1.894221,-2.02899 -2.856418,-3.02822 -1.051719,-1.09135 -2.1399,-2.14965 -3.127655,-3.301 -1.411047,-1.71581 -2.477159,-3.62251 -2.802038,-5.85523 -0.347104,-2.18467 -0.633064,-4.39183 -0.501253,-6.6093 0.243818,-2.93816 0.74676,-5.86484 1.737672,-8.65106 0.746408,-2.05646 1.621901,-4.05879 2.369169,-6.11418 1.018979,-2.8769 2.126316,-5.73993 3.763624,-8.33236 2.279189,-3.28292 4.936799,-6.39653 8.828132,-7.76001 4.095517,-3.61807 9.212231,2.17387 5.116714,5.79193 z"
       inkscape:connector-curvature="0" />
    <path
       style="fill:#ffb380;fill-opacity:1;stroke:none;stroke-width:0.26458332;stroke-opacity:1"
       id="path939"
       d="m 121.55884,108.59179 c 0.44114,0.0785 0.88644,0.13651 1.32342,0.23562 1.29237,0.29311 2.02437,0.5798 3.31212,0.94137 1.71684,0.48206 3.45934,0.86687 5.19716,1.26349 2.88521,0.67601 5.76798,1.35048 8.62292,2.14618 1.73806,0.46112 3.51195,0.76579 5.26076,1.17831 1.2036,0.24137 2.41276,0.4351 3.63659,0.54076 1.3974,0.25949 2.80984,0.28726 4.22255,0.34016 1.31179,0.0528 2.61789,0.18655 3.91884,0.3579 1.25466,0.13806 2.49523,0.32344 3.75686,0.37427 1.26981,0.006 2.53932,-10e-4 3.80923,0.017 1.27275,0.0857 2.53311,0.27791 3.78733,0.5042 0.93915,0.21704 1.90272,0.17162 2.85732,0.21691 1.2219,0.0332 2.4356,0.19254 3.65091,0.3122 1.1293,0.0463 2.25654,0.13073 3.38151,0.2396 1.20093,0.17176 2.41019,0.21502 3.61814,0.29741 1.49577,0.005 2.99171,0.0247 4.48415,0.12869 1.36385,0.10871 2.68019,0.49854 4.03269,0.67525 1.12103,0.11002 2.24873,-0.0431 3.37707,-0.0131 0.21086,0.01 0.42177,0.0183 0.6326,0.0286 0.44488,0.0219 0.67396,0.0382 1.11281,0.0579 0.16536,0.007 0.66172,0.0162 0.49622,0.0191 -4.55273,0.0803 -1.52064,-0.004 -1.21193,-0.0127 1.87838,-0.0302 3.75695,-0.0255 5.63561,-0.0415 1.43368,-0.0564 0.18281,0.006 -1.03587,-0.0605 -0.19229,-0.0104 0.38492,-0.0132 0.57722,-0.0233 0.56539,-0.0298 1.12965,-0.0814 1.69459,-0.11868 0.80799,-0.0501 1.61812,-0.25416 2.42933,-0.21535 0.74356,-0.21208 1.41581,-0.66648 2.09947,-1.02711 0.58253,-0.17197 2.10208,-1.18919 2.67901,-0.95597 -0.39097,0.85021 0.6741,-0.66928 0.73109,-0.743 0.4726,-0.54478 0.91133,-1.12531 1.41833,-1.63905 0.32636,-0.48299 0.31539,0.10302 0.30189,0.34847 2.70287,0.87603 5.40573,1.75205 8.10859,2.62808 -0.33685,0.44428 0.0557,-0.31371 -0.0244,-0.35032 -8.26878,-3.77925 -7.96925,-6.14522 -8.2676,-2.98637 -0.0496,0.48547 -0.27199,0.98419 -0.1489,1.45641 0.19707,0.75609 1.06199,3.38628 2.38802,3.81725 0.75922,0.24675 1.59428,0.10324 2.38626,0.20357 0.0199,0.003 -0.27529,0.0429 -0.94643,0.13655 -1.66985,0.31171 -3.35913,0.3296 -5.04928,0.26245 -1.10397,-0.31203 -1.34988,0.12967 -2.21276,0.86002 -0.9423,0.75656 -2.37506,2.58101 -3.74122,2.32743 -0.29555,-0.0549 -0.54945,-0.24404 -0.82417,-0.36606 -0.44035,-0.26102 -0.8807,-0.52204 -1.32105,-0.78306 -0.40687,1.72045 -2.83996,1.14504 -2.43309,-0.5754 v 0 c -0.40057,-0.40121 -0.80115,-0.80241 -1.20173,-1.20361 -0.26574,-0.80691 -0.52806,-1.19118 -0.33678,-2.03892 0.33221,-1.47236 1.80133,-2.55704 2.74408,-3.60796 1.99602,-1.74616 4.17912,-3.31456 6.86255,-3.74484 1.47806,-0.0951 2.95639,-0.0931 4.43678,-0.11845 1.56944,-0.0894 3.3379,-0.25151 4.8361,0.10478 1.94769,0.46319 2.81259,2.36396 3.33416,4.10293 0.17374,0.57927 -0.0796,1.20691 -0.11944,1.81036 -0.0661,0.2377 0.0426,0.76668 -0.19825,0.71309 -2.90972,-0.64748 -5.75294,-1.5966 -8.53873,-2.65726 -0.17355,-0.0661 0.10297,-0.35685 0.15134,-0.53613 0.85955,-3.1859 2.71451,-0.1253 8.54244,1.65249 -0.10327,1.18461 -0.37627,2.31366 -1.12639,3.27834 -0.52996,0.73626 -1.13995,1.43135 -1.86228,1.98647 -0.67027,0.54694 -1.00424,1.36562 -1.61211,1.9813 -1.1258,1.11097 -2.44415,1.93454 -3.95859,2.42098 -0.9239,0.28269 -1.88368,0.43557 -2.7725,0.81066 -0.9913,0.51769 -2.02687,0.92938 -3.11644,1.19449 -2.33942,0.60169 -4.73047,0.64995 -7.14253,0.47745 4.00373,-0.0588 -0.25582,0.007 -1.06763,-0.0184 -1.92382,-0.0305 -3.84469,0.0132 -5.76723,0.0598 -1.39651,-0.0151 -2.77335,-0.18435 -4.1487,-0.41911 -1.1709,-0.15669 -2.34695,-0.15716 -3.52724,-0.15149 -1.59848,-0.042 -3.19419,-0.15596 -4.7746,-0.40861 -1.12817,-0.13868 -2.24888,-0.34585 -3.38751,-0.38318 -1.2297,-0.0483 -2.46404,-0.0709 -3.6822,-0.26452 -1.0901,-0.12917 -2.1836,-0.21001 -3.27788,-0.2937 -1.16814,-0.085 -2.32204,-0.27202 -3.47703,-0.46114 -0.96891,-0.10237 -1.93999,-0.0648 -2.91294,-0.0379 -1.48744,-0.0402 -2.98069,-0.0716 -4.45219,-0.31669 -1.18164,-0.20452 -2.35659,-0.45396 -3.55428,-0.55098 -1.27501,-0.0668 -2.55152,-0.0929 -3.82431,-0.20307 -1.60026,-0.17574 -3.18454,-0.48007 -4.74382,-0.8806 -1.19195,-0.3073 -2.39953,-0.48749 -3.62078,-0.63422 -1.96194,-0.22637 -3.87903,-0.68627 -5.7822,-1.20728 -2.98084,-0.60366 -5.99987,-0.98901 -8.97739,-1.61106 -3.8693,-1.06121 -7.87387,-2.52236 -10.38896,-5.82913 -3.54873,-3.3385 1.17262,-8.35715 4.72135,-5.01866 z"
       inkscape:connector-curvature="0" />
    <path
       style="fill:#ffb380;fill-opacity:1;stroke:none;stroke-width:0.26458332;stroke-opacity:1"
       id="path941"
       d="m 240.58039,139.10614 c -0.6973,-3.01445 -0.18423,-6.12446 0.56562,-9.07826 0.0587,-0.21645 0.084,-0.44487 0.17614,-0.64934 0.0146,-0.0323 0.0838,0.009 0.0979,0.0412 0.10665,0.24571 0.123,0.52813 0.2513,0.76326 0.18012,0.3301 0.42925,0.61819 0.66317,0.91262 0.66112,0.83215 0.57725,0.42681 2.10669,0.47653 -0.009,-0.004 -0.20991,-0.0493 -0.15837,-0.13873 0.0443,-0.0769 0.12678,-0.12428 0.19017,-0.18642 -0.36333,-1.15201 -0.72666,-2.30401 -1.08999,-3.45601 1.11538,0.30924 0.67805,1.88663 -0.43734,1.57739 v 0 c -1.38976,-2.91072 -2.75803,-3.37943 -0.44527,-4.02232 0.79096,0.005 1.59019,-0.0988 2.37287,0.0155 0.39633,0.0578 0.77026,0.25889 1.09675,0.4909 1.54585,1.09852 2.13918,2.71838 2.36708,4.52349 0.32905,3.12196 0.12041,6.35612 -1.30895,9.205 -0.33567,4.55925 -6.78343,4.08453 -6.44775,-0.47472 z"
       inkscape:connector-curvature="0" />
    <path
       style="fill:#ffb380;fill-opacity:1;stroke:none;stroke-width:0.26458332;stroke-opacity:1"
       id="path943"
       d="m 236.32204,170.87791 c 1.48817,-3.85749 4.5357,-6.8294 7.81818,-9.21921 0.43373,-0.25382 0.85396,-0.53225 1.30118,-0.76147 0.0184,-0.009 1.84721,-0.8269 2.00919,-0.73324 3.99551,2.31038 5.59591,2.22155 4.00024,4.81933 -0.0839,0.008 -0.22592,0.10298 -0.25165,0.0228 -0.85807,-2.67428 1.13203,-1.02408 -2.93519,-2.56549 2.31423,-0.88992 3.57277,2.3829 1.25853,3.27282 v 0 c -3.59115,-1.09833 -3.20633,-0.0235 -3.48811,-3.138 0.009,-0.0279 0.0215,-0.23721 0.1347,-0.17621 1.61239,0.86867 3.21404,1.75717 4.81641,2.6442 0.0514,0.0285 0.16016,0.0453 0.14395,0.10174 -0.06,0.20917 -0.20915,0.38271 -0.33413,0.56086 -0.22563,0.32167 -0.47739,0.62419 -0.71609,0.93628 -2.50115,2.93539 -5.32083,5.75468 -8.72056,7.62738 -2.39834,3.56145 -7.435,0.16969 -5.03665,-3.39177 z"
       inkscape:connector-curvature="0" />
    <path
       style="fill:#ffb380;fill-opacity:1;stroke:none;stroke-width:0.26458332;stroke-opacity:1"
       id="path945"
       d="m 46.485622,141.60674 c -0.215228,2.9472 -1.039932,5.80819 -1.43826,8.73623 -0.305982,2.03497 0.07979,3.95953 0.700427,5.88457 0.682352,1.86167 1.150818,3.79055 1.756621,5.67652 0.380733,1.3412 1.125609,2.47868 2.015517,3.53015 0.09474,0.0641 0.760997,1.00469 0.752906,1.00211 -0.130926,-0.0418 -0.233802,-0.28797 -0.35101,-0.21623 -1.619842,0.99145 -3.104972,2.18783 -4.657457,3.28175 -0.398182,0.0195 0.845518,1.1375 0.198379,1.09422 -0.27078,-0.0181 -1.7374,-1.41498 -1.928643,-1.59 -1.918184,-1.7984 -3.252332,-4.05594 -4.382056,-6.40232 -0.890566,-2.11605 -1.408387,-4.35144 -1.709933,-6.61982 -0.176882,-1.80285 -0.388818,-3.6017 -0.611598,-5.39934 -0.142329,-1.14201 -0.307776,-2.28073 -0.424145,-3.42582 -0.06572,-0.7369 -0.07439,-1.45571 0.203205,-2.14679 0.437097,-4.49283 6.79092,-3.87468 6.353823,0.61816 v 0 c 0.320485,-0.55975 0.242255,0.21224 0.383895,0.48012 0.373361,1.1254 0.781211,2.24185 1.022437,3.40614 0.389006,1.86203 0.663303,3.74559 0.784283,5.64524 0.176771,1.4883 0.487003,2.90271 1.380845,4.14771 1.138224,1.79116 2.4022,3.50652 3.382729,5.39454 0.05379,0.1398 0.181737,0.27101 0.161357,0.41942 -0.0099,0.0718 -0.245952,-0.0836 -0.216572,-0.0174 0.350316,0.7893 1.099158,1.37228 1.298397,2.24076 -1.479798,1.25792 -2.831533,2.6843 -4.439398,3.77378 -0.198546,0.13453 -0.424167,-0.22399 -0.637379,-0.3338 -0.828876,-0.42692 -1.544865,-1.01867 -2.181535,-1.70144 -1.303644,-1.62527 -2.345314,-3.41482 -3.007632,-5.40001 -0.620821,-1.90144 -1.20205,-3.8155 -1.840312,-5.71114 -0.797192,-2.60348 -1.513692,-5.24697 -1.644116,-7.98278 -0.01156,-3.8599 0.5386,-7.61294 3.082089,-10.68329 1.625473,-4.23778 7.618606,-1.93902 5.993136,2.29877 z"
       inkscape:connector-curvature="0" />
  </g>
  <g
     inkscape:groupmode="layer"
     id="layer3"
     inkscape:label="lines 1">
    <path
       style="fill:#000000;fill-opacity:1;stroke:none;stroke-width:0.26458332;stroke-opacity:1"
       id="path873"
       d="m 50.734475,124.51206 c -1.365932,1.76073 -3.15695,3.14582 -4.789334,4.65229 -0.958307,0.85299 -1.820674,1.78079 -2.381983,2.93871 -0.79026,1.66074 -1.705617,3.2532 -2.708497,4.79346 -1.006046,1.55261 -2.115717,3.03398 -3.065153,4.62262 -0.6487,1.20388 -0.863052,2.57593 -1.216768,3.88326 -0.507908,1.72302 -1.066623,3.42989 -1.580176,5.15133 -0.474205,1.51103 -0.862148,3.04397 -1.157955,4.59922 -0.257312,1.5011 -0.437938,3.01304 -0.57227,4.52962 -0.09197,1.18432 -0.112019,2.37271 -0.08471,3.55984 -0.01617,1.07235 0.127691,2.10392 0.45306,3.12217 0.334795,1.02702 0.618066,2.06981 0.963686,3.09348 0.125082,0.64932 0.457346,1.12487 0.816803,1.6527 0.561645,0.78981 1.123612,1.5794 1.673548,2.37748 0.390763,0.60383 0.93004,1.06632 1.496378,1.49643 0.606112,0.45957 1.289566,0.79762 1.936083,1.1933 0.686935,0.37806 1.352394,0.81575 2.086784,1.09615 0.780156,0.32362 1.598653,0.53876 2.400605,0.80124 0.941797,0.33311 1.88673,0.64757 2.868789,0.83614 1.15691,0.15322 2.302836,0.34379 3.446383,0.58096 0.961679,0.11601 1.921238,0.19483 2.882236,0.32802 0.968661,0.24307 1.91846,0.52713 2.908004,0.66626 1.033804,0.13541 2.059257,0.31977 3.086907,0.49393 1.384747,0.23788 2.771264,0.47117 4.16764,0.63104 1.726851,0.18142 3.452413,0.37024 5.179316,0.55108 1.793894,0.21037 3.591142,0.32209 5.396458,0.34838 0.482325,-0.0513 3.587395,-0.0186 0.647668,-0.0442 -0.306715,-0.003 0.613452,-0.002 0.920176,-0.003 1.221655,-0.004 0.591444,0.002 1.80944,-0.0173 2.205937,0.0474 4.41524,0.007 6.61865,0.13412 0.203131,0.007 0.406286,0.0125 0.609394,0.0198 0.39084,0.0142 0.727707,0.0323 1.117875,0.0404 0.176228,0.004 0.705003,0.001 0.528775,0.005 -1.54114,0.0323 -2.136352,-0.0402 -1.333762,0.0441 0.688891,0.0293 1.32497,-0.28189 1.960306,-0.50688 1.029777,-0.42546 2.119455,-0.66745 3.180326,-0.99675 1.918004,-0.6944 3.853418,-1.31284 5.831779,-1.81154 2.165736,-0.51734 4.379454,-0.75778 6.602264,-0.79966 1.67371,0.0977 3.28206,-0.2744 4.88552,-0.69932 2.21806,-0.70138 4.48389,-1.16385 6.79406,-1.41094 0.35312,-0.0153 0.70598,-0.0522 1.05938,-0.0459 9.94364,0.17683 0.17303,-0.0188 3.94796,0.22684 0.25818,0.0168 0.51797,0.0163 0.77619,-2e-5 0.25927,-0.0163 1.01875,-0.0128 0.77322,-0.0977 -0.43571,-0.15058 -0.91899,-0.0743 -1.37848,-0.1115 2.1227,-0.22433 4.22507,-0.59937 6.3417,-0.87152 1.92946,-0.24397 3.8533,-0.5157 5.7641,-0.87904 2.14899,-0.43727 4.31104,-0.7977 6.48703,-1.06855 1.48535,-0.17034 2.98127,-0.21212 4.44884,-0.51058 1.70105,-0.48084 3.363,-1.08718 5.05139,-1.61041 1.92062,-0.59284 3.90109,-0.93362 5.89939,-1.11301 1.90511,-0.10875 3.79428,-0.39348 5.68409,-0.64602 2.17776,-0.33474 4.37803,-0.43974 6.5735,-0.58318 1.87879,-0.15819 3.76125,-0.26873 5.64512,-0.34275 2.53011,-0.0233 5.06037,0.0146 7.59067,0.0205 0.90265,0.001 1.80512,-0.0223 2.7077,-0.0283 0.30645,-0.002 1.22558,-0.0131 0.91939,-2.7e-4 -0.80271,0.0336 -2.25991,8e-4 -0.46206,0.0309 2.10318,0.083 4.20402,0.11711 6.30904,0.12638 1.44529,0.001 2.88972,-0.0575 4.33532,-0.0752 1.61994,-0.0283 3.24054,0.0694 4.85268,0.22199 1.37119,0.20246 2.74698,0.20242 4.12608,0.11574 0.28201,-0.0169 1.12258,0.007 0.84604,-0.0508 -0.41589,-0.0869 -0.85193,0.01 -1.27405,-0.0386 -0.30127,-0.0345 0.60647,-0.006 0.90968,-0.003 1.75363,0.018 3.04178,-0.0529 4.64633,0.31466 0.92768,0.26327 1.71765,0.59286 2.68517,0.44133 1.15429,-0.0959 2.31355,-0.0963 3.4711,-0.0887 1.12833,0.0159 2.24922,0.17472 3.37379,0.26161 0.81596,0.0774 1.61098,0.2245 2.42764,0.28483 1.06224,0.0979 2.1104,0.29674 3.16018,0.47844 0.87477,0.14828 1.72168,0.43728 2.59265,0.59882 0.0157,-0.001 0.0628,-0.003 0.0471,-0.003 -0.79134,0.003 -1.83346,-0.54915 -2.18531,0.23956 -0.0609,0.13664 -0.14779,0.27765 -0.1384,0.42697 0.0197,0.31385 0.74504,1.57528 0.74571,1.57656 1.96583,-1.38279 3.92138,1.39731 1.95556,2.7801 v 0 c 0.12861,0.31903 0.61321,1.18585 0.47073,1.68614 -0.38671,1.35788 -2.7534,0.77408 -3.72785,0.73687 -1.02345,-0.11817 -2.03509,-0.28944 -3.03953,-0.52077 -0.79379,-0.16995 -1.59247,-0.33187 -2.39956,-0.42352 -0.75544,-0.0712 -1.50108,-0.082 -2.25997,-0.0738 -1.06054,-0.0249 -2.1182,0.019 -3.17804,0.0398 -1.27051,-0.019 -2.54439,-0.0616 -3.80356,-0.24407 -0.89575,-0.17214 -1.77813,-0.46984 -2.69206,-0.24087 -0.17483,0.0302 -0.34844,0.0686 -0.52448,0.0907 -0.23976,0.03 -0.96017,0.0252 -0.72193,0.0655 0.43975,0.0745 0.89574,-0.0229 1.33748,0.0387 0.31699,0.0442 -0.64002,0.0156 -0.96008,0.0139 -3.13821,-0.0159 -2.1887,0.0331 -4.06774,-0.10079 -1.37394,-0.13792 -2.75085,-0.34283 -4.13508,-0.27239 -1.63092,0.0597 -3.26606,0.0994 -4.8951,-0.0285 -1.3494,-0.0976 -2.70072,-0.22168 -4.0548,-0.20639 0.4972,0.003 0.99471,-0.007 1.49162,0.0102 0.19619,0.007 -0.39246,0.0124 -0.58855,0.0218 -0.96349,0.046 -1.92394,0.14207 -2.88803,0.17787 -2.53455,0.10626 -5.07073,0.0681 -7.60564,0.004 -0.28275,-0.002 -1.13102,-0.006 -0.84826,-0.007 0.43926,-0.002 0.87898,-0.0153 1.31779,0.005 0.27891,0.0128 -0.55831,0.0108 -0.83744,0.0172 -0.90321,0.0206 -1.80624,0.0497 -2.70962,0.0628 -1.72056,-0.005 -3.44459,-0.018 -5.16199,0.0962 -2.10136,0.26141 -4.16447,0.78313 -6.27764,0.96981 -2.10008,0.19718 -4.20267,0.26659 -6.31165,0.21286 -1.44621,-0.0128 -2.72189,0.22006 -4.08661,0.73896 -1.95716,0.59583 -3.92466,1.17557 -5.93046,1.58526 -1.45801,0.27439 -2.93894,0.43604 -4.36903,0.84815 -2.26451,0.57029 -4.54841,1.10842 -6.8862,1.26332 -1.76943,0.11035 -3.54233,0.2148 -5.25139,0.73168 -2.4646,0.65323 -4.97766,1.18302 -7.53522,1.25641 -1.15404,-0.0183 -2.30929,0.001 -3.46212,-0.0549 -0.3231,-0.0157 -1.55838,-0.25946 -1.94532,-0.31111 -0.19858,-0.0265 -0.79925,-0.0446 -0.59898,-0.0496 0.54782,-0.0136 1.09582,0.0281 1.64378,0.0237 0.13897,-0.001 -0.27703,-0.0224 -0.41554,-0.0335 -1.94107,0.1529 -3.73613,1.10803 -5.63802,1.47291 -2.19048,0.49823 -4.40333,0.83167 -6.658,0.72721 -0.16354,2.6e-4 -1.13242,-0.001 -1.30914,0.0116 -1.1953,0.085 -2.35696,0.44571 -3.51516,0.72295 -2.150931,0.51634 -4.316852,0.97555 -6.514926,1.24168 -0.798872,0.08 -1.596284,0.0963 -2.386968,0.19307 -1.092226,0.40582 -2.137314,0.93984 -3.279693,1.19958 -1.893181,0.37669 -3.840548,0.15319 -5.760204,0.24464 -0.435324,0.016 -1.741101,0.009 -1.306343,0.0365 0.449207,0.0283 0.901605,-0.01 1.349957,0.0297 0.241874,0.0214 -0.485386,0.0156 -0.728011,0.0252 -0.293772,0.0116 -1.324274,0.0594 -1.600915,0.0721 -2.681271,0.0863 -5.369131,0.2625 -8.049006,0.0434 -1.934339,-0.14409 -3.8595,-0.38631 -5.789858,-0.57461 -1.845749,-0.21308 -3.687045,-0.47232 -5.507106,-0.85031 -1.391584,-0.30731 -2.774233,-0.64963 -4.162446,-0.97119 -1.049433,-0.22407 -2.104123,-0.41991 -3.150172,-0.6595 -0.771173,-0.20525 -1.53851,-0.48281 -2.348857,-0.45012 -1.116055,-0.0987 -2.237533,-0.13951 -3.336713,-0.38768 -1.336823,-0.22014 -2.664793,-0.47356 -3.943654,-0.93665 -1.078958,-0.38324 -2.159106,-0.76382 -3.229584,-1.17012 -1.003117,-0.40097 -1.988976,-0.84045 -2.937317,-1.35996 -0.800928,-0.47876 -1.628918,-0.91169 -2.414897,-1.41614 -0.951965,-0.56452 -1.863611,-1.19849 -2.685669,-1.9423 -0.908076,-0.84516 -1.746863,-1.76571 -2.458497,-2.78436 -0.602578,-0.88511 -1.13084,-1.81248 -1.592358,-2.77904 -0.436346,-0.80591 -0.867778,-1.61426 -1.293164,-2.42611 -0.647497,-1.33087 -1.184035,-2.71487 -1.484915,-4.16882 -0.220119,-1.37838 -0.292483,-2.75036 -0.272095,-4.14462 -0.124073,-1.45644 -0.324414,-2.91279 -0.2266,-4.37864 0.119395,-1.74156 0.392589,-3.4621 0.740121,-5.17247 0.313854,-1.77654 0.696748,-3.54019 1.215324,-5.26952 0.518914,-1.77876 1.108117,-3.53874 1.809522,-5.25447 0.576453,-1.50797 1.0404,-3.04492 1.52804,-4.58358 0.803937,-2.09263 1.869578,-4.06128 3.247904,-5.83676 1.027181,-1.29967 2.157708,-2.51076 3.187131,-3.80617 0.358497,-0.53665 0.578432,-1.10271 0.860165,-1.68301 0.481915,-0.99264 1.037371,-1.94691 1.709471,-2.82477 1.871707,-2.19138 4.064124,-4.22152 6.952831,-4.89846 3.287985,-2.68289 7.082169,1.96702 3.794186,4.64991 z"
       inkscape:connector-curvature="0" />
    <path
       style="fill:#000000;fill-opacity:1;stroke:none;stroke-width:0.26458332;stroke-opacity:1"
       id="path881"
       d="m 219.21276,170.35748 c 0.39421,0.12826 0.79819,0.22966 1.18263,0.38478 1.72608,0.69647 3.31668,1.69344 4.90641,2.6461 2.28196,1.3675 1.29881,0.79174 3.60314,2.09846 3.66048,2.10895 7.45668,2.63177 11.59011,2.91571 2.95239,0.20099 5.91714,0.11329 8.87117,0.25408 0.0567,0.003 0.10511,0.0428 0.15766,0.0641 0.64371,0.0223 1.28742,0.0445 1.93112,0.0668 1.59945,-0.0949 4.30748,0.52225 5.76986,-0.32187 0.17097,-0.0987 0.30965,-0.24496 0.46448,-0.36744 1.23042,-1.61104 1.6999,-3.65254 2.30828,-5.55178 0.73218,-2.40739 1.52703,-4.79336 2.11401,-7.24151 0.48221,-1.97666 0.64937,-4.01516 0.33314,-6.02765 -0.54127,-1.97183 -1.95068,-3.54047 -3.28901,-5.02805 -1.53519,-1.77987 -3.1343,-2.66661 -5.29191,-3.48032 -2.89598,-0.84942 -5.73425,-1.8475 -8.52506,-2.99446 -2.37374,-0.92107 -4.63298,-2.39697 -7.19826,-2.75668 -0.37744,-0.0529 -0.76116,-0.0411 -1.14173,-0.0617 -0.39419,0.0256 -0.81141,-0.0583 -1.18255,0.0769 -0.25317,0.0923 1.05967,-0.0309 0.80612,0.0603 -0.38897,0.13993 -0.82561,0.0494 -1.23651,0.0946 -1.08965,0.11981 -2.12025,0.37144 -3.16909,0.67713 -1.67824,0.52399 -3.16114,1.46633 -4.82367,2.02885 -1.30541,0.2078 -1.44193,0.0948 -2.56092,-0.5743 -1.86002,1.42942 -3.88152,-1.20105 -2.0215,-2.63047 v 0 c 0.014,-1.10969 -0.0612,-1.28595 0.66945,-2.10099 1.393,-1.1308 2.75946,-2.30567 4.26591,-3.28375 1.22928,-0.66442 1.60541,-0.92837 2.95504,-1.39992 2.9795,-1.041 6.18115,-1.11841 9.29251,-0.73263 0.62792,0.11953 1.26149,0.21248 1.88377,0.35859 2.88818,0.67813 5.56403,1.99605 8.23111,3.25472 2.70101,1.27378 5.48221,2.33356 8.24403,3.46365 1.10287,0.54512 1.71485,0.80877 2.75435,1.48045 1.79985,1.16299 3.36993,2.64364 4.69457,4.32366 1.85661,2.57587 3.40111,5.34137 3.80793,8.54607 0.23533,2.74247 0.13462,5.48217 -0.55729,8.16226 -0.68006,2.60258 -1.46798,5.17608 -2.36521,7.71241 -1.0354,2.78653 -2.1494,5.609 -4.21483,7.81191 -0.41058,0.36815 -0.79188,0.77182 -1.23173,1.10444 -2.25953,1.70871 -5.06769,2.22998 -7.82668,2.42958 -5.16583,0.42842 -10.38705,0.4767 -15.54766,-0.046 -1.96563,-0.28373 -2.96834,-0.38148 -4.90202,-0.8485 -3.16644,-0.76475 -6.18313,-2.02528 -8.98321,-3.68591 -3.10106,-1.98031 -6.36074,-4.14508 -8.27209,-7.38233 -2.47434,-2.4778 1.02978,-5.97705 3.50413,-3.49925 z"
       inkscape:connector-curvature="0" />
    <path
       style="fill:#000000;fill-opacity:1;stroke:none;stroke-width:0.26458332;stroke-opacity:1"
       id="path885"
       d="m 244.20205,142.71371 c 0.43915,-2.89569 2.11926,-5.36618 3.09306,-8.08326 0.0549,-0.27685 0.15049,-0.54867 0.16472,-0.83056 0.0691,-1.36846 -1.25016,-2.26753 -2.20505,-2.98049 -2.26167,-1.4812 -4.8801,-1.67961 -7.50014,-1.83555 -3.15065,-0.0904 -6.32851,-0.13649 -9.41013,-0.88153 -0.5638,-0.13631 -1.11349,-0.3255 -1.67023,-0.48825 -1.5701,-0.39482 -2.87966,-1.48347 -4.42014,-1.94043 -0.48945,-0.14519 -0.67727,-0.0942 -1.16824,-0.0671 -0.21326,0.0342 -0.84334,0.0303 -0.63978,0.10247 0.33927,0.12033 0.75146,-0.097 1.07864,0.0532 0.19507,0.0895 -0.42055,0.0896 -0.62496,0.15502 -0.23098,0.0739 -0.45893,0.15964 -0.67865,0.26231 -0.6003,0.28051 -1.068,0.60019 -1.63102,0.95322 -1.55405,1.0072 -3.04499,2.11749 -4.6944,2.96747 -0.70492,0.39719 -1.40973,0.40411 -2.19357,0.40993 -1.33757,1.98279 -4.14166,0.0912 -2.80409,-1.89161 v 0 c -0.13149,-1.03438 -0.14873,-1.39085 0.38004,-2.32845 1.19689,-1.81291 2.82187,-3.27096 4.60099,-4.50549 3.16452,-1.98751 5.53215,-3.00769 9.46105,-2.4874 2.15181,0.40547 4.21307,1.2116 6.40943,1.38389 3.62806,0.329 7.28634,0.36062 10.88002,1.01163 0.67036,0.1481 1.34849,0.26461 2.01108,0.44429 3.04181,0.82485 5.87276,2.30668 8.02796,4.6333 0.3516,0.44416 0.73521,0.86477 1.05481,1.33249 1.69615,2.48227 2.20019,5.12157 1.74442,8.0713 -0.15077,0.56902 -0.25977,1.15077 -0.45231,1.70705 -0.77539,2.24018 -2.1904,4.37794 -3.93051,5.98808 -0.31714,0.29344 -0.68438,0.52763 -1.02657,0.79144 -1.37671,2.72691 -5.23314,0.77995 -3.85643,-1.94696 z"
       inkscape:connector-curvature="0" />
    <path
       style="fill:#000000;fill-opacity:1;stroke:none;stroke-width:0.26458332;stroke-opacity:1"
       id="path895"
       d="m 234.01057,123.18949 c -2.13387,-2.00586 -3.19477,-4.81352 -4.79031,-7.21732 -1.2781,-1.64624 -2.78188,-1.78303 -4.70382,-2.192 -2.61073,-0.53019 -5.10935,-1.46962 -7.65905,-2.22083 -0.57619,-0.13935 -2.30561,-0.5696 -2.88648,-0.38132 -0.24791,0.0803 0.93879,-0.15231 0.77994,0.0543 -0.17736,0.23066 -0.5826,0.022 -0.87058,0.0636 -0.29499,0.0426 -0.58271,0.12558 -0.87407,0.18838 -2.81974,1.10865 -5.21149,3.0779 -7.68158,4.79381 -2.48649,1.69821 -5.11313,3.25853 -8.05685,3.9848 -0.76661,0.15057 -1.41736,-0.0624 -2.13444,-0.29055 -0.87916,1.45884 -2.94228,0.21551 -2.06311,-1.24333 v 0 c -0.14511,-1.26306 -0.14209,-1.57593 0.55697,-2.69389 1.80764,-2.10183 4.15644,-3.64398 6.31835,-5.35235 3.12736,-2.21995 6.36145,-4.37048 10.07593,-5.47437 0.98825,-0.2407 1.96067,-0.534 2.98733,-0.57074 2.43131,-0.087 4.80884,0.0901 7.1483,0.76364 2.5286,0.74437 5.01169,1.63085 7.52921,2.41176 3.00962,1.06741 5.49391,2.29301 7.5222,4.87391 0.32758,0.4736 0.68135,0.93012 0.98276,1.42079 1.30567,2.12556 2.30445,4.61966 2.52164,7.11308 1.39204,3.32505 -3.31029,5.29371 -4.70234,1.96866 z"
       inkscape:connector-curvature="0" />
    <path
       style="fill:#000000;fill-opacity:1;stroke:none;stroke-width:0.26458332;stroke-opacity:1"
       id="path907"
       d="m 45.759642,122.66408 c 0.0021,-3.0096 1.422561,-5.82081 3.158657,-8.2121 0.447608,-0.61653 0.95749,-1.18536 1.436235,-1.77805 2.444054,-2.80283 5.635069,-4.70191 8.722645,-6.69154 1.92369,-1.14771 3.579368,-2.66572 5.352712,-4.0205 2.205664,-1.63918 4.675269,-2.860653 7.117733,-4.097821 2.406663,-1.223584 4.901771,-2.26491 7.519598,-2.933213 0.950688,-0.13892 1.914478,-0.408144 2.88317,-0.403307 1.347637,0.0067 2.659573,0.175024 4.001011,0.140798 1.087009,-0.05009 2.171441,-0.138944 3.256574,-0.217168 0.448921,-0.03236 0.902284,-0.02339 1.347131,-0.09188 0.146677,-0.0226 -0.590555,-0.03473 -0.44269,-0.04738 0.47412,-0.04057 0.951388,-0.02458 1.427085,-0.03686 3.434948,-0.220355 6.785973,0.304504 10.124327,1.02107 2.33174,0.477319 4.64979,1.01396 6.88941,1.826228 1.75149,0.661744 3.35557,1.63784 5.00985,2.501323 1.25522,0.69893 2.62083,1.13037 3.98394,1.55869 1.61816,0.49381 3.18967,1.11922 4.78002,1.69224 1.57093,0.54988 3.18047,0.98086 4.78979,1.40165 1.81396,0.40383 3.60349,0.90647 5.40106,1.37526 1.7849,0.46345 3.58404,0.86925 5.367,1.33984 1.54224,0.40554 3.06148,0.89177 4.61762,1.24274 1.50673,0.31202 3.01431,0.61936 4.52446,0.91445 1.53875,0.29965 3.05237,0.70442 4.5667,1.10599 1.42737,0.40558 2.87771,0.72528 4.3142,1.09744 1.61882,0.39009 3.27929,0.49296 4.93619,0.57739 1.96676,0.0578 3.92146,0.27734 5.8715,0.52581 1.59737,0.20316 3.1876,0.44313 4.79277,0.57824 1.76863,0.10808 3.53629,0.1899 5.30829,0.19813 0.30215,-0.005 1.13811,0.17994 0.90645,-0.0141 -0.23881,-0.20003 -0.63389,0.0723 -0.9345,-0.009 -0.29167,-0.0793 0.60447,7.9e-4 0.9067,0.002 0.86887,0.003 1.73764,0.006 2.60644,0.0165 1.95055,0.0325 3.89997,0.0585 5.84909,0.13955 0.18443,0.006 0.3689,0.012 0.55331,0.0194 0.54616,0.0218 0.47518,0.028 1.01468,0.0345 0.16037,0.002 0.64153,1e-4 0.48115,5.2e-4 -1.32255,0.003 -1.64006,-0.0166 -0.79728,0.0191 0.66041,0.0402 1.32073,0.026 1.98136,0.0278 0.68056,-0.009 1.34922,-0.16677 2.02072,-0.26486 1.12461,-0.15022 2.26154,-0.12989 3.39167,-0.20734 1.17141,-0.0819 2.33972,-0.1975 3.51106,-0.28105 1.10337,-0.0752 2.20844,-0.1464 3.31468,-0.1199 0.43791,0.0337 0.71258,-0.0217 0.98507,0.33682 0.63029,0.82925 1.26885,1.65218 1.90328,2.47827 0.7529,1.0082 -0.67292,2.07296 -1.42581,1.06475 v 0 c 1.39336,1.88604 2.48174,2.28498 0.52973,2.65243 -1.0468,0.13487 -2.10137,0.16672 -3.15488,0.21742 -1.15779,0.0903 -2.31673,0.16766 -3.47122,0.29503 -1.24774,0.11378 -2.50149,0.28481 -3.75557,0.15284 -0.58015,-0.0502 -1.17228,-0.20301 -1.75269,-0.12253 -0.75611,0.13332 -1.51331,0.27479 -2.27911,0.339 -1.60984,0.11209 -3.22805,-0.008 -4.84028,0.0679 -0.39496,0.008 -0.79008,0.008 -1.18497,0.0182 -0.20749,0.006 -0.8285,0.003 -0.62217,0.0259 0.3688,0.0406 0.74504,-0.0217 1.11273,0.028 0.47615,0.0644 -1.99453,-0.009 -1.44,0.0647 -2.4736,0.13609 -4.95028,0.28162 -7.42872,0.15202 -1.92604,-0.0974 -3.84867,-0.28167 -5.75454,-0.57999 -1.53671,-0.23335 -3.07665,-0.40768 -4.63264,-0.44071 -2.05674,-0.0851 -4.12673,-0.0695 -6.15959,-0.44134 -1.84517,-0.35377 -3.66625,-0.80895 -5.47541,-1.3156 -1.43142,-0.37552 -2.85002,-0.7983 -4.28439,-1.16199 -1.43208,-0.36767 -2.87858,-0.67259 -4.32733,-0.96713 -1.53111,-0.3467 -3.05833,-0.70936 -4.5856,-1.07226 -1.58656,-0.38124 -3.1865,-0.70396 -4.77281,-1.0867 -1.84434,-0.42077 -3.68432,-0.86262 -5.50831,-1.36523 -1.78623,-0.50281 -3.58086,-0.97448 -5.37163,-1.46049 -1.75987,-0.50074 -3.50664,-1.04821 -5.20888,-1.72273 -1.51935,-0.58517 -3.05386,-1.13111 -4.58885,-1.67353 -1.61077,-0.58021 -3.17797,-1.26339 -4.67704,-2.09457 -1.37443,-0.71374 -2.78453,-1.35275 -4.30326,-1.69691 -2.09979,-0.52652 -4.21266,-0.99621 -6.337691,-1.41047 -1.947069,-0.31687 -3.85808,-0.4364 -5.831197,-0.39872 -0.15925,0.003 0.318545,0.003 0.477816,0.004 -3.252885,-0.0157 -6.536021,0.0838 -9.714111,-0.735 -0.267383,-0.0707 -0.533056,-0.14812 -0.80215,-0.21195 -0.191352,-0.0454 -0.770732,-0.0738 -0.578559,-0.11553 0.369099,-0.0802 0.757224,0.0319 1.133138,-0.005 0.401622,-0.0394 -1.961628,-0.15356 -1.180483,0.18613 -2.239449,0.9922 -4.425651,2.10176 -6.686246,3.04723 -2.272247,0.95127 -4.606144,1.78983 -6.749415,3.01751 -1.940152,1.17691 -3.743399,2.54735 -5.527333,3.94744 -2.653054,1.83041 -5.419066,3.53285 -7.788987,5.73513 -1.25563,1.23578 -1.480529,1.41333 -2.646497,2.7361 -1.048176,1.18915 -1.982298,2.46424 -2.992546,3.68304 -0.198184,0.23909 -0.414018,0.46299 -0.621028,0.69449 -0.562776,2.50481 -4.105118,1.70892 -3.542339,-0.79589 z"
       inkscape:connector-curvature="0" />
    <path
       style="fill:#000000;fill-opacity:1;stroke:none;stroke-width:0.26458332;stroke-opacity:1"
       id="path951"
       d="m 47.807012,128.81121 c -0.867646,3.01143 -2.661061,5.64489 -4.139343,8.38115 -1.006684,1.6677 -1.605,3.41955 -1.807073,5.34252 -0.02747,2.23743 -0.468426,4.41683 -1.017743,6.57525 -0.49135,1.62056 -1.063331,3.21533 -1.602671,4.82045 -0.230884,0.80501 -0.113724,1.62862 -0.09532,2.44998 0.04238,1.11627 0.09776,2.23175 0.08865,3.34899 -0.0024,1.02402 -0.05134,2.04712 -0.07781,3.07072 0.10818,0.73305 0.423166,1.44446 0.650827,2.15865 0.293542,1.02557 0.440378,2.08868 0.503674,3.15166 7.94e-4,0.90412 0.154559,1.79593 0.278358,2.68842 0.212,1.00821 0.284395,2.04076 0.319185,3.06856 0.05425,0.64207 0.048,1.2959 0.269983,1.90687 0.205928,0.6472 0.535866,1.20841 0.948648,1.74135 0.472366,0.57503 1.091816,0.99181 1.63036,1.5024 0.335333,0.27817 0.641263,0.59391 0.92084,0.92793 0.141809,0.16942 0.311907,0.41138 0.321344,0.40146 0.03339,-0.0351 -0.03746,-0.0894 -0.0562,-0.13407 -0.551138,-0.77839 1.795232,0.23548 1.993556,0.29999 0.909291,0.34298 1.770814,0.79779 2.753667,0.86961 0.908587,0.0434 1.819357,0.006 2.729605,-0.0258 1.774156,0.009 3.546986,-0.0332 5.320792,-0.0655 0.320823,2.6e-4 1.283256,0.006 0.962467,7.9e-4 -0.395785,-0.006 -0.795808,-0.0614 -1.187474,-0.004 -0.124269,0.0182 0.686049,0.0376 1.710148,0.0791 2.018882,0.0818 -0.757343,-0.007 3.523599,0.10599 1.221084,0.24941 2.372897,0.65038 3.627205,0.67441 0.203221,0.002 0.406439,0.009 0.609666,0.007 0.653378,-0.007 1.306719,-0.0481 1.960022,-0.0611 0.237152,-0.005 0.948704,-0.0124 0.711568,-0.007 -0.462216,0.0107 -0.924562,0.015 -1.386842,0.0225 0.234584,0.0106 0.46896,0.028 0.703754,0.0319 0.916332,0.0151 1.832978,0.007 2.749256,0.0251 0.87652,0.0173 1.749185,0.15133 2.626006,0.18307 0.6267,0.0818 5.567802,0.0506 1.781156,0.0345 1.191739,-0.0151 2.382044,-0.0207 3.573373,-0.0168 2.129882,0.0218 1.770578,-0.014 2.943955,0.0465 0.128125,0.007 0.512601,0.0202 0.384307,0.0211 -3.485205,0.0231 -1.947296,0.0716 -1.341847,-0.0383 1.026763,-0.25919 2.044049,-0.55957 3.073286,-0.81688 1.28052,-0.33583 2.575182,-0.60532 3.866541,-0.89314 1.405343,-0.27082 2.781679,-0.67449 4.162185,-1.04855 0.202186,-0.0657 2.411843,-0.60394 2.478823,-0.43679 0.02759,0.0688 -0.06768,0.132 -0.101513,0.198 5.871848,-1.03744 4.148627,-0.4683 1.337019,-0.73864 -0.07804,-0.008 0.123573,-0.0983 0.193519,-0.1337 0.50506,-0.2558 1.068096,-0.40572 1.607182,-0.56684 1.178795,-0.30464 2.368158,-0.56863 3.540028,-0.89959 1.2746,-0.30486 2.50113,-0.73469 3.71667,-1.21803 1.99352,-0.86981 4.10515,-1.4177 6.22116,-1.89404 2.04603,-0.37039 4.10843,-0.61169 6.15462,-0.98356 2.18305,-0.5033 4.40056,-0.8013 6.63094,-0.98451 2.14315,-0.39926 4.34322,0.15929 6.47602,-0.17331 -0.62409,-0.0331 -1.25428,-0.006 -1.87227,-0.0991 -0.19569,-0.0295 0.39146,-0.0589 0.58612,-0.0945 0.2489,-0.0456 0.49639,-0.0985 0.7443,-0.1492 0.95859,-0.19593 1.90887,-0.426 2.86277,-0.6434 2.19911,-0.56381 4.4285,-0.97602 6.67267,-1.30907 1.71131,-0.23082 3.43136,-0.26726 5.1534,-0.20115 1.12467,0.0543 2.25176,0.027 3.37651,0.0754 0.38533,0.0166 0.77538,0.18833 1.15789,0.24787 1.27094,-0.0953 -2.97202,-0.11374 -1.45429,0.006 0.87414,0.21071 1.91836,0.2077 2.82326,-0.0596 -4.76548,0.33117 0.19854,-0.73311 1.16013,-0.9601 2.76589,-0.63917 5.59837,-0.84974 8.42597,-0.98225 2.8138,-0.1129 5.62617,-0.25688 8.43965,-0.3776 3.25333,-0.1729 6.50664,-0.14649 9.76268,-0.10276 0.35854,0.013 0.71699,0.029 1.07563,0.0391 0.43147,0.0121 1.68411,0.0316 2.11826,0.0349 0.32785,0.003 1.31102,-0.0149 0.98358,0.002 -1.21501,0.0615 -2.44945,-0.0104 -0.70471,0.066 2.15586,0.0277 4.29539,0.23601 6.44626,0.36676 1.32076,0.58411 0.861,1.72292 0.81592,3.0383 1.73372,0.5133 1.00779,2.96516 -0.72593,2.45185 v 0 c -0.64984,1.32611 -0.87462,2.45259 -2.28266,2.96321 0.57835,0.0558 1.16666,0.0469 1.73504,0.16751 0.159,0.0337 -0.31687,0.0738 -0.47738,0.0994 -0.93282,0.14883 -1.88356,0.19444 -2.81804,0.33164 -2.92058,0.29183 -5.85139,0.11077 -8.77729,0.0455 0.49939,0.004 0.99879,0.008 1.49818,0.013 0.32438,0.003 -0.64879,-0.0124 -0.97315,-0.008 -1.49937,0.0211 -2.9925,0.1783 -4.47776,0.37428 -2.89675,0.29938 -5.80144,0.51075 -8.71346,0.58404 -2.5647,0.0669 -5.13102,0.0777 -7.69409,0.19867 -2.34956,0.14272 -4.7048,0.25126 -7.05861,0.15257 -1.17315,-0.35917 2.91509,-0.30435 1.7927,-0.0494 -1.16062,0.13949 -2.33649,0.13112 -3.49913,0.008 -0.22667,0.006 -0.42319,0.04 -0.64467,0.088 -0.0959,0.0208 -0.38588,0.0548 -0.28796,0.061 1.46377,0.093 2.69847,-0.0163 1.52306,0.0748 -1.39549,0.16972 -2.79272,0.32109 -4.18791,0.49432 -1.98939,0.22862 -3.93745,0.68309 -5.87499,1.18238 -3.04771,0.70871 -6.07251,1.17138 -9.22295,0.85646 -0.23159,-0.0413 -0.46253,-0.0865 -0.69478,-0.12395 -1.00368,-0.16182 -1.2121,-0.0275 1.60874,-0.0297 0.24188,-1.9e-4 -0.0513,-0.0836 -0.40301,0.002 -0.15436,0.0376 -0.30541,0.0876 -0.45812,0.13142 -2.22258,0.78533 -4.48381,1.44363 -6.84203,1.67062 -1.97235,0.23734 -3.94709,0.33549 -5.93006,0.3967 -1.85866,0.29985 -3.57394,1.11609 -5.41279,1.51272 -1.60328,0.41889 -3.2224,0.80979 -4.88318,0.89092 -0.97542,0.0535 -1.84805,0.5067 -2.75663,0.82865 -0.73957,0.21967 -0.86911,0.27983 -1.6384,0.41881 -2.087943,0.3772 -8.858782,0.31541 -1.067911,-0.51256 -0.763267,0.82467 -1.78448,1.27325 -2.837807,1.63443 -1.700165,0.55724 -3.442153,0.91224 -5.219687,1.11606 -1.132901,0.11212 -2.258031,0.28507 -3.361822,0.56564 -1.265687,0.3155 -2.534121,0.60704 -3.817932,0.84106 -1.339639,0.18541 -2.351241,0.16508 -3.806383,0.17132 -0.251151,0.001 -1.00398,0.0194 -0.752957,0.0275 0.541002,0.0175 1.082442,0.0167 1.623661,0.0251 -1.179206,0.0204 -2.356742,0.0837 -3.536157,0.11081 -2.164135,0.004 -4.326683,0.0445 -6.475049,-0.26291 -0.558049,-0.0646 -1.096852,-0.10924 -1.658663,-0.10721 -0.185224,8e-4 -0.740852,0.004 -0.555643,0.006 1.496285,0.0202 2.078119,-0.0306 0.840737,0.0468 -2.421903,0.0332 -4.869204,0.19272 -7.221299,-0.51139 -0.860039,-0.26363 -1.625822,-0.61953 -2.523472,-0.34441 0.505212,0.0205 1.016913,-0.0219 1.515634,0.0614 0.245608,0.041 -0.495832,0.0467 -0.743971,0.0675 -0.28112,0.0236 -0.562528,0.0436 -0.84377,0.0656 -1.940139,0.15235 -0.764735,0.0893 -4.095088,0.0772 -0.358389,-0.001 -0.716669,-0.0125 -1.075005,-0.0188 -1.787009,-0.11576 -3.55714,-0.356 -5.326528,-0.62914 -1.212053,-0.18794 -2.449769,-0.2346 -3.639397,-0.55043 -1.308806,-0.36816 -2.580108,-0.85647 -3.788076,-1.48359 -0.874183,-0.47462 -1.785189,-0.89378 -2.567734,-1.51672 -0.633481,-0.56231 -1.333428,-1.01778 -1.976143,-1.56921 -0.988489,-0.84108 -1.863294,-1.80264 -2.586985,-2.883 -0.691325,-1.18816 -1.246595,-2.43322 -1.444731,-3.80646 -0.150246,-0.87453 -0.219975,-1.75664 -0.361648,-2.63177 -0.206825,-1.04791 -0.375891,-2.10363 -0.418915,-3.17291 -0.03564,-0.9809 -0.01905,-1.95991 0.04808,-2.93933 -0.0045,-0.6652 -0.171572,-1.29788 -0.371989,-1.93012 -0.248695,-1.19378 -0.483274,-2.38183 -0.474432,-3.60902 -0.03951,-1.03239 -0.12732,-2.06241 -0.1393,-3.09575 -0.01098,-1.20214 0.06256,-2.40424 0.250983,-3.59271 0.125992,-0.95489 0.0859,-1.89828 0.03784,-2.86105 0.03321,-2.13176 0.528994,-4.20091 1.429633,-6.13853 0.751962,-1.60305 1.599817,-3.185 1.591477,-5.00594 0.139732,-2.59951 0.429361,-5.19241 1.51806,-7.59481 1.454013,-3.11696 3.130047,-6.23941 5.916123,-8.37232 1.868273,-3.30902 6.54794,-0.66689 4.67967,2.64214 z"
       inkscape:connector-curvature="0" />
    <path
       style="fill:#000000;fill-opacity:1;stroke:none;stroke-width:0.26458332;stroke-opacity:1"
       id="path953"
       d="m 188.5097,167.6795 c 2.85791,-1.26287 6.04835,-1.05045 9.0911,-0.83556 1.8523,0.2878 3.69452,0.393 5.56552,0.41267 1.10969,-0.0423 2.20192,0.0781 3.30341,0.25387 1.29761,0.20269 2.57473,0.50632 3.8599,0.77233 1.0508,0.15264 2.10385,0.32498 3.16635,0.35707 0.17405,-0.003 0.34835,2.7e-4 0.52215,-0.009 0.39644,-0.0224 1.58179,-0.065 1.18665,-0.10413 -0.44239,-0.0438 -0.88927,-0.002 -1.33352,-0.0186 -0.12135,-0.004 0.48298,-0.006 1.28828,-0.008 1.28419,0.13916 2.58511,0.0586 3.8689,0.15243 0.13378,0.01 1.02828,0.30674 1.17755,0.35499 0.81116,0.2984 1.68277,0.22426 2.52941,0.29698 1.32388,0.028 2.62438,0.236 3.90661,0.55443 1.23049,0.33022 2.43483,0.74822 3.66194,1.09027 1.02131,0.29256 1.96846,0.79398 2.90221,1.29238 0.83363,0.40936 1.70594,0.70275 2.6002,0.94554 0.78021,0.24512 1.55079,0.51923 2.31897,0.79946 0.67233,0.37604 1.40532,0.55944 2.15997,0.67353 1.0027,0.10631 1.98976,0.3247 2.9487,0.63211 0.48202,0.17826 0.92833,0.44241 1.43473,0.54674 0.53586,0.11522 1.06967,-0.0229 1.60613,-0.061 0.14322,-0.004 0.28641,-0.01 0.42966,-0.0135 0.14176,-0.003 0.28354,-0.008 0.42534,-0.008 1.61894,0.007 -2.50894,-0.34768 -0.8063,0.17117 0.10848,0.0662 0.0853,0.0706 0.22062,0.0736 0.2226,0.005 0.42517,-0.1029 0.64343,-0.10904 0.69225,-0.0195 1.385,-0.0106 2.07751,-0.0159 0.80697,-0.19199 3.58232,-0.14045 0.18882,-0.22428 0.41205,0.0844 0.97716,-0.26878 1.35746,-0.0467 0.14318,0.30724 0.52865,-0.4872 0.62842,-0.63007 0.37139,-0.55338 0.73659,-1.11118 1.11659,-1.65868 0.32246,-0.45845 0.65784,-0.90233 0.87239,-1.4201 0.3696,-1.08891 0.87174,-2.12055 1.40103,-3.13872 0.24445,-0.45646 0.52567,-0.90531 0.48629,-1.43765 -0.14786,-1.0448 -0.28979,-2.08599 -0.35511,-3.14006 -0.0904,-1.40497 -0.0439,-2.80955 0.19295,-4.19687 0.0265,-0.60117 0.46089,-1.1606 0.36756,-1.76811 -0.17745,-0.61196 -0.21089,-1.25418 -0.35663,-1.87149 -0.0212,-0.0434 -0.0159,-0.1224 -0.0635,-0.13014 -0.0592,-0.01 -0.0586,0.16421 -0.11332,0.13967 -0.18101,-0.0812 -0.36002,-0.535 -0.43908,-0.67261 -0.50314,-0.84089 -0.84334,-1.7439 -1.13531,-2.67514 -0.15611,-0.13214 -0.188,-0.0614 -0.39138,-0.17269 -0.489,-0.0771 -0.83364,-0.5727 -1.26124,-0.80704 -0.56199,-0.42758 -1.15784,-0.80868 -1.80033,-1.10181 -0.97633,-0.37313 -1.80231,-0.98691 -2.62271,-1.61874 -1.57395,-1.32888 0.42754,0.36814 -0.71463,-0.61809 -0.0931,-0.0804 -0.29229,-0.35085 -0.29042,-0.22782 0.002,0.10918 0.13078,0.1849 0.14658,0.29294 -0.6719,0.0485 -1.32563,-0.22769 -1.9628,-0.40712 -0.64246,-0.0801 -1.50053,-0.88321 -2.07144,-1.00805 0.79164,0.55503 -0.18937,0.32482 -0.56761,0.33312 -0.73333,-0.0959 -1.4739,-0.0521 -2.21166,-0.0559 -0.764,0.0361 -2.54313,0.0239 0.91813,0.0126 0.17056,-5.2e-4 -0.34109,0.001 -0.51164,0.001 -1.03412,5.3e-4 -0.0929,-0.003 -1.02581,0.002 -1.24954,0.0386 -2.44331,0.46126 -3.65071,0.74686 -1.28383,0.30599 -2.59718,0.48392 -3.91244,0.58199 -0.7351,-0.0641 -1.35535,0.23546 -2.02212,0.51679 -0.82614,0.23323 -2.28543,1.05502 -3.14075,0.71273 1.48402,-2.38546 -0.0294,0.22337 -3.42144,-6.75187 -0.11874,-0.24418 0.46241,0.2892 0.66645,0.46834 0.30219,0.2653 0.56418,0.57317 0.84627,0.85975 2.56891,-0.81734 3.72481,2.81564 1.15591,3.63298 v 0 c 0.34147,0.82728 0.75222,1.78689 0.52673,1.46046 -4.34633,-6.29172 -5.73013,-4.38804 -3.89277,-6.6487 0.66204,-0.83133 1.88967,-0.98991 2.82533,-1.35209 1.23199,-0.33758 2.44785,-0.76199 3.71225,-0.96257 0.88682,-0.1107 1.72386,-0.40801 2.58589,-0.63382 1.69649,-0.48338 3.40164,-1.00523 5.15765,-1.21162 1.8871,-0.13967 3.79065,-0.14015 5.67925,-0.0488 0.82911,0.0505 1.64949,0.17656 2.47688,0.24235 0.86042,0.14034 1.72317,0.25296 2.50413,0.6866 0.52169,0.22146 1.06514,0.39364 1.62521,0.48657 0.77371,0.24148 1.57249,0.40664 2.30252,0.77543 0.88893,0.48637 1.71279,1.07402 2.56903,1.61476 0.70081,0.43947 1.4875,0.74014 2.15672,1.23748 0.82495,0.56763 1.6358,1.15522 2.39868,1.80498 0.68536,0.61124 1.40438,1.19573 1.97962,1.9169 0.70067,0.89369 1.28017,1.84664 1.57953,2.95535 0.17165,0.46324 0.4731,0.86882 0.66966,1.32223 0.64558,1.15795 1.1949,2.35669 1.20978,3.71447 0.0145,0.85834 -0.099,1.70976 -0.12838,2.56779 -0.042,0.7613 -0.19694,1.51328 -0.17362,2.27289 0.0295,1.13965 0.0177,2.27982 -0.059,3.41777 -0.0313,1.02811 -0.0142,2.04665 0.14111,3.06692 0.045,1.69036 -0.16613,3.35123 -0.91706,4.89072 -0.52449,1.03708 -1.18553,1.96622 -1.83627,2.92503 -0.3633,0.63057 -0.72403,1.26456 -1.05533,1.91199 -0.45383,0.81712 -0.94363,1.63568 -1.58517,2.31941 -0.65534,0.70864 -1.13805,1.55875 -1.86089,2.20775 -1.29508,1.09946 -2.77287,1.77971 -4.48078,1.94155 -1.47587,5.3e-4 -2.90507,0.0718 -4.34752,-0.2194 0.56553,-0.007 1.13153,0.003 1.69659,-0.0212 0.15255,-0.007 -0.6691,-0.26678 -0.44686,0.0445 -1.58065,0.42532 -3.2714,0.27749 -4.88138,0.0819 -0.79103,-0.18262 -1.55589,-0.43163 -2.31646,-0.71413 -0.41429,-0.12577 -0.82543,-0.0618 -1.25494,-0.0685 -1.21244,-0.13774 -2.41113,-0.39468 -3.52799,-0.90314 -0.71527,-0.29442 -1.43019,-0.66122 -2.18081,-0.83816 -0.89972,-0.2249 -1.82452,-0.35965 -2.6979,-0.68482 -1.05566,-0.44569 -2.05315,-0.99086 -3.04229,-1.56694 -0.63351,-0.25894 -1.30057,-0.26864 -1.96119,-0.43773 -1.09907,-0.28989 -2.18789,-0.62898 -3.30936,-0.82349 -1.19688,-0.16316 -2.40472,-0.26237 -3.58841,-0.50911 -0.9788,-0.20674 -1.93032,-0.49392 -2.85037,-0.88653 0.1713,0.56245 3.17779,-0.003 1.00363,0.32392 -0.18854,0.0283 -0.37757,0.0533 -0.56635,0.08 -2.21461,0.17169 -4.45686,0.23023 -6.64695,-0.19348 -1.09703,-0.22322 -2.19047,-0.47044 -3.30296,-0.60665 -1.40386,-0.18444 -2.78844,-0.45703 -4.13883,-0.89187 -0.64025,-0.18357 -1.31622,-0.44012 -1.98788,-0.41432 0.5062,0.004 1.01317,-0.0154 1.51861,0.0127 0.0944,0.005 -0.18537,0.0376 -0.27809,0.0562 -0.13779,0.0277 -0.27565,0.0551 -0.41343,0.0828 -0.78214,0.15742 -1.56,0.33474 -2.34494,0.47841 -3.10964,0.41331 -6.31188,0.63333 -9.34932,-0.32884 -4.70311,1.38134 -6.65662,-5.26987 -1.95351,-6.65121 z"
       inkscape:connector-curvature="0" />
    <path
       style="fill:#000000;fill-opacity:1;stroke:none;stroke-width:0.26458332;stroke-opacity:1"
       id="path955"
       d="m 210.61714,127.56946 c 1.77762,-2.35077 4.52906,-3.46894 7.29966,-4.16808 2.15511,-0.5935 4.39603,0.0552 6.56983,-0.20345 -0.33398,-0.009 -0.66979,0.009 -1.00193,-0.0269 -0.17572,-0.0191 0.35335,-0.0124 0.52969,-0.0244 0.82798,-0.0566 1.63021,-0.23165 2.44057,-0.40109 1.68802,-0.36289 3.35991,-0.76486 5.08552,-0.896 1.26425,-0.0521 2.548,-0.0508 3.80806,0.039 0.42571,0.0304 0.93512,0.2281 1.35558,0.32696 1.06529,0.13966 2.14381,0.099 3.21825,0.23846 1.25832,0.12809 2.3843,0.57735 3.49347,1.14886 0.7725,0.25957 1.19933,1.08035 1.91468,1.40955 0.99443,0.39927 1.71931,1.16819 2.44386,1.92769 1.00207,1.13671 1.58708,2.53798 1.92879,3.99813 0.13031,0.81155 0.19424,1.63194 0.25978,2.45072 0.20535,0.67606 0.28005,1.38763 0.35352,2.08831 0.091,0.72747 -0.0189,1.44115 -0.15512,2.1523 0.0742,0.66279 0.0284,1.34751 -0.0329,2.02078 -0.12416,1.14918 -0.6273,2.1233 -1.25034,3.06863 -0.58828,0.58959 -1.39499,1.8629 -2.33303,1.83337 -0.0741,0.0236 -0.25689,0.14033 -0.2223,0.0707 0.0434,-0.0874 0.1779,-0.0829 0.25682,-0.14019 0.13488,-0.0979 0.25435,-0.21546 0.38152,-0.32319 -4.39646,3.03019 -8.6818,-3.18735 -4.28533,-6.21753 v 0 c 0.43736,-0.34245 0.37042,-0.34794 0.8347,-0.52771 0.0228,-0.009 -0.0377,0.0311 -0.0566,0.0467 1.19797,-0.45568 -1.18356,1.0364 -1.22485,1.45243 -0.33763,0.61365 0.47197,-0.96483 0.52744,-0.96295 0.31837,-0.25208 0.33648,0.34866 0.32156,-0.49418 -0.0975,-0.61868 -0.19382,-1.23717 -0.11735,-1.86677 0.0657,-0.75831 0.15047,-1.51471 0.17628,-2.27581 0.13572,-0.22242 -0.13963,-0.49987 -0.2067,-0.72035 -0.25154,-0.58515 -0.52225,-1.16058 -0.86722,-1.69805 -0.39228,-0.56199 -1.01585,-0.88511 -1.48153,-1.38302 -0.9282,-0.89686 -0.2361,-0.28321 -0.54077,-0.31492 -0.91853,-0.0841 -1.83789,-0.12683 -2.73941,-0.35756 -0.99079,-0.21426 -1.98074,-0.42887 -2.95074,-0.72202 -0.10121,-5.3e-4 -1.44775,0.0104 -0.72996,0.0919 1.17332,0.13325 1.86418,-0.0312 0.90089,0.0998 -0.19069,0.0259 -0.38081,0.056 -0.57121,0.084 -1.75616,0.30979 -3.53872,0.48059 -5.32309,0.4722 -1.93306,0.0289 -3.83665,0.30584 -5.77547,0.23161 -1.61698,-0.20078 -0.0121,-0.004 -1.47199,-0.17642 -0.20075,-0.0237 -0.79845,-0.0258 -0.60198,-0.0733 0.31903,-0.0772 0.65685,8e-5 0.98452,-0.0192 0.35193,-0.0207 -1.63056,-0.0252 -1.05583,0.0613 -2.22951,0.65129 -4.15216,2.05495 -6.41434,2.62385 -2.7889,2.59861 -6.4639,-1.3455 -3.675,-3.94411 z"
       inkscape:connector-curvature="0" />
    <path
       style="fill:#000000;fill-opacity:1;stroke:none;stroke-width:0.26458332;stroke-opacity:1"
       id="path957"
       d="m 226.71171,121.31947 c -1.48714,-1.32453 -2.24213,-3.20141 -3.40576,-4.77346 -0.42823,-0.18908 0.46222,0.53954 0.29027,0.62406 -0.29079,0.14294 -0.64724,-0.0468 -0.96698,-0.0993 -1.79059,-0.36563 -3.11398,-1.63701 -4.45082,-2.78776 -0.59728,-0.44102 -1.16119,-0.99437 -1.84781,-1.29714 -0.47767,-0.21058 -0.9689,-0.35362 -1.48705,-0.41714 -1.07441,-0.25556 -2.12241,-0.62215 -3.15577,-1.00984 -0.67862,-0.18677 -1.38566,-0.19024 -2.07682,-0.29491 -0.82259,-0.12388 -1.64494,-0.0377 -2.46644,0.033 4.13753,-0.057 0.36027,0.22673 -0.0632,-0.12716 -0.63345,-0.0329 -1.30283,0.74969 -1.7613,1.10794 -0.9384,0.655 -1.84373,1.35545 -2.76864,2.0286 -0.69937,0.48874 -1.30115,1.07869 -1.91445,1.66831 -0.70001,0.57879 -1.3337,1.22471 -2.01123,1.82757 -1.15281,1.11931 -2.5529,1.88023 -4.00226,2.5375 -0.89881,0.34998 -1.78164,0.72977 -2.65595,1.13578 -1.03996,0.49243 -2.13657,0.8414 -3.24111,1.15448 -1.14195,0.32563 -2.33134,0.38488 -3.49582,0.58125 -1.91433,0.5105 -3.9117,0.54343 -5.86637,0.25677 -0.88163,-0.0725 -3.86926,0.0184 -0.0226,-0.0269 -1.28049,-0.13522 -1.76129,-1.48641 -2.23271,-2.49726 -2.31859,0.64268 -3.22748,-2.6363 -0.90889,-3.27898 v 0 c -0.10645,-0.97657 -0.45068,-2.43928 0.89921,-2.58274 1.69365,-0.0205 3.36747,-0.087 5.04483,0.16862 2.22349,-0.003 -3.2449,0.0842 -0.75172,0.038 1.19961,-0.37702 2.40108,-0.75401 3.66347,-0.85562 0.42443,-0.0514 2.06233,-0.3821 2.36628,-0.14239 0.70518,-0.0936 1.22517,-0.79966 1.8698,-1.05318 0.95802,-0.54072 1.9504,-1.00538 2.91907,-1.52317 0.66751,-0.46505 1.33061,-1.00355 2.09264,-1.27491 0.60027,-0.23549 0.75462,-1.23467 1.261,-1.5912 1.01066,-1.17912 2.19689,-2.20975 3.53321,-3.0079 1.33104,-0.82657 2.50533,-1.91178 3.98112,-2.49403 2.23339,-0.82275 3.9101,-0.72114 6.3486,-0.64273 1.07613,0.0902 2.14531,0.24516 3.21458,0.39479 1.26538,0.12568 2.51328,0.41965 3.69545,0.89122 1.00441,0.37189 1.96819,0.83232 2.93532,1.29066 0.85501,0.4373 1.69926,0.89822 2.50941,1.41481 0.9787,0.66802 1.93643,1.36976 2.78856,2.19727 0.28509,0.27388 0.72867,0.84064 1.02361,0.82864 1.65331,0.22869 3.09956,1.03383 4.27517,2.21561 1.85457,1.93444 3.47041,4.2563 3.60459,7.01861 1.6718,4.78176 -5.09064,7.14604 -6.76243,2.36428 z"
       inkscape:connector-curvature="0" />
    <path
       style="fill:#000000;fill-opacity:1;stroke:none;stroke-width:0.26458332;stroke-opacity:1"
       id="path959"
       d="m 43.597475,126.01232 c 0.273465,-3.45485 2.480858,-6.22699 4.814599,-8.61544 1.586039,-1.59057 3.628345,-2.44649 5.610952,-3.39535 1.405356,-0.72221 2.416617,-1.98232 3.528986,-3.07055 1.465612,-1.48692 3.07485,-2.81703 4.962856,-3.72474 0.68017,-0.4905 1.670238,-0.50248 2.335017,-0.94275 0.98452,-0.6225 1.953199,-1.26398 2.973451,-1.82719 1.035619,-0.56131 2.110539,-1.04062 3.177183,-1.53764 0.885105,-0.47658 1.806125,-0.8712 2.751703,-1.21042 1.004957,-0.42637 2.050688,-0.73756 3.079197,-1.0966 1.158417,-0.41265 2.259457,-0.951227 3.431874,-1.327563 1.442611,-0.414753 2.943701,-0.514368 4.447436,-0.412504 0.258837,0.01754 1.052029,0.465498 1.285714,0.589309 0.54434,0.256638 -0.31841,-0.16593 -0.06102,-0.375348 0.07224,-0.05877 0.355505,-0.08164 0.263171,-0.09379 -0.518867,-0.06828 -1.045393,-0.05195 -1.568088,-0.07792 0.967597,-0.132434 1.937041,-0.166084 2.910089,-0.103605 0.995489,0.104986 1.990574,-0.0263 3.001282,0.03776 0.05005,0.0032 0.717947,0.386276 0.592088,0.106643 0.0934,-0.167135 0.913897,-0.204026 0.804042,-0.204132 -1.887379,-0.0019 -2.223267,-0.06811 -1.451917,0.05376 0.97617,0.140975 2.096971,7.6e-5 3.03598,-0.01625 1.002654,-0.237503 2.035768,-0.271333 3.061139,-0.246531 -3.04854,0.06078 -0.8827,-0.0087 1.033203,0.111763 0.58937,0.03704 1.208575,0.293603 1.789301,0.415912 0.724207,0.0016 1.436697,-0.14441 2.160957,-0.164873 1.53734,-0.125523 3.06921,-0.05662 4.59894,0.115541 1.12947,0.158938 2.24277,0.40775 3.34986,0.679278 0.98571,0.247682 1.99596,0.152451 2.99906,0.132234 1.28538,-0.104709 2.56565,-0.09218 3.83585,0.130842 1.15348,0.250214 2.32554,0.385874 3.49362,0.546594 1.39823,0.19034 2.79997,0.35202 4.19672,0.55511 1.12839,0.0515 2.22822,0.32172 3.34856,0.43572 1.13325,0.034 2.25171,0.14462 3.35847,0.38981 1.23354,0.38284 2.40616,0.87378 3.70361,0.97607 1.03325,-0.008 2.05877,0.10324 3.07138,0.30117 0.92131,0.16447 1.77323,0.5537 2.65104,0.85435 0.53653,0.13017 1.02811,-0.0968 1.55088,-0.18206 -0.6054,0.006 -1.21111,-0.002 -1.8162,0.018 -0.12271,0.004 0.24433,0.0275 0.36707,0.0303 0.89733,0.0204 1.79696,-0.0226 2.69238,0.0393 0.61516,0.0425 1.29525,0.45001 1.85689,0.68272 0.78278,0.0789 1.58054,-0.0672 2.3744,-0.0689 1.45239,-0.0505 2.80712,0.35225 4.13806,0.88382 0.89902,0.48937 1.83343,0.88704 2.78873,1.24786 0.68861,0.19403 1.38841,0.35909 2.08777,0.52074 0.87192,0.16753 1.70612,0.50026 2.55118,0.77157 0.75415,0.16081 1.51826,0.10919 2.28273,0.10723 1.13001,-0.0389 2.22913,0.14081 3.31737,0.42993 0.95822,0.33103 1.86715,0.77467 2.88916,0.85365 0.85455,-0.0184 1.68493,0.0914 2.50402,0.33059 0.65311,0.12326 1.13147,0.71757 1.73445,0.92461 0.0502,0.0173 -0.002,-0.10817 0.0136,-0.15878 0.40702,-0.33972 1.39272,0.13458 1.81109,0.32158 0.19669,-0.0211 1.3733,1.05578 0.92225,0.52771 0.40721,0.40225 0.93201,0.3714 1.40233,0.57752 0.31699,0.0742 0.61119,0.15647 0.90773,0.3003 0.46975,0.30826 0.98669,0.50431 1.49539,0.72902 0.64086,0.10754 1.27289,0.067 1.91826,0.17146 0.43584,0.1255 0.89223,0.18384 1.31313,0.35543 0.41072,0.0832 0.78952,0.38562 1.20344,0.47516 0.288,0.0623 0.008,-0.086 0.18996,-0.14349 0.0991,-0.0314 0.20786,-0.003 0.3118,-0.005 0.59788,-0.0743 1.20373,0.0236 1.79645,0.10867 -0.69378,0.0153 -1.39579,-0.0618 -2.08133,0.0458 -0.1177,0.0185 0.15437,0.19622 0.26542,0.23939 0.75555,0.29381 1.77122,0.15582 2.30958,0.76192 0.35202,0.39631 -0.15729,1.04841 -0.23594,1.57262 2.21076,0.89644 0.943,4.02293 -1.26776,3.12649 v 0 c -0.20818,0.50338 -0.89654,1.03818 -0.62453,1.51014 0.34039,0.59062 1.31233,0.40112 1.91243,0.72451 0.0793,0.0427 -0.0746,0.16388 -0.11185,0.24582 -0.84346,0.0183 -1.68693,0.0365 -2.53039,0.0548 -1.0178,0.002 -2.04149,-0.0823 -3.00954,-0.41872 -0.26055,-0.096 -2.03572,-0.9286 -0.82659,-0.33586 -0.56907,0.25908 -1.73878,-0.16331 -2.34065,-0.16265 -1.23341,-0.31286 -2.42206,-0.75803 -3.4429,-1.53945 -0.10978,-0.0798 -0.44352,-0.41009 -0.3708,-0.15338 -0.56303,-0.0224 -1.08347,-0.35885 -1.59206,-0.56391 -0.0633,-0.0272 -1.90671,-1.08498 -0.92362,-0.52971 -1.08135,-0.61211 -0.16027,-0.20944 -0.46235,-0.003 -0.75292,2.6e-4 -1.45686,-0.22363 -2.12939,-0.56632 -0.14011,-0.0727 -0.28277,-0.14067 -0.42033,-0.21806 -1.02031,-0.57402 0.19475,0.0301 -0.26083,0.17364 -1.15367,0.0669 -2.29905,-0.16077 -3.3929,-0.51898 -0.69119,-0.25266 -1.44205,-0.72483 -2.19008,-0.65637 -0.97924,0.10312 -1.96568,0.0669 -2.94021,-0.0752 -1.23172,-0.20201 -2.43865,-0.52713 -3.60843,-0.9645 -0.70514,-0.21815 -1.4124,-0.37797 -2.13574,-0.5209 -1.03344,-0.26323 -2.05093,-0.58176 -3.02704,-1.01522 -0.66033,-0.27985 -1.36882,-0.78078 -2.0809,-0.81585 -1.00409,0.0356 -2.00853,0.12382 -3.00913,-0.0822 -1.30505,-0.2173 -2.58513,-0.54787 -3.76421,-1.1665 0.0423,0.057 0.0859,0.11305 0.12684,0.17108 0.0238,0.0338 0.007,0.11133 0.0485,0.11416 0.65353,0.0449 1.31081,-0.008 1.96507,0.0243 0.15659,0.008 -0.31091,0.0468 -0.46765,0.0505 -0.90884,0.0216 -1.8181,0.0169 -2.72715,0.0254 -1.24739,-0.11221 -2.44094,-0.41111 -3.57489,-0.95458 -0.34607,-0.11619 -0.71251,0.0871 -1.10589,0.0647 -1.38171,0.0536 -2.76853,-0.053 -4.10576,-0.42523 -1.10124,-0.33093 -2.1589,-0.84826 -3.29924,-1.00621 -0.9785,-0.0624 -1.95525,-0.15576 -2.92751,-0.28289 -1.18253,-0.14179 -2.38092,-0.028 -3.56094,-0.22302 -1.576,-0.17535 -3.13903,-0.42997 -4.66179,-0.88392 -0.81905,-0.22432 -1.63534,-0.54976 -2.49838,-0.47202 -1.32048,0.0946 -2.64259,-0.008 -3.94275,-0.2586 -1.08121,-0.20366 -2.13671,-0.51437 -3.22041,-0.69425 -1.03871,0.0114 -2.07578,-0.008 -3.11359,-0.0547 -1.36233,-0.0763 -2.71804,-0.2028 -4.07523,-0.33965 -1.001326,-0.0784 -1.990828,-0.26477 -2.968244,-0.49408 -0.242697,-0.027 -0.428461,-0.0443 -0.663223,0.0177 -0.08435,0.0223 -0.341632,0.0526 -0.254719,0.0602 1.241853,0.10875 4.1794,0.0319 -0.936808,0.092 -0.985464,0.022 -1.987153,0.004 -2.943622,-0.26146 3.283818,-0.0738 1.695619,-0.15017 0.977641,0.0192 -1.330291,0.22737 -2.784745,0.18888 -4.088866,-0.19856 -0.126851,-0.0512 -0.505708,-0.2066 -0.385042,-0.14212 0.09382,0.0501 0.181684,0.13168 0.28789,0.1377 0.480796,0.0272 2.792495,-0.35972 1.980832,0.10478 -1.161806,0.42517 -2.400855,0.57444 -3.635803,0.53017 -1.809854,-0.0473 -3.146137,0.0494 -4.686009,-0.82274 0.05007,0.0319 0.673703,0.43692 0.73139,0.44064 2.80384,0.18084 2.615427,-0.23265 1.533157,0.0912 -1.117703,0.35969 -2.212057,0.77597 -3.294276,1.23168 -1.063149,0.36949 -2.132629,0.69905 -3.219241,0.99332 -0.630558,0.20112 -1.29779,0.30558 -1.903749,0.50958 -0.923232,0.57509 -1.808734,1.20991 -2.738591,1.7749 -1.378553,0.80208 -2.850554,1.44041 -4.38858,1.87131 -0.138766,0.0373 -1.250754,0.35963 -1.286148,0.31962 -0.06717,-0.0759 0.146177,-0.14922 0.240663,-0.18597 0.02911,-0.0113 -0.04092,0.0472 -0.06138,0.0708 -1.199497,1.19519 -2.576058,2.20417 -3.843902,3.32318 -1.767919,1.42373 -3.660483,2.70642 -5.78151,3.54867 -0.04625,0.0185 -1.424872,0.57173 -1.525239,0.60761 -0.80274,0.28699 -1.568508,0.41509 -2.119807,1.14198 -1.839542,2.27291 -3.301378,4.92234 -5.754222,6.62224 -1.587177,3.54991 -6.607513,1.3053 -5.020333,-2.24461 z"
       inkscape:connector-curvature="0" />
    <path
       style="fill:#000000;fill-opacity:1;stroke:none;stroke-width:0.26458332;stroke-opacity:1"
       id="path961"
       d="m 40.239545,167.93121 c 1.163328,2.0569 1.35805,4.45825 1.984658,6.70042 0.24076,0.95698 0.849201,1.69938 1.484172,2.42328 0.625893,0.70391 1.111607,1.51366 1.673331,2.2668 0.383548,0.49907 0.864954,0.7468 1.448295,0.91756 0.766074,0.2992 1.609902,0.28234 2.421726,0.28929 1.275704,-0.0794 2.551059,-0.0229 3.815175,0.15593 1.14968,0.27933 2.297371,0.42473 3.474791,0.49543 0.548468,0.0822 4.277506,0.0724 1.187008,0.0257 1.007999,-0.0148 2.008553,-0.15331 3.015721,-0.18409 1.63943,-0.0967 3.269112,0.0651 4.90538,0.0968 -1.4777,-0.0284 2.87482,0.095 1.509289,-0.0648 -0.389908,-0.0456 -0.787767,0.0152 -1.177194,-0.0343 -0.202909,-0.0258 0.408283,-0.0257 0.612486,-0.0375 0.218543,-0.0127 0.437163,-0.0239 0.655746,-0.0359 1.692823,-0.0447 3.395554,-0.0826 5.088022,-0.0195 0.426239,0.0159 -0.852937,0.0148 -1.279408,0.0222 0.84119,0.10816 1.666504,0.003 2.496457,-0.12784 1.209109,-0.1703 2.372487,-0.54623 3.517271,-0.96064 1.575075,-0.60102 3.186382,-1.11749 4.854781,-1.37592 1.341083,-0.23514 2.716829,-0.31633 4.015092,0.11541 0.15296,0.0509 0.503433,0.19471 0.292025,-0.055 -2.826919,0.0876 -1.998726,0.14069 -0.824738,-0.23877 1.101456,-0.34711 2.223972,-0.62012 3.345429,-0.89339 1.525117,-0.40455 3.091638,-0.61171 4.665842,-0.6743 0.212273,0.008 0.424712,0.012 0.636818,0.0234 0.753018,0.0407 1.511001,0.0328 2.258436,0.13296 0.160419,0.0215 0.421415,0.0655 0.42913,0.2272 0.256241,5.36942 1.987936,6.42241 -0.747815,6.688 -2.655586,0.22421 -0.816759,0.17302 -2.211552,-6.83256 -0.0013,-0.006 0.548857,-0.0985 1.05074,-0.14621 0.980987,-0.0933 1.884791,-0.0473 2.913438,-0.0541 0.162512,-0.0117 0.649608,-0.0183 0.487537,-0.035 -0.454303,-0.0469 -0.918041,0.0162 -1.36901,-0.056 -0.180345,-0.0289 0.36181,-0.0503 0.542587,-0.0764 0.211947,-0.0306 0.423971,-0.0607 0.635579,-0.0935 0.582009,-0.0903 1.16295,-0.18739 1.744525,-0.28047 3.229205,-0.55001 6.501915,-0.51603 9.765685,-0.45495 1.49302,0.0395 2.98029,0.18129 4.46502,0.33442 0.2611,0.0269 1.03366,5.3e-4 0.7834,0.0797 -0.4056,0.12828 -0.84931,0.0503 -1.27397,0.0755 0.69776,0.13583 1.72564,-0.0819 2.2448,0.49324 0.43019,0.85357 0.18558,0.38001 0.74119,1.41685 2.37061,-0.92152 3.67384,2.43104 1.30322,3.35256 v 0 c 0.44335,1.05004 0.31931,0.5544 0.45267,1.46444 -0.51909,0.8214 -1.93748,0.65362 -2.78002,0.81832 -2.74373,0.0821 -5.47711,0.33124 -8.22341,0.32247 -0.44059,-0.008 -0.88504,0.0338 -1.32178,-0.025 -0.28102,-0.0378 1.12283,0.038 0.8498,-0.0385 -0.39705,-0.1113 -0.82342,-0.0462 -1.23512,-0.0695 -1.03292,-0.0585 -2.06679,-0.12399 -3.10215,-0.0906 -2.2049,0.0822 -4.41141,0.28299 -6.618535,0.0669 4.176155,-0.0664 0.54211,-0.028 0.523862,-0.0688 -3.022661,-6.75301 -0.294608,-7.09499 -2.822948,-6.74118 2.271059,-0.3334 -0.02336,-0.36147 0.545764,6.46655 0.0066,0.0793 0.07556,0.17009 0.154225,0.18237 0.56007,0.0874 1.132629,0.0558 1.697205,0.10654 0.06332,0.006 -0.125677,0.0193 -0.188516,0.0289 -1.299993,0.18277 -2.566604,0.55704 -3.875286,0.69086 -1.145961,0.1607 -2.293953,0.28016 -3.451206,0.30021 -1.389679,-0.0464 -2.761549,1.28185 -4.213101,0.45106 -0.469048,-0.10339 -1.140936,-0.30156 -1.151382,-0.26108 -0.01572,0.0609 0.07781,0.12325 0.140682,0.12588 0.677338,0.0283 1.355659,-0.0233 2.033489,-0.035 -0.0041,-0.003 -0.0082,-0.006 -0.01228,-0.008 -1.444125,0.68687 -2.954018,1.27353 -4.503508,1.66662 -1.617038,0.35469 -3.247011,0.64946 -4.909592,0.62289 -0.972762,-0.007 -1.912594,0.25418 -2.878145,0.34715 -4.508416,0.0754 -2.314724,0.0131 -1.181209,0.0584 0.209074,0.008 -0.418462,0.004 -0.6277,0.005 -0.44482,0.002 -0.889675,0.008 -1.334466,0.002 -0.23088,-0.003 -0.461629,-0.0122 -0.692443,-0.0183 -1.78443,-0.0615 -3.570296,-0.0432 -5.351206,-0.18207 -0.523095,-0.0262 -4.296746,-0.11538 -1.265407,-0.0628 -1.001379,-0.0226 -2.00292,-0.11684 -3.0051,-0.0429 -1.741734,-0.002 -3.474186,0.0248 -5.194972,-0.28511 -1.115748,-0.19084 -2.205826,-0.51202 -3.332375,-0.63441 -1.334682,-0.0703 -2.685634,-0.0653 -3.989339,-0.39961 -1.440829,-0.35922 -2.796067,-0.866 -3.963805,-1.81406 -0.906947,-0.77337 -1.703171,-1.65159 -2.267167,-2.71076 -0.425522,-0.7315 -0.782233,-1.50512 -1.272903,-2.19742 -0.708443,-1.1221 -1.498359,-2.18487 -2.168832,-3.33205 -1.186963,-2.49116 -1.898488,-5.21568 -1.229614,-7.96607 -0.243445,-2.95903 3.941252,-3.30331 4.184698,-0.34428 z"
       inkscape:connector-curvature="0" />
    <path
       style="fill:#000000;fill-opacity:1;stroke:none;stroke-width:0.26458332;stroke-opacity:1"
       id="path963"
       d="m 39.929604,164.79344 c 2.027105,2.03007 3.327863,4.63452 4.516133,7.21316 0.528971,1.24477 1.095454,2.47708 1.769584,3.65062 0.436229,0.666 0.999246,1.22097 1.618808,1.71571 0.770474,0.49192 1.500306,1.04417 2.265346,1.54353 0.619337,0.31707 1.309045,0.32485 1.974043,0.47576 1.265185,0.23742 2.528266,0.50993 3.774446,0.8341 0.88865,0.317 1.747393,0.61757 2.692831,0.45163 -0.444394,-0.01 -0.889752,10e-4 -1.33318,-0.0295 -0.354134,-0.0247 0.708763,-0.0441 1.06363,-0.0533 1.341223,-0.035 2.495828,-0.0704 3.791956,0.0466 1.053771,0.0982 2.071711,0.4306 3.127427,0.50234 0.339416,-0.008 0.67499,0.002 1.013923,-0.0231 0.122196,-0.009 0.488654,-0.0251 0.366276,-0.0314 -1.150826,-0.0591 -1.942306,0.0383 -0.899591,-0.0664 1.786959,-0.15301 3.594915,-0.13792 5.371328,0.10984 0.862094,0.13053 1.736412,0.10869 2.602431,0.18629 0.858033,0.0467 1.711579,0.14069 2.54327,0.35947 0.09296,-0.0136 1.768946,0.79464 0.867132,0.38865 -1.275183,0.29266 -2.550369,0.58532 -3.825555,0.87798 0.12355,-0.0535 0.06734,-0.0476 0.163994,-0.0431 2.922228,-3.74368 8.216591,0.38898 5.294363,4.13266 v 0 c -0.0811,1.43635 -8.270851,1.70561 -4.111718,1.27867 -0.329258,-0.12046 -0.628708,-0.30712 -0.918315,-0.079 -0.683509,0.0573 -1.370296,-0.0222 -2.05454,-0.0372 -0.945253,0.002 -1.884358,-0.11804 -2.828563,-0.15012 -0.477276,2.5e-4 -0.9549,0.002 -1.431917,-2.6e-4 -0.179737,-8e-4 -0.71832,-0.005 -0.538961,-0.0165 0.974587,-0.0633 1.960075,-0.002 0.758973,-0.0602 -1.569024,-0.0889 -3.148206,0.0253 -4.709525,-0.20483 -0.983316,-0.12735 -1.969815,-0.24128 -2.962135,-0.26297 -0.732914,-0.0233 -2.128703,0.1431 0.237461,-0.0735 0.188309,-0.0172 -0.378172,-0.004 -0.56724,-0.007 -1.976136,-0.0321 2.220817,0.0132 -2.931671,-0.0318 -1.414677,-0.16935 -2.787811,-0.49766 -4.152318,-0.90993 -1.166074,-0.39819 -2.32606,-0.81429 -3.468616,-1.27623 -1.189593,-0.41223 -2.348492,-0.92252 -3.354088,-1.69344 -0.9251,-0.69714 -1.836209,-1.41541 -2.635057,-2.25891 -0.873104,-0.93681 -1.70298,-1.92117 -2.328296,-3.04524 -0.655207,-1.17422 -1.395701,-2.29231 -2.255968,-3.32942 -1.735986,-2.41626 -3.357361,-5.02073 -3.685479,-8.04456 -1.441481,-3.66237 3.737899,-5.70093 5.179378,-2.03856 z"
       inkscape:connector-curvature="0" />
    <path
       style="fill:#000000;fill-opacity:1;stroke:none;stroke-width:0.26458332;stroke-opacity:1"
       id="path969"
       d="m 35.805202,142.20072 c -0.09446,-0.45713 -0.244279,-0.90624 -0.283382,-1.37139 -0.23428,-2.7868 0.696841,-5.62874 1.708267,-8.17553 0.905671,-1.91136 1.940845,-3.77454 2.40697,-5.85214 0.235579,-1.73177 0.697902,-3.39546 1.447202,-4.97307 0.623048,-1.19207 1.445879,-2.25964 2.345957,-3.25336 0.906801,-0.99057 1.75737,-2.02943 2.613467,-3.06351 0.967615,-1.04121 2.050356,-1.994 3.274293,-2.72233 1.271727,-0.79056 2.038754,-0.76374 3.721123,-0.66682 0.207614,0.012 0.715796,0.33365 0.603343,0.15873 -0.05843,-0.0909 -0.155832,-0.14975 -0.233749,-0.22462 -2.025121,0.0781 -1.919965,0.0865 -1.013301,-0.36226 0.668755,-0.33103 1.34116,-0.62898 2.037667,-0.8962 0.733764,-0.26134 1.54599,-0.57867 2.334718,-0.27848 0.398626,0.15172 0.731991,0.43803 1.097986,0.65705 2.386119,-1.08902 3.926219,2.28546 1.5401,3.37448 v 0 c 0.272682,1.44505 0.142079,1.37471 -1.160581,2.01544 -2.078699,0.93526 -4.213617,1.48509 -6.517505,1.35191 -0.674182,-0.21993 -0.584687,-0.15747 -1.057371,-0.38982 -0.0879,-0.0432 0.168691,0.12176 0.266618,0.1235 1.116947,0.0198 1.872679,0.27114 2.62817,-0.39293 -0.701908,0.80048 -1.434671,1.58275 -2.231588,2.29048 -1.080913,0.93119 -2.127174,1.90405 -3.268245,2.7621 -0.540594,0.43506 -1.137597,0.73075 -1.300837,1.46107 -0.453594,1.49787 -0.659236,3.05965 -1.144392,4.5506 -0.298164,0.83049 -0.484526,1.43501 -0.890833,2.22292 -0.688449,1.33502 -1.687473,2.49826 -2.258526,3.89741 -0.566745,1.30892 -1.085244,2.62701 -1.567495,3.96979 -0.387225,1.07819 -0.656648,2.00664 -1.183285,3.02711 -0.21077,0.40841 -0.483851,0.78152 -0.725776,1.17228 -0.291621,2.25498 -3.480639,1.84256 -3.189015,-0.41241 z"
       inkscape:connector-curvature="0" />
  </g>
</svg>
