<?xml version="1.0" encoding="UTF-8" standalone="no"?>
<!-- Created with Inkscape (http://www.inkscape.org/) -->

<svg
   xmlns:dc="http://purl.org/dc/elements/1.1/"
   xmlns:cc="http://creativecommons.org/ns#"
   xmlns:rdf="http://www.w3.org/1999/02/22-rdf-syntax-ns#"
   xmlns:svg="http://www.w3.org/2000/svg"
   xmlns="http://www.w3.org/2000/svg"
   xmlns:sodipodi="http://sodipodi.sourceforge.net/DTD/sodipodi-0.dtd"
   xmlns:inkscape="http://www.inkscape.org/namespaces/inkscape"
   width="1024"
   height="512"
   viewBox="0 0 270.93334 135.46667"
   version="1.1"
   id="svg8"
   inkscape:version="0.92.4 (5da689c313, 2019-01-14)"
   sodipodi:docname="leg_speedo.svg"
   inkscape:export-filename="C:\Users\panu-\PycharmProjects\nextgame\data\images\bodies\speedo\leg_speedo.png"
   inkscape:export-xdpi="10.173375"
   inkscape:export-ydpi="10.173375">
  <defs
     id="defs2" />
  <sodipodi:namedview
     id="base"
     pagecolor="#ffffff"
     bordercolor="#666666"
     borderopacity="1.0"
     inkscape:pageopacity="0.0"
     inkscape:pageshadow="2"
     inkscape:zoom="0.98963091"
     inkscape:cx="496.41131"
     inkscape:cy="292.09492"
     inkscape:document-units="mm"
     inkscape:current-layer="layer6"
     showgrid="false"
     units="px"
     width="1024px"
     inkscape:window-width="1920"
     inkscape:window-height="1017"
     inkscape:window-x="-8"
     inkscape:window-y="-8"
     inkscape:window-maximized="1"
     inkscape:pagecheckerboard="true"
     showguides="false" />
  <metadata
     id="metadata5">
    <rdf:RDF>
      <cc:Work
         rdf:about="">
        <dc:format>image/svg+xml</dc:format>
        <dc:type
           rdf:resource="http://purl.org/dc/dcmitype/StillImage" />
        <dc:title />
      </cc:Work>
    </rdf:RDF>
  </metadata>
  <g
     inkscape:groupmode="layer"
     id="layer6"
     inkscape:label="arm_color"
     transform="translate(0,-296.33334)"
     style="display:inline">
    <path
       style="fill:#ffccaa;fill-opacity:1;stroke:none;stroke-width:0.26131126;stroke-opacity:1"
       id="path861"
       d="m 58.808608,332.22299 c -0.342492,2.06641 -1.204108,3.89654 -2.080753,5.63337 -0.493765,0.96206 -0.42994,2.18381 -0.501014,3.30297 -0.173253,1.83431 -0.501047,3.63659 -0.852253,5.42284 -0.383517,1.90962 -0.80088,3.80691 -1.214464,5.70533 -0.243086,1.08705 -0.492079,2.1536 -0.42898,3.29479 0.139573,1.4893 0.149141,2.98549 0.08651,4.48221 -0.09498,1.39241 -0.243765,2.77413 -0.31441,4.16946 -0.03526,1.23375 0.08348,2.46152 0.155113,3.68912 0.09675,1.65641 0.05749,3.31969 0.0068,4.97761 -0.01465,1.37173 -0.115735,2.73589 -0.222899,4.0989 -0.106702,1.08596 -0.211806,2.17453 -0.366769,3.25053 -0.03386,0.31808 -0.156419,0.59918 -0.156815,0.91721 -0.012,0.1264 0.04604,0.7667 0.07153,0.63361 -0.08454,-0.60388 -0.580933,-1.31718 0.06403,-0.39924 0.204388,0.42254 0.432569,0.82314 0.655237,1.2286 0.231189,0.63207 0.2555,0.52472 -0.06186,0.0898 0.920397,0.35801 -0.956133,-0.75859 -0.70885,-0.58824 0.357309,0.24615 0.682641,0.44298 1.00416,0.75274 0.124033,0.14574 0.275838,0.257 0.354059,0.31225 0.422295,0.11088 0.786611,0.586 1.130957,0.91093 0.494683,0.54511 0.41695,0.78172 0.154349,1.51509 1.27719,1.33186 -0.137462,3.73677 -1.414651,2.40489 v 0 c -0.62628,0.19955 -1.158712,0.38324 -1.690492,-0.21166 -0.212953,-0.2525 -0.421483,-0.51409 -0.654016,-0.73502 -0.196433,-0.16871 -0.381645,-0.36488 -0.568872,-0.54314 -0.07036,-0.0798 -0.133621,-0.0793 0.08761,0.0771 0.158398,0.11215 0.338183,0.17252 0.485819,0.30818 0.262446,0.24114 -1.755042,-1.01374 -0.837429,-0.61572 -0.276495,-0.33427 -0.503987,-0.72061 -0.727599,-1.11393 -0.03825,-0.0758 -0.593508,-1.25316 -0.281643,-0.62691 0.07767,0.15043 -0.03384,0.0337 -0.141155,-0.11248 -0.254758,-0.34719 -0.377159,-0.55617 -0.537229,-1.00147 -0.06244,-0.1737 -0.100832,-0.361 -0.151249,-0.54149 -0.05817,-0.39069 -0.07766,-0.7794 -0.115296,-1.17111 -0.101018,-0.65307 -0.167421,-1.31984 -0.175427,-1.98702 0.02708,-1.07677 0.14665,-2.13783 0.255866,-3.20384 0.07429,-1.23146 0.0452,-2.46061 0.0069,-3.69426 -0.02712,-1.61848 -0.02741,-3.23952 0.05827,-4.85525 0.05072,-1.25501 0.05532,-2.50241 -0.05778,-3.7535 -0.06511,-1.5892 -0.0096,-3.18142 0.252976,-4.73951 0.158441,-1.16974 0.372667,-2.34462 0.256999,-3.541 -0.11225,-1.66003 -0.121063,-3.32299 0.195202,-4.95133 0.359635,-1.98252 0.843357,-3.90807 1.41618,-5.79985 0.403254,-1.58354 0.817505,-3.16516 1.139977,-4.78206 0.293057,-1.45992 0.44701,-2.95346 0.707149,-4.42294 0.504113,-2.1643 1.270636,-4.27354 2.543729,-5.82363 1.08179,-2.98674 4.254164,-0.94978 3.172375,2.03696 z"
       inkscape:connector-curvature="0" />
    <path
       style="fill:#ffccaa;fill-opacity:1;stroke:none;stroke-width:0.26131126;stroke-opacity:1"
       id="path863"
       d="m 165.22383,382.41387 c 0.70042,-3.36429 2.34428,-6.1802 3.87698,-8.9484 0.58112,-1.08707 1.2642,-2.13015 1.42783,-3.48036 0.0881,-1.49169 0.39122,-2.91773 0.78304,-4.3124 0.35653,-1.27368 0.77382,-2.52622 0.97794,-3.86351 0.15614,-0.85956 0.0519,-1.73473 -0.0367,-2.5959 -0.14385,-1.33853 -0.16976,-2.68961 -0.12538,-4.03839 0.0318,-1.05634 0.0793,-2.11243 0.0463,-3.16944 -0.0546,-1.14394 -0.0519,-2.29534 -0.1948,-3.42792 -0.14843,-0.90748 -0.37455,-1.79026 -0.56743,-2.68296 -0.21222,-0.82213 -0.42148,-1.64672 -0.68433,-2.44312 -0.14443,-0.45453 -0.35264,-0.86186 -0.54958,-1.27689 -0.32124,-0.4106 -0.62704,-0.94036 -0.91033,-1.4273 -0.37484,-0.57862 -0.61335,-1.28028 -0.96019,-1.88402 -0.28649,-0.44944 -0.61918,-0.83524 -0.91487,-1.27824 -0.26993,-0.43359 -0.46594,-0.94392 -0.73563,-1.37356 0.27358,0.55757 -0.60746,-0.42257 -0.67142,-0.48519 -0.36072,-0.54087 -0.91885,-1.15563 -1.02493,-1.91467 0.91522,0.63124 0.0279,0.0367 2.84813,-1.16711 -0.13574,1.42998 -1.65459,1.17437 -1.51885,-0.2556 v 0 c 2.93648,-1.9369 2.13843,-2.92945 3.00542,-1.73632 0.13276,0.2 0.27745,0.32424 0.42895,0.49344 0.29758,0.38168 0.69002,0.66585 0.95444,1.1232 0.31796,0.43632 0.5893,0.92787 0.91301,1.35658 0.41512,0.60221 0.82339,1.21311 1.1811,1.87905 0.31944,0.64218 0.66138,1.26579 0.9459,1.93744 0.16605,0.3941 0.36115,0.66263 0.62198,0.96998 0.59211,0.85082 1.04265,1.83812 1.33938,2.93194 0.22433,0.85389 0.4014,1.72958 0.6646,2.56468 0.42238,1.21662 0.83321,2.44439 0.97608,3.78603 0.14871,1.43666 0.16396,2.87133 0.0835,4.3179 -0.0332,1.09091 -0.0245,2.1832 -0.0445,3.27454 0.008,1.12186 -0.0149,2.24517 0.045,3.36528 0.0711,1.50965 0.15146,3.02304 -0.13103,4.50964 -0.33112,1.64233 -0.7831,3.23129 -1.38687,4.73335 -0.36021,0.90286 -0.848,1.78126 -0.94933,2.81217 -0.20677,1.98943 -0.44543,3.96741 -1.11398,5.79732 -1.1986,3.31897 -2.72023,6.55997 -5.03697,8.68635 -1.47512,3.35402 -5.03759,0.5764 -3.56246,-2.77759 z"
       inkscape:connector-curvature="0" />
    <path
       style="fill:#ffccaa;fill-opacity:1;stroke:none;stroke-width:0.18671101;stroke-opacity:1"
       d="m 123.45241,325.16374 c -3.41811,0.32808 -6.75654,1.4879 -10.21143,1.33221 -2.81192,-0.14494 -5.6309,-0.3795 -8.43327,0.12594 -3.19345,0.33283 -6.356882,0.23707 -9.488824,-0.40618 -2.918439,0.14038 -5.760699,1.00054 -8.667219,0.90153 -3.745149,0.0256 -7.561085,0.0347 -11.228089,0.87768 -3.785323,0.68247 -7.630874,0.36356 -11.408687,1.19661 -1.754268,0.76855 -3.61952,1.36583 -5.200372,2.65475 -0.860967,1.44263 -1.133341,3.34828 -1.945979,4.85143 -1.295087,2.34917 -0.915335,5.4281 -1.548511,8.06101 -0.528022,3.25962 -1.432886,6.41911 -1.89149,9.68122 -0.221291,7.53069 -0.0758,15.14454 -0.359238,22.62549 -0.02658,1.52785 -0.523818,3.04189 -0.385248,4.54282 1.186386,2.3755 3.329538,3.64632 5.437401,3.66927 5.608346,0.71662 11.165313,1.91758 16.719191,3.00561 3.989148,0.3095 8.000719,-0.50477 11.97719,0.08 4.221434,1.2395 8.567453,0.61928 12.849612,0.68485 7.968613,-0.41604 15.955143,-0.048 23.933013,0.12256 2.51597,-0.0176 5.01856,0.31181 7.53195,0.30809 1.37657,-0.0908 2.68347,-0.80638 4.07022,-0.57732 4.67889,-0.22914 9.31754,-1.0835 13.97195,-1.55859 3.64793,-0.77446 7.28822,-1.70105 10.87665,-2.87196 1.86305,-0.79705 3.60276,-1.96557 5.48011,-2.72663 0.83061,-1.43113 1.27727,-3.27374 2.13451,-4.73008 1.30015,-2.76837 3.26243,-5.22382 3.47197,-8.65939 0.49066,-3.19807 2.04363,-6.21526 1.45187,-9.6007 -0.2328,-4.04686 0.22761,-8.18317 -0.64218,-12.14647 -0.8043,-4.39312 -3.19875,-7.85343 -5.49144,-11.0217 -0.70364,-1.02716 -1.60252,-1.71477 -2.62374,-1.95119 -1.25899,-0.98432 -2.80416,-0.60802 -4.04526,-1.65749 -1.0898,-0.72164 -1.98798,-2.08099 -3.31016,-1.97687 -2.72704,-0.07 -5.34957,-1.34503 -7.84116,-2.77635 -2.84073,-0.24232 -5.69976,-0.20488 -8.48367,-1.157 -4.99533,-0.50118 -10.02603,0.13404 -14.99668,-0.83521 -0.56619,-0.0634 -1.13493,-0.0891 -1.70299,-0.0679 z"
       id="path879"
       inkscape:connector-curvature="0" />
    <path
       style="fill:#ffb380;fill-opacity:1;stroke:none;stroke-width:0.26131126;stroke-opacity:1"
       id="path887"
       d="m 59.73216,334.24492 c -1.075761,0.84245 -2.337242,1.05492 -3.553499,1.27499 -0.454597,0.0286 -0.319155,0.0586 -0.203068,-0.37647 0.06522,-0.24441 0.128109,-0.49338 0.154999,-0.75027 0.03086,-0.29481 -0.03033,-0.5093 -0.08657,-0.77527 -0.531927,-1.41974 -1.386233,0.0327 -2.485145,-0.27022 -0.241467,-0.0666 0.871995,-1.21735 0.884758,-1.23127 0.977462,-0.79018 2.09668,-1.19874 3.179187,-1.65568 1.277741,-0.55579 2.594208,-0.89066 3.935232,-0.98011 0.768184,-0.027 1.537105,0.0204 2.29364,0.19503 0.0766,0.0177 0.153677,0.0356 0.231377,0.039 0.05978,0.002 0.238213,-0.0132 0.178716,-0.0214 -0.282902,-0.0389 -0.5677,-0.0474 -0.85155,-0.0711 0.638429,-0.0669 1.275896,-0.17331 1.908386,-0.30748 0.650348,-0.10735 1.296052,-0.24029 1.939995,-0.40181 0.689936,-0.19624 1.380191,-0.38869 2.081299,-0.49753 1.112448,-0.11566 2.229121,-0.0264 3.343229,-0.008 0.121383,-10e-4 0.242765,-0.003 0.364151,-0.004 0.397689,-0.003 0.975759,-8.9e-4 0.736249,-0.0105 -1.615426,-0.0658 -0.231915,-0.0149 0.08429,-0.0217 1.259177,-0.0898 2.517675,-0.052 3.777683,-0.0242 0.117778,0.0163 0.236516,0.0233 0.353339,0.049 1.542032,0.34033 1.838466,5.46472 0.199847,5.50672 -0.02643,-8.9e-4 -0.05326,-0.009 -0.07929,-0.002 -0.0865,0.0205 -0.414622,0.28377 -0.442142,0.30106 -0.699536,0.43947 -0.397316,0.25613 -1.269458,0.71815 -2.70822,1.33163 -5.574962,1.88293 -8.426162,2.34528 -2.015054,0.28247 -4.041766,0.35467 -6.058419,0.60763 -3.0137,0.37419 -1.834548,0.37205 -3.719771,-5.14824 0.493615,-0.19709 0.987758,-0.37693 1.462755,-0.65511 1.934057,-1.27535 4.005624,-2.06696 6.092079,-2.75502 3.320841,-0.9841 6.699376,-1.57406 10.076205,-2.09382 2.667699,-0.42466 5.347169,-0.67482 8.029319,-0.85874 1.870583,-0.0935 3.742953,-0.0457 5.613869,0.001 0.189442,-0.008 0.754696,0.0219 0.56833,-0.024 -0.235366,-0.0582 -0.480748,0.0289 -0.718051,-0.0129 -0.170043,-0.03 0.34306,-0.009 0.514287,-0.0231 0.524404,-0.0414 1.042879,-0.12829 1.561383,-0.23638 1.470133,-0.38711 2.923029,-0.86751 4.401662,-1.19844 2.445974,-0.51543 4.926449,-0.46378 7.393919,-0.44932 2.03836,-0.0321 4.06903,0.20507 6.09843,0.42247 1.68189,0.17041 3.36502,0.31724 5.04473,0.52365 1.50517,0.22293 3.0031,0.49478 4.51672,0.59421 1.86853,0.0604 3.7374,2.6e-4 5.60612,0.0436 1.90658,-6e-4 3.7823,0.45523 5.65028,0.90949 1.5705,0.34543 3.14111,0.68762 4.71655,0.99101 1.49349,0.22369 2.97415,0.55376 4.45281,0.90659 1.63346,0.38119 3.28041,0.64576 4.92507,0.92425 1.7369,0.2951 3.46306,0.67536 5.17677,1.15204 1.58055,0.44862 3.12154,1.10304 4.65415,1.77795 1.01229,0.47034 2.03246,0.90766 3.08268,1.19881 0.8822,0.19095 1.76829,0.35755 2.65421,0.5186 0.8639,0.11925 1.70376,0.42487 2.55711,0.62124 0.61169,0.21293 1.18083,-0.11305 -0.7178,0.18041 -0.044,0.007 -0.0622,0.0847 -0.0983,0.11883 -0.0917,0.0867 -0.18937,0.1617 -0.28406,0.24255 -0.0793,0.0841 -0.33669,0.28078 -0.23767,0.25226 0.1134,-0.0327 0.18395,-0.19014 0.28505,-0.26589 0.0375,-0.0282 0.5838,-0.41286 0.75251,-0.42787 4.00089,-0.3561 0.53769,0.0663 1.57027,-0.0615 0.49508,-0.038 2.21253,-0.03 0.0777,-0.0197 0.38446,0.013 0.76766,0.0366 1.1522,0.0343 0.50408,-0.0489 1.00082,-0.19183 1.50628,-0.25559 0.26987,0.0355 0.94508,-0.17684 1.16476,0.10283 -0.007,0.12993 0.0101,0.0174 -0.094,0.17187 -0.003,0.004 0.18288,-0.11259 0.32359,-0.21615 0.17807,-0.11339 0.1268,-0.0313 0.30588,-0.22363 0.49253,-0.46648 -0.0364,0.32248 -0.0212,0.5177 0.25649,3.30418 1.26081,4.29934 0.22624,3.1231 -0.55462,-0.30286 -1.13235,-0.56066 -1.69172,-0.86186 -1.16882,-0.64156 -2.33298,-1.29682 -3.51182,-1.90573 -1.06276,-0.55144 -2.18022,-0.86903 -3.28758,-1.21411 -1.24982,-0.39411 -2.48243,-0.87452 -3.70533,-1.39551 -1.06511,-0.46196 -2.12448,-0.93047 -3.22177,-1.23747 -1.10389,-0.23938 -2.21871,-0.37087 -3.32663,-0.57316 -1.25619,-0.24624 -2.48001,-0.69888 -3.71407,-1.08277 -1.17084,-0.35426 -2.37489,-0.41054 -3.56887,-0.50754 -1.38999,-0.0918 -2.76133,-0.4153 -4.13714,-0.6719 -1.2544,-0.23318 -2.52177,-0.1725 -3.78275,-0.10541 -0.11235,0.008 -1.72875,0.11123 -1.78815,0.1314 -0.15366,0.0523 0.6275,0.0459 0.47154,0.0843 -0.35694,0.0876 -0.72509,0.0461 -1.08771,0.0671 -1.32489,0.0766 -1.00929,0.0577 -2.3536,0.1023 -1.58419,0.0643 -3.1667,0.0314 -4.74693,-0.1183 -0.84509,-0.0801 -1.7098,0.0153 -2.5354,-0.23796 -0.14983,-0.0459 0.21381,-0.29429 0.32072,-0.44143 -0.37914,-0.28375 -0.75829,-0.56748 -1.13743,-0.85122 -2.46898,0.89767 -3.42245,-3.75131 -0.95348,-4.64899 v 0 c 0.2704,-0.29943 0.5408,-0.59887 0.81121,-0.8983 0.7913,-0.15683 1.5826,-0.31366 2.3739,-0.47049 -0.12846,-0.0783 -0.51785,-0.16954 -0.38538,-0.23493 0.34241,-0.16902 0.72747,-0.0897 1.09219,-0.11395 1.18335,-0.0786 2.37136,-0.0448 3.55548,-0.0604 1.18142,0.0114 2.35975,0.0557 3.54062,0.0986 1.47368,0.0536 2.94438,0.0519 4.40938,0.28906 1.32853,0.19334 2.65476,0.42715 3.99046,0.51715 1.41062,0.11488 2.82313,0.22953 4.22296,0.49868 1.36047,0.2733 2.72188,0.55814 4.054,1.02573 1.0914,0.35536 2.1946,0.65289 3.31055,0.83456 1.23914,0.23134 2.47865,0.47969 3.68985,0.90798 1.19436,0.41214 2.38594,0.84844 3.55502,1.37489 1.11012,0.4687 2.21771,0.95414 3.36205,1.25776 1.30417,0.40972 2.60469,0.84823 3.85825,1.48815 1.40333,0.69519 2.78513,1.49602 4.01175,2.65696 0.62639,0.62471 1.2534,1.27592 1.71369,2.13138 -0.89003,-1.04642 0.18471,0.14183 0.5009,3.38035 0.0235,0.24094 -0.43579,1.05554 -0.6075,1.2874 -0.37792,0.44593 -0.78224,0.9356 -1.26561,1.15926 -0.25213,0.0476 -0.46764,0.34165 -0.71305,0.49886 -0.49764,0.33123 -1.0219,0.5467 -1.57729,0.62798 -0.65139,0.0962 -1.30356,0.0951 -1.95677,0.15799 -0.38276,2.9e-4 -0.76352,0.0357 -1.14617,0.0499 -0.85175,0.003 -1.70963,0.0459 -2.55955,-0.0616 -0.5448,-0.12735 0.0804,0.0323 0.948,-0.075 0.0338,-0.004 0.0381,-0.0779 0.0662,-0.10303 0.12451,-0.11157 0.26265,-0.19418 0.38804,-0.30396 0.0815,-0.0714 0.31059,-0.31389 0.23131,-0.23832 -0.0971,0.0925 -0.18991,0.1929 -0.28486,0.28936 -0.0436,0.0337 -0.51461,0.42301 -0.63092,0.44054 -0.81478,0.12277 -1.64159,0.12803 -2.46025,0.0874 -0.92085,-0.10609 -1.84169,-0.22297 -2.74539,-0.49509 -0.94167,-0.22175 -1.89261,-0.35934 -2.8312,-0.60598 -1.21281,-0.31351 -2.42378,-0.64476 -3.61433,-1.08792 -1.36692,-0.50701 -2.72477,-1.09366 -4.13561,-1.3491 -1.74885,-0.28032 -3.51199,-0.42709 -5.24185,-0.89458 -1.61048,-0.42997 -3.20793,-0.93763 -4.82107,-1.34884 -1.44703,-0.30628 -2.90679,-0.48093 -4.35665,-0.76209 -1.6085,-0.29352 -3.21435,-0.61198 -4.81573,-0.96828 -1.68519,-0.30051 -3.37505,-0.3663 -5.07486,-0.33668 -1.96645,-0.035 -3.92908,-0.17947 -5.87229,-0.60844 -1.45601,-0.27222 -2.91548,-0.51206 -4.38662,-0.57568 -1.69546,-0.0952 -3.3917,-0.14606 -5.08748,-0.22894 -1.96156,-0.115 -3.92286,-0.23848 -5.88527,-0.32589 0.15461,-0.008 0.6181,-0.008 0.46385,-0.0244 -1.48798,-0.15902 -2.993189,0.0707 -4.479979,0.1226 -1.454051,0.11865 -2.918613,0.18251 -4.352173,0.55459 -1.725731,0.40063 -3.460341,0.65561 -5.218719,0.4444 -0.192379,-0.007 -0.768448,0.007 -0.577137,-0.0214 0.23304,-0.034 0.470013,-0.0279 0.70329,0.003 0.17993,0.0238 -0.361651,0.008 -0.54229,0.0183 -0.638753,0.0383 -1.267141,0.16853 -1.887423,0.37846 -2.561362,0.79807 -5.107603,1.71153 -7.722608,2.16218 -3.286469,0.58675 -6.593129,0.9052 -9.882118,1.46589 -2.243656,0.41255 -4.490783,0.85731 -6.756345,0.9832 -0.28591,0.007 -0.576795,0.0749 -0.857866,0.004 -0.02498,-0.005 -0.01975,-0.0672 -0.04121,-0.0853 -0.0938,-0.0789 -0.221438,0.1469 -0.324354,0.0737 -0.667622,-1.69986 -1.344818,-3.3931 -2.002866,-5.09956 -0.0563,-0.14601 0.09495,-0.22908 0.16036,-0.28201 0.445421,-0.36032 0.959672,-0.53025 1.441257,-0.77732 1.923407,-0.77172 3.881923,-1.3708 5.841803,-1.95343 2.879925,-0.75819 5.789688,-1.43088 8.738632,-1.31113 0.87825,0.0484 1.75775,0.19717 2.635414,0.15918 1.486146,-0.0677 1.513754,4.4425 0.305358,5.3154 -0.118142,0.0853 -0.340237,0.14955 -0.457935,0.17299 -0.121881,0.0243 -0.245355,0.0312 -0.368033,0.0469 0.230956,0.0114 0.463696,-0.007 0.692865,0.0325 0.149457,0.0259 -0.30137,0.009 -0.45208,0.009 -0.594917,-10e-4 -1.189578,-0.0453 -1.784526,-0.0467 -1.16261,-0.002 -2.32603,0.0212 -3.487618,-0.0547 -0.239866,-0.0122 -0.479578,-0.03 -0.719524,-0.039 -0.109745,-0.004 -0.439134,-0.003 -0.329347,-0.005 1.618205,-0.0212 0.510604,0.0105 0.165702,-0.0226 -0.54861,-0.0149 -1.095421,-0.0306 -1.63292,0.15269 -0.689669,0.19872 -1.364366,0.48606 -2.063653,0.62329 -0.816709,0.15555 -1.632956,0.32138 -2.460454,0.32857 -2.578151,-0.12533 -0.709573,0.0272 -1.755869,-0.12866 -0.08707,-0.013 -0.174359,-0.0257 -0.261934,-0.0289 -0.06631,-0.002 -0.264974,0.005 -0.198815,0.0116 0.30019,0.0292 0.601541,0.0324 0.901969,0.0569 0.0536,0.004 -0.107381,0.002 -0.161071,0.003 -1.078827,0.28891 -2.099755,0.87976 -3.174975,1.19328 -1.095107,0.33638 -2.258126,0.7404 -3.386003,0.52411 -0.0188,-0.0814 -0.069,-0.16091 -0.05636,-0.24448 0.02998,-0.19816 0.32964,-0.56028 0.177829,-0.55829 -2.040067,0.0268 -1.940441,1.4478 -2.974656,-0.30686 -0.06108,-0.16933 -0.142469,-0.32816 -0.183246,-0.50799 -0.313019,-1.38042 0.250347,-2.5561 1.083531,-3.30523 1.311313,-0.95248 2.763662,-1.42238 4.255008,-1.03428 1.870106,-0.94254 2.871225,2.5788 1.001121,3.52134 z"
       inkscape:connector-curvature="0" />
    <path
       style="fill:#ffb380;fill-opacity:1;stroke:none;stroke-width:0.26131126;stroke-opacity:1"
       id="path889"
       d="m 53.482479,335.72816 c 0.198076,-0.22027 0.381644,-0.46598 0.594228,-0.6608 1.739065,-1.59377 3.86119,-2.31608 5.878217,-2.98975 1.891451,-0.59068 3.825567,-0.85512 5.761468,-0.99898 1.169029,-0.0217 2.32891,-0.0985 3.484598,-0.33634 1.669949,-0.38626 3.347559,-0.67898 5.037969,-0.84644 1.649982,-0.11649 3.292116,-0.31834 4.931276,-0.59142 1.712638,-0.34141 3.435584,-0.55135 5.166382,-0.60738 0.268338,0.002 0.5367,0.002 0.805014,0.008 0.679949,0.014 1.360111,0.0195 2.039732,0.0509 0.822911,0.0379 1.638147,0.17537 2.463255,0.18936 -0.221002,-0.36601 1.439039,0.38702 1.191143,-0.026 -0.133395,-0.22227 -0.7118,0.23867 -0.640671,-0.0297 0.07261,-0.27385 0.436113,-0.014 0.654164,-0.0213 1.391204,-0.0466 0.365903,-0.0251 2.696144,-0.0148 1.424719,0.10723 2.847144,0.24298 4.272504,0.33861 1.192517,0.038 2.371918,0.26611 3.548868,0.50425 0.96994,0.26981 1.95988,0.21176 2.94184,0.14198 0.2028,-0.0148 0.74603,0.15427 0.60837,-0.0445 -0.14768,-0.21332 -0.61976,0.26599 -0.65349,-0.0206 -0.0335,-0.28452 0.4324,-0.0187 0.64869,-0.0201 0.59025,-0.004 1.17868,0.0354 1.76744,0.0847 1.31784,-0.27234 2.42175,0.34712 3.65494,0.69751 0.75512,0.19427 1.52891,0.18254 2.29489,0.18891 0.98873,0.0105 1.96293,0.25019 2.93431,0.4691 0.84352,0.19904 1.69903,0.26083 2.55293,0.32063 1.15465,0.0714 2.30866,0.15986 3.46187,0.26432 1.32531,0.0984 2.64847,0.1306 3.97469,0.067 2.78673,-0.14557 -0.32712,0.0497 0.20379,-0.0825 0.0556,-0.0139 1.57523,-0.0291 1.62798,-0.0294 0.84017,-0.002 2.31731,0.0291 2.93447,0.0392 1.33278,0.14949 2.66731,0.21266 4.00428,0.18269 0.21885,-0.007 0.7946,0.20694 0.65656,-0.0193 -0.14229,-0.2332 -0.50766,0.18468 -0.67691,-0.014 -0.16532,-0.19412 0.44085,-0.004 0.66128,-0.004 0.22151,2.9e-4 0.44302,0.002 0.66451,0.007 2.14573,0.0348 1.33727,-0.0462 2.60213,0.11625 1.02001,0.14875 2.00155,0.55776 3.01339,0.77008 0.9479,0.18305 1.90731,0.1783 2.85997,0.28774 0.8689,0.12772 1.72077,0.39435 2.58693,0.549 0.77741,0.075 1.55721,0.0913 2.3356,0.14445 0.82913,0.008 1.65665,-0.002 2.4839,0.0821 0.94689,0.0847 1.87759,0.34131 2.80497,0.59615 0.63827,0.15476 1.28511,0.21823 1.92466,0.35913 0.56098,0.13035 1.08411,0.43093 1.61751,0.68123 0.43999,0.12528 0.89295,0.17575 1.33801,0.27734 0.51033,0.11305 1.01777,0.24255 1.52586,0.37246 0.47619,0.0892 1.71353,0.0266 -0.39191,0.0395 0.40827,-0.0194 0.81412,-0.0766 1.22219,-0.10408 0.7881,-0.11463 1.54887,0.009 2.32361,0.10565 0.39967,0.0469 1.05642,0.0328 -0.8279,0.007 -0.0419,-6e-4 0.084,-0.002 0.12587,-0.004 0.1175,-0.007 0.18142,-0.0154 0.3016,-0.0284 0.42204,-0.0645 0.84749,-0.061 1.27052,-0.10677 0.48411,-0.0755 0.97389,-0.0487 1.45724,-0.1205 1.13511,-0.12591 1.31867,-0.0465 2.08313,0.55319 0.0235,0.0183 -0.0406,-0.0492 -0.064,-0.0675 -0.1173,-0.0916 -0.22323,-0.23281 -0.35745,-0.2619 -0.4425,-0.0958 -0.89505,-0.071 -1.34258,-0.10643 -0.12277,0.0745 -0.35627,0.10198 -0.43798,0.27 -0.0108,0.0223 0.0379,-0.0168 0.0559,-0.0284 0.32437,-0.21071 0.07,-0.0714 0.36866,-0.22362 0.19535,-0.0768 0.37481,-0.14132 0.56193,-0.2417 0.39947,-0.26032 0.80513,-0.53808 1.24409,-0.65411 -0.0359,0.10713 0.22497,-0.12487 0.23393,-0.0215 0.005,0.064 -0.049,0.11111 -0.0745,0.16584 -0.19199,0.41117 -0.54229,0.74998 -0.57804,1.23178 -0.15868,2.13826 0.80368,3.53521 0.064,2.36486 -0.34224,-0.58664 -0.44427,-1.26929 -0.56758,-1.96875 -0.0441,-0.25023 -0.025,-0.30606 -0.17484,-0.23768 -0.15412,0.0875 0.009,0.0208 -0.19766,-0.005 -0.0436,-0.005 -0.0874,0.0235 -0.131,0.017 -0.24263,-0.0364 -0.49495,-0.2091 -0.72391,-0.31199 -0.54149,-0.38176 -1.11571,-0.65821 -1.70085,-0.89359 -0.79914,-0.22879 -1.56855,-0.58207 -2.32782,-0.97895 -0.66906,-0.33903 -1.26522,-0.88167 -1.92052,-1.25732 -0.47312,-0.16159 -0.96379,-0.19952 -1.44242,-0.33417 -0.59332,-0.13305 -1.15963,-0.41446 -1.74759,-0.5749 -0.72411,-0.10861 -1.45098,-0.17677 -2.17562,-0.28311 -0.95416,-0.20056 -1.91349,-0.35094 -2.87497,-0.47228 -0.14062,-0.0105 -0.28127,-0.0191 -0.42185,-0.0298 -0.24969,-0.0191 -0.49948,-0.0358 -0.74896,-0.0589 -0.10706,-0.0105 -0.42753,-0.0205 -0.32083,-0.0357 0.77558,-0.11134 1.31236,0.0278 0.71519,-0.10335 -0.20932,-0.0462 -0.42073,-0.0688 -0.63139,-0.0986 -0.038,-0.005 -0.13514,0.021 -0.1136,-0.0211 0.0402,-0.0786 0.12727,-0.0865 0.19089,-0.12977 0.69189,-0.61729 0.71215,-0.4841 1.13821,-1.49996 0.12547,-0.29916 0.16862,-0.72593 0.25046,-1.05941 0.0265,-0.0536 0.0324,-0.14645 0.0794,-0.1608 0.13607,-0.0416 0.81494,0.43768 0.93177,0.50104 0.3356,0.18202 0.67676,0.34526 1.01504,0.51822 1.03471,0.48434 2.09252,0.87517 3.14359,1.29089 0.77965,0.31319 1.44097,0.87238 2.02009,1.62225 0.49361,0.69013 0.0523,0.1119 -0.0522,-0.13874 0.21,-0.21145 0.71747,0.2583 0.87875,0.38616 0.30786,0.31556 0.14915,0.13158 0.46657,0.56617 1.93965,2.89956 -1.14013,6.55186 -3.07978,3.65231 v 0 c 0.2377,0.34011 0.131,0.19894 0.31403,0.43152 0.50189,0.51105 -0.22755,0.0662 -0.38723,0.0592 -0.31057,-0.17696 -0.57963,-0.36635 -0.84862,-0.64502 -0.12538,-0.12989 -0.21314,-0.32894 -0.35564,-0.42244 -0.0213,-0.0139 0.017,0.0589 0.0255,0.0885 0.005,0.0296 0.0319,0.14642 0.0154,0.17787 -0.0986,0.18726 -0.89627,-0.0561 -1.03384,-0.0441 -1.3818,-0.31916 -2.75473,-0.73688 -4.02351,-1.56187 -1.4816,-1.03653 -2.83912,-2.33084 -3.46632,-4.48529 -0.0533,-0.30613 -0.12435,-0.60775 -0.1601,-0.91841 -0.13256,-1.15234 0.10373,-2.36837 0.73096,-3.21653 0.20526,-0.27754 0.48555,-0.43467 0.72832,-0.652 0.30532,-0.15631 0.60343,-0.28767 0.93158,-0.34011 0.78493,-0.20093 0.11379,-0.0485 1.81478,-0.13199 0.65255,-0.0321 1.30596,-0.0698 1.95594,0.0568 1.02356,0.15802 2.03849,0.38784 3.05286,0.62791 0.80169,0.21597 1.6007,0.44932 2.38191,0.77563 0.54727,0.19988 1.11056,0.2775 1.66587,0.42959 0.73418,0.20337 1.4436,0.52928 2.12764,0.9383 0.5943,0.34409 1.19838,0.65488 1.81584,0.91812 0.74909,0.34124 1.50512,0.65853 2.22581,1.10027 0.65273,0.3647 1.33103,0.63866 1.99319,0.97071 1.19892,0.78474 2.15937,1.73719 2.73193,3.40462 0.14714,0.56293 0.38167,1.25581 0.33287,1.87679 -0.003,0.0342 -0.0326,-0.0537 -0.0451,-0.0836 -0.22624,-0.54154 0.0788,0.10178 -0.24153,-0.54597 -0.58605,-0.90374 0.43027,0.62258 0.33408,2.75327 -0.0231,0.51137 -0.38675,0.88669 -0.60189,1.31143 -0.13417,0.26488 -0.36511,0.44859 -0.55592,0.62809 -0.45884,0.37062 -0.98428,0.60982 -1.50609,0.76486 -0.18468,0.0795 -0.54718,0.24881 -0.68636,0.24179 -0.0373,-0.0873 -0.0185,-0.0532 -0.14579,0.0301 -0.28335,0.1855 -0.56373,0.38591 -0.88185,0.44563 -0.47889,-0.035 -0.9626,-0.008 -1.43667,-0.10496 -0.15902,-0.0325 -0.29184,-0.18052 -0.43544,-0.27702 -0.0445,-0.03 -0.16912,-0.14075 -0.12858,-0.10199 0.61479,0.58744 0.84407,0.53818 1.79276,0.46958 0.0172,-0.009 0.0627,-0.0486 0.0515,-0.0288 -0.059,0.10419 -0.65909,0.27495 -0.73661,0.29859 -0.11499,0.0351 -0.23142,0.0611 -0.34713,0.0917 -0.5892,0.11457 -1.18252,0.20497 -1.77703,0.0966 -0.65562,-0.0648 -1.31751,-0.0716 -1.97298,-0.0234 -0.47844,0.0458 -1.94634,0.18385 0.0827,0.0878 -0.4006,-0.0256 -0.80112,-0.0721 -1.2024,-0.0455 -0.85843,0.008 -1.71022,0.0438 -2.56225,-0.10654 -0.62728,-0.077 -1.2501,-0.21026 -1.8584,-0.43184 -0.52021,-0.18151 -1.02995,-0.40016 -1.5347,-0.64607 -0.34778,-0.10073 -0.70726,-0.07 -1.06104,-0.0963 -0.74048,-0.0588 -1.48224,-0.13613 -2.21356,-0.30648 -0.74281,-0.15327 -1.48619,-0.33192 -2.23933,-0.35999 -0.85449,0.0105 -1.71019,0.033 -2.56275,-0.0645 -0.88552,-0.0709 -1.76891,-0.18816 -2.64418,-0.38409 -0.79748,-0.15377 -1.59624,-0.15104 -2.40066,-0.16653 -1.09461,-0.0951 -2.17666,-0.32262 -3.24346,-0.6653 -0.81704,-0.22597 -1.63176,-0.34812 -2.46816,-0.24845 -1.299,0.0704 -0.003,-0.0145 0.19608,0.0496 0.20646,0.0662 -0.42469,0.007 -0.63704,0.0105 -1.05077,0.0145 -1.35334,0.0163 -2.70228,6.1e-4 -0.22829,-0.002 -0.45645,-0.0158 -0.68468,-0.0237 -1.32854,-0.0643 -2.65918,-0.13821 -3.98814,-0.0476 0.20574,0.0105 0.8192,-0.0211 0.61722,0.0323 -0.0155,0.004 -1.60347,0.0209 -1.61098,0.0209 -0.76495,0.001 -2.64647,-0.033 -3.02198,-0.0443 -0.26404,-0.008 -0.52761,-0.034 -0.79141,-0.0509 -1.40657,-0.11925 -2.8158,-0.21152 -4.21612,-0.43096 -1.15308,-0.15685 -2.3051,-0.33087 -3.45163,-0.55889 -0.87891,-0.17072 -1.75674,-0.35326 -2.63966,-0.48471 -0.92658,-0.10702 -1.85841,-0.11044 -2.78338,-0.24482 -0.93471,-0.17805 -1.85706,-0.42425 -2.75253,-0.83218 -0.23952,-0.0826 -0.24278,-0.1022 -0.46432,-0.12105 -0.40034,-0.0339 -1.58545,0.34531 0.15227,0.17484 -1.68099,0.23916 -3.37929,0.27051 -5.06654,0.12973 -1.05001,-0.13307 -2.09003,-0.38359 -3.14262,-0.46585 -1.175621,-0.0277 -2.352303,0.0875 -3.527017,-0.0341 -1.348696,-0.11901 -2.69348,-0.35195 -4.048064,-0.30897 0.209155,-0.002 0.82311,0.0927 0.627464,-0.005 -0.02662,-0.0134 -1.337983,-0.0317 -1.363426,-0.0322 -1.067749,-0.016 -2.132936,-0.0214 -3.199119,-0.0924 -0.601746,-0.0308 -1.202212,-0.0484 -1.804487,-0.03 -0.209638,0.007 -0.688756,-0.23649 -0.628646,0.031 0.06145,0.27347 0.807331,-0.15123 0.642728,0.0317 -0.177945,0.19771 -0.463339,0.0176 -0.695009,0.0264 -1.619548,0.087 -3.237397,0.21464 -4.852909,0.39141 -1.685577,0.21715 -3.366063,0.48804 -5.051882,0.69961 -1.759495,0.19441 -3.522791,0.26051 -5.288092,0.19541 -1.153825,-0.0427 -2.308716,-0.0648 -3.458366,0.10816 -1.65638,0.22608 -3.250949,0.81226 -4.845276,1.43965 -2.273929,0.79834 -4.597349,1.62674 -6.965653,1.58859 -2.225297,1.74103 -4.074547,-2.44912 -1.84925,-4.19015 z"
       inkscape:connector-curvature="0" />
    <path
       style="fill:#ffb380;fill-opacity:1;stroke:none;stroke-width:0.26131126;stroke-opacity:1"
       id="path891"
       d="m 58.886068,386.18898 c -1.087841,0.0345 -2.134171,-0.45049 -3.085797,-1.11847 -0.293809,-0.29632 -0.645386,-0.46908 -1.011679,-0.50561 -0.341743,0.0247 -0.720774,-0.33673 -1.054563,-0.18538 0.471843,0.0854 -0.950919,0.007 -0.466818,-0.003 1.682513,-0.0384 0.08918,0.0412 -0.491907,-0.0388 -0.393749,-0.0919 -0.78221,-0.22042 -1.163807,-0.37943 -0.02996,-0.0137 -0.121454,-0.0481 -0.152481,-0.0849 -0.05379,-0.0636 0.169271,0.17396 0.204853,0.0907 1.766799,-4.13529 0.458838,-4.63388 1.742173,-4.06131 0.819195,0.3311 1.633716,0.68272 2.457385,0.99383 1.179068,0.48245 2.413668,0.53415 3.634875,0.6283 1.283677,0.0759 2.300196,0.3864 3.439919,1.17068 0.382786,0.19566 1.063097,1.18275 1.472592,1.0169 0.742563,-0.31272 1.548926,-0.29637 2.32022,-0.29533 1.180982,0.0105 2.36126,0.0432 3.542305,0.042 -0.210284,-0.004 -0.437503,0.0981 -0.630848,-0.0119 -0.176096,-0.10031 0.383065,-0.009 0.574432,-0.0201 0.875483,-0.0503 1.743954,-0.19466 2.614786,-0.31669 1.436749,-0.21261 2.881168,-0.26438 4.325361,-0.27453 1.464753,-0.007 2.904227,-0.40508 4.340635,-0.74158 1.865241,-0.46946 3.751814,-0.76814 5.647705,-0.88135 1.825594,-0.13851 3.653867,-0.0489 5.480539,-0.064 -0.224381,-0.002 -0.466217,0.10928 -0.67314,-0.007 -0.190418,-0.10632 0.412861,-0.0135 0.619206,-0.0238 0.904894,-0.0452 1.80799,-0.10398 2.71362,-0.11859 0.877256,0.0304 1.755548,0.003 2.632496,0.0475 0.235917,0.0118 -0.481959,-0.0618 -0.707921,0.0291 -0.176627,0.0712 0.368644,0.0247 0.553077,0.0332 0.533905,0.0247 0.525132,0.0169 1.059336,0.0105 1.238348,-0.0105 2.472558,-0.15419 3.708458,-0.23847 1.31979,-0.11009 2.64142,-0.0842 3.96096,0.007 0.81195,0.10167 1.62659,0.0927 2.44084,0.14185 0.28941,0.0175 0.56002,0.0641 0.85237,0.0531 0.11221,-0.0169 0.22443,-0.0339 0.33664,-0.0507 0.0508,-0.008 0.90427,-0.13676 0.90303,-0.13744 -0.22761,-0.1237 -0.51266,0.0798 -0.73631,-0.0562 -0.17603,-0.10702 0.38652,-0.0265 0.57982,-0.0389 0.20607,-0.0132 0.4122,-0.0251 0.6183,-0.0377 1.20753,-0.0559 2.41508,0.0166 3.62235,0.0485 1.34212,-0.0567 2.67894,-0.24712 4.01894,-0.36466 1.47852,-0.0891 2.95803,-0.0996 4.43752,-0.0671 1.33666,0.0379 2.66152,-0.24419 3.9853,-0.44976 1.51304,-0.26629 3.03249,-0.44861 4.55518,-0.57951 1.34785,-0.0431 2.69207,-0.10974 4.03402,-0.28616 1.62447,-0.2777 3.24509,-0.59307 4.86999,-0.86625 1.53034,-0.28224 3.07317,-0.30122 4.61447,-0.30337 0.81237,0.0357 1.6157,-0.0755 2.41034,-0.28902 0.74004,-0.24713 1.4953,-0.31094 2.25437,-0.31127 0.4883,0.0114 0.97658,0.0239 1.46489,0.0325 0.0709,10e-4 0.1418,1.1e-4 0.21266,-0.002 0.98025,-0.0406 -1.61225,0.13438 -0.49389,-0.0933 0.1102,-0.0224 0.21973,-0.0504 0.32959,-0.0755 1.20269,-0.34019 2.42199,-0.53493 3.64544,-0.67917 1.66114,-0.0786 3.3404,-0.18127 4.98854,0.15842 0.72592,0.1555 1.39912,0.50108 2.05614,0.9298 0.34639,0.27102 0.74291,0.23553 1.12374,0.32581 1.02216,0.20156 -1.5207,0.13085 -0.82746,0.12566 1.00965,-0.21637 1.6749,0.13741 2.53601,0.5626 0.48208,0.29167 0.95363,0.80383 1.18753,1.44989 0.11587,0.32003 0.1794,0.6692 0.2691,1.0038 -0.0154,0.43524 0.0334,0.88304 -0.0461,1.3057 -0.0712,0.37841 -0.24697,0.70896 -0.39609,1.04475 -0.051,0.11491 -0.25319,0.41211 -0.20044,0.29858 0.075,-0.16137 0.16313,-0.315 0.26786,-0.44369 0.0559,-0.0686 -0.0734,0.17788 -0.11816,0.25972 -0.0981,0.17943 -0.20643,0.34852 -0.30966,0.52278 -0.88045,1.25826 -2.10554,1.88919 -3.28414,2.49457 -1.45738,0.7268 -2.95854,1.2473 -4.49749,1.54293 -1.69761,0.26774 -3.39817,-0.0498 -5.08481,-0.29611 -0.19371,-0.0158 -0.38722,-0.0373 -0.58114,-0.0477 -0.48178,-0.0255 -0.70152,-0.0129 -1.18637,0.002 -0.20776,0.007 -0.79695,-0.12909 -0.62324,0.0228 0.0644,0.0563 1.73834,0.003 0.009,0.0432 -1.31652,-0.003 -2.6186,0.27815 -3.91987,0.50826 -2.27428,0.38136 -4.57944,0.37177 -6.86956,0.37139 -0.76538,0.005 -1.54808,-0.15135 -3.40569,-0.15777 -1.54966,0.0556 -3.1047,0.16933 -4.648,-0.0717 -1.06844,-0.26142 -2.10766,-0.68231 -3.19726,-0.75807 -0.38729,0.081 -1.81311,-0.10471 0.0465,0.0269 0.15544,0.0114 -0.31126,0.0114 -0.46658,0.0249 -0.36955,0.0323 -0.73783,0.0865 -1.10673,0.12994 -1.85684,0.28665 -3.71991,0.17709 -5.56908,-0.12092 -0.94965,-0.1915 -1.90797,-0.23572 -2.86668,-0.23572 -0.23633,0 -0.47536,-0.0417 -0.70897,0.005 -0.21295,0.0433 0.43084,0.004 0.64626,0.007 -1.81385,-0.0134 -3.62697,-10e-4 -5.44083,-0.0332 -1.38451,-0.12371 -2.76656,-0.2804 -4.15325,-0.35688 -1.48139,-0.0525 -2.96307,-0.0576 -4.44449,-0.11077 -1.7798,-0.0674 -3.54199,-0.40666 -5.301419,-0.74479 -1.886513,-0.35515 -3.790511,-0.51626 -5.69071,-0.68141 -1.778884,-0.2037 -3.55426,-0.43403 -5.338443,-0.53521 -1.593282,-0.0166 -3.182806,-0.16607 -4.772708,-0.28789 -1.449624,-0.0979 -2.901058,-0.13643 -4.352122,-0.17581 -0.379217,-0.35398 -0.994756,0.31965 -1.375241,-0.0209 -0.183672,-0.16436 0.566324,0.25515 0.66387,-0.009 0.09621,-0.26087 -0.436443,-0.0114 -0.654678,-0.0156 -0.218194,-0.004 -0.436389,-0.009 -0.654603,-0.012 -0.649531,-0.007 -1.29908,-0.0115 -1.948621,-0.0173 -1.268576,-0.0383 -2.531967,-0.18378 -3.79092,-0.38834 -0.876443,-0.15471 -1.746742,-0.35753 -2.617906,-0.55606 -0.721174,-0.16152 -1.444959,-0.3072 -2.170631,-0.42932 -0.471231,-0.1844 -2.706059,-0.14614 -0.474192,-0.19196 -0.629136,-0.0714 -1.265577,-0.0238 -1.894419,-0.0477 -0.277997,-0.0105 -0.562915,-0.12459 -0.834373,-0.19657 -0.392523,-0.17852 -0.799925,-0.13263 -1.205849,-0.0951 -0.44204,0.0427 -0.629469,0.0561 0.782641,-0.004 0.06573,-0.002 -0.131378,-0.009 -0.197131,-0.0105 -0.225859,-0.004 -0.450899,0.0153 -0.676108,0.0347 -0.985661,0.0716 -1.976071,0.1152 -2.962901,0.065 0.29952,0.0409 -0.913941,-0.10529 -0.585786,-0.14181 0.670703,-0.0745 1.392282,0.0362 0.918284,-0.0863 -0.72727,0.17146 -1.434551,0.15006 -2.18223,0.16476 -0.498714,0.0337 -1.009738,0.0455 -1.491871,-0.14985 0.330098,-0.0142 0.661425,-0.002 0.990292,-0.0422 0.02412,-0.003 0.01599,-0.0661 0.03619,-0.0839 0.225579,-0.1991 0.25657,-0.13106 0.426572,-0.33754 0.01685,-0.0205 -0.0421,0.0238 -0.06181,0.0392 -0.06697,0.0521 -0.131955,0.10861 -0.197932,0.16282 -0.339172,0.32617 -0.646729,0.29733 -1.017913,0.37536 0.171889,-1.57013 0.20783,-3.1775 0.515667,-4.71034 0.03991,-0.19875 0.254599,0.24351 0.348599,0.40679 0.195248,0.33914 0.42133,0.67616 0.511069,1.08644 0.277814,1.2701 0.03966,2.14957 -0.527372,3.10153 -0.378653,0.51567 -0.0064,-0.2085 0.03688,-0.35247 0.07197,-0.23907 0.07708,-0.32641 0.104974,-0.5455 0.05712,0.0214 0.118453,1.06257 0.134078,0.62067 0.01596,-0.06 0.03409,-0.17127 0.09089,-0.19668 0.245911,-0.11008 0.886286,0.12228 1.121654,0.18017 0.929686,0.2553 1.865451,0.45508 2.809409,0.587 0.991642,0.10746 1.986366,0.0578 2.979679,0.12504 1.149724,0.0856 2.274862,0.40518 3.382493,0.80736 0.482325,0.15377 0.966271,0.37478 1.469501,0.33293 0.130335,-0.0114 0.651886,-0.11872 0.753307,-0.13884 -0.205249,-0.0199 -0.540861,0.19522 -0.61575,-0.0601 -0.07012,-0.23897 0.383488,-0.0508 0.575038,-0.0787 0.988347,-0.14369 1.97129,-0.23822 2.964893,-0.2914 0.263387,9.1e-4 0.526787,-0.001 0.790159,0.002 0.648942,0.009 1.298127,0.008 1.946744,0.0366 0.837424,0.0373 1.671781,0.27014 2.487295,0.50709 1.170718,0.39568 2.383726,0.24793 3.577608,0.23417 1.568934,-0.0304 3.105503,0.34291 4.609546,0.90255 0.690788,0.24559 1.36361,0.61688 2.083081,0.68773 0.38902,0.0383 0.546119,0.005 0.940178,-0.0283 0.185581,-0.024 0.593497,0.17116 0.556745,-0.0722 -0.03803,-0.25184 -0.718366,0.11327 -0.576938,-0.0615 0.165555,-0.20453 0.450557,-0.0427 0.675983,-0.0609 0.718633,-0.0582 1.437246,-0.0865 2.156853,-0.11168 1.863034,-0.0872 3.724177,0.0253 5.583942,0.15617 0.922029,0.13417 1.857668,9e-4 2.779763,0.0837 0.18698,0.0168 -0.74694,-0.0304 -0.562131,0.0114 0.214057,0.0479 0.434101,0.005 0.651141,0.009 1.36218,0.0724 2.71947,0.17627 4.08288,0.20802 0.66864,0.0865 1.33204,0.18388 2.00444,0.17956 0.35348,-0.0637 1.49451,0.0217 -0.13623,-0.0485 -0.11932,-0.005 0.23876,-0.002 0.35811,-0.005 0.12504,-0.003 0.25002,-0.009 0.37503,-0.0145 0.12769,-0.003 0.25538,-0.005 0.38306,-0.009 1.43102,-0.10609 2.86205,-0.17003 4.29306,-0.27952 0.23706,-0.0114 0.48148,0.0464 0.71117,-0.0325 0.17244,-0.0591 -0.70868,0.016 -0.53378,-0.0284 0.2314,-0.0589 0.47115,-0.009 0.70668,-0.0156 0.68179,-0.0198 1.36355,-0.0419 2.04506,-0.0741 0.88239,0.0674 2.00244,-0.4105 2.86079,-0.20418 0.17475,0.0419 0.33872,0.14212 0.50809,0.21318 0.6854,0.65445 0.36666,0.25367 0.92936,1.23909 1.14147,-0.65594 1.83817,1.4934 0.69671,2.14934 v 0 c 0.14309,1.06466 0.16311,0.57276 0.009,1.47784 -0.10523,0.14576 -0.19046,0.32289 -0.31568,0.43725 -0.28235,0.25784 -0.77569,0.41356 -1.09121,0.51321 -0.6854,0.21644 -1.38405,0.34145 -2.08177,0.46158 -1.88527,0.2536 -3.78398,0.31676 -5.67734,0.19197 -0.21739,-0.0191 -0.43493,-0.0353 -0.65219,-0.0571 -0.19519,-0.0195 -0.67359,0.16591 -0.5851,-0.0666 0.0957,-0.25143 0.44382,0.0646 0.63349,-0.0605 0.041,-0.0272 -0.87839,-0.07 -0.88041,-0.0701 -0.1299,-0.004 -0.25987,-0.004 -0.38982,-0.008 -1.14573,0.0265 -2.29514,0.0801 -3.43828,-0.0467 -0.61213,-0.0729 -1.22417,-0.18813 -1.83984,-0.10409 0.25961,0.0114 0.5217,-0.015 0.77883,0.0341 0.12332,0.0235 -0.24833,0.0276 -0.37235,0.0434 -0.70035,0.0896 -1.39868,0.21131 -2.10198,0.25625 -1.877224,0.10367 -3.759885,0.0895 -5.633327,-0.11201 -0.718278,-0.0732 -0.684555,-0.0741 -1.391989,-0.12936 -0.216581,-0.0169 -0.473305,0.12069 -0.649907,-0.0471 -0.159158,-0.15123 0.775068,0.056 0.586544,-0.0131 -0.09309,-0.0341 -1.204311,0.0197 -1.284528,0.023 -1.860666,0.11327 -3.736087,0.28614 -5.59331,0.0223 -1.172456,-0.24471 -2.313399,-0.67325 -3.487707,-0.90012 -1.398313,-0.17061 -2.804744,-0.1862 -4.200953,-0.39456 -1.251237,-0.22293 -2.476514,-0.60978 -3.721372,-0.87067 -0.479902,-0.0198 -0.948522,0.002 -1.427943,0.0407 -0.216785,0.0174 -0.447552,-0.0509 -0.650342,0.0525 -0.107857,0.055 1.954926,0.0118 -0.262954,0.0388 -1.763439,-0.0419 -3.525628,-0.13832 -5.289597,-0.13694 -0.971432,-0.14287 -1.928115,-0.39529 -2.890204,-0.62002 -0.978858,-0.16412 -1.959342,-0.31677 -2.943162,-0.41705 -1.0432,-0.10146 -2.08883,-0.15775 -3.130411,-0.28926 -1.194853,-0.18211 -2.394119,-0.4114 -3.527564,-0.97224 -1.170683,-0.67274 -2.244132,-1.55004 -2.802167,-3.14969 -0.229795,-0.81753 -0.395993,-1.65152 -0.402445,-2.53119 0.03164,-0.97697 0.20512,-2.15373 0.862216,-2.7487 -0.292632,0.83993 -0.39335,1.45569 -0.154947,2.42361 0.08294,0.33672 0.285049,0.59901 0.440218,0.88693 0.04774,0.0886 0.157224,0.34798 0.167021,0.23975 0.145909,-1.61166 0.167418,-3.239 0.25113,-4.8585 -0.358951,0.0758 0.124141,-0.17445 0.209022,-0.12028 0.140189,0.0649 0.376411,-0.21558 0.46654,-0.27708 0.660928,-0.45091 0.828875,-0.41244 1.747481,-0.37515 0.505075,-0.1755 1.030036,-0.19153 1.549032,-0.14723 -1.767097,0.0586 -0.536649,0.0262 -0.108059,0.15866 0.663992,-0.14659 1.351238,-0.0382 2.016001,-0.22019 0.102374,-0.002 0.204732,-0.007 0.307125,-0.008 0.105278,-10e-4 0.2106,-0.003 0.315852,-2.1e-4 1.142015,0.0376 -1.341166,0.009 -0.342835,0.076 0.07057,0.004 0.141285,0.004 0.211929,0.007 0.881939,0.0192 1.765104,-0.22381 2.648459,-0.0783 0.532837,0.0667 1.053982,0.21411 1.579158,0.32314 0.201082,0.004 0.06451,0.0105 0.254253,-0.0186 0.04523,-0.007 0.181471,-0.0165 0.13595,-0.0176 -1.458541,-0.0409 -1.260401,0.027 -0.796698,-0.0235 0.09206,-0.0105 0.183859,-0.024 0.275786,-0.0362 1.177123,-0.0167 2.356191,-0.0886 3.515252,0.24249 0.625838,0.16118 1.253474,0.36085 1.894311,0.36348 0.922881,0.015 1.845803,0.0178 2.766304,0.12375 1.128873,0.1182 2.259144,0.23059 3.392736,0.16525 -0.23244,-0.003 -0.472268,0.0659 -0.697321,-0.0116 -0.201791,-0.0695 0.416837,-0.007 0.625211,-0.0132 1.37479,-0.042 2.749979,-0.0472 4.125154,-0.0388 1.503357,0.0218 3.006399,0.0639 4.508132,0.16422 1.586715,0.0806 3.174565,0.0567 4.761561,0.12066 1.862243,0.0833 3.725991,0.13073 5.585833,0.28585 2.000058,0.22892 3.986747,0.58585 5.961671,1.06775 1.56757,0.32729 3.13884,0.65226 4.7282,0.70977 1.53055,0.0723 3.06308,0.10735 4.58984,0.28137 1.2968,0.16704 2.59203,0.39988 3.89556,0.43961 -0.24662,-0.001 -0.49337,0.007 -0.73986,-0.004 -0.1949,-0.008 0.39007,0.004 0.58499,-0.002 0.93967,-0.0351 1.87476,-0.19471 2.81402,-0.24231 0.73144,-0.003 1.4629,-0.0173 2.19432,-0.009 1.33058,0.0156 2.64411,0.30718 3.95805,0.5539 0.50751,0.0731 0.70317,0.11168 1.20782,0.14446 0.19071,0.0124 0.7568,-0.0467 0.5726,0.0201 -0.23533,0.0856 -0.49746,-0.055 -0.7313,0.0375 -0.37248,0.14736 1.50965,-0.10484 1.16558,0.0213 1.62046,-0.0459 3.2504,-0.3018 4.86453,10e-4 0.99904,0.23902 1.97446,0.63529 2.9834,0.78302 0.39425,0.014 1.79129,0.0454 -0.0416,0.0142 -0.14146,-0.002 0.28303,3e-4 0.42435,-0.008 0.43017,-0.0266 0.53341,-0.0604 0.97353,-0.14196 1.03359,-0.26056 2.08479,-0.61267 3.13977,-0.66668 0.82798,-0.0423 1.65703,-0.0343 2.48562,-0.0359 0.34849,-5.9e-4 0.69682,0.0195 1.04523,0.0293 1.53102,0.1103 0.50285,0.0271 1.97476,0.16795 0.28321,0.0272 0.59728,-0.0945 0.84981,0.0782 0.18097,0.12385 -0.7175,-0.13922 -0.60681,0.0881 0.0413,0.0847 1.21548,0.0569 1.29553,0.0563 1.43364,-0.14913 2.837,-0.5913 4.2739,-0.70328 1.89232,-0.0678 3.79065,-0.0769 5.65219,0.43783 0.51154,0.11226 1.02382,0.23769 1.54119,0.29353 0.14274,0.0154 0.57181,0.0105 0.42913,0.0264 -0.29055,0.033 -0.58384,-0.004 -0.87463,0.0241 -0.12306,0.0125 0.24646,0.0177 0.36969,0.0265 1.26404,-0.15999 2.43321,-0.8858 3.64491,-1.34551 0.63692,-0.23198 0.77883,-0.29957 1.40551,-0.46991 0.41288,-0.11225 0.95412,-0.34824 1.35946,-0.0869 -0.12099,0.48994 -0.21435,0.61304 0.23077,-0.12854 0.0488,-0.0812 -0.10919,0.15221 -0.14631,0.24371 -0.47912,1.18129 -0.34796,0.81038 -0.3774,2.20203 0.0837,0.29994 0.1475,0.61107 0.25102,0.8998 0.058,0.16192 0.14647,0.30187 0.23021,0.44244 0.13998,0.23498 0.4576,0.52578 0.0442,0.3835 -0.13031,-0.0526 -0.28965,-0.15502 -0.42657,-0.17594 -0.007,-0.001 0.003,0.0208 0.01,0.0254 0.0465,0.0348 0.0917,0.086 0.14494,0.0904 0.43068,0.0364 0.86294,0.0208 1.29442,0.0311 -0.79575,0.13217 -1.61101,0.094 -2.40454,-0.0395 -0.67008,-0.18103 -1.29438,-0.51701 -1.88674,-0.97233 -0.12068,0.0199 0.12338,0.10461 0.0448,0.17074 -0.18643,0.15694 -0.59634,0.0371 -0.79101,0.16402 -0.3014,0.0395 -1.20026,0.0209 -0.90484,0.10975 0.25645,0.0771 0.53119,-0.0369 0.7882,0.0367 0.18712,0.0536 -0.38261,0.0147 -0.57385,0.0246 -0.41466,0.0217 -0.82896,0.0547 -1.24368,0.0747 -1.26774,0.083 -2.53554,0.20906 -3.80582,0.17037 -0.78845,-0.0182 -1.57786,-0.0296 -2.36601,-0.0512 -0.16049,-0.004 -0.64122,-0.0397 -0.48068,-0.0394 0.34477,6e-4 0.6895,0.0115 1.03424,0.0172 -0.44914,0.003 -0.90135,0.0677 -1.34021,0.19345 -0.92523,0.29683 -1.84217,0.64048 -2.77614,0.889 -1.47408,0.38564 -2.9625,0.62118 -4.46062,0.77056 -1.66215,0.19501 -3.32034,0.43733 -4.97908,0.67767 -1.41794,0.17517 -2.83611,0.20919 -4.25949,0.20392 -1.42167,0.0707 -2.8132,0.46406 -4.22461,0.67691 -1.5083,0.23236 -3.02355,0.31669 -4.54139,0.35053 -1.39758,0.0523 -2.78965,0.21888 -4.18527,0.32256 -1.43045,0.0526 -2.85638,-0.0126 -4.28657,-0.042 -1.20515,0.0544 -2.41133,0.11293 -3.61726,0.0762 -1.44639,-0.0731 -2.90215,-0.0117 -4.3329,-0.33923 -0.16852,-0.0173 -0.3761,-0.0459 -0.54719,-0.0368 -0.0844,0.004 -0.33607,0.0236 -0.25201,0.0342 1.64347,0.20832 0.84069,-0.0398 0.20491,0.16376 -1.30964,0.21929 -2.62375,0.38764 -3.94598,0.35763 -1.27604,-0.0232 -2.55028,-0.10872 -3.82616,-0.12817 -0.538069,0.005 -1.071572,0.0636 -1.608738,0.0812 -0.632883,0.0209 -1.266485,10e-4 -1.899025,0.0358 -0.224722,0.0122 0.628072,-0.26215 0.674292,0.0309 0.04571,0.28966 -0.444504,0.0114 -0.66676,0.0169 -1.758732,-0.007 -3.516977,-0.10367 -5.276059,-0.0495 -0.216988,-0.002 -0.433976,-0.004 -0.650966,-0.005 -0.207323,-9e-4 -0.829059,0.014 -0.62197,9e-4 0.225372,-0.0143 0.451818,-0.0258 0.676875,-0.004 0.203073,0.0193 -0.407218,0.002 -0.610706,0.0105 -0.623394,0.0259 -0.646063,0.0438 -1.27824,0.1278 -1.811437,0.35846 -3.619779,0.75939 -5.443039,0.9977 -1.645574,0.19297 -3.29451,0.28189 -4.946716,0.25169 -1.356918,0.0767 -2.70294,0.30831 -4.056115,0.45361 -1.786153,0.11294 -3.570671,-0.008 -5.358222,0.0226 -1.215584,-0.0208 -2.430183,-0.10701 -3.638623,-0.28867 -1.034246,-0.1204 -2.084403,-0.25524 -3.04773,-0.80968 -0.561614,-0.35503 -1.085701,-0.85326 -1.693343,-1.05143 -0.890898,-0.0942 -1.790295,-0.0331 -2.678749,-0.18717 -1.548156,-0.27137 -3.072037,-0.74383 -4.461045,-1.73057 -0.679349,-0.49854 -1.323045,-1.06055 -1.968367,-1.6303 -1.195565,-0.64336 -0.365841,-0.12639 1.143179,-4.34788 0.0021,-0.005 0.561935,0.21283 0.581789,0.17895 0.145205,0.0504 0.30322,0.12745 0.449688,0.0616 0.0425,-0.003 0.170075,-0.009 0.127504,-0.0105 -0.251395,-0.005 -1.005639,0.004 -0.754282,-0.003 0.561824,-0.0181 1.1389,-0.0346 1.702011,0.0194 0.605221,0.12999 1.216822,0.28085 1.755588,0.69283 0.395562,0.31707 0.382908,0.23719 0.881658,0.2324 1.114343,0.16931 2.236738,0.5636 3.105295,1.55694 2.059894,1.57768 0.384147,5.45638 -1.675744,3.8787 z"
       inkscape:connector-curvature="0" />
    <path
       style="fill:#ffb380;fill-opacity:1;stroke:none;stroke-width:0.26131126;stroke-opacity:1"
       id="path893"
       d="m 119.01685,387.74345 c 0.51176,-0.45702 1.16371,-0.38255 1.70486,-0.71429 0.083,-0.0508 0.0244,-0.29429 0.11079,-0.33385 0.44118,-0.20199 0.91573,-0.2388 1.37519,-0.34651 0.19772,-0.0464 3.0278,-0.65987 3.17489,-0.69179 2.56987,-0.53385 5.16239,-0.83213 7.75862,-1.00895 1.03275,0.0267 2.00286,-0.3304 2.98187,-0.70619 1.06473,-0.42354 2.1623,-0.66101 3.26609,-0.80666 1.17752,-0.12369 2.35281,-0.26047 3.52466,-0.45895 1.43365,-0.25239 2.86395,-0.53707 4.29873,-0.7779 0.91243,-0.13996 1.83117,-0.18996 2.74918,-0.18813 0.58476,-0.0192 1.13866,-0.32699 1.69084,-0.55538 0.84801,-0.36358 1.7267,-0.49596 2.61247,-0.51453 0.43313,-0.27127 0.12567,0.22182 0.0626,0.20613 -0.0334,-0.008 0.0516,-0.059 0.0786,-0.0864 0.3127,-0.31712 0.24894,-0.24555 0.63831,-0.57401 0.94438,-0.71717 1.9914,-1.08915 3.05915,-1.29559 0.37146,-0.0522 0.74508,-0.0609 1.11796,-0.0394 0.77675,0.0449 1.03742,-0.0987 1.57948,0.26678 -1.24868,-0.0832 -0.94666,-0.31152 -1.66519,0.12673 -0.0371,0.0225 -0.0744,0.11794 -0.10527,0.0826 -0.0373,-0.0427 0.47412,-0.39472 0.53316,-0.43475 0.39308,-0.25499 0.82435,-0.3713 1.24053,-0.5398 0.43232,-0.15127 0.86355,-0.30764 1.29517,-0.46329 0.4135,-0.14867 0.83571,-0.2267 1.24998,-0.36769 2.57325,-0.21156 0.72477,-0.26619 1.65803,-0.012 0.0266,0.007 0.008,-0.10366 -0.0191,-0.10553 -0.35592,0.002 -0.71183,0.005 -1.06775,0.008 6.9e-4,0.007 0.002,0.013 0.003,0.0195 0.0137,-8.9e-4 0.0494,-0.017 0.041,-0.002 -0.0222,0.0376 -0.0651,0.0458 -0.0881,0.0825 -0.013,0.0208 0.0378,-0.007 0.1639,-0.10508 0.0629,-0.0487 0.12487,-0.0998 0.18731,-0.14977 0.0693,-0.0532 0.13859,-0.10644 0.20788,-0.15966 0.4504,-0.27478 0.88203,-0.59538 1.3571,-0.79167 0.15859,-0.0363 0.79379,-0.46768 0.87136,-0.26598 -0.23773,0.41296 -0.33618,0.96084 -0.53451,1.39265 -0.24703,0.53786 0.0947,-0.49949 0.16917,-0.78227 -0.12745,0.48752 -0.0409,-0.15849 -0.0247,0.0545 -0.0565,-0.16137 0.0811,0.75039 0.0619,0.53095 -0.0692,-0.1929 -0.11282,-1.71017 -0.0679,-0.56243 0.47767,1.4621 0.19155,1.1005 1.01076,1.97086 0.0681,0.0723 0.13473,0.17143 0.22124,0.18576 0.33768,0.056 0.6806,0.007 1.02071,0.0199 0.0914,0.003 -0.18132,0.0325 -0.27171,0.0512 -0.42312,0.0357 -0.81652,0.2143 -1.21567,0.39462 -0.73203,0.28589 -1.45695,0.60033 -2.17754,0.93386 -0.7777,0.31569 -1.54448,0.67508 -2.32383,0.98352 -0.81664,0.25395 -1.62719,0.53854 -2.43721,0.82718 -1.05121,0.34687 -2.11138,0.64478 -3.17643,0.90584 -0.78842,0.13152 -1.56787,0.46484 -2.36556,0.50166 -0.51729,0.0239 -1.03516,0.0115 -1.55274,0.0173 -0.14236,0.004 -0.56799,-0.015 -0.42708,0.0123 0.25499,0.0494 0.52778,-0.0551 0.77196,0.0545 0.13733,0.0616 -0.28611,0.0624 -0.4283,0.0998 -0.63439,0.16692 -1.26339,0.3771 -1.89463,0.56356 -1.47634,0.44901 -2.98438,0.64438 -4.49043,0.81193 -1.52041,0.19016 -3.03578,0.43776 -4.5584,0.59725 -1.62759,0.11489 -3.25811,0.11625 -4.88571,0.23165 -1.13847,0.0722 -2.27049,0.25229 -3.403,0.41504 -0.86694,0.13485 -1.73438,0.25999 -2.60135,0.39343 -0.90052,0.183 -1.79898,0.38485 -2.70423,0.52207 -1.18106,0.18395 -2.37006,0.2572 -3.5574,0.32735 -1.59106,0.0473 -3.18248,-0.0303 -4.77317,-0.0812 -0.95315,-0.0333 -1.90712,0.0645 -2.85995,0.0458 -0.18662,-0.003 0.37322,-0.008 0.55983,-0.0127 -1.43231,0.0732 -2.84951,-0.20423 -4.27759,-0.26139 -1.18203,-0.0242 -2.36378,-0.043 -3.54581,-0.079 -0.64596,-0.0992 -1.31933,0.098 -1.96319,-0.0161 -0.17263,-0.0305 0.68458,0.0655 0.52228,-0.0186 -0.19109,-0.0991 -0.40985,-0.0191 -0.61475,-0.0292 -0.19254,-0.009 -0.38505,-0.0204 -0.57758,-0.0305 -0.78279,-0.0571 -1.56917,-0.10314 -2.34685,-0.2422 -0.37413,-0.0459 -0.74769,-0.0143 -1.12339,-0.0312 -0.53729,-0.19939 -1.06125,-0.51598 -1.58128,-0.79668 -0.50174,0.87707 -1.43332,-0.0677 -0.93157,-0.94477 v 0 c -0.0532,-0.34006 -0.16992,-0.67312 -0.15946,-1.02021 0.0168,-0.55776 0.49091,-1.40853 0.8229,-1.73335 0.58862,-0.3963 1.19254,-0.6504 1.85157,-0.74496 0.75689,-0.15098 1.52097,-0.23885 2.283,-0.32914 1.71312,-0.15751 3.4334,-0.17327 5.14733,-0.0234 1.16831,0.10188 2.33495,0.22738 3.50228,0.34512 0.48859,0.0434 0.97495,0.0793 1.46476,0.0845 0.16196,0.002 0.32393,0.003 0.48587,-2.5e-4 0.16372,-0.003 0.64608,0.0499 0.49098,-0.0199 -0.1879,-0.0847 -0.39653,-0.0179 -0.59478,-0.0268 1.53312,-0.0127 3.06454,0.004 4.59711,0.0613 0.17852,-0.002 0.35705,-0.002 0.53555,-0.007 0.18209,-0.004 0.67119,0.15671 0.54618,-0.0196 -0.13264,-0.18714 -0.62193,0.22379 -0.57941,-0.0272 0.004,-0.0236 1.71914,-0.0642 1.8781,-0.0586 1.14261,0.007 2.28476,0.0321 3.42674,0.0844 0.83043,-0.0362 1.6549,-0.12107 2.47636,-0.29919 0.84385,-0.20826 1.69191,-0.38497 2.53493,-0.59942 1.13891,-0.29464 2.28615,-0.52791 3.42499,-0.82347 1.69828,-0.4069 3.40755,-0.77767 5.13979,-0.74908 1.44758,0.0357 2.90458,0.17745 4.34783,-0.008 1.40629,-0.27005 2.8004,-0.63451 4.20478,-0.92079 1.65656,-0.27755 3.32566,-0.50621 4.99798,-0.33388 -0.26532,0.0105 -0.53176,-0.004 -0.79597,0.0297 -0.15821,0.0203 0.31851,0.0573 0.47624,0.0313 0.38472,-0.0636 0.74724,-0.26807 1.11702,-0.40851 1.08394,-0.42917 2.18633,-0.79729 3.31038,-0.98164 0.78148,-0.14466 1.5642,-0.28116 2.34305,-0.44825 0.72263,-0.18443 1.36128,-0.70345 2.06749,-0.96422 0.78404,-0.32356 1.55532,-0.71223 2.35979,-0.94014 0.63427,-0.1803 1.25577,-0.54499 1.91237,-0.53078 0.5684,-0.015 1.09018,-0.089 1.68268,-0.0217 0.14682,0.0167 0.29126,0.0921 0.41765,0.19291 0.92535,0.73848 0.71813,0.71179 1.21019,2.09222 0.0672,1.14941 0.009,0.43703 -0.0579,0.0297 0.0977,0.35671 0.12776,0.74347 0.13224,1.1249 -0.0152,0.57554 -0.1032,1.13875 -0.29216,1.6614 -0.18157,0.42174 -0.0271,-0.24492 -0.0298,-0.23818 -0.25714,0.64535 -0.34473,1.2529 -0.76598,1.73303 -0.45916,0.52535 -1.01019,0.90516 -1.61072,1.04807 -0.10492,0.0291 -0.26944,0.15886 -0.32056,0.0335 -0.0115,-0.0282 0.0454,-0.0752 0.0242,-0.0905 -0.068,-0.0496 -0.29723,0.22997 -0.33549,0.23167 -0.49919,0.32105 -0.95208,0.78985 -1.49718,0.96544 -0.6372,0.19661 -0.4356,0.16 -1.57427,0.11977 -0.0848,-0.003 -0.16333,-0.061 -0.24484,-0.0922 -0.0379,-0.0146 -0.14606,-0.0747 -0.1135,-0.0451 0.0439,0.0402 0.0956,0.0788 0.14891,0.0774 0.42655,-0.0119 0.85127,-0.0783 1.27689,-0.11747 0.0252,-0.012 0.0495,-0.0427 0.0758,-0.036 0.0807,0.0203 -0.13749,0.12034 -0.21057,0.17021 -0.0812,0.0555 -0.38055,0.22392 -0.45298,0.26265 -0.10512,0.0562 -0.21137,0.10861 -0.31706,0.16288 -0.47548,0.18604 -0.99168,0.40469 -1.49007,0.36665 -0.31046,0.0327 -0.59683,0.30791 -0.90917,0.27891 -0.30911,10e-4 -0.19736,-8.9e-4 -0.53651,0.20249 -0.83036,0.4981 -0.52837,0.262 -1.86017,0.18433 0.0216,0.60591 1.56372,0.003 0.83107,0.26839 -0.0867,0.0313 -0.17333,0.0628 -0.25999,0.0942 -0.80506,0.26896 -1.60921,0.54888 -2.42723,0.74091 -0.64818,0.0957 -1.05822,0.43468 -1.64432,0.79206 -0.7278,0.36776 -1.48142,0.63403 -2.25656,0.75531 -0.73112,0.12864 -1.46363,0.24161 -2.19591,0.35317 -0.77138,0.24887 -1.51856,0.61836 -2.29877,0.82326 -1.52518,0.42573 -3.06367,0.78948 -4.62259,0.89952 -1.19984,0.0671 -2.40018,0.089 -3.60074,0.1215 -0.95829,0.0853 -1.91518,0.19045 -2.86404,0.39578 -1.0259,0.20638 -2.02719,0.50337 -2.99204,1.03155 -2.49893,1.13665 -5.05933,2.06535 -7.69909,2.38184 -1.39433,0.11895 -2.18112,0.22839 -3.57264,0.18243 -0.53723,-0.0178 -1.07294,-0.0849 -1.60882,-0.13845 -1.4109,-0.14089 -2.65543,-0.0458 -3.86329,-1.02792 -2.03995,-0.77082 -1.22123,-4.61195 0.81871,-3.84115 z"
       inkscape:connector-curvature="0" />
    <path
       style="fill:#ffb380;fill-opacity:1;stroke:none;stroke-width:0.26131126;stroke-opacity:1"
       id="path895"
       d="m 166.43898,382.33559 c 0.41706,-1.40063 1.22574,-2.50405 2.1022,-3.42228 0.12201,0.0602 0.19244,-0.29657 0.31999,-0.28253 0.004,6e-4 -0.0715,0.62359 -0.0868,0.49498 -0.0115,-0.0966 0.0255,-0.19265 0.0383,-0.28898 0.0882,-0.58426 0.37126,-1.03117 0.67485,-1.44287 -0.12317,0.13479 0.22865,-0.42729 0.25257,-0.47128 -0.006,0.0249 -0.0152,0.0489 -0.017,0.0749 -0.005,0.0709 0.0597,-0.11804 0.0871,-0.1792 0.1488,-0.33352 0.30934,-0.58631 0.51366,-0.86392 0.15826,-0.1724 0.33355,-0.31926 0.51041,-0.4556 0.052,-0.037 0.0973,-0.1155 0.1562,-0.11112 0.0447,0.003 -0.0719,0.0719 -0.10267,0.11511 -0.11976,0.16836 -0.2475,0.32949 -0.34816,0.51873 -0.15902,0.29898 -0.2155,0.64308 -0.25339,0.99491 0.21137,-2.66911 1.00494,-0.98492 3.41587,0.28831 -0.0649,1.03956 -0.4715,1.89612 -0.95857,2.67701 -0.3435,0.47353 -0.67991,0.95519 -1.01728,1.43633 -0.33038,0.49522 -0.67088,0.98013 -1.05304,1.4055 -0.30417,0.29615 -0.5828,0.71307 -0.94869,0.87445 -0.14283,0.0224 -0.2682,0.24638 -0.41739,0.40188 -0.0892,0.0941 -0.29703,0.34197 -0.43093,0.48388 -1.1678,1.0598 -0.0612,0.20348 -2.82777,-2.60487 -0.0488,-0.0496 -0.0158,0.59476 -0.10705,0.17343 -0.18466,-1.28728 0.15436,-2.4774 0.66484,-3.54743 0.39285,-0.73496 0.9016,-1.33578 1.47079,-1.81791 0.28513,-0.38409 -0.0196,0.44194 -0.0221,0.34941 0.0176,-0.26744 0.0626,-0.54246 0.11732,-0.8052 0.0958,-0.3772 0.16695,-0.77874 0.35821,-1.09715 -0.0129,0.0173 0.0312,-0.0475 0.0342,-0.0299 0.003,0.0141 -0.0191,0.0427 -0.009,0.042 3.23717,-0.17961 3.62758,0.63653 2.64595,-0.5221 -0.49369,-0.11283 -1.94523,-0.58907 -1.48104,-0.33846 0.55161,0.2978 1.1948,0.19192 1.74847,0.48283 0.4743,0.24921 0.77132,1.61983 0.86767,2.24057 0.11015,0.75075 0.0961,1.51647 0.0733,2.27643 0.0131,0.85753 -0.14185,1.66597 -0.37957,2.45468 -0.19044,0.61122 -0.50913,1.10747 -0.82703,1.60318 -0.183,0.24595 -0.34813,0.50889 -0.50687,0.78285 -0.25767,0.44146 -0.53135,0.86276 -0.85039,1.22763 -0.24646,0.27673 -0.48459,0.56161 -0.75561,0.7957 -0.87325,0.78067 -1.04129,0.80768 -2.396,0.2646 -0.10601,-0.0424 0.19562,-0.14204 0.28088,-0.23608 0.19024,-0.20984 0.36173,-0.44811 0.54259,-0.67216 -0.92079,0.50015 -1.45203,-1.23367 -0.53124,-1.73383 v 0 c 0.27093,-0.24363 0.52504,-0.52426 0.81278,-0.73091 0.15184,-0.10906 0.65714,-0.13418 0.49358,-0.20728 -0.93544,-0.41803 -1.30513,-0.43248 -1.79035,0.0284 0.24848,-0.32125 0.53273,-0.57337 0.82874,-0.80955 0.19125,-0.13638 -0.0153,0.1022 0.0892,0.003 0.10337,-0.0975 0.1336,-0.2985 0.23168,-0.40506 0.20944,-0.36624 0.44154,-0.71123 0.68107,-1.04282 0.10868,-0.14132 0.21838,-0.29449 0.30752,-0.4478 0.13612,-0.30408 0.11245,-0.70332 0.13432,-1.04058 0.0152,-0.48802 0.03,-0.97733 -1.7e-4,-1.46499 0.017,-0.3794 0.22658,0.45741 0.44606,0.54718 0.5193,0.21237 1.79114,-0.31444 1.60641,0.36576 -0.18548,0.68301 -1.07906,-0.21395 -1.61859,-0.32092 -0.11224,-0.11721 -0.22509,-0.23338 -0.33671,-0.35165 -0.0491,-0.052 -0.2073,-0.14544 -0.1454,-0.15913 0.82838,-0.18321 3.10518,-1.5748 2.74029,-0.31378 -0.15015,0.29952 0.12512,-0.3854 0.0967,-0.43251 0.0785,0.13681 -0.0709,0.82441 -0.0763,0.99254 -0.1598,0.75859 -0.39441,1.48233 -0.84345,2.02118 -0.2482,0.31496 -0.51265,0.60512 -0.73857,0.95051 -0.0973,0.15119 -0.10211,0.18102 -0.2092,0.28347 -0.0337,0.0323 -0.085,0.0216 -0.11686,0.057 -0.0555,0.0617 0.007,0.24975 -0.0293,0.28627 0.0182,0.45984 0.0326,0.90792 -0.0278,1.36531 -0.0237,0.1797 0.0243,0.61544 -0.0975,0.53174 -3.13676,-2.15589 -1.80458,-3.35311 -2.89421,-2.27421 -0.2479,0.31608 0.3228,-0.41319 0.33731,-0.42311 0.10229,-0.0975 0.28492,-0.25411 0.41496,-0.49428 0.22523,-0.29572 0.48883,-0.52257 0.73992,-0.77727 0.23375,-0.25495 0.49601,-0.44149 0.65258,-0.80477 0.34089,-0.63417 0.69867,-1.25854 1.12681,-1.79384 0.10504,-0.11259 0.28613,-0.41766 0.35349,-0.26209 0.0246,0.0567 -0.0173,0.16913 0.0286,0.19291 0.0121,0.005 0.012,-0.0306 0.018,-0.0459 2.10689,0.82235 3.23515,2.53732 3.34991,0.19462 -0.0668,0.81797 -0.31051,1.42971 -0.81651,1.93347 -0.0219,0.0218 0.0444,-0.0426 0.0667,-0.0637 0.0957,-0.11686 -0.29383,0.27038 -0.34949,0.25666 0.18344,-0.34872 0.42423,-1.01022 0.11333,-0.15227 -0.21466,0.40977 -0.43281,0.81767 -0.71374,1.15408 -0.49102,0.52494 -0.20613,0.042 -0.17769,-0.38778 0.002,-0.0503 0.0187,-0.19816 0.006,-0.15085 -0.0321,0.11692 -0.0387,0.24376 -0.0641,0.36353 -0.0999,0.47009 -0.26272,0.91403 -0.44611,1.33508 -0.57004,1.274 -1.29652,2.45773 -2.26909,3.21428 -1.19873,2.31871 -3.66154,0.0615 -2.46282,-2.25716 z"
       inkscape:connector-curvature="0" />
    <path
       style="fill:#ffb380;fill-opacity:1;stroke:none;stroke-width:0.26131126;stroke-opacity:1"
       id="path899"
       d="m 55.745222,390.02629 c -1.126699,-0.16888 -2.189817,-0.77628 -3.105213,-1.6551 -0.830675,-0.97839 -0.88795,-1.32282 -1.004434,-2.8781 -0.0066,-0.0879 0.04559,-0.34836 0.0328,-0.2616 -0.02604,0.17673 -0.04839,0.35438 -0.07258,0.53158 -0.783252,0.24433 0.552004,1.47781 0.341651,1.64999 -0.03784,0.031 -0.288433,-0.14929 -0.337546,-0.16957 -0.343005,-0.13665 -0.636917,-0.35217 -0.926166,-0.6341 -0.366309,-0.32855 -0.614296,-1.01794 -0.794138,-1.41737 0.09867,0.33113 -0.02344,-0.0119 -0.07899,-0.0318 -0.01506,-0.005 0.0048,0.0561 -0.01044,0.0606 -0.03877,0.0116 -0.06704,-0.0568 -0.101163,-0.0841 -0.400701,-0.49116 -0.596044,-1.15911 -0.75639,-1.83585 -0.09953,-0.49859 -0.121352,-1.01043 -0.09827,-1.5224 0.01,-0.57732 0.05263,-1.12669 0.151297,-1.69334 0.261669,-0.97626 0.741107,-1.75699 1.390468,-2.31618 0.40795,-0.34882 0.85737,-0.58894 1.321538,-0.76617 0.532198,-0.2163 1.080534,-0.3427 1.631855,-0.43218 0.987074,-0.16711 1.983447,-0.0583 2.974348,-0.0337 0.684952,-0.0502 1.355131,-0.003 2.031148,0.14979 0.383839,0.17412 1.180806,0.20978 1.476974,0.58999 0.108127,0.58802 -0.07345,1.34002 -0.14558,1.89153 0.658931,0.22806 0.416689,1.46881 -0.242242,1.24073 v 0 c -0.286227,0.77597 -0.432668,1.47299 -1.052506,1.82102 -0.51099,0.0793 -1.016552,-0.0661 -1.528093,-0.1044 -0.574785,-0.033 -1.150386,-0.041 -1.724,-0.10781 -0.366128,-0.0249 -1.360843,-0.009 0.337332,-2e-4 0.757909,0.003 -1.429313,-0.0531 -0.715193,0.003 -0.441553,0.0388 -0.883055,0.0613 -1.325305,0.0766 -0.159509,0.0259 -0.332454,0.11021 -0.208139,-0.12582 -0.116626,0.0967 -0.176437,-0.0745 -0.136432,-0.24592 -0.0083,-0.37949 -0.02762,-0.51749 -0.0267,-0.10042 0.03175,0.0579 0.09044,0.45358 0.05367,0.3496 -0.04762,-0.12312 -0.226472,-0.53991 -0.05237,-0.23156 0.212655,0.34694 0.3931,0.71812 0.542195,1.12017 0.220753,0.59445 -0.09448,-0.27047 -0.186407,-0.36151 0.330833,0.14585 0.597911,0.45285 0.875179,0.7222 0.661318,0.72907 0.95202,1.31003 1.087723,2.55342 -0.161796,1.37971 0.0271,0.0844 -0.236506,-0.95353 -0.03751,-0.14768 -0.45411,-0.77546 -0.392091,-0.84442 0.04694,-0.0522 0.122208,0.007 0.183312,0.0105 1.034076,0.29668 2.061692,0.80795 2.885746,1.70996 2.297604,1.93978 0.23726,6.26609 -2.060343,4.32632 z"
       inkscape:connector-curvature="0" />
    <path
       style="fill:#ffb380;fill-opacity:1;stroke:none;stroke-width:0.26131126;stroke-opacity:1"
       id="path901"
       d="m 168.58255,336.51962 c 0.85833,-0.29007 1.82049,-0.39088 2.67294,-0.003 -0.20414,0.0252 -0.41129,0.0227 -0.61241,0.0757 -0.0268,0.007 -0.037,0.0596 -0.0393,0.0958 -0.0764,1.19826 -0.0873,2.40448 -0.19634,3.59827 -0.005,0.0523 -0.23069,-0.0966 -0.23076,-0.10782 -0.008,-1.21935 0.0514,-2.43783 0.077,-3.65675 0.20994,-0.0731 0.54852,-0.27552 0.75759,-0.0983 -0.26183,0.18689 -0.13222,0.0788 -0.45265,0.41484 -0.0256,0.0268 -0.0763,0.1267 -0.0747,0.0834 0.006,-0.17744 0.30632,-0.4923 0.37684,-0.58145 0.10324,-0.0278 0.29566,-0.36561 0.41673,-0.31178 0.02,0.009 -0.034,0.0333 -0.0502,0.0512 -0.0734,0.0815 -0.15998,0.14637 -0.2185,0.24688 -0.12948,0.22234 -0.2267,0.47488 -0.34006,0.71232 -0.0646,0.1873 -0.14582,0.51531 -0.2306,0.18147 -0.0314,-0.25616 -0.027,-0.51567 -0.0341,-0.77381 0.003,-0.22455 0.009,-0.44932 -0.004,-0.67345 -4.5e-4,-0.0268 -0.002,-0.10689 -8.5e-4,-0.0802 0.003,0.55251 0.0888,0.94129 0.33013,1.42064 0.4756,0.94489 0.19313,0.17215 0.3067,0.49015 -0.27628,-0.22839 -0.5346,-0.51131 -0.74923,-0.83864 -0.19264,-0.29381 -0.0678,-0.16722 -0.20573,-0.29383 -0.13232,-0.14224 -0.20944,-0.35686 -0.32152,-0.51937 -0.012,-0.0173 -0.006,0.0465 -0.009,0.0697 0.0548,0.28435 -0.34387,0.0376 -0.42864,-0.003 -0.37583,-0.22055 -0.73989,-0.47083 -1.14933,-0.55391 -0.42621,-0.0546 -0.84846,-0.0848 -1.27182,-0.18133 -0.5483,-0.21779 -1.18263,-0.52243 -1.48583,-1.21651 -0.0416,-0.38288 0.2111,-0.61331 0.38761,-0.88102 -1.34914,-1.19657 -0.0782,-3.73694 1.27094,-2.54038 v 0 c 0.279,-0.26534 0.50539,-0.47372 0.84523,-0.55709 0.33463,-0.0243 0.19024,-0.24584 0.53119,-0.20626 0.68366,0.0924 1.34843,0.28751 1.97905,0.66376 0.50694,0.32334 1.00053,0.67784 1.46109,1.10928 0.3568,0.32773 0.6909,0.69945 0.9639,1.15083 0.16102,0.26871 0.32361,0.53011 0.4724,0.81081 0.183,0.40046 -0.11839,-0.1622 -0.26603,-0.2193 0.58002,0.57256 0.97249,1.4058 0.92692,2.39226 -0.0129,0.21987 -0.0136,0.44053 -0.0124,0.66098 -0.009,0.21795 1.3e-4,0.4372 -0.0125,0.65538 -0.0507,0.44432 -0.13011,0.87784 -0.26645,1.29158 -0.34312,0.74294 -0.22577,0.67248 -0.62801,1.08201 -0.0378,0.0385 -0.0815,0.0654 -0.12269,0.0973 -0.011,0.008 -0.023,0.0329 -0.0336,0.0236 -2.3e-4,-2.7e-4 0.0178,-0.082 0.0185,-0.0849 0.12089,-0.51953 -0.599,0.58131 -0.81068,0.56538 -0.23397,0.11845 -0.48601,0.19732 -0.73328,0.10366 -0.048,-1.20252 -0.10727,-2.40433 -0.14403,-3.60756 -0.002,-0.0604 0.12837,-0.10848 0.13134,-0.0482 0.0596,1.20882 0.0821,2.42127 0.08,3.63268 -6.7e-4,0.42265 -2.30126,-0.43601 -0.94281,0.17836 -0.87274,0.31654 -1.82992,0.30282 -2.68789,-0.0811 -1.98551,-0.71563 -1.22541,-4.45426 0.7601,-3.73865 z"
       inkscape:connector-curvature="0" />
  </g>
  <g
     inkscape:groupmode="layer"
     id="layer1"
     inkscape:label="arm 1"
     style="display:inline">
    <path
       style="fill:#000000;fill-opacity:1;stroke:none;stroke-width:0.26131126;stroke-opacity:1"
       id="path849"
       d="m 57.292574,88.595011 c 0.359757,-0.0206 0.719233,-0.06999 1.079271,-0.0618 0.880829,0.02002 1.949924,0.200028 2.815633,0.348182 1.426464,0.244114 2.850061,0.524427 4.275428,0.780184 1.906534,0.271872 3.810157,0.57121 5.702945,0.981067 1.675008,0.531425 3.353664,0.935128 5.076487,0.991681 1.009469,-0.100444 2.238536,0.01502 3.225418,-0.234961 0.16441,-0.04164 -0.666477,-0.02648 -0.500424,-0.05426 0.402406,-0.06732 2.074808,-0.0873 2.480904,-0.09572 0.406138,0.0053 0.812304,0.0078 1.218416,0.01601 0.95603,0.01951 1.912903,0.0073 2.867983,0.06739 1.327013,0.08344 2.654697,0.562571 3.95822,0.875074 0.69302,0.1546 1.388813,0.291021 2.092898,0.298511 0.206005,0.0022 0.822157,0.0139 0.617835,-0.02116 -0.314006,-0.0539 -0.640982,0.05931 -0.949432,-0.03575 -0.218191,-0.06724 0.447214,-0.03341 0.67082,-0.05011 2.027,-0.236396 4.060234,-0.228692 6.092877,-0.228671 1.768636,0.202905 3.539877,0.128281 5.309297,0.0015 0.37795,-0.02834 0.76426,0.02391 1.13387,-0.08502 0.20049,-0.05909 -0.81681,-0.02618 -0.61391,-0.06824 0.4003,-0.08299 0.80963,-0.04281 1.21462,-0.05632 1.21263,-0.04047 2.42541,-0.02677 3.63821,-0.01737 2.52503,0.109688 5.05073,0.169017 7.57609,0.265893 0.83845,0.02473 1.6769,-0.0073 2.51524,-0.02081 0.28392,-0.0045 1.13026,0.06325 0.85178,-0.01048 -0.28981,-0.07675 -0.59367,-0.05188 -0.88643,0.0013 -0.26661,0.04845 0.53814,0.0087 0.8072,0.01308 1.26871,0.04946 2.53599,0.144388 3.80346,0.230981 1.56139,0.07229 3.12274,-0.04465 4.68365,0.0073 0.64716,0.122494 3.79303,0.07553 0.68029,0.214651 0.2877,0.09721 0.56926,0.126182 0.86228,0.07318 1.25776,0.115863 2.4758,-0.190066 3.71522,-0.375587 -0.32936,-0.371649 1.90672,0.152626 1.4837,-0.194622 -0.26977,-0.221439 -0.65061,0.08495 -0.94987,-0.05391 -0.24766,-0.114911 0.52442,-0.01436 0.78663,-0.02183 1.89886,-0.05417 -0.35462,0.0086 1.51488,-0.04313 1.34287,-0.05456 2.68499,-0.160693 4.02218,-0.33503 1.40415,-0.165604 2.79636,-0.462031 4.19565,-0.68139 1.07433,-0.202301 2.15701,-0.205503 3.2377,-0.271688 0.97219,-0.220277 1.88246,-0.119644 2.89172,-0.122165 0.17074,-3.02e-4 0.67485,-0.09869 0.50466,-0.116741 -0.46687,-0.04951 -0.93656,-0.02011 -1.40484,-0.03016 0.98954,-0.192005 1.96616,-0.479526 2.94598,-0.742415 1.08413,-0.310823 2.18477,-0.497858 3.27229,-0.781936 0.90584,-0.306562 1.81293,-0.588078 2.73774,-0.772175 0.48205,-0.06917 0.94892,-0.227119 1.42083,-0.36084 0.47362,-0.252505 0.93936,-0.527174 1.39063,-0.845141 0.53968,-0.375398 1.1289,-0.581908 1.69363,-0.872387 0.67282,-0.308903 1.33262,-0.665433 2,-0.994284 0.84888,-0.482347 1.74722,-0.683645 2.65811,-0.801334 0.42951,0.04468 0.77278,-0.03272 1.1881,-0.185013 0.35492,-0.133653 0.50109,-0.262712 0.73753,0.183191 0.49531,0.942961 0.93199,1.948254 1.39832,2.921632 0.16159,-0.91659 1.13514,-0.612334 0.97356,0.304254 v 0 c 0.55085,1.305987 1.1487,2.052186 0.80692,3.477202 -0.11434,0.163202 -0.20753,0.358207 -0.34302,0.489608 -0.45946,0.445595 -1.19003,0.573821 -1.73748,0.466389 0.27298,-0.417933 -0.21605,0.211005 -0.37104,0.173559 -0.7099,0.333519 -1.43149,0.580535 -2.18,0.70815 -0.63014,0.183646 -1.26628,0.360167 -1.87533,0.645583 -0.50847,0.19862 -0.994,0.494632 -1.51198,0.657636 -0.42176,0.112435 -0.79658,0.395364 -1.17751,0.650848 -0.70319,0.520656 -1.43133,0.989541 -2.19746,1.323002 -0.85607,0.349909 -1.73017,0.510504 -2.60001,0.771066 -1.17883,0.518288 -2.35132,1.0746 -3.58736,1.30851 -1.22483,0.263328 -2.4576,0.491075 -3.69565,0.600808 -0.72691,0.01071 -1.45392,0.05031 -2.18075,0.03202 -0.13548,-0.0035 -0.26626,-0.06742 -0.39993,-0.09698 -0.0911,-0.02013 -0.36646,-0.04771 -0.2742,-0.05205 0.49482,-0.0232 1.98024,-0.02868 1.48514,-0.03372 -1.07938,0.556085 -2.18718,0.975316 -3.33777,1.181099 -1.50045,0.268608 -3.01028,0.420558 -4.52196,0.525818 -1.34278,0.10917 -2.67215,0.36813 -4.00188,0.63434 -2.21148,0.34085 -4.46595,0.43747 -6.67635,0.0287 -0.66283,-0.10633 -3.53793,-0.53889 -0.48566,-0.38576 -0.28069,-0.0626 -0.54979,0.0343 -0.82562,0.10814 -1.336,0.0458 -2.67006,0.14373 -4.00642,0.13423 -0.65644,-0.0116 -1.31221,-0.0458 -1.9687,-0.0481 -0.16266,-6e-4 -0.65065,-0.003 -0.48799,-0.002 0.37804,0.004 0.75609,0.005 1.13415,0.009 -1.23485,0.0878 -2.46916,0.19077 -3.70521,0.24543 -2.24904,0.0437 -4.4968,-0.002 -6.74534,-0.0447 -0.0244,6e-4 -1.70652,0.035 -1.71376,0.0501 -0.14924,0.31101 1.06359,-0.14938 0.83066,0.0506 -0.26731,0.22956 -0.63564,0.0345 -0.95335,0.0547 -2.11015,0.13399 0.1074,0.0114 -2.11621,0.12822 -3.05369,0.12668 -6.11886,0.19254 -9.16777,-0.10418 -1.687386,-0.23107 -3.364968,-0.6295 -5.061441,-0.69302 0.324025,-0.005 0.648187,-0.002 0.972083,-0.0165 0.223241,-0.009 -0.446703,6e-4 -0.670038,0.003 -0.980395,0.0139 -1.959976,0.0743 -2.940037,0.10758 -2.205774,0.0656 -4.411402,0.048 -6.596157,-0.40796 -0.808283,-0.12512 -1.604434,-0.219871 -2.419531,-0.20667 -0.300523,0.004 -0.614318,-0.0776 -0.901084,0.0421 -0.222806,0.0931 0.927436,-0.0276 0.699831,0.0419 -0.364617,0.11134 -0.746903,0.0576 -1.120355,0.0865 -3.169263,0.23109 -6.384899,0.38874 -9.508496,-0.493305 -0.376031,-0.121939 -0.754693,-0.230303 -1.128095,-0.36582 -1.191944,-0.432587 -2.335114,-1.16229 -3.576654,-1.301467 -2.011417,-0.120692 -4.033701,0.315679 -6.0413,-0.09875 -2.534623,-0.427693 -5.222787,-0.965478 -7.450507,-2.760727 -0.293795,-0.23676 -0.54926,-0.549066 -0.823888,-0.823601 -3.045588,-2.296493 -0.606353,-8.031219 2.439233,-5.734725 z"
       inkscape:connector-curvature="0" />
    <path
       style="fill:#000000;fill-opacity:1;stroke:none;stroke-width:0.26131126;stroke-opacity:1"
       id="path851"
       d="m 56.009938,29.974687 c 1.542112,-2.758134 4.040119,-3.975301 6.418962,-4.958924 3.099855,-1.135113 6.296353,-1.686555 9.489603,-2.094459 2.73318,-0.320981 5.478292,-0.359757 8.22002,-0.403117 1.157268,-1.035607 2.652972,0.441055 3.893487,-0.06729 0.21036,-0.0862 -0.850031,-0.0024 -0.652772,-0.132322 0.33216,-0.218875 0.737147,-0.103966 1.104859,-0.165581 0.835972,-0.140073 1.670082,-0.299393 2.50605,-0.439492 2.82039,-0.517325 5.65634,-0.236585 8.485424,-0.09087 0.259976,0.05402 0.520415,0.104166 0.779921,0.162059 1.395617,0.311382 2.236044,0.281751 3.641658,0.09769 -0.279466,-0.05605 -1.014717,0.125937 -0.838406,-0.168158 0.213509,-0.356144 0.681097,-0.09079 1.021556,-0.137346 1.56699,-0.214254 3.13263,-0.37704 4.7049,-0.505662 3.03099,-0.265669 6.07071,-0.07934 9.10109,-0.325778 -0.22406,-0.02847 -0.88971,-0.0084 -0.67219,-0.08539 0.41191,-0.145765 0.85036,-0.07928 1.275,-0.127927 1.70936,-0.195814 3.41065,-0.410926 5.12474,-0.526371 1.67103,-0.0599 3.34827,-0.07354 5.019,-0.02047 0.92556,0.0294 1.86276,0.189242 2.78753,0.265627 1.94365,0.213362 3.89013,0.308942 5.83951,0.243264 -0.27901,-0.0106 -1.11206,0.03148 -0.83702,-0.03178 0.34023,-0.07825 0.69051,-0.0092 1.03575,-0.01393 0.34706,-0.0048 0.6941,-0.01423 1.04117,-0.01456 1.58711,-0.0015 3.17527,0.09899 4.7605,0.172566 1.72334,0.4537 3.39855,0.954584 5.15503,1.117314 1.8564,-0.0038 3.69149,0.163329 5.5062,0.688767 1.58035,0.54635 3.01575,1.599632 4.58684,2.178233 1.47895,0.24708 2.9609,0.379742 4.41894,0.818483 1.56969,0.478588 2.62673,1.780429 3.77381,3.167914 0.36088,0.413001 0.78117,0.229934 1.21805,0.238755 0.81939,0.151228 1.54279,0.689943 2.23582,1.259199 0.34906,0.385641 0.72429,0.20704 1.11316,0.344027 0.41536,0.01713 0.73717,0.512673 1.11869,0.622181 -0.41018,-0.355187 0.57475,-0.138843 0.66143,-0.118499 0.62769,0.148124 1.10795,0.696661 1.63573,1.115708 -0.53253,-0.584556 0.02,-0.260592 0.26087,-0.103987 0.89554,0.751376 1.29962,1.310924 0.69188,3.23943 -0.13024,0.413296 -0.61557,0.362994 -0.92336,0.544486 0.47728,1.791673 -1.42575,2.690379 -1.90303,0.89871 v 0 c -0.38167,-0.04746 -0.89527,-0.529587 -1.145,-0.142383 -1.047,1.62335 -0.11057,1.993903 0.39979,2.728858 0.0489,0.29036 -1.04036,-0.542437 -1.12895,-0.614168 -0.71412,-0.461835 0.10098,0.114774 -0.13231,0.190083 -0.462,-0.03526 -0.89575,-0.217812 -1.32305,-0.451623 -0.3771,-0.153164 -0.76579,-0.09793 -1.14352,-0.260775 -0.70778,-0.256121 -1.32997,-0.733867 -1.95978,-1.221729 -0.13225,0.03099 0.0294,0.117733 -0.11742,0.164598 -0.33385,0.106566 -0.70398,-0.07577 -1.03017,-0.111386 -1.34807,-0.497828 -2.58265,-1.281413 -3.55565,-2.662368 -0.0976,-0.116714 -0.24005,-0.454324 -0.31606,-0.312016 -0.0965,0.180611 0.18302,0.120536 -0.12053,0.200632 -0.24891,0.06568 -0.6086,0.0404 -0.83961,0.03961 -1.88587,-0.123915 -3.75681,-0.526398 -5.5028,-1.527761 -1.1248,-0.631844 -2.22505,-1.430405 -3.48102,-1.377315 -1.89518,-0.03097 -3.80174,0.0038 -5.66446,-0.552576 -1.46455,-0.425323 -2.92315,-1.101348 -4.44153,-0.920585 0.35253,0.02055 0.73735,-0.135565 1.05761,0.06174 0.26363,0.162407 -0.58045,0.03269 -0.87051,0.05354 -2.04834,0.147136 -4.09785,0.267593 -6.15067,0.165988 -2.05941,-0.11623 -4.10895,-0.344204 -6.15177,-0.717126 -0.6909,-0.08467 -0.92008,-0.132275 -1.60573,-0.14158 -0.25474,-0.0035 -1.01799,-0.0087 -0.76412,0.01951 0.3421,0.03797 0.7056,-0.140118 1.02985,0.01006 0.5548,0.256827 -2.49122,-0.108742 -1.75234,0.246705 -3.35458,0.707061 -6.71349,1.402033 -10.12792,1.161994 -0.45289,-0.03474 -0.90582,-0.06799 -1.35864,-0.104218 -0.39258,-0.03141 -0.79911,0.04389 -1.17755,-0.09868 -0.24199,-0.09117 0.99639,0.02364 0.7531,-0.06122 -0.3299,-0.115075 -0.68178,-0.03481 -1.02281,-0.03286 -0.81461,0.0047 -1.21973,0.06767 -2.03737,0.152936 -3.04517,0.416804 -6.08338,0.803597 -9.149053,0.37553 -1.435409,-0.270477 -2.87146,-0.770391 -4.327694,-0.646804 0.354975,0.02539 0.737922,-0.109529 1.064925,0.07612 0.226759,0.128739 -0.490047,0.0721 -0.734797,0.111307 -1.512569,0.242289 -3.01831,0.560008 -4.536462,0.73907 -1.412184,0.136229 -2.817709,0.238829 -4.234596,0.212517 -0.982837,-0.01825 -1.965645,-0.04569 -2.948045,-0.08884 -0.347296,-0.01526 -0.704159,0.03019 -1.040439,-0.08636 -0.233618,-0.08097 0.482665,-0.01553 0.723995,-0.02331 -2.55119,0.129753 -5.05187,0.833901 -7.587205,1.19256 -1.347648,0.171543 -2.070804,0.285091 -3.429028,0.370334 -1.849298,0.116066 -3.703493,0.03731 -5.551119,0.205399 -0.872589,0.201155 -1.052459,0.200619 -1.898631,0.564091 -1.274305,0.547373 -2.47401,1.42065 -3.809156,1.70312 -2.779161,3.447853 -6.441318,-1.785201 -3.662157,-5.233057 z"
       inkscape:connector-curvature="0" />
  </g>
</svg>
