<?xml version="1.0" encoding="UTF-8" standalone="no"?>
<!-- Created with Inkscape (http://www.inkscape.org/) -->

<svg
   xmlns:dc="http://purl.org/dc/elements/1.1/"
   xmlns:cc="http://creativecommons.org/ns#"
   xmlns:rdf="http://www.w3.org/1999/02/22-rdf-syntax-ns#"
   xmlns:svg="http://www.w3.org/2000/svg"
   xmlns="http://www.w3.org/2000/svg"
   xmlns:sodipodi="http://sodipodi.sourceforge.net/DTD/sodipodi-0.dtd"
   xmlns:inkscape="http://www.inkscape.org/namespaces/inkscape"
   width="1024"
   height="512"
   viewBox="0 0 270.93334 135.46667"
   version="1.1"
   id="svg8"
   inkscape:version="0.92.4 (5da689c313, 2019-01-14)"
   sodipodi:docname="arm_speedo.svg"
   inkscape:export-filename="C:\Users\panu-\PycharmProjects\nextgame\data\images\bodies\speedo\arm_speedo.png"
   inkscape:export-xdpi="10.173375"
   inkscape:export-ydpi="10.173375">
  <defs
     id="defs2" />
  <sodipodi:namedview
     id="base"
     pagecolor="#ffffff"
     bordercolor="#666666"
     borderopacity="1.0"
     inkscape:pageopacity="0.0"
     inkscape:pageshadow="2"
     inkscape:zoom="0.69977473"
     inkscape:cx="426.1667"
     inkscape:cy="310.50325"
     inkscape:document-units="mm"
     inkscape:current-layer="layer6"
     showgrid="false"
     units="px"
     width="1024px"
     inkscape:window-width="1920"
     inkscape:window-height="1017"
     inkscape:window-x="-8"
     inkscape:window-y="-8"
     inkscape:window-maximized="1"
     inkscape:pagecheckerboard="true"
     showguides="false" />
  <metadata
     id="metadata5">
    <rdf:RDF>
      <cc:Work
         rdf:about="">
        <dc:format>image/svg+xml</dc:format>
        <dc:type
           rdf:resource="http://purl.org/dc/dcmitype/StillImage" />
        <dc:title />
      </cc:Work>
    </rdf:RDF>
  </metadata>
  <g
     inkscape:groupmode="layer"
     id="layer6"
     inkscape:label="arm_color"
     transform="translate(0,-296.33334)"
     style="display:inline">
    <path
       style="fill:#ffccaa;fill-opacity:1;stroke:none;stroke-width:0.27588603;stroke-opacity:1"
       id="path861"
       d="m 60.489051,335.23379 c -0.400145,1.97148 -1.406802,3.71753 -2.431018,5.37457 -0.576884,0.91786 -0.502314,2.08349 -0.585353,3.15123 -0.202417,1.75004 -0.585391,3.46952 -0.995717,5.17371 -0.448077,1.82189 -0.935697,3.63202 -1.418902,5.44323 -0.284007,1.03711 -0.574914,2.05466 -0.501193,3.14342 0.163068,1.42088 0.174247,2.84834 0.101074,4.2763 -0.110972,1.32844 -0.2848,2.64668 -0.367337,3.97791 -0.0412,1.17707 0.09753,2.34844 0.181224,3.51964 0.113035,1.58031 0.06717,3.16718 0.008,4.74893 -0.01712,1.30872 -0.135218,2.61021 -0.260421,3.9106 -0.124664,1.03607 -0.24746,2.07463 -0.428509,3.1012 -0.03956,0.30346 -0.18275,0.57165 -0.183213,0.87507 -0.01402,0.12059 0.05379,0.73148 0.08357,0.6045 -0.09877,-0.57614 -0.678725,-1.25667 0.07481,-0.3809 0.238794,0.40313 0.505386,0.78533 0.765537,1.17216 0.270106,0.60303 0.298509,0.50061 -0.07228,0.0857 1.075333,0.34157 -1.117084,-0.72374 -0.828175,-0.56121 0.417457,0.23484 0.797555,0.42263 1.173197,0.71816 0.144912,0.13904 0.322271,0.24519 0.41366,0.2979 0.493382,0.10579 0.919025,0.55908 1.321337,0.86908 0.577956,0.52007 0.487138,0.74581 0.180332,1.44549 1.492187,1.27067 -0.160602,3.5651 -1.652788,2.29441 v 0 c -0.731705,0.19038 -1.353765,0.36563 -1.975062,-0.20194 -0.248801,-0.2409 -0.492434,-0.49047 -0.764111,-0.70125 -0.2295,-0.16096 -0.445889,-0.34812 -0.664633,-0.51819 -0.0822,-0.0761 -0.156115,-0.0757 0.102354,0.0736 0.185062,0.10699 0.395112,0.16459 0.5676,0.29402 0.306625,0.23006 -2.050479,-0.96717 -0.978398,-0.58744 -0.32304,-0.31891 -0.588827,-0.6875 -0.85008,-1.06275 -0.04469,-0.0723 -0.693417,-1.19559 -0.329054,-0.59811 0.09075,0.14352 -0.03954,0.0322 -0.164917,-0.10731 -0.297643,-0.33124 -0.440648,-0.53062 -0.627663,-0.95546 -0.07295,-0.16572 -0.117806,-0.34442 -0.17671,-0.51662 -0.06796,-0.37274 -0.09073,-0.74359 -0.134705,-1.11731 -0.118023,-0.62306 -0.195604,-1.2592 -0.204957,-1.89573 0.03164,-1.0273 0.171336,-2.03962 0.298937,-3.05666 0.0868,-1.17488 0.05281,-2.34756 0.0081,-3.52454 -0.03168,-1.54413 -0.03202,-3.09069 0.06808,-4.6322 0.05926,-1.19735 0.06463,-2.38744 -0.06751,-3.58106 -0.07607,-1.51619 -0.01124,-3.03526 0.295561,-4.52177 0.185113,-1.116 0.435401,-2.23691 0.300262,-3.37833 -0.131146,-1.58376 -0.141443,-3.17033 0.228061,-4.72386 0.420174,-1.89144 0.985324,-3.72853 1.654574,-5.5334 0.471136,-1.51079 0.95512,-3.01975 1.331876,-4.56237 0.342389,-1.39285 0.522258,-2.81778 0.826188,-4.21975 0.588973,-2.06487 1.484529,-4.07721 2.971929,-5.55609 1.263894,-2.84952 4.970293,-0.90614 3.7064,1.94338 z"
       inkscape:connector-curvature="0" />
    <path
       style="fill:#ffccaa;fill-opacity:1;stroke:none;stroke-width:0.27588603;stroke-opacity:1"
       id="path863"
       d="m 184.81777,383.11887 c 0.81833,-3.20973 2.73891,-5.89627 4.52962,-8.5373 0.67894,-1.03713 1.47701,-2.03229 1.66819,-3.32047 0.10288,-1.42316 0.45707,-2.78369 0.91485,-4.11429 0.41655,-1.21516 0.90408,-2.41016 1.14256,-3.68602 0.18243,-0.82007 0.0606,-1.65503 -0.0429,-2.47664 -0.16807,-1.27704 -0.19834,-2.56605 -0.14649,-3.85286 0.0372,-1.00781 0.0927,-2.01539 0.0541,-3.02384 -0.0638,-1.09138 -0.0606,-2.18989 -0.22759,-3.27044 -0.17342,-0.86579 -0.43761,-1.70801 -0.66295,-2.5597 -0.24795,-0.78436 -0.49243,-1.57107 -0.79953,-2.33088 -0.16874,-0.43365 -0.412,-0.82227 -0.6421,-1.21823 -0.37531,-0.39174 -0.73259,-0.89716 -1.06356,-1.36173 -0.43795,-0.55204 -0.71661,-1.22146 -1.12183,-1.79747 -0.33472,-0.42879 -0.72341,-0.79686 -1.06888,-1.21951 -0.31536,-0.41367 -0.54437,-0.90056 -0.85946,-1.31046 0.31964,0.53195 -0.70972,-0.40316 -0.78444,-0.4629 -0.42145,-0.51602 -1.07353,-1.10254 -1.19746,-1.82671 1.06928,0.60224 0.0326,0.035 3.32757,-1.11349 -0.15859,1.36428 -1.93312,1.12042 -1.77453,-0.24386 v 0 c 3.43079,-1.84792 2.49841,-2.79487 3.51134,-1.65655 0.15511,0.19081 0.32416,0.30934 0.50116,0.47077 0.34767,0.36414 0.80617,0.63526 1.11511,1.0716 0.37148,0.41627 0.6885,0.88524 1.0667,1.29426 0.485,0.57454 0.96199,1.15738 1.37992,1.79272 0.37321,0.61268 0.77271,1.20764 1.10513,1.84843 0.194,0.376 0.42194,0.63219 0.72668,0.92542 0.69178,0.81174 1.21816,1.75368 1.56485,2.79725 0.26209,0.81466 0.46896,1.65012 0.77647,2.44686 0.49348,1.16072 0.97347,2.33209 1.14039,3.61209 0.17374,1.37066 0.19156,2.73942 0.0976,4.11954 -0.0388,1.04079 -0.0286,2.0829 -0.052,3.1241 0.009,1.07032 -0.0174,2.14203 0.0526,3.21068 0.0831,1.44029 0.17696,2.88416 -0.15309,4.30246 -0.38686,1.56688 -0.91492,3.08285 -1.62033,4.5159 -0.42084,0.86138 -0.99075,1.69943 -1.10914,2.68298 -0.24157,1.89803 -0.52041,3.78514 -1.3015,5.53099 -1.40037,3.16649 -3.17814,6.2586 -5.88487,8.28729 -1.72344,3.19993 -5.8856,0.54992 -4.16215,-2.64999 z"
       inkscape:connector-curvature="0" />
    <path
       style="fill:#ffccaa;fill-opacity:1;stroke:none;stroke-width:0.1971249;stroke-opacity:1"
       d="m 136.01473,328.49885 c -3.99351,0.31301 -7.89391,1.41954 -11.93039,1.27101 -3.28526,-0.13829 -6.57878,-0.36207 -9.85289,0.12015 -3.73102,0.31754 -7.42697,0.22618 -11.08613,-0.38752 -3.409718,0.13393 -6.730432,0.95457 -10.126224,0.86011 -4.375592,0.0244 -8.833887,0.0331 -13.118179,0.83736 -4.422529,0.65112 -8.915424,0.34686 -13.329179,1.14164 -2.049574,0.73324 -4.228815,1.30308 -6.075781,2.53279 -1.005898,1.37635 -1.324123,3.19446 -2.273557,4.62855 -1.513096,2.24125 -1.069419,5.17873 -1.809181,7.69068 -0.616907,3.10987 -1.674092,6.12422 -2.209895,9.23646 -0.258543,7.18473 -0.08856,14.44879 -0.419711,21.58606 -0.03105,1.45766 -0.611995,2.90215 -0.450099,4.33412 1.386097,2.26637 3.890018,3.47881 6.35271,3.50071 6.552432,0.68369 13.044836,1.82948 19.533631,2.86753 4.660665,0.29528 9.347528,-0.48158 13.993381,0.0763 4.932053,1.18256 10.009664,0.59083 15.012664,0.65339 9.31002,-0.39693 18.64097,-0.0458 27.9618,0.11693 2.9395,-0.0168 5.86336,0.29748 8.79984,0.29394 1.6083,-0.0866 3.1352,-0.76934 4.75539,-0.5508 5.46651,-0.21862 10.88601,-1.03373 16.32393,-1.48699 4.26201,-0.73888 8.51509,-1.6229 12.70758,-2.74002 2.17667,-0.76043 4.20924,-1.87527 6.40261,-2.60137 0.97043,-1.36538 1.49228,-3.12334 2.49382,-4.51277 1.51902,-2.64119 3.81162,-4.98384 4.05643,-8.26158 0.57326,-3.05115 2.38765,-5.92972 1.69627,-9.15964 -0.27198,-3.86094 0.26593,-7.80723 -0.75028,-11.58845 -0.93969,-4.1913 -3.73721,-7.49264 -6.41585,-10.51536 -0.82208,-0.97997 -1.87228,-1.63599 -3.0654,-1.86155 -1.47093,-0.9391 -3.27621,-0.58008 -4.72623,-1.58134 -1.27325,-0.68849 -2.32263,-1.98539 -3.86738,-1.88605 -3.18609,-0.0668 -6.25009,-1.28324 -9.16111,-2.64881 -3.31892,-0.23118 -6.65923,-0.19546 -9.91177,-1.10384 -5.83622,-0.47816 -11.71377,0.12788 -17.52116,-0.79684 -0.6615,-0.0605 -1.32598,-0.085 -1.98966,-0.0648 z"
       id="path879"
       inkscape:connector-curvature="0" />
    <path
       style="fill:#ffb380;fill-opacity:1;stroke:none;stroke-width:0.27588603;stroke-opacity:1"
       id="path887"
       d="m 61.56807,337.16283 c -1.25685,0.80375 -2.730683,1.00646 -4.15168,1.21642 -0.531122,0.0273 -0.37288,0.0559 -0.237252,-0.35918 0.0762,-0.23318 0.149675,-0.47071 0.181091,-0.7158 0.03606,-0.28126 -0.03544,-0.4859 -0.101137,-0.73965 -0.621469,-1.35452 -1.619586,0.0312 -2.903484,-0.25781 -0.282115,-0.0635 1.018783,-1.16142 1.033695,-1.1747 1.142003,-0.75388 2.449626,-1.14367 3.714358,-1.57962 1.49283,-0.53026 3.030906,-0.84974 4.597673,-0.93508 0.897496,-0.0258 1.795854,0.0195 2.679742,0.18607 0.08949,0.0169 0.179546,0.034 0.270325,0.0372 0.06984,0.002 0.278313,-0.0126 0.208801,-0.0204 -0.330525,-0.0371 -0.663265,-0.0452 -0.994897,-0.0678 0.7459,-0.0638 1.490676,-0.16534 2.229636,-0.29335 0.759825,-0.10242 1.514224,-0.22925 2.266566,-0.38335 0.806077,-0.18723 1.612527,-0.37083 2.431656,-0.47467 1.299713,-0.11035 2.604363,-0.0252 3.906015,-0.008 0.141816,-0.001 0.283631,-0.003 0.42545,-0.004 0.464635,-0.003 1.140015,-8.5e-4 0.860187,-0.01 -1.887361,-0.0628 -0.270955,-0.0142 0.09848,-0.0207 1.471142,-0.0857 2.94149,-0.0496 4.413602,-0.0231 0.137605,0.0156 0.276331,0.0222 0.412819,0.0468 1.801611,0.3247 2.147946,5.21367 0.233489,5.25374 -0.03088,-8.5e-4 -0.06223,-0.009 -0.09264,-0.002 -0.101061,0.0196 -0.484418,0.27074 -0.51657,0.28723 -0.817293,0.41928 -0.464199,0.24437 -1.483154,0.68516 -3.16411,1.27046 -6.513428,1.79643 -9.844587,2.23754 -2.35426,0.26949 -4.722141,0.33837 -7.078269,0.57971 -3.521014,0.357 -2.143368,0.35496 -4.345942,-4.91172 0.576709,-0.18804 1.154033,-0.35962 1.708989,-0.62502 2.259629,-1.21676 4.679915,-1.972 7.117595,-2.62845 3.879858,-0.93889 7.827121,-1.50175 11.772392,-1.99763 3.116768,-0.40515 6.247289,-0.64382 9.380942,-0.81929 2.185469,-0.0892 4.373026,-0.0436 6.558884,10e-4 0.221332,-0.008 0.881739,0.0209 0.664001,-0.0229 -0.274987,-0.0555 -0.561676,0.0276 -0.838925,-0.0123 -0.198668,-0.0286 0.400809,-0.009 0.60086,-0.022 0.61268,-0.0395 1.218433,-0.1224 1.82422,-0.22552 1.717609,-0.36933 3.415079,-0.82766 5.142619,-1.14339 2.85772,-0.49175 5.75574,-0.44247 8.63858,-0.42867 2.38149,-0.0306 4.75399,0.19565 7.12501,0.40306 1.96501,0.16258 3.93147,0.30266 5.89394,0.49959 1.75854,0.21269 3.50863,0.47205 5.27705,0.56691 2.18307,0.0576 4.36653,2.5e-4 6.54983,0.0416 2.22752,-5.7e-4 4.41899,0.43432 6.60142,0.86771 1.83488,0.32956 3.66987,0.65603 5.51052,0.94548 1.7449,0.21341 3.4748,0.52832 5.20237,0.86494 1.90843,0.36368 3.83263,0.61609 5.75414,0.88179 2.02928,0.28154 4.04602,0.64433 6.04821,1.09911 1.84661,0.42801 3.64701,1.05237 5.43761,1.69627 1.18269,0.44874 2.37459,0.86597 3.6016,1.14374 1.03071,0.18218 2.06596,0.34112 3.10101,0.49478 1.00933,0.11377 1.99057,0.40535 2.98757,0.5927 0.71465,0.20314 1.3796,-0.10786 -0.83863,0.17212 -0.0514,0.007 -0.0727,0.0808 -0.1149,0.11337 -0.10717,0.0827 -0.22125,0.15427 -0.33188,0.23141 -0.0926,0.0802 -0.39336,0.26788 -0.27767,0.24067 0.13248,-0.0312 0.21491,-0.18141 0.33303,-0.25368 0.0438,-0.0269 0.68207,-0.39389 0.87918,-0.40821 4.67439,-0.33974 0.62821,0.0633 1.8346,-0.0587 0.57842,-0.0362 2.58498,-0.0286 0.0908,-0.0188 0.44917,0.0124 0.89688,0.0349 1.34615,0.0327 0.58894,-0.0467 1.1693,-0.18302 1.75985,-0.24385 0.31529,0.0339 1.10417,-0.16872 1.36082,0.0981 -0.008,0.12396 0.0118,0.0166 -0.10982,0.16398 -0.004,0.004 0.21367,-0.10742 0.37806,-0.20622 0.20805,-0.10818 0.14815,-0.0299 0.35738,-0.21336 0.57543,-0.44505 -0.0425,0.30767 -0.0248,0.49392 0.29967,3.15238 1.47305,4.10182 0.26433,2.97962 -0.64799,-0.28895 -1.32297,-0.5349 -1.9765,-0.82226 -1.36557,-0.61209 -2.7257,-1.23725 -4.10299,-1.81818 -1.24166,-0.52611 -2.54723,-0.82911 -3.84099,-1.15834 -1.46021,-0.376 -2.90032,-0.83434 -4.32907,-1.3314 -1.24441,-0.44073 -2.48211,-0.88772 -3.76411,-1.18062 -1.28972,-0.22838 -2.5922,-0.35383 -3.88662,-0.54683 -1.46766,-0.23492 -2.89749,-0.66677 -4.33928,-1.03302 -1.36794,-0.33799 -2.77467,-0.39168 -4.16964,-0.48423 -1.62398,-0.0876 -3.22616,-0.39622 -4.83357,-0.64103 -1.46557,-0.22247 -2.94628,-0.16457 -4.41953,-0.10057 -0.13126,0.008 -2.01976,0.10612 -2.08916,0.12537 -0.17952,0.0499 0.73313,0.0438 0.55092,0.0804 -0.41702,0.0836 -0.84715,0.044 -1.27081,0.064 -1.54792,0.0731 -1.17919,0.0551 -2.74979,0.0976 -1.85087,0.0613 -3.69977,0.03 -5.54601,-0.11286 -0.98735,-0.0764 -1.99762,0.0146 -2.9622,-0.22703 -0.17506,-0.0438 0.2498,-0.28077 0.37471,-0.42115 -0.44297,-0.27071 -0.88594,-0.54141 -1.32891,-0.81211 -2.88459,0.85643 -3.99857,-3.57898 -1.11398,-4.43542 v 0 c 0.31592,-0.28567 0.63184,-0.57135 0.94777,-0.85703 0.9245,-0.14962 1.84901,-0.29925 2.77351,-0.44887 -0.15008,-0.0747 -0.60502,-0.16175 -0.45025,-0.22414 0.40005,-0.16126 0.84993,-0.0856 1.27604,-0.10872 1.38255,-0.075 2.77055,-0.0427 4.15399,-0.0576 1.3803,0.0109 2.75699,0.0531 4.13664,0.0941 1.72175,0.0511 3.44002,0.0495 5.15164,0.27578 1.55216,0.18446 3.10165,0.40752 4.66219,0.49339 1.64808,0.1096 3.29837,0.21898 4.93384,0.47577 1.58948,0.26074 3.18007,0.5325 4.73643,0.97861 1.27512,0.33903 2.56403,0.62289 3.86784,0.79622 1.44773,0.22071 2.89589,0.45765 4.31098,0.86626 1.39541,0.39321 2.78758,0.80947 4.15346,1.31173 1.29699,0.44717 2.59103,0.91031 3.928,1.19998 1.52371,0.3909 3.04316,0.80926 4.50774,1.41978 1.63956,0.66325 3.25396,1.42729 4.68707,2.5349 0.73183,0.59601 1.46439,1.2173 2.00216,2.03346 -1.03985,-0.99834 0.21581,0.13532 0.58522,3.22506 0.0275,0.22987 -0.50915,1.00705 -0.70976,1.22825 -0.44154,0.42545 -0.91392,0.89262 -1.47866,1.10601 -0.29457,0.0454 -0.54636,0.32595 -0.83308,0.47594 -0.58141,0.31601 -1.19393,0.52158 -1.84281,0.59913 -0.76104,0.0918 -1.52299,0.0907 -2.28616,0.15073 -0.44719,2.8e-4 -0.89205,0.0341 -1.33911,0.0476 -0.99513,0.003 -1.99742,0.0438 -2.99042,-0.0588 -0.63651,-0.1215 0.0939,0.0308 1.10759,-0.0716 0.0395,-0.004 0.0445,-0.0743 0.0774,-0.0983 0.14547,-0.10644 0.30686,-0.18526 0.45336,-0.28999 0.0952,-0.0681 0.36287,-0.29947 0.27025,-0.22738 -0.11347,0.0883 -0.22188,0.18404 -0.33281,0.27607 -0.0509,0.0322 -0.60124,0.40358 -0.73713,0.4203 -0.95194,0.11713 -1.91793,0.12215 -2.8744,0.0834 -1.07586,-0.10122 -2.15171,-0.21273 -3.20754,-0.47235 -1.10018,-0.21156 -2.2112,-0.34283 -3.30779,-0.57814 -1.41697,-0.29911 -2.83179,-0.61514 -4.22275,-1.03794 -1.59702,-0.48372 -3.18345,-1.04342 -4.83178,-1.28712 -2.04325,-0.26744 -4.10319,-0.40747 -6.12425,-0.85348 -1.88158,-0.41022 -3.74793,-0.89456 -5.63263,-1.28688 -1.69061,-0.29221 -3.3961,-0.45883 -5.09003,-0.72708 -1.87926,-0.28003 -3.75543,-0.58386 -5.62639,-0.92379 -1.96886,-0.28671 -3.94319,-0.34948 -5.92914,-0.32122 -2.29747,-0.0334 -4.59048,-0.17122 -6.8608,-0.58048 -1.70111,-0.25972 -3.40626,-0.48854 -5.12505,-0.54924 -1.98087,-0.0908 -3.96264,-0.13935 -5.94388,-0.21842 -2.29177,-0.10972 -4.58322,-0.22752 -6.87598,-0.31092 0.18064,-0.008 0.72215,-0.008 0.54194,-0.0233 -1.73847,-0.15171 -3.49705,0.0675 -5.23412,0.11697 -1.69882,0.1132 -3.40992,0.17413 -5.0848,0.52911 -2.016233,0.38223 -4.042841,0.62549 -6.097217,0.42399 -0.224763,-0.007 -0.897805,0.007 -0.67429,-0.0204 0.272269,-0.0324 0.549134,-0.0266 0.821679,0.003 0.210219,0.0227 -0.422529,0.008 -0.633576,0.0175 -0.746279,0.0365 -1.480447,0.16079 -2.205144,0.36108 -2.992532,0.7614 -5.967396,1.6329 -9.022601,2.06284 -3.839699,0.5598 -7.702989,0.86362 -11.545633,1.39855 -2.621344,0.3936 -5.246743,0.81792 -7.89368,0.93803 -0.334039,0.007 -0.673891,0.0715 -1.002276,0.004 -0.02918,-0.005 -0.02307,-0.0641 -0.04815,-0.0814 -0.109593,-0.0753 -0.258715,0.14015 -0.378955,0.0703 -0.780007,-1.62176 -1.571199,-3.23722 -2.34002,-4.86528 -0.06578,-0.1393 0.110937,-0.21856 0.187354,-0.26905 0.520401,-0.34377 1.12122,-0.50589 1.683872,-0.74161 2.247186,-0.73627 4.53539,-1.30783 6.825189,-1.86369 3.364719,-0.72336 6.7643,-1.36515 10.209657,-1.2509 1.026091,0.0462 2.053643,0.18811 3.079049,0.15187 1.736317,-0.0646 1.768573,4.23841 0.356761,5.07121 -0.13803,0.0814 -0.397512,0.14268 -0.535022,0.16504 -0.142398,0.0232 -0.286657,0.0298 -0.429987,0.0447 0.269835,0.0109 0.541753,-0.007 0.8095,0.031 0.174615,0.0247 -0.352102,0.009 -0.528182,0.009 -0.695063,-10e-4 -1.389827,-0.0432 -2.084925,-0.0446 -1.35832,-0.002 -2.717585,0.0202 -4.07471,-0.0522 -0.280244,-0.0116 -0.560308,-0.0286 -0.840645,-0.0372 -0.128219,-0.004 -0.513056,-0.003 -0.384788,-0.005 1.890606,-0.0202 0.596556,0.01 0.193595,-0.0216 -0.640961,-0.0142 -1.279819,-0.0292 -1.907799,0.14568 -0.805765,0.18959 -1.594038,0.46373 -2.41104,0.59465 -0.95419,0.14841 -1.907841,0.30662 -2.874637,0.31348 -3.012146,-0.11957 -0.829019,0.0259 -2.051444,-0.12275 -0.101724,-0.0124 -0.20371,-0.0245 -0.306027,-0.0276 -0.07747,-0.002 -0.309579,0.005 -0.232283,0.0111 0.350723,0.0279 0.702802,0.0309 1.053803,0.0543 0.06262,0.004 -0.125457,0.002 -0.188185,0.003 -1.260432,0.27563 -2.453219,0.83934 -3.709437,1.13846 -1.279453,0.32092 -2.63825,0.70638 -3.955989,0.50003 -0.02196,-0.0777 -0.08062,-0.15352 -0.06585,-0.23325 0.03503,-0.18906 0.38513,-0.53454 0.207764,-0.53264 -2.383483,0.0256 -2.267087,1.38129 -3.475397,-0.29276 -0.07136,-0.16156 -0.166452,-0.31309 -0.214093,-0.48466 -0.365712,-1.317 0.292489,-2.43867 1.265928,-3.15338 1.532054,-0.90873 3.228885,-1.35704 4.971278,-0.98677 2.184913,-0.89924 3.354556,2.46033 1.169646,3.35957 z"
       inkscape:connector-curvature="0" />
    <path
       style="fill:#ffb380;fill-opacity:1;stroke:none;stroke-width:0.27588603;stroke-opacity:1"
       id="path889"
       d="m 54.266343,338.57793 c 0.23142,-0.21015 0.445889,-0.44457 0.694258,-0.63044 2.031812,-1.52055 4.511167,-2.20968 6.867732,-2.8524 2.20985,-0.56354 4.469548,-0.81583 6.73133,-0.95309 1.365819,-0.0207 2.720949,-0.094 4.071181,-0.32088 1.951061,-0.36852 3.911073,-0.64779 5.88604,-0.80756 1.927733,-0.11114 3.846298,-0.30371 5.761387,-0.56425 2.000937,-0.32572 4.013916,-0.52602 6.036069,-0.57947 0.31351,0.002 0.627046,0.002 0.940527,0.008 0.794409,0.0134 1.589067,0.0186 2.383092,0.0486 0.961437,0.0362 1.913906,0.16731 2.87791,0.18066 -0.258205,-0.34919 1.681281,0.36924 1.391655,-0.0248 -0.15585,-0.21205 -0.831622,0.22771 -0.748519,-0.0283 0.08483,-0.26127 0.509526,-0.0134 0.764283,-0.0203 1.625394,-0.0445 0.427498,-0.024 3.150002,-0.0141 1.66455,0.10231 3.32642,0.23182 4.99172,0.32306 1.39326,0.0362 2.7712,0.25388 4.14627,0.48108 1.13322,0.25742 2.2898,0.20203 3.43706,0.13546 0.23693,-0.0141 0.87161,0.14718 0.71078,-0.0425 -0.17254,-0.20352 -0.72409,0.25377 -0.7635,-0.0197 -0.0391,-0.27144 0.50519,-0.0178 0.75789,-0.0192 0.68961,-0.004 1.37709,0.0338 2.06496,0.0808 1.53968,-0.25983 2.82942,0.33117 4.2702,0.66546 0.88223,0.18535 1.78628,0.17416 2.6812,0.18024 1.15517,0.01 2.29337,0.23869 3.42826,0.44755 0.98552,0.18989 1.98504,0.24884 2.98268,0.3059 1.34902,0.0681 2.69729,0.15251 4.04463,0.25217 1.54841,0.0939 3.0943,0.1246 4.64377,0.0639 3.25584,-0.13889 -0.38218,0.0474 0.2381,-0.0787 0.065,-0.0133 1.8404,-0.0278 1.90203,-0.0281 0.98159,-0.002 2.70739,0.0278 3.42844,0.0374 1.55714,0.14262 3.11632,0.20289 4.67834,0.17429 0.2557,-0.007 0.92836,0.19744 0.76709,-0.0184 -0.16624,-0.22249 -0.59312,0.1762 -0.79086,-0.0134 -0.19315,-0.18521 0.51506,-0.004 0.7726,-0.004 0.2588,2.8e-4 0.51759,0.002 0.77637,0.007 2.50693,0.0332 1.56238,-0.0441 3.04016,0.11091 1.19171,0.14192 2.33848,0.53214 3.52065,0.7347 1.10747,0.17464 2.22838,0.17011 3.34141,0.27452 1.01516,0.12186 2.01044,0.37624 3.0224,0.52378 0.90828,0.0716 1.81935,0.0871 2.72876,0.13782 0.96871,0.008 1.93553,-0.002 2.90204,0.0783 1.10628,0.0808 2.19365,0.32563 3.27714,0.56876 0.74572,0.14765 1.50144,0.2082 2.24865,0.34263 0.65541,0.12436 1.26661,0.41113 1.8898,0.64993 0.51405,0.11953 1.04326,0.16768 1.56324,0.2646 0.59624,0.10786 1.1891,0.23141 1.78272,0.35535 0.55635,0.0851 2.00198,0.0254 -0.45788,0.0377 0.47699,-0.0185 0.95116,-0.0731 1.42793,-0.0993 0.92076,-0.10937 1.8096,0.009 2.71475,0.10079 0.46695,0.0448 1.23425,0.0313 -0.96726,0.007 -0.049,-5.7e-4 0.0981,-0.002 0.14705,-0.004 0.13729,-0.007 0.21197,-0.0147 0.35238,-0.0271 0.49308,-0.0615 0.99015,-0.0582 1.48439,-0.10187 0.5656,-0.072 1.13783,-0.0465 1.70254,-0.11496 1.32619,-0.12013 1.54066,-0.0444 2.4338,0.52777 0.0274,0.0175 -0.0474,-0.0469 -0.0748,-0.0644 -0.13704,-0.0874 -0.2608,-0.22211 -0.41762,-0.24986 -0.51699,-0.0914 -1.04572,-0.0677 -1.56858,-0.10155 -0.14344,0.0711 -0.41624,0.0973 -0.51171,0.2576 -0.0126,0.0213 0.0443,-0.016 0.0653,-0.0271 0.37897,-0.20103 0.0818,-0.0681 0.43072,-0.21335 0.22823,-0.0733 0.4379,-0.13483 0.65652,-0.2306 0.46672,-0.24836 0.94066,-0.51336 1.45352,-0.62406 -0.042,0.10221 0.26283,-0.11913 0.2733,-0.0205 0.006,0.0611 -0.0573,0.10601 -0.0871,0.15822 -0.22431,0.39228 -0.63357,0.71553 -0.67534,1.17519 -0.18539,2.04003 0.93897,3.3728 0.0748,2.25622 -0.39986,-0.55969 -0.51906,-1.21098 -0.66313,-1.8783 -0.0515,-0.23874 -0.0292,-0.292 -0.20427,-0.22677 -0.18006,0.0835 0.0104,0.0198 -0.23093,-0.005 -0.051,-0.005 -0.10212,0.0224 -0.15306,0.0162 -0.28347,-0.0347 -0.57826,-0.1995 -0.84577,-0.29766 -0.63264,-0.36422 -1.30352,-0.62797 -1.98716,-0.85254 -0.93366,-0.21828 -1.83259,-0.55533 -2.71967,-0.93398 -0.78169,-0.32345 -1.47821,-0.84116 -2.24382,-1.19955 -0.55276,-0.15417 -1.12603,-0.19036 -1.68523,-0.31882 -0.6932,-0.12694 -1.35484,-0.39542 -2.04177,-0.54849 -0.846,-0.10362 -1.69523,-0.16865 -2.54186,-0.2701 -1.11477,-0.19135 -2.23559,-0.33482 -3.35893,-0.45059 -0.16429,-0.01 -0.32861,-0.0182 -0.49286,-0.0284 -0.29172,-0.0182 -0.58356,-0.0342 -0.87504,-0.0562 -0.12508,-0.01 -0.49949,-0.0196 -0.37483,-0.0341 0.90613,-0.10623 1.53327,0.0265 0.83558,-0.0986 -0.24456,-0.0441 -0.49155,-0.0656 -0.73768,-0.0941 -0.0444,-0.005 -0.15789,0.02 -0.13272,-0.0201 0.047,-0.075 0.14869,-0.0825 0.22303,-0.12381 0.80835,-0.58893 0.83203,-0.46186 1.32981,-1.43105 0.14659,-0.28542 0.197,-0.69258 0.29262,-1.01074 0.0309,-0.0511 0.0378,-0.13973 0.0927,-0.15342 0.15898,-0.0397 0.95213,0.41758 1.08863,0.47803 0.39209,0.17365 0.79068,0.32939 1.1859,0.49441 1.20889,0.46209 2.44477,0.83496 3.67277,1.23158 0.91089,0.29881 1.68354,0.83231 2.36014,1.54773 0.57671,0.65842 0.0611,0.10676 -0.061,-0.13237 0.24535,-0.20174 0.83824,0.24643 1.02667,0.36842 0.35968,0.30106 0.17426,0.12554 0.54511,0.54016 2.26616,2.76635 -1.33205,6.25086 -3.59822,3.48452 v 0 c 0.27772,0.32449 0.15306,0.1898 0.3669,0.4117 0.58637,0.48757 -0.26586,0.0632 -0.45242,0.0565 -0.36285,-0.16883 -0.6772,-0.34952 -0.99147,-0.61539 -0.14649,-0.12392 -0.24902,-0.31383 -0.41551,-0.40303 -0.0249,-0.0133 0.0199,0.0562 0.0298,0.0844 0.006,0.0282 0.0373,0.13969 0.018,0.1697 -0.11514,0.17866 -1.04715,-0.0535 -1.20787,-0.0421 -1.61441,-0.3045 -3.21845,-0.70303 -4.70082,-1.49012 -1.731,-0.98891 -3.31704,-2.22376 -4.04982,-4.27923 -0.0623,-0.29207 -0.14529,-0.57983 -0.18705,-0.87622 -0.15488,-1.0994 0.12119,-2.25957 0.85401,-3.06876 0.23981,-0.26479 0.56728,-0.4147 0.85092,-0.62205 0.35671,-0.14913 0.70501,-0.27445 1.08839,-0.32448 0.91707,-0.1917 0.13295,-0.0463 2.12028,-0.12593 0.7624,-0.0306 1.5258,-0.0666 2.28519,0.0542 1.19587,0.15076 2.38164,0.37002 3.56677,0.59906 0.93664,0.20605 1.87015,0.42868 2.78287,0.74 0.6394,0.1907 1.29751,0.26475 1.94629,0.40986 0.85777,0.19402 1.68662,0.50496 2.4858,0.89519 0.69435,0.32828 1.40011,0.62479 2.12152,0.87594 0.87518,0.32556 1.75848,0.62828 2.60049,1.04972 0.76261,0.34795 1.55509,0.60932 2.32871,0.92612 1.40074,0.74869 2.52287,1.65738 3.19182,3.24821 0.17191,0.53707 0.44591,1.19812 0.3889,1.79057 -0.003,0.0326 -0.0381,-0.0512 -0.0527,-0.0798 -0.26433,-0.51666 0.0921,0.0971 -0.28219,-0.52089 -0.6847,-0.86222 0.5027,0.59398 0.39031,2.62679 -0.027,0.48787 -0.45185,0.84595 -0.70321,1.25118 -0.15675,0.25271 -0.42656,0.42798 -0.6495,0.59923 -0.53608,0.3536 -1.14996,0.58181 -1.75962,0.72972 -0.21576,0.0758 -0.63929,0.23738 -0.80189,0.23069 -0.0436,-0.0833 -0.0216,-0.0508 -0.17033,0.0287 -0.33105,0.17698 -0.65863,0.36819 -1.0303,0.42516 -0.55951,-0.0334 -1.12464,-0.008 -1.67852,-0.10014 -0.18578,-0.031 -0.34096,-0.17222 -0.50874,-0.26429 -0.052,-0.0286 -0.19758,-0.13428 -0.15022,-0.0973 0.71828,0.56045 0.98616,0.51345 2.09455,0.448 0.0201,-0.009 0.0733,-0.0464 0.0602,-0.0275 -0.0689,0.0994 -0.77004,0.26232 -0.86061,0.28487 -0.13435,0.0335 -0.27038,0.0583 -0.40556,0.0875 -0.68839,0.1093 -1.38158,0.19555 -2.07617,0.0922 -0.76598,-0.0618 -1.53929,-0.0683 -2.3051,-0.0223 -0.55898,0.0437 -2.27398,0.1754 0.0966,0.0838 -0.46804,-0.0244 -0.93598,-0.0688 -1.40481,-0.0434 -1.00294,0.008 -1.99812,0.0418 -2.99357,-0.10165 -0.73287,-0.0735 -1.46054,-0.2006 -2.17124,-0.412 -0.60778,-0.17317 -1.20332,-0.38178 -1.79304,-0.61639 -0.40633,-0.0961 -0.82632,-0.0668 -1.23965,-0.0919 -0.86513,-0.0561 -1.73176,-0.12987 -2.58619,-0.2924 -0.86785,-0.14622 -1.73636,-0.31667 -2.61628,-0.34345 -0.99833,0.01 -1.99808,0.0315 -2.99416,-0.0615 -1.03458,-0.0676 -2.06668,-0.17951 -3.08929,-0.36644 -0.93172,-0.14671 -1.86494,-0.1441 -2.80477,-0.15888 -1.27888,-0.0907 -2.54308,-0.3078 -3.78945,-0.63474 -0.95458,-0.21558 -1.90645,-0.33212 -2.88364,-0.23703 -1.51767,0.0672 -0.004,-0.0138 0.22908,0.0473 0.24122,0.0632 -0.49618,0.007 -0.74428,0.01 -1.22765,0.0138 -1.58115,0.0156 -3.15716,5.8e-4 -0.26673,-0.002 -0.53329,-0.0151 -0.79994,-0.0226 -1.55218,-0.0613 -3.10682,-0.13186 -4.65949,-0.0454 0.24037,0.01 0.9571,-0.0201 0.72112,0.0308 -0.0181,0.004 -1.87339,0.0199 -1.88216,0.0199 -0.89372,10e-4 -3.09197,-0.0315 -3.53069,-0.0423 -0.30849,-0.008 -0.61643,-0.0324 -0.92464,-0.0486 -1.64334,-0.11377 -3.28979,-0.2018 -4.92584,-0.41116 -1.34718,-0.14964 -2.69313,-0.31567 -4.03266,-0.53321 -1.02686,-0.16288 -2.05247,-0.33704 -3.08401,-0.46245 -1.08256,-0.1021 -2.17125,-0.10536 -3.25192,-0.23357 -1.09206,-0.16987 -2.16968,-0.40476 -3.21589,-0.79395 -0.27983,-0.0788 -0.28364,-0.0975 -0.54248,-0.11549 -0.46773,-0.0323 -1.85234,0.32945 0.17791,0.16681 -1.96396,0.22817 -3.94815,0.25808 -5.91943,0.12377 -1.22676,-0.12696 -2.44185,-0.36597 -3.67163,-0.44445 -1.37352,-0.0264 -2.74828,0.0835 -4.12074,-0.0325 -1.57573,-0.11355 -3.14689,-0.33578 -4.729499,-0.29478 0.244363,-0.002 0.961669,0.0884 0.733089,-0.005 -0.0311,-0.0128 -1.563214,-0.0302 -1.59294,-0.0307 -1.247489,-0.0153 -2.491986,-0.0204 -3.737645,-0.0882 -0.703042,-0.0294 -1.404588,-0.0462 -2.108247,-0.0286 -0.244928,0.007 -0.804699,-0.22562 -0.73447,0.0296 0.0718,0.26091 0.943234,-0.14428 0.750922,0.0302 -0.207899,0.18863 -0.541335,0.0168 -0.812004,0.0252 -1.892176,0.083 -3.782367,0.20478 -5.669828,0.37343 -1.96932,0.20717 -3.932692,0.46562 -5.902295,0.66747 -2.055681,0.18548 -4.115803,0.24854 -6.178267,0.18643 -1.348055,-0.0407 -2.697356,-0.0618 -4.040534,0.10319 -1.935208,0.2157 -3.7982,0.77495 -5.660909,1.37351 -2.656713,0.76167 -5.371248,1.55201 -8.138223,1.51561 -2.599894,1.66105 -4.760439,-2.3366 -2.160545,-3.99765 z"
       inkscape:connector-curvature="0" />
    <path
       style="fill:#ffb380;fill-opacity:1;stroke:none;stroke-width:0.27588603;stroke-opacity:1"
       id="path891"
       d="m 60.57955,386.72055 c -1.270963,0.0329 -2.493428,-0.42979 -3.605247,-1.06708 -0.343268,-0.28271 -0.754028,-0.44753 -1.181981,-0.48239 -0.39927,0.0236 -0.842106,-0.32126 -1.232083,-0.17686 0.55127,0.0815 -1.110993,0.007 -0.545401,-0.003 1.96574,-0.0366 0.10419,0.0393 -0.574712,-0.037 -0.460031,-0.0877 -0.913884,-0.2103 -1.359718,-0.362 -0.035,-0.0131 -0.141899,-0.0459 -0.178149,-0.081 -0.06284,-0.0607 0.197765,0.16597 0.239337,0.0865 2.064215,-3.94531 0.536077,-4.42099 2.035444,-3.87473 0.957094,0.31589 1.908728,0.65136 2.87105,0.94817 1.377548,0.46029 2.819976,0.50962 4.246755,0.59944 1.499767,0.0724 2.687402,0.36865 4.018981,1.1169 0.447223,0.18667 1.242055,1.12841 1.720483,0.97018 0.867563,-0.29835 1.809665,-0.28275 2.710796,-0.28176 1.379784,0.01 2.758744,0.0412 4.138602,0.0401 -0.245682,-0.004 -0.511151,0.0936 -0.737042,-0.0114 -0.20574,-0.0957 0.447548,-0.009 0.671129,-0.0192 1.022858,-0.048 2.037524,-0.18572 3.054948,-0.30214 1.678606,-0.20284 3.366172,-0.25223 5.053475,-0.26192 1.711323,-0.007 3.393112,-0.38647 5.071319,-0.70751 2.179228,-0.44789 4.383379,-0.73285 6.598417,-0.84086 2.132907,-0.13215 4.268944,-0.0467 6.40311,-0.0611 -0.262152,-0.002 -0.544698,0.10426 -0.786453,-0.007 -0.222472,-0.10144 0.48236,-0.0129 0.72344,-0.0227 1.05722,-0.0431 2.11234,-0.0992 3.17042,-0.11314 1.02493,0.029 2.05107,0.003 3.07564,0.0453 0.27563,0.0113 -0.56309,-0.059 -0.82709,0.0278 -0.20636,0.0679 0.4307,0.0236 0.64618,0.0317 0.62378,0.0236 0.61353,0.0161 1.23766,0.01 1.44681,-0.01 2.88878,-0.1471 4.33273,-0.22751 1.54195,-0.10503 3.08606,-0.0803 4.62773,0.007 0.94863,0.097 1.9004,0.0884 2.85172,0.13533 0.33813,0.0167 0.65429,0.0612 0.99585,0.0507 0.1311,-0.0161 0.26221,-0.0323 0.39331,-0.0484 0.0594,-0.008 1.05649,-0.13047 1.05504,-0.13112 -0.26592,-0.11802 -0.59896,0.0761 -0.86025,-0.0536 -0.20567,-0.1021 0.45158,-0.0253 0.67742,-0.0371 0.24076,-0.0126 0.48159,-0.024 0.72238,-0.036 1.4108,-0.0533 2.82163,0.0158 4.23212,0.0463 1.56805,-0.0541 3.12991,-0.23577 4.69548,-0.34791 1.7274,-0.085 3.45597,-0.095 5.18451,-0.064 1.56167,0.0362 3.10955,-0.23297 4.65617,-0.42909 1.76774,-0.25406 3.54297,-0.428 5.32198,-0.55289 1.57474,-0.0411 3.14524,-0.1047 4.71309,-0.27301 1.89792,-0.26495 3.79135,-0.56583 5.68978,-0.82646 1.78795,-0.26927 3.5905,-0.28738 5.39126,-0.28943 0.94911,0.0341 1.88767,-0.072 2.81608,-0.27574 0.86462,-0.23578 1.74701,-0.29666 2.63386,-0.29697 0.5705,0.0109 1.14097,0.0228 1.71149,0.031 0.0828,10e-4 0.16567,1.1e-4 0.24846,-0.002 1.14525,-0.0387 -1.88366,0.12821 -0.57703,-0.089 0.12874,-0.0214 0.25671,-0.0481 0.38507,-0.072 1.40514,-0.32456 2.82969,-0.51035 4.25909,-0.64797 1.94078,-0.075 3.90272,-0.17294 5.82829,0.15115 0.84812,0.14835 1.63465,0.47806 2.40227,0.88708 0.4047,0.25857 0.86797,0.22471 1.3129,0.31084 1.19423,0.1923 -1.77669,0.12484 -0.96675,0.11989 1.17961,-0.20643 1.95685,0.1311 2.96291,0.53675 0.56323,0.27827 1.11416,0.7669 1.38744,1.38328 0.13537,0.30533 0.2096,0.63846 0.3144,0.95769 -0.018,0.41524 0.039,0.84247 -0.0539,1.24571 -0.0832,0.36103 -0.28854,0.67639 -0.46276,0.99676 -0.0596,0.10963 -0.29581,0.39318 -0.23419,0.28486 0.0876,-0.15396 0.1906,-0.30053 0.31296,-0.42331 0.0653,-0.0654 -0.0858,0.16971 -0.13806,0.24779 -0.11461,0.17119 -0.24118,0.33251 -0.36178,0.49877 -1.02866,1.20045 -2.45998,1.8024 -3.83698,2.37996 -1.70271,0.69341 -3.45657,1.19 -5.25458,1.47205 -1.98338,0.25544 -3.9702,-0.0475 -5.94077,-0.28251 -0.22632,-0.0151 -0.4524,-0.0356 -0.67896,-0.0455 -0.56289,-0.0243 -0.81962,-0.0123 -1.38608,0.002 -0.24274,0.007 -0.93111,-0.12316 -0.72815,0.0217 0.0752,0.0537 2.03096,0.003 0.0101,0.0412 -1.53814,-0.003 -3.0594,0.26537 -4.57972,0.48491 -2.65713,0.36384 -5.35033,0.35469 -8.02596,0.35433 -0.89422,0.005 -1.80867,-0.1444 -3.97899,-0.15052 -1.81052,0.053 -3.62733,0.16155 -5.43042,-0.0684 -1.2483,-0.24941 -2.46246,-0.65096 -3.73548,-0.72324 -0.45248,0.0773 -2.11832,-0.0999 0.0543,0.0257 0.1816,0.0109 -0.36366,0.0109 -0.54513,0.0238 -0.43175,0.0308 -0.86203,0.0825 -1.29303,0.12397 -2.16941,0.27348 -4.3461,0.16896 -6.50656,-0.11536 -1.10951,-0.1827 -2.22914,-0.22489 -3.34924,-0.22489 -0.27611,0 -0.55538,-0.0398 -0.82831,0.005 -0.2488,0.0413 0.50336,0.004 0.75504,0.007 -2.11918,-0.0128 -4.23752,-10e-4 -6.35671,-0.0317 -1.61758,-0.11803 -3.23228,-0.26752 -4.8524,-0.34049 -1.73076,-0.0501 -3.46185,-0.055 -5.19265,-0.10568 -2.0794,-0.0643 -4.13823,-0.38798 -6.19384,-0.71057 -2.20408,-0.33884 -4.42859,-0.49255 -6.64866,-0.65011 -2.078335,-0.19434 -4.15257,-0.41409 -6.237095,-0.51062 -1.861489,-0.0158 -3.718586,-0.15844 -5.576126,-0.27467 -1.693648,-0.0934 -3.38941,-0.13016 -5.084741,-0.16773 -0.443052,-0.33772 -1.162209,0.30497 -1.606743,-0.0199 -0.21459,-0.15681 0.661657,0.24343 0.775623,-0.009 0.112401,-0.24888 -0.509912,-0.0109 -0.764883,-0.0149 -0.254924,-0.004 -0.50985,-0.009 -0.764797,-0.0114 -0.75887,-0.007 -1.517761,-0.011 -2.276644,-0.0165 -1.482122,-0.0365 -2.958188,-0.17533 -4.429067,-0.3705 -1.02398,-0.1476 -2.040782,-0.3411 -3.058594,-0.53051 -0.842574,-0.1541 -1.688198,-0.29309 -2.536026,-0.4096 -0.550556,-0.17593 -3.161586,-0.13942 -0.554016,-0.18314 -0.735042,-0.0681 -1.478619,-0.0227 -2.213317,-0.0455 -0.324794,-0.01 -0.657674,-0.11886 -0.974828,-0.18754 -0.458599,-0.17032 -0.934582,-0.12653 -1.408837,-0.0907 -0.516451,0.0407 -0.735431,0.0535 0.914387,-0.004 0.07679,-0.002 -0.153493,-0.009 -0.230315,-0.01 -0.263879,-0.004 -0.526801,0.0146 -0.789921,0.0331 -1.151583,0.0683 -2.308715,0.10991 -3.461663,0.062 0.34994,0.039 -1.06779,-0.10046 -0.684395,-0.1353 0.783606,-0.0711 1.626653,0.0345 1.072864,-0.0823 -0.849696,0.16359 -1.676037,0.14317 -2.549578,0.15719 -0.582665,0.0322 -1.179713,0.0434 -1.743006,-0.14296 0.385665,-0.0135 0.772766,-0.002 1.156994,-0.0403 0.02818,-0.003 0.01868,-0.0631 0.04228,-0.08 0.263552,-0.18995 0.29976,-0.12504 0.49838,-0.32203 0.01969,-0.0196 -0.04919,0.0227 -0.07221,0.0374 -0.07824,0.0497 -0.154168,0.10362 -0.231251,0.15534 -0.396267,0.31118 -0.755597,0.28367 -1.189265,0.35811 0.200824,-1.49799 0.242816,-3.03152 0.602472,-4.49394 0.04663,-0.18962 0.297458,0.23232 0.407281,0.3881 0.228116,0.32356 0.492255,0.6451 0.597101,1.03653 0.32458,1.21175 0.04634,2.05082 -0.616148,2.95904 -0.442394,0.49198 -0.0075,-0.19892 0.04309,-0.33627 0.08409,-0.22809 0.09005,-0.31142 0.122645,-0.52044 0.06674,0.0204 0.138393,1.01375 0.156649,0.59215 0.01865,-0.0572 0.03983,-0.1634 0.106185,-0.18764 0.287306,-0.10503 1.035479,0.11666 1.310468,0.17189 1.086186,0.24357 2.179474,0.43417 3.282334,0.56003 1.158571,0.10253 2.320742,0.0552 3.481266,0.1193 1.343263,0.0817 2.657803,0.38656 3.951888,0.77027 0.563517,0.1467 1.128929,0.35756 1.71687,0.31763 0.152276,-0.0109 0.761622,-0.11326 0.880116,-0.13246 -0.2398,-0.019 -0.631907,0.18625 -0.719403,-0.0573 -0.08192,-0.22799 0.448043,-0.0485 0.671838,-0.0751 1.154721,-0.13709 2.303129,-0.22728 3.463991,-0.27802 0.307724,8.7e-4 0.615464,-10e-4 0.923171,0.002 0.758182,0.009 1.516648,0.008 2.274451,0.0349 0.978392,0.0356 1.953202,0.25773 2.905996,0.48379 1.367792,0.3775 2.784993,0.23654 4.179848,0.22341 1.833041,-0.029 3.62827,0.32716 5.385498,0.86109 0.807072,0.23431 1.593154,0.58854 2.433738,0.65614 0.454506,0.0365 0.638051,0.005 1.098444,-0.027 0.216821,-0.0229 0.693404,0.16329 0.650465,-0.0689 -0.04443,-0.24027 -0.839293,0.10807 -0.674058,-0.0587 0.193424,-0.19513 0.526402,-0.0407 0.789776,-0.0581 0.839605,-0.0555 1.679186,-0.0825 2.519929,-0.10655 2.176649,-0.0832 4.351089,0.0241 6.523919,0.14899 1.07724,0.12801 2.17038,8.6e-4 3.2477,0.0799 0.21845,0.016 -0.87268,-0.029 -0.65676,0.0109 0.25009,0.0457 0.50717,0.005 0.76075,0.009 1.59148,0.0691 3.17725,0.16817 4.77017,0.19846 0.7812,0.0825 1.55627,0.17543 2.34186,0.17131 0.41299,-0.0608 1.74609,0.0207 -0.15916,-0.0463 -0.1394,-0.005 0.27895,-0.002 0.4184,-0.005 0.14608,-0.003 0.2921,-0.009 0.43816,-0.0138 0.14918,-0.003 0.29836,-0.005 0.44754,-0.009 1.67191,-0.10122 3.34383,-0.16222 5.01574,-0.26668 0.27696,-0.0109 0.56252,0.0443 0.83088,-0.031 0.20147,-0.0564 -0.82798,0.0153 -0.62364,-0.0271 0.27036,-0.0562 0.55047,-0.009 0.82565,-0.0149 0.79655,-0.0189 1.59308,-0.04 2.38931,-0.0707 1.03093,0.0643 2.33952,-0.39164 3.34236,-0.1948 0.20417,0.04 0.39575,0.13559 0.59363,0.20339 0.80077,0.62438 0.42838,0.24201 1.0858,1.18216 1.33362,-0.6258 2.1476,1.4248 0.81399,2.0506 v 0 c 0.16718,1.01575 0.19057,0.54645 0.0102,1.40995 -0.12294,0.13906 -0.22252,0.30806 -0.36882,0.41716 -0.32988,0.246 -0.90626,0.39456 -1.2749,0.48963 -0.80078,0.2065 -1.61704,0.32577 -2.43221,0.44038 -2.20262,0.24195 -4.42096,0.30221 -6.63303,0.18315 -0.25399,-0.0182 -0.50815,-0.0337 -0.76198,-0.0545 -0.22805,-0.0186 -0.78698,0.15829 -0.6836,-0.0635 0.11181,-0.23988 0.51853,0.0616 0.74013,-0.0577 0.0479,-0.0259 -1.02625,-0.0668 -1.02861,-0.0669 -0.15177,-0.004 -0.30362,-0.004 -0.45544,-0.008 -1.3386,0.0253 -2.6815,0.0764 -4.01707,-0.0446 -0.71517,-0.0695 -1.43024,-0.17948 -2.14955,-0.0993 0.30331,0.0109 0.60952,-0.0143 0.90993,0.0325 0.14409,0.0224 -0.29013,0.0263 -0.43502,0.0414 -0.81825,0.0855 -1.63413,0.2016 -2.45582,0.24448 -2.19323,0.0989 -4.39281,0.0854 -6.58162,-0.10687 -0.83919,-0.0698 -0.79979,-0.0707 -1.62631,-0.12342 -0.25304,-0.0161 -0.55298,0.11515 -0.75931,-0.0449 -0.18595,-0.14429 0.90554,0.0534 0.68528,-0.0125 -0.10876,-0.0325 -1.40704,0.0188 -1.50076,0.0219 -2.173883,0.10807 -4.365004,0.273 -6.534865,0.0213 -1.369822,-0.23347 -2.702827,-0.64232 -4.074813,-0.85877 -1.633699,-0.16277 -3.276883,-0.17765 -4.908124,-0.37643 -1.461865,-0.21269 -2.893401,-0.58177 -4.347813,-0.83067 -0.560687,-0.0189 -1.108192,0.002 -1.668317,0.0388 -0.253278,0.0166 -0.522891,-0.0486 -0.759818,0.0501 -0.126013,0.0525 2.284011,0.0113 -0.307218,0.037 -2.060289,-0.04 -4.119118,-0.13196 -6.180026,-0.13065 -1.134959,-0.1363 -2.252686,-0.37713 -3.376729,-0.59153 -1.143635,-0.15658 -2.28917,-0.30222 -3.438602,-0.39789 -1.218808,-0.0968 -2.440455,-0.15051 -3.657372,-0.27597 -1.395989,-0.17375 -2.797135,-0.3925 -4.12138,-0.92758 -1.367751,-0.64183 -2.621899,-1.47883 -3.273872,-3.00499 -0.268478,-0.77997 -0.462653,-1.57565 -0.470191,-2.41491 0.03697,-0.93208 0.239649,-2.05478 1.007358,-2.62242 -0.341892,0.80134 -0.459565,1.38882 -0.18103,2.31227 0.0969,0.32125 0.333033,0.57149 0.514323,0.84618 0.05577,0.0845 0.18369,0.332 0.195136,0.22874 0.170471,-1.53762 0.195601,-3.0902 0.293404,-4.6353 -0.419375,0.0723 0.145039,-0.16643 0.244208,-0.11475 0.163788,0.0619 0.439775,-0.20568 0.545076,-0.26435 0.772186,-0.4302 0.968404,-0.3935 2.041644,-0.35792 0.590098,-0.16744 1.203428,-0.18273 1.80979,-0.14047 -2.064563,0.0559 -0.626986,0.025 -0.126249,0.15138 0.775766,-0.13986 1.5787,-0.0364 2.355366,-0.21008 0.119607,-0.002 0.239196,-0.007 0.358825,-0.008 0.123,-10e-4 0.246052,-0.003 0.369022,-2e-4 1.334257,0.0359 -1.566933,0.009 -0.400547,0.0725 0.08245,0.004 0.165068,0.004 0.247605,0.007 1.030401,0.0183 2.062234,-0.21353 3.094289,-0.0747 0.622533,0.0636 1.231405,0.20427 1.844987,0.30829 0.234932,0.004 0.07537,0.01 0.297053,-0.0177 0.05284,-0.007 0.212019,-0.0157 0.158835,-0.0168 -1.704065,-0.039 -1.472571,0.0258 -0.93081,-0.0224 0.107561,-0.01 0.214808,-0.0229 0.32221,-0.0345 1.375275,-0.0159 2.752823,-0.0845 4.106995,0.23135 0.731189,0.15378 1.464479,0.34427 2.213192,0.34678 1.078235,0.0143 2.156518,0.017 3.231972,0.11807 1.318903,0.11277 2.639439,0.21999 3.963855,0.15766 -0.271568,-0.003 -0.551767,0.0629 -0.814705,-0.0111 -0.235759,-0.0663 0.487006,-0.007 0.730457,-0.0126 1.606216,-0.0401 3.212899,-0.045 4.819565,-0.037 1.756426,0.0208 3.512484,0.061 5.267013,0.15667 1.853816,0.0769 3.708958,0.0541 5.563102,0.11512 2.175725,0.0795 4.353209,0.12473 6.526129,0.27272 2.33674,0.2184 4.65786,0.55893 6.96523,1.0187 1.83145,0.31225 3.66722,0.62229 5.52413,0.67716 1.7882,0.069 3.57871,0.10242 5.36247,0.26844 1.5151,0.15937 3.02837,0.38151 4.55133,0.41942 -0.28814,-10e-4 -0.57642,0.007 -0.86441,-0.004 -0.22771,-0.008 0.45574,0.004 0.68347,-0.002 1.09785,-0.0335 2.19035,-0.18577 3.28772,-0.23118 0.85457,-0.003 1.70916,-0.0165 2.5637,-0.009 1.55456,0.0149 3.08921,0.29307 4.62433,0.52845 0.59294,0.0697 0.82154,0.10655 1.41114,0.13783 0.22281,0.0118 0.8842,-0.0446 0.66899,0.0192 -0.27495,0.0817 -0.5812,-0.0525 -0.8544,0.0358 -0.43518,0.14059 1.76378,-0.10002 1.36179,0.0203 1.89324,-0.0438 3.79756,-0.28793 5.6834,10e-4 1.16721,0.22804 2.30683,0.60611 3.48561,0.74705 0.46062,0.0134 2.09283,0.0433 -0.0486,0.0136 -0.16527,-0.002 0.33068,2.8e-4 0.49578,-0.008 0.50259,-0.0254 0.62321,-0.0576 1.13741,-0.13544 1.20758,-0.24859 2.43574,-0.58452 3.66831,-0.63605 0.96736,-0.0404 1.93597,-0.0327 2.90404,-0.0342 0.40715,-5.7e-4 0.81412,0.0186 1.22118,0.0279 1.78874,0.10524 0.5875,0.0259 2.30718,0.16024 0.33089,0.0259 0.69782,-0.0902 0.99287,0.0746 0.21143,0.11816 -0.83828,-0.13283 -0.70896,0.084 0.0482,0.0808 1.42009,0.0543 1.51361,0.0537 1.67497,-0.14227 3.31457,-0.56413 4.99335,-0.67097 2.21087,-0.0647 4.42875,-0.0734 6.60366,0.41772 0.59765,0.1071 1.19616,0.22677 1.80063,0.28004 0.16676,0.0147 0.66806,0.01 0.50137,0.0252 -0.33946,0.0315 -0.68213,-0.004 -1.02187,0.023 -0.14377,0.0119 0.28795,0.0169 0.43193,0.0253 1.47682,-0.15264 2.8428,-0.84511 4.25848,-1.2837 0.74413,-0.22132 0.90993,-0.28581 1.6421,-0.44832 0.48238,-0.1071 1.11474,-0.33224 1.58831,-0.0829 -0.14136,0.46743 -0.25044,0.58488 0.26961,-0.12264 0.057,-0.0775 -0.12757,0.14522 -0.17093,0.23252 -0.55978,1.12702 -0.40654,0.77315 -0.44094,2.10087 0.0978,0.28616 0.17233,0.58299 0.29328,0.85846 0.0678,0.15448 0.17113,0.288 0.26896,0.42211 0.16355,0.22419 0.53464,0.50163 0.0517,0.36588 -0.15224,-0.0502 -0.3384,-0.14789 -0.49837,-0.16785 -0.008,-0.001 0.004,0.0198 0.0116,0.0242 0.0543,0.0332 0.10713,0.082 0.16934,0.0862 0.50317,0.0347 1.0082,0.0198 1.51231,0.0297 -0.9297,0.1261 -1.8822,0.0897 -2.80931,-0.0377 -0.78287,-0.17272 -1.51227,-0.49326 -2.20434,-0.92766 -0.141,0.019 0.14415,0.0998 0.0524,0.16289 -0.21782,0.14973 -0.69673,0.0354 -0.92417,0.15649 -0.35214,0.0377 -1.4023,0.0199 -1.05715,0.1047 0.29961,0.0736 0.6206,-0.0352 0.92088,0.035 0.21861,0.0511 -0.44702,0.014 -0.67045,0.0235 -0.48447,0.0207 -0.96851,0.0522 -1.45304,0.0713 -1.48114,0.0792 -2.96236,0.19946 -4.44648,0.16255 -0.92117,-0.0174 -1.84346,-0.0282 -2.76429,-0.0488 -0.18751,-0.004 -0.74916,-0.0379 -0.5616,-0.0376 0.40281,5.7e-4 0.80557,0.011 1.20835,0.0164 -0.52475,0.003 -1.05308,0.0646 -1.56582,0.18456 -1.08098,0.28319 -2.15227,0.61106 -3.24347,0.84816 -1.72221,0.36792 -3.46119,0.59264 -5.2115,0.73516 -1.94195,0.18605 -3.87927,0.41724 -5.81723,0.64654 -1.65663,0.16712 -3.31354,0.19958 -4.97652,0.19455 -1.66099,0.0674 -3.28676,0.44274 -4.93576,0.64581 -1.7622,0.22169 -3.53252,0.30214 -5.30587,0.33443 -1.63285,0.0499 -3.25925,0.20882 -4.8898,0.30774 -1.67125,0.0502 -3.33721,-0.012 -5.00816,-0.0401 -1.40802,0.0519 -2.81724,0.10774 -4.22617,0.0727 -1.68987,-0.0697 -3.39069,-0.0112 -5.06229,-0.32365 -0.19688,-0.0165 -0.43941,-0.0438 -0.6393,-0.0351 -0.0986,0.004 -0.39264,0.0225 -0.29443,0.0326 1.92013,0.19875 0.98221,-0.038 0.23941,0.15624 -1.53011,0.20922 -3.06543,0.36983 -4.61024,0.3412 -1.49084,-0.0221 -2.97958,-0.10372 -4.47023,-0.12228 -0.62865,0.005 -1.25196,0.0607 -1.87955,0.0775 -0.73942,0.0199 -1.47968,10e-4 -2.2187,0.0342 -0.26255,0.0116 0.7338,-0.25011 0.7878,0.0295 0.0534,0.27635 -0.51933,0.0109 -0.779,0.0161 -2.05479,-0.007 -4.10901,-0.0989 -6.164209,-0.0472 -0.253515,-0.002 -0.507029,-0.004 -0.760547,-0.005 -0.242223,-8.6e-4 -0.968619,0.0134 -0.72667,8.6e-4 0.26331,-0.0136 0.527875,-0.0246 0.790818,-0.004 0.237257,0.0184 -0.475768,0.002 -0.71351,0.01 -0.728334,0.0247 -0.754819,0.0418 -1.493414,0.12193 -2.116367,0.34199 -4.229118,0.7245 -6.359297,0.95186 -1.922584,0.18411 -3.849095,0.26894 -5.779426,0.24013 -1.585336,0.0732 -3.157942,0.29415 -4.738905,0.43277 -2.086827,0.10775 -4.171743,-0.008 -6.260203,0.0216 -1.420211,-0.0198 -2.83927,-0.10209 -4.251134,-0.27541 -1.208347,-0.11487 -2.435283,-0.24351 -3.560773,-0.77248 -0.656153,-0.33872 -1.268463,-0.81406 -1.978393,-1.00313 -1.040868,-0.0899 -2.091666,-0.0316 -3.129679,-0.17857 -1.808766,-0.2589 -3.589171,-0.70966 -5.211998,-1.65107 -0.793708,-0.47563 -1.545762,-1.01182 -2.299714,-1.5554 -1.396822,-0.6138 -0.427426,-0.12058 1.335617,-4.14813 0.0024,-0.005 0.656529,0.20305 0.679725,0.17072 0.169648,0.0481 0.354262,0.1216 0.525386,0.0588 0.04966,-0.003 0.198705,-0.009 0.148968,-0.01 -0.293714,-0.005 -1.174924,0.004 -0.881255,-0.003 0.656399,-0.0173 1.330618,-0.033 1.988521,0.0185 0.707101,0.12402 1.421656,0.26795 2.051116,0.661 0.46215,0.3025 0.447365,0.22629 1.030073,0.22172 1.301927,0.16153 2.613261,0.53771 3.628028,1.48542 2.406647,1.5052 0.448812,5.20571 -1.957832,3.70051 z"
       inkscape:connector-curvature="0" />
    <path
       style="fill:#ffb380;fill-opacity:1;stroke:none;stroke-width:0.27588603;stroke-opacity:1"
       id="path893"
       d="m 130.8325,388.20361 c 0.59791,-0.43602 1.3596,-0.36498 1.99185,-0.68148 0.097,-0.0485 0.0285,-0.28077 0.12944,-0.31851 0.51545,-0.19271 1.06988,-0.22783 1.60669,-0.33059 0.231,-0.0443 3.53748,-0.62955 3.70933,-0.66001 3.00247,-0.50932 6.03141,-0.7939 9.06468,-0.9626 1.2066,0.0255 2.34001,-0.31522 3.48382,-0.67374 1.24396,-0.40409 2.5263,-0.63065 3.81589,-0.76961 1.37574,-0.118 2.74887,-0.2485 4.11799,-0.43786 1.67498,-0.2408 3.34605,-0.5124 5.02236,-0.74216 1.06603,-0.13353 2.13942,-0.18124 3.21196,-0.17949 0.6832,-0.0183 1.33034,-0.31197 1.97548,-0.52987 0.99075,-0.34687 2.01736,-0.47317 3.05224,-0.49089 0.50604,-0.25881 0.14682,0.21163 0.0731,0.19666 -0.039,-0.008 0.0603,-0.0563 0.0918,-0.0824 0.36533,-0.30255 0.29084,-0.23427 0.74576,-0.54764 1.10335,-0.68422 2.32662,-1.03911 3.57411,-1.23607 0.43399,-0.0498 0.8705,-0.0581 1.30616,-0.0376 0.9075,0.0428 1.21205,-0.0942 1.84536,0.25452 -1.45888,-0.0794 -1.10602,-0.2972 -1.9455,0.12091 -0.0433,0.0215 -0.0869,0.11252 -0.123,0.0788 -0.0436,-0.0407 0.55394,-0.37659 0.62291,-0.41478 0.45926,-0.24327 0.96312,-0.35424 1.44936,-0.515 0.5051,-0.14432 1.00892,-0.29351 1.5132,-0.44201 0.4831,-0.14184 0.97639,-0.21628 1.46039,-0.35079 3.00642,-0.20185 0.84678,-0.25397 1.93714,-0.0115 0.0311,0.007 0.009,-0.0989 -0.0223,-0.10068 -0.41583,0.002 -0.83165,0.005 -1.24748,0.008 8e-4,0.007 0.002,0.0124 0.003,0.0186 0.016,-8.5e-4 0.0577,-0.0162 0.0479,-0.002 -0.0259,0.0359 -0.0761,0.0437 -0.10298,0.0787 -0.0152,0.0198 0.0442,-0.007 0.19149,-0.10025 0.0735,-0.0465 0.14589,-0.0952 0.21884,-0.14289 0.081,-0.0508 0.16192,-0.10155 0.24288,-0.15232 0.52621,-0.26216 1.0305,-0.56803 1.58554,-0.7553 0.18529,-0.0346 0.92742,-0.4462 1.01805,-0.25377 -0.27775,0.39399 -0.39278,0.9167 -0.62449,1.32868 -0.28861,0.51315 0.11062,-0.47655 0.19765,-0.74634 -0.14891,0.46513 -0.0478,-0.15121 -0.0289,0.052 -0.066,-0.15396 0.0948,0.71592 0.0723,0.50656 -0.0809,-0.18404 -0.13181,-1.63161 -0.0793,-0.53659 0.55809,1.39493 0.2238,1.04994 1.18091,1.88031 0.0796,0.069 0.15741,0.16356 0.25849,0.17723 0.39452,0.0534 0.79516,0.007 1.19253,0.019 0.10683,0.003 -0.21184,0.031 -0.31745,0.0488 -0.49435,0.0341 -0.95397,0.20446 -1.42031,0.3765 -0.85526,0.27275 -1.70221,0.57275 -2.5441,0.89095 -0.90861,0.30119 -1.80447,0.64407 -2.71501,0.93834 -0.95411,0.24228 -1.90111,0.5138 -2.84748,0.78918 -1.22817,0.33093 -2.4668,0.61516 -3.71114,0.86422 -0.92114,0.12548 -1.8318,0.44349 -2.76377,0.47862 -0.60437,0.0228 -1.20941,0.011 -1.81412,0.0165 -0.16633,0.004 -0.66361,-0.0143 -0.49898,0.0117 0.29792,0.0471 0.61663,-0.0526 0.90191,0.052 0.16045,0.0588 -0.33427,0.0595 -0.50039,0.0952 -0.74118,0.15925 -1.47607,0.35978 -2.21357,0.53767 -1.72486,0.42838 -3.48676,0.61478 -5.24633,0.77463 -1.77635,0.18142 -3.54681,0.41765 -5.32574,0.56981 -1.90157,0.10961 -3.80657,0.11091 -5.70815,0.22101 -1.33012,0.0689 -2.6527,0.2407 -3.97585,0.39597 -1.01288,0.12866 -2.02634,0.24805 -3.03925,0.37536 -1.05211,0.17459 -2.10181,0.36717 -3.15945,0.49808 -1.37987,0.1755 -2.76902,0.24539 -4.15624,0.31232 -1.85889,0.0451 -3.7182,-0.0289 -5.57666,-0.0775 -1.1136,-0.0318 -2.22816,0.0615 -3.34139,0.0437 -0.21803,-0.003 0.43605,-0.008 0.65408,-0.0121 -1.67343,0.0698 -3.32919,-0.19485 -4.99767,-0.24939 -1.38101,-0.0231 -2.76169,-0.041 -4.14269,-0.0754 -0.7547,-0.0946 -1.54143,0.0935 -2.29367,-0.0154 -0.20169,-0.0291 0.79982,0.0625 0.6102,-0.0177 -0.22326,-0.0945 -0.47884,-0.0182 -0.71823,-0.0279 -0.22496,-0.009 -0.44987,-0.0195 -0.67481,-0.0291 -0.91456,-0.0545 -1.83332,-0.0984 -2.74191,-0.23107 -0.43711,-0.0438 -0.87355,-0.0136 -1.3125,-0.0298 -0.62773,-0.19023 -1.23989,-0.49228 -1.84746,-0.76008 -0.58621,0.83677 -1.6746,-0.0646 -1.08839,-0.90137 v 0 c -0.0621,-0.32444 -0.19852,-0.6422 -0.1863,-0.97334 0.0196,-0.53214 0.57354,-1.34382 0.96142,-1.65372 0.6877,-0.37809 1.39329,-0.62052 2.16326,-0.71074 0.8843,-0.14404 1.777,-0.22787 2.6673,-0.31402 2.0015,-0.15027 4.01137,-0.16531 6.01382,-0.0223 1.36497,0.0972 2.728,0.21693 4.09183,0.32926 0.57084,0.0414 1.13908,0.0757 1.71134,0.0806 0.18922,0.002 0.37846,0.003 0.56766,-2.4e-4 0.19128,-0.003 0.75483,0.0476 0.57363,-0.019 -0.21953,-0.0808 -0.46328,-0.0171 -0.69491,-0.0256 1.7912,-0.0121 3.58042,0.004 5.37097,0.0585 0.20857,-0.002 0.41716,-0.002 0.6257,-0.007 0.21275,-0.004 0.78418,0.14951 0.63813,-0.0187 -0.15497,-0.17854 -0.72663,0.21351 -0.67695,-0.026 0.005,-0.0225 2.00853,-0.0612 2.19425,-0.0559 1.33495,0.007 2.66937,0.0306 4.00359,0.0805 0.97022,-0.0345 1.93347,-0.11551 2.89321,-0.28545 0.98591,-0.19869 1.97672,-0.36728 2.96165,-0.57188 1.33063,-0.2811 2.671,-0.50366 4.00154,-0.78564 1.98416,-0.3882 3.98117,-0.74194 6.005,-0.71466 1.69127,0.0341 3.39353,0.16929 5.07973,-0.008 1.64302,-0.25764 3.27181,-0.60536 4.9126,-0.87849 1.93541,-0.2648 3.88548,-0.48295 5.83932,-0.31854 -0.30999,0.01 -0.62128,-0.004 -0.92997,0.0283 -0.18484,0.0194 0.37213,0.0547 0.55641,0.0299 0.44949,-0.0607 0.87303,-0.25576 1.30506,-0.38974 1.26641,-0.40946 2.55437,-0.76067 3.86763,-0.93655 0.91303,-0.13801 1.82751,-0.26824 2.73747,-0.42765 0.84428,-0.17596 1.59043,-0.67114 2.41553,-0.91993 0.91602,-0.30869 1.81713,-0.67951 2.75702,-0.89695 0.74104,-0.17201 1.46717,-0.51995 2.23429,-0.50639 0.66409,-0.0143 1.2737,-0.0849 1.96594,-0.0207 0.17154,0.0159 0.34029,0.0879 0.48796,0.18405 1.08112,0.70456 0.83901,0.67909 1.4139,1.9961 0.0785,1.09661 0.01,0.41696 -0.0676,0.0283 0.11418,0.34032 0.14927,0.70932 0.15451,1.07322 -0.0178,0.5491 -0.12058,1.08644 -0.34135,1.58508 -0.21213,0.40236 -0.0316,-0.23367 -0.0348,-0.22724 -0.30043,0.6157 -0.40276,1.19534 -0.89492,1.65341 -0.53646,0.50122 -1.18024,0.86358 -1.88187,0.99992 -0.12258,0.0278 -0.31479,0.15157 -0.37452,0.032 -0.0134,-0.0269 0.053,-0.0717 0.0283,-0.0863 -0.0795,-0.0473 -0.34727,0.2194 -0.39196,0.22103 -0.58323,0.3063 -1.11235,0.75356 -1.74921,0.92108 -0.74447,0.18758 -0.50893,0.15265 -1.83928,0.11427 -0.0991,-0.003 -0.19083,-0.0582 -0.28606,-0.088 -0.0443,-0.0139 -0.17064,-0.0713 -0.1326,-0.043 0.0513,0.0383 0.11173,0.0752 0.17398,0.0738 0.49835,-0.0114 0.99456,-0.0747 1.49183,-0.11207 0.0295,-0.0114 0.0578,-0.0407 0.0886,-0.0343 0.0943,0.0194 -0.16064,0.11481 -0.24602,0.16239 -0.0949,0.053 -0.44461,0.21364 -0.52923,0.25059 -0.12282,0.0536 -0.24695,0.10362 -0.37043,0.15539 -0.55553,0.1775 -1.15862,0.3861 -1.74091,0.34981 -0.36272,0.0312 -0.69729,0.29376 -1.06221,0.2661 -0.36115,10e-4 -0.23059,-8.5e-4 -0.62683,0.19318 -0.97014,0.47522 -0.61731,0.24997 -2.1733,0.17587 0.0252,0.57807 1.82695,0.003 0.97097,0.25606 -0.10126,0.0299 -0.20251,0.0599 -0.30376,0.0899 -0.94058,0.2566 -1.8801,0.52366 -2.83582,0.70687 -0.75729,0.0913 -1.23635,0.41471 -1.92112,0.75567 -0.85031,0.35087 -1.73079,0.6049 -2.63641,0.72061 -0.8542,0.12273 -1.71002,0.23051 -2.56557,0.33695 -0.90123,0.23743 -1.77419,0.58995 -2.68573,0.78544 -1.78193,0.40617 -3.5794,0.75321 -5.40074,0.85819 -1.40181,0.064 -2.80422,0.0849 -4.20687,0.11592 -1.11961,0.0814 -2.23758,0.1817 -3.34616,0.3776 -1.1986,0.1969 -2.36844,0.48024 -3.49571,0.98416 -2.91959,1.08443 -5.911,1.97046 -8.99512,2.27241 -1.62905,0.11349 -2.54828,0.2179 -4.17405,0.17405 -0.62766,-0.017 -1.25355,-0.081 -1.87964,-0.13209 -1.64841,-0.13441 -3.10243,-0.0437 -4.51362,-0.98069 -2.38335,-0.73541 -1.42681,-4.40008 0.95653,-3.66469 z"
       inkscape:connector-curvature="0" />
    <path
       style="fill:#ffb380;fill-opacity:1;stroke:none;stroke-width:0.27588603;stroke-opacity:1"
       id="path895"
       d="m 186.23748,383.04419 c 0.48727,-1.33628 1.43207,-2.38901 2.45607,-3.26506 0.14255,0.0574 0.22484,-0.28294 0.37386,-0.26955 0.005,5.7e-4 -0.0836,0.59494 -0.10146,0.47224 -0.0134,-0.0922 0.0298,-0.1838 0.0447,-0.2757 0.103,-0.55742 0.43376,-0.9838 0.78845,-1.37659 -0.1439,0.1286 0.26714,-0.40766 0.29509,-0.44963 -0.007,0.0238 -0.0178,0.0467 -0.0199,0.0715 -0.006,0.0676 0.0698,-0.11262 0.10171,-0.17097 0.17384,-0.31819 0.36141,-0.55937 0.60013,-0.82423 0.1849,-0.16448 0.38969,-0.30459 0.59633,-0.43467 0.0608,-0.0353 0.11364,-0.11019 0.18249,-0.10601 0.0522,0.003 -0.084,0.0686 -0.11995,0.10982 -0.13992,0.16063 -0.28917,0.31435 -0.40677,0.4949 -0.18579,0.28524 -0.25178,0.61354 -0.29605,0.9492 0.24695,-2.54649 1.17411,-0.93967 3.99089,0.27507 -0.0758,0.9918 -0.55087,1.80901 -1.11993,2.55402 -0.40133,0.45178 -0.79437,0.91131 -1.18853,1.37035 -0.38599,0.47247 -0.78381,0.9351 -1.2303,1.34093 -0.35538,0.28254 -0.68091,0.68031 -1.10839,0.83428 -0.16688,0.0214 -0.31335,0.23506 -0.48765,0.38341 -0.10423,0.0898 -0.34703,0.32626 -0.50347,0.46165 -1.36439,1.01112 -0.0715,0.19414 -3.30379,-2.4852 -0.057,-0.0473 -0.0185,0.56744 -0.12507,0.16547 -0.21575,-1.22815 0.18034,-2.36359 0.77675,-3.38446 0.45899,-0.7012 1.05338,-1.27442 1.71838,-1.7344 0.33313,-0.36644 -0.0229,0.42164 -0.0258,0.33336 0.0206,-0.25515 0.0731,-0.51754 0.13708,-0.76821 0.11186,-0.35987 0.19505,-0.74296 0.41851,-1.04674 -0.0151,0.0165 0.0364,-0.0453 0.0399,-0.0285 0.003,0.0135 -0.0223,0.0407 -0.01,0.0401 3.78211,-0.17136 4.23824,0.60728 3.09136,-0.49812 -0.57679,-0.10764 -2.27268,-0.56201 -1.73035,-0.32291 0.64446,0.28412 1.39593,0.1831 2.0428,0.46065 0.55414,0.23776 0.90116,1.54541 1.01373,2.13764 0.12869,0.71626 0.11233,1.4468 0.0856,2.17185 0.0153,0.81813 -0.16572,1.58943 -0.44346,2.34191 -0.2225,0.58314 -0.59484,1.05659 -0.96625,1.52953 -0.2138,0.23465 -0.40673,0.48551 -0.59219,0.74688 -0.30105,0.42118 -0.6208,0.82313 -0.99355,1.17123 -0.28794,0.26402 -0.56616,0.53581 -0.8828,0.75915 -1.02025,0.7448 -1.21658,0.77057 -2.79933,0.25244 -0.12386,-0.0405 0.22854,-0.13551 0.32816,-0.22523 0.22226,-0.2002 0.42262,-0.42753 0.63393,-0.64128 -1.0758,0.47717 -1.69646,-1.177 -0.62067,-1.65418 v 0 c 0.31654,-0.23244 0.61342,-0.50017 0.9496,-0.69733 0.1774,-0.10405 0.76776,-0.12802 0.57667,-0.19776 -1.09291,-0.39882 -1.52483,-0.41261 -2.09173,0.0271 0.2903,-0.30649 0.6224,-0.54703 0.96824,-0.77236 0.22345,-0.13012 -0.0179,0.0975 0.1042,0.003 0.12078,-0.093 0.1561,-0.28478 0.27068,-0.38645 0.2447,-0.34941 0.51587,-0.67855 0.79573,-0.99491 0.12697,-0.13483 0.25514,-0.28096 0.35928,-0.42723 0.15903,-0.29011 0.13138,-0.67101 0.15693,-0.99277 0.0178,-0.4656 0.035,-0.93243 -2e-4,-1.39769 0.0199,-0.36197 0.26473,0.4364 0.52115,0.52204 0.60672,0.20262 2.09266,-0.29999 1.87683,0.34896 -0.21671,0.65163 -1.26071,-0.20412 -1.89106,-0.30618 -0.13113,-0.11182 -0.26298,-0.22266 -0.39339,-0.33549 -0.0574,-0.0496 -0.24219,-0.13876 -0.16988,-0.15182 0.96783,-0.1748 3.6279,-1.50246 3.20158,-0.29937 -0.17542,0.28576 0.14619,-0.36769 0.11304,-0.41264 0.0917,0.13053 -0.0828,0.78654 -0.0892,0.94694 -0.1867,0.72374 -0.46081,1.41424 -0.98543,1.92833 -0.28999,0.30049 -0.59895,0.57732 -0.8629,0.90684 -0.11362,0.14425 -0.1193,0.17271 -0.24442,0.27045 -0.0394,0.0308 -0.0993,0.0206 -0.13653,0.0544 -0.0648,0.0589 0.008,0.23828 -0.0342,0.27312 0.0213,0.43871 0.0381,0.86621 -0.0325,1.30259 -0.0277,0.17144 0.0284,0.58716 -0.11392,0.50731 -3.66479,-2.05685 -2.10836,-3.19907 -3.38141,-2.16973 -0.28964,0.30156 0.37713,-0.39421 0.39409,-0.40368 0.1195,-0.093 0.33288,-0.24243 0.48481,-0.47157 0.26314,-0.28213 0.57112,-0.49856 0.86448,-0.74156 0.27309,-0.24324 0.5795,-0.42121 0.76243,-0.7678 0.39827,-0.60503 0.81628,-1.20072 1.31649,-1.71143 0.12272,-0.10742 0.33429,-0.39847 0.41299,-0.25005 0.0287,0.0541 -0.0202,0.16136 0.0334,0.18405 0.0141,0.005 0.014,-0.0292 0.021,-0.0438 2.46156,0.78457 3.77974,2.42075 3.91382,0.18568 -0.0781,0.78039 -0.36278,1.36403 -0.95396,1.84464 -0.0256,0.0208 0.0519,-0.0406 0.0779,-0.0608 0.11183,-0.11149 -0.3433,0.25796 -0.40832,0.24487 0.21432,-0.3327 0.49564,-0.96381 0.1324,-0.14527 -0.25079,0.39094 -0.50567,0.7801 -0.83388,1.10106 -0.57368,0.50082 -0.24083,0.0401 -0.20761,-0.36997 0.002,-0.048 0.0219,-0.18906 0.007,-0.14392 -0.0375,0.11155 -0.0452,0.23256 -0.0749,0.34683 -0.11671,0.44849 -0.30694,0.87204 -0.52121,1.27375 -0.666,1.21547 -1.51477,2.34482 -2.65105,3.06661 -1.40052,2.21219 -4.27792,0.0587 -2.87741,-2.15346 z"
       inkscape:connector-curvature="0" />
    <path
       style="fill:#ffb380;fill-opacity:1;stroke:none;stroke-width:0.27588603;stroke-opacity:1"
       id="path899"
       d="m 56.909988,390.38157 c -1.316363,-0.16112 -2.558442,-0.74061 -3.627932,-1.57906 -0.970508,-0.93344 -1.037424,-1.26205 -1.173517,-2.74588 -0.0077,-0.0839 0.05326,-0.33235 0.03832,-0.24958 -0.03042,0.16861 -0.05653,0.3381 -0.0848,0.50716 -0.915101,0.2331 0.644927,1.40992 0.399164,1.57419 -0.04421,0.0296 -0.336987,-0.14243 -0.394367,-0.16178 -0.400746,-0.13037 -0.744133,-0.33599 -1.082074,-0.60497 -0.427972,-0.31346 -0.717704,-0.97118 -0.92782,-1.35226 0.115284,0.31592 -0.02739,-0.0113 -0.09229,-0.0303 -0.0176,-0.005 0.0056,0.0535 -0.0122,0.0578 -0.0453,0.0111 -0.07833,-0.0542 -0.118192,-0.0802 -0.468153,-0.46859 -0.69638,-1.10586 -0.883718,-1.75151 -0.11628,-0.47568 -0.14178,-0.96401 -0.114808,-1.45246 0.01164,-0.5508 0.06149,-1.07493 0.176765,-1.61555 0.305718,-0.93141 0.865862,-1.67627 1.624534,-2.20977 0.476623,-0.33279 1.001696,-0.56188 1.544,-0.73097 0.621786,-0.20636 1.262427,-0.32696 1.906555,-0.41233 1.153234,-0.15943 2.317332,-0.0556 3.475038,-0.0322 0.800253,-0.0479 1.583248,-0.003 2.373063,0.14291 0.448453,0.16612 1.379578,0.20015 1.725602,0.56289 0.126328,0.561 -0.08581,1.27846 -0.170087,1.80463 0.769853,0.21758 0.486833,1.40133 -0.28302,1.18373 v 0 c -0.334409,0.74032 -0.505502,1.40532 -1.22968,1.73736 -0.597008,0.0757 -1.187675,-0.0631 -1.785326,-0.0996 -0.671542,-0.0315 -1.344038,-0.0391 -2.014212,-0.10286 -0.42776,-0.0238 -1.589921,-0.009 0.394118,-1.9e-4 0.885492,0.003 -1.669918,-0.0507 -0.835586,0.003 -0.515882,0.037 -1.031705,0.0585 -1.548402,0.0731 -0.18636,0.0247 -0.388417,0.10514 -0.243176,-0.12004 -0.136258,0.0923 -0.206137,-0.0711 -0.159398,-0.23463 -0.0097,-0.36205 -0.03227,-0.49371 -0.03119,-0.0958 0.0371,0.0552 0.10567,0.43274 0.0627,0.33354 -0.05563,-0.11747 -0.264596,-0.51511 -0.06119,-0.22093 0.248452,0.33101 0.459272,0.68513 0.633465,1.06871 0.257914,0.56714 -0.110386,-0.25804 -0.217786,-0.3449 0.386524,0.13915 0.698561,0.43205 1.022503,0.68902 0.772642,0.69558 1.11228,1.24985 1.270826,2.43612 -0.189032,1.31632 0.03166,0.0805 -0.276318,-0.90973 -0.04382,-0.14089 -0.530553,-0.73983 -0.458094,-0.80562 0.05484,-0.0498 0.14278,0.007 0.21417,0.01 1.208148,0.28305 2.408748,0.77084 3.371521,1.63141 2.684373,1.85066 0.277199,5.97822 -2.407173,4.12756 z"
       inkscape:connector-curvature="0" />
    <path
       style="fill:#ffb380;fill-opacity:1;stroke:none;stroke-width:0.27588603;stroke-opacity:1"
       id="path901"
       d="m 188.74189,339.33303 c 1.00282,-0.27674 2.12694,-0.37292 3.12289,-0.003 -0.2385,0.024 -0.48052,0.0217 -0.7155,0.0722 -0.0313,0.007 -0.0432,0.0569 -0.0459,0.0914 -0.0893,1.14321 -0.10195,2.29402 -0.22939,3.43296 -0.006,0.0499 -0.26953,-0.0922 -0.26961,-0.10286 -0.009,-1.16334 0.06,-2.32584 0.09,-3.48876 0.24528,-0.0697 0.64085,-0.26286 0.88512,-0.0938 -0.30591,0.1783 -0.15448,0.0752 -0.52885,0.39578 -0.0299,0.0256 -0.0891,0.12088 -0.0873,0.0796 0.007,-0.16928 0.35788,-0.46968 0.44028,-0.55473 0.12062,-0.0265 0.34543,-0.34882 0.48688,-0.29746 0.0234,0.009 -0.0397,0.0318 -0.0586,0.0489 -0.0857,0.0777 -0.1869,0.13964 -0.25528,0.23553 -0.15127,0.21213 -0.26486,0.45307 -0.3973,0.6796 -0.0755,0.17869 -0.17037,0.49164 -0.26942,0.17313 -0.0367,-0.24439 -0.0315,-0.49198 -0.0398,-0.73826 0.003,-0.21423 0.0105,-0.42868 -0.005,-0.64251 -5.3e-4,-0.0256 -0.002,-0.10198 -10e-4,-0.0765 0.004,0.52713 0.1038,0.89805 0.3857,1.35538 0.55567,0.90148 0.22565,0.16424 0.35833,0.46763 -0.32278,-0.2179 -0.62459,-0.48782 -0.87535,-0.80011 -0.22507,-0.28031 -0.0792,-0.15954 -0.24036,-0.28033 -0.15459,-0.13571 -0.2447,-0.34047 -0.37564,-0.49551 -0.014,-0.0165 -0.007,0.0444 -0.0102,0.0665 0.064,0.27128 -0.40176,0.0359 -0.5008,-0.003 -0.43909,-0.21042 -0.86444,-0.4492 -1.3428,-0.52846 -0.49796,-0.0521 -0.99129,-0.0809 -1.48591,-0.173 -0.64061,-0.20779 -1.38171,-0.49843 -1.73595,-1.16063 -0.0486,-0.36529 0.24663,-0.58513 0.45286,-0.84054 -1.57625,-1.1416 -0.0914,-3.56526 1.48488,-2.42367 v 0 c 0.32597,-0.25315 0.59047,-0.45196 0.98751,-0.5315 0.39096,-0.0232 0.22227,-0.23455 0.62061,-0.19679 0.79874,0.0882 1.57542,0.27431 2.31219,0.63327 0.59228,0.30849 1.16896,0.6467 1.70705,1.05832 0.41686,0.31267 0.8072,0.66732 1.12616,1.09796 0.18812,0.25637 0.37808,0.50576 0.55192,0.77356 0.2138,0.38206 -0.13832,-0.15475 -0.31081,-0.20922 0.67766,0.54625 1.13619,1.34121 1.08295,2.28235 -0.0151,0.20977 -0.0159,0.4203 -0.0145,0.63062 -0.01,0.20794 1.5e-4,0.41711 -0.0146,0.62527 -0.0593,0.42391 -0.15201,0.83751 -0.3113,1.23224 -0.40089,0.70881 -0.26378,0.64159 -0.73373,1.03231 -0.0442,0.0367 -0.0952,0.0624 -0.14334,0.0928 -0.0128,0.008 -0.0269,0.0314 -0.0393,0.0225 -2.7e-4,-2.5e-4 0.0208,-0.0782 0.0216,-0.081 0.14124,-0.49566 -0.69984,0.55461 -0.94715,0.53941 -0.27336,0.11301 -0.56783,0.18825 -0.85672,0.0989 -0.0561,-1.14728 -0.12533,-2.29388 -0.16828,-3.44183 -0.002,-0.0576 0.14999,-0.1035 0.15346,-0.046 0.0696,1.15328 0.0959,2.31003 0.0935,3.46579 -7.9e-4,0.40323 -2.68865,-0.41598 -1.10152,0.17016 -1.01965,0.302 -2.13796,0.28891 -3.14036,-0.0774 -2.31974,-0.68275 -1.43169,-4.24963 0.88805,-3.56689 z"
       inkscape:connector-curvature="0" />
  </g>
  <g
     inkscape:groupmode="layer"
     id="layer1"
     inkscape:label="arm 1"
     style="display:inline">
    <path
       style="fill:#000000;fill-opacity:1;stroke:none;stroke-width:0.27588603;stroke-opacity:1"
       id="path849"
       d="m 58.717814,89.184498 c 0.420317,-0.01965 0.840306,-0.06677 1.260951,-0.05896 1.029105,0.0191 2.278166,0.190838 3.289605,0.332186 1.666589,0.232899 3.329829,0.500335 4.995137,0.744342 2.227472,0.259382 4.451543,0.544968 6.662955,0.935996 1.956972,0.507011 3.918206,0.892168 5.931042,0.946123 1.179399,-0.09583 2.615362,0.01433 3.768371,-0.224167 0.192087,-0.03973 -0.778669,-0.02526 -0.584663,-0.05177 0.470146,-0.06423 2.424073,-0.08329 2.898529,-0.09132 0.474506,0.0051 0.949044,0.0074 1.423519,0.01528 1.116965,0.01861 2.234914,0.007 3.350768,0.06429 1.550397,0.07961 3.101578,0.536726 4.62453,0.834872 0.809681,0.147498 1.6226,0.277652 2.445208,0.284798 0.240683,0.0021 0.960556,0.01326 0.721839,-0.02019 -0.366864,-0.05142 -0.748882,0.05658 -1.109255,-0.03411 -0.254921,-0.06415 0.522496,-0.03187 0.783743,-0.04781 2.368217,-0.225535 4.743717,-0.218185 7.118527,-0.218165 2.06636,0.193583 4.13576,0.122387 6.20304,0.0014 0.44158,-0.02704 0.89291,0.02281 1.32474,-0.08111 0.23424,-0.05638 -0.9543,-0.02498 -0.71725,-0.0651 0.46768,-0.07918 0.94592,-0.04084 1.41908,-0.05373 1.41676,-0.03861 2.8337,-0.02554 4.25066,-0.01657 2.95008,0.104649 5.90095,0.161252 8.85141,0.253678 0.97959,0.02359 1.95918,-0.007 2.93865,-0.01985 0.33171,-0.0043 1.32052,0.06034 0.99516,-0.01 -0.33859,-0.07322 -0.6936,-0.0495 -1.03564,0.0012 -0.3115,0.04622 0.62872,0.0083 0.94308,0.01248 1.48227,0.04719 2.96289,0.137755 4.44371,0.22037 1.82423,0.06897 3.64842,-0.0426 5.47208,0.007 0.7561,0.116866 4.43154,0.07206 0.79481,0.20479 0.33613,0.09274 0.66509,0.120385 1.00743,0.06982 1.46949,0.110541 2.89257,-0.181334 4.34063,-0.358332 -0.38481,-0.354575 2.22769,0.145614 1.73346,-0.185681 -0.31518,-0.211266 -0.76014,0.08105 -1.10977,-0.05143 -0.28935,-0.109632 0.6127,-0.0137 0.91905,-0.02083 2.2185,-0.05168 -0.41432,0.0082 1.76989,-0.04115 1.56892,-0.05205 3.13697,-0.15331 4.69925,-0.319638 1.64052,-0.157996 3.26709,-0.440805 4.90193,-0.650087 1.25518,-0.193007 2.52011,-0.196062 3.78272,-0.259206 1.13585,-0.210158 2.19935,-0.114148 3.3785,-0.116553 0.19948,-2.88e-4 0.78846,-0.09416 0.58961,-0.111378 -0.54545,-0.04724 -1.09421,-0.01919 -1.64132,-0.02877 1.15611,-0.183184 2.29714,-0.457496 3.4419,-0.708308 1.26662,-0.296543 2.55254,-0.474986 3.82313,-0.746013 1.05832,-0.292478 2.11811,-0.561061 3.1986,-0.736701 0.56319,-0.06599 1.10865,-0.216685 1.66,-0.344263 0.55335,-0.240904 1.09749,-0.502955 1.62473,-0.806314 0.63053,-0.358152 1.31893,-0.555175 1.97873,-0.832309 0.78608,-0.294712 1.55695,-0.634863 2.33667,-0.948606 0.99178,-0.460188 2.04134,-0.652238 3.10556,-0.764521 0.50182,0.04263 0.90287,-0.03122 1.3881,-0.176513 0.41467,-0.127513 0.58544,-0.250643 0.86169,0.174775 0.57869,0.899641 1.08887,1.85875 1.6337,2.787411 0.18879,-0.874482 1.32623,-0.584203 1.13745,0.290276 v 0 c 0.64358,1.245989 1.34207,1.957907 0.94275,3.317457 -0.13359,0.155705 -0.24246,0.341751 -0.40076,0.467115 -0.5368,0.425125 -1.39035,0.54746 -2.02996,0.444963 0.31893,-0.398733 -0.25242,0.201312 -0.4335,0.165586 -0.8294,0.318197 -1.67246,0.553865 -2.54697,0.675617 -0.73622,0.175209 -1.47944,0.343621 -2.19102,0.615925 -0.59406,0.189495 -1.16132,0.471908 -1.7665,0.627423 -0.49275,0.10727 -0.93067,0.377201 -1.37573,0.620948 -0.82156,0.496737 -1.67227,0.944081 -2.56737,1.262223 -1.00017,0.333834 -2.02142,0.487051 -3.03768,0.735642 -1.37727,0.494478 -2.74713,1.025233 -4.19124,1.248397 -1.43101,0.25123 -2.87131,0.468514 -4.31776,0.573206 -0.84928,0.01022 -1.69867,0.048 -2.54785,0.03055 -0.15829,-0.0033 -0.31108,-0.06432 -0.46725,-0.09252 -0.10641,-0.01921 -0.42815,-0.04552 -0.32036,-0.04966 0.57811,-0.02213 2.31358,-0.02736 1.73514,-0.03217 -1.26108,0.530538 -2.55536,0.930509 -3.89964,1.126838 -1.75302,0.25627 -3.51701,0.40124 -5.28316,0.50166 -1.56882,0.10416 -3.12197,0.35122 -4.67555,0.6052 -2.58375,0.32519 -5.21772,0.41737 -7.80021,0.0274 -0.77441,-0.10144 -4.13349,-0.51413 -0.56742,-0.36804 -0.32794,-0.0597 -0.64234,0.0327 -0.9646,0.10318 -1.5609,0.0437 -3.11953,0.13712 -4.68084,0.12806 -0.76695,-0.0111 -1.5331,-0.0437 -2.30011,-0.0459 -0.19004,-5.7e-4 -0.76017,-0.003 -0.57013,-0.002 0.44168,0.004 0.88337,0.005 1.32506,0.009 -1.44271,0.0838 -2.8848,0.18201 -4.32893,0.23416 -2.62763,0.0417 -5.25377,-0.002 -7.88082,-0.0426 -0.0285,5.7e-4 -1.99379,0.0334 -2.00225,0.0478 -0.17436,0.29672 1.24263,-0.14252 0.97049,0.0483 -0.3123,0.21901 -0.74263,0.0329 -1.11383,0.0522 -2.46536,0.12783 0.12548,0.0109 -2.47244,0.12233 -3.56774,0.12086 -7.14888,0.18369 -10.71104,-0.0994 -1.97143,-0.22045 -3.93141,-0.60058 -5.91346,-0.66118 0.37857,-0.005 0.7573,-0.002 1.13572,-0.0157 0.26082,-0.009 -0.5219,5.7e-4 -0.78283,0.003 -1.14543,0.0133 -2.28991,0.0709 -3.43495,0.10264 -2.577085,0.0626 -5.154,0.0458 -7.706528,-0.38922 -0.944345,-0.11937 -1.874517,-0.20977 -2.826824,-0.19717 -0.351112,0.004 -0.71773,-0.07404 -1.052769,0.0402 -0.260313,0.0888 1.083556,-0.0263 0.817637,0.04 -0.425995,0.10623 -0.872633,0.055 -1.30895,0.0825 -3.702764,0.22047 -7.459707,0.37088 -11.109118,-0.470642 -0.43933,-0.116337 -0.881735,-0.219723 -1.317993,-0.349014 -1.392592,-0.412714 -2.728198,-1.108894 -4.178734,-1.241677 -2.35001,-0.115147 -4.712718,0.301177 -7.058268,-0.09421 -2.961291,-0.408044 -6.101969,-0.921123 -8.704694,-2.633897 -0.343252,-0.225883 -0.64172,-0.523842 -0.962578,-0.785764 -3.55827,-2.190991 -0.708424,-7.662261 2.849843,-5.471269 z"
       inkscape:connector-curvature="0" />
    <path
       style="fill:#000000;fill-opacity:1;stroke:none;stroke-width:0.27588603;stroke-opacity:1"
       id="path851"
       d="m 57.219265,33.257226 c 1.801704,-2.631424 4.720216,-3.792674 7.499503,-4.731108 3.621672,-1.082966 7.356255,-1.609074 11.087044,-1.998239 3.193272,-0.306235 6.400485,-0.343229 9.603745,-0.384597 1.352077,-0.988031 3.099562,0.420792 4.5489,-0.0642 0.245771,-0.08224 -0.993122,-0.0023 -0.762657,-0.126243 0.388075,-0.20882 0.861235,-0.09919 1.290847,-0.157974 0.976696,-0.133638 1.951217,-0.285639 2.927908,-0.419302 3.295163,-0.493558 6.608505,-0.225716 9.913825,-0.08669 0.30374,0.05154 0.60802,0.09938 0.91121,0.154614 1.63055,0.297077 2.61245,0.268807 4.25468,0.0932 -0.32651,-0.05347 -1.18553,0.120151 -0.97954,-0.160433 0.24945,-0.339782 0.79575,-0.08662 1.19352,-0.131036 1.83077,-0.204411 3.65996,-0.359719 5.4969,-0.482432 3.54122,-0.253464 7.09263,-0.07569 10.63314,-0.310811 -0.26178,-0.02716 -1.03949,-0.008 -0.78535,-0.08147 0.48125,-0.139069 0.99351,-0.07564 1.48963,-0.12205 1.99711,-0.186818 3.98478,-0.392048 5.98742,-0.502189 1.95232,-0.05715 3.9119,-0.07016 5.86387,-0.01953 1.08137,0.02805 2.17633,0.180548 3.25677,0.253424 2.27084,0.20356 4.54498,0.294749 6.82252,0.232088 -0.32598,-0.01011 -1.29927,0.03003 -0.97792,-0.03032 0.3975,-0.07465 0.80674,-0.0088 1.2101,-0.01329 0.40548,-0.0046 0.81094,-0.01358 1.21644,-0.01389 1.85427,-0.0014 3.70978,0.09444 5.56186,0.164638 2.01344,0.432857 3.97065,0.91073 6.0228,1.065984 2.1689,-0.0036 4.3129,0.155826 6.4331,0.657125 1.84637,0.52125 3.52341,1.526144 5.35897,2.078164 1.7279,0.235729 3.45932,0.362296 5.1628,0.780881 1.83393,0.456601 3.0689,1.698635 4.40908,3.022378 0.42163,0.394028 0.91267,0.219371 1.42309,0.227787 0.95732,0.14428 1.8025,0.658246 2.61219,1.20135 0.40782,0.367925 0.84621,0.197529 1.30054,0.328222 0.48528,0.01634 0.86127,0.489121 1.30701,0.593598 -0.47923,-0.338869 0.6715,-0.132464 0.77277,-0.113055 0.73336,0.141319 1.29446,0.664656 1.91109,1.064452 -0.62218,-0.557701 0.0234,-0.248621 0.30478,-0.09921 1.04629,0.716857 1.51839,1.250699 0.80835,3.090609 -0.15217,0.394309 -0.7192,0.346317 -1.0788,0.519472 0.55763,1.709362 -1.66575,2.566781 -2.22338,0.857422 v 0 c -0.44592,-0.04528 -1.04597,-0.505257 -1.33774,-0.135841 -1.22325,1.548772 -0.12919,1.902301 0.46709,2.603492 0.0571,0.277021 -1.21549,-0.517517 -1.319,-0.585953 -0.83433,-0.440618 0.11798,0.109502 -0.15458,0.181351 -0.53977,-0.03364 -1.04653,-0.207806 -1.54577,-0.430875 -0.44057,-0.146128 -0.8947,-0.09343 -1.33601,-0.248795 -0.82693,-0.244355 -1.55385,-0.700153 -2.28968,-1.165602 -0.15451,0.02957 0.0344,0.112324 -0.13719,0.157036 -0.39005,0.10167 -0.82248,-0.07229 -1.20358,-0.106269 -1.575,-0.474957 -3.0174,-1.222544 -4.15419,-2.540057 -0.11398,-0.111352 -0.28046,-0.433452 -0.36927,-0.297682 -0.11272,0.172314 0.21383,0.114999 -0.14082,0.191415 -0.29081,0.06266 -0.71105,0.03854 -0.98094,0.03779 -2.20334,-0.118222 -4.38922,-0.502215 -6.42912,-1.457574 -1.31415,-0.602817 -2.59961,-1.364692 -4.067,-1.314041 -2.21421,-0.02955 -4.44172,0.0036 -6.618,-0.52719 -1.71108,-0.405784 -3.41522,-1.050752 -5.1892,-0.878293 0.41188,0.01961 0.86148,-0.129337 1.23565,0.0589 0.30801,0.154946 -0.67816,0.03119 -1.01705,0.05108 -2.39315,0.140377 -4.78766,0.2553 -7.18605,0.158363 -2.40608,-0.110891 -4.80063,-0.328391 -7.18733,-0.684181 -0.8072,-0.08078 -1.07497,-0.126198 -1.87603,-0.135076 -0.29763,-0.0033 -1.18936,-0.0083 -0.89275,0.01861 0.39969,0.03623 0.82437,-0.133681 1.20321,0.0096 0.64819,0.245028 -2.91059,-0.103747 -2.04733,0.235371 -3.91927,0.674578 -7.8436,1.337623 -11.83281,1.108611 -0.52912,-0.03314 -1.0583,-0.06487 -1.58734,-0.09943 -0.45867,-0.02997 -0.93363,0.04187 -1.37578,-0.09415 -0.28273,-0.08698 1.16412,0.02255 0.87988,-0.05841 -0.38544,-0.109788 -0.79655,-0.03321 -1.19499,-0.03135 -0.95174,0.0045 -1.42506,0.06456 -2.38033,0.14591 -3.55778,0.397656 -7.10744,0.766679 -10.68917,0.358278 -1.67704,-0.258051 -3.35483,-0.734999 -5.0562,-0.61709 0.41473,0.02422 0.86214,-0.104497 1.24419,0.07262 0.26493,0.122824 -0.57254,0.06879 -0.85849,0.106193 -1.767188,0.231158 -3.5264,0.534281 -5.300111,0.705117 -1.649905,0.12997 -3.292031,0.227857 -4.947431,0.202754 -1.148283,-0.01741 -2.296533,-0.04359 -3.444306,-0.08476 -0.405759,-0.01456 -0.822695,0.0288 -1.215583,-0.08239 -0.272944,-0.07725 0.563915,-0.01482 0.84587,-0.02224 -2.980647,0.123792 -5.902282,0.795591 -8.864404,1.137773 -1.574506,0.163663 -2.419395,0.271994 -4.006257,0.353321 -2.160601,0.110734 -4.326924,0.0356 -6.485572,0.195963 -1.019477,0.191914 -1.229625,0.191402 -2.218238,0.538176 -1.488816,0.522227 -2.890475,1.355385 -4.450374,1.624878 -3.246993,3.289456 -7.525623,-1.703188 -4.278629,-4.992647 z"
       inkscape:connector-curvature="0" />
  </g>
</svg>
