<?xml version="1.0" encoding="UTF-8" standalone="no"?>
<!-- Created with Inkscape (http://www.inkscape.org/) -->

<svg
   xmlns:dc="http://purl.org/dc/elements/1.1/"
   xmlns:cc="http://creativecommons.org/ns#"
   xmlns:rdf="http://www.w3.org/1999/02/22-rdf-syntax-ns#"
   xmlns:svg="http://www.w3.org/2000/svg"
   xmlns="http://www.w3.org/2000/svg"
   xmlns:sodipodi="http://sodipodi.sourceforge.net/DTD/sodipodi-0.dtd"
   xmlns:inkscape="http://www.inkscape.org/namespaces/inkscape"
   width="1024"
   height="1024"
   viewBox="0 0 135.46667 135.46667"
   version="1.1"
   id="svg8"
   inkscape:version="0.92.4 (5da689c313, 2019-01-14)"
   sodipodi:docname="stick.svg"
   inkscape:export-filename="C:\Users\panu-\PycharmProjects\nextgame\data\images\icons\l.png"
   inkscape:export-xdpi="10.923292"
   inkscape:export-ydpi="10.923292">
  <defs
     id="defs2">
    <inkscape:perspective
       sodipodi:type="inkscape:persp3d"
       inkscape:vp_x="-71.838595 : 81.722957 : 1"
       inkscape:vp_y="0 : 1000 : 0"
       inkscape:vp_z="121.09896 : 130.87568 : 1"
       inkscape:persp3d-origin="55.634203 : 78.42817 : 1"
       id="perspective924" />
  </defs>
  <sodipodi:namedview
     id="base"
     pagecolor="#ffffff"
     bordercolor="#666666"
     borderopacity="1.0"
     inkscape:pageopacity="0.0"
     inkscape:pageshadow="2"
     inkscape:zoom="0.34988737"
     inkscape:cx="507.7486"
     inkscape:cy="682.40504"
     inkscape:document-units="mm"
     inkscape:current-layer="layer1"
     showgrid="false"
     units="px"
     width="1024px"
     inkscape:window-width="2560"
     inkscape:window-height="1361"
     inkscape:window-x="-9"
     inkscape:window-y="-9"
     inkscape:window-maximized="1"
     inkscape:snap-global="false" />
  <metadata
     id="metadata5">
    <rdf:RDF>
      <cc:Work
         rdf:about="">
        <dc:format>image/svg+xml</dc:format>
        <dc:type
           rdf:resource="http://purl.org/dc/dcmitype/StillImage" />
        <dc:title />
      </cc:Work>
    </rdf:RDF>
  </metadata>
  <g
     inkscape:groupmode="layer"
     id="layer2"
     inkscape:label="bg 1"
     sodipodi:insensitive="true">
    <path
       style="fill:#808080;fill-opacity:1;stroke:none;stroke-width:1.32291675;stroke-opacity:1"
       d="m 585.70508,204.87891 c -1.27261,-0.006 -6.8931,0.4246 -6.01172,0.25 -4.07601,0.54674 -8.15269,1.08209 -12.25,1.41992 -6.23472,0.51409 -18.43239,0.41579 -25.26758,0.41601 -8.8766,-0.38906 -17.76668,-0.42794 -26.65039,-0.46679 -2.03006,-0.009 -4.06227,0.075 -6.0918,0.0566 -3.51255,0.17824 -9.56246,0.56428 -13.24414,0.4082 -2.01506,-0.0854 -4.01367,-0.44652 -6.02929,-0.51758 -1.57899,-0.0559 -3.15832,0.13285 -4.73828,0.13867 -5.83372,0.0212 -11.66626,-0.0842 -17.5,-0.082 -11.75995,0.17439 -23.52223,0.12861 -35.28321,0.0918 -3.89561,-0.004 -7.79156,-9.6e-4 -11.6875,0 v 524.58594 c 0,50.99291 42.92665,92.04492 96.24805,92.04492 53.32139,0 96.24805,-41.05201 96.24805,-92.04492 V 205.51562 c -3.24602,-0.01 -6.49908,-0.10825 -9.73243,-0.16406 -13.66837,-0.23592 -7.21385,-0.14419 -18.58789,-0.2832 0.94404,-0.13742 1.00233,-0.18755 0.57813,-0.18945 z"
       transform="scale(0.13229167)"
       id="rect856"
       inkscape:connector-curvature="0" />
    <rect
       style="fill:#666666;fill-opacity:1;stroke:none;stroke-width:0.11482182;stroke-opacity:1"
       id="rect856-7"
       width="25.465618"
       height="43.846313"
       x="55.710217"
       y="39.352341"
       ry="5.2414498"
       rx="12.732809" />
  </g>
  <g
     inkscape:groupmode="layer"
     id="layer5"
     inkscape:label="bg"
     style="display:inline"
     sodipodi:insensitive="true">
    <ellipse
       style="fill:#808080;fill-opacity:1;stroke:none;stroke-width:0.13229167;stroke-opacity:1"
       id="path827"
       cx="67.507286"
       cy="46.303585"
       rx="56.010994"
       ry="23.126257" />
    <ellipse
       style="display:inline;fill:#666666;fill-opacity:1;stroke:none;stroke-width:0.08870424;stroke-opacity:1"
       id="path827-0"
       cx="67.366653"
       cy="43.362675"
       rx="37.556503"
       ry="15.506624" />
  </g>
  <g
     inkscape:groupmode="layer"
     id="layer1"
     inkscape:label="text"
     style="display:inline">
    <text
       xml:space="preserve"
       style="font-style:normal;font-weight:normal;font-size:13.93244839px;line-height:1.25;font-family:sans-serif;letter-spacing:0px;word-spacing:0px;fill:#99ff55;fill-opacity:1;stroke:none;stroke-width:0.34831122"
       x="37.008114"
       y="74.000214"
       id="text914"
       transform="scale(1.2263636,0.81541885)"><tspan
         sodipodi:role="line"
         id="tspan912"
         x="37.008114"
         y="74.000214"
         style="font-weight:bold;font-size:58.05187988px;fill:#b3b3b3;stroke-width:0.34831122">L</tspan></text>
  </g>
</svg>
