<?xml version="1.0" encoding="UTF-8" standalone="no"?>
<!-- Created with Inkscape (http://www.inkscape.org/) -->

<svg
   xmlns:dc="http://purl.org/dc/elements/1.1/"
   xmlns:cc="http://creativecommons.org/ns#"
   xmlns:rdf="http://www.w3.org/1999/02/22-rdf-syntax-ns#"
   xmlns:svg="http://www.w3.org/2000/svg"
   xmlns="http://www.w3.org/2000/svg"
   xmlns:sodipodi="http://sodipodi.sourceforge.net/DTD/sodipodi-0.dtd"
   xmlns:inkscape="http://www.inkscape.org/namespaces/inkscape"
   width="256"
   height="256"
   viewBox="0 0 67.733335 67.733335"
   version="1.1"
   id="svg8"
   inkscape:version="0.92.4 (5da689c313, 2019-01-14)"
   sodipodi:docname="elbo_suit.svg"
   inkscape:export-filename="C:\Users\panu-\PycharmProjects\nextgame\data\images\elbow_suit.png"
   inkscape:export-xdpi="10.173375"
   inkscape:export-ydpi="10.173375">
  <defs
     id="defs2" />
  <sodipodi:namedview
     id="base"
     pagecolor="#ffffff"
     bordercolor="#666666"
     borderopacity="1.0"
     inkscape:pageopacity="0.0"
     inkscape:pageshadow="2"
     inkscape:zoom="0.98963092"
     inkscape:cx="345.70637"
     inkscape:cy="139.11603"
     inkscape:document-units="mm"
     inkscape:current-layer="layer6"
     showgrid="false"
     units="px"
     width="1024px"
     inkscape:window-width="1920"
     inkscape:window-height="1017"
     inkscape:window-x="-8"
     inkscape:window-y="-8"
     inkscape:window-maximized="1"
     inkscape:pagecheckerboard="true"
     showguides="false" />
  <metadata
     id="metadata5">
    <rdf:RDF>
      <cc:Work
         rdf:about="">
        <dc:format>image/svg+xml</dc:format>
        <dc:type
           rdf:resource="http://purl.org/dc/dcmitype/StillImage" />
        <dc:title></dc:title>
      </cc:Work>
    </rdf:RDF>
  </metadata>
  <g
     inkscape:groupmode="layer"
     id="layer6"
     inkscape:label="arm_color"
     transform="translate(0,-364.06667)">
    <path
       style="fill:#333333;fill-opacity:1;stroke:none;stroke-width:0.26735559;stroke-opacity:1"
       d="m 23.85769,367.48864 c -0.637165,0.24783 -1.146242,0.61771 -1.876711,0.65429 -3.04731,1.41244 -6.136984,3.05774 -8.523004,5.45259 -2.768563,3.87334 -5.3621441,7.98036 -7.0624677,12.44248 -1.3861283,5.44225 -1.562862,11.16084 -1.1890005,16.73948 1.0480463,3.83397 2.7409299,7.52113 4.7758455,10.93077 2.7906587,3.6083 6.2606977,6.73825 10.3897927,8.73867 2.511812,1.28173 4.981668,2.82605 7.632653,3.71554 3.734874,0.0591 7.549972,0.0592 11.231578,0.41071 4.727205,-2.55705 9.727197,-4.63913 14.317625,-7.46506 4.061365,-2.84898 6.710426,-7.27477 8.861372,-11.64877 2.039784,-4.26921 0.939247,-9.13091 0.894125,-13.66115 -0.22307,-4.10879 -0.779986,-8.48664 -3.571772,-11.72783 -1.144087,-1.97643 -2.693566,-3.63156 -4.593693,-4.88538 -4.518186,-3.79724 -9.684575,-7.48906 -15.694085,-8.2285 -4.872361,-0.36682 -9.822537,0.20329 -14.616306,-0.60154 -0.01942,-0.49833 -0.479634,-0.90463 -0.975952,-0.8663 z"
       id="path836"
       inkscape:connector-curvature="0" />
    <path
       style="fill:#1a1a1a;fill-opacity:1;stroke:none;stroke-width:0.26458332;stroke-opacity:1"
       id="path838"
       d="m 26.093297,372.6757 c -1.076735,0.76172 -2.389788,1.04445 -3.604514,1.51161 -0.853646,0.42472 -1.435338,1.20609 -2.057265,1.90218 -0.707837,0.75962 -1.312968,1.60081 -1.895313,2.45764 -0.648436,0.96001 -1.302991,1.91585 -1.894639,2.91232 -0.568722,0.99791 -1.131139,1.99946 -1.690108,3.0029 -0.584269,0.95858 -0.984504,1.99918 -1.306674,3.06948 -0.342546,1.22286 -0.74911,2.42538 -1.043953,3.66108 -0.291783,1.32171 -0.526286,2.65506 -0.820484,3.97647 -0.23617,0.73771 -0.278074,1.45899 -0.189608,2.21892 0.160229,1.1518 0.245533,2.30964 0.268816,3.47175 0.0283,1.15712 -0.06694,2.31032 -0.160927,3.46219 -0.07534,0.55155 0.172167,0.91286 0.44486,1.36084 0.463155,0.80122 0.875538,1.62775 1.279559,2.45958 0.225907,0.51349 0.378103,1.06145 0.741206,1.49823 0.558483,0.44845 1.058183,0.95967 1.544683,1.48357 0.642601,0.66725 1.215403,1.39817 1.775886,2.13459 0.346136,0.55163 0.730665,0.72438 1.26039,1.03418 0.778973,0.47276 1.477796,1.06048 2.155912,1.6655 0.422355,0.35317 0.78131,0.78628 1.222992,1.11625 0.311772,0.1471 0.629568,0.25202 0.944655,0.39846 0.669737,0.27254 1.322898,0.58417 1.975699,0.89464 0.380585,0.18923 0.760773,0.38458 1.183616,0.43601 0.836769,0.0606 1.663989,0.18519 2.48693,0.34616 0.893308,0.18437 1.7476,0.51554 2.633147,0.7285 0.659622,0.096 1.326806,0.14078 1.989575,0.22154 0.91205,0.10502 1.83308,0.0171 2.74836,0.002 -2.28882,0.0123 0.31302,0.1248 0.77137,0.0976 1.318,-0.0191 2.63607,-0.11407 3.95464,-0.14709 -0.36604,0.004 1.3686,-0.0189 1.02702,0.004 -0.30025,0.0201 -0.60287,-0.009 -0.9026,0.0176 -0.15003,0.0134 0.30095,0.0138 0.45132,0.0227 0.39696,0.0235 0.39079,0.0263 0.76918,0.0634 0.53971,0.075 0.35164,0.22491 0.87201,-0.0202 0.65363,-0.31122 1.34262,-0.55242 2.05231,-0.6975 0.55157,-0.21871 0.98632,-0.731 1.42836,-1.11906 0.56834,-0.44943 1.16754,-0.84971 1.69528,-1.34784 0.61736,-0.66655 1.22015,-1.34482 1.86393,-1.9867 0.63158,-0.63973 1.3168,-1.21985 2.01261,-1.78741 0.44168,-0.36606 0.94572,-0.64268 1.40996,-0.97547 0.509,-0.46534 0.99838,-0.95172 1.50214,-1.42281 0.61161,-0.52304 1.16088,-1.11171 1.73566,-1.67328 0.25838,-0.16717 0.7919,-0.85067 1.09277,-0.88251 0.22629,-0.37072 0.39865,-0.77901 0.60311,-1.16497 0.24565,-0.4863 0.58239,-0.92749 0.78949,-1.43292 0.15213,-0.58097 0.20897,-1.18203 0.28263,-1.77668 0.10864,-0.76417 0.11371,-1.53597 0.0943,-2.30577 -0.0454,-0.76571 -0.0169,-1.53507 -0.0966,-2.29837 -0.0581,-0.65427 -0.27294,-1.26901 -0.47544,-1.88793 -0.43183,-1.07873 -0.65966,-2.20309 -0.78811,-3.35373 -0.0814,-0.79459 -0.041,-1.6064 -0.29782,-2.37097 -0.34669,-0.73416 -0.6632,-1.47484 -0.89117,-2.25475 -0.19951,-0.75556 -0.31095,-1.52517 -0.63167,-2.24223 -0.38868,-0.7534 -0.80696,-1.49113 -1.17009,-2.2574 -0.24068,-0.29652 -0.43848,-1.41056 -0.68743,-1.61182 -0.30725,-0.0377 -0.57953,-0.36524 -0.79391,-0.54967 -1.18965,-1.02353 0.56388,0.52198 -0.74961,-0.64207 -0.65944,-0.61618 -1.33011,-1.22415 -2.03428,-1.78928 -0.53913,-0.45971 -1.17301,-0.78757 -1.78995,-1.12904 -0.83586,-0.47068 -1.59311,-1.06435 -2.28126,-1.7298 -0.23777,-0.30523 -0.45243,-0.46067 -0.80633,-0.56348 -0.6834,-0.27515 -1.32289,-0.6351 -1.92437,-1.0585 -0.25227,-0.17605 -0.47719,-0.38835 -0.72197,-0.57374 -0.046,-0.0349 -0.23729,-0.23468 -0.1736,-0.0704 -0.26885,0.16214 -1.28917,-0.40348 -1.54994,-0.52841 -0.57154,-0.22507 -1.06032,-0.64409 -1.65616,-0.80699 -0.46574,-0.0967 -0.92726,-0.21449 -1.3899,-0.32774 -0.58844,-0.10884 -1.18688,-0.11428 -1.78144,-0.15975 -0.61931,-0.0943 -1.24205,-0.16212 -1.86371,-0.23809 -0.66227,-0.0442 -1.31925,-0.14446 -1.980319,-0.1981 -0.657977,-0.0367 -1.314173,-0.0526 -1.969585,-0.12817 -0.08765,-0.006 -0.422929,-0.0279 -0.520978,-0.031 -0.07477,-0.002 -0.299225,-0.002 -0.224417,-0.002 2.384004,0.004 1.266116,0.002 0.741889,-0.002 -0.63264,-0.007 -1.255125,0.15139 -1.885569,0.17135 -0.702791,0.0223 -1.406086,0.0237 -2.109131,0.0356 -0.586346,0.0313 -1.174398,0.0401 -1.760932,0.007 -0.166605,-0.009 -0.66435,-0.0175 -0.498999,-0.0399 0.972878,-0.13197 1.646182,0.0557 0.932852,-0.11627 -0.392879,-0.1478 0.03905,-0.44523 -0.208782,-0.31406 -0.46536,0.31447 -0.984922,0.51987 -1.524225,0.6662 -0.443429,0.0831 -0.882986,0.17905 -1.307407,0.33289 -0.665231,0.3013 -1.318181,0.63003 -1.965389,0.96846 -0.583475,0.28631 -1.169749,0.5559 -1.711811,0.91489 -0.505265,0.35412 -0.922248,0.81133 -1.366303,1.23521 -0.429625,0.37549 -0.80391,0.79462 -1.113026,1.27326 -0.407535,0.66372 -0.734311,1.37356 -1.117539,2.05191 -0.330012,0.47264 -0.533545,0.99806 -0.724511,1.53744 -0.293164,0.91123 -0.760127,1.74599 -1.24119,2.5681 -0.419446,0.65156 -0.747363,1.34811 -1.020691,2.0711 -0.26253,0.75458 -0.417462,1.54051 -0.637484,2.30808 -0.197011,0.68588 -0.495422,1.3304 -0.819748,1.96315 -0.131371,0.44168 -0.216022,0.89707 -0.293402,1.351 -0.11208,0.642 -0.214209,1.28294 -0.260911,1.93334 -0.07386,0.68394 -0.07845,1.37079 -0.07263,2.0577 0.0071,0.78732 -0.05283,1.5703 -0.151109,2.3506 -0.08172,0.60601 -0.06581,1.21677 -0.03194,1.82531 0.07395,0.87239 0.04769,1.74796 0.123441,2.61986 0.139708,0.67395 0.500952,1.26123 0.871165,1.83009 0.547237,0.7857 1.090324,1.57288 1.607552,2.37866 0.31736,0.45899 0.551903,0.99141 0.92274,1.41253 0.284663,0.31424 0.630944,0.56517 0.953503,0.83889 0.557427,0.40205 1.020654,0.91443 1.479306,1.42186 0.320141,0.34142 0.678874,0.65748 1.058027,0.93332 0.496586,0.39882 0.892791,0.89794 1.290098,1.39094 0.231894,0.32415 0.496075,0.61381 0.765042,0.90669 0.459597,0.39413 0.853581,0.84619 1.216681,1.33002 0.164405,0.25858 0.371092,0.48564 0.584364,0.66181 0.522677,0.3073 0.998541,0.75258 1.467385,1.14566 0.682458,0.51902 1.283311,1.12978 1.898899,1.72339 0.350321,0.28557 0.734152,0.54181 1.138801,0.74506 0.676322,0.24557 1.335635,0.53592 2.002517,0.80743 0.948978,0.32104 1.884786,0.67372 2.813312,1.04954 0.692576,0.28428 1.291765,0.74298 1.967735,1.05798 0.503484,0.18083 1.033059,0.26861 1.551809,0.39503 0.8268,0.19055 1.65176,0.38858 2.481,0.56948 0.62061,0.15986 1.26654,0.16741 1.89562,0.27299 0.37649,0.0786 0.7494,0.12231 1.13182,0.081 0.60693,-0.0771 0.16614,-0.0112 -0.93082,-0.0422 -0.0881,-0.002 0.17624,-0.005 0.26428,-0.009 0.31198,-0.0155 0.62324,-0.0349 0.93549,-0.0465 0.78564,0.0188 1.57814,-0.0318 2.36088,0.0149 0.3848,0.023 -0.77131,0.002 -1.15622,0.0234 -0.0802,0.004 0.16513,0.0271 0.22868,0.0763 -0.17891,0.23215 -0.35779,0.45924 -0.52224,0.7036 -1.04446,2.11678 -0.51972,0.49877 2.9261,4.10954 0.016,0.0168 -0.0354,-0.0434 -0.0581,-0.0384 -0.0878,0.0193 -0.16758,0.0751 -0.25729,0.0808 -0.57106,0.0364 -1.14405,0.03 -1.71608,0.0451 -0.66625,0.10967 -1.33611,0.1643 -2.01089,0.19209 -0.99475,0.003 -1.98925,-0.0237 -2.98345,-0.0543 -1.16549,-0.0401 -2.33355,-0.11915 -3.484073,-0.31339 -1.008666,-0.18855 -1.973072,-0.549 -2.959156,-0.82623 -1.153784,-0.24288 -2.278353,-0.54632 -3.383071,-0.95951 -0.940742,-0.33469 -1.733507,-0.90972 -2.534287,-1.48237 -0.661528,-0.27888 -1.334485,-0.52749 -1.99113,-0.82789 -0.940107,-0.44532 -1.769737,-1.06524 -2.567594,-1.72365 -0.243776,-0.23726 -0.578683,-0.3032 -0.898432,-0.42547 -0.765146,-0.2815 -1.501256,-0.64217 -2.18934,-1.07908 -0.571566,-0.31864 -0.980903,-0.8307 -1.453499,-1.26631 -0.3005,-0.30706 -0.672295,-0.50554 -1.04372,-0.71007 -0.373833,-0.21512 -0.777015,-0.36023 -1.166897,-0.54011 -0.639636,-0.31935 -1.303753,-0.58575 -1.922127,-0.94563 -0.638969,-0.35342 -1.1331412,-0.88974 -1.6307862,-1.41085 -0.291999,-0.24173 -0.533087,-0.55862 -0.893754,-0.69711 -0.749758,-0.39972 -1.474298,-0.84542 -2.177005,-1.32281 -0.784799,-0.48966 -1.278726,-1.18491 -1.726515,-1.97174 -0.09567,-0.32573 -0.205819,-0.64755 -0.287014,-0.97718 -0.179314,-0.72797 0.120134,-0.0188 -0.171591,0.0539 -0.499126,-0.48636 -0.740426,-1.15088 -0.918779,-1.80832 -0.15844,-0.46748 -0.0898,-1.0289 -0.318471,-1.47302 -0.1935,-0.52792 -0.23682,-0.53814 0.128913,-0.0207 1.633003,-3.21355 0.538515,-3.43789 2.411278,-2.32805 0.555461,-0.58945 1.389062,0.19609 0.833601,0.78554 v 0 c 0.601549,1.95226 0.188101,1.39239 1.371844,-1.57404 0.510011,0.67849 0.904581,1.40263 0.976273,2.26655 0.01767,0.20268 -2.65e-4,0.82113 0.07313,0.57647 0.244409,-0.0213 0.709737,1.09628 0.803275,1.29047 0.05838,0.17351 0.455163,1.55831 0.331206,1.63676 -0.05233,0.0331 -0.0074,-0.12458 -0.02408,-0.18421 -0.07973,-0.2842 -0.176445,-0.56336 -0.264668,-0.84504 -0.0712,-0.13254 -0.15735,-0.25807 -0.213608,-0.3976 -0.04194,-0.10404 0.08501,-0.10769 0.136324,-0.0932 0.39266,0.11121 0.7219022,0.39762 1.0747352,0.58566 0.798449,0.54949 1.554011,1.15764 2.217078,1.86777 0.309285,0.33395 0.623562,0.6599 0.978165,0.94656 0.289245,0.20661 0.637037,0.28744 0.944819,0.46226 0.557128,0.27175 1.081283,0.60494 1.638771,0.8762 0.635373,0.3081 1.260692,0.64947 1.824291,1.07704 0.447569,0.35922 0.857613,0.75258 1.247646,1.17317 0.251298,0.20547 0.603699,0.13705 0.890778,0.35228 0.627475,0.2832 1.228307,0.62532 1.798269,1.01151 0.459269,0.28109 0.988799,0.43069 1.466268,0.67941 0.843323,0.42277 1.673268,0.86956 2.457088,1.39688 0.582446,0.37713 1.165018,0.76109 1.788858,1.06685 0.715002,0.27113 1.49334,0.37131 2.201839,0.67272 0.993161,0.33871 1.990561,0.66437 2.976917,1.02288 0.740081,0.22151 1.482011,0.36317 2.258511,0.36609 1.03459,0.0647 2.06561,0.18646 3.10132,0.24072 0.9276,0.0518 1.856,0.0752 2.78492,0.0884 0.68597,0.0348 1.38679,0.069 2.03975,0.30245 -0.4987,0.0179 -0.99856,0.0155 -1.49611,0.0538 -0.0466,0.004 -0.0926,0.0337 -0.12106,0.0708 -0.13173,0.17211 0.17278,-0.15274 0.24854,-0.0846 3.82313,3.4367 4.25458,1.92952 3.18054,4.14101 -0.46868,0.62417 -1.06231,1.08809 -1.8141,1.33322 -0.86982,0.23477 -1.30877,0.11263 -2.38228,0.18683 -0.36619,0.0253 0.73417,0.002 1.10118,0.009 0.20961,0.004 -0.8522,0.008 -0.62887,0.009 -1.04535,-0.0258 -2.09488,-0.0428 -3.13761,-0.076 -0.44953,-0.0475 -0.89628,-0.0636 -1.34778,-0.021 -0.92374,0.027 -1.8363,-0.14144 -2.73416,-0.34441 -0.933496,-0.22133 -1.850505,-0.49922 -2.745392,-0.84665 -0.634862,-0.24089 -1.263814,-0.49533 -1.888474,-0.7616 -0.641098,-0.25396 -1.292653,-0.47035 -1.959633,-0.64697 -1.092703,-0.36669 -2.171259,-0.772 -3.174114,-1.34841 -0.73375,-0.40613 -1.475187,-0.80149 -2.173793,-1.26682 -0.619408,-0.41077 -1.287867,-0.74716 -1.860222,-1.2285 -0.748355,-0.59508 -1.469313,-1.22597 -2.085858,-1.96051 -0.295466,-0.34855 -0.541856,-0.70425 -0.926566,-0.95476 -0.530601,-0.41198 -0.985337,-0.90874 -1.408628,-1.42853 -0.335905,-0.40613 -0.662752,-0.82051 -0.975262,-1.24492 -0.226214,-0.29554 -0.472771,-0.56823 -0.743403,-0.82374 -0.264692,-0.26917 -0.537451,-0.51641 -0.851381,-0.73005 -0.514522,-0.43909 -1.024266,-0.88274 -1.489491,-1.37505 -0.411072,-0.4026 -0.83081,-0.79623 -1.237924,-1.20277 -0.3857712,-0.37939 -0.7639692,-0.76641 -1.1538852,-1.14155 -0.554739,-0.57855 -1.080429,-1.18105 -1.547635,-1.83362 -0.666621,-0.87584 -1.359318,-1.73763 -1.900061,-2.70032 -0.652901,-1.20982 -1.184026,-2.48264 -1.362064,-3.85747 -0.128437,-1.08397 -0.152352,-2.17306 -0.04353,-3.26099 0.06222,-0.70543 0.145487,-1.4094 0.151122,-2.11858 0.02681,-0.61297 0.06357,-1.22601 0.04587,-1.83991 -0.02806,-0.86831 -0.03075,-1.73874 0.05443,-2.6044 0.0859,-0.83819 0.212257,-1.67235 0.410856,-2.49193 0.16556,-0.6838 0.35053,-1.36132 0.570063,-2.03001 0.168185,-0.54711 0.358666,-1.0879 0.485886,-1.64685 0.240644,-0.84843 0.448384,-1.70589 0.677267,-2.55747 0.332891,-1.05775 0.703109,-2.10423 1.278226,-3.05936 0.412613,-0.69924 0.857777,-1.37523 1.364964,-2.01007 0.318479,-0.39934 0.262967,-0.95501 0.438463,-1.41884 0.3637542,-1.10355 0.8780722,-2.13346 1.5416632,-3.08971 0.521994,-0.69326 1.054531,-1.38113 1.71428,-1.95146 0.526918,-0.52132 1.011317,-1.08046 1.539955,-1.60045 0.748699,-0.69403 1.550956,-1.33203 2.482329,-1.76621 0.802494,-0.38571 1.598363,-0.78553 2.429425,-1.10749 0.666951,-0.27139 1.343065,-0.52282 2.049208,-0.6733 0.181116,-0.0278 0.287169,-0.054 0.464564,-0.0491 0.09024,0.003 0.26752,0.0598 0.266898,0.0615 -0.01722,0.0475 -0.06743,0.0752 -0.101147,0.11286 0.176411,-0.0728 0.343384,-0.24718 0.503102,-0.34841 0.35042,-0.22211 0.731618,-0.38938 1.129152,-0.50728 1.137076,-0.3012 0.234241,-0.0973 2.522852,-0.20458 0.755925,-0.0354 1.512107,-0.0928 2.269014,-0.0204 -1.250392,0.0461 -1.309016,0.005 -0.514665,0.0834 0.453673,0.045 0.908185,0.11113 1.365374,0.0926 1.118063,-0.0539 2.238262,-0.0343 3.356727,-8e-4 0.760628,0.003 1.516318,0.0675 2.267698,0.18783 0.62023,0.0939 1.24219,0.1759 1.86646,0.23811 0.62246,0.0482 1.24483,0.0996 1.86885,0.12406 0.89199,0.0953 1.77261,0.27024 2.60753,0.60831 0.5766,0.19389 1.17158,0.32872 1.74026,0.54614 0.72037,0.29774 1.42273,0.63671 2.0998,1.02368 0.43693,0.22507 0.88961,0.41454 1.32433,0.64425 0.50844,0.30877 1.02916,0.59747 1.55379,0.87846 0.52598,0.28631 1.03237,0.6051 1.53214,0.93469 0.52744,0.35752 1.03877,0.73797 1.58286,1.06968 0.65204,0.39453 1.27825,0.82998 1.91174,1.25326 0.70537,0.48855 1.41889,0.9649 2.13826,1.43261 0.93996,0.67888 1.83881,1.41499 2.61198,2.28401 0.64635,0.74047 1.27835,1.50482 1.77803,2.35394 0.35116,0.62408 0.70296,1.24635 1.08892,1.84984 0.5684,0.97664 1.04902,2.00328 1.35645,3.09405 0.20561,0.77036 0.37422,1.54944 0.52664,2.33204 0.2768,0.75623 0.63805,1.47754 0.89512,2.24155 0.33926,1.09067 0.53941,2.20477 0.58978,3.34771 0.081,0.84465 0.19178,1.68127 0.46405,2.49042 0.25538,0.95313 0.47119,1.91686 0.53988,2.90417 0.0512,0.841 0.0757,1.68329 0.12372,2.5245 0.0368,1.04963 0.0277,2.10145 -0.16233,3.13855 -0.16083,1.00573 -0.36436,2.01407 -0.75867,2.9577 -0.30478,0.68906 -0.65689,1.35942 -1.13501,1.94657 -0.29084,0.42662 -0.59422,0.82896 -0.79263,1.31379 -0.37691,0.63672 -0.81729,1.22693 -1.33148,1.7608 -0.64874,0.67773 -1.3004,1.35788 -2.02965,1.95048 -0.60393,0.45355 -1.15291,0.96873 -1.73469,1.44979 -0.41402,0.33595 -0.85032,0.62269 -1.29842,0.89992 -0.57652,0.50534 -1.01083,1.16102 -1.58224,1.6738 -0.67121,0.63919 -1.37007,1.24386 -2.06471,1.85635 -0.61711,0.60596 -1.19423,1.25677 -1.88769,1.7789 -0.80451,0.56963 -1.57113,1.19191 -2.40084,1.72539 -0.73826,0.41135 -1.5171,0.70852 -2.36021,0.81874 -0.76321,0.21881 -1.49403,0.56621 -2.29133,0.65233 -1.36617,0.15085 -2.74289,0.11851 -4.11532,0.10746 -0.48557,-0.0193 -0.96886,-0.0454 -1.45309,-0.0868 -0.12915,-0.0111 -0.51611,-0.0208 -0.38728,-0.0351 0.32936,-0.0365 0.66334,-0.005 0.99361,-0.0321 0.094,-0.008 -0.18784,-0.0175 -0.28177,-0.0262 -1.19348,-0.0286 -2.36149,0.57525 -3.57616,0.24464 -1.11977,-0.019 -2.221997,-0.16312 -3.312549,-0.42165 -0.703736,-0.12491 -1.407689,-0.24685 -2.11891,-0.32268 -1.008608,-0.15181 -2.013196,-0.33667 -2.994906,-0.61788 -0.705089,-0.21857 -1.39454,-0.48774 -2.109362,-0.67256 -0.801518,-0.18761 -1.584587,-0.44633 -2.310458,-0.84058 -0.635426,-0.33758 -1.258554,-0.69689 -1.868273,-1.07916 -0.482968,-0.27713 -0.966187,-0.5563 -1.413706,-0.88953 -0.523372,-0.37884 -1.054814,-0.74654 -1.566415,-1.14154 -0.654034,-0.49321 -1.304491,-0.99159 -1.920574,-1.5322 -0.67446,-0.58327 -1.306131,-1.20913 -1.890712,-1.88322 -0.609682,-0.65949 -1.207656,-1.33025 -1.764504,-2.03542 -0.55627,-0.68737 -1.14265,-1.35467 -1.6087382,-2.10916 -0.368162,-0.62671 -0.713263,-1.2664 -1.099629,-1.88248 -0.42853,-0.82731 -0.848252,-1.65853 -1.222185,-2.51242 -0.44605,-1.04013 -0.781425,-2.11411 -0.834027,-3.25415 -0.08905,-1.17125 -0.147148,-2.34538 -0.07384,-3.51974 0.04916,-0.995 0.172791,-1.99177 0.109823,-2.98824 -0.103359,-1.13552 -0.257305,-2.27356 -0.118996,-3.41474 0.200273,-1.46076 0.545954,-2.88961 0.96802,-4.30206 0.364297,-1.30693 0.693672,-2.62339 1.08871,-3.92153 0.466569,-1.35305 0.989603,-2.69587 1.7754872,-3.90071 0.595648,-0.94826 1.164508,-1.91191 1.635612,-2.92964 0.640889,-1.18952 1.333476,-2.35625 2.218002,-3.38444 0.7132,-0.85116 1.385485,-1.73466 2.070907,-2.60816 0.902731,-1.13025 1.854197,-2.23936 3.043547,-3.08031 1.427379,-0.93177 3.008595,-1.61145 4.750239,-1.52 2.775945,-1.39621 4.750488,2.52956 1.974543,3.92578 z"
       inkscape:connector-curvature="0" />
    <path
       style="fill:#1a1a1a;fill-opacity:1;stroke:none;stroke-width:0.26458332;stroke-opacity:1"
       id="path840"
       d="m 38.956778,420.04035 c 1.67465,-1.04333 3.58085,-1.66008 5.40076,-2.40453 1.27422,-0.55459 2.55875,-1.10922 3.72571,-1.87077 0.7192,-0.53547 1.19272,-1.31869 1.77366,-1.99046 0.84312,-0.97404 1.85926,-1.76474 2.9028,-2.50952 0.73704,-0.49444 1.47334,-0.98067 2.13616,-1.57252 0.63459,-0.6658 1.17976,-1.41065 1.7382,-2.13986 0.44554,-0.55412 0.75953,-1.17184 0.98782,-1.83999 0.2617,-0.82295 0.46385,-1.66289 0.70682,-2.49127 0.30253,-0.96742 0.70127,-1.90009 1.01709,-2.8628 0.24495,-0.82505 0.4802,-1.65954 0.62901,-2.50818 0.10351,-0.73542 0.1099,-1.47944 0.10908,-2.22071 0.01,-1.01465 -0.0311,-2.02873 -0.0438,-3.04316 -0.003,-1.00466 0.0233,-2.00937 0.0521,-3.01355 0.0413,-0.68152 -0.0675,-1.35338 -0.16077,-2.02546 -0.12051,-0.88251 -0.27208,-1.75995 -0.42122,-2.63782 -0.004,-0.16492 -0.19526,-1.07939 -0.0725,-1.2058 0.0267,-0.0275 0.0525,0.0568 0.0719,0.0899 0.1291,0.2198 0.24867,0.44506 0.373,0.66759 1.51748,-0.46528 3.03043,-0.9456 4.55243,-1.39585 0.0161,-0.005 -0.003,0.0335 -0.004,0.0503 -0.005,0.0861 -0.007,0.17253 -0.0156,0.2584 -0.0588,0.5938 -0.10336,0.82896 -0.48279,1.28373 0.11686,-0.23163 0.16118,-0.51759 0.35058,-0.69489 0.0687,-0.0643 0.0904,0.16645 0.11787,0.25641 0.0551,0.18012 0.0935,0.36517 0.12871,0.5502 0.16655,0.87511 0.22578,1.75839 0.28361,2.64553 0.13532,2.30326 0.0299,4.60663 -0.19108,6.90017 -0.17702,2.08918 -0.8312,4.06981 -1.55375,6.02131 -0.53661,1.46941 -1.12129,2.92112 -1.62863,4.40105 -0.38225,1.18307 -0.55244,2.41652 -0.875,3.61497 -0.17032,0.65024 -0.47521,1.25506 -0.60181,1.91596 -0.0969,0.66203 -0.1815,1.32245 -0.32777,1.97595 -0.18156,0.71066 -0.50929,1.37087 -0.86684,2.00731 -0.28158,0.52199 -0.56086,1.0446 -0.87002,1.55089 -0.48875,0.79064 -1.19986,1.37773 -1.96786,1.87997 -0.0831,0.0466 -0.16496,0.0955 -0.24932,0.13979 -0.49135,0.25799 -0.0815,-0.18826 -0.1118,-0.43054 -0.21382,0.53988 -0.59107,0.95813 -1.00982,1.33778 -1.60312,1.34623 -2.22443,-1.3785 -3.8004,-3.03771 0.0979,-0.10355 -0.15692,0.23726 -0.14908,0.16384 0.01,-0.0903 0.0611,-0.17101 0.0926,-0.25616 0.23332,-0.63067 0.53544,-1.20587 0.85401,-1.79805 1.01083,-1.67357 2.15426,-3.25887 3.17224,-4.92851 0.71945,-1.1411 1.19008,-2.37921 1.51018,-3.68136 0.33816,-1.38206 0.31829,-2.80572 0.31187,-4.21769 -0.0262,-1.29968 0.0748,-2.59445 0.14223,-3.8907 0.0424,-1.16818 -0.12588,-2.33223 -0.22207,-3.49452 -0.0922,-0.88549 -0.0761,-1.77373 -0.0599,-2.66149 -0.0765,-0.66764 -0.37463,-1.28555 -0.59565,-1.91374 -0.29465,-0.85526 -0.52716,-1.75509 -0.48391,-2.66591 -0.0247,-0.46482 0.15904,-0.9489 -0.0399,-1.38628 -0.0416,-0.16006 -0.16905,-1.12402 0.0542,-1.12984 1.57291,-0.0478 3.14511,-0.14506 4.71875,-0.14334 0.0499,6e-5 -0.007,0.1 -0.0186,0.14847 -0.0428,0.17815 -0.15309,0.26607 -0.0117,0.44462 0.64864,1.19965 0.94145,2.58902 1.24278,3.91036 0.49658,2.34588 0.67192,4.73705 0.72432,7.12897 -0.0161,1.97236 -0.0412,3.96116 -0.41608,5.90502 -0.0786,0.40771 -0.18503,0.80957 -0.27754,1.21436 -0.49503,1.96972 -1.48973,3.73838 -2.52011,5.46776 -0.46704,0.73554 -0.81516,1.53218 -1.15348,2.33169 -0.38127,0.96527 -0.95681,1.8295 -1.5432,2.67885 -0.44195,0.64493 -0.96603,1.22495 -1.46902,1.82112 -0.42038,0.47092 -0.89596,0.88682 -1.36172,1.31131 -0.60725,0.60746 -1.14232,1.28305 -1.72169,1.91778 -0.6819,0.74674 -1.44336,1.40791 -2.23783,2.0305 -0.77791,0.58512 -1.63681,1.04748 -2.47964,1.52984 -1.01452,0.5968 -2.03473,1.18229 -3.0804,1.72298 -0.91367,0.5014 -1.83404,0.97883 -2.81313,1.33893 -1.16456,0.37616 -2.38677,0.45111 -3.59912,0.52207 -0.52733,-0.0277 -1.07673,0.17095 -1.60384,0.0963 -0.24548,-0.0347 -0.47748,-0.13376 -0.71611,-0.20102 -0.25371,-0.0155 -0.50742,-0.031 -0.76114,-0.0465 -0.92133,1.67279 -3.287018,0.36982 -2.365681,-1.30297 v 0 c -0.01966,-0.3581 -0.03933,-0.71619 -0.059,-1.07429 0.11996,-0.31091 0.188783,-0.64675 0.359884,-0.93272 0.694777,-1.16123 2.150767,-1.52459 3.380207,-1.73704 1.07015,-0.12516 2.14273,-0.15659 3.21584,-0.0357 0.71102,0.0999 0.78866,-0.07 1.35756,-0.5425 1.08723,-0.89715 2.26479,-1.66501 3.58029,-2.18963 0.63814,-0.24415 1.28217,-0.48916 1.96257,-0.58423 0.61603,-0.49231 0.98485,-1.24983 1.5639,-1.78217 0.75503,-0.76469 1.55146,-1.48284 2.41036,-2.13034 0.33005,-0.22444 0.6497,-0.46516 0.98967,-0.67292 0.41082,-0.41233 0.5553,-1.04329 0.90522,-1.50086 0.43694,-0.67871 0.90615,-1.30402 1.4559,-1.89042 0.36666,-0.81506 0.4068,-1.73274 0.69972,-2.57394 0.55027,-1.59607 1.34597,-3.09166 1.84487,-4.70594 0.47257,-1.92271 0.56754,-3.88174 0.4754,-5.85793 -0.0629,-2.14659 -0.20239,-4.28985 -0.50167,-6.41799 -0.17958,-1.4966 -0.35253,-3.00822 -0.14324,-4.51184 0.0144,-0.0953 0.1028,-0.20358 0.0507,-0.28467 -1.03638,-1.61323 2.93534,-1.0393 4.55496,-0.82622 0.29322,0.42096 0.2452,0.98415 0.22639,1.46984 -0.0451,0.44115 -0.0205,0.30497 -0.0904,0.67106 -0.0125,0.0654 -0.008,0.25446 -0.0395,0.19583 -0.0391,-0.0725 0.006,-0.16468 0.012,-0.24681 0.004,-0.0492 -0.0201,-0.11575 0.0181,-0.14695 0.0267,-0.0218 0.0502,0.0471 0.0754,0.0707 0.43947,0.81929 0.66031,1.729 0.77414,2.64839 0.0537,0.53455 -0.0396,1.09364 0.26146,1.55935 0.52063,1.22224 0.85994,2.49107 0.83217,3.83383 -0.0175,0.82958 10e-4,0.75867 -0.0792,1.55698 -0.0625,0.62197 -0.19648,1.24807 -0.10085,1.87434 0.20814,1.39258 0.48748,2.77997 0.42685,4.19831 -0.082,1.7015 -0.32509,3.37606 -0.75449,5.0264 -0.31533,1.78651 -0.62683,3.5778 -1.48225,5.20518 -1.00369,1.91023 -2.1642,3.74105 -3.67649,5.29534 -0.76697,0.78693 -1.58874,1.52085 -2.27696,2.38039 -2.17929,-2.01844 -4.7519,-2.425 -2.91187,-3.70407 0.1608,-0.10691 0.27845,-0.1925 0.44939,-0.27927 0.0436,-0.0221 0.14129,-0.10342 0.13615,-0.0548 -0.0138,0.13043 -0.60034,0.66951 -0.61216,0.97182 0.1748,-0.74655 0.64424,-1.37139 1.20985,-1.87087 0.44769,-0.35164 0.89126,-0.62292 1.40487,-0.85296 0.22521,-0.0266 0.30192,-0.3725 0.36163,-0.54651 0.1687,-0.5755 0.34256,-1.16215 0.68725,-1.66053 0.0328,-0.0683 0.0593,-0.13997 0.0983,-0.20487 0.0122,-0.0203 0.0449,-0.0249 0.0533,-0.0471 0.0963,-0.25251 0.064,-0.55051 0.0831,-0.81356 0.008,-0.88058 0.10541,-1.75263 0.31212,-2.6101 0.25186,-1.3164 0.30074,-2.66516 0.64728,-3.96505 0.43235,-1.55803 1.06494,-3.0344 1.65112,-4.53876 0.49217,-1.63354 0.73685,-3.30774 0.86743,-5.00863 0.21197,-2.11004 0.36773,-4.2241 0.36026,-6.34655 0.0751,-1.71603 0.21027,-3.42849 0.8975,-5.02677 -0.33198,0.36667 -0.19151,0.14539 -0.36249,0.85016 -0.0406,0.1675 -0.0257,0.29913 -0.0479,0.22665 -0.0211,-0.0693 -0.0959,-0.18715 -0.0292,-0.21526 1.4864,-0.62614 3.02427,-1.12229 4.5364,-1.68343 0.456,0.78179 0.91721,1.54981 1.09128,2.45174 0.1923,0.99952 0.28102,2.00926 0.28396,3.02749 0.0361,0.81875 0.24412,1.61983 0.26036,2.4413 0.0453,1.02493 0.10413,2.0503 0.097,3.07656 -0.0246,1.03377 -0.1049,2.06299 -0.19765,3.09263 -0.0317,0.91469 -0.0433,1.83045 -0.10488,2.74369 -0.12944,1.14888 -0.40863,2.2653 -0.75803,3.36708 -0.32122,0.93811 -0.69869,1.8512 -1.09467,2.75999 -0.29516,0.84438 -0.50089,1.71558 -0.77052,2.56811 -0.37996,1.12476 -0.82555,2.22078 -1.56036,3.16835 -0.72591,0.94742 -1.4953,1.86712 -2.40376,2.64714 -0.75563,0.68312 -1.56389,1.30475 -2.37354,1.92218 -0.85364,0.65092 -1.71328,1.29423 -2.53208,1.98885 -0.79481,0.68249 -1.64679,1.29726 -2.39612,2.03303 -1.23428,1.15976 -2.48754,2.31164 -4.00262,3.10396 -2.27005,1.14667 -4.52684,2.01617 -7.11823,1.64173 -2.55458,0.967 -3.92212,-2.64572 -1.36754,-3.61272 z"
       inkscape:connector-curvature="0" />
  </g>
  <g
     inkscape:groupmode="layer"
     id="layer5"
     inkscape:label="arm"
     style="display:inline"
     transform="translate(0,-364.06667)">
    <path
       style="fill:#000000;fill-opacity:1;stroke:none;stroke-width:0.26458332;stroke-opacity:1"
       id="path834"
       d="m 28.876666,367.28074 c -0.960403,0.37483 -1.996085,0.46043 -3.013361,0.55195 -0.397631,0.0358 -0.799697,0.0287 -1.194448,0.0884 -0.05706,0.009 0.106101,0.0454 0.15915,0.0681 -0.336341,0.0358 -0.672682,0.0715 -1.009023,0.10729 -2.065446,0.31035 -3.788839,1.51032 -5.553022,2.53816 -1.169199,0.7335 -2.415122,1.37085 -3.464862,2.27928 -0.713732,0.61766 -0.803256,0.78712 -1.421315,1.52504 -1.739641,2.50915 -3.205067,5.20024 -4.7374252,7.83931 -0.806122,1.39834 -1.540598,2.84886 -1.940544,4.421 -0.160558,0.63113 -0.321776,1.63414 -0.431549,2.26442 -0.446437,2.81147 -0.717817,5.64877 -0.885687,8.48961 -0.104902,1.70997 -0.05675,3.42162 0.336121,5.09429 0.231121,0.98402 0.376282,1.34173 0.697825,2.29823 0.706835,2.07885 1.562518,4.1017 2.498521,6.08652 0.698776,1.59513 1.7058432,2.97795 2.8742782,4.25402 1.365853,1.38654 2.759678,2.74836 4.228388,4.0261 1.340014,1.13167 2.926323,1.89213 4.481994,2.67385 1.817939,0.89114 3.536138,1.96475 5.323975,2.9109 1.304898,0.76222 2.777323,0.8474 4.245652,0.94011 1.66946,0.1298 3.342564,0.13434 5.015744,0.13561 0.90062,-0.0117 1.80137,-0.01 2.70157,0.0223 0.26914,0.01 0.80441,-0.23261 0.80709,0.0367 0.002,0.19235 -1.81957,-0.0671 -0.21195,0.12831 0.21411,-0.0883 0.52604,0.1596 0.74645,0.13965 0.29276,-0.0265 0.66878,-0.3625 0.88173,-0.50573 1.34385,-0.95817 2.80257,-1.72472 4.28247,-2.44635 1.57378,-0.72983 3.18932,-1.36404 4.75329,-2.11504 1.38755,-0.66601 2.71491,-1.44119 4.00128,-2.28394 1.17473,-0.7481 2.22475,-1.65973 3.18124,-2.66722 0.89213,-0.98021 1.6503,-2.07071 2.41764,-3.1485 0.97983,-1.25307 1.75262,-2.63891 2.48334,-4.0461 0.7503,-1.50066 1.44084,-3.03484 1.86084,-4.66247 0.30377,-1.45948 0.17737,-2.95685 0.0965,-4.43225 -0.12134,-1.57693 -0.0342,-3.15744 -0.0774,-4.73615 -0.084,-1.23042 -0.14929,-2.46476 -0.29471,-3.6899 -0.14324,-1.11389 -0.39177,-2.20977 -0.64074,-3.30369 -0.24915,-1.10891 -0.50034,-2.22519 -0.99765,-3.25248 -0.61947,-1.03357 -1.39191,-1.96468 -2.09609,-2.94114 -0.63704,-0.78973 -1.04082,-1.75765 -1.70704,-2.52298 -0.77223,-0.53226 -1.52869,-1.08059 -2.25813,-1.67087 -0.88767,-0.67276 -1.60521,-1.54064 -2.476,-2.23038 -0.63295,-0.351 -1.27274,-0.6862 -1.88318,-1.07905 -0.71787,-0.49707 -1.37055,-1.07975 -2.07237,-1.59828 -0.37347,-0.20691 -0.76634,-0.375 -1.13937,-0.59037 -0.77114,-0.39507 -1.51465,-0.84066 -2.27361,-1.25797 -0.33137,-0.22319 -0.71653,-0.27849 -1.08278,-0.41207 -0.60365,-0.25557 -1.22142,-0.45381 -1.85593,-0.6148 -0.57943,-0.11288 -1.14848,-0.26293 -1.7157,-0.42587 -0.42143,-0.17414 -0.82995,-0.15014 -1.27015,-0.12449 -0.91664,0.0411 -1.8329,0.0503 -2.75025,0.0406 1.00946,-0.0464 -3.5656,0.0697 -2.53915,0.003 0.77303,-0.0502 1.62624,0.0149 0.4713,-0.0533 -1.508875,-0.0625 -3.020051,-0.0499 -4.529972,-0.0599 -0.880854,-0.0727 -1.762745,-0.11393 -2.64676,-0.11473 -0.3254,-0.008 -0.484179,-0.007 -0.802754,-0.0342 -0.103803,-0.009 -0.414345,-0.0264 -0.310544,-0.0353 1.188244,-0.1018 1.700983,0.0179 0.890016,-0.14165 -1.243605,-0.05 -1.357291,0.14934 -2.20201,-0.33576 -0.182303,-0.10469 -0.333108,-0.25853 -0.514652,-0.36453 -0.107146,-0.0626 0.189881,0.16006 0.289994,0.23336 0.08373,0.0613 0.385162,0.24851 0.486836,0.31229 0.0033,0.108 0.02336,0.0603 -0.117298,0.10148 0.416658,0.0112 0.834036,0.007 1.249974,0.0337 0.09074,0.006 -0.180507,0.0226 -0.271153,0.0297 -0.307441,0.0242 -0.371583,0.0174 -0.686681,0.0167 -0.240416,-0.0562 -0.929473,0.0303 -1.062807,-0.27866 -0.06183,-0.14326 0.122684,-0.69534 0.126711,-0.71082 -0.04991,-0.70121 0.132112,-0.48047 -0.575413,-0.63685 -0.236514,1.85199 -2.855616,1.51751 -2.619105,-0.33448 v 0 c -0.552331,-1.30455 -0.483531,-0.62484 -0.176252,-2.04196 0.175101,-0.27215 0.317688,-0.56822 0.525306,-0.81645 0.547045,-0.65406 1.434857,-0.89102 2.242558,-0.96726 0.331044,-0.008 0.652928,0.0155 0.982766,0.0239 0.808035,0.0207 1.491363,-0.087 2.225961,0.13913 0.328292,0.12934 0.452225,0.1599 0.750964,0.3498 0.12414,0.0789 0.478337,0.34251 0.356478,0.26012 -0.965692,-0.65293 -1.069975,-0.71215 -2.464535,-0.64767 0.603853,-0.36281 1.403709,-0.1289 2.107676,-0.1554 0.4347,-0.0164 0.869479,-0.079 1.305875,-0.0312 0.840994,0.056 1.683564,0.11542 2.526694,0.0793 -0.389009,-10e-4 -0.778087,0.004 -1.167027,-0.004 -0.143817,-0.003 0.287599,-0.007 0.431414,-0.0104 0.656711,-0.014 1.312082,-0.0563 1.966502,-0.11425 1.892348,-0.15435 3.809058,-0.11336 5.695808,0.0961 0.92292,0.10891 1.84533,0.22338 2.76397,0.36429 0.6374,0.11816 1.2627,0.29105 1.90295,0.39458 0.78764,0.13559 1.57173,0.29633 2.30578,0.6261 0.47471,0.20599 0.93177,0.48425 1.43394,0.61095 0.82688,0.0799 1.60111,0.50604 2.33517,0.85871 0.74713,0.43722 1.45981,0.92152 2.10787,1.49816 0.44004,0.25369 0.96376,0.35933 1.38274,0.66036 0.78335,0.46627 1.50879,1.00666 2.19846,1.60317 0.63374,0.45185 1.36387,0.72527 2.01758,1.14794 1.10454,0.7394 2.13807,1.57519 3.06199,2.5338 0.75208,0.76249 1.51634,1.51077 2.29516,2.24564 0.87109,0.90972 1.69117,1.86549 2.41647,2.89714 0.90303,1.28188 1.81066,2.57505 2.47144,4.00289 0.59776,1.44052 1.05568,2.9311 1.23071,4.48754 0.15755,1.14514 0.32702,2.28745 0.59807,3.41261 0.28213,1.44348 0.4998,2.89806 0.51285,4.37272 0.0518,1.53184 0.15261,3.05936 0.2717,4.58746 0.11758,2.03212 0.18082,4.08139 -0.22624,6.08938 -0.50006,2.10285 -1.19899,4.15034 -2.26239,6.04222 -0.94368,1.67806 -1.99819,3.29058 -3.31575,4.70417 -0.93891,1.03125 -1.76531,2.14435 -2.56811,3.28392 -1.19195,1.47778 -2.49974,2.8615 -4.10862,3.89532 -1.43516,0.89093 -2.92455,1.68488 -4.39551,2.51422 -1.61146,0.90597 -3.24173,1.7824 -4.98645,2.41053 -1.41484,0.54435 -2.8098,1.14004 -4.19126,1.76418 -1.21386,0.55982 -2.37088,1.28396 -3.71161,1.50775 -1.43134,0.22579 -0.36895,0.0872 -2.94407,0.1658 -1.21334,0.037 -2.42714,0.0749 -3.63971,-0.0197 -1.820264,-0.0856 -3.646098,-0.10606 -5.459377,-0.29448 -2.069264,-0.31579 -4.02408,-0.87318 -5.903381,-1.81506 -1.870006,-0.91302 -3.706733,-1.88783 -5.483889,-2.97253 -1.815367,-1.07297 -3.645231,-2.13977 -5.254858,-3.51494 -1.6739472,-1.45516 -3.2539462,-3.0151 -4.6181702,-4.76998 -1.293301,-1.66704 -2.460241,-3.42438 -3.426859,-5.30332 -1.157457,-2.18462 -2.27750399,-4.39816 -3.08403599,-6.74117 -0.965116,-3.09166 -1.56509001,-6.09294 -1.46574201,-9.3537 0.06676,-1.53621 0.04504,-1.87792 0.258649,-3.40623 0.27761401,-1.98625 0.83460201,-3.91036 1.30717401,-5.85465 0.674087,-2.7615 1.30031299,-5.55614 2.46519399,-8.16281 0.245192,-0.517 0.474954,-1.04159 0.735571,-1.55099 1.355855,-2.65009 3.074683,-5.11261 5.140079,-7.25811 0.360804,-0.35381 0.710681,-0.71913 1.082418,-1.06143 1.5186372,-1.3984 3.2472982,-2.54855 5.0575532,-3.53174 2.292911,-1.27766 4.652756,-2.50869 7.24295,-3.05225 0.453398,-0.0697 0.902441,-0.17926 1.360191,-0.20912 1.880177,-0.12266 4.062336,-0.15896 5.890099,0.47949 0.233085,0.0814 0.444577,0.2149 0.666866,0.32235 2.402009,0.73188 1.366975,4.12883 -1.035034,3.39695 z"
       inkscape:connector-curvature="0" />
  </g>
</svg>
