<?xml version="1.0" encoding="UTF-8" standalone="no"?>
<!-- Created with Inkscape (http://www.inkscape.org/) -->

<svg
   xmlns:dc="http://purl.org/dc/elements/1.1/"
   xmlns:cc="http://creativecommons.org/ns#"
   xmlns:rdf="http://www.w3.org/1999/02/22-rdf-syntax-ns#"
   xmlns:svg="http://www.w3.org/2000/svg"
   xmlns="http://www.w3.org/2000/svg"
   xmlns:sodipodi="http://sodipodi.sourceforge.net/DTD/sodipodi-0.dtd"
   xmlns:inkscape="http://www.inkscape.org/namespaces/inkscape"
   width="1024"
   height="512"
   viewBox="0 0 270.93334 135.46667"
   version="1.1"
   id="svg8"
   inkscape:version="0.92.4 (5da689c313, 2019-01-14)"
   sodipodi:docname="arm_suit.svg"
   inkscape:export-filename="C:\Users\panu-\PycharmProjects\nextgame\data\images\arm_suit.png"
   inkscape:export-xdpi="10.173375"
   inkscape:export-ydpi="10.173375">
  <defs
     id="defs2" />
  <sodipodi:namedview
     id="base"
     pagecolor="#ffffff"
     bordercolor="#666666"
     borderopacity="1.0"
     inkscape:pageopacity="0.0"
     inkscape:pageshadow="2"
     inkscape:zoom="0.49481546"
     inkscape:cx="259.22201"
     inkscape:cy="271.48046"
     inkscape:document-units="mm"
     inkscape:current-layer="layer5"
     showgrid="false"
     units="px"
     width="1024px"
     inkscape:window-width="1920"
     inkscape:window-height="1017"
     inkscape:window-x="-8"
     inkscape:window-y="-8"
     inkscape:window-maximized="1"
     inkscape:pagecheckerboard="true"
     showguides="false" />
  <metadata
     id="metadata5">
    <rdf:RDF>
      <cc:Work
         rdf:about="">
        <dc:format>image/svg+xml</dc:format>
        <dc:type
           rdf:resource="http://purl.org/dc/dcmitype/StillImage" />
        <dc:title />
      </cc:Work>
    </rdf:RDF>
  </metadata>
  <g
     inkscape:groupmode="layer"
     id="layer6"
     inkscape:label="arm_color"
     transform="translate(0,-296.33334)">
    <g
       id="g964"
       transform="matrix(0,1,-0.87920015,0,387.73251,296.07538)">
      <path
         inkscape:connector-curvature="0"
         d="m 32.969309,217.81831 c 0.43444,-0.36932 0.83585,-0.78143 1.30331,-1.10794 3.3921,-2.36932 7.57911,-3.54264 11.51908,-4.61222 3.97367,-0.95398 8.02463,-1.1235 12.0698,-0.57445 1.35231,0.12626 2.76257,0.30665 4.12124,0.11527 0.0823,-0.0116 -0.3071,-0.0927 -0.22522,-0.10692 1.07569,-0.187 2.17576,-0.18619 3.26237,-0.29283 4.02577,-0.56535 8.07397,-0.52644 12.12432,-0.39172 2.20988,0.12589 4.23025,0.88543 6.20631,1.81551 1.08632,0.61706 2.20492,1.10454 3.44042,1.29889 1.33852,0.0232 2.66268,0.14126 3.993,0.28968 1.35206,0.2234 2.68673,0.5109 4.00804,0.87295 0.8939,0.2618 1.74231,0.62153 2.67255,0.70583 0.79697,-0.0193 1.48641,0.31961 2.11694,0.77381 0.38267,0.32812 0.734681,0.68895 1.163181,0.95662 -0.29943,-0.55241 -0.0292,-0.33479 0.38466,-0.17025 -0.10408,-0.024 0.39312,0.16327 0.30154,0.10832 -0.70394,-0.42237 -0.76515,-0.22864 -1.923471,-0.20514 0.34232,0.14984 0.43441,0.46927 0.620291,0.78489 2.61578,-0.95577 3.96743,2.7435 1.35166,3.69926 v 0 c 0.0534,0.40127 0.24535,0.77542 -0.21818,0.88165 -1.643811,0.0467 -1.760321,0.10085 -3.033881,-0.38722 -0.62923,-0.17664 -1.18028,-0.56141 -1.65207,-1.00609 -0.10627,-0.10853 -0.7214,-0.76689 -0.2162,-0.2301 0.5424,0.62407 -0.79252,0.21318 -1.04551,0.23066 -1.05294,-0.19326 -2.0777,-0.51523 -3.13211,-0.70536 -1.16609,-0.22721 -2.34802,-0.3711 -3.53191,-0.46697 -1.51587,-0.19033 -3.05547,-0.27197 -4.52548,-0.72494 -1.43187,-0.44265 -2.77422,-1.07891 -4.13313,-1.70469 -1.4811,-0.53834 -3.05348,-0.26728 -4.5916,-0.14836 0.87682,0.21824 0.43924,0.0732 -1.14981,0.1462 -1.71889,0.079 -3.43711,0.20976 -5.15409,0.32163 -0.6179,0.0403 -1.23538,0.0869 -1.85306,0.13029 -3.883,0.19604 -7.78545,0.23308 -11.60788,-0.58555 -0.3767,-0.0413 -0.76448,-0.0242 -1.1301,-0.12385 -0.18064,-0.0492 0.748,-0.0339 0.56079,-0.0313 -1.94679,0.0276 -3.75042,0.72498 -5.53637,1.45321 -4.49959,1.62445 -9.12082,3.46886 -13.98161,3.32931 -3.06749,1.8228 -5.64532,-2.5153 -2.57782,-4.33809 z"
         id="path1878"
         style="fill:#333333;fill-opacity:1;stroke:none;stroke-width:0.26458332;stroke-opacity:1" />
      <path
         inkscape:connector-curvature="0"
         d="m 33.614069,372.69085 c 3.16555,0.52181 5.82545,2.30331 8.19011,4.37486 1.04148,1.13324 2.14052,1.30559 3.54519,1.6637 2.09001,0.43289 4.14593,1.0246 6.19808,1.60922 0.74727,0.15193 1.49192,0.36397 2.26016,0.37926 0.18919,0.004 0.7534,0 0.56684,-0.0308 -0.75779,-0.12866 -1.81849,0 -0.50038,-0.12131 2.29446,-0.43378 4.60871,-0.42457 6.9342,-0.41904 1.4687,0.0839 2.84131,0.63563 4.2613,0.94895 0.14162,-0.003 0.28341,0 0.42486,-0.007 0.32059,-0.0169 1.27435,-0.049 0.95769,-0.10182 -0.38928,-0.0649 -0.79327,0.0138 -1.18294,-0.0486 -0.21754,-0.0348 0.44006,-0.0222 0.66,-0.0352 0.24104,-0.0143 0.48192,-0.0309 0.72289,-0.0464 1.81969,-0.18796 3.64517,-0.26117 5.47272,-0.30855 1.41665,0.0222 2.82159,-0.15722 4.23106,-0.2558 1.58624,-0.33243 3.116,-0.37889 4.74102,-0.37923 -3.03565,0.24154 -0.72262,-0.0823 -0.0385,-0.18172 0.72775,-0.10906 1.45314,-0.22391 2.15408,-0.44899 0.92749,-0.31526 1.88297,-0.45691 2.84987,-0.56589 0.48253,-0.008 0.88155,-0.10859 1.31925,-0.30912 0.79316,-0.42016 1.65562,-0.64447 2.51783,-0.87032 0.36307,0.0188 0.30146,-0.0688 0.11067,0.19442 -0.0319,0.0439 0.065,-0.0276 0.39047,-0.25498 0.69785,-0.47726 1.48364,-0.7497 2.31381,-0.86312 0.25993,-0.0217 -0.003,0.0979 -0.0601,0.13215 -0.0306,0.0241 -0.12957,0.0822 -0.0919,0.0723 0.12807,-0.0339 0.2311,-0.12962 0.34816,-0.19164 0.73417,-0.44431 1.53756,-0.76316 2.37539,-0.94236 0.0591,0.009 0.76439,-0.14396 0.78352,-0.0583 0.0314,0.14073 -0.13478,0.0196 0.0759,0.10631 0.43811,0.0148 0.97931,-0.30959 1.43079,-0.44898 0.69499,-0.004 1.3902,-0.0297 2.08498,-0.0119 0.1663,0.004 0.342041,0.18748 0.487491,0.10676 0.0373,-0.0206 -0.058,-0.0783 -0.10067,-0.0791 -1.946091,-0.0385 -1.407621,-0.2308 -2.371291,0.24564 -1.43422,1.07047 0.30937,-0.1986 0.68068,-0.39177 0.53985,-0.29096 1.12296,-0.28223 1.705831,-0.35124 0.14612,0.0412 0.10476,0.004 -0.0507,0.13941 -0.604571,0.52719 -1.686441,1.05855 -0.991751,2.18538 0.25871,0.41966 0.8609,0.48062 1.291351,0.72091 -0.24757,-1.74466 2.21976,-2.09478 2.46732,-0.35009 v 0 c 0.44082,0.30151 1.07948,0.42896 1.32246,0.90455 0.70478,1.37949 -0.79257,2.52841 -1.91367,2.78009 -0.21408,0.008 -1.09555,0.25733 -0.72735,-0.11864 0.7641,-0.94658 -0.11646,0.0274 -0.54804,0.21656 -0.21082,0.092 -0.40406,0.2486 -0.63244,0.27606 -0.458881,0.0552 -5.447571,-0.0225 -0.680681,-0.0159 1.020251,-0.48207 0.28311,-0.2078 -0.1684,0.0915 -0.61344,0.26863 -1.30405,0.56764 -1.98324,0.45688 -0.0436,-0.23405 -0.13342,-0.18616 -0.35253,-0.14313 -0.65191,0.35689 -1.30146,0.73067 -2.02839,0.91545 -0.26413,0.0308 -0.22785,-0.1189 -0.4958,-0.0648 -0.69797,0.14565 -1.22637,0.87852 -1.97651,0.95253 -0.42169,0.0225 -0.84533,0.11594 -1.23216,0.27463 -0.91422,0.42985 -1.81485,0.92247 -2.82792,1.07876 -0.74237,0.1256 -1.48666,0.18275 -2.22048,0.35497 -0.91465,0.17034 -1.79164,0.54292 -2.73003,0.61793 -1.38598,0.22225 -2.78959,0.36105 -4.19653,0.29766 2.81372,-0.0108 0.98298,-0.16148 0.0104,0.32578 -1.65984,0.60325 -3.40684,0.92115 -5.1643,1.07291 -1.84764,0.0941 -3.6868,0.0151 -5.5355,-0.003 -2.16027,0.0534 -4.36655,0.19642 -6.46048,-0.43686 -1.08959,-0.22095 -2.19406,-0.25826 -3.30341,-0.18071 0.35607,-0.004 0.71365,0.0196 1.0682,-0.0135 0.26396,-0.0246 -0.53011,-0.0111 -0.79521,-0.0119 -1.07687,-0.004 -2.15506,0.007 -3.23082,0.0567 -2.56045,0.12708 -5.12134,0.0193 -7.60941,-0.63659 -2.18623,-0.56661 -4.28315,-1.39266 -6.25141,-2.50904 -1.5411,-0.75928 -3.06321,-1.55541 -4.61277,-2.29688 -2.67427,-1.31739 -5.3299,-2.88274 -7.11797,-5.33413 -2.62704,-2.28333 0.60207,-5.99853 3.22911,-3.7152 z"
         id="path1882"
         style="fill:#333333;fill-opacity:1;stroke:none;stroke-width:0.26458332;stroke-opacity:1" />
      <path
         inkscape:connector-curvature="0"
         id="path1884"
         d="m 77.026119,216.91343 c -7.489414,0.46165 -14.943269,1.13865 -22.388938,0.0606 -6.144715,0.96989 -11.788052,4.11777 -18.02457,4.8124 -0.858295,2.18139 0.989523,5.02991 0.987346,7.50728 1.861886,17.76785 0.821486,35.78447 0.903383,53.66359 -0.07603,15.15462 -0.400458,30.29737 -1.765742,45.39462 -0.669626,12.42736 -0.603174,24.88584 -2.525964,37.18511 -0.05025,2.55476 -0.529135,5.35323 0.176496,7.74811 4.878649,1.86838 8.590832,6.116 13.969327,6.85202 5.657797,1.56628 11.513688,0.14161 17.19326,1.36602 9.827252,-0.31528 19.773045,-1.39274 29.012255,-4.85209 1.911678,-0.70575 5.734988,-0.33684 5.199857,-3.39624 -1.110798,-15.08763 -0.584203,-30.37159 -2.170116,-45.35492 -0.631761,-20.57915 -0.960469,-41.20364 -1.829776,-61.77007 0.09686,-13.81118 0.1,-27.93801 3.786846,-41.30957 2.186087,-3.18929 -2.418397,-3.42771 -4.515805,-4.12834 -5.30879,-1.06049 -10.741612,-1.76938 -15.791732,-3.67928 -0.73351,-0.1051 -1.476685,-0.11114 -2.216127,-0.0992 z"
         style="fill:#333333;fill-opacity:1;stroke:none;stroke-width:0.53471118;stroke-opacity:1" />
      <path
         inkscape:connector-curvature="0"
         d="m 94.504839,375.94004 c -1.31093,-3.60674 -1.05139,-7.45492 -0.66251,-11.19814 0.31797,-1.80126 0.46178,-3.61326 0.44478,-5.43955 -0.0847,-1.6221 0.0292,-3.2453 0.0426,-4.86865 -0.038,-1.80086 -0.11427,-3.59899 -0.10009,-5.40061 0.0639,-1.14758 -0.0479,-2.27427 -0.333,-3.38378 -0.42818,-1.62954 -0.69983,-3.28874 -0.89668,-4.96019 -0.20649,-1.54802 -0.57891,-3.06905 -0.9712,-4.57899 -0.47596,-1.58759 -0.70511,-3.20596 -0.74888,-4.8584 0.0406,-1.3803 0.0624,-2.75799 -0.0543,-4.1348 -0.15114,-1.15637 -0.43684,-2.28776 -0.59669,-3.44375 -0.15025,-1.35014 -0.0483,-2.70738 -0.0983,-4.06117 -0.12835,-1.75199 -0.21524,-3.49048 -0.0134,-5.23884 -0.0123,-1.24988 0.83269,-2.36129 0.9394,-3.57252 -0.0771,-1.13332 -0.14339,-2.26159 -0.11277,-3.39942 0.0869,-1.1967 0.0973,-2.39469 0.0162,-3.59138 -0.13305,-1.48659 -0.12157,-2.97941 -0.19731,-4.46861 0.0143,-0.78426 -0.26443,-1.46712 -0.55073,-2.17694 -0.64352,-1.59731 -0.79108,-3.31615 -1.00052,-5.00764 -0.17854,-1.37763 -0.23544,-2.76713 -0.45594,-4.13904 -0.17007,-1.4604 -0.34519,-2.91002 -0.70046,-4.3387 -0.57806,-1.95754 -0.82518,-3.97361 -0.85383,-6.00837 0.0373,-1.22819 0.13064,-2.44813 0.10092,-3.67727 -0.0494,-1.21578 -0.11258,-2.4291 -0.0868,-3.64619 0.005,-1.41801 0.15588,-2.81269 0.47834,-4.19323 0.40505,-1.13425 0.48589,-2.32111 0.60182,-3.50836 0.13574,-1.33709 0.42556,-2.65118 0.60279,-3.98201 0.0679,-1.23053 0.0328,-2.46402 0.0356,-3.69579 -0.0542,-1.11382 0.0679,-2.22067 0.16952,-3.32722 0.0772,-0.93568 -0.0518,-1.87236 -0.15299,-2.80124 -0.2995,-1.29615 -0.60187,-2.59123 -0.80493,-3.9064 -0.21579,-1.41364 -0.0216,-2.81839 0.14677,-4.22177 0.0632,-1.04413 -0.13272,-2.08624 -0.1885,-3.12995 -0.0573,-1.16335 0.14435,-2.30786 0.26817,-3.45749 0.10483,-0.83747 -0.0272,-1.67943 -0.10537,-2.5137 -0.17374,-1.5433 0.18185,-3.00971 0.73727,-4.43637 0.35671,-0.55485 0.62937,-1.36914 1.22392,-1.7455 0.13536,-0.0857 -0.1462,0.28525 -0.21218,0.43123 -0.0909,0.20115 -0.15763,0.41237 -0.23644,0.61855 -0.0817,0.44891 -0.10406,0.46679 -0.11955,0.87124 -0.002,0.0547 0.0119,0.21866 0.006,0.16424 -0.0466,-0.40866 -0.0388,-0.8047 -0.0114,-1.21385 0.1051,-0.75459 0.12777,-1.10526 0.57496,-1.98445 0.30762,-0.60479 1.4185,-2.02907 2.30284,-1.76773 0.25884,0.0765 0.47593,0.25474 0.7139,0.38211 4.65384,-1.23993 6.407371,5.34158 1.75354,6.58152 v 0 c 0.20323,0.12775 0.38439,0.3004 0.60968,0.38324 0.76759,0.28227 1.77998,-1.15449 2.01486,-1.64899 0.35114,-0.73926 0.3864,-1.07505 0.47486,-1.69092 0.1353,-1.16963 0.1786,1.95518 -0.0129,1.97537 -0.34996,1.00247 -0.25465,0.92528 -0.78108,1.76111 -0.0748,0.11872 -0.17044,0.22293 -0.2556,0.33443 -0.0423,0.0554 -0.1532,0.23095 -0.12688,0.16636 0.10987,-0.26971 0.33637,-0.48399 0.39022,-0.7817 0.3067,-0.95165 0.0801,1.57214 0.11945,1.6297 -0.0793,0.81366 -0.23013,1.6379 -0.14561,2.4553 0.15666,1.12623 0.41809,2.2421 0.3896,3.38953 -0.0358,1.43437 -0.18867,2.85924 -0.43291,4.27349 -0.0917,0.53293 0.18243,0.93266 0.34552,1.45293 0.52975,1.8432 0.88459,3.73735 0.77144,5.66497 -0.10184,0.87427 -0.25569,1.76118 -0.16597,2.64237 0.15462,1.16964 0.32213,2.34089 0.26017,3.52548 -0.0223,1.42842 -0.16256,2.84491 -0.27062,4.26783 -0.0639,1.50534 -0.0396,3.02125 -0.31847,4.50886 -0.27714,1.49131 -0.57712,2.99434 -1.20264,4.3858 -0.30644,0.68137 -0.0158,1.45519 -0.0659,2.18167 0.0123,1.19548 -0.0706,2.38423 -0.15053,3.57635 -0.0211,0.97653 0.11769,1.93575 0.35461,2.88363 0.3744,1.86343 0.65607,3.74552 0.80058,5.64167 0.10834,1.36516 0.0656,2.74987 0.37872,4.09107 0.35969,1.7482 0.76691,3.50706 0.68045,5.30536 -0.0396,0.64146 -0.25124,1.43007 -0.0213,2.04085 0.7913,1.52991 1.381281,3.1397 1.540861,4.86947 0.13383,1.6687 0.0888,3.33004 -0.0975,4.99443 -0.0849,1.15438 0.0519,2.29072 0.20579,3.43565 0.10753,1.70799 0.0144,3.41773 -0.47889,5.06806 -0.19963,0.83914 -0.348691,1.62703 -0.228981,2.49553 0.066,1.81077 -0.008,3.62479 -0.29455,5.41635 -0.0893,0.51379 -0.41386,1.25147 -0.21937,1.73024 0.603481,1.53624 0.956521,3.1464 1.050101,4.79673 0.0408,1.47016 -0.0383,2.92646 -0.26908,4.37936 -0.006,0.92613 0.45743,1.75441 0.79031,2.59662 0.76155,2.08244 1.29774,4.23279 1.24548,6.46913 -0.007,1.15065 1.3e-4,2.31565 0.36049,3.42194 0.51856,1.74371 0.93575,3.51527 0.98412,5.3442 0.0579,1.91768 0.0313,3.83523 -0.0984,5.75001 -0.0848,1.4873 -0.20902,2.97341 -0.20529,4.46452 0.0546,1.94596 0.20126,3.88522 0.38863,5.82287 0.16734,3.60739 0.25093,7.31946 -0.96584,10.77291 0.13105,5.82795 -8.110901,6.01329 -8.241961,0.18534 z"
         id="path1886"
         style="fill:#1a1a1a;fill-opacity:1;stroke:none;stroke-width:0.26458332;stroke-opacity:1" />
      <path
         inkscape:connector-curvature="0"
         d="m 31.962559,374.38845 c -0.13693,-0.52938 -0.32773,-1.04765 -0.4108,-1.58809 -0.5227,-3.40055 0.11783,-6.9815 0.66241,-10.33666 0.52331,-2.85932 0.99438,-5.72712 1.32502,-8.6156 0.23469,-2.42214 0.33861,-4.85394 0.50837,-7.28092 0.19259,-2.05401 0.13567,-4.1116 0.029,-6.16778 -0.15987,-2.26692 -0.10359,-4.5379 0.0687,-6.80145 0.13487,-1.58599 0.42374,-3.15367 0.52173,-4.74289 0.0794,-1.8765 0.13829,-3.75391 0.20534,-5.63094 -0.0113,-2.06366 0.27429,-4.08485 0.80428,-6.07431 0.68043,-1.74009 0.90232,-3.56072 1.08559,-5.40298 0.20374,-2.04196 0.50341,-4.07304 0.68494,-6.11714 0.14968,-1.84418 0.19734,-3.69663 0.23036,-5.54634 0.0152,-1.9732 -0.0207,-3.94683 -0.0863,-5.91889 -0.0609,-2.10663 -0.0116,-4.21344 0.0187,-6.31997 0.0294,-1.74077 -0.0934,-3.4791 -0.16107,-5.21794 -0.0357,-1.36353 -0.18266,-2.72005 -0.2821,-4.07948 -0.16967,-1.5908 -0.43359,-3.16183 -0.5027,-4.7617 -0.0351,-1.25872 0.18438,-2.50189 0.24852,-3.75588 -0.0409,-1.48122 -0.13606,-2.9593 -0.16327,-4.44176 -0.0531,-1.75457 0.18411,-3.47683 0.6189,-5.17005 0.37461,-0.84413 0.3069,-1.36026 0.17053,-2.21918 -0.18579,-1.36731 -0.167,-2.75703 0.0149,-4.12303 0.19313,-0.7239 0.19323,-1.40272 0.0674,-2.13343 -0.24988,-1.39512 -0.29653,-2.80703 -0.2237,-4.21909 0.002,-0.0433 0.0308,-0.64092 0.045,-0.71936 0.022,-0.12116 0.25377,0.4281 0.009,-0.0784 -0.60208,-1.39955 -0.86763,-2.88892 -0.92901,-4.40196 -0.0475,-0.73332 0.0701,-1.46947 0.0294,-2.20128 -0.32511,-0.67202 -0.45672,-1.4279 -0.59675,-2.15736 -0.14738,-0.94558 -0.14966,-1.90493 -0.0433,-2.85474 -0.27496,-0.47124 -0.42066,-1.18752 -0.54976,-1.77655 -0.0285,-0.24209 -0.0559,-0.48431 -0.0854,-0.72628 -0.0153,-0.12532 -0.25916,-2.07973 -0.0298,-1.86425 0.22833,0.20692 -0.22184,-1.08634 -0.23645,-1.11921 -0.37218,-1.1571 -0.43721,-2.36782 -0.32018,-3.56936 0.0253,-0.52258 0.25066,-0.47527 0.21679,-0.90292 -0.0699,-0.59757 -0.0742,-1.20313 -0.0604,-1.80431 -0.0361,-0.0725 0.0733,-0.8182 0.15024,-0.53387 0.0333,0.26842 -0.0659,-0.5344 -0.0732,-0.61039 -0.048,-0.36282 -0.0556,-0.72689 -0.034,-1.09177 0.0948,-0.27257 0.0987,-0.20278 0.0339,-0.49486 -0.0146,-0.20271 -0.0326,-0.4074 0.0664,-0.58924 1.79553,1.36247 4.31958,2.10203 5.3866,4.08741 0.65191,1.21298 -3.32181,0.12131 -3.99485,-0.15131 -0.66034,-0.26746 -1.14706,-0.68108 -1.65687,-1.15964 -2.17002,-3.07483 -1.17122,-0.96911 4.50782,-6.76776 0.0726,-0.0741 0.16399,0.12877 0.23283,0.20632 0.0678,0.0764 0.20864,0.15605 0.17419,0.25225 -2.26504,6.32438 -4.45551,7.28332 -1.43599,5.57005 -0.0885,-0.30464 -0.17691,-0.60927 -0.26537,-0.9139 -1.77127,0.91711 -3.06826,-1.58784 -1.297,-2.50495 v 0 c 0.11155,-0.3599 0.2231,-0.71979 0.33465,-1.07968 0.55757,-0.19929 1.69305,-1.18963 1.67271,-0.59786 -0.0737,2.14358 -1.24605,4.10474 -1.8638,6.15871 -0.0208,0.0691 -0.0103,0.15096 -0.0517,0.21006 -0.047,0.0672 -0.24769,0.21117 -0.19754,0.14636 4.78384,-6.1821 6.03285,-3.80201 3.97712,-6.72654 -0.16496,-0.18932 -0.52413,-0.78317 -0.83352,-0.78305 -0.83967,2.6e-4 -3.05451,-0.49511 -2.51464,0.14798 1.54295,1.83795 3.99376,2.66174 5.99064,3.99261 0.11726,0.0559 0.0682,0.34318 0.0647,0.49159 -0.0567,0.21806 -0.0507,0.27967 0.0367,0.51451 0.0199,0.36255 0.0145,0.72492 -0.04,1.08468 -0.0433,0.3433 -0.08,0.009 -0.0571,0.27133 0.0638,0.37404 0.16165,0.73882 0.12301,1.12377 -0.007,0.1389 -0.0154,0.489 -0.0568,0.56148 0.22108,0.64222 0.27059,1.32506 0.39847,1.98749 0.0756,0.69015 0.0921,1.38474 -0.0102,2.07367 0.0433,0.61401 -0.0946,0.11631 0.23516,0.87345 0.28752,0.92899 0.53035,1.85945 0.64039,2.82901 0.1476,1.07391 0.31701,2.15145 0.28093,3.23951 0.006,0.46472 0.1142,0.85661 0.25017,1.30799 0.18726,0.93089 0.28788,1.87389 0.43477,2.81158 0.12554,0.86735 0.26807,1.7314 0.37889,2.60071 0.009,0.11469 0.24822,2.28543 -0.13153,1.52327 0.60108,1.21739 1.07507,2.49362 1.22085,3.85381 0.14026,1.5285 0.0919,3.05696 -0.19854,4.56848 -0.12669,0.66291 -0.15517,1.18284 0.0819,1.83212 0.28579,1.54919 0.33889,3.13678 0.10528,4.69798 -0.13394,0.80144 -0.53389,1.85098 -0.39844,2.61863 0.47438,1.58242 0.27322,3.32257 0.16403,4.93796 -0.2082,1.44304 -0.53253,2.86969 -0.63852,4.32554 -0.0524,0.91858 0.14952,1.78847 0.2972,2.69355 0.19279,1.60517 0.22345,3.20702 0.21948,4.82134 0.0998,1.29136 0.34486,2.56473 0.5471,3.84278 0.31075,2.01386 0.51149,4.04248 0.44244,6.08369 0.0104,2.05389 0.0418,4.10765 0.0388,6.16164 -0.0108,2.10026 0.0624,4.20094 -0.0106,6.30088 -0.0822,1.88013 -0.28978,3.75189 -0.31408,5.63402 -0.004,2.34365 0.0358,4.69599 -0.30801,7.02209 -0.39913,2.20356 -0.95701,4.366 -2.00414,6.36159 -0.44386,1.28232 -0.0596,2.65359 -0.0722,3.97577 0.008,2.23646 -0.17502,4.44969 -0.75724,6.61832 -0.26188,1.24138 -0.36623,2.41942 -0.13836,3.6881 0.14439,2.20062 0.19099,4.40554 0.10255,6.61004 -0.0405,2.20509 0.0461,4.40578 0.10186,6.60965 -0.008,2.66396 -0.14322,5.32927 -0.53729,7.96682 -0.33972,2.88525 -0.51265,5.78101 -0.66381,8.6815 -0.28356,3.90938 -0.67179,8.00119 -2.60521,11.4858 -0.43244,5.95064 -8.84791,5.33908 -8.41548,-0.61155 z"
         id="path1888"
         style="fill:#1a1a1a;fill-opacity:1;stroke:none;stroke-width:0.26458332;stroke-opacity:1" />
      <path
         inkscape:connector-curvature="0"
         d="m 92.263399,380.22513 c -1.36215,-2.36966 -1.36378,-5.10765 -1.22471,-7.75581 0.19836,-1.14499 0.17813,-2.23684 -0.0638,-3.36389 -0.33776,-1.43378 -0.43674,-2.90399 -0.56068,-4.36692 -0.1173,-1.81819 -0.0879,-3.64061 -0.0854,-5.46124 -0.006,-1.62155 -0.0373,-3.24072 -0.19076,-4.85582 -0.15935,-1.74791 -0.25188,-3.50111 -0.36402,-5.25252 -0.30305,-1.75949 -0.75111,-3.49111 -1.13731,-5.23465 -0.4835,-1.92686 -0.70013,-3.88065 -0.44459,-5.85316 0.0749,-0.59347 0.23571,-1.17184 0.43603,-1.73416 0.0211,-0.0591 -0.0146,0.13073 -0.0522,0.18099 -0.0565,0.0755 -0.14426,-0.12521 -0.19617,-0.20398 -0.50245,-1.59767 -0.71183,-3.26646 -0.86812,-4.92804 -0.14018,-1.35654 -0.0291,-2.7179 -0.0364,-4.07608 -0.0291,-1.24595 -0.32134,-2.46438 -0.5454,-3.68634 -0.34215,-1.52875 -0.30966,-3.0682 -0.1301,-4.61148 0.21666,-0.89143 0.18347,-1.78738 0.11232,-2.6925 -0.22005,-1.74618 -0.25915,-3.49588 -0.11487,-5.24848 0.15474,-1.44225 0.40851,-2.8702 0.4676,-4.32164 -0.0797,-1.72859 -0.34147,-3.4439 -0.55524,-5.15977 -0.17005,-1.41762 -0.29978,-2.8389 -0.58109,-4.23971 -0.4358,-1.8522 -0.84547,-3.70989 -1.14756,-5.58893 -0.25706,-1.27704 -0.0695,-2.56132 -0.0512,-3.84496 0.15398,-1.14875 -0.16197,-2.24155 -0.34719,-3.36727 -0.2479,-1.71501 -0.37385,-3.46312 -0.0248,-5.1709 0.29289,-0.76136 0.20913,-1.46125 0.0478,-2.22145 -0.25558,-1.46713 -0.34881,-2.95712 -0.31327,-4.4444 0.10311,-1.24623 0.13534,-2.48529 0.0375,-3.73189 -0.26917,-2.06505 -0.401,-4.13819 -0.32552,-6.21939 0.0618,-1.49373 0.45165,-2.93727 0.77699,-4.38684 0.10863,-1.09367 -0.10524,-2.20282 -0.15421,-3.3042 -0.0625,-1.21688 0.006,-2.42489 0.30829,-3.60562 0.17237,-0.76584 -0.24095,-1.37498 -0.48668,-2.08281 -0.54716,-1.76246 -0.77294,-3.58228 -0.68503,-5.42091 0.18538,-0.99772 0.19955,-1.95853 0.0627,-2.95949 -0.26506,-1.72542 -0.31639,-3.46917 -0.21716,-5.2093 0.0839,-1.22191 0.45443,-2.39125 0.71495,-3.58018 -0.0505,-1.22258 0.0988,-2.43596 0.33187,-3.63909 0.0549,-0.83257 0.62687,-1.4741 0.79121,-2.20845 0.56337,-1.66937 -0.059,-0.0746 1.4265,-2.4743 0.48711,-0.78691 -0.46123,0.51572 -0.53833,0.58324 -0.10976,0.0961 0.0704,-0.28427 0.12588,-0.41922 0.68282,-1.35214 1.73455,-2.43196 2.86047,-3.4204 0.84463,-0.73107 1.84881,-1.16881 2.8826,-1.55079 2.41935,-0.80884 -0.46759,0.0175 5.6134,1.12644 0.37716,0.0688 -0.4662,-0.6127 -0.74307,-0.87789 -0.73449,-0.70352 -0.29485,-0.22794 -2.34828,-0.24288 0.0115,0.15475 -0.0238,0.024 0.11828,0.11271 0.28943,0.1806 0.2518,0.11137 0.71426,-0.056 3.25141,0.027 3.96496,-0.27251 5.898621,1.86869 0.88441,1.15356 1.39771,2.49029 1.52744,3.92957 0.0258,0.6136 -0.0573,1.24156 -0.24541,1.82815 -0.0631,0.1968 -0.0757,0.68622 -0.24604,0.56911 -8.649271,-5.94807 -4.750571,-3.92667 -2.39955,-2.84025 2.13101,0.73209 1.09568,3.74579 -1.035331,3.0137 v 0 c 0.45653,0.28843 1.795651,1.19707 1.369591,0.86528 -2.974921,-2.31664 -4.314201,-5.64341 -5.150421,-3.12211 -0.0793,0.239 -0.055,0.51351 -0.19929,0.56722 -0.18449,-0.48654 -0.0457,-0.5092 0.17183,-0.009 0.49731,1.10194 2.48142,0.32774 3.39901,0.32395 1.07865,-0.47003 -1.29149,0.80971 -1.42432,0.62924 -1.85425,0.0248 -3.22043,0.30158 -4.75,-0.75584 -0.33873,-0.23417 -1.33937,-0.83036 -0.92785,-0.81562 6.50765,0.23313 2.90389,1.60109 4.96494,0.76362 0.39961,-0.12712 -0.90866,0.61941 -1.02486,0.61627 -0.57472,0.16012 -0.81265,0.94469 -1.23576,1.31525 -0.4082,0.5309 -0.78929,1.1147 -1.23551,1.61227 -0.16737,0.18663 -0.64323,0.74693 -0.54802,0.51503 0.23005,-0.56032 0.64531,-1.02524 0.96796,-1.53786 0.0774,-0.24086 0.15481,-0.48171 0.23221,-0.72257 0.0238,-0.10026 -0.0312,-0.30878 0.0715,-0.30077 0.10504,0.008 0.0357,0.20773 0.0574,0.31083 0.14818,0.70257 0.17445,1.40747 0.0735,2.1241 -0.20512,1.37866 -0.56202,2.71387 -1.05578,4.01791 -0.021,0.0775 -0.0488,0.15359 -0.0631,0.23266 -0.008,0.0463 -0.002,-0.13172 0.0452,-0.13369 0.13851,-0.006 0.13378,0.24647 0.16608,0.38129 0.0997,0.4161 0.15518,0.95121 0.20868,1.36576 0.11728,1.81673 0.0669,3.63998 -0.2514,5.43671 -0.11467,0.66482 -0.34677,1.32729 0.033,1.94283 0.62108,1.69883 0.91136,3.50583 0.89757,5.31413 -0.0448,0.91294 -0.19378,1.87966 -0.18025,2.76991 0.47713,1.22033 0.5296,2.547 0.53688,3.84301 -0.0562,1.62264 -0.20256,3.25951 -0.76907,4.79566 -0.10749,0.67193 0.65024,2.15124 0.42457,2.88641 0.084,2.13812 -0.0482,4.27069 -0.39073,6.38441 -0.1291,1.06965 -0.15457,2.0991 0.10347,3.15757 0.22659,1.71633 0.30334,3.46224 -0.0669,5.16589 -0.0848,0.39321 -0.14464,0.87042 -0.30247,1.24745 -0.015,0.0359 0.004,-0.20465 0.0795,-0.13942 0.065,0.0564 0.0951,0.1434 0.14271,0.2151 0.73106,1.81408 0.82858,3.81923 0.6738,5.74997 -0.1046,0.94983 -0.24466,1.84242 -0.49055,2.76515 -0.0421,0.15787 -0.0817,0.31682 -0.13629,0.47081 -0.0111,0.0314 -0.0497,0.11237 -0.0592,0.0804 -0.0294,-0.0994 -0.006,-0.20718 -0.009,-0.31078 0.0106,-0.0711 -0.0344,-0.18529 0.0318,-0.21321 0.0454,-0.0191 0.20305,0.23 0.358,0.57994 0.36959,0.83471 0.62045,1.71589 0.79399,2.61083 0.26591,1.76659 0.29826,3.53169 0.39348,5.31029 0.34074,1.59047 1.16302,3.04629 1.37936,4.67435 0.32445,2.27396 0.2727,4.51562 -0.0839,6.78593 -0.12424,1.32652 -0.22509,2.64892 -0.12752,3.98237 0.0646,1.89164 -0.0495,3.79088 -0.36307,5.65882 -0.12869,0.67481 -0.47346,1.48103 -0.38914,2.15862 0.3703,1.1961 0.56517,2.43014 0.66552,3.6775 0.0778,1.50569 0.11311,3.00989 0.0265,4.51619 0.005,1.08639 0.24845,2.12123 0.48005,3.18118 0.26442,1.72794 0.4678,3.47231 0.34751,5.22364 -0.0348,0.82206 -0.27088,1.87476 -0.1376,2.60637 0.36402,1.29132 0.58685,2.62391 0.95314,3.91547 0.49417,2.13835 0.89399,4.29867 0.96502,6.49872 0.10135,1.72898 0.25611,3.45244 0.38459,5.17954 0.0939,1.80131 0.10532,3.60236 0.0437,5.40507 -0.006,1.79983 0.0158,3.60087 -0.0806,5.39898 -0.11136,1.52421 -0.1897,3.05684 -0.52341,4.55364 -0.2337,1.06058 -0.48364,2.07743 -0.26299,3.17246 0.19082,2.52055 0.42951,5.12974 -0.6151,7.51041 0.20889,3.80658 -5.17442,4.10199 -5.38331,0.29541 z"
         id="path1894"
         style="fill:#1a1a1a;fill-opacity:1;stroke:none;stroke-width:0.26458332;stroke-opacity:1" />
      <path
         inkscape:connector-curvature="0"
         d="m 33.869889,378.00594 c -1.22877,-3.35201 -0.90892,-6.98567 -0.20145,-10.41358 0.46957,-2.10931 1.42553,-4.05516 2.09381,-6.10034 0.40423,-1.61449 0.62601,-3.26612 0.9355,-4.8999 0.35794,-1.71079 0.55681,-3.44593 0.74812,-5.18132 0.185,-1.5252 0.33009,-3.0551 0.42364,-4.5886 0.0887,-1.34481 0.18952,-2.68859 0.26197,-4.03443 0.0687,-1.5122 0.19669,-3.01938 0.35668,-4.52477 0.16219,-1.57832 0.33034,-3.15926 0.58016,-4.72654 0.20711,-1.09719 0.25391,-2.21154 0.32374,-3.32301 -0.0951,-1.78474 0.0172,-3.55228 0.23284,-5.32308 0.19658,-1.78723 0.72074,-3.49338 1.32693,-5.17542 0.33063,-0.75355 0.52365,-1.50408 0.51711,-2.32182 -0.0854,-1.79972 0.2374,-3.55099 0.7234,-5.27404 0.24282,-1.00782 0.84841,-1.88401 1.13469,-2.87103 0.0971,-1.10216 0.0391,-2.21604 0.0709,-3.32532 0.0435,-1.11865 0.23468,-2.22357 0.18962,-3.34412 -0.16832,-1.68771 -0.35084,-3.37191 -0.44531,-5.0661 -0.0951,-1.88843 0.0644,-3.77115 0.19837,-5.65256 0.0543,-1.31195 -0.19412,-2.62045 -0.36283,-3.91807 -0.28455,-1.83253 -0.28518,-3.69116 -0.0261,-5.52456 0.27144,-0.80645 0.007,-1.58571 -0.11189,-2.4061 -0.19289,-1.63696 -0.35522,-3.27719 -0.54375,-4.91467 -0.13767,-1.40791 0.0546,-2.81054 0.12736,-4.21436 -0.0758,-1.57906 -0.27562,-3.1483 -0.34527,-4.73027 -0.0741,-1.65399 0.0456,-3.30727 0.37222,-4.92915 0.25218,-0.816 0.0466,-1.6351 -0.0789,-2.45396 -0.3337,-1.83256 -0.3754,-3.68804 -0.11442,-5.52972 0.2404,-0.80869 0.32131,-0.85289 0.11196,-1.61659 -0.44429,-1.4291 -0.73115,-2.90442 -0.9536,-4.3829 -0.17907,-1.34958 -0.34279,-2.70282 -0.44497,-4.06051 -0.0864,-1.2756 0.0833,-2.55383 -0.0147,-3.82795 -0.21146,-1.13464 -0.44673,-2.2616 -0.58949,-3.40831 -0.20256,-1.15917 0.0205,-2.32166 -2.6e-4,-3.48101 -0.0834,-0.97596 -0.25434,-1.9391 -0.34917,-2.91489 -0.10603,-1.0382 -0.008,-2.06521 0.13932,-3.09166 -0.0216,0.3767 0.11277,-0.73756 0.12294,-0.54998 0.0149,0.27515 -0.0357,0.55038 -0.035,0.82594 2.4e-4,0.0899 0.0839,0.30597 0.002,0.2697 -0.11124,-0.049 -0.098,-0.22251 -0.14698,-0.33376 -0.43626,-0.87258 -0.51329,-1.90152 -0.44487,-2.86087 0.0412,-0.39376 0.0916,-0.79037 0.17294,-1.17834 0.0113,-0.054 0.0472,-0.21401 0.046,-0.15888 -0.0279,1.34183 -0.10831,0.11746 -0.0132,1.18864 0.62268,1.73086 -0.28431,0.14481 -0.48897,-0.27599 -0.0942,-0.0109 -0.67094,-1.82567 -0.39525,-1.16987 0.55558,1.26786 1.47615,0.99408 2.60605,2.53605 0.25726,0.35108 -0.82728,-0.28518 -1.20734,-0.49728 -0.60223,-0.33609 -0.87507,-0.63929 -1.31457,-1.07275 -0.19947,-0.16838 -0.9841,-1.06398 -0.23365,-0.24267 0.41796,0.35451 0.37205,0.33822 0.72089,0.57886 0.0445,0.0307 0.18706,0.10692 0.13637,0.088 -0.32095,-0.1197 -0.43842,-0.21387 -0.77552,-0.41299 -0.10121,0.065 -0.75167,-0.65824 -0.92398,-0.61294 -0.0537,0.0141 0.0658,0.0894 0.0988,0.13409 1.12831,1.2337 6.18381,-0.43517 3.63852,0.53888 -1.28026,0.38842 -0.7946,0.29945 -3.13302,0.17301 -0.0783,-0.004 -1.03527,-0.47007 -0.66876,-0.22033 0.57208,0.58413 3.25751,0.17458 1.5617,0.17097 -0.0687,-0.004 -0.14933,0.0254 -0.2062,-0.0134 -0.0751,-0.0513 0.27452,-0.17263 0.36913,-0.31385 0.77643,-1.15899 1.33705,-2.47235 2.24262,-3.53351 0.21283,-0.2494 -0.0432,0.65431 -0.0648,0.98147 -0.35913,1.71648 -1.39363,2.8722 -2.92897,3.61274 0.92285,-0.37191 2.69137,-4.87815 1.1453,-3.31313 -1.28026,0.702 -0.47009,0.34029 -2.52255,0.84944 0.0467,0.83567 -1.13511,0.90173 -1.18181,0.0661 v 0 c -2.08354,-0.15109 -1.21667,-0.0348 -2.61097,-0.26022 -2.17255,-0.64962 0.34752,-3.70695 1.49787,-4.32398 -0.82496,0.52283 -1.2855,1.24473 -1.40416,2.23576 0.0419,2.09477 -0.0844,0.29276 2.22911,-3.42649 0.18093,-0.29086 0.93272,-0.34695 1.22095,-0.43834 1.23791,-0.0672 2.52879,-0.23707 3.7188,0.17078 0.27782,0.0958 0.42671,0.15185 0.43619,0.13317 0.0213,-0.0418 -0.0771,-0.054 -0.11871,-0.0757 -0.0953,-0.0496 -0.18414,-0.13286 -0.2915,-0.13774 -2.22218,-0.10113 -1.68453,-0.29624 -2.68515,0.16946 -1.35917,0.8295 3.69988,-0.83552 4.99956,0.47903 0.11998,0.0957 0.24176,0.18907 0.36094,0.28572 0.0545,0.0442 0.21592,0.17933 0.1623,0.13407 -0.12096,-0.10212 -0.26499,-0.18138 -0.36434,-0.30462 -0.0209,-0.0259 0.72012,0.53916 0.0465,0.0275 -0.12341,-0.0787 -0.24682,-0.15736 -0.37023,-0.23604 0.0491,0.0199 0.16797,0.10854 0.14739,0.0597 -0.026,-0.0618 -0.2352,-0.1172 -0.16853,-0.10988 0.49464,0.0543 0.96362,0.58962 1.34503,0.81478 0.39869,0.39114 0.5055,0.462 0.93017,0.79255 -0.24235,-0.29736 -0.26974,-0.35327 -0.76909,-0.63706 -0.28784,-0.16359 -1.15246,-0.62088 -0.91211,-0.39318 1.65159,1.56471 2.34248,1.26 3.01707,2.71369 0.0514,0.11924 0.0809,0.25062 0.15433,0.35771 0.0249,0.0362 -0.0151,-0.0908 5.3e-4,-0.13184 0.0392,-0.10235 0.23212,0.38984 0.39756,0.7307 0.13878,0.32812 0.47032,1.2883 0.64176,1.79735 0.0317,0.2407 0.088,0.47943 0.0951,0.7221 0.002,0.0786 -0.13756,1.35299 -0.0123,0.92171 0.17688,0.2043 0.1408,0.71773 0.219,1.00223 -0.021,0.67152 0.38678,1.63771 0.17063,2.2656 0.29022,0.45113 0.22706,1.07271 0.39878,1.56712 0.20376,1.34923 0.26864,2.69991 0.10767,4.05937 -0.0337,0.56534 -0.16406,1.12211 0.10359,1.64448 0.58529,1.64638 0.9425,3.34181 0.83626,5.10143 -0.0594,1.01734 -0.20973,2.02708 -0.23083,3.04473 0.19825,1.23213 0.7556,2.38492 0.90604,3.63042 0.21418,1.43633 0.2942,2.87109 0.2037,4.321 -0.002,0.96112 0.39177,1.87825 0.54838,2.81731 0.26469,1.85171 0.22265,3.71759 -0.11726,5.55978 -0.12385,0.78823 -0.35116,1.58191 -0.0888,2.36494 0.36805,1.64866 0.51047,3.3363 0.43674,5.02535 -0.0814,1.64685 -0.26771,3.27693 -0.55804,4.89978 0.0215,1.1288 0.60185,2.20213 0.59918,3.34311 0.11061,1.76583 0.18813,3.54619 -0.1458,5.29537 -0.15201,0.84162 0.14417,1.5297 0.36013,2.3568 0.37222,1.84809 0.40981,3.73125 0.23368,5.60752 -0.0757,1.2768 -0.21713,2.49945 0.17315,3.75318 0.34149,2.02755 0.50413,4.06917 0.35719,6.12651 -0.10844,1.55717 -0.32485,3.10464 -0.40914,4.66173 0.0808,1.38598 0.4266,2.75667 0.30017,4.15502 -0.12904,1.51956 -0.40608,3.00394 -0.88341,4.45504 -0.19304,0.9954 -0.33211,2.00006 -0.46839,3.00455 -0.27683,1.6267 -0.59219,3.25182 -1.10487,4.82333 -0.24251,0.76581 -0.54439,1.5443 -0.49134,2.3602 -0.0427,1.78034 -0.25569,3.54615 -0.70966,5.27237 -0.34219,1.32953 -0.80571,2.66155 -0.83602,4.04462 0.0373,1.42285 0.0753,2.85016 -0.14581,4.26288 -0.18915,1.44291 -0.43569,2.87809 -0.57371,4.32729 -0.11769,1.50964 -0.29777,3.01295 -0.55463,4.5056 -0.14562,1.13707 -0.28466,2.27983 -0.17055,3.42792 0.0902,1.86076 0.10565,3.72097 -0.28615,5.55566 -0.29608,1.79985 -0.58806,3.5995 -0.8228,5.40867 -0.31264,2.05824 -0.69917,4.1099 -1.44543,6.06237 -0.58282,1.53881 -1.10225,3.07308 -1.11324,4.74363 -0.15803,3.06988 -0.24711,6.24052 -1.29897,9.15649 0.15083,5.41449 -7.50641,5.62779 -7.65724,0.21331 z"
         id="path1896"
         style="fill:#1a1a1a;fill-opacity:1;stroke:none;stroke-width:0.26458332;stroke-opacity:1" />
      <path
         inkscape:connector-curvature="0"
         d="m 95.456419,348.64591 c 0.84709,2.85556 0.57848,5.8764 0.17024,8.78338 -0.17747,1.42314 -0.52297,2.82583 -0.62166,4.25812 -0.002,0.80741 0.10005,1.60928 0.17639,2.41152 0.15388,1.20021 0.15215,2.40104 0.0372,3.60379 -0.0973,0.77057 -0.29865,1.52159 -0.34926,2.29806 -10e-4,0.50459 -0.0152,1.00873 -0.0274,1.51289 0.01,0.57163 0.0886,1.1385 0.13086,1.7087 0.0543,0.66795 -0.051,1.33345 -0.0808,1.99994 -0.007,0.49477 0.0645,0.98615 0.0381,1.48068 -0.0418,0.43813 -0.0106,0.87162 0.0579,1.30514 0.11904,0.78031 0.15836,1.56782 0.1349,2.35596 -0.0396,0.49755 -0.068,0.24201 -0.26714,-0.091 -0.85224,-1.42541 -1.37213,-1.81096 -0.48544,-1.0374 1.09569,1.33331 0.5339,1.00423 -3.44145,-0.47308 -0.39065,-0.14515 0.77523,-0.31411 1.18012,-0.4128 0.61539,-0.0833 0.48138,0.10938 0.78813,0.70228 3.02911,-1.66494 5.38373,2.61885 2.35461,4.28382 v 0 c -0.26588,0.56602 -0.38574,1.13959 -1.1538,1.03709 -0.0378,-0.0827 0.14968,-0.2462 0.0609,-0.26607 -1.37787,-0.30824 -2.78733,-0.45593 -4.17234,-0.7303 -0.10941,-0.0217 -0.658,-0.89524 0.11787,0.18799 0.0872,0.0837 0.32961,0.35097 0.26145,0.25117 -0.72705,-1.06437 -1.51059,-1.85529 -1.65329,-3.15352 -0.0847,-0.8862 -0.0514,-1.76969 0.0889,-2.65017 0.069,-0.43659 0.0965,-0.87265 0.0547,-1.31371 -0.025,-0.4975 0.0476,-0.99084 0.0487,-1.48831 -0.0277,-0.64569 -0.14553,-1.28762 -0.10439,-1.9354 0.0362,-0.69398 0.0957,-1.38613 0.15808,-2.07791 0.04,-0.40711 0.11412,-0.78187 0.0235,-1.19475 -0.0206,-1.01113 0.12073,-2.01102 0.3671,-2.99196 0.18292,-0.9176 0.34389,-1.82853 0.33782,-2.77124 0.0352,-0.9357 0.0313,-1.8718 0.0927,-2.80644 0.069,-1.39994 0.0438,-2.79694 -0.0877,-4.19399 -0.18221,-3.02567 -0.15669,-6.16547 1.20298,-8.94691 0.25065,-3.22557 4.81228,-2.87108 4.56163,0.35448 z"
         id="path1898"
         style="fill:#1a1a1a;fill-opacity:1;stroke:none;stroke-width:0.26458332;stroke-opacity:1" />
    </g>
  </g>
  <g
     inkscape:groupmode="layer"
     id="layer5"
     inkscape:label="arm"
     style="display:inline"
     transform="translate(0,-296.33334)">
    <path
       style="fill:#000000;fill-opacity:1;stroke:none;stroke-width:0.24808834;stroke-opacity:1"
       id="path1869"
       d="m 194.40976,333.13498 c -0.52784,0.27135 -1.03765,0.59366 -1.58354,0.81406 -1.70576,0.6887 -3.46273,1.06478 -5.24479,1.39567 -3.70041,0.68707 -7.41138,0.92786 -11.14961,1.16623 -8.1583,0.31482 -16.32474,0.23371 -24.48177,-0.0765 -6.55709,-0.37688 -13.12118,-0.34103 -19.68276,-0.18771 -6.83572,0.45741 -13.67009,0.3139 -20.48972,-0.33141 -5.80023,-0.68071 -11.56541,-1.62075 -17.394561,-1.91987 -5.201846,-0.052 -10.398542,0.0419 -15.598335,-0.18283 -3.938227,-0.15081 -7.763996,-1.25539 -11.634306,-1.96435 -1.851525,-0.26979 -3.716879,-0.009 -5.574384,0.0106 -1.52521,0.01 -3.074677,0.03 -4.564851,-0.38559 -1.940394,-0.83188 -0.321646,-2.52693 -0.06471,-5.8888 2.89568,0.0488 2.835006,4.70653 -0.06066,4.65774 v 0 c -0.106657,-3.12934 -1.662411,-5.17232 0.293476,-5.86302 1.385355,-0.29208 2.801439,-0.19524 4.203218,-0.25693 1.955438,-0.13749 3.907254,-0.31738 5.848017,-0.63498 4.006111,-0.50378 8.032329,-0.54434 12.045606,-0.046 5.069969,0.53215 10.151737,0.74229 15.243684,0.59739 5.984876,-0.0425 11.975616,0.0519 17.937476,0.716 6.55781,0.61021 13.10926,1.4168 19.70034,1.3418 6.61926,-0.0655 13.23358,-0.3667 19.8497,-0.58889 8.1393,-0.17602 16.27472,0.0989 24.40439,0.56571 3.66873,0.21517 7.32634,0.42598 10.97742,0.90661 1.71811,0.22617 3.48833,0.46811 5.17189,0.95646 0.54053,0.15679 1.05908,0.39899 1.58861,0.59848 2.85986,-0.20925 3.12003,4.39089 0.26018,4.60014 z"
       inkscape:connector-curvature="0" />
    <path
       style="fill:#000000;fill-opacity:1;stroke:none;stroke-width:0.24808834;stroke-opacity:1"
       id="path1871"
       d="m 194.43517,402.62086 c -0.46901,0.10666 -0.93222,0.25459 -1.40706,0.31997 -1.24766,0.17179 -2.97685,0.15828 -4.1998,0.13794 -2.73913,-0.0455 -5.47471,-0.25673 -8.21034,-0.40578 -6.27095,-0.52882 -12.55908,-0.24578 -18.8355,-0.0522 -6.2201,0.21895 -12.4453,0.15972 -18.66751,0.11859 -4.93294,0.0933 -9.86571,0.19556 -14.79883,0.0705 -3.73085,-0.12798 -7.45498,-0.44066 -11.18862,-0.407 -3.43761,0.18853 -6.87654,0.1605 -10.31624,0.12342 -2.7474,-0.13697 -5.48466,-0.15174 -8.226555,0.0865 -2.479932,0.30826 -4.945174,0.74489 -7.42376,1.06931 -2.716685,0.36166 -5.453046,0.33101 -8.178232,0.14585 -1.929263,-0.23743 -3.855046,-0.45108 -5.796567,-0.42186 -2.073197,0.10523 -4.145833,0.20635 -6.221044,0.23666 -2.007486,0.0176 -4.011078,0.14268 -6.015743,0.25075 -1.840289,0.19892 -3.674608,0.43616 -5.520743,0.56326 -1.902704,0.0909 -3.801918,-0.0383 -5.681901,-0.37124 -0.04009,-0.0309 -1.096038,-0.26327 -0.984406,-0.41017 0.08291,-0.10914 0.345464,-0.02 0.352076,-0.16407 0.292219,-6.36063 -1.911435,-6.49164 0.161043,-6.29136 0.325902,0.0989 0.133822,0.061 0.127264,0.15658 -0.143177,2.08209 0.847795,7.49785 -0.609189,6.22689 0.728831,-1.399 0.0277,-0.0354 0.510912,-4.70329 1.956203,0.15231 1.766849,3.29893 -0.18938,3.14662 v 0 c -0.0977,-4.73758 -1.307915,-3.95242 -0.0079,-4.75404 2.15703,-1.09201 2.235613,6.49924 -0.07411,6.45696 -2.12216,-0.0556 -0.717384,0.0841 -0.859586,-6.357 -0.0026,-0.0658 1.053361,-0.44026 1.128498,-0.46055 0.190813,-0.0515 0.384501,-0.0883 0.576738,-0.13242 1.821914,-0.20542 3.645903,-0.16326 5.47194,-0.0313 1.696319,0.0839 3.357427,-0.0887 5.021015,-0.49313 2.180363,-0.37991 4.380271,-0.59611 6.588242,-0.55861 2.05659,0.0261 4.112407,0.0963 6.16911,0.11386 2.028728,-0.0172 4.053623,-0.15644 6.082412,-0.17921 2.412569,0.0413 4.833333,0.23877 7.2406,-0.0352 2.542313,-0.35768 5.063645,-0.86996 7.604147,-1.24301 2.902779,-0.31845 5.815309,-0.49061 8.731289,-0.54624 3.46233,-0.067 6.92513,-0.14218 10.38535,0.0821 3.70497,0.093 7.40981,-0.0506 11.11325,-0.17253 4.88223,-0.17843 9.76158,-0.41281 14.64134,-0.66565 6.28134,-0.41349 12.58038,-0.65809 18.87222,-0.55241 6.50688,0.22802 13.00494,0.75704 19.4672,1.66708 4.05931,0.72613 8.68554,1.50912 12.42272,3.55843 0.43912,0.24079 0.8401,0.5627 1.26016,0.84406 2.50718,0.41355 1.99297,4.44641 -0.5142,4.03284 z"
       inkscape:connector-curvature="0" />
  </g>
</svg>
