<?xml version="1.0" encoding="UTF-8" standalone="no"?>
<!-- Created with Inkscape (http://www.inkscape.org/) -->

<svg
   xmlns:dc="http://purl.org/dc/elements/1.1/"
   xmlns:cc="http://creativecommons.org/ns#"
   xmlns:rdf="http://www.w3.org/1999/02/22-rdf-syntax-ns#"
   xmlns:svg="http://www.w3.org/2000/svg"
   xmlns="http://www.w3.org/2000/svg"
   xmlns:sodipodi="http://sodipodi.sourceforge.net/DTD/sodipodi-0.dtd"
   xmlns:inkscape="http://www.inkscape.org/namespaces/inkscape"
   width="1024"
   height="512"
   viewBox="0 0 270.93334 135.46667"
   version="1.1"
   id="svg8"
   inkscape:version="0.92.4 (5da689c313, 2019-01-14)"
   sodipodi:docname="upper_arm.svg"
   inkscape:export-filename="C:\Users\panu-\PycharmProjects\nextgame\data\images\bodies\suit\upper_arm.png"
   inkscape:export-xdpi="10.173375"
   inkscape:export-ydpi="10.173375">
  <defs
     id="defs2" />
  <sodipodi:namedview
     id="base"
     pagecolor="#ffffff"
     bordercolor="#666666"
     borderopacity="1.0"
     inkscape:pageopacity="0.0"
     inkscape:pageshadow="2"
     inkscape:zoom="0.69977473"
     inkscape:cx="392.17482"
     inkscape:cy="194.12545"
     inkscape:document-units="mm"
     inkscape:current-layer="layer1"
     showgrid="false"
     units="px"
     width="1024px"
     inkscape:window-width="1920"
     inkscape:window-height="1017"
     inkscape:window-x="-8"
     inkscape:window-y="-8"
     inkscape:window-maximized="1"
     inkscape:pagecheckerboard="true"
     showguides="false" />
  <metadata
     id="metadata5">
    <rdf:RDF>
      <cc:Work
         rdf:about="">
        <dc:format>image/svg+xml</dc:format>
        <dc:type
           rdf:resource="http://purl.org/dc/dcmitype/StillImage" />
        <dc:title />
      </cc:Work>
    </rdf:RDF>
  </metadata>
  <g
     inkscape:groupmode="layer"
     id="layer1"
     inkscape:label="arm_color 1">
    <g
       id="g841"
       transform="matrix(1.187894,0,0,1.187894,-60.277887,73.739774)">
      <path
         inkscape:connector-curvature="0"
         id="path836"
         d="m 204.5446,-34.640492 c -0.63716,0.24783 -1.14624,0.61771 -1.87671,0.65429 -3.04731,1.41244 -6.13698,3.05774 -8.523,5.45259 -2.76856,3.873341 -5.36215,7.980361 -7.06247,12.442481 -1.38613,5.442249 -1.56286,11.1608387 -1.189,16.73948071 1.04805,3.83396799 2.74093,7.52112799 4.77585,10.93076829 2.79066,3.6083 6.26069,6.738252 10.38979,8.738672 2.51181,1.281729 4.98167,2.826049 7.63265,3.715538 3.73488,0.0591 7.54997,0.0592 11.23158,0.41071 4.72721,-2.55705 9.7272,-4.63913 14.31762,-7.46506 4.06137,-2.84898 6.71043,-7.2747693 8.86138,-11.6487683 2.03978,-4.269211 0.93924,-9.130911 0.89412,-13.661152 -0.22307,-4.1087887 -0.77998,-8.4866387 -3.57177,-11.7278287 -1.14409,-1.976431 -2.69356,-3.63156 -4.59369,-4.885381 -4.51819,-3.79724 -9.68458,-7.48906 -15.69409,-8.2285 -4.87236,-0.36682 -9.82253,0.20329 -14.6163,-0.60154 -0.0194,-0.49833 -0.47964,-0.90463 -0.97596,-0.8663 z"
         style="fill:#333333;fill-opacity:1;stroke:none;stroke-width:0.26735559;stroke-opacity:1" />
      <path
         inkscape:connector-curvature="0"
         d="m 206.78021,-29.453432 c -1.07673,0.76172 -2.38979,1.044451 -3.60451,1.51161 -0.85365,0.424721 -1.43534,1.20609 -2.05727,1.902181 -0.70783,0.759619 -1.31297,1.600809 -1.89531,2.45764 -0.64844,0.960009 -1.30299,1.91585 -1.89464,2.91232 -0.56872,0.99791 -1.13114,1.99946 -1.69011,3.0029 -0.58427,0.95858 -0.9845,1.99918 -1.30667,3.069479 -0.34255,1.222861 -0.74911,2.42538 -1.04395,3.661079 -0.29179,1.3217107 -0.52629,2.6550617 -0.82049,3.9764707 -0.23617,0.737711 -0.27807,1.458992 -0.18961,2.21892 0.16023,1.1518 0.24554,2.309641 0.26882,3.471752 0.0283,1.15711801 -0.0669,2.31032 -0.16093,3.462189 -0.0753,0.55155 0.17217,0.91286 0.44486,1.360839 0.46316,0.801219 0.87554,1.627751 1.27956,2.45958 0.22591,0.51349 0.3781,1.06145 0.74121,1.49823 0.55848,0.44845 1.05818,0.95967 1.54468,1.483571 0.6426,0.667251 1.2154,1.3981703 1.77589,2.1345903 0.34613,0.55163 0.73066,0.724379 1.26039,1.03418 0.77897,0.47276 1.47779,1.060479 2.15591,1.665499 0.42235,0.353171 0.78131,0.78628 1.22299,1.11625 0.31177,0.147101 0.62957,0.252021 0.94466,0.39846 0.66973,0.272542 1.32289,0.584171 1.97569,0.894641 0.38059,0.18923 0.76078,0.38458 1.18362,0.43601 0.83677,0.0606 1.66399,0.185189 2.48693,0.346159 0.89331,0.18437 1.7476,0.515541 2.63315,0.728501 0.65962,0.096 1.3268,0.14078 1.98957,0.221539 0.91205,0.105021 1.83308,0.01709 2.74836,0.0021 -2.28882,0.0123 0.31302,0.124802 0.77137,0.0976 1.318,-0.0191 2.63607,-0.114069 3.95464,-0.147089 -0.36604,0.004 1.3686,-0.01889 1.02702,0.004 -0.30025,0.02011 -0.60287,-0.009 -0.9026,0.0176 -0.15003,0.01339 0.30095,0.01381 0.45132,0.0227 0.39696,0.02349 0.39079,0.0263 0.76918,0.0634 0.53971,0.075 0.35164,0.224909 0.87201,-0.02019 0.65363,-0.311219 1.34262,-0.552419 2.05231,-0.6975 0.55157,-0.21871 0.98632,-0.730999 1.42836,-1.119058 0.56834,-0.449432 1.16754,-0.849712 1.69528,-1.347841 0.61736,-0.666551 1.22015,-1.344821 1.86393,-1.9867 0.63158,-0.639731 1.3168,-1.219851 2.01261,-1.787411 0.44168,-0.366059 0.94572,-0.642679 1.40996,-0.975469 0.509,-0.4653413 0.99838,-0.9517193 1.50214,-1.4228103 0.61161,-0.523042 1.16088,-1.11171 1.73566,-1.673281 0.25838,-0.167169 0.7919,-0.850669 1.09277,-0.882509 0.22629,-0.370721 0.39865,-0.77901 0.60311,-1.164971 0.24565,-0.486299 0.58239,-0.927489 0.78949,-1.43292 0.15213,-0.58097 0.20897,-1.182029 0.28263,-1.77668 0.10864,-0.76416899 0.11371,-1.53596999 0.0943,-2.30576999 -0.0454,-0.76570901 -0.0169,-1.53507001 -0.0966,-2.29836901 -0.0581,-0.654269 -0.27294,-1.26901 -0.47544,-1.887932 -0.43183,-1.07873 -0.65966,-2.20309 -0.78811,-3.353728 -0.0814,-0.794592 -0.041,-1.606399 -0.29782,-2.3709707 -0.34669,-0.734161 -0.6632,-1.474841 -0.89117,-2.25475 -0.19951,-0.75556 -0.31095,-1.52517 -0.63167,-2.24223 -0.38868,-0.7534 -0.80696,-1.49113 -1.17009,-2.2574 -0.24068,-0.29652 -0.43848,-1.41056 -0.68743,-1.61182 -0.30725,-0.0377 -0.57953,-0.36524 -0.79391,-0.54967 -1.18965,-1.02353 0.56388,0.52198 -0.74961,-0.64207 -0.65944,-0.61618 -1.33011,-1.22415 -2.03428,-1.78928 -0.53913,-0.45971 -1.17301,-0.78757 -1.78995,-1.12904 -0.83586,-0.47068 -1.59311,-1.06435 -2.28126,-1.7298 -0.23777,-0.30523 -0.45243,-0.46067 -0.80633,-0.56348 -0.6834,-0.27515 -1.32289,-0.6351 -1.92437,-1.0585 -0.25227,-0.17605 -0.47719,-0.38835 -0.72197,-0.57374 -0.046,-0.0349 -0.23729,-0.23468 -0.1736,-0.0704 -0.26885,0.16214 -1.28917,-0.40348 -1.54994,-0.52841 -0.57154,-0.22507 -1.06032,-0.64409 -1.65616,-0.80699 -0.46574,-0.0967 -0.92726,-0.21449 -1.3899,-0.32774 -0.58844,-0.10884 -1.18688,-0.11428 -1.78144,-0.15975 -0.61931,-0.0943 -1.24205,-0.16212 -1.86371,-0.23809 -0.66227,-0.0442 -1.31925,-0.14446 -1.98032,-0.1981 -0.65798,-0.0367 -1.31417,-0.0526 -1.96958,-0.12817 -0.0876,-0.006 -0.42293,-0.0279 -0.52098,-0.031 -0.0748,-0.002 -0.29922,-0.002 -0.22442,-0.002 2.38401,0.004 1.26612,0.002 0.74189,-0.002 -0.63264,-0.007 -1.25513,0.15139 -1.88557,0.17135 -0.70279,0.0223 -1.40608,0.0237 -2.10913,0.0356 -0.58635,0.0313 -1.1744,0.0401 -1.76093,0.007 -0.1666,-0.009 -0.66435,-0.0175 -0.499,-0.0399 0.97288,-0.13197 1.64618,0.0557 0.93285,-0.11627 -0.39288,-0.1478 0.039,-0.44523 -0.20878,-0.31406 -0.46536,0.31447 -0.98492,0.51987 -1.52422,0.6662 -0.44343,0.0831 -0.88299,0.179051 -1.30741,0.33289 -0.66523,0.301301 -1.31818,0.630031 -1.96539,0.968461 -0.58348,0.28631 -1.16975,0.5559 -1.71181,0.91489 -0.50527,0.35412 -0.92225,0.81133 -1.36631,1.23521 -0.42962,0.37549 -0.80391,0.79462 -1.11302,1.27326 -0.40754,0.66372 -0.73431,1.37356 -1.11754,2.05191 -0.33001,0.47264 -0.53355,0.99806 -0.72451,1.53744 -0.29316,0.911229 -0.76013,1.74599 -1.24119,2.5681 -0.41945,0.65156 -0.74736,1.34811 -1.02069,2.0711 -0.26253,0.75458 -0.41746,1.54051 -0.63749,2.30808 -0.19701,0.68588 -0.49542,1.3304 -0.81974,1.963149 -0.13137,0.441679 -0.21603,0.89707 -0.29341,1.350999 -0.11208,0.6420007 -0.21421,1.2829407 -0.26091,1.9333417 -0.0739,0.68394 -0.0785,1.370788 -0.0726,2.057699 0.007,0.787321 -0.0528,1.5703 -0.15111,2.350601 -0.0817,0.60601 -0.0658,1.216769 -0.0319,1.82531 0.0739,0.87239 0.0477,1.74795901 0.12344,2.61985901 0.13971,0.67394999 0.50096,1.26122899 0.87117,1.83009199 0.54724,0.785698 1.09032,1.572879 1.60755,2.378659 0.31736,0.458989 0.5519,0.99141 0.92274,1.412529 0.28467,0.31424 0.63095,0.565171 0.95351,0.83889 0.55742,0.402051 1.02065,0.914429 1.4793,1.421861 0.32014,0.34142 0.67888,0.657479 1.05803,0.93332 0.49658,0.39882 0.89279,0.8979403 1.2901,1.3909383 0.23189,0.324152 0.49607,0.613812 0.76504,0.90669 0.4596,0.394132 0.85358,0.846191 1.21668,1.330021 0.1644,0.25858 0.37109,0.48564 0.58436,0.66181 0.52268,0.307301 0.99854,0.752581 1.46739,1.145659 0.68246,0.51902 1.28331,1.129782 1.8989,1.72339 0.35032,0.28557 0.73415,0.541811 1.1388,0.745062 0.67632,0.24557 1.33563,0.535919 2.00252,0.807429 0.94897,0.32104 1.88478,0.673721 2.81331,1.049541 0.69257,0.284279 1.29176,0.742979 1.96773,1.057979 0.50349,0.180832 1.03306,0.26861 1.55181,0.395031 0.8268,0.19055 1.65176,0.38858 2.481,0.569481 0.62061,0.159858 1.26654,0.16741 1.89562,0.272989 0.37649,0.0786 0.7494,0.122309 1.13182,0.081 0.60693,-0.0771 0.16614,-0.01119 -0.93082,-0.0422 -0.0881,-0.0021 0.17624,-0.005 0.26428,-0.009 0.31198,-0.0155 0.62324,-0.0349 0.93549,-0.0465 0.78564,0.01881 1.57814,-0.0318 2.36088,0.0149 0.3848,0.02299 -0.77131,0.0021 -1.15622,0.02339 -0.0802,0.004 0.16513,0.0271 0.22868,0.0763 -0.17891,0.232151 -0.35779,0.45924 -0.52224,0.703601 -1.04446,2.116781 -0.51972,0.498769 2.9261,4.10954 0.016,0.0168 -0.0354,-0.0434 -0.0581,-0.0384 -0.0878,0.01929 -0.16758,0.0751 -0.25729,0.0808 -0.57106,0.0364 -1.14405,0.03 -1.71608,0.0451 -0.66625,0.10967 -1.33611,0.164298 -2.01089,0.19209 -0.99475,0.003 -1.98925,-0.02371 -2.98345,-0.0543 -1.16549,-0.0401 -2.33355,-0.119149 -3.48407,-0.313391 -1.00867,-0.18855 -1.97307,-0.548999 -2.95916,-0.82623 -1.15378,-0.242879 -2.27835,-0.546319 -3.38307,-0.959509 -0.94074,-0.33469 -1.73351,-0.909719 -2.53429,-1.48237 -0.66152,-0.278874 -1.33448,-0.527484 -1.99112,-0.827884 -0.94011,-0.44532 -1.76974,-1.065242 -2.5676,-1.72365 -0.24377,-0.237262 -0.57868,-0.303201 -0.89843,-0.425471 -0.76515,-0.281501 -1.50126,-0.64217 -2.18934,-1.079079 -0.57157,-0.31864 -0.9809,-0.830702 -1.4535,-1.266312 -0.3005,-0.307059 -0.67229,-0.505539 -1.04372,-0.71007 -0.37383,-0.215119 -0.77702,-0.360228 -1.1669,-0.54011 -0.63963,-0.319349 -1.30375,-0.585748 -1.92212,-0.945629 -0.63897,-0.353419 -1.13315,-0.88974 -1.63079,-1.410851 -0.292,-0.241728 -0.53309,-0.55862 -0.89375,-0.697108 -0.74976,-0.399722 -1.4743,-0.84542 -2.17701,-1.322811 -0.7848,-0.489659 -1.27873,-1.18491 -1.72651,-1.9717413 -0.0957,-0.325728 -0.20582,-0.647549 -0.28702,-0.97718 -0.17931,-0.727969 0.12014,-0.018786 -0.17159,0.053901 -0.49913,-0.48636 -0.74043,-1.150879 -0.91878,-1.808319 -0.15844,-0.467482 -0.0898,-1.028901 -0.31847,-1.47302 -0.1935,-0.52792 -0.23682,-0.538141 0.12891,-0.02069 1.63301,-3.21355 0.53852,-3.43789 2.41128,-2.328051 0.55546,-0.589449 1.38906,0.196091 0.8336,0.78554 v 0 c 0.60155,1.95226 0.1881,1.392391 1.37185,-1.57404 0.51001,0.678489 0.90458,1.40263 0.97627,2.26655 0.0177,0.202682 -2.6e-4,0.821132 0.0731,0.576472 0.24441,-0.0213 0.70974,1.09628 0.80327,1.290468 0.0584,0.173511 0.45517,1.558311 0.33121,1.63676 -0.0523,0.0331 -0.007,-0.124579 -0.0241,-0.184208 -0.0797,-0.284202 -0.17644,-0.563362 -0.26467,-0.845042 -0.0712,-0.132538 -0.15735,-0.25807 -0.21361,-0.3976 -0.0419,-0.10404 0.085,-0.107688 0.13633,-0.0932 0.39266,0.11121 0.7219,0.397621 1.07473,0.585661 0.79845,0.549489 1.55401,1.157639 2.21708,1.86777 0.30929,0.333949 0.62356,0.6599 0.97817,0.9465603 0.28924,0.206611 0.63703,0.287438 0.94482,0.462259 0.55712,0.271751 1.08128,0.604941 1.63877,0.8762 0.63537,0.308102 1.26069,0.64947 1.82429,1.077042 0.44757,0.359219 0.85761,0.752578 1.24764,1.173168 0.2513,0.20547 0.6037,0.137051 0.89078,0.352282 0.62748,0.283199 1.22831,0.625319 1.79827,1.01151 0.45927,0.281088 0.9888,0.430688 1.46627,0.67941 0.84332,0.42277 1.67327,0.869558 2.45709,1.396878 0.58244,0.377132 1.16502,0.76109 1.78886,1.066851 0.715,0.271129 1.49334,0.37131 2.20183,0.672719 0.99317,0.338711 1.99057,0.664371 2.97692,1.022881 0.74008,0.22151 1.48201,0.36317 2.25851,0.366091 1.03459,0.0647 2.06561,0.18646 3.10132,0.240718 0.9276,0.0518 1.856,0.0752 2.78492,0.0884 0.68597,0.0348 1.38679,0.069 2.03975,0.30245 -0.4987,0.01791 -0.99856,0.0155 -1.49611,0.0538 -0.0466,0.004 -0.0926,0.0337 -0.12106,0.0708 -0.13173,0.172111 0.17278,-0.152739 0.24854,-0.0846 3.82313,3.436702 4.25458,1.929522 3.18054,4.14101 -0.46868,0.62417 -1.06231,1.088091 -1.8141,1.333222 -0.86982,0.23477 -1.30877,0.112628 -2.38228,0.18683 -0.36619,0.02529 0.73417,0.0021 1.10118,0.009 0.20961,0.004 -0.8522,0.008 -0.62887,0.009 -1.04535,-0.0258 -2.09488,-0.0428 -3.13761,-0.076 -0.44953,-0.0475 -0.89628,-0.0636 -1.34778,-0.02101 -0.92374,0.027 -1.8363,-0.141438 -2.73416,-0.344408 -0.93349,-0.221332 -1.85051,-0.499221 -2.74539,-0.846651 -0.63486,-0.240889 -1.26382,-0.495329 -1.88847,-0.7616 -0.6411,-0.25396 -1.29266,-0.47035 -1.95964,-0.64697 -1.0927,-0.366691 -2.17126,-0.772001 -3.17411,-1.348409 -0.73375,-0.40613 -1.47519,-0.801492 -2.17379,-1.26682 -0.61941,-0.410771 -1.28787,-0.747162 -1.86023,-1.2285 -0.74835,-0.595082 -1.46931,-1.225971 -2.08585,-1.960512 -0.29547,-0.348549 -0.54186,-0.704249 -0.92657,-0.95476 -0.5306,-0.41198 -0.98534,-0.90874 -1.40863,-1.42853 -0.3359,-0.40613 -0.66275,-0.82051 -0.97526,-1.24492 -0.22621,-0.29554 -0.47277,-0.56823 -0.7434,-0.823738 -0.2647,-0.269171 -0.53745,-0.516411 -0.85138,-0.730052 -0.51453,-0.439089 -1.02427,-0.88274 -1.4895,-1.37505 -0.41107,-0.4026 -0.83081,-0.796229 -1.23792,-1.202769 -0.38577,-0.379389 -0.76397,-0.7664113 -1.15389,-1.1415503 -0.55473,-0.578551 -1.08042,-1.18105 -1.54763,-1.833621 -0.66662,-0.87584 -1.35932,-1.73763 -1.90006,-2.700319 -0.6529,-1.20982 -1.18403,-2.482641 -1.36207,-3.85747099 -0.12843,-1.083969 -0.15235,-2.17306001 -0.0435,-3.26099001 0.0622,-0.705429 0.14549,-1.409398 0.15113,-2.11858 0.0268,-0.61297 0.0636,-1.22601 0.0459,-1.83991 -0.0281,-0.868309 -0.0308,-1.738741 0.0544,-2.604399 0.0859,-0.83819 0.21225,-1.6723487 0.41085,-2.4919307 0.16556,-0.683799 0.35053,-1.361319 0.57007,-2.030009 0.16818,-0.54711 0.35866,-1.0879 0.48588,-1.64685 0.24065,-0.84843 0.44839,-1.70589 0.67727,-2.55747 0.33289,-1.05775 0.70311,-2.10423 1.27823,-3.05936 0.41261,-0.69924 0.85777,-1.37523 1.36496,-2.01007 0.31848,-0.39934 0.26297,-0.95501 0.43846,-1.41884 0.36376,-1.10355 0.87807,-2.13346 1.54167,-3.08971 0.52199,-0.69326 1.05453,-1.38113 1.71428,-1.95146 0.52691,-0.52132 1.01131,-1.08046 1.53995,-1.60045 0.7487,-0.69403 1.55096,-1.33203 2.48233,-1.76621 0.80249,-0.38571 1.59836,-0.78553 2.42942,-1.10749 0.66696,-0.27139 1.34307,-0.52282 2.04921,-0.6733 0.18112,-0.0278 0.28717,-0.054 0.46457,-0.0491 0.0902,0.003 0.26752,0.0598 0.26689,0.0615 -0.0172,0.0475 -0.0674,0.0752 -0.10114,0.11286 0.17641,-0.0728 0.34338,-0.24718 0.5031,-0.34841 0.35042,-0.22211 0.73162,-0.38938 1.12915,-0.50728 1.13708,-0.3012 0.23424,-0.0973 2.52285,-0.20458 0.75593,-0.0354 1.51211,-0.0928 2.26902,-0.0204 -1.25039,0.0461 -1.30902,0.005 -0.51467,0.0834 0.45368,0.045 0.90819,0.11113 1.36538,0.0926 1.11806,-0.0539 2.23826,-0.0343 3.35672,-7.94e-4 0.76063,0.003 1.51632,0.0675 2.2677,0.18783 0.62023,0.0939 1.24219,0.1759 1.86646,0.23811 0.62246,0.0482 1.24483,0.0996 1.86885,0.12406 0.89199,0.0953 1.77261,0.27024 2.60753,0.60831 0.5766,0.19389 1.17158,0.32872 1.74026,0.54614 0.72037,0.29774 1.42273,0.63671 2.0998,1.02368 0.43693,0.22507 0.88961,0.41454 1.32433,0.64425 0.50844,0.30877 1.02916,0.59747 1.55379,0.87846 0.52598,0.28631 1.03237,0.6051 1.53214,0.93469 0.52744,0.35752 1.03877,0.73797 1.58286,1.06968 0.65204,0.39453 1.27825,0.82998 1.91174,1.25326 0.70537,0.48855 1.41889,0.9649 2.13826,1.43261 0.93996,0.67888 1.83881,1.41499 2.61198,2.28401 0.64635,0.74047 1.27835,1.50482 1.77803,2.35394 0.35116,0.62408 0.70296,1.24635 1.08892,1.84984 0.5684,0.97664 1.04902,2.00328 1.35645,3.09405 0.20561,0.77036 0.37422,1.54944 0.52664,2.33204 0.2768,0.75623 0.63805,1.47754 0.89512,2.241549 0.33926,1.090671 0.53941,2.2047707 0.58978,3.3477117 0.081,0.844648 0.19178,1.681269 0.46405,2.49042 0.25538,0.95313 0.47119,1.916859 0.53988,2.90417 0.0512,0.840999 0.0757,1.68329 0.12372,2.52450101 0.0368,1.049628 0.0277,2.10144799 -0.16233,3.13854799 -0.16083,1.005732 -0.36436,2.014072 -0.75867,2.9577 -0.30478,0.68906 -0.65689,1.359422 -1.13501,1.946572 -0.29084,0.426619 -0.59422,0.828958 -0.79263,1.313788 -0.37691,0.63672 -0.81729,1.226931 -1.33148,1.7608003 -0.64874,0.67773 -1.3004,1.357881 -2.02965,1.950482 -0.60393,0.453548 -1.15291,0.968729 -1.73469,1.449789 -0.41402,0.33595 -0.85032,0.622689 -1.29842,0.89992 -0.57652,0.505341 -1.01083,1.16102 -1.58224,1.673799 -0.67121,0.639191 -1.37007,1.243862 -2.06471,1.856351 -0.61711,0.605959 -1.19423,1.256771 -1.88769,1.778899 -0.80451,0.56963 -1.57113,1.191911 -2.40084,1.725391 -0.73826,0.41135 -1.5171,0.70852 -2.36021,0.81874 -0.76321,0.21881 -1.49403,0.566211 -2.29133,0.65233 -1.36617,0.150849 -2.74289,0.118509 -4.11532,0.10746 -0.48557,-0.01929 -0.96886,-0.0454 -1.45309,-0.0868 -0.12915,-0.01111 -0.51611,-0.0208 -0.38728,-0.0351 0.32936,-0.0365 0.66334,-0.005 0.99361,-0.0321 0.094,-0.008 -0.18784,-0.01749 -0.28177,-0.02619 -1.19348,-0.0286 -2.36149,0.575249 -3.57616,0.244639 -1.11977,-0.019 -2.222,-0.163121 -3.31255,-0.421651 -0.70373,-0.124909 -1.40769,-0.246848 -2.11891,-0.322678 -1.00861,-0.15181 -2.01319,-0.336671 -2.9949,-0.617881 -0.70509,-0.21857 -1.39454,-0.487741 -2.10937,-0.67256 -0.80151,-0.187611 -1.58458,-0.446329 -2.31045,-0.840579 -0.63543,-0.337582 -1.25856,-0.696891 -1.86828,-1.079161 -0.48296,-0.27713 -0.96618,-0.5563 -1.4137,-0.889529 -0.52337,-0.378841 -1.05482,-0.746541 -1.56642,-1.14154 -0.65403,-0.49321 -1.30449,-0.991592 -1.92057,-1.532202 -0.67446,-0.583269 -1.30613,-1.20913 -1.89071,-1.883219 -0.60969,-0.65949 -1.20766,-1.330249 -1.76451,-2.035419 -0.55627,-0.687371 -1.14265,-1.354672 -1.60874,-2.1091603 -0.36816,-0.626711 -0.71326,-1.266402 -1.09963,-1.882482 -0.42852,-0.827309 -0.84825,-1.65853 -1.22218,-2.512419 -0.44605,-1.04013 -0.78142,-2.114111 -0.83403,-3.254151 -0.089,-1.171249 -0.14714,-2.34537999 -0.0738,-3.519738 0.0492,-0.995 0.17279,-1.99177 0.10983,-2.988242 -0.10336,-1.13552 -0.25731,-2.273559 -0.119,-3.414739 0.20027,-1.460759 0.54595,-2.8896087 0.96802,-4.3020607 0.3643,-1.30693 0.69367,-2.62339 1.08871,-3.92153 0.46657,-1.35305 0.9896,-2.69587 1.77549,-3.90071 0.59565,-0.94826 1.16451,-1.91191 1.63561,-2.92964 0.64089,-1.18952 1.33348,-2.35625 2.218,-3.38444 0.7132,-0.85116 1.38549,-1.73466 2.07091,-2.60816 0.90273,-1.13025 1.8542,-2.23936 3.04355,-3.08031 1.42737,-0.93177 3.00859,-1.61145 4.75023,-1.52 2.77595,-1.39621 4.75049,2.52956 1.97455,3.92578 z"
         id="path838"
         style="fill:#1a1a1a;fill-opacity:1;stroke:none;stroke-width:0.26458332;stroke-opacity:1" />
      <path
         inkscape:connector-curvature="0"
         d="m 219.64369,17.911219 c 1.67465,-1.043329 3.58085,-1.660081 5.40076,-2.404531 1.27422,-0.55459 2.55875,-1.10922 3.72571,-1.870768 0.7192,-0.535472 1.19272,-1.318691 1.77366,-1.99046 0.84312,-0.97404 1.85926,-1.7647423 2.9028,-2.5095203 0.73704,-0.49444 1.47334,-0.980671 2.13616,-1.572522 0.63459,-0.6658 1.17976,-1.41065 1.7382,-2.13986 0.44554,-0.55412 0.75953,-1.17184 0.98782,-1.83999 0.2617,-0.822949 0.46385,-1.66289 0.70682,-2.491269 0.30253,-0.96741899 0.70127,-1.90008899 1.01709,-2.862799 0.24495,-0.82505 0.4802,-1.659541 0.62901,-2.508181 0.10351,-0.73542 0.1099,-1.479439 0.10908,-2.220709 0.01,-1.014651 -0.0311,-2.028733 -0.0438,-3.043161 -0.003,-1.0046597 0.0233,-2.0093697 0.0521,-3.0135507 0.0413,-0.681519 -0.0675,-1.353379 -0.16077,-2.025459 -0.12051,-0.88251 -0.27208,-1.75995 -0.42122,-2.63782 -0.004,-0.16492 -0.19526,-1.079391 -0.0725,-1.205801 0.0267,-0.0275 0.0525,0.0568 0.0719,0.0899 0.1291,0.2198 0.24867,0.445059 0.373,0.66759 1.51748,-0.46528 3.03043,-0.945601 4.55243,-1.39585 0.0161,-0.005 -0.003,0.0335 -0.004,0.0503 -0.005,0.0861 -0.007,0.17253 -0.0156,0.2584 -0.0588,0.593801 -0.10336,0.828961 -0.48279,1.28373 0.11686,-0.23163 0.16118,-0.517589 0.35058,-0.69489 0.0687,-0.0643 0.0904,0.166451 0.11787,0.256411 0.0551,0.18012 0.0935,0.36517 0.12871,0.5502 0.16655,0.875109 0.22578,1.75839 0.28361,2.64553 0.13532,2.303258 0.0299,4.606628 -0.19108,6.9001687 -0.17702,2.089182 -0.8312,4.06981 -1.55375,6.021311 -0.53661,1.46941101 -1.12129,2.921119 -1.62863,4.40105 -0.38225,1.183071 -0.55244,2.416519 -0.875,3.61497 -0.17032,0.65024 -0.47521,1.255059 -0.60181,1.915959 -0.0969,0.66203 -0.1815,1.322451 -0.32777,1.9759513 -0.18156,0.71066 -0.50929,1.37087 -0.86684,2.007309 -0.28158,0.521991 -0.56086,1.044601 -0.87002,1.550892 -0.48875,0.790639 -1.19986,1.377728 -1.96786,1.879968 -0.0831,0.0466 -0.16496,0.0955 -0.24932,0.13979 -0.49135,0.25799 -0.0815,-0.188259 -0.1118,-0.430538 -0.21382,0.53988 -0.59107,0.958128 -1.00982,1.337778 -1.60312,1.346232 -2.22443,-1.3785 -3.8004,-3.03771 0.0979,-0.10355 -0.15692,0.23726 -0.14908,0.163841 0.01,-0.0903 0.0611,-0.171011 0.0926,-0.256159 0.23332,-0.630672 0.53544,-1.205871 0.85401,-1.798051 1.01083,-1.6735713 2.15426,-3.2588703 3.17224,-4.9285103 0.71945,-1.1411 1.19008,-2.37921 1.51018,-3.681359 0.33816,-1.382062 0.31829,-2.80572099 0.31187,-4.217692 -0.0262,-1.299681 0.0748,-2.594448 0.14223,-3.8907 0.0424,-1.16818 -0.12588,-2.332228 -0.22207,-3.494519 -0.0922,-0.885491 -0.0761,-1.7737287 -0.0599,-2.6614907 -0.0765,-0.667639 -0.37463,-1.28555 -0.59565,-1.913739 -0.29465,-0.855261 -0.52716,-1.75509 -0.48391,-2.66591 -0.0247,-0.46482 0.15904,-0.9489 -0.0399,-1.38628 -0.0416,-0.16006 -0.16905,-1.12402 0.0542,-1.12984 1.57291,-0.0478 3.14511,-0.14506 4.71875,-0.143341 0.0499,6.1e-5 -0.007,0.100001 -0.0186,0.148471 -0.0428,0.17815 -0.15309,0.26607 -0.0117,0.444619 0.64864,1.199651 0.94145,2.589021 1.24278,3.910361 0.49658,2.34588 0.67192,4.7370487 0.72432,7.1289697 -0.0161,1.97236 -0.0412,3.961159 -0.41608,5.90502101 -0.0786,0.40771 -0.18503,0.809569 -0.27754,1.214358 -0.49503,1.96971999 -1.48973,3.73837999 -2.52011,5.46775999 -0.46704,0.735542 -0.81516,1.532181 -1.15348,2.331691 -0.38127,0.965269 -0.95681,1.829501 -1.5432,2.6788513 -0.44195,0.644929 -0.96603,1.224949 -1.46902,1.821119 -0.42038,0.470921 -0.89596,0.88682 -1.36172,1.311309 -0.60725,0.60746 -1.14232,1.283052 -1.72169,1.917782 -0.6819,0.746739 -1.44336,1.407909 -2.23783,2.0305 -0.77791,0.585118 -1.63681,1.04748 -2.47964,1.529839 -1.01452,0.5968 -2.03473,1.182291 -3.0804,1.72298 -0.91367,0.501399 -1.83404,0.978829 -2.81313,1.33893 -1.16456,0.37616 -2.38677,0.451109 -3.59912,0.52207 -0.52733,-0.0277 -1.07673,0.17095 -1.60384,0.0963 -0.24548,-0.0347 -0.47748,-0.13376 -0.71611,-0.201019 -0.25371,-0.0155 -0.50742,-0.031 -0.76114,-0.0465 -0.92133,1.672791 -3.28702,0.369819 -2.36568,-1.30297 v 0 c -0.0197,-0.3581 -0.0393,-0.71619 -0.059,-1.07429 0.11996,-0.310909 0.18878,-0.64675 0.35988,-0.93272 0.69478,-1.16123 2.15077,-1.52459 3.38021,-1.73704 1.07015,-0.125161 2.14273,-0.156591 3.21584,-0.0357 0.71102,0.0999 0.78866,-0.07 1.35756,-0.542499 1.08723,-0.897152 2.26479,-1.665012 3.58029,-2.189631 0.63814,-0.244149 1.28217,-0.489161 1.96257,-0.584231 0.61603,-0.492308 0.98485,-1.249829 1.5639,-1.78217 0.75503,-0.764688 1.55146,-1.482839 2.41036,-2.130338 0.33005,-0.224441 0.6497,-0.465161 0.98967,-0.6729203 0.41082,-0.412332 0.5553,-1.043292 0.90522,-1.500862 0.43694,-0.678709 0.90615,-1.30402 1.4559,-1.890419 0.36666,-0.81506 0.4068,-1.73274 0.69972,-2.573941 0.55027,-1.59607 1.34597,-3.09165899 1.84487,-4.70593999 0.47257,-1.92270801 0.56754,-3.88173901 0.4754,-5.85793001 -0.0629,-2.146589 -0.20239,-4.2898487 -0.50167,-6.4179887 -0.17958,-1.496601 -0.35253,-3.00822 -0.14324,-4.51184 0.0144,-0.0953 0.1028,-0.203581 0.0507,-0.28467 -1.03638,-1.613231 2.93534,-1.039301 4.55496,-0.82622 0.29322,0.42096 0.2452,0.984149 0.22639,1.46984 -0.0451,0.44115 -0.0205,0.30497 -0.0904,0.67106 -0.0125,0.0654 -0.008,0.254459 -0.0395,0.19583 -0.0391,-0.0725 0.006,-0.16468 0.012,-0.24681 0.004,-0.0492 -0.0201,-0.11575 0.0181,-0.14695 0.0267,-0.0218 0.0502,0.0471 0.0754,0.0707 0.43947,0.81929 0.66031,1.729 0.77414,2.64839 0.0537,0.53455 -0.0396,1.09364 0.26146,1.559349 0.52063,1.22224 0.85994,2.491071 0.83217,3.8338307 -0.0175,0.82958 0.001,0.758669 -0.0792,1.556981 -0.0625,0.621969 -0.19648,1.248068 -0.10085,1.87434 0.20814,1.392579 0.48748,2.779969 0.42685,4.198308 -0.082,1.70150101 -0.32509,3.376062 -0.75449,5.0264 -0.31533,1.786512 -0.62683,3.577802 -1.48225,5.20518 -1.00369,1.9102313 -2.1642,3.7410523 -3.67649,5.2953423 -0.76697,0.786929 -1.58874,1.520848 -2.27696,2.38039 -2.17929,-2.01844 -4.7519,-2.425002 -2.91187,-3.704072 0.1608,-0.10691 0.27845,-0.1925 0.44939,-0.27927 0.0436,-0.02209 0.14129,-0.10342 0.13615,-0.0548 -0.0138,0.130429 -0.60034,0.66951 -0.61216,0.97182 0.1748,-0.746551 0.64424,-1.371391 1.20985,-1.870871 0.44769,-0.35164 0.89126,-0.622919 1.40487,-0.852959 0.22521,-0.0266 0.30192,-0.372501 0.36163,-0.54651 0.1687,-0.5755003 0.34256,-1.1621503 0.68725,-1.6605303 0.0328,-0.0683 0.0593,-0.13997 0.0983,-0.204872 0.0122,-0.02029 0.0449,-0.0249 0.0533,-0.0471 0.0963,-0.25251 0.064,-0.55051 0.0831,-0.813559 0.008,-0.880581 0.10541,-1.752632 0.31211,-2.610102 0.25186,-1.3164 0.30075,-2.665158 0.64728,-3.965048 0.43235,-1.55803099 1.06494,-3.0344 1.65113,-4.53876 0.49217,-1.633541 0.73684,-3.307742 0.86742,-5.008632 0.21198,-2.1100387 0.36774,-4.2240987 0.36027,-6.3465487 0.0751,-1.71603 0.21027,-3.42849 0.89749,-5.02677 -0.33198,0.36667 -0.19151,0.145389 -0.36249,0.85016 -0.0406,0.1675 -0.0257,0.29913 -0.0479,0.22665 -0.0211,-0.0693 -0.0959,-0.187151 -0.0292,-0.21526 1.4864,-0.626141 3.02427,-1.12229 4.5364,-1.68343 0.456,0.781789 0.91721,1.549809 1.09128,2.45174 0.1923,0.99952 0.28102,2.00926 0.28397,3.02749 0.0361,0.81875 0.24411,1.61983 0.26035,2.4413 0.0453,1.02493 0.10414,2.050299 0.097,3.0765587 -0.0246,1.03377 -0.1049,2.062991 -0.19765,3.09263 -0.0317,0.914691 -0.0433,1.830451 -0.10488,2.74369 -0.12944,1.148881 -0.40863,2.265301 -0.75803,3.36708201 -0.32122,0.938109 -0.69869,1.85119899 -1.09467,2.75998799 -0.29516,0.84438 -0.50089,1.715582 -0.77052,2.568112 -0.37996,1.124759 -0.82555,2.22078 -1.56036,3.168348 -0.72591,0.94742 -1.4953,1.8671203 -2.40376,2.6471403 -0.75563,0.68312 -1.56389,1.304751 -2.37354,1.92218 -0.85364,0.65092 -1.71328,1.29423 -2.53208,1.988851 -0.79481,0.682491 -1.64679,1.297261 -2.39612,2.03303 -1.23428,1.159761 -2.48754,2.31164 -4.00262,3.103959 -2.27005,1.14667 -4.52684,2.01617 -7.11823,1.641732 -2.55458,0.966999 -3.92212,-2.64572 -1.36754,-3.612722 z"
         id="path840"
         style="fill:#1a1a1a;fill-opacity:1;stroke:none;stroke-width:0.26458332;stroke-opacity:1" />
      <path
         inkscape:connector-curvature="0"
         d="m 209.56358,-34.848392 c -0.9604,0.37483 -1.99608,0.46043 -3.01336,0.55195 -0.39763,0.0358 -0.7997,0.0287 -1.19445,0.0884 -0.0571,0.009 0.1061,0.0454 0.15915,0.0681 -0.33634,0.0358 -0.67268,0.0715 -1.00902,0.10729 -2.06545,0.31035 -3.78884,1.51032 -5.55302,2.53816 -1.1692,0.7335 -2.41513,1.37085 -3.46487,2.27928 -0.71373,0.61766 -0.80325,0.78712 -1.42131,1.52504 -1.73964,2.509151 -3.20507,5.200241 -4.73743,7.83931 -0.80612,1.398341 -1.54059,2.84886 -1.94054,4.421001 -0.16056,0.63113 -0.32178,1.63414 -0.43155,2.26442 -0.44644,2.811468 -0.71782,5.6487697 -0.88569,8.4896087 -0.1049,1.709971 -0.0568,3.421621 0.33612,5.09429101 0.23113,0.98401899 0.37629,1.34173099 0.69783,2.29822899 0.70683,2.078852 1.56252,4.1017 2.49852,6.08652 0.69878,1.5951303 1.70584,2.9779513 2.87428,4.2540213 1.36585,1.386541 2.75968,2.748359 4.22839,4.026101 1.34001,1.131668 2.92632,1.892128 4.48199,2.67385 1.81794,0.89114 3.53614,1.964748 5.32398,2.910898 1.30489,0.762222 2.77732,0.847402 4.24565,0.940112 1.66946,0.1298 3.34256,0.13434 5.01574,0.13561 0.90062,-0.0117 1.80137,-0.01 2.70157,0.0223 0.26914,0.01 0.80441,-0.232611 0.80709,0.0367 0.002,0.19235 -1.81957,-0.0671 -0.21195,0.12831 0.21411,-0.0883 0.52604,0.159599 0.74645,0.13965 0.29276,-0.0265 0.66878,-0.3625 0.88173,-0.50573 1.34385,-0.95817 2.80257,-1.724721 4.28247,-2.446351 1.57378,-0.729829 3.18932,-1.364038 4.75329,-2.115039 1.38755,-0.666009 2.71491,-1.441191 4.00128,-2.283939 1.17473,-0.748102 2.22475,-1.659731 3.18124,-2.66722 0.89213,-0.980212 1.6503,-2.070711 2.41764,-3.148502 0.97983,-1.2530693 1.75262,-2.6389093 2.48334,-4.0460983 0.7503,-1.500661 1.44084,-3.034842 1.86084,-4.662472 0.30377,-1.45947799 0.17737,-2.95684799 0.0965,-4.432249 -0.12134,-1.57693 -0.0342,-3.15744 -0.0774,-4.73615 -0.084,-1.230419 -0.14929,-2.464761 -0.29471,-3.6899007 -0.14324,-1.11389 -0.39177,-2.209769 -0.64074,-3.303689 -0.24915,-1.10891 -0.50034,-2.22519 -0.99765,-3.25248 -0.61947,-1.03357 -1.39191,-1.96468 -2.09609,-2.94114 -0.63704,-0.78973 -1.04082,-1.75765 -1.70704,-2.52298 -0.77223,-0.53226 -1.52869,-1.08059 -2.25813,-1.67087 -0.88767,-0.67276 -1.60521,-1.54064 -2.476,-2.23038 -0.63295,-0.351 -1.27274,-0.6862 -1.88318,-1.07905 -0.71787,-0.497066 -1.37055,-1.079746 -2.07237,-1.598277 -0.37347,-0.20691 -0.76634,-0.375 -1.13937,-0.59037 -0.77114,-0.39507 -1.51465,-0.840659 -2.27361,-1.25797 -0.33137,-0.22319 -0.71653,-0.27849 -1.08278,-0.41207 -0.60365,-0.25557 -1.22142,-0.453809 -1.85593,-0.614799 -0.57943,-0.11288 -1.14848,-0.262931 -1.7157,-0.425871 -0.42143,-0.17414 -0.82995,-0.15014 -1.27015,-0.12449 -0.91664,0.0411 -1.8329,0.0503 -2.75025,0.0406 1.00946,-0.0464 -3.5656,0.0697 -2.53915,0.003 0.77303,-0.0502 1.62624,0.0149 0.4713,-0.0533 -1.50887,-0.0625 -3.02005,-0.0499 -4.52997,-0.0599 -0.88085,-0.0727 -1.76275,-0.11393 -2.64676,-0.11473 -0.3254,-0.008 -0.48418,-0.007 -0.80275,-0.0342 -0.10381,-0.009 -0.41435,-0.0264 -0.31055,-0.0353 1.18825,-0.1018 1.70098,0.0179 0.89002,-0.14165 -1.24361,-0.05 -1.35729,0.14934 -2.20201,-0.33576 -0.1823,-0.10469 -0.33311,-0.25853 -0.51465,-0.36453 -0.10715,-0.0626 0.18988,0.16006 0.28999,0.23336 0.0837,0.0613 0.38516,0.24851 0.48684,0.31229 0.003,0.108 0.0234,0.0603 -0.1173,0.10148 0.41666,0.0112 0.83404,0.007 1.24997,0.0337 0.0907,0.006 -0.18051,0.0226 -0.27115,0.0297 -0.30744,0.0242 -0.37158,0.0174 -0.68668,0.0167 -0.24042,-0.0562 -0.92947,0.0303 -1.06281,-0.278659 -0.0618,-0.143261 0.12269,-0.695341 0.12671,-0.710821 -0.0499,-0.70121 0.13211,-0.48047 -0.57541,-0.63685 -0.23651,1.85199 -2.85562,1.517511 -2.61911,-0.33448 v 0 c -0.55233,-1.30455 -0.48353,-0.62484 -0.17625,-2.04196 0.1751,-0.27215 0.31769,-0.56822 0.52531,-0.81645 0.54704,-0.65406 1.43486,-0.89102 2.24256,-0.96726 0.33104,-0.008 0.65292,0.0155 0.98276,0.0239 0.80804,0.0207 1.49136,-0.087 2.22596,0.13913 0.32829,0.12934 0.45223,0.1599 0.75097,0.3498 0.12414,0.0789 0.47833,0.34251 0.35647,0.26012 -0.96569,-0.65293 -1.06997,-0.71215 -2.46453,-0.64767 0.60385,-0.36281 1.40371,-0.1289 2.10768,-0.1554 0.4347,-0.0164 0.86947,-0.079 1.30587,-0.0312 0.841,0.056 1.68356,0.11542 2.5267,0.0793 -0.38901,-10e-4 -0.77809,0.004 -1.16703,-0.004 -0.14382,-0.003 0.2876,-0.007 0.43141,-0.0104 0.65671,-0.014 1.31209,-0.0563 1.9665,-0.11425 1.89235,-0.15435 3.80906,-0.11336 5.69581,0.0961 0.92292,0.10891 1.84533,0.22338 2.76397,0.36429 0.6374,0.11816 1.2627,0.29105 1.90295,0.39458 0.78764,0.13559 1.57173,0.29633 2.30578,0.6261 0.47471,0.20599 0.93177,0.48425 1.43394,0.61095 0.82688,0.0799 1.60111,0.50604 2.33517,0.85871 0.74713,0.43722 1.45981,0.92152 2.10787,1.49816 0.44004,0.25369 0.96376,0.35933 1.38274,0.66036 0.78335,0.46627 1.50879,1.00666 2.19846,1.60317 0.63374,0.45185 1.36387,0.72527 2.01758,1.14794 1.10454,0.7394 2.13807,1.57519 3.06199,2.533801 0.75208,0.76249 1.51634,1.51077 2.29516,2.24564 0.87109,0.90972 1.69117,1.86549 2.41647,2.89714 0.90303,1.28188 1.81066,2.57505 2.47144,4.00289 0.59776,1.44052 1.05568,2.9311 1.23071,4.48754 0.15755,1.14514 0.32702,2.287448 0.59807,3.41261 0.28213,1.443479 0.4998,2.8980597 0.51285,4.3727177 0.0518,1.53184 0.15261,3.059361 0.2717,4.58746 0.11758,2.03212101 0.18082,4.081391 -0.22624,6.08938 -0.50006,2.10285 -1.19899,4.150341 -2.26239,6.042221 -0.94368,1.6780613 -1.99819,3.2905803 -3.31575,4.7041703 -0.93891,1.03125 -1.76531,2.14435 -2.56811,3.283921 -1.19195,1.47778 -2.49974,2.8615 -4.10862,3.89532 -1.43516,0.890929 -2.92455,1.68488 -4.39551,2.514219 -1.61146,0.90597 -3.24173,1.7824 -4.98645,2.410531 -1.41484,0.544349 -2.8098,1.14004 -4.19126,1.764178 -1.21386,0.559822 -2.37088,1.283962 -3.71161,1.507752 -1.43134,0.22579 -0.36895,0.0872 -2.94407,0.165799 -1.21334,0.037 -2.42714,0.0749 -3.63971,-0.01969 -1.82026,-0.0856 -3.6461,-0.106061 -5.45937,-0.294481 -2.06927,-0.315785 -4.02408,-0.873175 -5.90339,-1.815055 -1.87,-0.913018 -3.70673,-1.887828 -5.48388,-2.97253 -1.81537,-1.072988 -3.64524,-2.139788 -5.25486,-3.514958 -1.67395,-1.45516 -3.25395,-3.015099 -4.61817,-4.769979 -1.2933,-1.667042 -2.46024,-3.424381 -3.42686,-5.303322 -1.15746,-2.1846203 -2.27751,-4.3981583 -3.08404,-6.7411683 -0.96511,-3.091661 -1.56509,-6.092941 -1.46574,-9.353701 0.0668,-1.53621 0.045,-1.87792 0.25865,-3.40623 0.27761,-1.9862507 0.8346,-3.9103607 1.30717,-5.8546497 0.67409,-2.7615 1.30032,-5.55614 2.4652,-8.16281 0.24519,-0.517 0.47495,-1.04159 0.73557,-1.550991 1.35585,-2.650089 3.07468,-5.112609 5.14008,-7.25811 0.3608,-0.35381 0.71068,-0.71913 1.08241,-1.06143 1.51864,-1.3984 3.2473,-2.54855 5.05756,-3.53174 2.29291,-1.27766 4.65275,-2.50869 7.24295,-3.05225 0.4534,-0.0697 0.90244,-0.17926 1.36019,-0.20912 1.88018,-0.12266 4.06233,-0.15896 5.8901,0.47949 0.23308,0.0814 0.44458,0.2149 0.66686,0.32235 2.40201,0.73188 1.36698,4.12883 -1.03503,3.39695 z"
         id="path834"
         style="display:inline;fill:#000000;fill-opacity:1;stroke:none;stroke-width:0.26458332;stroke-opacity:1" />
    </g>
  </g>
  <g
     inkscape:groupmode="layer"
     id="layer6"
     inkscape:label="arm_color"
     transform="translate(0,-296.33334)"
     sodipodi:insensitive="true">
    <path
       style="fill:#333333;fill-opacity:1;stroke:none;stroke-width:0.9376567;stroke-opacity:1"
       d="m 727.22656,134.14062 c -0.27792,18.09138 5.74149,35.31016 11.06446,52.08008 2.18423,6.09273 4.28038,12.24065 4.73632,18.79102 -0.004,0.0113 -0.006,-0.002 -0.01,0.0137 -0.33105,1.38187 -0.27491,2.84774 -0.41211,4.27149 -2.58265,13.716 -2.59534,27.70493 -2.0332,41.64453 3.47155,-2.31115 7.33405,-3.41916 11.19921,-3.30469 4.3606,0.12914 8.72176,1.81389 12.52149,5.06445 -0.214,-2.64613 -0.46098,-5.29022 -0.78711,-7.93164 -0.35437,-4.10687 -0.35126,-8.26448 -0.97266,-12.33008 -0.0472,-0.30946 -0.31691,1.16262 -0.35547,0.85157 -0.63598,-5.13514 -0.0367,-10.46508 0.38282,-15.57618 0.37241,-3.1207 0.64092,-6.24343 0.8125,-9.36328 -12.39929,-0.81299 -23.7068,-14.31171 -20.99024,-38.88086 0.0524,-0.47385 0.0835,-0.74347 0.12891,-1.14062 -0.48553,-1.72687 -0.75871,-3.45024 -0.90234,-5.24219 -0.59971,-1.05271 -1.16039,-2.09895 -1.69336,-3.14648 0.0729,0.23418 0.15473,0.48593 0.20703,0.68164 0.27898,1.04375 -0.90156,-1.10944 -1.57813,-2.56641 -0.57608,-0.87651 -1.10939,-1.7356 -1.57812,-2.5625 0.0646,0.49349 -0.79862,-1.29497 -1.44922,-2.58203 -0.72787,-1.17368 -1.45764,-2.34748 -1.95117,-3.63086 -0.46652,-1.21315 -1.33214,-3.56159 -1.93164,-5.44141 0.21998,0.67801 0.48045,1.46024 0.60351,1.88282 -0.36265,-0.91528 -0.791,-1.80923 -1.11914,-2.73633 -0.84258,-1.24369 -1.42964,-2.43312 -2.04492,-4.33399 -0.47337,-0.92279 -0.85936,-1.73606 -1,-2.22851 -0.0112,-0.0244 -0.0241,-0.0478 -0.0352,-0.0723 -0.24515,-0.54623 -0.5254,-1.33605 -0.8125,-2.21094 z"
       transform="matrix(0.26458333,0,0,0.26458333,0,296.33334)"
       id="path998"
       inkscape:connector-curvature="0" />
    <path
       style="fill:#333333;fill-opacity:1;stroke:none;stroke-width:0.9376567;stroke-opacity:1"
       d="m 746.0625,175.6543 c 1.14719,2.15566 2.58377,3.58557 4.20898,5.22461 -1.34495,-1.77897 -2.88256,-3.43381 -4.20898,-5.22461 z"
       transform="matrix(0.26458333,0,0,0.26458333,0,296.33334)"
       id="path1878"
       inkscape:connector-curvature="0" />
    <path
       style="fill:#333333;fill-opacity:1;stroke:none;stroke-width:0.24808833;stroke-opacity:1"
       id="path1882"
       d="m 60.062659,329.68945 c -0.458776,3.16555 -2.025071,5.82545 -3.846378,8.19011 -0.996345,1.04148 -1.147875,2.14052 -1.462725,3.54519 -0.380597,2.09001 -0.900829,4.14593 -1.414827,6.19808 -0.133576,0.74727 -0.320002,1.49192 -0.333445,2.26016 -0.0035,0.18919 0,0.7534 0.02708,0.56684 0.113118,-0.75779 0,-1.81849 0.106656,-0.50038 0.38138,2.29446 0.373282,4.60871 0.36842,6.9342 -0.07376,1.4687 -0.558846,2.84131 -0.834317,4.2613 0.0026,0.14162 0,0.28341 0.0062,0.42486 0.01486,0.32059 0.04308,1.27435 0.08952,0.95769 0.05706,-0.38928 -0.01213,-0.79327 0.04273,-1.18294 0.0306,-0.21754 0.01952,0.44006 0.03095,0.66 0.01257,0.24104 0.02717,0.48192 0.04079,0.72289 0.165254,1.81969 0.22962,3.64517 0.271277,5.47272 -0.01952,1.41665 0.138228,2.82159 0.224899,4.23106 0.292273,1.58624 0.33312,3.116 0.333419,4.74102 -0.212362,-3.03565 0.07236,-0.72262 0.159769,-0.0385 0.09589,0.72775 0.196861,1.45314 0.394752,2.15408 0.277176,0.92749 0.401715,1.88297 0.49753,2.84987 0.007,0.48253 0.09547,0.88155 0.271779,1.31925 0.369404,0.79316 0.566618,1.65562 0.765185,2.51783 -0.01653,0.36307 0.06049,0.30146 -0.170934,0.11067 -0.0386,-0.0319 0.02427,0.065 0.224178,0.39047 0.419607,0.69785 0.659137,1.48364 0.758856,2.31381 0.01908,0.25993 -0.08607,-0.003 -0.116187,-0.0601 -0.02119,-0.0306 -0.07227,-0.12957 -0.06357,-0.0919 0.0298,0.12807 0.113962,0.2311 0.16849,0.34816 0.390637,0.73417 0.67097,1.53756 0.828523,2.37539 -0.0079,0.0591 0.12657,0.76439 0.05126,0.78352 -0.123729,0.0314 -0.01723,-0.13478 -0.09347,0.0759 -0.01301,0.43811 0.272191,0.97931 0.394743,1.43079 0.0035,0.69499 0.02611,1.3902 0.01046,2.08498 -0.0035,0.1663 -0.164832,0.34204 -0.09386,0.48749 0.01811,0.0373 0.06884,-0.058 0.06955,-0.10067 0.03385,-1.94609 0.202919,-1.40762 -0.215967,-2.37129 -0.941157,-1.43422 0.174609,0.30937 0.344444,0.68068 0.255812,0.53985 0.248137,1.12296 0.308811,1.70583 -0.03622,0.14612 -0.0035,0.10476 -0.12257,-0.0507 -0.463505,-0.60457 -0.930677,-1.68644 -1.921386,-0.99175 -0.368965,0.25871 -0.422561,0.8609 -0.633824,1.29135 1.533905,-0.24757 1.841731,2.21976 0.307799,2.46732 v 0 c -0.265088,0.44082 -0.377142,1.07948 -0.795281,1.32246 -1.212847,0.70478 -2.222978,-0.79257 -2.444255,-1.91367 -0.007,-0.21408 -0.226245,-1.09555 0.104308,-0.72735 0.832233,0.7641 -0.02409,-0.11646 -0.190399,-0.54804 -0.08089,-0.21082 -0.21857,-0.40406 -0.242712,-0.63244 -0.04853,-0.45888 0.01978,-5.44757 0.01398,-0.68068 0.423836,1.02025 0.182698,0.28311 -0.08045,-0.1684 -0.23618,-0.61344 -0.499069,-1.30405 -0.401689,-1.98324 0.205777,-0.0436 0.163672,-0.13342 0.12584,-0.35253 -0.313778,-0.65191 -0.642405,-1.30146 -0.804864,-2.02839 -0.02708,-0.26413 0.104537,-0.22785 0.05697,-0.4958 -0.128055,-0.69797 -0.772395,-1.22637 -0.837464,-1.97651 -0.01978,-0.42169 -0.101935,-0.84533 -0.241455,-1.23216 -0.377924,-0.91422 -0.811036,-1.81485 -0.948446,-2.82792 -0.110427,-0.74237 -0.160674,-1.48666 -0.31209,-2.22048 -0.149762,-0.91465 -0.477335,-1.79164 -0.543284,-2.73003 -0.195402,-1.38598 -0.317435,-2.78959 -0.261702,-4.19653 0.0095,2.81372 0.141973,0.98298 -0.286426,0.0104 -0.530378,-1.65984 -0.809875,-3.40684 -0.943303,-5.1643 -0.08273,-1.84764 -0.01328,-3.6868 0.0026,-5.5355 -0.04695,-2.16027 -0.172693,-4.36655 0.384087,-6.46048 0.194259,-1.08959 0.227062,-2.19406 0.15888,-3.30341 0.0035,0.35607 -0.01723,0.71365 0.01187,1.0682 0.02163,0.26396 0.0098,-0.53011 0.01046,-0.79521 0.0035,-1.07687 -0.0062,-2.15506 -0.04985,-3.23082 -0.111728,-2.56045 -0.01697,-5.12134 0.55969,-7.60941 0.498164,-2.18623 1.224427,-4.28315 2.205949,-6.25141 0.667559,-1.5411 1.367516,-3.06321 2.019417,-4.61277 1.15825,-2.67427 2.534505,-5.3299 4.689768,-7.11797 2.007504,-2.62704 5.273908,0.60207 3.266404,3.22911 z"
       inkscape:connector-curvature="0" />
    <path
       style="fill:#333333;fill-opacity:1;stroke:none;stroke-width:1.89496279;stroke-opacity:1"
       d="m 236.47852,127.56055 c -0.68214,-0.0108 -1.36239,-0.0113 -2.03907,0.002 -3.24804,0.0625 -6.42196,0.43349 -9.40625,1.43359 -6.20855,18.439 -20.32376,32.46869 -22.76953,52.79688 -5.20469,21.38377 -0.4704,43.51629 -4.53906,64.98242 1.04766,37.14236 4.62971,74.7325 16.125,109.65234 2.34518,7.22525 1.11889,21.67684 11.28516,19.6543 50.13557,-4.1983 100.92386,-2.2091 150.71289,-8.20312 68.3837,-2.38776 136.91635,-3.63048 205.25781,-6.91602 44.51285,0.35522 90.01251,0.37883 133.25195,13.09375 0.007,-0.0134 0.017,-0.0297 0.0234,-0.043 0.58542,-1.21514 1.14216,-2.11702 1.65234,-2.80469 0.16704,-1.1449 0.88464,-2.17992 1.72071,-3.1914 2.11672,-4.35448 2.84492,-4.94786 2.79101,-3.82813 0.32483,-0.69727 0.64978,-1.39452 0.97461,-2.09179 2.56445,-3.95275 -0.75866,1.07036 1.45313,-0.69141 0.34674,-0.61007 0.77602,-1.30948 1.21875,-2.02344 -0.12856,-0.0888 0.16542,-0.59479 0.94726,-1.5664 0.0793,-0.13022 0.14365,-0.241 0.2168,-0.36329 -0.11624,0.0813 -0.23859,0.17099 -0.3457,0.23829 -0.68854,0.4326 -0.12884,-0.13383 0.77929,-0.9668 0.0403,-0.0722 0.11933,-0.19414 0.1543,-0.25977 0.32542,-0.61035 0.66789,-1.24468 1.1875,-1.70117 0.0485,-0.0426 0.0671,-0.0573 0.11523,-0.0996 -0.10558,-0.0738 0.52174,-0.7271 1.3125,-1.50976 -2.2e-4,-0.9532 -0.006,-1.9064 -0.006,-2.85938 5.3e-4,-2.01184 -1.1e-4,-4.02331 0,-6.03515 3.1e-4,-2.02035 4e-5,-4.0402 0,-6.06055 v -6.06445 -6.0625 -6.0625 -6.0625 -6.06446 -6.0625 -3.16015 c -0.007,-0.011 -0.013,-0.0222 -0.0195,-0.0332 -0.41484,-2.89315 -1.01793,-5.76571 -1.24414,-8.67968 -0.1074,-1.3833 0.16701,-2.91071 0.33203,-4.36524 -0.0108,-0.0395 -0.0214,-0.0482 -0.0351,-0.18945 -0.0113,-0.32618 -0.0217,-0.65223 -0.0293,-0.97852 -0.60061,-18.61908 6.32953,-30.24697 15.12695,-34.70703 -0.3796,-14.74471 -0.10729,-29.46654 1.76563,-44.17969 -3.22292,-23.2241 -13.68396,-44.55194 -15.99219,-68.12304 -7.24868,-3.24393 -16.71312,3.73867 -24.94531,3.73047 -59.04189,7.03702 -118.91066,3.10451 -178.32227,3.41406 -50.3582,-0.28725 -100.67616,-1.51372 -150.84375,-6.67383 -41.29563,-2.53089 -82.69641,-2.27964 -123.5664,-9.54688 -4.64263,-0.10393 -9.52587,-0.69201 -14.30078,-0.76757 z"
       transform="matrix(0.26458333,0,0,0.26458333,0,296.33334)"
       id="path1044"
       inkscape:connector-curvature="0" />
    <path
       style="fill:#333333;fill-opacity:1;stroke:none;stroke-width:1.89496279;stroke-opacity:1"
       d="m 727.79883,354.94531 c -0.77805,0.66201 -1.4372,1.25412 -2.00977,1.7793 -0.11294,0.20265 -0.28701,0.48347 -0.43359,0.72851 0.0571,-0.04 0.11076,-0.0741 0.16992,-0.11718 0.35208,-0.41803 0.77288,-0.90136 1.2832,-1.46875 -0.14175,0.24846 -0.26942,0.50972 -0.39453,0.77343 0.23412,-0.19384 0.49208,-0.42707 0.74024,-0.64453 0.14383,-0.23625 0.40615,-0.66779 0.64453,-1.05078 z"
       transform="matrix(0.26458333,0,0,0.26458333,0,296.33334)"
       id="path1020"
       inkscape:connector-curvature="0" />
    <path
       style="fill:#333333;fill-opacity:1;stroke:none;stroke-width:1.89496279;stroke-opacity:1"
       d="m 728.56055,354.4043 c -0.35973,0.46334 -0.63343,0.81122 -0.88672,1.13672 0.29788,-0.26845 0.59052,-0.55309 0.88672,-0.82813 -3.4e-4,-0.10287 2.5e-4,-0.20572 0,-0.30859 z"
       transform="matrix(0.26458333,0,0,0.26458333,0,296.33334)"
       id="path1012"
       inkscape:connector-curvature="0" />
    <path
       style="fill:#333333;fill-opacity:1;stroke:none;stroke-width:1.89496279;stroke-opacity:1"
       d="m 726.21484,358.16211 c -0.23474,0.18173 -0.4578,0.34875 -0.66211,0.49609 -0.0522,0.13024 -0.10525,0.25915 -0.1582,0.38868 0.25137,-0.2667 0.5303,-0.5687 0.82031,-0.88477 z"
       transform="matrix(0.26458333,0,0,0.26458333,0,296.33334)"
       id="path1884"
       inkscape:connector-curvature="0" />
    <path
       style="fill:#1a1a1a;fill-opacity:1;stroke:none;stroke-width:0.9376567;stroke-opacity:1"
       d="m 542.75781,330.11719 c -6.76142,0.10828 -13.46196,1.04177 -19.96679,3.22656 -4.74743,1.34275 -9.56318,2.0037 -14.41602,2.64648 -4.55883,0.83339 -9.1761,1.04982 -13.75391,1.72461 -5.62076,0.79159 -11.3328,1.34905 -16.64062,3.78125 -2.35869,1.08208 -4.62832,2.13413 -7.23438,2.08008 -4.94857,0.28626 -9.90973,0.24323 -14.84961,0.7461 -3.97655,0.30652 -7.957,0.26784 -11.93359,-0.0605 -3.78096,-0.11573 -7.52892,0.13438 -11.29492,0.42578 -4.02486,-0.40331 -7.71973,-3.59727 -11.87305,-3.55078 -5.80974,-0.76286 -11.58641,-0.43434 -17.4082,0.0508 -4.49858,0.18898 -9.00769,-0.19678 -13.49414,0.37109 -3.84129,0.60416 -7.60079,1.68463 -11.44336,2.25586 -4.5751,0.44107 -9.15355,0.35853 -13.74024,0.20508 -5.49099,0.16543 -10.86902,1.03118 -16.14453,2.83008 -5.01747,1.48267 -10.07083,2.89144 -15.21484,3.67187 -5.55416,0.744 -11.06752,1.77036 -16.48242,3.38868 -3.68686,1.07754 -7.43078,1.49932 -11.24414,1.25781 -5.98672,-0.0536 -11.96308,0.23528 -17.94727,0.37891 -5.39433,-0.0506 -10.78756,-0.48029 -16.17773,-0.16016 -6.06869,0.0642 -12.09067,-0.47987 -18.07617,-1.68164 -12.43858,-1.46978 -25.22588,-2.45079 -37.21094,2.5039 -19.36605,0.49535 -18.74885,31.64569 0.61718,31.1504 11.47569,4.5988 23.80967,4.28285 35.79688,3.65039 6.43874,-0.70817 12.88326,-1.26239 19.34961,-1.46875 4.9549,-0.0141 9.8937,0.45684 14.83594,0.77734 6.36274,0.4902 12.73504,0.58993 19.10742,0.37109 6.07746,-0.18281 11.96353,-1.75884 17.75781,-3.71875 3.67616,-1.36199 7.54753,-1.38973 11.3711,-1.36328 7.43125,0.19752 14.57622,-1.82873 21.49609,-4.70703 2.79863,-1.25813 5.55141,-3.009 8.62891,-2.98633 4.82792,0.87224 9.66746,1.16983 14.55273,1.01563 5.48398,-0.35369 10.8346,-1.68788 15.93945,-3.96875 1.59092,-0.73508 4.04072,0.49256 5.74805,0.83008 5.95328,1.08302 11.98288,1.36273 18,1.11328 2.88601,-0.45245 5.5026,0.11072 8.29101,0.86523 5.48399,1.8644 11.16624,2.21696 16.8418,1.81055 3.80459,-0.58163 7.58006,-1.10018 11.41602,-0.7793 5.53069,0.70413 11.05263,0.87496 16.59765,0.36914 5.74795,-0.60314 11.09585,-2.83348 16.17969,-5.82422 2.02961,-0.86906 4.64971,-0.0676 6.78125,0.082 5.9757,0.32678 11.82165,-1.2128 17.63086,-2.57226 4.45674,-1.18345 9.05737,-1.02217 13.59375,-1.43164 6.30081,-0.54618 12.55597,-1.61034 18.74805,-3.02539 3.14978,-0.89545 6.33708,-1.42155 9.58203,-1.3418 3.96136,0.3021 7.91026,0.6168 11.88281,0.57031 2.41406,0.18936 4.98584,-0.91015 7.25,0.24805 4.6238,2.36417 9.61865,3.49942 14.57422,4.54688 4.94328,1.05398 9.98025,0.96161 14.98242,1.20312 4.7283,0.40842 9.43505,0.9372 14.18164,1.02148 3.93634,0.23418 7.82817,-0.39803 11.71485,-0.98242 2.92815,-0.3391 5.87607,0.24205 8.78125,0.62696 6.40543,0.42765 12.69935,-0.91382 18.82421,-2.91602 1.72887,-0.6164 3.05723,-1.65127 4.82813,-1.30469 4.6995,0.92311 9.43485,1.49946 14.20117,1.63477 3.81286,0.10768 7.52126,-0.87861 11.26367,-1.4707 2.7162,-0.31945 5.45445,0.24911 8.15821,0.54882 0.12679,-0.0986 3.80282,0.23374 5.38086,0.13868 1.77613,1.21834 2.08452,1.19496 4.95312,2.33398 0.0671,0.72378 10.45109,0.56023 6.56445,0.0488 -2.0465,-0.33434 -3.16259,-0.46778 -5.61914,-1.79492 -1.64318,-0.88774 -6.41842,-4.71411 -5.48047,-7.61524 0.27527,-0.85149 0.84896,-1.53657 1.27344,-2.30469 2.04385,8.72508 8.45442,11.48678 13.89453,9.91211 0.29908,-0.5064 0.66863,-0.99841 1.07032,-1.48437 2.11672,-4.35448 2.84492,-4.94786 2.79101,-3.82813 0.32483,-0.69727 0.64978,-1.39452 0.97461,-2.09179 2.56445,-3.95275 -0.75866,1.07036 1.45313,-0.69141 0.34674,-0.61007 0.77602,-1.30948 1.21875,-2.02344 -0.12856,-0.0888 0.16542,-0.59479 0.94726,-1.5664 0.007,-0.0113 0.0128,-0.0203 0.0195,-0.0312 0.002,-0.0686 0.0102,-0.13404 0.0117,-0.20313 -0.0539,0.0376 -0.11068,0.0783 -0.16015,0.10938 -0.47078,0.29578 -0.2544,0.0428 0.15429,-0.36133 0.01,-1.3671 -0.14192,-2.82189 -0.5039,-4.36719 0.42323,-0.89941 1.01517,-1.72093 1.26953,-2.69922 0.86842,-3.34239 -3.86531,-7.54046 -5.875,-8.70312 -2.43169,-1.4068 -3.68378,-1.70368 -5.46875,-1.99219 -1.28714,-1.02204 -2.83625,-1.7663 -4.0293,-2.63867 -4.74074,-2.09923 -9.61386,-3.44377 -14.74219,-2.78711 -2.77224,0.29544 -5.56869,0.79464 -8.35156,0.39844 -3.82019,-0.46799 -7.62446,-1.23024 -11.49023,-1.01368 -3.46821,0.21083 -6.93079,0.95176 -10.40039,0.71289 -4.66337,-0.63635 -9.33184,-1.37027 -14.0293,-0.55468 -4.37027,0.76747 -8.6734,1.90904 -12.98047,3.04101 -3.08663,0.38245 -6.19937,0.86991 -9.30859,0.57813 -3.67703,-0.38408 -7.35547,-0.84548 -11.05664,-0.64063 -4.09312,-0.0106 -8.19226,0.12382 -12.28125,-0.13281 -4.42232,-0.66985 -8.78737,-1.76626 -13.23047,-2.2793 -3.94519,-0.43816 -7.88915,-0.74449 -11.65821,-2.27539 -4.58747,-1.21874 -9.22162,-1.78774 -13.93359,-1.80664 -4.04436,-0.0974 -8.07721,0.14142 -12.11719,0.32813 -4.08438,0.11232 -8.1375,-0.23989 -12.21875,-0.38086 z"
       transform="matrix(0.26458333,0,0,0.26458333,0,296.33334)"
       id="path1886"
       inkscape:connector-curvature="0" />
    <path
       style="fill:#1a1a1a;fill-opacity:1;stroke:none;stroke-width:0.9376567;stroke-opacity:1"
       d="m 235.21094,117.54492 c -2.87882,0.0187 -5.74143,0.23658 -8.56641,0.73047 -1.79586,0.31397 -3.51823,1.03521 -5.27734,1.55273 v -0.002 c -19.77371,-1.63438 -21.805,30.17222 -2.03125,31.80664 11.57922,7.30742 25.17529,8.77594 38.16601,9.84766 9.63822,0.57131 19.26009,1.22383 28.84766,2.50781 8.76447,1.4894 17.62237,2.00102 26.47461,2.03125 7.32337,-0.21075 14.63546,-0.53784 21.96289,-0.38476 7.32547,0.33426 14.65227,0.15705 21.96484,-0.38868 4.21578,-0.86124 8.1308,-0.46634 12.25586,0.52344 7.20627,2.20052 14.5605,2.89352 21.99219,2.86328 4.39355,0.0476 8.94982,-1.40609 13.21094,0.27149 6.63125,3.95765 13.81828,6.06765 21.14062,7.57617 7.72955,1.29944 15.54612,1.14894 23.33399,1.16406 6.25425,0.0918 12.4731,0.87487 18.7207,1.18555 6.97803,0.2759 13.95841,2e-4 20.9375,0.041 6.82534,0.0113 13.64961,-0.10717 20.47461,-0.14648 6.78285,0.26098 13.52484,-0.49739 20.2168,-1.67188 4.24694,-0.76437 8.47837,-1.69117 12.76953,-2.06835 5.36432,0.015 10.68755,-0.10143 16.02148,-0.83008 3.00756,-0.55816 5.8968,-1.3211 8.94922,-1.12305 4.83772,0.40059 9.57789,1.62716 14.37305,2.41406 5.36791,0.41269 11.15185,1.17184 16.41015,-0.62109 2.55088,-0.51194 6.03801,0.99963 8.70118,1.50586 5.18781,0.88293 10.46346,0.68366 15.61132,-0.39649 2.15755,-0.89601 3.88507,-0.78937 6.08789,-0.31054 5.02273,1.09772 10.1025,1.28011 15.18164,0.75 4.51987,-0.55098 8.75935,-2.34149 12.80469,-4.61328 -2.53262,1.43527 4.68141,0.53011 5.0625,0.49609 2.8887,-0.41885 5.76039,-0.95716 8.64258,-1.43164 3.11588,-0.55518 6.24848,-0.93483 9.3418,-1.64258 1.4999,-0.5139 2.80146,-0.92263 4.3457,-0.94531 3.61561,0.13636 7.19707,-0.50464 10.76563,-1.0625 3.22182,-0.4159 6.31338,-1.33323 9.40039,-2.41992 2.51591,-1.24634 0.86204,-0.72502 2.90234,-0.88868 2.2893,0.38665 4.59728,0.32477 6.89063,0.0391 2.20118,-0.48333 4.47139,-0.67224 6.60546,-1.50782 0.24084,0.15648 1.40368,0.18839 1.86524,0.21485 1.27918,0.14604 2.49144,-0.22371 3.73437,-0.46485 0.87137,-0.0865 -0.23843,0.0532 0.90235,0.2168 1.19546,0.20599 2.39879,0.2256 3.60351,0.15039 0.78036,-0.33033 0.98438,-0.35297 1.70899,-0.13867 0.49315,0.0132 1.44919,0.19905 1.63476,-0.24414 1.25395,-2.13998 2.37051,-4.42024 3.46875,-6.71875 -0.26219,-0.40447 -0.83301,-1.57077 -1.30273,-2.5 -0.72787,-1.17368 -1.45764,-2.34748 -1.95117,-3.63086 -0.0544,-0.1414 -0.14873,-0.40647 -0.21289,-0.57617 -1.28313,-1.63461 -2.91588,-3.54306 -5.06055,-5.75781 -0.37751,0.12466 -0.7553,0.24833 -1.13281,0.37304 0.17937,-0.32214 0.35817,-0.64473 0.5332,-0.97265 -0.82611,-0.83793 -1.68053,-1.69146 -2.65625,-2.60938 -0.26042,-0.54043 -0.43911,-0.94995 -0.54102,-1.24805 1.28399,0.48246 2.56215,1.00757 3.83399,1.57227 0.15712,0.10025 0.23881,0.15392 0.40625,0.25977 0.0109,-0.0217 0.0223,-0.0428 0.0332,-0.0645 0.18552,0.083 0.3712,0.16453 0.55664,0.24805 0.0106,0.0679 0.0242,0.13648 0.0371,0.20508 0.21989,0.13716 0.4478,0.27722 0.6836,0.42187 -0.34211,-0.70808 -0.65465,-1.498 -0.97266,-2.48047 -0.47337,-0.92279 -0.85936,-1.73606 -1,-2.22851 -0.0112,-0.0244 -0.0241,-0.0478 -0.0352,-0.0723 -0.25003,-0.5571 -0.53702,-1.36393 -0.83008,-2.25976 -0.83247,-1.21725 -1.43472,-2.49633 -2.07812,-4.40039 -0.26678,0.21623 -0.42249,0.33993 -0.7168,0.57617 -0.1616,0.19581 -0.30993,0.39115 -0.46679,0.58594 -0.53276,-0.12391 -1.21882,-0.19359 -1.33985,-0.125 -1.99771,-0.0522 -4.0104,-0.0357 -5.99609,0.22851 -1.42107,0.12801 -1.26346,-0.72469 -3,-0.82031 -3.99266,-0.44232 -8.01634,-0.19573 -11.86133,1.21094 -0.10923,0.0552 -4.40632,1.75555 -3.71875,0.89257 0.71603,-0.86687 -5.77888,0.0555 -6.19531,0.11329 -0.80406,0.11149 -1.60768,0.21454 -2.41211,0.32226 -1.95734,0.48794 -4.33836,1.03891 -5.9043,2.07813 -3.15617,-0.40199 -6.34422,-0.39297 -9.48633,0.16406 -2.42396,0.52925 -4.93487,1.0271 -7.16797,2.25586 -2.43178,0.15382 -4.87767,-0.29086 -7.31445,-0.11133 -5.02779,0.23199 -9.97828,1.23614 -14.6289,3.51172 -1.68299,0.92511 0.14282,0.048 -0.25977,-0.0352 -0.26067,-0.0537 -2.24663,-0.16236 -2.39063,-0.16992 -4.69224,-0.27526 -9.3836,-0.0987 -14.01953,0.8457 -2.42812,0.47558 -4.68436,0.47408 -7.08984,-0.25586 -4.53918,-0.68749 -9.1557,-0.75686 -13.69922,-0.0547 -2.85415,0.51541 -4.56999,0.77131 -7.375,-0.64453 -5.62651,-1.64331 -11.34931,-2.54054 -17.17969,-2.33985 -4.92616,0.10284 -9.83772,0.46261 -14.75976,0.61719 -4.16697,-0.24242 -8.29778,-1.07212 -12.48047,-0.93945 -5.31628,0.2612 -10.53802,1.25911 -15.82422,1.90039 -4.51733,0.37583 -9.02371,0.93147 -13.55469,1.0664 -5.77806,0.25576 -11.55531,0.71853 -17.33984,0.60743 -6.99991,-0.11452 -13.99975,-0.30051 -21,-0.0703 -6.55306,0.24794 -13.11109,0.38362 -19.66797,0.32617 -6.14649,-0.1248 -12.30351,-0.30537 -18.43164,-0.87109 -6.79245,-0.6861 -13.54082,-1.81785 -20.32617,-2.58789 -6.12174,-0.69267 -12.17282,-1.53181 -17.95508,-4.10352 -6.61089,-2.00311 -13.32613,-3.08177 -20.18359,-3.03906 -6.23732,-0.25342 -12.47541,-0.47529 -18.71094,-0.77539 -5.28092,-0.37035 -10.49154,-1.46291 -15.76172,-1.97266 -7.52169,-0.65116 -15.06672,-0.86399 -22.59961,-0.25976 -6.8326,0.40316 -13.6707,0.61852 -20.49609,-0.10938 -8.06476,-0.64161 -16.14469,-1.03485 -24.19336,-1.92187 -9.59831,-1.24966 -19.12946,-3.02995 -28.63086,-5.00781 -8.3618,-1.54369 -17.1448,-3.29046 -25.78125,-3.23438 z"
       transform="matrix(0.26458333,0,0,0.26458333,0,296.33334)"
       id="path890"
       inkscape:connector-curvature="0" />
    <path
       style="fill:#1a1a1a;fill-opacity:1;stroke:none;stroke-width:0.9376567;stroke-opacity:1"
       d="m 728.73633,140.32227 c -0.34364,0.68035 -0.68793,1.36019 -1.04297,2.02539 0.19291,0.19566 0.41435,0.40829 0.59961,0.59961 0.5384,-0.1778 1.07684,-0.35539 1.61523,-0.53321 -0.26571,-0.58369 -0.44106,-1.15318 -0.54492,-1.70312 -0.20791,-0.12969 -0.43306,-0.26611 -0.62695,-0.38867 z"
       transform="matrix(0.26458333,0,0,0.26458333,0,296.33334)"
       id="path1888"
       inkscape:connector-curvature="0" />
    <path
       style="fill:#1a1a1a;fill-opacity:1;stroke:none;stroke-width:0.9376567;stroke-opacity:1"
       d="m 677.54883,314.85742 c -4.33787,-0.0567 -8.67253,0.24084 -12.97266,0.99219 -3.32617,0.51723 -6.51858,0.46237 -9.83398,-0.23828 -6.10968,-0.33226 -12.15711,0.52184 -18.01367,2.58984 -2.35212,0.92875 -4.37701,2.49132 -6.92188,1.83985 -3.92353,-1.14252 -7.93683,-1.40224 -11.98047,-1.16602 -3.65983,0.18508 -7.34626,0.99455 -10.98047,0.58398 -4.81689,-1.22963 -9.61259,-2.70392 -14.57617,-2.9375 -6.91578,-0.28527 -13.8059,0.21314 -20.66797,1.23047 -4.1424,0.36979 -8.25924,0.24712 -12.40039,-0.14257 -4.94218,-0.13433 -9.89432,0.21957 -14.76953,1.18554 -2.52612,0.60975 -4.85088,0.92535 -7.38086,-0.18164 -5.67488,-1.31924 -11.48471,-0.84314 -17.18359,0.0937 -3.74075,0.70005 -7.37221,1.89447 -11.18946,1.3125 -4.26546,-0.0692 -8.53181,-0.7782 -12.77539,0.19336 -6.24396,1.14176 -12.41745,2.69077 -18.57226,4.33789 -4.65483,1.06322 -9.3772,1.55261 -14.08789,2.19531 -5.70176,0.80795 -11.40244,1.79838 -17.14649,2.09961 -4.82309,-0.22333 -9.56682,-1.18273 -14.35937,-1.76758 -5.8238,-0.5453 -11.63893,-0.39809 -17.44141,0.4336 -3.00767,0.26891 -5.98506,0.39504 -8.94726,-0.42383 -5.12826,-0.67865 -10.24424,-0.80292 -15.32422,0.49023 -4.06054,0.84685 -8.1078,1.95253 -12.24805,2.0625 -4.51318,0.0276 -9.03719,-0.39309 -13.54492,0.13672 -5.52137,0.59071 -11.06796,1.38223 -16.37695,3.28125 -0.2461,0.18447 -0.84025,0.48797 -0.70313,0.70118 -1.67143,-0.64157 -3.38183,-1.15853 -5.13477,-1.41016 -6.55456,-0.96582 -13.04633,-0.14771 -19.44921,1.67969 -5.79372,1.45965 -11.54783,3.15345 -17.39453,4.29882 -5.81987,0.42384 -11.64685,0.77469 -17.45508,1.37696 -5.36692,0.58 -10.74642,0.69802 -16.13477,0.7207 -6.04988,-0.009 -12.10666,-0.12107 -18.14844,0.32227 -4.86125,0.46843 -9.74733,0.84256 -14.51171,2.11914 -3.74515,0.91438 -7.37298,0.98994 -11.17774,0.24023 -8.79921,-0.52559 -17.89752,-0.51845 -25.77148,4.62891 -12.64702,0.79152 -11.66604,21.13517 0.98242,20.3457 7.91087,3.94813 16.58134,3.04738 24.95703,2.32617 3.63874,-0.83395 7.0187,0.11087 10.54297,0.99414 4.97381,1.26127 10.06597,1.55763 15.13086,1.97852 5.97505,0.36435 11.96064,0.28201 17.9414,0.30469 5.99034,0.23289 11.97526,0.18888 17.96094,-0.16602 5.73909,-0.48559 11.46561,-1.07007 17.21094,-1.45312 7.31068,-0.26846 14.48809,-1.78071 21.59375,-3.64844 4.2918,-1.3844 8.72071,-2.22574 13.01172,-3.60156 2.43111,-0.50374 5.92848,0.388 8.66015,0.51953 5.8196,0.45464 11.6175,-0.31312 17.35938,-1.3125 3.52217,-0.87534 6.96028,-1.79556 10.57031,-1.81446 5.00537,0.32735 10.00444,0.19249 15.00781,-0.10156 4.14494,-0.37927 8.24413,-1.11411 12.21875,-2.51367 2.25158,-0.31869 4.93144,0.98432 7.17383,1.4707 6.20708,1.18515 12.51884,1.61525 18.80469,1.3711 4.431,-0.36877 8.82443,0.0129 13.23242,0.48242 7.54417,1.34778 14.99257,1.54266 22.54883,0.31641 5.40998,-0.81767 10.24814,-3.92506 15.5332,-5.2129 5.91024,-0.35988 11.77616,-0.48131 17.64649,-1.48632 2.97384,-0.6559 5.90206,-1.60508 8.67578,-3.00196 0.61335,-0.3089 1.12152,-0.61636 1.46679,-0.86718 0.18356,0.0562 0.36725,0.1123 0.55079,0.16796 3.06618,0.92935 6.03125,1.45818 9.1875,1.85352 6.41574,0.585 13.0793,0.21619 19.10742,-2.54688 0.23826,-0.17993 0.52738,-0.29339 0.71484,-0.53906 0.0312,-0.0411 0.0364,-0.0769 0.0312,-0.10937 1.16114,0.44783 2.50643,0.67056 3.65039,0.95117 5.66117,1.39933 11.46271,1.11031 17.16602,0.25391 3.51726,-0.97527 6.9378,-0.87857 10.49219,-0.39063 7.02383,1.2946 14.10993,1.79404 21.21484,1.47656 2.44293,0.85293 7.359,-2.01173 9.5918,-1.60547 5.10455,2.14114 10.54356,2.69384 15.93554,2.90625 4.30659,-0.0275 8.71639,-0.22597 12.77149,-2.02929 2.95827,-0.0511 6.16945,0.51232 9.20312,0.68164 6.00888,0.0521 12.01502,-1.04519 17.66016,-3.39258 2.0454,-1.43535 4.24591,-0.5584 6.45508,-0.125 5.97044,1.20302 12.02948,1.39443 18.0664,0.95117 1.37753,-0.2022 3.15441,-0.41224 4.53711,-0.78906 0.44799,-0.12208 1.28648,-0.10345 1.26758,-0.62695 -7.1e-4,-0.0195 -0.0281,-0.031 -0.041,-0.0469 0.12262,0.0413 0.24606,0.0753 0.36915,0.11328 4.3333,1.86618 8.77032,3.21498 13.35156,3.99024 1.69216,0.27112 3.3653,0.28932 5.02929,0.082 0.54458,0.45067 1.0955,0.89973 1.6211,1.35937 0.91172,1.18407 2.57433,1.98564 3.59375,3.20313 -0.061,2.47696 0.10599,5.08916 0.14062,8.03515 -0.28584,0.23929 0.5311,2.39024 1.29493,4.14454 -1.33424,1.39233 -2.72462,2.90604 -4.11719,4.61132 -0.16121,2.01167 0.48544,3.66464 1.54101,4.80274 0.13041,-0.18876 0.25966,-0.39218 0.39063,-0.5625 1.23407,-1.9544 2.67738,-3.97191 3.40039,-5.47266 0.58542,-1.21514 1.14216,-2.11702 1.65234,-2.80469 0.16704,-1.1449 0.88464,-2.17992 1.72071,-3.1914 2.11672,-4.35448 2.84492,-4.94786 2.79101,-3.82813 0.32483,-0.69727 0.64978,-1.39452 0.97461,-2.09179 2.56445,-3.95275 -0.75866,1.07036 1.45313,-0.69141 0.34674,-0.61007 0.77602,-1.30948 1.21875,-2.02344 -0.12856,-0.0888 0.16542,-0.59479 0.94726,-1.5664 0.0793,-0.13022 0.14365,-0.241 0.2168,-0.36329 -0.11624,0.0813 -0.23859,0.17099 -0.3457,0.23829 -0.68854,0.4326 -0.12884,-0.13383 0.77929,-0.9668 0.0403,-0.0722 0.11933,-0.19414 0.1543,-0.25977 0.32542,-0.61035 0.66789,-1.24468 1.1875,-1.70117 0.0485,-0.0426 0.0671,-0.0573 0.11523,-0.0996 -0.10558,-0.0738 0.52174,-0.7271 1.3125,-1.50976 -2.2e-4,-0.9532 -0.006,-1.9064 -0.006,-2.85938 5.3e-4,-2.01184 -1.1e-4,-4.02331 0,-6.03515 3.1e-4,-2.02035 4e-5,-4.0402 0,-6.06055 v -6.02149 c -2.29002,-2.49794 -4.79003,-4.71948 -7.66211,-6.36914 -0.44843,-0.20968 -1.71194,-0.8914 -1.39257,-0.47656 0.22435,0.2914 4.55236,3.8762 1.9375,2.03516 -7.97405,-5.61449 -2.67346,-3.26331 -8.22071,-5.39258 -2.44021,-0.62113 -4.57326,-2.78275 -7.33984,-2.99023 -3.99795,-0.8809 -8.02922,-1.44478 -12.0918,-1.25391 -3.95077,-0.98464 -7.8361,-2.38602 -11.89648,-2.70313 -1.44559,-0.0938 -2.89193,-0.15102 -4.33789,-0.16992 z"
       transform="matrix(0.26458333,0,0,0.26458333,0,296.33334)"
       id="path1100"
       inkscape:connector-curvature="0" />
    <path
       style="fill:#1a1a1a;fill-opacity:1;stroke:none;stroke-width:0.9376567;stroke-opacity:1"
       d="m 727.79883,354.94531 c -0.77805,0.66201 -1.4372,1.25412 -2.00977,1.7793 -0.11294,0.20265 -0.28701,0.48347 -0.43359,0.72851 0.0571,-0.04 0.11076,-0.0741 0.16992,-0.11718 0.35208,-0.41803 0.77288,-0.90136 1.2832,-1.46875 -0.14175,0.24846 -0.26942,0.50972 -0.39453,0.77343 0.23412,-0.19384 0.49208,-0.42707 0.74024,-0.64453 0.14383,-0.23625 0.40615,-0.66779 0.64453,-1.05078 z"
       transform="matrix(0.26458333,0,0,0.26458333,0,296.33334)"
       id="path1068"
       inkscape:connector-curvature="0" />
    <path
       style="fill:#1a1a1a;fill-opacity:1;stroke:none;stroke-width:0.9376567;stroke-opacity:1"
       d="m 709.04883,375.24609 c 0.0466,-0.58135 0.15134,-1.18914 0.34375,-1.82617 -0.95845,1.72547 -3.97753,6.78609 -2.875,5.17578 0.81415,-1.18914 1.66896,-2.29369 2.53125,-3.34961 z"
       transform="matrix(0.26458333,0,0,0.26458333,0,296.33334)"
       id="path1066"
       inkscape:connector-curvature="0" />
    <path
       style="fill:#1a1a1a;fill-opacity:1;stroke:none;stroke-width:0.9376567;stroke-opacity:1"
       d="m 728.56055,354.4043 c -0.35973,0.46334 -0.63343,0.81122 -0.88672,1.13672 0.29788,-0.26845 0.59052,-0.55309 0.88672,-0.82813 -3.4e-4,-0.10287 2.5e-4,-0.20572 0,-0.30859 z"
       transform="matrix(0.26458333,0,0,0.26458333,0,296.33334)"
       id="path1060"
       inkscape:connector-curvature="0" />
    <path
       style="fill:#1a1a1a;fill-opacity:1;stroke:none;stroke-width:0.9376567;stroke-opacity:1"
       d="m 726.21484,358.16211 c -0.23474,0.18173 -0.4578,0.34875 -0.66211,0.49609 -0.0522,0.13024 -0.10525,0.25915 -0.1582,0.38868 0.25137,-0.2667 0.5303,-0.5687 0.82031,-0.88477 z"
       transform="matrix(0.26458333,0,0,0.26458333,0,296.33334)"
       id="path1058"
       inkscape:connector-curvature="0" />
    <path
       style="fill:#1a1a1a;fill-opacity:1;stroke:none;stroke-width:0.9376567;stroke-opacity:1"
       d="m 715.57031,358.79102 c -1.39966,4.33219 -2.91541,-0.31399 -1.01562,5.0039 0.26826,0.95921 -0.6109,-0.66515 -1.30274,-2.10547 -0.49921,2.414 0.20511,5.74708 0.54297,8.29297 5.30745,-5.4792 8.92556,-8.65309 3.09766,-10.85156 -0.46227,-0.17445 -0.948,-0.22784 -1.32227,-0.33984 z"
       transform="matrix(0.26458333,0,0,0.26458333,0,296.33334)"
       id="path1894"
       inkscape:connector-curvature="0" />
    <path
       style="fill:#1a1a1a;fill-opacity:1;stroke:none;stroke-width:0.9376567;stroke-opacity:1"
       d="m 226.55469,123.91211 c -5.83481,-0.0559 -11.63969,0.80291 -17.20899,3.125 v 0.002 c -17.99211,0.57007 -17.28315,29.50952 0.70899,28.93946 9.68965,3.97553 20.22664,4.31287 30.42773,4.91015 5.55118,0.0415 10.64832,2.00425 15.76172,4.20703 6.48798,2.82051 13.30704,4.28126 20.14648,5.46289 6.01181,0.88721 11.99183,1.99229 17.97266,3.11133 6.0966,1.48082 12.2777,1.42099 18.46094,1.08008 3.81506,-0.43128 7.61218,0.0942 11.39062,0.64453 4.96003,0.97081 9.95618,1.65284 14.97266,2.09766 4.81564,0.52165 9.58417,1.45307 14.37891,2.16797 4.69441,0.83569 9.43598,0.69175 14.16406,0.55078 4.59589,0.11455 9.02343,1.86684 13.44141,3.16015 5.73614,1.7158 11.60351,2.52026 17.51953,2.68164 2.7112,-0.2005 5.29899,0.94085 7.84375,1.85743 5.22206,1.93768 10.62186,3.12949 16.02734,4.17578 3.33789,0.51507 6.67668,1.03993 9.98438,1.76953 4.82194,1.80408 9.75328,2.85213 14.80273,3.33984 4.64666,0.47785 9.20106,-0.82938 13.80664,-1.13476 5.17414,0.31857 10.31779,1.13702 15.49219,1.54687 6.83644,0.55537 13.61996,-0.0609 20.35742,-1.35156 4.1661,-1.47507 8.22796,-0.94041 12.4707,-0.6543 6.23479,0.66569 12.49364,0.52401 18.63477,-0.88281 2.74839,-0.81623 5.03533,-1.93585 7.83203,-1.36133 5.81246,1.2621 11.72791,0.96884 17.5957,0.55078 3.79144,0.0101 7.35842,-2.18241 11.10938,-2.26367 5.39267,1.09731 10.80883,1.80172 16.28125,2.10938 5.61263,0.27866 11.22079,-0.25934 16.69922,-1.65039 2.60197,-0.9916 5.24012,-0.13411 7.85937,0.33398 6.12151,1.2847 12.32146,1.44376 18.47461,0.44336 3.12045,-0.59191 6.16755,-2.07983 9.36133,-2.07227 4.81799,0.34205 9.58456,0.04 14.35742,-0.76953 4.13877,-0.56859 7.97013,-2.67453 12.06445,-3.42383 3.38162,0.0797 6.73659,0.64659 10.11719,0.8711 5.84712,0.40154 11.4823,-0.94804 16.95313,-3.16016 1.73582,-1.01159 3.58427,-0.51799 5.46289,-0.39062 4.51744,0.60839 9.0068,0.36191 13.49023,-0.40821 1.64289,-0.64902 3.70796,-0.40896 5.20703,-1.50586 2.08645,0.81695 5.29787,-0.72585 7.5293,-0.64648 0.94537,-0.29556 2.6512,-0.15765 3.33008,-0.82617 -1.43312,-0.47343 2.80133,0.0525 3.0625,0.0449 0.80636,-0.0268 1.60053,-0.23957 2.40039,-0.35937 1.69153,-0.64797 4.8823,-1.89931 5.97265,-2.42383 1.13265,-0.62529 2.7679,-1.35575 2.42774,-1.50391 -0.13652,-0.0591 -0.55964,0.0923 -0.43945,-0.002 0.35588,-0.27753 0.79324,-0.38777 1.18945,-0.58203 3.59393,-1.89692 3.95899,-3.83446 6.04883,-7.26954 0.005,-0.0403 0.009,-0.0802 0.0137,-0.12304 -0.48553,-1.72687 -0.75869,-3.45024 -0.90234,-5.24219 -0.59971,-1.05271 -1.16039,-2.09895 -1.69336,-3.14648 0.0729,0.23418 0.15473,0.48593 0.20703,0.68164 0.27898,1.04375 -0.90156,-1.10944 -1.57813,-2.56641 -0.57608,-0.87651 -1.10939,-1.7356 -1.57812,-2.5625 0.0646,0.49349 -0.79862,-1.29497 -1.44922,-2.58203 -0.72787,-1.17368 -1.45764,-2.34748 -1.95117,-3.63086 -0.46652,-1.21315 -1.33214,-3.56159 -1.93164,-5.44141 0.21998,0.67801 0.48045,1.46024 0.60351,1.88282 -0.36265,-0.91528 -0.791,-1.80923 -1.11914,-2.73633 -0.84258,-1.24369 -1.42964,-2.43312 -2.04492,-4.33399 -0.45837,-0.89354 -0.82548,-1.67165 -0.97656,-2.16796 -2.09759,0.75509 -1.71017,4.49399 0.83789,4.33203 1.6919,7.75733 0.49149,4.69637 2.82422,9.53515 2.84735,3.19936 -0.35892,2.63504 -4.04102,0.9043 -0.77888,-0.50956 -1.55044,-1.03048 -2.31055,-1.57031 0.28799,0.0133 0.34538,0.0307 0.78125,0.041 0.1832,0.005 -0.34781,-0.13112 -0.52734,-0.17383 -0.19807,-0.0472 -0.40033,-0.0752 -0.59961,-0.11718 -0.26329,-0.19066 -0.53,-0.37683 -0.78906,-0.57422 -0.0272,-0.0207 -0.0534,-0.0534 -0.0801,-0.0801 0.66761,-0.94546 1.49166,-1.76948 2.85156,-2.44727 1.7059,-0.81567 -1.59037,0.33629 -3.13281,1.04883 0.0224,-0.24518 0.0345,-0.50085 0.0664,-0.73633 0.18796,-0.24598 0.30861,-0.40291 0.6621,-0.87695 2.56178,-2.66235 0.15176,-0.26022 -0.62304,0.67383 0.0684,-0.45401 0.14722,-0.89552 0.25781,-1.29883 -0.30909,0.4338 -0.54915,0.80841 -0.47851,0.93359 -0.34717,0.66847 -0.59669,1.11032 -0.81446,1.55274 -0.0379,0.0437 -0.0818,0.0934 -0.11914,0.13672 -0.002,0.0429 -0.003,0.0966 -0.006,0.13867 -0.0225,0.0491 -0.0463,0.0979 -0.0684,0.14844 -0.0164,0.01 -0.0398,0.0232 -0.0566,0.0332 -0.002,-0.0521 -6.4e-4,-0.10898 -0.002,-0.16211 -0.057,0.0667 -0.10824,0.13471 -0.16406,0.20117 -0.74495,-0.6049 -1.33363,-1.20231 -1.64453,-1.74218 0.33156,0.75233 0.68172,1.47921 1.0625,2.16406 -0.19163,0.12143 -0.32799,0.20305 -0.5254,0.33398 -3.10567,-0.21843 -6.40555,0.0975 -9.21875,1.69727 -0.0701,0.0351 -0.15172,0.0571 -0.23242,0.0801 -3.09964,-0.47052 -6.20335,-0.75474 -9.33789,-0.39063 -3.24253,0.35841 -6.44246,1.0051 -9.68554,1.32031 -3.85248,0.0785 -7.7165,-0.76558 -11.56836,0 -3.81049,0.53957 -7.55384,1.4293 -11.32422,2.22852 -4.23383,0.37039 -8.48193,-0.27187 -12.72071,0.0547 -4.51154,0.38619 -9.00759,1.00484 -13.49218,1.68164 -4.91294,0.84075 -9.81559,1.92626 -14.56446,3.60547 -2.53772,0.79124 -2.6858,0.48477 -5.37304,-0.42383 -6.11985,-0.98638 -12.28547,-0.82764 -18.375,0.43359 -2.72104,0.47433 -5.44275,1.25 -8.1543,0.29688 -5.38942,-1.23447 -10.88276,-1.68632 -16.37891,-1.40625 -5.25683,0.26324 -10.47159,1.0182 -15.71875,1.30468 -4.66484,-0.27499 -9.32545,-1.00079 -14.0039,-0.48046 -5.44128,0.71255 -10.89246,1.32565 -16.33203,2.05468 -2.7261,0.44935 -5.31436,1.44779 -7.99414,0.42188 -6.0923,-0.9792 -12.268,-0.97585 -18.35743,0.0996 -4.31195,0.63764 -8.66191,1.57632 -13.02148,1.37109 -6.25187,-0.50634 -12.50802,-1.10943 -18.7832,-0.75 -5.62972,0.35705 -11.22577,1.04743 -16.83399,1.68359 -3.72355,0.17031 -7.39409,-0.55238 -11.11133,-0.71679 -3.68609,-0.12019 -7.38834,0.0994 -11.05078,-0.26758 -3.27983,-1.082 -6.19209,-3.37132 -9.54101,-4.28906 -5.72565,-1.83685 -11.54497,-3.05715 -17.52539,-2.73438 -2.7173,0.0247 -5.21084,-0.70545 -7.71485,-1.95508 -5.58935,-2.29111 -11.25838,-4.27069 -17.19726,-5.01367 -5.88431,-0.81501 -11.75688,-1.24029 -17.6875,-0.88086 -3.69337,-0.26392 -7.39705,-0.43988 -11.04297,-1.22265 -5.20801,-0.9442 -10.46234,-1.58036 -15.70703,-2.19336 -5.00236,-0.60469 -10.01018,-1.08801 -15.03516,-1.34766 -4.47218,-0.27383 -8.9375,-0.65499 -13.40625,-0.99023 -5.09576,-0.35358 -10.17987,-0.90235 -15.24805,-1.60157 -5.76663,-0.72306 -11.53191,-1.47528 -17.21679,-2.82812 -5.42899,-1.16973 -10.91637,-2.00736 -16.28125,-3.53516 -6.79606,-2.52578 -13.26233,-6.13931 -20.27149,-7.91406 -5.6954,-1.33695 -11.56168,-2.30734 -17.39648,-2.36328 z"
       transform="matrix(0.26458333,0,0,0.26458333,0,296.33334)"
       id="path904"
       inkscape:connector-curvature="0" />
    <path
       style="fill:#1a1a1a;fill-opacity:1;stroke:none;stroke-width:0.9376567;stroke-opacity:1"
       d="m 723.99609,142.03711 c -0.0143,-0.0371 -0.0866,0.0469 -0.24218,0.30664 -0.88525,0.98612 -1.07061,3.60167 -1.02344,5.58203 0.0444,-0.052 0.0877,-0.10585 0.13281,-0.1582 0.0519,-0.89606 0.098,-1.58995 0.16016,-2.89649 0.0123,-0.24044 1.03482,-2.6732 0.97265,-2.83398 z"
       transform="matrix(0.26458333,0,0,0.26458333,0,296.33334)"
       id="path900"
       inkscape:connector-curvature="0" />
    <path
       style="fill:#1a1a1a;fill-opacity:1;stroke:none;stroke-width:0.9376567;stroke-opacity:1"
       d="m 725.80664,142.53906 c -0.0813,-0.0479 -0.288,0.31079 -0.41797,0.41992 -0.50748,0.52791 -0.86645,1.28539 -1.11328,2.18555 0.63531,-0.89162 1.65984,-2.12049 1.55859,-2.55859 -0.006,-0.0254 -0.0157,-0.04 -0.0273,-0.0469 z"
       transform="matrix(0.26458333,0,0,0.26458333,0,296.33334)"
       id="path898"
       inkscape:connector-curvature="0" />
    <path
       style="fill:#1a1a1a;fill-opacity:1;stroke:none;stroke-width:0.9376567;stroke-opacity:1"
       d="m 742.30469,170.29492 c -0.0989,0.14528 -0.14586,0.2096 -0.26172,0.37891 0.0996,-0.0924 0.16314,-0.15393 0.24805,-0.23242 0.005,-0.0489 0.009,-0.0975 0.0137,-0.14649 z"
       transform="matrix(0.26458333,0,0,0.26458333,0,296.33334)"
       id="path1896"
       inkscape:connector-curvature="0" />
    <path
       style="fill:#1a1a1a;fill-opacity:1;stroke:none;stroke-width:0.24808833;stroke-opacity:1"
       id="path1898"
       d="m 81.202974,391.5318 c -2.510609,0.84709 -5.166532,0.57848 -7.722349,0.17024 -1.251225,-0.17747 -2.484471,-0.52297 -3.74374,-0.62166 -0.709875,-0.002 -1.414879,0.10005 -2.120209,0.17639 -1.055225,0.15388 -2.110995,0.15215 -3.168453,0.0372 -0.677485,-0.0973 -1.337782,-0.29865 -2.020454,-0.34926 -0.443636,-10e-4 -0.886876,-0.0152 -1.330133,-0.0274 -0.502578,0.01 -1.00097,0.0886 -1.50229,0.13086 -0.587261,0.0543 -1.172369,-0.051 -1.758347,-0.0808 -0.435002,-0.007 -0.867023,0.0645 -1.301814,0.0381 -0.385204,-0.0418 -0.766329,-0.0106 -1.14748,0.0579 -0.686048,0.11904 -1.378427,0.15836 -2.07136,0.1349 -0.437446,-0.0396 -0.212775,-0.068 0.08001,-0.26714 1.253221,-0.85224 1.592197,-1.37213 0.912082,-0.48544 -1.172246,1.09569 -0.882919,0.5339 0.415932,-3.44145 0.127616,-0.39065 0.276166,0.77523 0.362934,1.18012 0.07324,0.61539 -0.09617,0.48138 -0.617444,0.78813 1.463815,3.02911 -2.302494,5.38373 -3.766336,2.35461 v 0 c -0.497644,-0.26588 -1.001927,-0.38574 -0.911809,-1.1538 0.07271,-0.0378 0.216459,0.14968 0.233929,0.0609 0.271004,-1.37787 0.400853,-2.78733 0.642079,-4.17234 0.01908,-0.10941 0.787096,-0.658 -0.16528,0.11787 -0.07359,0.0872 -0.308573,0.32961 -0.220829,0.26145 0.935794,-0.72705 1.631171,-1.51059 2.772575,-1.65329 0.779147,-0.0847 1.555912,-0.0514 2.33003,0.0889 0.38385,0.069 0.767234,0.0965 1.155014,0.0547 0.437402,-0.025 0.871147,0.0476 1.308522,0.0487 0.567691,-0.0277 1.132076,-0.14553 1.701604,-0.10439 0.610148,0.0362 1.218686,0.0957 1.826899,0.15808 0.357931,0.04 0.68742,0.11412 1.050425,0.0235 0.888985,-0.0206 1.768089,0.12073 2.630531,0.3671 0.806754,0.18292 1.607644,0.34389 2.436475,0.33782 0.822667,0.0352 1.645687,0.0313 2.467422,0.0927 1.230828,0.069 2.45907,0.0438 3.687357,-0.0877 2.660169,-0.18221 5.420682,-0.15669 7.866125,1.20298 2.835921,0.25065 2.524254,4.81228 -0.311659,4.56163 z"
       inkscape:connector-curvature="0" />
  </g>
  <g
     inkscape:groupmode="layer"
     id="layer5"
     inkscape:label="arm"
     style="display:inline"
     transform="translate(0,-296.33334)"
     sodipodi:insensitive="true">
    <path
       style="fill:#000000;fill-opacity:1;stroke:none;stroke-width:0.24808834;stroke-opacity:1"
       id="path1869"
       d="m 194.40976,333.13498 c -0.52784,0.27135 -1.03765,0.59366 -1.58354,0.81406 -1.70576,0.6887 -3.46273,1.06478 -5.24479,1.39567 -3.70041,0.68707 -7.41138,0.92786 -11.14961,1.16623 -8.1583,0.31482 -16.32474,0.23371 -24.48177,-0.0765 -6.55709,-0.37688 -13.12118,-0.34103 -19.68276,-0.18771 -6.83572,0.45741 -13.67009,0.3139 -20.48972,-0.33141 -5.80023,-0.68071 -11.56541,-1.62075 -17.394561,-1.91987 -5.201846,-0.052 -10.398542,0.0419 -15.598335,-0.18283 -3.938227,-0.15081 -7.763996,-1.25539 -11.634306,-1.96435 -1.851525,-0.26979 -3.716879,-0.009 -5.574384,0.0106 -1.52521,0.01 -3.074677,0.03 -4.564851,-0.38559 -1.940394,-0.83188 -0.321646,-2.52693 -0.06471,-5.8888 2.89568,0.0488 2.835006,4.70653 -0.06066,4.65774 v 0 c -0.106657,-3.12934 -1.662411,-5.17232 0.293476,-5.86302 1.385355,-0.29208 2.801439,-0.19524 4.203218,-0.25693 1.955438,-0.13749 3.907254,-0.31738 5.848017,-0.63498 4.006111,-0.50378 8.032329,-0.54434 12.045606,-0.046 5.069969,0.53215 10.151737,0.74229 15.243684,0.59739 5.984876,-0.0425 11.975616,0.0519 17.937476,0.716 6.55781,0.61021 13.10926,1.4168 19.70034,1.3418 6.61926,-0.0655 13.23358,-0.3667 19.8497,-0.58889 8.1393,-0.17602 16.27472,0.0989 24.40439,0.56571 3.66873,0.21517 7.32634,0.42598 10.97742,0.90661 1.71811,0.22617 3.48833,0.46811 5.17189,0.95646 0.54053,0.15679 1.05908,0.39899 1.58861,0.59848 2.85986,-0.20925 3.12003,4.39089 0.26018,4.60014 z"
       inkscape:connector-curvature="0" />
    <path
       style="fill:#000000;fill-opacity:1;stroke:none;stroke-width:0.24808834;stroke-opacity:1"
       id="path1871"
       d="m 194.43517,402.62086 c -0.46901,0.10666 -0.93222,0.25459 -1.40706,0.31997 -1.24766,0.17179 -2.97685,0.15828 -4.1998,0.13794 -2.73913,-0.0455 -5.47471,-0.25673 -8.21034,-0.40578 -6.27095,-0.52882 -12.55908,-0.24578 -18.8355,-0.0522 -6.2201,0.21895 -12.4453,0.15972 -18.66751,0.11859 -4.93294,0.0933 -9.86571,0.19556 -14.79883,0.0705 -3.73085,-0.12798 -7.45498,-0.44066 -11.18862,-0.407 -3.43761,0.18853 -6.87654,0.1605 -10.31624,0.12342 -2.7474,-0.13697 -5.48466,-0.15174 -8.226555,0.0865 -2.479932,0.30826 -4.945174,0.74489 -7.42376,1.06931 -2.716685,0.36166 -5.453046,0.33101 -8.178232,0.14585 -1.929263,-0.23743 -3.855046,-0.45108 -5.796567,-0.42186 -2.073197,0.10523 -4.145833,0.20635 -6.221044,0.23666 -2.007486,0.0176 -4.011078,0.14268 -6.015743,0.25075 -1.840289,0.19892 -3.674608,0.43616 -5.520743,0.56326 -1.902704,0.0909 -3.801918,-0.0383 -5.681901,-0.37124 -0.04009,-0.0309 -1.096038,-0.26327 -0.984406,-0.41017 0.08291,-0.10914 0.345464,-0.02 0.352076,-0.16407 0.292219,-6.36063 -1.911435,-6.49164 0.161043,-6.29136 0.325902,0.0989 0.133822,0.061 0.127264,0.15658 -0.143177,2.08209 0.847795,7.49785 -0.609189,6.22689 0.728831,-1.399 0.0277,-0.0354 0.510912,-4.70329 1.956203,0.15231 1.766849,3.29893 -0.18938,3.14662 v 0 c -0.0977,-4.73758 -1.307915,-3.95242 -0.0079,-4.75404 2.15703,-1.09201 2.235613,6.49924 -0.07411,6.45696 -2.12216,-0.0556 -0.717384,0.0841 -0.859586,-6.357 -0.0026,-0.0658 1.053361,-0.44026 1.128498,-0.46055 0.190813,-0.0515 0.384501,-0.0883 0.576738,-0.13242 1.821914,-0.20542 3.645903,-0.16326 5.47194,-0.0313 1.696319,0.0839 3.357427,-0.0887 5.021015,-0.49313 2.180363,-0.37991 4.380271,-0.59611 6.588242,-0.55861 2.05659,0.0261 4.112407,0.0963 6.16911,0.11386 2.028728,-0.0172 4.053623,-0.15644 6.082412,-0.17921 2.412569,0.0413 4.833333,0.23877 7.2406,-0.0352 2.542313,-0.35768 5.063645,-0.86996 7.604147,-1.24301 2.902779,-0.31845 5.815309,-0.49061 8.731289,-0.54624 3.46233,-0.067 6.92513,-0.14218 10.38535,0.0821 3.70497,0.093 7.40981,-0.0506 11.11325,-0.17253 4.88223,-0.17843 9.76158,-0.41281 14.64134,-0.66565 6.28134,-0.41349 12.58038,-0.65809 18.87222,-0.55241 6.50688,0.22802 13.00494,0.75704 19.4672,1.66708 4.05931,0.72613 8.68554,1.50912 12.42272,3.55843 0.43912,0.24079 0.8401,0.5627 1.26016,0.84406 2.50718,0.41355 1.99297,4.44641 -0.5142,4.03284 z"
       inkscape:connector-curvature="0" />
  </g>
</svg>
