<?xml version="1.0" encoding="UTF-8" standalone="no"?>
<!-- Created with Inkscape (http://www.inkscape.org/) -->

<svg
   xmlns:dc="http://purl.org/dc/elements/1.1/"
   xmlns:cc="http://creativecommons.org/ns#"
   xmlns:rdf="http://www.w3.org/1999/02/22-rdf-syntax-ns#"
   xmlns:svg="http://www.w3.org/2000/svg"
   xmlns="http://www.w3.org/2000/svg"
   xmlns:sodipodi="http://sodipodi.sourceforge.net/DTD/sodipodi-0.dtd"
   xmlns:inkscape="http://www.inkscape.org/namespaces/inkscape"
   width="768"
   height="1536"
   viewBox="0 0 203.2 406.39999"
   version="1.1"
   id="svg8"
   inkscape:version="0.92.4 (5da689c313, 2019-01-14)"
   sodipodi:docname="axe.svg"
   inkscape:export-filename="C:\Users\panu-\PycharmProjects\nextgame\data\images\axe.png"
   inkscape:export-xdpi="10.923292"
   inkscape:export-ydpi="10.923292">
  <defs
     id="defs2" />
  <sodipodi:namedview
     id="base"
     pagecolor="#ffffff"
     bordercolor="#666666"
     borderopacity="1.0"
     inkscape:pageopacity="0.0"
     inkscape:pageshadow="2"
     inkscape:zoom="0.46504138"
     inkscape:cx="309.19734"
     inkscape:cy="859.52102"
     inkscape:document-units="mm"
     inkscape:current-layer="layer2"
     showgrid="false"
     units="px"
     width="1024px"
     inkscape:window-width="1920"
     inkscape:window-height="1017"
     inkscape:window-x="-8"
     inkscape:window-y="-8"
     inkscape:window-maximized="1" />
  <metadata
     id="metadata5">
    <rdf:RDF>
      <cc:Work
         rdf:about="">
        <dc:format>image/svg+xml</dc:format>
        <dc:type
           rdf:resource="http://purl.org/dc/dcmitype/StillImage" />
        <dc:title></dc:title>
      </cc:Work>
    </rdf:RDF>
  </metadata>
  <g
     inkscape:groupmode="layer"
     id="layer2"
     inkscape:label="color"
     style="display:inline"
     transform="translate(0,135.46666)">
    <path
       style="fill:#cccccc;fill-opacity:1;stroke:none;stroke-width:2.15034628;stroke-opacity:1"
       d="m 639.53136,217.80624 c -33.51547,3.88845 -64.9633,13.97986 -98.30276,18.45433 -85.28873,17.27073 -171.82458,29.79328 -257.92895,40.83569 -22.53076,2.54934 -45.28403,1.78997 -67.68051,-0.42849 -13.6825,5.59182 -12.99312,24.2619 -16.75321,36.43949 -2.41326,20.99833 -10.6544,40.37712 -16.17817,60.43109 -1.09652,23.6511 -2.38325,47.98484 1.76396,71.34781 5.58089,13.41072 21.97637,3.47543 32.28143,4.94424 48.61938,-1.74201 98.0397,-2.17572 146.5501,-7.95976 4.24743,-4.9001 13.28951,-8.74071 15.34222,0.504 7.09381,11.94354 24.16762,6.35257 35.7033,8.69376 9.28247,-0.16992 16.20705,5.02106 23.27163,9.91596 35.04045,14.7973 75.32652,14.37087 107.98037,35.5501 20.62113,11.59448 42.01566,24.72806 53.4846,46.46965 8.3276,9.21396 16.16323,22.39498 28.60547,25.67817 11.01403,-6.3858 7.74383,-23.2069 12.66821,-33.622 13.50996,-46.7793 14.70476,-95.94125 12.80286,-144.05874 0.72024,-35.284 -0.0808,-71.73993 9.55605,-106.11038 2.0553,-22.29748 5.72971,-46.42832 -1.97393,-67.69811 -6.79535,-1.8513 -14.21342,0.65083 -21.19267,0.61319 z m -26.65253,29.54626 c 3.96418,9.30973 -1.04135,21.774 -1.18465,32.01593 -5.07669,45.815 2.90469,92.20846 -5.12361,137.86143 -2.49468,18.41858 -1.38237,40.18043 -4.49388,56.58518 -12.576,-26.46211 -3.69466,-56.78686 -4.13361,-84.81606 2.47378,-40.4446 0.7014,-81.51496 3.05859,-121.61682 3.99848,-6.29234 6.04041,-15.31056 11.87716,-20.02966 z"
       id="path864"
       inkscape:connector-curvature="0"
       transform="matrix(0.26458333,0,0,0.26458333,0,-135.46666)" />
    <path
       style="fill:#e6e6e6;fill-opacity:1;stroke:none;stroke-width:0.26458332;stroke-opacity:1"
       id="path870"
       d="m 162.3213,-11.624218 c 0.69401,3.0186898 0.1025,6.1015116 -0.63049,9.0520841 -0.36266,1.1520064 -0.71703,2.29538205 -0.93842,3.48263889 -0.11713,0.93683141 -0.26872,1.86762491 -0.36767,2.80690371 -0.0698,0.7763007 -0.10094,1.5544853 -0.15233,2.3320983 -0.0437,0.2817389 -0.14406,0.5586704 -0.14661,0.8437324 -0.22857,0.9277932 -0.15606,0.6657578 -0.15169,0.075689 5.3e-4,-0.068665 -0.0509,0.1324451 -0.0455,0.2009034 -0.18243,0.4931172 -0.7795,0.688975 -1.20533,0.9235069 0.008,0.7652888 -1.07458,0.7761764 -1.08228,0.010901 v 0 c -0.42103,-0.2125954 -1.01482,-0.3873897 -1.23606,-0.840396 0.004,-0.2235306 0.0235,-0.1144244 -0.0628,-0.3267049 -5.3e-4,-0.2421784 0.13129,-1.3482664 -0.084,-0.1796627 0.004,0.3076919 -0.2421,-0.525563 -0.22782,-0.5727223 -0.1159,-0.9356884 -0.1388,-1.8751682 -0.0411,-2.8150079 0.0893,-1.0982748 0.16483,-2.2108001 0.51228,-3.2650271 0.0742,-0.29010503 0.18371,-0.57064538 0.25303,-0.86195428 0.17742,-0.74567252 -0.10743,-1.53670792 -0.066,-2.28524592 -0.0537,-3.1140479 0.14592,-6.3130482 1.66079,-9.1078416 0.37202,-2.836902 4.384,-2.310784 4.01198,0.526119 z"
       inkscape:connector-curvature="0" />
    <path
       style="fill:#e6e6e6;fill-opacity:1;stroke:none;stroke-width:0.26458332;stroke-opacity:1"
       id="path872"
       d="m 159.23623,-67.382289 c -0.57911,-2.082271 -0.81005,-4.555334 0.20348,-6.549922 0.67035,-0.565745 1.0689,-1.015087 1.13918,1.871126 0.009,0.363079 -0.63254,-0.368869 -0.89883,-0.615834 -0.59849,-0.555051 -0.83481,-1.234665 -1.0108,-1.993826 -0.0556,-2.096796 0.0226,-1.384099 2.83362,-0.836419 0.25395,0.56053 -0.53876,0.919668 -0.79271,0.359137 v 0 c 1.34135,-0.01857 2.49711,0.666835 2.47876,-0.50252 -0.0233,-0.284597 -0.90603,-1.138714 -0.60837,-0.636987 1.09719,1.849337 0.89704,1.650336 1.73237,2.355323 1.01354,1.994588 0.7826,4.467651 0.20349,6.549922 0,3.733662 -5.28019,3.733662 -5.28019,0 z"
       inkscape:connector-curvature="0" />
    <path
       style="fill:#e6e6e6;fill-opacity:1;stroke:none;stroke-width:2.15034628;stroke-opacity:1"
       d="m 637.77693,218.09011 c -7.67179,2.77049 -23.62266,-2.0862 -25.18257,8.89538 5.40456,8.03954 7.96706,17.68969 5.67825,27.58491 -10.78821,29.26182 -10.53764,61.15005 -6.95922,91.79291 3.39842,37.66089 -10.33887,74.41452 -6.24105,111.92721 9.22551,13.88095 4.49869,32.12305 1.13633,47.41472 -2.17321,13.58301 -6.80876,27.79248 -4.70624,41.31646 8.6959,6.27905 15.46519,23.41378 28.37029,20.42829 8.64755,-7.38851 5.47458,-21.57058 10.06736,-31.32803 12.85484,-43.85548 15.7589,-89.72445 13.11606,-135.16001 0.8331,-34.73445 -1.18307,-70.05229 6.98023,-103.81301 5.51392,-25.48794 7.4757,-53.06093 1.8326,-78.4704 -5.6241,-5.56175 -16.72337,0.14278 -24.09204,-0.58843 z"
       id="path874"
       inkscape:connector-curvature="0"
       transform="matrix(0.26458333,0,0,0.26458333,0,-135.46666)" />
    <path
       style="fill:#ffbb70;fill-opacity:1;stroke:none;stroke-width:1.5205245;stroke-opacity:1"
       d="m 225.93401,455.21834 c -4.30359,7.4193 2.11839,16.41517 1.32451,24.64022 2.56749,43.36864 2.79341,87.15576 -1.10178,130.64037 -7.60132,60.27969 -19.24451,120.05512 -25.546,180.49694 -0.46999,38.46492 5.22546,76.20128 -3.27269,113.99479 -8.73555,43.04779 -5.04702,87.21156 -9.95913,130.61954 -5.9975,52.5152 -7.07614,105.3521 -18.72607,156.897 -6.35548,36.338 -9.32797,73.3914 -16.55634,109.3344 3.174,9.155 15.4573,7.678 22.30894,13.0729 22.50228,11.706 42.79865,30.4424 69.4458,31.424 12.33827,0.2163 25.43635,5.2294 37.44529,1.303 8.39362,-8.5843 14.50106,-19.5595 21.28734,-29.5404 10.50657,-20.0261 3.38477,-43.4197 3.02026,-64.7945 0.41563,-24.1663 -16.37125,-44.3721 -16.01374,-68.4477 -0.34681,-26.2665 -5.44143,-52.4736 -7.887,-78.4344 -1.75038,-56.1137 1.23007,-113.42786 3.35776,-169.9632 2.34482,-29.92824 6.31252,-59.68058 6.34037,-89.81838 3.8293,-42.04615 3.99308,-84.60172 11.77605,-126.18711 5.34516,-23.74275 12.59493,-47.36849 12.66648,-71.97836 2.50872,-34.48283 11.30005,-67.58044 20.34064,-100.82683 3.31492,-21.26057 7.90923,-42.23091 16.16294,-62.21685 1.61019,-8.62766 7.20645,-18.14043 3.84066,-26.79425 -8.41529,-5.64201 -19.87907,-1.96995 -29.48689,-2.57479 -26.95045,2.40581 -54.24457,4.12928 -81.04761,0.005 -6.47269,-0.0803 -13.3611,-2.9769 -19.71979,-0.85175 z"
       id="path876"
       inkscape:connector-curvature="0"
       transform="matrix(0.26458333,0,0,0.26458333,0,-135.46666)" />
    <path
       style="fill:#ffbb70;fill-opacity:1;stroke:none;stroke-width:2.15034628;stroke-opacity:1"
       d="m 312.79235,215.81865 c -17.28942,1.28185 -35.88734,5.24603 -49.97456,15.64041 -4.8183,8.13918 -15.18116,17.88699 -12.17991,27.09338 12.6965,3.95535 28.31261,-1.82114 42.07807,-1.54851 28.09779,-3.33552 57.09225,-3.68219 84.59379,-9.43277 4.85184,-6.69362 -3.06819,-18.08622 -10.04055,-22.26495 -17.3794,-5.86668 -36.1659,-8.67541 -54.47684,-9.48756 z"
       id="path878"
       inkscape:connector-curvature="0"
       transform="matrix(0.26458333,0,0,0.26458333,0,-135.46666)" />
    <path
       style="fill:#ff9b2d;fill-opacity:1;stroke:none;stroke-width:0.26458332;stroke-opacity:1"
       id="path887"
       d="m 72.181589,221.34412 c -0.213296,-2.1813 0.438653,-4.32043 0.919417,-6.4266 0.334608,-1.20681 0.02463,-2.33381 -0.333462,-3.48966 -0.650452,-1.80565 -1.133018,-3.66208 -1.516719,-5.54059 -0.204748,-1.41703 -0.601252,-2.78635 -0.981554,-4.16187 -0.445818,-1.31479 -0.544044,-2.69711 -0.714983,-4.0636 -0.06078,-1.21492 -0.438558,-2.33223 -0.981083,-3.40778 -0.683075,-1.18912 -1.191628,-2.42898 -1.469052,-3.77055 -0.214828,-1.26881 -0.02982,-2.54749 0.201055,-3.799 0.140591,-0.6187 0.278399,-1.20689 0.19428,-1.84009 -0.157715,-0.85561 -0.202988,-1.72366 -0.278397,-2.58871 -0.05048,-0.91909 0.01384,-1.86463 -0.336534,-2.7309 -0.449628,-0.99542 -0.899464,-1.98308 -1.280038,-3.00781 -0.520248,-1.29096 -0.775272,-2.65364 -1.084437,-4.00354 -0.291362,-1.12189 -0.634045,-2.21475 -0.763575,-3.37016 -0.07842,-1.20108 -0.04398,-2.4049 0.0019,-3.60632 0.0099,-0.8128 0.171169,-1.61447 0.203033,-2.42496 0.02662,-0.62585 -0.07062,-1.23608 -0.185933,-1.84748 -0.321673,-1.17412 -0.443043,-2.3844 -0.539473,-3.59363 -0.08765,-1.38567 0.05899,-2.76995 0.05314,-4.15565 -0.119319,-1.05053 -0.333531,-2.08047 -0.432212,-3.13465 -0.09753,-1.19356 0.03951,-2.38466 0.143787,-3.57211 0.08545,-0.87768 0.294714,-1.73477 0.523587,-2.58413 0.26724,-0.87445 0.362598,-1.78383 0.445529,-2.69024 0.08003,-1.23893 0.203325,-2.47419 0.296474,-3.71213 0.01982,-1.22549 0.05732,-2.44837 0.111863,-3.67233 0.09771,-0.94007 -0.08874,-1.87283 -0.19222,-2.80406 -0.117702,-1.21518 -0.09665,-2.43933 -0.07305,-3.65848 0.04639,-1.1331 0.07449,-2.26664 0.09465,-3.40046 0.01918,-1.02576 -1.66e-4,-2.05144 -2.48e-4,-3.07711 -0.0075,-1.15595 0.24752,-2.27895 0.432588,-3.41173 0.19598,-1.10227 0.237511,-2.22271 0.405696,-3.32867 0.163269,-1.25686 0.442781,-2.48879 0.839698,-3.69143 0.468717,-1.18843 0.759137,-2.42975 1.051065,-3.66963 0.274103,-1.07506 0.53725,-2.15284 0.810601,-3.22804 0.347351,-1.30721 0.723392,-2.60394 0.988563,-3.931014 0.308846,-1.416293 0.473821,-2.852618 0.48909,-4.300783 -0.01886,-1.396619 -0.158419,-2.787428 -0.277513,-4.177938 -0.132443,-1.713526 -0.110342,-3.432974 -0.0981,-5.149953 0.05052,-1.625811 0.07682,-3.250745 0.06375,-4.877249 -0.08719,-1.631469 0.07043,-3.258368 0.133283,-4.886384 0.03955,-1.283964 0.270595,-2.539304 0.517017,-3.795416 0.267468,-1.389184 0.66565,-2.744753 1.0955,-4.090723 0.370448,-1.284906 0.917384,-2.507734 1.451414,-3.730519 0.443233,-0.827688 0.526082,-1.716635 0.6077,-2.630331 0.06191,-1.254374 0.216268,-2.499469 0.401812,-3.740793 0.241456,-1.465469 0.565325,-2.919799 0.593514,-4.408601 -0.04603,-1.55004 -0.2091,-3.09036 -0.241205,-4.64112 -0.0285,-1.947614 0.09247,-3.88978 0.251822,-5.829427 0.125233,-1.591966 0.419934,-3.163644 0.561761,-4.753488 0.07787,-1.045467 0.0011,-2.092574 -0.03617,-3.137847 -0.113284,-1.444993 -0.08076,-2.882067 0.120099,-4.31645 0.227857,-1.381048 0.71737,-2.688889 1.23824,-3.980383 0.420425,-0.975765 0.682709,-2.00696 0.927449,-3.037639 0.255455,-1.096431 0.360772,-2.217981 0.492995,-3.333486 0.130593,-1.174652 0.274003,-2.347838 0.416899,-3.521056 0.153011,-1.242494 0.354473,-2.475889 0.428776,-3.726569 0.0075,-1.350703 0.03298,-2.70092 0.05749,-4.0513925 0.03242,-1.4131634 0.0472,-2.8253849 0.222782,-4.2292296 0.207367,-1.3125159 0.736314,-2.530012 1.277464,-3.732014 0.38246,-0.767207 0.738531,-1.54373263 1.026205,-2.35172514 0.279087,-0.67661106 0.343259,-1.38716016 0.390757,-2.10866826 0.03932,-1.1882385 0.352095,-2.3243302 0.800524,-3.4170382 0.24566,-0.4946544 0.471887,-0.9841574 0.549518,-1.5324455 0.02537,-0.519467 0.132268,-1.0307187 0.23449,-1.5394675 0.104394,-0.5486426 0.17399,-1.1026753 0.284197,-1.6502483 0.106471,-0.382424 0.177696,-0.772443 0.235397,-1.164746 0.04022,-0.245642 0.112085,-0.484085 0.156506,-0.728065 0.0021,-0.212302 -0.05999,-0.430998 -0.08447,-0.64552 -0.0057,-0.413842 0.02384,-0.841494 0.169561,-1.232611 0.245112,0.127428 -0.270846,0.946171 0.403037,-0.367835 0.340524,-1.183439 2.014162,-0.701865 1.673638,0.481576 v 0 c 0.478088,-0.858067 0.272039,-0.376089 0.377946,0.101405 0.01543,0.32222 -0.0029,0.65142 -0.102298,0.960448 -0.02286,0.26177 -0.05778,0.514868 -0.0061,0.776972 -0.0077,0.28888 -0.04237,0.571664 -0.09172,0.856351 -0.02665,0.457425 -0.03361,0.916085 -0.09115,1.370997 -0.09699,0.5833819 -0.212235,1.162322 -0.357047,1.735936 -0.101754,0.3811323 -0.237932,0.7613386 -0.214421,1.1602535 0.01781,0.7545229 -0.04446,1.5038176 -0.273601,2.2281118 -0.258923,0.9788869 -0.552619,1.9493653 -0.766847,2.9394758 -0.177609,0.8461878 -0.271936,1.7094623 -0.520832,2.53970892 -0.266766,0.85095818 -0.614476,1.67099718 -0.892659,2.51824858 -0.340598,1.0400347 -0.71047,2.0748651 -0.91422,3.1532274 -0.176065,1.3185616 -0.100153,2.6443384 -0.154356,3.9709275 -0.06757,1.3760745 -0.09708,2.7514685 -0.111519,4.1290555 -0.08507,1.312251 -0.315015,2.596552 -0.569711,3.885459 -0.154175,1.187127 -0.162378,2.386717 -0.345101,3.570965 -0.194522,1.182256 -0.380463,2.36632 -0.599644,3.544234 -0.254037,1.155629 -0.597977,2.285129 -1.007854,3.39517 -0.390898,1.112938 -0.702542,2.259833 -0.815078,3.437478 -0.18039,1.278781 -0.397197,2.557314 -0.392051,3.853 0.0072,1.079097 0.07697,2.15302 0.177845,3.227429 0.09328,1.657155 0.06203,3.312647 -0.08272,4.966941 -0.134297,1.864635 -0.316679,3.725148 -0.476173,5.587569 -0.04007,1.580211 0.05708,3.152936 0.07208,4.73257 -0.07462,1.662877 -0.262723,3.305133 -0.767558,4.900462 -0.334421,1.142283 -0.637847,2.292067 -0.81978,3.470148 -0.189024,1.078523 -0.437804,2.150919 -0.778978,3.19178 -0.444858,1.20787 -0.904767,2.409785 -1.357794,3.614626 -0.450792,1.277765 -0.885132,2.558722 -1.353357,3.830053 -0.325568,1.103299 -0.451946,2.198362 -0.320241,3.350887 -0.01953,1.608706 -0.02228,3.217037 -0.07653,4.825367 -0.0068,1.637155 0.0075,3.273994 0.0037,4.911106 -0.03012,1.671698 -0.04999,3.343757 -0.02984,5.015722 0.01053,1.414928 0.02694,2.829616 0.167656,4.239014 0.07754,1.633908 0.02712,3.275729 -0.401865,4.865581 -0.360521,1.34547 -0.871178,2.63071 -1.363832,3.9318 -0.306062,1.01932 -0.490305,2.05771 -0.626837,3.11292 -0.223639,1.3545 -0.591394,2.67968 -1.123868,3.9472 -0.38961,1.06731 -0.743276,2.14297 -0.850109,3.28212 -0.140706,1.13109 -0.337228,2.25261 -0.57608,3.36681 -0.185415,1.04779 -0.309915,2.10658 -0.448924,3.16133 -0.07301,0.9988 -0.03372,1.99877 -0.0063,2.99899 0.0396,1.1547 0.0736,2.31011 0.05497,3.4656 -0.03652,1.15531 -0.117054,2.30936 -0.107629,3.46583 0.0426,0.96501 0.187624,1.91944 0.296902,2.87861 0.150648,1.29514 0.278426,2.59279 0.141279,3.89808 -0.09576,1.28275 -0.27092,2.55873 -0.419504,3.8362 -0.184082,0.98136 -0.40317,1.94868 -0.760566,2.88366 -0.20179,0.71107 -0.264944,1.4424 -0.23558,2.18139 0.01498,1.13262 0.0067,2.2647 -0.03917,3.39672 -0.0013,1.02158 0.118044,2.0307 0.368565,3.02294 0.281347,1.43854 0.437369,2.9038 0.284718,4.36917 -0.09361,1.10736 -0.198361,2.22197 -0.02511,3.32785 0.07688,0.69747 0.08959,1.39023 0.07074,2.09092 0.05465,0.83169 0.213085,1.65725 0.184042,2.49471 -0.0076,1.1227 -0.05515,2.24411 -0.06014,3.36682 0.08059,1.05368 0.360204,2.06923 0.707062,3.06557 0.374774,1.31924 0.762582,2.63411 0.958339,3.99531 0.185619,1.04638 0.430165,2.06783 0.844823,3.04999 0.267724,1.05214 0.505103,2.10777 0.362892,3.20241 -0.08245,0.83568 -0.141449,1.67402 -0.184328,2.51248 -0.0035,0.68993 0.133803,1.37181 0.0921,2.06272 -0.04809,1.11384 -0.184007,2.23065 -0.02992,3.34274 0.243559,1.23153 0.745855,2.33183 1.358114,3.42459 0.549275,1.23949 0.968724,2.53248 1.1265,3.88524 0.128178,1.28593 0.193165,2.58728 0.582084,3.82987 0.419809,1.39576 0.977516,2.73998 1.438253,4.12184 0.543433,1.85367 0.943372,3.74745 1.153108,5.66952 0.162184,1.32318 0.355338,2.638 0.572886,3.9525 0.08153,2.29841 -0.298535,4.63725 -1.609749,6.57773 -0.210836,0.9384 -1.537925,0.64024 -1.327089,-0.29816 z"
       inkscape:connector-curvature="0" />
    <path
       style="fill:#ff9b2d;fill-opacity:1;stroke:none;stroke-width:1.5205245;stroke-opacity:1"
       d="m 321.33607,456.74963 c -4.32173,15.86594 -4.99344,33.17735 -9.74798,49.02699 -4.7343,16.42844 -10.12079,33.08721 -8.97051,50.33572 -0.74834,24.92073 -6.53393,49.35387 -11.71279,73.96817 -4.84665,36.2718 -0.71186,73.256 -7.51353,109.21939 -4.27147,19.43444 -12.12818,38.00957 -17.1935,57.05529 -0.70088,32.06973 1.82548,64.36626 -1.20128,96.18506 -5.67698,18.36776 -10.34859,36.64931 -14.96469,55.29126 -6.87685,35.86573 0.0663,72.64879 -5.09911,108.49479 -6.10768,21.9967 1.33445,44.5971 0.56723,66.9209 -0.42936,21.1593 2.61616,42.0885 8.58714,62.3659 4.95494,20.701 -2.3771,43.9515 8.48312,63.5495 4.15804,14.0711 5.94067,28.7553 10.8842,42.6564 4.81984,13.9942 3.35378,29.9314 9.61319,43.2859 8.74455,4.9514 13.12264,-7.958 17.31972,-13.456 11.792,-15.8986 6.84706,-36.2785 6.43875,-54.4804 -0.55014,-19.9345 -4.50973,-39.6197 -12.83565,-57.789 -7.89572,-26.6749 -4.40806,-54.9403 -9.60035,-82.162 -5.6306,-27.5462 -5.23043,-55.7477 -2.46458,-83.5823 2.2531,-51.46389 0.89563,-102.97529 7.41542,-154.14041 5.00305,-68.76584 3.77611,-138.32556 22.42064,-205.21887 5.62921,-30.36217 4.90774,-62.16407 12.88403,-91.70588 6.33844,-23.89782 12.47875,-48.21037 16.72463,-72.75428 3.77887,-20.11469 14.5788,-38.14854 17.02571,-58.60256 -1.98778,-9.14676 -14.12023,-4.61682 -20.80327,-5.88312 -5.38409,0.51905 -11.32506,-1.29079 -16.25654,1.41955 z"
       id="path889"
       inkscape:connector-curvature="0"
       transform="matrix(0.26458333,0,0,0.26458333,0,-135.46666)" />
    <path
       style="fill:#ff9b2d;fill-opacity:1;stroke:none;stroke-width:0.26458332;stroke-opacity:1"
       id="path891"
       d="m 88.963922,-71.056402 c -0.474715,-1.270899 -0.814744,-2.749137 -0.560948,-4.112728 0.230013,0.146127 0.299138,0.493636 0.548267,0.600271 0.451755,0.193365 0.957707,0.221909 1.440619,0.312849 0.01498,0.0028 0.04307,-0.03624 0.02782,-0.03632 -1.558595,-0.0082 -0.833517,0.220747 -1.807832,-0.211225 -0.556311,-0.365874 -1.384726,-1.44604 -0.799635,-2.131518 0.06739,-0.07896 0.192718,-0.07723 0.289076,-0.115847 0.609616,-0.08286 0.301133,-0.05822 0.925571,-0.07236 0.07447,-0.376671 0.60716,-0.271359 0.532693,0.105312 v 0 c 0.609386,0.04403 0.308481,0.01363 0.902814,0.09028 0.09234,0.02606 0.182301,0.09347 0.277014,0.07815 0.424339,-0.06861 0.02249,-0.8851 -0.247994,-0.896067 -0.680387,-0.326263 0.0096,-0.05458 -1.324102,-0.102915 -0.09526,-0.0034 0.18239,-0.08227 0.277032,-0.07091 1.532617,0.183981 1.494009,0.0055 2.324679,0.910741 0.13934,0.15185 0.245563,0.331052 0.368345,0.496578 0.84599,1.457052 1.200759,3.139133 0.834702,4.80537 0.247719,2.834172 -3.760406,3.184496 -4.008125,0.350324 z"
       inkscape:connector-curvature="0" />
    <path
       style="fill:#ff9b2d;fill-opacity:1;stroke:none;stroke-width:0.26458332;stroke-opacity:1"
       id="path893"
       d="m 78.161286,-75.563446 c -0.460192,2.411227 -1.736973,4.549081 -2.868522,6.694275 -0.368803,0.51457 -0.486717,1.245907 -0.949764,1.70302 -0.122875,0.121298 -0.282348,0.198811 -0.423521,0.298215 0.132913,0.939895 -1.196301,1.127863 -1.329214,0.187968 v 0 c -0.187598,-0.175581 -0.424958,-0.309891 -0.56279,-0.526741 -0.490471,-0.771657 -0.25771,-1.829633 -0.187682,-2.659964 0.538175,-2.586475 1.543992,-5.05903 3.427362,-6.97212 0.901808,-2.04646 3.79594,-0.771113 2.894131,1.275347 z"
       inkscape:connector-curvature="0" />
    <path
       style="fill:#ff9b2d;fill-opacity:1;stroke:none;stroke-width:0.26458332;stroke-opacity:1"
       id="path897"
       d="m 46.860057,210.74841 c -1.114904,-2.63451 -0.834398,-5.54832 -0.57313,-8.32369 0.339371,-2.03213 0.701257,-4.06024 0.977871,-6.10222 0.2164,-2.01808 0.3306,-4.04169 0.610328,-6.0529 0.238683,-1.55273 0.615286,-3.07834 0.918038,-4.61877 0.249939,-1.5915 0.505455,-3.18069 0.801857,-4.76441 0.383095,-1.84208 0.97087,-3.63201 1.455854,-5.44806 0.366455,-1.2309 0.187801,-2.45245 0.0052,-3.69245 -0.245213,-1.42666 -0.259432,-2.87366 -0.195173,-4.31519 0.08671,-1.15666 0.143137,-2.31516 0.215355,-3.47271 0.08775,-1.02624 0.08528,-2.05579 0.04986,-3.08412 -0.06892,-1.22854 -0.111215,-2.45893 -0.06245,-3.68877 0.08044,-1.39017 0.603977,-2.68766 1.075012,-3.98092 0.3721,-1.02885 0.669666,-2.08346 0.755309,-3.1765 -0.0035,-1.08207 -0.0966,-2.15993 -0.09854,-3.24213 0.01262,-1.30101 0.10196,-2.59905 0.190527,-3.89662 0.05562,-1.12805 0.05242,-2.25634 0.145481,-3.38233 0.08991,-0.83442 0.112188,-1.67201 0.09333,-2.51021 -0.05594,-1.00126 -0.07634,-2.00297 -0.08372,-3.00553 0.01487,-0.9865 0.03202,-1.97287 0.04346,-2.95942 -0.0299,-1.03264 0.01675,-2.06483 0.05201,-3.09672 0.03873,-1.13686 0.01606,-2.27552 -0.03964,-3.41139 -0.09969,-1.79296 -0.101897,-3.58785 -0.07929,-5.38279 0.03627,-1.47611 0.175371,-2.94653 0.305329,-4.41649 0.05152,-0.99932 0.315762,-1.96901 0.57584,-2.93008 0.353147,-1.38668 0.868087,-2.72574 1.441989,-4.03423 0.460682,-0.97031 1.049999,-1.87109 1.411494,-2.88505 0.230357,-0.99137 0.302816,-2.00848 0.495964,-3.00995 0.234828,-1.07439 0.489273,-2.148619 0.480973,-3.253167 -0.08143,-1.209328 -0.07659,-2.409894 0.02556,-3.617645 0.123333,-1.56383 0.402087,-3.110127 0.680582,-4.652272 0.257543,-1.127778 0.378645,-2.258055 0.341088,-3.411852 -0.123759,-1.230416 -0.213067,-2.464319 -0.212741,-3.701185 0.0049,-1.069149 0.11924,-2.132571 0.182554,-3.198691 0.04824,-0.944917 -0.04376,-1.887286 -0.03112,-2.832221 0.05774,-1.349285 0.343318,-2.668919 0.648297,-3.979403 0.253707,-1.050872 0.500748,-2.103183 0.758712,-3.153031 0.218646,-0.681956 0.174924,-1.3745 0.122462,-2.075339 -0.09187,-0.966517 -0.125868,-1.937861 -0.137049,-2.908408 0.03059,-1.077733 0.202822,-2.142792 0.267454,-3.218802 0.03359,-0.99224 0.04853,-1.979758 -0.210875,-2.943148 -0.340874,-1.034635 -0.748348,-2.041859 -1.031672,-3.094972 -0.265803,-0.957392 -0.203345,-1.935392 -0.07905,-2.906982 0.05247,-0.825093 -0.120092,-1.641917 -0.201515,-2.460527 -0.0897,-1.186897 -0.112162,-2.369942 0.01138,-3.554103 0.138679,-1.040109 0.531344,-2.022753 0.676421,-3.060327 0.02072,-0.811662 -0.07788,-1.606616 -0.02281,-2.420247 0.151236,-1.290071 0.762485,-2.44322 1.314043,-3.597034 0.436798,-0.945639 0.69819,-1.955644 0.969042,-2.957573 0.253992,-0.927836 0.341127,-1.886913 0.510153,-2.831248 0.187577,-0.883748 0.403596,-1.761083 0.588251,-2.645709 0.184319,-0.896147 0.370872,-1.788832 0.612,-2.671892 0.143147,-0.499883 0.301768,-0.990532 0.278297,-1.513933 -0.09745,-0.694264 -0.165357,-1.391097 -0.200274,-2.091319 -0.02146,-0.876943 0.02183,-1.753246 0.05122,-2.629414 0.04475,-0.782904 0.02212,-1.557681 -0.07102,-2.335117 -0.184661,-0.958585 -0.206311,-1.926265 -0.166455,-2.897849 0.03996,-0.547232 0.05701,-1.094541 0.03066,-1.642737 -0.08464,-0.856361 -0.183293,-1.711134 -0.234871,-2.570284 -0.03615,-1.020458 -0.03979,-2.0426496 0.02154,-3.0620891 0.05246,-0.5107967 0.13272,-1.0144681 0.127651,-1.5287625 C 63.42684,5.8938103 63.38437,5.341363 63.36567,4.7876483 63.34392,3.9785048 63.591285,3.2030746 63.748241,2.4186115 c 0.08739,-0.6653848 0.153818,-1.3330344 0.231426,-1.99955417 0.04813,-0.64780583 0.151736,-1.28009913 0.318286,-1.90766963 0.208706,-0.7473976 0.574836,-1.4323986 0.90864,-2.1278717 0.20956,-0.3421274 0.211682,-0.6980979 0.210325,-1.083138 -0.0016,-0.6588152 0.04652,-1.3181251 0.127688,-1.9717041 0.05197,-0.523883 0.221057,-1.0210985 0.348538,-1.5279396 0.0077,-0.4069901 -0.0069,-0.8165571 0.01752,-1.2276455 0.01807,-0.3358409 0.111302,-0.6601008 0.109135,-0.9968388 -0.01408,-0.297172 -0.01987,-0.598763 -0.06736,-0.892643 0.0026,-0.166582 0.04507,-0.336826 0.0401,-0.50214 -0.0084,-0.06869 -0.03522,-0.131511 -0.05509,-0.199583 -0.06888,-0.197085 0.01431,-0.02133 -0.07803,0.02732 -0.05764,0.03036 -0.188248,-0.131434 -0.201668,-0.156287 -0.01614,0.02564 -0.05956,-0.09538 -0.04796,-0.08314 0.283605,0.299239 1.035376,0.9539 -0.02791,0.159544 -0.117639,-0.182615 -0.264163,-0.349581 -0.352922,-0.547846 -0.07788,-0.173969 -0.117293,-0.365099 -0.140476,-0.554289 -0.01974,-0.161009 0.0249,-0.643662 0.05245,-0.483804 1.166104,5.8082764 2.061898,1.670683 2.196963,0.836486 -0.835396,1.283562 -2.650628,0.102134 -1.815232,-1.181428 v 0 c 0.128272,-0.351997 0.01249,-1.097436 0.384817,-1.055989 2.379404,0.264848 2.353287,0.510667 2.432839,1.530971 0.02742,0.761823 0.03398,-0.54488 -0.384032,-0.811757 -1.097246,-0.805328 0.742106,0.5046 0.791551,0.925182 0.199782,0.419727 0.346668,0.920908 0.193318,1.381656 -0.02816,0.07855 -0.05666,0.143754 -0.05102,0.230008 -0.0054,0.16429 0.01963,0.331613 0.02593,0.49666 -0.05152,0.258326 -0.05074,0.528106 -0.03435,0.790406 0.02627,0.421904 0.09695,0.8423006 0.06611,1.2661234 -0.041,0.5097383 -0.115634,1.0159841 -0.185193,1.5225024 -0.06747,0.466807 -0.02588,0.947801 -0.107188,1.415378 -0.08271,0.5418693 -0.215527,1.0796931 -0.245851,1.6273039 -0.01281,0.689483 -0.0048,1.3797147 -0.227684,2.0441814 -0.242687,0.6955022 -0.578617,1.3441203 -0.975088,1.96489631 -0.194074,0.41222876 -0.215466,0.79237415 -0.169621,1.25069333 -0.0069,0.81209886 -0.01291,1.62570316 -0.204978,2.42092426 -0.144825,0.5931694 -0.354992,1.1777054 -0.400132,1.7895702 -0.01852,0.555326 -0.06082,1.1093529 -0.08324,1.6645228 -0.0068,0.5106141 0.07341,1.0101448 0.129315,1.516851 0.06764,1.0256625 0.06999,2.05482 0.02722,3.081748 -0.05782,0.848251 -0.16719,1.690663 -0.272069,2.534128 -0.01876,0.548148 0.09728,1.083358 0.153713,1.626648 0.07954,0.926539 0.231661,1.846321 0.261374,2.777405 0.01161,0.838608 0.0108,1.677326 0.03322,2.515772 0.01447,0.867818 0.01926,1.735696 -0.01913,2.603085 -0.03202,0.640371 -0.08024,1.283441 1.38e-4,1.922555 0.07001,0.751253 0.07243,1.505252 -0.09664,2.245625 -0.166598,0.918107 -0.325787,1.840672 -0.553138,2.745488 -0.225938,0.775849 -0.491101,1.54726 -0.544653,2.359785 -0.09381,1.079457 -0.208534,2.159232 -0.537638,3.197788 -0.327142,1.121915 -0.634437,2.256401 -1.069949,3.341219 -0.42056,0.9735 -0.943231,1.896272 -1.357193,2.872727 -0.237398,0.72825 -0.0287,1.438529 0.0092,2.186437 -0.0026,1.117476 -0.186735,2.204305 -0.457343,3.287535 -0.184901,0.985383 -0.236448,1.978925 -0.120248,2.978394 0.06859,0.985618 0.144317,1.977292 0.003,2.960777 -0.0758,0.644904 -0.06494,1.235848 0.211492,1.843344 0.432737,1.124456 1.023282,2.198545 1.239309,3.395279 0.145118,1.183436 0.184996,2.377485 0.143364,3.569319 -0.05951,1.032394 -0.221803,2.052196 -0.295394,3.082891 -0.02217,0.914405 -0.03925,1.828519 0.01992,2.742044 0.04585,0.908349 0.06328,1.821481 -0.08143,2.723073 -0.166293,1.075412 -0.295701,2.156624 -0.496321,3.226686 -0.229187,1.197417 -0.525317,2.377533 -0.776232,3.569777 -0.115538,0.891796 -0.101843,1.796814 -0.08138,2.694636 0.04188,1.057171 0.100317,2.113893 0.09447,3.172385 0.0035,1.195443 -0.02885,2.391114 0.03382,3.585938 0.07602,1.319649 0.0926,2.64609 -0.109051,3.95696 -0.198062,1.547281 -0.447818,3.088489 -0.838197,4.600482 -0.223147,1.069491 -0.40435,2.141215 -0.322009,3.239543 -0.0039,1.294143 -0.140811,2.561383 -0.54783,3.798333 -0.283562,1.02753 -0.542711,2.0589 -0.766384,3.10131 -0.287766,1.11312 -0.661766,2.19605 -1.114902,3.25346 -0.543351,1.28132 -1.045207,2.58114 -1.703234,3.81039 -0.334184,0.6838 -0.614187,1.32712 -0.490799,2.10821 0.191616,1.50181 0.362323,3.01014 0.330933,4.5273 -0.06395,1.80002 -0.224266,3.59126 -0.410676,5.38249 -0.124933,1.14751 -0.10905,2.29574 -0.154882,3.44824 -0.06026,0.99944 -0.16407,1.99683 -0.14769,2.99955 0.0059,0.98137 0.01262,1.9626 0.03331,2.94381 0.0016,1.00692 0.0058,2.01385 -0.03508,3.0203 -0.0222,0.85367 -0.05516,1.7077 -0.04791,2.56172 0.03942,1.14644 0.152254,2.29108 0.105669,3.43958 -0.04047,1.28024 -0.200112,2.54961 -0.276892,3.82765 -0.0497,1.0958 -0.02598,2.19305 0.02236,3.28861 -0.02066,1.3362 -0.224192,2.65636 -0.709428,3.90919 -0.411406,1.04841 -0.957733,2.07688 -1.021037,3.22099 -0.01889,1.19885 0.0011,2.3981 -0.03263,3.59682 -0.0087,1.07916 -0.0064,2.15874 -0.0648,3.23678 -0.05962,1.12559 -0.07627,2.25227 -0.05891,3.3795 0.02657,1.34969 0.110088,2.6952 0.228807,4.04 0.09192,1.47624 0.356521,2.95339 0.177615,4.43392 -0.276397,1.8855 -0.89915,3.66752 -1.415238,5.49687 -0.38793,1.54009 -0.763278,3.08407 -1.114867,4.63254 -0.257858,1.48847 -0.312219,3.0018 -0.450308,4.50435 -0.181046,2.05279 -0.359873,4.10802 -0.714046,6.14002 -0.331391,1.96615 -0.712222,3.9306 -0.727245,5.93305 -0.170722,2.70533 0.04876,5.55688 -0.992169,8.10543 0,1.21761 -1.721956,1.21761 -1.721956,0 z"
       inkscape:connector-curvature="0" />
    <path
       style="fill:#ff9b2d;fill-opacity:1;stroke:none;stroke-width:0.26458332;stroke-opacity:1"
       id="path899"
       d="m 49.082092,208.18385 c 0.331845,1.09241 0.694756,3.34349 -0.145553,4.29125 -2.73839,1.06257 -1.644264,-0.79674 -1.03673,-0.85616 0.235707,-0.023 0.468355,0.0707 0.702532,0.10607 0.44309,0.15478 0.224182,0.78142 -0.218908,0.62661 v 0 c 0.143237,0.0262 0.285522,0.0582 0.429715,0.0785 0.0403,0.006 0.101478,-0.0361 0.122079,0 0.302249,0.51498 -4.096261,2.60747 -1.78489,0.15261 -0.860131,-1.25058 -0.566304,-3.03662 -0.180507,-4.3978 0,-1.4936 2.112262,-1.4936 2.112262,0 z"
       inkscape:connector-curvature="0" />
    <path
       style="fill:#ff9b2d;fill-opacity:1;stroke:none;stroke-width:1.5205245;stroke-opacity:1"
       d="m 219.85813,689.53815 c -8.18279,4.49046 -6.1795,16.52157 -8.90042,24.28384 -4.44383,29.66653 -11.25387,59.21022 -9.46166,89.38703 -1.27937,37.48048 3.02264,75.44707 -5.84665,112.26796 -1.87924,15.39787 -6.21783,31.54354 -3.04489,46.90919 4.30352,6.94607 12.98948,0.24854 12.6156,-6.22465 0.87791,-15.92783 5.90752,-31.09039 12.71954,-45.37222 6.08766,-18.86656 3.96408,-38.94746 7.37692,-58.27588 1.49477,-26.71516 1.16769,-53.59008 5.96168,-80.00158 1.82523,-17.18805 2.6851,-34.81677 -2.95033,-51.41093 -2.42802,-9.74349 0.95122,-20.53003 -3.22517,-29.73041 -1.27992,-1.63009 -3.27602,-2.11615 -5.24462,-1.83235 z"
       id="path901"
       inkscape:connector-curvature="0"
       transform="matrix(0.26458333,0,0,0.26458333,0,-135.46666)" />
    <path
       style="fill:#ff9b2d;fill-opacity:1;stroke:none;stroke-width:1.5205245;stroke-opacity:1"
       d="m 231.67783,453.83013 c -7.00623,-0.91785 -9.79474,7.18942 -6.57805,12.4879 4.99471,32.8039 3.78347,66.10986 3.78185,99.06451 -0.11479,30.63024 -4.49549,60.77684 -8.50973,90.90008 2.37129,9.15925 14.26084,3.86686 14.62614,-3.67956 8.1266,-23.78812 11.74098,-48.96377 9.78459,-74.0711 0.24807,-24.60408 -3.32378,-50.13064 3.618,-74.15627 4.22174,-12.93827 6.13046,-27.70775 2.52134,-41.0007 -2.92808,-7.85287 -11.75935,-9.80886 -19.24414,-9.54486 z"
       id="path903"
       inkscape:connector-curvature="0"
       transform="matrix(0.26458333,0,0,0.26458333,0,-135.46666)" />
    <path
       style="fill:#ff9b2d;fill-opacity:1;stroke:none;stroke-width:1.5205245;stroke-opacity:1"
       d="m 197.29972,972.49528 c -8.78896,2.23389 -4.9416,14.03049 -6.74436,20.67557 -3.2033,47.60895 -8.46841,95.08435 -12.41662,142.72435 -5.25945,38.6971 -13.78245,76.89 -18.12397,115.7422 -1.84756,17.2531 -5.76271,34.4286 -7.67149,51.5274 3.83815,6.8865 13.6882,6.5459 20.07864,10.1358 11.16432,0.8344 5.65802,-14.0394 6.94037,-20.8448 1.66564,-38.366 7.81215,-76.9458 16.7614,-114.3927 2.73856,-26.4286 -2.08073,-53.3023 2.96681,-79.3257 8.43268,-26.2884 4.596,-54.445 6.33749,-81.5797 -0.58166,-13.7249 1.95659,-28.07351 -1.52052,-41.44616 -1.35317,-2.17626 -4.12216,-3.27073 -6.60775,-3.21626 z"
       id="path905"
       inkscape:connector-curvature="0"
       transform="matrix(0.26458333,0,0,0.26458333,0,-135.46666)" />
    <path
       style="fill:#ff9b2d;fill-opacity:1;stroke:none;stroke-width:1.5205245;stroke-opacity:1"
       d="m 276.8867,223.13509 c -8.33098,1.94964 -16.42637,6.09733 -19.44014,14.67366 -2.44999,6.92295 -11.44976,14.90264 -6.3761,22.21094 5.89147,3.03883 12.83762,-0.67322 19.17583,-0.41577 8.8876,-4.26556 4.43943,-16.28793 9.61613,-23.43746 3.40573,-4.5999 6.1358,-13.91499 -2.97572,-13.03137 z"
       id="path911"
       inkscape:connector-curvature="0"
       transform="matrix(0.26458333,0,0,0.26458333,0,-135.46666)" />
    <path
       style="fill:#ff9b2d;fill-opacity:1;stroke:none;stroke-width:1.5205245;stroke-opacity:1"
       d="m 346.9021,221.77791 c -4.63856,6.34804 3.83048,13.9637 10e-4,21.30435 -3.19799,10.95937 10.1597,8.91434 16.7659,7.53512 5.90722,-1.03846 18.65816,0.0703 16.3783,-9.34291 -4.72951,-7.92441 -8.72912,-19.92904 -19.86515,-19.15676 -4.4388,-0.32411 -8.98571,-2.19597 -13.2805,-0.3398 z"
       id="path913"
       inkscape:connector-curvature="0"
       transform="matrix(0.26458333,0,0,0.26458333,0,-135.46666)" />
    <path
       style="fill:#ff9b2d;fill-opacity:1;stroke:none;stroke-width:0.26879328;stroke-opacity:1"
       d="m 223.17644,655.87297 c -3.07027,0.0859 -5.03303,3.03136 -5.17308,5.8842 -1.57298,9.21484 -3.2146,18.43289 -4.32184,27.71549 -0.35337,3.84341 4.21296,6.78093 7.57137,4.89865 3.06772,0.74583 6.20891,-1.55717 6.45359,-4.69707 0.93671,-4.91047 2.83176,-9.69226 2.51056,-14.77469 0.18799,-3.38838 -0.51234,-6.92455 1.01412,-10.08789 1.18272,-2.48494 1.45266,-6.00359 -1.15937,-7.66468 -1.70818,-1.46026 -4.01236,-0.63767 -6.00655,-1.25668 -0.29578,-0.027 -0.59224,-0.0256 -0.8888,-0.0173 z"
       id="path915"
       inkscape:connector-curvature="0"
       transform="matrix(0.26458333,0,0,0.26458333,0,-135.46666)" />
    <path
       style="fill:#ff9b2d;fill-opacity:1;stroke:none;stroke-width:0.13439664;stroke-opacity:1"
       d="m 199.98001,959.57134 c -1.00995,0.0195 -1.87447,0.74157 -2.85304,0.77095 -2.68596,-0.9648 -5.89411,0.77763 -6.55463,3.55175 -0.47065,2.3944 -0.17963,4.86396 -0.25233,7.29026 -0.0569,1.92207 0.0193,4.12203 1.59471,5.47721 1.55114,1.60769 4.09331,1.7498 6.04094,0.81189 1.5498,0.40017 3.24921,0.80391 4.81184,0.0466 2.02901,-0.90746 3.13251,-3.17509 2.92069,-5.34398 -0.0843,-2.84539 0.18677,-5.7187 -0.19293,-8.54574 -0.49726,-2.51004 -2.96942,-4.3326 -5.51525,-4.05894 z"
       id="path917"
       inkscape:connector-curvature="0"
       transform="matrix(0.26458333,0,0,0.26458333,0,-135.46666)" />
    <path
       style="fill:#cccccc;fill-opacity:1;stroke:none;stroke-width:0.26879328;stroke-opacity:1"
       d="m 372.31581,431.99655 c -3.38508,0.17753 -7.13913,1.34963 -9.20722,4.19202 -2.15506,3.17206 0.37096,7.89765 4.17837,7.96195 1.98597,0.3376 3.66871,1.34746 5.44727,2.17397 2.59501,0.49312 5.57606,1.01461 8.01949,-0.23302 2.90909,-1.50432 3.11346,-5.39284 1.52372,-7.9447 -1.88317,-3.74467 -5.59448,-6.58821 -9.96163,-6.15022 z m -3.52896,9.21089 c -0.0643,-0.95622 0.0903,-1.28133 0,0 z"
       id="path981"
       inkscape:connector-curvature="0"
       transform="matrix(0.26458333,0,0,0.26458333,0,-135.46666)" />
  </g>
  <g
     inkscape:label="lines"
     inkscape:groupmode="layer"
     id="layer1"
     transform="translate(0,109.40001)"
     style="display:inline"
     sodipodi:insensitive="true">
    <path
       style="fill:#000000;fill-opacity:1;stroke:none;stroke-width:0.99999994;stroke-opacity:1"
       d="m 185.48828,346.64258 c -1.11594,0.10253 -2.189,0.83256 -2.60937,2.35742 -8.74999,11.54166 -10.27097,26.44635 -12.21875,40.36523 -1.56764,12.62992 -0.67252,25.37552 0.14843,38.02539 0.41212,8.98125 1.47315,17.87448 6.51953,25.49219 2.90684,3.44123 6.89371,4.44201 11.125,5.03907 5.75781,2.26767 11.54172,2.8689 17.68946,3.25195 7.79414,0.21776 15.47743,-1.21532 23.125,-2.51172 5.61082,-0.62228 3.96319,-1.06028 10.43945,0.24219 10.32098,3.01974 20.939,3.52086 31.61133,3.95898 12.59762,0.54574 25.19461,0.23567 37.74805,-0.89453 9.83195,-1.37075 19.57008,-2.77028 29.51171,-2.60156 10.31672,0.5074 20.61566,1.06312 30.9004,2.08593 9.78584,1.36703 19.59321,2.45603 29.47656,2.62305 5.22009,0.58887 10.3686,-0.85139 15.57422,-0.56445 0.31377,0.0173 -1.23268,0.10737 -0.92578,0.17578 2.02465,0.45151 4.12305,0.46313 6.17382,0.77539 5.88771,1.28731 6.844,0.476 12.40039,-2.10937 2.85691,1.71058 5.27676,-2.32849 2.41993,-4.03907 -1.436,-6.73759 -1.24046,-6.26451 -7.68164,-8.94531 -2.91863,-0.84633 -5.4385,-1.7417 -8.50782,-1.95898 -5.19957,-0.36812 -10.63402,-0.17087 -15.85937,0.14453 -0.29314,0.0179 0.58561,0.027 0.8789,0.041 -9.16297,-0.14197 -17.74444,-3.21311 -26.65234,-5.07617 -14.4415,-2.54241 -29.07258,-2.96355 -43.66601,-1.27344 -9.82836,1.11248 -19.66479,2.24928 -29.58008,1.95508 -12.40377,-0.0758 -24.81708,-0.14639 -37.19141,0.88281 -2.57703,1.3831 -0.60946,0.50378 -6.28125,0.97071 -5.01396,0.41279 -10.03998,1.13639 -15.07812,0.65039 -6.91272,-0.77536 -13.79579,-1.78123 -20.78516,-1.35938 -7.29759,0.38524 -14.45622,1.64332 -21.67383,2.72266 0.19442,0.14533 0.81416,0.35894 0.58399,0.43555 -2.72879,0.90797 -8.02004,0.52266 -10.95118,0.24804 -1.34861,-0.13338 -3.24684,-0.41667 -4.57422,0.0996 -0.21339,0.0829 -0.32141,0.32389 -0.48242,0.48633 -0.0695,0.11221 -0.0877,0.2863 -0.20898,0.33789 -0.0847,0.0359 -0.15494,-0.10058 -0.23242,-0.15039 -0.74041,-2.11594 -0.60509,-4.28575 -0.59375,-6.51172 0.0238,-5.11521 0.26956,-10.22791 0.10742,-15.34375 -0.56519,-12.02472 -2.01329,-24.02094 -1.67578,-36.07422 0.48673,-6.96817 1.42521,-13.76015 2.5,-20.66211 0.59421,-3.81576 1.6961,-9.96613 1.85937,-13.89843 0.0752,-1.81646 -0.14662,-3.6327 -0.2207,-5.44922 0.70065,-2.54144 -1.28267,-4.11425 -3.14258,-3.94336 z"
       transform="matrix(0.26458333,0,0,0.26458333,0,-109.40001)"
       id="path884"
       inkscape:connector-curvature="0" />
    <path
       style="fill:#000000;fill-opacity:1;stroke:none;stroke-width:0.26458332;stroke-opacity:1"
       id="path888"
       d="m 109.51981,10.370018 c 3.54693,-0.164301 6.77421,1.43955 9.99284,2.699758 3.0638,1.167241 6.33966,1.51484 9.54492,2.090039 4.39338,0.694608 8.54499,2.23117 12.52276,4.175085 2.90325,1.420286 5.58056,3.232579 8.36258,4.863396 2.03549,1.212109 3.97642,2.538153 5.66139,4.207888 1.20177,1.22935 1.86153,2.834265 2.74773,4.278826 0.80909,1.144884 1.75665,2.180836 2.61025,3.290795 0.60018,0.716656 1.0896,1.511811 1.42017,2.385346 0.0544,0.286393 0.21731,0.63932 0.16688,0.944398 -0.008,0.04995 -0.0159,-0.103463 -0.0444,-0.145259 -0.26112,-0.381989 -0.54634,-0.746921 -0.8195,-1.12038 -0.86397,0.0064 -0.67667,-0.22686 -0.88926,0.120049 1.98765,-0.756939 3.05813,2.054042 1.07045,2.810981 v 0 c -0.49361,0.317317 -0.1243,0.131826 -1.23198,0.139112 -0.75626,-0.125544 -1.08876,-0.857302 -1.41677,-1.466098 -0.0331,-0.06143 0.0164,0.251727 -0.0365,0.206118 -0.63582,-0.408974 -1.13686,-1.014939 -1.6896,-1.51993 -1.12252,-1.171586 -2.1884,-2.412254 -2.96873,-3.84414 -0.63368,-1.161613 -1.24886,-2.320115 -2.34773,-3.117675 -1.68262,-1.27105 -3.5283,-2.295308 -5.40673,-3.247506 -2.7536,-1.473404 -5.61346,-2.728291 -8.5207,-3.867724 -3.83209,-1.450232 -7.7085,-2.77263 -11.6509,-3.894495 -3.26758,-0.935641 -6.55465,-1.80254 -9.80739,-2.787176 -3.07723,-1.037953 -6.30061,-2.051442 -8.84131,-4.148379 -2.15882,-1.111226 -0.58731,-4.1642547 1.57151,-3.053029 z"
       inkscape:connector-curvature="0" />
    <path
       style="fill:#000000;fill-opacity:1;stroke:none;stroke-width:0.26458332;stroke-opacity:1"
       id="path896"
       d="m 163.06603,38.191603 c 2.27489,1.823784 3.98587,4.26407 5.13329,6.929607 0.0798,0.22692 0.16835,0.450979 0.23958,0.680757 0.33798,1.090324 -0.0574,0.843531 -1.57266,0.210939 -0.10305,-0.04302 0.20828,-0.08063 0.31245,-0.120941 0.1093,-0.03166 0.4405,-0.11135 0.3279,-0.09497 -0.45297,0.06591 -0.92364,0.40686 -1.35139,0.24388 -0.24019,-0.09152 -0.0352,-0.513496 -0.0307,-0.770491 0.0259,-1.478859 0.23773,-2.959891 0.40968,-4.425661 0.5838,-4.415473 1.71746,-8.723022 2.87933,-13.013455 1.12927,-4.073152 1.73148,-8.267088 2.2675,-12.452059 0.63728,-5.5708757 0.23374,-11.1799947 0.027,-16.7629567 -0.23129,-4.570322 0.15158,-9.1328033 0.29078,-13.6969183 0.10234,-2.597637 -0.12748,-5.197152 -0.0238,-7.794508 0.0774,-1.937679 0.16716,-2.256581 0.42846,-4.142762 0.41577,-2.319641 1.18968,-4.557151 2.75919,-6.341893 0.0517,-0.05535 0.0913,-0.206901 0.15501,-0.166057 0.19553,0.125253 -0.17322,0.259672 -0.20793,0.209616 -0.0805,-0.116078 -0.11528,-0.258744 -0.15626,-0.393938 -0.18251,-0.602271 -0.21918,-0.955265 -0.32803,-1.594284 -0.30586,-1.599645 -0.16905,-3.198443 0.14181,-4.779413 0.22879,-0.81696 0.53295,-1.60408 0.45027,-2.46175 -0.22132,-1.07981 -0.0702,-2.1621 -0.0933,-3.24634 0.0957,-0.588 -0.12879,-1.17665 -0.21687,-1.7566 -0.21305,-0.74476 -0.40045,-1.51354 -0.36336,-2.29252 0.0905,-2.3531 1.91164,3.23689 0.13319,0.35181 -0.15438,-0.25045 -0.23143,-0.541 -0.34716,-0.8115 -0.21851,-0.98778 -0.20703,-2.15035 0.4503,-3.00384 0.33531,-0.4354 0.84614,-0.70719 1.2142,-1.11529 0.26403,-0.29277 -0.60016,0.51142 -0.90022,0.76713 -0.66029,1.01787 -0.70308,2.43651 -0.85304,0.65554 -0.0336,-0.52951 0.0516,-1.05473 0.0779,-1.5826 0.0236,-0.12904 0.0735,-0.57299 0.11219,-0.16388 -0.23064,-4.30794 5.86171,-4.6341 6.09235,-0.32616 v 0 c 0.023,0.26385 0.0692,0.52618 0.0689,0.79172 -0.019,0.27644 0.10406,0.52051 0.11808,0.79949 0.12099,1.28956 0.0161,2.45902 -0.71625,3.59989 -0.33991,0.29588 -1.07392,1.33504 -1.01976,0.88765 0.0596,-0.49206 0.75525,-0.65686 1.04087,-1.06195 0.41341,-0.58636 0.56065,-1.38963 0.39571,-2.07874 -0.0718,-0.1495 -0.12173,-0.31164 -0.21542,-0.44849 -0.14029,-0.20493 -0.56439,-0.80286 -0.48104,-0.56892 0.24381,0.68436 0.6101,1.32086 0.97311,1.95015 0.0408,0.0707 -0.0417,-0.18202 0.0109,-0.24452 0.0892,-0.10639 0.231,0.55854 0.24056,0.34015 0.48418,1.09732 0.61536,2.30597 0.46119,3.49404 -0.13263,0.56159 -0.16245,1.02269 0.0482,1.61035 0.0775,1.55131 0.0672,3.02963 -0.65,4.46178 -0.22267,0.56724 -0.66614,1.21696 -0.66222,1.83104 0.25717,1.35247 0.4097,2.724158 0.31649,4.103791 -0.0684,1.437616 -0.21502,2.873351 -0.66781,4.24734 -0.004,1.649132 -0.23365,3.289697 -0.2804,4.937882 -0.22289,3.781742 -0.46588,7.565432 -0.54266,11.353144 0.11811,4.499366 0.91651,8.9465543 1.09233,13.4446303 0.1833,6.039834 0.0752,12.1181937 -1.25333,18.0434497 -0.9352,4.232386 -2.09079,8.409887 -2.97598,12.652875 -0.8564,4.375314 -1.85343,8.737473 -3.27983,12.96611 -0.39298,1.093073 -1.50905,4.479936 -2.43472,5.246391 -0.49993,0.413925 -1.10189,0.686218 -1.65142,1.031518 -0.038,0.02389 0.0778,-0.04485 0.11678,-0.06727 -2.24157,-0.27649 -2.03655,-0.09434 -3.51628,-1.381419 -2.10847,-2.070756 -3.85165,-4.612235 -4.35534,-7.574082 -0.78242,-1.669973 1.5793,-2.776468 2.3617,-1.106495 z"
       inkscape:connector-curvature="0" />
    <path
       style="fill:#000000;fill-opacity:1;stroke:none;stroke-width:0.26458332;stroke-opacity:1"
       id="path902"
       d="m 55.207478,-39.148235 c 2.23014,-0.94909 4.65394,-1.08548 7.00499,-1.50405 0.47727,-0.085 0.93193,-0.27998 1.41168,-0.34951 2.12039,-0.30729 4.26372,-0.42743 6.39456,-0.65094 6.31535,-0.74157 12.63526,-1.4041 18.97563,-1.8859 4.31462,-0.31979 8.62089,-0.78119 12.916022,-1.30221 3.30955,-0.43531 6.62235,-0.84496 9.92731,-1.31609 3.09692,-0.50673 6.16567,-1.15581 9.26611,-1.64351 3.04477,-0.43545 6.05297,-1.0826 9.06676,-1.68872 3.20064,-0.60932 6.41761,-1.13412 9.63145,-1.67028 2.47266,-0.43896 4.97549,-0.65164 7.47154,-0.9049 2.18654,-0.2504 4.34692,-0.69329 6.50036,-1.14016 1.78914,-0.35032 3.59545,-0.59389 5.37644,-0.98577 1.68293,-0.48313 3.3828,-0.84011 5.12469,-1.01746 1.39792,-0.14708 2.80236,-0.18203 4.20618,-0.21483 1.2722,-8e-4 2.54384,0.0401 3.81598,0.0315 -2.03446,0.22454 0.54269,-0.18967 0.86543,-0.26626 0.56563,-0.30978 4.21267,-0.017 1.99684,-0.21092 -0.23493,-0.0206 0.47148,-0.0119 0.70723,-0.0183 0.40325,0.0973 0.74438,-0.23264 0.41143,0.34427 2.11896,-2.11946 5.11632,0.8772 2.99738,2.99666 v 0 c -0.5325,0.59775 -0.99303,0.91704 -1.78782,1.11085 -0.94109,0.15661 -1.81803,0.18181 -2.79198,0.1212 -0.26528,-0.0165 0.53326,-0.006 0.79602,-0.0463 0.19434,-0.0297 -0.75615,-0.0328 -0.58851,-0.039 -1.26953,0.0674 -2.45711,0.7509 -3.77394,0.44581 -0.41005,-0.009 -0.82018,-0.0191 -1.23036,-0.0193 -0.13253,-8e-5 -0.53004,-0.002 -0.39762,0.003 0.27064,0.0109 0.54332,-0.0166 0.81246,0.0139 0.12536,0.0142 -0.25117,0.0237 -0.37677,0.0355 -1.31736,0.18138 -2.61583,0.52948 -3.95322,0.55609 -1.55414,0.16878 -3.10793,0.35928 -4.62439,0.75275 -1.763,0.45952 -3.4911,1.03577 -5.26182,1.46594 -2.30002,0.51802 -4.61446,0.98204 -6.95169,1.29901 -2.30068,0.27879 -4.61896,0.49227 -6.85511,1.13868 -3.20575,0.84391 -6.41909,1.69871 -9.72424,2.05786 -3.03381,0.39732 -6.0748,0.78867 -9.07319,1.40429 -3.12029,0.67543 -6.26565,1.17023 -9.42406,1.6314 -3.31553,0.57352 -6.62246,1.20718 -9.95327,1.68416 -4.277702,0.56371 -8.582042,0.904137 -12.846592,1.561529 -6.30552,1.074761 -12.59778,2.319938 -18.99956,2.681248 -2.8668,0.124293 -4.04451,0.23115 -6.89673,0.13716 -3.7127,-0.122343 -7.52137,-0.251585 -10.91071,-1.942833 -1.87767,-0.526862 -1.13258,-3.182294 0.74509,-2.655434 z"
       inkscape:connector-curvature="0" />
    <path
       style="fill:#000000;fill-opacity:1;stroke:none;stroke-width:0.26458332;stroke-opacity:1"
       id="path906"
       d="m 46.457218,-13.732801 c -0.75074,-3.265001 0.31469,-6.511415 1.19047,-9.638512 0.64438,-2.124924 0.91901,-4.330282 1.27811,-6.513536 0.30651,-2.06167 1.04818,-3.973253 2.16164,-5.724334 0.63151,-0.946471 1.4847,-1.69848 2.32699,-2.449442 0.74125,-0.66308 1.50937,-1.27552 2.39483,-1.73229 1.25415,-0.49778 2.69873,-0.7047 3.90184,0.0252 0.13256,0.1681 0.13495,0.53169 0.17119,0.71882 1.64362,0.829 0.47124,3.153425 -1.17238,2.324428 v 0 c -0.40441,0.332504 -0.63168,0.471373 -1.16104,0.352218 -0.0226,0.0047 -0.46122,0.0788 0.0303,0.131241 1.27309,0.135853 1.58046,-0.172484 0.8774,0.129167 -0.60795,0.250458 -1.22045,0.487929 -1.80686,0.784051 -0.52349,0.489487 -0.80297,1.1831 -1.16854,1.786345 -0.67694,1.355082 -1.23457,2.757601 -1.43891,4.27115 -0.28935,2.348053 -0.60198,4.696536 -1.10598,7.009963 -0.6821,3.040518 -1.23693,6.194266 -2.70604,8.971815 -0.31557,2.667907 -4.08856,2.221624 -3.77299,-0.446286 z"
       inkscape:connector-curvature="0" />
    <path
       style="fill:#000000;fill-opacity:1;stroke:none;stroke-width:0.26458332;stroke-opacity:1"
       id="path910"
       d="m 60.340358,12.526451 c 1.51151,5.14889 1.24829,10.626222 1.32361,15.9395 0.20828,6.595727 0.0987,13.187751 -0.26835,19.774694 -0.37039,6.278872 -1.54373,12.459734 -2.6327,18.641398 -0.93823,5.51462 -1.58865,11.071318 -2.34293,16.612515 -0.74707,5.46571 -1.84771,10.879138 -2.31683,16.378978 -0.14279,5.367414 0.43375,10.718514 0.59127,16.082114 0.21139,5.84788 -0.77005,11.60479 -1.92414,17.30884 -1.07078,4.49574 -1.06102,9.10902 -1.10416,13.69845 0.0142,5.51064 -0.32804,11.01156 -0.79365,16.49966 -0.49193,4.84608 -1.17222,9.66843 -1.5404,14.52658 -0.24603,4.20949 -0.5227,8.41615 -0.93036,12.61337 -0.50114,4.85955 -1.523,9.64121 -2.48142,14.42519 -0.82338,3.83318 -1.26279,7.7266 -1.77992,11.60746 -0.34737,2.87499 -0.73712,5.74429 -1.11587,8.61517 -0.3336,2.21086 -0.56123,4.44006 -0.95781,6.64068 -0.22459,0.44323 -0.18678,1.90402 -0.72661,2.10505 0.0233,0.77557 -0.0612,1.53188 -0.27565,2.277 -0.20588,0.60349 -0.48625,1.18094 -0.86649,1.69291 -0.44792,0.37793 -0.39479,0.78523 -0.23737,0.24268 0.0212,-0.0716 0.0424,-0.14309 0.0636,-0.21461 -0.93154,2.90436 -5.038939,1.58697 -4.1074,-1.31741 v 0 c 0.0309,-0.0966 0.0618,-0.19312 0.0927,-0.28967 0.10805,-0.2446 0.87499,-1.28058 0.38772,-0.48119 -0.1408,0.13536 0.23956,-0.79166 0.27754,-0.86837 0.0236,-0.0581 0.35726,-0.75115 0.23872,-0.32652 -0.34268,-1.09109 -0.56029,-2.20236 -0.49566,-3.35537 0.0986,-2.22075 0.38643,-4.42346 0.58973,-6.63588 0.2213,-2.85694 0.28877,-5.72106 0.40678,-8.58356 0.18303,-4.07201 0.51431,-8.14406 1.1201,-12.17628 0.69255,-4.76607 1.48607,-9.51484 2.55326,-14.21368 0.73876,-3.97029 1.15314,-7.96237 1.01106,-12.00917 0.0427,-4.96573 0.15925,-9.93386 0.61777,-14.88168 0.49688,-5.36109 1.00271,-10.7234 1.27416,-16.10177 0.26783,-4.84119 0.48159,-9.68981 1.11605,-14.50116 0.60377,-5.38665 1.25815,-10.77949 1.25544,-16.20938 0.0299,-5.51429 -0.20533,-11.02783 -0.0872,-16.542728 0.17848,-5.740876 0.69951,-11.453918 1.85146,-17.090495 0.96861,-5.487197 1.89844,-10.983706 2.57574,-16.515797 0.70431,-6.037524 1.44842,-12.073231 1.91976,-18.134663 0.48986,-6.495532 0.68128,-13.009888 1.25411,-19.499778 0.35099,-4.548243 0.45775,-9.783268 1.72311,-14.168361 0.16388,-0.56792 0.41651,-1.106382 0.62477,-1.65957 0.0671,-2.9107547 4.18349,-2.8159017 4.11642,0.09485 z"
       inkscape:connector-curvature="0" />
    <path
       style="fill:#000000;fill-opacity:1;stroke:none;stroke-width:0.99999994;stroke-opacity:1"
       d="m 366.29688,438.92773 c 0.33099,0.19943 0.66051,0.3861 1.0039,0.57032 0.16844,-0.013 0.33758,-0.0325 0.50391,-0.0117 0.15619,0.0195 -0.0577,0.0385 -0.31446,0.0566 0.54644,0.0998 1.30637,0.16638 2.10352,0.22265 -1.04798,-0.28694 -2.10098,-0.56172 -3.1543,-0.83398 -0.006,-8e-5 -0.0214,-0.002 -0.0273,-0.002 -0.0385,-3.7e-4 -0.0768,-0.002 -0.11523,-0.002 z"
       transform="matrix(0.26458333,0,0,0.26458333,0,-109.40001)"
       id="path979"
       inkscape:connector-curvature="0" />
    <path
       style="fill:#000000;fill-opacity:1;stroke:none;stroke-width:0.99999994;stroke-opacity:1"
       d="m 369.59375,439.76562 c 0.0686,0.0188 0.13654,0.0396 0.20508,0.0586 -0.0343,-0.0176 -0.0667,-0.0349 -0.10156,-0.0527 -0.0308,-0.002 -0.0732,-0.004 -0.10352,-0.006 z"
       transform="matrix(0.26458333,0,0,0.26458333,0,-109.40001)"
       id="path977"
       inkscape:connector-curvature="0" />
    <path
       style="fill:#000000;fill-opacity:1;stroke:none;stroke-width:0.99999994;stroke-opacity:1"
       d="m 369.79883,439.82422 c 0.282,0.14417 0.58688,0.29849 0.83789,0.42578 0.16817,0.0217 0.33547,0.0507 0.5039,0.0703 0.0665,0.008 0.18546,-0.0135 0.29102,-0.0254 -0.53965,-0.1709 -1.08648,-0.31919 -1.63281,-0.4707 z"
       transform="matrix(0.26458333,0,0,0.26458333,0,-109.40001)"
       id="path975"
       inkscape:connector-curvature="0" />
    <path
       style="fill:#000000;fill-opacity:1;stroke:none;stroke-width:0.99999994;stroke-opacity:1"
       d="m 370.63672,440.25 c -0.85594,-0.1105 -1.71009,-0.23659 -2.56445,-0.35938 0.14021,0.0672 0.27734,0.14847 0.41796,0.21094 0.31693,0.1408 0.79541,0.28816 1.31641,0.42969 0.37178,0.0281 0.76365,-0.0829 1.14453,-0.12305 -0.0917,-0.0461 -0.21885,-0.10972 -0.31445,-0.1582 z"
       transform="matrix(0.26458333,0,0,0.26458333,0,-109.40001)"
       id="path973"
       inkscape:connector-curvature="0" />
    <path
       style="fill:#000000;fill-opacity:1;stroke:none;stroke-width:0.99999994;stroke-opacity:1"
       d="m 370.95117,440.4082 c 0.53693,0.26987 1.00129,0.49171 1.44727,0.68555 1.10176,0.18372 1.8478,0.23021 1.11718,-0.0625 -0.59058,-0.23661 -1.19075,-0.44368 -1.79492,-0.64063 -0.20461,0.0551 -0.45688,-0.0104 -0.67578,0.004 -0.0307,0.002 -0.0628,0.0104 -0.0937,0.0137 z"
       transform="matrix(0.26458333,0,0,0.26458333,0,-109.40001)"
       id="path971"
       inkscape:connector-curvature="0" />
    <path
       style="fill:#000000;fill-opacity:1;stroke:none;stroke-width:0.99999994;stroke-opacity:1"
       d="m 372.39844,441.09375 c -0.79787,-0.13304 -1.7355,-0.32989 -2.5918,-0.5625 -0.10046,-0.008 -0.20044,-0.0181 -0.29687,-0.0527 -1.01117,-0.36358 -1.76287,-0.60773 -2.60157,-0.89258 -1.75052,0.15593 -1.54579,0.12494 -3.5,0.16601 -0.45935,-0.011 -0.93232,0.0827 -1.37695,-0.0332 -0.21034,-0.0548 -0.41915,-0.11503 -0.62891,-0.17187 -0.88381,1.82372 -1.2859,3.9505 -1.32226,5.82617 -0.0193,0.28659 0.18594,0.70842 -0.0586,0.85937 -0.25096,0.15511 -0.1389,-1.01101 -0.35546,-0.81054 -0.85062,0.78734 -0.7337,2.49046 -1.29493,3.39257 -0.75738,3.0916 -1.03417,6.35703 -2.65234,9.16211 -1.95243,4.62596 -3.17701,9.46855 -4.21094,14.37696 -1.04375,5.32698 -1.94312,10.72844 -3.60547,15.90039 -1.79111,4.34462 -5.0823,7.95605 -6.4082,12.53711 -1.59133,5.21929 -2.57672,10.56783 -3.52148,15.9375 -1.34816,6.33491 -3.50254,12.5037 -4.10938,18.98242 -0.41507,5.35647 -0.58334,10.71648 -2.53906,15.80664 -1.9104,6.34473 -3.60843,12.73208 -5.39063,19.11133 -1.49729,5.30027 -3.02585,10.59227 -4.50195,15.89843 -1.92234,7.2025 -3.52194,14.47795 -4.86133,21.8125 -1.55361,7.62404 -2.63404,15.31587 -2.44922,23.1211 -0.47221,7.14525 -2.62606,14.03821 -2.91406,21.21289 -0.44492,9.65744 -0.16694,19.45243 -2.65625,28.88086 -2.67201,10.58414 -5.91608,21.0176 -8.1875,31.70508 -2.80717,12.29963 -5.77834,24.64627 -6.05273,37.33007 -0.5175,9.4283 -1.06281,18.86384 -2.17774,28.24414 -1.43501,12.19391 -2.4659,24.41963 -2.71875,36.70313 -0.42814,10.43841 -0.98847,20.87387 -2.20117,31.25586 -0.61398,9.5303 -0.33039,19.07123 -0.7207,28.61133 -0.72764,13.39022 -2.37215,26.67904 -4.0625,39.97851 -1.53211,14.22781 -2.61365,28.4777 -2.56641,42.80078 -0.26578,13.78591 -0.93134,27.56042 -1.0039,41.34961 0.12158,13.67767 0.51971,27.37097 -0.54883,41.02537 -1.07789,13.1487 -2.81368,26.2596 -3.0586,39.4609 0.24027,17.1128 2.02589,34.0878 5.47071,50.8692 1.96074,11.4556 3.6592,22.9531 3.5957,34.6133 0.18013,14.462 -0.0404,29.0959 4.82812,42.955 3.17723,8.9143 7.23904,17.4656 10.23829,26.4317 2.06577,9.2476 2.2177,18.7214 2.81445,28.1484 0.54848,10.175 1.56485,20.2992 2.41797,30.4492 0.0729,6.615 -0.67866,13.0315 -3.66992,19.0528 -3.63814,7.3667 -8.01126,14.3239 -13.29493,20.6367 -2.7098,3.2943 -7.85547,8.9801 -8.67578,13.2422 -0.33551,-1.6835 -11.92546,-0.5674 -6.17578,-1.6504 -10.23099,-0.6346 -20.4634,-1.3695 -30.64258,-2.5977 -8.31968,-0.9519 -16.77522,-1.8376 -24.23828,-5.9707 -6.92931,-4.1087 -13.61843,-8.6142 -20.6914,-12.4824 -6.13388,-3.3798 -11.93796,-7.2632 -17.64063,-11.3262 -10.17313,-5.6702 -21.35283,-10.0029 -33.20312,-9.0566 -6.82307,-3.8396 -12.25279,5.8107 -5.42969,9.6504 7.8014,7.4792 18.3098,10.8065 28.3164,14.248 6.04302,1.6383 10.32957,6.3006 14.99414,10.1914 6.54796,5.1697 13.58597,9.6573 20.71094,13.9785 8.64185,5.0718 18.10551,8.5648 27.63672,11.5508 11.18706,3.265 22.74262,4.302 34.3418,3.8926 10.53872,-0.2406 17.34525,-0.6715 25.60937,-7.1035 4.01004,-4.7766 8.41396,-9.0793 13.07227,-13.2168 8.32785,-6.646 13.94567,-15.4182 18.36133,-24.9668 3.59236,-8.9267 4.34512,-18.3788 4.5957,-27.8789 0.17344,-10.4318 0.73323,-20.8493 0.69922,-31.2832 -0.10152,-11.4398 -2.21787,-22.5263 -5.89063,-33.3145 -3.68863,-8.5014 -5.80221,-17.3379 -7.14062,-26.4707 -1.84071,-12.8315 -2.81567,-25.7663 -4.31055,-38.6386 -1.48928,-11.8223 -2.09907,-23.7182 -2.58398,-35.6153 -0.65042,-16.499 -1.84757,-32.9652 -3.03321,-49.4316 -0.92243,-12.2335 -1.82151,-24.4883 -1.09179,-36.752 1.80574,-14.0387 3.83456,-27.9721 4.49023,-42.1308 0.40229,-14.03271 -1.74568,-27.94816 -2.15039,-41.94727 0.29076,-13.32041 3.14996,-26.40048 5.01758,-39.55078 1.85934,-14.27233 2.44915,-28.65505 1.88672,-43.02734 -0.20421,-9.1824 -2.33808,-18.27864 -1.87305,-27.46875 1.71054,-10.1435 3.93877,-20.16934 5.29883,-30.37305 1.66696,-12.52241 1.52364,-25.15503 1.26172,-37.75195 -0.74869,-9.0517 0.38043,-17.98222 1.86133,-26.88672 1.96754,-11.7859 5.25793,-23.28476 7.3457,-35.05078 0.79268,-10.47451 3.75246,-20.4492 6.62305,-30.48047 3.41401,-11.33051 3.43912,-23.0751 2.95507,-34.76953 -0.52221,-6.70974 -0.34173,-13.41428 -0.002,-20.12305 0.34012,-6.69 2.14992,-13.15154 3.71094,-19.62695 2.13418,-7.55527 3.07756,-15.32853 3.61523,-23.13477 -0.31226,-4.63239 1.67913,-8.28684 3.47071,-12.36718 2.64706,-6.55766 4.81065,-13.33929 6.70703,-20.1543 2.04397,-6.45996 1.45656,-13.25078 2.12304,-19.88281 1.02838,-5.59577 3.1892,-10.86475 4.37696,-16.45118 1.16526,-5.01524 0.79657,-10.23779 1.67187,-15.28125 1.33391,-2.72422 3.60152,-5.12084 5.32227,-7.71289 4.51767,-6.92135 5.95223,-14.85835 6.63281,-22.93164 0.21317,-1.24454 -0.32938,-8.71763 0.30078,-8.86133 2.71174,-3.98813 3.87334,-8.72255 4.72656,-13.39648 0.3099,-1.65188 0.31446,-3.53869 0.15625,-5.28516 1.06208,-1.79286 1.50496,-3.63233 1.4375,-5.38476 -1.57448,-0.11225 -3.26018,-0.35303 -2.32226,-0.19531 -4.04166,0.17496 -5.49074,0.0147 -7.48828,-0.85352 z"
       transform="matrix(0.26458333,0,0,0.26458333,0,-109.40001)"
       id="path969"
       inkscape:connector-curvature="0" />
    <path
       style="fill:#000000;fill-opacity:1;stroke:none;stroke-width:0.99999994;stroke-opacity:1"
       d="m 368.07227,439.89062 c -0.22497,-0.10773 -0.44751,-0.22212 -0.66993,-0.33984 -0.0981,0.007 -0.18767,0.0118 -0.26562,0.0176 0.22096,0.0953 0.44274,0.18877 0.66406,0.2832 0.0905,0.0127 0.18099,0.0261 0.27149,0.0391 z"
       transform="matrix(0.26458333,0,0,0.26458333,0,-109.40001)"
       id="path967"
       inkscape:connector-curvature="0" />
    <path
       style="fill:#000000;fill-opacity:1;stroke:none;stroke-width:0.99999994;stroke-opacity:1"
       d="m 367.40234,439.55078 c 0.0325,-0.002 0.0558,-0.006 0.0879,-0.008 -0.0581,-0.0106 -0.11312,-0.0239 -0.16992,-0.0352 0.0274,0.0146 0.0546,0.0285 0.082,0.043 z"
       transform="matrix(0.26458333,0,0,0.26458333,0,-109.40001)"
       id="path965"
       inkscape:connector-curvature="0" />
    <path
       style="fill:#000000;fill-opacity:1;stroke:none;stroke-width:0.99999994;stroke-opacity:1"
       d="m 365.01758,438.94141 c -0.55318,0.009 -1.10566,0.017 -1.6582,0.0215 0.80308,0.15374 1.73876,0.31654 3.06835,0.53906 0.0963,0.0161 0.19357,0.0176 0.29102,0.0176 -0.55571,-0.1879 -1.21536,-0.42068 -1.70117,-0.57812 z"
       transform="matrix(0.26458333,0,0,0.26458333,0,-109.40001)"
       id="path963"
       inkscape:connector-curvature="0" />
    <path
       style="fill:#000000;fill-opacity:1;stroke:none;stroke-width:0.99999994;stroke-opacity:1"
       d="m 366.63086,439.35352 c 0.12206,0.0528 0.24507,0.10352 0.36719,0.15625 0.0913,-0.007 0.18211,-0.004 0.27343,-0.0117 -0.21429,-0.0437 -0.43442,-0.0896 -0.64062,-0.14453 z"
       transform="matrix(0.26458333,0,0,0.26458333,0,-109.40001)"
       id="path916"
       inkscape:connector-curvature="0" />
    <path
       style="fill:#000000;fill-opacity:1;stroke:none;stroke-width:0.26458332;stroke-opacity:1"
       id="path920"
       d="m 60.819858,-39.724325 c 0.031,-3.37145 1.65377,-6.45924 3.46726,-9.21425 1.23122,-1.71648 2.93676,-2.87268 4.71217,-3.94932 2.07326,-1.26729 4.28395,-2.24534 6.5869,-3.00587 2.47891,-0.67437 5.13193,-0.89488 7.6569,-0.31458 1.36524,0.3129 2.75685,0.0783 4.13781,0.0695 2.20261,0.10758 4.38242,0.51216 6.52943,0.99899 1.70726,0.4299 3.42906,0.83374 5.0031,1.63965 1.393112,0.69423 2.262872,1.91864 3.122122,3.15997 0.7829,1.1429 1.70904,2.1745 2.51876,3.29711 0.98567,1.3737 1.48484,2.92972 1.69161,4.58943 -0.098,0.49837 0.18884,1.43815 -0.1956,1.88603 -0.12565,0.14639 -0.29743,0.24579 -0.44614,0.36868 -0.28529,0.12932 -0.57059,0.25864 -0.85589,0.38795 0.0173,0.98602 -1.37713,1.0105 -1.39444,0.0245 v 0 c -0.28983,-0.0874 -0.57965,-0.17484 -0.86948,-0.26226 -0.98358,-0.38541 -0.70106,-0.7818 -0.99921,-1.69146 -0.26663,-1.00329 -0.66937,-1.94151 -1.30813,-2.77202 -0.849952,-1.18283 -1.753822,-2.33304 -2.425542,-3.63276 -0.34562,-0.61737 -0.56496,-1.11244 -1.32151,-1.2117 -1.60716,-0.21989 -3.21268,-0.45683 -4.80446,-0.77138 -1.88174,-0.37488 -3.74368,-0.90028 -5.66671,-1.01807 -1.47082,-0.1072 -2.92442,-0.30937 -4.38454,-0.50778 -1.32972,0.0416 0.11457,-0.0214 0.22541,0.0696 0.15599,0.12802 -0.40254,0.0332 -0.60198,0.0639 -0.93997,0.14472 -1.85037,0.4324 -2.75628,0.7125 -2.16615,0.66894 -4.3341,1.33263 -6.49989,2.00129 -1.49586,0.48559 -1.89979,0.84238 -2.62281,2.32659 -1.41276,2.64183 -2.57299,5.47723 -4.45536,7.82368 -0.75511,2.859178 -4.79861,1.791293 -4.0435,-1.06789 z"
       inkscape:connector-curvature="0" />
    <path
       style="fill:#000000;fill-opacity:1;stroke:none;stroke-width:0.26458332;stroke-opacity:1"
       id="path926"
       d="m 163.57043,-43.150905 c 0.22209,4.14722 -0.79134,8.242986 -1.35379,12.332585 -0.51337,3.425642 -0.08,6.843146 0.34338,10.247198 0.66587,5.01495 0.31136,10.044663 -0.23276,15.0467433 -0.56176,4.084384 -1.17597,8.157512 -1.5526,12.264231 -0.30501,2.729085 -0.16944,5.4563537 -0.0633,8.1873407 -0.018,0.426183 -0.0361,0.852366 -0.0541,1.278546 0.38656,1.38648 -1.57421,1.93317 -1.9608,0.54669 v 0 c -0.29763,-0.407204 -0.59528,-0.814409 -0.89294,-1.22161 -0.1968,-0.452467 -0.43667,-0.888553 -0.59044,-1.3574 -0.79772,-2.432262 -0.59619,-5.1058287 -0.73327,-7.6181897 0.053,-4.143433 0.39907,-8.270732 0.61188,-12.407649 0.19349,-4.8453383 0.48022,-9.6792253 0.89273,-14.5109193 0.0297,-1.572339 0.0736,-1.996839 -0.0311,-3.530555 -0.16494,-2.415437 -0.65572,-4.805537 -0.63198,-7.235433 0.0904,-4.425638 0.57737,-9.019138 3.08025,-12.803638 0.553,-2.24076 3.72192,-1.45869 3.16891,0.78206 z"
       inkscape:connector-curvature="0" />
  </g>
</svg>
