<?xml version="1.0" encoding="UTF-8" standalone="no"?>
<!-- Created with Inkscape (http://www.inkscape.org/) -->

<svg
   xmlns:dc="http://purl.org/dc/elements/1.1/"
   xmlns:cc="http://creativecommons.org/ns#"
   xmlns:rdf="http://www.w3.org/1999/02/22-rdf-syntax-ns#"
   xmlns:svg="http://www.w3.org/2000/svg"
   xmlns="http://www.w3.org/2000/svg"
   xmlns:sodipodi="http://sodipodi.sourceforge.net/DTD/sodipodi-0.dtd"
   xmlns:inkscape="http://www.inkscape.org/namespaces/inkscape"
   width="256"
   height="256"
   viewBox="0 0 67.733335 67.733335"
   version="1.1"
   id="svg8"
   inkscape:version="0.92.4 (5da689c313, 2019-01-14)"
   sodipodi:docname="elbow_speedo.svg"
   inkscape:export-filename="C:\Users\panu-\PycharmProjects\nextgame\data\images\bodies\speedo\elbow_speedo.png"
   inkscape:export-xdpi="10.173375"
   inkscape:export-ydpi="10.173375">
  <defs
     id="defs2" />
  <sodipodi:namedview
     id="base"
     pagecolor="#ffffff"
     bordercolor="#666666"
     borderopacity="1.0"
     inkscape:pageopacity="0.0"
     inkscape:pageshadow="2"
     inkscape:zoom="1.3995495"
     inkscape:cx="58.437736"
     inkscape:cy="157.78434"
     inkscape:document-units="mm"
     inkscape:current-layer="layer6"
     showgrid="false"
     units="px"
     width="1024px"
     inkscape:window-width="1920"
     inkscape:window-height="1017"
     inkscape:window-x="-8"
     inkscape:window-y="-8"
     inkscape:window-maximized="1"
     inkscape:pagecheckerboard="true"
     showguides="false" />
  <metadata
     id="metadata5">
    <rdf:RDF>
      <cc:Work
         rdf:about="">
        <dc:format>image/svg+xml</dc:format>
        <dc:type
           rdf:resource="http://purl.org/dc/dcmitype/StillImage" />
        <dc:title />
      </cc:Work>
    </rdf:RDF>
  </metadata>
  <g
     inkscape:groupmode="layer"
     id="layer6"
     inkscape:label="arm_color"
     transform="translate(0,-364.06667)">
    <path
       style="fill:#ffccaa;fill-opacity:1;stroke:none;stroke-width:0.71451563;stroke-opacity:1"
       d="M 89.942015,13.864019 C 86.688358,15.21812 83.276427,15.902154 79.974924,17.16465 70.353007,22.057468 60.512743,27.231287 52.657416,34.734296 42.422713,48.057534 33.726281,62.625837 26.414317,77.741997 c -5.73614,15.578546 -6.24476,32.470593 -7.674945,48.845873 -1.618257,18.83166 6.87469,36.43328 14.646699,53.01097 5.771262,11.95068 16.444022,20.49413 25.856885,29.48038 9.258763,7.62578 20.629484,12.12511 30.942774,18.11185 7.427713,4.50825 15.74807,7.62709 24.53825,7.50992 10.08243,0.71821 20.5491,-0.36648 30.42134,1.00618 3.68399,2.00743 7.21893,-2.45909 10.41909,-3.76516 20.14271,-12.157 45.31797,-17.83987 60.60731,-37.07132 10.38207,-13.01959 19.4438,-27.66308 23.95584,-43.7317 -0.71796,-23.69284 1.42081,-48.42294 -7.29916,-70.986898 -4.87723,-8.819771 -10.68535,-17.2923 -17.6103,-24.634044 C 207.07752,49.110533 199.66,41.741557 190.56731,36.630832 178.56175,27.9417 164.79526,20.527366 149.85013,19.001415 131.01067,18.397222 111.97968,18.951675 93.30387,17.023518 93.38768,15.166896 91.831704,13.576331 89.942015,13.864019 Z"
       id="path823"
       inkscape:connector-curvature="0"
       transform="matrix(0.26458333,0,0,0.26458333,0,364.06667)" />
    <path
       style="fill:#ffb380;fill-opacity:1;stroke:none;stroke-width:0.26458332;stroke-opacity:1"
       id="path831"
       d="m 28.603879,370.54524 c -0.839036,0.12501 -1.684224,-0.025 -2.527684,-0.006 -0.259372,0.006 -0.526401,-0.0232 -0.777087,0.0436 -0.106198,0.0283 0.213552,0.0521 0.320328,0.0781 -1.540397,0.0934 -3.009398,0.55721 -4.415882,1.16612 -0.925687,0.40471 -1.713191,1.02878 -2.485693,1.6661 -0.3082,0.27346 -0.664248,0.5194 -0.900594,0.86482 -0.124498,0.18196 -0.182803,0.35233 -0.270297,0.55717 -0.444782,1.33231 -0.861012,2.67366 -1.326984,3.99912 -0.606222,1.75409 -1.512997,3.37348 -2.376734,5.00789 -0.608612,1.16094 -1.00361,2.41236 -1.398208,3.65709 -0.439062,1.43891 -0.962511,2.84968 -1.492393,4.25699 -0.236483,0.79154 -0.734232,1.53205 -0.779222,2.37115 0.128193,0.94619 0.244257,1.88922 0.286667,2.84469 0.01143,1.05948 -0.07448,2.11655 -0.07396,3.17592 0.04137,0.88125 0.09744,1.76168 0.0076,2.64137 -0.299064,1.60379 -0.839582,0.75253 -3.4995438,0.56126 -0.053805,-0.004 -0.017873,-0.1064 -0.026886,-0.15959 -0.00874,-0.0516 -0.017582,-0.10311 -0.026374,-0.15466 -0.017447,-0.0713 -0.031503,-0.14359 -0.052342,-0.21402 -0.1242057,-0.41973 -0.3021901,-0.81185 -0.412147,-1.23881 -0.2018506,-0.78379 -0.2314408,-1.10458 -0.364649,-1.93447 -0.3108211,-2.31611 -0.2486152,-4.66802 0.1710544,-6.96682 0.089042,-0.48775 0.2107393,-0.96895 0.3161091,-1.45343 0.5801945,-2.38505 1.4965897,-4.66669 2.4002817,-6.94271 0.4799439,-1.21154 0.8969417,-2.45063 1.4641496,-3.62613 0.409359,-0.84837 0.492531,-0.94083 0.979113,-1.73731 0.788341,-1.15968 1.689173,-2.26694 2.80497,-3.1264 0.245429,-0.20444 0.545221,-0.3111 0.805284,-0.48973 0.09387,-0.0645 0.188671,-0.25885 0.281755,-0.19324 0.912008,0.64285 1.692636,1.45431 2.538953,2.18147 -0.393337,1.49769 -1.26666,2.79141 -2.134753,4.04994 -1.112987,1.45608 -2.204809,2.91953 -3.149728,4.49125 -1.029824,1.95378 -1.906573,3.98102 -2.9300664,5.93877 -0.4877708,0.93274 -1.0592443,1.81641 -1.6221025,2.7043 -0.2983613,0.47066 -0.5902121,0.92365 -0.8140454,1.43354 -0.017896,0.0922 -0.047962,0.18283 -0.053692,0.27657 -0.025233,0.41278 0.1386179,0.88138 0.2204493,1.27549 0.1858012,0.89484 0.1302414,0.62299 0.2892001,1.58796 0.2846438,1.90611 0.5450099,3.81476 0.8566118,5.7168 0.2522972,1.44341 0.528904,2.77932 1.2074954,4.08592 0.4122827,0.79728 1.0000157,1.4397 1.7339867,1.94584 0.860907,0.51391 1.689997,1.07057 2.497164,1.66489 0.6133,0.47123 1.228705,0.93881 1.899958,1.32502 0.650257,0.36348 1.319822,0.68567 1.964895,1.05896 0.777289,0.46947 1.483575,1.04245 2.203235,1.59321 0.628334,0.45465 1.345285,0.75474 2.053168,1.0597 0.829945,0.35544 1.634551,0.76699 2.468773,1.11223 0.904705,0.30791 1.870889,0.37032 2.810609,0.51582 1.260322,0.22412 2.512841,0.47673 3.791805,0.56245 0.312759,0.009 0.947148,0.0328 1.259509,0.014 0.146265,-0.009 -0.585634,-0.0193 -0.43951,-0.008 0.561832,0.0419 1.131525,0.0391 1.694672,0.062 0.449202,-0.03 0.885138,0.12107 1.325962,0.15801 1.207972,0.10123 0.719826,-0.10775 1.315313,0.20412 -0.05547,1.05782 -0.06731,2.11884 -0.16642,3.17347 -7.94e-4,0.009 -0.235654,0.0498 -0.250547,0.0527 -0.418362,0.0798 -0.852393,-0.0289 -1.265468,0.081 -1.132105,0.37564 -2.340978,0.45629 -3.523403,0.52337 -2.323748,0.093 -4.596042,-0.39782 -6.817077,-1.02559 -1.846169,-0.50906 -3.403816,-1.39177 -4.922999,-2.53003 -1.439186,-1.17988 -2.85401,-2.38852 -4.297381,-3.5635 -1.395795,-1.119 -2.797992,-2.23067 -4.155439,-3.3962 -1.4445239,-1.21435 -2.5995568,-2.69258 -3.6188392,-4.26865 -0.7922361,-1.30005 -1.3653672,-2.71384 -1.892798,-4.13695 -0.3208443,-0.91223 -0.6811539,-1.81067 -1.0730179,-2.69468 -0.091577,-0.15954 -0.1707198,-0.33957 -0.2413199,-0.50209 -1.2577349,-1.58741 0.1181061,-1.56141 2.7251827,-2.61579 0.1719278,-0.0695 0.3332792,0.16292 0.4973034,0.24947 0.2144022,0.11312 0.4251949,0.23296 0.6377924,0.34945 2.1465755,1.19412 3.9660255,2.86454 5.7138825,4.56868 1.820105,1.78692 3.40241,3.78316 4.883343,5.85341 0.968992,1.37686 1.869828,2.80811 3.102193,3.96762 1.051889,0.83277 2.162772,1.58903 3.24826,2.37759 1.050651,0.80451 2.193882,1.45984 3.356179,2.08513 0.986988,0.49072 1.926722,1.06235 2.836817,1.68223 0.493263,0.36082 1.013907,0.60753 1.617657,0.69391 0.599448,0.0795 1.20463,0.0675 1.807432,0.0907 0.945301,0.009 1.889517,0.06 2.834527,0.0852 0.712287,0.0277 1.424336,0.0604 2.137201,0.0691 0.171476,0.002 0.377959,-0.10081 0.514463,0.003 0.133752,0.10171 -0.336055,0.003 -0.504084,0.005 0.484397,-0.0136 0.99704,0.0878 1.468316,-0.0729 0.249597,-0.0851 0.454406,-0.22149 0.682434,-0.35299 1.07904,-0.73606 2.227123,-1.34711 3.4093,-1.89748 1.124547,-0.44087 2.110814,-1.10186 3.047986,-1.85128 1.396553,-1.24654 2.864726,-2.39296 4.471887,-3.35402 0.598768,-0.33812 1.221515,-0.62895 1.865696,-0.86862 0.216596,-0.0806 0.442164,-0.13749 0.645901,-0.24829 0.36712,-0.72523 0.717796,-1.45305 1.19113,-2.11933 0.16432,-0.23129 0.346155,-0.44964 0.519235,-0.67446 0.547902,-0.55985 1.105649,-1.30921 1.894964,-1.55216 0.09192,-0.0283 0.209821,-0.0917 0.286561,-0.0338 0.79009,0.59693 1.496358,1.29737 2.244537,1.94605 -0.307389,-0.0914 -0.614773,-0.18275 -0.922159,-0.27413 -0.367632,0.41484 -0.954307,-0.10506 -0.586674,-0.51991 v 0 c -0.192368,-0.18974 -0.384733,-0.37949 -0.577101,-0.56923 0.810702,0.57279 1.629349,1.1345 2.432108,1.71837 0.04322,0.0314 0.09659,0.071 0.101307,0.12425 0.0381,0.43014 -0.877234,1.334 -1.102548,1.6504 -0.843794,0.92399 -1.71967,1.8159 -2.569134,2.73421 -0.726872,0.73981 -1.495382,1.43344 -2.344568,2.03277 -1.467784,1.09398 -2.956376,2.16232 -4.498681,3.14943 -1.178592,0.75764 -2.365837,1.50382 -3.63859,2.09642 -1.118674,0.55987 -2.228662,1.13723 -3.324427,1.74081 -1.157089,0.59971 -2.351889,1.13294 -3.684932,1.11014 -1.454001,0.007 -2.908657,0.0143 -4.357692,-0.12873 -0.930749,-0.0836 -1.860135,-0.18229 -2.788904,-0.28541 -0.786011,-0.0702 -1.57874,-0.14203 -2.342894,-0.34778 -0.860242,-0.27157 -1.679244,-0.63282 -2.457783,-1.0913 -0.955911,-0.47008 -1.948982,-0.85693 -2.908755,-1.31896 -1.332864,-0.68313 -2.593415,-1.485 -3.77615,-2.40598 -1.191667,-0.87125 -2.441658,-1.66325 -3.58346,-2.60119 -0.594272,-0.52618 -0.770548,-0.66133 -1.325552,-1.23843 -0.914068,-0.95047 -1.715463,-2.00085 -2.55173,-3.01801 -1.510371,-1.81428 -3.13132,-3.52931 -4.8266554,-5.17228 -1.6337925,-1.60527 -3.3332157,-3.16073 -4.7832284,-4.93884 -0.1145035,-0.15574 -0.2335861,-0.30821 -0.3435107,-0.46721 -0.058231,-0.0842 -0.2383136,-0.19527 -0.1605531,-0.2619 1.6319661,-1.39825 3.357477,-1.00439 2.6840828,-2.33637 -0.2449722,-0.48456 -0.1569797,-0.16696 -0.2059604,-0.3549 0.5609212,0.33664 1.0015498,0.85634 1.3715926,1.38554 0.5758764,0.93697 0.9855776,1.94938 1.4098815,2.96159 0.5505811,1.15322 1.1928631,2.25989 1.9121971,3.31648 0.848192,1.21647 1.72762,2.42691 2.897558,3.35925 1.446326,1.12801 3.027056,2.07412 4.417139,3.27584 0.758655,0.68206 0.83019,0.72676 1.542627,1.4439 0.586209,0.59008 1.125742,1.22932 1.732256,1.79915 0.143779,0.13508 0.298293,0.25826 0.447439,0.38739 0.143619,0.0951 0.280667,0.20086 0.430858,0.28513 1.076911,0.60428 2.370631,0.67861 3.536544,1.01273 1.93957,0.41318 3.890682,0.76741 5.873766,0.89077 1.106196,0.10754 2.245688,0.18479 3.292371,0.58828 0.326041,0.21443 0.06336,0.0248 -0.880999,0.069 -0.0098,5.3e-4 0.0086,0.0213 0.01826,0.0231 1.082418,0.20233 0.03692,-1.49288 0.07332,3.15074 0.488913,0.30062 -0.01527,0.0345 1.067816,0.1815 0.03934,0.005 -0.07213,0.0335 -0.109664,0.0465 -0.305655,0.10537 -0.625634,0.16561 -0.943079,0.2214 -1.710444,0.26414 -3.445679,0.32349 -5.165674,0.0892 -1.356485,-0.20438 -2.709209,-0.43529 -4.045838,-0.74686 -1.119369,-0.27193 -2.230463,-0.59008 -3.28667,-1.05618 -0.890486,-0.37105 -1.77433,-0.75849 -2.639993,-1.1848 -0.869901,-0.45726 -1.721135,-0.95273 -2.504845,-1.54873 -0.626467,-0.46663 -1.239276,-0.95473 -1.907215,-1.36211 -0.622463,-0.37503 -1.248682,-0.74477 -1.893874,-1.07969 -0.754975,-0.43082 -1.483873,-0.90151 -2.205594,-1.38584 -0.895371,-0.56924 -1.8110274,-1.11034 -2.6438857,-1.7716 -1.0478511,-0.86132 -2.00879,-1.81643 -2.7188745,-2.98433 -0.3787391,-0.65275 -0.4906327,-0.80605 -0.8012895,-1.50549 -0.5134854,-1.15611 -0.8560102,-2.38097 -1.1397959,-3.61061 -0.4271955,-2.01356 -0.7133804,-4.05362 -0.6648937,-6.11822 -0.00167,-0.63106 0.00454,-0.84419 -0.022487,-1.46255 -0.041409,-0.94764 -0.1534647,-1.89865 -0.019323,-2.84516 0.1096806,-0.67044 0.1193374,-0.84024 0.302451,-1.50294 0.3619172,-1.3098 0.9186444,-2.55687 1.5278952,-3.76768 1.0616117,-2.03386 2.2307875,-4.0066 3.39976,-5.98022 1.0084014,-1.6936 2.0678471,-3.35969 3.3323111,-4.8773 0.550993,-0.65815 1.097679,-1.31947 1.678868,-1.95149 0.17579,-0.19116 0.562766,-0.60739 0.787162,-0.79492 0.06432,-0.0538 0.140357,-0.0917 0.210536,-0.13754 0.905961,0.59097 1.764214,1.26249 2.717883,1.77291 0.05646,0.0302 0.509391,-0.51283 0.294409,-0.0298 -0.03289,0.0739 -0.07278,0.14451 -0.109165,0.21676 -0.571595,0.99225 -1.305603,1.87989 -1.893472,2.86225 -0.858626,1.4731 -1.523554,3.03655 -1.97899,4.68283 -0.631129,2.18194 -1.259843,4.36622 -1.796914,6.57348 -0.208207,0.99487 -0.321766,1.46107 -0.468414,2.46834 -0.235281,1.61605 -0.283283,3.24818 -0.373468,4.87636 -0.09298,1.12235 -0.144224,2.30744 -0.488736,3.38509 -0.230016,1.23131 1.63876,0.0326 -3.3020042,0.30984 -0.021868,0.001 -0.040437,0.0435 -0.058147,0.0306 -0.054969,-0.04 -0.1135184,-0.32309 -0.1164706,-0.33425 -0.1592824,-0.8982 -0.2064261,-1.8114 -0.2245096,-2.72231 -0.00249,-1.03717 0.00558,-2.07431 -0.017095,-3.11135 0.0046,-0.96584 0.032069,-1.93301 -0.015931,-2.898 -0.043333,-1.2068 0.017838,-2.404 0.406835,-3.56076 0.4663435,-1.4192 1.0272784,-2.80043 1.5594118,-4.19561 0.4826376,-1.33449 0.8766196,-2.69794 1.3566362,-4.03327 0.6459554,-1.67298 1.4046844,-3.29678 2.1438074,-4.93005 0.643569,-1.40429 1.28358,-2.81319 2.072028,-4.1441 0.495206,-0.78272 1.000562,-1.5592 1.621783,-2.25026 0.845725,-0.97608 1.749522,-1.9086 2.820252,-2.64217 0.6396,-0.41739 0.899028,-0.61314 1.598325,-0.95641 1.341331,-0.65841 2.787329,-1.06145 4.275251,-1.19608 0.741168,0.006 1.483241,-0.0183 2.223503,0.0188 1.003729,0.0504 2.545522,0.40179 3.399954,0.96374 0.156676,0.10305 0.282541,0.24665 0.42381,0.36998 2.035064,1.29041 0.210148,4.16843 -1.824916,2.87801 z"
       inkscape:connector-curvature="0" />
    <path
       style="fill:#ffb380;fill-opacity:1;stroke:none;stroke-width:0.26458332;stroke-opacity:1"
       id="path833"
       d="m 47.551011,419.46706 c 0.04446,-0.266 0.06398,-0.5374 0.133393,-0.798 0.653994,-2.45517 2.263375,-4.53613 3.806833,-6.49308 0.770101,-0.94511 1.607928,-1.83123 2.406941,-2.75115 0.363497,-0.4185 0.696044,-0.82596 0.974153,-1.30391 0.03282,-0.0888 0.07365,-0.17508 0.09846,-0.26647 0.117483,-0.43271 0.133969,-0.89622 0.19858,-1.33762 0.07087,-0.48421 0.115258,-0.67997 0.209807,-1.16362 0.239522,-1.0796 0.476644,-2.15785 0.620678,-3.25486 0.126264,-1.00842 0.110688,-2.02596 0.113919,-3.04006 0.04757,-0.86265 -0.102553,-1.70078 -0.316431,-2.53148 -0.316275,-1.07124 -0.512585,-2.16733 -0.640231,-3.27516 -0.0305,-0.7101 -0.13862,-1.39795 -0.334235,-2.07936 -0.314589,-0.92491 -0.648398,-1.84303 -0.99668,-2.75575 -0.219046,-0.73315 -0.59554,-1.35323 -1.095671,-1.92141 -0.682763,-0.77169 -1.340612,-1.56374 -1.985587,-2.3671 -0.591534,-0.80813 -1.306251,-1.49064 -2.128803,-2.05597 -0.831967,-0.5024 -1.720244,-0.90332 -2.586778,-1.34141 -1.263738,-0.59994 -2.510383,-1.23484 -3.745955,-1.89071 -0.854562,-0.47856 -1.665365,-1.04091 -2.59918,-1.35557 -0.766357,-0.23243 -1.542793,-0.42847 -2.315823,-0.63698 -0.759611,-0.21883 -1.526403,-0.3988 -2.315139,-0.4631 -0.108834,-0.004 -0.217612,-0.0101 -0.326504,-0.0109 -0.237752,-0.002 -0.948804,0.003 -0.712631,0.0303 0.235669,0.0274 0.475779,-0.0108 0.711599,0.0153 0.150995,0.0167 -0.30371,0.008 -0.455554,0.013 -0.161277,0.005 -0.322538,0.0104 -0.483806,0.0155 -1.11043,0.0623 -2.223781,0.0557 -3.331202,0.16198 -1.429018,0.25983 -2.798747,0.76759 -4.194743,1.16027 -1.019002,0.29714 -2.071788,0.48826 -3.064142,0.87096 -0.768357,0.39454 -1.300604,1.09992 -1.832182,1.75812 -0.674137,0.84288 -1.265219,1.73991 -1.757132,2.69942 -0.563248,1.24589 -1.129507,2.49053 -1.694053,3.73593 -0.592386,1.24942 -0.942502,2.58575 -1.264267,3.92419 -0.259968,1.10208 -0.51634,2.20516 -0.700608,3.32275 -0.151858,0.87685 -0.108059,1.76586 -0.06009,2.6492 0.09298,1.10957 0.30713,2.20494 0.484448,3.30326 0.168288,1.29267 0.342886,2.58436 0.54685,3.87195 0.14005,0.9299 0.447611,1.80858 0.831644,2.66181 0.470712,0.84677 1.005967,1.6624 1.583023,2.44073 0.638205,0.85211 1.460185,1.53402 2.265626,2.21989 0.829696,0.71208 1.715807,1.34977 2.588291,2.00677 0.744094,0.5606 1.510939,1.08464 2.340057,1.51055 1.015056,0.49945 2.067251,0.91767 3.097985,1.38331 0.936488,0.45827 1.921203,0.79392 2.920987,1.08172 0.836187,0.23845 1.698445,0.33907 2.560918,0.42161 1.027779,0.0973 2.056582,0.18474 3.086365,0.25794 0.938892,0.0719 1.870969,0.19889 2.811753,0.24752 -1.737225,0.007 0.210841,0.081 0.572037,0.0528 0.797939,-0.17963 1.557708,-0.50281 2.316142,-0.80337 0.958312,-0.37724 1.893056,-0.81074 2.785382,-1.32515 0.681813,-0.37364 1.21154,-0.94569 1.76966,-1.47448 1.009714,-0.97993 2.103057,-1.86585 3.207319,-2.73562 0.637715,-0.59297 1.455994,-0.97448 2.086094,-1.5731 0.02922,-0.0444 0.06368,-0.0857 0.08767,-0.13308 0.161387,-0.31874 0.249242,-0.69048 0.374173,-1.02283 0.2427,-0.64566 0.217938,-0.55798 0.527138,-1.23059 0.575828,-1.19411 1.36829,-2.25974 2.278925,-3.21704 0.05684,-0.10597 0.179218,-0.16813 0.241347,-0.2723 0.0423,-0.0709 0.04439,-0.93082 0.04779,-1.00905 0.05638,-1.13695 0.217363,-2.26528 0.418486,-3.38464 0.228397,-0.91593 0.322459,-1.84041 0.296119,-2.78131 -0.09262,-1.15261 -0.149386,-2.30572 -0.118088,-3.46191 0.07282,-0.67997 2.64e-4,-1.38489 0.139221,-2.05719 0.203075,-0.38453 0.260448,0.18547 0.521099,0.17568 4.031763,-0.1513 2.969321,-0.88623 2.212113,-0.17387 -0.156732,0.14745 -0.292944,0.31529 -0.439418,0.47294 -0.102005,0.71603 -1.114626,0.57178 -1.012621,-0.14426 v 0 c -0.08683,-0.19302 -0.179935,-0.38334 -0.260498,-0.57906 -0.05921,-0.14386 -0.300109,-0.37446 -0.158538,-0.43895 2.056725,-0.9369 2.486035,-1.18431 3.282878,0.23353 0.239247,0.79199 0.301085,1.61925 0.372618,2.44055 0.07876,1.18769 0.116888,2.3786 0.07759,3.56879 -0.04202,1.11898 -0.156233,2.22964 -0.301847,3.33975 -0.14538,1.12688 -0.332557,2.25098 -0.626179,3.34971 -0.236455,0.91764 -0.420587,1.85521 -0.801269,2.72774 -0.49998,1.15458 -1.168032,2.22422 -1.946733,3.21241 -0.576736,0.76658 -1.140661,1.54384 -1.566555,2.40725 -0.590995,1.02817 -1.249958,2.00848 -2.160503,2.78822 -1.14744,1.00205 -2.377935,1.8969 -3.753416,2.56475 -0.130194,0.0637 -0.456586,0.2154 -0.594723,0.30842 -0.414282,0.27897 -0.637257,0.76218 -1.007168,1.08834 -1.095385,1.07709 -2.208556,1.82273 -3.687789,2.29374 -1.043331,0.30524 -2.104657,0.52808 -3.183646,0.66586 -1.035611,0.15874 -2.071601,0.29001 -3.124349,0.23126 -1.044506,0.004 -2.091607,-0.0295 -3.130515,-0.14147 -1.048393,-0.12494 -2.095111,-0.26285 -3.142631,-0.39487 -1.039849,-0.15241 -2.07718,-0.3335 -3.094701,-0.59961 -1.179738,-0.32692 -2.328342,-0.74402 -3.45036,-1.23471 -1.162343,-0.5045 -2.298203,-1.06564 -3.359634,-1.76231 -0.858567,-0.5653 -1.713606,-1.13578 -2.580382,-1.68848 -1.017468,-0.67223 -1.996297,-1.40095 -2.921333,-2.19657 -1.041339,-0.90748 -2.037441,-1.87114 -2.786761,-3.04288 -0.635087,-0.98438 -1.242094,-1.9894 -1.744271,-3.04934 -0.539738,-1.13178 -1.017699,-2.29354 -1.272773,-3.52709 -0.278776,-1.34664 -0.48117,-2.70681 -0.59789,-4.07755 -0.116278,-1.2179 -0.255544,-2.43451 -0.312059,-3.65711 -0.02414,-1.0895 -0.04776,-2.1817 0.07463,-3.26707 0.122195,-1.21587 0.268513,-2.43014 0.435604,-3.64051 0.289413,-1.65908 0.707431,-3.28844 1.429386,-4.81861 0.603061,-1.30893 1.271225,-2.58225 1.987823,-3.83274 0.612922,-1.16434 1.192524,-2.35245 1.973268,-3.41768 0.86796,-1.11422 1.85977,-2.12311 3.087676,-2.84359 1.04791,-0.63052 2.132899,-1.19764 3.272524,-1.64618 1.631972,-0.63153 3.316883,-1.11803 5.048972,-1.38609 1.285293,-0.16391 2.511864,-0.16566 3.802806,-0.0918 1.348266,0.0228 2.701443,-0.0224 4.042002,0.14936 0.981795,0.14255 1.940341,0.38277 2.883662,0.69073 0.82875,0.25124 1.661999,0.48741 2.488534,0.74551 1.133668,0.39491 2.256133,0.82448 3.336644,1.35033 1.240774,0.63976 2.440551,1.3476 3.618227,2.09714 1.00138,0.56079 2.048021,1.04465 2.995478,1.69714 1.14532,0.84524 2.163112,1.82593 2.92626,3.03935 0.521909,0.78583 1.033021,1.58205 1.661924,2.28904 0.748356,0.93676 1.402292,1.94065 1.811835,3.07623 0.367986,1.07061 0.652934,2.1642 0.809184,3.28729 0.132209,0.75375 0.277518,1.50523 0.48565,2.24246 0.26143,1.0633 0.520396,2.12901 0.670465,3.2151 0.145108,1.0468 0.267285,2.09776 0.338968,3.15234 0.06373,1.23196 0.01434,2.4611 -0.184824,3.68067 -0.188799,1.22295 -0.391766,2.44592 -0.797095,3.62012 -0.139298,0.43315 -0.29596,0.87141 -0.387961,1.31811 -0.06509,0.31603 -0.09723,0.69333 -0.140118,1.00911 -0.03109,0.22898 -0.06692,0.45729 -0.100378,0.68593 -0.05783,0.25261 -0.104798,0.50795 -0.173479,0.75783 -0.505225,1.83807 -1.48014,3.50485 -2.517254,5.08679 -0.948063,1.3159 -1.91135,2.59745 -3.021697,3.78385 -0.539221,0.57616 -1.196915,1.22611 -1.834256,1.712 -0.192715,0.14693 -0.408101,0.26144 -0.612153,0.39216 -1.08652,2.3648 -4.43085,0.82824 -3.344334,-1.53656 z"
       inkscape:connector-curvature="0" />
    <path
       style="fill:#ffb380;fill-opacity:1;stroke:none;stroke-width:0.26458332;stroke-opacity:1"
       id="path835"
       d="m 57.705487,408.90928 c -0.729766,-1.58627 -0.5964,-3.37439 -0.349769,-5.05497 0.124873,-0.88117 0.459372,-1.71664 0.595178,-2.5951 0.06061,-0.39206 0.05797,-0.59993 0.07447,-0.99683 0.0078,-1.10407 -0.01069,-2.20837 0.009,-3.31228 0.01606,-0.98949 -0.0079,-1.97898 -0.02442,-2.96832 -0.03032,-0.80673 0.0217,-1.62235 -0.12437,-2.41985 -0.170886,-0.69915 -0.269909,-1.41188 -0.359894,-2.12497 -0.05748,-0.56007 -0.161131,-1.11734 -0.41356,-1.62392 -0.202938,-0.33109 -0.495707,-0.59617 -0.756086,-0.8819 -0.550799,-0.67845 -0.963965,-1.45316 -1.378442,-2.21885 -0.351116,-0.55473 -0.598792,-1.18674 -1.037881,-1.68124 -0.517613,-0.33356 -0.954207,-0.77371 -1.38003,-1.21405 -0.557514,-0.57877 -1.022583,-1.23463 -1.514919,-1.86712 -0.389433,-0.53373 -0.831782,-1.02676 -1.292307,-1.49959 -0.517782,-0.48277 -0.984364,-1.01591 -1.487305,-1.51341 -0.275093,-0.31399 -0.670706,-0.3853 -1.041162,-0.54422 -0.744122,-0.38767 -1.505876,-0.7351 -2.275094,-1.06921 -0.886082,-0.32499 -1.768951,-0.66696 -2.67558,-0.93094 -0.6643,-0.2175 -1.364483,-0.2321 -2.055477,-0.27385 -0.896509,-0.0507 -1.787895,-0.16507 -2.67975,-0.26605 -0.579792,-0.0805 -1.165424,-0.0995 -1.750052,-0.0993 -0.135316,3e-5 -0.541235,0.004 -0.405921,0.005 0.257834,0.002 0.515678,-0.002 0.773517,-0.002 -0.851432,0.005 -1.703337,0.008 -2.554494,0.0308 -0.897795,0.0203 -1.790123,0.12791 -2.683367,0.2122 -0.986076,0.10382 -1.973543,0.1839 -2.964331,0.22444 -0.870566,-0.003 -1.73364,0.0811 -2.597245,0.1777 -0.308889,-0.005 -1.306327,0.22045 -1.562758,0.0661 -0.01329,-0.18784 -0.601083,0.39986 -0.634621,0.42926 -0.488144,0.39051 -0.967439,0.79179 -1.470245,1.16347 -0.559083,0.37442 -1.105858,0.75127 -1.594575,1.2152 -0.614597,0.63761 -1.134081,1.35703 -1.788494,1.95654 0.170013,0.12231 -0.293363,0.19172 -0.291649,0.09 0.0055,-0.32906 0.379185,-0.80331 0.102783,-0.98194 -1.613744,-1.04294 -4.47461,-0.48735 -3.262836,-1.26776 0.02082,-0.005 0.04322,-0.0253 0.06247,-0.0158 0.01761,0.009 0.02352,0.0369 0.01862,0.0559 -0.0518,0.20133 -0.145205,0.39141 -0.18615,0.59522 -0.02906,0.14466 0.04516,0.31084 -0.02225,0.4421 -0.05017,0.0977 -0.03743,-0.21759 -0.03666,-0.3274 0.0013,-0.18551 0.02852,-0.36994 0.04278,-0.55491 0.297007,-1.38572 1.242969,-2.45865 2.18336,-3.46509 1.363435,-1.40371 2.949807,-2.54123 4.665467,-3.46933 1.109018,-0.48777 3.248162,-1.2652 4.325243,-0.32497 0.495202,0.43229 0.441042,1.2385 0.661562,1.85774 -0.115286,0.27774 -0.20152,0.56941 -0.345859,0.83321 -0.283781,0.51867 -0.919203,0.77448 -1.452287,0.9205 0.343612,-0.28398 0.687223,-0.56795 1.030835,-0.85192 0.05037,-0.0669 0.10269,-0.26884 0.151111,-0.20056 0.07162,0.10099 -0.0126,0.24769 -0.03084,0.37016 -0.118492,0.79563 -0.396564,1.51864 -0.680668,2.26731 -1.045954,2.46458 -2.687571,4.57508 -4.491557,6.52483 -0.580396,0.72888 -1.471487,1.23261 -1.95188,2.04749 -0.165994,0.28158 -0.213849,0.52939 -0.305763,0.84418 -0.332093,1.66868 -0.958662,3.23306 -1.743322,4.73488 -0.640664,1.14628 -1.423433,2.20368 -2.036254,3.36555 -0.40306,0.85801 -0.756394,1.74517 -0.981548,2.66729 -0.134481,0.6288 -0.02387,1.26863 0.03557,1.89941 0.0926,0.83761 0.09171,1.68061 0.127233,2.5215 0.03593,0.77764 0.172129,1.54422 0.304725,2.30961 0.131771,0.72599 0.22124,1.45864 0.331112,2.18807 0.145247,0.81247 0.352485,1.61294 0.563334,2.41048 0.226256,0.86469 0.513622,1.70672 0.947734,2.48917 0.541293,0.8989 1.264321,1.66835 1.931456,2.47297 0.657565,0.79928 1.246004,1.65109 1.852819,2.48858 0.390386,0.52025 0.827124,1.00015 1.302274,1.44331 0.57471,0.51076 1.158374,1.01054 1.724817,1.53063 0.456929,0.44865 0.963368,0.8388 1.49325,1.19636 0.525444,0.32948 1.047738,0.66209 1.590109,0.96288 0.621733,0.3355 1.258349,0.63395 1.855911,1.01245 0.558871,0.35054 1.017529,0.82273 1.475452,1.29078 0.348887,0.36477 0.808214,0.53134 1.274561,0.68957 0.900377,0.31999 1.825784,0.56054 2.74968,0.80115 0.980328,0.24359 1.964099,0.47593 2.950553,0.69383 0.863045,0.17141 1.728825,0.35521 2.606329,0.43364 0.729072,0.0348 -0.0649,-0.009 -0.460587,0.0248 -0.07595,0.007 0.150741,0.0228 0.225991,0.035 0.153509,0.0249 0.305491,0.0482 0.460068,0.0651 0.08379,0.0819 0.69336,-0.24652 0.810623,-0.29369 1.950347,-0.70085 1.24388,0.25733 2.659187,3.10962 -0.995744,0.49716 -0.895443,0.28702 -2.364238,0.0434 -0.156985,-0.026 -0.110381,-0.0778 -0.153368,0.0478 -0.59242,0.14784 -1.219774,0.14509 -1.82785,0.17692 -0.159673,0.006 -0.637471,-0.003 -0.479018,0.017 0.210027,0.0272 0.423596,-0.002 0.635315,0.003 0.166934,0.004 -0.333951,-2.6e-4 -0.500927,-1.6e-4 -0.904981,10e-4 -1.801334,0.007 -2.704293,-0.0214 -1.106448,-0.0499 -2.208046,-0.1716 -3.309271,-0.28563 -1.034246,-0.10666 -2.053228,-0.31142 -3.069482,-0.52499 -0.927716,-0.23674 -1.865526,-0.39143 -2.817121,-0.48616 -1.128929,-0.0728 -2.244217,-0.22975 -3.334328,-0.53244 -0.925634,-0.25118 -1.762291,-0.71133 -2.58454,-1.19082 -0.612216,-0.3386 -1.24798,-0.63139 -1.87439,-0.94216 -0.751119,-0.39005 -1.450615,-0.87332 -2.117732,-1.39224 -0.554471,-0.45333 -1.04899,-0.97328 -1.570927,-1.46285 -0.71161,-0.60639 -1.350491,-1.28798 -1.957318,-1.99742 -0.377478,-0.48328 -0.780649,-0.9378 -1.221491,-1.36352 -0.791427,-0.71261 -1.3350738,-1.61908 -1.780707,-2.57428 -0.356803,-0.79603 -0.4532452,-1.63395 -0.4118147,-2.49419 0.036531,-0.18574 0.01769,-0.41488 0.1241955,-0.58349 0.218971,-0.34665 -0.078901,0.22662 0.2253189,-0.12695 0.1387567,-0.16127 0.2366877,-0.35359 0.3550319,-0.53039 0.8203674,-0.75711 1.0627804,-0.70567 2.1216704,-0.66399 1.118255,-0.53653 1.877023,1.04493 0.758768,1.58146 v 0 c -0.154242,0.16096 -0.624509,0.67935 0.02088,0.16568 0.470007,-0.55168 0.250911,-0.21805 0.475267,0.1399 0.0063,-0.0212 -0.0025,-0.0581 0.019,-0.0637 0.01301,-0.003 0.08244,0.0994 0.116969,0.15816 0.142536,0.24235 0.252009,0.5022 0.38458,0.7498 0.291989,0.57088 0.582148,1.14828 0.974172,1.65889 0.444917,0.49102 1.031537,0.82634 1.486629,1.30918 0.632863,0.64065 1.206184,1.33175 1.75038,2.04909 0.317713,0.37527 0.657157,0.68929 1.104524,0.90825 0.607226,0.36347 1.20123,0.74922 1.82027,1.09291 0.595695,0.33955 1.18962,0.68245 1.805199,0.98539 0.583624,0.25567 1.202371,0.38497 1.833373,0.4669 1.045159,0.12465 2.091994,0.24342 3.129031,0.42593 0.987473,0.18215 1.961338,0.4264 2.947181,0.61706 0.923491,0.15789 1.853972,0.257 2.78807,0.32859 1.008557,0.10035 2.017363,0.21033 3.031485,0.23453 0.162105,0.004 0.324194,0.008 0.486315,0.0114 0.160464,0.003 0.641551,-0.005 0.48143,0.006 -0.209373,0.0142 -0.419788,0.01 -0.629555,0.004 -0.16742,-0.005 0.334934,-0.007 0.502423,-0.007 1.716148,-0.008 1.135851,-0.0258 2.183617,0.0204 0.89858,0.0765 1.816015,0.19387 2.615816,0.64195 0.816626,0.52833 0.0413,0.0425 -1.202023,0.003 -0.138637,-0.004 -0.475586,0.11289 -0.366022,0.19795 0.627377,1.08188 1.240113,2.17239 1.882129,3.24566 0.0099,0.0166 0.04977,-0.0198 0.05801,-0.002 0.02077,0.0441 -0.494702,0.20066 -0.52234,0.2045 -0.452689,0.12566 -0.889876,0.282 -1.322964,0.466 -1.075389,0.33386 -1.205143,0.30761 -2.559212,0.3065 -0.161313,-1.3e-4 -0.322379,-0.0126 -0.483568,-0.019 -1.021689,-0.0998 -2.028177,-0.27969 -3.027609,-0.51467 -1.059772,-0.22495 -2.126749,-0.41837 -3.175246,-0.694 -1.170312,-0.33797 -2.319591,-0.75866 -3.342528,-1.43468 -0.626028,-0.44212 -1.205111,-0.93026 -1.713173,-1.50655 -0.29582,-0.26169 -0.665659,-0.39679 -1.015402,-0.57273 -0.64358,-0.32369 -1.266877,-0.68289 -1.880745,-1.05991 -0.575408,-0.35836 -1.14095,-0.73211 -1.711299,-1.09846 -0.683393,-0.45002 -1.344355,-0.9304 -1.939789,-1.4947 -0.611925,-0.5574 -1.226868,-1.11466 -1.777316,-1.73426 -0.487275,-0.54042 -0.987044,-1.06817 -1.50187,-1.58258 -0.756252,-0.76346 -1.484049,-1.55477 -2.147845,-2.40089 -0.809283,-1.01688 -1.601843,-2.05621 -2.165985,-3.23445 -0.49813,-1.05751 -0.929746,-2.14641 -1.17269,-3.29415 -0.202197,-0.93937 -0.358319,-1.88924 -0.396784,-2.85115 -0.04359,-0.62851 -0.204488,-1.22837 -0.386982,-1.83026 -0.2542361,-0.98651 -0.4223245,-1.99278 -0.4022522,-3.01549 0.010573,-0.69663 0.1100196,-1.39722 0.021881,-2.09085 -0.1909795,-1.00134 -0.3877847,-2.00943 -0.2612036,-3.0345 0.034988,-0.22181 0.06047,-0.44534 0.1049653,-0.66544 0.210099,-1.03929 0.6533175,-2.00653 1.0935745,-2.96399 0.557632,-1.19826 1.096556,-2.40596 1.696887,-3.58374 0.674699,-1.31849 1.366995,-2.63446 1.836359,-4.04435 0.554873,-1.58474 1.177171,-3.14257 2.15633,-4.52306 1.383867,-2.00912 2.893052,-3.92385 4.456889,-5.79586 0.16429,-0.19378 0.79286,-0.9418 1.008379,-1.17427 0.09648,-0.10406 0.199524,-0.20199 0.303709,-0.29834 0.05711,-0.0528 0.13503,-0.0852 0.179762,-0.1488 0.09561,-0.13601 0.119101,-0.32044 0.234328,-0.44028 0.32774,-0.34088 0.717922,-0.61566 1.076883,-0.92349 -0.624364,0.21388 -0.561576,0.41953 -0.746567,1.09782 0.231489,0.56381 0.221996,1.30641 0.694467,1.69143 0.461518,0.3761 1.172855,0.20544 1.759282,0.30815 0.05785,-0.0129 0.124246,-0.0718 0.173546,-0.0389 0.03625,0.0242 -0.05801,0.0654 -0.09072,0.0942 -0.191818,0.1689 -0.533195,0.43211 -0.714292,0.57486 -1.367233,1.02752 -2.746429,2.03827 -4.140881,3.02868 -0.507772,0.37039 -0.646374,0.47586 -1.141283,0.82143 -0.06532,0.0456 -0.681838,0.51548 -0.822587,0.48092 -0.03715,-0.009 -0.04463,-0.0621 -0.06694,-0.0932 -0.03575,-0.25702 -0.06549,-0.49536 -0.0753,-0.41532 -0.02193,0.17892 0.02201,0.36306 -0.0085,0.54073 -0.05463,0.31847 -0.189719,0.67626 -0.319848,0.98497 -0.804813,1.32005 -1.37175,0.82931 -3.88114,-0.57758 -0.302832,-0.16978 0.05834,-0.692 0.09736,-1.03698 0.03001,-0.26531 0.06834,-0.33836 0.151354,-0.59603 0.522847,-1.04381 1.289492,-1.92203 2.149482,-2.70598 0.630365,-0.53276 1.286349,-1.03791 2.011746,-1.4366 0.45045,-0.2845 0.886824,-0.58544 1.292306,-0.93291 0.493101,-0.36757 0.948914,-0.7848 1.463433,-1.12457 0.660691,-0.38106 1.369317,-0.64429 2.117607,-0.79996 1.046252,-0.22692 2.11075,-0.38903 3.18417,-0.37935 0.839198,0.0185 1.680448,0.0402 2.504824,-0.15462 1.048263,-0.16291 2.106626,-0.2793 3.169459,-0.2325 0.83633,0.0116 1.669847,-0.06 2.504374,-0.10688 1.428176,-0.0136 2.849539,-0.0435 4.260617,0.21666 0.858483,0.10441 1.718654,0.19152 2.577756,0.29023 0.926076,0.11833 1.854595,0.23542 2.763124,0.45633 1.179946,0.3254 2.350444,0.70302 3.399435,1.35149 0.690872,0.41961 1.357053,0.87899 2.06507,1.27019 0.658418,0.3837 1.291558,0.80582 1.848832,1.32989 0.586121,0.54829 1.142553,1.12891 1.663769,1.73943 0.480208,0.57151 0.961244,1.14221 1.42785,1.72498 0.411763,0.5226 0.820767,1.04821 1.257832,1.55006 0.49566,0.50612 1.085537,0.91307 1.532956,1.46789 0.598514,0.73987 1.116335,1.53671 1.517353,2.40216 0.235726,0.50231 0.421894,1.04379 0.742898,1.49767 0.49921,0.60362 1.021905,1.1943 1.319709,1.93238 0.336461,0.87311 0.526267,1.76884 0.519891,2.70907 0.03468,0.58947 0.132792,1.15502 0.319495,1.71789 0.236664,1.04383 0.330673,2.10091 0.271311,3.17168 -0.01545,1.00679 -0.05503,2.01277 -0.084,3.01914 -0.01111,1.19591 -0.02918,2.39368 -0.152038,3.58436 -0.169852,1.26938 -0.348959,2.53742 -0.553471,3.80175 -0.222909,1.47119 -0.399211,2.98463 -0.962581,4.37136 0.107818,2.08024 -2.834081,2.23272 -2.941902,0.15248 z"
       inkscape:connector-curvature="0" />
    <path
       style="fill:#ffb380;fill-opacity:1;stroke:none;stroke-width:0.26458332;stroke-opacity:1"
       id="path837"
       d="m 35.010198,419.03232 c 0.120962,-0.10955 0.235651,-0.22645 0.362884,-0.32866 0.332843,-0.26736 0.854723,-0.60608 1.190868,-0.84641 0.771187,-0.55136 1.509271,-1.13392 2.235351,-1.74284 1.197576,-1.00599 2.298438,-2.12136 3.531177,-3.08506 0.801936,-0.60201 1.740927,-0.96314 2.579711,-1.5042 0.928346,-0.61064 1.649288,-1.47038 2.38701,-2.28856 0.75189,-0.86153 1.572141,-1.65879 2.320081,-2.52372 0.485317,-0.55423 0.832027,-1.20465 1.160928,-1.85859 0.370123,-0.78875 0.788797,-1.55211 1.222915,-2.30693 0.445302,-0.65684 0.66625,-1.39255 0.838475,-2.15651 0.153922,-0.87107 0.396214,-1.72134 0.654952,-2.5659 0.2348,-0.71833 0.286991,-1.47182 0.307452,-2.22176 0.0019,-1.43036 -0.04184,-2.86026 -0.0652,-4.29034 0.0083,-1.21575 -7.7e-5,-2.43162 -0.225706,-3.62915 -0.14188,-0.70705 -0.513294,-1.33182 -0.794776,-1.98757 -0.01453,-0.04 -0.126895,-0.31521 -0.115327,-0.38971 0.003,-0.0196 0.04044,0.0144 0.05906,0.008 2.179624,-0.80564 3.526859,-2.65151 3.661482,-1.06535 0.031,0.36058 -0.124759,0.7331 -0.122947,1.08189 2.38e-4,0.0461 0.07795,-0.1092 0.113152,-0.0795 0.07408,0.0626 0.07988,0.17709 0.111048,0.26893 0.0568,0.16739 0.101708,0.33859 0.152564,0.50788 0.57762,2.31829 0.857877,4.69077 1.043022,7.068 0.115726,2.53246 0.154514,5.08751 -0.187412,7.60602 -0.06664,0.49087 -0.16197,0.97742 -0.242957,1.46612 -0.451093,2.29027 -1.30089,4.46789 -2.275443,6.57951 -0.44527,0.91173 -0.907994,1.82518 -1.529953,2.63212 -0.417129,0.54119 -0.509746,0.60266 -0.991306,1.08362 -1.062104,0.9463 -2.259375,1.72369 -3.493903,2.42342 -0.534016,0.26119 -1.073605,0.58184 -1.672783,0.66967 -0.06015,0.009 -0.141406,0.055 -0.182112,0.01 -0.790242,-0.87654 -1.508991,-1.81498 -2.263484,-2.72246 0.05288,-0.0381 0.102907,-0.0806 0.158628,-0.11441 0.120314,-0.0731 0.247137,-0.0882 0.368985,-0.14403 0.266396,-0.12203 0.510794,-0.28727 0.765993,-0.43126 -0.02371,-0.0136 -0.08561,-0.0176 -0.07109,-0.0408 0.05006,-0.0798 0.14096,-0.12503 0.213111,-0.18559 0.12808,-0.10749 0.257549,-0.21334 0.387533,-0.31852 0.606383,-0.49071 1.216171,-0.9773 1.822863,-1.46764 1.534744,-1.16893 2.891533,-2.52721 4.149317,-3.98372 1.07211,-1.31897 2.141982,-2.64007 3.198733,-3.97142 0.800823,-1.03269 1.64437,-2.02778 2.548766,-2.97091 0.80192,-0.80742 1.65544,-1.56934 2.662507,-2.10859 1.543275,-0.59839 0.868429,-0.1253 2.933875,2.36889 0.02638,0.0318 -0.377047,0.30551 -0.407159,0.3256 -0.101558,0.0665 -0.31014,0.32091 -0.304679,0.19962 0.04009,-0.89045 -2.64e-4,-1.85287 0.414631,-2.64171 0.146045,-0.2776 0.42108,0.46892 0.589167,0.73375 0.462677,0.72899 0.599276,1.62462 0.766101,2.45116 0.291073,2.16026 -0.03896,4.3382 -0.751605,6.388 -0.149757,0.43075 -0.336166,0.84788 -0.504248,1.27182 -0.864989,1.98188 -2.006915,3.49355 -3.616603,4.90993 -0.809921,0.67986 -1.710311,1.21766 -2.739189,1.47074 -1.515234,0.33742 -0.500673,0.26164 -2.332714,-2.60417 -0.02439,-0.0382 0.07239,-0.0772 0.06141,-0.12118 -0.0079,-0.0316 -0.04978,0.0796 -0.07647,0.0609 -0.0475,-0.0333 0.02199,-0.42172 0.0301,-0.48637 0.278863,-1.8028 1.005604,-3.47336 1.825387,-5.08691 0.838282,-1.55311 1.879594,-2.98158 2.923481,-4.40011 0.330788,-0.32798 0.780706,-1.33175 1.185641,-1.53456 0.06059,1.34294 -0.06041,0.0987 3.199847,1.34617 0.0034,10e-4 -0.06106,0.15727 -0.07387,0.14549 -0.02193,-0.0202 0.03775,-0.11244 0.03328,-0.083 -0.01273,0.084 -0.03888,0.16551 -0.05833,0.24826 -0.38759,1.64172 -1.391007,3.02721 -2.359744,4.37296 -1.46123,1.91664 -3.180485,3.63195 -5.143574,5.03436 -0.348906,0.24925 -0.714259,0.47463 -1.071385,0.71195 -1.249731,0.81752 -2.630522,1.38387 -3.997624,1.96679 -0.467842,0.15807 -0.750681,0.51677 -1.086739,0.85759 -0.565576,0.50017 -1.274956,0.77415 -1.961957,1.06223 -0.79643,0.34251 -1.593205,0.68393 -2.39689,1.00907 -0.715285,0.30025 -1.415912,0.62083 -2.178089,0.78018 -0.756836,0.10008 -1.572895,0.14483 -2.215743,-0.30179 0.472422,-1.02228 0.912149,-2.06031 1.417265,-3.06683 0.0051,-0.0101 0.282802,0.0992 0.248205,0.12913 -0.02551,0.0221 -0.06191,-0.0328 -0.09564,-0.0331 -0.342501,-0.004 -0.684906,0.0137 -1.027359,0.0206 0.300546,-0.39228 0.915083,-0.74352 1.318043,-1.00839 0.628383,-0.41304 1.154444,-0.73197 1.79972,-1.13143 2.000261,-1.22009 4.001288,-2.44091 5.889927,-3.82988 0.443838,-0.35809 0.912865,-0.72644 1.207516,-1.2275 0.270398,-0.45982 0.374962,-1.01061 0.507597,-1.51897 0.340673,-1.611 0.900973,-3.15637 1.480857,-4.69287 0.503039,-1.35495 0.981097,-2.71891 1.438982,-4.0897 0.267528,-0.72971 0.435925,-1.47108 0.416306,-2.2481 -0.04434,-0.60024 -0.07228,-1.20258 -0.296691,-1.76647 -0.302754,-0.67403 -0.631989,-1.33516 -0.948872,-2.00259 -0.400233,-0.81985 -0.663284,-1.69313 -0.980371,-2.54554 -0.216255,-0.67973 -0.550654,-1.30581 -0.908982,-1.91869 -0.336936,-0.54641 -0.688631,-1.0831 -1.073422,-1.59702 -0.308536,-0.43148 -0.701466,-0.79307 -1.077585,-1.16416 -0.522422,-0.54669 -1.107366,-1.02037 -1.694137,-1.49392 -0.557469,-0.41757 -1.077976,-0.88089 -1.613805,-1.32504 -0.475718,-0.43076 -0.96556,-0.84411 -1.456029,-1.2579 -0.614087,-0.51722 -1.229399,-1.02922 -1.879168,-1.50143 -0.495427,-0.36326 -1.048989,-0.63264 -1.597383,-0.90486 -0.726691,-0.37586 -1.443653,-0.77142 -2.177904,-1.13232 -0.524788,-0.29816 -1.082633,-0.50217 -1.669979,-0.63118 -0.675346,-0.11333 -1.348721,-0.23924 -2.023435,-0.35691 -0.503499,-0.0658 -1.009854,-0.12613 -1.518433,-0.12524 -0.122902,2.2e-4 -0.490839,-0.004 -0.368602,0.009 0.22796,0.0238 0.458113,0.0163 0.687168,0.0244 -0.959538,-0.0434 -1.888035,0.14355 -2.81509,0.36268 -1.188479,0.36413 -2.408026,0.5868 -3.637243,0.75486 -0.66503,0.0815 -1.339688,0.0698 -1.981462,0.27501 -0.889318,0.41652 -1.662486,1.03311 -2.49537,1.54694 -0.582921,0.35372 -1.203363,0.64088 -1.844153,0.8723 -0.487868,0.26499 -0.879946,0.70766 -1.29575,1.07306 -0.709794,0.59118 -1.477695,1.10537 -2.362586,1.38482 -1.314619,0.39984 -0.513263,0.27461 -2.242209,-2.37356 -0.04883,-0.0748 0.63991,-0.49079 0.708104,-0.53197 0.732231,0.72027 1.523877,1.38476 2.196692,2.16083 0.05381,0.0621 -0.09978,0.23631 -0.163466,0.18442 -0.829709,-0.67608 -1.635935,-1.39526 -2.32626,-2.21315 -0.05165,-0.0612 0.882749,-0.88318 0.95664,-0.94713 1.073167,-0.8987 2.339788,-1.47923 3.630658,-1.98732 1.200965,-0.41373 2.446496,-0.66993 3.6834,-0.94816 1.338612,-0.3144 2.693128,-0.54147 4.058267,-0.70006 1.562219,-0.1698 3.138172,-0.15494 4.701614,-0.0132 0.617791,0.0594 1.237144,0.0815 1.857417,0.0819 0.142756,9e-5 0.570979,-0.004 0.428268,-1.2e-4 -0.163251,0.004 -0.326604,10e-4 -0.489908,0.002 1.098026,-0.0735 2.155703,0.0415 3.219807,0.27772 0.635725,0.1944 1.280904,0.35081 1.931845,0.48473 0.873278,0.15549 1.708941,0.45165 2.528557,0.78296 0.848891,0.31405 1.616932,0.77749 2.337924,1.31809 0.627568,0.47283 1.260742,0.93841 1.898608,1.39733 0.598045,0.39749 1.222221,0.7556 1.85203,1.10022 0.653722,0.32101 1.280957,0.67932 1.874816,1.10085 0.760281,0.56108 1.407621,1.25196 2.144562,1.84049 0.695047,0.45745 1.410528,0.86561 2.040022,1.41492 0.684633,0.63382 1.055878,1.47475 1.395852,2.32292 0.292862,0.74214 0.560967,1.49256 0.790318,2.25673 0.129741,0.37476 0.161949,0.78435 0.346615,1.13872 0.206518,0.24069 0.403543,0.49049 0.589881,0.74738 0.198244,0.21111 0.363455,0.4186 0.470439,0.68873 0.217115,0.88805 -0.07792,1.03021 -0.667586,1.65047 0.05983,0.72999 -0.972539,0.81461 -1.032369,0.0846 v 0 c -0.268709,-0.0937 -0.652077,-0.37444 -0.951122,-0.13208 -0.05155,0.0418 -0.03709,0.12741 -0.05564,0.19112 -0.02617,0.006 -0.05324,0.0255 -0.0785,0.0167 -0.232622,-0.0814 -0.528601,-0.55681 -0.690417,-0.73215 -0.247362,-0.33334 -0.477623,-0.67963 -0.69804,-1.03125 -0.316055,-0.51065 -0.623736,-1.02884 -0.842272,-1.59047 -0.283207,-0.73432 -0.500332,-1.48858 -0.69324,-2.25137 -0.106801,-0.37287 -0.137173,-0.56567 -0.503698,-0.73131 -0.812538,-0.4288 -1.622798,-0.87098 -2.323544,-1.47326 -0.6311,-0.56843 -1.192517,-1.20125 -1.814663,-1.77779 -0.459396,-0.33597 -0.981856,-0.55419 -1.505993,-0.76988 -0.826039,-0.38136 -1.615297,-0.83018 -2.316493,-1.4158 -0.596363,-0.45953 -1.188873,-0.92499 -1.797105,-1.36847 -0.547759,-0.34252 -1.143635,-0.58445 -1.755397,-0.79019 -0.739997,-0.25566 -1.494086,-0.46531 -2.235377,-0.71712 -0.521097,-0.17998 -1.042189,-0.3973 -1.594805,-0.45284 -0.358971,-0.026 -0.718638,10e-4 -1.078259,0.009 -0.124553,0.003 -0.497899,-0.002 -0.373672,0.008 0.170964,0.0129 0.342898,0.002 0.514345,0.003 -1.271852,0.002 -2.542617,-0.002 -3.81376,-0.0498 -0.134093,-3.4e-4 -0.886552,-0.004 -1.016902,0.004 -0.148664,0.01 0.593469,-0.0277 0.446908,-0.001 -0.171376,0.0312 -0.348353,0.007 -0.522377,0.0147 -0.54932,0.0243 -0.581737,0.0359 -1.140992,0.0926 -1.303481,0.16901 -2.600592,0.38364 -3.903766,0.55539 -1.054414,0.14892 -2.123948,0.28824 -3.120593,0.68259 -1.082437,0.41439 -2.126754,0.92047 -3.187207,1.38718 -0.05897,0.0286 -1.003495,0.48382 -1.016435,0.47578 -0.931142,-0.57896 -1.752755,-1.31919 -2.658724,-1.9368 -0.02834,-0.0193 -0.04202,0.0542 -0.06303,0.0813 0.772411,0.66651 1.544823,1.33303 2.317234,1.99954 0.08514,-0.0572 0.17453,-0.12151 0.178392,-0.11401 0.01208,0.0234 -0.04726,0.0636 -0.06541,0.0445 -2.18781,-2.30545 -1.115847,-2.61038 -2.288152,-2.20321 0.02167,-0.14216 0.312661,-0.35439 0.394324,-0.42627 0.376178,-0.33112 0.771798,-0.63946 1.17455,-0.93738 0.663162,-0.44878 1.339185,-0.88102 2.0429,-1.26355 0.366502,-0.24062 0.587044,-0.67049 0.95469,-0.91492 0.972927,-0.84134 2.041193,-1.57781 3.216888,-2.1079 0.785834,-0.3281 1.595822,-0.56888 2.424841,-0.7628 1.134398,-0.29277 2.24736,-0.66664 3.396122,-0.90489 1.203347,-0.28225 2.421827,-0.50973 3.662786,-0.51452 1.362631,0.0185 2.716792,0.0222 4.037103,0.40486 0.723124,0.16965 1.451753,0.318 2.167768,0.51612 0.835536,0.24355 1.653664,0.5431 2.429944,0.94007 0.705016,0.38859 1.378016,0.82681 2.074412,1.22946 0.700908,0.37617 1.427301,0.7086 2.090529,1.15173 0.791866,0.57005 1.504378,1.22649 2.126776,1.98034 0.315344,0.36273 0.61935,0.72165 1.059606,0.93774 0.663639,0.42749 1.326145,0.86163 1.927593,1.37521 0.677053,0.58738 1.298361,1.23122 1.828054,1.95663 0.40332,0.47909 0.826799,0.94005 1.221235,1.42671 0.500634,0.62806 0.964993,1.28482 1.352994,1.98941 0.455033,0.80011 0.830389,1.6383 1.097325,2.5209 0.261943,0.77758 0.554733,1.5447 0.872807,2.30108 0.330433,0.79877 0.663988,1.59749 0.945873,2.41493 0.234584,0.86446 0.36422,1.74047 0.374552,2.63778 0.0497,1.10306 0.0314,2.21196 -0.19498,3.29764 -0.32463,1.52508 -0.789037,3.01262 -1.335643,4.47276 -0.544433,1.47962 -1.119952,2.9475 -1.656551,4.43003 -0.569888,1.61167 -1.084752,3.26168 -2.191141,4.60621 -0.255231,0.29497 -0.495583,0.6035 -0.765691,0.8849 -1.640689,1.7093 -3.678087,2.97539 -5.835957,3.92335 -1.514374,0.59801 -3.05395,1.15373 -4.692192,1.27182 -0.397066,0.0171 -0.79379,0.0467 -1.191197,0.0514 -0.05154,5.2e-4 -0.09919,-0.0406 -0.150484,-0.0355 -0.01738,0.002 0.02622,0.0322 0.01992,0.0484 -0.01278,0.0331 -0.129617,0.045 -0.139256,0.0469 0.389726,-1.02787 0.779452,-2.05574 1.169181,-3.08362 -0.02363,-0.0252 -0.06266,-0.042 -0.07086,-0.0755 -0.01341,-0.0548 0.357074,-0.0777 0.224317,-0.0876 -0.887077,-0.0663 -1.001742,-0.13895 -0.712042,0.0129 0.04144,0.0169 0.07823,0.0573 0.122875,0.0541 0.311185,-0.0219 0.632847,-0.45385 0.905902,-0.56152 0.88093,-0.5548 1.818995,-1.00923 2.826105,-1.28774 0.284845,-0.0757 0.95645,-0.29932 1.253257,-0.24969 0.08999,0.015 0.02371,0.12003 0.01429,0.14954 -0.007,0.0237 -0.04507,0.0765 -0.02085,0.0713 0.03167,-0.007 0.03914,-0.0517 0.05662,-0.079 0.04823,-0.0754 0.09178,-0.15363 0.140385,-0.22873 0.178766,-0.27624 0.275,-0.41654 0.494072,-0.67344 0.103132,-0.12094 0.214569,-0.23455 0.321853,-0.35183 1.010819,-0.96473 2.166135,-1.75739 3.243418,-2.64446 1.941206,-1.61908 3.78823,-3.34169 5.613085,-5.09033 0.990904,-0.9189 1.965354,-1.89126 3.071154,-2.67015 0.02241,-0.0212 0.05402,-0.0358 0.06725,-0.0637 0.144748,-0.30513 0.05618,-0.22686 0.164438,-0.43559 0.02527,-0.0487 0.03088,-0.15436 0.08426,-0.14151 3.385328,0.81463 3.317211,-0.17504 3.287287,1.23101 -0.0036,0.78716 -0.446426,1.50097 -0.717503,2.21711 -0.700902,1.55237 -1.475747,3.06969 -2.359723,4.52683 -0.823365,1.41595 -1.612646,2.85097 -2.43505,4.26741 -0.23889,0.43655 -0.458166,0.90822 -0.764863,1.30315 -0.03382,0.0435 -0.09395,0.14395 -0.130045,0.10226 -2.240437,-2.58807 -0.947431,-2.88941 -2.301188,-2.46499 0.04157,-0.10183 0.337477,-0.24174 0.411094,-0.28791 0.321112,-0.20139 0.631399,-0.41916 0.910482,-0.67708 0.287266,-0.30588 0.383786,-0.38361 0.622109,-0.74859 0.624168,-0.95589 1.015643,-2.04689 1.463466,-3.089 0.733499,-1.92559 1.379781,-3.88455 1.629746,-5.94044 0.0329,-0.21644 0.0615,-0.43359 0.09869,-0.64934 0.02146,-0.12449 0.02408,-0.25642 0.07719,-0.37104 0.183002,-0.3949 0.321892,0.90427 0.444484,0.24073 0.598966,-3.24196 0.862216,-3.32039 -0.125487,-2.63544 -0.474265,0.2897 -1.813568,-1.64398 2.522892,2.39175 0.01387,0.0129 0.05546,0.004 0.05194,0.023 -0.0092,0.0485 -0.05327,0.083 -0.07991,0.12449 -0.63274,0.67024 -1.348571,1.25913 -1.988058,1.92333 -0.783775,0.74673 -1.610183,1.47522 -2.114762,2.45146 -0.905967,1.58248 -1.804537,3.17609 -2.985682,4.57694 -1.438614,1.72018 -3.015523,3.32081 -4.865812,4.60421 -1.390814,0.92386 -2.829862,1.80315 -4.50279,2.09227 0.159692,-0.21405 0.171926,-0.31017 0.407561,-0.39743 0.09316,-0.0345 -0.358947,0.40976 -0.294238,0.30196 -0.849767,-0.83958 -1.717712,-1.66116 -2.549305,-2.51875 -0.02439,-0.0252 -0.0105,-0.0736 0.0051,-0.10503 0.267149,-0.53955 0.916058,-0.84156 1.351486,-1.20654 1.037762,-0.65723 2.124392,-1.22293 3.216825,-1.78275 0.20877,-0.1367 0.315243,-0.18014 0.467963,-0.38282 0.450234,-0.5975 0.572358,-1.3879 0.832649,-2.06889 0.600205,-1.90742 1.156518,-3.83551 1.435185,-5.82049 0.05008,-0.40512 0.112538,-0.8089 0.150246,-1.21535 0.215133,-2.31888 0.0832,-4.6527 0.03494,-6.97536 -0.07487,-2.39812 -0.210508,-4.81152 0.05543,-7.20242 0.01175,-0.0717 0.299916,-1.77683 0.401222,-1.73754 0.17285,0.067 -0.04308,0.36832 -0.05933,0.553 -0.0063,0.0712 0.0064,0.14421 -0.0081,0.21416 -0.0026,0.0127 -0.02535,0.005 -0.03801,0.008 -0.818107,-0.99635 2.2263,-1.32046 3.422375,-1.80152 0.03959,-0.0159 0.528174,0.55422 0.540636,0.58902 0.583338,0.86885 1.03849,1.81536 1.349307,2.81599 0.411704,1.44873 0.635508,2.93772 0.666887,4.44546 0.041,1.67027 0.0205,3.3519 -0.375407,4.98569 -0.216656,0.77789 -0.509516,1.53656 -0.67143,2.32702 -0.10826,0.9466 -0.224142,1.8978 -0.517414,2.80878 -0.330012,1.0495 -0.740039,2.07056 -1.357659,2.98829 -0.442444,0.68856 -0.857316,1.3946 -1.269185,2.10182 -0.459901,0.79752 -0.891225,1.61304 -1.418484,2.36975 -0.726848,0.99156 -1.520135,1.93326 -2.363907,2.82756 -1.006387,1.04724 -2.063546,2.06543 -3.335208,2.78869 -0.473786,0.2374 -0.945414,0.46019 -1.442537,0.64495 -0.0122,0.005 -0.488662,0.16546 -0.543547,0.19314 -0.07126,0.0359 -0.133363,0.0877 -0.200046,0.13156 -0.373898,0.40301 -0.659095,0.84092 -0.98148,1.28646 -0.624469,0.86301 -1.301001,1.68765 -2.106906,2.39033 -0.331142,0.25876 -0.649578,0.53466 -0.993428,0.77627 -1.186807,0.83393 -2.598076,1.52445 -4.06159,1.6666 -0.223186,0.0217 -0.448442,-0.005 -0.672663,-0.008 -1.750854,0.87683 -2.990882,-1.59925 -1.240028,-2.47608 z"
       inkscape:connector-curvature="0" />
    <path
       style="fill:#ffb380;fill-opacity:1;stroke:none;stroke-width:0.26458332;stroke-opacity:1"
       id="path843"
       d="m 18.822649,414.37271 c 1.427397,-0.0488 2.822,0.36826 4.195514,0.70851 1.208948,0.33965 2.449076,0.39874 3.695707,0.38695 1.324269,-0.0618 1.482008,-0.0805 2.961979,-0.095 0.983353,-0.021 1.944309,-0.25153 2.914629,-0.39091 0.743407,-0.0914 1.491297,-0.10046 2.239904,-0.0809 0.359476,0.009 0.730078,0.0936 1.087908,0.13364 -0.634555,-0.0287 1.529033,0.0882 0.903349,-0.009 -0.183677,-0.0284 -0.372843,0.002 -0.557141,-0.0223 -0.0039,-5.3e-4 0.554897,-0.0267 0.555463,-0.0267 0.561668,-0.0179 1.102276,-0.1648 1.64868,-0.27777 0.490175,-0.0819 0.984591,-0.12655 1.472316,-0.22262 0.598194,-0.17615 1.209839,-0.28239 1.828525,-0.35139 0.581573,-0.0436 1.163674,-0.034 1.746753,-0.0281 0.08166,7.9e-4 0.32626,0.008 0.24471,0.0119 -0.364747,0.0196 -0.913865,-0.003 -0.421788,0.0145 0.20429,0.023 0.435388,-0.0223 0.625777,0.0728 0.01188,0.005 0.03446,0.002 0.03563,0.0147 0.0016,0.0176 -0.02021,0.0289 -0.03034,0.0433 0.458057,0.9644 0.997061,1.89437 1.374174,2.8932 0.01394,0.037 -0.777883,0.21334 -0.855149,0.23055 -1.092724,0.28428 -2.149679,0.69111 -3.225265,1.03407 -2.021187,0.61126 -4.135406,0.73404 -6.229221,0.49895 -1.190974,-0.17854 -2.390076,-0.26703 -3.593401,-0.27938 0.164856,-0.003 0.619215,0.0997 0.494572,-0.008 -0.128148,-0.11097 -0.339024,-0.005 -0.508537,-0.004 -0.713705,0.005 -1.426599,0.046 -2.139479,0.0761 -1.708324,0.0983 -3.400488,-0.0901 -5.084517,-0.34813 -0.837412,-0.12465 -1.661474,-0.30801 -2.477319,-0.53129 -0.425645,-0.11094 -0.828512,-0.29324 -1.255835,-0.39616 -0.340495,-0.0836 -0.547889,-0.61994 -0.552207,-0.92334 -0.0031,-0.22053 0.06808,-0.43581 0.10212,-0.65372 -0.293436,-0.89375 0.970516,-1.30872 1.263952,-0.41498 v 0 c 0.04776,-0.18331 0.114547,-0.3627 0.143283,-0.54994 0.01824,-0.11883 -0.02006,-0.24155 -0.0035,-0.36063 0.0441,-0.3179 0.366539,-0.29822 0.598406,-0.23843 0.315824,0.0821 0.620171,0.16433 0.950057,0.10961 0.90465,-0.0548 1.811048,-0.0659 2.71329,0.0412 0.832933,0.0927 1.662682,0.22223 2.497175,0.29968 0.178237,0.0165 0.420092,-0.0971 0.535538,0.0398 0.103584,0.12274 -0.320805,0.0164 -0.481206,0.0246 1.413566,0.0221 2.818948,-0.0881 4.232704,-0.0937 1.27785,0.002 2.548393,0.10265 3.823234,0.17604 0.205653,-8e-4 0.41152,-0.0116 0.616956,-0.002 0.150471,0.007 -0.601967,0.0214 -0.451787,0.01 0.208989,-0.0162 0.419312,-0.009 0.628409,-0.0235 0.729187,-0.0513 1.447142,-0.18829 2.158458,-0.35231 1.385549,-0.32204 2.788536,-0.7377 4.224864,-0.66774 0.09302,0.0155 0.187801,0.0228 0.279072,0.0466 0.06985,0.0182 0.15426,0.0395 0.191262,0.10151 1.316003,2.20402 2.52989,2.21759 1.508979,2.94614 -0.36735,0.20175 -0.773207,0.31066 -1.189325,0.35447 -0.636834,0.0583 -0.09594,0.0157 -1.339469,0.0367 -0.08254,0.001 -0.330013,0.007 -0.247486,0.009 1.280691,0.0336 0.373642,-0.024 0.10556,0.002 -0.484002,-0.002 -0.967673,0.0219 -1.43933,0.14087 -0.512506,0.12493 -1.029719,0.22154 -1.554004,0.2821 -0.629597,0.10096 -1.229667,0.31518 -1.861907,0.4066 -1.013114,0.13494 -2.040583,0.0961 -3.050649,-0.052 -0.266845,-0.0181 -0.328964,-0.0281 -0.592992,-0.0241 -0.09343,0.001 -0.373507,0.01 -0.280085,0.012 1.253352,0.0287 0.129164,-0.0381 -0.102553,0.0605 -1.050745,0.20339 -2.092539,0.46034 -3.155084,0.59873 -1.689497,0.18948 -3.405701,0.21719 -5.0955,0.0154 -1.361995,-0.20074 -2.711094,-0.48047 -4.057122,-0.76813 -1.205691,-0.29485 -2.498565,-0.61423 -3.527765,-1.34567 -0.143628,-0.10208 -0.26343,-0.23409 -0.395145,-0.35114 -1.371579,-0.81759 -0.215335,-2.75729 1.156244,-1.9397 z"
       inkscape:connector-curvature="0" />
    <path
       style="fill:#ffb380;fill-opacity:1;stroke:none;stroke-width:0.26458332;stroke-opacity:1"
       id="path845"
       d="m 54.181896,390.78163 c -0.864048,-0.62111 -1.36838,-1.58772 -1.988053,-2.42821 -0.380807,-0.49028 -0.908164,-0.81679 -1.413592,-1.16187 -0.709181,-0.48132 -1.331513,-1.07175 -1.968225,-1.64169 -0.632865,-0.54428 -1.199658,-1.16285 -1.850443,-1.68595 -0.412538,-0.31333 -0.830162,-0.61833 -1.233503,-0.94322 -0.320503,-0.27587 -0.68516,-0.48186 -1.057069,-0.67777 -0.692748,-0.33397 -1.348017,-0.72202 -1.957311,-1.19114 -0.599207,-0.46439 -1.114962,-1.0216 -1.612307,-1.59043 -0.234429,-0.29703 -0.576286,-0.44982 -0.896773,-0.63539 -0.536774,-0.29244 -1.082048,-0.56584 -1.636919,-0.82184 -0.513033,-0.21149 -1.062088,-0.30871 -1.605137,-0.40844 -0.730578,-0.12517 -1.469359,-0.20184 -2.210221,-0.22075 -0.274857,-0.0398 -1.556636,0.0757 -0.115133,0.007 0.124018,-0.006 -0.248254,-0.007 -0.372415,-0.007 -0.283596,5e-4 -0.488309,0.0136 -0.77249,0.0272 -1.204339,0.0836 -2.411587,0.0608 -3.617881,0.0661 -0.235612,-0.0395 -1.763011,0.0541 -0.298693,-0.002 0.124716,-0.005 -0.249595,-0.005 -0.374402,-0.004 -0.313166,0.002 -0.373726,0.0106 -0.685794,0.031 -0.778542,0.0977 -1.544664,0.26913 -2.316983,0.40473 -0.590902,0.11542 -1.201978,0.11738 -1.787621,0.25856 -0.602212,0.22872 -1.124931,0.62992 -1.678759,0.95462 -0.769671,0.44253 -1.62164,0.69308 -2.498375,0.80261 -0.58417,0.0522 -0.965069,0.55339 -1.359641,0.93649 -0.900514,0.83779 -1.74139,1.7717 -2.786143,2.43768 -0.190672,0.12154 -0.395824,0.21872 -0.593736,0.32808 -0.625169,0.31029 -0.896574,0.31631 -1.524974,0.10412 -0.152144,1.02293 -1.598786,0.80777 -1.446641,-0.21516 v 0 c -0.07765,-0.20318 -0.190489,-0.3962 -0.232936,-0.60952 -0.120582,-0.60598 0.121164,-1.18554 0.419239,-1.69258 0.13212,-0.18062 0.251572,-0.37122 0.396359,-0.54185 0.813324,-0.95849 1.898619,-1.65858 2.842739,-2.47448 0.826302,-0.60179 1.669892,-1.21627 2.611504,-1.62379 0.595004,-0.21481 1.216113,-0.3259 1.81758,-0.52096 0.706404,-0.3076 1.344256,-0.73392 2.024346,-1.0933 0.732364,-0.33307 1.487645,-0.5893 2.288513,-0.69986 0.794249,-0.12882 1.58872,-0.25457 2.371723,-0.44287 0.469254,-0.0997 0.953613,-0.21731 1.435012,-0.23736 0.807998,-0.0337 1.61653,-0.0301 2.424592,-0.01 0.147579,0.004 0.295134,0.01 0.442737,0.013 0.141428,0.003 0.565015,-0.008 0.424339,0.007 -0.194305,0.0206 -0.391901,-0.0116 -0.586078,0.0101 -0.131795,0.0147 0.265107,0.008 0.397692,0.0109 0.12791,0.003 0.255839,0.006 0.383776,0.005 0.125185,-1.8e-4 0.250333,-0.004 0.375499,-0.007 1.224505,-0.0527 2.452023,-0.2011 3.677216,-0.0566 0.855403,0.11207 1.696268,0.28623 2.532549,0.49792 0.813044,0.18651 1.61984,0.4125 2.358486,0.81117 0.648618,0.34647 1.270174,0.74134 1.850107,1.19461 0.467383,0.35284 0.923758,0.71947 1.348615,1.12331 0.42132,0.38444 0.847537,0.76479 1.33296,1.0684 0.603377,0.39035 1.198309,0.79341 1.74742,1.25881 0.337867,0.27447 0.670787,0.5581 1.040971,0.78905 0.526357,0.30116 1.065599,0.58482 1.544799,0.961 0.727789,0.59513 1.412563,1.23887 2.049724,1.93079 0.466273,0.51447 0.945923,1.01973 1.497042,1.44543 0.686102,0.54112 1.401244,1.05521 1.986119,1.71077 0.793982,0.91507 1.564531,1.92789 1.737862,3.16114 0.910913,2.03736 -1.97036,3.32559 -2.881272,1.28822 z"
       inkscape:connector-curvature="0" />
    <path
       style="fill:#ffb380;fill-opacity:1;stroke:none;stroke-width:0.26458332;stroke-opacity:1"
       id="path847"
       d="m 53.013802,392.99425 c -0.89177,-0.9703 -1.456094,-2.18988 -2.057648,-3.35048 -0.462375,-0.85229 -0.909172,-1.71153 -1.235808,-2.62582 -0.152437,-0.50861 -0.312738,-0.95662 -0.710872,-1.31791 -0.606825,-0.53094 -1.2641,-0.99756 -1.880537,-1.51733 -0.674002,-0.58611 -1.2706,-1.06932 -1.633844,-1.90289 -0.107931,-0.42379 -0.178022,-1.00053 0.208518,-1.33401 0.17767,-0.15329 0.426196,-0.19649 0.639297,-0.29474 0.106312,-0.4378 0.725458,-0.28745 0.619146,0.15035 v 0 c 0.18461,-5e-4 0.373531,0.0382 0.553829,-0.002 0.2721,-0.0599 0.334883,-0.38591 0.621352,-0.35781 0.70362,0.22865 1.225124,0.80861 1.809602,1.2368 0.816803,0.70349 1.579864,1.47495 2.085853,2.43959 0.268259,0.55899 0.45062,1.1496 0.728345,1.70272 0.524648,0.77435 1.103794,1.51305 1.55383,2.33635 0.673277,1.19893 1.333108,2.47825 1.386477,3.88012 0.676394,1.90037 -2.011145,2.85694 -2.68754,0.95656 z"
       inkscape:connector-curvature="0" />
    <path
       style="fill:#ffb380;fill-opacity:1;stroke:none;stroke-width:0.26458332;stroke-opacity:1"
       id="path849"
       d="m 40.673692,379.47774 c -1.303917,-0.26912 -2.40093,-1.0774 -3.572039,-1.66822 -0.389803,-0.13788 -0.434682,-0.18213 -0.827826,-0.2221 -0.110837,-0.0113 -0.444453,0.008 -0.334137,-0.008 0.147873,-0.0208 0.311944,0.0534 0.447924,-0.008 0.101827,-0.0462 -0.222287,-0.0256 -0.332579,-0.044 -0.120176,-0.0201 -0.238972,-0.0477 -0.358455,-0.0716 -0.544811,-0.19851 -0.270457,-0.0636 -0.811051,-0.42839 -0.843796,0.43989 -1.46589,-0.75342 -0.622091,-1.1933 v 0 c 0.08692,-0.55695 -0.02193,-0.31356 0.308885,-0.73786 0.130191,-0.0824 0.251217,-0.18142 0.390575,-0.24709 0.658667,-0.31041 1.122389,-0.24866 1.931985,-0.24856 0.751396,9e-5 1.4791,0.22804 2.172293,0.49355 1.244314,0.57266 2.523548,1.25291 3.33447,2.39556 1.405781,1.22185 -0.322176,3.20992 -1.727954,1.98807 z"
       inkscape:connector-curvature="0" />
  </g>
  <g
     inkscape:groupmode="layer"
     id="layer5"
     inkscape:label="arm"
     style="display:inline"
     transform="translate(0,-364.06667)"
     sodipodi:insensitive="true">
    <path
       style="fill:#000000;fill-opacity:1;stroke:none;stroke-width:0.26458332;stroke-opacity:1"
       id="path834"
       d="m 28.876666,367.28074 c -0.960403,0.37483 -1.996085,0.46043 -3.013361,0.55195 -0.397631,0.0358 -0.799697,0.0287 -1.194448,0.0884 -0.05706,0.009 0.106101,0.0454 0.15915,0.0681 -0.336341,0.0358 -0.672682,0.0715 -1.009023,0.10729 -2.065446,0.31035 -3.788839,1.51032 -5.553022,2.53816 -1.169199,0.7335 -2.415122,1.37085 -3.464862,2.27928 -0.713732,0.61766 -0.803256,0.78712 -1.421315,1.52504 -1.739641,2.50915 -3.205067,5.20024 -4.7374252,7.83931 -0.806122,1.39834 -1.540598,2.84886 -1.940544,4.421 -0.160558,0.63113 -0.321776,1.63414 -0.431549,2.26442 -0.446437,2.81147 -0.717817,5.64877 -0.885687,8.48961 -0.104902,1.70997 -0.05675,3.42162 0.336121,5.09429 0.231121,0.98402 0.376282,1.34173 0.697825,2.29823 0.706835,2.07885 1.562518,4.1017 2.498521,6.08652 0.698776,1.59513 1.7058432,2.97795 2.8742782,4.25402 1.365853,1.38654 2.759678,2.74836 4.228388,4.0261 1.340014,1.13167 2.926323,1.89213 4.481994,2.67385 1.817939,0.89114 3.536138,1.96475 5.323975,2.9109 1.304898,0.76222 2.777323,0.8474 4.245652,0.94011 1.66946,0.1298 3.342564,0.13434 5.015744,0.13561 0.90062,-0.0117 1.80137,-0.01 2.70157,0.0223 0.26914,0.01 0.80441,-0.23261 0.80709,0.0367 0.002,0.19235 -1.81957,-0.0671 -0.21195,0.12831 0.21411,-0.0883 0.52604,0.1596 0.74645,0.13965 0.29276,-0.0265 0.66878,-0.3625 0.88173,-0.50573 1.34385,-0.95817 2.80257,-1.72472 4.28247,-2.44635 1.57378,-0.72983 3.18932,-1.36404 4.75329,-2.11504 1.38755,-0.66601 2.71491,-1.44119 4.00128,-2.28394 1.17473,-0.7481 2.22475,-1.65973 3.18124,-2.66722 0.89213,-0.98021 1.6503,-2.07071 2.41764,-3.1485 0.97983,-1.25307 1.75262,-2.63891 2.48334,-4.0461 0.7503,-1.50066 1.44084,-3.03484 1.86084,-4.66247 0.30377,-1.45948 0.17737,-2.95685 0.0965,-4.43225 -0.12134,-1.57693 -0.0342,-3.15744 -0.0774,-4.73615 -0.084,-1.23042 -0.14929,-2.46476 -0.29471,-3.6899 -0.14324,-1.11389 -0.39177,-2.20977 -0.64074,-3.30369 -0.24915,-1.10891 -0.50034,-2.22519 -0.99765,-3.25248 -0.61947,-1.03357 -1.39191,-1.96468 -2.09609,-2.94114 -0.63704,-0.78973 -1.04082,-1.75765 -1.70704,-2.52298 -0.77223,-0.53226 -1.52869,-1.08059 -2.25813,-1.67087 -0.88767,-0.67276 -1.60521,-1.54064 -2.476,-2.23038 -0.63295,-0.351 -1.27274,-0.6862 -1.88318,-1.07905 -0.71787,-0.49707 -1.37055,-1.07975 -2.07237,-1.59828 -0.37347,-0.20691 -0.76634,-0.375 -1.13937,-0.59037 -0.77114,-0.39507 -1.51465,-0.84066 -2.27361,-1.25797 -0.33137,-0.22319 -0.71653,-0.27849 -1.08278,-0.41207 -0.60365,-0.25557 -1.22142,-0.45381 -1.85593,-0.6148 -0.57943,-0.11288 -1.14848,-0.26293 -1.7157,-0.42587 -0.42143,-0.17414 -0.82995,-0.15014 -1.27015,-0.12449 -0.91664,0.0411 -1.8329,0.0503 -2.75025,0.0406 1.00946,-0.0464 -3.5656,0.0697 -2.53915,0.003 0.77303,-0.0502 1.62624,0.0149 0.4713,-0.0533 -1.508875,-0.0625 -3.020051,-0.0499 -4.529972,-0.0599 -0.880854,-0.0727 -1.762745,-0.11393 -2.64676,-0.11473 -0.3254,-0.008 -0.484179,-0.007 -0.802754,-0.0342 -0.103803,-0.009 -0.414345,-0.0264 -0.310544,-0.0353 1.188244,-0.1018 1.700983,0.0179 0.890016,-0.14165 -1.243605,-0.05 -1.357291,0.14934 -2.20201,-0.33576 -0.182303,-0.10469 -0.333108,-0.25853 -0.514652,-0.36453 -0.107146,-0.0626 0.189881,0.16006 0.289994,0.23336 0.08373,0.0613 0.385162,0.24851 0.486836,0.31229 0.0033,0.108 0.02336,0.0603 -0.117298,0.10148 0.416658,0.0112 0.834036,0.007 1.249974,0.0337 0.09074,0.006 -0.180507,0.0226 -0.271153,0.0297 -0.307441,0.0242 -0.371583,0.0174 -0.686681,0.0167 -0.240416,-0.0562 -0.929473,0.0303 -1.062807,-0.27866 -0.06183,-0.14326 0.122684,-0.69534 0.126711,-0.71082 -0.04991,-0.70121 0.132112,-0.48047 -0.575413,-0.63685 -0.236514,1.85199 -2.855616,1.51751 -2.619105,-0.33448 v 0 c -0.552331,-1.30455 -0.483531,-0.62484 -0.176252,-2.04196 0.175101,-0.27215 0.317688,-0.56822 0.525306,-0.81645 0.547045,-0.65406 1.434857,-0.89102 2.242558,-0.96726 0.331044,-0.008 0.652928,0.0155 0.982766,0.0239 0.808035,0.0207 1.491363,-0.087 2.225961,0.13913 0.328292,0.12934 0.452225,0.1599 0.750964,0.3498 0.12414,0.0789 0.478337,0.34251 0.356478,0.26012 -0.965692,-0.65293 -1.069975,-0.71215 -2.464535,-0.64767 0.603853,-0.36281 1.403709,-0.1289 2.107676,-0.1554 0.4347,-0.0164 0.869479,-0.079 1.305875,-0.0312 0.840994,0.056 1.683564,0.11542 2.526694,0.0793 -0.389009,-10e-4 -0.778087,0.004 -1.167027,-0.004 -0.143817,-0.003 0.287599,-0.007 0.431414,-0.0104 0.656711,-0.014 1.312082,-0.0563 1.966502,-0.11425 1.892348,-0.15435 3.809058,-0.11336 5.695808,0.0961 0.92292,0.10891 1.84533,0.22338 2.76397,0.36429 0.6374,0.11816 1.2627,0.29105 1.90295,0.39458 0.78764,0.13559 1.57173,0.29633 2.30578,0.6261 0.47471,0.20599 0.93177,0.48425 1.43394,0.61095 0.82688,0.0799 1.60111,0.50604 2.33517,0.85871 0.74713,0.43722 1.45981,0.92152 2.10787,1.49816 0.44004,0.25369 0.96376,0.35933 1.38274,0.66036 0.78335,0.46627 1.50879,1.00666 2.19846,1.60317 0.63374,0.45185 1.36387,0.72527 2.01758,1.14794 1.10454,0.7394 2.13807,1.57519 3.06199,2.5338 0.75208,0.76249 1.51634,1.51077 2.29516,2.24564 0.87109,0.90972 1.69117,1.86549 2.41647,2.89714 0.90303,1.28188 1.81066,2.57505 2.47144,4.00289 0.59776,1.44052 1.05568,2.9311 1.23071,4.48754 0.15755,1.14514 0.32702,2.28745 0.59807,3.41261 0.28213,1.44348 0.4998,2.89806 0.51285,4.37272 0.0518,1.53184 0.15261,3.05936 0.2717,4.58746 0.11758,2.03212 0.18082,4.08139 -0.22624,6.08938 -0.50006,2.10285 -1.19899,4.15034 -2.26239,6.04222 -0.94368,1.67806 -1.99819,3.29058 -3.31575,4.70417 -0.93891,1.03125 -1.76531,2.14435 -2.56811,3.28392 -1.19195,1.47778 -2.49974,2.8615 -4.10862,3.89532 -1.43516,0.89093 -2.92455,1.68488 -4.39551,2.51422 -1.61146,0.90597 -3.24173,1.7824 -4.98645,2.41053 -1.41484,0.54435 -2.8098,1.14004 -4.19126,1.76418 -1.21386,0.55982 -2.37088,1.28396 -3.71161,1.50775 -1.43134,0.22579 -0.36895,0.0872 -2.94407,0.1658 -1.21334,0.037 -2.42714,0.0749 -3.63971,-0.0197 -1.820264,-0.0856 -3.646098,-0.10606 -5.459377,-0.29448 -2.069264,-0.31579 -4.02408,-0.87318 -5.903381,-1.81506 -1.870006,-0.91302 -3.706733,-1.88783 -5.483889,-2.97253 -1.815367,-1.07297 -3.645231,-2.13977 -5.254858,-3.51494 -1.6739472,-1.45516 -3.2539462,-3.0151 -4.6181702,-4.76998 -1.293301,-1.66704 -2.460241,-3.42438 -3.426859,-5.30332 -1.157457,-2.18462 -2.27750399,-4.39816 -3.08403599,-6.74117 -0.965116,-3.09166 -1.56509001,-6.09294 -1.46574201,-9.3537 0.06676,-1.53621 0.04504,-1.87792 0.258649,-3.40623 0.27761401,-1.98625 0.83460201,-3.91036 1.30717401,-5.85465 0.674087,-2.7615 1.30031299,-5.55614 2.46519399,-8.16281 0.245192,-0.517 0.474954,-1.04159 0.735571,-1.55099 1.355855,-2.65009 3.074683,-5.11261 5.140079,-7.25811 0.360804,-0.35381 0.710681,-0.71913 1.082418,-1.06143 1.5186372,-1.3984 3.2472982,-2.54855 5.0575532,-3.53174 2.292911,-1.27766 4.652756,-2.50869 7.24295,-3.05225 0.453398,-0.0697 0.902441,-0.17926 1.360191,-0.20912 1.880177,-0.12266 4.062336,-0.15896 5.890099,0.47949 0.233085,0.0814 0.444577,0.2149 0.666866,0.32235 2.402009,0.73188 1.366975,4.12883 -1.035034,3.39695 z"
       inkscape:connector-curvature="0" />
  </g>
</svg>
