<?xml version="1.0" encoding="UTF-8" standalone="no"?>
<!-- Created with Inkscape (http://www.inkscape.org/) -->

<svg
   xmlns:dc="http://purl.org/dc/elements/1.1/"
   xmlns:cc="http://creativecommons.org/ns#"
   xmlns:rdf="http://www.w3.org/1999/02/22-rdf-syntax-ns#"
   xmlns:svg="http://www.w3.org/2000/svg"
   xmlns="http://www.w3.org/2000/svg"
   xmlns:sodipodi="http://sodipodi.sourceforge.net/DTD/sodipodi-0.dtd"
   xmlns:inkscape="http://www.inkscape.org/namespaces/inkscape"
   width="1024"
   height="1024"
   viewBox="0 0 270.93333 270.93333"
   version="1.1"
   id="svg8"
   inkscape:version="0.92.4 (5da689c313, 2019-01-14)"
   sodipodi:docname="foot.svg"
   inkscape:export-filename="C:\Users\panu-\PycharmProjects\nextgame\data\images\bodies\sporty\foot.png"
   inkscape:export-xdpi="7.2179537"
   inkscape:export-ydpi="7.2179537">
  <defs
     id="defs2" />
  <sodipodi:namedview
     id="base"
     pagecolor="#ffffff"
     bordercolor="#666666"
     borderopacity="1.0"
     inkscape:pageopacity="0.0"
     inkscape:pageshadow="2"
     inkscape:zoom="0.50581613"
     inkscape:cx="536.85837"
     inkscape:cy="581.6448"
     inkscape:document-units="mm"
     inkscape:current-layer="layer2"
     showgrid="false"
     units="px"
     width="1024px"
     inkscape:window-width="1920"
     inkscape:window-height="1017"
     inkscape:window-x="-8"
     inkscape:window-y="-8"
     inkscape:window-maximized="1"
     inkscape:pagecheckerboard="true" />
  <metadata
     id="metadata5">
    <rdf:RDF>
      <cc:Work
         rdf:about="">
        <dc:format>image/svg+xml</dc:format>
        <dc:type
           rdf:resource="http://purl.org/dc/dcmitype/StillImage" />
        <dc:title />
      </cc:Work>
    </rdf:RDF>
  </metadata>
  <g
     inkscape:groupmode="layer"
     id="layer2"
     inkscape:label="color"
     style="display:inline">
    <path
       style="fill:#ffffff;fill-opacity:1;stroke:none;stroke-width:1.97700298;stroke-opacity:1"
       d="m 383.80412,380.58714 c -30.61037,0.0486 -61.53389,-0.43924 -91.21102,8.25813 -34.65665,9.33373 -73.36125,4.86425 -104.70272,25.03921 -12.1786,7.95819 -27.86017,11.76662 -38.20666,21.91974 -8.09833,43.22895 -9.35009,87.59651 -10.65337,131.49772 1.04027,23.93111 -0.90944,49.14255 7.10094,72.01003 8.62468,4.96724 20.57306,3.0124 30.41239,4.78314 46.2501,0.22488 92.4692,-4.28707 138.69087,-6.17323 72.14369,-2.49197 142.60653,-20.26462 214.56659,-24.18353 33.0892,-1.53732 63.10048,-18.1188 96.37,-18.23926 48.32604,-3.91836 96.86702,-3.13986 145.2723,-4.53489 9.27677,-1.89223 1.28964,-14.20818 0.17724,-19.65951 -8.52698,-18.2485 -12.639,-37.70482 -10.6376,-57.70232 1.72131,-26.35018 15.91839,-50.60569 28.4619,-73.09891 11.93948,-13.05233 -12.11361,-7.47836 -19.54218,-8.56046 -8.09611,0.99386 -16.67355,-2.0091 -24.37665,-0.74535 -3.29872,8.53354 -2.11561,19.00574 -6.63846,27.59647 -8.77316,25.48289 -29.10974,50.2937 -56.44029,56.36437 -18.9656,-0.11809 -40.12618,2.75913 -57.09754,-7.51415 -16.71802,-10.26641 -17.04555,-32.34386 -14.80436,-49.71854 0.0831,-15.27495 7.81599,-29.02942 9.20928,-43.82228 -2.89639,-6.70855 -13.73341,-5.29139 -13.19416,2.89214 -6.61488,27.55835 -21.66436,55.15681 -48.09293,68.34175 -20.68025,12.39989 -47.05977,12.61159 -69.50014,5.64913 -11.88371,-4.33579 -21.39435,-15.27985 -19.54607,-28.47734 -1.10208,-27.38779 17.03205,-50.6516 26.54666,-74.84037 -35.98741,-10.03739 -75.00839,-6.01974 -112.16402,-7.08169 z"
       id="path882"
       inkscape:connector-curvature="0"
       transform="scale(0.26458333)" />
    <path
       style="fill:#ffffff;fill-opacity:1;stroke:none;stroke-width:1.97700298;stroke-opacity:1"
       d="m 874.39046,435.41422 c -18.51658,1.07512 -38.12975,-0.62448 -55.89281,2.8265 -10.09634,32.34085 -29.39348,62.9911 -30.89454,97.59521 3.348,16.9492 12.4611,32.12138 16.40295,48.96944 18.81248,3.31678 39.65798,0.43351 59.24059,1.40167 27.75041,-1.10453 55.99007,2.40856 83.45887,-2.05423 10.41824,-4.46895 0.25791,-16.80201 0.55989,-24.51948 -3.03324,-27.88797 -0.28992,-56.5456 -6.35961,-84.30836 0.4656,-7.67185 0.2485,-15.68379 -6.21675,-21.18714 -11.22432,-13.65428 -30.764,-15.12757 -47.00681,-18.34616 -4.41905,-0.38011 -8.85955,-0.39724 -13.29178,-0.37745 z"
       id="path884"
       inkscape:connector-curvature="0"
       transform="scale(0.26458333)" />
    <path
       style="fill:#ffffff;fill-opacity:1;stroke:none;stroke-width:1.97700298;stroke-opacity:1"
       d="m 523.75816,388.48743 c -5.78286,3.42242 -3.11212,12.87774 -7.0199,18.18688 -7.04434,20.43194 -17.99567,39.99719 -23.70087,60.57275 11.90786,9.45345 28.01238,-1.04235 40.25525,-4.78432 20.83615,-6.89388 38.77126,-23.64091 42.04435,-46.05505 2.75378,-8.55506 4.35817,-18.82917 -8.13731,-18.7052 -14.08048,-4.44338 -28.72353,-7.91937 -43.44152,-9.21506 z"
       id="path886"
       inkscape:connector-curvature="0"
       transform="scale(0.26458333)" />
    <path
       style="fill:#ffffff;fill-opacity:1;stroke:none;stroke-width:1.97700298;stroke-opacity:1"
       d="m 649.5527,418.02277 c -7.23383,22.21103 -17.397,46.04645 -13.25209,69.76273 6.60862,7.24491 18.67608,1.86963 27.30735,2.07739 22.3452,-3.49315 40.28771,-22.22318 48.7532,-42.35497 2.20817,-7.59374 5.34105,-22.53279 -6.8357,-22.4092 -18.42886,-2.28265 -37.89037,-9.4068 -55.97276,-7.07595 z"
       id="path888"
       inkscape:connector-curvature="0"
       transform="scale(0.26458333)" />
    <path
       style="fill:#c87137;fill-opacity:1;stroke:none;stroke-width:1.97700298;stroke-opacity:1"
       d="m 879.79633,612.64173 c -59.61825,-0.0376 -118.82203,6.4987 -178.43112,6.16814 -37.19894,1.44245 -75.32067,-1.41798 -111.16178,10.70594 -42.71337,11.79542 -87.4326,14.36457 -131.21683,20.457 -52.41405,3.64881 -104.08037,16.1115 -156.83019,14.02903 -43.2108,0.64419 -86.42933,-1.85122 -129.5854,0.60331 -7.04979,1.37978 -16.25803,-5.70913 -21.71731,-0.33352 2.87682,10.87539 14.15882,18.80103 24.09472,23.36879 17.56357,5.32466 38.08627,0.0215 53.81542,10.21709 49.62441,8.43189 100.32962,1.48128 150.25221,0.44019 87.41252,-3.93132 175.61297,-1.98081 261.81775,-19.3839 52.16657,-6.62477 104.92192,-6.51211 157.37488,-8.91908 34.90988,-1.95864 70.18157,1.75123 104.8908,-2.44868 14.16341,-7.44315 31.4885,-6.03917 45.43631,-13.32547 5.56289,-13.01211 8.03949,-28.34522 6.12794,-42.22368 -24.81275,-0.61739 -49.94939,0.56899 -74.8674,0.64484 z"
       id="path894"
       inkscape:connector-curvature="0"
       transform="scale(0.26458333)" />
    <path
       style="fill:#ccff00;fill-opacity:1;stroke:none;stroke-width:1.97700298;stroke-opacity:1"
       d="m 406.87816,380.57077 c -39.67274,1.21262 -80.42408,-2.19014 -118.86372,9.06389 -34.4283,8.02745 -72.24673,5.52737 -102.93364,25.70432 -11.36365,7.65415 -27.08852,10.94975 -35.57214,22.12469 -6.76659,37.90513 -8.88512,76.66234 -10.95386,115.10143 -0.66123,28.98142 2.7439,57.82986 5.42829,86.63397 10.67915,4.49295 24.03666,3.0328 35.84862,5.54873 55.06646,-1.78968 110.12944,-5.234 165.14484,-8.33194 63.34454,-6.67393 125.87729,-19.24901 189.49938,-22.92171 31.46319,-3.29505 60.5882,-18.54814 92.68413,-17.94314 49.64043,-3.11696 99.46624,-2.71514 149.17824,-4.75376 2.9967,-7.74813 -5.69602,-17.85129 -7.48371,-26.4878 -9.87857,-20.32813 -8.45532,-43.70576 -5.99621,-65.48919 5.71627,-21.93309 17.92707,-41.49599 27.14518,-61.82768 -2.63002,-7.77404 -14.61762,-3.70718 -20.86236,-5.24164 -8.41668,1.73948 -24.52146,-5.58893 -25.06907,7.23086 -4.80708,29.76536 -21.88578,58.35995 -49.44352,72.27968 -18.23338,7.67129 -39.11516,3.67081 -57.98178,1.64493 -17.01383,-4.52646 -28.62497,-22.08496 -26.43469,-39.40105 -1.05935,-20.08414 4.25042,-38.75782 10.05105,-57.44121 0.35281,-8.80682 -13.38868,-6.50628 -13.36794,1.50978 -8.70977,33.06657 -30.41801,65.74744 -65.07527,75.07704 -21.78734,6.30587 -48.10991,4.80809 -66.24484,-9.78574 -15.15628,-20.84131 -1.77011,-47.0887 6.84229,-67.54245 3.70168,-9.73197 10.14882,-18.3334 14.59971,-27.40775 -28.59336,-8.41981 -60.24021,-7.14885 -90.13898,-7.34426 z"
       id="path896"
       inkscape:connector-curvature="0"
       transform="scale(0.26458333)" />
    <path
       style="fill:#ccff00;fill-opacity:1;stroke:none;stroke-width:1.97700298;stroke-opacity:1"
       d="m 863.05228,435.03103 c -14.69898,1.4552 -30.95383,-1.98728 -44.77216,3.5447 -10.21946,31.82354 -28.4728,62.25044 -30.26514,96.27078 1.8615,17.81702 13.01805,32.95711 16.02454,50.57189 17.41774,3.49849 37.05203,0.45828 55.30974,1.47889 30.45132,-0.69337 61.28049,1.44357 91.51362,-2.07353 2.86832,-7.73593 -4.13165,-17.21127 -3.55243,-25.50026 -1.98503,-27.41979 -0.19099,-55.18269 -6.10863,-82.23096 0.20148,-7.55688 0.87144,-15.81178 -5.75725,-21.24506 -7.73675,-14.56049 -26.88678,-14.10221 -40.74479,-18.75064 -10.3866,-2.27677 -21.07501,-2.16348 -31.6475,-2.06581 z"
       id="path898"
       inkscape:connector-curvature="0"
       transform="scale(0.26458333)" />
    <path
       style="fill:#ccff00;fill-opacity:1;stroke:none;stroke-width:1.97700298;stroke-opacity:1"
       d="m 658.30505,418.09908 c -13.40137,-0.27691 -13.70298,17.19915 -17.74664,26.28961 -2.56057,14.08457 -8.2521,30.06733 -3.01189,43.95577 13.26787,6.02725 29.54729,1.24302 42.55576,-3.81499 17.94879,-11.41639 35.85334,-30.89171 34.01449,-53.54512 -7.21885,-9.31155 -21.88178,-6.70141 -32.15395,-10.14914 -7.83315,-1.2162 -15.71485,-2.59795 -23.65777,-2.73613 z"
       id="path900"
       inkscape:connector-curvature="0"
       transform="scale(0.26458333)" />
    <path
       style="fill:#ccff00;fill-opacity:1;stroke:none;stroke-width:1.97700298;stroke-opacity:1"
       d="m 525.91149,388.86492 c -8.16127,2.1985 -5.6904,14.33771 -10.2055,20.12141 -6.16487,19.3923 -18.28346,37.51755 -20.98249,57.76169 6.64051,9.01316 20.2765,1.81608 28.89644,-0.26384 18.59586,-7.31001 40.95781,-15.97972 46.9363,-37.2606 3.04238,-9.20461 8.69391,-19.63847 6.28625,-28.98703 -16.60737,-5.39967 -33.57467,-9.42722 -50.931,-11.37163 z"
       id="path902"
       inkscape:connector-curvature="0"
       transform="scale(0.26458333)" />
  </g>
  <g
     inkscape:groupmode="layer"
     id="layer1"
     inkscape:label="lines 2"
     sodipodi:insensitive="true">
    <path
       style="fill:#000000;fill-opacity:1;stroke:none;stroke-width:0.26458332;stroke-opacity:1"
       id="path845"
       d="m 40.666503,109.74666 c -0.03712,0.44559 -0.04887,0.89401 -0.11135,1.33675 -0.249089,1.76525 -0.724614,3.50422 -1.047575,5.25664 -0.303358,1.64606 -0.348909,2.11157 -0.579044,3.7725 -0.571277,4.47176 -0.82968,8.97309 -1.15561,13.46675 -0.292891,3.97653 -0.796411,7.93209 -0.957249,11.91755 -0.0696,2.62775 0.156398,5.2496 0.249179,7.87421 0.08159,2.25677 0.04002,4.51667 0.203266,6.76961 0.236263,1.67428 0.549106,3.33029 0.693285,5.01614 0.167715,1.64129 0.25771,3.27717 0.532459,4.90546 0.410389,1.49303 0.770583,2.99724 1.118438,4.50582 0.146135,1.08808 0.600189,1.99388 1.21633,2.87739 0.648237,0.98351 1.51162,1.75798 2.412346,2.49997 0.92936,0.72375 1.830803,1.50167 2.861204,2.07945 1.066747,0.43163 2.263706,0.21065 3.39013,0.22816 2.282629,0.0536 4.554209,0.31056 6.825665,0.52495 0.830268,0.22377 2.341049,-0.13802 2.905223,0.7217 0.12478,0.19015 0.331076,0.45567 0.21104,0.64886 -0.333127,0.53612 -0.935887,0.84719 -1.403832,1.27078 3.487301,-0.92118 4.790046,4.01061 1.302742,4.93179 v 0 c -0.629769,0.42493 -1.284202,0.81541 -1.889307,1.27479 -0.759719,0.57675 -0.424032,0.73954 -1.364845,1.00741 -0.958612,0.27295 -2.032053,0.0119 -3.003177,0.0877 -2.482363,-0.14781 -4.973873,-0.33204 -7.401272,-0.90654 -2.141474,-0.55339 -4.19931,-1.3459 -5.990124,-2.67755 -1.312254,-0.92732 -2.652167,-1.82533 -3.836948,-2.91736 -1.478401,-1.40791 -2.814653,-2.95723 -3.743079,-4.79195 -0.776382,-1.56598 -1.330015,-3.20588 -1.767874,-4.89743 -0.510135,-1.80375 -1.219753,-3.55912 -1.44208,-5.43587 -0.169928,-1.73712 -0.21632,-3.4742 -0.237413,-5.21823 -0.168521,-1.65946 -0.634317,-3.24709 -0.934519,-4.88506 -0.331232,-2.5233 -0.449532,-5.0612 -0.265626,-7.60366 0.08825,-2.54629 0.08035,-5.09232 -0.295052,-7.61998 -0.431724,-4.39111 -0.609402,-8.81096 0.05209,-13.19427 0.715158,-4.68225 1.758193,-9.29934 2.86295,-13.90401 0.956964,-3.90464 1.949588,-8.04811 4.618773,-11.1728 1.591212,-4.22203 7.562067,-1.97172 5.970855,2.25031 z"
       inkscape:connector-curvature="0" />
    <path
       style="fill:#000000;fill-opacity:1;stroke:none;stroke-width:0.26458332;stroke-opacity:1"
       id="path847"
       d="m 56.725814,184.92287 c 0.51635,-0.0691 1.029028,-0.17619 1.549053,-0.20728 2.316533,-0.13847 4.651889,0.15051 6.957105,0.31589 5.425583,0.38924 -0.0907,-0.0727 5.30229,0.39987 2.461458,0.21747 4.940898,0.39222 7.413855,0.27588 0.134366,-0.006 -0.530905,-0.0591 -0.397034,-0.0722 1.701033,-0.16689 3.412832,-0.19606 5.11814,-0.31138 5.196655,-0.32089 10.399762,-0.51275 15.602227,-0.70963 4.49073,-0.10776 8.97362,-0.33876 13.45533,-0.63247 5.96084,-0.45975 11.94632,-0.44574 17.92012,-0.33469 2.8545,0.14953 6.43391,0.0801 10.53562,-0.24581 3.9168,-0.39022 7.80477,-1.01057 11.70983,-1.49767 3.24306,-0.43853 6.50879,-0.68444 9.74872,-1.14322 3.71813,-0.5914 7.38774,-1.42964 11.1081,-2.01128 3.38602,-0.50856 6.8066,-0.64251 10.22532,-0.63461 1.71283,-0.17009 3.42295,0.0447 5.13445,0.0353 0.40963,-0.002 1.57593,0.17809 1.2283,-0.0386 -0.38395,-0.23934 -1.03167,0.27331 -1.3567,-0.0414 -0.29826,-0.28883 0.82941,-0.0409 1.24372,-0.068 0.42918,-0.028 0.85775,-0.0648 1.28663,-0.0972 2.57734,-0.2369 5.15386,-0.43607 7.7424,-0.46767 2.6664,-0.10939 5.32698,0.27012 7.98567,0.0457 -0.52381,-0.0195 -1.06152,0.0628 -1.57145,-0.0586 -0.31661,-0.0754 0.64889,-0.052 0.9728,-0.084 0.35674,-0.0352 0.71313,-0.0742 1.06901,-0.11723 1.29211,-0.15624 2.575,-0.31698 3.87232,-0.42787 3.21971,-0.20904 6.44618,-0.0265 9.66663,0.0703 1.22887,-0.0109 2.45593,-0.0892 3.6825,-0.15818 0.49087,-0.0276 1.01379,0.0918 1.4725,-0.0851 0.35306,-0.13618 -1.50786,0.0154 -1.13435,-0.0453 0.51149,-0.0831 1.03629,-0.0153 1.55444,-0.023 2.53307,-0.0492 5.05881,0.15349 7.57401,0.43039 5.02296,0.16091 1.77768,-0.0513 3.72673,0.18121 0.72725,0.0868 1.18847,0.0812 0.99027,0.0893 -1.49271,0.0609 -2.66824,-0.0266 -1.63688,0.0431 0.74258,0.0808 1.3783,-0.3262 2.01293,-0.6514 1.80928,-0.96955 3.74468,-1.61373 5.73837,-2.07232 1.35257,-0.35277 2.75574,-0.32324 4.12943,-0.50796 0.68561,-0.0721 1.31776,-0.29509 1.92653,-0.60655 0.25871,-0.22777 0.68947,-0.25969 0.89542,-0.54314 0.36633,-0.73945 0.43399,-1.59359 0.5573,-2.3989 0.22714,-1.55968 0.5236,-3.10829 0.7641,-4.6656 0.25395,-1.68864 -0.0508,-3.3813 -0.22263,-5.06203 -0.22378,-2.38387 -0.26676,-4.78047 -0.61105,-7.15202 -0.38232,-1.76903 -0.96363,-3.48085 -1.36064,-5.24735 -0.54143,-2.35114 -0.48229,-4.75583 -0.38543,-7.14719 0.0816,-1.64616 0.16618,-3.29047 0.19651,-4.93836 -0.0207,-1.16577 -0.0187,-2.3382 -0.16299,-3.4969 -0.0977,-0.98584 -0.41648,-1.92758 -0.62975,-2.89083 -0.24019,-1.20499 -0.29545,-2.43707 -0.21987,-3.66113 -0.0345,0.94092 0.89864,1.72123 1.07028,2.54256 0.12561,0.60104 -0.74919,-0.97607 -1.06839,-1.50061 -0.44959,-0.92151 -0.77521,-1.90572 -0.89493,-2.9255 0.96748,1.39362 0.95104,1.33123 2.36857,0.6495 -3.57434,-2.07023 -0.6466,-7.1251 2.92774,-5.05488 v 0 c 0.61609,-0.0639 1.24193,-0.31818 1.84826,-0.19169 1.26356,0.26362 2.04565,1.51273 2.47041,2.59588 0.0534,0.1311 0.53162,1.57056 0.16298,0.93195 -0.05,-0.0712 -0.80353,-1.15758 -0.66218,-0.84743 0.2687,0.58965 0.69526,1.09681 0.97997,1.67891 0.30316,0.61985 0.32604,1.3254 0.42543,1.99202 0.083,0.71328 0.0775,1.43155 0.16684,2.14303 0.20762,1.12673 0.4966,2.23414 0.70619,3.36107 0.23318,1.50109 0.31095,3.00893 0.28868,4.52779 0.0953,1.77584 0.23923,3.55131 0.22187,5.33094 -0.031,1.74522 -0.21518,3.49705 -0.0703,5.23912 0.29248,1.78162 1.26134,3.34077 1.72487,5.07882 0.75688,2.89765 1.08092,5.85912 0.8024,8.85418 -0.13649,1.98591 -0.32822,3.96745 -0.44513,5.9548 -0.0993,1.97748 -0.23245,3.97457 -0.84968,5.87082 -0.49973,1.6205 -1.11926,3.19152 -2.02248,4.6348 -0.77433,1.22784 -1.61962,2.41791 -2.83098,3.25682 -1.2576,0.88241 -2.58735,1.65875 -4.07002,2.10022 -1.29936,0.37956 -2.60694,0.7116 -3.94577,0.92208 -1.53168,0.35773 -3.06274,0.73751 -4.55486,1.23735 -1.53856,0.54775 -3.02766,1.27373 -4.67059,1.46025 -1.56776,0.18848 -0.15887,0.0399 -3.41788,0.10888 -0.68735,0.0145 -2.25175,0.0549 -1.63704,0.15192 0.56102,0.0885 1.13408,0.0645 1.70112,0.0968 -2.41834,0.29104 -4.84616,0.52659 -7.28528,0.50934 -3.70443,-0.0149 -7.40484,-0.0238 -11.08951,-0.45333 -0.34208,-0.0146 -0.68399,-0.0337 -1.02624,-0.0436 -0.32416,-0.009 -1.29689,-0.025 -0.97278,-0.0143 0.51706,0.0171 1.03656,-0.0145 1.55167,0.0335 0.32458,0.0302 -0.65197,0.009 -0.97777,0.02 -0.88428,0.0305 -1.28545,0.0663 -2.18153,0.12824 -3.36758,0.26802 -6.7386,0.57066 -10.12187,0.43293 -0.77345,-0.0653 -1.1551,-0.10247 -1.9114,-0.14854 -0.2717,-0.0165 -0.54336,-0.0397 -0.81556,-0.0417 -0.23774,-0.002 -0.94998,0.018 -0.71257,0.0307 0.57222,0.0308 1.14809,-0.0261 1.71899,0.0235 0.26002,0.0226 -0.52056,0.0387 -0.78084,0.058 -2.50018,0.30262 -4.9894,0.69993 -7.50038,0.91303 -2.34789,0.15884 -4.63517,0.18696 -7.0014,0.16499 -0.43468,-0.004 -0.86845,-0.0418 -1.30297,-0.0544 -0.38637,-0.0113 -1.5453,0.006 -1.15948,-0.0174 0.48903,-0.0299 0.9799,-10e-4 1.46985,-0.002 -2.958,0.17515 -5.85105,0.79171 -8.7633,1.31162 -3.85593,0.58954 -7.7308,1.04128 -11.60289,1.51065 -3.14948,0.33814 -6.3098,0.60823 -9.43497,1.13641 -3.99448,0.76571 -7.97137,1.64382 -12.00706,2.17277 -5.73286,0.68704 -11.48437,0.97822 -17.26198,0.86476 -4.41593,0.0194 -6.97352,-0.15117 -11.7135,-0.18995 -4.43729,0.10888 -8.85525,0.46999 -13.2787,0.82719 -5.218232,0.39981 -10.437586,0.84776 -15.673378,0.92657 -6.491245,0.13433 -13.016558,0.38422 -19.467345,-0.52689 -2.67303,-0.46369 -5.281599,-1.03407 -7.880374,-1.82433 -1.030356,-0.31332 -2.784255,-0.9086 -3.79793,-1.40808 -0.395798,-0.19502 -0.753438,-0.45945 -1.130159,-0.68918 -5.08008,-2.12511 -2.074712,-9.30943 3.00537,-7.18431 z"
       inkscape:connector-curvature="0" />
    <path
       style="fill:#000000;fill-opacity:1;stroke:none;stroke-width:0.26458332;stroke-opacity:1"
       id="path851"
       d="m 38.177996,169.44039 c 0.54166,-8e-4 1.084228,-0.0341 1.624984,-0.003 0.484319,0.028 3.453254,0.39783 3.880969,0.4458 1.81933,0.20406 3.621529,0.3712 5.450882,0.43017 2.183672,0.0382 4.464653,-0.21067 6.689013,-0.33146 3.563853,-0.10946 7.116961,-0.3742 10.677633,-0.54662 3.934863,-0.31273 7.894775,-0.43512 11.851275,-0.63037 4.876472,-0.21427 9.755661,-0.32541 14.622373,-0.71498 4.351617,-0.45593 8.658695,-1.22649 12.999255,-1.77345 4.43741,-0.51315 8.83828,-1.27138 13.23916,-2.02762 4.78765,-0.81359 9.61859,-1.32437 14.45772,-1.70333 3.3709,-0.21687 6.74735,-0.30736 10.10932,-0.64526 2.90908,-0.31636 5.68675,-1.24113 8.42727,-2.21942 3.05934,-1.14118 6.23035,-1.83853 9.47012,-2.1811 2.42023,-0.22881 4.84951,-0.31842 7.272,-0.51653 2.41475,-0.23534 4.83435,-0.39615 7.26093,-0.39062 2.63601,0.0349 5.25136,0.18002 7.88591,0.0771 0.38913,-0.0258 0.79878,0.0499 1.16738,-0.0774 0.21897,-0.0757 -0.9108,-0.0192 -0.68947,-0.0877 0.42929,-0.1328 0.89524,-0.0792 1.34321,-0.11456 1.48998,-0.11745 2.98197,-0.21298 4.47309,-0.3145 3.37573,-0.1123 6.75415,-0.0176 10.12786,0.11221 1.15498,-0.06 2.37848,0.21649 3.52822,0.0134 0.24627,-0.0435 -0.991,0.023 -0.74914,-0.0406 0.37897,-0.0997 0.78271,-0.0411 1.17343,-0.071 0.41035,-0.0314 0.81965,-0.0753 1.22947,-0.11292 2.68291,-0.33183 5.34749,-0.7738 8.04148,-1.0102 3.16,-0.20623 6.32869,-0.0486 9.49284,-0.0839 0.42071,-0.008 0.8427,0.01 1.26215,-0.0241 0.21824,-0.0175 -0.8748,-0.01 -0.65637,-0.0245 1.75688,-0.12023 3.55929,-0.0605 5.31863,-0.0227 2.35383,0.0617 4.70793,-10e-4 7.06187,-0.009 3.00857,-0.0325 6.01903,-0.0673 9.02781,-0.022 0.0506,7.9e-4 2.16523,0.0326 2.24387,0.0477 0.26753,0.0512 -1.07805,-0.0516 -0.81676,0.0254 0.44444,0.13095 2.34439,0.08 2.91499,0.0972 2.07006,0.11309 4.16152,0.0333 6.225,0.22568 2.93812,0.30558 0.68759,2.10835 -0.72347,6.01103 -0.0802,0.22193 -0.0304,-0.47099 -0.0455,-0.70648 0.0872,-0.52696 0.17436,-1.05392 0.26154,-1.58088 -0.56997,-0.14713 -0.3619,-0.95319 0.20807,-0.80607 v 0 c 0.18459,-0.5268 0.36919,-1.05361 0.55378,-1.58042 0.1364,-0.2353 0.45131,-0.97457 0.40919,-0.70588 -0.65476,4.17709 0.46155,5.74597 -2.37506,6.00695 -1.34305,0.11719 -0.009,-0.0252 0.52673,0.10269 0.23026,0.055 -0.4726,0.029 -0.70898,0.042 -0.82973,0.0455 -1.66003,0.0717 -2.49083,0.0885 -2.70965,0.0984 -5.41875,0.15982 -8.13043,0.17297 -1.57029,0.006 -3.20961,0.0972 -4.77364,-0.0514 -0.25047,-0.0238 1.00483,0.006 0.75453,-0.0193 -0.37016,-0.0377 -0.74405,-0.0117 -1.11608,-0.0175 -2.32745,0.0374 -4.65185,0.12768 -6.97579,0.26371 -3.30926,0.15004 -6.62753,0.0152 -9.93822,2.6e-4 -1.16621,-0.0311 -2.49391,0.0512 -3.64407,-0.0913 -0.27188,-0.0337 1.09564,-0.0209 0.82176,-0.0144 -1.79163,0.0427 -0.35904,-0.0107 -2.16303,0.0676 -2.69133,0.26645 -5.34808,0.77922 -8.03593,1.07423 -3.24516,0.29 -6.49081,0.24178 -9.74388,0.13487 -2.81985,-0.007 -2.07019,0.0922 -5.71592,0.27802 -3.54867,0.14647 -7.10928,0.3269 -10.65813,0.0837 -1.31998,-0.0985 -2.63974,-0.23763 -3.965,-0.23208 -0.29299,0.001 -1.09871,-0.17051 -0.87868,0.023 0.2352,0.20682 0.62607,0.0201 0.93911,0.0302 -2.32416,0.13248 -4.63483,0.40665 -6.95749,0.56092 -2.27821,0.10453 -4.56773,0.0869 -6.83302,0.37613 -2.79313,0.4833 -5.51332,1.26049 -8.22068,2.09356 -3.21433,0.92275 -6.42519,1.88278 -9.75175,2.32085 -3.3452,0.4811 -6.71597,0.6673 -10.07015,1.06761 -4.73885,0.65516 -9.43513,1.62182 -14.20534,2.04444 -4.50479,0.35801 -9.02154,0.59048 -13.50727,1.15584 -4.40334,0.61672 -8.780585,1.40822 -13.189732,1.98401 -4.984181,0.52813 -9.985269,0.82606 -14.999149,0.846 -5.265679,0.0748 -10.551896,0.27585 -15.804578,-0.19275 -2.34587,-0.22402 -1.349246,-0.10346 -3.555035,-0.40714 -0.481782,-0.0663 -0.972589,-0.0861 -1.444979,-0.20166 -0.06021,-0.0147 0.206198,-0.10663 0.144991,-0.11644 -0.465529,-0.0746 -1.767033,-0.0365 -2.248323,-0.0296 -3.424248,0.36259 -6.780281,1.28581 -10.257189,1.04551 -3.458535,-0.23085 -7.030977,-0.76196 -9.985989,-2.7453 -0.414009,-0.27788 -0.75252,-0.65436 -1.128781,-0.98154 -2.241788,-1.40295 -0.257725,-4.57331 1.98406,-3.17037 z"
       inkscape:connector-curvature="0" />
    <path
       style="fill:#000000;fill-opacity:1;stroke:none;stroke-width:0.26458332;stroke-opacity:1"
       id="path859"
       d="m 36.444007,110.68535 c 2.105938,-3.96683 6.059098,-6.33923 9.878457,-8.42265 3.39844,-1.78488 7.148409,-2.572162 10.830366,-3.517717 3.680878,-0.960104 7.289866,-2.156343 10.959812,-3.155884 4.515479,-1.180282 9.093589,-2.113682 13.692515,-2.902344 4.548161,-0.803836 9.172072,-0.778303 13.772904,-0.699003 0.654066,0.0131 2.697244,0.08299 3.350149,-0.02008 0.21142,-0.03338 -0.841386,-0.06472 -0.632434,-0.111107 0.587031,-0.13032 1.198999,-0.09392 1.797914,-0.147629 0.89074,-0.07988 3.15371,-0.309407 4.01011,-0.395325 5.32392,-0.625086 10.66669,-0.610547 16.01418,-0.471485 4.21724,0.373071 8.35463,1.286351 12.55744,1.779524 3.9996,0.302519 7.99107,0.541687 11.95694,1.161034 3.46257,0.594032 6.67466,2.027828 9.85327,3.461705 1.86308,0.930527 3.9001,1.274842 5.92643,1.639422 2.36428,0.41017 4.65531,1.124859 6.94653,1.820989 1.93656,0.68814 3.96633,0.85925 6.0043,0.8392 2.52388,-0.11559 4.99613,0.29899 7.43339,0.90664 2.00203,0.6266 4.06812,0.95936 6.13462,1.28482 2.09085,0.26188 4.18734,0.4615 6.2781,0.72453 2.42635,0.27763 4.84901,0.56705 7.28247,0.77945 2.05676,0.14698 4.10222,0.38834 6.1279,0.77295 1.32941,0.32152 2.66858,0.40434 4.02676,0.31031 -0.50484,-0.0118 -1.01066,-0.002 -1.51452,-0.0355 -0.24449,-0.0163 0.48995,-0.0106 0.73491,-0.0164 0.25315,-0.006 0.5062,-0.0173 0.75942,-0.0186 0.67479,-0.003 1.34213,0.0262 2.01285,0.0951 2.90871,0.21974 3.1347,-0.17311 5.25576,1.33913 -0.0523,-0.55752 0.63003,-0.6132 1.03966,-0.70599 -0.39146,-0.13066 2.05765,-0.0385 1.54995,-0.14591 -0.44044,-0.0932 -0.90946,0.0479 -1.34981,-0.0457 -0.31137,-0.0662 0.636,-0.0298 0.95422,-0.0384 0.37606,-0.0101 1.57967,-0.0186 1.95489,-0.0217 2.7527,-0.0347 5.50576,-0.10342 8.2582,-0.0238 2.0553,0.095 0.17845,-0.0204 -0.53121,0.11143 -0.23912,0.0444 0.48456,0.0426 0.72679,0.0645 0.58441,0.0527 1.16497,0.10422 1.75124,0.1295 1.70127,0.0366 3.4035,-0.0528 5.08644,0.22636 1.53432,0.32562 3.07954,0.5706 4.60185,0.95182 1.42698,0.3538 2.67977,1.15127 4.08716,1.55346 1.30729,0.21471 2.50462,0.66581 3.66149,1.30488 1.48906,0.85128 2.47944,2.16154 3.27621,3.64181 0.1818,0.60926 0.5051,1.03394 0.92396,1.47749 0.52346,0.48954 1.08075,0.92843 1.55962,1.465 1.09077,1.24354 1.24012,2.80128 1.43755,4.36057 0.1793,0.97397 0.322,1.95569 0.44106,2.93926 0.13356,1.14841 0.11964,2.3042 -0.0297,3.44915 -0.51152,2.89496 -2.43727,0.82441 -6.92939,0.073 -0.33112,-0.0554 0.65789,-0.13432 0.98683,-0.20148 0.0734,-2.72384 3.92548,-2.62004 3.85209,0.1038 v 0 c 0.32442,0.0738 1.30596,0.21996 0.97326,0.22133 -0.95018,0.004 -6.69808,1.8812 -6.82172,-0.63491 -0.0225,-0.67273 -0.0322,-1.34753 -0.17723,-2.00865 -0.21466,-1.24158 -0.37704,-2.49559 -0.33564,-3.75892 0.0288,-0.44295 -0.017,-0.8009 0.17587,-0.19422 0.0752,0.2364 0.23091,0.44355 0.29531,0.68312 0.007,0.026 -0.0539,-7e-5 -0.0809,-1e-4 -0.82729,-0.59747 -1.50605,-1.37473 -2.1131,-2.18931 -0.52602,-0.72381 -0.96822,-1.49831 -1.45797,-2.24318 -0.22899,-0.30283 -0.37281,-0.29543 -0.74357,-0.36825 -0.99309,-0.16805 -1.96643,-0.42502 -2.93556,-0.69773 -1.35438,-0.42691 -2.71839,-0.79974 -4.09991,-1.12942 -1.09176,-0.33 -2.16279,-0.78126 -3.2799,-0.99514 -0.35873,0.0195 -0.15953,0.0147 -0.59775,0.005 -0.10302,0.003 -0.41082,0.0261 -0.3078,0.0297 3.27589,0.11508 1.53142,-0.0392 0.80525,0.0582 -0.81676,0.0778 -1.63495,0.27008 -2.45379,0.30691 -1.0393,0.0468 -2.08003,0.0529 -3.11994,0.083 -0.31105,0.009 -0.62194,0.0228 -0.93291,0.0342 -0.32792,0.007 -0.65579,0.0163 -0.98375,0.0202 -0.33687,0.004 -1.34698,0.0236 -1.01069,0.003 0.42728,-0.0255 0.85867,0.0285 1.28398,-0.0198 0.32259,-0.0367 -0.64924,-0.0124 -0.9739,-0.0154 -0.31682,-0.003 -0.63366,-0.004 -0.95049,-0.002 -0.31548,0.001 -0.63092,0.006 -0.94639,0.009 -2.6442,0.0482 -5.31354,0.14713 -7.9407,-0.18836 -1.39216,-0.27817 -2.75427,-0.68505 -3.85991,-1.62039 0.20744,0.24081 0.51803,0.34185 0.74584,0.55457 0.0365,0.0341 0.0211,0.12698 0.0708,0.13217 0.63011,0.0658 1.26883,0.01 1.89917,0.0734 0.12767,0.0129 -0.25102,0.0533 -0.37653,0.08 -2.18875,0.38717 -4.43689,0.23762 -6.64443,0.24229 -1.54709,-0.13327 -3.08363,-0.37912 -4.63587,-0.44185 -2.11176,-0.006 -4.22784,0.049 -6.33122,-0.1904 -2.46053,-0.2924 -4.90373,-0.70197 -7.34972,-1.09557 -2.21563,-0.2791 -4.44801,-0.44298 -6.64271,-0.87436 -2.08557,-0.41027 -4.1349,-0.96862 -6.22363,-1.357 -2.19647,-0.25328 -4.4091,-0.16629 -6.61009,-0.36908 -2.54967,-0.31994 -5.04301,-0.85968 -7.49285,-1.64363 -2.10442,-0.58459 -4.20787,-1.175 -6.3578,-1.57501 -2.43829,-0.54795 -4.84165,-1.21697 -7.19272,-2.07041 -2.74699,-0.886 -5.53407,-1.6255 -8.42532,-1.85174 -3.99868,-0.38652 -8.01737,-0.58238 -11.99674,-1.15716 -3.92383,-0.57351 -7.83662,-1.31859 -11.80923,-1.4584 0.19993,-0.0112 0.79997,-0.0278 0.5998,-0.0337 -2.82977,-0.0847 -5.66746,0.0531 -8.49354,0.17882 -0.73909,0.0329 -1.47809,0.0676 -2.21713,0.10146 -4.67634,0.1185 -9.355218,0.11539 -14.026291,-0.16909 -0.522936,-0.0187 -1.048161,-0.004 -1.568813,-0.0561 -0.245787,-0.0247 0.987592,-0.0285 0.740574,-0.0271 -2.276213,0.013 -4.541782,0.25569 -6.782607,0.65271 -4.47508,0.84713 -8.865293,2.08699 -13.354674,2.86419 -3.950417,0.69153 -7.928943,1.18081 -11.930888,1.4596 -3.120588,0.39727 -6.062194,1.42702 -8.828921,2.93331 -3.55206,1.92704 -6.899235,4.33471 -10.73314,5.67057 -2.567212,2.97068 -6.768386,-0.65991 -4.201173,-3.63059 z"
       inkscape:connector-curvature="0" />
    <path
       style="fill:#000000;fill-opacity:1;stroke:none;stroke-width:0.26458332;stroke-opacity:1"
       id="path869"
       d="m 138.33343,102.05028 c -0.0349,0.43297 -0.0323,0.8706 -0.10457,1.29891 -0.50915,3.01532 -2.1321,6.51906 -3.30668,9.35686 -1.35822,3.22209 -2.81038,6.40787 -4.02135,9.68963 0.15847,-0.0249 -0.66529,1.74287 -0.23662,1.73059 0.13194,-0.004 0.24868,-0.0896 0.37633,-0.12318 1.36663,0.36139 2.70833,0.45023 4.11303,0.33724 0.31979,-0.05 0.83291,0.14792 0.95936,-0.15003 0.10957,-0.25818 -0.99347,0.0563 -0.82454,-0.16764 0.22247,-0.29485 0.73085,-0.11048 1.09219,-0.18709 1.25586,-0.26624 2.44509,-0.69635 3.64229,-1.14963 2.41955,-0.99908 4.80715,-2.1058 7.04278,-3.47256 1.45285,-1.00187 2.27453,-2.59609 3.09065,-4.1115 0.90908,-1.74845 1.49352,-3.63174 1.99065,-5.53077 0.48389,-2.04655 0.76797,-4.13322 1.08484,-6.21039 0.12644,-0.88776 0.26989,-1.7663 0.34297,-2.66008 0.013,-0.6576 0.19976,-1.260866 0.4494,-1.86055 1.84799,-4.696042 8.4892,-2.082588 6.64121,2.61345 v 0 c 0.12316,-0.30512 0.24618,-0.60006 0.27166,-0.93074 0.64835,0.75454 0.57046,2.22493 0.73103,3.197 0.0519,2.67973 -0.40063,5.29923 -1.21147,7.85505 -0.73057,2.34074 -1.53399,4.67013 -2.60189,6.88123 -1.28123,2.42887 -2.76778,4.74067 -4.81466,6.60638 -2.54659,2.21893 -5.39036,4.059 -8.5801,5.22368 -1.51336,0.48027 -2.19274,0.75387 -3.75549,1.02252 -2.58074,0.44366 -5.2986,0.29265 -7.86931,-0.0795 -2.3352,-0.47906 -4.65733,-1.16128 -6.53144,-2.70352 -0.31561,-0.32779 -0.6657,-0.62557 -0.94684,-0.98337 -1.45583,-1.85281 -1.80174,-4.22239 -1.68985,-6.50721 0.0733,-0.55498 0.11405,-1.11523 0.21986,-1.66493 0.63772,-3.31321 2.14415,-6.39873 3.45947,-9.47585 1.66073,-3.41696 3.41059,-6.92689 6.1567,-9.61435 1.25181,-3.415604 6.08221,-1.645274 4.83039,1.77033 z"
       inkscape:connector-curvature="0" />
    <path
       style="fill:#000000;fill-opacity:1;stroke:none;stroke-width:0.26458332;stroke-opacity:1"
       id="path871"
       d="m 173.04081,108.34995 c -0.11886,0.38599 -0.21994,0.7779 -0.35657,1.15796 -0.31806,0.8847 -0.89926,2.16569 -1.24985,3.01686 -0.70206,1.70449 -1.3066,3.42848 -1.87328,5.18172 -1.00478,3.14171 -1.26574,6.39197 -1.19361,9.66699 0.21356,2.14603 0.11484,2.46043 2.15619,2.25505 1.39727,0.0289 2.79705,-0.0435 4.19099,-0.13686 0.42523,-0.0285 0.86603,0.0159 1.27405,-0.10721 0.19606,-0.0592 -0.40476,-0.0627 -0.60714,-0.094 2.66776,-0.0727 4.01107,-0.59108 6.07283,-2.22794 1.87551,-1.64422 3.57472,-3.47352 5.2657,-5.30273 0.98655,-0.98984 1.35919,-2.11252 1.60469,-3.44709 0.31338,-1.93479 0.51722,-3.88693 0.70254,-5.83785 0.0826,-1.18837 0.1352,-2.37853 0.22693,-3.56626 0.36994,-2.74881 0.81764,-0.88919 5.93739,-0.38969 0.32994,0.0322 -0.65846,-0.0776 -0.98769,-0.11636 0.44782,1.62346 -1.8481,2.25677 -2.29592,0.63331 v 0 c -0.40337,-0.26222 -1.68429,-0.70518 -1.21012,-0.78667 1.90378,-0.32716 3.86517,0.0821 5.79506,-10e-4 0.18303,-0.008 0.0163,-0.53724 0.24102,0.0292 0.42392,1.48466 0.64375,3.01908 0.63343,4.56525 -0.05,2.44412 -0.38838,4.8651 -1.16039,7.19383 -0.6349,1.97652 -1.29348,3.95698 -2.33141,5.76668 -1.58213,2.84993 -3.60133,5.42413 -6.20492,7.4189 -3.37405,2.42678 -6.05689,3.74841 -10.30841,3.59926 -3.3495,-0.0758 -6.73008,-0.17325 -9.9658,-1.14686 -0.48743,-0.22299 -0.99399,-0.40816 -1.46228,-0.66896 -2.7652,-1.53999 -4.27204,-4.13756 -4.7653,-7.21331 -0.43052,-4.045 -0.22051,-8.09701 0.92998,-12.02281 1.1764,-3.88709 2.60342,-7.90903 5.80162,-10.60796 2.25486,-3.63472 7.39513,-0.44587 5.14027,3.18885 z"
       inkscape:connector-curvature="0" />
    <path
       style="fill:#000000;fill-opacity:1;stroke:none;stroke-width:0.26458332;stroke-opacity:1"
       id="path880"
       d="m 217.05253,115.09457 c -1.01169,3.88341 -2.7847,7.53715 -4.34506,11.2253 -1.63303,3.86781 -2.89368,7.87677 -3.8656,11.95745 -0.28974,1.54383 -0.53873,3.1663 -0.21275,4.72906 0.14383,0.68953 0.37191,1.13485 0.64667,1.7845 1.23597,2.38659 2.2088,4.87056 2.98828,7.43903 0.11769,0.95834 0.79546,2.24216 0.79497,3.21621 -2e-5,0.0292 -0.062,-0.005 -0.0842,-0.024 -0.19701,-0.16786 -0.37786,-0.3538 -0.56679,-0.5307 -0.31395,-0.0256 -3.68677,-1.21531 -3.53283,0.77561 0.0218,0.28179 0.44831,0.34426 0.67247,0.51639 0.78934,-1.94804 3.54427,-0.83175 2.75494,1.11628 v 0 c 0.14665,0.32924 0.50224,0.63272 0.43995,0.98771 -0.41508,2.3656 -2.47137,1.29726 -4.21679,1.22078 -0.34683,-0.27009 -0.71992,-0.50949 -1.04049,-0.81027 -1.26482,-1.18673 -1.79805,-2.977 -2.40978,-4.53564 -0.8375,-2.42599 -1.74097,-4.82225 -2.75135,-7.18244 -1.11398,-3.16399 -1.78617,-6.43596 -1.55621,-9.81239 0.0763,-0.71231 0.11816,-1.42916 0.2289,-2.13693 0.63656,-4.0687 2.20248,-7.91699 3.87313,-11.65283 1.93239,-3.97262 3.98102,-8.12953 7.43525,-11.00755 1.92645,-3.35687 6.67378,-0.63246 4.74733,2.72442 z"
       inkscape:connector-curvature="0" />
  </g>
</svg>
