<?xml version="1.0" encoding="UTF-8" standalone="no"?>
<!-- Created with Inkscape (http://www.inkscape.org/) -->

<svg
   xmlns:dc="http://purl.org/dc/elements/1.1/"
   xmlns:cc="http://creativecommons.org/ns#"
   xmlns:rdf="http://www.w3.org/1999/02/22-rdf-syntax-ns#"
   xmlns:svg="http://www.w3.org/2000/svg"
   xmlns="http://www.w3.org/2000/svg"
   xmlns:sodipodi="http://sodipodi.sourceforge.net/DTD/sodipodi-0.dtd"
   xmlns:inkscape="http://www.inkscape.org/namespaces/inkscape"
   width="1024"
   height="512"
   viewBox="0 0 270.93334 135.46667"
   version="1.1"
   id="svg8"
   inkscape:version="0.92.4 (5da689c313, 2019-01-14)"
   sodipodi:docname="leg.svg"
   inkscape:export-filename="C:\Users\panu-\PycharmProjects\nextgame\data\images\bodies\sporty\leg.png"
   inkscape:export-xdpi="10.173375"
   inkscape:export-ydpi="10.173375">
  <defs
     id="defs2" />
  <sodipodi:namedview
     id="base"
     pagecolor="#ffffff"
     bordercolor="#666666"
     borderopacity="1.0"
     inkscape:pageopacity="0.0"
     inkscape:pageshadow="2"
     inkscape:zoom="0.98963091"
     inkscape:cx="470.64413"
     inkscape:cy="395.16365"
     inkscape:document-units="mm"
     inkscape:current-layer="layer6"
     showgrid="false"
     units="px"
     width="1024px"
     inkscape:window-width="1920"
     inkscape:window-height="1017"
     inkscape:window-x="-8"
     inkscape:window-y="-8"
     inkscape:window-maximized="1"
     inkscape:pagecheckerboard="true"
     showguides="false" />
  <metadata
     id="metadata5">
    <rdf:RDF>
      <cc:Work
         rdf:about="">
        <dc:format>image/svg+xml</dc:format>
        <dc:type
           rdf:resource="http://purl.org/dc/dcmitype/StillImage" />
        <dc:title />
      </cc:Work>
    </rdf:RDF>
  </metadata>
  <g
     inkscape:groupmode="layer"
     id="layer6"
     inkscape:label="arm_color"
     transform="translate(0,-296.33334)"
     style="display:inline">
    <path
       style="fill:#7137c8;fill-opacity:1;stroke:none;stroke-width:0.26458332;stroke-opacity:1"
       id="path847"
       d="m 56.511099,394.46126 c -1.090128,-1.49877 -1.754706,-3.25901 -2.34197,-5.00336 -0.496789,-1.28131 -0.820282,-2.61152 -1.049713,-3.96332 -0.222263,-1.71651 -0.24471,-3.44827 -0.366543,-5.17287 -0.173384,-2.07939 -0.304988,-4.16176 -0.432438,-6.24447 -0.138017,-1.91759 -0.09749,-3.84032 -0.03385,-5.75977 0.04233,-1.69423 -0.06489,-3.38701 -0.05402,-5.08103 -0.05198,-1.79665 0.11023,-3.58151 0.376488,-5.35552 0.328446,-1.50124 0.594326,-3.00068 0.665525,-4.53661 0.0064,-1.61699 -0.0236,-3.22869 0.119232,-4.8408 0.201171,-1.46686 0.607439,-2.89016 0.777531,-4.36159 0.06114,-1.13816 -0.0084,-2.27728 -0.0024,-3.416 -0.06138,-1.15413 0.197202,-2.25072 0.579583,-3.32877 0.333804,-0.86031 0.61173,-1.74029 0.876726,-2.62372 0.252971,-0.8038 0.427479,-1.6281 0.625631,-2.44622 0.112176,-0.46042 0.244438,-0.9149 0.345477,-1.37797 0.05869,-0.41563 0.08945,-0.83368 0.15534,-1.24857 0.08535,-0.37291 0.126137,-0.75198 0.150508,-1.13293 0.02273,-0.30621 0.01897,-0.61318 0.02556,-0.91992 -0.01408,-0.37988 -0.03111,-0.75946 -0.02148,-1.1396 0.01193,-0.25631 0.05421,-0.50924 0.04876,-0.7659 -0.0329,-0.36156 -0.06189,-0.72279 -0.07068,-1.08585 0.0019,-0.25756 0.0063,-0.52465 0.119918,-0.76086 3.105745,-0.54818 4.952939,-1.57257 2.976017,-0.42665 0.875718,1.06401 -0.629018,2.30246 -1.504736,1.23846 v 0 c -2.84299,0.8177 1.931945,-0.61002 2.620804,-0.80924 0.103939,0.24097 0.121671,0.50156 0.117097,0.76231 -0.0094,0.34899 -0.03891,0.69608 -0.06512,1.04404 2.33e-4,0.29321 0.0452,0.58375 0.04466,0.87735 -0.0046,0.28877 -0.03306,0.57534 -0.04372,0.86352 0.08377,0.4005 0.141462,0.80738 0.153456,1.21679 -0.0049,0.61489 -0.08066,1.21636 -0.253233,1.80799 -0.09753,0.26893 -0.128363,0.55136 -0.132411,0.83667 0.07324,0.56151 0.01984,1.13605 -0.03779,1.69599 -0.108464,0.97682 -0.243404,1.95489 -0.502709,2.90473 -0.28634,1.04061 -0.621056,2.07003 -1.138822,3.02224 -0.311758,0.59349 -0.314076,0.78542 -0.173685,1.48862 0.218532,1.38112 0.381986,2.77919 0.257704,4.179 -0.14006,1.42512 -0.486061,2.80434 -0.721583,4.2138 -0.07616,1.59148 -0.0044,3.18232 -0.04782,4.77467 -0.101293,1.65923 -0.349877,3.28881 -0.713952,4.91119 -0.202319,1.56914 -0.249653,3.14644 -0.207123,4.7279 0.01958,1.70928 -0.07547,3.41721 -0.05575,5.1267 0.03723,1.8254 0.236929,3.63657 0.382349,5.45556 0.113477,2.14091 0.169865,4.28538 0.09704,6.42899 -0.04745,1.64109 -0.149186,3.27541 -0.313426,4.90922 -0.01035,0.34532 -0.03435,0.57613 0.0154,0.91342 0.115845,0.78565 0.5466,1.48545 0.74049,2.24949 0.547981,1.8103 1.013158,3.71144 0.744074,5.6122 0.382326,1.93069 -2.348092,2.47138 -2.730418,0.54069 z"
       inkscape:connector-curvature="0" />
    <path
       style="fill:#7137c8;fill-opacity:1;stroke:none;stroke-width:1.01047778;stroke-opacity:1"
       d="m 629.18848,60.595371 c -31.98337,4.340998 -63.30889,12.921627 -95.48752,15.613291 -33.3449,2.746816 -66.8567,4.819579 -100.07914,9.35757 -60.10314,7.089898 -121.05373,3.296211 -181.44614,4.733632 -8.08571,5.492629 -16.88246,10.881546 -23.01402,18.433326 0.43714,17.85577 -1.27224,35.95293 -7.80357,52.75601 -1.30077,9.50806 2.02651,19.2821 -0.85457,28.74928 -2.06606,14.58798 -1.17719,29.2475 -4.0202,43.73276 -1.68877,33.0509 -0.14553,66.19199 0.20623,99.26837 -0.5796,11.89472 5.23895,22.73212 5.62573,34.52323 3.18448,3.79993 9.71548,1.07806 14.36378,2.09003 20.62972,1.51132 40.75908,7.86567 61.71477,7.84971 40.8111,1.14041 81.26522,7.41736 122.1544,7.95362 33.7482,1.38422 67.509,2.58507 101.28462,1.58778 39.11415,-0.24514 78.2293,-0.16978 117.34397,-0.22878 4.40838,-3.49243 1.26074,-11.46583 2.59329,-16.72024 1.41022,-62.64102 2.0031,-125.4842 -3.93627,-187.92774 -6.10223,-29.54099 -2.31888,-60.0641 -5.61788,-90.014823 -2.32989,-10.061798 -1.47515,-20.492524 -1.15064,-30.563313 0.0257,-1.011875 -1.24784,-0.88977 -1.87684,-1.193713 z"
       id="path849"
       inkscape:connector-curvature="0"
       transform="matrix(0.26458333,0,0,0.26458333,0,296.33334)" />
    <path
       style="fill:#5a2ca0;fill-opacity:1;stroke:none;stroke-width:0.26458332;stroke-opacity:1"
       id="path851"
       d="m 57.332652,331.70274 c 1.473782,-0.4813 3.043555,-0.59023 4.583051,-0.66777 1.790184,-0.0902 0.890797,0.0257 1.724287,-0.0919 1.766308,-0.0532 3.540776,-0.0193 5.303655,-0.16396 0.783217,-0.0643 1.562134,-0.17322 2.343637,-0.25579 2.375143,-0.36031 4.738462,-0.79297 7.098199,-1.24194 3.271406,-0.67978 6.572086,-1.1699 9.891623,-1.5371 4.109884,-0.43634 8.242755,-0.32957 12.365596,-0.23362 2.75889,0.17311 5.51733,0.34022 8.28207,0.36069 3.02463,-0.0236 6.04731,-0.1176 9.07236,-0.12023 2.36051,0.0737 4.72503,0.0741 7.08684,0.0367 2.46978,-0.0405 4.94046,-0.0348 7.40997,0.0195 1.76361,0.0454 3.42282,0.0126 4.68059,-0.0227 1.87476,-0.0922 3.74973,-0.12635 5.626,-0.0748 1.22464,0.0488 2.44964,0.0774 3.67401,0.0141 1.25316,-0.10082 2.50414,-0.18324 3.76171,-0.18107 0.77669,0.0668 1.55956,0.062 2.33625,0.11892 0.22476,0.0165 0.47436,0.10966 0.69687,0.15757 0.84414,-0.0173 -1.14989,0.0486 -0.36997,-0.0447 0.0791,-0.009 0.15798,-0.0205 0.2371,-0.0296 0.0916,-0.0106 0.18329,-0.0197 0.27494,-0.0295 0.56021,-0.0508 1.12313,-0.0434 1.68499,-0.0468 2.74766,-0.006 0.90458,0.008 0.5293,-0.0189 -0.0879,-0.006 0.17609,-0.008 0.26392,-0.0154 0.3431,-0.0281 0.67937,-0.0885 1.01778,-0.14951 0.88803,-0.16959 1.7895,-0.25539 2.69304,-0.26115 0.93099,-0.0575 1.85312,0.10598 2.78022,0.13065 -0.15343,0.003 0.62416,-0.005 0.46813,-0.008 -0.23947,-0.005 -0.95808,-0.003 -0.71856,-0.004 0.57975,-0.002 1.13033,0.006 1.70137,0.0211 0.38711,0.0557 1.82047,0.0387 0.12425,0.0811 0.66944,-0.0167 1.33986,-0.003 2.00976,-0.0158 0.0697,-0.001 0.13932,-0.004 0.209,-0.003 1.287,0.007 -1.15449,-0.1209 -0.15205,0.0678 0.46096,0.0671 0.99098,-0.006 1.43654,-0.0128 0.42726,-0.0717 0.86493,-0.0279 1.2954,-0.009 -0.14473,0.004 0.37343,0.0294 0.27965,0.0347 -1.65992,0.0945 -0.36627,-0.005 0.28911,0.0774 0.12556,0.0159 0.23284,0.0992 0.34927,0.14885 0.081,0.0472 0.16242,0.0935 0.24286,0.1416 0.35435,0.21175 -0.0909,-0.058 0.0107,-0.18263 0.0172,-0.009 0.0711,-0.0282 0.0515,-0.0283 -1.11999,-0.006 -0.85962,-0.16507 -0.69205,0.6399 1.53929,-0.66733 2.48305,1.50955 0.94376,2.17689 v 0 c -0.008,1.02382 -0.23103,0.80835 -1.41511,0.64853 -0.22875,-0.051 -0.27533,-0.05 -0.50067,-0.15241 -0.0926,-0.0421 -0.76831,-0.46506 -0.27216,-0.15124 0.58974,0.27401 0.0696,0.0768 1.20714,0.14907 0.0349,0.002 -0.0653,0.0294 -0.10031,0.0312 -0.4681,0.0237 -0.93684,0.008 -1.40349,0.0533 -0.3984,-0.006 -0.80113,-0.003 -1.19286,-0.0858 1.49369,-0.0317 0.75281,-0.0781 0.42906,-0.001 -0.6708,0.13952 -1.37219,0.0595 -2.05325,0.0539 -0.34355,-0.0295 -0.0976,-0.007 -0.41805,-0.039 -0.053,-0.005 -0.21207,-0.0133 -0.1589,-0.0153 1.49037,-0.0555 0.85165,0.004 0.51714,-0.014 -0.67318,0.0132 -1.34334,0.0386 -2.01552,0.0654 -0.16497,5.3e-4 -0.84457,0.002 -0.46134,0.01 0.23699,0.005 0.94814,2.6e-4 0.71111,7.9e-4 -0.61104,10e-4 -1.22197,0.0181 -1.83156,-0.0294 -0.27661,-0.0203 -0.55364,-0.047 -0.83085,-0.0579 -0.0769,-0.003 -0.30776,-0.007 -0.23085,-0.004 0.71614,0.0285 1.03364,0.0214 0.54832,0.0274 -0.82735,0.11758 -1.64156,0.32803 -2.47908,0.36952 -0.97623,0.0498 -1.95429,0.0725 -2.93178,0.0395 -0.23501,-0.008 0.47028,-0.005 0.70542,-0.007 -0.52647,-0.002 -1.05126,0.0415 -1.57768,0.0438 -0.77945,-0.0336 -1.56021,1.6e-4 -2.33776,-0.0605 -0.18694,0.0168 -0.91959,0.0224 -0.5754,0.0885 0.23103,0.0444 0.47735,-0.0162 0.70432,0.0457 0.25955,0.0708 -1.19192,0.0331 -0.79954,0.11013 -1.2798,0.14097 -2.5621,0.25561 -3.85175,0.22092 -1.18291,-0.003 -2.36587,0.0335 -3.54101,0.18005 -1.86861,0.22549 -3.74183,0.4218 -5.62636,0.43603 -2.39724,0.0236 -4.79396,-0.02 -7.18857,-0.13556 -1.14288,-0.0214 -2.88236,0.028 -4.65344,0.2864 -3.32235,0.38692 -6.65404,0.63553 -10.00373,0.53919 -3.00213,-0.0229 -5.99527,-0.18987 -8.99359,-0.32277 -2.79749,-0.0442 -5.59571,0.0301 -8.392846,0.0751 -0.782259,0.13171 -0.05612,0.0207 -1.892885,0.0664 -2.403467,0.0598 -4.805762,0.17663 -7.204998,0.32885 -3.30522,0.18414 -6.615562,0.31717 -9.911376,0.63446 -2.481911,0.2645 -4.957691,0.58894 -7.449114,0.75647 -2.649915,0.28677 -5.309081,0.55343 -7.975203,0.61077 -1.755058,-0.0154 -3.511484,-0.002 -5.261197,-0.16291 -0.622657,-0.0575 -1.576922,-0.17056 -2.20322,-0.32954 -0.243194,-0.0617 -0.474189,-0.1642 -0.711282,-0.2463 -2.003705,-0.51447 -1.276143,-3.34813 0.727562,-2.83367 z"
       inkscape:connector-curvature="0" />
    <path
       style="fill:#5a2ca0;fill-opacity:1;stroke:none;stroke-width:0.26458332;stroke-opacity:1"
       id="path853"
       d="m 53.960439,380.16788 c 0.253717,-0.091 0.501441,-0.20087 0.761146,-0.27302 1.063646,-0.29553 2.184992,-0.3904 3.281754,-0.4578 1.194107,-0.0734 1.567489,0.1054 1.092345,-0.0992 2.302344,-0.0627 4.546516,-0.58573 6.797307,-1.02171 2.76474,-0.4982 5.596372,-0.62659 8.392742,-0.34762 2.003645,0.30458 4.017844,0.30758 6.03663,0.2262 0.421529,-0.0254 0.845937,-0.0208 1.264584,-0.0761 0.03167,-0.004 -0.07537,-0.0813 -0.04368,-0.0853 0.480359,-0.0613 0.966256,-0.0665 1.449721,-0.0942 1.540507,-0.0884 3.076384,-0.12237 4.61908,-0.13031 1.844458,0.0638 3.691686,0.0634 5.535967,0.12591 1.236495,0.0419 2.468361,0.19287 3.695295,0.3409 2.264624,0.33652 4.51057,0.78301 6.77997,1.08797 2.21413,0.30719 4.45163,0.35792 6.68335,0.3844 2.31468,-0.007 4.62649,-0.0717 6.91913,-0.0685 3.14594,0.005 6.29289,5.3e-4 9.43367,0.19714 2.1255,0.18304 4.25217,0.32306 6.3851,0.36778 2.03482,-0.0289 4.0679,-5.3e-4 6.09874,0.13091 1.7133,0.10267 3.38914,0.4721 5.07923,0.74091 0.4636,0.0629 0.66277,0.10384 1.12265,0.11466 0.17803,0.004 0.69174,0.0732 0.53416,-0.01 -0.17701,-0.0932 -0.68077,0.15811 -0.59965,-0.0248 0.0847,-0.19106 0.41756,-0.0206 0.62609,-0.0348 0.23258,-0.0159 0.46476,-0.0372 0.69714,-0.0558 1.8705,-0.13188 3.76132,-0.15831 5.63218,-0.0225 0.36281,0.0189 0.72315,0.067 1.08521,0.0946 0.15681,0.0119 0.6263,0.003 0.47099,0.0274 -0.23793,0.0378 -0.48186,0.004 -0.7226,0.0125 -0.2397,0.009 0.47978,-0.004 0.71943,-0.0143 0.79235,-0.0958 1.57128,-0.27022 2.36453,-0.36032 0.59832,-0.0735 1.19755,-0.11748 1.80015,-0.13268 0.54728,-0.0291 1.08954,-0.10756 1.63393,-0.1664 0.6988,-0.0832 1.39699,-0.17045 2.09734,-0.24123 0.74001,-0.0708 1.47792,0.0143 2.21701,0.0157 0.12105,2.4e-4 0.4838,8e-4 0.36306,-0.008 -0.48998,-0.0353 -1.1546,-0.004 -0.38499,-0.0318 0.6764,-0.0143 1.35476,-0.0274 2.02893,-0.0866 0.53543,-0.0349 1.07102,-0.12531 1.60833,-0.0898 0.36823,-0.003 0.26683,0.14381 0.60983,0.0612 0.74786,-0.26556 1.55253,-0.18061 2.33199,-0.13957 0.1552,0.0118 0.31028,0.025 0.46538,0.038 0.0369,0.003 0.14785,0.009 0.11078,0.01 -0.71281,0.0152 -1.14254,-0.011 -0.73764,0.0116 0.30523,-0.0207 0.61056,-0.0366 0.91608,-0.0517 0.38078,1.3e-4 0.76155,2.6e-4 1.14232,2.7e-4 0.0575,5.3e-4 0.11503,10e-4 0.17255,10e-4 0.15361,5.3e-4 0.57531,-0.002 0.33677,0.004 -0.8298,0.0203 -1.14304,-0.0263 -0.77827,0.0234 0.10298,0.0453 0.0575,0.13627 0.0234,0.20893 0.19155,-0.10855 0.0762,-0.0446 0.34771,-0.18865 2.26703,-1.23246 4.01,1.97359 1.74298,3.20606 v 0 c 0.22392,-0.12577 0.13897,-0.0723 0.2604,-0.15114 -0.32836,0.29643 -0.72986,0.48159 -1.15982,0.5812 -0.62338,0.096 -0.15996,0.0355 -1.40767,0.0592 -0.24905,0.005 -0.0866,0.003 -0.33851,0.002 -0.0562,-1.8e-4 -0.22478,1.6e-4 -0.16858,1.3e-4 0.26289,-9e-5 0.52578,-2.4e-4 0.78867,-2.6e-4 -0.29722,-0.0152 -0.59435,-0.03 -0.89193,-0.0365 -0.63583,0.0448 -1.27713,0.008 -1.91449,0.033 -0.37234,-0.008 -1.08303,0.0673 0.44953,-0.015 0.0379,-0.002 -0.075,-0.0161 -0.10906,-0.0328 -0.0502,-0.0247 -0.0459,-0.0417 -0.0555,-0.0846 -0.34209,0.0214 -0.64806,0.29898 -1.0043,0.28243 -0.43548,0.0602 -0.87817,0.0177 -1.31128,0.10982 -0.72923,0.12552 -1.44604,0.33087 -2.18723,0.38755 -0.8133,0.0562 -1.62666,0.05 -2.44061,0.006 -0.11904,-0.006 -0.23809,-0.013 -0.3572,-0.0179 -0.10653,-0.004 -0.42619,-0.004 -0.31972,-0.01 0.25478,-0.0135 0.51018,-0.009 0.76527,-0.0138 -0.55985,-0.0615 -1.10336,0.0221 -1.65098,0.14873 -0.6925,0.12283 -1.39657,0.22118 -2.10071,0.22265 -0.40825,0.002 -0.82841,-0.0472 -1.22629,0.0601 -0.83575,0.226 -1.66702,0.4764 -2.52339,0.61492 -1.41553,0.21584 -2.84543,0.10943 -4.26929,0.2352 -0.20991,0.0123 -0.45196,-0.0754 -0.62972,0.0369 -0.14997,0.0948 0.70331,-0.0193 0.53158,0.0251 -0.22993,0.0595 -0.47477,0.0162 -0.71222,0.0216 -0.75656,0.0174 -1.51367,0.0232 -2.27034,0.01 -1.78589,-0.0126 -3.57301,0.0282 -5.35591,-0.10387 -1.64433,-0.11471 -3.28833,-0.2463 -4.93649,-0.29267 -2.00152,-0.0518 -4.00271,-0.0261 -6.00458,-0.054 -2.16293,-0.0437 -4.32447,-0.16389 -6.48855,-0.13885 -2.25669,0.0126 -4.03815,0.0841 -6.45708,0.1309 -3.32595,0.0498 -6.6562,0.0435 -9.97169,-0.2597 -2.35024,-0.18131 -4.70132,-0.36537 -7.03643,-0.69633 -2.196789,-0.32338 -4.380832,-0.74047 -6.589775,-0.97077 -2.287294,-0.13532 -3.724275,-0.0431 -5.926047,0.10602 -3.437951,0.13412 -6.887271,0.16927 -10.322023,-0.0543 -2.005745,-0.17498 -3.993671,-0.51476 -6.005695,-0.59997 -0.285718,0.007 -0.572812,-0.008 -0.85716,0.021 -0.135369,0.0137 0.541835,0.003 0.407442,0.0247 -0.315827,0.0499 -0.638807,0.0332 -0.957233,0.0623 -1.154597,0.10554 -2.298531,0.30458 -3.443824,0.47873 -2.513066,0.36578 -5.03881,0.74206 -7.582281,0.77696 -1.997684,-0.003 -4.715627,0.11788 -6.668937,-0.51515 -0.21509,-0.0697 -0.413962,-0.18201 -0.620943,-0.27302 -2.287881,-0.58743 -1.457132,-3.82298 0.830747,-3.23555 z"
       inkscape:connector-curvature="0" />
    <path
       style="fill:#5a2ca0;fill-opacity:1;stroke:none;stroke-width:0.26458332;stroke-opacity:1"
       id="path855"
       d="m 156.81587,330.72029 c 1.66051,1.93541 2.53616,4.38656 3.30369,6.78097 0.75329,2.43803 1.0102,4.97397 1.13209,7.51003 0.0898,2.82856 0.0902,5.66083 -0.0674,8.4866 -0.16357,2.37313 -0.654,4.70345 -0.93451,7.06223 -0.15397,1.53383 0.007,3.07206 0.0353,4.60764 0.0446,1.8667 -0.25497,3.71391 -0.55658,5.54904 -0.29097,1.50336 -0.55395,3.01165 -0.86864,4.51032 -0.26633,1.37383 -0.50441,2.75258 -0.78991,4.1227 -0.23942,1.22025 -0.40226,2.45328 -0.69641,3.66233 -0.0818,0.31547 -0.15092,0.63938 -0.277,0.94164 -0.0698,0.16738 -0.0532,0.002 -0.097,0.18156 -0.0689,0.0517 0.0664,0.3034 -0.0384,0.31323 -1.20366,0.11296 -2.41523,0.1305 -3.62414,0.13978 -0.0375,2.6e-4 0.003,-0.0752 0.01,-0.11204 0.004,-0.0234 -5.3e-4,-0.0678 0.0232,-0.0674 1.18142,0.02 2.36164,0.0852 3.54246,0.12785 -0.0377,0.055 -0.0469,0.17178 -0.11323,0.1649 -1.15393,-0.11966 -2.31792,-0.2358 -3.43925,-0.53327 -0.11813,-0.0313 0.0533,-0.24074 0.10613,-0.35096 0.2527,-0.52738 0.34887,-0.45375 0.91476,-0.80373 0.0182,-0.9981 1.4297,-0.9724 1.41153,0.0257 v 0 c 0.60802,0.4013 0.59902,0.26918 0.88279,0.79777 0.0438,0.0816 0.19424,0.25568 0.10167,0.25861 -5.5232,0.17464 -2.25507,-0.34023 -3.50247,-0.1418 1.20085,-0.062 2.40125,-0.13342 3.60254,-0.18609 0.05,-0.002 0.14858,0.1055 0.0991,0.11291 -1.18075,0.17673 -2.37756,0.23922 -3.55495,0.43713 -0.0564,0.009 0.0395,0.18456 -0.0452,0.16549 -0.2649,-0.50526 -0.20306,-1.39152 -0.23302,-1.9427 0.052,-1.31541 0.2942,-2.61037 0.52214,-3.90478 0.24804,-1.39037 0.49222,-2.78152 0.76816,-4.16672 0.28531,-1.43434 0.4858,-2.87721 0.61507,-4.33443 0.22058,-1.66463 0.50914,-3.32164 0.63866,-4.99702 0.0606,-1.57428 -0.0613,-3.13797 -0.17662,-4.70778 -0.10131,-2.404 -0.01,-4.80856 0.15861,-7.20805 0.17177,-2.70219 0.38355,-5.40161 0.5437,-8.10436 0.002,-0.83726 0.0237,-1.22897 -0.056,-2.05346 -0.13655,-1.41283 -0.5723,-2.75997 -1.12091,-4.0633 -0.89026,-2.26304 -1.89256,-4.57793 -2.02178,-7.03528 -0.88053,-2.68834 2.92135,-3.93359 3.80188,-1.24525 z"
       inkscape:connector-curvature="0" />
    <path
       style="fill:#5a2ca0;fill-opacity:1;stroke:none;stroke-width:1.01047778;stroke-opacity:1"
       d="m 628.56285,60.942723 c -33.80537,5.303734 -67.07031,13.910262 -101.21553,16.449866 -27.28049,1.761115 -54.58861,3.405129 -81.66783,7.370381 -62.78685,8.516707 -126.49406,3.810241 -189.71649,5.866483 -11.61715,2.737448 -19.27228,13.036147 -28.92295,19.183287 -2.48314,0.1756 -5.36905,-2.01321 -7.46411,0.46182 -6.83306,-0.4888 -5.39904,8.4459 -6.26981,12.79054 0.21649,3.62185 -2.58435,11.56223 3.1693,11.87538 23.32072,-3.54044 47.36352,-1.91916 70.57087,-7.20203 21.15993,-4.46492 42.61528,-7.65842 64.25274,-7.36958 93.33836,-0.94373 186.68653,-0.54108 280.02683,-1.31973 4.09965,-2.7698 1.24218,-9.6288 1.70124,-14.1309 -1.6158,-13.912645 -3.54115,-27.880342 -2.17489,-41.919037 -0.21932,-1.365412 -0.98485,-1.909241 -2.28937,-2.05648 z"
       id="path859"
       inkscape:connector-curvature="0"
       transform="matrix(0.26458333,0,0,0.26458333,0,296.33334)" />
    <path
       style="fill:#5a2ca0;fill-opacity:1;stroke:none;stroke-width:1.01047778;stroke-opacity:1"
       d="m 613.92277,129.81112 c -6.00918,0.29853 -12.08626,0.1612 -18.04453,0.99864 -3.49613,3.49815 1.87923,8.26809 2.7468,12.04857 11.62698,24.94733 10.04917,52.75234 8.2007,79.61676 -3.62932,25.81984 -1.79144,52.06606 -8.15293,77.38772 -0.54118,6.42277 -3.86121,12.99087 -3.07679,19.35368 3.53911,2.84123 8.74476,-0.61486 12.88556,0.0928 10.42667,-1.03932 21.28444,-0.16398 31.56164,-2.36831 2.99495,-5.35671 1.11985,-12.44214 1.99925,-18.39385 0.9193,-36.92302 -1.48349,-73.8311 -4.18421,-110.6301 -2.65317,-17.12407 -4.73084,-34.30313 -4.65446,-51.73656 2.31175,-8.76901 -6.798,-6.84978 -12.31794,-6.57065 -2.32103,0.0671 -4.64206,0.13423 -6.96309,0.20134 z"
       id="path861"
       inkscape:connector-curvature="0"
       transform="matrix(0.26458333,0,0,0.26458333,0,296.33334)" />
    <path
       style="fill:#5a2ca0;fill-opacity:1;stroke:none;stroke-width:1.01047778;stroke-opacity:1"
       d="m 273.26941,325.81223 c -22.81764,1.86627 -45.75165,7.37698 -68.64341,3.19129 -6.05153,-4.24553 -6.90851,2.81829 -5.26947,7.31109 2.10781,11.54579 5.79589,23.35947 12.10006,33.13762 19.25315,-1.12321 38.16166,0.29761 57.01897,4.6182 28.66735,5.39719 58.17455,3.10926 86.92769,6.98043 37.5657,3.8953 75.4062,4.2459 113.12648,5.52398 56.89335,0.13986 113.7899,-0.67369 170.68656,-0.36683 4.42552,-3.6181 1.06714,-11.72774 2.32434,-17.10951 -0.1041,-13.01489 1.01763,-26.44595 -1.01981,-39.17726 -14.28609,0.49172 -28.95987,1.79471 -43.33409,3.32155 -23.43451,4.48067 -47.47502,2.09631 -71.21682,2.48218 -43.89239,-0.98839 -88.02728,-0.26875 -131.73329,-3.53805 -17.53279,-2.15087 -35.01317,-5.27148 -52.76588,-4.40009 -21.94416,0.45085 -43.80892,-0.11873 -65.65343,-1.99434 -0.84949,-0.009 -1.69865,-5.3e-4 -2.5479,0.0197 z"
       id="path863"
       inkscape:connector-curvature="0"
       transform="matrix(0.26458333,0,0,0.26458333,0,296.33334)" />
  </g>
  <g
     inkscape:groupmode="layer"
     id="layer2"
     inkscape:label="arm 2"
     sodipodi:insensitive="true">
    <path
       style="fill:#000000;fill-opacity:1;stroke:none;stroke-width:0.26458332;stroke-opacity:1"
       id="path841"
       d="m 58.488894,97.401289 c 2.986619,-0.483868 6.037548,0.01032 8.990642,0.506174 0.576503,0.105622 1.154078,0.205568 1.729513,0.316863 1.113951,0.215444 2.090078,0.443732 3.205511,0.637156 1.444647,0.250513 2.897336,0.415398 4.355873,0.55522 3.460461,0.159975 6.9244,0.158702 10.384684,0.329586 3.767563,0.21989 7.506044,0.749562 11.253607,1.171522 2.832606,0.27254 3.833316,0.34236 6.226486,0.35505 3.051,-0.009 6.09539,0.19962 9.14354,0.30163 1.2861,0.10416 2.58738,0.029 3.87289,0.13101 0.13725,0.0109 -0.54898,0.0185 -0.41187,0.0311 0.26797,0.0246 1.93477,0.0501 2.22498,0.0554 2.27087,0.0543 4.54169,0.10108 6.81298,0.13419 1.49406,0.13673 2.98854,0.18738 4.48797,0.16716 0.25494,-0.007 0.52678,0.0718 0.76481,-0.0197 0.20305,-0.0781 -0.8623,0.033 -0.65224,-0.0236 0.26561,-0.0716 0.54995,-0.0153 0.82493,-0.023 0.88043,-0.0245 1.76088,-0.0477 2.64128,-0.0731 2.69727,-0.13758 5.40017,-0.17716 8.10083,-0.17351 2.14934,0.0507 4.1595,0.0289 5.20944,0.0163 2.78711,-0.0292 5.57418,0.0173 8.36125,0.0321 2.11265,0.0524 4.22595,0.0337 6.3386,-0.004 1.09991,-0.0758 3.19429,-0.087 5.34981,0.002 2.11554,-0.0729 4.20059,0.19609 6.27162,0.58121 0.15763,0.0384 0.31758,0.0684 0.47291,0.11528 0.11285,0.0341 0.41859,0.14726 0.53357,0.24256 0.0331,0.0274 0.0841,0.0683 0.0694,0.10863 -1.67639,4.60725 -0.14149,4.55025 -1.92861,4.55833 -1.09613,-0.22649 -1.89268,-0.96488 -2.53359,-1.83792 -0.45775,-0.93129 -0.41092,-1.20156 0.17904,-2.03133 -0.75802,-1.30355 1.08547,-2.37556 1.8435,-1.07201 v 0 c 0.19971,-0.0324 0.39698,-0.0891 0.59914,-0.0971 0.48413,-0.019 0.87995,0.24652 1.30965,0.41905 0.11742,0.0662 0.27922,0.13398 0.2937,0.0959 0.0208,-0.0545 -0.16271,-0.0913 -0.067,-0.13757 1.78916,0.34262 0.14204,4.14031 -1.42187,4.71348 -0.14876,0.0545 -0.49997,0.10799 -0.63583,0.12126 -0.15031,0.0147 -0.30159,0.0166 -0.45238,0.0249 -0.87819,0.0213 -1.75276,0.0675 -2.62942,0.12318 -0.30007,0.019 -0.61314,-0.0341 -0.90034,0.0549 -0.17503,0.0542 0.36467,0.0364 0.547,0.0546 -2.81607,0.11952 -5.63492,0.0508 -8.45215,0.003 -2.1117,-0.0383 -4.22406,-0.0576 -6.33578,-0.007 0.15451,0.005 0.61796,0.007 0.46353,0.0139 -1.89875,0.0849 -3.80493,-5.3e-4 -5.70447,0.0247 -2.79007,-0.0288 -5.58002,-0.0236 -8.36999,0.006 -0.99879,-0.005 -1.31991,-0.002 -2.31693,-0.0236 -0.37506,-0.008 -0.75228,0.0111 -1.125,-0.0315 -0.15102,-0.0173 0.60407,-0.0226 0.45377,-0.0453 -0.0376,-0.006 -1.91232,-0.074 -1.98921,-0.0769 -2.2128,-0.0204 -4.42666,0.0167 -6.63873,-0.0506 -1.48385,-0.0704 -2.96535,-0.2155 -4.45217,-0.19793 0.23306,0.004 0.90667,-0.0934 0.69918,0.0129 -0.22666,0.11603 -0.50915,0.0113 -0.76363,0.0201 -1.1972,0.0416 -2.38985,0.15033 -3.5838,0.24318 -3.11414,0.22072 -6.24542,0.31368 -9.36088,0.0597 -2.0011,-0.21259 -3.98179,-0.47931 -5.99469,-0.542 -0.14976,-0.005 0.2996,0.006 0.44941,0.01 -3.31944,0.0868 -6.641097,0.24224 -9.962199,0.11764 -3.784495,-0.18791 -7.559638,-0.49752 -11.328898,-0.88682 -3.432442,-0.36474 -6.864863,-0.73374 -10.291656,-1.14823 -3.256487,-0.39241 -6.498087,-0.90581 -9.719876,-1.52184 -2.411241,-0.49175 -5.113756,-0.99797 -7.336618,-2.09264 -0.23662,-0.11652 -0.454943,-0.267 -0.682414,-0.4005 -2.79296,-1.11528 -1.215715,-5.065123 1.577245,-3.949844 z"
       inkscape:connector-curvature="0" />
    <path
       style="fill:#000000;fill-opacity:1;stroke:none;stroke-width:0.26458332;stroke-opacity:1"
       id="path843"
       d="m 169.56452,104.3545 c -0.0802,-0.28252 -0.18975,-0.55832 -0.2407,-0.84756 -0.2465,-1.39956 -0.12834,-2.8544 -0.0685,-4.262426 0.0668,-1.573012 0.0752,-1.707235 0.15041,-3.286297 0.12955,-3.474111 -0.0797,-6.946889 -0.0854,-10.421125 0.0289,-3.408101 0.19771,-6.812759 0.31292,-10.218521 0.13075,-2.866744 -0.0177,-5.730205 -0.22996,-8.588285 -0.25826,-2.631889 -0.34398,-5.274053 -0.43161,-7.915513 -0.0702,-2.622362 -0.21726,-5.241501 -0.38027,-7.859431 -0.10638,-2.112288 -0.57492,-4.176319 -0.95643,-6.248752 -0.44529,-2.170205 -0.52712,-4.378376 -0.45796,-6.585223 0.129,-1.738447 0.14336,-3.476688 0.10807,-5.218326 -0.0516,-1.365565 -0.11649,-2.730276 -0.17385,-4.095531 -0.041,-1.24664 -0.0439,-2.499926 -0.24583,-3.733179 -0.26817,-1.310393 -0.48534,-2.624854 -0.60461,-3.957153 -0.0803,-1.093766 0.0234,-2.186279 0.17055,-3.269201 0.0437,-0.397016 0.13933,-0.78703 0.18794,-1.183051 -0.038,-0.536925 0.009,-1.057185 0.10268,-1.586401 0.1378,-0.182309 0.0965,-0.567787 0.27211,-0.748908 0.009,-0.0096 -0.001,0.02691 -0.004,0.04003 -0.01,0.04715 -0.0398,0.160615 -0.0538,0.214107 -0.15474,-0.292072 -0.1108,-0.756232 -0.10029,-1.08211 0.0391,-0.749144 0.42502,-1.337831 0.6595,-2.067459 0.0383,-0.119036 -0.14204,0.207167 -0.19497,0.320438 -0.0786,0.1681 -0.13197,0.346852 -0.19795,0.520278 4.42048,3.644626 4.44508,2.883565 1.91496,3.656499 -1.62141,0.478733 -3.30235,0.696383 -4.97031,0.942721 -2.1871,0.305854 -4.35637,0.711241 -6.51368,1.180597 -2.71626,0.639265 -5.44798,1.201412 -8.2028,1.645516 -2.98211,0.445975 -5.97408,0.829824 -8.97241,1.149021 -2.59118,0.277213 -5.1941,0.38677 -7.79678,0.482342 -2.28198,0.07247 -4.5547,0.284666 -6.82511,0.514293 -2.72714,0.319577 -5.4542,0.643218 -8.1754,1.010354 -2.95202,0.473064 -5.92774,0.713498 -8.9088,0.902353 -2.39229,0.168168 -4.78054,0.38338 -7.17481,0.523236 -2.615493,0.145475 -5.236307,0.110213 -7.853862,0.05044 -0.296447,-0.0096 -0.635328,0.124263 -0.889338,-0.02887 -0.226738,-0.136694 0.755025,0.233147 0.793736,-0.02876 0.03833,-0.259288 -0.523949,-0.01658 -0.78595,-0.02392 -0.68004,-0.01904 -1.358633,-0.03077 -2.038905,-0.02778 -1.860312,0.09941 -3.719825,0.136684 -5.583545,0.1175 -1.304864,-0.03474 -2.609821,-0.05415 -3.91509,-0.06504 0.309918,-0.0024 0.619829,-0.0061 0.929754,-0.0073 0.195377,-7.67e-4 -0.390805,2.42e-4 -0.586099,0.006 -0.898346,0.02631 -1.796757,0.08252 -2.695004,0.116223 -1.797648,0.0792 -3.592237,-0.01299 -5.386152,-0.110191 -0.717063,-0.0413 -0.266599,-0.0135 -0.943536,-0.05935 -0.13462,-0.0091 -0.538403,-0.01626 -0.403894,-0.02688 0.354309,-0.02797 0.711057,-0.0058 1.065927,-0.02539 0.01357,-7.41e-4 -0.253532,-0.0097 -0.710031,-0.02512 -0.536149,-0.07741 -1.061455,-0.03436 -1.593104,0.0506 -0.655841,0.118908 -1.319186,0.138292 -1.98316,0.15157 -0.336085,0.0091 -0.67454,-0.06693 -1.008669,-0.03645 -0.08241,0.01007 -0.751771,0.263886 -0.780057,0.09108 0.128748,-0.186996 -0.179891,-0.05057 -0.262628,-0.01436 -0.41656,0.327714 -0.850887,0.63078 -1.285733,0.933807 -0.433795,0.318251 -0.903769,0.581442 -1.346332,0.886332 -0.150492,0.06858 -0.726675,0.586959 -0.865423,0.549401 -0.298228,0.299636 -0.569886,0.642565 -0.891836,0.931424 0.04363,-0.147593 -0.717973,0.635748 -0.63187,0.432194 -0.227214,0.194733 -0.402804,0.524282 -0.680479,0.653026 -0.21472,0.150349 0.0461,-0.04062 -0.286306,0.26099 -1.374291,1.24696 -1.016058,0.07391 -4.350893,-1.605052 -0.0021,-0.0011 0.03883,-0.201046 0.06796,-0.344631 4.172204,0.629127 5.143767,0.685864 2.876293,0.501293 -0.06507,0.75351 -1.130686,0.66149 -1.06562,-0.09202 v 0 c -2.158693,-0.860747 -1.280922,-0.400751 2.971615,-0.09064 0.344453,-1.303632 5.236162,1.273307 -3.960731,-1.72808 -0.104028,-0.03395 -0.164155,0.144898 -0.242273,0.221529 -0.02545,0.02497 -0.07182,0.118125 -0.06785,0.08269 0.005,-0.0444 0.04753,-0.07566 0.0713,-0.113498 0.225489,-0.303223 0.495956,-0.563185 0.795031,-0.794321 0.257699,-0.280233 0.536601,-0.541214 0.80782,-0.808117 0.09643,-0.06458 0.183843,-0.08507 0.272003,-0.127471 0.188388,-0.09062 0.244705,-0.34643 0.402862,-0.47076 0.311015,-0.373591 0.665377,-0.702566 1.038609,-1.013734 0.481846,-0.427698 0.967258,-0.852562 1.525055,-1.181157 0.405162,-0.259876 0.820658,-0.505961 1.2158,-0.778662 0.457513,-0.379598 0.927542,-0.752758 1.473629,-0.998525 0.05142,-0.02034 1.081225,-0.406302 0.963425,-0.184681 0.482142,-0.209785 0.976802,-0.394516 1.500539,-0.470622 0.595535,-0.0801 1.191115,-0.133998 1.792658,-0.106963 0.702543,-0.04624 1.375473,-0.294984 2.081374,-0.327869 1.325951,-0.05806 2.653577,-0.0418 3.978299,-0.13166 0.589878,-0.02033 1.179811,-0.0387 1.76971,-0.05844 0.218856,-0.0073 0.874109,0.003 0.656564,-0.02194 -0.06596,-0.0076 -1.97086,-0.0026 -0.199179,6.62e-4 1.835037,0.01732 3.667903,-0.04757 5.502849,-0.05652 1.322893,-0.0074 2.645802,0.0011 3.968684,0.005 0.21816,0.0013 0.872223,-0.0094 0.654476,0.0041 -0.299238,0.01852 -0.601154,-0.01989 -0.899364,0.01107 -0.20987,0.02178 0.421791,0.0142 0.632775,0.0166 0.106863,0.0012 1.117674,-0.0047 1.22287,-0.0093 0.205875,-0.0088 0.410988,-0.03061 0.616485,-0.04592 0.971523,-0.08868 1.946476,-0.232445 2.922053,-0.265616 0.835152,-0.0284 1.670952,-0.03271 2.506368,-0.05175 0.306912,-0.007 0.613733,-0.01757 0.920597,-0.02635 0.644035,-0.0087 1.288203,-0.0078 1.932178,-0.02026 0.231608,-0.0045 -0.92647,0.0098 -0.694955,0.0019 0.970174,-0.03339 1.943098,-0.0075 2.912295,-0.07912 2.298005,-0.184837 4.580805,-0.498512 6.860065,-0.842281 2.91266,-0.417607 5.83362,-0.748769 8.76559,-0.998399 2.82949,-0.298886 5.65387,-0.656871 8.49507,-0.831526 2.33159,-0.136899 4.66705,-0.186284 6.99824,-0.332671 2.44559,-0.207541 4.87955,-0.51455 7.30848,-0.866535 2.94654,-0.382761 5.90129,-0.695334 8.85201,-1.043876 2.69008,-0.333666 5.37303,-0.708608 8.02709,-1.269366 2.33136,-0.409584 4.66663,-0.801858 7.02665,-1.009401 1.71017,-0.166216 3.4245,-0.302798 5.14404,-0.303671 0.30815,7.9e-5 1.31455,-0.109874 1.55075,0.09549 1.22338,1.063703 2.45296,2.120265 3.67944,3.180397 -0.0728,0.193976 -0.12935,0.394796 -0.21823,0.581926 -0.70776,1.490081 0.27965,-1.638595 0.32231,-0.977683 0.0948,0.49681 0.0949,1.005938 0.0839,1.50997 -0.0362,0.42778 -0.0892,0.834854 -0.2169,1.246479 -0.0739,0.238087 -0.1336,0.338531 -0.13643,0.337222 -0.0348,-0.0161 0.003,-0.07653 0.005,-0.114802 0.01,-0.423739 -0.0472,0.01596 0.0139,0.22041 0.0738,0.586448 0.12173,1.175124 0.10133,1.767049 -0.0113,0.757437 -0.006,1.51476 0.14899,2.260628 0.22363,1.300926 0.53126,2.585745 0.72525,3.89187 0.16838,1.414243 0.23194,2.83611 0.24571,4.260195 0.0319,1.296493 0.139,2.585733 0.34679,3.867031 0.24777,1.933109 0.41865,3.882429 0.237,5.830901 -0.0809,1.754322 -0.15339,3.50907 0.3268,5.222414 0.55367,2.283635 1.16456,4.562568 1.42498,6.90394 0.29039,2.744956 0.42751,5.50029 0.40171,8.261376 -0.004,2.473693 0.0174,4.949454 0.4729,7.391704 0.41113,3.094096 0.64735,6.206366 0.5653,9.330632 -0.0238,3.365875 -0.15975,6.728439 -0.20187,10.094026 -0.007,3.629046 0.21518,7.261397 -0.0271,10.886596 -0.26178,2.611379 -0.59784,5.350841 -1.76501,7.743521 -0.13279,0.27222 -0.31121,0.5197 -0.46681,0.77955 -0.41915,3.51001 -5.38306,2.91724 -4.96391,-0.59277 z"
       inkscape:connector-curvature="0" />
    <path
       style="fill:#000000;fill-opacity:1;stroke:none;stroke-width:0.26458332;stroke-opacity:1"
       id="path845"
       d="m 56.040273,27.276763 c 0.364559,-1.905697 1.78334,-3.268028 3.287308,-4.366977 1.484881,-0.922607 2.414863,-0.905839 4.077388,-0.819504 0.315103,0.149046 0.236675,0.214521 0.086,0.513684 1.679683,0.588109 0.847973,2.963541 -0.831713,2.375433 v 0 c -0.0954,0.125955 -0.28363,0.285643 -0.256405,0.468088 0.280501,0.01517 0.561279,0.02591 0.841505,0.04552 0.06303,0.0044 -0.125355,0.01842 -0.186267,0.03523 -0.294325,0.08122 -0.575133,0.197006 -0.834763,0.360005 -1.175509,0.801355 -2.017175,1.965427 -3.169325,2.797642 -0.996394,2.131031 -4.010125,0.721916 -3.013731,-1.409113 z"
       inkscape:connector-curvature="0" />
  </g>
</svg>
