<?xml version="1.0" encoding="UTF-8" standalone="no"?>
<!-- Created with Inkscape (http://www.inkscape.org/) -->

<svg
   xmlns:dc="http://purl.org/dc/elements/1.1/"
   xmlns:cc="http://creativecommons.org/ns#"
   xmlns:rdf="http://www.w3.org/1999/02/22-rdf-syntax-ns#"
   xmlns:svg="http://www.w3.org/2000/svg"
   xmlns="http://www.w3.org/2000/svg"
   xmlns:sodipodi="http://sodipodi.sourceforge.net/DTD/sodipodi-0.dtd"
   xmlns:inkscape="http://www.inkscape.org/namespaces/inkscape"
   width="1024"
   height="512"
   viewBox="0 0 270.93334 135.46667"
   version="1.1"
   id="svg8"
   inkscape:version="0.92.4 (5da689c313, 2019-01-14)"
   sodipodi:docname="leg.svg"
   inkscape:export-filename="C:\Users\panu-\PycharmProjects\nextgame\data\images\bodies\sporty\upper_leg.png"
   inkscape:export-xdpi="10.173375"
   inkscape:export-ydpi="10.173375">
  <defs
     id="defs2" />
  <sodipodi:namedview
     id="base"
     pagecolor="#ffffff"
     bordercolor="#666666"
     borderopacity="1.0"
     inkscape:pageopacity="0.0"
     inkscape:pageshadow="2"
     inkscape:zoom="0.98963091"
     inkscape:cx="561.08189"
     inkscape:cy="277.94823"
     inkscape:document-units="mm"
     inkscape:current-layer="layer1"
     showgrid="false"
     units="px"
     width="1024px"
     inkscape:window-width="1920"
     inkscape:window-height="1017"
     inkscape:window-x="-8"
     inkscape:window-y="-8"
     inkscape:window-maximized="1"
     inkscape:pagecheckerboard="true"
     showguides="false" />
  <metadata
     id="metadata5">
    <rdf:RDF>
      <cc:Work
         rdf:about="">
        <dc:format>image/svg+xml</dc:format>
        <dc:type
           rdf:resource="http://purl.org/dc/dcmitype/StillImage" />
        <dc:title />
      </cc:Work>
    </rdf:RDF>
  </metadata>
  <g
     inkscape:groupmode="layer"
     id="layer1"
     inkscape:label="arm_color 1">
    <g
       style="display:inline"
       id="g890"
       transform="translate(114.71552,-341.0827)">
      <g
         id="g866"
         style="display:inline"
         transform="translate(0,3.3333334e-6)">
        <path
           style="fill:#ffccaa;fill-opacity:1;stroke:none;stroke-width:0.22324246;stroke-opacity:1"
           d="m 42.9778,365.94925 c -1.016569,0.42308 -2.082588,0.63679 -3.114107,1.03125 -3.006261,1.5287 -6.08074,3.1452 -8.53505,5.48944 -3.19772,4.1627 -5.914823,8.7144 -8.199365,13.43727 -1.792193,4.86735 -1.951105,10.14508 -2.39795,15.26136 -0.505607,5.88374 2.14792,11.38317 4.576197,16.56269 1.803167,3.73385 5.137752,6.40315 8.078696,9.2108 2.892797,2.3826 6.445453,3.78836 9.667725,5.65886 2.320706,1.40854 4.920309,2.383 7.666703,2.34639 3.150143,0.22439 6.420337,-0.11455 9.504808,0.31436 1.15102,0.62721 2.25547,-0.76831 3.25533,-1.17637 6.29336,-3.79832 14.1591,-5.57388 18.93608,-11.58253 3.24375,-4.06782 6.075,-8.64302 7.48474,-13.66349 -0.22432,-7.40256 0.44391,-15.1292 -2.28055,-22.17906 -1.52383,-2.75564 -3.33851,-5.40278 -5.50214,-7.69663 -2.54343,-2.00196 -4.86095,-4.30431 -7.70187,-5.90111 -3.751,-2.71482 -8.05218,-5.03133 -12.72162,-5.50811 -5.886183,-0.18877 -11.832204,-0.0156 -17.667253,-0.61796 0.02619,-0.58009 -0.459961,-1.07704 -1.050374,-0.98716 z"
           id="path823"
           inkscape:connector-curvature="0" />
        <path
           style="fill:#ffb380;fill-opacity:1;stroke:none;stroke-width:0.31243885;stroke-opacity:1"
           id="path831"
           d="m 48.65392,369.26796 c -0.990794,0.14762 -1.988852,-0.0295 -2.98487,-0.007 -0.306285,0.007 -0.621611,-0.0274 -0.917639,0.0515 -0.125407,0.0334 0.252177,0.0615 0.378266,0.0922 -1.819011,0.1103 -3.553712,0.658 -5.214589,1.37704 -1.093117,0.47791 -2.023058,1.21486 -2.935283,1.96745 -0.363945,0.32292 -0.784391,0.61334 -1.063486,1.02124 -0.147016,0.21487 -0.215866,0.41606 -0.319186,0.65795 -0.52523,1.57328 -1.016744,3.15725 -1.566997,4.72244 -0.71587,2.07136 -1.786655,3.98365 -2.806617,5.91368 -0.718692,1.37092 -1.185134,2.84868 -1.651104,4.31855 -0.518475,1.69917 -1.136601,3.3651 -1.762324,5.02696 -0.279256,0.9347 -0.867033,1.80915 -0.920161,2.80002 0.15138,1.11733 0.288437,2.23092 0.338517,3.35921 0.0135,1.25111 -0.08795,2.49937 -0.08734,3.75035 0.04885,1.04065 0.115064,2.08032 0.009,3.11912 -0.353156,1.89387 -0.991439,0.88864 -4.132511,0.66278 -0.06354,-0.005 -0.0211,-0.12565 -0.03175,-0.18846 -0.01027,-0.0609 -0.02076,-0.12176 -0.03114,-0.18263 -0.02061,-0.0842 -0.0372,-0.16956 -0.06181,-0.25273 -0.146672,-0.49565 -0.356848,-0.95869 -0.486693,-1.46288 -0.23836,-0.92555 -0.273302,-1.30436 -0.430603,-2.28436 -0.36704,-2.73502 -0.293583,-5.51233 0.201992,-8.22691 0.105145,-0.57597 0.248856,-1.14421 0.373284,-1.71632 0.685136,-2.81643 1.767281,-5.51076 2.834424,-8.19844 0.566753,-1.43068 1.059174,-2.89388 1.728973,-4.282 0.4834,-1.00181 0.581616,-1.111 1.156207,-2.05154 0.930929,-1.36943 1.994695,-2.67696 3.312308,-3.69187 0.28982,-0.24142 0.643836,-0.36737 0.950937,-0.57831 0.110848,-0.0762 0.222796,-0.30567 0.332716,-0.22819 1.076964,0.75912 1.998786,1.71735 2.998177,2.57603 -0.46448,1.76858 -1.495762,3.2963 -2.520869,4.78246 -1.314294,1.71944 -2.603595,3.44759 -3.719423,5.30359 -1.21609,2.30716 -2.251417,4.70107 -3.460032,7.01292 -0.575995,1.10145 -1.250831,2.14495 -1.915494,3.19343 -0.352327,0.55579 -0.696964,1.09071 -0.961283,1.69283 -0.02114,0.10888 -0.05663,0.2159 -0.0634,0.32659 -0.02979,0.48744 0.16369,1.0408 0.260323,1.50619 0.219407,1.05669 0.153798,0.73567 0.341508,1.87518 0.336127,2.25087 0.643587,4.50474 1.011547,6.7508 0.297932,1.70448 0.624568,3.28202 1.425898,4.82495 0.486853,0.94148 1.18089,1.7001 2.047615,2.29779 1.01662,0.60686 1.995669,1.2642 2.948829,1.96602 0.724229,0.55646 1.450943,1.10861 2.243606,1.56467 0.76787,0.42923 1.55854,0.80969 2.320288,1.2505 0.917879,0.55438 1.751911,1.231 2.601737,1.88138 0.741982,0.53688 1.588609,0.89125 2.424527,1.25137 0.980059,0.41972 1.930195,0.90571 2.915304,1.3134 1.06834,0.3636 2.209279,0.4373 3.318967,0.60911 1.488278,0.26466 2.967342,0.56296 4.477634,0.66418 0.369328,0.0106 1.11846,0.0387 1.487318,0.0165 0.17272,-0.0106 -0.691559,-0.0228 -0.519005,-0.009 0.663451,0.0495 1.336185,0.0462 2.00119,0.0732 0.530449,-0.0354 1.045234,0.14297 1.56579,0.18659 1.426459,0.11954 0.850022,-0.12724 1.553215,0.24104 -0.0655,1.24915 -0.07948,2.50208 -0.19652,3.74746 -9.38e-4,0.0106 -0.278277,0.0588 -0.295864,0.0622 -0.494032,0.0942 -1.006566,-0.0341 -1.494355,0.0956 -1.33687,0.44359 -2.764394,0.53882 -4.160685,0.61804 -2.744048,0.10982 -5.427334,-0.46978 -8.050091,-1.21109 -2.180088,-0.60114 -4.019468,-1.6435 -5.813428,-2.98764 -1.699493,-1.39329 -3.370218,-2.82054 -5.074654,-4.20804 -1.648254,-1.32139 -3.304068,-2.63413 -4.907038,-4.01047 -1.705797,-1.43399 -3.069743,-3.17959 -4.273385,-5.04073 -0.935528,-1.53519 -1.612322,-3.2047 -2.235151,-4.8852 -0.378875,-1.07723 -0.804355,-2.13817 -1.267096,-3.18208 -0.108144,-0.18839 -0.201597,-0.40098 -0.284966,-0.5929 -1.485224,-1.87453 0.139468,-1.84382 3.218089,-3.08891 0.203025,-0.0821 0.393559,0.19239 0.587252,0.29459 0.253181,0.13358 0.5021,0.2751 0.75315,0.41266 2.53483,1.4101 4.683366,3.38265 6.74736,5.39502 2.14931,2.11012 4.017809,4.46743 5.7666,6.91212 1.144255,1.6259 2.208026,3.31602 3.663291,4.68525 1.242145,0.9834 2.553955,1.87644 3.835777,2.80763 1.240683,0.95002 2.590692,1.72388 3.963215,2.46227 1.165506,0.57948 2.275211,1.2545 3.349916,1.9865 0.58248,0.42608 1.197294,0.71741 1.910245,0.81942 0.707871,0.0939 1.422513,0.0797 2.134344,0.1071 1.116279,0.0106 2.231277,0.0709 3.347213,0.10061 0.84112,0.0327 1.68195,0.0713 2.52376,0.0816 0.20249,0.002 0.44632,-0.11904 0.60751,0.004 0.15794,0.12011 -0.39684,0.004 -0.59526,0.006 0.57201,-0.0161 1.17738,0.10368 1.73389,-0.0861 0.29475,-0.10049 0.5366,-0.26155 0.80587,-0.41683 1.27421,-0.8692 2.62994,-1.59077 4.02594,-2.24068 1.32795,-0.52061 2.49261,-1.30116 3.59929,-2.18613 1.64914,-1.472 3.38286,-2.82578 5.28071,-3.96066 0.70707,-0.39928 1.44246,-0.74271 2.20315,-1.02573 0.25578,-0.0952 0.52214,-0.16236 0.76273,-0.2932 0.43352,-0.8564 0.84763,-1.71587 1.40657,-2.50266 0.19404,-0.27312 0.40877,-0.53096 0.61315,-0.79645 0.647,-0.66111 1.30563,-1.54601 2.23771,-1.8329 0.10852,-0.0334 0.24777,-0.10828 0.33839,-0.0399 0.93299,0.7049 1.76701,1.53203 2.65051,2.29803 -0.36299,-0.10793 -0.72596,-0.2158 -1.08895,-0.32371 -0.43412,0.48987 -1.12692,-0.12406 -0.69278,-0.61395 v 0 c -0.22717,-0.22405 -0.45433,-0.44812 -0.6815,-0.67218 0.95735,0.67639 1.92406,1.3397 2.87201,2.02917 0.051,0.0371 0.11408,0.0838 0.11964,0.14672 0.045,0.50794 -1.0359,1.57529 -1.30197,1.94891 -0.99641,1.09112 -2.03071,2.14435 -3.03381,3.22875 -0.85834,0.87362 -1.76586,1.69271 -2.76864,2.40044 -1.73326,1.29185 -3.4911,2.55343 -5.31236,3.71908 -1.39176,0.89467 -2.79375,1.77581 -4.29671,2.4756 -1.32101,0.66113 -2.63176,1.34292 -3.92572,2.05567 -1.36637,0.70818 -2.77728,1.33786 -4.35143,1.31093 -1.71699,0.008 -3.43475,0.0169 -5.14587,-0.15201 -1.099095,-0.0987 -2.19658,-0.21526 -3.293337,-0.33703 -0.928178,-0.0829 -1.864289,-0.16772 -2.766656,-0.41069 -1.015835,-0.32069 -1.982971,-0.74728 -2.902326,-1.28868 -1.128807,-0.55511 -2.301496,-1.01193 -3.434865,-1.55752 -1.573941,-0.80669 -3.062489,-1.7536 -4.459147,-2.84116 -1.407205,-1.02883 -2.883284,-1.96408 -4.231605,-3.07167 -0.701759,-0.62135 -0.909918,-0.78094 -1.565306,-1.46242 -1.079397,-1.12239 -2.025741,-2.36275 -3.013265,-3.56389 -1.783554,-2.14243 -3.697686,-4.16766 -5.69966,-6.10779 -1.929298,-1.89562 -3.936099,-3.73242 -5.648376,-5.83214 -0.135215,-0.18391 -0.275835,-0.36395 -0.405642,-0.55171 -0.06876,-0.0994 -0.281419,-0.23059 -0.189593,-0.30927 1.927142,-1.65115 3.964748,-1.18606 3.169557,-2.75895 -0.289281,-0.57221 -0.185373,-0.19716 -0.243214,-0.4191 0.662377,0.39753 1.182702,1.01123 1.619675,1.63615 0.680036,1.10644 1.163841,2.30197 1.664888,3.49726 0.650167,1.3618 1.408619,2.66864 2.25806,3.91633 1.001605,1.4365 2.040097,2.86587 3.421643,3.96684 1.707925,1.33204 3.574563,2.44927 5.216072,3.86835 0.895874,0.80542 0.980348,0.85821 1.821644,1.70506 0.692238,0.69681 1.329357,1.45167 2.045572,2.12456 0.169784,0.15952 0.352245,0.30498 0.528368,0.45746 0.169595,0.1123 0.331431,0.23719 0.508788,0.3367 1.271693,0.71358 2.79941,0.80135 4.176203,1.19591 2.290382,0.48791 4.594395,0.90621 6.936161,1.05188 1.306276,0.12699 2.651869,0.21822 3.887867,0.69468 0.385012,0.25322 0.07482,0.0293 -1.040347,0.0815 -0.01157,6.2e-4 0.01016,0.0251 0.02156,0.0273 1.278196,0.23893 0.0436,-1.7629 0.08658,3.72062 0.577343,0.355 -0.01803,0.0407 1.260953,0.21433 0.04645,0.006 -0.08518,0.0396 -0.129499,0.0549 -0.360939,0.12443 -0.738793,0.19556 -1.113655,0.26145 -2.019814,0.31191 -4.068904,0.382 -6.099996,0.10533 -1.601834,-0.24135 -3.199227,-0.51402 -4.777614,-0.88195 -1.321831,-0.32111 -2.63389,-0.69681 -3.881134,-1.24721 -1.05155,-0.43816 -2.095256,-0.89568 -3.117492,-1.3991 -1.027241,-0.53996 -2.032439,-1.12505 -2.9579,-1.82885 -0.739777,-0.55103 -1.463425,-1.12741 -2.252175,-1.60847 -0.735049,-0.44287 -1.474533,-0.87948 -2.236422,-1.27498 -0.891528,-0.50874 -1.752263,-1.06457 -2.604522,-1.6365 -1.057318,-0.6722 -2.138591,-1.31117 -3.12209,-2.09203 -1.237377,-1.01711 -2.372122,-2.14497 -3.210641,-3.52411 -0.447242,-0.77081 -0.579373,-0.95184 -0.946219,-1.77779 -0.606361,-1.36521 -1.010838,-2.81162 -1.345953,-4.26366 -0.504463,-2.37776 -0.842409,-4.78681 -0.785154,-7.22483 -0.002,-0.7452 0.0053,-0.99688 -0.02656,-1.72709 -0.0489,-1.11904 -0.181221,-2.24206 -0.02281,-3.35976 0.129519,-0.79171 0.140923,-0.99222 0.357156,-1.77478 0.427377,-1.54671 1.084801,-3.01934 1.804247,-4.44915 1.253627,-2.40173 2.634274,-4.73128 4.014679,-7.06187 1.190793,-1.99992 2.441862,-3.96736 3.935032,-5.75946 0.650651,-0.77719 1.296217,-1.55813 1.982527,-2.30446 0.207585,-0.22574 0.664554,-0.71725 0.929537,-0.9387 0.07595,-0.0635 0.165743,-0.10829 0.248616,-0.16242 1.069823,0.69786 2.083309,1.49084 3.20947,2.09358 0.06667,0.0357 0.601525,-0.60558 0.347659,-0.0352 -0.03884,0.0873 -0.08594,0.17065 -0.12891,0.25597 -0.67498,1.17172 -1.541749,2.21991 -2.235947,3.37995 -1.013927,1.73954 -1.799121,3.58577 -2.336932,5.52982 -0.745282,2.57659 -1.487713,5.15594 -2.121924,7.76243 -0.245866,1.17481 -0.379965,1.72534 -0.553137,2.91479 -0.277837,1.90835 -0.334521,3.83568 -0.441018,5.75836 -0.109797,1.32535 -0.17031,2.72479 -0.577134,3.99735 -0.271619,1.45402 1.935165,0.0385 -3.899243,0.36588 -0.02583,10e-4 -0.04775,0.0514 -0.06867,0.0361 -0.06491,-0.0472 -0.13405,-0.38153 -0.137536,-0.39471 -0.188092,-1.06066 -0.243762,-2.13903 -0.265117,-3.2147 -0.003,-1.22476 0.0066,-2.44949 -0.02018,-3.6741 0.0054,-1.14053 0.03787,-2.28264 -0.01881,-3.42217 -0.05117,-1.42507 0.02107,-2.83881 0.480419,-4.2048 0.550693,-1.67589 1.213085,-3.30694 1.841465,-4.95447 0.569933,-1.57586 1.035176,-3.18592 1.602013,-4.76277 0.762791,-1.97558 1.658752,-3.89308 2.531561,-5.82176 0.759972,-1.65828 1.515743,-3.32201 2.446798,-4.89365 0.584775,-0.92429 1.181535,-1.84121 1.915117,-2.65726 0.998693,-1.15263 2.065961,-2.25381 3.330355,-3.12007 0.755285,-0.49288 1.061636,-0.72404 1.887416,-1.12939 1.583939,-0.7775 3.291477,-1.25344 5.048521,-1.41242 0.875224,0.007 1.751517,-0.0216 2.625671,0.0222 1.185275,0.0595 3.005934,0.47446 4.014908,1.13805 0.185014,0.12169 0.333645,0.29126 0.500465,0.4369 2.403149,1.52381 0.248158,4.92238 -2.154991,3.39856 z"
           inkscape:connector-curvature="0" />
        <path
           style="fill:#ffb380;fill-opacity:1;stroke:none;stroke-width:0.31243885;stroke-opacity:1"
           id="path833"
           d="m 71.028047,427.03833 c 0.0525,-0.31411 0.0756,-0.6346 0.15751,-0.94234 0.77229,-2.89924 2.67276,-5.35658 4.49539,-7.66749 0.90939,-1.11605 1.89875,-2.16245 2.84229,-3.24875 0.42923,-0.4942 0.82193,-0.97536 1.15034,-1.53975 0.0387,-0.10486 0.0869,-0.20675 0.11632,-0.31467 0.13873,-0.51097 0.1582,-1.05832 0.2345,-1.57956 0.0837,-0.57179 0.1361,-0.80295 0.24776,-1.37408 0.28284,-1.27487 0.56285,-2.54815 0.73293,-3.84357 0.14911,-1.19082 0.13071,-2.3924 0.13452,-3.58992 0.0562,-1.01868 -0.1211,-2.0084 -0.37366,-2.98935 -0.37348,-1.265 -0.60529,-2.55934 -0.75603,-3.86755 -0.036,-0.83853 -0.16369,-1.6508 -0.39468,-2.45545 -0.37149,-1.0922 -0.76568,-2.17638 -1.17695,-3.25419 -0.25867,-0.86576 -0.70326,-1.59799 -1.29385,-2.26894 -0.80626,-0.91126 -1.5831,-1.84657 -2.34473,-2.79524 -0.69853,-0.9543 -1.54251,-1.76025 -2.51383,-2.42783 -0.98245,-0.59327 -2.0314,-1.06671 -3.05466,-1.58404 -1.49231,-0.70845 -2.96445,-1.45818 -4.42349,-2.23268 -1.00913,-0.56512 -1.96658,-1.22918 -3.0693,-1.60076 -0.90497,-0.27447 -1.82184,-0.50596 -2.73469,-0.75219 -0.897,-0.25841 -1.802483,-0.47093 -2.733879,-0.54686 -0.128519,-0.005 -0.256971,-0.0119 -0.385559,-0.0129 -0.280754,-0.002 -1.120415,0.004 -0.841525,0.0358 0.278294,0.0324 0.561833,-0.0127 0.840306,0.0181 0.178306,0.0197 -0.358642,0.009 -0.53795,0.0154 -0.190448,0.006 -0.380876,0.0123 -0.571313,0.0183 -1.311275,0.0736 -2.625999,0.0658 -3.933721,0.19128 -1.687486,0.30683 -3.30496,0.90643 -4.953451,1.37013 -1.20331,0.35088 -2.446515,0.57657 -3.618358,1.02849 -0.90733,0.4659 -1.535845,1.29887 -2.163571,2.07612 -0.796069,0.99533 -1.49406,2.0546 -2.074946,3.18766 -0.665124,1.47124 -1.333803,2.941 -2.000459,4.41166 -0.699532,1.4754 -1.112974,3.05343 -1.492937,4.63396 -0.306988,1.30141 -0.609731,2.60401 -0.827327,3.92374 -0.179325,1.03545 -0.127604,2.08525 -0.07096,3.12836 0.109797,1.31026 0.362681,2.60375 0.572071,3.90073 0.198726,1.52647 0.404904,3.05179 0.645759,4.57227 0.165381,1.09809 0.528571,2.1357 0.982065,3.14326 0.55585,0.99992 1.187917,1.96308 1.869346,2.88219 0.753638,1.00623 1.724291,1.81148 2.675413,2.6214 0.979764,0.84087 2.026147,1.5939 3.056438,2.36974 0.87868,0.66199 1.784225,1.28082 2.763307,1.78376 1.19865,0.58979 2.441157,1.08365 3.658321,1.63351 1.105872,0.54116 2.268694,0.93752 3.44931,1.27738 0.987429,0.28157 2.005645,0.40039 3.024114,0.49786 1.213675,0.1149 2.428556,0.21816 3.644606,0.3046 1.10871,0.0849 2.20937,0.23486 3.32031,0.29229 -2.05144,0.008 0.24898,0.0957 0.67551,0.0624 0.94226,-0.21212 1.83945,-0.59376 2.73506,-0.94868 1.13164,-0.44547 2.23546,-0.95738 3.28917,-1.56483 0.80515,-0.44122 1.43068,-1.11674 2.08974,-1.74117 1.19235,-1.15717 2.48345,-2.20333 3.78744,-3.23042 0.75306,-0.70022 1.71935,-1.15073 2.46341,-1.85763 0.0345,-0.0524 0.0752,-0.1012 0.10356,-0.15715 0.19057,-0.37639 0.29433,-0.81537 0.44185,-1.20783 0.2866,-0.76244 0.25736,-0.6589 0.62249,-1.45317 0.67998,-1.41009 1.61577,-2.66846 2.69111,-3.79891 0.0671,-0.12513 0.21163,-0.19854 0.285,-0.32155 0.0499,-0.0837 0.0524,-1.09918 0.0564,-1.19156 0.0666,-1.34259 0.25667,-2.675 0.49418,-3.99682 0.2697,-1.0816 0.38077,-2.17329 0.34967,-3.28437 -0.10935,-1.36108 -0.1764,-2.72276 -0.13944,-4.08807 0.086,-0.80296 3.1e-4,-1.63538 0.1644,-2.42928 0.2398,-0.45408 0.30756,0.21902 0.61535,0.20746 4.76099,-0.17867 3.50639,-1.04652 2.61222,-0.20532 -0.18508,0.17412 -0.34592,0.37232 -0.5189,0.55848 -0.12045,0.84554 -1.31622,0.6752 -1.19577,-0.17035 v 0 c -0.1025,-0.22793 -0.21248,-0.45268 -0.30762,-0.6838 -0.0699,-0.16988 -0.35439,-0.44218 -0.18721,-0.51834 2.42873,-1.10636 2.93569,-1.39852 3.87665,0.27577 0.28253,0.93524 0.35555,1.91213 0.44002,2.88198 0.093,1.4025 0.13803,2.80882 0.0916,4.21428 -0.0496,1.32137 -0.18449,2.63291 -0.35645,3.94381 -0.17168,1.3307 -0.3927,2.65812 -0.73944,3.95558 -0.27922,1.08361 -0.49665,2.19076 -0.94618,3.22111 -0.59042,1.36341 -1.37931,2.62652 -2.29885,3.79344 -0.68105,0.90523 -1.34698,1.82308 -1.8499,2.84265 -0.69789,1.21414 -1.47604,2.37176 -2.55128,3.29253 -1.35498,1.18329 -2.80803,2.24 -4.43229,3.02864 -0.15375,0.0752 -0.53918,0.25436 -0.70229,0.36421 -0.48923,0.32942 -0.75252,0.90003 -1.18934,1.28519 -1.29352,1.2719 -2.60803,2.15241 -4.35481,2.70861 -1.23203,0.36045 -2.48533,0.62359 -3.75947,0.78629 -1.22293,0.18745 -2.4463,0.34247 -3.68946,0.27309 -1.23342,0.005 -2.46992,-0.0348 -3.69673,-0.16706 -1.238021,-0.14754 -2.47406,-0.31039 -3.711047,-0.46629 -1.227927,-0.17997 -2.452882,-0.39382 -3.654443,-0.70806 -1.393119,-0.38605 -2.749472,-0.87859 -4.074431,-1.45803 -1.372578,-0.59575 -2.713882,-1.25839 -3.967296,-2.08107 -1.013857,-0.66754 -2.023548,-1.34121 -3.047099,-1.99387 -1.201498,-0.79382 -2.357369,-1.65434 -3.449718,-2.59387 -1.229687,-1.07162 -2.405956,-2.20957 -3.290806,-3.59325 -0.749956,-1.16242 -1.466753,-2.34922 -2.05976,-3.60088 -0.637361,-1.33648 -1.201771,-2.70837 -1.502981,-4.16504 -0.329198,-1.5902 -0.568199,-3.19639 -0.706031,-4.81506 -0.137309,-1.43818 -0.301764,-2.87484 -0.368501,-4.31857 -0.02851,-1.28656 -0.0564,-2.57631 0.08813,-3.85799 0.144297,-1.43579 0.317079,-2.86969 0.514392,-4.29898 0.34176,-1.95916 0.835385,-3.88322 1.687921,-5.69016 0.712138,-1.54567 1.501153,-3.0493 2.347363,-4.52597 0.723782,-1.37493 1.408218,-2.77794 2.330176,-4.03584 1.024949,-1.31575 2.196149,-2.50712 3.646148,-3.35791 1.237447,-0.74456 2.518679,-1.41426 3.86443,-1.94393 1.927148,-0.74575 3.916811,-1.32025 5.962186,-1.63679 1.517765,-0.19356 2.966188,-0.19563 4.490624,-0.10841 1.592129,0.0269 3.190057,-0.0264 4.773083,0.17638 1.15937,0.16833 2.29129,0.452 3.40523,0.81566 0.97865,0.29668 1.96261,0.57557 2.93864,0.88035 1.33872,0.46634 2.6642,0.97361 3.94014,1.59457 1.4652,0.75547 2.88199,1.59134 4.27267,2.47645 1.1825,0.66222 2.41845,1.2336 3.53727,2.00411 1.35248,0.99811 2.55436,2.15618 3.45554,3.58908 0.61631,0.92796 1.21986,1.86819 1.96251,2.70306 0.88372,1.10619 1.65594,2.29166 2.13955,3.63263 0.43454,1.26425 0.77103,2.55564 0.95554,3.88187 0.15612,0.89008 0.32772,1.77748 0.57349,2.64805 0.30872,1.25562 0.61453,2.51409 0.79174,3.79662 0.17136,1.23614 0.31562,2.47719 0.40028,3.72251 0.0752,1.45479 0.0169,2.90624 -0.21826,4.3464 -0.22295,1.44414 -0.46262,2.88831 -0.94126,4.27489 -0.1645,0.5115 -0.34949,1.02903 -0.45813,1.55652 -0.0769,0.37319 -0.11478,0.81873 -0.16547,1.19163 -0.0367,0.2704 -0.079,0.54 -0.11853,0.81 -0.0683,0.2983 -0.12376,0.59982 -0.20486,0.8949 -0.5966,2.17052 -1.74785,4.13877 -2.97255,6.00684 -1.11955,1.55391 -2.25706,3.06725 -3.56824,4.46824 -0.63675,0.68037 -1.4134,1.44788 -2.16602,2.02165 -0.22757,0.17351 -0.48191,0.30873 -0.72287,0.46309 -1.28304,2.79253 -5.23227,0.97805 -3.94922,-1.81448 z"
           inkscape:connector-curvature="0" />
        <path
           style="fill:#ffb380;fill-opacity:1;stroke:none;stroke-width:0.31243885;stroke-opacity:1"
           id="path835"
           d="m 83.019177,414.57095 c -0.86176,-1.87318 -0.70427,-3.98472 -0.41303,-5.96927 0.14745,-1.04055 0.54245,-2.02713 0.70282,-3.06448 0.0716,-0.46297 0.0685,-0.70844 0.088,-1.17713 0.009,-1.30376 -0.0126,-2.6078 0.0106,-3.91137 0.019,-1.16846 -0.009,-2.33692 -0.0288,-3.50521 -0.0358,-0.95264 0.0256,-1.91578 -0.14687,-2.85753 -0.20179,-0.8256 -0.31872,-1.66725 -0.42498,-2.50931 -0.0679,-0.66138 -0.19028,-1.31944 -0.48836,-1.91765 -0.23965,-0.39097 -0.58537,-0.704 -0.89285,-1.04141 -0.65041,-0.80116 -1.13831,-1.71599 -1.62776,-2.62017 -0.41461,-0.65507 -0.70709,-1.40139 -1.2256,-1.98533 -0.61123,-0.39389 -1.1268,-0.91365 -1.62964,-1.43364 -0.65835,-0.68345 -1.20753,-1.45794 -1.78892,-2.20483 -0.45987,-0.63026 -0.98223,-1.21247 -1.52604,-1.77082 -0.61145,-0.57009 -1.16242,-1.19966 -1.75633,-1.78714 -0.32484,-0.37078 -0.79202,-0.45499 -1.22947,-0.64265 -0.87871,-0.45779 -1.77825,-0.86806 -2.6866,-1.2626 -1.04635,-0.38377 -2.0889,-0.7876 -3.15951,-1.09932 -0.78446,-0.25684 -1.61128,-0.27408 -2.42726,-0.32339 -1.05866,-0.0599 -2.11127,-0.19492 -3.16444,-0.31417 -0.68466,-0.0951 -1.376212,-0.11749 -2.066582,-0.11726 -0.159791,4e-5 -0.639129,0.005 -0.479341,0.006 0.304469,0.002 0.60895,-0.002 0.913424,-0.002 -1.005431,0.006 -2.011421,0.009 -3.016528,0.0364 -1.060181,0.024 -2.113905,0.15104 -3.168711,0.25058 -1.164429,0.1226 -2.330501,0.21716 -3.500494,0.26503 -1.028026,-0.004 -2.047205,0.0958 -3.067012,0.20984 -0.364758,-0.006 -1.542604,0.26033 -1.845416,0.0781 -0.01569,-0.22182 -0.709801,0.47218 -0.749406,0.5069 -0.576435,0.46114 -1.14242,0.935 -1.73617,1.37391 -0.660205,0.44214 -1.305876,0.88715 -1.882988,1.43499 -0.725759,0.75294 -1.339203,1.60248 -2.111981,2.31042 0.200764,0.14444 -0.346424,0.2264 -0.3444,0.10628 0.0065,-0.38857 0.447769,-0.9486 0.121374,-1.15954 -1.905624,-1.23158 -5.283939,-0.5755 -3.85299,-1.49706 0.02459,-0.006 0.05104,-0.0299 0.07377,-0.0187 0.0208,0.0106 0.02777,0.0436 0.02199,0.066 -0.06117,0.23774 -0.171468,0.4622 -0.219819,0.70288 -0.03432,0.17082 0.05333,0.36706 -0.02627,0.52206 -0.05925,0.11537 -0.0442,-0.25694 -0.04329,-0.38662 0.0015,-0.21906 0.03368,-0.43685 0.05052,-0.65527 0.350727,-1.63636 1.467786,-2.90335 2.578267,-4.09183 1.610041,-1.6576 3.483342,-3.00086 5.509316,-4.09683 1.309607,-0.57599 3.835661,-1.49404 5.107555,-0.38375 0.58477,0.51048 0.520814,1.46251 0.78122,2.19375 -0.136138,0.32798 -0.237969,0.6724 -0.408415,0.98392 -0.335109,0.61248 -1.085461,0.91456 -1.714964,1.08699 0.405761,-0.33534 0.811522,-0.67068 1.217283,-1.00601 0.05948,-0.079 0.121264,-0.31746 0.178443,-0.23683 0.08457,0.11925 -0.01488,0.29249 -0.03642,0.43711 -0.139924,0.93953 -0.468291,1.79332 -0.803782,2.6774 -1.235137,2.91035 -3.173675,5.40258 -5.30395,7.70498 -0.685373,0.86072 -1.737637,1.45556 -2.304919,2.41782 -0.196018,0.33251 -0.252528,0.62515 -0.361067,0.99687 -0.392159,1.9705 -1.132056,3.81783 -2.058639,5.59129 -0.756542,1.35361 -1.680891,2.60226 -2.404554,3.97428 -0.475962,1.0132 -0.893204,2.06082 -1.159082,3.14972 -0.158804,0.74254 -0.02819,1.49809 0.042,2.24296 0.109349,0.98911 0.108298,1.98459 0.150246,2.97757 0.04243,0.91829 0.203262,1.82352 0.359841,2.72735 0.155604,0.8573 0.261256,1.72247 0.391,2.58383 0.171518,0.95942 0.41624,1.90468 0.665225,2.84647 0.26718,1.02109 0.606522,2.01541 1.119152,2.93939 0.639198,1.06148 1.493001,1.9701 2.280801,2.92026 0.7765,0.94384 1.47137,1.94972 2.187941,2.93869 0.460995,0.61435 0.976727,1.18105 1.537818,1.70436 0.678658,0.60314 1.36789,1.19332 2.036787,1.80748 0.539574,0.5298 1.137613,0.99051 1.763336,1.41275 0.620482,0.38907 1.237244,0.78184 1.877714,1.13703 0.734187,0.39619 1.485948,0.74862 2.191592,1.19558 0.659955,0.41394 1.201571,0.97154 1.742319,1.52424 0.41199,0.43075 0.954397,0.62745 1.505092,0.8143 1.06323,0.37786 2.156016,0.66192 3.247018,0.94605 1.157642,0.28765 2.319349,0.56201 3.484224,0.81932 1.019142,0.20242 2.041512,0.41946 3.077732,0.51208 0.86094,0.0411 -0.0766,-0.0106 -0.54389,0.0293 -0.0897,0.008 0.178,0.0269 0.26687,0.0413 0.18127,0.0294 0.36074,0.0569 0.54328,0.0769 0.0989,0.0967 0.81877,-0.29111 0.95724,-0.34681 2.30311,-0.82762 1.46886,0.30387 3.14016,3.67206 -1.17585,0.58708 -1.05741,0.33893 -2.79187,0.0512 -0.18537,-0.0307 -0.13034,-0.0919 -0.1811,0.0564 -0.69958,0.17458 -1.4404,0.17134 -2.15846,0.20892 -0.18855,0.007 -0.75277,-0.004 -0.56566,0.0201 0.24802,0.0321 0.50021,-0.002 0.75023,0.004 0.19713,0.005 -0.39436,-3.1e-4 -0.59153,-1.9e-4 -1.06867,0.001 -2.127142,0.008 -3.193421,-0.0253 -1.306572,-0.0589 -2.607418,-0.20264 -3.907823,-0.33729 -1.221311,-0.12595 -2.424598,-0.36775 -3.624663,-0.61995 -1.095513,-0.27956 -2.202946,-0.46222 -3.326657,-0.57409 -1.33312,-0.086 -2.650132,-0.2713 -3.937412,-0.62874 -1.093055,-0.29661 -2.081039,-0.83999 -3.052009,-1.40621 -0.722949,-0.39984 -1.473704,-0.74559 -2.213414,-1.11257 -0.886975,-0.46059 -1.712989,-1.03127 -2.500769,-1.64405 -0.654759,-0.53533 -1.238722,-1.14932 -1.855062,-1.72744 -0.84032,-0.71607 -1.594756,-1.52094 -2.311341,-2.3587 -0.445753,-0.57069 -0.921846,-1.10742 -1.442424,-1.61014 -0.934573,-0.8415 -1.57655,-1.91192 -2.102785,-3.03989 -0.421339,-0.94001 -0.535226,-1.92949 -0.486301,-2.94532 0.04314,-0.21933 0.02089,-0.48992 0.146658,-0.68902 0.258577,-0.40935 -0.09317,0.2676 0.266073,-0.14992 0.163854,-0.19044 0.279498,-0.41754 0.419247,-0.62632 0.968749,-0.89405 1.255008,-0.8333 2.505421,-0.78409 1.320515,-0.63357 2.216522,1.23393 0.896007,1.86751 v 0 c -0.18214,0.19007 -0.737465,0.80222 0.02466,0.19564 0.555017,-0.65146 0.296293,-0.25749 0.561229,0.16521 0.0074,-0.025 -0.003,-0.0686 0.02244,-0.0752 0.01536,-0.004 0.09735,0.11738 0.138126,0.18677 0.168316,0.28619 0.29759,0.59303 0.454139,0.88542 0.344801,0.67413 0.687442,1.35597 1.150372,1.95893 0.52539,0.57984 1.218112,0.97581 1.755517,1.54598 0.74733,0.75652 1.424348,1.57262 2.066974,2.41971 0.375178,0.44314 0.776018,0.81396 1.3043,1.07253 0.717056,0.42921 1.418499,0.88473 2.149505,1.29058 0.703439,0.40097 1.404788,0.80589 2.131708,1.16362 0.689185,0.30191 1.419845,0.4546 2.164977,0.55135 1.234199,0.14719 2.470376,0.28745 3.694983,0.50297 1.166079,0.21509 2.316088,0.50352 3.480242,0.72867 1.090524,0.18644 2.189302,0.30348 3.292351,0.38802 1.190976,0.1185 2.382247,0.24837 3.579794,0.27695 0.191428,0.005 0.382828,0.009 0.574278,0.0135 0.18948,0.004 0.75759,-0.006 0.5685,0.007 -0.24724,0.0168 -0.49571,0.0118 -0.74342,0.005 -0.1977,-0.006 0.39551,-0.008 0.5933,-0.008 2.02655,-0.009 1.34129,-0.0305 2.57857,0.0241 1.0611,0.0903 2.14448,0.22894 3.08894,0.75806 0.96433,0.62389 0.0488,0.0502 -1.41943,0.004 -0.16372,-0.005 -0.56161,0.1333 -0.43223,0.23375 0.74085,1.27756 1.46441,2.56531 2.22255,3.83271 0.0117,0.0196 0.0588,-0.0234 0.0685,-0.002 0.0245,0.0521 -0.58417,0.23696 -0.61681,0.24149 -0.53457,0.14839 -1.05083,0.33301 -1.56225,0.55029 -1.2699,0.39424 -1.42312,0.36325 -3.0221,0.36193 -0.19049,-1.5e-4 -0.38069,-0.0149 -0.57103,-0.0224 -1.20649,-0.11785 -2.395018,-0.33028 -3.575219,-0.60776 -1.251454,-0.26564 -2.511417,-0.49404 -3.749557,-0.81953 -1.381988,-0.39909 -2.739138,-0.89588 -3.947095,-1.69417 -0.739259,-0.52208 -1.423081,-1.09852 -2.023037,-1.77904 -0.349325,-0.30902 -0.786058,-0.46856 -1.199059,-0.67632 -0.759985,-0.38224 -1.496019,-0.80641 -2.220918,-1.25162 -0.679483,-0.42317 -1.347315,-0.86452 -2.020824,-1.29714 -0.806999,-0.53141 -1.58751,-1.09868 -2.290641,-1.76505 -0.722605,-0.65821 -1.448773,-1.31627 -2.098781,-2.04793 -0.575409,-0.63817 -1.165572,-1.26137 -1.773516,-1.86883 -0.893036,-0.90154 -1.75247,-1.83598 -2.536328,-2.83514 -0.955659,-1.2008 -1.89157,-2.42812 -2.55775,-3.81947 -0.588227,-1.24878 -1.09791,-2.53463 -1.384795,-3.88996 -0.238769,-1.10928 -0.423129,-2.23095 -0.468551,-3.36685 -0.05147,-0.74219 -0.241474,-1.45054 -0.456976,-2.1613 -0.300221,-1.16494 -0.498712,-2.35321 -0.475009,-3.5609 0.01248,-0.82263 0.129919,-1.64994 0.02584,-2.46903 -0.225521,-1.18245 -0.457923,-2.37288 -0.308447,-3.58335 0.04132,-0.26193 0.07141,-0.52589 0.12395,-0.7858 0.2481,-1.22727 0.771485,-2.36945 1.291372,-3.50009 0.658491,-1.41499 1.294891,-2.84113 2.003805,-4.23194 0.796732,-1.55696 1.614245,-3.11096 2.168503,-4.77585 0.655234,-1.87138 1.390088,-3.71097 2.546349,-5.34116 1.634168,-2.37251 3.416322,-4.63356 5.263012,-6.84416 0.194005,-0.22883 0.936265,-1.11215 1.190766,-1.38666 0.11393,-0.12288 0.235612,-0.23853 0.358641,-0.3523 0.06744,-0.0623 0.159453,-0.10061 0.212276,-0.17572 0.112903,-0.16061 0.140643,-0.3784 0.276711,-0.51991 0.387019,-0.40254 0.847773,-0.72702 1.27166,-1.09052 -0.737293,0.25256 -0.663149,0.49541 -0.881599,1.29638 0.273358,0.66579 0.262148,1.5427 0.820076,1.99736 0.544993,0.44413 1.38499,0.2426 2.077485,0.36389 0.06831,-0.0152 0.146719,-0.0848 0.204936,-0.0459 0.04281,0.0286 -0.0685,0.0772 -0.107129,0.11124 -0.226512,0.19945 -0.629635,0.51027 -0.843487,0.67883 -1.614526,1.21337 -3.243179,2.40694 -4.889847,3.57649 -0.599614,0.43738 -0.763285,0.56193 -1.347709,0.97 -0.07713,0.0539 -0.805163,0.60871 -0.971369,0.5679 -0.04387,-0.0106 -0.0527,-0.0733 -0.07905,-0.11005 -0.04222,-0.30351 -0.07734,-0.58496 -0.08892,-0.49044 -0.0259,0.21128 0.02599,0.42872 -0.01004,0.63853 -0.06451,0.37607 -0.224033,0.79858 -0.377699,1.16312 -0.95038,1.55881 -1.61986,0.97931 -4.583127,-0.68205 -0.357605,-0.20048 0.06889,-0.81716 0.11497,-1.22454 0.03544,-0.31329 0.0807,-0.39955 0.17873,-0.70383 0.617415,-1.23261 1.522724,-2.26967 2.538261,-3.19541 0.74438,-0.62912 1.519013,-1.22564 2.375613,-1.69644 0.531924,-0.33596 1.047225,-0.69133 1.526047,-1.10165 0.582289,-0.43405 1.120546,-0.92675 1.728126,-1.32797 0.780191,-0.44999 1.616987,-0.76083 2.500622,-0.94465 1.235489,-0.26797 2.492524,-0.4594 3.760095,-0.44797 0.990984,0.0219 1.984392,0.0475 2.957874,-0.18258 1.237864,-0.19238 2.487654,-0.32982 3.742723,-0.27455 0.987599,0.0137 1.971875,-0.0709 2.957344,-0.12622 1.686492,-0.0161 3.364942,-0.0514 5.031242,0.25585 1.01376,0.1233 2.02951,0.22616 3.044,0.34273 1.09357,0.13973 2.19004,0.278 3.26289,0.53886 1.39336,0.38426 2.77557,0.83018 4.01429,1.59594 0.81583,0.4955 1.60252,1.03797 2.43858,1.49993 0.77751,0.4531 1.52517,0.95157 2.18323,1.57043 0.69215,0.64746 1.34922,1.3331 1.9647,2.05404 0.56707,0.67488 1.13512,1.3488 1.68611,2.03698 0.48625,0.61712 0.96922,1.2378 1.48535,1.83042 0.58531,0.59766 1.28187,1.07822 1.81021,1.73339 0.70678,0.87369 1.31826,1.81466 1.7918,2.83664 0.27837,0.59317 0.49821,1.23258 0.87727,1.76856 0.5895,0.7128 1.20674,1.41031 1.55841,2.28189 0.39731,1.03103 0.62145,2.08877 0.61392,3.19906 0.041,0.69609 0.15681,1.36393 0.37729,2.02861 0.27946,1.23263 0.39048,2.4809 0.32038,3.74535 -0.0183,1.18889 -0.0649,2.37682 -0.0992,3.56521 -0.0131,1.41222 -0.0345,2.82663 -0.17954,4.23267 -0.20057,1.49897 -0.41208,2.99637 -0.65358,4.48938 -0.26323,1.73728 -0.47142,3.52446 -1.13668,5.16201 0.12732,2.4565 -3.34669,2.63656 -3.47401,0.18006 z"
           inkscape:connector-curvature="0" />
        <path
           style="fill:#ffb380;fill-opacity:1;stroke:none;stroke-width:0.31243885;stroke-opacity:1"
           id="path837"
           d="m 56.218958,426.52496 c 0.142841,-0.12937 0.278274,-0.26741 0.428519,-0.38811 0.393045,-0.31572 1.009318,-0.7157 1.40626,-0.9995 0.91067,-0.65109 1.78226,-1.33901 2.63966,-2.05807 1.41419,-1.18794 2.71416,-2.50505 4.16987,-3.64306 0.94698,-0.71089 2.05581,-1.13734 3.04631,-1.77627 1.09625,-0.72108 1.9476,-1.73632 2.81875,-2.70249 0.88789,-1.01736 1.8565,-1.95882 2.73972,-2.98019 0.5731,-0.65447 0.98252,-1.42254 1.3709,-2.19475 0.43707,-0.93142 0.93146,-1.83285 1.4441,-2.72419 0.52585,-0.77565 0.78676,-1.64442 0.99014,-2.54656 0.18176,-1.02862 0.46787,-2.03268 0.77341,-3.03 0.27727,-0.84826 0.3389,-1.73803 0.36306,-2.62361 0.002,-1.68907 -0.0494,-3.3776 -0.077,-5.06634 0.009,-1.43565 -1e-4,-2.87143 -0.26654,-4.28556 -0.16754,-0.83494 -0.60612,-1.57271 -0.93852,-2.34707 -0.0171,-0.0472 -0.14985,-0.37222 -0.13619,-0.46019 0.004,-0.0231 0.0477,0.017 0.0698,0.009 2.57387,-0.95135 4.16477,-3.13109 4.32374,-1.25804 0.0366,0.4258 -0.14733,0.8657 -0.14518,1.27758 2.7e-4,0.0544 0.0921,-0.12896 0.13362,-0.0939 0.0875,0.0739 0.0943,0.20912 0.13113,0.31757 0.0671,0.19766 0.1201,0.39983 0.18016,0.59974 0.68209,2.7376 1.01304,5.53919 1.23167,8.3464 0.13666,2.99051 0.18247,6.00769 -0.22131,8.98173 -0.0786,0.57965 -0.19126,1.15421 -0.2869,1.7313 -0.53268,2.70451 -1.53618,5.276 -2.687,7.76955 -0.52581,1.07664 -1.07222,2.1553 -1.80668,3.1082 -0.49257,0.63907 -0.60195,0.71166 -1.17061,1.27961 -1.2542,1.11746 -2.66802,2.03546 -4.12584,2.86175 -0.63061,0.30843 -1.2678,0.68708 -1.97534,0.79079 -0.0711,0.0106 -0.16699,0.065 -0.21506,0.0118 -0.93317,-1.03508 -1.78192,-2.14326 -2.67288,-3.21487 0.0625,-0.045 0.12152,-0.0952 0.18732,-0.13511 0.14207,-0.0863 0.29183,-0.10415 0.43572,-0.17008 0.31458,-0.1441 0.60319,-0.33923 0.90455,-0.50926 -0.028,-0.0161 -0.10108,-0.0208 -0.084,-0.0482 0.0592,-0.0942 0.16645,-0.14764 0.25165,-0.21916 0.15125,-0.12693 0.30414,-0.25192 0.45763,-0.37613 0.71605,-0.57946 1.43614,-1.15406 2.15256,-1.73309 1.81234,-1.38036 3.41454,-2.98431 4.89981,-4.70426 1.26603,-1.55754 2.52941,-3.11759 3.77729,-4.68974 0.94568,-1.21947 1.94179,-2.39455 3.00977,-3.50826 0.94696,-0.95346 1.95486,-1.85319 3.14408,-2.48997 1.8224,-0.70663 1.02549,-0.14797 3.46452,2.79735 0.0312,0.0376 -0.44524,0.36077 -0.4808,0.38449 -0.11993,0.0785 -0.36623,0.37896 -0.35979,0.23573 0.0474,-1.05151 -3e-4,-2.188 0.48963,-3.11952 0.17246,-0.32781 0.49724,0.55373 0.69573,0.86646 0.54637,0.86085 0.70767,1.91847 0.90467,2.89451 0.34371,2.55099 -0.0461,5.12285 -0.88755,7.5434 -0.17684,0.50866 -0.39697,1.00124 -0.59545,1.50186 -1.02144,2.34034 -2.36991,4.12543 -4.27074,5.79799 -0.95642,0.80283 -2.01967,1.4379 -3.23463,1.73676 -1.7893,0.39845 -0.59124,0.30896 -2.75464,-3.07519 -0.0288,-0.0451 0.0855,-0.0912 0.0725,-0.1431 -0.009,-0.0373 -0.0588,0.094 -0.0903,0.0719 -0.0561,-0.0393 0.026,-0.498 0.0355,-0.57434 0.32931,-2.12888 1.1875,-4.1016 2.15555,-6.00699 0.9899,-1.83402 2.21956,-3.52086 3.45226,-5.19596 0.39062,-0.38731 0.92191,-1.57263 1.40008,-1.81212 0.0716,1.58584 -0.0713,0.11655 3.77861,1.58965 0.004,0.001 -0.0722,0.18572 -0.0873,0.17181 -0.0259,-0.0239 0.0446,-0.13278 0.0393,-0.098 -0.015,0.0992 -0.0459,0.19545 -0.0688,0.29317 -0.4577,1.93866 -1.64261,3.57474 -2.78656,5.1639 -1.72553,2.26331 -3.75574,4.28887 -6.0739,5.94493 -0.41202,0.29433 -0.84345,0.56048 -1.26516,0.84072 -1.47578,0.96539 -3.10632,1.63417 -4.72069,2.32253 -0.55246,0.18666 -0.88645,0.61024 -1.2833,1.0127 -0.66786,0.59064 -1.50555,0.91417 -2.31681,1.25436 -0.94048,0.40446 -1.88137,0.80763 -2.83042,1.19158 -0.84466,0.35456 -1.67202,0.73312 -2.57204,0.92129 -0.89373,0.11818 -1.85739,0.17103 -2.61651,-0.35637 0.55787,-1.20718 1.07713,-2.43296 1.67361,-3.62153 0.006,-0.0119 0.33395,0.11714 0.29309,0.15248 -0.0301,0.0261 -0.0731,-0.0387 -0.11294,-0.0391 -0.40445,-0.005 -0.80878,0.0162 -1.21318,0.0243 0.35491,-0.46323 1.0806,-0.878 1.55644,-1.19078 0.74204,-0.48774 1.36325,-0.86436 2.12524,-1.33607 2.36205,-1.44077 4.72501,-2.8824 6.95524,-4.5226 0.52412,-0.42285 1.07798,-0.85783 1.42592,-1.44952 0.31931,-0.54298 0.44278,-1.1934 0.59942,-1.7937 0.40228,-1.90239 1.06392,-3.72727 1.74869,-5.54168 0.59402,-1.60002 1.15855,-3.21068 1.69926,-4.82941 0.31591,-0.86169 0.51477,-1.73715 0.4916,-2.65472 -0.0523,-0.7088 -0.0854,-1.42009 -0.35036,-2.08597 -0.3575,-0.79594 -0.74629,-1.57665 -1.12049,-2.3648 -0.47262,-0.96814 -0.78325,-1.99937 -1.15769,-3.00596 -0.25537,-0.80267 -0.65026,-1.54199 -1.07339,-2.26572 -0.39788,-0.64524 -0.81318,-1.279 -1.26758,-1.88588 -0.36433,-0.50952 -0.82833,-0.93651 -1.27248,-1.37472 -0.61691,-0.64557 -1.30767,-1.20493 -2.00057,-1.76413 -0.6583,-0.49309 -1.27294,-1.04021 -1.90569,-1.5647 -0.56176,-0.50867 -1.1402,-0.99678 -1.71938,-1.48542 -0.72516,-0.61077 -1.45176,-1.21537 -2.21906,-1.77299 -0.58504,-0.42897 -1.23872,-0.74707 -1.8863,-1.06853 -0.85813,-0.44384 -1.70477,-0.91094 -2.57182,-1.33712 -0.61971,-0.35209 -1.27845,-0.593 -1.97203,-0.74534 -0.7975,-0.13383 -1.59267,-0.28251 -2.38942,-0.42147 -0.594568,-0.0777 -1.192508,-0.14894 -1.793075,-0.14789 -0.145131,2.6e-4 -0.579617,-0.005 -0.435271,0.0106 0.269191,0.0281 0.540972,0.0192 0.811457,0.0288 -1.133091,-0.0513 -2.229527,0.16952 -3.324259,0.42828 -1.403441,0.42999 -2.843569,0.69294 -4.295116,0.89139 -0.785315,0.0962 -1.581999,0.0824 -2.339852,0.32475 -1.05017,0.49186 -1.963182,1.21997 -2.94671,1.82674 -0.688355,0.4177 -1.421017,0.7568 -2.177708,1.03008 -0.576109,0.31291 -1.039103,0.83565 -1.530114,1.26714 -0.838175,0.69811 -1.744967,1.3053 -2.78991,1.6353 -1.552396,0.47216 -0.606097,0.32427 -2.64776,-2.80287 -0.05766,-0.0883 0.755651,-0.57956 0.83618,-0.62819 0.86467,0.85054 1.799502,1.63522 2.59401,2.55166 0.06354,0.0733 -0.117827,0.27905 -0.193032,0.21778 -0.97978,-0.79837 -1.931829,-1.64763 -2.747014,-2.61345 -0.06099,-0.0723 1.042413,-1.04292 1.129669,-1.11844 1.267272,-1.06125 2.762988,-1.74678 4.28734,-2.34677 1.418185,-0.48856 2.888997,-0.7911 4.349621,-1.11965 1.580729,-0.37127 3.180238,-0.63941 4.792291,-0.82668 1.84478,-0.20051 3.705777,-0.18297 5.552001,-0.0156 0.729532,0.0701 1.460908,0.0962 2.193371,0.0967 0.168576,1.1e-4 0.674251,-0.005 0.505731,-1.4e-4 -0.19278,0.005 -0.385679,0.001 -0.57852,0.002 1.29663,-0.0868 2.54561,0.049 3.80218,0.32796 0.75071,0.22956 1.51258,0.41426 2.28126,0.5724 1.03123,0.18361 2.01804,0.53334 2.98589,0.92457 1.00244,0.37086 1.9094,0.91812 2.7608,1.5565 0.74108,0.55835 1.48877,1.10814 2.24201,1.65007 0.70621,0.46938 1.44329,0.89226 2.18701,1.29921 0.77196,0.37908 1.51264,0.80219 2.21391,1.29997 0.89779,0.66256 1.66222,1.4784 2.53245,2.17338 0.82076,0.54019 1.66565,1.02217 2.40901,1.67084 0.80846,0.74846 1.24685,1.74149 1.64832,2.74307 0.34583,0.87637 0.66243,1.76252 0.93327,2.6649 0.1532,0.44255 0.19124,0.92622 0.4093,1.34469 0.24387,0.28422 0.47653,0.5792 0.69657,0.88256 0.23411,0.24929 0.4292,0.49431 0.55553,0.8133 0.25639,1.04867 -0.092,1.21654 -0.78833,1.94899 0.0706,0.86202 -1.14844,0.96195 -1.21909,0.0999 v 0 c -0.31731,-0.11065 -0.77002,-0.44216 -1.12316,-0.15597 -0.0609,0.0494 -0.0438,0.15046 -0.0657,0.22569 -0.0309,0.007 -0.0628,0.0301 -0.0927,0.0197 -0.27469,-0.0961 -0.62421,-0.65752 -0.81528,-0.86457 -0.29211,-0.39364 -0.56402,-0.80256 -0.8243,-1.21778 -0.37323,-0.60301 -0.73656,-1.21493 -0.99461,-1.87814 -0.33444,-0.86714 -0.59084,-1.75782 -0.81863,-2.65858 -0.12613,-0.44031 -0.16199,-0.66798 -0.5948,-0.86358 -0.95951,-0.50636 -1.91632,-1.02852 -2.74382,-1.73973 -0.74525,-0.67124 -1.4082,-1.41852 -2.14288,-2.09934 -0.54249,-0.39674 -1.15945,-0.65443 -1.77838,-0.90913 -0.97545,-0.45034 -1.90746,-0.98034 -2.73549,-1.67188 -0.70422,-0.54264 -1.4039,-1.09229 -2.12214,-1.61599 -0.64683,-0.40447 -1.35049,-0.69016 -2.0729,-0.93311 -0.87384,-0.3019 -1.76432,-0.54947 -2.63969,-0.84682 -0.61535,-0.21254 -1.23069,-0.46916 -1.88326,-0.53475 -0.4239,-0.0307 -0.84862,0.001 -1.27329,0.0106 -0.14708,0.004 -0.58795,-0.002 -0.44125,0.009 0.20188,0.0152 0.40491,0.002 0.60737,0.004 -1.501892,0.002 -3.002502,-0.002 -4.503559,-0.0588 -0.158346,-4e-4 -1.046903,-0.005 -1.20083,0.005 -0.175553,0.0118 0.700811,-0.0327 0.527741,-10e-4 -0.202373,0.0369 -0.41136,0.008 -0.61686,0.0174 -0.648676,0.0287 -0.686957,0.0424 -1.347365,0.10935 -1.539243,0.19958 -3.070964,0.45303 -4.609845,0.65584 -1.245127,0.17586 -2.508109,0.34038 -3.685019,0.80606 -1.278219,0.48934 -2.511422,1.08695 -3.763681,1.63808 -0.06964,0.0338 -1.184998,0.57133 -1.200279,0.56183 -1.099559,-0.68368 -2.069778,-1.55779 -3.139611,-2.28711 -0.03347,-0.0228 -0.04962,0.064 -0.07443,0.096 0.912118,0.78707 1.824237,1.57414 2.736355,2.3612 0.100539,-0.0675 0.206098,-0.14348 0.210658,-0.13463 0.01427,0.0276 -0.05581,0.0751 -0.07724,0.0525 -2.583522,-2.72244 -1.317671,-3.08252 -2.702013,-2.60171 0.02559,-0.16787 0.369213,-0.41848 0.465646,-0.50337 0.444218,-0.39101 0.911394,-0.75512 1.386993,-1.10692 0.783108,-0.52995 1.581405,-1.04037 2.412401,-1.49209 0.432792,-0.28414 0.693224,-0.79176 1.127366,-1.0804 1.148902,-0.99352 2.410387,-1.86319 3.798731,-2.48916 0.927969,-0.38745 1.884461,-0.67178 2.863425,-0.90077 1.339578,-0.34572 2.653843,-0.78722 4.010383,-1.06856 1.420998,-0.3333 2.859866,-0.60193 4.325279,-0.60758 1.609092,0.0218 3.208184,0.0262 4.767294,0.47809 0.85392,0.20033 1.71434,0.37551 2.55986,0.60947 0.98666,0.2876 1.95276,0.64133 2.86945,1.1101 0.83253,0.45887 1.62726,0.97636 2.44962,1.45183 0.82768,0.44421 1.68545,0.83677 2.46864,1.36005 0.93509,0.67315 1.77648,1.44832 2.51144,2.33852 0.37239,0.42834 0.73138,0.85218 1.25127,1.10735 0.78367,0.50482 1.566,1.01748 2.27623,1.62395 0.79952,0.69362 1.5332,1.45391 2.15871,2.31053 0.47626,0.56574 0.97634,1.11008 1.44211,1.68476 0.59119,0.74166 1.13953,1.51721 1.59772,2.34924 0.53733,0.94482 0.98057,1.93462 1.29579,2.97686 0.30932,0.91822 0.65507,1.82409 1.03068,2.71727 0.3902,0.94325 0.78409,1.88643 1.11695,2.85173 0.27701,1.02081 0.4301,2.05527 0.4423,3.11488 0.0587,1.30257 0.0371,2.61204 -0.23025,3.89408 -0.38335,1.80093 -0.93174,3.55752 -1.57722,5.28176 -0.6429,1.74724 -1.32252,3.48062 -1.95617,5.23129 -0.67297,1.90318 -1.28095,3.85163 -2.58746,5.43934 -0.30139,0.34833 -0.58522,0.71266 -0.90418,1.04496 -1.93744,2.01846 -4.34335,3.51355 -6.89151,4.63297 -1.78828,0.70617 -3.60633,1.3624 -5.54088,1.50185 -0.46888,0.0202 -0.93736,0.0551 -1.40665,0.0607 -0.0609,6.1e-4 -0.11713,-0.0479 -0.1777,-0.0419 -0.0205,0.002 0.031,0.038 0.0235,0.0571 -0.0151,0.0391 -0.15306,0.0531 -0.16444,0.0554 0.46021,-1.21379 0.92043,-2.42757 1.38065,-3.64136 -0.0279,-0.0298 -0.074,-0.0496 -0.0837,-0.0892 -0.0158,-0.0647 0.42167,-0.0918 0.26489,-0.10344 -1.04752,-0.0783 -1.18293,-0.16408 -0.84083,0.0152 0.0489,0.02 0.0924,0.0677 0.1451,0.0639 0.36747,-0.0259 0.74731,-0.53594 1.06975,-0.66309 1.04027,-0.65514 2.14801,-1.19177 3.33727,-1.52065 0.33636,-0.0894 1.12945,-0.35346 1.47994,-0.29485 0.10628,0.0177 0.028,0.14174 0.0169,0.17658 -0.008,0.028 -0.0533,0.0903 -0.0246,0.0842 0.0374,-0.008 0.0462,-0.061 0.0668,-0.0933 0.0569,-0.089 0.10841,-0.18142 0.16577,-0.2701 0.21111,-0.3262 0.32474,-0.49188 0.58344,-0.79524 0.12178,-0.14282 0.25338,-0.27698 0.38007,-0.41547 1.19364,-1.13922 2.55792,-2.07525 3.83005,-3.12277 2.29232,-1.91192 4.47341,-3.9461 6.62834,-6.01102 1.17012,-1.0851 2.32082,-2.23334 3.62663,-3.15311 0.0264,-0.025 0.0638,-0.0423 0.0795,-0.0752 0.17094,-0.36032 0.0664,-0.26789 0.19419,-0.51437 0.0299,-0.0575 0.0365,-0.18228 0.0995,-0.16711 3.99764,0.96198 3.9172,-0.2067 3.88187,1.45367 -0.005,0.92953 -0.52718,1.77245 -0.84729,2.61812 -0.82767,1.83315 -1.74265,3.62491 -2.78652,5.3456 -0.97228,1.67206 -1.90432,3.36663 -2.87548,5.03926 -0.2821,0.51551 -0.54103,1.07249 -0.9032,1.53886 -0.0399,0.0514 -0.11089,0.16998 -0.15358,0.12075 -2.64565,-3.05618 -1.11879,-3.41202 -2.71739,-2.91083 0.0491,-0.12025 0.39851,-0.28547 0.48544,-0.33999 0.37919,-0.23781 0.7456,-0.49497 1.07516,-0.79954 0.33923,-0.36121 0.45321,-0.453 0.73463,-0.88399 0.73707,-1.12878 1.19934,-2.41712 1.72817,-3.64771 0.86617,-2.27388 1.62935,-4.58716 1.92452,-7.0149 0.0388,-0.25559 0.0726,-0.51201 0.11655,-0.76679 0.0254,-0.147 0.0285,-0.30279 0.0912,-0.43815 0.2161,-0.46632 0.38011,1.06783 0.52489,0.28428 0.70729,-3.82834 1.01816,-3.92096 -0.14819,-3.11212 -0.56005,0.3421 -2.14159,-1.94133 2.97921,2.82435 0.0164,0.0152 0.0655,0.005 0.0613,0.0272 -0.0106,0.0573 -0.0629,0.098 -0.0944,0.14701 -0.74718,0.79146 -1.59248,1.48687 -2.34764,2.2712 -0.92553,0.88179 -1.90142,1.74205 -2.49726,2.89486 -1.06983,1.8687 -2.13093,3.75055 -3.5257,5.40478 -1.69882,2.03131 -3.56094,3.92145 -5.7459,5.43698 -1.64238,1.09096 -3.3417,2.12928 -5.31721,2.4707 0.18857,-0.25277 0.20301,-0.36627 0.48127,-0.46932 0.11006,-0.0407 -0.42387,0.48388 -0.34746,0.35658 -1.00347,-0.99144 -2.02839,-1.96162 -3.01039,-2.97432 -0.0288,-0.0298 -0.0124,-0.0869 0.006,-0.12403 0.31546,-0.63714 1.08174,-0.99377 1.59593,-1.42477 1.22546,-0.7761 2.50863,-1.44412 3.79866,-2.10519 0.24653,-0.16143 0.37226,-0.21273 0.5526,-0.45206 0.53166,-0.70558 0.67588,-1.63894 0.98325,-2.4431 0.70876,-2.25241 1.3657,-4.52924 1.69476,-6.87325 0.0592,-0.47839 0.1329,-0.9552 0.17743,-1.43517 0.25404,-2.7383 0.0983,-5.49424 0.0412,-8.237 -0.0885,-2.83187 -0.24858,-5.68179 0.0654,-8.50513 0.0139,-0.0847 0.35417,-2.09821 0.47379,-2.05181 0.20412,0.0791 -0.0509,0.43494 -0.07,0.65302 -0.007,0.0841 0.007,0.17029 -0.009,0.25289 -0.004,0.015 -0.03,0.006 -0.0449,0.009 -0.96609,-1.17656 2.62897,-1.55929 4.04139,-2.12736 0.0468,-0.0188 0.6237,0.65446 0.63841,0.69555 0.68885,1.026 1.22632,2.14371 1.59336,3.32533 0.48617,1.71076 0.75046,3.46907 0.78751,5.24951 0.0484,1.97238 0.0242,3.95816 -0.44331,5.88746 -0.25585,0.91859 -0.60168,1.81448 -0.79287,2.74791 -0.12784,1.11781 -0.26468,2.24106 -0.61099,3.31681 -0.38972,1.23932 -0.8739,2.44506 -1.60323,3.52879 -0.52247,0.8131 -1.01238,1.64684 -1.49875,2.48197 -0.54308,0.94177 -1.05241,1.9048 -1.67504,2.79837 -0.85832,1.17091 -1.79509,2.28294 -2.79147,3.33899 -1.18842,1.23665 -2.43679,2.43901 -3.93846,3.29308 -0.55947,0.28034 -1.1164,0.54343 -1.70344,0.76161 -0.0144,0.006 -0.57705,0.19538 -0.64186,0.22807 -0.0842,0.0424 -0.15748,0.10356 -0.23623,0.15535 -0.44153,0.47591 -0.7783,0.99302 -1.15901,1.51915 -0.73741,1.0191 -1.53631,1.9929 -2.48798,2.82267 -0.39103,0.30556 -0.76707,0.63136 -1.17311,0.91667 -1.40146,0.98477 -3.06799,1.80018 -4.79621,1.96804 -0.26356,0.0256 -0.52955,-0.006 -0.79433,-0.009 -2.067533,1.03542 -3.531847,-1.88851 -1.464314,-2.92393 z"
           inkscape:connector-curvature="0" />
        <path
           style="fill:#ffb380;fill-opacity:1;stroke:none;stroke-width:0.31243885;stroke-opacity:1"
           id="path843-2"
           d="m 37.103546,421.02256 c 1.685572,-0.0576 3.332419,0.43486 4.954362,0.83666 1.427612,0.40108 2.892044,0.47086 4.364154,0.45693 1.563792,-0.073 1.750061,-0.0951 3.497716,-0.11218 1.161214,-0.0248 2.295979,-0.29702 3.441802,-0.46161 0.877868,-0.10793 1.76103,-0.11863 2.645038,-0.0955 0.424495,0.0106 0.862129,0.11053 1.28468,0.15782 -0.749328,-0.0339 1.805589,0.10415 1.066739,-0.0106 -0.2169,-0.0335 -0.44028,0.002 -0.657912,-0.0263 -0.0046,-6.2e-4 0.655262,-0.0315 0.655932,-0.0315 0.66326,-0.0211 1.30164,-0.19461 1.94688,-0.32802 0.57883,-0.0967 1.16267,-0.14943 1.73861,-0.26288 0.70639,-0.20801 1.42867,-0.33347 2.15926,-0.41495 0.68676,-0.0515 1.37414,-0.0402 2.06268,-0.0332 0.0965,9.3e-4 0.38527,0.009 0.28897,0.014 -0.43071,0.0231 -1.07915,-0.004 -0.49807,0.0171 0.24124,0.0272 0.51413,-0.0263 0.73896,0.086 0.0141,0.006 0.0407,0.002 0.042,0.0174 0.002,0.0208 -0.0239,0.0341 -0.0358,0.0511 0.54091,1.13884 1.1774,2.23701 1.62273,3.4165 0.0164,0.0437 -0.91859,0.25193 -1.00983,0.27225 -1.29037,0.3357 -2.53849,0.81611 -3.80862,1.2211 -2.38676,0.72182 -4.88338,0.86681 -7.355909,0.5892 -1.406387,-0.21083 -2.822372,-0.31533 -4.243344,-0.32991 0.194674,-0.004 0.731213,0.11773 0.584026,-0.009 -0.151327,-0.13104 -0.400344,-0.006 -0.600517,-0.005 -0.842794,0.006 -1.68463,0.0543 -2.526449,0.0899 -2.017311,0.11608 -4.015539,-0.1064 -6.004161,-0.4111 -0.988875,-0.14719 -1.961986,-0.36372 -2.925394,-0.62738 -0.502632,-0.13101 -0.978366,-0.34628 -1.48298,-0.46781 -0.402081,-0.0987 -0.646986,-0.73207 -0.652085,-1.09035 -0.0037,-0.26042 0.08039,-0.51464 0.12059,-0.77196 -0.34651,-1.0554 1.146055,-1.54543 1.492565,-0.49004 v 0 c 0.0564,-0.21646 0.135265,-0.4283 0.169199,-0.64941 0.02154,-0.14032 -0.02369,-0.28524 -0.0041,-0.42585 0.05208,-0.3754 0.432835,-0.35216 0.70664,-0.28156 0.372948,0.0969 0.732342,0.19405 1.121895,0.12944 1.068275,-0.0647 2.138615,-0.0778 3.204046,0.0487 0.983587,0.10947 1.963414,0.26242 2.948843,0.35388 0.210475,0.0195 0.496074,-0.11466 0.632401,0.047 0.122319,0.14494 -0.378829,0.0194 -0.568242,0.029 1.669239,0.0261 3.328815,-0.10403 4.998278,-0.11065 1.508977,0.002 3.009325,0.12122 4.514748,0.20788 0.24285,-9.4e-4 0.48595,-0.0137 0.72854,-0.002 0.17769,0.008 -0.71084,0.0253 -0.5335,0.0118 0.24679,-0.0191 0.49515,-0.0106 0.74207,-0.0277 0.86108,-0.0606 1.70889,-0.22235 2.54886,-0.41603 1.63616,-0.38029 3.2929,-0.87113 4.98902,-0.78852 0.10982,0.0183 0.22177,0.0269 0.32955,0.055 0.0825,0.0215 0.18216,0.0466 0.22586,0.11987 1.55403,2.60266 2.98747,2.61869 1.7819,3.47901 -0.43379,0.23824 -0.91305,0.36685 -1.40443,0.41859 -0.75202,0.0688 -0.11325,0.0185 -1.58174,0.0433 -0.0975,10e-4 -0.38971,0.008 -0.29225,0.0106 1.51233,0.0397 0.44122,-0.0283 0.12465,0.002 -0.57154,-0.002 -1.1427,0.0259 -1.69966,0.16635 -0.60521,0.14753 -1.21597,0.26161 -1.83508,0.33313 -0.74348,0.11922 -1.45208,0.37218 -2.19868,0.48014 -1.19635,0.15935 -2.409658,0.11348 -3.602416,-0.0614 -0.31511,-0.0214 -0.388464,-0.0332 -0.700248,-0.0284 -0.110328,10e-4 -0.441063,0.0118 -0.330744,0.0142 1.480047,0.0339 0.152526,-0.045 -0.121102,0.0714 -1.240794,0.24018 -2.471019,0.5436 -3.725748,0.70702 -1.995078,0.22375 -4.021694,0.25647 -6.01713,0.0182 -1.60834,-0.23705 -3.201453,-0.56738 -4.790939,-0.90707 -1.423765,-0.34818 -2.950483,-0.72532 -4.165836,-1.58906 -0.169606,-0.12054 -0.311077,-0.27643 -0.466615,-0.41465 -1.619659,-0.96547 -0.254283,-3.256 1.365375,-2.29054 z"
           inkscape:connector-curvature="0" />
        <path
           style="fill:#ffb380;fill-opacity:1;stroke:none;stroke-width:0.31243885;stroke-opacity:1"
           id="path845-8"
           d="m 78.858257,393.16453 c -1.02032,-0.73345 -1.61588,-1.8749 -2.34763,-2.86741 -0.44969,-0.57895 -1.07242,-0.96452 -1.66927,-1.37201 -0.83745,-0.56838 -1.57234,-1.2656 -2.32422,-1.93863 -0.74733,-0.64272 -1.41663,-1.37318 -2.18513,-1.99089 -0.48716,-0.37 -0.98032,-0.73017 -1.45661,-1.11382 -0.37847,-0.32577 -0.80908,-0.56902 -1.24826,-0.80036 -0.81805,-0.39438 -1.59184,-0.85261 -2.31133,-1.40658 -0.70759,-0.54839 -1.31663,-1.20638 -1.90393,-1.8781 -0.27683,-0.35075 -0.68052,-0.53118 -1.05898,-0.75031 -0.63386,-0.34533 -1.27775,-0.66818 -1.93299,-0.97049 -0.60582,-0.24974 -1.25419,-0.36454 -1.89546,-0.48231 -0.862715,-0.14781 -1.73512,-0.23835 -2.609983,-0.26068 -0.32457,-0.047 -1.838186,0.0894 -0.135957,0.008 0.146449,-0.007 -0.293156,-0.008 -0.439774,-0.008 -0.33489,5.9e-4 -0.57663,0.0161 -0.912211,0.0321 -1.42217,0.0987 -2.847774,0.0718 -4.272252,0.0781 -0.278228,-0.0466 -2.081889,0.0639 -0.352718,-0.002 0.147273,-0.006 -0.29474,-0.006 -0.442121,-0.005 -0.369808,0.002 -0.441322,0.0125 -0.809834,0.0366 -0.919358,0.11537 -1.824049,0.31781 -2.736059,0.47793 -0.697779,0.1363 -1.419381,0.13861 -2.11095,0.30533 -0.711135,0.27009 -1.328399,0.74385 -1.982398,1.12728 -0.908883,0.52257 -1.914949,0.81844 -2.95026,0.94778 -0.689829,0.0616 -1.139622,0.65348 -1.605561,1.10587 -1.063391,0.98933 -2.056357,2.09215 -3.290076,2.87859 -0.225159,0.14352 -0.467417,0.25828 -0.701126,0.38742 -0.738244,0.36641 -1.058738,0.37352 -1.800798,0.12295 -0.179662,1.20795 -1.88796,0.95388 -1.708297,-0.25407 v 0 c -0.09169,-0.23993 -0.224943,-0.46786 -0.275067,-0.71977 -0.142392,-0.71558 0.143079,-1.39997 0.495067,-1.99872 0.156017,-0.21329 0.297074,-0.43836 0.468049,-0.63985 0.960431,-1.13186 2.242025,-1.95857 3.356909,-2.92204 0.975756,-0.71064 1.971928,-1.43626 3.08385,-1.91749 0.702623,-0.25366 1.436073,-0.38485 2.146328,-0.61519 0.834172,-0.36323 1.587393,-0.86666 2.390492,-1.29104 0.864828,-0.39332 1.756718,-0.69589 2.70244,-0.82645 0.937905,-0.15212 1.876073,-0.30061 2.800699,-0.52297 0.554129,-0.11773 1.126094,-0.25662 1.694565,-0.28029 0.954141,-0.0398 1.908913,-0.0356 2.863131,-0.0118 0.174272,0.005 0.348515,0.0118 0.522815,0.0153 0.167008,0.004 0.66721,-0.009 0.50109,0.008 -0.229449,0.0243 -0.462785,-0.0137 -0.692083,0.0119 -0.155633,0.0174 0.313057,0.009 0.469623,0.0129 0.151045,0.004 0.302113,0.007 0.45319,0.006 0.147828,-2.1e-4 0.295611,-0.005 0.443416,-0.008 1.445983,-0.0622 2.895524,-0.23747 4.342319,-0.0668 1.010122,0.13234 2.003072,0.33801 2.990612,0.58798 0.9601,0.22025 1.91283,0.48711 2.78507,0.95789 0.76594,0.40914 1.49991,0.87543 2.18474,1.41068 0.55192,0.41666 1.09083,0.8496 1.59254,1.32649 0.49752,0.45397 1.00084,0.90311 1.57405,1.26164 0.71252,0.46095 1.41505,0.93691 2.06348,1.48649 0.39898,0.32412 0.79212,0.65905 1.22925,0.93177 0.62157,0.35563 1.25834,0.6906 1.82421,1.13482 0.85943,0.70277 1.66806,1.46294 2.42046,2.28001 0.55062,0.60752 1.11702,1.20417 1.76782,1.70687 0.8102,0.63899 1.65469,1.24606 2.34534,2.0202 0.9376,1.08058 1.84752,2.27659 2.0522,3.7329 1.07567,2.40586 -2.32674,3.92709 -3.40242,1.52122 z"
           inkscape:connector-curvature="0" />
        <path
           style="fill:#ffb380;fill-opacity:1;stroke:none;stroke-width:0.31243885;stroke-opacity:1"
           id="path847-3"
           d="m 77.478897,395.77735 c -1.05307,-1.1458 -1.71946,-2.58597 -2.42982,-3.95649 -0.546,-1.00644 -1.07361,-2.0211 -1.45933,-3.10075 -0.18,-0.60061 -0.3693,-1.12965 -0.83945,-1.55629 -0.71658,-0.62697 -1.49274,-1.17799 -2.22066,-1.79177 -0.79592,-0.69212 -1.50042,-1.26273 -1.92937,-2.24707 -0.12745,-0.50044 -0.21022,-1.18149 0.24624,-1.57529 0.2098,-0.18102 0.50328,-0.23203 0.75493,-0.34805 0.12553,-0.51699 0.85666,-0.33944 0.73112,0.17754 v 0 c 0.218,-5.9e-4 0.44109,0.0451 0.654,-0.002 0.32132,-0.0707 0.39545,-0.45571 0.73374,-0.42253 0.83088,0.27001 1.44672,0.95487 2.13691,1.46051 0.96454,0.83073 1.86562,1.74172 2.46312,2.88084 0.31678,0.66009 0.53213,1.35753 0.86008,2.01069 0.61954,0.91441 1.30345,1.78672 1.83487,2.75893 0.79506,1.41578 1.57423,2.92649 1.63726,4.58192 0.79873,2.24409 -2.3749,3.37368 -3.17364,1.12958 z"
           inkscape:connector-curvature="0" />
        <path
           style="fill:#ffb380;fill-opacity:1;stroke:none;stroke-width:0.31243885;stroke-opacity:1"
           id="path849-1"
           d="m 62.906817,379.81609 c -1.53976,-0.3178 -2.83519,-1.27227 -4.21812,-1.96995 -0.46031,-0.16282 -0.5133,-0.21508 -0.977556,-0.26228 -0.130884,-0.0133 -0.524842,0.009 -0.394573,-0.009 0.174619,-0.0246 0.368366,0.0631 0.528941,-0.009 0.120248,-0.0546 -0.262492,-0.0302 -0.392733,-0.052 -0.141912,-0.0237 -0.282195,-0.0563 -0.423289,-0.0845 -0.643352,-0.23441 -0.319375,-0.0751 -0.957747,-0.50587 -0.996415,0.51945 -1.731027,-0.88969 -0.734609,-1.40914 v 0 c 0.102641,-0.65768 -0.0259,-0.37027 0.364753,-0.87131 0.153739,-0.0973 0.296655,-0.21424 0.461219,-0.29179 0.777801,-0.36655 1.325397,-0.29363 2.281424,-0.29351 0.8873,10e-5 1.74663,0.26928 2.5652,0.58282 1.46937,0.67623 2.97999,1.47952 3.93758,2.82884 1.66005,1.44285 -0.38045,3.79051 -2.04049,2.34766 z"
           inkscape:connector-curvature="0" />
      </g>
      <g
         id="g855">
        <path
           style="fill:#000000;fill-opacity:1;stroke:none;stroke-width:0.31243885;stroke-opacity:1"
           id="path834"
           d="m 48.976046,365.413 c -1.134112,0.44263 -2.357119,0.54371 -3.558391,0.65178 -0.469551,0.0423 -0.94434,0.0339 -1.41049,0.10439 -0.06738,0.0106 0.125292,0.0536 0.187936,0.0804 -0.397175,0.0423 -0.794351,0.0844 -1.191526,0.1267 -2.439026,0.36648 -4.474132,1.78349 -6.557405,2.99724 -1.380673,0.86616 -2.851948,1.61879 -4.091556,2.69153 -0.842825,0.72938 -0.948542,0.92949 -1.67839,1.80088 -2.054292,2.96298 -3.784771,6.14081 -5.59429,9.25721 -0.951926,1.65126 -1.819248,3.36414 -2.291533,5.22064 -0.189598,0.74528 -0.379976,1.9297 -0.509604,2.67398 -0.527184,3.31999 -0.847649,6.67047 -1.045882,10.02514 -0.123876,2.01926 -0.06701,4.04049 0.396916,6.0157 0.272924,1.162 0.44434,1.58441 0.824041,2.71392 0.834681,2.45485 1.845133,4.84358 2.950432,7.18739 0.825164,1.88365 2.014382,3.51658 3.394153,5.02345 1.612897,1.63733 3.258825,3.24546 4.993182,4.75431 1.582384,1.33636 3.455611,2.23436 5.292658,3.15747 2.146752,1.05232 4.175724,2.32012 6.28693,3.4374 1.540916,0.90008 3.279661,1.00067 5.013568,1.11015 1.971418,0.15328 3.947138,0.15864 5.922948,0.16014 1.063517,-0.0138 2.127184,-0.0118 3.190204,0.0263 0.31782,0.0118 0.94991,-0.27468 0.95307,0.0433 0.002,0.22714 -2.14868,-0.0792 -0.25028,0.15152 0.25283,-0.10428 0.62118,0.18846 0.88146,0.1649 0.34571,-0.0313 0.78974,-0.42806 1.04121,-0.5972 1.58691,-1.13147 3.30947,-2.03667 5.05705,-2.88882 1.85843,-0.86184 3.76617,-1.61076 5.61302,-2.49759 1.63852,-0.78647 3.20596,-1.70186 4.725,-2.69704 1.3872,-0.88341 2.62714,-1.95993 3.75663,-3.14965 1.05349,-1.1575 1.94879,-2.44524 2.85492,-3.71797 1.15706,-1.47971 2.06962,-3.11621 2.93251,-4.77792 0.88601,-1.77209 1.70145,-3.58376 2.19741,-5.50578 0.35871,-1.72346 0.20945,-3.49166 0.11396,-5.23392 -0.14329,-1.86215 -0.0404,-3.72853 -0.0914,-5.59278 -0.0992,-1.45297 -0.1763,-2.91056 -0.34802,-4.3573 -0.16915,-1.31536 -0.46263,-2.60945 -0.75663,-3.90123 -0.29421,-1.30948 -0.59084,-2.62766 -1.1781,-3.84076 -0.73151,-1.22051 -1.64366,-2.32003 -2.47521,-3.47311 -0.75226,-0.93257 -1.22907,-2.07556 -2.01579,-2.97931 -0.91191,-0.62853 -1.80519,-1.27604 -2.66656,-1.97308 -1.04823,-0.79445 -1.89555,-1.8193 -2.92384,-2.6338 -0.74743,-0.41448 -1.50294,-0.81031 -2.22379,-1.27421 -0.84772,-0.58698 -1.61845,-1.27505 -2.44721,-1.88737 -0.44102,-0.24433 -0.90495,-0.44282 -1.34545,-0.69715 -0.91061,-0.46653 -1.7886,-0.99271 -2.68484,-1.4855 -0.3913,-0.26356 -0.84613,-0.32886 -1.27862,-0.4866 -0.71283,-0.3018 -1.44234,-0.53589 -2.19162,-0.726 -0.68423,-0.1333 -1.35621,-0.31049 -2.02602,-0.5029 -0.49765,-0.20564 -0.98006,-0.17729 -1.49988,-0.14701 -1.08244,0.0485 -2.16442,0.0594 -3.24769,0.048 1.19204,-0.0548 -4.210519,0.0823 -2.998414,0.004 0.912849,-0.0593 1.92038,0.0176 0.556545,-0.0629 -1.781787,-0.0738 -3.566292,-0.0589 -5.349314,-0.0707 -1.040175,-0.0858 -2.081575,-0.13454 -3.125483,-0.13549 -0.384256,-0.009 -0.571753,-0.008 -0.947949,-0.0404 -0.122578,-0.0106 -0.489288,-0.0312 -0.366713,-0.0417 1.403164,-0.12021 2.008642,0.0211 1.050995,-0.16727 -1.468538,-0.059 -1.602786,0.17636 -2.600291,-0.39649 -0.215276,-0.12362 -0.393357,-0.30529 -0.607738,-0.43046 -0.126525,-0.0739 0.224226,0.18901 0.342446,0.27557 0.09887,0.0724 0.454827,0.29346 0.574891,0.36877 0.0039,0.12754 0.02758,0.0712 -0.138514,0.11984 0.492019,0.0132 0.984889,0.008 1.476058,0.0398 0.107153,0.007 -0.213155,0.0267 -0.320196,0.0351 -0.363049,0.0286 -0.438792,0.0205 -0.810882,0.0197 -0.283901,-0.0664 -1.097588,0.0358 -1.255039,-0.32907 -0.07301,-0.16917 0.144874,-0.8211 0.14963,-0.83938 -0.05894,-0.82804 0.156007,-0.56738 -0.679489,-0.75204 -0.279293,2.18696 -3.372115,1.79198 -3.092826,-0.39498 v 0 c -0.652232,-1.5405 -0.570988,-0.73785 -0.208131,-2.41129 0.206772,-0.32137 0.375149,-0.67099 0.620319,-0.96412 0.64599,-0.77236 1.694381,-1.05218 2.648172,-1.14221 0.390921,-0.009 0.771024,0.0183 1.160521,0.0282 0.954185,0.0245 1.761107,-0.10273 2.628573,0.1643 0.387671,0.15273 0.534019,0.18882 0.886792,0.41306 0.146593,0.0932 0.564854,0.40446 0.420954,0.30717 -1.140358,-0.77102 -1.263502,-0.84095 -2.910298,-0.76481 0.713072,-0.42843 1.657599,-0.15222 2.488894,-0.18351 0.513325,-0.0194 1.026743,-0.0933 1.54207,-0.0368 0.993106,0.0661 1.988073,0.13629 2.983701,0.0936 -0.45937,-10e-4 -0.918821,0.005 -1.378109,-0.005 -0.169829,-0.004 0.339617,-0.008 0.509444,-0.0123 0.775491,-0.0165 1.5494,-0.0665 2.322186,-0.13492 2.234619,-0.18227 4.498005,-0.13386 6.726015,0.11348 1.08985,0.12861 2.1791,0.26379 3.26389,0.43018 0.75269,0.13953 1.49109,0.3437 2.24714,0.46595 0.93011,0.16012 1.85602,0.34993 2.72284,0.73934 0.56057,0.24325 1.1003,0.57184 1.69329,0.72146 0.97644,0.0944 1.89071,0.59757 2.75754,1.01402 0.88226,0.5163 1.72385,1.0882 2.48912,1.76914 0.51963,0.29957 1.13808,0.42432 1.63284,0.7798 0.92504,0.5506 1.78169,1.18873 2.5961,1.89314 0.74836,0.53357 1.61055,0.85645 2.3825,1.35556 1.30432,0.87314 2.52479,1.8601 3.61582,2.9921 0.88811,0.9004 1.7906,1.78402 2.71029,2.65181 1.02864,1.07426 1.99705,2.2029 2.85354,3.42115 1.06636,1.51373 2.13815,3.0408 2.91845,4.7269 0.70588,1.70106 1.24662,3.46125 1.45331,5.2992 0.18605,1.35227 0.38617,2.70119 0.70624,4.02986 0.33316,1.70456 0.590201,3.42223 0.605611,5.16362 0.0612,1.8089 0.18022,3.61271 0.32085,5.4172 0.138837,2.39967 0.213517,4.81959 -0.26717,7.19077 -0.590501,2.48319 -1.415851,4.90102 -2.671591,7.13508 -1.11436,1.98158 -2.3596,3.88576 -3.91547,5.55502 -1.10873,1.21778 -2.0846,2.5322 -3.03261,3.87789 -1.40754,1.74507 -2.95187,3.37906 -4.85175,4.59987 -1.69474,1.05207 -3.45352,1.98963 -5.19053,2.96897 -1.90293,1.06984 -3.82807,2.10479 -5.88836,2.84653 -1.67074,0.6428 -3.31801,1.34624 -4.94934,2.08327 -1.43341,0.66107 -2.7997,1.51619 -4.38293,1.78046 -1.69023,0.26662 -0.43568,0.10297 -3.47657,0.19578 -1.432799,0.0437 -2.86614,0.0885 -4.298029,-0.0233 -2.149498,-0.10108 -4.305573,-0.12524 -6.446822,-0.34774 -2.443534,-0.37291 -4.75192,-1.03112 -6.971133,-2.14335 -2.208236,-1.07816 -4.377175,-2.22929 -6.475767,-3.51018 -2.143715,-1.26704 -4.304549,-2.52679 -6.205311,-4.15069 -1.976717,-1.71836 -3.842493,-3.56045 -5.453466,-5.63273 -1.527222,-1.96856 -2.905228,-4.04376 -4.046679,-6.26254 -1.366808,-2.57976 -2.689439,-5.19366 -3.64185,-7.96046 -1.139677,-3.65085 -1.848169,-7.19497 -1.730852,-11.04551 0.07883,-1.81407 0.05319,-2.21758 0.305431,-4.02232 0.327826,-2.34551 0.985558,-4.61763 1.543604,-6.91359 0.79601,-3.26098 1.535503,-6.56109 2.911077,-9.63923 0.28954,-0.61051 0.56086,-1.22998 0.868615,-1.83152 1.60109,-3.12941 3.630805,-6.03733 6.069771,-8.57089 0.426064,-0.41781 0.839223,-0.8492 1.278197,-1.25341 1.793316,-1.65133 3.834642,-3.00951 5.97232,-4.17053 2.707633,-1.50876 5.494306,-2.96244 8.552992,-3.60432 0.535405,-0.0823 1.065667,-0.21168 1.60621,-0.24694 2.220247,-0.14485 4.797096,-0.18771 6.955449,0.56621 0.275244,0.0961 0.524988,0.25377 0.787483,0.38066 2.836464,0.86425 1.614222,4.87561 -1.222242,4.01136 z"
           inkscape:connector-curvature="0" />
      </g>
    </g>
  </g>
  <g
     inkscape:groupmode="layer"
     id="layer6"
     inkscape:label="arm_color"
     transform="translate(0,-296.33334)"
     style="display:inline"
     sodipodi:insensitive="true">
    <path
       style="fill:#7137c8;fill-opacity:1;stroke:none;stroke-width:0.26458332;stroke-opacity:1"
       id="path847"
       d="m 56.511099,394.46126 c -1.090128,-1.49877 -1.754706,-3.25901 -2.34197,-5.00336 -0.496789,-1.28131 -0.820282,-2.61152 -1.049713,-3.96332 -0.222263,-1.71651 -0.24471,-3.44827 -0.366543,-5.17287 -0.173384,-2.07939 -0.304988,-4.16176 -0.432438,-6.24447 -0.138017,-1.91759 -0.09749,-3.84032 -0.03385,-5.75977 0.04233,-1.69423 -0.06489,-3.38701 -0.05402,-5.08103 -0.05198,-1.79665 0.11023,-3.58151 0.376488,-5.35552 0.328446,-1.50124 0.594326,-3.00068 0.665525,-4.53661 0.0064,-1.61699 -0.0236,-3.22869 0.119232,-4.8408 0.201171,-1.46686 0.607439,-2.89016 0.777531,-4.36159 0.06114,-1.13816 -0.0084,-2.27728 -0.0024,-3.416 -0.06138,-1.15413 0.197202,-2.25072 0.579583,-3.32877 0.333804,-0.86031 0.61173,-1.74029 0.876726,-2.62372 0.252971,-0.8038 0.427479,-1.6281 0.625631,-2.44622 0.112176,-0.46042 0.244438,-0.9149 0.345477,-1.37797 0.05869,-0.41563 0.08945,-0.83368 0.15534,-1.24857 0.08535,-0.37291 0.126137,-0.75198 0.150508,-1.13293 0.02273,-0.30621 0.01897,-0.61318 0.02556,-0.91992 -0.01408,-0.37988 -0.03111,-0.75946 -0.02148,-1.1396 0.01193,-0.25631 0.05421,-0.50924 0.04876,-0.7659 -0.0329,-0.36156 -0.06189,-0.72279 -0.07068,-1.08585 0.0019,-0.25756 0.0063,-0.52465 0.119918,-0.76086 3.105745,-0.54818 4.952939,-1.57257 2.976017,-0.42665 0.875718,1.06401 -0.629018,2.30246 -1.504736,1.23846 v 0 c -2.84299,0.8177 1.931945,-0.61002 2.620804,-0.80924 0.103939,0.24097 0.121671,0.50156 0.117097,0.76231 -0.0094,0.34899 -0.03891,0.69608 -0.06512,1.04404 2.33e-4,0.29321 0.0452,0.58375 0.04466,0.87735 -0.0046,0.28877 -0.03306,0.57534 -0.04372,0.86352 0.08377,0.4005 0.141462,0.80738 0.153456,1.21679 -0.0049,0.61489 -0.08066,1.21636 -0.253233,1.80799 -0.09753,0.26893 -0.128363,0.55136 -0.132411,0.83667 0.07324,0.56151 0.01984,1.13605 -0.03779,1.69599 -0.108464,0.97682 -0.243404,1.95489 -0.502709,2.90473 -0.28634,1.04061 -0.621056,2.07003 -1.138822,3.02224 -0.311758,0.59349 -0.314076,0.78542 -0.173685,1.48862 0.218532,1.38112 0.381986,2.77919 0.257704,4.179 -0.14006,1.42512 -0.486061,2.80434 -0.721583,4.2138 -0.07616,1.59148 -0.0044,3.18232 -0.04782,4.77467 -0.101293,1.65923 -0.349877,3.28881 -0.713952,4.91119 -0.202319,1.56914 -0.249653,3.14644 -0.207123,4.7279 0.01958,1.70928 -0.07547,3.41721 -0.05575,5.1267 0.03723,1.8254 0.236929,3.63657 0.382349,5.45556 0.113477,2.14091 0.169865,4.28538 0.09704,6.42899 -0.04745,1.64109 -0.149186,3.27541 -0.313426,4.90922 -0.01035,0.34532 -0.03435,0.57613 0.0154,0.91342 0.115845,0.78565 0.5466,1.48545 0.74049,2.24949 0.547981,1.8103 1.013158,3.71144 0.744074,5.6122 0.382326,1.93069 -2.348092,2.47138 -2.730418,0.54069 z"
       inkscape:connector-curvature="0" />
    <path
       style="fill:#7137c8;fill-opacity:1;stroke:none;stroke-width:1.01047778;stroke-opacity:1"
       d="m 629.18848,60.595371 c -31.98337,4.340998 -63.30889,12.921627 -95.48752,15.613291 -33.3449,2.746816 -66.8567,4.819579 -100.07914,9.35757 -60.10314,7.089898 -121.05373,3.296211 -181.44614,4.733632 -8.08571,5.492629 -16.88246,10.881546 -23.01402,18.433326 0.43714,17.85577 -1.27224,35.95293 -7.80357,52.75601 -1.30077,9.50806 2.02651,19.2821 -0.85457,28.74928 -2.06606,14.58798 -1.17719,29.2475 -4.0202,43.73276 -1.68877,33.0509 -0.14553,66.19199 0.20623,99.26837 -0.5796,11.89472 5.23895,22.73212 5.62573,34.52323 3.18448,3.79993 9.71548,1.07806 14.36378,2.09003 20.62972,1.51132 40.75908,7.86567 61.71477,7.84971 40.8111,1.14041 81.26522,7.41736 122.1544,7.95362 33.7482,1.38422 67.509,2.58507 101.28462,1.58778 39.11415,-0.24514 78.2293,-0.16978 117.34397,-0.22878 4.40838,-3.49243 1.26074,-11.46583 2.59329,-16.72024 1.41022,-62.64102 2.0031,-125.4842 -3.93627,-187.92774 -6.10223,-29.54099 -2.31888,-60.0641 -5.61788,-90.014823 -2.32989,-10.061798 -1.47515,-20.492524 -1.15064,-30.563313 0.0257,-1.011875 -1.24784,-0.88977 -1.87684,-1.193713 z"
       id="path849"
       inkscape:connector-curvature="0"
       transform="matrix(0.26458333,0,0,0.26458333,0,296.33334)" />
    <path
       style="fill:#5a2ca0;fill-opacity:1;stroke:none;stroke-width:0.26458332;stroke-opacity:1"
       id="path851"
       d="m 57.332652,331.70274 c 1.473782,-0.4813 3.043555,-0.59023 4.583051,-0.66777 1.790184,-0.0902 0.890797,0.0257 1.724287,-0.0919 1.766308,-0.0532 3.540776,-0.0193 5.303655,-0.16396 0.783217,-0.0643 1.562134,-0.17322 2.343637,-0.25579 2.375143,-0.36031 4.738462,-0.79297 7.098199,-1.24194 3.271406,-0.67978 6.572086,-1.1699 9.891623,-1.5371 4.109884,-0.43634 8.242755,-0.32957 12.365596,-0.23362 2.75889,0.17311 5.51733,0.34022 8.28207,0.36069 3.02463,-0.0236 6.04731,-0.1176 9.07236,-0.12023 2.36051,0.0737 4.72503,0.0741 7.08684,0.0367 2.46978,-0.0405 4.94046,-0.0348 7.40997,0.0195 1.76361,0.0454 3.42282,0.0126 4.68059,-0.0227 1.87476,-0.0922 3.74973,-0.12635 5.626,-0.0748 1.22464,0.0488 2.44964,0.0774 3.67401,0.0141 1.25316,-0.10082 2.50414,-0.18324 3.76171,-0.18107 0.77669,0.0668 1.55956,0.062 2.33625,0.11892 0.22476,0.0165 0.47436,0.10966 0.69687,0.15757 0.84414,-0.0173 -1.14989,0.0486 -0.36997,-0.0447 0.0791,-0.009 0.15798,-0.0205 0.2371,-0.0296 0.0916,-0.0106 0.18329,-0.0197 0.27494,-0.0295 0.56021,-0.0508 1.12313,-0.0434 1.68499,-0.0468 2.74766,-0.006 0.90458,0.008 0.5293,-0.0189 -0.0879,-0.006 0.17609,-0.008 0.26392,-0.0154 0.3431,-0.0281 0.67937,-0.0885 1.01778,-0.14951 0.88803,-0.16959 1.7895,-0.25539 2.69304,-0.26115 0.93099,-0.0575 1.85312,0.10598 2.78022,0.13065 -0.15343,0.003 0.62416,-0.005 0.46813,-0.008 -0.23947,-0.005 -0.95808,-0.003 -0.71856,-0.004 0.57975,-0.002 1.13033,0.006 1.70137,0.0211 0.38711,0.0557 1.82047,0.0387 0.12425,0.0811 0.66944,-0.0167 1.33986,-0.003 2.00976,-0.0158 0.0697,-0.001 0.13932,-0.004 0.209,-0.003 1.287,0.007 -1.15449,-0.1209 -0.15205,0.0678 0.46096,0.0671 0.99098,-0.006 1.43654,-0.0128 0.42726,-0.0717 0.86493,-0.0279 1.2954,-0.009 -0.14473,0.004 0.37343,0.0294 0.27965,0.0347 -1.65992,0.0945 -0.36627,-0.005 0.28911,0.0774 0.12556,0.0159 0.23284,0.0992 0.34927,0.14885 0.081,0.0472 0.16242,0.0935 0.24286,0.1416 0.35435,0.21175 -0.0909,-0.058 0.0107,-0.18263 0.0172,-0.009 0.0711,-0.0282 0.0515,-0.0283 -1.11999,-0.006 -0.85962,-0.16507 -0.69205,0.6399 1.53929,-0.66733 2.48305,1.50955 0.94376,2.17689 v 0 c -0.008,1.02382 -0.23103,0.80835 -1.41511,0.64853 -0.22875,-0.051 -0.27533,-0.05 -0.50067,-0.15241 -0.0926,-0.0421 -0.76831,-0.46506 -0.27216,-0.15124 0.58974,0.27401 0.0696,0.0768 1.20714,0.14907 0.0349,0.002 -0.0653,0.0294 -0.10031,0.0312 -0.4681,0.0237 -0.93684,0.008 -1.40349,0.0533 -0.3984,-0.006 -0.80113,-0.003 -1.19286,-0.0858 1.49369,-0.0317 0.75281,-0.0781 0.42906,-0.001 -0.6708,0.13952 -1.37219,0.0595 -2.05325,0.0539 -0.34355,-0.0295 -0.0976,-0.007 -0.41805,-0.039 -0.053,-0.005 -0.21207,-0.0133 -0.1589,-0.0153 1.49037,-0.0555 0.85165,0.004 0.51714,-0.014 -0.67318,0.0132 -1.34334,0.0386 -2.01552,0.0654 -0.16497,5.3e-4 -0.84457,0.002 -0.46134,0.01 0.23699,0.005 0.94814,2.6e-4 0.71111,7.9e-4 -0.61104,10e-4 -1.22197,0.0181 -1.83156,-0.0294 -0.27661,-0.0203 -0.55364,-0.047 -0.83085,-0.0579 -0.0769,-0.003 -0.30776,-0.007 -0.23085,-0.004 0.71614,0.0285 1.03364,0.0214 0.54832,0.0274 -0.82735,0.11758 -1.64156,0.32803 -2.47908,0.36952 -0.97623,0.0498 -1.95429,0.0725 -2.93178,0.0395 -0.23501,-0.008 0.47028,-0.005 0.70542,-0.007 -0.52647,-0.002 -1.05126,0.0415 -1.57768,0.0438 -0.77945,-0.0336 -1.56021,1.6e-4 -2.33776,-0.0605 -0.18694,0.0168 -0.91959,0.0224 -0.5754,0.0885 0.23103,0.0444 0.47735,-0.0162 0.70432,0.0457 0.25955,0.0708 -1.19192,0.0331 -0.79954,0.11013 -1.2798,0.14097 -2.5621,0.25561 -3.85175,0.22092 -1.18291,-0.003 -2.36587,0.0335 -3.54101,0.18005 -1.86861,0.22549 -3.74183,0.4218 -5.62636,0.43603 -2.39724,0.0236 -4.79396,-0.02 -7.18857,-0.13556 -1.14288,-0.0214 -2.88236,0.028 -4.65344,0.2864 -3.32235,0.38692 -6.65404,0.63553 -10.00373,0.53919 -3.00213,-0.0229 -5.99527,-0.18987 -8.99359,-0.32277 -2.79749,-0.0442 -5.59571,0.0301 -8.392846,0.0751 -0.782259,0.13171 -0.05612,0.0207 -1.892885,0.0664 -2.403467,0.0598 -4.805762,0.17663 -7.204998,0.32885 -3.30522,0.18414 -6.615562,0.31717 -9.911376,0.63446 -2.481911,0.2645 -4.957691,0.58894 -7.449114,0.75647 -2.649915,0.28677 -5.309081,0.55343 -7.975203,0.61077 -1.755058,-0.0154 -3.511484,-0.002 -5.261197,-0.16291 -0.622657,-0.0575 -1.576922,-0.17056 -2.20322,-0.32954 -0.243194,-0.0617 -0.474189,-0.1642 -0.711282,-0.2463 -2.003705,-0.51447 -1.276143,-3.34813 0.727562,-2.83367 z"
       inkscape:connector-curvature="0" />
    <path
       style="fill:#5a2ca0;fill-opacity:1;stroke:none;stroke-width:0.26458332;stroke-opacity:1"
       id="path853"
       d="m 53.960439,380.16788 c 0.253717,-0.091 0.501441,-0.20087 0.761146,-0.27302 1.063646,-0.29553 2.184992,-0.3904 3.281754,-0.4578 1.194107,-0.0734 1.567489,0.1054 1.092345,-0.0992 2.302344,-0.0627 4.546516,-0.58573 6.797307,-1.02171 2.76474,-0.4982 5.596372,-0.62659 8.392742,-0.34762 2.003645,0.30458 4.017844,0.30758 6.03663,0.2262 0.421529,-0.0254 0.845937,-0.0208 1.264584,-0.0761 0.03167,-0.004 -0.07537,-0.0813 -0.04368,-0.0853 0.480359,-0.0613 0.966256,-0.0665 1.449721,-0.0942 1.540507,-0.0884 3.076384,-0.12237 4.61908,-0.13031 1.844458,0.0638 3.691686,0.0634 5.535967,0.12591 1.236495,0.0419 2.468361,0.19287 3.695295,0.3409 2.264624,0.33652 4.51057,0.78301 6.77997,1.08797 2.21413,0.30719 4.45163,0.35792 6.68335,0.3844 2.31468,-0.007 4.62649,-0.0717 6.91913,-0.0685 3.14594,0.005 6.29289,5.3e-4 9.43367,0.19714 2.1255,0.18304 4.25217,0.32306 6.3851,0.36778 2.03482,-0.0289 4.0679,-5.3e-4 6.09874,0.13091 1.7133,0.10267 3.38914,0.4721 5.07923,0.74091 0.4636,0.0629 0.66277,0.10384 1.12265,0.11466 0.17803,0.004 0.69174,0.0732 0.53416,-0.01 -0.17701,-0.0932 -0.68077,0.15811 -0.59965,-0.0248 0.0847,-0.19106 0.41756,-0.0206 0.62609,-0.0348 0.23258,-0.0159 0.46476,-0.0372 0.69714,-0.0558 1.8705,-0.13188 3.76132,-0.15831 5.63218,-0.0225 0.36281,0.0189 0.72315,0.067 1.08521,0.0946 0.15681,0.0119 0.6263,0.003 0.47099,0.0274 -0.23793,0.0378 -0.48186,0.004 -0.7226,0.0125 -0.2397,0.009 0.47978,-0.004 0.71943,-0.0143 0.79235,-0.0958 1.57128,-0.27022 2.36453,-0.36032 0.59832,-0.0735 1.19755,-0.11748 1.80015,-0.13268 0.54728,-0.0291 1.08954,-0.10756 1.63393,-0.1664 0.6988,-0.0832 1.39699,-0.17045 2.09734,-0.24123 0.74001,-0.0708 1.47792,0.0143 2.21701,0.0157 0.12105,2.4e-4 0.4838,8e-4 0.36306,-0.008 -0.48998,-0.0353 -1.1546,-0.004 -0.38499,-0.0318 0.6764,-0.0143 1.35476,-0.0274 2.02893,-0.0866 0.53543,-0.0349 1.07102,-0.12531 1.60833,-0.0898 0.36823,-0.003 0.26683,0.14381 0.60983,0.0612 0.74786,-0.26556 1.55253,-0.18061 2.33199,-0.13957 0.1552,0.0118 0.31028,0.025 0.46538,0.038 0.0369,0.003 0.14785,0.009 0.11078,0.01 -0.71281,0.0152 -1.14254,-0.011 -0.73764,0.0116 0.30523,-0.0207 0.61056,-0.0366 0.91608,-0.0517 0.38078,1.3e-4 0.76155,2.6e-4 1.14232,2.7e-4 0.0575,5.3e-4 0.11503,10e-4 0.17255,10e-4 0.15361,5.3e-4 0.57531,-0.002 0.33677,0.004 -0.8298,0.0203 -1.14304,-0.0263 -0.77827,0.0234 0.10298,0.0453 0.0575,0.13627 0.0234,0.20893 0.19155,-0.10855 0.0762,-0.0446 0.34771,-0.18865 2.26703,-1.23246 4.01,1.97359 1.74298,3.20606 v 0 c 0.22392,-0.12577 0.13897,-0.0723 0.2604,-0.15114 -0.32836,0.29643 -0.72986,0.48159 -1.15982,0.5812 -0.62338,0.096 -0.15996,0.0355 -1.40767,0.0592 -0.24905,0.005 -0.0866,0.003 -0.33851,0.002 -0.0562,-1.8e-4 -0.22478,1.6e-4 -0.16858,1.3e-4 0.26289,-9e-5 0.52578,-2.4e-4 0.78867,-2.6e-4 -0.29722,-0.0152 -0.59435,-0.03 -0.89193,-0.0365 -0.63583,0.0448 -1.27713,0.008 -1.91449,0.033 -0.37234,-0.008 -1.08303,0.0673 0.44953,-0.015 0.0379,-0.002 -0.075,-0.0161 -0.10906,-0.0328 -0.0502,-0.0247 -0.0459,-0.0417 -0.0555,-0.0846 -0.34209,0.0214 -0.64806,0.29898 -1.0043,0.28243 -0.43548,0.0602 -0.87817,0.0177 -1.31128,0.10982 -0.72923,0.12552 -1.44604,0.33087 -2.18723,0.38755 -0.8133,0.0562 -1.62666,0.05 -2.44061,0.006 -0.11904,-0.006 -0.23809,-0.013 -0.3572,-0.0179 -0.10653,-0.004 -0.42619,-0.004 -0.31972,-0.01 0.25478,-0.0135 0.51018,-0.009 0.76527,-0.0138 -0.55985,-0.0615 -1.10336,0.0221 -1.65098,0.14873 -0.6925,0.12283 -1.39657,0.22118 -2.10071,0.22265 -0.40825,0.002 -0.82841,-0.0472 -1.22629,0.0601 -0.83575,0.226 -1.66702,0.4764 -2.52339,0.61492 -1.41553,0.21584 -2.84543,0.10943 -4.26929,0.2352 -0.20991,0.0123 -0.45196,-0.0754 -0.62972,0.0369 -0.14997,0.0948 0.70331,-0.0193 0.53158,0.0251 -0.22993,0.0595 -0.47477,0.0162 -0.71222,0.0216 -0.75656,0.0174 -1.51367,0.0232 -2.27034,0.01 -1.78589,-0.0126 -3.57301,0.0282 -5.35591,-0.10387 -1.64433,-0.11471 -3.28833,-0.2463 -4.93649,-0.29267 -2.00152,-0.0518 -4.00271,-0.0261 -6.00458,-0.054 -2.16293,-0.0437 -4.32447,-0.16389 -6.48855,-0.13885 -2.25669,0.0126 -4.03815,0.0841 -6.45708,0.1309 -3.32595,0.0498 -6.6562,0.0435 -9.97169,-0.2597 -2.35024,-0.18131 -4.70132,-0.36537 -7.03643,-0.69633 -2.196789,-0.32338 -4.380832,-0.74047 -6.589775,-0.97077 -2.287294,-0.13532 -3.724275,-0.0431 -5.926047,0.10602 -3.437951,0.13412 -6.887271,0.16927 -10.322023,-0.0543 -2.005745,-0.17498 -3.993671,-0.51476 -6.005695,-0.59997 -0.285718,0.007 -0.572812,-0.008 -0.85716,0.021 -0.135369,0.0137 0.541835,0.003 0.407442,0.0247 -0.315827,0.0499 -0.638807,0.0332 -0.957233,0.0623 -1.154597,0.10554 -2.298531,0.30458 -3.443824,0.47873 -2.513066,0.36578 -5.03881,0.74206 -7.582281,0.77696 -1.997684,-0.003 -4.715627,0.11788 -6.668937,-0.51515 -0.21509,-0.0697 -0.413962,-0.18201 -0.620943,-0.27302 -2.287881,-0.58743 -1.457132,-3.82298 0.830747,-3.23555 z"
       inkscape:connector-curvature="0" />
    <path
       style="fill:#5a2ca0;fill-opacity:1;stroke:none;stroke-width:0.26458332;stroke-opacity:1"
       id="path855"
       d="m 156.81587,330.72029 c 1.66051,1.93541 2.53616,4.38656 3.30369,6.78097 0.75329,2.43803 1.0102,4.97397 1.13209,7.51003 0.0898,2.82856 0.0902,5.66083 -0.0674,8.4866 -0.16357,2.37313 -0.654,4.70345 -0.93451,7.06223 -0.15397,1.53383 0.007,3.07206 0.0353,4.60764 0.0446,1.8667 -0.25497,3.71391 -0.55658,5.54904 -0.29097,1.50336 -0.55395,3.01165 -0.86864,4.51032 -0.26633,1.37383 -0.50441,2.75258 -0.78991,4.1227 -0.23942,1.22025 -0.40226,2.45328 -0.69641,3.66233 -0.0818,0.31547 -0.15092,0.63938 -0.277,0.94164 -0.0698,0.16738 -0.0532,0.002 -0.097,0.18156 -0.0689,0.0517 0.0664,0.3034 -0.0384,0.31323 -1.20366,0.11296 -2.41523,0.1305 -3.62414,0.13978 -0.0375,2.6e-4 0.003,-0.0752 0.01,-0.11204 0.004,-0.0234 -5.3e-4,-0.0678 0.0232,-0.0674 1.18142,0.02 2.36164,0.0852 3.54246,0.12785 -0.0377,0.055 -0.0469,0.17178 -0.11323,0.1649 -1.15393,-0.11966 -2.31792,-0.2358 -3.43925,-0.53327 -0.11813,-0.0313 0.0533,-0.24074 0.10613,-0.35096 0.2527,-0.52738 0.34887,-0.45375 0.91476,-0.80373 0.0182,-0.9981 1.4297,-0.9724 1.41153,0.0257 v 0 c 0.60802,0.4013 0.59902,0.26918 0.88279,0.79777 0.0438,0.0816 0.19424,0.25568 0.10167,0.25861 -5.5232,0.17464 -2.25507,-0.34023 -3.50247,-0.1418 1.20085,-0.062 2.40125,-0.13342 3.60254,-0.18609 0.05,-0.002 0.14858,0.1055 0.0991,0.11291 -1.18075,0.17673 -2.37756,0.23922 -3.55495,0.43713 -0.0564,0.009 0.0395,0.18456 -0.0452,0.16549 -0.2649,-0.50526 -0.20306,-1.39152 -0.23302,-1.9427 0.052,-1.31541 0.2942,-2.61037 0.52214,-3.90478 0.24804,-1.39037 0.49222,-2.78152 0.76816,-4.16672 0.28531,-1.43434 0.4858,-2.87721 0.61507,-4.33443 0.22058,-1.66463 0.50914,-3.32164 0.63866,-4.99702 0.0606,-1.57428 -0.0613,-3.13797 -0.17662,-4.70778 -0.10131,-2.404 -0.01,-4.80856 0.15861,-7.20805 0.17177,-2.70219 0.38355,-5.40161 0.5437,-8.10436 0.002,-0.83726 0.0237,-1.22897 -0.056,-2.05346 -0.13655,-1.41283 -0.5723,-2.75997 -1.12091,-4.0633 -0.89026,-2.26304 -1.89256,-4.57793 -2.02178,-7.03528 -0.88053,-2.68834 2.92135,-3.93359 3.80188,-1.24525 z"
       inkscape:connector-curvature="0" />
    <path
       style="fill:#5a2ca0;fill-opacity:1;stroke:none;stroke-width:1.01047778;stroke-opacity:1"
       d="m 628.56285,60.942723 c -33.80537,5.303734 -67.07031,13.910262 -101.21553,16.449866 -27.28049,1.761115 -54.58861,3.405129 -81.66783,7.370381 -62.78685,8.516707 -126.49406,3.810241 -189.71649,5.866483 -11.61715,2.737448 -19.27228,13.036147 -28.92295,19.183287 -2.48314,0.1756 -5.36905,-2.01321 -7.46411,0.46182 -6.83306,-0.4888 -5.39904,8.4459 -6.26981,12.79054 0.21649,3.62185 -2.58435,11.56223 3.1693,11.87538 23.32072,-3.54044 47.36352,-1.91916 70.57087,-7.20203 21.15993,-4.46492 42.61528,-7.65842 64.25274,-7.36958 93.33836,-0.94373 186.68653,-0.54108 280.02683,-1.31973 4.09965,-2.7698 1.24218,-9.6288 1.70124,-14.1309 -1.6158,-13.912645 -3.54115,-27.880342 -2.17489,-41.919037 -0.21932,-1.365412 -0.98485,-1.909241 -2.28937,-2.05648 z"
       id="path859"
       inkscape:connector-curvature="0"
       transform="matrix(0.26458333,0,0,0.26458333,0,296.33334)" />
    <path
       style="fill:#5a2ca0;fill-opacity:1;stroke:none;stroke-width:1.01047778;stroke-opacity:1"
       d="m 613.92277,129.81112 c -6.00918,0.29853 -12.08626,0.1612 -18.04453,0.99864 -3.49613,3.49815 1.87923,8.26809 2.7468,12.04857 11.62698,24.94733 10.04917,52.75234 8.2007,79.61676 -3.62932,25.81984 -1.79144,52.06606 -8.15293,77.38772 -0.54118,6.42277 -3.86121,12.99087 -3.07679,19.35368 3.53911,2.84123 8.74476,-0.61486 12.88556,0.0928 10.42667,-1.03932 21.28444,-0.16398 31.56164,-2.36831 2.99495,-5.35671 1.11985,-12.44214 1.99925,-18.39385 0.9193,-36.92302 -1.48349,-73.8311 -4.18421,-110.6301 -2.65317,-17.12407 -4.73084,-34.30313 -4.65446,-51.73656 2.31175,-8.76901 -6.798,-6.84978 -12.31794,-6.57065 -2.32103,0.0671 -4.64206,0.13423 -6.96309,0.20134 z"
       id="path861"
       inkscape:connector-curvature="0"
       transform="matrix(0.26458333,0,0,0.26458333,0,296.33334)" />
    <path
       style="fill:#5a2ca0;fill-opacity:1;stroke:none;stroke-width:1.01047778;stroke-opacity:1"
       d="m 273.26941,325.81223 c -22.81764,1.86627 -45.75165,7.37698 -68.64341,3.19129 -6.05153,-4.24553 -6.90851,2.81829 -5.26947,7.31109 2.10781,11.54579 5.79589,23.35947 12.10006,33.13762 19.25315,-1.12321 38.16166,0.29761 57.01897,4.6182 28.66735,5.39719 58.17455,3.10926 86.92769,6.98043 37.5657,3.8953 75.4062,4.2459 113.12648,5.52398 56.89335,0.13986 113.7899,-0.67369 170.68656,-0.36683 4.42552,-3.6181 1.06714,-11.72774 2.32434,-17.10951 -0.1041,-13.01489 1.01763,-26.44595 -1.01981,-39.17726 -14.28609,0.49172 -28.95987,1.79471 -43.33409,3.32155 -23.43451,4.48067 -47.47502,2.09631 -71.21682,2.48218 -43.89239,-0.98839 -88.02728,-0.26875 -131.73329,-3.53805 -17.53279,-2.15087 -35.01317,-5.27148 -52.76588,-4.40009 -21.94416,0.45085 -43.80892,-0.11873 -65.65343,-1.99434 -0.84949,-0.009 -1.69865,-5.3e-4 -2.5479,0.0197 z"
       id="path863"
       inkscape:connector-curvature="0"
       transform="matrix(0.26458333,0,0,0.26458333,0,296.33334)" />
  </g>
  <g
     inkscape:groupmode="layer"
     id="layer2"
     inkscape:label="arm 2"
     sodipodi:insensitive="true">
    <path
       style="fill:#000000;fill-opacity:1;stroke:none;stroke-width:0.26458332;stroke-opacity:1"
       id="path841"
       d="m 58.488894,97.401289 c 2.986619,-0.483868 6.037548,0.01032 8.990642,0.506174 0.576503,0.105622 1.154078,0.205568 1.729513,0.316863 1.113951,0.215444 2.090078,0.443732 3.205511,0.637156 1.444647,0.250513 2.897336,0.415398 4.355873,0.55522 3.460461,0.159975 6.9244,0.158702 10.384684,0.329586 3.767563,0.21989 7.506044,0.749562 11.253607,1.171522 2.832606,0.27254 3.833316,0.34236 6.226486,0.35505 3.051,-0.009 6.09539,0.19962 9.14354,0.30163 1.2861,0.10416 2.58738,0.029 3.87289,0.13101 0.13725,0.0109 -0.54898,0.0185 -0.41187,0.0311 0.26797,0.0246 1.93477,0.0501 2.22498,0.0554 2.27087,0.0543 4.54169,0.10108 6.81298,0.13419 1.49406,0.13673 2.98854,0.18738 4.48797,0.16716 0.25494,-0.007 0.52678,0.0718 0.76481,-0.0197 0.20305,-0.0781 -0.8623,0.033 -0.65224,-0.0236 0.26561,-0.0716 0.54995,-0.0153 0.82493,-0.023 0.88043,-0.0245 1.76088,-0.0477 2.64128,-0.0731 2.69727,-0.13758 5.40017,-0.17716 8.10083,-0.17351 2.14934,0.0507 4.1595,0.0289 5.20944,0.0163 2.78711,-0.0292 5.57418,0.0173 8.36125,0.0321 2.11265,0.0524 4.22595,0.0337 6.3386,-0.004 1.09991,-0.0758 3.19429,-0.087 5.34981,0.002 2.11554,-0.0729 4.20059,0.19609 6.27162,0.58121 0.15763,0.0384 0.31758,0.0684 0.47291,0.11528 0.11285,0.0341 0.41859,0.14726 0.53357,0.24256 0.0331,0.0274 0.0841,0.0683 0.0694,0.10863 -1.67639,4.60725 -0.14149,4.55025 -1.92861,4.55833 -1.09613,-0.22649 -1.89268,-0.96488 -2.53359,-1.83792 -0.45775,-0.93129 -0.41092,-1.20156 0.17904,-2.03133 -0.75802,-1.30355 1.08547,-2.37556 1.8435,-1.07201 v 0 c 0.19971,-0.0324 0.39698,-0.0891 0.59914,-0.0971 0.48413,-0.019 0.87995,0.24652 1.30965,0.41905 0.11742,0.0662 0.27922,0.13398 0.2937,0.0959 0.0208,-0.0545 -0.16271,-0.0913 -0.067,-0.13757 1.78916,0.34262 0.14204,4.14031 -1.42187,4.71348 -0.14876,0.0545 -0.49997,0.10799 -0.63583,0.12126 -0.15031,0.0147 -0.30159,0.0166 -0.45238,0.0249 -0.87819,0.0213 -1.75276,0.0675 -2.62942,0.12318 -0.30007,0.019 -0.61314,-0.0341 -0.90034,0.0549 -0.17503,0.0542 0.36467,0.0364 0.547,0.0546 -2.81607,0.11952 -5.63492,0.0508 -8.45215,0.003 -2.1117,-0.0383 -4.22406,-0.0576 -6.33578,-0.007 0.15451,0.005 0.61796,0.007 0.46353,0.0139 -1.89875,0.0849 -3.80493,-5.3e-4 -5.70447,0.0247 -2.79007,-0.0288 -5.58002,-0.0236 -8.36999,0.006 -0.99879,-0.005 -1.31991,-0.002 -2.31693,-0.0236 -0.37506,-0.008 -0.75228,0.0111 -1.125,-0.0315 -0.15102,-0.0173 0.60407,-0.0226 0.45377,-0.0453 -0.0376,-0.006 -1.91232,-0.074 -1.98921,-0.0769 -2.2128,-0.0204 -4.42666,0.0167 -6.63873,-0.0506 -1.48385,-0.0704 -2.96535,-0.2155 -4.45217,-0.19793 0.23306,0.004 0.90667,-0.0934 0.69918,0.0129 -0.22666,0.11603 -0.50915,0.0113 -0.76363,0.0201 -1.1972,0.0416 -2.38985,0.15033 -3.5838,0.24318 -3.11414,0.22072 -6.24542,0.31368 -9.36088,0.0597 -2.0011,-0.21259 -3.98179,-0.47931 -5.99469,-0.542 -0.14976,-0.005 0.2996,0.006 0.44941,0.01 -3.31944,0.0868 -6.641097,0.24224 -9.962199,0.11764 -3.784495,-0.18791 -7.559638,-0.49752 -11.328898,-0.88682 -3.432442,-0.36474 -6.864863,-0.73374 -10.291656,-1.14823 -3.256487,-0.39241 -6.498087,-0.90581 -9.719876,-1.52184 -2.411241,-0.49175 -5.113756,-0.99797 -7.336618,-2.09264 -0.23662,-0.11652 -0.454943,-0.267 -0.682414,-0.4005 -2.79296,-1.11528 -1.215715,-5.065123 1.577245,-3.949844 z"
       inkscape:connector-curvature="0" />
    <path
       style="fill:#000000;fill-opacity:1;stroke:none;stroke-width:0.26458332;stroke-opacity:1"
       id="path843"
       d="m 169.56452,104.3545 c -0.0802,-0.28252 -0.18975,-0.55832 -0.2407,-0.84756 -0.2465,-1.39956 -0.12834,-2.8544 -0.0685,-4.262426 0.0668,-1.573012 0.0752,-1.707235 0.15041,-3.286297 0.12955,-3.474111 -0.0797,-6.946889 -0.0854,-10.421125 0.0289,-3.408101 0.19771,-6.812759 0.31292,-10.218521 0.13075,-2.866744 -0.0177,-5.730205 -0.22996,-8.588285 -0.25826,-2.631889 -0.34398,-5.274053 -0.43161,-7.915513 -0.0702,-2.622362 -0.21726,-5.241501 -0.38027,-7.859431 -0.10638,-2.112288 -0.57492,-4.176319 -0.95643,-6.248752 -0.44529,-2.170205 -0.52712,-4.378376 -0.45796,-6.585223 0.129,-1.738447 0.14336,-3.476688 0.10807,-5.218326 -0.0516,-1.365565 -0.11649,-2.730276 -0.17385,-4.095531 -0.041,-1.24664 -0.0439,-2.499926 -0.24583,-3.733179 -0.26817,-1.310393 -0.48534,-2.624854 -0.60461,-3.957153 -0.0803,-1.093766 0.0234,-2.186279 0.17055,-3.269201 0.0437,-0.397016 0.13933,-0.78703 0.18794,-1.183051 -0.038,-0.536925 0.009,-1.057185 0.10268,-1.586401 0.1378,-0.182309 0.0965,-0.567787 0.27211,-0.748908 0.009,-0.0096 -0.001,0.02691 -0.004,0.04003 -0.01,0.04715 -0.0398,0.160615 -0.0538,0.214107 -0.15474,-0.292072 -0.1108,-0.756232 -0.10029,-1.08211 0.0391,-0.749144 0.42502,-1.337831 0.6595,-2.067459 0.0383,-0.119036 -0.14204,0.207167 -0.19497,0.320438 -0.0786,0.1681 -0.13197,0.346852 -0.19795,0.520278 4.42048,3.644626 4.44508,2.883565 1.91496,3.656499 -1.62141,0.478733 -3.30235,0.696383 -4.97031,0.942721 -2.1871,0.305854 -4.35637,0.711241 -6.51368,1.180597 -2.71626,0.639265 -5.44798,1.201412 -8.2028,1.645516 -2.98211,0.445975 -5.97408,0.829824 -8.97241,1.149021 -2.59118,0.277213 -5.1941,0.38677 -7.79678,0.482342 -2.28198,0.07247 -4.5547,0.284666 -6.82511,0.514293 -2.72714,0.319577 -5.4542,0.643218 -8.1754,1.010354 -2.95202,0.473064 -5.92774,0.713498 -8.9088,0.902353 -2.39229,0.168168 -4.78054,0.38338 -7.17481,0.523236 -2.615493,0.145475 -5.236307,0.110213 -7.853862,0.05044 -0.296447,-0.0096 -0.635328,0.124263 -0.889338,-0.02887 -0.226738,-0.136694 0.755025,0.233147 0.793736,-0.02876 0.03833,-0.259288 -0.523949,-0.01658 -0.78595,-0.02392 -0.68004,-0.01904 -1.358633,-0.03077 -2.038905,-0.02778 -1.860312,0.09941 -3.719825,0.136684 -5.583545,0.1175 -1.304864,-0.03474 -2.609821,-0.05415 -3.91509,-0.06504 0.309918,-0.0024 0.619829,-0.0061 0.929754,-0.0073 0.195377,-7.67e-4 -0.390805,2.42e-4 -0.586099,0.006 -0.898346,0.02631 -1.796757,0.08252 -2.695004,0.116223 -1.797648,0.0792 -3.592237,-0.01299 -5.386152,-0.110191 -0.717063,-0.0413 -0.266599,-0.0135 -0.943536,-0.05935 -0.13462,-0.0091 -0.538403,-0.01626 -0.403894,-0.02688 0.354309,-0.02797 0.711057,-0.0058 1.065927,-0.02539 0.01357,-7.41e-4 -0.253532,-0.0097 -0.710031,-0.02512 -0.536149,-0.07741 -1.061455,-0.03436 -1.593104,0.0506 -0.655841,0.118908 -1.319186,0.138292 -1.98316,0.15157 -0.336085,0.0091 -0.67454,-0.06693 -1.008669,-0.03645 -0.08241,0.01007 -0.751771,0.263886 -0.780057,0.09108 0.128748,-0.186996 -0.179891,-0.05057 -0.262628,-0.01436 -0.41656,0.327714 -0.850887,0.63078 -1.285733,0.933807 -0.433795,0.318251 -0.903769,0.581442 -1.346332,0.886332 -0.150492,0.06858 -0.726675,0.586959 -0.865423,0.549401 -0.298228,0.299636 -0.569886,0.642565 -0.891836,0.931424 0.04363,-0.147593 -0.717973,0.635748 -0.63187,0.432194 -0.227214,0.194733 -0.402804,0.524282 -0.680479,0.653026 -0.21472,0.150349 0.0461,-0.04062 -0.286306,0.26099 -1.374291,1.24696 -1.016058,0.07391 -4.350893,-1.605052 -0.0021,-0.0011 0.03883,-0.201046 0.06796,-0.344631 4.172204,0.629127 5.143767,0.685864 2.876293,0.501293 -0.06507,0.75351 -1.130686,0.66149 -1.06562,-0.09202 v 0 c -2.158693,-0.860747 -1.280922,-0.400751 2.971615,-0.09064 0.344453,-1.303632 5.236162,1.273307 -3.960731,-1.72808 -0.104028,-0.03395 -0.164155,0.144898 -0.242273,0.221529 -0.02545,0.02497 -0.07182,0.118125 -0.06785,0.08269 0.005,-0.0444 0.04753,-0.07566 0.0713,-0.113498 0.225489,-0.303223 0.495956,-0.563185 0.795031,-0.794321 0.257699,-0.280233 0.536601,-0.541214 0.80782,-0.808117 0.09643,-0.06458 0.183843,-0.08507 0.272003,-0.127471 0.188388,-0.09062 0.244705,-0.34643 0.402862,-0.47076 0.311015,-0.373591 0.665377,-0.702566 1.038609,-1.013734 0.481846,-0.427698 0.967258,-0.852562 1.525055,-1.181157 0.405162,-0.259876 0.820658,-0.505961 1.2158,-0.778662 0.457513,-0.379598 0.927542,-0.752758 1.473629,-0.998525 0.05142,-0.02034 1.081225,-0.406302 0.963425,-0.184681 0.482142,-0.209785 0.976802,-0.394516 1.500539,-0.470622 0.595535,-0.0801 1.191115,-0.133998 1.792658,-0.106963 0.702543,-0.04624 1.375473,-0.294984 2.081374,-0.327869 1.325951,-0.05806 2.653577,-0.0418 3.978299,-0.13166 0.589878,-0.02033 1.179811,-0.0387 1.76971,-0.05844 0.218856,-0.0073 0.874109,0.003 0.656564,-0.02194 -0.06596,-0.0076 -1.97086,-0.0026 -0.199179,6.62e-4 1.835037,0.01732 3.667903,-0.04757 5.502849,-0.05652 1.322893,-0.0074 2.645802,0.0011 3.968684,0.005 0.21816,0.0013 0.872223,-0.0094 0.654476,0.0041 -0.299238,0.01852 -0.601154,-0.01989 -0.899364,0.01107 -0.20987,0.02178 0.421791,0.0142 0.632775,0.0166 0.106863,0.0012 1.117674,-0.0047 1.22287,-0.0093 0.205875,-0.0088 0.410988,-0.03061 0.616485,-0.04592 0.971523,-0.08868 1.946476,-0.232445 2.922053,-0.265616 0.835152,-0.0284 1.670952,-0.03271 2.506368,-0.05175 0.306912,-0.007 0.613733,-0.01757 0.920597,-0.02635 0.644035,-0.0087 1.288203,-0.0078 1.932178,-0.02026 0.231608,-0.0045 -0.92647,0.0098 -0.694955,0.0019 0.970174,-0.03339 1.943098,-0.0075 2.912295,-0.07912 2.298005,-0.184837 4.580805,-0.498512 6.860065,-0.842281 2.91266,-0.417607 5.83362,-0.748769 8.76559,-0.998399 2.82949,-0.298886 5.65387,-0.656871 8.49507,-0.831526 2.33159,-0.136899 4.66705,-0.186284 6.99824,-0.332671 2.44559,-0.207541 4.87955,-0.51455 7.30848,-0.866535 2.94654,-0.382761 5.90129,-0.695334 8.85201,-1.043876 2.69008,-0.333666 5.37303,-0.708608 8.02709,-1.269366 2.33136,-0.409584 4.66663,-0.801858 7.02665,-1.009401 1.71017,-0.166216 3.4245,-0.302798 5.14404,-0.303671 0.30815,7.9e-5 1.31455,-0.109874 1.55075,0.09549 1.22338,1.063703 2.45296,2.120265 3.67944,3.180397 -0.0728,0.193976 -0.12935,0.394796 -0.21823,0.581926 -0.70776,1.490081 0.27965,-1.638595 0.32231,-0.977683 0.0948,0.49681 0.0949,1.005938 0.0839,1.50997 -0.0362,0.42778 -0.0892,0.834854 -0.2169,1.246479 -0.0739,0.238087 -0.1336,0.338531 -0.13643,0.337222 -0.0348,-0.0161 0.003,-0.07653 0.005,-0.114802 0.01,-0.423739 -0.0472,0.01596 0.0139,0.22041 0.0738,0.586448 0.12173,1.175124 0.10133,1.767049 -0.0113,0.757437 -0.006,1.51476 0.14899,2.260628 0.22363,1.300926 0.53126,2.585745 0.72525,3.89187 0.16838,1.414243 0.23194,2.83611 0.24571,4.260195 0.0319,1.296493 0.139,2.585733 0.34679,3.867031 0.24777,1.933109 0.41865,3.882429 0.237,5.830901 -0.0809,1.754322 -0.15339,3.50907 0.3268,5.222414 0.55367,2.283635 1.16456,4.562568 1.42498,6.90394 0.29039,2.744956 0.42751,5.50029 0.40171,8.261376 -0.004,2.473693 0.0174,4.949454 0.4729,7.391704 0.41113,3.094096 0.64735,6.206366 0.5653,9.330632 -0.0238,3.365875 -0.15975,6.728439 -0.20187,10.094026 -0.007,3.629046 0.21518,7.261397 -0.0271,10.886596 -0.26178,2.611379 -0.59784,5.350841 -1.76501,7.743521 -0.13279,0.27222 -0.31121,0.5197 -0.46681,0.77955 -0.41915,3.51001 -5.38306,2.91724 -4.96391,-0.59277 z"
       inkscape:connector-curvature="0" />
    <path
       style="fill:#000000;fill-opacity:1;stroke:none;stroke-width:0.26458332;stroke-opacity:1"
       id="path845"
       d="m 56.040273,27.276763 c 0.364559,-1.905697 1.78334,-3.268028 3.287308,-4.366977 1.484881,-0.922607 2.414863,-0.905839 4.077388,-0.819504 0.315103,0.149046 0.236675,0.214521 0.086,0.513684 1.679683,0.588109 0.847973,2.963541 -0.831713,2.375433 v 0 c -0.0954,0.125955 -0.28363,0.285643 -0.256405,0.468088 0.280501,0.01517 0.561279,0.02591 0.841505,0.04552 0.06303,0.0044 -0.125355,0.01842 -0.186267,0.03523 -0.294325,0.08122 -0.575133,0.197006 -0.834763,0.360005 -1.175509,0.801355 -2.017175,1.965427 -3.169325,2.797642 -0.996394,2.131031 -4.010125,0.721916 -3.013731,-1.409113 z"
       inkscape:connector-curvature="0" />
  </g>
</svg>
