<?xml version="1.0" encoding="UTF-8" standalone="no"?>
<!-- Created with Inkscape (http://www.inkscape.org/) -->

<svg
   xmlns:dc="http://purl.org/dc/elements/1.1/"
   xmlns:cc="http://creativecommons.org/ns#"
   xmlns:rdf="http://www.w3.org/1999/02/22-rdf-syntax-ns#"
   xmlns:svg="http://www.w3.org/2000/svg"
   xmlns="http://www.w3.org/2000/svg"
   xmlns:sodipodi="http://sodipodi.sourceforge.net/DTD/sodipodi-0.dtd"
   xmlns:inkscape="http://www.inkscape.org/namespaces/inkscape"
   width="1024"
   height="512"
   viewBox="0 0 270.93334 135.46667"
   version="1.1"
   id="svg8"
   inkscape:version="0.92.4 (5da689c313, 2019-01-14)"
   sodipodi:docname="band.svg"
   inkscape:export-filename="C:\Users\panu-\PycharmProjects\nextgame\data\images\red_band.png"
   inkscape:export-xdpi="10.173375"
   inkscape:export-ydpi="10.173375">
  <defs
     id="defs2" />
  <sodipodi:namedview
     id="base"
     pagecolor="#ffffff"
     bordercolor="#666666"
     borderopacity="1.0"
     inkscape:pageopacity="0.0"
     inkscape:pageshadow="2"
     inkscape:zoom="0.34988737"
     inkscape:cx="721.07003"
     inkscape:cy="181.2886"
     inkscape:document-units="mm"
     inkscape:current-layer="layer2"
     showgrid="false"
     units="px"
     width="1024px"
     inkscape:window-width="1920"
     inkscape:window-height="1017"
     inkscape:window-x="-8"
     inkscape:window-y="-8"
     inkscape:window-maximized="1"
     inkscape:pagecheckerboard="true"
     showguides="false" />
  <metadata
     id="metadata5">
    <rdf:RDF>
      <cc:Work
         rdf:about="">
        <dc:format>image/svg+xml</dc:format>
        <dc:type
           rdf:resource="http://purl.org/dc/dcmitype/StillImage" />
        <dc:title />
      </cc:Work>
    </rdf:RDF>
  </metadata>
  <g
     inkscape:groupmode="layer"
     id="layer3"
     inkscape:label="red"
     sodipodi:insensitive="true"
     style="display:none">
    <path
       style="fill:#0066ff;fill-opacity:1;stroke:none;stroke-width:1.42903125;stroke-opacity:1"
       d="m 627.60597,68.608561 c -9.67759,2.42311 -14.20569,13.608864 -22.29233,18.186656 -4.9565,-1.05366 -6.55953,7.963859 -11.12803,3.91309 -6.33008,0.890618 -1.43606,-8.465878 -7.16747,-10.23767 -17.03031,-8.442156 -36.85604,-4.550508 -55.12099,-4.429439 -15.26589,1.108399 -26.22806,12.982649 -33.26963,25.555102 -2.98047,3.23944 -5.2279,10.58651 -10.39955,6.89675 -8.46105,-0.26436 -1.08636,-12.619191 -6.80745,-16.151964 -12.41683,-4.995207 -26.6429,-1.934999 -39.74493,-2.637567 -13.01166,-1.131693 -24.7543,5.245231 -33.83434,14.071731 -8.67771,9.83067 -22.22712,9.22209 -34.17024,8.83743 -8.71818,-2.39053 -17.94417,2.42974 -11.45179,11.92906 2.79433,18.51345 4.02866,37.38656 2.08773,56.00575 -2.1218,1.69697 -4.97606,7.21556 -8.04947,3.98007 -3.74967,-17.73261 -1.78524,-36.3404 -1.44577,-54.38692 -0.84599,-6.95046 9.0297,-16.4347 -0.73474,-19.92338 -15.09452,-6.09594 -26.71077,-18.464772 -42.80327,-22.417255 -5.4306,-2.976143 -11.7291,0.410259 -10.9079,6.903592 -13.79803,56.965133 -9.83022,116.087983 -7.41464,174.066233 2.32816,23.11637 8.56839,45.84592 9.44372,69.05038 0.54355,13.13085 0.35005,27.61817 3.35807,39.67961 -7.02171,5.9663 3.86482,14.24861 6.1627,20.20181 6.10929,5.77309 14.83512,-0.69512 21.9521,-0.31194 10.82564,-0.24665 18.61314,-8.72501 21.69755,-18.50828 6.25827,-12.04721 7.80341,-25.58871 11.74206,-38.32987 1.40022,-7.32017 13.40645,-5.71631 12.20817,1.89235 1.49866,12.11788 -2.79013,23.69716 -6.40832,34.92196 2.75206,8.62877 14.6383,7.46026 21.76203,10.20697 15.14636,4.11436 31.51766,-2.29698 42.96583,-12.13002 5.27527,-9.42733 4.69648,-22.04712 9.49804,-30.9977 6.58988,0.96082 -0.7631,4.50869 2.25799,8.12761 2.35697,4.77671 11.16043,0.86941 8.48766,7.48567 0.49488,6.89154 -3.445,13.09946 -3.44977,19.71058 9.83865,5.60322 21.36426,8.93329 30.79952,15.78354 9.53453,7.35319 21.96343,2.31687 32.91681,2.59941 26.54176,-1.9452 41.84412,-30.0756 68.42451,-32.52361 12.47448,-2.16323 25.88527,-5.1599 38.26834,-2.52764 3.9576,5.01332 11.32636,12.82215 18.0327,9.13821 3.82746,-8.20218 0.42857,-18.46589 0.89019,-27.3956 -1.50959,-26.53324 -6.59219,-52.62895 -1.87878,-79.10552 3.87554,-27.78904 1.39208,-56.60965 2.09628,-84.7883 -0.64364,-30.49759 0.64648,-61.20486 -2.01712,-91.572487 -3.0048,-7.369849 -5.56415,-17.30838 -13.44183,-20.723745 l -0.73685,-0.05303 z m -31.89364,81.731099 c 2.33646,20.6574 -3.56897,41.2585 -2.85213,62.01123 -0.0255,30.20007 -1.61562,60.4881 0.2062,90.64114 1.12652,3.45528 2.08814,11.89875 -3.95496,8.85608 -11.58474,-9.81451 -8.52998,-27.04012 -9.48408,-40.58784 1.09651,-33.71446 1.26452,-67.55245 6.5032,-100.98395 1.44934,-7.2833 4.84495,-14.39598 9.58177,-19.93666 z"
       id="path873"
       inkscape:connector-curvature="0"
       transform="scale(0.26458333)" />
  </g>
  <g
     inkscape:groupmode="layer"
     id="layer1"
     inkscape:label="blue">
    <path
       style="fill:#ff1e0a;fill-opacity:1;stroke:none;stroke-width:1.01047778;stroke-opacity:1"
       d="m 627.62145,68.674314 c -8.32115,1.893729 -13.17788,10.236365 -18.96027,15.893315 -1.4669,2.900225 -6.00369,-2.796381 -7.83515,1.780177 -1.09033,1.937331 -2.83799,6.512791 -5.10963,3.169585 -4.38873,-0.177993 -5.75266,-1.028873 -5.36816,-6.179308 -2.74863,-5.257529 -10.00155,-5.561678 -15.22229,-7.472009 -15.78702,-1.607883 -31.81657,-0.38547 -47.62723,-0.188743 -8.75179,3.506325 -18.33834,7.378577 -22.87243,16.326684 -4.43551,5.525072 -7.03205,12.720645 -11.97071,17.642015 -4.941,0.60468 -11.19239,-3.85208 -8.78608,-9.3803 2.36225,-6.243708 -2.61077,-10.244036 -8.47889,-10.458221 -9.5132,-2.683506 -19.54666,0.809002 -29.0817,-0.578225 -8.15971,0.09707 -17.2411,-2.718281 -23.92694,3.530715 -9.4438,5.306917 -16.72294,13.946711 -26.42832,18.695811 -10.93643,1.85686 -22.10801,0.76514 -32.95393,2.56138 -5.79849,3.77389 0.72908,11.30287 0.20418,16.91203 1.61477,16.71674 2.92496,33.95218 0.77168,50.48046 -3.1413,-0.60034 -3.5948,3.93008 -5.43132,4.03994 -5.15896,-2.14887 -3.62592,-9.74411 -4.7739,-14.17337 -0.59511,-17.20059 -1.10803,-34.95471 3.74171,-51.70899 4.9921,-5.38098 -3.12631,-9.41209 -7.23084,-11.36588 -8.59845,-3.72528 -16.04209,-9.338851 -23.57294,-14.730889 -6.90643,-2.504599 -13.65902,-6.339791 -21.03452,-7.039793 -6.26175,1.863412 -4.88194,10.363884 -6.89683,15.368022 -11.90935,49.31906 -8.05143,100.39505 -7.22838,150.60579 -0.0231,25.32071 8.05956,49.51973 9.72732,74.65635 2.11428,16.30326 0.57703,33.01206 4.07028,49.1263 -6.47507,3.74691 -0.15711,11.0713 2.28226,15.43055 2.76698,4.4788 6.43933,11.94422 12.91174,8.56079 10.05145,-3.95545 24.01208,-0.61738 30.4492,-11.38602 6.56932,-11.69313 11.21332,-24.62404 14.03419,-37.7232 0.2282,-5.39051 1.2297,-13.1168 7.0615,-15.13348 5.63559,-0.97729 8.90409,5.48185 7.35557,10.34754 0.6178,11.1138 -3.05793,21.61617 -7.55095,31.58729 -0.86536,7.50095 8.58768,5.32839 13.32765,7.35162 10.01539,2.71698 20.87421,7.21386 31.00633,2.2323 9.1455,-3.82481 22.13448,-6.61507 24.50087,-17.92628 3.02883,-7.82084 2.25759,-16.78902 6.10628,-24.19621 6.55978,-1.27933 -0.59582,4.03008 1.8735,7.24958 1.9496,3.0058 7.2659,3.2889 9.25952,4.45973 -0.10311,6.72749 -1.12321,12.96534 -3.26037,19.41617 1.02863,7.82296 11.02189,7.54431 16.39154,11.12897 8.68735,3.33064 15.54881,11.96934 25.27093,12.11597 12.66843,-2.10819 27.35924,1.94745 38.93849,-6.03845 16.67103,-8.75032 29.92181,-24.21023 49.23556,-27.43955 12.65605,-2.17765 26.09516,-6.01694 39.08102,-3.49917 3.64113,2.64118 5.79415,7.17576 10.29227,9.01733 3.67821,3.29785 11.01248,2.87145 11.22577,-3.10051 0.41087,-18.32961 -2.12667,-36.68531 -3.64108,-54.95752 -4.73598,-28.55433 4.51761,-56.91947 3.25774,-85.52648 -0.36195,-43.63771 0.34343,-87.31575 -1.37236,-130.924925 -0.42986,-9.94444 -4.69631,-19.83138 -11.33709,-27.135933 -1.26031,-0.954436 -2.8378,-1.496483 -4.42479,-1.422958 z m -31.77479,81.874356 c 2.4421,21.44675 -5.45996,42.70209 -3.77152,64.23638 2.0133,22.85995 0.26097,45.46184 -0.0567,68.37492 -0.20092,9.54898 1.42658,19.71323 1.07309,28.82041 -7.4281,0.88355 -10.38939,-8.66892 -11.92837,-14.47628 -2.56527,-29.21684 -0.30712,-59.17384 0.95324,-88.65364 1.80811,-19.43149 0.35198,-41.24883 12.90728,-57.61301 0.21378,-0.12492 0.63451,-0.79102 0.82298,-0.68878 z"
       id="path838"
       inkscape:connector-curvature="0"
       transform="scale(0.26458333)" />
  </g>
  <g
     inkscape:groupmode="layer"
     id="layer2"
     inkscape:label="lines"
     sodipodi:insensitive="true"
     style="display:inline">
    <path
       style="fill:#000000;fill-opacity:1;stroke:none;stroke-width:0.26458332;stroke-opacity:1"
       id="path837"
       d="m 80.469445,23.975275 c -0.02355,0.317232 -0.02635,0.636687 -0.07062,0.951696 -0.115031,0.818572 -0.379527,1.808222 -0.563941,2.601726 -0.353462,1.520891 -0.656953,3.04279 -0.92687,4.580527 -0.495223,3.225274 -0.793634,6.481765 -1.045324,9.734791 -0.283771,3.401856 -0.209113,6.816246 -0.146187,10.224788 0.125322,3.496347 0.289507,6.990408 0.344064,10.489031 -0.03386,2.904522 -0.117986,5.807308 0.13675,8.703847 0.212415,1.99998 0.770459,3.936254 1.155224,5.904283 0.327157,1.721916 0.505745,3.466372 0.737047,5.202541 0.175289,1.479606 0.427159,2.946429 0.675671,4.414798 0.29459,1.547678 0.33999,3.122115 0.372528,4.692147 0.0038,1.309161 -0.03655,2.617695 -0.07367,3.926142 -0.0502,0.703641 -0.05376,1.386708 0.14709,2.062842 0.223983,0.719214 0.430954,1.446205 0.618392,2.17618 0.237832,0.961796 0.158949,0.743866 -0.44873,-0.190791 -0.04758,-0.05227 -0.187328,-0.211654 -0.142719,-0.156827 0.400783,0.492591 0.739434,0.918634 0.89394,1.537924 0.213069,0.78274 -0.183174,-0.46445 -0.323406,-0.44642 -4.415462,0.56744 -4.062005,0.44247 -2.227842,1.42656 0.465609,0.13664 0.272375,0.79511 -0.193233,0.65847 v 0 c 1.389703,1.36973 1.288084,0.94366 -3.141057,1.62914 -0.170137,0.0263 -0.562255,-1.25032 -0.4803,-0.72833 -0.06203,-0.0106 -0.131009,-0.20016 -0.129617,-0.13725 0.0057,0.25902 0.901808,1.24866 0.274648,0.58843 -0.493107,-0.7157 -1.006853,-1.41982 -1.302882,-2.24348 -0.262652,-0.69138 -0.471731,-1.40159 -0.780452,-2.075581 -0.471789,-1.369745 -0.716812,-2.785515 -0.648153,-4.239379 0.01619,-1.179846 0.07167,-2.360824 0.01527,-3.54017 -0.07281,-1.2758 -0.205412,-2.54889 -0.419825,-3.809008 -0.260803,-1.546971 -0.542645,-3.090378 -0.767826,-4.64312 -0.195546,-1.469721 -0.287253,-2.963201 -0.693399,-4.395827 -0.727753,-2.224611 -1.473004,-4.456139 -1.85252,-6.772513 -0.429488,-3.162702 -0.50468,-6.334985 -0.430038,-9.524762 0.03742,-3.460295 0.05279,-6.920944 -0.04957,-10.380416 -0.06205,-3.734155 0.05164,-7.46978 0.644255,-11.165298 0.540121,-3.45224 1.078796,-6.907479 1.884582,-10.310174 0.829525,-3.098972 1.686621,-6.376527 3.874701,-8.823134 1.46839,-3.594949 6.552417,-1.518332 5.084027,2.076617 z"
       inkscape:connector-curvature="0" />
    <path
       style="fill:#000000;fill-opacity:1;stroke:none;stroke-width:0.26458332;stroke-opacity:1"
       id="path841"
       d="m 80.19472,99.970806 c 1.225966,1.653844 2.006333,3.578904 3.323037,5.166944 -0.520932,0.3905 1.280705,0.29319 0.947928,0.18957 -0.299283,-0.0932 -0.627874,-0.0403 -0.934386,-0.10591 -0.106045,-0.0227 0.217654,-0.006 0.324416,-0.0247 0.142391,-0.0254 0.280141,-0.0722 0.420211,-0.10826 1.352918,-0.49699 2.743801,-0.80412 4.182536,-0.87966 0.880309,-0.0178 1.742861,-0.0492 2.499974,-0.53367 0.700585,-0.43452 1.150742,-1.09718 1.568212,-1.78685 0.488074,-0.77012 0.733801,-1.64874 1.028078,-2.502065 0.303879,-0.819497 0.620244,-1.634136 0.956382,-2.440943 0.301206,-0.644194 0.530846,-1.311574 0.70282,-2.000144 0.160459,-0.711555 0.315563,-1.42362 0.539054,-2.118603 0.15139,-0.861518 0.303633,0.592637 0.227328,0.476948 -0.150514,-0.617101 -0.155514,-1.275744 -0.16291,-1.912014 -0.0046,-0.494628 0.114359,-0.932196 0.40427,-1.327184 0.801646,-3.541795 5.8105,-2.408095 5.00885,1.133699 v 0 c 0.36549,-0.276497 0.15701,0.362734 0.18772,0.5465 -0.0686,0.509072 -0.14788,1.380575 -0.30798,0.210349 0.0709,0.572254 0.20314,1.141717 0.17016,1.724644 -0.022,0.894318 -0.21304,1.777124 -0.43554,2.640335 -0.27078,0.853332 -0.64992,1.645338 -1.040397,2.447243 -0.271208,0.65175 -0.439224,1.340885 -0.632465,2.018415 -0.332991,1.31176 -0.708898,2.62625 -1.401866,3.80063 -0.891172,1.3729 -2.028729,2.51819 -3.493127,3.28386 -1.354148,0.674 -2.737037,1.28951 -4.272002,1.38954 -1.202893,0.0681 -2.419667,-0.20189 -3.596854,0.14822 -0.296601,0.0737 -1.37454,0.35466 -1.641012,0.3625 -2.35376,0.0693 -3.647548,-0.25013 -5.315381,-1.89039 -0.295622,-0.34119 -0.622766,-0.65743 -0.88686,-1.02357 -1.292526,-1.79193 -1.962451,-4.01069 -1.799942,-6.21011 -0.477546,-2.425193 2.952197,-3.100549 3.429746,-0.675352 z"
       inkscape:connector-curvature="0" />
    <path
       style="fill:#000000;fill-opacity:1;stroke:none;stroke-width:0.26458332;stroke-opacity:1"
       id="path843"
       d="m 99.184747,100.54865 c 2.052903,-0.007 3.985513,0.77688 5.926453,1.34855 0.65112,0.18032 1.31011,0.32853 1.98405,0.38851 0.18043,0.0161 0.72379,0.0288 0.54265,0.0288 -0.21151,1.1e-4 -0.43432,0.0413 -0.63387,-0.0288 -0.15869,-0.0557 0.3362,-0.0111 0.5043,-0.0167 1.0919,-0.12527 2.14833,-0.43065 3.14835,-0.88005 1.18495,-0.54167 2.41766,-0.98732 3.58501,-1.566031 0.48257,-0.215615 0.82546,-0.556096 1.06418,-1.019136 0.30433,-0.772953 0.55482,-1.570556 0.7871,-2.368444 0.15839,-0.574855 0.3105,-1.150916 0.40856,-1.739397 0.0407,-0.684887 0.0815,-1.35118 0.30854,-2.004499 0.19288,-0.504071 -0.0951,0.421494 -0.10013,0.430135 -0.10059,-0.687869 0.13266,-1.375066 0.42571,-1.983687 0.0427,-0.06542 0.0854,-0.130841 0.12805,-0.196262 0.0133,-0.01215 0.0464,-0.05318 0.0397,-0.03646 -0.24512,0.620024 -0.36661,1.091864 -0.26884,1.761985 0.35976,1.075838 0.0307,0.28853 0.34893,-1.424491 0.0426,-0.229142 0.33546,-0.64853 0.49114,-0.822108 0.11411,-0.127238 0.21482,-0.420761 0.37177,-0.35311 1.03269,0.445103 1.9207,1.170088 2.88105,1.755132 -0.34682,0.08586 -0.69363,0.171717 -1.04045,0.257575 0.0516,0.445444 -0.57838,0.518377 -0.62995,0.07293 v 0 c -0.35697,0.0123 -0.71395,0.02461 -1.07092,0.03689 0.94154,0.46746 1.83357,1.051917 2.82462,1.402381 0.13078,0.04625 0.19897,-0.194305 0.28589,-0.302416 0.10236,-0.12732 0.27526,-0.423807 0.29708,-0.586631 0.22262,-1.66151 -0.0642,-2.268768 0.3079,-1.216274 0.0946,0.572574 0.10238,1.054523 -0.0865,1.617054 -0.052,0.154905 -0.13756,0.29645 -0.20589,0.444886 -0.007,0.01453 -0.0282,0.05725 -0.0191,0.04402 0.0194,-0.02854 0.0338,-0.06023 0.0507,-0.09035 0.0952,-0.228574 0.17102,-0.374311 0.20117,-0.621805 0.006,-0.05143 -0.002,-0.206905 -0.006,-0.155298 -0.005,0.06034 0.001,0.121132 0.002,0.181698 -0.0104,0.545015 -0.0775,1.050179 -0.27541,1.561523 -0.006,0.01545 0.0123,-0.03074 0.0185,-0.04611 0.0712,-0.246044 0.0463,-0.525023 0.11662,-0.759753 0.0742,-0.247613 0.0953,0.834646 0.17763,0.592957 0.19763,1.276303 0.11428,2.544874 -0.32148,3.770384 -0.42946,1.153891 -0.95218,2.273342 -1.59978,3.322172 -0.69407,0.97431 -1.47201,1.86803 -2.46863,2.55019 -1.34243,0.88814 -2.7689,1.62568 -4.30134,2.13484 -1.49332,0.41609 -2.97182,0.73227 -4.53417,0.65432 -2.00401,0.13053 -4.01162,-0.002 -5.96743,-0.46558 -1.97889,-0.50715 -4.056773,-1.05401 -5.633912,-2.41959 -2.300917,-1.36929 -0.364445,-4.623284 1.936472,-3.25399 z"
       inkscape:connector-curvature="0" />
    <path
       style="fill:#000000;fill-opacity:1;stroke:none;stroke-width:0.26458332;stroke-opacity:1"
       id="path847"
       d="m 122.40123,100.75568 c 2.51291,0.51707 4.65351,2.04234 6.77026,3.41716 0.5733,0.31791 1.1306,0.79448 1.79776,0.91808 0.10268,0.019 0.41743,0.007 0.31327,-5.3e-4 -0.9097,-0.0637 -1.49254,-0.0399 -0.68086,-0.0604 1.37242,-0.2907 2.75388,-0.44467 4.15334,-0.50884 1.34371,-0.11005 2.67504,0.13961 4.01589,0.10073 0.18142,-0.005 0.72362,-0.009 0.54358,-0.0315 -0.32196,-0.041 -0.64894,-0.0155 -0.97342,-0.0233 1.27537,-0.18104 2.41383,-0.88067 3.4986,-1.53582 1.23526,-0.72003 2.41863,-1.52254 3.59841,-2.32862 0.85945,-0.58272 1.64428,-1.264329 2.46742,-1.895698 1.23538,-0.935464 2.62125,-1.613697 4.05079,-2.192999 1.19402,-0.450824 2.45344,-0.692473 3.71426,-0.865032 0.85858,-0.13757 1.70397,-0.341741 2.55373,-0.524033 0.81968,-0.140764 1.65009,-0.217678 2.4814,-0.240279 1.13181,-0.171659 2.25107,-0.319826 3.39894,-0.09171 0.57353,0.106423 1.82078,0.0296 -0.75283,0.07386 -0.0542,0.02977 -0.10833,0.05955 -0.1625,0.08932 3.47698,-1.288251 5.29884,3.628948 1.82186,4.917197 v 0 c -0.0801,0.03298 -0.1602,0.06597 -0.2403,0.09896 -0.83488,0.0149 -1.64499,0.0614 -2.46815,-0.0537 -0.50272,0.0909 -0.40442,0.0669 1.2196,0.0394 0.0743,-0.001 -0.14816,-0.0542 -0.22001,-0.0353 -0.0866,0.0227 -0.17023,0.0554 -0.25535,0.0832 -0.90113,0.31714 -1.83052,0.5339 -2.78781,0.57934 -0.74525,0.0173 -1.49037,0.0639 -2.21262,0.26352 -0.95907,0.29393 -1.89109,0.65565 -2.84487,0.96648 -1.17194,0.38475 -2.3401,0.78995 -3.44871,1.33596 -0.69206,0.29894 -1.30256,0.5878 -1.72118,1.24664 -1.176,1.44621 -2.52632,2.72037 -4.18527,3.60525 -1.82567,0.90764 -3.70057,1.76271 -5.74603,2.0183 -1.26991,0.0344 -2.33461,0.05 -3.55797,-0.0267 -0.19874,-0.0125 -0.39776,-0.0207 -0.59682,-0.026 -0.19569,-0.005 -0.78301,-0.002 -0.58727,-0.006 0.2768,-0.005 0.55369,0.001 0.83053,0.002 -1.2632,-0.0661 -2.53415,-0.059 -3.78564,0.14787 -2.49984,0.33332 -4.8857,-0.1133 -7.1685,-1.13969 -2.29082,-1.09918 -4.68668,-2.37337 -6.18051,-4.49616 -2.70165,-2.36667 0.64533,-6.18741 3.34698,-3.82069 z"
       inkscape:connector-curvature="0" />
    <path
       style="fill:#000000;fill-opacity:1;stroke:none;stroke-width:0.26458332;stroke-opacity:1"
       id="path850"
       d="m 167.13893,96.984858 c 1.50714,0.700257 2.7897,1.795394 4.03361,2.881056 -1.90485,-0.0083 -1.77303,-0.48624 -2.99014,0.555056 -0.15138,0.12952 -0.4416,0.65067 -0.38024,0.46113 0.0452,-0.13951 0.10381,-0.27429 0.15571,-0.41144 0.35455,-0.809864 1.01169,-1.422612 1.49785,-2.147679 0.36245,-0.617813 0.48497,-1.30505 0.49982,-2.010971 -0.0769,-1.265693 -0.28577,-2.518225 -0.42481,-3.777941 -0.21431,-1.928622 -0.12287,-3.870473 -0.17207,-5.80609 -0.15534,-1.822138 -0.57119,-3.606025 -0.80347,-5.417492 -0.23746,-1.962322 -0.13857,-3.941974 -0.0619,-5.910736 -0.004,-2.00474 0.41243,-3.968906 0.67821,-5.946032 0.17793,-1.538811 0.44577,-3.06402 0.63417,-4.601273 0.15321,-1.264431 -0.0131,-2.529874 -0.12431,-3.78963 -0.17701,-1.762643 -0.12918,-3.534597 -0.0775,-5.301842 0.0995,-1.408629 0.0967,-2.819186 0.0549,-4.229592 -0.11113,-1.820871 -0.1904,-3.642598 -0.21086,-5.466855 0.0145,-1.717969 0.1,-3.433953 0.15479,-5.150798 0.0508,-1.411591 0.02,-2.821154 -0.0861,-4.22901 -0.15198,-1.731237 -0.14285,-3.467827 -0.0951,-5.203039 0.06,-1.440786 0.13214,-2.883005 0.11625,-4.325381 -0.0412,-1.040622 -0.21203,-2.06999 -0.34011,-3.102192 -0.1398,-0.288317 0.0547,-0.893668 -0.24714,-1.096734 -0.29332,-0.454653 -0.57228,-0.914555 -0.85174,-1.377872 -0.2823,-0.503512 -0.4079,-1.093317 -0.72082,-1.580282 -0.13443,-0.366704 -0.48133,-0.66478 -0.57495,-1.04557 0.10756,0.28364 0.47261,0.351597 0.0436,0.225021 -0.33112,-0.03201 -0.62487,-0.223146 -0.96318,-0.207184 -0.62888,-0.01533 -2.44694,0.05541 0.29724,-0.003 -0.74675,0.0079 -0.0465,-0.610162 -0.56092,-0.111372 -0.64668,0.728765 -1.32882,1.419435 -2.03833,2.086228 -0.55259,0.506822 -1.14129,0.97743 -1.59507,1.577705 -0.483,0.646323 -0.87455,1.381322 -1.49093,1.914993 -0.0528,-0.01031 -0.18408,-0.01871 -0.20654,-0.09411 -0.0351,-0.117848 -0.31389,-2.166659 -0.63969,-1.356789 0.0177,1.077935 -0.13328,1.11369 -0.98725,1.706738 -0.0844,0.927806 -1.39656,0.80839 -1.31212,-0.119417 v 0 c -0.68284,-0.153931 -0.83324,-0.312509 -1.0594,0.404802 -0.93273,0.174846 -0.95027,-2.254684 -0.75097,-2.900343 0.37418,-0.967184 0.9776,-1.800573 1.59864,-2.625752 0.55138,-0.676218 1.17273,-1.279326 1.76773,-1.912018 0.56759,-0.76134 0.96965,-1.634465 1.57488,-2.370664 1.04725,-1.180058 2.2848,-2.237574 3.9017,-2.478597 1.63746,-0.04195 3.23809,-0.194973 4.77893,0.453413 0.60135,0.267344 1.19924,0.54371 1.75973,0.890452 0.65109,0.40344 1.28366,0.820317 1.73793,1.459669 0.49986,0.58175 0.88151,1.2358 1.16121,1.950768 0.0761,0.180617 0.19006,0.580748 0.33999,0.73406 0.0199,0.02041 -0.03,-0.170451 0.0654,-0.05534 0.40688,0.521802 0.77246,1.067366 1.1306,1.623244 0.54334,0.969685 0.95898,1.984681 1.19492,3.075255 0.37273,1.369119 0.68982,2.754159 0.72042,4.181058 0.0508,1.510273 0.0509,3.021459 0.0944,4.531929 0.0204,1.637106 0.0211,3.273909 -0.004,4.910994 -0.003,1.490078 0.0479,2.979844 0.0525,4.469974 0.0539,1.715506 0.13798,3.430162 0.15348,5.146733 -0.0192,1.82558 -0.0956,3.648816 -0.20418,5.471163 -0.0424,1.413846 -0.0542,2.828287 0.0349,4.241003 0.0445,1.73872 0.0968,3.480578 -0.0377,5.217089 -0.0896,1.370946 -0.20009,2.742393 -0.15515,4.117729 0.0333,1.85203 -0.0845,3.701783 -0.51539,5.509972 -0.39161,1.679863 -0.83712,3.358411 -0.93089,5.088852 -0.10092,1.616657 -0.2218,3.237503 -0.0339,4.853774 0.24105,2.005795 0.56023,4.006302 0.66165,6.025247 0.0427,1.889112 -0.0306,3.775766 -0.14675,5.661531 -0.0337,1.477248 0.17096,2.932176 0.17509,4.407688 -0.14487,1.802707 -0.61682,3.522033 -1.72397,4.988293 -0.29479,0.34841 -1.02063,1.30298 -1.54008,1.37307 -0.0589,0.008 -0.10813,-0.13017 -0.11905,-0.1526 -0.15559,-0.16666 -0.008,-0.0424 -0.24695,0.33489 -0.39922,0.6295 -0.99346,1.51914 -1.77848,1.70449 -1.4365,0.33915 -2.21065,0.0654 -3.40542,-0.24042 -2.05433,-0.80355 -3.9509,-2.11361 -4.9596,-4.1351 -2.50593,-3.179827 1.99103,-6.723746 4.49696,-3.543915 z"
       inkscape:connector-curvature="0" />
    <path
       style="fill:#000000;fill-opacity:1;stroke:none;stroke-width:0.26458332;stroke-opacity:1"
       id="path854"
       d="m 157.66204,22.428013 c -2.06086,-0.0233 -3.90037,-0.995927 -5.80617,-1.641382 -0.83393,-0.260181 -1.66966,-0.187868 -2.52077,-0.110055 -0.22679,0.02073 -0.62822,-0.167226 -0.68105,0.0543 -0.0508,0.213167 0.43681,0.03605 0.65521,0.05408 -2.00317,0.141477 -4.02059,0.189077 -6.02615,0.07142 -0.80292,-0.06218 -1.60539,-0.104818 -2.41035,-0.12422 -0.17363,-0.0042 -0.69444,-0.0099 -0.52083,-0.01432 0.30363,-0.0078 0.60744,0.0029 0.91116,0.0043 -0.90475,-0.08615 -1.71809,0.289953 -2.52956,0.634884 -0.96956,0.454328 -1.9531,0.882829 -2.88305,1.415536 -0.72632,0.482233 -1.10407,1.324702 -1.528,2.058321 -0.52299,0.819079 -1.06877,1.640734 -1.72585,2.360634 -0.18019,0.206642 -0.3482,0.38509 -0.42133,0.65197 -0.0773,0.230601 -0.39239,1.14889 -0.63725,1.219883 -0.14706,0.312692 -0.46515,0.429241 -0.64947,0.681699 -0.0303,0.003 -0.0665,-0.0092 -0.0908,0.009 -0.0842,0.06321 -0.13498,0.165081 -0.22131,0.225335 -0.12947,0.09036 -0.0883,-0.08559 -0.2218,-0.0053 -0.27386,0.164634 -0.11041,0.272629 -0.25769,0.142946 -0.0186,-0.07685 0.001,-0.175693 -0.0559,-0.230549 -0.16181,-0.155861 -1.06766,-0.237514 -1.23153,-0.25476 -0.0331,0.162431 -0.26277,0.115679 -0.22971,-0.04675 v 0 c -0.26936,-0.134765 -0.92808,-0.448685 -1.05085,-0.79257 -0.0376,-0.105407 8e-5,-0.223845 1.2e-4,-0.335766 0.0274,-0.32629 0.0349,-0.03009 -0.10597,-0.03382 -0.16162,-0.0043 0.0608,-0.220454 -0.0702,-0.233939 -0.0571,-0.0059 -0.0804,0.109812 -0.13751,0.103777 -0.0411,-0.0043 -0.0175,-0.08072 -0.0262,-0.121076 -0.21195,0.191646 -0.0146,-0.106733 -0.1236,-0.183142 -0.0201,-0.0141 -0.0496,0.06311 -0.061,0.04138 -0.1818,-0.343908 0.0731,-0.100967 -0.0405,-0.203485 0.0442,-0.292196 -0.0129,-0.49275 -0.0366,-0.773555 0.10437,-0.773657 0.29382,-1.537446 0.60446,-2.255491 0.39391,-0.912174 0.87656,-1.787915 1.3731,-2.647155 0.81011,-1.266989 1.60475,-2.558181 2.74248,-3.566574 1.14324,-0.953916 2.412,-1.700388 3.81117,-2.221434 1.40098,-0.566491 2.84725,-1.061373 4.36379,-1.185904 1.68862,6.08e-4 3.37681,-0.0039 5.06535,0.0043 0.1846,-6.35e-4 2.09418,-0.0029 2.11635,0.02214 0.15167,0.17139 -0.87002,-0.101006 -0.68572,0.03469 0.4262,0.313791 1.16082,-0.238195 1.58504,0.09302 0.72779,0.01747 1.45601,0.02184 2.18337,0.05241 1.4327,0.0602 2.84187,0.459041 4.2472,0.703265 2.16494,0.537713 4.38952,1.233999 5.82552,3.059019 2.32137,1.765992 -0.17612,5.048894 -2.49749,3.282902 z"
       inkscape:connector-curvature="0" />
    <path
       style="fill:#000000;fill-opacity:1;stroke:none;stroke-width:0.26458332;stroke-opacity:1"
       id="path856"
       d="m 128.38431,25.322361 c -1.63583,-0.115651 -3.11819,-0.889507 -4.73652,-1.125559 -0.137,-0.0079 -0.54773,-0.03504 -0.41099,-0.02357 1.27564,0.106942 1.19441,0.03793 0.63778,0.08927 -0.43621,0.04024 -0.8583,0.135255 -1.28475,0.231801 -1.51815,0.307981 -3.06784,0.114293 -4.58897,-0.03945 -0.83997,-0.04665 -1.68508,-0.02769 -2.52546,0.0104 2.52964,-2.3e-5 -0.54084,0.0099 -1.00554,8.2e-4 -0.46999,-0.07877 -0.83754,0.044 -1.25276,0.250375 -0.74551,0.387014 -1.43054,0.875034 -2.16645,1.280878 -0.75829,0.39721 -1.37326,0.996554 -2.01608,1.550043 -0.72922,0.640747 -1.45117,1.293183 -2.24215,1.857531 -0.53556,0.317421 -1.06442,0.898398 -1.70247,1.006677 -0.89352,0.151627 -1.89781,0.05231 -2.82411,0.132405 -0.025,0.0039 -0.89888,0.13865 -0.87438,0.144949 0.32399,0.0833 0.67692,-0.02418 1.00214,0.0542 0.19528,0.04707 -0.40064,0.03017 -0.60114,0.04246 -0.53165,0.03259 -0.76952,0.03893 -1.30156,0.05971 -1.462717,0.0024 -2.925511,0.0013 -4.387022,-0.05575 -1.087586,-0.0265 -2.083229,-0.502478 -3.031429,-0.991264 C 92.03461,29.220672 90.959002,28.7208 89.873814,28.240121 88.898586,27.76848 88.00363,27.182296 87.243429,26.410577 c -0.3289,-0.345453 -0.54701,-0.735332 -0.936527,-0.972366 -0.315237,0.0031 -0.650179,-0.09267 -0.958778,-0.176804 -0.84596,-0.252896 -1.663922,-0.587547 -2.482519,-0.916067 -0.504847,-0.12382 -0.958758,-0.615846 -1.492721,-0.624592 -0.483606,0.06935 -0.981546,0.06195 -1.470827,0.110049 -0.892612,0.08464 -0.233849,0.0044 0.766453,0.08222 0.168402,0.01311 -0.33778,0.0057 -0.506685,0.0072 -0.318029,0.0029 -0.635074,-0.0084 -0.953003,-0.0065 -0.638006,-0.04252 -1.164825,0.409634 -1.789062,0.47407 -0.05247,-1.148851 0.155792,-1.11457 -1.166508,-1.173227 -0.199591,1.716918 -2.627681,1.434653 -2.428089,-0.282265 v 0 c -0.245618,-0.328762 -0.599694,-0.599504 -0.736854,-0.986286 -0.367303,-1.035778 0.202787,-1.989012 0.915421,-2.661471 0.700574,-0.490744 1.540716,-0.775331 2.270374,-1.223458 1.856451,-0.656937 3.466562,-0.641014 5.461343,-0.420967 0.818354,0.118118 1.632718,0.263486 2.421676,0.517564 0.738291,0.238735 1.484233,0.452922 2.21841,0.70418 0.860345,0.339731 1.702681,0.723215 2.52817,1.140622 0.748337,0.407253 1.480889,0.859018 2.037241,1.517813 0.200727,0.216319 0.431351,0.570363 0.675908,0.720964 0.02846,0.01752 -0.100836,-0.160708 0.02638,-0.09672 0.330165,-0.198047 1.882634,0.716488 2.241539,0.831905 1.011121,0.588172 1.983716,1.225885 2.92409,1.92178 0.360733,0.186676 0.513297,0.05022 0.927958,0.06298 0.517935,0.0057 1.783318,0.07572 -0.495308,-0.01743 -0.135279,-0.0055 0.270507,-0.0123 0.405651,-0.02046 0.404897,-0.02446 0.632362,-0.04538 1.045792,-0.07907 1.826406,-0.101835 3.710926,-0.256575 5.501556,0.177843 1.10002,0.329348 0.35824,-0.01823 -1.05693,0.298834 -0.0653,0.01462 -0.54169,0.408375 -0.62476,0.495962 0.63092,-0.838338 1.37856,-1.593373 2.21514,-2.226662 0.86627,-0.678143 1.75066,-1.337774 2.659,-1.958142 0.77824,-0.485473 1.60803,-0.882581 2.36531,-1.403356 1.00083,-0.542128 2.03118,-1.037161 3.17905,-1.161035 1.3314,-0.09932 2.66954,-0.0761 4.00332,-0.08194 0.92747,0.05425 1.84826,0.145499 2.77038,0.257495 0.44102,0.02391 0.87718,0.05074 1.31871,0.0558 0.14626,0.0017 0.5839,-0.0083 0.4387,0.0093 -0.31776,0.0386 -0.64447,-0.0067 -0.95879,0.05385 -0.11796,0.02273 0.23663,0.04166 0.35494,0.06249 0.66904,0.05714 1.27669,-0.151287 1.94121,-0.158673 0.67188,-0.0075 1.34393,0.01629 2.01534,0.04271 0.28156,0.01108 0.56163,0.04649 0.84245,0.06974 1.67683,0.317128 3.5186,0.78684 4.82722,1.964387 0.21548,0.193893 0.37093,0.445542 0.5564,0.668312 2.34135,1.878712 -0.31555,5.189881 -2.6569,3.311168 z"
       inkscape:connector-curvature="0" />
    <path
       style="fill:#000000;fill-opacity:1;stroke:none;stroke-width:0.26458332;stroke-opacity:1"
       id="path860"
       d="m 158.51161,39.815201 c 0.0694,0.356449 0.17403,0.707816 0.20827,1.069342 0.24519,2.588803 -0.36045,5.636308 -0.69735,8.216435 -0.28189,1.864296 -0.53496,3.736239 -0.5312,5.625933 0.001,0.586203 0.0932,2.348494 0.11986,2.902148 0.35463,3.480536 0.314,6.975626 0.23591,10.467176 -0.15528,2.976893 -0.56676,5.933443 -0.48768,8.918189 0.0419,1.026228 0.27748,2.023729 0.51187,3.018184 0.0514,0.218217 0.34888,0.952889 0.14396,1.189892 -0.89374,-0.389795 -0.70762,-0.45828 -2.00594,0.205274 -0.0733,0.03746 0.0287,0.204071 0.10919,0.221485 0.12257,0.02653 0.23755,-0.08048 0.35632,-0.120718 0.092,-0.884865 1.34339,-0.754743 1.25138,0.130122 v 0 c 0.0956,0.146338 0.24811,0.268557 0.28692,0.439015 0.32682,1.435446 -1.74501,1.711936 -2.65398,1.10704 -0.20321,-0.148076 -0.42561,-0.272901 -0.60964,-0.44423 -1.49733,-1.393915 -1.85342,-3.609853 -2.14408,-5.523169 -0.24889,-3.094519 -0.1963,-6.203958 -0.0811,-9.304427 0.17551,-3.436014 0.27071,-6.876685 0.52841,-10.308217 0.15114,-3.029871 0.15232,-6.069166 0.44737,-9.089107 0.46172,-2.767475 0.96917,-5.921626 2.61301,-8.278868 0.21848,-0.313296 0.50943,-0.56923 0.76415,-0.853845 0.29157,-1.155633 1.92589,-0.743286 1.63431,0.412346 z"
       inkscape:connector-curvature="0" />
    <path
       style="fill:#000000;fill-opacity:1;stroke:none;stroke-width:0.26458332;stroke-opacity:1"
       id="path868"
       d="m 96.459401,32.151243 c 0.108577,0.319646 0.242851,0.631685 0.325734,0.958935 0.618374,2.441514 0.600607,5.375401 0.69882,7.892777 0.02755,2.597266 0.258903,5.256773 -0.414615,7.795469 -0.0783,0.103619 -0.106871,0.288986 -0.234889,0.310856 -0.140475,0.024 -0.232505,-0.191458 -0.374187,-0.206801 -0.518118,-0.0561 -2.398424,0.04254 -1.06312,-0.02217 0.203663,-0.341111 0.686067,-0.05309 0.482404,0.288023 v 0 c 0.346705,0.859896 0.499264,0.866053 -1.675767,0.80205 -0.238657,-0.007 -0.373613,-0.300866 -0.532395,-0.479171 -0.138763,-0.155821 -0.236013,-0.344149 -0.354018,-0.516223 -0.873188,-2.540686 -0.688157,-5.262534 -0.74496,-7.910926 0.027,-2.974112 -0.02739,-6.067152 0.940887,-8.912814 0,-2.083213 2.946106,-2.083213 2.946106,0 z"
       inkscape:connector-curvature="0" />
  </g>
  <g
     inkscape:groupmode="layer"
     id="layer4"
     inkscape:label="shading"
     style="display:inline;opacity:0.32699998"
     sodipodi:insensitive="true">
    <path
       style="fill:#000000;fill-opacity:1;stroke:none;stroke-width:0.26458332;stroke-opacity:1"
       id="path884"
       d="m 77.770407,25.025474 c 1.694119,-1.791947 4.08324,-2.374155 6.444954,-2.648007 2.705814,0.118502 2.572011,-0.290947 4.233182,0.573763 0.366376,0.190714 0.679863,0.478735 1.057812,0.645336 0.07029,0.03098 -0.05215,-0.14743 -0.09969,-0.207766 -0.04102,-0.05588 -0.133128,-0.09907 -0.123044,-0.167653 0.009,-0.06104 0.3097,-0.08315 0.53173,-0.06777 0.710523,0.04922 1.335217,0.267796 1.990209,0.529676 1.054717,0.451883 1.935104,1.172466 2.548739,2.152784 0.172477,0.275537 0.276903,0.588217 0.415351,0.882325 0.617257,3.782523 0.705744,1.495031 -6.306111,4.797846 -0.0924,0.04353 -0.163594,-0.122354 -0.245477,-0.183414 -0.0092,-0.0069 -0.03773,-0.02627 -0.02783,-0.0204 0.350012,0.207566 0.651029,0.537541 1.048319,0.625578 0.777227,0.172228 1.589609,0.09006 2.384415,0.135097 -1.155732,0.461012 -2.424523,0.490339 -3.651676,0.512976 -1.631792,-0.256852 -3.726929,0.326306 -5.359943,-0.367178 -1.935152,-2.004031 -0.251568,-0.216855 -0.366342,-8.054691 -0.0016,-0.10043 0.315989,-0.02613 0.292701,0.07157 -0.512937,2.151834 -1.050692,4.297676 -1.576038,6.446514 2.008261,2.595734 6.145172,-8.076848 6.648854,-4.69148 0.05695,0.155758 0.323734,0.531552 0.170852,0.467274 -5.894816,-2.478427 -5.974389,-2.851662 -0.758306,-1.677118 0.60202,0.13556 1.971458,0.993481 2.554137,1.329858 0.943316,0.53793 1.786477,1.235893 2.780331,1.680739 0.781458,0.346223 1.532692,0.757799 2.318541,1.093616 0.507498,0.167261 1.023178,0.306411 1.537883,0.451112 0.805423,0.143674 1.591543,0.382928 2.365306,0.64516 0.145931,0.0542 0.295079,0.10042 0.43779,0.162605 0.257628,0.112262 0.510487,0.236056 0.757566,0.369943 0.181253,0.09822 0.439888,0.256161 0.292478,0.199506 -0.697661,-0.636273 -3.949943,0.04348 -2.50317,-0.290285 1.210067,-0.245795 2.48514,-0.230079 3.68811,0.05324 0.34661,0.009 0.71462,0.02684 1.07281,0.04468 0.19626,0.0177 0.39082,-0.01228 0.58616,-0.02553 0.0533,-0.0036 0.21357,-0.0099 0.1601,-0.01027 -1.97217,-0.01326 -2.46574,-0.118359 -1.71842,0.02655 0.38507,0.09247 0.7946,-0.02682 1.18399,-0.06839 1.12557,0.09509 2.28574,-0.138766 3.4084,0.06531 0.72211,0.131463 0.0724,0.0067 -1.77719,0.02766 -0.0264,2.65e-4 0.052,0.0104 0.0783,0.01135 0.12381,0.0044 0.25644,-0.02867 0.37717,-0.04802 0.1787,0.0232 0.38071,-0.01116 0.57692,0.01339 0.1813,0.100227 -0.47597,0.625658 0.0709,0.213323 0.1419,-0.107002 0.28429,-0.213365 0.42644,-0.320048 0.46796,-0.313655 0.96686,-0.577818 1.49839,-0.76528 0.29619,-0.05446 0.54118,-0.171906 0.78977,-0.33927 0.47216,-0.361659 0.89432,-0.789546 1.3559,-1.169715 0.0702,-0.04536 0.14051,-0.09051 0.21056,-0.136073 0.0763,-0.04961 1.2994,-0.881594 1.1318,-0.663667 -1.28423,1.11933 0.84891,-0.879233 0.85737,-0.886881 0.64518,-0.401249 1.3514,-0.976818 2.14016,-1.058269 0.79696,-0.0823 1.60429,0.03328 2.40348,-0.02344 0.7568,-0.05371 -1.58448,-0.201978 -2.27312,0.116455 -0.70755,0.446202 -0.82345,0.411745 -1.23702,0.901802 -0.0312,0.03695 -0.11216,0.153295 -0.0725,0.125606 0.17725,-0.123829 0.27466,-0.334448 0.42272,-0.492021 0.20287,-0.215889 0.41342,-0.424418 0.62013,-0.636628 2.72449,-1.806545 -1.11725,0.498382 4.09011,-1.062434 0.70085,-0.210067 -1.46494,0.02035 -2.19301,0.09268 -0.14942,0.01484 -0.42936,0.237826 -0.54445,0.321744 0.26802,-0.124469 1.01656,-0.683218 1.2827,-0.674664 0.25925,0.0083 -0.52634,0.291635 -0.002,0.08807 2.07836,-1.104528 2.64699,-1.323975 5.36915,-1.050282 -3.76631,-0.141771 -1.30807,-0.543641 -1.77368,0.377858 0.26203,-0.01182 0.0123,0.0146 0.49295,-0.237214 0.27512,-0.144133 0.52953,-0.359383 0.83557,-0.412319 1.97996,-0.342468 2.15014,-0.07106 3.52787,-0.187763 0.66439,-0.08841 1.33752,-0.145919 2.00782,-0.09457 0.1369,0.01049 0.54514,0.03734 0.40862,0.05195 -0.55889,0.05981 -1.12274,0.05636 -1.68411,0.08454 0.38586,0.329193 -0.13763,-0.193469 -0.15357,0.329131 -0.0723,2.369189 0.0899,4.740405 0.0656,7.110572 -8e-4,0.07899 -0.23619,-0.02913 -0.21268,-0.104545 0.76059,-2.43972 1.5779,-4.861396 2.36685,-7.292094 0.0973,-0.0038 0.19448,-0.01112 0.29183,-0.01141 0.17165,-5.29e-4 0.33142,0.0075 0.49929,0.04215 0.0788,0.01626 0.29938,0.09502 0.21916,0.101185 -0.64429,0.04954 -1.29104,0.0589 -1.93655,0.08835 1.60627,-0.236946 3.35769,-0.03027 4.36804,1.344107 0.24538,0.333795 0.41372,0.717888 0.62057,1.076832 -0.60901,1.575426 -1.06824,3.217274 -1.82703,4.726278 -0.11047,0.219673 -0.45289,0.192945 -0.68597,0.271251 -1.04202,0.350078 -1.80928,0.180834 -3.0821,0.219908 -1.00986,0.031 -0.32653,0.02805 -1.42138,0.01259 -0.97504,-0.01434 -1.95096,-0.02328 -2.9256,-0.05831 -0.21356,-0.0077 -0.85329,-0.01225 -0.64037,-0.03036 0.49387,-0.04201 0.99091,-0.02773 1.48636,-0.0416 -0.67661,-0.102256 -1.32607,-0.269798 -2.01207,-0.211 -1.3525,-0.01521 -2.7123,0.11362 -4.06704,0.1011 -2.20584,-0.141247 2.53198,0.0083 0.60163,-0.173013 -0.29041,-0.06835 -1.11645,0.18542 -0.26592,-0.183732 0.41339,-0.255794 -0.16667,-0.03406 -0.27225,0.01032 -0.41186,0.32048 -0.89367,0.474438 -1.36915,0.656792 0.0424,-0.02453 -0.10994,0.02299 -0.0949,-0.0049 0.0296,-0.05506 0.17911,-0.132233 0.11806,-0.145748 -0.007,-0.0016 -0.77662,0.569971 -0.80228,0.58873 -0.33961,0.252068 -0.87813,0.815451 -1.38254,1.235109 -0.0844,0.04389 -1.62772,1.246812 -1.50385,0.751477 0.11627,-0.392321 -0.43441,0.516033 -0.45883,0.553443 -0.52245,0.754329 -1.22772,1.340696 -2.02751,1.778359 -0.24161,0.103685 -1.14785,0.642964 -1.37667,0.590921 -0.79587,-0.181018 -6.0967,-2.850354 -3.8105,-0.735005 0.20711,0.191627 0.46284,0.322858 0.69426,0.484288 0.83757,0.04462 1.67479,0.171175 2.51271,0.133853 0.20772,-0.0093 0.38451,-0.162377 0.56193,-0.270801 0.90207,-0.551273 1.27146,-1.328536 1.57851,-2.285151 -4.68744,-2.721292 -7.44247,-1.932125 -5.42375,-3.988847 0.55638,-0.56686 1.15463,-1.015643 1.80411,-1.470885 1.16561,-0.775018 2.49628,-1.17924 3.80574,-1.622804 0.589,-0.193211 1.18346,-0.474102 1.77109,-0.601108 0.43184,-0.200318 0.85985,-0.406538 1.30381,-0.580207 0.65492,-0.331811 1.35428,-0.531793 2.06904,-0.68336 0.35427,-0.08715 0.3478,-0.09465 0.68888,-0.146457 0.0667,-0.01012 0.25794,-0.05951 0.20088,-0.02361 -1.43325,0.901723 -0.83773,0.433696 -0.69688,0.325175 0.59466,-0.438082 1.28908,-0.675855 1.99309,-0.869486 0.20931,0.0104 0.92644,-0.266981 1.01087,0.05724 0.40051,-0.01463 0.75143,-0.302208 1.14625,-0.330777 1.24766,-0.09028 1.49336,-0.07012 2.34601,-0.02632 0.0946,-0.0062 0.18932,-0.01033 0.28375,-0.01853 0.44942,-0.03903 0.17212,-0.03251 0.64313,-0.05411 0.11457,-0.0053 0.45861,-0.0082 0.34393,-0.0099 -1.63101,-0.02426 -1.89486,-0.08238 -1.18474,0.03627 0.37835,0.08032 0.0884,0.198259 -0.12402,0.358014 -0.2573,0.19355 -1.03428,0.766575 -0.76675,0.58743 1.58569,-1.061825 0.47715,-0.553845 1.74947,-1.059661 1.3904,-0.270973 3.10697,-0.391669 4.41284,0.32128 0.95875,0.65306 0.86023,0.512961 -2.17802,-0.08537 -0.11992,-0.02362 0.22914,-0.0865 0.34751,-0.116956 0.29658,-0.07631 0.59079,-0.103924 0.89271,-0.06343 0.083,0.122536 0.0988,0.08825 -0.0608,0.240094 -0.11918,0.113379 -0.38236,0.152494 -0.37825,0.316935 0.077,3.083681 0.90188,7.59094 0.40591,4.819279 -3.25601,-1.933442 -0.52171,-6.538144 2.7343,-4.604702 v 0 c 0.10029,-1.908027 0.2749,-6.008212 0.88378,4.940527 0.016,0.288079 -1.17737,0.710319 -1.38827,0.806471 -0.37768,0.06892 -0.75693,0.150937 -1.13803,0.04175 -0.0667,-0.01913 -0.11834,-0.08267 -0.18724,-0.09118 -0.93776,-0.115861 -1.87669,-0.241369 -2.82077,-0.280458 -0.0791,-0.0033 0.11032,0.113681 0.16548,0.170521 -0.16137,0.132885 -0.35105,0.112289 -0.55356,0.129405 -0.0738,0.0062 -0.29507,0.02233 -0.22106,0.02106 1.52913,-0.02593 1.83672,0.213379 1.27208,-0.146457 0.0454,-0.0737 0.077,-0.157991 0.13621,-0.221078 0.22996,-0.244824 1.06196,-0.721739 0.72692,-0.697831 -0.38659,0.02759 -0.60304,0.487897 -0.91956,0.711576 -0.33052,0.233579 -0.70921,0.390811 -1.10165,0.479933 -1.2929,0.217006 -2.64589,0.131291 -3.92928,-0.123235 -0.70454,-0.04158 0.58372,0.03733 1.5942,-0.05368 0.0837,-0.0075 0.46627,-0.337513 -0.0149,-0.0882 -0.58948,0.260377 -1.21958,0.507479 -1.8767,0.433055 -0.11944,-0.16079 -0.0358,-0.34416 -0.31549,-0.224121 -0.31863,0.106468 -1.75038,0.787643 -0.98971,0.502886 -0.48088,0.364302 -1.14656,0.441505 -1.69981,0.638593 -0.46886,0.150222 -0.96274,0.233259 -1.42341,0.368633 -0.2722,0.131477 -0.5051,0.273873 -0.72737,0.494596 -0.96983,0.709073 -1.99464,1.305933 -3.07522,1.831547 -0.6383,0.338066 -1.31249,0.669525 -1.92302,1.05538 -2.53836,1.604243 1.83433,1.508818 -6.7184,-2.899412 0.36463,-1.153629 0.77232,-1.997652 1.89028,-2.632882 0.24987,-0.141978 0.5033,-0.326531 0.79009,-0.34511 0.92518,-0.05994 1.85268,0.07593 2.77902,0.11389 0.33189,0.181568 0.69335,0.317273 0.99565,0.544706 2.86253,2.153568 -2.40401,-0.149151 -3.30755,-0.321667 -0.14432,-0.02756 -0.65743,0.27809 -0.84128,0.413874 0.20514,-0.06319 0.39805,-0.147693 0.57099,-0.284924 0.26185,0.111061 0.64622,-0.846588 0.83636,-0.974641 0.44911,-0.541911 0.94543,-1.039844 1.54262,-1.419839 0.76994,-0.548729 1.49065,-1.200176 2.32475,-1.639602 0.0908,0.151529 0.96519,-0.749149 1.26994,-0.839535 0.27973,-0.135188 0.53842,-0.300953 0.83519,-0.337123 0.57734,-0.348568 1.17142,-0.670098 1.78631,-0.947164 0.56922,-0.194443 1.01317,-0.331313 1.59779,-0.283844 0.15849,-0.01777 0.3328,-0.08019 0.48888,-0.08544 0.9639,-0.03245 1.90695,-6.2e-5 2.86031,-0.08977 0.38445,0.0028 0.77053,0.0091 1.15387,0.04253 0.10796,0.0094 0.43099,0.03391 0.32275,0.03918 -1.42075,0.0692 -2.24613,-0.05451 -1.46258,0.05324 0.67353,0.05989 1.30694,-0.33643 1.98089,-0.344536 2.2177,-0.03693 4.44927,-0.160668 6.64813,0.214058 0.17914,0.0255 0.35832,0.05076 0.53743,0.07649 0.15222,0.02187 0.60904,0.04621 0.45657,0.0663 -0.53508,0.07052 -1.08285,0.008 -1.61681,0.0866 -0.0609,0.009 0.14215,0.07236 0.12868,0.132415 -0.0225,0.100222 -0.13943,0.150866 -0.20914,0.226299 -0.50755,1.549224 -1.0151,3.098448 -1.52266,4.647672 0.19197,0.327059 0.35302,0.674356 0.57591,0.98118 0.91665,1.26187 1.74572,0.976569 3.35733,1.037852 0.015,5.29e-4 -0.0281,-0.01048 -0.0422,-0.01569 -0.70188,0.03245 -1.40463,0.04969 -2.10564,0.09734 -0.0435,0.003 -0.0776,0.04101 -0.11931,0.0539 -0.32323,0.09993 -0.67305,0.07269 -1.00425,0.0474 0.62027,-2.433415 1.21682,-4.873 1.86081,-7.300248 0.0247,-0.09292 0.26867,-0.172965 0.27785,-0.07727 0.2276,2.373388 0.46291,4.751698 0.49362,7.135776 5.3e-4,0.03332 -0.56267,0.315505 -0.65491,0.362675 -1.74759,0.06788 -3.52679,0.320178 -5.24366,-0.130365 -1.15432,-0.318635 -0.12885,0.113056 1.93666,-0.290989 0.22443,-0.0439 0.38932,-0.240162 0.58004,-0.366334 0.0583,-0.03859 0.19117,-0.193067 0.16658,-0.12759 -0.0279,0.07431 -0.1187,0.105423 -0.17805,0.158136 -1.74578,1.360165 -3.21566,1.394513 -5.47377,1.213234 -1.05233,0.05044 1.58709,-0.07566 1.71237,-0.09318 0.0816,-0.0114 0.10222,-0.129897 0.16078,-0.187917 0.0916,-0.09077 0.19629,-0.167601 0.28878,-0.257482 0.0439,-0.04264 0.17993,-0.129609 0.11952,-0.139317 -0.0695,-0.01117 -0.10992,0.08802 -0.16488,0.13203 -0.42741,0.304422 -0.83202,0.59812 -1.3383,0.735441 -0.51356,0.306089 -1.15694,0.797618 -1.76318,0.873636 -0.84056,0.105399 -3.02416,0.82968 -2.53778,0.13608 0.51584,-0.735605 1.8099,-0.08857 2.67486,-0.331562 0.33659,-0.09456 0.54829,-0.433951 0.82243,-0.650926 0.1186,-0.146634 0.23694,-0.293481 0.35581,-0.439901 0.0544,-0.06702 -0.0969,0.142915 -0.14724,0.213072 -0.64963,0.90589 -1.32479,1.575027 -2.37286,2.069187 -1.29035,0.384008 -0.92165,0.341974 -3.06374,0.20992 -0.67941,-0.04188 1.36666,0.0527 2.04183,-0.03396 0.22824,-0.02929 0.78643,-0.442438 0.98379,-0.598487 0.0696,-0.05506 0.13125,-0.119563 0.19688,-0.179343 0.0704,-0.08709 0.14467,-0.171185 0.21121,-0.261257 0.0124,-0.01675 -0.0346,0.0241 -0.0479,0.04014 -0.0896,0.107992 -0.16782,0.225266 -0.26004,0.33102 -0.44637,0.511902 -0.98726,0.939646 -1.4906,1.389515 -0.20878,0.124028 -0.39841,0.344376 -0.64125,0.345752 -0.0988,5.29e-4 0.23295,-0.149895 0.1816,-0.234323 -0.004,-0.0064 -0.25638,0.170169 -0.26141,0.173643 0.002,-0.226028 -0.751,0.700458 -0.79677,0.718529 -0.659,0.634587 -1.36105,1.228223 -2.16619,1.671574 -0.0778,0.03867 -1.81295,0.902404 -1.39157,0.367509 0.38086,-0.405037 0.0848,-0.110736 -0.0942,0.04942 -0.37182,0.332666 -0.7704,0.632016 -1.22964,0.834798 -0.80751,0.336235 -1.65085,0.581453 -2.5324,0.599612 -0.88697,-0.137451 -1.82035,-0.04232 -2.70403,-0.0047 -0.81638,0.115675 -2.87227,0.06659 0.63173,0.04484 -0.35592,-0.04679 -0.68327,-0.134332 -1.03627,-0.009 -1.29926,0.182927 -2.63803,0.09437 -3.928022,-0.123217 -0.358624,-0.06725 -0.716515,-0.140009 -1.078568,-0.181668 -0.832996,0.261612 2.92431,0.26734 1.65122,0.01646 -0.239099,-0.05094 -0.16254,0.01643 -0.473256,0.02951 -1.488659,0.06268 -2.201767,0.206262 -3.397998,-0.258233 -0.636995,-0.195514 -1.296477,-0.297958 -1.926334,-0.518075 -0.625022,-0.215501 -1.249103,-0.428996 -1.890556,-0.592254 -0.874146,-0.23222 -1.735415,-0.527643 -2.550261,-0.92197 -0.698145,-0.332094 -1.409819,-0.628772 -2.152126,-0.849548 -1.46808,-0.566571 -2.910318,-1.222793 -4.211235,-2.117349 -0.250756,-0.187037 -0.85866,-0.623179 -1.111771,-0.86863 -0.05216,-0.05058 -0.192662,-0.184531 -0.12005,-0.181941 1.00271,0.03577 3.687713,1.011894 2.996563,0.284557 -6.724875,-7.076951 -5.358382,-3.574481 -4.741881,-1.844416 -0.06175,0.02328 -0.243467,0.01752 -0.195951,-0.02828 1.978642,-1.907196 3.929036,-3.8501 6.023584,-5.629226 0.05182,-0.04402 0.777356,0.599203 0.843092,0.654944 -0.439584,2.22237 -0.844039,4.451976 -1.318757,6.667108 -0.0081,0.03775 -0.280377,0.15267 -0.290468,0.156292 -2.724586,0.978315 -2.962754,-6.250618 -0.794618,-7.919783 0.831236,-0.276148 4.436446,-0.369966 0.785622,-0.307556 1.195618,0.0066 2.387478,0.05498 3.560437,0.305615 0.91821,0.03898 1.851949,-0.05566 2.754628,0.116955 0.450021,0.08606 0.809254,0.429905 1.215276,0.642203 0.02933,0.01534 0.0633,0.0593 0.09062,0.04062 0.02344,-0.01603 -0.01513,-0.08895 -0.04001,-0.07522 -6.609331,3.646942 -6.629926,1.198808 -5.985697,4.80976 0.108831,0.229213 0.193108,0.471791 0.326495,0.687638 0.144071,0.233138 0.334135,0.434502 0.501203,0.651751 -0.01273,0.02074 -0.04474,0.03879 -0.0382,0.06224 0.0177,0.06349 0.102523,0.10309 0.102645,0.168997 1.56e-4,0.08397 -0.269082,-0.02035 -0.247719,0.04583 -0.293751,0.357521 -1.780201,-0.170849 -2.084599,-0.248237 -0.403791,-0.175392 -0.796605,-0.37542 -1.20078,-0.549923 -0.06248,-0.02698 -0.165021,-0.115517 -0.196548,-0.05521 -0.03447,0.06593 0.08341,0.12351 0.130902,0.180774 0.645626,0.778396 0.63232,0.229814 2.482189,0.27513 -0.622634,-0.149673 -2.825332,1.101899 -3.643069,0.965253 -4.745366,3.95597 -10.339954,-2.754993 -5.594586,-6.710964 z"
       inkscape:connector-curvature="0" />
    <path
       style="fill:#000000;fill-opacity:1;stroke:none;stroke-width:0.26458332;stroke-opacity:1"
       id="path888"
       d="m 81.907448,24.999097 c 1.601872,0.266625 3.136892,0.912788 4.491376,1.803491 -0.619763,0.03947 -1.646679,-0.265383 -2.279695,0.248975 -0.02898,0.02355 0.07545,-0.0047 0.110725,-0.01688 0.183754,-0.06361 0.350544,-0.193442 0.544299,-0.209847 0.782428,-0.06625 1.570275,-0.02379 2.355413,-0.03566 0.600922,0.15494 1.243272,0.234228 1.806384,0.513109 0.01315,0.0097 0.05559,0.03155 0.03948,0.02893 -0.581473,-0.09456 -2.620622,0.07915 -1.983711,-0.09244 0.04299,-0.01159 0.08179,-0.04232 0.126299,-0.04344 0.627758,-0.01582 1.255905,-0.0048 1.883857,-0.0072 0.568356,0.157964 1.154049,0.177353 1.737267,0.228452 0.698833,0.101211 1.401892,0.157925 2.099932,0.263787 0.734962,0.13344 1.467138,0.28498 2.19769,0.441679 0.583941,0.127045 1.179224,0.209736 1.770488,0.30693 0.875581,0.04402 1.742916,0.173935 2.614729,0.26207 1.012879,0.05408 1.993379,0.325856 2.964859,0.598358 0.71135,0.219908 1.44899,0.296257 2.1788,0.425006 0.86425,0.201173 1.68718,0.507595 2.47846,0.905488 0.35645,0.210664 0.74954,0.341929 1.12858,0.499946 0.73859,0.279173 -0.33588,-0.199932 0.51618,0.238676 0.19035,0.139218 0.41629,0.239704 0.57104,0.41765 0.32405,0.372615 0.55492,0.817303 0.84836,1.214477 0.0688,0.09307 -0.0808,-0.220705 -0.1513,-0.312446 -0.21479,-0.279411 -0.401,-0.588974 -0.66648,-0.820762 -0.25367,-0.221472 -0.57812,-0.345498 -0.86718,-0.51825 -4.88313,1.765218 -2.43714,-0.111477 -1.82694,-0.116356 0.69409,-0.0056 1.38887,0.02395 2.08089,0.07784 0.2876,0.02238 0.62376,0.247828 0.86717,0.388969 -0.0524,-0.02405 0.0644,0.01847 0.0474,0.0191 -0.19566,0.0074 -0.338,-0.228383 -0.5329,-0.247073 -1.60982,-0.154368 -2.76872,0.191421 -1.97235,-0.03887 1.06134,-0.329652 2.20567,-0.202165 3.21314,0.219488 1.94001,0.700188 -3.78284,0.440862 -2.1348,-0.115509 0.0868,-0.02143 0.17121,-0.06931 0.26051,-0.06429 0.10093,0.0057 0.19103,0.06648 0.28798,0.09513 0.68403,0.202133 1.50191,0.146529 2.0548,0.597164 0.39059,0.318355 0.29928,0.962335 0.44892,1.443503 1.45184,1.97498 -1.34121,4.028186 -2.79304,2.053204 v 0 c 0.0675,0.393809 -0.0992,0.919443 0.20247,1.181423 0.46716,0.405686 1.18446,0.358219 1.77668,0.537329 0.0108,0.03492 0.0132,0.07361 0.0323,0.104751 0.007,0.01222 0.004,-0.02841 0.006,-0.04262 0.47767,-0.963147 0.0825,-0.122518 -3.00342,-0.290415 -0.0344,-0.0019 0.0566,0.04272 0.0733,0.07288 0.0223,0.0404 -0.15511,0.03065 -0.14813,0.01796 0.47351,0.403095 1.50818,0.613614 1.94538,0.10555 0.0106,-0.01233 -0.0295,-0.01376 -0.0442,-0.02061 -1.95598,-0.254492 -1.82274,0.310103 -3.14627,-0.352462 0.0812,0.07293 0.24345,0.221832 0.35705,0.228849 0.63687,0.03934 1.27541,0.0667 1.91341,0.05654 0.0656,-0.0011 0.1167,-0.05987 0.17505,-0.08981 -0.77774,0.0019 -1.55547,0.0039 -2.3332,0.0058 -0.31358,-0.175938 -0.66377,-0.298511 -0.94072,-0.527812 -0.29221,-0.241933 -0.50333,-0.568161 -0.74057,-0.864196 -0.11972,-0.149386 -0.39369,-0.654129 -0.27399,-0.504737 0.27931,0.34857 0.48947,0.751369 0.78674,1.084752 0.14523,0.162869 0.35129,0.258984 0.52693,0.388477 0.54886,0.299503 0.29908,0.138678 0.0911,0.09729 -0.18654,-0.03713 -0.42802,0.02762 -0.60606,-0.111133 -0.57002,-0.1568 -1.10816,-0.398322 -1.65826,-0.610708 -0.48746,-0.09387 -0.97993,-0.165045 -1.47088,-0.238321 -0.80455,-0.149932 -1.6013,-0.336915 -2.405917,-0.487077 C 98.669198,35.261 97.790276,35.231128 96.922842,35.079837 96.036562,34.916972 95.156878,34.726994 94.284872,34.499709 93.681789,34.39129 93.074747,34.3032 92.47214,34.19565 c -0.686525,-0.09971 -1.370962,-0.212622 -2.058728,-0.303372 -0.754547,-0.103965 -1.500711,-0.25423 -2.245003,-0.415525 -0.273653,-0.07104 -1.3742,-0.418992 -0.95042,-0.27939 3.741481,-0.03594 0.266811,-0.0098 -0.94643,-0.162062 -0.383742,-0.06503 -0.952344,-0.1694 -1.228493,-0.257572 0.644113,-0.02604 1.291881,-0.0048 1.932337,-0.07809 0.09196,-0.01053 0.185116,-0.08297 0.22084,-0.16836 0.02479,-0.05924 -0.120772,0.04393 -0.179575,0.06972 -0.222195,0.09746 -0.421974,0.274043 -0.663216,0.299951 -1.331679,0.14301 -1.975487,0.0596 -3.095786,-0.04212 -2.138886,-0.331256 -4.228936,-1.037524 -5.716175,-2.69685 -3.650697,-3.087301 0.71541,-8.250168 4.366107,-5.162865 z"
       inkscape:connector-curvature="0" />
    <path
       style="fill:#000000;fill-opacity:1;stroke:none;stroke-width:0.26458332;stroke-opacity:1"
       id="path890"
       d="m 133.04295,23.810155 c 2.00969,-0.94437 4.28897,-1.03893 6.47491,-1.015876 0.73793,-0.07115 1.43221,0.300998 2.13884,0.08033 0.78721,-0.330627 1.61572,-0.518364 2.45028,-0.681658 0.46626,-0.143017 0.97881,-0.146304 1.44288,-0.266807 0.39057,-0.0013 0.85971,-0.471402 1.25665,-0.661037 0.47282,-0.251009 0.98784,-0.405983 1.50495,-0.535732 0.37653,-0.176513 0.77593,-0.105589 1.16685,-0.14424 0.58308,-0.151409 1.17204,-0.345319 1.7819,-0.428336 1.07362,0.04999 2.13581,0.06818 3.20572,0.01833 0.85041,0.0015 -0.43393,-0.0027 -1.07195,0.02795 -0.0621,0.003 0.12344,0.01529 0.18435,0.02753 0.12118,0.02434 0.23706,0.05457 0.35986,0.07292 1.40247,-0.197538 2.07593,-0.08798 3.1314,0.644124 -0.28291,1.821747 -0.4089,3.674896 -0.84875,5.465241 -0.0187,0.07624 -1.06063,0.305568 -1.09695,0.308177 -0.81691,0.05867 -1.63765,0.04432 -2.45544,0.08912 -0.53511,0.02931 -1.06566,0.115364 -1.59939,0.163722 0.34485,0.01593 0.74139,-0.134483 1.03456,0.0478 0.25983,0.161558 -0.61164,0.0199 -0.91756,0.02495 -0.99993,0.01648 -1.9918,-0.0097 -2.98754,-0.100179 -0.32981,-0.08153 -0.68638,-0.0442 -1.01429,-0.13593 -0.0406,-0.01135 -0.0697,-0.05472 -0.11163,-0.05937 -0.1194,-0.01326 -0.36413,0.06461 -0.46492,0.09124 -0.9829,0.363151 -1.70453,0.217964 -2.87091,0.266933 -0.11718,0.0049 -0.46458,0.04208 -0.34782,0.05303 0.97431,0.09133 2.02414,-0.0042 0.94604,0.07763 -0.69658,0.01852 -1.40818,0.07518 -2.09152,-0.09233 -0.11274,-0.223046 0.49277,-0.448582 -0.34792,-0.08169 -0.27736,0.08923 -0.56694,0.137959 -0.85883,0.174493 -0.33566,0.0343 -0.29043,0.05813 -0.68038,0.138572 -1.29722,0.558324 -1.61911,0.126008 -3.73707,-0.189724 -0.0595,-0.0089 -0.093,-0.07657 -0.13707,-0.117589 -0.0829,-0.07716 -0.31141,-0.146156 -0.24356,-0.23681 1.29455,-1.729579 2.76541,-3.319903 4.14811,-4.979855 -1.33831,-0.68535 -5.2545,1.86407 -3.71255,0.315684 0.16287,-0.163546 0.33256,-0.321338 0.51419,-0.46375 0.19178,-0.150358 0.40235,-0.275056 0.60352,-0.412583 1.17588,-0.686338 2.51003,-0.847126 3.83978,-0.949387 0.81966,-0.06226 1.63453,0.04877 2.45413,0.03445 1.16639,0.130454 2.30129,0.01551 3.45717,-0.05048 0.51554,-0.02601 1.49288,-0.06865 -0.8611,-0.01935 -0.12671,0.0027 0.25327,0.01067 0.37982,0.01762 0.31988,0.01757 0.63867,0.04325 0.95879,0.05656 1.04027,0.04523 2.08212,0.02266 3.12325,0.02621 0.56229,-0.04015 1.11819,-0.01874 1.6754,0.05924 0.53988,0.08554 1.02869,0.314159 1.49267,0.592799 -0.47243,-0.387024 0.26424,-0.223162 0.55736,-0.181742 0.13493,0.02673 0.27065,0.04973 0.40479,0.08019 0.39582,0.08988 0.34015,0.08518 0.71176,0.226145 0.0861,0.03267 0.34369,0.132089 0.2556,0.10514 -0.98073,-0.302466 0.42461,0.09631 -2.21577,0.02605 -0.1768,-0.0047 0.33264,-0.143881 0.50944,-0.148247 1.32577,-0.03274 1.78188,-0.02322 2.78659,0.300585 0.13143,0.06189 0.95929,0.325262 0.47234,0.04029 -3.59145,-0.01184 -0.39705,-0.0088 0.19954,0.02619 0.34639,0.02034 0.65312,0.235059 1.00999,0.173086 0.36619,-0.03926 0.73626,-0.0092 1.09891,0.04941 -0.51946,0.0019 -1.03915,-0.01018 -1.55838,0.0055 -0.0129,3.97e-4 -0.0713,0.120188 -0.064,0.119177 0.1387,-0.01913 0.26863,-0.07908 0.4031,-0.118108 0.75496,-0.195996 1.43033,-0.09648 2.26721,-0.11123 0.086,-0.0015 0.34362,-0.01146 0.25764,-0.01278 -1.51472,-0.02315 -1.8179,-0.372305 -1.4582,0.02422 0.22501,0.06377 0.50675,-0.121361 0.6998,-0.238064 0.67348,-0.292736 1.28067,-0.952496 2.03225,-1.043666 0.71472,-0.0867 1.43939,-0.03881 2.15909,-0.05821 0.0817,0.0076 0.16591,0.04454 0.24498,0.02276 0.0281,-0.0077 -0.001,-0.08097 -0.0305,-0.08186 -0.57194,-0.01746 -1.14424,0.01992 -1.71638,0.02852 -0.0153,2.31e-4 0.0311,7.41e-4 0.0458,-0.0034 0.0685,-0.01925 0.3284,-0.116566 0.37293,-0.132917 0.82054,-0.290651 1.64707,-0.563995 2.49277,-0.770954 1.17141,-0.198888 0.30615,-0.08178 2.50254,-0.07897 0.0921,1.18e-4 0.36852,-0.0038 0.27639,-0.0044 -1.52607,-0.0096 -1.90787,-0.225956 -1.37313,0.05512 0.55714,-0.0079 1.08441,-0.32753 1.63955,-0.347155 0.67086,-0.02371 1.34256,0.0041 2.01384,0.0062 0.80948,0.133495 1.60849,0.369242 2.31438,0.790583 0.31394,0.255842 1.13074,0.799795 1.1502,1.222471 0.058,1.259001 -0.46076,2.518478 -0.30272,3.768865 0.0585,0.462888 0.50769,-0.801936 0.6205,-1.254664 0.10806,-0.43371 0.0175,-0.893771 0.0262,-1.340656 -0.11601,-0.171761 -0.35079,-1.266076 0.13429,-0.554049 -2.03938,-1.308296 -0.18404,-0.224178 -4.66507,4.539973 -0.0268,0.02854 -0.0267,0.0904 -0.0652,0.09783 -0.27763,0.05359 -0.72497,-0.177116 -0.97081,-0.265541 -0.46655,-0.126925 -0.91986,-0.290869 -1.36844,-0.468286 -0.6481,-0.218498 -1.22786,-0.58978 -1.84047,-0.886995 -0.64741,-0.284653 -1.2263,-0.677998 -1.79037,-1.098868 -0.29379,-0.122872 0.53083,0.260886 0.55944,0.28209 -0.52879,-0.207833 -1.54973,-0.653817 -1.80387,-1.187045 4.15087,-12.827605 6.3965,-0.634962 4.84306,-0.203496 -4.54245,1.261665 -5.33508,-0.767772 -4.69536,1.152025 2.78796,0.287629 2.09124,0.09001 1.3568,0.276929 -0.42333,0.107742 -0.83222,0.256314 -1.24412,0.400494 -1.05822,0.3937 -2.12338,0.773631 -3.23921,0.959479 -0.70906,-0.01338 -1.41836,-0.01753 -2.12719,-0.04014 -1.87161,-0.05969 2.12597,-0.132626 0.74766,-0.02108 -0.75302,0.122982 -1.50641,0.242552 -2.26292,0.342027 -0.85545,0.09819 -1.71999,0.137123 -2.58122,0.140113 -0.65131,-0.03084 -1.2788,0.08078 -1.91495,0.199759 -1.24612,0.204379 -2.51141,0.05332 -3.76315,0.006 0.80012,-8.73e-4 -1.63096,0.0049 -0.81676,0.01368 2.65145,0.02852 1.40891,-0.01665 0.82693,-0.0065 -1.06892,-0.04415 -2.14547,0.07681 -3.2106,-0.02837 -0.31998,-0.03542 -0.64246,-0.04887 -0.96421,-0.04932 2.98747,-0.07714 0.94878,0.06868 0.25927,0.09092 -1.07139,0.04388 -2.14212,0.04842 -3.20856,-0.05367 -1.69582,-0.101392 2.00428,-0.127022 0.79409,-0.04606 -1.12306,0.227872 -2.26978,0.148793 -3.40991,0.170013 -0.65059,-0.101113 -1.99506,0.12257 0.77655,-0.08016 0.038,-0.0028 -0.0999,-0.01892 -0.0991,-0.05704 5.3e-4,-0.02897 0.22854,-0.220234 0.23371,-0.224752 0.23651,-0.280694 -0.76855,0.307887 -0.86615,0.355649 -0.57233,0.312239 -1.20523,0.464099 -1.83575,0.606222 -1.0044,0.246018 0.20327,-0.556382 -0.39318,-0.164013 -0.0275,0.0089 -0.0743,0.05431 -0.0824,0.0266 -0.0966,-0.332428 0.30488,-0.08906 -0.0614,-0.52073 -0.43406,-0.511613 -1.87896,-0.424909 -2.32563,-0.460442 -0.18882,0.608096 -1.0488,0.341062 -0.85998,-0.267034 v 0 c -0.33401,-0.335447 -0.74362,-0.609715 -1.00204,-1.006339 -0.41826,-0.641964 -0.32141,-2.143321 0.31075,-2.663149 -0.0957,0.07686 -0.3613,0.292205 0.20425,-0.190419 0.22189,-0.189351 0.46137,-0.364795 0.7214,-0.498548 0.0952,-0.04896 0.19471,-0.08899 0.29207,-0.133483 0.58765,-0.223766 1.20093,-0.463136 1.8396,-0.441283 0.4234,-0.03271 0.30564,0.07639 0.81457,-0.288733 0.39075,-0.191412 0.85928,-0.475322 1.30691,-0.503716 0.90439,-0.05737 1.81663,-0.03002 2.72209,-0.0949 1.06384,0.02003 -0.31492,-0.01071 -0.92669,0.03143 -0.11712,0.0081 0.23328,0.02672 0.34968,0.04201 0.16947,0.02226 0.33833,0.04889 0.50762,0.07248 0.0577,0.008 0.11533,0.016 0.17299,0.024 0.81531,0.05242 1.63823,0.04218 2.45051,-0.04603 0.23343,-0.02113 0.46691,-0.04447 0.7011,-0.05564 0.0953,-0.0045 0.38144,-0.0087 0.28605,-0.009 -2.01391,-0.0084 -1.70634,-0.0037 -1.07577,0.01159 1.00787,0.0313 2.00503,0.174905 3.01909,0.08827 0.33506,-2.38e-4 0.67101,-0.0086 1.00464,-0.04172 0.69719,-0.06552 0.19683,-0.01194 -1.19481,-0.01591 -0.0794,-2.26e-4 0.15879,-0.0063 0.23822,-0.0077 0.40352,-0.0068 0.10584,0.0075 0.51345,-0.0068 0.0906,-0.0032 0.18115,-0.0083 0.27172,-0.01238 1.18796,-0.0084 2.37889,-0.06179 3.56592,0.01542 0.29479,0.0093 0.58978,0.02075 0.88479,0.0184 0.0831,-6.62e-4 0.33224,-0.0072 0.24917,-0.0058 -1.51819,0.02551 -1.91957,-0.06307 -1.26009,0.06104 0.53026,0.116772 1.03846,-0.151685 1.55469,-0.244203 0.94616,-0.210118 1.92026,-0.328574 2.89051,-0.298798 0.71577,-0.0028 1.43294,0.02305 2.14496,-0.07133 1.00247,-0.117273 1.70434,-0.100137 2.83792,-0.08335 0.10604,0.0016 0.21163,0.01476 0.31763,0.01813 0.0737,0.0023 0.29496,-2.58e-4 0.22123,-0.001 -0.52448,-0.0054 -1.04897,-0.0087 -1.57345,-0.01302 -0.21776,0.535757 0.92742,-0.355803 1.0583,-0.337038 1.0372,-0.531956 2.6467,-1.305899 3.81611,-1.289871 0.86924,0.01191 1.73363,0.131771 2.60044,0.197657 0.243,0.100291 0.49476,0.181519 0.72899,0.300874 0.19721,0.100498 0.77026,0.285725 0.56043,0.356188 -1.44588,0.485529 -3.02251,0.490314 -4.47423,0.958076 -1.64801,0.531007 3.63587,8.365053 5.1361,-0.786864 0.94305,0.576382 -0.80221,-0.77084 -0.94067,-0.56841 0.69191,0.224184 1.39373,0.428387 2.01268,0.82887 0.51808,0.285284 1.03127,0.577134 1.51276,0.922233 0.1201,0.07781 0.37387,0.216175 0.37478,0.212414 0.0207,-0.08541 -0.22643,-0.114474 0.0273,-0.114147 0.87095,0.0049 1.72553,0.358719 2.51492,0.687215 3.58508,1.740077 1.95323,1.814053 -2.10862,6.259178 -0.093,0.101781 -0.23762,-0.139896 -0.35644,-0.209843 -0.95649,-0.556095 -1.59692,-1.358446 -1.92414,-2.436175 -0.0185,-0.531822 -0.16088,-1.073894 -0.0553,-1.595465 0.10534,-0.520636 0.54126,-1.960738 0.67067,-1.445557 1.78941,7.123099 -1.21265,2.009174 0.28605,4.169274 0.0914,0.131755 0.0851,0.101904 0.0567,0.202056 -0.17804,-0.0043 -0.40962,-0.140929 -0.50003,-0.02329 0.55298,-0.0023 1.1065,0.01769 1.65893,-0.0069 0.0473,-0.0021 0.13602,-0.114411 0.0888,-0.11079 -0.26504,0.02033 -0.52768,0.247712 -0.78191,0.284865 -1.16663,0.368144 -1.8288,0.308565 -3.20641,0.310066 -0.0994,1.08e-4 -0.39713,-0.01396 -0.29775,-0.0159 1.46173,-0.02852 1.57013,0.457266 1.41829,-0.08565 0.33041,-0.388069 -1.18089,0.491217 -1.26814,0.435159 -1.33791,0.452911 -2.74954,0.749499 -4.16771,0.431418 0.6417,-0.02377 1.28895,0.01622 1.92509,-0.07129 0.0842,-0.01158 1.15199,-0.797802 0.55849,-0.269004 -0.0763,0.06797 -0.15798,0.129629 -0.23697,0.194443 -0.88529,0.670325 -1.80724,1.280441 -2.90723,1.539535 -1.19166,0.245401 -0.46365,0.132897 -2.58288,0.132249 -0.0763,-2.1e-5 -0.30434,-0.01521 -0.22812,-0.01818 0.46626,-0.01805 0.93352,-0.0043 1.39957,-0.02719 0.0668,-0.0033 -0.21166,-0.02822 -0.18371,-0.0805 0.0122,-0.03007 0.0713,-0.09292 0.039,-0.08918 -0.91832,0.106314 -1.02163,0.895992 -2.42259,0.184157 -0.62324,-0.0011 -1.25329,-0.04562 -1.84316,-0.263726 -0.0937,-0.03394 -0.18701,-0.06916 -0.28119,-0.101819 -0.20535,-0.0712 -0.056,0.04538 0.0568,0.05148 0.56159,0.03038 3.87408,0.03087 -0.24243,0.02027 -0.56153,-0.107754 -1.09947,-0.287022 -1.64473,-0.45253 -0.0192,-7.94e-4 -0.0674,-0.0191 -0.0577,-0.0024 0.0159,0.02724 0.0514,0.04407 0.0829,0.04567 0.60185,0.03055 1.20514,0.07683 1.80719,0.05026 0.10419,-0.0046 0.38294,-0.142713 0.27865,-0.1423 -3.07685,0.0122 -1.28395,0.317201 -2.60477,0.06307 -0.54325,-0.09786 -1.09472,-0.158348 -1.6256,-0.31119 -0.44046,-0.134517 -0.87217,-0.304474 -1.27354,-0.531589 0.29322,0.219571 0.36267,0.248832 -0.0234,0.336864 -0.48362,0.04303 -0.96689,0.05367 -1.45243,0.01807 -0.5674,-0.0026 -1.69111,-0.0029 0.89158,0.0013 0.6977,0.0011 -1.38954,-0.03372 -0.72785,0.02582 -1.28517,0.08099 -2.5715,0.214421 -3.86165,0.07599 -0.71088,-0.05314 -3.23809,-0.345526 -0.0923,-0.151143 -0.64037,-0.0092 -1.25517,0.383188 -1.90598,0.346159 -0.42678,0.03875 -1.94181,0.26982 -2.27364,-0.05346 -0.0351,-0.03423 -0.028,-0.09401 -0.042,-0.14102 0.0757,-0.402962 -0.0309,0.104984 0.10522,-0.343496 0.01,-0.03223 0.0384,-0.120022 0.011,-0.10045 -0.10512,0.07505 -0.14116,0.24741 -0.26555,0.282201 -3.85595,1.078457 -2.78608,1.358534 -4.46384,0.801883 1.25681,-1.708972 2.58988,-3.364393 3.77042,-5.126918 0.053,-0.07916 -0.13723,-0.132664 -0.19895,-0.205251 -0.0128,-0.01507 -0.003,-0.05276 -0.0223,-0.05499 -1.06111,-0.120425 -2.33893,-0.772863 -3.29913,-0.155069 0.27242,-0.140032 0.55163,-0.277334 0.84711,-0.367016 0.29925,-0.123862 0.67514,-0.313632 0.98815,-0.312797 -0.0206,0.02918 -0.10139,0.09733 -0.0693,0.08172 0.3298,-0.160219 0.62602,-0.394593 0.98454,-0.499086 0.8016,-0.279569 1.64612,-0.366397 2.49152,-0.39325 0.92193,0.01175 1.84426,0.0053 2.76578,0.03489 0.12748,0.0041 0.50539,0.04329 0.37849,0.05614 -4.27626,0.433068 -1.02379,-0.392129 -1.51773,0.241266 0.54846,-0.122012 1.11302,-0.655528 1.72558,-0.706753 2.37157,-0.603882 4.80546,-0.477406 7.23596,-0.420998 0.27513,0.02619 0.55065,0.04862 0.8254,0.07856 0.23671,0.0258 0.93504,0.01428 0.70883,0.08864 -0.40099,0.131824 -0.85121,5.6e-5 -1.26284,0.09349 -0.16635,0.03776 0.54905,0.04839 0.44339,0.255502 -0.15036,1.801422 -0.30071,3.602843 -0.45106,5.404264 1.00718,0.710406 1.06155,0.599092 2.50727,0.590919 0.0402,-2.27e-4 -0.1724,-0.01551 -0.12016,-0.0093 -0.93058,0.223555 -1.87913,0.211331 -2.83847,0.165237 -0.70224,-0.05281 -3.05289,-0.328842 0.0169,-0.14383 0.0662,-0.389342 -0.3328,-0.02324 -0.54413,0.02071 -0.4432,0.145467 -1.03839,0.418717 -1.5013,0.289795 -0.30988,0.01676 -0.61971,0.09815 -0.92175,0.09666 0.19416,-0.487625 0.21241,-0.157154 -0.2734,0.195588 -1.01159,0.725273 -2.08267,1.22107 -3.34861,1.300382 -0.31532,0.01794 -1.84398,0.08319 -2.11088,-0.09833 -0.0269,-0.01833 0.0104,-0.06434 0.0156,-0.09651 -0.14064,-0.0049 -2.1382,1.314014 -2.25161,1.093132 -2.22865,0.645668 -4.5906,0.961718 -6.88264,0.448127 -3.89944,1.375908 -5.84527,-4.138738 -1.94583,-5.514645 z"
       inkscape:connector-curvature="0" />
    <path
       style="fill:#000000;fill-opacity:1;stroke:none;stroke-width:0.26458332;stroke-opacity:1"
       id="path892"
       d="m 82.758258,96.561811 c 1.116618,0.416962 2.069581,1.135192 2.91965,1.956263 0.300427,0.290176 0.239723,0.198612 0.349732,0.388673 -0.873509,-0.426479 -0.49389,-0.316238 -2.275165,0.01204 -0.100098,0.01844 -0.478864,0.390946 -0.227759,0.148736 0.152281,-0.129048 0.292738,-0.273513 0.456843,-0.387146 0.196329,-0.135943 0.413451,-0.239075 0.620178,-0.358614 1.299321,-0.538686 2.793087,-0.398997 4.127891,-0.03792 -0.127148,0.07552 0.591371,0.0089 0.443643,0.0021 -0.38722,-0.0064 -0.774441,-0.01286 -1.161658,-0.01929 0.12814,0.0113 0.141938,-0.0064 0.05772,0.03479 -0.378444,0.243935 0.51127,-0.360363 0.581705,-0.410612 0.477948,-0.314852 1.009634,-0.550008 1.388448,-0.988402 0.408086,-0.442071 0.663541,-1.00031 1.047761,-1.457954 0.313306,-0.372669 0.522846,-0.810215 0.782389,-1.218221 0.120017,-0.111763 0.613074,-1.05291 0.403169,-0.344472 1.118947,-1.989804 0.134329,-0.559583 5.30705,1.563611 0.03095,0.0127 -0.01302,0.06668 -0.0093,0.09992 0.0364,0.32856 0.0908,0.657894 0.1172,0.991846 0.03448,1.934525 -0.74495,3.634701 -1.804503,5.202071 -0.962698,1.28977 -2.278005,2.17708 -3.635606,2.99557 -0.780769,0.52928 -1.628219,0.93811 -2.451661,1.39014 -0.846325,0.54024 -1.729689,0.95942 -2.690217,1.25086 -1.076711,0.28732 -2.190882,0.35711 -3.298909,0.40818 -0.907746,-0.0633 -1.86281,0.20292 -2.710918,-0.18914 -0.177869,-0.0822 -0.460317,-0.0778 -0.526019,-0.26246 -0.482316,-1.35525 -0.570944,-2.83014 -1.056507,-4.18424 -0.07003,-0.1953 -0.158414,0.38352 -0.237623,0.57529 -0.09861,0.95673 -0.191561,0.86208 0.0164,1.64407 0.0324,0.12185 0.107418,0.2304 0.134392,0.35356 0.0086,0.0392 -0.04963,-0.0633 -0.07721,-0.0925 -0.17371,-0.18384 0.08321,0.16264 -0.200583,-0.25951 -0.562999,-1.00704 -0.746168,-2.30923 -0.113239,-3.34622 0.186994,-0.30637 0.463806,-0.54791 0.695708,-0.82187 3.720529,-0.57519 4.015275,-0.4631 0.935548,-0.46697 -0.02806,-3e-5 -0.09968,0.0217 -0.08416,-0.002 0.216879,-0.32672 0.892223,-0.66179 1.184418,-0.863073 1.488123,-0.966941 3.138286,-1.621965 4.831448,-2.127401 0.179625,-0.256458 1.401416,-0.200287 1.602388,-0.375092 0.56253,-0.765416 1.179152,-1.475486 1.887535,-2.108438 0.443447,-0.30457 0.889926,-0.749242 1.427728,-0.895242 0.0383,-0.0104 0.0741,0.03479 0.113792,0.03503 -0.508992,0.719634 0.09443,-0.07763 0.230426,-0.217774 0.280514,-0.422611 0.627936,-0.787548 1.013621,-1.115367 0.307155,-0.23264 0.635146,-0.438935 0.92923,-0.686316 0.290679,-0.198773 0.566121,-0.455006 0.897501,-0.562395 0.02268,-0.0075 0.0726,-0.0461 0.06803,-0.02265 -0.0081,0.0416 -0.083,0.05439 -0.08248,0.09677 5.29e-4,0.036 0.05508,-0.04638 0.08282,-0.06933 0.112456,-0.09304 0.187404,-0.154906 0.306401,-0.233487 0.01833,0.135107 0.284681,-0.366093 0.329499,-0.238191 0.004,0.01138 -0.344136,0.437494 -0.30983,0.407895 0.122909,-0.106032 0.179588,-0.214617 0.253116,-0.341956 0.299112,-0.331377 0.589931,-0.668086 0.902401,-0.987319 0.06524,-0.0277 1.267397,-1.263891 0.944198,-0.570211 -0.06138,0.246544 -0.0084,0.0554 -0.235342,0.546494 1.402784,-3.744135 6.697782,-1.760294 5.295002,1.983838 v 0 c -0.27578,0.598111 -0.15287,0.362397 -0.34636,0.71837 -0.27704,0.419259 -0.58064,0.850649 -1.03234,1.09692 -0.16921,0.147796 -0.905706,0.855051 -1.091314,0.8601 -0.02904,7.93e-4 0.01553,-0.05598 0.02331,-0.08397 -0.03173,0.0173 -0.09311,0.08804 -0.09518,0.05195 -0.0033,-0.05654 0.128185,-0.185867 0.08989,-0.14415 -0.174093,0.189643 -0.323278,0.48958 -0.546166,0.630462 -0.283702,0.27631 -0.642914,0.46875 -0.931571,0.74094 -0.217332,0.14818 -0.360572,0.192775 -0.574559,0.278683 -0.200668,0.0021 -0.35964,0.316058 -0.512175,0.416017 -0.252992,0.214887 -0.547764,0.308917 -0.739619,0.596411 -0.276521,0.300902 -0.586052,0.568724 -0.829662,0.912992 -0.327091,0.337937 -0.677436,0.649423 -1.099328,0.86487 -0.566539,0.369181 -0.955032,0.94088 -1.401783,1.43693 -0.864238,1.06338 -1.849086,1.96779 -3.126849,2.51232 -1.428334,0.6716 -2.901831,1.23944 -4.394589,1.75135 -0.617169,0.20997 -1.221618,0.44507 -1.833565,0.66901 -0.217546,0.0796 -0.42487,0.20775 -0.655317,0.23138 -6.3626,0.65235 0.17722,-0.38321 0.334425,-0.41135 0.209923,-0.26037 0.461746,-0.49191 0.629769,-0.78108 0.453919,-0.78123 0.377225,-1.75966 0.02619,-2.55443 0.518398,0.35359 0.880147,1.32725 0.925192,1.88731 0.03454,0.42945 -0.04689,0.8604 -0.07033,1.2906 -0.10967,0.28032 -0.19086,1.10836 -0.32901,0.84094 -0.62865,-1.21693 -0.749652,-2.63992 -1.257474,-3.91202 -0.05546,-0.13893 -0.273302,-0.12758 -0.391647,-0.21905 -0.02962,-0.0229 0.006,-0.10416 -0.03128,-0.10788 -0.453409,-0.0453 -0.911842,-0.004 -1.366626,-0.0318 -0.07936,-0.005 0.15693,-0.0257 0.235394,-0.0386 1.021202,-0.13681 2.032061,-0.39027 3.070403,-0.35635 0.223202,0.0171 0.514196,-0.0695 0.664628,0.0963 0.07414,0.0817 -0.423252,0.57176 -0.03687,0.1816 0.789619,-0.73155 1.623507,-1.39018 2.572438,-1.910577 0.732435,-0.437493 1.550683,-0.794139 2.158462,-1.399667 0.584494,-0.693623 0.951061,-1.524561 1.310934,-2.351283 0.108437,-0.379502 0.194233,-0.731208 0.242499,-1.123542 0.01344,-0.109244 -0.07041,-0.35323 0.03676,-0.328153 5.439365,1.272824 4.284988,3.141316 5.338561,1.172996 -0.127936,0.349324 -0.269623,0.680437 -0.522039,0.957289 -0.204261,0.282038 -0.31089,0.587047 -0.422153,0.922798 -0.416388,0.94052 -0.992457,1.821418 -1.676474,2.589039 -0.752729,0.7446 -1.538724,1.47235 -2.54086,1.86478 -0.690348,0.24858 -1.302292,0.66637 -2.008407,0.87937 -1.063045,0.22444 -2.149438,0.13397 -3.219344,-0.003 -0.464669,-0.0153 -0.130281,0.003 -0.608904,-0.0434 -0.0834,-0.008 -0.334269,-0.0198 -0.250489,-0.021 1.710407,-0.0249 1.125648,0.35061 1.057336,-0.22481 0.118157,-0.25846 0.170206,-0.36418 0.140639,-0.3611 -0.09945,0.0103 -0.158631,0.12177 -0.238763,0.18157 -0.207407,0.15479 -0.373835,0.39531 -0.623842,0.46218 -1.949471,0.52148 -1.786575,0.44564 -3.153503,0.0892 -1.712357,-0.61206 -3.330424,-1.49759 -4.30122,-3.1032 -2.475709,-2.762318 1.430803,-6.263499 3.906512,-3.501178 z"
       inkscape:connector-curvature="0" />
    <path
       style="fill:#000000;fill-opacity:1;stroke:none;stroke-width:0.26458332;stroke-opacity:1"
       id="path894"
       d="m 102.91671,97.760786 c 1.56729,0.14982 2.82116,1.163728 4.23032,1.729849 -1.00075,-0.145016 -1.48953,-0.323972 -2.1471,0.273904 -0.0384,0.03491 0.0877,-0.05549 0.13079,-0.08445 0.58396,-0.392761 0.14143,-0.119179 0.92213,-0.566608 1.10709,-0.575209 1.97513,-0.380783 3.25419,-0.470564 0.39036,-0.0274 -0.78257,-0.0092 -1.17386,-0.01341 -0.0747,-7.94e-4 0.15173,-0.0043 0.22337,0.01675 -0.0129,0.01048 -0.0496,0.04385 -0.0386,0.03145 0.28977,-0.325766 0.65236,-0.605518 0.97607,-0.895742 0.55374,-0.531577 1.20377,-0.943094 1.80995,-1.408091 0.28729,-0.188503 0.51834,-0.445765 0.7827,-0.661527 0.27412,-0.23354 0.53111,-0.500076 0.72663,-0.803233 0.14127,-0.200358 0.31542,-0.337137 0.46397,-0.532059 -0.0376,-0.127989 1.0991,-1.167074 0.73261,-0.765706 -0.61888,0.755885 0.3859,-0.692447 0.44421,-0.765413 0.34729,-0.362056 0.2373,-0.279792 0.59407,-0.546093 0.23294,-0.173868 0.95516,-0.733663 1.22404,-0.725254 2.78796,0.08718 3.85432,1.276286 3.03849,0.395605 -1.02276,-0.845654 -2.56544,-0.389618 -3.33265,0.540565 1.10855,-1.152271 1.7871,-1.010904 3.39018,-1.035217 -2.54646,-0.214916 -1.53593,0.03611 -0.96437,0.02733 0.61415,-0.05761 1.23751,0.02556 1.83465,0.03675 0.0482,0.0026 0.005,0.0066 0.007,0.0099 3.80674,0.998 2.39535,6.381549 -1.41139,5.383549 v 0 c -0.0527,0.0049 -0.0258,0.0021 -0.0805,0.0088 -0.0653,0.0024 -0.26023,0.0195 -0.19492,0.01984 0.47598,0.0026 0.95197,0.0031 1.42796,0.0046 -0.006,0.0011 -0.0114,0.0019 -0.0171,0.0029 -0.70604,0.09521 -1.3426,0.189566 -2.10337,0.06793 1.4791,-0.02891 1.60439,0.145164 2.50011,-0.862653 -1.15274,1.275393 -2.77584,1.473833 -4.32027,0.659443 -1.26429,-0.740995 0.12209,0.134297 2.51177,0.135289 0.22371,9.3e-5 0.39421,-0.213249 0.5792,-0.339042 0.0181,-0.01233 0.30724,-0.209146 0.35646,-0.329854 -0.35429,0.316018 -0.65694,0.697495 -0.95235,1.093155 -0.56983,0.566566 -0.35148,0.357529 -0.088,-0.05933 -0.20851,0.446312 -0.49207,0.855906 -0.85537,1.196576 -0.71264,0.622006 0.0877,-0.277789 -0.35923,0.405513 -0.44622,0.740609 -0.98509,1.414272 -1.68708,1.931672 -0.36771,0.23745 -0.78285,0.40596 -1.08826,0.72179 -0.88004,1.03478 -1.84747,1.97477 -3.13666,2.48744 -1.1915,0.36223 -1.97816,0.40168 -3.32266,0.33146 -0.40466,-0.0211 0.81416,0.0161 1.21484,-0.0443 0.0981,-0.0148 -0.28532,-0.30111 0.007,-0.29761 0.0177,-0.0474 0.0758,-0.0971 0.0529,-0.14214 -0.0299,-0.0589 -0.15987,0.0515 -0.4386,0.22761 -1.52462,0.9634 -1.8709,0.98513 -3.96554,0.73218 -2.0059,-0.35521 -3.97842,-1.02702 -5.379798,-2.58667 -3.208028,-2.561114 0.413925,-7.097951 3.621958,-4.536845 z"
       inkscape:connector-curvature="0" />
    <path
       style="fill:#000000;fill-opacity:1;stroke:none;stroke-width:0.26458332;stroke-opacity:1"
       id="path896"
       d="m 122.70549,97.666862 c 2.3193,-0.440764 4.57799,0.171466 6.60656,1.286711 0.65707,0.365874 1.1726,0.897686 1.65767,1.459887 0.007,0.008 -0.0166,-0.0136 -0.0232,-0.022 -0.0688,-0.0883 -0.13503,-0.17852 -0.20255,-0.26779 -0.002,-0.0583 -0.0535,-0.140119 -0.007,-0.174901 0.36797,-0.273224 2.09926,0.158521 2.51514,0.274671 0.70604,0.12612 1.30214,0.55202 1.96718,0.77972 0.14345,-0.29053 0.61313,-0.19754 0.92893,-0.22445 0.11989,-0.0105 0.23966,-0.0225 0.35967,-0.0315 0.22115,-0.0166 2.33373,-0.0381 1.24037,-0.075 -0.35875,-0.0121 -0.7179,-0.001 -1.07685,-0.002 -0.14391,-1.4e-4 0.28783,5.3e-4 0.43175,7.9e-4 1.1788,0.0743 2.35769,0.0746 3.53869,0.0779 0.56658,0.0639 1.71374,0.0154 -0.86223,0.052 -0.10787,0.002 0.21777,0.003 0.32296,-0.0209 0.72665,-0.32012 1.42497,-0.69854 2.14062,-1.041496 0.58065,-0.257482 1.09361,-0.578591 1.53501,-1.032664 0.51197,-0.540409 0.94855,-1.144103 1.44116,-1.703945 0.58029,-0.626653 1.30078,-1.063305 2.03898,-1.473534 0.59415,-0.267922 1.18515,-0.5314 1.76141,-0.837237 0.53672,-0.253166 1.0803,-0.562205 1.67508,-0.654224 0.64586,-0.363556 1.24488,-0.805405 1.94632,-1.082826 0.48834,-0.213916 0.97471,-0.395539 1.50214,-0.373557 0.0423,0.02985 0.0635,0.06298 0.12203,0.02677 0.58385,-0.361 1.09559,-0.650679 1.76453,-0.821555 0.12261,-0.01831 0.24395,-0.05053 0.36784,-0.05496 0.77045,-0.02754 1.54177,-0.04558 2.3126,-0.03252 0.24139,0.0041 0.96414,0.03269 0.72296,0.0435 -0.42131,0.01889 -0.84339,0.01172 -1.26508,0.01757 0.35118,0.169614 0.61764,0.119248 0.98859,0.03977 0.10057,-0.02326 0.19867,-0.06356 0.30171,-0.06976 0.62893,-0.03782 1.25987,-0.03118 1.88919,-0.06199 0.67917,-0.03326 1.33092,-0.09874 2.01424,-0.06694 0.78321,0.05266 1.47334,0.364548 2.16705,0.70108 0.0433,0.01027 0.0928,0.05533 0.12984,0.03076 0.03,-0.0199 -0.01,-0.07139 -0.0146,-0.10709 0.0438,-0.02947 0.0809,-0.07284 0.13137,-0.08842 0.34345,-0.106114 0.75056,-0.04565 1.09906,-0.02056 0.69291,0.03664 1.18141,0.410178 1.74092,0.756243 0.12604,0.101727 0.4802,0.430919 0.37811,0.305175 -0.12971,-0.159752 -0.34082,-0.242982 -0.46241,-0.409 -0.0331,-0.04518 0.11199,0.0028 0.16784,0.0068 0.38602,0.0277 0.70671,0.07283 1.08622,0.171722 0.74441,0.161232 1.29566,0.554647 1.76307,1.121836 -6.41955,9.162922 0.1075,4.489689 0.55485,3.423645 0.30233,-0.720458 0.097,-1.560999 0.0889,-2.342279 -0.005,-0.461156 -0.34328,-0.638392 0.28441,-0.441405 1.75012,0.958834 0.35976,2.081176 1.26424,4.512358 0.15196,0.408443 0.31585,-0.812345 0.47377,-1.218517 0.0331,-1.938322 0.0317,0.01077 -0.0266,-1.09818 -0.003,-0.05201 0.0569,-0.109239 0.0294,-0.153456 -0.095,-0.152685 -0.23669,-0.222932 -0.38131,-0.323238 -0.23395,-0.09575 -0.49461,-0.142497 -0.70186,-0.287245 -0.14405,-0.100613 0.3423,0.08448 0.50534,0.149987 0.25767,0.103518 0.49944,0.243165 0.75332,0.355668 0.34049,0.15089 0.69827,0.253106 1.04055,0.400799 0.0738,0.03258 0.19175,0.0227 0.2215,0.09772 0.11858,0.298961 -0.40462,1.107739 -0.42676,1.15189 2.10368,1.175261 0.44161,4.150305 -1.66207,2.975045 v 0 c -0.65181,0.58133 -0.91798,1.08396 -1.77722,0.62416 -0.11976,-0.0688 -0.24286,-0.13199 -0.35929,-0.20625 -1.64737,-1.05074 1.97245,0.7549 -0.62943,-0.34651 -1.48463,-0.77521 -2.32749,-1.944675 -2.36634,-3.679019 0.16622,-0.525018 0.22535,-2.053158 0.49864,-1.575054 0.61708,1.079529 0.48601,2.439263 0.69594,3.664868 0.049,0.286085 -0.92719,-0.250425 -0.99218,-0.265538 -1.43314,-0.980792 -2.40435,-2.349833 -1.71243,-4.339728 0.36682,-1.054944 6.73634,-6.026687 1.00672,3.195886 0.0516,0.07102 0.14638,0.125699 0.15464,0.213064 0.0188,0.198832 -1.38735,-0.24902 -1.43524,-0.308089 -0.5905,-0.285173 -1.00025,-0.645218 -1.53616,-1.017899 -0.12025,-0.08363 0.2266,0.185655 0.3399,0.278482 0.14319,0.09125 0.30046,0.163464 0.42957,0.273743 0.0484,0.04135 -0.10482,0.07564 -0.16519,0.09587 -0.26304,0.08814 -0.54532,0.08425 -0.8181,0.06729 -0.81775,-0.08786 -1.58741,-0.296553 -2.31711,-0.686596 0.0309,0.05827 0.10183,0.09159 0.12499,0.153331 0.0705,0.187971 -0.87656,0.219734 -0.92725,0.241128 -0.51199,0.01805 -1.01765,0.02111 -1.52835,-0.031 -0.14776,-0.01508 -0.5877,-0.03392 -0.4415,-0.06013 0.37501,-0.06722 0.76435,-0.0087 1.14111,-0.06527 0.0858,-0.01289 -0.16733,-0.04566 -0.251,-0.06848 -0.34619,-0.134381 -0.65749,0.07761 -1.01169,0.142942 -0.62463,0.007 -1.24926,0.01389 -1.87389,0.02085 -0.11877,0.0028 -0.23751,0.0066 -0.3563,0.0084 -0.38599,0.0059 -1.05108,0.0031 -0.73653,-0.01902 0.39276,-0.02758 0.78868,0.0016 1.18065,-0.03547 0.0816,-0.0077 -0.15995,-0.03573 -0.23993,-0.05359 -0.0369,-0.02677 -0.0968,-0.03691 -0.11081,-0.08032 -0.0116,-0.0359 1.14134,-1.048009 0.33687,-0.266184 -0.64891,0.555199 -1.3778,0.949044 -2.22154,1.123754 -0.13274,0.03515 -0.38482,0.145751 -0.5509,0.07894 -0.18889,-0.07599 0.0116,-0.267761 -0.427,0.151887 -0.64027,0.535334 -1.34577,0.983038 -2.15812,1.208847 -0.60866,0.225949 -1.17793,0.556105 -1.80277,0.731655 -0.27934,0.0499 -0.50991,0.26043 -0.78968,0.27507 -0.031,-0.1257 -0.17669,0.19108 -0.24661,0.30003 -0.2519,0.39247 -0.47187,0.80386 -0.74885,1.18025 -0.82222,1.02475 -1.74061,1.9618 -2.91868,2.57733 -0.99813,0.52495 -2.04307,0.96075 -3.12583,1.27935 -1.24919,0.37998 -2.40386,0.42943 -3.72727,0.41229 2.67015,0.0105 0.0709,0.0133 -0.5284,0.0959 -1.36457,0.0167 -2.73531,0.0609 -4.0898,-0.13612 -0.67745,-0.099 -1.3535,-0.18606 -2.00173,-0.4235 -0.63365,-0.16811 -1.29868,-0.16551 -1.93483,-0.33211 -0.85196,-0.15981 -1.69937,-0.39148 -2.46628,-0.8045 -0.25815,-0.1726 -0.7436,-0.59698 -1.10047,-0.6543 -0.26991,-0.0433 -0.61872,0.19921 -0.87897,0.002 -1.78922,-0.18467 -3.63326,-0.39227 -5.26718,-1.19121 -3.78815,-1.27349 -1.98716,-6.630742 1.80098,-5.357254 z"
       inkscape:connector-curvature="0" />
    <path
       style="fill:#000000;fill-opacity:1;stroke:none;stroke-width:0.26458332;stroke-opacity:1"
       id="path900"
       d="m 94.347775,46.741701 c -1.024266,-2.339901 -0.610219,-4.892333 -0.105582,-7.303966 0.474154,-1.77973 1.175946,-3.490573 2.263272,-4.982403 0.756997,-0.841454 1.662084,-1.902608 2.879685,-1.960139 0.399138,0.474187 1.00891,0.863484 1.48316,1.23915 1.13317,-0.733597 2.17064,0.868955 1.03746,1.602552 v 0 c 0.10149,1.022707 0.27548,1.323668 -0.55624,1.969564 -0.30592,0.124769 -0.0284,0.0191 0.15747,-0.116565 0.37023,-0.270301 0.56143,-0.649812 0.26122,-0.0319 -0.55571,1.118131 -1.11435,2.237935 -1.3822,3.469698 -0.521042,2.001999 -0.73427,4.121184 -1.657375,5.990121 0.0876,3.097745 -4.293269,3.22163 -4.38087,0.123886 z"
       inkscape:connector-curvature="0" />
    <path
       style="fill:#000000;fill-opacity:1;stroke:none;stroke-width:0.26458332;stroke-opacity:1"
       id="path902"
       d="m 154.91987,79.127415 c -1.19162,-2.593083 -1.19769,-5.464453 -0.87153,-8.242025 0.0928,-1.142462 0.72429,-2.153382 0.92853,-3.264569 0.0819,-0.445508 0.0401,-0.647494 0.0122,-1.10277 -0.26159,-1.868744 -0.30673,-3.756387 -0.20796,-5.63808 0.11289,-0.939909 0.23284,-1.87742 0.34086,-2.818326 0.19117,-1.12032 0.58449,-2.193671 0.89205,-3.285773 0.22509,-0.931357 0.48251,-1.855102 0.6977,-2.788719 0.20567,-0.69432 0.16889,-1.411134 0.1288,-2.123686 -0.0601,-0.800494 -0.11202,-1.615612 0.0693,-2.404338 0.0732,-0.348723 0.20093,-0.747635 0.19913,-1.096679 -0.002,-0.292521 -0.1045,0.368107 -0.1687,0.757304 -0.16496,0.389022 -0.60092,-0.983597 -0.631,-1.082265 -0.0336,-0.244253 -0.2055,-0.7233 0.0617,-0.238885 -0.28742,-0.367913 -0.32146,-0.813898 -0.45795,-1.239432 -0.0247,-0.07687 0.0145,0.160872 0.0257,0.240818 0.0257,0.18319 0.0317,0.166809 0.10052,0.347557 0.0516,0.101346 0.10328,0.202692 0.15492,0.304038 -1.90166,-3.324418 2.79978,-6.013767 4.70144,-2.689347 v 0 c 0.0605,0.113734 0.12091,0.22747 0.18137,0.341207 0.0526,0.127849 0.60083,1.595699 0.22334,0.856684 -0.14866,-0.291029 -0.11446,-0.696733 -0.35466,-0.959144 0.28309,0.461018 0.6126,0.893863 0.82564,1.395312 0.31112,0.724445 0.47148,1.4844 0.47276,2.274752 -0.0132,0.201168 -0.0106,0.404006 -0.0396,0.603502 -0.0248,0.170315 -0.0321,0.649078 -0.12131,0.501877 -0.0976,-0.161141 0.0593,-0.372139 0.087,-0.558509 0.006,-0.03839 -0.006,-0.08179 0.0132,-0.115681 0.0311,-0.0557 0.13716,0.410266 0.0895,0.169098 0.27391,0.871908 0.25754,1.79977 0.20351,2.702748 -0.076,0.950386 -0.2378,1.885831 -0.38211,2.827457 -0.14974,1.125458 -0.27786,2.255141 -0.65173,3.336102 -0.14917,0.473776 -0.78145,2.512266 -1.30281,2.658776 -0.19935,0.3522 0.41282,1.470864 0.33299,1.893705 0.27028,2.115415 0.31349,4.269685 -0.2127,6.353747 -0.32959,1.415968 -0.82839,2.800675 -0.92197,4.262239 -0.16429,2.484482 0.049,5.022109 -0.53544,7.459374 0.25592,2.745462 -3.62674,3.107393 -3.88267,0.361931 z"
       inkscape:connector-curvature="0" />
    <path
       style="fill:#000000;fill-opacity:1;stroke:none;stroke-width:0.26458332;stroke-opacity:1"
       id="path904"
       d="m 74.09318,47.490192 c -0.667684,-2.503911 -0.163041,-5.059993 0.505733,-7.501957 0.495749,-1.701911 1.204738,-3.326921 1.928,-4.941101 0.53563,-1.04026 1.005059,-2.112 1.493684,-3.174635 0.672124,-1.478597 1.672844,-2.741245 2.822842,-3.872333 0.83525,-0.710716 1.207942,-1.095679 2.326217,-1.006668 1.950064,-1.606904 4.22257,1.1509 2.272506,2.757807 v 0 c 0.09379,0.05765 0.214611,0.08541 0.281361,0.172953 0.263257,0.345284 -0.612342,1.003247 -0.732039,1.218907 -0.828516,0.903694 -1.631855,1.833038 -2.303441,2.862124 -0.57132,0.799473 -0.966589,1.671577 -1.189358,2.63185 -0.482518,1.489623 -0.917226,2.991792 -1.242282,4.52478 -0.508381,2.307606 -1.031208,4.635066 -2.184974,6.723769 -0.27966,2.813047 -4.257908,2.417548 -3.978249,-0.395496 z"
       inkscape:connector-curvature="0" />
    <path
       style="fill:#000000;fill-opacity:1;stroke:none;stroke-width:0.26458332;stroke-opacity:1"
       id="path910"
       d="m 79.3297,83.321725 c 1.207947,1.955771 1.77474,4.224475 2.432642,6.406888 0.538917,1.970791 1.670963,3.666421 2.732225,5.382847 1.538444,2.281129 2.906207,4.666165 4.012796,7.18537 0.497601,1.2522 1.059373,2.5286 1.196625,3.88367 -0.0043,0.0597 0.02088,0.12958 -0.01286,0.17895 -0.01704,0.0249 -0.0477,-0.0417 -0.07743,-0.0469 -0.569174,-0.098 -1.135517,-0.27807 -1.71282,-0.26129 -0.247557,0.007 0.455697,0.19414 0.683546,0.2912 0.373637,-0.32554 0.83402,0.20286 0.460383,0.52841 v 0 c 0.08981,0.18246 0.463852,0.48775 0.269423,0.5474 -2.078625,0.63764 -1.588694,0.32912 -2.32822,-0.26799 -0.922991,-0.94228 -1.592609,-2.11162 -2.338456,-3.18854 -1.442019,-2.31326 -2.744819,-4.709935 -3.856678,-7.2005 -0.93499,-1.970045 -1.931173,-3.910476 -2.828639,-5.898108 -0.910297,-2.193099 -1.782726,-4.527589 -1.589839,-6.941113 -0.424495,-2.091132 2.532814,-2.691456 2.957309,-0.600324 z"
       inkscape:connector-curvature="0" />
    <path
       style="fill:#000000;fill-opacity:1;stroke:none;stroke-width:0.26458332;stroke-opacity:1"
       id="path912"
       d="m 164.47797,94.490827 c 0.16573,-2.664693 1.24119,-5.200314 2.38923,-7.580902 0.22033,-0.729517 1.19772,-1.611392 0.94932,-2.421049 -0.42362,-1.280078 -0.5615,-2.601391 -0.54789,-3.942302 0.17911,-3.268398 -0.12755,-2.219775 4.57663,-1.718043 -0.31565,2.081702 -0.73611,1.017773 -4.43117,0.823238 -0.0817,-0.0043 -0.0395,-0.158917 -0.054,-0.239432 -0.0416,-0.230301 -0.0439,-0.463674 -0.0576,-0.69682 1.47453,-0.116517 2.94765,-0.446595 4.42359,-0.349554 0.22417,0.01474 0.12053,0.432972 0.17182,0.651695 0.27954,1.192075 0.35005,2.372093 0.37076,3.592505 0.0424,2.211212 -0.0403,4.419544 -0.33416,6.611593 -0.3008,1.53203 -0.65944,3.150857 -1.65262,4.405373 -0.17087,0.215834 -0.37712,0.40113 -0.56568,0.601695 -1.16849,0.944837 -1.67097,0.988157 -3.29113,0.911209 -0.35216,-0.01672 -0.69361,-0.216326 -1.10675,-0.220263 0.63394,-0.02238 -1.19989,0.07031 -0.63987,0.113186 1.72477,0.132067 0.66867,-0.0037 0.2486,0.0046 -1.75588,0.487056 -3.67275,-4.409519 -1.81395,-4.207854 0.19083,-0.03757 1.24136,0.775007 -0.49165,0.424934 -0.19237,-0.03886 0.27599,-0.279572 0.42347,-0.409064 0.29984,-0.263274 0.50533,-0.383133 0.8389,-0.604766 0.8699,-0.564396 1.8018,-1.073182 2.50619,-1.847342 0.43089,-0.614416 0.58311,-1.364282 0.78722,-2.073574 0.22491,-0.678969 0.38223,-1.393518 0.71669,-2.030346 0.16815,-0.355778 0.34031,-0.70199 0.56891,-1.023808 1.3401,0.679524 2.63185,1.464233 4.02027,2.038569 0.13058,0.05402 0.0478,-0.475321 0.16179,-0.391842 0.25699,0.188166 0.40414,0.965874 0.4794,1.201338 0.49221,1.801743 0.46342,3.652517 0.14827,5.477047 -0.40132,1.813925 -1.24422,3.484231 -2.21246,5.055986 -0.18085,0.263967 -0.3635,0.559996 -0.58911,0.793274 -0.0371,0.03835 -0.19523,0.198792 -0.28849,0.104081 -0.0309,-0.03142 -0.006,-0.170621 -0.0237,-0.130145 -0.0736,0.170391 -0.10106,0.3572 -0.15159,0.535802 -1.1177,2.197584 -1.52954,0.45471 -3.81971,-1.394971 0.34214,-0.08798 0.68428,-0.175969 1.02642,-0.263953 0.11158,-1.276927 1.91743,-1.119137 1.80585,0.157789 v 0 c 0.30343,0.2838 0.60686,0.567598 0.91029,0.851395 -1.43811,-0.740222 -3.03731,-2.744055 -3.70212,-0.919303 -0.03,0.138092 -0.0251,0.288782 -0.0901,0.414272 -0.0353,0.06813 5.3e-4,-0.15362 -0.005,-0.230135 -0.0488,-0.646388 0.0679,-1.257967 0.32282,-1.861341 0.52381,-1.25757 1.21483,-2.459474 1.5285,-3.793358 0.15853,-1.309335 0.11444,-2.625997 0.0524,-3.941519 -0.048,-0.755274 -0.17672,-1.53217 -0.10321,-2.289736 0.0256,-0.264353 -0.13408,-0.838708 0.12638,-0.786701 1.46591,0.292714 2.7813,1.096661 4.17195,1.644994 0.14007,-0.198689 0.29141,-0.568833 0.1672,-0.04217 -0.11217,0.655143 -0.32819,1.288521 -0.49215,1.93181 -0.33265,1.220179 -0.56475,2.480051 -1.26486,3.562678 -1.02247,1.442472 -2.21759,2.545856 -3.88276,3.212611 -0.19325,0.06791 -0.82282,0.330446 -1.09412,0.296553 -0.0646,-0.0081 -0.0636,-0.170699 -0.12526,-0.149762 -0.32516,0.110482 -0.60102,0.33243 -0.90154,0.498647 0.0656,0.04549 0.0531,0.01635 -0.016,0.09374 -1.66216,0.686723 -3.16095,-4.318259 -1.08614,-4.219538 1.22079,-0.145404 2.4836,-0.244755 3.66633,0.155022 1.69736,0.597839 -0.62432,-0.285054 -1.08384,0.734261 0.35811,-0.918205 0.46573,-1.916533 0.60074,-2.885434 0.18034,-2.05617 0.0873,-4.120293 0.21262,-6.17964 0.0401,-0.84694 0.0878,-1.681875 0.21491,-2.520794 0.0259,-0.170654 0.0964,-0.607796 0.12866,-0.615649 1.4134,-0.344146 2.84973,-0.586174 4.27459,-0.87926 -0.008,-0.134779 -0.0252,-0.269314 -0.0243,-0.404331 5.3e-4,-0.102119 0.10494,0.02842 0.0902,0.0302 -5.86649,0.706192 -3.55401,-0.904129 -4.17336,0.75202 1.42365,0.01669 2.84722,0.05727 4.27096,0.05011 0.0295,-1.48e-4 0.0311,-0.09304 0.0516,-0.07184 0.239,0.247287 -0.0194,1.335003 0.0991,1.638355 0.0278,1.194483 -0.0889,2.379777 -0.0692,3.571886 0.0718,1.470872 0.002,2.938476 -0.46621,4.35088 -0.89157,2.501923 -2.07355,4.952013 -3.82367,6.972749 -0.65729,2.140427 -3.68431,1.210882 -3.02702,-0.929544 z"
       inkscape:connector-curvature="0" />
    <path
       style="fill:#000000;fill-opacity:1;stroke:none;stroke-width:0.26458332;stroke-opacity:1"
       id="path914"
       d="m 170.22863,39.501497 c -0.99337,-1.52228 -1.35911,-3.329582 -2.02637,-4.998775 -0.25301,-0.695502 -0.85486,-1.058037 -1.2787,-1.639353 -0.55891,-0.853795 -1.09132,-1.723379 -1.6815,-2.556232 0.0358,-0.04431 -0.90719,-1.15084 -0.51336,-0.615762 -0.3787,-0.212241 -0.71893,-0.754769 -0.91987,-1.025801 -0.67504,-0.944033 0.21606,0.213183 0.3372,0.339577 1.1832,-1.3673 2.32159,-2.774686 3.54958,-4.101901 0.21092,-0.227962 1.96984,0.649572 2.17817,0.777924 0.25608,0.157773 0.49087,0.347741 0.7363,0.521611 1.53177,1.215292 2.43978,2.888589 2.92724,4.750361 0.16956,0.80694 0.22239,1.633191 0.2691,2.454921 0.0727,-0.0044 -0.0304,0.09607 -0.0419,0.07108 -0.84584,-1.83764 0.4504,-0.892488 -4.36245,-1.055976 -0.12546,-0.0043 -0.47175,0.692372 -0.48293,0.712713 -0.0567,0.05446 -0.0926,0.176824 -0.16999,0.163378 -0.16475,-0.02861 -0.61122,-0.669462 -0.69018,-0.775478 -0.51881,-0.696513 -0.99705,-1.421186 -1.4914,-2.134992 -0.52737,-0.798232 -1.03921,-1.605521 -1.4937,-2.446665 -0.4426,-0.484127 -0.91325,-0.937988 -1.3413,-1.435606 -0.40337,-0.514084 -0.71021,-1.096323 -0.9146,-1.71585 -0.0289,-0.117731 -0.18397,-0.425533 -0.0867,-0.353191 0.12579,0.09355 0.083,0.315745 0.19016,0.43013 0.50041,0.533993 1.18026,0.899982 1.61085,1.491721 0.14173,0.194778 -0.46199,-0.138006 -0.68747,-0.222768 -0.25275,-0.09501 -0.52035,-0.242057 -0.76192,-0.368291 -0.31465,-0.17482 -1.65541,-1.441186 -1.32698,-1.766192 4.08709,-4.044448 3.56758,-4.713077 4.67019,-2.999154 0.31286,0.474231 0.59047,0.971644 0.91413,1.43859 0.0219,0.03163 -0.045,-0.102581 -0.009,-0.11513 0.0528,-0.01821 0.10636,0.03654 0.15454,0.06481 0.2243,0.131626 0.4205,0.31761 0.61651,0.483158 1.11598,1.115785 1.85001,2.504906 2.46652,3.939242 0.3035,0.880319 0.80314,1.734309 0.90312,2.673125 -2.65057,-1.410674 5.03118,-3.179406 -4.99915,1.458534 -0.0138,0.0064 -0.0466,-0.224131 -0.0161,-0.05858 -0.0374,-0.07087 -0.0322,-0.208005 -0.11224,-0.212617 -0.026,-0.0016 -0.0397,0.382492 -0.0463,0.39384 -0.12188,0.210527 -0.70537,-0.463409 -0.75731,-0.509939 -0.48595,-0.463619 -0.91847,-0.99459 -1.52437,-1.304531 -0.67842,-0.132119 -1.23891,-0.621932 -1.75636,-1.049806 -0.2996,-0.312462 -0.5471,-0.659918 -0.75732,-1.036576 -0.0341,-0.06116 -0.0642,-0.124598 -0.0993,-0.185169 -0.005,-0.0088 -0.0231,-0.03192 -0.021,-0.02201 0.008,0.03742 0.0264,0.0719 0.0395,0.107849 0.44726,0.748896 0.0498,0.238787 -0.22083,0.104286 -0.15562,-0.163851 -0.65372,-0.803779 -0.10843,-0.46224 -0.27779,-0.334554 -0.63615,-0.915097 -0.57752,-1.362608 0.0448,-0.341679 0.28381,-0.628046 0.42572,-0.94207 -0.6591,-1.7608 1.83105,-2.692913 2.49015,-0.932113 v 0 c 1.36545,-0.721217 0.34148,0.03655 0.7864,-0.741997 0.0468,-0.08192 0.20401,-0.0491 0.23482,-0.158069 0.11477,0.06334 1.1366,0.836606 0.96045,0.383096 0.39592,0.325915 0.84548,0.586528 1.08592,1.098148 0.21547,0.363542 0.42286,0.716148 0.0909,0.136104 -0.24933,-0.248493 1.42581,0.599146 1.28801,0.547508 1.03569,0.654022 1.95541,1.462968 2.66681,2.468258 0.34441,0.525762 1.02542,1.494907 0.94999,2.141813 -0.005,0.04133 -0.0513,-0.06556 -0.0769,-0.09834 0.021,0.06169 0.26269,0.659726 0.22217,0.685927 -4.1611,2.69104 -3.42567,3.686067 -5.14329,1.516542 -0.61901,-0.705776 -0.95382,-1.61629 -1.43518,-2.413056 -0.6134,-1.053587 -1.32299,-2.044279 -1.96446,-3.080505 -0.43637,-0.83209 -1.42847,-3.089323 0.037,-0.378873 -1.61088,1.259947 3.84799,-3.009105 4.08077,-3.263567 0.20163,-0.220422 -0.24042,-0.547867 -0.38484,-0.809371 -0.0827,-0.149823 -0.22022,-0.227346 -0.26247,-0.386772 -0.1634,-0.09937 -0.6693,-0.346986 -0.53263,-0.213215 0.5585,0.546656 1.24482,0.951241 1.80538,1.495787 0.12122,0.117764 0.11142,0.324114 0.20962,0.461664 0.0445,0.06232 -0.0276,-0.150641 -0.0413,-0.225962 0.3261,0.161551 0.46166,0.713816 0.70441,0.962244 0.18682,0.316052 0.30878,0.668252 0.51418,0.890318 1.15728,0.731938 2.13705,1.685455 2.9594,2.781571 1.2798,1.86758 2.30894,3.884525 2.21903,6.212816 -0.0179,0.07063 -0.34095,1.813888 -0.74519,1.866937 -3.6022,0.472721 -4.23469,0.937752 -4.88998,-1.325634 -0.16457,-0.517207 -0.34822,-1.013724 -0.63724,-1.479402 -0.40704,-0.773975 -0.79203,-1.588206 -1.5063,-2.130062 -2.93108,-1.891506 -2.67859,-0.281437 1.16837,-5.43679 0.32265,0.325342 0.53832,0.604547 0.77721,0.984986 0.0336,0.05346 -0.0776,-0.123094 -0.0807,-0.171305 0.0283,0.04542 0.0533,0.09313 0.085,0.136257 0.007,0.0094 -0.003,-0.02395 -0.01,-0.03369 -0.0661,-0.10008 -0.13019,-0.202252 -0.20714,-0.294277 -0.47952,-0.573468 -0.2824,-0.266965 0.0312,-0.148999 0.85837,0.589603 1.52622,1.398103 2.02236,2.310886 0.40342,0.76341 0.77931,1.534171 1.05309,2.354636 0.72741,0.874252 1.31609,1.850154 1.72087,2.916452 0.63012,1.953164 1.09755,4.042677 0.49243,6.064585 0.28417,2.440432 -3.16713,2.842311 -3.4513,0.401879 z"
       inkscape:connector-curvature="0" />
  </g>
</svg>
