<?xml version="1.0" encoding="UTF-8" standalone="no"?>
<!-- Created with Inkscape (http://www.inkscape.org/) -->

<svg
   xmlns:dc="http://purl.org/dc/elements/1.1/"
   xmlns:cc="http://creativecommons.org/ns#"
   xmlns:rdf="http://www.w3.org/1999/02/22-rdf-syntax-ns#"
   xmlns:svg="http://www.w3.org/2000/svg"
   xmlns="http://www.w3.org/2000/svg"
   xmlns:sodipodi="http://sodipodi.sourceforge.net/DTD/sodipodi-0.dtd"
   xmlns:inkscape="http://www.inkscape.org/namespaces/inkscape"
   width="1024"
   height="2048"
   viewBox="0 0 270.93334 541.86666"
   version="1.1"
   id="svg8"
   inkscape:version="0.92.4 (5da689c313, 2019-01-14)"
   sodipodi:docname="bow.svg"
   inkscape:export-filename="C:\Users\panu-\PycharmProjects\nextgame\data\images\bow.png"
   inkscape:export-xdpi="10.923292"
   inkscape:export-ydpi="10.923292">
  <defs
     id="defs2" />
  <sodipodi:namedview
     id="base"
     pagecolor="#ffffff"
     bordercolor="#666666"
     borderopacity="1.0"
     inkscape:pageopacity="0.0"
     inkscape:pageshadow="2"
     inkscape:zoom="0.46504138"
     inkscape:cx="274.09943"
     inkscape:cy="1050.1033"
     inkscape:document-units="mm"
     inkscape:current-layer="layer1"
     showgrid="false"
     units="px"
     width="1024px"
     inkscape:window-width="1920"
     inkscape:window-height="1017"
     inkscape:window-x="-8"
     inkscape:window-y="-8"
     inkscape:window-maximized="1" />
  <metadata
     id="metadata5">
    <rdf:RDF>
      <cc:Work
         rdf:about="">
        <dc:format>image/svg+xml</dc:format>
        <dc:type
           rdf:resource="http://purl.org/dc/dcmitype/StillImage" />
        <dc:title></dc:title>
      </cc:Work>
    </rdf:RDF>
  </metadata>
  <g
     inkscape:label="lines"
     inkscape:groupmode="layer"
     id="layer1"
     transform="translate(0,244.86668)"
     style="display:inline">
    <path
       style="fill:#000000;fill-opacity:1;stroke:none;stroke-width:0.26458332;stroke-opacity:1"
       id="path894"
       d="m 107.98001,-144.3176 c 2.49045,0.71153 4.6527,2.30149 6.31391,4.26954 0.3397,0.40246 0.63395,0.84118 0.95092,1.26177 1.54677,2.58131 2.79855,5.32093 4.27195,7.94534 2.05572,3.34483 3.96297,6.77224 5.81422,10.23309 2.06615,4.05601 4.30559,8.01739 6.86959,11.77945 2.62698,3.64088 5.76541,6.8951 8.14813,10.717152 0.58697,0.941536 1.09521,1.929919 1.64282,2.894881 3.46493,6.548387 4.87535,13.839991 6.23138,21.046794 1.33998,7.625709 3.10206,15.164406 4.50626,22.777987 1.62987,8.675224 2.06352,17.491328 2.17368,26.296842 0.0681,8.925067 -0.25262,17.8448884 -0.65132,26.7590739 -0.3628,8.4100541 -0.77486,16.8151731 -1.51598,25.2010811 -0.79108,8.309292 -2.46411,16.492166 -4.23963,24.636094 -1.7831,7.831852 -3.65476,15.64341 -5.60306,23.435733 -1.7874,7.308956 -3.66262,14.594284 -5.77915,21.815107 -2.03776,6.703515 -4.63172,13.214645 -7.27223,19.697755 -1.6292,3.97806 -3.16151,8.00028 -4.97021,11.90246 -1.02469,2.21073 -1.77735,3.63213 -2.88379,5.79642 -2.51539,4.61912 -5.23827,9.12156 -7.96735,13.61651 -1.78862,2.93328 -3.68246,5.79996 -5.51174,8.70755 -1.50487,2.58135 -3.10676,5.0955 -4.8921,7.49149 -1.29118,1.62594 -2.48401,3.31793 -3.53778,5.1063 -1.049715,1.99549 -2.175242,3.94089 -3.42285,5.81901 -1.238586,1.84409 -2.686347,3.53239 -4.083902,5.25507 -1.255504,1.57348 -2.481001,3.17048 -3.692962,4.77763 -0.821459,1.05802 -1.565343,2.1703 -2.314112,3.27944 -0.508203,0.79708 -1.069139,1.5527 -1.813951,2.14066 -0.208923,0.21529 -0.501071,0.23109 -0.750324,0.35081 -0.161399,0.12896 -0.282017,0.29086 -0.408612,0.45119 -0.158978,0.13748 -0.322622,0.035 -0.498353,-0.0259 -0.256225,0.44767 -0.889352,0.0853 -0.633127,-0.36235 v 0 c -0.125309,-0.0777 -0.328755,-0.14473 -0.304369,-0.32348 0.05681,-0.22601 0.226563,-0.38452 0.310576,-0.59259 0.111866,-0.39918 0.371761,-0.71834 0.689547,-0.97875 0.532992,-0.45288 0.83753,-1.09217 1.143719,-1.7083 0.589198,-1.26011 1.243944,-2.48584 2.006598,-3.65096 1.095015,-1.75787 2.321348,-3.42604 3.625932,-5.03436 1.31641,-1.67508 2.649574,-3.3418 3.824472,-5.12138 1.209146,-1.85299 2.350241,-3.74671 3.459247,-5.66105 1.088488,-1.8142 2.241585,-3.58741 3.358811,-5.38383 1.5331,-2.50737 3.01086,-5.04814 4.56864,-7.54049 1.77917,-2.84477 3.47765,-5.73526 4.87702,-8.79091 2.29231,-4.64696 4.59958,-9.28603 6.93862,-13.90968 2.82437,-5.63668 5.46432,-11.36819 7.61479,-17.30065 2.36702,-6.43927 4.70332,-12.89328 6.7597,-19.439837 2.14863,-7.115598 4.05183,-14.300385 5.62962,-21.565711 1.77376,-7.793858 3.69564,-15.552552 5.46354,-23.347653 1.6962,-7.950914 3.24211,-15.941993 4.10645,-24.03311 0.8341,-8.281955 1.18253,-16.5906284 1.28433,-24.9134781 0.27208,-8.8301617 0.69332,-17.6560979 0.82378,-26.4900269 -0.10422,-8.556456 -0.66905,-17.092867 -1.87412,-25.570437 -1.00722,-7.625403 -2.16534,-15.229252 -3.53652,-22.79836 -1.23049,-6.810004 -2.48518,-13.686784 -5.31426,-20.051505 -1.12754,-2.30477 -1.44989,-3.101182 -2.77084,-5.271717 -1.79868,-2.955525 -4.00802,-5.635495 -5.91523,-8.518145 -2.51723,-3.91333 -4.81088,-7.95688 -6.77627,-12.17859 -1.66288,-3.51523 -3.37219,-7.00766 -5.19628,-10.4426 -1.28796,-2.57783 -2.32934,-5.30951 -3.97611,-7.68462 -0.29674,-0.35263 -0.57656,-0.72023 -0.89023,-1.05789 -1.60294,-1.7255 -3.61007,-3.00364 -5.24291,-4.69428 -0.721,-0.5879 0.11042,-1.60755 0.83142,-1.01965 z"
       inkscape:connector-curvature="0" />
    <path
       style="fill:#000000;fill-opacity:1;stroke:none;stroke-width:0.26458332;stroke-opacity:1"
       id="path902"
       d="m 99.044944,195.36945 c 1.357606,-2.74458 3.546556,-4.97681 5.664446,-7.14727 2.18007,-2.101 4.22556,-4.31715 6.07668,-6.71214 1.57814,-2.22789 2.93478,-4.60017 4.44614,-6.87313 1.68227,-2.44213 3.33325,-4.90522 4.97397,-7.37539 1.74474,-2.64589 3.58626,-5.22566 5.43082,-7.8023 1.91552,-2.77379 3.92324,-5.47619 6.06372,-8.08011 2.1613,-2.34773 3.97666,-4.93959 5.61789,-7.6663 1.99997,-3.5374 4.19472,-6.95338 6.4968,-10.29999 2.43575,-3.49507 5.02673,-6.87867 7.37666,-10.43282 2.0651,-3.40783 3.98543,-6.8984 6.05132,-10.30652 1.91498,-2.96167 3.63614,-6.03369 5.16546,-9.20991 1.44114,-2.95365 2.35961,-6.109625 3.27228,-9.254145 1.01382,-3.766979 2.37548,-7.420689 3.84136,-11.030929 1.47632,-3.457442 3.24475,-6.776164 4.74773,-10.221224 1.35368,-3.211354 2.54641,-6.486155 3.64852,-9.791224 0.94792,-2.88544 1.50033,-5.878115 2.02671,-8.863039 0.53827,-2.503117 0.74359,-5.053091 0.9677,-7.597642 0.15733,-2.959418 0.62293,-5.883381 1.15739,-8.793824 0.58174,-2.899516 1.25442,-5.780035 1.79234,-8.688282 0.54681,-2.789819 0.55918,-5.628772 0.42481,-8.455633 -0.12218,-3.030463 -0.28727,-6.057916 -0.36491,-9.090041 -0.11398,-3.1981614 0.20598,-6.3841866 0.3844,-9.5728549 0.14819,-2.76938051 0.0732,-5.5446109 -0.10023,-8.3105413 -0.22358,-3.0827106 -0.58801,-6.1544278 -0.97605,-9.2202738 -0.40309,-3.01834 -0.73916,-6.044523 -1.06208,-9.072229 -0.31686,-2.818778 -0.48831,-5.64936 -0.67244,-8.478732 -0.084,-2.453515 -0.52892,-4.863774 -1.07653,-7.249628 -0.64004,-2.477638 -1.53607,-4.876853 -2.45667,-7.260886 -0.93588,-2.39645 -1.80109,-4.820989 -2.61406,-7.261778 -0.73736,-2.169991 -1.64576,-4.274304 -2.47724,-6.408513 -0.82462,-2.296644 -1.70634,-4.571701 -2.56095,-6.857277 -0.56499,-1.779643 -1.29432,-3.482845 -2.11426,-5.156817 -0.94268,-1.763879 -1.89843,-3.513788 -2.65518,-5.367168 -0.69652,-1.816163 -1.15961,-3.70618 -1.61181,-5.59409 -0.29354,-1.552723 -1.02556,-2.950197 -1.66486,-4.377624 -0.75654,-1.644399 -1.20001,-3.398412 -1.52237,-5.172128 -0.19596,-1.489149 -0.47023,-2.948548 -0.9422,-4.374547 -0.6934,-1.67436 -1.469,-3.31249 -2.14001,-4.99631 -0.71569,-1.82688 -1.2908,-3.70305 -1.95858,-5.54786 -0.69004,-1.86759 -1.50259,-3.68717 -2.38541,-5.47076 -0.96863,-1.87762 -1.92747,-3.7592 -2.85158,-5.65924 -0.87667,-1.92549 -1.94713,-3.74535 -3.10996,-5.50928 -1.17554,-1.63828 -2.52159,-3.14241 -3.79611,-4.70271 -1.07152,-1.46364 -2.21725,-2.8619 -3.50687,-4.13784 -1.28736,-1.22277 -2.58853,-2.42808 -3.79603,-3.73069 -0.91551,-1.10402 -1.90243,-2.13425 -2.97562,-3.08432 -1.00807,-0.86543 -2.13778,-1.57199 -3.21915,-2.34 -1.22039,-0.88507 -2.27875,-1.95916 -3.26288,-3.09454 -0.61068,-0.70679 -1.30507,-1.33327 -1.98884,-1.96725 -0.28096,-0.33512 -0.77748,-0.53075 -0.99879,-0.91892 -0.0787,-0.13806 -0.11187,-0.50115 -0.12884,-0.6158 -0.77059,1.38519 -1.54119,2.77037 -2.31179,4.15556 -6.45616,-2.9594 -2.27094,-12.0898 4.18522,-9.1304 v 0 c -0.5299,1.43711 -1.05979,2.87422 -1.58969,4.31133 0.20127,-0.0886 0.38948,-0.21657 0.6038,-0.26584 0.71347,-0.16403 1.3477,0.39258 1.93218,0.69361 0.9952,0.52697 1.90892,1.1685 2.68046,1.99792 0.95263,0.94603 1.89141,1.91471 2.98109,2.70692 1.12431,0.838 2.30564,1.60147 3.3675,2.52135 1.12666,0.98729 2.15821,2.06505 3.1924,3.1475 1.28877,1.23365 2.65905,2.38076 3.90827,3.65633 1.28638,1.36224 2.44818,2.82632 3.65756,4.25563 1.41488,1.59135 2.85632,3.16742 4.05707,4.93233 1.25456,1.8642 2.36231,3.81369 3.28438,5.86542 0.90637,1.8997 1.82823,3.79171 2.78613,5.66607 0.91497,1.88849 1.77889,3.80361 2.45509,5.79275 0.62082,1.81948 1.17489,3.66366 1.89225,5.44843 0.69518,1.74108 1.43089,3.46932 1.98655,5.262206 0.44131,1.524934 0.75485,3.073397 1.03363,4.635855 0.33285,1.579409 0.74546,3.145559 1.38518,4.632092 0.65242,1.565158 1.36497,3.110063 1.78548,4.760346 0.48986,1.751864 0.97327,3.510327 1.64116,5.204777 0.75147,1.792674 1.63857,3.520035 2.47902,5.27195 0.8204,1.733497 1.60535,3.483398 2.36749,5.243206 0.99684,2.270315 1.92942,4.566433 2.6048,6.956459 0.7269,2.177198 1.60211,4.293968 2.44717,6.427502 0.91726,2.391732 1.75967,4.810895 2.66552,7.207059 0.91031,2.522895 1.76836,5.067938 2.3396,7.692935 0.51316,2.51596 0.87231,5.052658 1.03783,7.61691 0.2334,2.793552 0.4798,5.586179 0.74197,8.377068 0.35286,3.021576 0.8157,6.027361 1.20361,9.044275 0.33774,3.134104 0.6717,6.2728002 0.80725,9.4232812 0.0789,2.8399184 0.0849,5.6804586 0.0515,8.521266 -0.0581,3.1566405 -0.15251,6.3123021 -0.20727,9.4689608 -0.057,3.013554 -0.0623,6.026769 0.10779,9.037386 0.0105,2.98876 -0.0267,5.989082 -0.58379,8.937149 -0.50818,2.928408 -1.16398,5.822553 -1.85432,8.712994 -0.58258,2.841201 -0.94122,5.715158 -1.28066,8.594248 -0.34634,2.560029 -0.70842,5.117836 -1.04872,7.678658 -0.41073,3.127428 -0.83318,6.266418 -1.76594,9.290738 -1.07348,3.395689 -2.30458,6.736292 -3.72734,10.002546 -1.46494,3.440192 -2.95234,6.86988 -4.47155,10.286524 -1.50565,3.512899 -2.9675,7.048368 -4.11806,10.696945 -1.05019,3.215032 -2.04727,6.458424 -3.42976,9.550874 -1.51025,3.25509 -3.19596,6.42152 -5.01218,9.51672 -1.99798,3.48337 -3.94814,6.99627 -6.05395,10.41612 -2.27787,3.63289 -4.68142,7.18373 -7.20767,10.64908 -2.35715,3.27776 -4.74042,6.53833 -6.96393,9.90949 -1.80254,2.7118 -3.64286,5.40094 -5.73433,7.90184 -2.0728,2.60979 -4.12845,5.23435 -6.0929,7.92718 -1.8675,2.5324 -3.62565,5.13916 -5.38772,7.74546 -1.68773,2.43565 -3.47366,4.80158 -5.13642,7.25475 -1.51143,2.31613 -2.95099,4.67793 -4.46623,6.9915 -1.80325,2.53654 -3.76794,4.95105 -6.00799,7.11952 -2.14443,2.1872 -4.33184,4.37568 -6.81707,6.17709 -0.491738,0.73282 -1.528082,0.0374 -1.036346,-0.6954 z"
       inkscape:connector-curvature="0" />
    <path
       style="fill:#000000;fill-opacity:1;stroke:none;stroke-width:0.26458332;stroke-opacity:1"
       id="path912"
       d="m 84.837438,190.39385 c -0.76305,3.06517 -2.451724,5.77964 -4.092884,8.44116 -1.204198,1.76573 -2.083859,3.66644 -2.671633,5.71363 -0.646713,2.70285 -1.483037,5.35 -2.427203,7.962 -0.919662,2.10005 -1.560412,4.28286 -2.024004,6.52274 -0.382238,1.82632 -0.516803,3.67443 -0.475951,5.53535 0.146322,1.75668 -0.0038,3.4929 -0.240096,5.23201 -0.250365,0.6691 -0.01844,1.93413 -0.445474,2.52468 0.456494,-0.4168 0.267642,1.70455 0.21426,1.90867 -0.06497,0.59055 -1.132745,0.67842 -0.316154,-0.58573 0.164502,-0.25466 0.954728,0.98594 1.004933,1.08156 -0.02519,0.10885 0.309306,0.69866 0.04048,0.54282 -0.263843,-0.15295 -0.603491,-0.20685 -0.803998,-0.43664 -0.07036,-0.0806 0.176978,-0.12036 0.265465,-0.18055 0.780153,-1.07757 1.214969,-2.40006 1.742921,-3.61577 1.22156,-2.79593 2.470912,-5.58022 3.724717,-8.362 0.933498,-2.21631 2.104885,-4.31511 3.200532,-6.45102 1.023729,-2.08227 2.100419,-4.13223 3.246835,-6.14987 1.267372,-2.18225 2.608561,-4.32024 3.908827,-6.48266 0.612457,-1.1612 1.299789,-2.25893 2.164456,-3.24704 1.115623,-1.18489 2.420477,-2.16871 3.64019,-3.24157 0.812019,-0.68752 1.569635,-1.40298 2.05758,-2.35659 0.45157,-1.00725 1.128519,-1.87415 1.851414,-2.69788 0.792951,-0.88839 1.692369,-1.6668 2.587899,-2.44658 0.31549,-0.10056 0.25712,-0.24386 0.49536,-0.64169 0.4471,-0.35814 0.19302,-0.28207 0.76166,-0.23021 0.96664,-0.65281 1.88985,0.71421 0.9232,1.36702 v 0 c 0.0486,0.2545 -0.003,0.26172 0.12852,0.0871 0.27414,-0.72078 -0.18171,0.7965 -0.27858,0.8341 -0.69578,1.02496 -1.51744,1.93884 -2.49245,2.71258 -0.687392,0.56095 -1.380077,1.09345 -1.717997,1.94297 -0.578628,1.17943 -1.178373,2.34381 -2.178746,3.23559 -1.18636,1.10151 -2.472389,2.08142 -3.810762,2.99196 -0.946817,0.74941 -1.24782,1.50506 -1.593345,2.66277 -0.866502,2.47861 -2.014111,4.83857 -3.501308,7.00966 -1.280017,1.85563 -2.719644,3.61899 -3.830341,5.58001 -0.959453,2.16445 -1.518637,4.48251 -2.484326,6.64694 -1.24882,2.86432 -2.54997,5.70894 -4.188664,8.37681 -0.893683,1.41047 -1.797494,3.00525 -3.294523,3.85019 -0.838456,0.3351 -1.752004,0.21717 -2.096397,-0.62497 -0.308088,-0.5393 -0.04765,-0.41124 -0.672359,-1.35218 -0.02673,-0.0403 -0.04228,0.10716 -0.09019,0.11353 -0.03469,0.005 -0.02867,-0.0639 -0.04301,-0.0958 -0.04203,-0.53801 0.09756,-1.0482 -0.02408,-1.53681 -0.4342,-0.90916 -0.262554,-1.96826 -0.206552,-2.93724 0.154702,-1.64267 0.337979,-3.28999 0.19649,-4.94171 -0.145529,-2.0235 -0.153231,-4.05418 0.297958,-6.04612 0.521541,-2.2918 1.271392,-4.51816 1.965015,-6.76222 0.81661,-2.66102 1.744718,-5.28146 2.733006,-7.88358 0.793454,-2.04952 1.621806,-4.08443 2.47201,-6.11108 1.277691,-2.90716 2.628463,-5.85777 4.836186,-8.19235 0.519004,-1.08974 2.060115,-0.35573 1.541108,0.73398 z"
       inkscape:connector-curvature="0" />
    <path
       style="fill:#000000;fill-opacity:1;stroke:none;stroke-width:0.26458332;stroke-opacity:1"
       id="path918"
       d="m 106.26421,-141.37169 c -1.97277,-1.16394 -3.70175,-2.69181 -5.41863,-4.19631 -0.9738,-0.87227 -1.41377,-2.11031 -2.065629,-3.20727 -1.472925,-2.32804 -2.68853,-4.81684 -3.756888,-7.3533 -1.076478,-2.46183 -1.855306,-5.03034 -2.631551,-7.59721 -0.83707,-2.73689 -1.75337,-5.44819 -2.635155,-8.17076 -0.723802,-2.11705 -1.449985,-4.23305 -1.904023,-6.42658 -0.374822,-2.04615 -0.487934,-4.12855 -0.496597,-6.20518 0.02928,-0.62211 0.02736,-0.952 0.110321,-1.53999 0.06851,-0.4856 0.146941,-0.59961 0.162607,-0.58455 0.116996,0.11246 0.04258,0.43628 0.204775,0.44168 1.178663,0.0393 2.349132,-0.21154 3.523699,-0.31732 -0.03086,0.18855 -0.01408,0.7369 -0.318341,0.49025 -0.61432,-0.49803 -1.471007,-0.79889 -1.839079,-1.49885 -0.149633,-0.28456 0.628002,-0.13808 0.942001,-0.20712 3.549362,-0.002 5.880013,1.55893 8.26054,4.03486 2.10367,2.45277 3.34107,5.45049 4.76598,8.31027 1.32529,2.66013 3.46714,4.69919 5.60085,6.70484 2.49112,2.21795 4.6328,4.38199 6.32107,7.27943 0.94644,2.00214 1.61079,4.11895 2.65774,6.07265 0.79373,1.22006 2.12013,1.81185 3.39409,2.40536 1.81664,0.82453 3.50872,1.87999 5.25796,2.83102 1.41574,0.71545 2.81788,1.45621 4.22049,2.19688 0.73306,0.36389 1.40523,0.8304 1.91147,1.47797 0.18029,0.30544 0.66337,1.15574 0.18324,1.48581 -0.24448,0.16806 -0.56065,0.19422 -0.84098,0.29133 -0.0439,0.928 -1.35627,0.86594 -1.31239,-0.0621 v 0 c -0.98405,-0.33724 -1.28367,-0.48498 -0.72556,0.53425 -0.35645,0.22703 -1.16899,-0.39826 -1.54166,-0.43207 -1.55561,-0.63032 -3.08399,-1.32739 -4.56779,-2.11318 -1.73925,-0.94391 -3.47063,-1.90192 -5.20181,-2.86035 -1.76098,-1.04413 -3.42511,-2.24235 -4.55815,-3.98855 -1.12245,-1.85924 -1.95094,-3.87127 -3.09134,-5.72102 -1.62592,-2.43911 -3.54088,-4.56622 -5.81315,-6.43274 -2.39218,-2.36542 -4.57852,-4.93218 -6.103977,-7.95683 -1.240374,-2.51752 -2.349889,-5.14575 -4.08746,-7.37196 -0.803736,-0.83253 -1.586987,-1.56534 -2.584411,-2.1656 -0.270049,-0.16252 -0.547618,-0.31347 -0.832418,-0.44848 -0.237295,-0.1125 -0.570408,-0.0854 -0.731367,-0.29288 -0.0846,-0.10905 0.255982,-0.10331 0.383974,-0.15497 -1.378789,-0.62049 -3.545734,-0.74368 -3.581876,-2.49508 1.180774,-0.33591 2.323909,-0.85763 3.542323,-1.00773 0.19776,-0.0244 0.172562,0.35922 0.257051,0.53967 0.359026,0.76683 0.479772,1.60189 0.523761,2.4431 0.10173,1.8252 0.03204,3.66214 0.27359,5.47637 0.574442,2.07259 1.806183,3.89052 2.447973,5.94562 0.924059,2.74609 1.575977,5.55171 2.271627,8.36159 0.755981,2.45158 1.823916,4.76809 2.859381,7.11212 1.062799,2.56189 2.202109,5.12435 2.843529,7.83073 0.0516,0.27297 0.11206,0.54442 0.15486,0.81892 0.13695,0.8782 -0.26961,0.48519 0.58061,0.84257 2.26817,1.13216 4.24115,2.78666 5.44122,5.0546 1.29121,1.73701 -1.16529,3.56306 -2.4565,1.82605 z"
       inkscape:connector-curvature="0" />
  </g>
</svg>
