<?xml version="1.0" encoding="UTF-8" standalone="no"?>
<!-- Created with Inkscape (http://www.inkscape.org/) -->

<svg
   xmlns:dc="http://purl.org/dc/elements/1.1/"
   xmlns:cc="http://creativecommons.org/ns#"
   xmlns:rdf="http://www.w3.org/1999/02/22-rdf-syntax-ns#"
   xmlns:svg="http://www.w3.org/2000/svg"
   xmlns="http://www.w3.org/2000/svg"
   xmlns:sodipodi="http://sodipodi.sourceforge.net/DTD/sodipodi-0.dtd"
   xmlns:inkscape="http://www.inkscape.org/namespaces/inkscape"
   width="1024"
   height="1024"
   viewBox="0 0 270.93333 270.93333"
   version="1.1"
   id="svg8"
   inkscape:version="0.92.4 (5da689c313, 2019-01-14)"
   sodipodi:docname="hand_grip.svg"
   inkscape:export-filename="C:\Users\panu-\PycharmProjects\nextgame\data\images\hand_grip.png"
   inkscape:export-xdpi="7.2179537"
   inkscape:export-ydpi="7.2179537">
  <defs
     id="defs2" />
  <sodipodi:namedview
     id="base"
     pagecolor="#ffffff"
     bordercolor="#666666"
     borderopacity="1.0"
     inkscape:pageopacity="0.0"
     inkscape:pageshadow="2"
     inkscape:zoom="0.34988737"
     inkscape:cx="69.9319"
     inkscape:cy="793.79105"
     inkscape:document-units="mm"
     inkscape:current-layer="layer2"
     showgrid="false"
     units="px"
     width="1024px"
     inkscape:window-width="1920"
     inkscape:window-height="1017"
     inkscape:window-x="-8"
     inkscape:window-y="-8"
     inkscape:window-maximized="1"
     inkscape:pagecheckerboard="false" />
  <metadata
     id="metadata5">
    <rdf:RDF>
      <cc:Work
         rdf:about="">
        <dc:format>image/svg+xml</dc:format>
        <dc:type
           rdf:resource="http://purl.org/dc/dcmitype/StillImage" />
        <dc:title />
      </cc:Work>
    </rdf:RDF>
  </metadata>
  <g
     inkscape:groupmode="layer"
     id="layer2"
     inkscape:label="color"
     style="display:inline">
    <path
       style="display:inline;fill:#ffccaa;fill-opacity:1;stroke-width:0.23636235"
       d="m 88.943892,123.11784 c -4.015185,1.12614 -8.307677,1.28014 -12.246531,2.70801 -3.552832,2.33972 -6.436445,5.56891 -10.101254,7.77041 -1.772791,1.27054 -4.20061,2.14989 -4.79142,4.5015 -1.045357,3.29098 -1.532641,6.91591 -0.737248,10.30762 1.50611,3.50705 2.930213,7.10225 4.881897,10.3824 1.944602,1.70768 4.814318,1.49313 7.186909,2.15496 2.761532,0.40847 5.264861,1.69929 7.918579,2.45318 0.983949,0.14788 1.688565,-0.80279 2.652163,-0.91175 3.709578,-1.27865 7.412605,-2.84268 11.384171,-2.99469 0.743737,-0.14811 1.263794,-0.76476 1.974466,-0.95099 0.148649,-0.99729 -0.927111,-1.91244 -1.244529,-2.85086 -1.537497,-2.44444 -2.568629,-5.18678 -2.414481,-8.1049 -0.09417,-3.57907 1.424688,-6.96723 2.158046,-10.43347 0.537924,-2.22872 1.379165,-4.41116 3.066113,-6.03391 1.042686,-1.29791 2.379747,-2.39977 3.320417,-3.74253 -1.73686,-0.60571 -3.851631,-0.57595 -5.625572,-1.33425 -2.53887,-0.74173 -4.77832,-2.46021 -7.381726,-2.92073 z"
       id="path554"
       inkscape:connector-curvature="0" />
    <path
       style="display:inline;fill:#ffccaa;fill-opacity:1;stroke-width:0.23636235"
       d="m 125.47618,121.08706 c -3.45672,0.59619 -6.8788,1.52849 -10.26976,2.45042 -3.6047,0.9037 -6.03529,3.98044 -8.5926,6.45471 -2.16717,2.42977 -4.42877,4.8895 -5.95522,7.77873 -0.64506,3.01301 -0.58029,6.14681 -1.200484,9.1776 -0.371726,1.98415 -0.785191,4.26951 0.644984,5.96238 1.24139,1.64585 1.97442,3.61591 3.16609,5.27258 2.05267,1.56398 4.87345,1.42125 7.24735,2.21272 4.64138,1.3375 9.54064,1.41201 14.12776,2.96371 3.56535,0.56866 7.35238,0.32988 10.75956,-0.89701 1.58851,-0.84054 3.8487,-0.97108 4.70786,-2.76476 0.51451,-0.97989 1.13767,0.20209 1.80966,0.18466 0.604,-0.64838 -0.74971,-1.36643 -1.05852,-1.91342 -2.18881,-1.96753 -3.04673,-4.91596 -3.12862,-7.74927 -0.2653,-6.09001 -0.84561,-12.42223 0.95052,-18.30377 1.13172,-3.29852 3.71795,-5.82508 5.95338,-8.3484 -0.77308,-0.32023 -1.92878,0.0714 -2.80034,-0.367 -2.90948,-0.83437 -5.80482,-2.17055 -8.93376,-1.8452 -2.47983,0.0337 -4.94797,-0.24292 -7.42786,-0.26868 z"
       id="path556"
       inkscape:connector-curvature="0" />
    <path
       style="display:inline;fill:#ffccaa;fill-opacity:1;stroke-width:0.23636235"
       d="m 162.85468,119.99204 c -2.7526,0.11907 -5.80718,0.31851 -7.84706,2.43241 -3.20919,3.12124 -6.56315,6.19455 -9.13641,9.88059 -2.36656,3.64988 -0.83305,8.11731 -0.8125,12.12373 0.17785,2.87761 -0.13196,5.79839 -0.0286,8.65677 2.45672,2.33357 5.72561,3.59423 8.7971,4.90728 4.37689,1.35889 9.13703,0.76364 13.42774,2.52889 2.57108,1.04973 5.37662,-0.0432 8.02031,-0.15556 4.39847,-0.61161 9.08725,-1.81321 12.09481,-5.33693 4.28624,-3.81711 5.07808,-10.41919 2.90451,-15.54791 -1.37482,-3.99782 -4.32152,-7.25236 -5.3708,-11.38878 -0.4366,-1.32933 -1.04561,-2.87225 -2.63922,-3.07271 -3.57937,-0.95605 -7.19063,-1.77274 -10.5317,-3.42261 -2.52527,-0.92525 -5.28124,-0.73738 -7.82469,-1.55301 -0.34867,-0.0501 -0.70174,-0.06 -1.05347,-0.0522 z"
       id="path558"
       inkscape:connector-curvature="0" />
    <path
       style="display:inline;fill:#ffb380;fill-opacity:1;stroke-width:0.23391145"
       id="path560"
       d="m 95.715014,159.2364 c -0.903577,1.06139 -2.312423,1.35234 -3.61234,1.6418 -0.870248,0.16822 -1.729003,0.37759 -2.578599,0.6288 -0.74531,0.25644 -1.531668,0.28698 -2.311343,0.30352 -0.550557,4.6e-4 -1.065186,0.0965 -1.566412,0.31914 -0.589457,0.29015 -1.17826,0.57726 -1.780792,0.8396 -0.813429,0.39507 -1.733026,0.27577 -2.609824,0.23729 0.538118,-0.0473 -1.328517,4.7e-4 -0.779348,0.0427 0.511102,0.0393 1.04388,-0.0168 0.483846,0.0334 -0.537854,0.0291 -1.075548,0.0389 -1.612367,0.0872 -0.71725,-0.16081 -1.405485,0.0746 -2.109067,0.10098 -0.282099,0.0106 -0.470814,-0.0478 -0.750553,-0.10469 -0.622901,-0.13064 -1.180859,-0.45165 -1.758893,-0.70777 -0.04827,-0.0247 -0.09336,-0.057 -0.144865,-0.0739 -0.06648,-0.0218 -0.05702,0.0175 -0.111977,0.0211 -0.157392,0.0103 -0.332474,-0.0179 -0.487072,-0.0342 -0.58501,-0.11261 -1.129927,-0.35419 -1.695434,-0.52818 -0.440411,-0.16413 -0.878833,-0.31709 -1.343989,-0.39468 -0.576682,-0.0928 -1.098869,-0.30166 -1.611456,-0.58044 -0.42989,-0.32777 -0.87366,-0.60968 -1.374727,-0.80533 -0.440172,-0.15128 -0.782919,-0.44663 -1.11618,-0.76043 -0.357953,-0.30501 -0.624166,-0.72282 -1.040017,-0.9531 -0.458861,-0.3677 -0.813755,-0.82635 -1.118611,-1.32606 -0.321529,-0.58244 -0.582181,-1.19706 -0.805631,-1.8231 -0.189917,-0.42818 -0.33136,-0.87534 -0.512737,-1.30693 -0.186027,-0.49329 -0.407664,-0.97257 -0.592542,-1.46623 -0.221841,-0.6027 -0.304299,-1.24604 -0.527757,-1.84713 -0.229161,-0.57508 -0.381602,-1.16805 -0.492616,-1.77606 -0.09106,-0.58159 -0.177027,-1.16287 -0.244906,-1.74772 -0.09012,-0.48497 -0.04562,-0.97793 -0.04845,-1.46716 0.0062,-0.34969 0,-0.69782 -0.04199,-1.04503 -0.03713,-0.46206 -0.02343,-0.92549 -0.04898,-1.38814 -0.05472,-0.58853 -0.06268,-1.16832 -0.0027,-1.75656 0.08054,-0.75192 0.310469,-1.47224 0.734251,-2.0986 0.140603,-0.15675 0.168646,-0.33468 0.209048,-0.53407 0.158382,-0.71967 0.518554,-1.36246 0.943334,-1.95609 0.251626,-0.36752 0.613973,-0.62767 0.925591,-0.93608 0.226589,-0.40685 0.495215,-0.78829 0.77018,-1.1634 0.333367,-0.41764 0.687368,-0.81813 1.024554,-1.23271 0.382911,-0.46671 0.841029,-0.86455 1.198682,-1.35117 0.373831,-0.54253 0.816885,-1.02567 1.341477,-1.42403 0.102969,0.0393 0.190174,-0.14301 0.29148,-0.11676 0.03085,0.008 0,0.0681 0.01733,0.0941 0.03943,0.0562 0.109537,-0.0873 0.145589,-0.14579 0.0702,-0.11391 0.134866,-0.23116 0.202303,-0.34674 0.323059,-0.59102 0.763841,-1.09204 1.221906,-1.5795 0.618252,-0.64189 1.389271,-1.07462 2.15938,-1.50261 0.59446,-0.31031 1.16811,-0.65814 1.756046,-0.98046 0.78063,-0.41728 1.624585,-0.6898 2.485188,-0.88408 0.795632,-0.21953 1.570461,-0.50354 2.363026,-0.73448 0.942989,-0.27191 1.91655,-0.39543 2.881085,-0.56124 0.613804,-0.0146 1.158677,-0.27787 1.731089,-0.46676 1.395141,-0.44003 2.751073,-0.39888 4.208108,-0.39948 0.307012,0.0448 0.617013,0.0837 0.925847,0.0315 0.08743,-0.0148 0.347494,-0.0536 0.259078,-0.0608 -0.969211,-0.079 -1.87812,0.0308 -1.067432,-0.0568 0.732987,-0.1145 1.47301,-0.14308 2.213158,-0.11287 0.717798,0.0149 1.436329,-0.005 2.153809,0.0219 0.09373,0.004 0.181978,0.0467 0.274638,0.0614 0.32679,0.0518 0.662694,0.0678 0.991013,0.11746 0.666787,0.14949 1.335609,0.10739 2.010582,0.10603 1.022105,0.074 1.921395,0.59781 2.717558,1.207 0.277935,0.11915 0.545739,0.28072 0.838386,0.37587 0.60445,0.27244 1.083311,0.73032 1.561291,1.17611 -0.10933,-0.2707 0.61517,0.76044 0.41669,0.62303 -0.088,-0.061 -0.15714,-0.14559 -0.23571,-0.21838 -0.37026,-0.23137 -0.79966,-0.38781 -1.110777,-0.69413 -0.192834,-0.18985 0.504267,0.20036 0.741497,0.33057 0.24633,0.13519 0.76414,0.53679 0.92521,0.79986 0.0599,0.0979 0.0874,0.21232 0.13108,0.31848 -0.20088,1.25716 0.0877,0.59895 -1.41188,1.62948 0.18682,1.24169 -1.569197,1.5059 -1.756019,0.26421 v 0 c -1.521661,0.67392 -1.159473,0.14233 -1.565193,1.12874 0.0053,0.0584 -0.0035,0.11994 0.01609,0.17532 0.06295,0.17953 0.504948,0.47826 0.624944,0.5449 0.208155,0.11559 0.842974,0.43546 0.650228,0.29565 -0.375988,-0.27276 -0.803819,-0.46575 -1.205719,-0.69862 -0.26837,-0.23778 -0.558329,-0.40571 -0.851647,-0.60457 -0.202948,-0.17534 0.02104,0.10261 -0.307623,-0.0744 -0.414843,-0.20891 -0.876772,-0.3343 -1.286321,-0.56672 -0.06206,-0.017 -0.121985,-0.0567 -0.186036,-0.051 0,4e-5 -0.04659,0.1357 -0.04774,0.13704 -0.15428,0.17789 -0.516565,0.0855 -0.687369,0.0881 -0.848773,-0.10842 -1.683181,-0.29943 -2.470573,-0.64315 -0.05472,-0.047 -0.188016,-0.0669 -0.257257,-0.0531 -0.02201,0.004 -0.07364,0.0423 -0.05128,0.0432 1.3198,0.0544 1.936221,-0.0991 1.348939,0.0388 -0.69392,0.2246 -1.422433,0.31756 -2.146534,0.38185 -1.053835,0.0722 -0.990217,0.0798 -2.602053,0.0356 -0.33159,-0.009 -0.654905,-0.13981 -0.989377,-0.14348 -0.05605,-7e-4 -0.1115,0.0115 -0.167241,0.0171 2.661817,-0.0146 1.137203,-0.097 0.394536,0.15574 -0.741128,0.16672 -1.478341,0.34953 -2.218232,0.52122 -0.26539,0.0643 -0.48541,0.18326 -0.735232,0.29425 -0.498459,0.22147 -1.011921,0.40738 -1.530475,0.57577 -1.027436,0.26339 -2.066825,0.43875 -3.129483,0.47022 -0.144838,0.0103 -0.257885,0.0302 -0.397153,0.009 -0.02935,-0.004 -0.05561,-0.0259 -0.08531,-0.0256 -0.223945,0.003 -0.408761,0.16808 -0.623468,0.20901 -0.506327,0.20556 -1.015483,0.41578 -1.484494,0.69826 -0.455007,0.28193 -0.860585,0.63977 -1.302985,0.94072 -0.193073,0.13016 -0.893702,0.69082 -1.137724,0.64181 -0.0229,-0.004 -0.02926,-0.0368 -0.04385,-0.0552 0.238285,-0.68339 -0.263153,0.80313 -0.315429,0.80073 -0.430562,0.76104 -1.026101,1.40461 -1.711347,1.9468 -0.157861,0.11258 -0.630293,0.50682 -0.811369,0.56739 -0.0389,0.013 0.0053,-0.13442 -0.06224,-0.0484 -0.269749,0.41938 -0.453415,0.89461 -0.76667,1.28766 -0.409556,0.51467 -0.840746,1.01094 -1.289317,1.49209 -0.113639,0.12015 -0.50165,0.59137 -0.689852,0.6066 -0.07851,-0.13379 -0.148701,0.13505 -0.210198,0.1815 -0.150195,0.37842 -0.303193,0.757 -0.415895,1.14866 -0.04173,0.16921 -0.08921,0.34268 -0.142265,0.45532 -0.03687,0.43671 -0.05605,0.87459 -0.110377,1.30981 -0.03413,0.2983 -0.01706,0.58913 0.02175,0.88678 0.02219,0.4196 0.03563,0.83881 0.08805,1.25604 0.02369,0.40347 0.04615,0.81073 -0.0027,1.21325 0.01149,0.296 0.159107,0.56022 0.260298,0.83563 0.225253,0.58785 0.416779,1.18557 0.531771,1.80617 0.0869,0.43514 0.128651,0.8814 0.336947,1.28071 0.19684,0.49841 0.349581,1.01131 0.539171,1.51236 0.158568,0.44813 0.295104,0.90329 0.460011,1.34921 0.06524,0.16437 0.142919,0.48142 0.272454,0.55443 0.26486,0.2587 0.507892,0.54095 0.710115,0.85174 0.113657,0.16836 0.145652,0.20329 0.226633,0.35384 0.02758,0.0513 0.125265,0.19414 0.08355,0.15346 -0.07064,-0.069 -0.04968,-0.0339 -0.07744,-0.0962 0.196884,-0.0884 0.875296,0.51612 1.029275,0.61211 0.248257,0.22084 0.477489,0.42727 0.689968,0.68265 0.05136,0.0618 0.216961,0.18092 0.138313,0.19742 -0.02802,0.006 -0.04995,-0.0281 -0.07497,-0.0422 -0.382707,-0.17365 0.599703,0.2268 0.613733,0.17815 0.674647,0.23768 1.342353,0.51341 1.943382,0.90523 0.26753,0.18508 0.516946,0.38737 0.777739,0.57678 0.367678,0.24613 0.825239,0.34125 1.209485,0.55953 0.259661,0.13164 0.504798,0.297 0.773937,0.40271 0.170007,-0.004 0.297676,0.0438 0.464431,0.0702 0.312997,0.0496 1.287354,0.0773 -0.195036,0.0645 0.531311,0.0478 1.061588,0.0443 1.594553,0.0433 0.823887,0.0362 1.651531,-0.0189 2.463324,0.1581 1.141393,0.18558 -1.237838,-0.14867 -0.164509,0.19308 0.514443,0.003 0.970149,-0.36045 1.414317,-0.57618 0.821977,-0.41283 1.653334,-0.79419 2.592257,-0.81574 0.681569,-0.0369 1.357647,-0.0136 2.030985,0.10935 0.731113,-0.0261 1.329295,-0.45741 1.949766,-0.80726 1.199954,-0.66962 2.474154,-1.29909 3.890229,-1.15459 1.759346,-1.10838 3.326829,1.37969 1.567493,2.48807 z"
       inkscape:connector-curvature="0" />
    <path
       style="display:inline;fill:#ffb380;fill-opacity:1;stroke-width:0.23391145"
       id="path562"
       d="m 142.23829,157.13505 c -0.68514,1.08046 -1.92354,1.57379 -3.03273,2.11077 -0.89688,0.43808 -1.77057,0.91881 -2.63465,1.41787 -0.72473,0.366 -1.5013,0.63961 -2.30641,0.75365 -0.55478,0.0647 -1.07333,0.28638 -1.5768,0.5165 -0.81771,0.32202 -1.63694,0.62296 -2.494,0.82214 -1.09203,0.26725 -2.24548,-0.15675 -3.33096,0.12544 -0.0768,0.0187 -0.15387,0.0366 -0.23052,0.056 -1.25733,0.31767 2.06883,0.0361 0.75359,0.16333 -0.11181,0.0108 -0.22399,0.0174 -0.33613,0.024 -0.11427,0.007 -0.22865,0.0105 -0.34298,0.0158 -1.28125,0.0677 -2.56651,0.0502 -3.84084,-0.0962 -0.70201,-0.11043 -1.41419,0.003 -2.11795,0.051 -1.17921,0.036 -2.34365,-0.13815 -3.4946,-0.3751 -0.72579,-0.19515 -1.47257,-0.19012 -2.21501,-0.22651 -0.85464,-0.012 -1.70365,-0.13465 -2.54457,-0.27943 -0.65497,-0.1314 -1.31801,-0.22062 -1.97305,-0.34997 -0.61213,-0.0793 -1.19799,-0.23731 -1.77741,-0.44379 -0.49266,-0.18083 -0.98193,-0.36941 -1.46933,-0.56413 -0.52817,-0.20078 -0.98444,-0.54387 -1.4845,-0.79891 -0.47097,-0.27917 -0.99598,-0.42174 -1.48557,-0.65924 -0.5662,-0.31488 -1.08888,-0.69987 -1.60419,-1.09039 -0.63678,-0.50661 -1.16558,-1.1252 -1.63945,-1.78232 -0.31507,-0.40806 -0.60514,-0.82225 -0.83901,-1.28096 -0.20225,-0.43588 -0.398529,-0.87371 -0.601875,-1.30922 -0.261067,-0.56966 -0.439774,-1.1684 -0.598412,-1.77255 -0.143901,-0.58142 -0.237374,-1.17266 -0.373929,-1.75597 -0.174993,-0.68664 -0.295758,-1.38559 -0.39351,-2.08705 -0.163695,-0.82788 -0.156322,-1.66171 -0.04898,-2.49431 0.107389,-0.69428 0.108069,-1.39736 0.19134,-2.09425 0.08861,-0.87713 0.356954,-1.71826 0.608739,-2.55825 0.181748,-0.83657 0.381107,-1.66061 0.660819,-2.47243 0.313299,-0.86446 0.780048,-1.6585 1.243458,-2.44844 0.33849,-0.56604 0.73899,-1.09047 1.20441,-1.55781 0.39587,-0.41499 0.70479,-0.89919 1.05643,-1.34996 0.41271,-0.51804 0.86227,-1.00533 1.3354,-1.4684 0.36809,-0.34063 0.70377,-0.71156 1.01955,-1.10044 0.36629,-0.53818 0.76932,-1.04059 1.20411,-1.52437 0.36062,-0.29417 0.72823,-0.55474 1.05822,-0.88754 0.39285,-0.566 0.81985,-1.09409 1.32452,-1.56416 0.52534,-0.49839 1.15921,-0.84953 1.77746,-1.21602 0.59026,-0.43096 1.19286,-0.84461 1.78709,-1.27 0.66382,-0.46944 1.38097,-0.8443 2.12443,-1.1685 0.74061,-0.28224 1.4859,-0.53707 2.25502,-0.72589 0.31401,-0.13079 0.63783,-0.28547 0.96517,-0.40735 0.62047,-0.17404 1.37357,-0.5925 2.01351,-0.61942 2.25617,0.0188 1.47114,0.0549 2.3576,0.0109 -3.15369,0.0221 -1.62331,-0.0197 -0.83593,-0.19131 0.47928,-0.0204 0.95143,-0.19866 1.42844,-0.2208 4.82246,-0.22384 1.03883,0.0271 2.49296,-0.0713 0.12641,-0.0179 0.25335,-0.0324 0.37924,-0.0536 1.62089,-0.27337 -2.34372,-0.0295 -0.62018,-0.18057 0.1452,-0.0127 0.29053,-0.025 0.43609,-0.0324 0.14117,-0.007 0.2826,-0.007 0.4239,-0.011 0.81455,0.0256 1.61717,0.0545 2.42769,-0.0478 0.7977,-0.33088 1.63308,0.0869 2.44597,0.0234 0.20479,-0.016 0.81051,-0.0924 0.60602,-0.11198 -1.03665,-0.0993 -2.18307,-2.3e-4 -1.21527,-0.0739 0.82861,-0.0988 1.659,-0.11378 2.49133,-0.0706 1.30169,0.0851 -1.17812,-0.0714 2.42793,0.0638 0.0945,0.004 0.18598,0.0354 0.27978,0.0479 0.23655,0.0316 0.4514,0.011 0.68649,-0.0177 0.9212,-0.18692 1.8619,-0.22382 2.79898,-0.22354 0.88047,-0.026 1.72196,0.0978 2.52516,0.45422 0.54493,0.24935 1.04669,0.56324 1.50388,0.95088 0.41542,0.35225 0.21369,0.36742 0.53975,0.29397 0.0455,-0.0153 0.0887,-0.0466 0.13672,-0.0459 0.52322,0.008 1.54561,0.45476 2.02549,0.66617 0.23395,0.17046 1.0735,0.39493 1.23615,0.6148 0.10002,0.1352 -0.19202,0.27768 -0.30729,0.40015 -0.50813,0.33177 -1.01628,0.66355 -1.5244,0.99531 2.58107,-1.05917 4.07897,2.59102 1.4979,3.6502 v 0 c -0.59472,0.34613 -1.18945,0.69226 -1.78416,1.0384 -0.24809,0.0968 -0.4823,0.24238 -0.74426,0.29027 -0.19633,0.0359 -0.39945,-0.0171 -0.59709,-0.045 -0.80312,-0.11363 -1.55273,-0.45342 -2.28359,-0.78698 -0.91094,-0.48314 -1.7675,-1.06515 -2.47072,-1.82734 -0.17297,-0.19616 -0.41228,-0.46088 -0.39865,-0.47884 0.053,-0.07 0.11823,0.13029 0.18335,0.18924 0.11472,0.10388 0.23229,0.20506 0.35558,0.29864 0.45849,0.34806 0.31167,0.11004 0.45931,0.40498 -0.0339,0.0399 -0.0555,0.0949 -0.1016,0.11951 -0.59644,0.31857 -1.76941,0.19497 -2.42373,0.19441 -0.86968,-0.0726 -1.72542,-0.21803 -2.57796,-0.40334 -0.22238,-0.0362 -0.46556,-0.10235 -0.69336,-0.08 -0.0445,0.004 -0.17495,0.0289 -0.13034,0.0309 1.53011,0.0667 2.16395,-0.0827 1.45877,0.0691 -0.7939,0.17756 -1.60038,0.27579 -2.41334,0.31161 -1.11245,0.0409 -1.26599,0.0558 -2.88593,-0.0142 -0.11487,-0.005 -0.60662,-0.13124 -0.75193,-0.15976 -0.0767,-0.015 -0.30988,-0.0334 -0.23176,-0.0351 0.56153,-0.0119 1.12329,0.003 1.68496,0.004 0.0422,-0.12617 -0.17529,0.0411 -0.21913,0.0607 -0.45103,0.2024 -0.91791,0.36809 -1.40503,0.46035 -0.64393,0.11135 -1.25178,0.1715 -1.90589,0.16364 -1.19384,-0.0143 -2.14176,0.081 -3.22914,-0.19025 -0.84567,-0.11714 -0.0607,0.006 1.40301,-0.0889 0.0411,-0.003 -0.0663,-0.0646 -0.10731,-0.0609 -0.0512,0.004 -0.10131,0.0172 -0.15127,0.0293 -0.0675,0.0162 -0.13401,0.0367 -0.20103,0.055 -1.39142,0.27529 -2.61487,0.6288 -4.09971,0.32638 -0.9212,-0.0968 0.36955,0.0469 1.61913,-0.0257 0.0892,-0.005 0.16065,-0.0782 0.23999,-0.11926 0.0625,-0.0324 0.12524,-0.0645 0.18551,-0.10089 0.005,-0.004 0.0149,-0.0201 0.009,-0.0168 -0.0516,0.031 -0.0997,0.0674 -0.14955,0.10108 -0.79958,0.48438 -1.68801,0.86037 -2.6099,1.02554 -0.23686,0.0186 -0.29219,0.0252 -0.28887,0.0127 0.0119,-0.0446 0.14463,-0.11253 0.10322,-0.0922 -0.0194,0.009 -0.0371,0.0219 -0.0544,0.0348 -0.0601,0.0445 -0.11852,0.0914 -0.17779,0.13707 -0.69245,0.44805 -1.40974,0.8548 -2.15776,1.20398 -0.24785,0.0953 -0.62684,0.30979 -0.91217,0.27588 -0.10002,-0.0118 0,-0.11014 -0.0604,-0.0713 -0.39376,0.57353 -0.91169,1.062 -1.472,1.46977 -0.44635,0.32252 -0.92957,0.63474 -1.46588,0.78221 -0.16939,0.1573 -0.23954,0.51941 -0.45834,0.75176 -0.38227,0.44051 -0.79177,0.84897 -1.18126,1.2813 -0.37194,0.44541 -0.72698,0.90378 -1.07468,1.36833 -0.40495,0.50502 -0.84346,0.97937 -1.29996,1.43799 -0.36655,0.34706 -0.73343,0.69777 -1.03579,1.10359 -0.23703,0.34555 -0.49952,0.66951 -0.76391,0.98929 -0.23643,0.26787 -0.26739,0.65224 -0.37735,0.98094 -0.20993,0.83519 -0.3594,1.6865 -0.66339,2.49631 -0.20076,0.60745 -0.44857,1.19754 -0.62501,1.81274 -0.11109,0.35185 -0.28839,0.67399 -0.20491,1.05349 0.10753,0.4979 0.16068,1.00247 0.21683,1.5086 0.0811,0.65074 0.15221,1.30358 0.22028,1.95512 0.0322,0.44476 0.0912,0.87332 0.22767,1.30065 0.0348,0.16825 0.21595,0.70768 0.1072,0.82511 -0.008,-0.01 -0.0293,-0.0404 -0.0244,-0.0288 0.0298,0.0702 0.0648,0.14027 0.11452,0.19812 0.009,0.0105 -0.005,-0.0352 0.007,-0.0408 0.0554,-0.0245 0.12512,0.17012 0.14098,0.11494 0.37279,0.20164 0.51472,0.69564 0.76334,1.01736 0.1131,0.10205 0.0298,-0.0587 0.19792,0.0125 0.50041,0.23035 0.97969,0.49959 1.45748,0.77365 0.45158,0.30498 0.88795,0.63065 1.34109,0.93334 0.21854,0.14266 0.39567,0.14988 0.64489,0.21444 0.34551,0.10991 0.68064,0.24802 1.04277,0.29397 0.40268,0.008 0.79484,0.0928 1.19394,0.14569 0.62966,0.0737 1.25558,0.17914 1.88806,0.23212 0.6707,0.0584 1.34061,0.0578 2.01301,0.0688 1.01385,0.0366 2.01621,0.1966 3.01349,0.3764 0.90886,0.12053 1.8198,0.22567 2.72551,0.36897 0.73566,0.13404 1.47186,0.29129 2.21636,0.36008 0.3457,0.0189 0.13883,0.0101 0.4794,0.0191 0.0798,0.002 0.31925,0.007 0.23941,0.007 -2.85314,0.002 -1.4644,-0.0148 -0.8392,-7e-4 0.37128,0.004 0.73817,0.0313 1.10853,0.0438 1.03094,0.0347 1.78142,-0.0531 2.6962,0.20451 0.10289,0.0291 0.20582,0.0583 0.30874,0.0874 0.0866,0.024 0.17324,0.0477 0.25969,0.0722 0.0954,0.027 0.38478,0.0804 0.2857,0.0822 -1.44693,0.0265 -1.35037,-0.47599 -1.43121,0.0523 0.31255,0.23965 1.29928,-0.31589 1.64331,-0.36569 0.98387,-0.22758 1.96828,-0.50865 2.9875,-0.4966 0.43131,0.0285 0.81415,0.17676 1.22342,0.30165 0.12108,-0.003 0.247,0.009 0.36135,-0.0452 0.54565,-0.25775 0.88365,-0.84609 1.38883,-1.1624 1.15815,-0.9202 2.42534,-1.77205 3.96684,-1.72727 2.44138,-1.77525 4.95197,1.67737 2.51059,3.45262 z"
       inkscape:connector-curvature="0" />
    <path
       style="display:inline;fill:#ffb380;fill-opacity:1;stroke-width:0.23391145"
       id="path564"
       d="m 177.91144,127.61198 c -1.50323,0.061 -2.85367,-0.66635 -4.23254,-1.15764 -1.02165,-0.31273 -2.06997,-0.52452 -3.10426,-0.78913 -0.88905,-0.18392 -1.7462,-0.4924 -2.63653,-0.66901 -0.76266,-0.13974 -1.53948,-0.0913 -2.30964,-0.0782 -1.15653,0.0169 0.68872,0.004 1.03222,-0.0172 0.11998,-0.007 -0.23926,-0.0239 -0.35842,-0.0395 -0.28672,-0.0378 -0.57336,-0.0788 -0.85417,-0.14735 -0.0851,0.0561 -0.22827,-0.12282 -0.30715,-0.12259 -0.16804,4.6e-4 -0.36932,0.10504 -0.52824,0.15387 -0.59664,0.19024 -1.17809,0.40591 -1.74484,0.67291 -1.08959,0.50248 -2.21816,0.89705 -3.39043,1.15097 -0.39828,0.0697 -0.79911,0.16115 -1.20294,0.19639 -0.14042,0.0123 -0.24551,-0.0141 -0.37798,0.0381 -0.62765,0.67432 -1.33701,1.24904 -2.09014,1.77592 -0.80905,0.52971 -1.6744,0.96334 -2.52303,1.42411 -0.60695,0.37753 -1.0653,0.94953 -1.59499,1.42543 -0.40423,0.37815 -0.86497,0.69303 -1.23618,1.10469 -0.32972,0.40843 -0.45617,0.92822 -0.59321,1.42391 -0.19477,0.80476 -0.36464,1.61561 -0.53661,2.42555 -0.1912,0.64858 -0.1952,1.30373 -0.15028,1.97049 0.0737,0.96281 0.12572,1.92686 0.1362,2.89245 0.006,0.83172 -0.0956,1.6611 -0.0728,2.49253 0.0273,0.43071 0.12825,0.85527 0.23673,1.2723 0.24929,0.65021 0.5271,1.2886 0.75523,1.94721 0.28486,0.86825 0.5096,1.75526 0.72347,2.64329 0.16753,0.54439 0.28996,1.11607 0.61308,1.59423 0.19579,0.34447 0.39884,0.71403 0.71201,0.96726 0.42524,0.14404 0.84881,0.31796 1.26457,0.50271 0.90275,0.35442 1.72526,0.83418 2.4959,1.41891 0.0976,0.0744 0.852,0.76099 0.99213,0.66332 0.0215,-0.0149 0.0155,-0.05 0.0232,-0.0751 0.14636,-0.41035 1.14665,-0.19069 1.4669,-0.15746 0.7349,0.12176 1.46138,0.276 2.20867,0.29015 -0.78529,0.0538 1.64617,-0.0441 0.8999,-0.065 -2.63273,-0.0736 -1.21896,0.002 -0.6431,0.0247 1.19742,0.0918 2.42583,-0.10202 3.60247,0.15734 0.24926,0.0316 1.12322,0.47714 1.33774,0.29536 0.3671,-0.42964 0.0719,-0.0559 -1.43809,-0.10351 -0.0458,-0.002 0.0914,0.005 0.13722,0.008 0.2123,0.009 0.42338,-0.005 0.63565,-0.0113 0.94739,-8.8e-4 1.89531,-0.0186 2.84181,0.0294 0.17821,-0.004 0.35506,-0.0259 0.53246,-0.0401 0.065,-0.005 0.26035,-0.01 0.19517,-0.0113 -0.59112,-0.0128 -1.93791,-0.0152 -1.14387,-0.0134 0.40944,-0.0149 0.81818,0.0213 1.22682,0.0407 0.77128,-0.22957 1.5844,0.1031 2.36735,0.0365 0.622,-0.0208 0.0403,2.2e-4 -1.23756,-0.004 -0.0491,-1.3e-4 0.098,-0.004 0.14704,-0.005 0.14952,-0.002 0.29927,-0.003 0.44878,-2.3e-4 0.80992,0.005 1.62098,-0.0189 2.43065,0.002 0.0461,0.003 0.092,0.007 0.13817,0.008 0.65413,0.0146 -0.35891,-0.0185 0.27971,0.002 0.0439,0.002 0.17586,0.005 0.13186,0.005 -1.61294,0.002 -1.82489,0.0106 -1.23703,-0.009 0.3465,-0.0528 0.69339,-0.0203 1.0412,-0.0175 0.56491,0.004 1.12983,0.006 1.69473,0.011 0.10573,8.8e-4 0.42286,0.005 0.31714,0.005 -3.35977,0.2119 -1.77025,-0.12867 -1.33924,0.0176 0.42878,-0.059 0.84061,-0.1941 1.26387,-0.28233 0.45131,-0.0692 0.89916,-0.16816 1.35292,-0.22017 0.33924,-0.0759 0.68144,-0.21359 1.03399,-0.19603 0.32412,7e-4 0.64587,-0.22142 0.92626,-0.36376 0.39337,-0.21219 0.82912,-0.31857 1.22538,-0.52159 0.37591,-0.19834 0.70326,-0.47445 1.04609,-0.72301 0.57324,-0.4574 1.12345,-0.9358 1.72954,-1.35106 0.33868,-0.25141 0.72821,-0.46 1.00912,-0.78044 0.21947,-0.39666 0.4314,-0.7983 0.63516,-1.20346 0.22393,-0.45921 0.3769,-0.95037 0.47567,-1.45075 0.0565,-0.62514 0.018,-1.25422 0.0215,-1.88108 0,-0.78813 0.0748,-1.57356 0.11659,-2.35997 0.0485,-0.60952 0.0243,-1.21755 -0.0192,-1.82599 -0.0674,-0.75903 -0.0712,-1.51989 -0.0758,-2.28139 0.0431,-0.42999 -0.11292,-0.81991 -0.24411,-1.22072 -0.19619,-0.66365 -0.33281,-1.34178 -0.51887,-2.00826 -0.10018,-0.43782 -0.33657,-0.80425 -0.53104,-1.19969 -0.41436,-0.55619 -0.74366,-1.15908 -1.0404,-1.78493 -0.19493,-0.33067 -0.26979,-0.77473 -0.55101,-1.0536 -0.0429,-0.0424 -0.2314,-0.13831 -0.2753,-0.1619 -0.66941,-0.30132 -1.26154,-0.73826 -1.85212,-1.16833 -0.62131,-0.45526 -1.15289,-1.01739 -1.74956,-1.50079 -0.4579,-0.37603 -0.91892,-0.74655 -1.39231,-1.10268 -0.18648,-0.18136 -0.54095,-0.28482 -0.66985,-0.52094 0.59158,-0.36246 0.84386,-0.97201 1.17051,-1.55919 -2.03556,-0.59928 -1.18804,-3.478 0.84751,-2.87871 v 0 c 0.72456,-0.87368 1.08904,-1.55918 2.30705,-1.25603 0.65998,0.25942 1.2725,0.62829 1.8182,1.08222 0.44938,0.3763 0.87838,0.77805 1.35479,1.12126 0.54348,0.42326 1.19841,0.67172 1.75856,1.07324 1.05214,0.75491 2.01286,1.62019 2.72164,2.71733 0.51731,0.816 0.9507,1.6745 1.34858,2.55468 0.31827,0.68041 0.65938,1.34995 0.89219,2.06683 0.28364,0.7349 0.50296,1.50129 0.67011,2.27045 0.12285,0.65835 0.22659,1.32003 0.35858,1.97667 0.14606,0.83327 0.2836,1.6675 0.3054,2.51562 0.005,0.76622 0.0316,1.53186 -0.006,2.29774 -0.0364,0.74928 -0.082,1.49973 -0.19649,2.24181 -0.0773,0.69863 0.067,1.40177 0.006,2.10249 -0.0376,1.00997 -0.20846,1.992 -0.51039,2.95802 -0.18578,0.69601 -0.3429,1.39776 -0.52266,2.09515 -0.31978,1.03868 -0.77095,2.0142 -1.48793,2.84524 -0.53187,0.6223 -1.12182,1.16301 -1.79387,1.63115 -0.4893,0.4096 -0.98884,0.8081 -1.4375,1.26326 -0.71236,0.63267 -1.49601,1.16652 -2.37385,1.546 -0.36415,0.14093 -0.73532,0.272 -1.11847,0.34854 -0.39938,0.10014 -0.87076,0.55147 -1.2733,0.69025 -0.49458,0.24109 -1.01223,0.41911 -1.55692,0.5071 -0.40854,0.11639 -0.82755,0.1863 -1.23049,0.32436 -0.55392,0.15062 -1.11,0.2945 -1.66867,0.42567 -0.86522,0.17567 -1.51205,0.11781 -2.48522,0.12215 -0.0539,2.3e-4 -0.72826,-1e-5 -0.31992,0.005 0.45526,0.006 0.91059,0.007 1.36588,0.011 -0.3507,0.003 -0.7004,0.0347 -1.04991,-0.0174 -0.78805,-0.0258 -1.57745,-0.0174 -2.36517,0.005 -0.53753,0.0133 -1.41753,-0.003 1.08041,-8.9e-4 0.44583,2.3e-4 -0.89076,0.027 -0.45194,0.003 -0.80571,0.0145 -1.61382,-0.0291 -2.41909,-0.008 -0.61121,-0.0541 -1.94769,0.14294 0.70665,0.0332 -0.39515,0.0207 -0.7899,0.062 -1.18608,0.0502 -0.94647,0.009 -1.89496,0.0346 -2.83526,-0.0838 -0.54941,8.8e-4 -1.40492,-0.007 1.12664,0.0136 0.25898,0.002 -0.59618,-0.0327 -0.4376,0.0297 -1.12287,0.10378 -2.27929,0.2408 -3.38943,-0.0315 -0.12629,-0.0319 -1.0205,-0.32389 -1.13596,-0.25493 -0.0176,0.0105 -0.004,0.0407 -0.006,0.0611 -0.47519,0.30067 -0.0614,0.0202 1.34623,0.0706 0.0757,0.003 -0.15099,0.0123 -0.2265,0.0183 -0.29285,0.0233 -0.58437,0.0556 -0.87628,0.0891 -1.45048,0.16452 -2.927,0.17373 -4.36673,-0.0828 -0.65085,-0.12484 -1.30204,-0.2762 -1.96862,-0.25935 -0.84229,-0.0231 -1.67342,-0.105 -2.46131,-0.43791 -0.81319,-0.36501 -1.58856,-0.80091 -2.39787,-1.17342 -0.80583,-0.38352 -1.58601,-0.81168 -2.30742,-1.34104 -0.72429,-0.50641 -1.4368,-1.03372 -2.04909,-1.67565 -0.60656,-0.63104 -1.19358,-1.27899 -1.67834,-2.01117 -0.57595,-0.99587 -1.05093,-2.04406 -1.30723,-3.17157 -0.19455,-0.82023 -0.32371,-1.65124 -0.47129,-2.48082 -0.0793,-0.53948 -0.24266,-1.04442 -0.49292,-1.53084 -0.40432,-0.90503 -0.69832,-1.84902 -0.77579,-2.84325 -0.0739,-0.95529 -0.0991,-1.91276 -0.0816,-2.87094 0.0239,-0.83671 0.0647,-1.67453 -0.006,-2.51047 -0.0598,-1.09891 -0.12563,-2.20237 0.0134,-3.29888 0.16999,-1.16269 0.44427,-2.30587 0.90074,-3.39276 0.38969,-0.906 0.80237,-1.8032 1.29348,-2.65966 0.52202,-0.84092 1.10845,-1.63958 1.85816,-2.29462 0.61299,-0.55004 1.30967,-1.00588 1.84435,-1.64196 0.75034,-0.79424 1.52227,-1.57548 2.42973,-2.19329 0.96301,-0.62538 1.99361,-1.09973 3.01582,-1.6162 0.64749,-0.35407 1.25161,-0.7621 1.87487,-1.15635 1.16235,-0.6568 2.41126,-1.12999 3.71138,-1.43748 0.88573,-0.17748 1.79314,-0.37788 2.70163,-0.3156 0.16837,-0.01 0.378,0.0172 0.54326,-0.0269 0.24958,-0.0665 0.48006,-0.20267 0.73277,-0.26113 1.38209,-0.46191 2.83148,-0.44111 4.28246,-0.35275 1.10356,0.0938 2.184,0.31916 3.24364,0.6426 0.82534,0.21506 1.67319,0.30157 2.51516,0.42755 1.46815,0.20156 2.92976,0.5115 4.29637,1.10058 1.11747,0.4957 2.49614,1.06352 3.30763,2.02039 0.11599,0.1368 0.19465,0.3013 0.29199,0.45195 3.48191,2.41566 0.0657,7.3398 -3.41626,4.92414 z"
       inkscape:connector-curvature="0" />
    <path
       style="display:inline;fill:#ffb380;fill-opacity:1;stroke-width:0.23391145"
       id="path566"
       d="m 96.173902,156.65686 c -0.09069,0.24352 -0.150222,0.50104 -0.272065,0.73059 -0.866968,1.63349 -2.475111,2.65875 -4.038199,3.52565 -1.364128,0.66504 -2.817653,1.08598 -4.330641,1.18147 -0.473572,-0.0235 -0.888415,0.0792 -1.333803,0.23072 -0.968071,0.39218 -1.967668,0.66497 -2.996996,0.83463 -1.13227,0.18952 -2.286739,0.0986 -3.429724,0.18153 -0.200509,0.0146 -0.802316,0.022 -0.601905,0.0378 0.226102,0.0178 2.231564,0.008 0.629673,0.0138 -0.700567,0.0376 -1.391383,-0.12228 -2.086381,-0.15166 -2.547621,-0.10774 -1.450855,0.12177 -2.736875,-0.19372 -0.988369,-0.32848 -1.958588,-0.71372 -2.928011,-1.09493 -0.603912,-0.18587 -1.198567,-0.38766 -1.784346,-0.62788 -0.776801,-0.34674 -1.541031,-0.73563 -2.273619,-1.16911 -0.284248,-0.21302 -0.629621,-0.25397 -0.945006,-0.38162 -0.839668,-0.29047 -1.527204,-0.82126 -2.13947,-1.45157 -0.398187,-0.47434 -0.760958,-1.04523 -0.864041,-1.67007 -0.0671,-0.40681 -0.427804,-0.97617 -0.104869,-1.23249 1.45608,-1.15572 3.289129,-1.7335 4.933685,-2.60025 0.08912,0.0642 0.183154,0.12194 0.267336,0.19242 0.07515,0.0629 0.817194,0.7772 0.68789,0.76265 -1.199823,-0.135 -2.395348,-0.41618 -3.519273,-0.85735 -0.212929,-0.0835 0.400301,-0.252 0.627632,-0.2777 0.73486,-0.0831 1.478792,-0.0294 2.218188,-0.044 1.496889,-0.027 2.973736,0.27097 4.430072,0.58443 1.313947,0.3095 2.641819,0.46595 3.988937,0.48953 1.436003,0.0231 2.86869,0.13287 4.296108,0.28609 0.830624,0.0941 1.659913,0.2131 2.495602,0.25479 0.172563,0.009 0.690763,0.008 0.518095,0.0134 -0.409203,0.0126 -0.81876,0.005 -1.228157,0.009 0.953757,0.10241 1.896862,-0.0171 2.839242,-0.15309 1.52258,-0.17068 3.060481,-0.0595 4.585254,0.004 0.407098,0.0843 0.822269,0.14527 1.23865,0.11365 0.08469,-0.006 0.337841,-0.0253 0.253049,-0.0287 -0.427008,-0.0172 -0.85467,-0.009 -1.281997,-0.0129 0.690719,-0.0316 1.377574,-0.1208 2.067285,-0.17344 0.840163,0.006 1.693448,0.0354 2.526573,0.11055 0.260113,0.0235 0.57327,0.22926 0.798452,0.34432 0.324739,0.17501 0.660784,0.2874 1.027808,0.31216 0.846157,0.19353 0.221938,0.11289 -1.032573,0.16204 -0.06666,0.0413 -0.640477,0.42229 -0.63077,0.49189 0.559443,4.01005 2.009556,4.59604 0.603894,3.98284 0.282559,-0.0206 0.572076,0.004 0.847642,-0.0616 0.111933,-0.0267 -0.22703,-0.0377 -0.340015,-0.0594 -0.15931,-0.0306 -0.321158,-0.0519 -0.476781,-0.0977 -0.792883,-0.23332 -0.603726,-0.24855 -1.341292,-0.94874 -1.066638,0.41362 -1.651578,-1.09482 -0.584939,-1.50845 v 0 c 0.07258,-0.29434 0.07161,-0.61743 0.217791,-0.88303 0.08938,-0.16238 0.28797,-0.23622 0.448854,-0.32825 0.707507,-0.40465 1.58283,-0.35497 2.354291,-0.38557 1.614675,-0.35016 0.474121,-0.19735 1.257818,3.99363 0.01918,0.10265 -0.595867,0.42806 -0.639425,0.45068 -0.09367,0.0486 -0.191756,0.0883 -0.287643,0.13246 -0.931549,0.0373 -1.869685,0.15317 -2.778656,-0.10447 -0.167081,-0.057 -0.789825,-0.338 -0.937138,-0.31676 -0.01362,0.002 -0.0062,0.0266 -0.0094,0.04 -0.0027,0.0834 0.01291,0.0818 -0.05136,0.14429 -0.02272,0.0219 -0.10715,0.053 -0.07585,0.0562 1.756747,0.17836 1.726786,-0.0243 1.114917,0.13047 -0.795572,0.13338 -1.575821,0.36182 -2.385677,0.40907 -0.672985,0.004 -1.345995,0.0201 -2.018971,0.0122 -0.535519,-0.006 -1.070287,-0.18927 -1.607036,-0.1029 3.215487,0.1376 1.578242,0.004 1.183644,0.0752 -0.49136,0.0877 -0.953236,0.30735 -1.449176,0.3776 -1.227184,0.2283 -2.455535,0.4734 -3.704865,0.54173 -1.933826,0.008 -3.864884,0.0206 -5.791831,-0.16989 -1.371147,-0.0788 -2.741746,-0.0907 -4.114369,-0.12366 -1.706592,-0.11788 -3.406889,-0.3387 -5.062381,-0.78358 -1.128663,-0.27803 -2.269384,-0.5635 -3.347063,-1.00285 0.495268,-0.0348 1.00194,0.007 1.485785,-0.10448 0.102738,-0.0236 0.25922,-0.243 0.158382,-0.27371 -1.220315,-0.37143 -2.470061,-0.68331 -3.738699,-0.8161 -0.0935,-0.01 0.614511,0.7274 0.624095,0.76958 4.326335,-2.4545 5.041914,-0.96265 4.603475,-3.81319 -0.0027,-0.0124 -0.29903,-0.66371 -0.108653,-0.67064 0.01238,-0.0394 -0.0993,-0.19412 -0.07904,-0.19683 0.07966,-0.0106 0.157914,0.0614 0.238241,0.0376 0.754089,0.15107 1.456752,0.5183 2.138418,0.86067 0.437467,0.22436 0.843991,0.52492 1.332663,0.62711 0.789346,0.15918 1.563354,0.36616 2.293175,0.71688 0.512631,0.23203 0.285583,0.11998 0.769057,0.37436 0.05092,0.0268 0.309161,0.17784 0.415436,0.1983 0.03112,0.006 0.03934,-0.10317 0.03342,-0.0891 0.613459,-0.26185 0.02962,0.0126 -1.287037,-0.10967 -0.140373,-0.013 0.28004,-0.0325 0.419936,-0.0497 0.52682,-0.0649 1.05189,-0.093 1.582936,-0.10734 0.923964,7.1e-4 2.413949,7.1e-4 3.053064,0.011 0.197396,0.004 0.394209,0.023 0.591057,0.0378 0.186743,0.0142 0.744568,0.0195 0.559637,0.0491 -0.420378,0.067 -0.854927,-0.002 -1.275402,0.065 -0.15153,0.0239 0.303786,0.043 0.455688,0.0644 0.554058,0.0986 1.088968,0.34183 1.650126,0.15842 0.960397,-0.29455 1.926664,-0.65497 2.945136,-0.64143 0.05384,0.005 0.335524,0.0209 0.419051,0.057 0.02732,0.0118 0.03589,0.0522 0.06383,0.0626 0.207502,0.0773 0.504542,-0.39506 0.627817,-0.41539 1.355349,-1.17538 2.723083,-2.44536 4.518188,-2.87759 2.728786,-3.26293 7.343269,0.59618 4.614484,3.85913 z"
       inkscape:connector-curvature="0" />
    <path
       style="display:inline;fill:#ffb380;fill-opacity:1;stroke-width:0.23391145"
       id="path570"
       d="m 93.137289,156.12406 c -0.958974,-0.8703 -1.334307,-2.06536 -1.523915,-3.30803 -0.108511,-0.9872 -0.08248,-1.98326 -0.193303,-2.9699 -0.16198,-0.85114 -0.402254,-1.68421 -0.589033,-2.53022 -0.185072,-0.86279 -0.228444,-1.74532 -0.273886,-2.62378 -0.0511,-0.86659 -0.06799,-1.7339 -0.04703,-2.60159 0.01636,-0.6332 0.164978,-1.25263 0.207431,-1.8829 -0.05667,-0.85559 0.09513,-1.67778 0.36652,-2.48496 0.261412,-0.71469 0.67027,-1.35987 1.04967,-2.0152 0.306359,-0.58725 0.554068,-1.20227 0.838696,-1.79997 0.180881,-0.41596 0.458348,-0.77765 0.681736,-1.16903 0.205601,-0.45068 0.313626,-0.936 0.485711,-1.39981 0.199368,-0.50923 0.500546,-0.96469 0.848263,-1.3832 0.207103,-0.19172 0.275707,-0.47089 0.382937,-0.72192 0.188573,-0.41086 0.468144,-0.89594 1.001745,-0.88699 0.244951,0.004 0.476923,0.11238 0.715393,0.16857 1.392966,-0.85925 2.608118,1.1107 1.21517,1.96995 v 0 c 0.164235,0.084 0.318497,0.19139 0.492739,0.25206 0.279969,0.0975 0.401839,-0.1528 0.242935,0.0473 -0.177204,0.24746 -0.277016,0.52155 -0.359005,0.81417 -0.148419,0.50287 -0.37407,0.97812 -0.676141,1.40769 -0.13574,0.18822 -0.159929,0.23025 -0.303175,0.39917 -0.09473,0.1117 -0.219843,0.18758 -0.22795,0.34436 -0.05181,0.5899 -0.16366,1.17507 -0.413111,1.71664 -0.294839,0.65209 -0.662879,1.26376 -0.977866,1.9059 -0.274841,0.59539 -0.550832,1.19121 -0.853707,1.77283 -0.097,0.17145 -0.141726,0.25906 -0.247452,0.41691 -0.04597,0.0686 -0.11402,0.12484 -0.143433,0.20201 -0.04579,0.12036 -0.02369,0.24118 -0.01918,0.36649 0.07753,0.68537 0.253411,1.36129 0.236048,2.05643 -0.02104,0.80219 -0.106531,1.59537 -0.224228,2.38886 -0.0035,0.62066 0.301982,1.15744 0.493941,1.73587 0.347981,1.12992 0.569521,2.29126 0.451108,3.47954 -0.02661,0.36751 -0.08346,0.75691 -0.05234,1.12664 0.03236,0.38468 0.170079,0.74869 0.274293,1.11688 0.330176,1.17044 0.541894,2.42224 0.01379,3.57013 0.367077,2.03188 -2.506451,2.551 -2.873528,0.51912 z"
       inkscape:connector-curvature="0" />
    <path
       style="display:inline;fill:#ffb380;fill-opacity:1;stroke-width:0.23391145"
       id="path574"
       d="m 136.78956,159.78057 c -0.16046,-0.10467 -0.33647,-0.18868 -0.48137,-0.31402 -0.83227,-0.71983 -1.17528,-1.82619 -1.4466,-2.84832 -0.15524,-0.85997 -0.4125,-1.69411 -0.63201,-2.53837 -0.24954,-1.02955 -0.39053,-2.08455 -0.50215,-3.13716 -0.0851,-0.87581 -0.18206,-1.75019 -0.27606,-2.62517 -0.099,-0.80077 -0.14205,-1.60506 -0.15483,-2.41121 -0.022,-0.68078 0.01,-1.36152 0.0131,-2.04229 0.0138,-0.60571 0.0108,-1.21146 0.0119,-1.81729 -0.003,-0.68429 0.03,-1.36795 0.11543,-2.04686 0.0932,-0.69692 0.27377,-1.37645 0.49638,-2.04204 0.17358,-0.52931 0.32336,-1.06606 0.47855,-1.60096 0.12893,-0.48741 0.28427,-0.96692 0.42735,-1.45016 0.13768,-0.40013 0.19462,-0.81876 0.25737,-1.23519 0.0412,-0.44211 0.0934,-0.88231 0.14784,-1.32291 0.052,-0.5013 0.10102,-1.00291 0.1693,-1.50231 0.0891,-0.57325 0.2978,-1.12002 0.58874,-1.61998 0.18577,-0.2535 0.33848,-0.51386 0.46484,-0.8011 0.13221,-0.34393 0.28867,-0.676 0.46701,-0.99811 0.24874,-0.42104 0.5325,-0.81747 0.85906,-1.18149 0.25386,-0.3125 0.51854,-0.61433 0.799,-0.90345 0.26933,-0.28459 0.58581,-0.50278 0.92224,-0.69235 -0.13379,0.27401 0.18839,0.27068 0.37741,0.32657 0.22032,0.0652 0.43669,0.14294 0.65503,0.21441 0.58403,-1.30279 2.42646,-0.47683 1.84241,0.82595 v 0 c 0.17451,0.12993 0.66782,0.40014 0.74459,0.70613 0.0759,0.3023 -0.22507,0.60751 -0.38508,0.81395 -0.19227,0.2047 -0.38943,0.40168 -0.59514,0.59281 -0.26184,0.24897 -0.53018,0.49098 -0.81848,0.70682 -0.12802,0.12783 -0.24104,0.21957 -0.29355,0.41552 -0.1692,0.31816 -0.34928,0.63055 -0.56593,0.91936 -0.15155,0.21509 -0.21838,0.46843 -0.30102,0.71601 -0.0874,0.23011 -0.19464,0.45021 -0.2977,0.67322 -0.15761,0.26285 0.0508,0.66893 -0.003,0.94895 0.004,0.6413 -0.0482,1.2778 -0.21515,1.8999 -0.10804,0.48416 -0.26757,0.95388 -0.34739,1.44446 -0.10747,0.50851 -0.17831,1.0248 -0.31409,1.52753 -0.14903,0.59328 -0.33653,1.17576 -0.50703,1.7631 -0.13524,0.46109 -0.32543,0.90842 -0.3841,1.38876 -0.0741,0.48719 -0.1264,0.97401 -0.0926,1.46801 0.0163,0.64833 0.039,1.29689 0.0339,1.94545 -0.0222,0.63356 -0.0574,1.26601 -0.10674,1.89807 0.01,0.60837 0.12493,1.20348 0.27906,1.79115 0.22753,0.98784 0.40689,1.98999 0.45737,3.0041 0.0354,0.88528 0.007,1.77074 0.0352,2.65598 0.10121,0.74905 0.31633,1.47478 0.60083,2.17458 0.27475,0.7582 0.64089,1.66051 0.58235,2.481 -0.0108,0.14967 -0.062,0.29363 -0.093,0.44044 0.98182,2.13187 -2.03312,3.52038 -3.01494,1.38851 z"
       inkscape:connector-curvature="0" />
    <path
       style="display:inline;fill:#ffb380;fill-opacity:1;stroke-width:0.23391145"
       id="path576"
       d="m 135.84943,163.11 c -0.12839,0.015 -0.25595,0.043 -0.38521,0.0451 -0.31826,0.005 -0.43996,-0.0501 -0.74178,-0.0757 -0.3657,-0.0309 -1.72869,0.11859 0.84095,-0.0688 -0.0421,0.0736 0.27191,-0.32417 0.21782,-0.28685 -0.16972,0.11717 -0.30772,0.27489 -0.46758,0.40522 -0.11217,0.0915 -0.23078,0.17476 -0.34619,0.26214 -0.69079,0.47228 -1.47453,0.75295 -2.27347,0.97709 -0.74902,0.20154 -1.51201,0.31471 -2.28224,0.39 -0.27105,0.004 -0.93483,0.10768 -1.16199,-0.0697 -0.0131,-0.002 0.0479,-0.12476 0.0461,-0.12428 -0.13492,0.0336 -0.24668,0.12855 -0.37263,0.18746 -0.0871,0.0408 -0.17737,0.0744 -0.26607,0.11156 -0.79339,0.25896 -1.6843,0.32912 -2.49237,0.0937 -1.57448,-0.7251 -0.0363,-1.18336 1.38903,-3.98452 0.0271,-0.0531 0.0771,0.091 0.11503,0.13689 0.0889,0.10743 0.17704,0.21546 0.26558,0.32318 0.17832,0.39394 0.81895,1.17556 0.24471,1.66633 -0.10622,0.0908 -0.27234,-0.0627 -0.40851,-0.094 0.15494,1.25004 -1.61288,1.46919 -1.76782,0.21914 v 0 c -0.14546,-0.0941 -0.27401,-0.3426 -0.43637,-0.2822 -0.47196,0.17555 -0.0637,1.62558 0.22726,1.49349 0.06,0.0944 0.14042,0.17854 0.18008,0.28313 0.0128,0.0338 -0.0473,0.13658 -0.0338,0.10307 0.51669,-1.2746 1.02875,-2.55106 1.54311,-3.82659 -0.0332,-0.0265 -0.0738,-0.0459 -0.0997,-0.0796 -0.0206,-0.0268 0.0531,-0.0776 0.0545,-0.079 0.40198,-0.16797 0.63619,-0.0931 -0.82339,-0.0682 -0.0382,7e-4 0.0768,0.005 0.11328,0.017 0.0524,0.0164 0.0797,0.0512 0.11647,0.0874 0.014,0.0155 0.031,0.0286 0.0422,0.0464 0.01,0.0154 0.003,0.0468 0.0189,0.051 0.12495,0.0302 0.6496,-0.35322 0.82043,-0.35279 0.40568,-0.12906 0.82318,-0.21373 1.25113,-0.20989 0.5484,-0.0263 1.08302,-0.16618 1.61044,-0.31043 0.5278,-0.11689 1.10009,-0.28684 1.64037,-0.16105 0.024,0.009 0.11831,0.0547 0.15216,0.0362 0.18604,-0.10223 0.30993,-0.29032 0.47115,-0.42843 0.52716,-0.4517 0.42312,-0.34955 1.06491,-0.7009 1.17452,-0.11604 1.90174,-0.3039 2.97956,0.009 0.37214,0.10803 0.68539,0.22316 0.99387,0.46071 0.11846,0.0912 0.21089,0.21201 0.31634,0.31802 2.46041,1.66614 0.10414,5.14571 -2.35629,3.47957 z"
       inkscape:connector-curvature="0" />
    <path
       style="display:inline;fill:#000000;fill-opacity:1;stroke-width:0.23391145"
       id="path343"
       d="m 167.489,119.21575 c -1.47418,0.91059 -3.10197,0.86613 -4.74887,1.04647 -0.0243,0.003 0.0303,0.0713 0.006,0.0731 -1.97814,0.0553 -1.00935,-0.004 -2.90679,0.17163 -2.22832,0.18183 -3.93772,1.28385 -5.51683,2.77038 -1.60435,1.74227 -3.24075,3.45486 -4.94701,5.09769 -1.46556,1.3889 -2.71362,2.94172 -3.64466,4.73178 -0.84158,1.55183 -0.97587,3.23983 -0.90731,4.96743 0.28497,2.73906 0.56279,5.47247 0.67399,8.2254 0.003,0.51315 0.0126,1.02635 0.006,1.53946 -0.0189,1.42197 -0.0435,1.48915 -0.16134,2.87404 -0.0695,0.81672 -0.17129,1.54367 0,2.3444 0.93371,1.12434 2.56337,1.81927 3.83599,2.506 2.13405,1.13711 4.26587,2.213 6.62769,2.76979 2.73829,0.25368 5.47059,0.39779 8.1859,0.86866 1.99328,0.31833 3.73353,1.46909 5.75038,1.62608 0.25443,-0.0178 0.73114,0.19959 0.76331,-0.0534 0.0316,-0.24848 -0.93769,0.0203 -0.73961,-0.13301 0.27637,-0.21399 0.69584,-0.067 1.04357,-0.10236 1.18172,-0.12026 2.36344,-0.22421 3.54704,-0.32488 2.11692,-0.1841 4.21092,-0.6083 6.22756,-1.2757 0.95366,-0.39562 1.96158,-0.69145 2.88916,-1.14577 0.17284,-0.0846 1.23956,-0.77378 1.38333,-0.86575 1.31992,-0.95975 2.49155,-2.09637 3.52871,-3.35597 1.09303,-1.20889 1.75081,-2.66848 2.25981,-4.19616 0.54208,-1.71605 0.59322,-3.47673 0.4865,-5.2542 -0.14921,-1.98669 -0.82645,-3.81394 -1.51361,-5.65858 -0.67675,-1.75414 -1.70756,-3.33118 -2.69586,-4.91923 -1.10818,-1.80085 -1.82055,-3.79097 -2.44603,-5.79903 -0.36329,-1.35586 -0.73158,-2.03074 -2.07896,-2.4747 -1.81745,-0.50495 -3.66787,-0.85839 -5.50338,-1.30729 -1.44807,-0.42041 -2.86937,-1.00825 -4.23573,-1.65049 -1.77839,-0.83591 0.15147,-0.0775 -1.5212,-0.7012 -1.40438,-0.5048 -2.93367,-0.44925 -4.40444,-0.60801 -0.30485,-0.0346 -2.65421,-0.34634 -2.59583,-0.75155 0.0599,-0.41593 0.45473,-0.7068 0.68208,-1.0602 -0.25325,0.0706 -1.25193,-3.51105 -0.99868,-3.58167 v 0 c 2.30106,-1.3625 2.77889,-1.7318 5.41412,-1.45107 2.05521,0.26417 4.0893,0.68738 5.98878,1.54599 0.58893,0.29951 1.20233,0.55066 1.78295,0.86596 1.13793,0.61795 2.22892,1.34263 3.36246,1.96951 1.738,1.02871 3.53613,1.96918 5.11753,3.23624 1.5917,1.38135 2.81489,2.58237 3.61905,4.59348 0.68513,1.68093 1.32998,3.38793 2.33554,4.91276 1.17709,1.92779 2.44082,3.83217 3.06983,6.02688 0.0859,0.39542 0.20011,0.78573 0.25775,1.18625 0.25987,1.80552 -0.0397,3.65275 0.0427,5.4656 0.098,2.18917 0.0928,4.40808 -0.65188,6.50068 -0.75348,1.85805 -1.72609,3.56623 -3.1703,4.98503 -1.18712,1.16487 -2.24206,2.4254 -3.15067,3.8173 -1.09164,1.57426 -2.2763,3.09181 -3.89786,4.1566 -2.1549,1.42092 -4.4652,2.52048 -6.98201,3.14811 -1.22172,0.28525 -1.64117,0.42766 -2.88916,0.5438 -2.12156,0.19742 -4.2887,-0.0447 -6.40024,-0.20123 -2.15938,-0.22063 -4.30802,-0.16914 -6.4757,-0.21085 -3.05254,-0.23965 -6.11713,-0.54584 -9.06676,-1.41383 -2.8958,-0.94007 -5.67378,-2.19485 -8.10059,-4.06496 -2.27385,-1.74697 -4.50559,-3.57451 -5.63291,-6.30391 -0.1742,-0.48815 -0.3777,-0.96683 -0.52261,-1.46446 -0.65733,-2.25698 -0.59651,-4.63769 -0.67556,-6.96162 -0.0395,-2.87808 -0.11247,-5.75906 0.0393,-8.63532 0.22883,-2.63683 0.61717,-5.26519 1.82889,-7.65669 1.2895,-2.38517 2.92896,-4.55011 5.01036,-6.3072 1.82853,-1.56412 3.87588,-2.84987 5.64776,-4.48682 0.30234,-0.26737 1.69154,-1.50347 1.97634,-1.72297 1.70599,-1.31475 3.67491,-2.26131 5.71006,-2.9399 2.70096,-0.65779 4.27717,-0.8162 7.19234,-0.62458 0.93601,0.0615 2.2636,0.35137 3.10527,0.82774 0.36726,0.20787 0.64971,0.53873 0.97457,0.80809 0.24482,0.0843 -0.94602,3.54648 -1.19082,3.46227 z"
       inkscape:connector-curvature="0" />
    <path
       style="display:inline;fill:#000000;fill-opacity:1;stroke-width:0.23391145"
       id="path349"
       d="m 143.99108,123.8127 c -2.0716,0.1284 -3.89868,-0.8061 -5.78921,-1.48112 -1.04348,-0.37258 -1.08602,-0.35757 -2.11252,-0.61219 -1.44639,-0.19456 -3.98571,0.17871 -6.32922,-0.0837 -1.82291,-0.25089 -3.6221,-0.41131 -5.45996,-0.29252 0.15812,0.0401 0.61738,0.0415 0.47441,0.12 -0.29844,0.16388 -0.67272,0.10641 -1.00675,0.1723 -0.37096,0.0732 -0.74061,0.15378 -1.10759,0.24482 -1.28801,0.31955 -2.5567,0.69753 -3.84912,1.00246 -1.91493,0.49819 -3.90313,0.75751 -5.70399,1.6066 -1.49938,0.94126 -2.7465,2.24275 -4.0557,3.42745 -1.23097,1.05455 -2.40075,2.16249 -3.44535,3.40206 -1.15498,1.48213 -2.21744,3.03196 -3.41081,4.48453 -1.14349,1.35155 -1.48407,1.85787 -1.56185,3.61695 -0.0189,2.40417 -0.45077,4.77004 -0.830426,7.13562 -0.14505,1.61351 -0.78749,3.32873 -0.33716,4.93843 0.939086,1.37283 1.923566,2.69919 2.705676,4.17374 0.71027,1.25071 0.84963,2.56534 2.2939,3.1066 1.80734,0.35879 3.6173,0.649 5.40508,1.1111 1.99779,0.6221 3.98577,1.17765 6.06631,1.4255 2.29432,0.15436 4.52963,0.52839 6.74119,1.14806 1.53275,0.55999 3.04167,1.02892 4.68141,1.00081 0.26111,-0.0158 0.53149,0.0232 0.78333,-0.0475 0.17056,-0.0479 -0.70429,0.0138 -0.53106,-0.0233 0.289,-0.062 1.52062,-0.0538 1.79892,-0.07 0.43101,-0.0253 1.39171,-0.14413 1.82584,-0.19506 1.28079,-0.0912 2.54417,-0.20409 3.73489,-0.70185 1.11052,-0.58268 2.21071,-1.14308 3.42527,-1.47095 0.2355,-0.0272 0.40382,-0.22457 0.62428,-0.28627 0.28028,-0.0784 0.18509,0.3251 0.28254,-0.17544 0.11002,-0.8141 0.65727,-1.154 1.30577,-1.54991 0.0571,-0.0835 1.23898,0.72335 1.18192,0.80693 v 0 c -0.0555,0.28345 -0.0807,0.47394 0.0513,0.7292 0.24131,1.12317 -0.0784,2.17049 -0.79345,3.05632 -0.99473,1.313 -2.17687,1.92882 -3.73159,2.41247 -1.33633,0.57166 -2.5574,1.37421 -3.9339,1.85951 -2.54187,0.77773 -4.98627,1.25316 -7.68116,0.91063 -1.7934,-0.22277 -3.5683,-0.59158 -5.37582,-0.69936 -2.33921,-0.18005 -4.67723,-0.36583 -6.95122,-0.99246 -2.07585,-0.59768 -4.16222,-1.13502 -6.2812,-1.55969 -2.24843,-0.57015 -4.50294,-1.2147 -6.43673,-2.54888 -1.676868,-1.34855 -3.028689,-2.94712 -3.872636,-4.949 -0.835044,-1.64486 -1.849776,-3.17441 -2.697827,-4.81144 -0.987944,-2.42634 -1.349266,-4.95436 -0.952201,-7.56539 0.429342,-2.33048 1.161161,-4.57284 1.748719,-6.86577 0.464926,-2.09141 0.846811,-4.23607 2.056084,-6.05569 1.132624,-1.64957 2.547223,-3.02078 3.989191,-4.39712 1.12397,-1.40376 2.04435,-2.96382 3.30239,-4.25855 1.55388,-1.54153 3.25579,-2.91098 5.07338,-4.13074 2.02687,-1.31987 4.14222,-2.48437 6.50417,-3.0923 3.27017,-0.86467 6.62776,-1.19719 10.00958,-0.9671 1.87566,0.17298 3.73893,0.4416 5.57546,0.86771 0.25808,0.01 0.52016,-0.0174 0.7742,0.0288 0.14417,0.0263 -0.58478,0.0256 -0.43839,0.0323 1.16647,0.0533 0.85918,-0.0429 2.09437,-0.15223 2.60868,-0.23089 2.1261,-0.19378 4.23251,-0.19108 0.57844,0.0303 1.16109,0.0149 1.73532,0.0908 2.26986,0.30003 4.98551,1.24419 6.3482,3.22201 0.27595,0.4005 0.38584,0.89291 0.57877,1.33938 0.19471,0.19286 -2.53287,2.94645 -2.72757,2.75358 z"
       inkscape:connector-curvature="0" />
    <path
       style="display:inline;fill:#000000;fill-opacity:1;stroke-width:0.23391145"
       id="path351"
       d="m 103.09425,127.13715 c -3.249696,0.70466 -6.364079,-0.57156 -9.334219,-1.76726 -1.543886,-0.59734 -2.938045,-1.75726 -4.613606,-1.96988 -0.0027,1.6e-4 -1.137716,0.0427 -1.042775,0.14647 0.184277,0.20133 0.818034,-0.135 0.807134,0.13772 -0.01096,0.2746 -0.544776,0.0728 -0.817027,0.11036 -0.875039,0.12059 -0.895179,0.12587 -1.785981,0.25762 -1.977817,0.30772 -3.940242,0.70366 -5.913382,1.03855 -1.606638,0.22607 -3.120351,0.58566 -4.502204,1.45224 -1.65238,1.27701 -3.126001,2.76675 -4.700529,4.13911 -1.962372,1.68142 -4.129796,3.07269 -6.337314,4.40193 -1.548492,0.792 -2.153155,1.36891 -2.786586,2.95198 -0.55191,1.85677 -0.948904,3.75925 -1.142074,5.68632 -0.181837,2.29053 0.211577,4.24232 1.030195,6.3636 0.966541,2.03088 2.057321,3.99454 2.922654,6.07248 0.581155,1.3482 0.86199,2.57228 2.251676,3.25173 1.881559,0.66294 3.909273,0.80827 5.869329,1.1356 2.308682,0.40592 4.499269,1.20566 6.646642,2.12002 0.556808,0.18816 1.119876,0.49373 1.727978,0.46541 0.177213,-0.008 0.676352,0.003 0.524663,-0.0893 -0.432711,-0.26235 -1.670601,0.0892 -0.102385,-0.25268 2.110888,-0.68982 4.184556,-1.47769 6.303259,-2.15118 1.728305,-0.62347 3.4974,-1.09008 5.315615,-1.33835 0.435822,0.0908 0.699162,-0.0491 1.085723,-0.10924 0.333564,0.0666 0.667143,0.13322 1.000722,0.19983 0.139224,-0.17334 2.590454,1.79558 2.45123,1.96891 v 0 c 0.08558,0.30477 0.171201,0.60953 0.256806,0.91429 -0.0801,0.15654 -0.131126,0.33173 -0.240247,0.4696 -0.330379,0.41744 -0.989749,0.51616 -1.143127,1.10063 -1.210652,1.6263 -2.978043,2.70488 -4.826431,3.48023 -1.15805,0.41901 -1.780934,0.69051 -2.994211,0.94307 -1.759884,0.36634 -3.581511,0.37529 -5.369252,0.3286 -1.706972,-0.0878 -0.623538,-0.043 -3.251981,-0.0861 -1.165016,-0.0579 -2.324772,-0.36008 -3.487357,-0.45361 -2.333153,-0.30377 -4.674068,-0.60587 -6.949765,-1.22372 -2.493171,-0.78978 -4.941757,-1.76901 -6.959313,-3.48325 -1.460775,-1.39064 -2.599393,-2.99721 -3.602632,-4.74476 -1.508921,-2.11438 -3.1292,-4.19034 -4.023937,-6.66122 -0.162007,-0.52657 -0.351641,-1.04541 -0.48602,-1.5797 -0.606555,-2.41197 -0.570909,-4.90544 -0.26219,-7.35713 0.366422,-2.25969 0.991454,-4.4458 1.65177,-6.63544 0.752374,-2.40801 1.863099,-4.64042 3.806835,-6.32108 0.964393,-0.74849 1.091381,-0.88254 2.117041,-1.53811 1.264457,-0.80819 2.641492,-1.44942 3.790303,-2.431 1.839945,-1.5556 3.572855,-3.25419 5.604822,-4.5679 1.971725,-1.16586 3.915488,-2.05253 6.206576,-2.38181 2.08212,-0.4559 4.151536,-0.98847 6.260523,-1.30563 2.475489,-0.22112 5.036141,-0.21964 7.449878,0.42676 1.81718,0.49419 3.668947,0.78156 5.538014,1.00311 2.471042,0.48807 5.724307,1.00008 7.640807,2.76048 0.33054,0.30362 0.56013,0.70143 0.84019,1.05216 0.28778,0.17153 -2.13809,4.24114 -2.42584,4.06961 z"
       inkscape:connector-curvature="0" />
  </g>
</svg>
