<?xml version="1.0" encoding="UTF-8" standalone="no"?>
<!-- Created with Inkscape (http://www.inkscape.org/) -->

<svg
   xmlns:dc="http://purl.org/dc/elements/1.1/"
   xmlns:cc="http://creativecommons.org/ns#"
   xmlns:rdf="http://www.w3.org/1999/02/22-rdf-syntax-ns#"
   xmlns:svg="http://www.w3.org/2000/svg"
   xmlns="http://www.w3.org/2000/svg"
   xmlns:sodipodi="http://sodipodi.sourceforge.net/DTD/sodipodi-0.dtd"
   xmlns:inkscape="http://www.inkscape.org/namespaces/inkscape"
   width="1024"
   height="1024"
   viewBox="0 0 270.93333 270.93333"
   version="1.1"
   id="svg8"
   inkscape:version="0.92.4 (5da689c313, 2019-01-14)"
   sodipodi:docname="lamp.svg"
   inkscape:export-filename="C:\Users\panu-\PycharmProjects\nextgame\data\images\lamp.png"
   inkscape:export-xdpi="10.923292"
   inkscape:export-ydpi="10.923292">
  <defs
     id="defs2" />
  <sodipodi:namedview
     id="base"
     pagecolor="#ffffff"
     bordercolor="#666666"
     borderopacity="1.0"
     inkscape:pageopacity="0.0"
     inkscape:pageshadow="2"
     inkscape:zoom="0.69977473"
     inkscape:cx="303.60705"
     inkscape:cy="498.54817"
     inkscape:document-units="mm"
     inkscape:current-layer="layer2"
     showgrid="false"
     units="px"
     width="1024px"
     inkscape:window-width="1920"
     inkscape:window-height="1017"
     inkscape:window-x="-8"
     inkscape:window-y="-8"
     inkscape:window-maximized="1" />
  <metadata
     id="metadata5">
    <rdf:RDF>
      <cc:Work
         rdf:about="">
        <dc:format>image/svg+xml</dc:format>
        <dc:type
           rdf:resource="http://purl.org/dc/dcmitype/StillImage" />
        <dc:title />
      </cc:Work>
    </rdf:RDF>
  </metadata>
  <g
     inkscape:label="lines"
     inkscape:groupmode="layer"
     id="layer1"
     transform="translate(0,-26.066657)"
     style="display:inline"
     sodipodi:insensitive="true">
    <g
       id="g919"
       transform="rotate(-2.3116028,117.89648,169.02984)"
       style="fill:#808080">
      <path
         inkscape:connector-curvature="0"
         d="m 64.439789,106.65651 c 0.01662,0.33237 0.05506,0.66436 0.04982,0.9971 -0.02418,1.53739 -0.315158,3.06593 -0.462433,4.59303 -0.187619,1.94546 -0.145203,1.72203 -0.186272,3.7004 0.105325,4.65832 0.563925,9.2951 0.720434,13.95262 0.15689,5.90395 -0.444154,11.78707 -0.996908,17.65595 -0.531119,5.24299 -0.480354,10.51551 -0.429593,15.77732 0.129119,5.24192 -0.231741,10.47263 -0.56088,15.69979 -0.309443,4.41839 -0.435141,8.83795 -0.391393,13.26555 0.123047,4.34493 0.252619,8.68799 0.164913,13.03451 -0.101442,3.9188 -0.861232,7.77253 -1.548681,11.61903 -0.487386,2.76836 -0.468627,5.57418 -0.298286,8.36804 0.249471,2.93442 0.285377,5.8727 0.07615,8.80908 -0.117157,1.62744 -0.449625,3.23236 -0.522602,4.86274 -0.01376,0.78319 -0.02482,1.56602 -0.127328,2.34342 -0.380937,1.72398 -0.503468,0.58818 -3.841639,1.09442 -0.04406,0.007 0.09865,0.0938 0.121581,0.0556 0.0478,-0.0797 0.0081,-0.1856 0.01217,-0.2784 0.0651,-0.82773 -0.04607,-0.39706 0.428686,-1.26364 -0.315701,-0.92996 0.999461,-1.37642 1.315159,-0.44646 v 0 c 0.747795,-0.114 0.443878,0.002 0.941652,-0.25784 0.03305,0.001 1.527704,0.008 0.659363,0.33053 -1.10985,0.41258 -2.312032,0.51563 -3.455718,0.8222 -0.102705,0.0275 -0.02921,0.23517 -0.118742,-0.0553 -0.136655,-0.72884 -0.245041,-1.4628 -0.334894,-2.19883 -0.185787,-1.6778 -0.331628,-3.35981 -0.450604,-5.04365 -0.164758,-2.85273 -0.193283,-5.70857 -0.258021,-8.56477 -0.08962,-3.06458 -0.276103,-6.13481 0.04867,-9.19392 0.286964,-3.69648 0.809003,-7.37789 0.821751,-11.09259 0.05389,-4.28323 0.03471,-8.56797 -0.02967,-12.85102 -0.112297,-4.55772 -0.27228,-9.12294 -0.0044,-13.67828 0.251357,-5.12219 0.494707,-10.2472 0.573609,-15.37528 0.04298,-5.41881 -0.02614,-10.84356 0.352128,-16.25365 0.40367,-5.77661 1.118016,-11.52111 1.620489,-17.28937 0.18946,-2.4961 0.351628,-4.98994 0.44577,-7.49177 0.04389,-1.16638 0.08504,-3.34553 0.156088,-4.52014 0.04362,-0.72119 0.118848,-1.44011 0.178271,-2.16016 0.460436,-3.3815 0.974005,-7.02685 3.376625,-9.6393 0.475936,-1.38221 2.43068,-0.70914 1.954745,0.67307 z"
         id="path856"
         style="fill:#808080;fill-opacity:1;stroke:none;stroke-width:0.26458332;stroke-opacity:1" />
      <path
         inkscape:connector-curvature="0"
         d="m 60.460297,106.50961 c -0.102571,-0.40047 -0.250519,-0.79198 -0.307713,-1.2014 -0.359368,-2.5725 0.291091,-5.318754 1.251794,-7.693619 0.261223,-0.645748 0.599289,-1.257679 0.898932,-1.886519 1.457814,-2.685235 3.557603,-4.921512 5.306952,-7.405973 1.104664,-1.704819 2.199624,-3.423444 3.533727,-4.962753 1.046776,-1.207786 1.315252,-1.389092 2.498693,-2.469737 2.597759,-2.159519 5.552419,-3.831331 8.401169,-5.630548 2.967696,-1.965087 6.028058,-3.76909 9.209193,-5.363998 2.839379,-1.31359 5.755053,-2.45428 8.656238,-3.622622 3.216958,-1.365845 6.608438,-2.177111 10.059618,-2.654414 3.01072,-0.362744 6.04545,-0.409948 9.06788,-0.625142 2.85254,-0.2418 5.706,-0.459142 8.56886,-0.513148 0.43574,0.0094 0.87148,0.01857 1.3072,0.02835 0.84425,0.01897 1.68935,0.01487 2.53271,0.05789 1.55337,0.07925 3.08371,0.492665 4.57714,0.894305 2.0721,0.714486 4.1703,1.303523 6.31148,1.765853 2.56054,0.493004 5.0745,1.155843 7.53264,2.023314 2.22705,0.917461 4.27311,2.196269 6.38188,3.34627 2.15559,1.101071 4.30501,2.21421 6.34409,3.521088 1.72641,1.096457 3.04103,2.643238 4.37478,4.160816 0.90709,1.166847 2.05571,2.096183 3.16521,3.057697 1.32803,1.099265 2.34325,2.464914 3.21032,3.940585 0.83487,1.51311 1.52566,3.096842 2.07091,4.735349 0.45276,1.511802 0.5507,3.09994 0.68164,4.664987 0.0849,1.033307 0.10184,2.070733 0.1332,3.106672 0.0106,0.495281 0.0998,0.9809 0.20569,1.46322 0.21125,0.875427 0.25989,1.774277 0.26887,2.671057 0.0316,0.44946 -0.026,0.89131 -0.0793,1.33509 -0.0236,0.17163 0.10147,0.4013 0.16092,0.9079 0.0811,0.39525 -0.0385,0.75714 -0.13502,1.13183 -0.13027,-0.54526 -0.30582,-1.08165 -0.3908,-1.63578 -5.3e-4,-0.004 0.08,0.0254 0.33617,0.43495 0.0565,0.0903 -0.14562,-0.16613 -0.24446,-0.20594 -0.15975,-0.0643 -0.33897,-0.0612 -0.50846,-0.0919 -0.15539,0.14135 -0.31078,0.28271 -0.46617,0.42406 1.62735,0.44956 0.99158,2.75099 -0.63578,2.30143 v 0 c -0.21886,0.13997 -0.43772,0.27995 -0.65659,0.41993 -0.21467,-0.045 -0.44258,-0.0482 -0.64403,-0.13494 -0.73138,-0.31501 -0.64154,-1.08735 -0.95866,-2.0603 -0.11207,0.38073 -0.15975,-0.32836 -0.11541,-0.42538 0.004,-0.0412 0.12654,-0.95062 0.0363,-0.51625 -0.39543,-0.36985 -0.38461,-1.37191 -0.47618,-1.85002 -0.005,-0.6887 0.0579,-1.36809 0.17711,-2.04656 -0.064,-0.548889 -0.44567,-1.031568 -0.4996,-1.59058 -0.23628,-1.102939 -0.34564,-2.219137 -0.37296,-3.346944 -0.0688,-1.213372 -0.21075,-2.425174 -0.60628,-3.58117 -0.49729,-1.373259 -1.06205,-2.724854 -1.72296,-4.0279 -0.60469,-1.084162 -1.35535,-2.030659 -2.36613,-2.771728 -1.32164,-1.065239 -2.58404,-2.198481 -3.65344,-3.524334 -1.0289,-1.216279 -2.21843,-2.191052 -3.67643,-2.867541 -2.15773,-1.116074 -4.3572,-2.162839 -6.40463,-3.477938 -1.76384,-1.108408 -3.52198,-2.263441 -5.57836,-2.752804 -2.42853,-0.687694 -4.89313,-1.242314 -7.30477,-1.991447 -2.04578,-0.651283 -4.0657,-1.389131 -6.13798,-1.95317 -1.81381,-0.411607 -3.26767,-0.436957 -4.6678,-0.278784 -2.79232,0.1338 -5.57034,0.429948 -8.35695,0.646047 -2.86503,0.185779 -5.74325,0.27324 -8.58947,0.664546 -3.11701,0.572145 -6.22275,1.221343 -9.26821,2.105347 -2.77547,0.931889 -5.435804,2.133034 -8.011634,3.526854 -3.053072,1.599933 -6.022504,3.346439 -8.99096,5.09715 -2.688531,1.531935 -5.411261,3.030982 -7.899169,4.880639 -2.204088,1.84513 -4.172802,3.923885 -5.849705,6.26555 -1.611773,2.22177 -3.145488,4.504923 -4.316709,6.996655 -0.460899,0.937006 -1.089784,2.185832 -1.500441,3.142492 -0.769808,1.79334 -1.309114,3.67816 -2.14444,5.44332 0,2.63307 -3.723735,2.63307 -3.723735,0 z"
         id="path864"
         style="fill:#808080;fill-opacity:1;stroke:none;stroke-width:0.26458332;stroke-opacity:1" />
      <path
         inkscape:connector-curvature="0"
         d="m 60.52001,239.80416 c 1.162892,2.18552 1.670894,4.63701 2.58712,6.92879 0.715222,1.73534 2.154491,2.89038 3.483438,4.13706 1.495819,1.44191 2.717004,3.12855 4.062463,4.70455 1.323009,1.5337 2.823554,2.9025 4.365397,4.21128 1.741805,1.35916 3.334308,2.88184 4.833366,4.50088 1.053708,1.17136 2.127089,2.30641 3.507856,3.08466 1.5473,0.75835 3.257553,0.99065 4.94623,1.21027 2.489176,0.31536 4.984768,0.57432 7.46924,0.92566 1.76449,0.28439 3.55205,0.35313 5.33619,0.30528 1.49622,-0.0401 1.25477,0.37466 1.51801,-0.12544 3.12408,-0.11787 6.24904,-0.15778 9.37471,-0.19237 3.16678,-0.0293 5.43729,0.13248 8.21178,-0.14914 2.29579,-0.28264 4.53252,-0.87496 6.7658,-1.45687 2.05595,-0.6074 4.17374,-0.88679 6.29682,-1.12362 1.91449,-0.15862 3.74019,-0.76429 5.54251,-1.39115 1.69658,-0.60561 3.40739,-1.16875 5.14724,-1.6363 0.41946,-0.18546 0.90628,-0.15304 1.32009,-0.33911 0.71243,-0.78909 1.56595,-1.40595 2.45363,-1.98099 1.38212,-0.82434 2.82459,-1.54263 4.26903,-2.2502 1.00554,-0.47966 1.98812,-0.98789 2.90618,-1.62004 0.88593,-0.6453 1.86189,-1.14528 2.80801,-1.69264 0.70976,-0.39944 1.18457,-1.04927 1.66668,-1.68386 0.53341,-0.72187 1.03562,-1.46572 1.605,-2.16021 0.44598,-0.43291 0.74498,-0.94759 1.02302,-1.49436 0.38224,-0.77091 0.86913,-1.48328 1.33418,-2.20537 0.34466,-0.46634 0.58899,-0.97217 0.79043,-1.51133 0.1753,-0.58528 0.51347,-1.10515 0.71048,-1.68057 0.18287,-0.60195 0.43923,-1.17255 0.7313,-1.72851 0.26652,-0.47451 0.55651,-0.9342 0.76395,-1.43863 0.22017,-0.6469 0.61012,-1.19601 0.9777,-1.76222 0.2086,-0.30866 0.44846,-0.59114 0.61911,-0.92309 0.0918,-0.21499 0.18736,-0.5553 0.32155,-0.65962 7.9e-4,0.0472 0.002,0.18885 0.002,0.14164 -0.002,-0.54771 0.13485,-1.03935 0.31581,-1.5506 0.20634,-0.54305 0.50402,-1.0438 0.83347,-1.52008 0.3026,-0.65653 -0.0408,0.6882 0.12619,-0.36559 0.15085,-0.69559 0.47738,-1.33873 0.78465,-1.97661 0.23025,-0.52709 0.54142,-0.60925 1.08597,-0.5751 0.37437,0.0235 0.74808,0.0566 1.12211,0.0849 0.0378,-0.69549 1.02138,-0.642 0.98356,0.0535 v 0 c 0.36613,0.15034 0.77358,0.22486 1.0984,0.45102 0.60408,0.42059 0.38184,1.40177 0.0942,1.91172 -0.10164,0.17672 -0.4365,0.93687 -0.68324,0.83091 -0.0784,0.47997 -0.19003,1.15667 -0.49941,1.64193 -0.18354,0.3658 -0.36462,0.74104 -0.60917,1.06955 -0.0302,0.0437 -0.0508,0.0959 -0.0906,0.13108 -0.0221,0.0195 -0.006,-0.0585 -0.01,-0.0878 -0.006,-0.0241 0.002,-0.0881 -0.0166,-0.0721 -0.1155,0.0974 0.28183,0.48473 -0.0195,0.45287 -0.0481,0.63181 -0.14776,1.23823 -0.44727,1.80907 -0.23429,0.48629 -0.49923,0.95681 -0.83634,1.3785 -0.28251,0.39592 -0.31275,0.98017 -0.61745,1.37389 -0.28873,0.52148 -0.56382,1.05664 -0.9047,1.54552 -0.21262,0.37844 -0.37648,0.76217 -0.48881,1.18597 -0.20953,0.55562 -0.39423,1.11966 -0.59742,1.67753 -0.27623,0.80592 -0.60487,1.59106 -1.06407,2.31201 -0.39918,0.70389 -0.78952,1.41327 -1.21537,2.10158 -0.41721,0.70608 -0.91258,1.34553 -1.41585,1.99053 -0.47952,0.69199 -0.80734,1.47533 -1.29447,2.16367 -0.76558,1.12141 -1.61202,2.19041 -2.73436,2.97902 -0.88074,0.5916 -1.8231,1.06736 -2.73177,1.61189 -1.01777,0.65801 -1.94073,1.45531 -2.98831,2.07039 -1.39021,0.87621 -2.81559,1.70997 -4.35745,2.29414 -0.88002,0.3536 -1.77608,0.67952 -2.60474,1.14145 -0.50791,0.34384 -0.98156,0.71539 -1.45618,1.1036 -1.60245,1.16127 -3.37129,2.0458 -5.26509,2.63311 -2.14804,0.64591 -4.32029,1.1591 -6.55884,1.37454 -1.85819,0.25381 -3.71699,0.53612 -5.50467,1.12703 -2.44542,0.73438 -4.9121,1.427 -7.43763,1.82742 -0.72154,0.0983 -2.15349,0.30856 -2.88026,0.34622 -1.95911,0.10152 -3.92154,0.0745 -5.88213,0.0719 -0.0134,-1e-5 0.0263,-0.005 0.0395,-0.008 -3.11491,0.0112 -6.22616,0.17411 -9.34009,0.24077 -1.05269,-0.009 -2.10571,0.002 -3.15807,-0.0261 -2.469729,-0.0647 -4.914844,-0.47428 -7.353818,-0.8296 -2.496286,-0.41907 -4.994915,-0.83933 -7.459713,-1.42064 -2.119161,-0.54245 -4.233859,-1.16357 -6.013077,-2.49436 -1.479184,-1.08374 -2.866413,-2.2763 -4.184213,-3.55221 -1.575594,-1.44164 -3.183101,-2.84693 -4.763474,-4.28323 -1.615866,-1.5274 -3.206199,-3.09037 -4.537133,-4.88007 -1.169225,-1.52164 -2.27798,-3.09549 -3.630895,-4.4651 -1.609572,-1.64141 -3.260675,-3.27841 -4.250973,-5.39179 -1.150033,-2.54968 -2.095545,-5.31492 -1.473968,-8.13603 -0.209729,-2.22182 2.932412,-2.51842 3.142139,-0.29659 z"
         id="path870"
         style="fill:#808080;fill-opacity:1;stroke:none;stroke-width:0.26458332;stroke-opacity:1" />
      <path
         inkscape:connector-curvature="0"
         d="m 171.67315,233.38036 c -0.15088,-0.36655 -0.34372,-0.71852 -0.45264,-1.09965 -0.70614,-2.47077 -0.46703,-5.27256 -0.24235,-7.79387 0.25074,-2.13325 0.37511,-4.27247 0.28656,-6.41832 -0.15702,-2.51224 -0.29896,-5.02369 -0.36319,-7.5403 -0.0617,-2.68064 -0.05,-5.36103 -0.0249,-8.04196 0.0826,-2.04394 0.10515,-4.08813 0.0415,-6.13263 -0.1268,-2.10644 -0.17955,-4.20984 -0.0166,-6.31455 0.17758,-1.90121 0.62224,-3.76299 0.98253,-5.63481 0.33925,-1.95592 0.71572,-3.90451 1.08631,-5.85444 0.41787,-1.80503 0.42755,-3.64448 0.33919,-5.48276 -0.12793,-2.05294 -0.17681,-4.10921 -0.23931,-6.16478 -0.065,-1.8867 -0.0815,-3.77409 0.0564,-5.6574 0.17977,-1.9317 0.62702,-3.82261 1.00758,-5.72103 0.32058,-1.49133 0.47426,-3.00788 0.59915,-4.52558 0.0574,-1.77448 0.14686,-3.54709 0.27218,-5.318 0.1451,-1.91681 0.29953,-3.83223 0.37643,-5.75323 0.0377,-1.54382 0.0908,-3.09127 -0.0311,-4.63221 -0.20805,-1.52079 -0.3708,-3.03776 -0.35916,-4.5739 0.0312,-1.02957 0.22856,-2.04203 0.33956,-3.06388 0.0493,-0.68771 0.0119,-1.37794 -0.0647,-2.06202 -0.18836,-0.88553 -0.34022,-1.7791 -0.46727,-2.67538 -0.14189,-1.01999 -0.10506,-2.05063 -0.005,-3.07198 0.10386,-0.57738 -0.003,-1.14022 -0.0774,-1.7122 -0.10771,-0.86688 -0.11634,-1.74087 -0.11698,-2.61305 -0.006,-0.79921 0.0256,-1.59503 0.1228,-2.38823 0.10027,-0.46679 0.051,-0.9369 0.026,-1.40746 -0.0816,-0.75123 -0.0916,-1.50599 -0.0581,-2.26018 -0.007,-0.27799 0.13363,-0.56632 -0.03,-0.78761 -0.34214,-0.78857 -0.52705,-1.63001 -0.74904,-2.45737 -0.1886,-0.61756 -0.38771,-1.23161 -0.59547,-1.84295 -0.2202,-0.52445 -0.33989,-1.0719 -0.44362,-1.62815 -0.0287,-0.30731 -0.25208,-0.80813 -0.0238,-1.08756 0.0431,-0.0527 0.12993,-0.0406 0.19489,-0.0609 0.66661,-0.0714 0.27396,-0.0284 1.17766,-0.13142 -0.41788,-0.8771 0.82253,-1.46808 1.24041,-0.59098 v 0 c 0.96925,-0.0196 0.54952,-0.0913 1.27198,0.1177 0.41418,0.36928 0.52274,0.5217 0.56723,1.10419 0.0981,0.58891 -0.082,-0.0404 0.0853,0.16088 0.0676,0.0814 0.12439,0.17117 0.18659,0.25676 0.56134,0.87862 0.95498,1.82167 1.13272,2.85572 0.10048,0.61941 0.1225,1.24833 0.25332,1.85771 0.24254,0.72592 0.41698,1.47309 0.45003,2.2408 0.0304,0.75013 0.0166,1.50061 -0.0696,2.24712 -0.025,0.46425 -0.0511,0.92161 0.061,1.37964 0.10768,0.8518 0.12165,1.70621 0.0512,2.56276 -0.0453,0.63181 -0.13768,1.27163 -0.0552,1.90346 0.13655,0.84306 0.29959,1.6887 0.21454,2.5477 -0.0205,0.69788 -0.0764,1.40083 0.0797,2.08884 0.22183,1.04028 0.44303,2.08986 0.45038,3.15832 0.0155,0.82811 -0.0114,1.65673 -0.002,2.48512 0.006,0.91479 0.0179,1.82874 0.10502,2.74045 0.11419,1.4588 0.31248,2.90766 0.46116,4.36289 0.12655,1.69169 0.25511,3.38451 0.27726,5.08155 -0.0126,2.03995 -0.15574,4.07314 -0.37459,6.10137 -0.21476,1.75147 -0.41612,3.50425 -0.58064,5.26124 -0.15741,1.64267 -0.23142,3.2924 -0.43913,4.93011 -0.27152,1.77893 -0.70123,3.52202 -1.029,5.29023 -0.15336,1.67716 -0.0408,3.35832 0.0981,5.03377 0.16268,2.10693 0.29725,4.21687 0.32374,6.33059 -0.0149,2.14317 -0.1444,4.27694 -0.55398,6.38567 -0.34334,2.05104 -0.77561,4.08778 -1.37018,6.08221 -0.46636,1.60047 -0.91659,3.20408 -0.99585,4.88106 -0.10511,1.96859 -0.0928,3.94316 -0.13411,5.91386 0.0464,2.08714 0.21168,4.16967 0.22381,6.25809 0.009,2.66853 -0.003,5.33639 -0.0436,8.00462 -0.037,2.53232 -0.11246,5.0632 -0.24512,7.59246 -0.11736,2.19471 -0.16988,4.39104 -0.14498,6.58914 -0.0243,2.42013 -0.007,5.13867 -0.61648,7.49145 -0.0945,0.3647 -0.25592,0.70871 -0.38388,1.06307 0.0992,2.15179 -2.94394,2.292 -3.04309,0.14021 z"
         id="path874"
         style="fill:#808080;fill-opacity:1;stroke:none;stroke-width:0.26458332;stroke-opacity:1" />
    </g>
  </g>
  <g
     inkscape:groupmode="layer"
     id="layer3"
     inkscape:label="lines 2"
     style="display:inline"
     sodipodi:insensitive="true">
    <path
       style="fill:#ffeeaa;fill-opacity:1;stroke:none;stroke-width:1.42903125;stroke-opacity:1"
       d="m 448.03543,157.57957 c -35.78606,3.39876 -72.18952,10.00017 -103.36254,28.9359 -31.5637,18.90651 -66.65458,36.3921 -86.7712,68.67084 -14.00559,22.62171 -26.59317,48.18643 -25.21132,75.50614 -1.21077,36.29006 6.60541,72.23634 4.32545,108.44186 -2.14367,85.70681 1.10954,171.66589 2.20241,257.22355 -0.69971,21.9883 -5.78334,43.99926 -2.70449,66.12698 1.46814,17.84693 0.19121,35.95306 1.84961,53.60189 6.212,15.39937 12.21231,31.60883 25.50233,42.481 19.43403,20.16788 40.56966,38.61071 61.93733,56.63846 15.94045,9.16826 35.41944,7.02166 53.0604,9.46781 29.07007,1.05739 57.97879,-3.23224 86.98745,-4.68392 19.63655,-2.26095 38.21488,-9.58824 57.66086,-12.98688 19.92862,-5.4411 39.58162,-12.84686 56.20996,-25.33323 17.90154,-9.54839 36.18681,-20.97467 45.67551,-39.72397 8.73915,-15.11798 13.91586,-31.80125 22.17789,-47.11895 1.46705,-8.77654 6.60563,-16.11483 9.52594,-24.25725 -3.55719,-22.30747 0.82757,-45.34315 -2.54546,-67.6585 -1.5389,-33.9557 -4.6528,-68.17255 -2.86285,-102.0209 3.27455,-22.79591 6.50915,-45.76969 3.73646,-68.82369 -1.96711,-18.10137 -0.7911,-35.92234 1.82384,-53.94569 1.811,-39.06863 2.55647,-78.46259 -1.78756,-117.37897 -3.68934,-20.24325 -0.77989,-41.23516 -5.17186,-61.33391 -2.42045,-4.37343 -8.46184,-5.98603 -7.98527,-12.28354 -4.37394,-23.93701 -3.86195,-51.86201 -21.8653,-70.53888 -13.14257,-13.37634 -27.95076,-25.01807 -45.11496,-32.79794 -22.19142,-13.22656 -47.36301,-19.25258 -72.25363,-25.05212 -11.43764,-3.20394 -22.89387,-6.59874 -34.76343,-3.41295 -6.75854,0.75229 -13.51705,1.50457 -20.27557,2.25686 z"
       id="path932"
       inkscape:connector-curvature="0"
       transform="scale(0.26458333)" />
    <g
       id="g942"
       transform="matrix(1.3752425,0,0,1.1296681,-39.435387,-19.164258)">
      <path
         inkscape:connector-curvature="0"
         d="m 101.13812,75.651505 c -0.0371,0.411966 -0.0344,0.829489 -0.11142,1.235897 -0.20611,1.087938 -0.65878,2.267636 -1.053669,3.287525 -0.712047,1.838989 -1.514062,3.643902 -2.256798,5.470676 -1.64968,4.118996 -2.690789,8.445267 -3.72269,12.750307 -1.483249,5.83747 -2.073863,11.83309 -2.695416,17.80681 -0.569161,6.00441 -1.633726,11.94187 -2.900426,17.83349 -1.128676,4.48287 -1.357911,9.08061 -1.369407,13.6795 0.06062,4.76287 0.165468,9.52439 0.09684,14.28768 -0.077,3.4081 -0.220239,6.80673 0.09652,10.20538 0.497464,3.4757 1.446821,6.86647 2.247273,10.28046 0.852027,3.56086 1.341331,7.18868 1.83566,10.81153 0.298699,2.35741 0.860558,4.65761 1.641923,6.89797 0.775276,1.9122 1.348589,3.92478 2.304314,5.75846 0.116919,0.14803 0.212423,0.31585 0.350758,0.4441 0.492297,0.45639 2.776154,0.69106 3.447613,0.81655 2.324015,0.39474 4.552755,1.14702 6.713395,2.07187 1.64104,0.83369 3.35972,0.83432 5.14755,0.74152 0.37783,-0.0235 0.75808,-0.0218 1.13349,-0.0705 0.0519,-0.007 -0.19832,-0.0529 -0.14617,-0.0576 1.57534,-0.14457 3.19329,-0.0809 4.77271,-0.0509 1.36501,-0.0238 2.76076,0.38334 4.07263,-0.10591 1.77764,-1.1023 3.601,-2.03993 5.53897,-2.83157 0.99646,-0.53031 2.34241,-0.61689 3.20316,-1.40639 0.32266,-0.29595 0.48915,-0.70118 0.68939,-1.07689 0.64479,-1.44396 1.27771,-2.89357 2.14988,-4.21967 0.56379,-0.85723 0.93845,-1.28399 1.57444,-2.07201 1.28358,-1.38975 2.56335,-2.75949 3.46062,-4.43458 0.87695,-1.78785 1.25422,-3.74106 1.53987,-5.69459 0.2594,-2.41052 0.53277,-4.81651 0.93655,-7.20767 0.44223,-2.29167 0.98945,-4.55837 1.3665,-6.86236 0.41376,-2.90358 0.68759,-5.82305 1.10975,-8.72554 0.35937,-2.19668 0.71127,-4.39454 0.89049,-6.61412 0.15444,-2.55229 0.0373,-5.10975 -0.0375,-7.66256 -0.048,-2.60261 -0.0786,-5.20482 -0.0816,-7.80764 0.11863,-2.17897 -0.0858,-4.34993 -0.25872,-6.51919 -0.21077,-2.79619 -0.13361,-5.60193 -0.15526,-8.40306 -0.0177,-1.97883 -0.63456,-3.87777 -1.05538,-5.79431 -0.56236,-2.63643 -0.88759,-5.3133 -1.34203,-7.96813 -0.32287,-1.9719 -1.20856,-3.77905 -1.88327,-5.64359 -0.93981,-2.7624 -1.5363,-5.6298 -1.85272,-8.5271 -0.22687,-0.85885 0.006,-1.819684 -0.26506,-2.669476 -0.0782,-0.244866 -0.22111,-0.466365 -0.34413,-0.688226 -0.84534,-1.504328 -1.74577,-2.976544 -2.63569,-4.454824 -0.83539,-1.360448 -1.45928,-2.833491 -2.21541,-4.234918 -0.56531,-0.817771 -1.40265,-1.413991 -2.12216,-2.093693 -1.01348,-0.950658 -1.79968,-2.092833 -2.5878,-3.226522 -0.233,-0.406305 -0.53508,-0.326551 -0.95104,-0.489842 -1.17786,-0.563676 -2.28687,-1.257265 -3.4076,-1.924552 -0.64167,-0.317897 -1.24495,-0.886492 -1.87238,-1.156058 0.0442,0.02305 0.083,0.06538 0.1327,0.06912 0.4891,0.03686 0.98061,0.02864 1.47056,0.0517 0.0662,0.0031 -0.1324,0.0078 -0.19868,0.0082 -1.13372,0.006 -1.84068,0.03791 -2.86079,-0.186754 -1.03522,-0.288782 -2.05739,-0.623522 -3.07744,-0.96167 -0.61932,-0.301268 -2.6244,-0.217109 -0.0199,-0.15399 -1.30901,0.07423 -2.61706,0.112424 -3.93011,0.06709 -0.47335,-0.03251 -3.80775,-0.0078 -1.13757,0.01976 -0.73124,0.06077 -1.47316,-0.09112 -2.20078,-0.0036 -0.89863,0.270515 -1.77559,0.604117 -2.6691,0.891836 -0.68246,0.142274 -1.49027,0.432274 -2.17544,0.165677 -0.4946,-0.238461 -0.84468,-0.705038 -1.21972,-1.091409 -1.55871,1.120944 -3.143965,-1.083395 -1.58526,-2.204339 v 0 c 0.0423,-0.710015 0.0323,-1.199526 0.55247,-1.717659 0.51342,-0.342101 1.11564,-0.46736 1.72745,-0.515035 0.9145,-0.116044 1.70626,-0.701877 2.59484,-0.922846 1.12874,-0.365083 2.26267,-0.566695 3.45389,-0.499737 1.43358,0.0066 2.86157,0.02402 4.29199,0.113623 0.12667,0.003 0.50665,0.005 0.38001,0.0089 -2.55371,0.07854 -0.17367,0.03223 0.37422,-0.02453 0.65959,0.0065 1.31962,-0.0052 1.97877,0.0196 0.90152,0.03391 1.79505,0.341424 2.66259,0.551225 0.81026,0.281083 1.58536,0.65431 2.40434,0.905045 0.53884,0.08911 1.0635,0.01095 -1.03681,0.0593 -0.0765,0.0019 0.15298,-0.0011 0.22944,7.94e-4 2.01784,0.04633 1.25908,-0.07281 2.41149,0.158131 1.27711,0.356769 2.4964,0.865669 3.59399,1.622668 0.88337,0.619316 1.70914,1.317982 2.60971,1.910218 0.86999,0.512426 1.68018,1.105913 2.4119,1.804783 0.98917,0.941862 1.91236,1.944939 2.71275,3.05507 0.67,0.898644 1.36225,1.782747 2.1644,2.569263 1.34615,1.413171 2.49698,2.974395 3.31141,4.760571 0.6727,1.544407 1.16351,3.136469 1.71443,4.72186 0.79217,1.511789 1.68543,2.979552 2.03986,4.678857 0.65819,2.615589 0.98687,5.280079 1.40168,7.941319 0.48822,2.06979 1.36524,3.99418 2.04059,6.00518 0.77168,2.75973 1.26069,5.5762 1.29114,8.45046 0.10408,2.02783 0.38423,4.01556 0.90511,5.98262 0.58006,2.98672 0.79412,6.01215 0.4037,9.04383 -0.22385,2.04709 -0.57063,4.10874 -0.24662,6.16604 0.29353,2.68665 0.59214,5.37834 0.52095,8.08743 -0.0824,2.70953 -0.30502,5.40439 -0.7108,8.08596 -0.22627,2.24488 -0.28668,4.49557 -0.35109,6.74985 -0.23035,3.10528 -0.63154,6.19801 -1.48547,9.20125 -0.56341,2.14821 -1.22246,4.28304 -1.52483,6.48889 -0.27464,2.47275 -0.40993,4.9629 -0.83919,7.41645 -0.51726,2.42048 -1.1535,4.80962 -2.32527,7.00968 -1.02413,1.88687 -2.19835,3.66356 -3.64103,5.26298 -1.39915,1.80496 -2.5232,3.75886 -3.59451,5.77369 -0.25784,0.3786 -0.49401,0.7729 -0.77352,1.1358 -1.3081,1.69831 -3.03511,2.88159 -5.03989,3.6145 -1.97689,0.71722 -4.00226,1.30064 -5.94657,2.1052 -0.64151,0.26351 -1.08265,0.4668 -1.75122,0.65427 -1.1319,0.3174 -2.30983,0.36854 -3.47429,0.4614 -2.88468,0.23781 -5.7861,0.44183 -8.67954,0.2154 -2.16417,-0.25233 -4.29183,-0.68138 -6.35475,-1.39861 -2.10324,-0.63364 -4.220581,-1.20909 -6.347209,-1.75893 -2.49941,-0.76236 -4.45975,-1.59924 -6.026047,-3.81434 -1.294989,-2.02886 -2.203029,-4.23664 -2.916068,-6.5341 -0.762415,-2.43479 -1.445564,-4.89388 -2.180809,-7.337 -0.961472,-3.52305 -1.786083,-7.08209 -2.453389,-10.67313 -0.682728,-3.63175 -1.311389,-7.27953 -1.641922,-10.96285 -0.307462,-3.50709 -0.577466,-7.0186 -0.791607,-10.53257 -0.262551,-4.84035 -0.52882,-9.68839 -0.383119,-14.53751 0.23028,-4.86539 0.681905,-9.70816 1.484122,-14.51597 0.820314,-5.8535 1.477311,-11.72276 2.114097,-17.59879 0.859981,-6.28709 1.857367,-12.58665 3.956778,-18.600745 1.592077,-4.364106 3.388799,-8.649219 5.328727,-12.870479 1.370017,-2.814598 2.89161,-6.121852 5.186047,-8.311584 0.321154,-0.306496 0.700773,-0.545195 1.051158,-0.817792 0.562111,-1.192559 2.248641,-0.397622 1.686531,0.794935 z"
         id="path936"
         style="fill:#ffffff;fill-opacity:1;stroke:none;stroke-width:0.26458332;stroke-opacity:1" />
      <path
         transform="scale(0.26458333)"
         inkscape:connector-curvature="0"
         id="path938"
         d="m 418.55607,294.23627 c -9.92832,-1.20419 -19.35405,5.70734 -28.99091,3.25997 -4.6205,-4.83005 -11.82284,-0.79048 -12.85012,5.11326 -21.11008,46.7074 -29.6826,97.79018 -34.44866,148.42333 -2.72854,25.53556 -9.56704,50.43103 -13.37365,75.71967 0.26713,44.43031 -0.53345,88.98029 0.39882,133.33609 8.30822,29.36712 12.27041,59.52351 18.41025,89.33322 3.84354,10.66397 6.58473,22.40144 12.93943,31.76804 14.51286,4.04738 29.3597,7.14678 43.59383,12.27793 17.1049,2.71243 34.65074,0.54035 51.8582,0.59172 11.00898,-6.29014 23.70323,-9.93182 34.07904,-17.12605 7.544,-11.38294 13.10305,-24.23702 22.84442,-34.1781 15.73861,-17.65125 12.79632,-43.01327 17.93601,-64.48925 6.65252,-37.42045 13.21631,-75.36783 11.11399,-113.59646 -1.18411,-31.34357 0.64156,-63.01765 -3.69591,-94.13376 -4.15786,-23.0694 -8.68855,-46.11615 -16.30113,-68.38555 -3.73723,-11.24385 -4.02911,-23.29127 -6.90049,-34.60364 -9.91741,-20.67173 -22.68081,-40.5731 -39.31511,-56.40208 -17.14664,-11.44228 -36.51326,-18.05768 -57.29801,-16.90834 z"
         style="fill:#ffffff;fill-opacity:1;stroke:none;stroke-width:1.42903125;stroke-opacity:1" />
    </g>
  </g>
  <g
     inkscape:groupmode="layer"
     id="layer2"
     inkscape:label="lines 1"
     style="display:inline">
    <g
       id="g925"
       transform="rotate(-2.5750268,118.8963,119.89168)"
       style="fill:#666666">
      <path
         inkscape:connector-curvature="0"
         d="m 89.45124,44.258057 c 1.85711,2.999084 2.113838,6.600373 2.141834,10.040634 0.02148,2.602804 -0.601803,5.14509 -0.775293,7.729172 0.03268,2.250911 0.240625,4.49344 0.304818,6.744414 0.101881,2.43513 -0.158398,4.857628 -0.409503,7.274867 -0.247949,1.916314 -0.271886,3.849558 -0.144365,5.77487 0.151509,2.204074 0.241718,4.40858 0.280784,6.617308 0.01958,1.967204 -0.125619,3.929325 -0.241721,5.891504 -0.03337,1.699747 0.207346,3.394919 0.353968,5.086649 0.253627,2.524255 0.246303,5.064405 0.105714,7.594405 -0.106169,2.31945 -0.578977,4.58961 -1.114044,6.84109 -0.403564,1.49933 -0.659786,3.0316 -0.785892,4.57809 -0.09484,1.34609 -0.102952,2.69382 -0.106211,4.04236 0.0034,1.32097 -0.03745,2.642 -0.124037,3.96011 -0.0913,1.08852 -0.250669,2.16907 -0.355029,3.2563 -0.06604,1.16528 -0.165602,2.32859 -0.294354,3.48856 -0.131725,1.19194 -0.150466,2.3913 -0.234823,3.5865 -0.135676,1.07283 -0.09587,2.15388 -0.123153,3.23188 -0.05153,1.49268 -0.04592,2.98571 -0.111321,4.47812 -0.07979,1.80097 -0.226454,3.59791 -0.322558,5.39808 -0.04301,2.03388 0.07549,4.06819 0.151309,6.10049 0.03289,2.10083 0.03425,4.19877 0.177438,6.29564 0.182348,2.01222 0.321651,4.02742 0.40744,6.04605 0.06668,1.98062 0.158112,3.96033 0.214024,5.9413 0.05748,1.83068 0.06097,3.66249 0.06909,5.49389 -7.94e-4,1.76921 -0.08679,3.53642 -0.141881,5.30428 -0.03997,1.39343 -0.09388,2.786 -0.05607,4.17996 0.03083,1.56106 0.08354,3.12117 0.09079,4.68273 0.0052,1.62675 -0.08768,3.25404 -0.236889,4.87353 -0.222684,1.77483 -0.387604,3.5541 -0.529706,5.33686 -0.158782,1.81503 -0.301782,3.63172 -0.511408,5.44175 -0.2359,1.65738 -0.387602,3.32344 -0.546412,4.98935 -0.129067,1.71822 -0.255281,3.43665 -0.37964,5.15523 -0.09939,1.49211 -0.191183,2.98353 -0.38362,4.467 -0.206621,1.10202 -0.256752,2.21793 -0.281096,3.3357 0.0024,1.15281 -0.09807,2.29836 -0.21894,3.44329 -0.08508,0.71879 -0.136313,1.44186 -0.15943,2.16524 -0.01021,0.58176 -0.01069,1.16378 -0.0051,1.74561 0.0064,0.55677 0.0011,1.1129 0.0038,1.66996 0.0016,0.78494 -0.110453,1.56306 -0.238718,2.33552 -0.08843,0.59025 -0.26075,1.16249 -0.38004,1.74615 -0.03932,0.46901 -0.03984,0.93996 -0.07967,1.41014 -0.01966,0.50097 -0.208293,0.98272 -0.231198,1.48155 -0.0416,0.71996 -0.133287,1.43589 -0.376156,2.11736 -0.128852,0.23364 -0.114408,0.22139 -0.176278,-0.0327 -0.04186,-0.17194 -0.852527,-2.88197 0.04554,-0.64366 0.0823,0.20513 0.111307,0.4278 0.166962,0.6417 0.06725,0.72299 0.09661,1.52337 -0.236519,2.1938 -0.01728,0.0135 -0.04215,0.0603 -0.0518,0.0406 -0.02711,-0.0553 -0.01061,-0.12282 -0.01844,-0.18394 -0.04032,-0.31471 -0.132165,-0.62626 -0.126005,-0.94349 0.01397,-0.71918 0.220225,0.78138 0.280275,1.08521 0.04153,0.58229 0.08495,1.20943 -0.195574,1.74182 -0.221314,0.43565 -0.330068,0.70498 -0.107831,-1.07825 0.01937,-0.15537 0.09855,0.29779 0.132561,0.45063 0.08952,0.40227 0.04032,0.78518 -0.0074,1.1884 -4.132169,-0.19474 -5.932974,0.78122 -3.702558,-1.69206 0.176456,-1.59172 2.427481,-1.34218 2.251028,0.24954 v 0 c 0.180671,0.10854 0.348215,0.24276 0.542015,0.32561 0.09755,0.0417 0.210415,0.0274 0.315624,0.041 -1.512353,0.0837 -3.024706,0.1673 -4.537059,0.25095 -0.02379,0.23613 -0.07632,0.50878 -0.01717,0.74805 0.01982,0.0801 0.07998,0.31789 0.07696,0.2354 -0.05564,-1.51854 0.172309,-1.76572 -0.177467,-1.33498 -0.09393,-0.19197 -0.126881,-0.73886 0.0591,-0.84888 0.127609,-0.17836 0.20891,0.52776 0.193879,0.32071 -0.03429,-0.47237 -0.170982,-0.95064 -0.190288,-1.42902 -0.008,-0.11043 0.0019,-1.17712 0.164674,-0.61818 0.111889,0.27608 0.469066,1.08512 0.412916,0.79257 -0.17748,-0.92472 -0.677188,-1.64258 -0.554066,-2.57987 0.07432,-0.51349 0.265472,-0.98381 0.354139,-1.49138 0.05799,-0.49943 0.143865,-0.99409 0.187328,-1.49509 0.08814,-0.60366 0.01484,-1.22478 0.150299,-1.82442 0.103301,-0.55405 0.197258,-1.10795 0.243359,-1.67063 0.09093,-0.51218 0.22022,-1.01768 0.265591,-1.53699 0.0041,-0.56683 0.0092,-1.13324 0.03292,-1.6993 0.01429,-0.5111 -0.0024,-1.02187 -0.06583,-1.52981 -0.08841,-0.90328 -0.147357,-1.8085 -0.102513,-2.7169 0.04983,-1.06084 0.127823,-2.12146 0.114474,-3.18413 0.02963,-1.27515 0.04716,-2.5525 0.201587,-3.82041 0.138596,-1.34832 0.153061,-2.70286 0.119165,-4.05745 -7.94e-4,-1.87722 0.06779,-3.75227 0.331184,-5.61394 0.233003,-1.58769 0.539946,-3.16838 0.620136,-4.77431 0.08233,-1.83458 0.108432,-3.67251 0.284618,-5.50175 0.181369,-1.82297 0.461528,-3.62659 0.855668,-5.41619 0.194429,-1.43171 0.105248,-2.86727 0.09549,-4.3079 0.01037,-1.55949 0.07165,-3.11704 0.109574,-4.67582 0.03752,-1.38409 -0.04001,-2.7646 -0.108809,-4.14675 -0.07885,-1.82677 -0.153154,-3.65567 -0.04521,-5.48342 0.09501,-1.63645 0.237784,-3.28301 0.02463,-4.91681 -0.285645,-2.09409 -0.582248,-4.19364 -0.480526,-6.31482 0.04323,-1.85092 0.117351,-3.70869 -0.246999,-5.53725 -0.310269,-2.24816 -0.515636,-4.49985 -0.44141,-6.7735 0.01164,-2.16791 0.02693,-4.33579 0.182618,-6.49947 0.111564,-1.82819 0.246296,-3.65514 0.389731,-5.48106 0.15398,-1.48231 0.372298,-2.95553 0.523259,-4.4381 0.127198,-0.9998 0.195305,-1.99648 0.102219,-3.00394 -0.03068,-1.35741 0.04062,-2.7087 0.221917,-4.05533 0.142687,-1.13575 0.356658,-2.25986 0.474821,-3.39891 0.115967,-1.03694 0.157488,-2.07843 0.208243,-3.1202 0.09545,-1.16114 0.192093,-2.32643 0.102767,-3.49189 -0.06179,-1.48237 -0.09882,-2.96969 -0.0072,-4.45153 0.07805,-1.81471 0.285117,-3.60813 0.677346,-5.38473 0.374491,-1.96149 0.65673,-3.94655 0.695074,-5.94628 0.05425,-2.43965 0.04836,-4.885 0.281442,-7.316543 0.116761,-1.716135 0.236969,-3.440281 0.0896,-5.158885 -0.102716,-1.961285 -0.204858,-3.923734 -0.162819,-5.888664 0.04874,-2.155907 0.108241,-4.312058 0.08844,-6.468499 0.01638,-2.128409 -0.0634,-4.259935 0.132963,-6.3837 0.198641,-2.228988 0.341522,-4.461227 0.242628,-6.700851 -0.02837,-2.341327 -0.02201,-4.682376 0.0278,-7.02346 0.02801,-2.440897 0.01918,-4.884192 -0.170016,-7.319563 -0.136401,-1.685808 -0.294521,-3.371035 -0.399865,-5.059182 -0.04894,-0.784172 -0.127455,-2.184503 -0.09111,-2.999989 0.01505,-0.337552 0.07743,-0.671327 0.116147,-1.006988 -0.853972,-3.414906 3.975433,-4.622601 4.829405,-1.207699 z"
         id="path897"
         style="fill:#666666;fill-opacity:1;stroke:none;stroke-width:0.26458332;stroke-opacity:1" />
      <path
         inkscape:connector-curvature="0"
         d="m 148.09642,38.128365 c 0.0923,0.384041 0.21161,0.762577 0.2769,1.152118 0.17951,1.070912 0.22697,2.279073 0.2608,3.355419 0.0584,1.859251 0.012,3.71416 -0.0408,5.57267 -0.11293,2.695369 -0.25814,5.389587 -0.30663,8.087175 -0.0396,1.981909 -0.0791,3.964461 -0.0136,5.946055 0.16823,2.548118 0.24496,5.085482 0.0155,7.630414 -0.24355,2.076921 -0.8278,4.08845 -1.25359,6.13065 -0.25108,1.297448 -0.4758,2.599949 -0.70253,3.901855 -0.182,1.467041 -0.38712,2.929221 -0.62662,4.38803 -0.33279,1.618949 -0.50239,3.256105 -0.56027,4.905746 -0.0299,1.976799 -0.14393,3.952724 -0.35397,5.918382 -0.27974,2.257639 -0.47752,4.521562 -0.66423,6.788341 -0.19754,2.51276 -0.52059,5.01265 -0.80449,7.51646 -0.22376,2.29895 -0.72412,4.55612 -1.04443,6.84075 -0.23786,2.09585 -0.16448,4.21183 -0.18927,6.31755 0.0227,2.09602 -0.20426,4.18057 -0.36724,6.26666 -0.13992,1.75885 -0.0538,3.52488 -0.0666,5.28721 -0.0394,2.5092 -0.29692,5.00776 -0.61485,7.49487 -0.29831,2.38844 -0.70113,4.76165 -1.05614,7.14178 -0.35951,2.46961 -0.41543,4.96735 -0.44052,7.4585 -0.007,2.39809 0.0385,4.79537 0.008,7.19337 -0.004,2.36211 -0.0725,4.72265 -0.22241,7.07989 -0.18518,2.11959 -0.39247,4.2372 -0.55468,6.35869 -0.14403,1.94137 -0.33813,3.8785 -0.50488,5.81799 -0.17217,1.85957 -0.31213,3.72466 -0.37186,5.59152 -0.025,1.8911 0.0456,3.77914 -0.013,5.67 -0.0975,1.73102 -0.14853,3.46359 -0.23709,5.19507 -0.12727,1.8929 -0.21386,3.78796 -0.37614,5.67839 -0.12678,1.89775 -0.41,3.77882 -0.65562,5.66323 -0.19393,1.57657 -0.13275,3.16878 -0.19398,4.7533 -0.12331,1.73532 -0.24853,3.4705 -0.37243,5.20583 -0.10815,1.59635 -0.34625,3.17817 -0.53038,4.76635 -0.073,1.15458 -0.0669,2.31156 -0.049,3.46764 0.009,1.08495 0.0109,2.1703 -0.0182,3.25502 -0.10714,0.85853 -0.0565,1.72351 -0.0667,2.58518 0.0405,0.57265 -0.18756,1.14421 -0.1034,1.71343 0.15081,0.74715 0.19067,1.50816 0.19449,2.26834 -0.005,0.55489 -0.0622,1.1103 -0.19646,1.64925 -0.0306,0.4081 0.0974,0.82353 0.15638,1.22796 0.11679,0.90649 0.0419,1.83517 -0.32966,2.67501 -0.14606,0.51788 -0.14216,-0.21513 -0.12072,-0.20242 0.14426,0.0855 0.10768,0.31791 0.15148,0.47981 0.16275,0.86478 0.10361,1.72043 -0.28088,2.51455 -0.16125,0.31509 -1.0286,2.11986 -0.17309,-1.13403 0.062,-0.23576 0.15406,0.46287 0.21734,0.69829 0.0875,0.3254 0.094,0.65065 0.0913,0.98412 0.0272,0.37043 -0.25806,0.70136 -0.27324,1.05908 -0.006,0.13996 0.0562,-0.28045 0.12941,-0.39986 0.0189,-0.0308 0.0405,0.0599 0.0607,0.0899 0.0176,0.18936 0.17549,0.8634 -0.0695,0.96515 -1.575,-0.0384 -3.15189,-0.0291 -4.72501,-0.11512 -0.0746,-0.004 0.0216,-0.20467 0.0962,-0.20241 1.58943,0.0481 3.18071,0.0825 4.76595,0.20739 0.0495,0.004 -0.0738,0.23793 -0.0851,0.2611 -1.4323,0.77208 -0.27238,0.15679 -4.77707,-0.18354 -0.091,-0.007 0.029,-0.2502 0.12012,-0.246 1.5813,0.0728 3.16196,0.15886 4.74295,0.23829 -0.073,0.23773 -0.14204,0.32497 -0.0824,0.56209 0.0573,0.25547 0.11251,0.56788 -0.0334,0.80531 -5.76448,3.20836 -5.98787,0.27128 -4.32365,-0.44059 0.0617,-0.0264 0.14126,-0.0247 0.18758,-0.0733 0.67139,-0.70417 -0.55855,0.10568 0.68806,-0.60037 0.38208,-1.68887 2.7705,-1.14852 2.38842,0.54035 v 0 c 1.27501,0.46771 -0.0695,0.087 0.53825,0.0597 0.19807,-0.009 0.43934,0.22356 0.59837,0.29945 -1.5776,0.0695 -3.15521,0.13891 -4.73281,0.20837 -0.15908,-0.21738 -0.0831,-0.54776 -0.0351,-0.7875 0.0606,-0.24195 -0.009,-0.35462 -0.0809,-0.5938 1.58171,-0.0684 3.16307,-0.14533 4.74514,-0.20509 0.0935,-0.004 0.21095,0.24797 0.11764,0.25482 -4.59848,0.3377 -3.55971,1.24931 -4.77942,0.15658 -0.011,-0.0237 -0.1314,-0.26476 -0.084,-0.2688 1.58529,-0.13531 3.17711,-0.18435 4.76733,-0.23564 0.0318,-0.001 0.039,0.051 0.0516,0.0802 0.0208,0.048 0.0997,0.1442 0.0477,0.14933 -1.57032,0.15471 -3.14902,0.20757 -4.72353,0.31135 -0.20725,-0.36076 -0.15539,-0.81999 -0.1025,-1.21379 0.0416,-0.17405 0.20555,-0.85872 0.21003,-0.88949 0.0191,-0.13139 -0.0734,0.25518 -0.11013,0.38278 -0.0141,0.009 -0.0291,0.0363 -0.0423,0.0263 -0.0327,-0.0246 -0.0537,-0.22135 -0.0542,-0.22472 3e-5,-0.0215 0.0447,-0.43222 0.0556,-0.41664 0.0804,0.11529 0.16305,0.52423 0.174,0.3841 0.15308,-1.95915 0.17179,-1.92576 -0.17819,-1.39449 -0.24555,-0.3422 0.0158,-0.99224 0.0965,-1.35078 0.10821,-0.41865 0.14701,-0.85668 0.0351,-1.2831 -0.10474,-0.63561 0.0359,-1.27351 0.0788,-1.90914 0.0623,-0.44787 0.18543,-0.89823 0.14304,-1.35233 -0.0841,-0.50251 -0.12761,-1.01107 -0.12681,-1.52078 -0.005,-0.67712 10e-4,-1.35438 -0.0164,-2.03133 -0.0234,-0.66002 -0.10997,-1.30875 -0.15096,-1.96778 -0.0141,-0.88215 0.0433,-1.76657 -0.0352,-2.64747 -0.003,-1.01505 0.0183,-2.03049 -0.0507,-3.04412 -0.0727,-1.30351 -0.19362,-2.60786 -0.1339,-3.91474 0.0266,-1.62977 0.11173,-3.2598 0.27021,-4.88221 0.1609,-1.66896 0.32984,-3.337 0.46626,-5.00816 0.0821,-1.67106 0.07,-3.34447 0.13787,-5.0161 0.12809,-1.8759 0.3046,-3.7479 0.48883,-5.61896 0.16057,-1.85619 0.36359,-3.70772 0.54915,-5.56142 0.12843,-1.64494 0.19728,-3.29102 0.12368,-4.94128 -0.0188,-1.92651 -0.0575,-3.8534 -0.005,-5.77978 0.0687,-1.96517 0.14468,-3.93107 0.30209,-5.89148 0.18808,-1.86623 0.46428,-3.72601 0.49996,-5.60479 0.053,-2.17181 0.0357,-4.34636 0.18145,-6.51503 0.20002,-2.18875 0.48117,-4.38366 0.39331,-6.58512 -0.11731,-2.43407 -0.31678,-4.8637 -0.39698,-7.29941 -0.007,-2.77785 0.20924,-5.53812 0.74582,-8.26842 0.38887,-2.28829 0.72341,-4.58619 0.93547,-6.89825 0.2267,-2.44858 0.45981,-4.89955 0.87269,-7.32518 0.26948,-1.64495 0.5025,-3.27909 0.2848,-4.94908 -0.0897,-2.10333 -0.1142,-4.20613 0.001,-6.30981 0.079,-2.26829 0.12824,-4.53943 0.31087,-6.80244 0.22683,-2.26832 0.62005,-4.51324 0.87188,-6.77855 0.23511,-2.52817 0.36463,-5.06692 0.69819,-7.5854 0.3296,-2.252445 0.7328,-4.492362 1.0647,-6.744458 0.22641,-1.868736 0.34321,-3.743111 0.42973,-5.623364 0.13364,-1.84925 0.32664,-3.697717 0.74647,-5.507085 0.29147,-1.446911 0.62205,-2.884607 0.95097,-4.323356 0.23563,-1.265364 0.23978,-2.551213 0.37156,-3.82974 0.20181,-1.925921 0.44567,-3.848209 0.56976,-5.781522 0.12584,-2.422342 0.18279,-4.847605 0.35586,-7.267522 0.0853,-1.934231 0.0359,-3.869163 -0.12189,-5.799243 -0.17374,-2.724462 -0.47957,-5.434986 -0.71198,-8.154527 -0.15735,-3.562326 -0.23146,-7.285281 1.2204,-10.618935 0.34311,-3.864425 5.80823,-3.379187 5.46512,0.485237 z"
         id="path899"
         style="fill:#666666;fill-opacity:1;stroke:none;stroke-width:0.26458332;stroke-opacity:1" />
      <path
         inkscape:connector-curvature="0"
         d="m 49.762203,109.18524 c 1.517002,-2.25086 3.953655,-3.54897 6.380991,-4.60142 1.426667,-0.57056 2.955877,-0.82084 4.348644,-1.47535 1.66284,-0.84729 3.38297,-1.57267 5.114258,-2.2667 2.117899,-0.82721 4.304543,-1.443938 6.545656,-1.819453 1.568247,-0.236916 3.156691,-0.238871 4.734817,-0.367461 1.781262,-0.210114 3.54993,-0.495943 5.338437,-0.643488 1.56401,-0.134768 3.132997,-0.159425 4.701728,-0.144431 1.066358,-0.09002 2.124062,0.0573 3.186702,0.07951 0.168929,0.0035 0.675828,0.0013 0.506889,-0.0016 -0.301128,-0.0051 -0.602329,-0.005 -0.903499,-0.0052 -0.17212,-1.14e-4 0.34422,0.0033 0.516332,0.0049 1.184439,-0.02508 2.369177,-0.08101 3.551875,-0.151919 1.609082,-0.04448 3.190081,-0.313724 4.767177,-0.612208 2.27004,-0.392946 4.55229,-0.730322 6.85028,-0.900399 1.73769,-0.09539 3.48598,-0.07549 5.22409,-0.01757 0.94296,0.03142 1.8856,0.158866 2.82971,0.199438 2.14782,0.0131 4.29212,0.115181 6.43227,0.292682 2.24831,0.2053 4.49295,0.439518 6.73141,0.733724 2.08954,0.27828 4.13428,0.790995 6.17748,1.295966 1.98908,0.468109 4.00414,0.813959 6.02582,1.105408 2.35878,0.372871 4.74867,0.417101 7.13023,0.496121 2.27466,0.0896 4.53943,0.32988 6.7794,0.73252 1.66692,0.32623 3.34816,0.56814 5.02901,0.80884 1.54387,0.21992 3.09691,0.36158 4.64505,0.54768 1.52666,0.17981 3.03308,0.47876 4.5251,0.84329 1.50305,0.3743 3.01245,0.71808 4.52671,1.04339 1.39966,0.29023 2.80716,0.54624 4.20082,0.86407 1.0288,0.22336 1.97526,0.66149 2.89129,1.16677 0.36274,0.26847 0.60194,0.31467 1.01647,0.27142 0.65032,0.04 1.29036,0.14644 1.92181,0.30423 0.72265,0.10973 1.39205,0.39414 2.06685,0.65685 0.48705,0.0754 0.92095,0.25711 1.35741,0.4786 0.38114,0.13399 0.71797,0.26887 1.07282,0.47611 -0.17661,0.083 0.39405,0.18962 0.34936,0.24494 -0.0146,0.0181 -0.0374,-0.0278 -0.0567,-0.0408 -0.0556,-0.0286 -0.11112,-0.0572 -0.16668,-0.0858 3.4048,1.79155 0.87117,6.60667 -2.53364,4.81512 v 0 c -0.0657,-0.0315 -0.13141,-0.063 -0.19711,-0.0945 -0.11403,-0.0574 -0.50845,-0.27254 -0.55097,-0.20177 -0.2813,-0.0751 -0.57602,-0.14693 -0.8605,-0.27385 -0.43823,-0.01 -0.86087,-0.1284 -1.28132,-0.28726 -0.51228,-0.13695 -1.04542,-0.18305 -1.56235,-0.30369 -0.65536,-0.0924 -1.30726,-0.22029 -1.94702,-0.39009 -0.63331,-0.21395 -1.22448,-0.52309 -1.86108,-0.72404 -0.67735,-0.14625 -1.38461,-0.0735 -2.0675,-0.19681 -1.56598,-0.17202 -3.1343,-0.38566 -4.65931,-0.79041 -1.42049,-0.38879 -2.81847,-0.86529 -4.26263,-1.16261 -1.35412,-0.22447 -2.71812,-0.38979 -4.08317,-0.53162 -1.62417,-0.15444 -3.24795,-0.30757 -4.8617,-0.55316 -1.59962,-0.23761 -3.19336,-0.56132 -4.81245,-0.62948 -2.26045,-0.0118 -4.52313,0.0778 -6.78044,-0.0878 -2.54568,-0.22932 -5.07149,-0.59473 -7.57797,-1.10042 -2.1217,-0.41518 -4.24463,-0.82956 -6.32623,-1.42153 -1.81947,-0.44095 -3.65207,-0.82685 -5.52754,-0.93029 -2.23892,-0.1908 -4.48102,-0.34514 -6.7147,-0.59387 -1.9842,-0.22438 -3.96486,-0.52217 -5.96516,-0.55353 -0.54813,-0.0113 -2.2667,-0.093 -2.73001,0.0509 -0.2154,0.0669 0.89696,-0.008 0.67567,0.036 -0.70949,0.13976 -1.4592,-0.067 -2.16802,0.0765 -2.20987,0.1071 -4.42327,0.16258 -6.62696,0.37755 -1.828491,0.13855 -3.657942,0.32753 -5.494381,0.26946 -1.209077,-0.03 -2.41927,-0.068 -3.628588,-0.0529 -1.038593,0.0346 -2.077117,0.0177 -3.115969,0.009 -0.360846,-0.003 -1.442357,-0.017 -1.082532,0.0103 0.295151,0.0224 0.591905,0.0104 0.887857,0.0156 -1.371764,0.0322 -2.72923,0.19904 -4.085307,0.40697 -1.874596,0.25116 -3.757247,0.4216 -5.646512,0.51637 -1.333916,0.0518 -2.68577,-0.0538 -4.000662,0.21727 -1.954043,0.50491 -3.815654,1.27754 -5.73429,1.89709 -1.941161,0.5646 -3.898625,1.12452 -5.905707,1.39699 -1.338572,0.18264 -2.314474,0.51885 -3.457059,1.28906 -2.051682,1.179 -4.082034,2.48887 -6.341887,3.22615 -2.293343,2.44859 -5.756172,-0.79469 -3.46283,-3.24328 z"
         id="path911"
         style="fill:#666666;fill-opacity:1;stroke:none;stroke-width:0.26458332;stroke-opacity:1" />
      <path
         inkscape:connector-curvature="0"
         d="m 55.236739,181.79716 c 0.253677,0.13109 0.515512,0.24748 0.761032,0.39328 0.998915,0.5932 1.934768,1.27304 2.977139,1.79792 0.994611,0.50084 1.217475,0.5382 2.263217,0.89776 2.259126,0.69482 4.594354,1.12454 6.920552,1.52926 2.234142,0.38318 4.449921,0.86618 6.655496,1.38726 1.961332,0.46428 3.961151,0.74364 5.959091,0.9954 1.793799,0.16365 3.55105,0.53786 5.263907,1.08611 1.148694,0.45172 2.277065,0.91923 3.500043,1.11666 1.349872,0.10768 2.69621,0.12605 4.040008,0.31605 1.327374,0.1972 2.594305,0.64306 3.881001,1.00251 1.112906,0.33626 2.246513,0.58952 3.394525,0.76962 1.29137,0.18606 2.59428,0.2529 3.88525,0.44388 1.26725,0.16273 2.4782,0.60077 3.74581,0.74791 -0.28058,0.0194 1.17751,0.0204 0.88477,-0.0158 -0.34308,-0.0424 -0.69367,0.003 -1.03612,-0.0441 -0.1846,-0.0254 0.3726,-0.0103 0.5586,-0.0216 0.26783,-0.0163 1.06501,-0.0903 1.31293,-0.11264 2.12379,-0.20041 4.25738,-0.17614 6.38804,-0.19375 0.0204,-1.4e-4 1.72644,-0.0109 1.73842,-0.0158 0.24762,-0.10137 -1.02627,0.12642 -0.80245,-0.0202 0.0321,-0.021 2.3106,-0.0508 2.51833,-0.0583 1.57133,-0.0543 3.14234,-0.13506 4.71488,-0.1354 6.57459,-0.004 1.50736,-0.002 1.39181,-2e-5 -0.20607,0.003 0.41222,0.007 0.61826,0.003 0.67381,-0.0144 1.34439,-0.0742 2.01438,-0.14195 1.60928,-0.19725 3.22354,-0.31545 4.84398,-0.35479 1.3071,0.084 2.50062,-0.24374 3.71335,-0.68564 1.99187,-0.78938 4.07867,-1.2347 6.19033,-1.54759 1.38475,-0.18354 2.78489,-0.23927 4.15407,-0.52429 1.22846,-0.33002 2.42439,-0.77457 3.64189,-1.14624 1.46675,-0.47383 2.96666,-0.83105 4.45129,-1.24194 1.55609,-0.46216 3.08344,-1.00207 4.67352,-1.33944 0.97412,-0.20166 1.96482,-0.28943 2.9522,-0.39397 0.76832,-0.20323 1.45716,-0.71581 2.16218,-1.08476 1.12892,-0.5656 2.33503,-0.91463 3.57878,-1.10397 0.16281,-0.27488 0.3118,0.0634 0.44404,0.0297 0.26766,-0.0682 0.63441,-0.38083 0.85397,-0.51745 0.86311,-0.48945 1.79066,-0.8294 2.76784,-0.99083 0.36426,0.0363 -0.0948,0.39923 -0.18289,0.51247 -0.0864,0.11105 0.1723,-0.22248 0.25763,-0.33435 0.52526,-0.61494 1.18279,-1.07542 1.86575,-1.49608 0.67443,-0.37741 1.38765,-0.68465 2.10964,-0.95832 0.3475,-0.0843 0.67349,-0.20697 1.00303,-0.37766 0.39311,-0.12203 0.85467,-0.47841 1.28877,-0.39396 -0.48402,0.38078 0.31643,-0.10985 0.41968,-0.16372 0.0955,-0.0448 0.19093,-0.0896 0.28639,-0.13434 3.26922,-1.80543 5.82248,2.81795 2.55326,4.62337 v 0 c 0.0636,-0.0349 0.1273,-0.0698 0.19095,-0.10466 0.35241,-0.24613 -0.68898,0.4536 -0.88404,0.55113 -0.29133,0.12273 -0.56755,0.21537 -0.88322,0.24124 -0.36259,-0.008 -0.83459,0.51372 -1.22193,0.52362 -0.41222,0.0461 -0.7066,0.53769 -1.09454,0.6673 -0.27409,0.15492 -1.15477,0.75416 -1.45299,0.60266 0.0179,-0.0538 0.10934,-0.17147 0.0536,-0.16141 -0.10404,0.0188 -0.95989,1.17855 -1.27385,1.25321 -0.71111,0.45177 -1.48004,0.77198 -2.28617,1.01763 -0.7758,0.24357 -1.46361,0.65764 -2.20303,0.98793 -0.85136,0.33512 -1.7101,0.64974 -2.56706,0.97022 -1.09567,0.4054 -2.18811,0.8194 -3.282,1.22879 -0.83381,0.23896 -1.66487,0.47735 -2.46996,0.80567 -1.51827,0.51336 -3.08905,0.84258 -4.61644,1.32762 -1.48811,0.43428 -2.97906,0.85436 -4.49581,1.18021 -1.27108,0.33008 -2.56426,0.59334 -3.80524,1.0265 -1.43679,0.44921 -2.8632,0.93208 -4.34716,1.20972 -1.90534,0.39489 -3.81372,0.77328 -5.7235,1.14573 -1.6087,0.35545 -3.20147,0.80835 -4.83945,1.01245 -1.60195,0.1791 -3.21089,0.25078 -4.82025,0.3313 -1.78163,0.0882 -3.53961,0.15516 -5.32648,0.15575 -0.30912,1e-4 0.61823,-0.003 0.92735,-0.004 -1.4592,0.0209 -2.90979,0.0834 -4.35561,0.30553 -2.37464,0.19917 -4.75372,0.19073 -7.13452,0.0808 -2.03926,-0.0581 -0.10596,0.0144 0.0268,-0.0531 0.22331,-0.11344 -0.50085,-0.01 -0.75126,-0.015 -0.17866,-0.004 -1.27034,-0.0303 -1.45547,-0.0319 -0.2357,-0.002 -0.47141,0.002 -0.70712,0.003 -1.92447,0.006 -3.86674,0.15427 -5.77366,-0.1733 -1.25811,-0.21504 -2.51953,-0.40537 -3.7839,-0.58044 -1.36362,-0.18655 -2.724372,-0.39745 -4.077147,-0.65157 -1.293698,-0.28824 -2.568326,-0.63869 -3.824782,-1.06242 -0.991277,-0.31865 -2.005981,-0.46628 -3.049241,-0.46968 -1.591421,-0.10235 -3.168427,-0.34096 -4.686921,-0.84654 -1.110824,-0.38224 -2.209303,-0.84874 -3.385701,-0.98553 -1.678049,-0.19977 -3.372819,-0.24039 -5.041003,-0.52495 -2.103427,-0.34968 -4.183994,-0.80163 -6.260251,-1.28633 -2.146485,-0.44481 -4.286919,-0.9196 -6.442638,-1.31881 -2.771585,-0.50749 -5.623851,-0.73279 -8.236307,-1.87844 -0.523783,-0.27183 -1.064544,-0.51317 -1.571348,-0.81547 -2.134716,-1.2733 -4.071815,-3.06634 -4.831066,-5.48885 -1.610815,-2.95908 2.573956,-5.23711 4.184774,-2.27803 z"
         id="path913"
         style="fill:#666666;fill-opacity:1;stroke:none;stroke-width:0.26458332;stroke-opacity:1" />
    </g>
  </g>
</svg>
