<?xml version="1.0" encoding="UTF-8" standalone="no"?>
<!-- Created with Inkscape (http://www.inkscape.org/) -->

<svg
   xmlns:dc="http://purl.org/dc/elements/1.1/"
   xmlns:cc="http://creativecommons.org/ns#"
   xmlns:rdf="http://www.w3.org/1999/02/22-rdf-syntax-ns#"
   xmlns:svg="http://www.w3.org/2000/svg"
   xmlns="http://www.w3.org/2000/svg"
   xmlns:sodipodi="http://sodipodi.sourceforge.net/DTD/sodipodi-0.dtd"
   xmlns:inkscape="http://www.inkscape.org/namespaces/inkscape"
   width="7168"
   height="4096"
   viewBox="0 0 1896.5333 1083.7333"
   version="1.1"
   id="svg8"
   inkscape:version="0.92.4 (5da689c313, 2019-01-14)"
   sodipodi:docname="scoreboard.svg"
   inkscape:export-filename="C:\Users\panu-\PycharmProjects\nextgame\data\images\scoreboard.png"
   inkscape:export-xdpi="10.923292"
   inkscape:export-ydpi="10.923292">
  <defs
     id="defs2" />
  <sodipodi:namedview
     id="base"
     pagecolor="#ffffff"
     bordercolor="#666666"
     borderopacity="1.0"
     inkscape:pageopacity="0.0"
     inkscape:pageshadow="2"
     inkscape:zoom="0.12370387"
     inkscape:cx="3968.8549"
     inkscape:cy="2605.1713"
     inkscape:document-units="mm"
     inkscape:current-layer="layer2"
     showgrid="false"
     units="px"
     width="1024px"
     inkscape:window-width="1920"
     inkscape:window-height="1017"
     inkscape:window-x="-8"
     inkscape:window-y="-8"
     inkscape:window-maximized="1" />
  <metadata
     id="metadata5">
    <rdf:RDF>
      <cc:Work
         rdf:about="">
        <dc:format>image/svg+xml</dc:format>
        <dc:type
           rdf:resource="http://purl.org/dc/dcmitype/StillImage" />
        <dc:title />
      </cc:Work>
    </rdf:RDF>
  </metadata>
  <g
     inkscape:groupmode="layer"
     id="layer2"
     inkscape:label="color"
     style="display:inline"
     transform="translate(0,812.8)">
    <path
       style="fill:#1a1a1a;fill-opacity:1;stroke:none;stroke-width:5.71612501;stroke-opacity:1"
       d="m 5795.3281,144.8007 c -194.3328,-0.16527 -386.257,22.97111 -579.6162,20.2401 -173.1027,1.94891 -345.4353,0.25529 -516.4954,-5.94979 -27.8526,-0.12765 -46.1682,26.34987 -75.6382,20.41952 -108.6547,4.5542 -216.8408,21.438 -325.5177,18.38761 -284.7955,1.22676 -569.4616,4.81916 -853.837,-8.09592 -255.7374,-15.55805 -512.3565,-9.99014 -767.8232,-21.40018 -203.7778,1.96781 -408.6261,-2.52609 -611.0225,24.94106 -180.8775,7.7964 -368.9693,-4.15659 -552.9011,7.74803 -143.1179,1.92503 -286.3436,7.93247 -429.1227,-5.51801 -66.7472,-7.89815 -128.56144,-43.43639 -197.08171,-33.66099 -225.94578,2.89427 -452.76325,0.80824 -678.16113,6.63676 -44.2982,13.39515 -14.61152,66.77051 -19.66019,99.87248 3.84276,288.04371 7.78014,579.47259 2.45079,865.96813 -13.3669,145.0127 -32.89331,289.9189 -30.10558,435.9703 7.11857,174.9321 -4.84867,349.5173 -0.25004,525.2248 20.27348,196.1975 14.83751,393.9755 12.74748,591.8937 -3.66189,103.0682 -19.29362,206.6889 -19.54657,310.5737 -4.79823,92.8213 -16.04872,185.0499 -13.47669,278.2919 -3.12987,99.1251 3.50314,197.8575 12.62823,296.4348 7.25217,129.1891 3.81165,262.6415 9.46723,392.7408 14.08815,44.5322 65.4484,14.1592 99.09899,17.2827 147.87466,-4.1219 295.91232,-11.7869 442.57094,14.7225 261.40658,30.0175 524.94895,5.229 786.68375,-7.2732 229.5194,-16.5837 457.6886,-26.1636 687.7189,-21.736 173.1903,-1.8474 346.9272,5.5446 519.7881,-5.6224 166.297,-35.2076 336.8607,-33.2462 505.1766,-30.5269 151.8539,4.5512 304.366,30.7839 458.1623,30.8109 235.6436,8.7964 471.0215,-7.1246 706.4283,-14.2729 265.0785,-7.5927 530.2121,4.4708 795.5642,1.504 514.8335,-24.7988 1035.1026,-8.9672 1552.1638,-27.5973 93.1117,-3.8363 187.933,2.9159 281.2316,1.2651 41.8404,-12.7029 24.269,-67.9102 31.9612,-101.805 4.2196,-46.9368 4.5763,-96.7496 -19.8144,-138.3851 3.1313,-134.609 25.4196,-271.8718 -9.467,-404.4494 -12.2697,-150.4352 -3.7744,-301.7766 1.1638,-452.4594 1.6262,-64.6581 8.7188,-128.9157 19.133,-192.4356 -3.9544,-152.5668 -7.6431,-306.1307 -21.8922,-456.9544 -12.5978,-236.5058 -10.4697,-474.9923 -21.4223,-712.4162 -2.6306,-171.7264 23.5693,-344.0211 23.6624,-516.57996 6.685,-197.90351 11.2019,-395.93216 1.5125,-593.82054 0.8997,-58.52263 -6.4198,-116.74273 10.6034,-174.21043 -0.8751,-39.03006 -46.671,-35.55205 -71.8311,-28.32384 -100.6226,9.57725 -196.713,31.42294 -296.68,28.5248 -218.1228,0.4642 -439.0722,-0.83202 -655.5012,-19.71617 -64.3579,-7.64724 -127.8611,-20.19445 -193.0534,-16.24406 z"
       id="path1005"
       inkscape:connector-curvature="0"
       transform="matrix(0.26458333,0,0,0.26458333,0,-812.8)" />
    <path
       style="fill:#808080;fill-opacity:1;stroke:none;stroke-width:5.71612501;stroke-opacity:1"
       d="m 2272.6321,-20.364055 c -232.1058,3.002894 -464.7796,-5.85732 -696.4768,10.6740465 C 1481.793,4.7600178 1385.2969,20.607707 1290.6978,19.96142 1171.8455,23.505547 1053.0203,2.2341192 933.47809,2.1477002 743.99872,-8.3444373 553.43832,-14.542962 363.87117,-9.3272512 281.05253,-6.5536731 198.29288,-12.296204 115.65456,-12.950956 78.330376,-7.7916703 37.905214,-9.0636253 4.2906063,8.9199213 -20.506108,76.430353 -6.1207118,151.57111 -8.0347883,222.38146 -8.7744137,324.81131 12.281653,427.53298 5.2060797,529.00915 7.0908096,588.32519 -10.815836,647.74511 -6.6392501,707.78317 c 11.8456024,29.68 39.6947661,53.31744 34.0653091,89.01418 9.397544,151.57672 16.38689,302.54655 2.554371,453.50855 -14.591018,107.5435 -43.43521,212.3087 -61.354938,319.1428 -15.482557,146.5504 -21.741853,294.9616 -11.091002,442.0576 14.108233,73.5385 23.455443,147.9263 40.8167051,220.8411 17.7544709,286.7411 14.2721289,573.7477 -1.5761066,860.2425 -3.4859668,81.9872 -23.6454225,162.1973 -19.8763085,244.6961 -2.831148,249.2434 1.569784,498.4988 3.623018,747.7335 11.0132044,50.0148 73.470135,23.8499 108.048158,28.2233 79.857804,-1.0059 156.836434,28.058 237.172534,22.9254 104.21272,2.84 210.09263,10.7015 316.87853,8.0952 293.46585,-2.4828 587.51508,2.9066 880.40598,-18.5389 125.7727,-17.9354 248.6729,-20.7728 375.0873,-28.9602 132.0506,-9.8176 266.2934,-10.652 398.7444,-5.2919 80.1998,13.8674 162.322,-0.595 243.0573,2.9916 299.2899,-3.5387 598.7024,8.2276 897.9013,0.1456 96.8078,-10.87 194.3637,-29.743 291.4889,-23.1994 112.4978,-0.075 224.1952,12.497 335.8782,23.7241 99.6616,8.8684 200.216,1.0178 298.9578,16.1659 142.5539,30.3721 289.1956,11.2873 432.9539,1.7577 92.7118,-16.6548 187.9118,-5.9517 280.0768,-26.308 88.7997,-1.5032 176.0869,-21.4731 265.1076,-19.6157 13.9007,44.0116 71.6437,37.7752 108.3352,44.1254 229.5564,9.7124 461.1028,16.7297 691.9434,17.7261 64.068,5.4157 126.934,-2.7675 189.0688,-18.2102 59.1556,-15.9905 123.9073,3.4643 183.4745,-16.9251 97.8835,-7.2069 199.9895,-0.6104 300.7733,7.7996 36.8485,10.8881 75.0893,15.3391 113.7572,9.7283 68.5609,-9.0274 136.8955,-22.7137 206.551,-16.7017 48.6929,-9.2449 27.0613,-69.4528 33.3851,-104.4363 0.7019,-72.0471 4.6083,-144.2085 10.2781,-215.7337 -8.4678,-42.9397 -30.7093,-84.3089 -24.3158,-128.5347 1.3696,-280.3326 3.7589,-563.6346 18.5083,-844.6297 10.772,-119.4795 7.9065,-239.7006 -3.735,-358.8978 -5.9745,-90.1109 7.5476,-182.286 -13.5672,-270.6634 -5.8059,-120.8965 -15.8737,-242.6532 -6.3923,-363.8816 21.9619,-139.4173 32.5499,-283.2721 2.4733,-422.2753 -9.854,-107.1113 -8.8737,-214.9753 14.0114,-321.5544 -3.6777,-66.91731 -16.0446,-133.46141 -14.7259,-200.93517 -1.2735,-123.23697 -8.7634,-246.24272 4.1979,-368.277 13.086,-98.5395 27.9856,-196.94588 38.9189,-295.70899 1.5079,-61.18322 10.7348,-124.596592 -0.4516,-184.463421 -28.9888,-29.928752 -78.7659,-9.4723777 -116.7353,-16.1614974 -173.1466,0.3079362 -346.907,-10.4534316 -519.4803,6.9800219 -298.6572,5.3623325 -597.6752,1.919379 -896.1477,-14.457777 -174.2675,-0.4110522 -349.1249,-0.5636911 -522.8579,13.7990829 -127.328,10.4792386 -255.5603,2.7392901 -383.2037,8.9872666 -125.4957,4.929941 -250.3808,13.654172 -375.8796,11.069529 -292.9258,-0.920648 -585.7664,1.303841 -878.3186,-10.522478 -188.1816,-17.0207766 -378.0048,-1.797714 -565.4498,-23.9809305 -104.732,-17.1905245 -212.0254,-7.1900305 -317.7583,-10.7629345 -115.4352,-0.170677 -230.8706,-0.07659 -346.3058,5.43e-4 z M 5685.851,156.70185 c 105.4979,-4.20579 210.4574,10.20893 315.6198,20.4733 239.0152,16.47985 478.7924,19.13317 718.2277,24.81131 92.3732,-0.72005 186.6606,-29.62302 275.9379,-29.75506 -12.3822,69.37142 -22.4243,140.00598 -17.2158,210.9719 17.0106,365.70561 12.1531,731.448 3.4194,1097.4624 1.2781,182.0089 15.2083,363.0483 18.2396,544.7625 0.3704,124.1379 22.8039,246.5763 28.0336,370.32 0.3321,169.4661 -35.0004,338.5303 -30.395,507.7274 -5.9264,120.9471 -33.2678,242.0909 -12.8172,363.2638 16.4333,67.3921 22.0677,136.6157 14.8973,205.8027 -0.9305,75.643 -19.0872,152.3933 -7.1097,227.7107 20.9571,46.331 4.7913,99.6961 5.5915,148.824 -3.9349,19.9829 4.3906,57.8849 -28.8304,46.895 -289.8407,4.7277 -579.2864,21.6157 -868.9784,19.9165 -511.7727,4.458 -1024.0761,-4.8637 -1535.3381,22.8006 -312.6858,24.3902 -624.5474,29.1922 -938.427,24.6954 -188.1561,-5.2002 -377.7881,-17.3066 -566.7105,-19.8581 -112.0754,-1.6542 -225.6686,-10.483 -336.0912,12.9921 -259.0284,11.1517 -519.1248,1.4343 -778.4839,14.9062 -267.3084,11.1756 -532.1454,43.0799 -799.0881,37.3188 -208.46259,-0.4786 -416.35103,-13.8792 -623.84789,-40.2866 -97.40769,-9.66 -195.53151,2.0894 -292.03864,7.8001 -18.26792,0.553 -37.5043,-0.9561 -54.67162,6.5087 2.37945,-82.8656 -16.19305,-164.5989 -13.50467,-247.6765 -1.0017,-108.4295 -11.49428,-218.727 -20.04258,-325.0038 -4.07732,-199.0196 9.1372,-402.4016 19.06715,-599.5272 22.59686,-173.8242 13.64773,-350.0819 9.13503,-524.8657 -9.1332,-171.0527 -3.26806,-340.8379 1.20197,-512.0527 -1.46632,-152.2437 -6.4142,-305.7481 4.70132,-458.306 34.78733,-185.1825 21.4269,-375.03773 23.8426,-562.39019 -0.0903,-176.4494 -5.31701,-357.36362 -9.85372,-530.97503 1.33867,-14.75614 -3.16064,-39.89186 19.22494,-27.8996 83.57819,5.81783 168.3421,1.68005 249.51108,-19.64918 141.14653,-17.97795 285.29148,-9.85354 427.80505,-0.0781 80.57318,6.19457 153.78268,48.27842 235.58758,47.52964 225.9018,7.48933 451.9837,-5.08945 677.9443,-6.21682 145.7111,-3.95034 292.3957,0.36135 436.8117,-22.01346 338.7567,-9.18197 678.5494,-0.25007 1017.7088,3.9094 409.4236,5.97893 819.225,18.2886 1228.5402,2.25702 242.2816,-16.99608 485.8305,-6.61101 727.9808,-27.79364 157.2329,-9.28277 316.225,-14.64316 474.4151,-15.31174 z M 2293.3195,4089.7308 c -0.3818,-0.1592 -1.2553,-0.704 0,0 z"
       id="path1007"
       inkscape:connector-curvature="0"
       transform="matrix(0.26458333,0,0,0.26458333,0,-812.8)" />
    <path
       style="fill:#1a1a1a;fill-opacity:1;stroke:none;stroke-width:5.71612501;stroke-opacity:1"
       d="m 5722.8437,145.49491 c -154.2809,-0.0447 -305.2493,20.70843 -459.3865,20.39864 -188.3874,5.93098 -376.4916,-1.23848 -565.2401,-2.35712 -33.9678,5.29211 -65.6785,21.47403 -101.4054,16.05427 -89.9672,4.34716 -179.6284,22.24699 -269.6063,18.16341 -286.211,-0.35924 -572.7326,4.73964 -858.4796,-6.15555 -289.2244,-20.80401 -579.5918,-17.535 -869.3984,-19.75589 -173.4909,1.6467 -347.9449,-5.26861 -520.1366,20.30126 -220.0765,10.62576 -441.6745,-2.66474 -662.1746,13.59358 -145.4895,3.92873 -294.7183,6.03331 -437.12725,-33.35895 -242.93331,-33.5035 -489.29743,3.28375 -731.86497,-4.24244 -36.75885,-15.1645 -75.47615,20.54852 -62.28566,57.85344 5.99834,309.22064 5.80276,619.14295 6.09075,928.60014 -23.9078,148.5573 -31.19942,298.862 -30.31982,449.1614 0.61203,174.3368 -9.50293,348.7788 -0.74414,522.9709 22.32022,204.5986 19.6102,410.1145 10.86152,615.2334 -19.27254,131.5033 -12.46823,263.3912 -28.63644,394.5577 -8.95212,143.295 -4.55238,287.0181 9.29565,429.7887 8.044,132.7048 1.60065,266.3153 14.5513,398.6141 19.01621,41.848 70.66233,15.6292 105.36873,17.2711 154.85144,-14.8677 309.65374,-4.4961 462.91684,20.1963 264.55473,25.8373 530.44729,-1.4014 794.99209,-13.8643 201.4685,-9.5518 399.5134,-35.0459 599.6307,-19.1151 207.7143,4.0493 416.3605,4.5401 623.214,-16.5678 137.404,-21.5768 281.1712,-21.9404 421.4288,-22.3113 166.5311,4.2508 331.4125,34.6338 498.3378,32.6834 200.8995,4.0991 401.756,-2.0159 602.3732,-11.7048 225.2074,-6.3118 449.8261,-4.4478 674.9622,0.2267 287.1924,-3.9973 576.0944,-11.1966 861.4027,-16.9113 291.1457,-3.3841 584.204,3.1171 873.951,-11.7544 103.7894,-4.9112 209.7034,5.8146 313.2745,-7.9525 37.759,-19.5589 22.713,-70.866 29.0379,-105.6367 3.8327,-43.1738 1.8646,-87.5252 -19.0907,-126.3018 5.017,-132.686 24.5439,-268.0904 -6.6776,-399.3384 -23.2458,-156.7215 -8.3861,-316.1751 3.0084,-475.1951 -2.8986,-79.7028 17.6931,-157.5371 13.3809,-237.2527 0.5041,-204.1334 -28.484,-407.2177 -29.4415,-611.0416 -5.0565,-251.7755 -12.6692,-503.7005 -1.3147,-755.0566 21.3932,-311.70033 18.9067,-625.566 16.9523,-937.10907 -2.151,-34.80691 5.5166,-69.40626 3.5452,-103.53823 -28.4132,-34.80082 -74.8876,-3.52704 -112.1458,-7.4466 -66.4883,2.81778 -130.5855,23.42243 -197.6705,21.23204 -247.139,5.09006 -492.9529,3.83831 -738.9898,-20.79771 -77.9994,-14.7316 -157.4264,-11.7138 -236.4401,-12.13452 z"
       id="path1011"
       inkscape:connector-curvature="0"
       transform="matrix(0.26458333,0,0,0.26458333,0,-812.8)" />
  </g>
  <g
     inkscape:groupmode="layer"
     id="layer3"
     inkscape:label="lines 1"
     sodipodi:insensitive="true">
    <path
       style="fill:#424242;fill-opacity:1;stroke:none;stroke-width:0.26458332;stroke-opacity:1"
       id="path917"
       d="m 4.8431833,-1.0184467 c 1.9553946,6.3677464 1.36886,13.0635617 -0.1404638,19.4502837 -0.8083095,2.038962 -0.850767,2.286459 -0.3924946,4.233661 0.4967208,2.379231 0.5404935,4.807128 0.5831938,7.22674 0.010954,2.534584 -0.040076,5.067396 -0.046556,7.601202 -0.1144913,2.398384 0.182444,4.777636 0.3147087,7.16685 0.1906309,2.620889 0.2504641,5.256329 0.094654,7.8804 -0.1134002,1.953149 -0.1179536,3.904846 -0.098269,5.860066 -0.030756,1.999639 0.087412,3.996301 0.1325102,5.994596 0.056398,2.078672 0.2013135,4.157948 0.3962421,6.22818 0.1916827,1.911618 0.3289287,3.825547 0.4191286,5.744456 0.4075377,2.366201 0.4834757,4.766702 0.5479317,7.160988 -0.00928,2.447864 -0.1381792,4.891929 -0.1696231,7.33924 -0.095337,2.34942 0.13916,4.688676 0.7000735,6.969061 0.7783589,3.151323 1.1701266,6.369173 1.4715011,9.595463 0.2815902,3.11681 -0.083238,6.23265 -0.1959589,9.34737 -0.1020299,2.7077 0.2743356,5.40233 0.6229813,8.08048 0.3543797,2.99272 0.307926,6.00569 0.2040747,9.01062 -0.1265878,2.14084 -0.3486343,4.27393 -0.4748019,6.41451 -0.1120352,1.77715 0.099884,3.54915 0.1086667,5.32529 0.2317631,2.71986 0.1146831,5.38564 -0.4593375,8.05272 -0.5669005,1.79069 -1.0892798,3.54968 -1.1963945,5.42948 -0.1351841,2.6532 -0.1981621,5.30553 -0.3526576,7.95914 -0.3802261,3.49473 -0.9254998,6.96918 -1.4095235,10.45075 -0.4156951,2.54549 -0.4820671,5.10939 -0.3708871,7.67917 -0.043276,2.32251 1.1940559,3.42627 2.6256297,5.00627 2.8262031,2.72459 4.6670551,6.0582 5.8879631,9.74821 1.102902,3.77079 1.034903,7.69729 0.881874,11.57967 -0.286526,2.81244 -0.138677,5.63786 0.264474,8.42909 0.437753,2.6912 1.048622,5.33968 1.335717,8.05491 0.222393,2.3656 -0.116171,4.72088 -0.298025,7.07506 -0.101196,1.67534 -0.185537,3.34259 -0.133758,5.02114 0.489984,2.2443 0.709658,4.52413 0.777676,6.81664 -0.01403,2.09913 -0.247723,4.16468 -0.106259,6.26135 0.693404,2.5167 1.127881,5.07528 1.550037,7.64801 0.575845,3.53867 0.400189,7.12393 0.356432,10.69062 -0.178984,3.63175 -0.06117,7.26599 0.0296,10.89814 0.106614,4.13104 0.107245,8.26219 0.07463,12.39406 -0.0172,3.87514 -0.106972,7.72872 -0.662702,11.56581 -0.365115,3.62273 -0.844797,7.23654 -1.156025,10.86451 -0.156119,5.11733 -0.512845,10.22371 -1.175604,15.30014 -0.847619,5.22073 -2.241349,10.32608 -3.25904,15.51522 -1.089016,5.69965 -1.773986,11.46593 -2.5019191,17.21985 -0.7580392,4.87476 -1.9222953,9.67401 -3.0711092,14.46829 -0.7806158,4.68598 -2.0396578,9.2216 -3.4551495,13.74605 -1.443458,3.83498 -1.8441046,7.88755 -2.39203959,11.91033 -0.43472155,4.80173 -2.04409291,9.35908 -2.80969921,14.0984 -0.7131962,3.40717 -0.9736822,6.77455 -0.8363417,10.24078 0.2927633,3.86857 0.2464144,7.72723 -0.3215357,11.56459 -0.6962458,4.21563 -0.9838148,8.48193 -1.3697249,12.7331 -0.2739874,4.49178 -0.2486583,8.99149 -0.081274,13.486 0.027559,4.53659 -0.3184959,9.06629 -0.5675609,13.59413 -0.1189405,4.32445 0.058232,8.64944 0.1602714,12.97244 0.1462018,4.60158 0.050215,9.20488 -0.1440897,13.80313 -0.3813585,3.70797 -0.1810102,7.40574 0.1127765,11.10816 0.1934168,3.85323 0.5603877,7.69749 0.9696648,11.53334 0.3398539,3.35651 1.0781173,6.66028 1.9529975,9.91373 1.29110776,4.18655 2.12733452,8.45693 2.62601083,12.80377 0.34203198,4.79391 0.53836424,9.57971 1.34182717,14.32549 0.6066132,4.26374 2.0236716,8.31366 3.3860382,12.37634 2.0245829,5.38837 2.5385379,11.02037 2.4160445,16.72444 -0.3538714,4.74906 -0.9237681,9.3961 -0.4863332,14.15047 0.7250414,4.33221 1.8916427,8.52903 2.3371897,12.91014 0.2441405,4.25704 -0.4489495,8.46338 -0.3037726,12.7201 0.2867223,4.37037 0.7645264,8.71075 0.8159572,13.09294 -0.1803212,4.44971 0.1144065,8.88918 0.3332285,13.33 0.147057,4.13673 0.1847,8.27648 0.201449,12.41549 0.07938,4.71353 0.151538,9.42692 0.201432,14.14092 -0.152528,4.35793 -0.298722,8.71437 -0.381118,13.07629 0.124422,3.91065 -0.0205,7.80923 -0.221279,11.71223 -0.3006857,4.33488 -0.060388,8.67373 -0.0734,13.0129 0.082309,5.30704 -0.2683473,10.59217 -0.8680395,15.86116 -0.4845378,3.74494 -0.7768206,7.51308 -0.6461304,11.28866 0.1915035,4.00277 0.3424634,8.00701 0.5669041,12.00819 0.1310841,4.82381 0.098444,9.63941 -0.3549321,14.44482 -0.45069,3.7301 -1.1478459,7.42601 -1.0941196,11.1931 0.062757,3.63111 0.3674843,7.249 0.2365259,10.88268 -0.3087092,3.96581 -0.8565976,7.90353 -1.1287035,11.87516 0.2117005,5.83073 0.3323026,11.65614 0.2122456,17.48988 -0.1993128,4.93491 -1.03002,9.78665 -2.3938476,14.52386 -0.6791415,1.89849 -1.418961,3.77012 -1.9779861,5.70928 -0.1828549,0.7701 -0.4762981,1.57102 -0.5050971,2.37154 -0.083635,1.28331 -0.3158963,2.56874 -0.7989672,3.7641 0.015657,0.75149 -0.1848949,1.48105 -0.23350299,2.22519 0.0366229,2.16755 0.17549379,4.32922 0.14976679,6.50106 -0.36776438,3.78221 -0.79718262,7.54729 -1.09488147,11.33644 -0.17203468,2.96127 -0.37666532,5.91314 -0.37087372,8.88016 -0.0220713,2.63051 0.007263,5.26322 -0.0523091,7.89352 -0.15505728,2.04158 -0.30040444,4.05532 -0.16944358,6.10111 0.26020723,3.5175 0.49428063,7.0412 0.80246081,10.55632 0.75995616,7.29424 1.26842386,14.60997 1.58917806,21.93575 0.4146319,7.73134 0.2307432,15.48747 -0.1713389,23.21587 -0.3882475,4.5104 -0.5970821,9.04449 -1.13092401,13.54095 -0.26387766,0.55832 0.1429359,3.72478 -0.66646156,3.88072 0.64825857,1.61986 0.82754589,3.32941 0.77811874,5.05598 0.14846025,2.36847 0.1125765,4.74078 0.13057214,7.11181 0.0968105,2.35636 -0.19195145,4.70149 -0.12770633,7.05665 0.24040986,2.07809 1.06503842,4.00643 1.48205262,6.05595 0.3640228,2.83973 0.2835535,5.72643 0.1716479,8.58273 0.3112292,4.04 0.4579754,8.0425 0.2888284,12.0931 0.011464,2.986 -1.0331692,5.8307 -1.3252233,8.7701 0.1789234,2.58 0.4559956,5.1496 0.5571933,7.7377 0.027703,2.877 -0.1730465,5.7455 -0.2074408,8.6229 0.1141163,3.1093 0.6350916,6.1786 0.7815867,9.2889 0.1751673,2.5186 0.025006,5.0333 -0.1195791,7.5468 -0.083348,1.4463 -0.07941,2.8899 -0.2097844,4.3335 -0.061519,0.9013 -0.072214,1.7501 0.1642267,2.6189 0.2721237,1.2154 0.3056346,2.4632 0.3298397,3.703 0.054327,1.5392 0.1380228,3.0737 0.1154769,4.6145 -0.00666,0.9719 -0.1364646,1.9099 -0.4031555,2.8384 -0.1431594,0.4985 0.047952,0.6573 0.1531191,1.2756 0.1816716,0.435 -0.080046,1.4383 -0.1045161,1.4996 0.6343636,0.925 0.6607804,1.998 0.6255789,3.1539 0.037689,0.7413 -0.3453832,1.4307 -0.3128967,2.1646 0.2468041,0.9201 0.3209313,1.8307 0.2686052,2.7801 -0.1706856,0.5665 -0.2364967,0.9821 -0.088161,1.5474 0.321822,0.8889 0.329044,1.8189 0.2721319,2.7488 -0.2884564,0.906 0.096399,-0.1641 -0.1277522,0.2174 -0.00188,5.5798 -7.8929705,5.5772 -7.8910997,0 v 0 c -0.2248212,-0.3795 0.1631725,0.6975 -0.1276667,-0.2155 -0.056684,-0.929 -0.049608,-1.8584 0.2723173,-2.7463 0.1488972,-0.5656 0.08018,-0.983 -0.089327,-1.55 -0.051995,-0.9512 0.02159,-1.864 0.2724089,-2.7851 0.034759,-0.7268 -0.3635764,-1.409 -0.3212412,-2.1442 -0.00884,-0.2552 0.040848,-4.0708 0.6348492,-2.8779 -0.1231046,-0.5922 -0.2464337,-1.1812 -0.1222587,-1.7905 0.049946,-0.3162 0.3603114,-1.7407 0.1865241,-1.1605 -0.3383537,-0.9514 -0.4580522,-1.9376 -0.4918382,-2.9478 -0.025315,-1.6492 0.077117,-3.2892 0.3497636,-4.918 0.1043278,-0.7207 0.1977133,-1.37 -0.061773,-2.0762 -0.2937571,-1.3711 -0.5183132,-2.7362 -0.3816271,-4.1449 -0.024315,-1.2848 0.1287301,-2.5702 -0.041945,-3.8467 -0.4289179,-2.4976 -1.0502288,-4.9797 -0.9244655,-7.5401 -0.1247468,-3.2059 -0.2101673,-6.4196 -0.1011359,-9.6266 0.00376,-2.8398 -0.1308698,-5.6703 -0.1530885,-8.509 0.04719,-2.6327 0.2026513,-5.2603 0.2575722,-7.8917 -0.1711818,-2.967 -0.590463,-5.925 -0.3960204,-8.9067 0.063863,-3.9235 0.091449,-7.8375 0.2537981,-11.7587 -0.178067,-2.5124 -0.055307,-5.0129 -0.1561079,-7.5253 -0.2746113,-2.24436 -0.995698,-4.35613 -1.5229938,-6.54262 -0.3999155,-2.54413 -0.6171342,-5.10947 -0.6099897,-7.68749 -0.018669,-2.57204 -0.068739,-5.15959 0.4402447,-7.69639 0.2995819,-2.4072 0.7223932,-1.13157 0.6458352,-0.9539 -0.031568,0.0733 -0.1098775,-0.11568 -0.1648161,-0.17354 -1.5667786,-2.09616 -2.4806899,-4.53784 -2.7689435,-7.142 -0.560207,-4.46575 -0.307639,-9.00256 -0.892535,-13.47449 -0.72447,-7.69853 -1.795965,-15.39836 -1.697552,-23.14382 -0.01661,-7.42836 0.413318,-14.82672 1.259096,-22.20891 0.30589,-3.51679 0.533212,-7.0425 0.781627,-10.56236 0.130349,-2.05541 0.01697,-4.08609 -0.110637,-6.1396 -0.03512,-2.55757 -0.01166,-5.1154 -0.160946,-7.67027 -0.122802,-3.15402 -0.422589,-6.30457 -0.317564,-9.46343 0.03052,-4.07413 0.208727,-8.17486 1.3536703,-12.11411 0.5355609,-2.02507 1.1037088,-4.06003 1.4833436,-6.1138 0.140557,-1.15761 0.2602015,-2.31074 0.4381492,-3.46168 0.1523957,-0.72348 0.3718385,-1.36247 0.6560989,-1.97207 0.036453,-1.28156 0.2094018,-2.53939 0.3333792,-3.81238 0.3043796,-1.94088 0.6188832,-3.88006 0.8126915,-5.83584 0.4653407,-4.32586 0.3602953,-8.65619 0.3809281,-13.00173 0.1980737,-6.12285 0.4706146,-12.2583 1.6634555,-18.28419 0.6062125,-3.67731 1.5084305,-7.30088 1.9201357,-11.00873 0.039454,-3.55312 -0.099667,-7.10697 -0.1776144,-10.65837 0.03511,-3.96018 -0.015145,-7.92321 0.3582661,-11.8723 0.2327336,-4.60346 0.017444,-9.21623 0.2515207,-13.82176 0.2576236,-3.88934 0.4158934,-7.78581 0.2738647,-11.6841 -0.1376539,-4.08877 -0.5644927,-8.17198 -0.3700196,-12.26918 0.2010569,-5.16729 0.6443426,-10.32296 0.7969623,-15.49254 0.30103388,-4.38412 0.62702451,-8.76605 0.89091942,-13.15273 0.21871675,-3.7396 0.06093772,-7.48864 0.15150053,-11.2326 -0.09493084,-4.35972 -0.3073608,-8.70847 -0.50809274,-13.06211 0.0236963,-4.79546 0.12492225,-9.59194 0.48580938,-14.37534 0.20089542,-3.83228 0.4250816,-7.68014 -0.13367249,-11.49776 -0.53092556,-4.66529 -0.9608288,-9.3468 -0.82546609,-14.04908 0.0611321,-4.22661 0.4283788,-8.45336 0.0604413,-12.67635 -0.25347051,-4.14044 -0.42321921,-8.28431 -0.39870901,-12.43298 -0.1969485,-4.25595 -1.0944108,-8.33935 -2.1020741,-12.47182 -0.8215428,-5.16176 -0.7822345,-10.31767 -0.2957311,-15.51903 0.1362734,-4.64609 0.096026,-9.28405 -1.4191136,-13.74365 -1.3930844,-4.50509 -2.9766291,-8.96623 -3.8661773,-13.6085 -0.838109,-4.99909 -1.253577,-10.03009 -1.359665,-15.09861 -0.168805,-3.84106 -0.445286,-7.69342 -1.479836,-11.41566 -0.960896,-3.65646 -2.105158,-7.2726 -2.582088,-11.03918 -0.50466,-4.0005 -0.851482,-8.01452 -0.986876,-12.04603 -0.134741,-3.87559 -0.22621,-7.75364 -0.406648,-11.62576 -0.163886,-4.56076 -0.240751,-9.12429 -0.180191,-13.68801 0.02073,-4.42196 0.04285,-8.84277 0.0645,-13.26483 -0.03339,-4.39259 0.104248,-8.78398 0.117322,-13.17662 -0.04114,-4.80566 -0.226787,-9.62242 0.225568,-14.41625 0.294609,-4.45558 0.769948,-8.88889 1.82502,-13.23885 0.431309,-3.34177 0.999313,-6.64332 0.55128,-10.02371 -0.137256,-4.01275 -0.250824,-8.05686 0.143621,-12.05585 0.769462,-4.66042 1.597712,-9.30793 2.813417,-13.87716 0.6396536,-4.48685 0.9246249,-9.06266 2.3260701,-13.40088 1.2512887,-4.30498 2.2549898,-8.67444 3.1738808,-13.0615 0.8947036,-4.44082 1.6404788,-8.89532 1.6466714,-13.4443 0.4552824,-6.25805 0.8882783,-12.57731 2.78982747,-18.59975 1.29688064,-4.75793 2.63980493,-9.50064 3.06646973,-14.439 0.6419988,-5.05926 1.2633404,-10.12058 2.064644,-15.15851 0.5870361,-3.60064 1.0209662,-7.2254 1.5465118,-10.83588 0.3459549,-3.4453 0.07006,-6.89422 0.043293,-10.35029 -0.051791,-4.13372 -0.1164413,-8.26728 -0.065929,-12.40144 0.079008,-3.73055 0.2620698,-7.45556 0.3844735,-11.18489 0.1391938,-3.09587 0.068352,-6.19072 -0.1915338,-9.2801 -0.1988155,-2.67306 -0.4630951,-5.34013 -0.6824524,-8.01016 -0.2372183,-2.24739 -0.3921813,-4.49728 -0.38695,-6.7584 -0.071874,-2.31106 -0.190064,-4.6186 -0.3026815,-6.92808 -0.015592,-1.93018 -0.1455602,-3.86242 0.014057,-5.78926 0.1024496,-1.79835 0.1090168,-3.59531 -0.1601985,-5.38279 C 4.6884811,226.5166 4.230649,223.98778 3.5159756,221.48337 2.91598,218.04876 2.8320844,214.559 2.9955048,211.07805 c 0.1398235,-2.69286 0.3192523,-5.45119 -0.1954075,-8.11197 -0.9132284,-2.62914 -2.83756007,-4.58938 -4.6093637,-6.68062 -2.3335198,-3.14394 -3.8020394,-6.59216 -3.9346824,-10.55265 -0.2391111,-3.12851 -0.6042091,-6.26334 -0.3000155,-9.40264 0.3661214,-3.47819 0.923145,-6.93413 1.5866819,-10.36753 0.446827,-2.50638 0.768474,-5.03292 1.1643582,-7.54804 0.2087232,-2.29818 0.3302158,-4.61892 0.9974382,-6.8441 0.5207416,-1.93815 0.5518108,-3.91181 0.5960287,-5.90967 -0.011183,-1.78872 0.1371981,-3.57864 -0.034072,-5.36543 -0.1202727,-2.24493 -0.174485,-4.49085 -0.095902,-6.73869 0.082213,-2.51537 0.020005,-5.02518 -0.4342139,-7.50965 -0.3829957,-3.20526 -0.6992413,-6.4379 -0.4745813,-9.66871 0.132609,-2.69667 0.1498938,-5.39391 -0.025543,-8.0902 -0.2479445,-2.9457 -0.8082857,-5.82112 -1.378526,-8.719231 -0.4044215,-2.93085 -0.6762343,-5.863674 -0.5020961,-8.826825 0.032911,-2.330053 0.027768,-4.66067 -0.066445,-6.989559 -0.049505,-2.530361 -0.2211494,-5.067612 5.027e-4,-7.594978 0.1880544,-1.453568 -0.05651,-2.717218 -0.5485876,-4.11127 -0.4847138,-2.529509 -0.6930036,-5.078862 -0.4829805,-7.653417 0.046094,-1.994934 0.1660049,-3.988263 0.1325605,-5.984594 0.016523,-1.96128 0.00488,-3.91885 -0.1052023,-5.878063 -0.1488088,-2.621023 -0.074746,-5.252339 0.1249119,-7.868983 0.1326801,-2.368482 0.4082116,-4.727684 0.2313493,-7.104079 -0.045101,-2.641727 -0.087311,-5.285155 0.1021784,-7.924083 0.1516557,-1.91358 0.3706915,-3.821961 0.5308547,-5.73157 -0.04412,-1.913918 -0.9914359,-3.682807 -1.422948,-5.518709 -1.4027763,-6.518421 -1.6383746,-13.3379831 0.7216476,-19.6790249 0.1964267,-7.2617942 10.4661545,-6.984005 10.2697279,0.2777892 z"
       inkscape:connector-curvature="0" />
    <path
       style="fill:#424242;fill-opacity:1;stroke:none;stroke-width:0.26458332;stroke-opacity:1"
       id="path921"
       d="M 1.9709174,-3.3749043 C 9.7050954,-9.5491352 19.742062,-10.81086 29.321445,-11.02849 c 9.092173,0.123052 18.013563,1.7182992 27.107409,1.8937876 8.180482,-0.032009 16.356401,-0.1426835 24.53908,-0.032813 8.196069,0.1317926 16.379925,-0.2745936 24.564296,-0.5267558 9.88476,-0.4472908 19.71587,-1.5554608 29.6038,-1.9559558 11.57296,-0.312525 23.14717,-0.21113 34.71082,0.301267 9.70467,0.859035 19.43873,1.198421 29.16605,1.6724034 8.96147,0.3062862 17.82267,1.6667221 26.6848,2.919072 7.67954,1.1747661 15.46654,1.4173462 23.222,1.5954401 6.26883,0.021952 12.45776,0.3466177 18.70655,0.4504875 7.73356,-0.1820981 15.3919,0.9619634 23.09781,1.3015116 8.25722,-0.1578742 16.48298,0.4686962 24.71142,1.0407213 8.01719,0.6087353 16.05581,0.3445288 24.0851,0.3189746 8.90365,-0.065359 17.80429,-0.2178153 26.69826,-0.6442639 8.15488,-0.5669166 16.27338,-1.5972811 24.36923,-2.7130853 7.0512,-1.0324579 14.10076,-2.0488735 21.19093,-2.7749587 6.51621,-0.6892999 13.0551,-1.1332766 19.57652,-1.7615374 7.05025,-0.7570092 14.1165,-0.9938922 21.20167,-1.0217592 4.2381,0.11027 8.47932,0.08085 12.71709,-0.03246 3.54164,-0.0947 2.47336,0.348489 3.74724,-0.214353 7.0275,-0.142316 14.05308,0.07732 21.07909,0.178349 7.61527,0.134741 15.22839,0.116996 22.84169,-0.08692 6.63091,-0.272341 13.24602,-0.413488 19.88437,-0.29707 7.86175,0.215638 15.72392,0.473555 23.58773,0.576488 5.14972,0.05975 10.23128,0.02112 14.71785,-0.146317 7.84738,-0.622627 15.70373,-0.578387 23.56673,-0.455854 6.49385,0.203917 12.98834,0.167139 19.48362,0.08209 6.97585,-0.327222 13.97265,-0.124512 20.94169,0.433262 5.11876,0.445332 10.70788,0.624513 15.52668,0.476153 6.84376,-0.187786 13.68417,-0.355013 20.53071,-0.356316 7.45501,0.05813 14.90859,0.16404 22.36044,0.395222 4.90093,0.124207 8.19605,0.13253 13.42763,0.163549 5.83055,0.136529 11.66315,0.06233 17.49179,0.2866926 5.19102,0.1479756 5.41369,0.011044 9.89333,-0.1547036 4.79203,0.0092 9.62543,-0.01924 14.4004,0.4295083 3.0622,0.1837867 6.12997,0.2448785 9.19517,0.392874 4.0159,0.030598 7.97996,0.6928133 11.94887,1.2171436 4.75192,0.6266413 9.38128,1.9166991 14.10528,2.6986926 4.45791,0.5638109 8.59949,0.3023449 12.05966,0.2577533 7.46805,-0.2472904 14.93684,0.05981 22.40568,0.085511 6.58831,-0.064693 13.17453,-0.0772 19.76202,5.556e-4 7.39476,0.1173949 14.78291,0.4746178 22.17362,0.7447595 5.8588,0.8012522 11.74133,0.9513284 17.64342,0.8459234 5.3548,-0.3132521 10.75984,-0.1439177 16.16639,-0.127953 7.23997,-0.22328 14.43614,0.1765118 21.63299,0.9052356 7.19937,0.8329562 14.44059,1.1991258 21.67102,1.6457339 7.32689,0.25948796 14.64439,0.72556811 21.97515,0.86504837 7.19397,0.0445422 14.32745,-0.47907966 21.51224,-0.65333414 10.10004,-0.0907235 20.20902,-0.0903836 30.30352,0.28934167 7.0726,0.40372476 14.1444,0.55572359 21.2251,0.35320682 6.5123,-0.53138327 13.1398,-0.28030295 19.6876,-0.24551384 9.202,0.22914911 18.4126,0.23395775 27.6164,0.0938166 8.7517,-0.16545536 17.4996,-0.14278716 26.2497,0.007985 9.2194,0.23122766 18.4403,0.16100729 27.6608,0.065004 11.1079,-0.23455542 22.2186,-0.30469786 33.3279,-0.15456378 7.6109,0.26687848 15.2285,0.38107681 22.8513,0.43339344 8.2042,0.21380348 16.4351,-0.48469205 24.6151,0.24657085 1.376,0.82890331 2.7521,1.65780661 4.1281,2.48670981 5.6777,-1.5255163 7.8351,6.5040229 2.1574,8.0295394 v 0 c -0.8793,0.858861 -1.7586,1.717722 -2.6379,2.576583 -8.1448,1.181371 -16.4045,0.730183 -24.6124,0.83512 -10.1308,0.08734 -20.2585,0.330103 -30.389,0.45978 -8.551,0.09094 -17.1468,0.167426 -25.6746,-0.285733 -9.1529,-0.0812 -18.3032,-0.006 -27.4472,0.452995 -11.4808,0.350501 -22.9844,0.35875 -34.4285,-0.754381 -6.6137,-0.628079 -13.2587,-1.245518 -19.8988,-0.807188 -8.8705,0.05358 -17.7349,0.0455 -26.6028,-0.217966 -7.1392,-0.209081 -14.2722,-0.07684 -21.4062,0.273243 -7.6197,0.255477 -15.24459,0.526739 -22.8793,0.442728 -9.70262,-0.08129 -19.40428,-0.22379 -29.09472,-0.750852 -7.48885,-0.302255 -14.98534,-0.295143 -22.47043,-0.68428 -7.3497,-0.516663 -14.63389,-1.470266 -21.88046,-2.8068168 -5.41065,-0.7277208 -8.72992,-1.0009978 -13.79503,-0.7390471 -7.71001,0.3378226 -15.42214,1.0696522 -23.14628,0.5387528 -5.85472,-0.3953508 -11.64084,-1.3316895 -17.49181,-1.7236593 1.63412,0.07982 0.34358,-6.43e-5 -2.13022,0.121762 -3.11938,0.1536184 -6.23001,0.4402931 -9.3499,0.5948442 -1.21266,0.060073 -2.42599,0.1063418 -3.63899,0.1595128 -9.10561,0.33617 -18.24361,0.4330914 -27.32591,-0.4166341 -5.34884,-0.5060032 -10.80762,-1.055229 -15.1934,-1.096531 -6.77757,0.1211231 -13.63142,0.2204268 -20.29423,-1.2156392 -4.44019,-1.0496756 -8.81999,-2.3835931 -13.33963,-3.0585023 -3.78942,-0.5958906 -7.62778,-0.7961152 -11.42042,-1.373936 -2.74828,-0.41939377 -5.51331,-0.77416538 -8.29842,-0.50254017 -5.43785,0.41849237 0.87479,-0.16467629 -0.30295,0.25661807 -0.57174,0.2045271 -1.2133,0.053711 -1.81962,0.087045 -2.10489,0.1157235 -4.20899,0.2390098 -6.3182,0.2525576 -5.34349,0.037213 -10.68742,0.00522 -16.03009,0.087359 -4.43217,0.1624096 -6.20194,0.2172988 -11.43188,0.2960334 -6.58604,0.060893 -13.17213,0.068532 -19.75747,0.1768644 -5.27376,0.124057 -10.5396,0.1424438 -15.74446,0.2686564 -6.86294,0.05312 -13.72544,0.088033 -20.58836,0.1061433 C 646.42277,2.3036009 638.86177,2.1565454 631.30633,1.6991582 624.47796,1.5698511 617.68047,1.8966639 610.82398,1.5814256 604.34883,1.4572108 597.8735,1.288709 591.39674,1.4137071 586.194,1.6639999 580.18648,1.595283 574.64962,1.6338003 c -7.15243,0.086718 -14.30449,0.050979 -21.45678,0.059091 -5.68122,0.070699 -11.04265,0.5145154 -16.84203,0.5806969 C 527.41959,2.4443864 518.4839,2.2614268 509.55593,1.9893376 504.12829,1.8235052 498.687,1.6488097 493.25622,1.7588735 c -0.0585,0.00119 0.11078,0.037593 0.16616,0.05639 -6.96222,0.129548 -13.91925,0.4895823 -20.88441,0.470322 -7.76888,-0.059945 -15.51718,-0.352225 -23.27122,-0.8220642 1.2431,-0.1938417 1.19206,-0.1602927 -2.1401,-0.079223 -2.74447,0.066772 -5.46804,0.4339583 -8.18142,0.8296795 -1.016,0.1481754 -2.02819,0.321386 -3.04232,0.482079 -6.48676,0.8325086 -12.97334,1.5245694 -19.50458,1.9170653 -6.82556,0.8612155 -13.60757,2.078519 -20.35008,3.4384321 -8.38684,1.5446179 -16.77871,3.0926688 -25.28109,3.8716518 -8.99695,0.641505 -18.01556,0.627632 -27.02121,1.11079 -11.12293,0.537661 -22.29525,0.585103 -33.37118,-0.723196 -7.97357,-0.98225 -15.9385,-2.016192 -23.94726,-2.6785523 -5.14693,-0.591058 -10.28951,-1.1419596 -15.48127,-0.9732086 -0.0888,0.00289 0.16539,0.065295 0.24807,0.097943 C 262.4069,9.0635207 253.60624,9.286652 244.81604,8.9817454 236.74531,8.5738063 228.70607,7.888064 220.6751,6.9865069 212.0075,6.1569315 203.32433,5.4985815 194.61632,5.3013908 184.80383,4.9808605 174.99004,4.6969652 165.17911,4.3339013 156.65292,3.9404987 148.11727,3.3490719 139.58923,3.3508814 129.66139,3.8329419 119.8231,5.1597008 109.91599,5.9146692 98.951083,6.1665658 88.017791,5.6906357 77.072772,5.070359 68.780223,4.8699051 60.474206,5.1427244 52.179971,4.7068538 45.948475,4.151401 39.699776,3.0688311 33.435046,3.063392 33.374656,3.0633396 33.542329,3.118887 33.595971,3.146634 25.109245,3.8616987 16.888882,6.2001423 8.3971306,6.7913411 1.2085094,11.33536 -5.2177037,1.1691145 1.9709174,-3.3749043 Z"
       inkscape:connector-curvature="0" />
    <path
       style="fill:#424242;fill-opacity:1;stroke:none;stroke-width:0.26458332;stroke-opacity:1"
       id="path933"
       d="m 1207.357,4.3205018 c 8.1481,-3.89164392 17.4644,-3.95593203 26.2895,-3.1411465 5.1096,0.4595437 10.1721,1.5939206 15.3152,1.4418984 4.8453,-0.2703727 9.5949,-1.0706381 14.4406,-1.5577738 7.6228,-0.5381556 15.2707,-0.60217577 22.9092,-0.42195568 4.6553,0.16507105 8.5727,0.28394419 13.3204,0.29773792 5.1263,0.17643426 10.1217,-0.93088804 15.1373,-1.80663895 5.9026,-1.32809589 11.7999,-2.32352989 17.8518,-2.44120199 3.2814,-0.7469653 11.5826,1.5678794 14.7522,0.2558743 0.2838,-0.1174689 -0.5563,-0.26044 -0.8345,-0.39066 7.6963,-1.966537 15.2433,-4.3444974 23.0734,-5.7488851 9.8793,-1.6171974 19.9025,-0.9150724 29.8264,-0.2000535 6.45,0.5429443 12.8647,0.3678885 18.8847,0.2508186 7.3265,-0.2038154 14.657,-0.1687949 21.981,0.091826 7.8704,0.2315977 12.0421,0.076694 18.6581,-0.2564485 6.5612,-0.6656755 13.1197,-0.1137856 19.677,0.2149959 3.6098,0.6239476 7.2384,0.2550335 10.8564,-0.04534 -0.3289,-0.063549 -1.3176,-0.1378227 -0.9868,-0.190646 0.3722,-0.059422 4.8489,-0.086472 5.2059,-0.083458 3.5272,0.029778 7.0657,0.2148956 10.5911,0.2855905 4.4124,0.700193 8.7677,1.4952225 13.2418,1.6267858 5.4388,0.2810182 10.2406,-0.2019612 14.4035,-0.4159903 8.6167,-0.6998063 16.7212,-0.2909285 25.1007,1.7329843 5.4087,1.4454451 11.0105,1.4214998 16.5625,1.3794808 -0.2674,-0.014682 -1.0698,-0.032484 -0.8022,-0.044046 4.7178,-0.2038717 9.4575,-0.1641623 14.179,-0.1670859 6.2136,0.012742 12.3819,0.71965 18.5933,0.8044939 1.9404,-0.1058439 5.8306,0.0225 10.4418,0.1864601 4.1855,0.2592858 8.3852,0.5337495 12.5759,0.2646304 4.46,-0.3988305 7.9726,-0.5439447 9.7896,-0.5450369 5.915,0.02586 11.8291,0.2686394 17.7444,0.1926066 5.5986,-0.093499 10.8999,-0.5184878 15.6983,-0.6024224 6.9446,-0.1363419 13.8882,-0.030252 20.8259,0.2877976 7.3079,0.3130143 14.608,0.1529983 21.9099,-0.1763572 5.4344,-0.2883733 11.4969,-0.3806579 17.6213,-0.6170797 6.1884,-0.076913 12.3456,-0.4625097 18.471,-1.3401046 4.9254,-0.8503171 9.8786,-1.3442455 14.8756,-1.2547877 2.0063,0.1789128 4.0279,0.1090189 6.0333,0.2882916 1.3197,0.1179782 2.025,0.614051 3.3466,0.1836703 -6.3436,-0.069674 3.6521,-0.5319612 4.5117,-0.5358712 3.647,-0.016698 7.2818,0.2093499 10.9253,0.063607 4.0743,-0.2710542 8.1629,-0.3159212 12.2452,-0.3466171 5.7724,0.1030629 11.5231,0.5084336 17.2971,0.5447342 5.759,-0.1192051 7.6913,-0.2105602 14.0456,0.1877147 5.9315,0.430103 11.8861,0.2238523 17.8254,0.073011 5.6776,-0.2728857 11.1103,-0.1040876 14.7254,0.090474 5.0156,0.5192252 10.1569,-0.198523 14.8943,1.7859102 0.3472,0.1565407 0.6956,0.3103748 1.0416,0.4696222 0.3389,0.1560409 0.6723,0.5032809 1.0367,0.4225295 0.1567,-0.034737 0.4893,-0.3267199 0.3305,-0.3502562 -0.8485,-0.1257578 -1.7115,-0.1175594 -2.5671,-0.1763392 2.4271,-0.4865791 4.8944,-0.5562571 7.3589,-0.4657273 2.7394,0.151035 5.4996,0.4087651 8.2459,0.2857709 1.5199,-0.068119 3.1386,-0.017306 4.543,0.6269591 2.3993,1.5906014 -6.5457,-4.3739115 3.761,3.491764 2.1318,1.62691196 -1.6628,-2.304645 -1.9469,-2.2828397 -0.4648,0.035668 -11.0435,2.48381004 -7.9525,1.7686658 0.01,0.1476796 0.011,0.2953592 0.017,0.4430388 2.4475,-7.8703035 13.5777,-4.4090088 11.1302,3.4612947 v 0 c -0.044,0.2798584 -0.088,0.5597169 -0.1315,0.8395755 -1.0047,3.5427729 -0.4311,2.2636614 -8.9906,3.5847998 -0.1707,0.026347 -5.945,-4.4400855 -2.9033,-2.8691337 2.6458,1.3664427 2.6054,1.3668206 3.0421,2.7515008 -1.151,0.507697 -2.6002,0.2746224 -3.8129,0.2936901 -0.775,-0.052345 -1.5502,-0.1236514 -2.3279,-0.099114 -0.2453,0.00774 -0.979,0.017624 -0.7349,0.043745 2.0586,0.2203556 3.394,0.011142 1.4531,0.2383282 -2.54,0.1819799 -5.0842,0.2043531 -7.6229,-0.038286 -2.5112,-0.1034523 -3.3536,0.1143937 -5.2503,-0.4152318 -0.3946,-0.1101868 -1.2226,-0.4461645 -1.7046,-0.517326 -0.3465,-0.051154 -0.3853,0.016446 -0.6672,0.1558163 -0.6175,0.2324462 -0.7664,0.309671 -1.4914,0.46213 -0.5129,0.1078658 -1.6769,-0.2361589 -1.5487,0.2720742 0.1371,0.5435243 2.1244,-0.1217885 1.6691,0.2051029 -1.3502,0.9692904 -3.6495,-0.5205251 -4.9641,0.4708816 -7.6187,0.5150905 -15.3053,0.3458858 -22.8999,-0.4444881 -0.8818,-0.099337 -1.763,-0.2036789 -2.6454,-0.2980113 -0.7557,-0.0808 -1.5722,0.076706 -2.2687,-0.227375 -0.4542,-0.1982769 1.9688,-0.022119 1.4822,-0.1159796 -1.9929,-0.384384 -4.1737,0.4247571 -6.1623,0.3885756 -7.4257,0.8239111 -14.9132,0.9327266 -22.3711,0.4801528 -5.7069,-0.3848253 -11.3953,-0.986173 -17.0958,-1.4510755 -3.8288,-0.3674785 -7.6556,-0.754376 -11.4898,-1.0632361 -0.7791,-0.051602 -8.4277,-0.5624052 -2.7858,-0.1077409 0.4025,0.032434 -0.8072,0.022643 -1.2109,0.033966 -3.7726,0.1722847 -7.5551,0.1510202 -11.3298,0.121453 -0.8233,-0.1449324 -1.6413,-0.3192791 -2.4657,-0.4571156 -0.341,-0.057001 -1.3782,0.024641 -1.0349,0.065879 0.8786,0.1055661 1.7809,-0.027826 2.6515,0.1310236 0.275,0.05018 -0.5423,0.1362612 -0.8134,0.2043919 -4.5925,1.2357184 -9.2211,2.2728867 -13.9693,2.7239666 -6.3965,0.7610538 -12.7978,1.4902669 -19.2125,2.0814622 -8.6621,0.647048 -17.3484,1.044501 -26.0352,0.595158 -4.9898,-0.238855 -10.1554,-0.7419583 -15.1483,-0.3494378 -0.2597,0.020418 0.5163,0.070497 0.7744,0.1057458 -6.8489,0.327198 -13.7035,0.498148 -20.5607,0.476199 -7.8801,-0.05289 -15.7693,-0.06075 -23.6113,-0.9462025 -6.4578,-0.5489723 -5.0411,-0.3122766 -10.3055,-0.2636171 -5.5366,0.009 -11.0765,0.070906 -16.5818,-0.606616 -0.5062,-0.043291 -1.0114,-0.1029052 -1.5187,-0.1298723 -0.4494,-0.023887 -1.7986,-0.058156 -1.3499,-0.022598 0.6086,0.04824 1.2549,-0.1426019 1.8305,0.060696 0.4357,0.1538592 -0.9221,0.06004 -1.3827,0.097452 -0.526,0.042733 -2.8305,0.2614938 -3.2791,0.3037187 -5.969,0.4757001 -11.9512,0.8478083 -17.9422,0.4353705 -4.0687,-0.2148223 -8.1538,-0.6754312 -12.2295,-0.663661 -0.4131,0.00119 0.8255,0.029335 1.2383,0.044003 -6.9797,0.1626463 -13.932,1.0862606 -20.928,0.784569 -6.1586,-0.1938542 -12.2063,-1.0689156 -18.2623,-2.1842659 -6.1495,-0.4846545 -9.4381,-0.2703417 -15.3694,-0.3095432 -7.8545,-0.026885 -15.7934,0.2643619 -23.5365,-1.3087368 -3.8852,-0.8486119 -7.7575,-2.010298 -11.7809,-1.6384537 0.4468,0.025953 1.7764,-0.022942 1.3404,0.077857 -0.7441,0.1720109 -1.5241,0.1026891 -2.2868,0.1409327 -4.6201,0.2316464 -9.2451,0.058224 -13.8644,-0.1125675 -3.5793,-0.3377893 -7.1722,-0.9048194 -10.7736,-0.57892 0.5419,0.072962 1.9946,-0.1845455 1.6256,0.2188853 -0.4569,0.4995397 -1.3467,0.1399077 -2.0199,0.2122049 -3.7743,0.4053953 -7.5532,0.7628305 -11.3407,1.024686 -6.6937,0.4887266 -13.3649,0.3511568 -20.0698,0.3706711 -0.2129,6.086e-4 0.4258,0.00614 0.6387,0.0092 -7.138,0.2785877 -14.2704,0.6654209 -21.4075,0.9538004 -9.335,0.2344671 -18.6712,0.071844 -27.9746,-0.7781113 -6.6118,-0.3924379 -11.4965,-0.3377343 -18.5524,0.8317436 -8.4634,1.3498791 -16.9692,2.8056964 -25.5411,3.1510922 -2.2149,-0.020894 -4.4317,0.033129 -6.6446,-0.062684 -2.9603,-0.1281751 -6.0118,-1.191537 -8.9916,-0.8363117 -0.404,0.048154 0.8125,0.040704 1.2188,0.061056 -5.6429,0.3568404 -11.1976,1.5205346 -16.8025,2.2130636 -5.5895,0.604621 -11.1825,0.584799 -16.7999,0.572723 -6.412,0.264363 -12.8185,0.513579 -19.2378,0.562195 -5.6761,0.09545 -11.3505,-0.05686 -17.0227,-0.318601 -6.5549,-0.469588 -13.1109,-0.898401 -19.6536,-1.488504 -3.6495,-0.4484205 -6.9408,-0.7407739 -10.1669,0.386279 -8.674,1.730713 -17.7085,3.122877 -26.4522,1.101396 -5.3264,1.883796 -7.9905,-5.6488727 -2.6641,-7.5326687 z"
       inkscape:connector-curvature="0" />
    <path
       style="fill:#424242;fill-opacity:1;stroke:none;stroke-width:0.26458332;stroke-opacity:1"
       id="path935"
       d="m 1911.0846,1.3864776 c 0.2794,6.8811413 -2.2308,13.3788784 -4.1872,19.8572304 -1.0063,2.290691 -0.3873,4.428712 0,6.767295 0.6042,3.720494 0.076,7.487309 -0.2804,11.204996 -0.2194,3.62748 -0.3181,7.245575 -0.8454,10.846289 -0.6203,2.740774 -0.3966,5.482079 -0.1832,8.249685 0.5427,4.661987 -0.071,9.30117 -1.3885,13.775599 -0.5744,2.540376 -2.4261,4.688674 -2.8799,7.251293 0.7497,2.971014 1.0289,5.988219 1.1732,9.04164 0.1406,4.552045 -0.631,9.052169 -1.3767,13.525125 -0.536,4.03417 -1.6108,7.96299 -2.3751,11.95212 -0.5257,3.81291 -0.1675,7.68534 -0.2069,11.53074 -0.4126,4.94298 -1.4327,9.79731 -2.2367,14.68401 -0.8817,5.08223 -0.834,10.23793 -0.8183,15.37405 0.1023,4.22415 -0.3135,8.43357 -0.3545,12.65414 0.2206,4.31463 0.3715,8.616 0.3311,12.93757 0,3.82225 -0.2314,7.63775 -0.3654,11.4563 -0.08,2.9881 -0.078,5.97499 -0.012,8.96298 0.1689,3.5768 0.2309,7.15501 0.2904,10.73461 0.01,3.1197 -0.2296,6.23003 -0.4201,9.341 -0.088,2.60612 0.2213,5.20247 0.361,7.80255 0.1328,3.00367 0.1373,6.00835 0.028,9.01239 -0.051,2.15159 0.4043,4.22809 1.0639,6.25949 0.9143,3.21532 1.4146,6.48931 1.5169,9.82466 -0.1905,2.55741 0.8161,4.77294 1.5491,7.13537 1.3228,3.65146 1.8633,7.45535 2.3582,11.283 0.8425,4.38478 1.1682,8.77051 0.8019,13.21715 -0.5712,4.56708 -2.1844,8.8959 -3.5532,13.26224 -1.1247,3.17529 -1.4725,6.48272 -1.5397,9.82461 0.032,4.54338 0.048,9.08773 0.02,13.63128 -0.1356,5.15687 0.1602,10.30904 0.3257,15.46098 0.1919,5.96953 0.1356,11.94256 0.1705,17.91407 0.017,4.82941 1.0262,9.55328 2.2392,14.2014 1.2726,4.79677 1.8612,9.72251 2.3793,14.64482 0.3877,3.94177 0.634,7.89657 0.9341,11.84601 0.3834,3.76134 0.2162,7.543 0.082,11.3121 -0.1131,3.3528 -0.084,6.70819 -0.1357,10.06229 -0.1483,3.32166 0,6.65231 0.1317,9.97312 0.2348,4.6182 0.4366,9.21951 0.2251,13.8421 -0.5936,5.49098 -1.1711,10.97688 -1.5445,16.48812 -0.3955,7.75248 -1.0223,15.48979 -1.3709,23.24463 -0.5059,8.79027 -0.4647,17.58809 -0.2815,26.38589 0.3117,8.84433 0.2552,17.69438 0.1674,26.5418 -0.081,8.31427 -0.2199,16.62804 -0.3025,24.94206 -0.1544,6.04708 -0.2537,12.11387 -0.8679,18.13537 -0.09,2.82686 -1.1642,4.66222 -2.8362,6.82146 -0.077,5.80075 -8.2799,5.69259 -8.2035,-0.10817 v 0 c -1.5683,-2.11449 -2.6089,-3.91961 -2.6971,-6.64 -0.7257,-5.98226 -1.33,-11.98571 -1.8039,-17.99239 -0.3338,-8.40258 -0.186,-16.80527 -0.2034,-25.21254 -0.021,-8.72585 -0.1427,-17.45033 -0.3143,-26.17451 -0.2108,-9.2269 -0.5458,-18.47811 0.1744,-27.69156 0.7183,-7.9248 2.1709,-15.70598 3.5052,-23.54286 0.7289,-5.33527 1.4419,-10.67266 2.1352,-16.01253 0.4033,-4.32729 0.5304,-8.67259 0.7188,-13.01343 0.1214,-3.31509 0.2352,-6.64159 0.038,-9.95542 -0.07,-3.44514 0,-6.88697 0.079,-10.3314 0.02,-3.43244 -0.057,-6.86268 -0.1847,-10.29279 -0.2338,-3.78061 -0.8258,-7.48805 -1.5255,-11.21161 -0.5721,-4.2526 -0.8961,-8.57224 -2.1882,-12.68648 -1.7988,-5.63198 -3.3393,-11.37061 -3.461,-17.32632 -0.194,-6.02629 -0.037,-12.05807 0.048,-18.08578 0.1042,-5.22322 0.2499,-10.44604 0.1483,-15.67109 0.073,-4.70307 0.4135,-9.38781 0.7404,-14.07871 0.3227,-4.17674 0.7941,-8.31467 1.8629,-12.37994 0.9611,-3.77087 2.2603,-7.42836 3.2365,-11.19171 0.385,-3.53518 0.3561,-7.08208 -0.3436,-10.58326 -0.509,-3.3043 -0.879,-6.62688 -1.4074,-9.92634 -0.8124,-3.16221 -1.7732,-6.31153 -1.9496,-9.59284 -0.1623,-2.78251 0.228,-5.55701 -0.3015,-8.30294 -0.2509,-2.7571 -0.9819,-5.46305 -0.9907,-8.24935 -0.109,-3.00397 -0.1048,-6.00861 0.028,-9.01223 0.1396,-2.60068 0.4483,-5.19752 0.3621,-7.80424 -0.1895,-3.10941 -0.427,-6.21811 -0.4212,-9.33615 0.057,-3.58359 0.1147,-7.16594 0.2875,-10.74659 0.071,-2.98194 0.088,-5.96327 0.01,-8.9456 -0.1424,-3.81696 -0.4071,-7.62904 -0.435,-11.44993 -0.054,-4.37694 0.1088,-8.72633 0.4891,-13.08781 0.082,-4.06239 -0.3047,-8.10455 -0.548,-12.1569 -0.4218,-5.98327 -0.7655,-12.00018 0.7862,-17.87573 1.138,-4.23869 2.8503,-8.42219 2.9198,-12.85727 0.2524,-4.23004 0.236,-8.48153 0.8047,-12.69018 0.5834,-3.99896 1.2955,-7.96785 2.0997,-11.92907 0.6229,-4.031014 1.0597,-8.082555 1.5883,-12.12674 0.2224,-3.276359 0.1129,-6.551771 0.3297,-9.82772 0.2566,-2.976631 1.057,-5.831822 1.86,-8.702815 0.9462,-3.853828 1.652,-7.742523 2.1547,-11.680894 0.4009,-2.884569 0.473,-5.799275 0.5931,-8.706884 0.078,-3.714695 -0.1806,-7.439404 0.3276,-11.135175 0.4554,-3.231129 1.1953,-6.412672 1.6074,-9.649291 0.071,-2.847686 -1.722,-5.319125 -1.9143,-8.163604 -0.4593,-7.521554 0.8838,-15.1512875 5.2918,-21.42412861 1.6598,-6.28468779 10.5477,-3.93739869 8.8879,2.34728921 z"
       inkscape:connector-curvature="0" />
    <path
       style="fill:#424242;fill-opacity:1;stroke:none;stroke-width:0.26458332;stroke-opacity:1"
       id="path937"
       d="m 1900.4051,579.63474 c 3.1883,11.52694 2.3944,23.7241 1.6199,35.52923 -0.7341,8.56763 -1.538,17.13936 -1.3953,25.74507 0.5593,8.47121 2.1821,16.83893 3.4606,25.2249 1.2206,6.86757 0.9538,13.85591 1.4094,20.78595 0.5332,6.83554 0.5674,13.68626 0.3816,20.53543 -0.1457,6.2198 -0.2621,12.44303 -0.2265,18.66484 0.093,7.38444 0.055,14.75629 -0.1803,22.1378 -0.3442,7.4042 -0.9243,14.79454 -1.3431,22.19449 -0.3545,7.51705 0.087,15.03746 0.1282,22.55798 0.065,8.05354 -1.1563,16.02705 -1.6811,24.04329 -0.3074,6.22374 0.2756,12.44182 0.5486,18.65744 0.4159,7.23363 -0.1675,14.44837 -0.9084,21.63739 -0.831,6.11169 -1.1488,12.24732 -0.8702,18.40505 0.4913,6.76312 0.4221,13.5342 0.06,20.29936 -0.4025,4.72329 -0.9638,9.4175 -1.0442,14.16169 -0.015,4.19889 0.057,8.39915 -0.055,12.597 -0.05,3.71332 -0.9331,7.32089 -1.5536,10.96071 -0.4314,2.8135 -0.08,5.63824 0.162,8.44891 0.4276,4.26863 0.5199,8.55834 0.5726,12.84536 0.035,4.61452 -0.1291,9.22721 -0.1581,13.84099 -0.042,4.3162 1.6103,8.36345 2.9849,12.38456 1.3803,4.31409 2.7966,8.60624 3.5681,13.07664 0.4372,3.55126 -0.2729,7.08078 -0.3883,10.62568 0.281,4.5106 0.1016,9.0052 -0.2128,13.5076 -0.3325,3.7108 -0.8181,7.4182 -1.7559,11.0274 -0.8891,2.2434 -1.5124,4.5133 -1.6476,6.9243 0.013,2.8707 0.1459,5.7407 0.2431,8.6099 0.087,2.5521 -0.099,5.0992 -0.2212,7.646 -0.1225,2.1066 -0.083,4.2176 0.027,6.3235 0.095,2.8648 0.2507,5.7259 0.3657,8.59 0.095,2.7995 -0.052,5.5985 -0.058,8.3978 -0.018,0.1671 0,0.3416 -0.056,0.5014 -0.083,0.254 -0.6548,-0.7692 -0.6234,-0.5039 0.5369,4.5406 0.2022,5.3443 0.7484,3.8334 0.1133,-0.023 0.086,0.2356 0.016,0.2057 -0.2259,-0.097 -0.1209,-0.5464 -0.3424,-0.6529 -2.4229,-1.165 -4.9533,-2.0918 -7.43,-3.1377 0.4514,-0.1222 1.0266,-0.7006 1.3542,-0.3669 6.2164,6.3339 9.4955,6.274 6.2619,9.3802 -3.2301,3.1029 -13.0816,-2.2054 -10.1712,-6.0063 2.4901,-4.3037 14.7054,2.0289 10.1218,5.2448 -3.5072,-1.4532 -7.1081,-2.6983 -10.5217,-4.3595 -0.2072,-0.1008 0.2417,-0.3938 0.3867,-0.5728 0.02,-0.025 0.3771,-0.4295 0.5446,-0.3793 11.1617,3.3459 11.1195,-0.3807 10.9023,4.1135 -0.036,-0.3064 0.039,0.5101 -0.073,0.4214 -0.4999,-0.3981 -0.6449,-1.1034 -0.9625,-1.6579 -1.099,-1.9186 -0.9842,-1.5038 0.9573,0.3459 2.3756,3.6687 2.0155,6.1567 -0.6571,9.4849 -3.057,-0.5921 -6.1514,-1.016 -9.171,-1.7762 0,0 -0.3371,-1.0993 -0.2622,-1.1365 3.4774,-1.726 7.0241,-3.3317 10.6636,-4.6829 0.1926,-0.072 0.3066,0.9309 0.3249,1.0535 0.012,0.1435 0.024,0.287 0.035,0.4306 3.6141,6.7464 -5.9269,11.8575 -9.5409,5.111 v 0 c -0.015,0.1032 -0.03,0.2065 -0.045,0.3097 -4.9408,-1.6977 8.4582,-6.4909 8.6443,-6.6129 0.064,-0.042 0.014,-0.2015 0.091,-0.2109 0.1129,-0.014 0.2,0.1084 0.3,0.1625 -2.8094,-0.2263 -5.6188,-0.4527 -8.4283,-0.679 -1.2004,1.6765 -2.2748,3.5938 -0.9519,5.526 0.2758,0.2498 1.0768,1.0255 0.8274,0.7494 -2.2067,-2.443 -3.8136,-4.1598 -3.7719,-7.6384 0.4877,-5.1808 -0.3321,-1.5816 11.3881,-0.063 0.3882,0.05 0.5306,1.2345 0.1454,1.1652 -3.7588,-0.6769 -7.4272,-1.7848 -11.1409,-2.6771 -0.2648,-0.1476 -0.1422,-1.1104 -0.087,-1.0957 3.6509,0.9725 7.1823,2.348 10.7735,3.522 0.1291,-0.1471 0.2019,-0.379 0.3875,-0.4412 0.093,-0.031 0.067,0.185 0.1008,0.2776 -0.3934,4.4218 0.1372,0.5773 -10.7767,-3.6797 -0.1079,-0.042 -0.1672,-0.4149 -0.081,-0.338 2.6613,2.3622 5.0452,5.0314 7.7655,7.3255 0.1678,0.1415 0.4005,-0.1801 0.6008,-0.2701 -7.0117,-2.2301 -9.5599,-0.9086 -9.5811,-6.976 0.6092,-5.257 2.8188,6.0498 -0.2512,-0.2311 -0.172,-0.352 -0.3126,-0.7184 -0.469,-1.0777 -0.9936,-3.381 -1.0935,-6.8266 -0.9214,-10.3339 0.1134,-2.8443 0.256,-5.6879 0.2902,-8.5346 0.086,-2.2363 0.1215,-4.4743 0.1734,-6.7116 0.033,-2.1901 -0.041,-4.3817 -0.3206,-6.5565 -0.3936,-3.5779 -0.8936,-7.1762 -0.3813,-10.775 0.4629,-2.6918 1.1241,-5.2928 2.4071,-7.7215 0.2382,-3.1638 -1.0405,-6.3618 -0.5534,-9.5502 0.2358,-4.6946 0.6714,-9.3821 1.3591,-14.0327 0.4046,-2.2427 1.2342,-4.5706 0.5024,-6.81898 -1.3082,-3.95211 -3.0803,-7.73951 -4.4242,-11.68098 -1.7876,-5.28786 -3.194,-10.68798 -3.0394,-16.32461 -0.039,-4.65899 -0.162,-9.31913 0,-13.97767 0.1354,-4.04103 0.3355,-8.08255 0.3497,-12.12559 -0.071,-3.5134 -0.3197,-7.03847 -0.017,-10.546 0.3411,-3.09494 1.214,-6.14445 1.0368,-9.27513 -0.2585,-4.35901 -0.4007,-8.73027 -0.2719,-13.09648 0.1637,-4.56295 0.4009,-9.13077 0.065,-13.69298 -0.544,-6.82879 -1.0011,-13.67525 -0.6266,-20.52862 0.3408,-6.45882 0.7384,-12.91196 1.1659,-19.36491 0.3911,-6.81609 0.6086,-13.64398 0.7736,-20.46872 0.1513,-6.29994 0.3661,-12.60747 -0.049,-18.90228 -0.3606,-8.2047 -0.642,-16.41351 0.1963,-24.60649 0.7745,-7.38251 1.9284,-14.76118 1.863,-22.19976 -0.031,-7.56536 -0.3404,-15.13602 0.1456,-22.69508 0.6631,-7.1949 1.877,-14.28772 2.7582,-21.45059 0.1952,-6.22848 -0.4536,-12.4518 -0.4256,-18.68369 0,-6.86713 0.5206,-13.68462 1.6841,-20.45861 0.5952,-6.48867 -1.2365,-12.68646 -2.5224,-19.00386 -1.5042,-8.90098 -2.3818,-17.85874 -1.5159,-26.88725 0.05,-8.67881 -0.4085,-17.35161 -0.6337,-26.02648 -0.2579,-12.00938 -0.4381,-24.59805 4.5409,-35.78225 0.3441,-4.67386 6.9539,-4.18721 6.6098,0.48665 z"
       inkscape:connector-curvature="0" />
    <path
       style="fill:#424242;fill-opacity:1;stroke:none;stroke-width:0.26458332;stroke-opacity:1"
       id="path947"
       d="m 3.6798631,1082.3854 c 9.9866819,-3.2253 20.6680249,-2.5521 30.9741449,-1.6435 7.248578,0.8789 14.289979,2.8557 21.450636,4.2187 8.329922,1.8312 16.81282,1.9472 25.29311,1.7912 9.438765,-0.4731 18.900216,-0.2063 28.316956,0.5545 8.92459,0.906 17.81386,2.08 26.76099,2.751 8.93972,0.5018 17.86702,-0.088 26.80039,-0.4001 10.44411,-0.2919 20.88462,0.2424 31.32561,0.4231 7.6692,0.2257 15.34236,0.2422 23.01419,0.268 6.35155,0.1271 12.70489,0.027 19.05714,-0.029 9.26635,-0.069 18.53133,-0.2567 27.79754,-0.3403 7.95247,-0.088 15.89976,-0.2544 23.85126,-0.3878 11.21335,-0.3961 22.3688,-1.6538 33.56438,-2.3587 12.46624,-0.6045 24.9496,-0.4325 37.42557,-0.536 11.93525,-10e-5 23.85285,-0.4044 35.74182,-1.4495 12.2777,-1.1611 24.41194,-3.4045 36.62929,-5.0371 13.05507,-1.7069 26.22992,-1.4353 39.36037,-1.6069 10.50038,-0.2677 20.99312,-0.9886 31.44433,-2.0796 10.60717,-1.3912 21.24067,-2.2479 31.93576,-2.3841 8.21415,-0.033 16.40671,0.4767 24.61522,0.2795 7.23072,-0.3673 14.4476,-0.837 21.68906,-0.899 7.52768,0.018 15.03857,0.522 22.56549,0.5149 4.20243,0.2923 2.19861,-0.2138 6.01501,1.5044 6.57003,1.6873 4.1837,10.9788 -2.38633,9.2914 v 0 c -4.6237,1.6613 -2.30955,1.215 -6.91663,1.4662 -5.29651,-0.1382 -10.68904,-0.2591 -15.92067,-0.1446 -7.0748,0.082 -14.12705,0.5025 -21.16889,1.1934 -8.1312,0.5714 -16.27079,0.4791 -24.4036,0.9622 -10.17241,0.6075 -20.30246,1.7523 -30.35279,3.4525 -13.69938,2.0067 -27.43848,3.6518 -41.32765,2.6828 -9.72024,-0.3294 -19.45844,-0.6123 -29.06967,1.3201 -12.4215,1.9576 -24.82286,4.1025 -37.34988,5.2974 -12.24327,1.1257 -24.51232,1.5549 -36.80764,1.5559 -12.3145,0.2509 -24.6271,0.5607 -36.93877,0.9256 -11.52583,0.199 -23.05169,0.3906 -34.57972,0.3864 -10.37584,-0.038 -20.74883,-0.1737 -31.12289,-0.3388 -6.98513,-0.078 -13.95734,-0.3038 -20.94019,-0.3528 -8.59551,-0.027 -17.19115,0 -25.78619,0.1 -7.6757,-0.033 -15.35,-0.2417 -23.02564,-0.2098 -1.79704,0.3837 -0.0275,0.032 -4.43893,0.294 -6.40868,0.3805 -12.79629,1.0798 -19.21475,1.3061 -11.93157,0.3091 -23.91609,0.3881 -35.7633,-1.2807 -8.73331,-1.1135 -17.44461,-2.4985 -26.24887,-2.9383 -9.236901,-0.4476 -18.469274,-0.2796 -27.715022,-0.2118 -9.190284,-0.2873 -18.345314,-1.2572 -27.105962,-4.2308 -6.897854,-2.0479 -12.192346,-3.2651 -19.49201,-2.0453 -9.979713,0.8159 -20.621624,1.6666 -30.1319785,-2.0316 -6.7902014,-1.8241 -4.2104959,-11.4269 2.5797056,-9.6028 z"
       inkscape:connector-curvature="0" />
    <path
       style="fill:#424242;fill-opacity:1;stroke:none;stroke-width:0.26458332;stroke-opacity:1"
       id="path949"
       d="m 606.21568,1080.6527 c 7.10639,-4.149 15.70143,-4.1622 23.71487,-4.5269 7.57195,0.4458 15.05929,0.8728 22.64172,0.4898 1.37826,-0.081 2.76219,-0.095 4.13483,-0.2435 0.37779,-0.041 0.71572,-0.2806 1.09336,-0.3228 6.81612,-0.762 13.79887,-0.8066 20.64856,-0.9012 10.61289,0.01 21.22228,0.3523 31.8312,0.618 5.9554,0.3049 11.9099,0.3195 17.86895,0.198 8.27847,-0.1701 16.55837,-0.2053 24.83805,-0.2679 9.78559,0.03 19.54835,-0.6979 29.32825,-0.9312 11.63301,-0.1775 23.25155,0.5492 34.86107,1.1904 11.8758,0.5903 23.76281,0.8114 35.65155,0.8852 11.04857,0.2261 22.104,0.2313 33.15528,0.3995 9.90081,0.3293 19.73987,-0.3761 29.54179,-1.7253 13.77804,-2.3483 27.56283,-4.646 41.49206,-5.8643 11.87802,-0.8797 23.79956,-0.5191 35.64183,0.6274 5.33041,0.4782 10.67825,0.7214 16.02975,0.7233 3.9716,0 2.7219,0.3372 4.3187,-0.1343 10.3071,-0.5425 20.5806,-0.054 30.7807,1.4464 8.841,1.6814 17.7296,3.0038 26.684,3.893 10.7589,0.9093 21.5721,0.9663 32.3627,1.1323 10.7009,0.095 21.3981,-0.2612 32.0951,0.2077 10.2745,0.5255 20.292,2.9604 30.3764,4.7929 8.4301,1.6105 16.9762,2.4456 25.5503,2.6205 6.875,-0.038 13.7419,-0.3875 20.6077,-0.7193 9.4219,-0.3872 18.8475,-0.6731 28.2746,-0.899 8.7101,-0.01 17.3725,-0.6584 25.9827,-1.9378 9.3682,-1.5375 18.7268,-3.0402 28.2023,-3.7033 8.8267,-0.4581 17.6542,0.1606 26.4793,0.2791 -0.179,-0.018 -0.7154,-0.029 -0.5372,-0.054 6.3419,-0.891 -0.4141,0.3979 6.1202,-0.8087 3.4892,-0.6443 6.9273,-1.5285 10.3762,-2.3547 8.1889,-2.4356 16.5497,-2.533 24.9982,-2.3506 5.3891,0.4913 6.7893,0.01 13.1099,-1.1992 6.8971,-1.3579 13.8937,-2.0284 20.9139,-2.192 4.6727,0.2146 9.2758,-0.1825 13.8922,-0.8308 3.1369,-0.2266 1.5351,-0.3655 4.7936,0.5367 6.6544,-2.4877 10.1726,6.9231 3.5181,9.4108 v 0 c -2.0688,1.6513 -0.8928,1.0614 -3.5547,1.7156 -4.8065,0.8913 -9.6324,1.7047 -14.4987,2.1953 -6.6645,0.7931 -13.2927,1.8992 -19.9844,2.4501 -7.1925,0.6256 -14.3788,1.1055 -21.6058,0.96 1.7488,0.2467 0.6564,0.042 -1.9253,0.2603 -3.243,0.2742 -6.4398,0.8754 -9.6166,1.5678 -1.2309,0.2683 -2.4542,0.5705 -3.6813,0.8558 -8.4914,1.9269 -17.0623,3.6011 -25.8186,3.4663 -6.1464,0.076 -11.4627,0.3113 -17.8553,1.1038 -9.2593,1.085 -18.5197,2.1609 -27.7674,3.3414 -8.9611,1.0654 -17.9092,2.2782 -26.9155,2.9061 -9.5926,0.6025 -19.1744,0.5324 -28.7764,0.1431 -9.6355,-0.027 -19.2206,0.8808 -28.8581,0.7897 -9.2455,-0.2126 -18.4173,-1.1737 -27.5261,-2.7981 -9.6297,-1.512 -19.3055,-2.8612 -29.0504,-3.3337 -2.0203,-0.08 -4.0365,-0.2877 -6.0585,-0.2989 -8.5513,-0.047 -17.0849,0.7421 -25.6392,0.5877 -11.3159,0.035 -22.6075,-0.5839 -33.7468,-2.7225 -8.8198,-1.5045 -17.6154,-3.1618 -26.4707,-4.4462 -7.0876,-0.8608 -14.1808,-1.506 -21.325,-1.2461 -9.5896,-0.032 -19.175,-0.1517 -28.75553,-0.6071 -8.30662,-0.075 -16.55778,0.4072 -24.76775,1.8687 -13.9309,2.2437 -27.84552,4.8617 -41.94255,5.8019 -13.21474,0.7787 -26.42534,0.8449 -39.65876,0.479 -11.10441,0.01 -22.20061,0.2184 -33.30287,0.47 -12.14551,0.03 -24.2806,-0.4026 -36.38206,-1.4856 -11.3784,-0.7854 -22.75041,-0.8829 -34.1539,-0.9222 -9.55214,-0.4082 -19.05552,-1.3435 -28.59539,-1.9248 -5.87013,-0.1798 -11.74819,-0.2754 -17.63213,-0.1307 -8.34403,0.082 -16.68915,0.1472 -25.03064,0.3831 -8.09024,0.1424 -16.16199,0.6696 -24.25843,0.6643 -11.11364,0.031 -22.22883,-0.4614 -33.31461,-1.2045 -5.2379,-0.513 -10.87485,-1.3538 -15.91442,-1.0073 -2.60559,-0.018 -4.52668,-0.076 -7.15762,0.103 -5.57294,0.3798 -11.19544,1.3524 -16.74183,0.075 -5.33429,2.1845 -8.42372,-5.3593 -3.08943,-7.5439 z"
       inkscape:connector-curvature="0" />
    <path
       style="fill:#424242;fill-opacity:1;stroke:none;stroke-width:0.26458332;stroke-opacity:1"
       id="path951"
       d="m 1410.4275,1078.0292 c 9.055,-1.4771 18.1665,0.3172 27.0221,2.1922 1.8144,0.3898 4.6832,1.1127 6.5855,1.1149 1.1584,0 2.2982,-0.3056 3.454,-0.3831 3.7553,-0.2519 7.5768,-0.1078 11.3369,-0.095 8.5619,0.098 17.1079,0.5799 25.653,1.0861 7.5337,0.2954 15.053,0.6495 22.5522,1.4373 4.4214,0.6121 8.8676,1.0275 13.334,0.9526 3.6693,-0.061 2.548,0.3946 4.1131,-0.3571 8.8882,-0.8249 17.8011,-0.8914 26.7119,-0.5372 6.9087,0.1025 13.7279,1.2315 20.6136,1.5961 5.8479,0.123 11.6191,-0.8702 17.4144,-1.0372 8.1039,-0.2379 16.1792,0.5394 24.2735,0.7574 5.2987,0.3138 10.6068,0.1528 15.9011,-0.1477 4.7816,-0.3446 9.8525,-0.043 14.9716,0.149 5.2958,0.4042 10.5058,-0.5272 15.697,-1.4274 6.7607,-1.4221 13.4733,-3.0417 20.2459,-4.4086 7.8372,-1.4219 15.8382,-1.1157 23.6929,-0.026 4.9702,0.4436 6.6592,-0.2618 12.5511,-1.6194 6.9768,-2.0073 14.1264,-3.0471 21.3666,-3.3233 6.3648,-0.4716 12.5224,1.2214 18.8401,1.4991 1.8284,-0.043 6.6518,-0.6352 11.0346,-0.9702 6.4827,-1.0827 12.5625,0.8609 18.8502,1.8903 6.1067,0.9219 12.2967,0.6702 18.4333,1.2678 4.0934,0.2889 7.3561,1.9016 10.0819,4.8999 0.4927,0.2669 0.2104,-0.5213 1.1145,-0.8004 1.3067,-0.4034 1.8465,-0.1074 -0.1695,-0.5206 4.722,-0.737 9.5094,-0.8779 14.2798,-0.9318 4.2984,0.015 8.5974,-0.047 12.8721,-0.5196 6.1524,-1.3722 12.2572,-2.8743 18.468,-3.9717 4.7608,-0.5403 11.8447,-1.3148 16.3601,0.2812 1.6205,1.0198 4.8074,0.8547 0.4835,0.7195 1.166,0.026 2.3232,-0.1707 3.4859,-0.2637 2.942,0.134 5.8364,-0.2431 8.7546,-0.5093 0.4117,-0.028 2.6891,-0.2191 3.1173,-0.1083 0.4454,0.1151 -1.2555,-0.399 -1.3793,0.044 -0.1202,0.4301 0.8907,0.067 1.3347,0.1156 1.1611,0.1259 0.8218,0.059 1.7576,0.3963 2.7334,2.4003 0.9106,0.6587 -0.5381,10.05 -0.034,0.2198 -0.445,-0.042 -0.6598,-0.1004 -0.1321,-0.036 -0.4095,-0.047 -0.3702,-0.1778 0.9944,-3.3117 2.0337,-6.6215 3.3693,-9.8109 0.092,-0.2197 0.4744,0.044 0.7116,0.066 0.5967,0.1557 0.3515,0.043 0.7586,0.2841 6.655,1.7197 4.223,11.1313 -2.432,9.4116 v 0 c -0.5276,0.2311 -0.2247,0.1251 -0.921,0.2798 -4.0273,0.3254 -1.2468,0.3444 0.965,-9.7573 0.036,-0.1646 0.3091,-0.1395 0.4733,-0.1773 0.2366,-0.054 0.6845,-0.3376 0.7217,-0.098 1.4193,9.1553 2.8544,7.3039 0.5584,10.0626 -3.0373,1.3436 -7.0918,0.4188 -10.3497,0.4511 -1.2169,-0.1333 -2.4214,-0.3217 -3.6353,-0.4723 -1.3618,-0.1689 -1.1288,0.023 1.1252,-0.1032 0.1987,-0.011 -0.3969,-0.028 -0.5954,-0.042 -1.2501,-0.052 -2.4891,0.01 -3.728,0.1893 -2.5756,-0.052 -4.452,-0.4024 -6.8551,-0.4963 -1.6837,0.5121 0.3869,-0.208 1.2896,0.3956 0.3565,0.2384 -0.8453,0.1475 -1.2636,0.242 -2.2898,0.5171 -4.5076,1.2989 -6.7995,1.81 -6.7555,1.6548 -13.5592,3.3935 -20.5697,3.3484 -4.2406,-0.013 -8.5004,-0.229 -12.6985,0.5251 -4.9985,0.5873 -10.0392,0.7816 -15.0623,0.3608 -4.4756,-0.2195 -8.4243,-0.2326 -11.7598,-3.5459 0.2367,1.8681 -4.8969,1.2864 -5.9079,1.6277 -6.991,0.3583 -13.9531,-0.2292 -20.5759,-2.6681 -4.5234,-1.5497 -7.3299,-1.8331 -8.9671,-1.3655 -6.2643,0.617 -12.5336,1.3954 -18.8393,0.6954 -3.9859,-0.2561 -7.9884,-0.5931 -11.9815,-0.2858 -0.2387,0.018 0.4784,0.018 0.7176,0.027 -6.643,0.307 -13.0965,1.7438 -19.6221,2.9401 -7.3958,1.223 -14.8189,1.9777 -22.3223,1.2389 -5.216,-0.11 -7.9318,-0.2019 -13.8825,0.655 -6.9901,1.2403 -13.8817,3.05 -20.9602,3.7797 -5.8022,0.7825 -11.63,1.1279 -17.4807,1.3098 -7.1397,0.2883 -14.2879,0.5583 -21.432,0.1794 -5.2543,-0.3208 -10.5239,-0.5296 -15.7863,-0.2672 1.4107,0.4486 0.6635,0.1436 -2.3986,0.3763 -3.6073,0.274 -7.2014,0.5545 -10.8199,0.6389 -1.3852,0.032 -2.771,0.033 -4.1565,0.05 -8.2974,-0.08 -16.5682,-0.3225 -24.7908,-1.528 -3.2198,-0.2463 -6.7568,-0.6107 -9.9504,0.08 -0.1136,0.025 0.2824,0.2859 0.1679,0.3057 -1.1705,0.203 -2.3686,0.1875 -3.5528,0.2813 -8.9478,0.5158 -17.9154,0.8111 -26.8716,0.2677 -8.3862,-0.2598 -16.7243,-0.9149 -25.0867,-1.5676 -7.4436,-0.4278 -14.8919,-0.4482 -22.3458,-0.5144 -8.5939,-0.1888 -17.1867,-0.5212 -25.7512,-1.2853 -3.7489,-0.3866 -7.6658,-0.6413 -11.3331,-1.5753 -1.0458,-0.2663 -2.0118,-0.8101 -3.0666,-1.0382 -1.7883,-0.3867 -5.1001,-0.3854 -6.871,-0.4327 -8.9424,-0.2395 -18.2702,-0.6244 -26.3729,-4.8155 -5.8304,-2.3304 -2.5347,-10.5758 3.2957,-8.2454 z"
       inkscape:connector-curvature="0" />
    <path
       style="fill:#424242;fill-opacity:1;stroke:none;stroke-width:0.26458332;stroke-opacity:1"
       id="path967"
       d="m 55.413938,46.528275 c 8.635289,-3.108079 18.096828,-2.494261 27.115191,-1.970003 3.958904,-0.0172 8.060978,0.316561 12.017957,-0.231881 4.729778,-0.65555 9.463164,-2.094476 14.139624,-3.051791 13.73469,-2.999819 27.68745,-4.652865 41.68521,-5.766501 15.05913,-0.908365 30.17888,-0.52718 45.22744,0.401857 11.44709,0.574884 22.87817,1.379567 34.2988,2.340337 9.36902,0.383228 18.62688,1.465983 27.57775,4.297479 5.75116,2.158447 11.31234,4.697841 17.258,6.291477 5.88928,1.219573 11.89281,1.708827 17.87237,2.253366 7.95131,0.987978 15.9672,0.683467 23.95291,0.5012 8.45624,-0.111262 16.89933,0.454856 25.34954,0.688314 7.56365,0.05821 15.11946,-0.389514 22.68197,-0.504449 8.53911,0.01603 17.07655,0.04725 25.61523,-0.05572 7.64212,-0.0016 15.25093,-0.755925 22.85662,-1.408049 7.97274,-0.727811 15.98083,-0.913596 23.98249,-0.871138 8.56679,0.195765 17.12939,-0.0029 25.69245,-0.238064 7.74377,-0.270526 15.48558,0.0613 23.22568,0.280868 8.50452,0.178123 17.01972,0.111432 25.5202,-0.205743 8.14286,-0.128616 16.29653,-0.545761 24.44019,-0.241858 7.82815,0.256553 15.635,-0.217834 23.4215,-0.967496 7.61884,-0.865952 15.12745,-2.452227 22.71318,-3.557299 8.41235,-1.120513 16.89074,-1.462591 25.3645,-1.706449 9.19279,-0.178665 18.37978,-0.449488 27.56384,-0.88619 10.32433,-0.695119 20.66046,-0.906471 31.00472,-0.875234 8.99464,0.04901 17.98127,0.483738 26.97178,0.728028 7.61286,0.189677 15.22336,0.144507 22.82481,0.656706 6.50907,0.581914 12.98493,1.449009 19.48656,2.10629 6.57289,0.692721 13.14104,0.09744 19.70495,-0.220097 9.71786,-0.554389 19.44537,-0.566322 29.1736,-0.431196 8.14983,0.27057 16.29508,0.404069 24.44739,0.222236 9.88198,-0.382534 19.77033,-0.287689 29.65291,-0.01161 9.07915,0.371943 18.15542,0.769242 27.24314,0.808707 8.78433,-0.144955 17.5691,-0.172858 26.34986,0.131707 10.09621,0.60833 20.18527,1.192268 30.30048,1.306452 12.44705,-0.163029 24.89414,-0.08892 37.33995,0.133421 12.47122,0.4646 24.94778,0.633913 37.42667,0.583062 9.4706,0.04697 18.9132,0.681675 28.3761,1.007634 9.4559,0.477629 18.9095,0.203356 28.3656,-0.02125 8.2059,-0.112667 16.4123,-0.173297 24.6191,-0.223848 10.5208,-0.116104 21.0426,-0.0163 31.5633,-0.0966 8.7195,-0.0932 17.4309,-0.439214 26.1509,-0.315011 8.4056,0.217234 16.8018,0.636273 25.2111,0.478298 8.2454,-0.500099 16.3742,-2.035 24.5647,-3.040197 7.4907,-0.840327 15.033,-0.912365 22.5536,-1.281327 6.8652,0.136628 14.0195,-1.527604 20.8398,-0.145365 1.7926,0.3633 3.4969,1.073859 5.2454,1.610789 5.0868,-1.584611 7.3278,5.609312 2.2409,7.19392 v 0 c -1.3909,0.726472 -2.6914,1.661404 -4.1726,2.179418 -6.6519,2.32633 -14.1232,0.550593 -20.9636,0.840354 -7.0721,-0.09617 -14.0986,0.557551 -21.0551,1.863442 -8.567,1.28955 -17.1659,2.487678 -25.8369,2.766332 -8.3998,0.364255 -16.8046,0.599183 -25.2085,0.844465 -10.9473,0.159362 -21.8847,-0.121703 -32.8288,-0.326339 -8.3598,-0.07338 -16.7204,-0.02244 -25.0805,-0.0888 -10.328,-0.02934 -20.6561,-0.06201 -30.9836,-0.176118 -7.3788,-0.229272 -14.8048,-0.791405 -22.1725,-0.288626 -11.7213,0.48409 -23.4338,1.315387 -35.17715,0.989232 -12.40923,-0.478657 -24.81959,-1.005448 -37.23974,-1.079624 -12.50243,-0.09902 -25.0263,-0.115361 -37.4778,-1.400344 -9.89433,-1.011846 -19.77821,-2.175087 -29.7075,-2.799464 -8.62528,-0.443489 -17.2425,-0.506899 -25.87948,-0.381548 -9.23681,0.03765 -18.47334,0.175313 -27.71047,0.112999 -9.72285,-0.175961 -19.426,-0.676884 -29.13695,-1.17153 -8.16107,-0.218972 -16.32156,-0.221808 -24.48438,-0.05882 -7.91276,0.399089 -15.85674,0.01929 -23.7748,0.271888 -8.53493,-0.0172 -17.10444,-0.01693 -25.56676,-1.287084 -6.32352,-0.830884 -12.66664,-1.574331 -19.05707,-1.54495 -7.59065,-0.09687 -15.17078,0.186847 -22.76104,0.252302 -9.06569,0.171201 -18.13507,0.268084 -27.20057,0.0084 -8.30702,-0.218141 -16.61827,0.03242 -24.89735,0.758391 -9.36643,0.65428 -18.73842,0.666393 -28.12348,0.477356 -8.18679,-0.03925 -16.38023,0.05582 -24.51492,1.10518 -7.71244,0.825527 -15.37883,1.963021 -23.06,3.029881 -7.96954,0.969561 -15.93093,2.222993 -23.97635,2.319907 -9.88939,0.09363 -19.77745,0.11562 -29.66202,-0.275188 -6.82522,-0.276852 -13.65514,-0.491093 -20.48526,-0.159319 -9.46306,0.363982 -18.93562,0.750954 -28.40471,0.317558 -6.82808,-0.333451 -13.66009,-0.903015 -20.50031,-0.736835 -7.83445,0.33769 -15.64571,1.036754 -23.48217,1.325163 -7.71163,0.287573 -15.42629,0.523425 -23.12162,1.128429 -8.54112,0.59264 -17.09068,1.270709 -25.65995,1.150305 -9.27812,-0.109987 -18.55007,-0.594032 -27.8316,-0.449095 -8.55634,0.170034 -17.11161,0.560453 -25.67078,0.415094 -8.143,-0.297246 -16.2076,-1.232025 -24.24099,-2.598754 -6.30476,-0.882922 -12.696,-1.382858 -18.86913,-2.997467 -5.77355,-1.734994 -11.35371,-4.14174 -17.32105,-5.184404 -9.08676,-1.140489 -18.24487,-0.388316 -27.36501,-1.087229 -11.28099,-0.752493 -22.55309,-1.978731 -33.87861,-1.645015 -12.38702,0.270904 -24.76577,0.913657 -37.14396,1.463072 -14.08597,0.656391 -28.13775,1.810671 -42.22486,2.439336 -9.41043,0.24328 -18.775588,-0.534331 -28.186815,-0.191822 -9.25314,0.60322 -18.77506,1.25848 -27.822241,-1.194073 -3.276592,0.926994 -4.58756,-3.706807 -1.310966,-4.633801 z"
       inkscape:connector-curvature="0" />
    <path
       style="fill:#424242;fill-opacity:1;stroke:none;stroke-width:0.26458332;stroke-opacity:1"
       id="path973"
       d="m 1229.134,44.203903 c 8.7568,-2.806084 18.0551,-2.276629 27.0879,-1.528221 5.8653,0.702665 11.7504,0.934456 17.651,0.940258 8.1864,-0.337418 16.3726,-1.250783 24.4432,-2.668008 9.6326,-0.224319 19.2599,0.256598 28.8933,0.227949 10.1725,0.297358 20.2382,-1.006033 30.3332,-2.024692 12.7564,-1.159116 25.5205,-2.119815 38.3267,-2.449708 12.5706,0.06082 25.123,-0.488395 37.6516,-1.473629 12.5629,-1.206984 25.1498,-1.773396 37.7625,-1.335 8.0604,0.353708 16.1093,1.152287 24.1808,1.01908 7.9619,-0.182978 15.9182,-0.53489 23.8783,-0.773753 8.2457,-0.07793 16.502,0.01529 24.7368,0.467032 5.7245,0.309343 11.3695,1.278297 17.0211,2.169935 6.2805,1.064379 12.6443,1.553549 18.9975,1.937375 7.3615,0.506679 14.6668,1.57526 22.0047,2.32261 7.7785,0.745149 15.5987,0.837229 23.4065,0.902491 7.4704,0.05436 14.9241,0.586531 22.379,1.017987 5.7309,0.393203 11.4734,0.28734 17.2108,0.216247 8.0727,-0.275429 16.148,-0.116044 24.199,0.508185 6.4473,0.652266 12.8897,1.11153 19.3684,1.24129 7.3072,-0.173305 14.5599,-0.784365 21.8697,-0.811853 8.084,-0.299834 16.0773,0.832469 24.0803,1.728269 3.766,0.470699 8.149,0.390784 11.548,0.433123 3.3936,-0.04821 6.7563,0.493972 10.141,0.581991 3.2408,0.05219 6.4797,-0.07228 9.7201,-0.02463 -0.2853,0.0061 -1.1407,-0.0013 -0.856,0.01834 1.8113,0.125267 3.5828,-0.144287 5.3068,-0.675282 2.979,-1.024028 6.0352,-1.741141 9.1515,-2.179138 1.795,0.0526 4.0573,-0.759817 5.7789,0.03031 -1.3457,0.781153 0.9159,-0.427241 1.2062,-0.51516 0.5125,-0.15518 1.262,-0.270025 1.7903,-0.362212 1.0939,-0.195093 2.2439,-0.07033 3.3225,-0.341823 1.8964,-0.997127 3.9413,-1.513094 6.0406,-1.856012 4.8772,-0.186881 4.9388,-0.15553 8.0594,-0.565079 3.3711,-0.572743 6.735,-1.125458 10.1365,-1.48722 2.3666,-0.229759 4.7405,0.0113 7.1096,-0.07594 2.5203,-0.402878 5.0549,-0.697251 7.5935,-0.955392 2.6132,-0.296171 5.2355,-0.493127 7.8658,-0.504896 4.213,1.066692 -1.0953,13.005498 -0.3771,4.329914 -1.5593,-0.501772 -0.8497,-2.707042 0.7096,-2.205267 v 0 c 3.1183,-4.546 3.1047,-3.617942 4.2392,4.394964 0.032,0.22565 -1.062,0.901055 -1.1239,0.943115 -2.7617,1.136452 -5.6683,1.578412 -8.6522,1.584481 -2.584,0.0544 -5.1707,-0.02371 -7.7459,0.255032 -2.1221,0.201626 -4.2604,0.240308 -6.3609,0.634598 -3.4854,0.643943 -6.9403,1.506704 -10.496,1.705517 -1.5958,0.08436 -7.506,0.475547 -8.2394,0.02225 -0.3034,-0.187516 0.855,0.230627 1.0686,-0.05498 0.2005,-0.268132 -0.6694,-0.02088 -1.004,-0.03131 -1.674,0.02127 -3.3582,0.131532 -5.0028,0.456496 -1.4123,0.52901 -2.8315,1.044122 -4.3329,1.260777 -1.6565,0.130246 -2.4631,-0.399849 -3.8701,0.402026 -1.3427,0.707758 -3.0644,0.424638 -4.4787,0.936778 -2.9264,0.530985 -5.8771,0.943462 -8.769,1.648058 -3.3539,0.647044 -6.6859,1.335371 -10.1342,1.13298 -2.1377,0.01675 -4.3063,0.03594 -6.4409,-0.09675 -0.2733,-0.01699 0.5478,0.0046 0.8216,0.0069 -3.266,0.113641 -6.4912,0.808444 -9.7696,0.798573 -5.5699,0.07349 -11.1326,-0.08566 -16.7005,-0.05056 -6.051,0.260533 -12.0946,0.669661 -18.1488,0.847572 -9.3996,0.07234 -18.8078,0.0016 -28.1719,-0.91191 -6.4897,-0.462066 -12.9782,-0.910813 -19.4828,-1.119 -6.0524,-0.180044 -12.1046,-0.331306 -18.1581,-0.435827 -7.7035,0.03292 -15.404,-0.04361 -23.1032,-0.321641 -7.4857,-0.157141 -14.9671,0.02905 -22.4532,-0.07701 -8.0383,-0.255238 -16.075,-0.645549 -24.0465,-1.780379 -7.2815,-0.868087 -14.5774,-1.573715 -21.8693,-2.341798 -6.4152,-0.861374 -12.8003,-1.874131 -19.1487,-3.140326 -5.2952,-0.879348 -10.6633,-1.214781 -16.0304,-0.989481 -6.174,0.193636 -12.3591,0.574244 -18.5463,0.779108 -8.0958,0.273942 -16.1963,0.459423 -24.2962,0.22511 -7.8339,-0.03107 -15.6612,-0.04473 -23.4072,1.086525 -12.2973,1.090697 -24.5907,2.274306 -36.9324,2.749719 -12.6715,0.452898 -25.3336,1.094354 -37.9981,1.705859 -12.8334,0.346353 -25.6733,0.342942 -38.505,0.771851 -10.5138,0.02053 -21.0292,-0.146865 -31.5337,-0.424726 -9.567,0.04466 -19.1095,0.799709 -28.6776,0.702049 -2.7595,-0.132141 -5.5286,-0.130646 -8.2783,-0.396423 -1.6749,-0.161877 -3.3074,-0.624552 -4.9699,-0.884063 -5.289,-0.825592 -10.5509,-1.754838 -15.8372,-2.612797 -5.9365,-0.635728 -11.8264,-0.273736 -17.7526,0.421801 -8.7425,0.694796 -17.8898,1.458685 -26.3031,-1.528223 -2.5134,-0.645316 -1.6007,-4.199728 0.9126,-3.554409 z"
       inkscape:connector-curvature="0" />
    <path
       style="fill:#424242;fill-opacity:1;stroke:none;stroke-width:0.26458332;stroke-opacity:1"
       id="path975"
       d="m 1856.7878,45.696055 c 1.3757,8.675354 -1.0889,17.265948 -2.8231,25.708255 -1.3459,5.864206 -0.8182,11.794188 -0.2761,17.709332 0.6696,6.104562 0.2932,12.232898 0.064,18.347168 -0.2453,5.50199 -0.2742,11.01427 -0.013,16.51547 0.4402,6.0274 0.9775,12.04947 1.4802,18.07318 0.4209,5.0534 0.742,10.10706 0.6392,15.17845 -0.2085,5.17967 0.2111,10.35104 0.5354,15.51643 0.4144,6.20403 0.4368,12.42357 0.371,18.63818 -0.026,6.18266 0.2811,12.36353 0.5557,18.53912 0.3051,6.80644 0.2824,13.60144 -0.059,20.40401 -0.3762,5.44603 -0.4733,10.9048 -0.7035,16.35802 -0.3158,4.70047 -0.6661,9.39565 -0.8438,14.10399 -0.1471,3.88618 -0.085,7.7536 0.2258,11.62853 1.2275,6.88525 1.845,13.82188 2.0292,20.80815 -0.082,8.94176 -1.4154,17.79712 -1.8384,26.72247 -0.183,10.33809 -0.075,20.67703 -0.3031,31.01443 -0.4587,11.0821 -1.2954,22.13936 -1.6901,33.225 -0.2182,9.35715 -0.323,18.71274 0.2166,28.05941 0.8845,9.43898 1.4202,18.8877 1.6833,28.36206 0.1682,10.12801 0.9029,20.23504 1.6844,30.33077 1.0705,11.87673 1.0014,23.80107 1.0248,35.71172 -0.1776,11.74271 -0.076,23.48248 0.2423,35.22125 0.5715,12.55445 1.7182,25.07424 2.9166,37.58163 1.5825,13.90324 3.5382,27.75026 4.803,41.68973 1.0945,14.43749 0.5632,28.91409 -0.7367,43.31361 -1.3029,10.30854 -1.5099,20.7019 -2.3619,31.04545 -1.0257,6.7366 -0.2377,3.39076 -2.4044,10.02794 0.056,5.75223 -8.0789,5.83137 -8.1349,0.0792 v 0 c -2.3229,-6.60153 -1.4559,-3.26236 -2.6368,-10.00815 -1.0405,-10.50391 -1.1365,-21.06197 -1.582,-31.60284 -0.3759,-13.86517 -0.094,-27.7531 -1.0676,-41.5985 -0.9307,-13.87322 -2.1687,-27.72323 -3.7923,-41.53363 -1.183,-12.83388 -1.8383,-25.69142 -1.8858,-38.58311 -0.3675,-11.91006 -0.9166,-23.82326 -0.4977,-35.74139 0.2012,-11.63077 -0.055,-23.259 -0.495,-34.88251 -0.272,-10.19138 -0.047,-20.38022 -0.361,-30.57017 -0.4451,-9.40467 -1.0321,-18.8014 -1.5621,-28.20149 -0.4175,-9.62869 -0.8828,-19.25857 -1.0825,-28.89409 -0.067,-11.20166 0.4508,-22.38049 1.2378,-33.55379 0.5629,-10.48195 1.0294,-20.97186 1.9115,-31.43345 0.8793,-8.61645 1.8404,-17.23123 2.2112,-25.88906 0.3183,-6.8693 0.6451,-13.73489 1.2625,-20.58501 0.2294,-3.95848 -0.031,-7.87976 -0.1977,-11.83652 -0.076,-4.79257 0.1532,-9.57346 0.4959,-14.35368 0.1541,-5.44328 0.1601,-10.88901 0.2565,-16.33361 0.082,-6.70295 -0.022,-13.40696 0.2835,-20.10639 0.2986,-6.15388 0.6559,-12.3144 0.5943,-18.47697 -0.1257,-6.23711 -0.2462,-12.4834 0.1444,-18.71416 0.3613,-5.21582 0.9763,-10.40994 1.2572,-15.63011 0.1063,-4.79359 -0.01,-9.57377 -0.9055,-14.30346 -0.7374,-6.18629 -1.4169,-12.37899 -1.3144,-18.62282 -0.024,-5.61396 0.1764,-11.22393 0.2027,-16.83766 0.024,-5.90678 -0.2089,-11.811353 -0.3627,-17.715507 -0.2861,-6.400662 -1.048,-12.783965 -0.9076,-19.197981 0.4116,-8.717433 1.0621,-17.722117 4.9877,-25.666332 0.6785,-5.318672 8.2002,-4.359198 7.5217,0.959475 z"
       inkscape:connector-curvature="0" />
    <path
       style="fill:#424242;fill-opacity:1;stroke:none;stroke-width:0.26458332;stroke-opacity:1"
       id="path983"
       d="m 1861.1817,700.28868 c 1.3091,9.25235 -0.6045,18.57835 -1.833,27.74437 -1.2073,8.59308 -0.1534,17.25657 0.2748,25.86535 0.487,11.81512 -0.4905,23.603 -1.9738,35.31219 -1.2621,8.84483 -3.0569,17.59513 -3.983,26.48593 -0.5305,6.49583 -0.1197,13.0162 0.065,19.51818 0.1691,6.28382 -0.224,12.56307 -0.2271,18.84521 -0.072,5.71196 1.6395,11.15433 3.1695,16.5862 1.9628,6.79743 3.2033,13.77354 3.7512,20.82181 0.1063,5.46859 -0.1917,10.93483 -0.5403,16.39017 -0.2048,4.49228 -0.293,8.98792 -0.3543,13.48401 -0.2161,3.86874 -0.6696,7.71424 -1.0503,11.56938 -0.2491,3.96619 -0.4533,7.93126 -0.8075,11.89048 -0.3263,3.76463 -0.3785,7.54457 -0.5939,11.31628 -0.2153,4.15486 -0.6655,8.29086 -1.024,12.43452 -0.489,3.60614 0.012,6.68327 1.5648,9.9127 1.3773,2.49957 2.4682,5.08806 3.0049,7.89225 0.3013,2.16818 -0.1396,4.32094 -0.3203,6.47584 -0.091,1.54426 -0.3082,3.06443 -0.5108,4.59528 -0.081,1.08059 -0.023,2.16445 -0.022,3.24667 0.024,1.0437 -0.034,2.0877 -0.043,3.1319 0.1007,1.5771 0.2623,3.1419 0.2704,4.7239 -0.26,2.2586 -0.7752,4.4663 -1.6433,6.5664 -0.6319,1.0167 -0.8315,1.3651 -0.5136,2.4449 0.4685,3.0232 -0.9308,5.8819 -1.6592,8.7623 -0.1898,1.2558 -0.7607,2.404 -1.0795,3.6205 -0.1465,-1.1686 0.4198,1.4615 0.423,1.8583 0.079,1.2708 -0.059,2.531 -0.2468,3.7855 -0.5162,2.7435 -0.305,1.4458 -4.6334,0.5041 0.9227,-1.6333 1.2302,-0.3342 3.7939,0.7458 -0.2541,1.5046 -2.382,1.1452 -2.1278,-0.3594 v 0 c 3.0276,-0.3188 3.5915,-1.4985 3.896,0.4682 -4.6422,0.6653 -4.8869,1.751 -4.7881,-1.7991 0.1448,-1.1717 0.5162,-2.2848 0.5728,-3.4628 0.188,-2.1222 0.98,1.0385 0.1917,-1.0165 -0.6629,-1.5767 -1.0402,-3.2148 -0.8961,-4.9425 0.1175,-2.6519 -0.1747,-5.3243 0.3006,-7.9355 0.1784,-1.3234 0.3424,-2.6577 0.4406,-3.9864 0.1888,-1.8868 0.6542,-3.7393 0.6716,-5.6425 0.2375,-1.4307 0.2894,-2.8891 0.3705,-4.336 -0.01,-1.077 -0.037,-2.1576 0.042,-3.2322 0.036,-0.93582 0.073,-1.86779 -0.1729,-2.78404 -0.448,-1.8914 -0.7349,-3.77807 -0.4641,-5.72985 0.2003,-1.37448 0.6244,-2.78566 0.5663,-4.16657 -0.8291,-2.20758 -2.9549,-3.75256 -3.905,-5.91297 -2.3176,-4.44542 -3.1505,-9.06401 -2.5161,-14.06686 0.3107,-4.12604 0.9703,-8.20875 1.3867,-12.32382 0.3156,-3.79166 0.1885,-7.59351 0.396,-11.39092 0.2656,-4.05095 0.5733,-8.1013 1.0889,-12.12924 0.4415,-3.52531 0.8654,-7.08689 0.6035,-10.6436 -0.1592,-4.63304 -0.2397,-9.27127 -0.017,-13.90425 0.087,-5.01351 0.2335,-10.04539 -0.5979,-15.01564 -1.0112,-6.58079 -2.4004,-13.09444 -3.7737,-19.60745 -1.3018,-6.17712 -2.8174,-12.35839 -3.0093,-18.69884 -0.1908,-6.26705 -0.2972,-12.53691 -0.4383,-18.80518 -0.06,-6.68848 -0.1075,-13.37747 -0.2733,-20.06439 -0.2456,-9.17178 -0.4172,-18.35835 0.5627,-27.50116 1.0298,-11.31371 2.2962,-22.60611 3.1692,-33.93347 0.4731,-8.93003 0.2099,-17.8489 0.153,-26.78705 0.3159,-9.67262 0.8818,-19.7997 5.7457,-28.41281 1.126,-6.76209 10.689,-5.1697 9.563,1.59239 z"
       inkscape:connector-curvature="0" />
    <path
       style="fill:#424242;fill-opacity:1;stroke:none;stroke-width:0.26458332;stroke-opacity:1"
       id="path991"
       d="m 41.540403,1050.7495 c 9.89648,-3.3386 20.572341,-4.007 30.948354,-4.5162 9.426882,-0.5813 18.835241,-1.4235 28.257963,-2.0629 10.51238,-0.7059 21.06814,-0.6025 31.58563,-0.078 10.03787,0.761 20.04648,1.8521 30.06588,2.8187 9.82646,1.0591 19.56816,2.7721 29.33105,4.2951 8.01927,1.3528 16.12652,1.8935 24.24081,2.232 9.79189,0.4792 19.58842,0.6932 29.39073,0.7947 10.50608,-0.036 21.01035,0.029 31.51622,-0.094 11.10331,-0.064 22.19036,-0.6318 33.28371,-1.0407 16.06309,-0.9836 32.14026,-1.7023 48.21364,-2.4879 16.812,-0.9623 33.61518,-2.0671 50.42225,-3.11 15.67442,-1.0831 31.3662,-1.872 47.05562,-2.6971 16.25473,-1.1451 32.50745,-2.2999 48.77824,-3.1952 15.71074,-0.6572 31.48883,-0.5392 47.16812,0.7009 8.55591,0.8051 17.13568,1.1681 25.71943,1.4918 8.28733,0.1222 16.57641,0.1445 24.86255,-0.049 10.11581,-0.3991 20.24822,-0.4947 30.36046,-0.9766 10.90051,-0.2341 21.80301,-0.1409 32.70414,-0.027 10.7756,0.2755 21.52584,-0.5734 32.29634,-0.5436 1.97985,0.275 3.95967,0.55 5.93952,0.825 7.64612,-2.3604 10.98428,8.4528 3.33817,10.8133 v 0 c -1.793,0.4912 -3.58598,0.9825 -5.37898,1.4738 -10.91827,1.0036 -21.85733,0.4295 -32.8055,0.3995 -10.84069,0.2282 -21.67385,0.7484 -32.51787,0.8044 -10.3096,-0.065 -20.6062,-0.3505 -30.88646,-1.0065 -8.27312,-0.146 -16.5428,0.05 -24.8127,0.2961 -10.89681,0.086 -21.79246,0.2991 -32.68514,0.6122 -12.6827,0.5106 -25.35889,1.3248 -38.03179,2.0814 -16.3726,1.0923 -32.75052,2.1347 -49.16266,2.401 -15.52784,0.7853 -31.00271,2.1255 -46.48885,3.4987 -16.86536,1.3966 -33.74914,2.5542 -50.65146,3.4055 -16.46113,0.903 -32.95795,1.7711 -49.4407,0.8061 -13.58644,-0.4675 -27.17538,-0.7576 -40.7666,-1.0545 -10.52987,-0.1957 -21.05846,-0.2062 -31.58892,-0.2993 -9.91712,-0.258 -19.81908,-0.9128 -29.67257,-2.0877 -8.18574,-0.9304 -16.37629,-1.8158 -24.6057,-2.2668 -9.97753,-0.7022 -19.92271,-1.8419 -29.82648,-3.2364 -9.62205,-1.4184 -19.26325,-2.8973 -28.98896,-3.3612 -8.08294,-0.3095 -16.16982,-0.7118 -24.25695,-0.5116 -9.334633,0.6379 -18.583582,1.9548 -27.880942,2.9757 -11.020243,1.1232 -22.428954,1.6313 -33.220163,-1.2967 -4.756324,1.2795 -6.565757,-5.447 -1.809432,-6.7264 z"
       inkscape:connector-curvature="0" />
    <path
       style="fill:#424242;fill-opacity:1;stroke:none;stroke-width:0.26458332;stroke-opacity:1"
       id="path995"
       d="m 697.33831,1047.2304 c 9.55829,-5.5961 20.81781,-7.4606 31.57064,-9.4838 11.84587,-2.2357 23.89584,-2.9557 35.89832,-3.8088 17.9487,-0.9612 35.93299,-1.2785 53.90629,-1.4656 18.1606,-0.2828 36.30689,-0.1376 54.41026,1.3985 13.38742,1.4912 26.68051,3.6406 40.07933,5.0357 13.04821,0.8898 26.13604,0.8024 39.20386,1.2266 11.7506,0.42 23.45124,1.6142 35.19615,2.1327 10.09787,0.1985 20.19224,-0.2189 30.28824,-0.3913 11.4207,-0.105 22.8399,-0.2467 34.261,-0.2847 11.3097,0.1682 22.6019,-0.4576 33.8805,-1.2138 15.5416,-1.0429 31.0808,-2.0983 46.6371,-2.9007 14.6226,-0.9723 29.2702,-0.5891 43.9046,-0.258 12.205,0.5229 24.377,-0.3878 36.5517,-1.0838 12.4177,-0.6152 24.8333,-0.3657 37.253,-0.05 8.3957,0.049 16.6548,1.8112 25.0127,2.1727 6.8482,0.1775 13.7012,-0.232 20.5521,-0.2901 6.395,0 12.7593,0.7437 19.1447,0.9164 5.5901,-0.093 11.1626,-0.5079 16.7466,-0.761 8.4578,-0.2967 16.9215,-0.4366 25.3838,-0.3831 7.2456,0.3475 14.4539,0.069 21.677,-0.5002 10.0613,-0.93 20.1306,-1.7546 30.2377,-1.8368 8.5574,0.1247 17.1447,0.072 25.6927,0.5496 7.4255,0.1237 14.8162,-0.5438 22.2056,-1.154 6.9315,-0.6493 13.9469,-0.719 20.8851,-0.1218 4.5186,0.4551 9.0427,0.3945 13.5681,0.1229 5.2437,-0.4413 10.546,-0.6296 15.8151,-0.8769 7.513,-0.1949 15.0277,-0.042 22.5409,0.033 6.3488,-0.01 12.6625,-0.5168 19.0167,-0.5072 9.3036,0.069 18.6043,-0.2328 27.9037,-0.4758 9.0842,-0.146 18.1854,-0.626 27.2714,-0.3434 9.2767,0.2448 18.535,0.8366 27.8125,1.0517 7.1514,0.407 14.3136,0.1216 21.4667,-0.058 6.5359,-0.2467 13.0809,-0.011 19.6192,0.06 5.9029,0.063 11.7938,-0.1864 17.6785,-0.6275 6.5048,-0.3633 13.0136,-0.6459 19.5289,-0.6617 5.6026,-0.01 11.1869,0.4632 16.7802,0.6875 4.6172,0 9.1233,-0.7731 13.7557,-1.2682 7.4235,-0.9486 14.8988,-1.3296 22.3764,-1.456 5.9228,0.07 11.8333,0.057 17.7421,-0.3773 6.1868,-0.7366 12.3945,-0.6036 18.6036,-0.3947 3.2607,0.3444 6.4996,0.7769 9.7801,0.8264 1.9771,-0.1354 5.0641,-0.3307 8.0761,-0.3323 2.3774,0.4953 5.5469,-0.5354 7.576,1.0456 2.3861,-0.1108 -1.8937,0.1813 0.6244,-0.4786 3.0847,-0.6208 6.267,-0.4583 9.3919,-0.3825 1.6404,0.1642 3.2821,0.3498 4.9305,0.409 -3.0071,-0.072 2.4853,-0.099 2.8736,-0.087 1.6183,0.022 3.221,-0.062 4.801,0.318 2.1643,-0.068 -2.2588,0.356 0.3086,-0.2397 1.235,-0.1365 2.2712,-0.4097 3.3957,0.2045 4.221,-1.0839 5.7539,4.8855 1.5328,5.9694 v 0 c -0.9834,0.7476 -2.1219,0.2563 -3.2862,0.2065 -1.1369,-0.2338 -2.3832,-0.3383 -3.4891,-0.2418 -3.4269,0.7176 2.4121,0.076 -1.5649,0.3134 -2.0867,0.081 -4.1505,-0.076 -6.2402,-0.051 -1.7051,0.042 -3.4099,0.1458 -5.1095,0.2829 0.2234,0.021 0.8931,0.037 0.6703,0.063 -2.0344,0.2436 -4.168,-0.1035 -6.2018,-0.1509 -1.4006,-0.1805 -2.879,-0.2833 -4.2316,-0.3417 -0.329,0.2098 -0.3187,0.2258 -0.7777,0.3709 -0.2773,0.088 -0.7637,-0.056 -0.8433,0.2239 -0.068,0.2405 0.9445,0.071 0.7253,0.191 -0.2534,0.1393 -2.8885,0.2474 -3.0134,0.2542 -4.0413,0.054 -8.0826,-0.1752 -12.1232,-0.2082 -3.3364,-0.041 -6.6697,0.046 -9.9973,0.3182 -4.1947,0.5244 -9.0567,0.6589 -13.5161,0.9501 -5.8836,0.3916 -11.7761,0.6528 -17.6522,1.1471 -7.4416,0.6723 -14.8815,1.513 -22.3639,1.5224 -6.3258,0 -12.6457,-0.2767 -18.963,-0.5965 -4.0262,-0.01 -7.868,0.3092 -11.8672,0.6466 -6.513,0.4631 -13.0363,0.8721 -19.5703,0.7642 -5.8475,-0.1127 -11.6744,0.1606 -17.4955,0.7339 -8.3756,0.8588 -16.7569,1.2972 -25.1826,0.9241 -7.1315,-0.1983 -14.2636,-0.6122 -21.3999,-0.4461 -7.3223,0.6815 -14.7201,0.6117 -22.0595,0.9939 -11.1009,0.083 -22.2027,0.045 -33.2985,-0.3469 -7.4287,-0.1982 -14.8527,-0.6927 -22.2924,-0.4701 -8.0486,0.019 -16.086,-0.5456 -24.1364,-0.5069 -5.8872,0.041 -11.7745,0.1679 -17.6605,-0.01 -6.7608,-0.2806 -13.5219,-0.5823 -20.2881,-0.6918 -4.5451,-0.2782 -9.0952,-0.489 -13.6503,-0.3861 -5.3848,0.2278 -10.7647,0.6637 -16.1576,0.7838 -7.587,0.3675 -15.1738,0.81 -22.7719,0.8516 -8.3596,0.1388 -16.7077,0.5736 -25.0613,0.9283 -10.179,0.5331 -20.3689,0.5339 -30.5599,0.5711 -8.6719,-0.059 -17.3433,-0.2446 -26.0143,-0.01 -7.1965,0.1244 -14.4023,-0.2172 -21.5979,-0.3232 -6.6722,-0.2554 -13.3454,-0.4686 -20.0128,-0.8271 -5.2642,-0.015 -10.4756,0.5274 -15.73,0.7741 -8.1631,0.2952 -16.324,0.6834 -24.4917,0.8177 -8.6621,0.2925 -17.2855,1.5295 -25.9799,1.2101 -10.0658,0.3282 -20.1352,0.6793 -30.1343,1.9827 -12.2883,1.0833 -24.5911,1.9463 -36.9249,2.3064 -14.1732,0.7041 -28.3229,1.7656 -42.4831,2.6856 -15.8607,1.2177 -31.7515,2.6657 -47.6772,2.0333 -11.3596,-0.4968 -22.7372,-1.3344 -34.1018,-0.4406 -11.3869,0.5986 -22.7708,1.3163 -34.181,1.2554 -12.8271,0.1251 -25.66229,0.1945 -38.48331,-0.2813 -11.80415,-0.3444 -23.60832,-0.5945 -35.41879,-0.519 -13.36009,-0.092 -26.70676,-0.612 -39.98521,-2.1938 -13.36189,-1.1694 -26.74186,-2.3087 -40.17071,-2.1438 -18.10565,0.068 -36.21268,0.689 -54.31824,0.1378 -11.56023,-0.3517 -23.17007,-0.6571 -34.69355,-1.7151 -1.03103,-0.095 -2.03819,-0.3836 -3.06943,-0.4763 -2.25039,-0.2021 -4.51077,-0.2715 -6.76616,-0.4072 -11.43812,-0.375 -22.82285,0.2343 -34.07399,2.4899 -11.14002,2.0613 -22.4644,4.984 -33.85921,3.9687 -6.02813,2.6532 -9.7803,-5.8719 -3.75219,-8.5251 z"
       inkscape:connector-curvature="0" />
    <path
       style="fill:#424242;fill-opacity:1;stroke:none;stroke-width:0.26458332;stroke-opacity:1"
       id="path999"
       d="m 54.265496,47.131919 c 3.059562,9.952797 2.939449,20.60429 3.182951,30.930686 0.162136,10.27625 0.865163,20.531219 1.35823,30.793985 0.210992,10.51165 0.101129,21.02677 0.138983,31.54074 0.14759,10.62747 -0.104444,21.24555 -0.520949,31.86292 -0.199321,7.20382 -0.674322,14.39281 -1.03987,21.58759 -0.522002,4.76756 -0.276776,9.53096 -0.01453,14.30197 0.542288,6.19872 0.547854,12.42718 0.337217,18.64104 -0.29115,4.51509 -0.697889,8.98522 -0.234241,13.49552 0.85526,5.49391 1.21035,11.03189 1.42135,16.58128 0.267245,7.26899 0.153998,14.54077 -0.0013,21.81014 0.03096,7.4331 -0.03512,14.86233 -0.269388,22.29189 -0.381977,7.95602 -1.643158,15.82517 -2.731032,23.70425 -0.862608,7.01395 -1.99244,13.99413 -2.736004,21.02179 -0.654994,7.11176 -1.459693,14.20032 -2.372619,21.28242 -0.844672,4.34747 -0.204327,8.67936 0.189614,13.02578 0.762323,7.09731 0.208407,14.22307 -0.531781,21.29319 -0.617535,5.72034 -1.50623,11.40531 -1.511652,17.16865 0.177118,5.81597 0.630277,11.62294 1.124384,17.42006 0.530897,5.80642 0.422225,11.64109 0.746408,17.45589 0.366665,4.96112 0.717529,9.90777 0.824855,14.88384 0.373239,6.32021 -0.158523,12.5906 -1.131795,18.83109 -0.920973,5.45031 -1.678496,10.92491 -2.024949,16.44274 -0.169381,4.04953 0.386593,8.08508 0.792064,12.10617 0.787459,6.79294 0.655754,13.63324 0.937477,20.45181 0.368261,3.63887 0.530202,4.22675 -1.688687,7.02144 1.821133,2.70912 -2.010174,5.2846 -3.831304,2.57545 v 0 c -0.95876,-0.11716 -1.982737,0.0153 -2.87628,-0.35147 -3.277582,-1.34536 -4.193908,-5.04368 -5.125111,-8.03079 -1.177619,-7.47525 -0.624661,-14.16752 0.332718,-21.62025 0.396796,-3.928 0.463415,-7.75427 -0.549931,-11.61703 -0.937784,-6.34696 -0.861237,-12.73112 0.575014,-19.01521 1.145598,-5.50931 2.348415,-11.03259 2.293199,-16.6956 0.0181,-4.69847 -0.29587,-9.39771 -0.932966,-14.05398 -0.712814,-5.90947 -1.619181,-11.8055 -1.924568,-17.75487 -0.163695,-5.98455 0.151206,-11.96308 0.0045,-17.94769 -0.118861,-6.10608 -0.380312,-12.21676 0.04549,-18.31938 0.50722,-6.76153 1.285412,-13.49647 2.298324,-20.20109 0.452599,-4.51173 -0.132122,-8.87114 -0.856297,-13.33474 -0.5128,-7.71903 0.15182,-15.37472 2.04184,-22.89585 1.591185,-6.7029 2.578986,-13.48362 2.814854,-20.38032 0.685289,-7.68866 1.867329,-15.32007 2.511221,-23.01301 0.483651,-7.24607 0.902441,-14.49705 0.653643,-21.76367 -0.129207,-7.3096 -0.0784,-14.61913 0.487936,-21.91323 0.32675,-5.17029 0.82041,-10.36475 0.424016,-15.54397 -0.49621,-4.79318 -0.939553,-9.58914 -1.121849,-14.40696 -0.216154,-6.21694 -0.221115,-12.44921 0.321387,-18.65142 0.267528,-4.76949 0.542078,-9.53341 0.04329,-14.30224 -0.357145,-7.1784 -0.895871,-14.34905 -1.180465,-21.53246 -0.509461,-10.68913 -0.783715,-21.3837 -0.319366,-32.08312 0.331253,-10.3092 0.703078,-20.61976 0.268349,-30.93422 C 44.639483,99.054686 44.065115,88.835205 42.881034,78.658245 42.113935,68.174668 41.294412,57.274764 44.629223,47.131919 c 0,-6.813809 9.636178,-6.813809 9.636178,0 z"
       inkscape:connector-curvature="0" />
    <path
       style="fill:#424242;fill-opacity:1;stroke:none;stroke-width:0.26458332;stroke-opacity:1"
       id="path1001"
       d="m 45.151592,538.50312 c 3.793472,9.56154 4.321408,20.04147 5.542053,30.16292 1.335812,9.32074 2.240944,18.70946 2.992943,28.09507 0.395975,10.95362 0.732856,21.91004 1.083878,32.86575 0.347107,10.23771 0.318535,20.48211 0.430546,30.72418 0.372494,9.71508 -0.17237,19.38626 -1.407244,29.01728 -1.248752,5.12972 -1.351529,10.17336 -0.778312,15.37401 1.447112,8.12604 1.139185,16.25523 -0.0048,24.38292 -1.378132,7.4686 -2.733971,14.91649 -3.473847,22.47955 -0.661558,7.76335 -0.709313,15.56555 -0.972931,23.35017 -0.404487,6.44533 -0.665945,12.89158 -0.708837,19.34908 0.09915,6.07129 0.115689,12.12157 -0.353547,18.17825 -0.559932,5.76565 -1.719884,11.46361 -3.050222,17.09653 -0.875287,2.76958 -0.630558,5.33458 -0.07175,8.12311 1.289413,6.58958 1.160084,13.28936 0.896416,19.96056 -0.479441,6.88814 -0.953132,13.7768 -1.457812,20.66327 -0.354978,4.56697 -0.115159,9.14789 -0.0028,13.71989 -0.171466,5.01343 0.01873,10.01345 0.401725,15.01177 0.582041,5.18054 1.386649,10.33259 2.047245,15.50292 0.565486,4.70738 1.117566,9.40734 1.440214,14.13885 0.341567,4.92096 0.09611,9.84814 0.05001,14.77248 0.01892,3.52235 0.716542,6.97876 1.247019,10.44557 0.782851,5.16977 0.535529,10.39678 0.06639,15.57975 -0.317209,3.44146 -0.564274,6.88824 -0.790707,10.33658 -0.06067,3.24398 0.269737,6.481 0.507161,9.71333 0.240416,4.40129 0.09903,8.81189 0.07424,13.21709 0.168815,2.8291 -0.377045,5.6476 -0.140343,8.4704 0.528225,2.794 1.218369,5.5484 1.741289,8.3445 0.438176,2.685 0.409128,5.4243 0.292465,8.1351 -0.07896,1.8814 0.0032,3.7686 -0.132924,5.6472 -0.065,0.888 -0.416565,1.7182 -0.389146,2.6092 0.146216,1.0658 0.24063,2.1352 0.21351,3.2112 0.05666,0.4413 -0.205888,1.5054 -0.237058,1.6357 0.176265,1.8056 -0.404678,3.4661 -1.130705,5.0786 -0.275754,0.9657 -0.26811,1.9787 -0.404524,2.9773 -0.26452,1.1464 -0.312661,2.321 -0.585047,3.4643 -0.144065,0.5513 -0.331078,1.0754 -0.681649,1.5249 -2.281753,6.9392 -12.095225,3.7123 -9.813472,-3.2269 v 0 c -0.201054,0.035 -0.06599,0.047 -0.223753,0.047 -0.113443,-0.8125 -0.175554,-2.113 -0.05006,-3.1025 0.239631,-1.7736 0.57422,-3.5315 1.140132,-5.2335 0.223769,-0.5967 0.835382,-2.9059 1.069377,-1.1391 0.186267,-0.663 -0.432289,-1.3454 -0.234325,-2.0988 -0.0091,-0.9206 0.07339,-1.8316 0.204404,-2.7424 -0.06595,-1.1023 -0.489342,-2.1596 -0.484789,-3.2742 -0.01971,-1.7469 0.231651,-3.4623 0.355587,-5.2012 -0.276259,-2.1328 -0.995616,-4.1842 -1.354418,-6.3025 -0.649073,-3.2697 -1.140886,-6.5577 -1.251894,-9.8951 -0.04879,-2.8355 -0.597649,-5.5776 -0.924579,-8.3905 -0.451244,-4.5787 -0.497946,-9.1835 -0.205689,-13.77631 0.246753,-3.16389 0.594248,-6.3422 0.392083,-9.51781 -0.348827,-3.61576 -0.60256,-7.23892 -0.679445,-10.87215 -0.132405,-4.77377 0.01061,-9.54069 0.409615,-14.30051 0.03964,-3.66065 -0.984676,-7.11492 -1.652307,-10.69306 -0.557186,-4.97303 -0.381233,-9.96043 -0.418812,-14.95706 -0.05251,-4.04397 0.229354,-8.19705 -0.799253,-12.14045 -1.873126,-5.76602 -3.48991,-11.62363 -3.345005,-17.75513 0.16865,-5.08461 0.610788,-10.15939 0.511841,-15.25236 0.12182,-4.47596 0.116774,-8.95683 -0.645239,-13.38596 -0.881107,-7.32313 -1.117685,-14.70387 -0.371949,-22.05691 0.711703,-6.05605 1.754347,-12.06225 2.504877,-18.10832 0.24538,-3.43366 -0.662795,-6.75873 -0.661506,-10.19355 0.04955,-5.72868 1.046237,-11.32967 1.969119,-16.96852 0.635212,-5.60171 0.805897,-11.22624 0.559604,-16.86158 -0.216865,-6.61268 -0.663411,-13.21615 -0.747836,-19.83264 0.121581,-8.15985 0.381042,-16.32405 1.330751,-24.43691 0.899279,-7.63381 2.037574,-15.23339 3.250448,-22.82336 0.917578,-7.42817 1.739241,-14.87368 2.321663,-22.33599 0.3141,-5.47762 -0.0063,-10.89779 -0.51041,-16.36122 -0.149569,-9.4845 0.156123,-18.96383 0.511855,-28.4421 0.297312,-10.003 0.07917,-19.98287 -0.836599,-29.9561 -0.703744,-11.04667 -1.005242,-22.12523 -0.440418,-33.18748 0.304136,-9.21795 -0.06877,-17.73283 -1.641538,-26.84857 -1.537973,-10.56132 -3.0269,-21.70713 0.92098,-31.92701 0.135332,-5.36559 7.723433,-5.17421 7.588102,0.19138 z"
       inkscape:connector-curvature="0" />
  </g>
</svg>
