<?xml version="1.0" encoding="UTF-8" standalone="no"?>
<!-- Created with Inkscape (http://www.inkscape.org/) -->

<svg
   xmlns:dc="http://purl.org/dc/elements/1.1/"
   xmlns:cc="http://creativecommons.org/ns#"
   xmlns:rdf="http://www.w3.org/1999/02/22-rdf-syntax-ns#"
   xmlns:svg="http://www.w3.org/2000/svg"
   xmlns="http://www.w3.org/2000/svg"
   xmlns:sodipodi="http://sodipodi.sourceforge.net/DTD/sodipodi-0.dtd"
   xmlns:inkscape="http://www.inkscape.org/namespaces/inkscape"
   width="512"
   height="512"
   viewBox="0 0 135.46667 135.46667"
   version="1.1"
   id="svg8"
   inkscape:version="0.92.4 (5da689c313, 2019-01-14)"
   sodipodi:docname="shard.svg"
   inkscape:export-filename="C:\Users\panu-\PycharmProjects\nextgame\data\images\shard.png"
   inkscape:export-xdpi="10.923292"
   inkscape:export-ydpi="10.923292">
  <defs
     id="defs2" />
  <sodipodi:namedview
     id="base"
     pagecolor="#ffffff"
     bordercolor="#666666"
     borderopacity="1.0"
     inkscape:pageopacity="0.0"
     inkscape:pageshadow="2"
     inkscape:zoom="0.49481547"
     inkscape:cx="523.21556"
     inkscape:cy="285.27969"
     inkscape:document-units="mm"
     inkscape:current-layer="layer1"
     showgrid="false"
     units="px"
     width="1024px"
     inkscape:window-width="1920"
     inkscape:window-height="1017"
     inkscape:window-x="-8"
     inkscape:window-y="-8"
     inkscape:window-maximized="1"
     inkscape:pagecheckerboard="true" />
  <metadata
     id="metadata5">
    <rdf:RDF>
      <cc:Work
         rdf:about="">
        <dc:format>image/svg+xml</dc:format>
        <dc:type
           rdf:resource="http://purl.org/dc/dcmitype/StillImage" />
        <dc:title></dc:title>
      </cc:Work>
    </rdf:RDF>
  </metadata>
  <g
     inkscape:label="lines"
     inkscape:groupmode="layer"
     id="layer1"
     transform="translate(0,-161.53332)"
     style="display:inline">
    <path
       style="fill:#ffffff;fill-opacity:1;stroke:none;stroke-width:0.26458332;stroke-opacity:1"
       id="path820"
       d="m 43.210117,205.98098 c -0.106868,1.32271 -0.406972,2.61955 -0.604562,3.92973 -0.148971,0.98778 -0.227984,1.7558 -0.342935,2.7544 -0.294973,4.08776 -0.94661,8.12398 -1.784268,12.13176 -1.116375,5.17261 -2.96002,10.12898 -4.851328,15.05577 -1.141442,2.67006 -1.970609,5.31077 -2.550594,8.1474 -0.334971,1.84833 -0.790165,3.66588 -1.546005,5.38806 -0.333878,0.64668 -0.715481,1.29049 -1.250823,1.79322 -0.07512,0.2619 -0.102061,0.55912 -0.163016,0.83421 -0.06513,0.41046 -0.310843,0.7575 -0.435517,1.14526 -0.08393,0.61085 -0.147349,1.22422 -0.237535,1.83471 -0.117575,0.88032 -0.337743,1.74174 -0.489582,2.61579 -0.117904,0.9212 -0.161785,1.84668 -0.305422,2.76498 -0.168169,1.07465 -0.544994,2.09475 -0.925261,3.10795 -0.272828,0.74798 -0.283229,1.5556 -0.356135,2.34008 -0.09223,1.33986 -0.468145,2.61867 -1.296367,3.68369 -0.618354,0.61742 -1.148356,1.00497 -2.185084,0.66737 -0.531329,-0.17302 -0.632011,-0.93304 -0.59637,-1.37804 -0.06062,-1.13709 2.72594,-0.38846 2.120246,0.44949 -0.503395,-0.44987 -1.075962,-0.83266 -1.510185,-1.34962 -0.06294,-0.0749 0.168689,-0.0996 0.256261,-0.14321 0.109185,-0.0545 0.221307,-0.10288 0.333484,-0.15085 0.443338,-0.18961 0.859998,-0.386 1.284712,-0.61741 2.185983,-1.43399 4.375487,-2.8525 6.632351,-4.17401 2.789407,-1.56855 5.542992,-3.19763 8.24194,-4.91713 2.665212,-1.70567 5.279829,-3.4877 7.926657,-5.22148 2.273729,-1.49481 4.627841,-2.86097 6.953245,-4.27243 1.878645,-1.15339 3.853146,-2.13276 5.85256,-3.05578 1.2755,-0.5935 2.51856,-1.25383 3.829806,-1.76656 0.526891,-0.15657 1.099947,-0.41447 1.665814,-0.36221 -0.353486,0.31648 0.30384,-0.37175 0.343683,-0.41157 0.543994,-0.53138 1.200351,-0.91544 1.87501,-1.25449 0.569558,-0.26489 1.159174,-0.49367 1.772539,-0.63301 0.100661,0.0123 0.547621,-0.17515 0.604739,-0.0769 -0.0053,0.008 -0.02416,0.0277 -0.01595,0.0232 0.124926,-0.0698 0.234016,-0.22204 0.338497,-0.31456 0.211998,-0.16458 0.43284,-0.31515 0.66511,-0.44944 0.19876,-0.11948 0.409562,-0.21476 0.617006,-0.31701 0.07387,-0.0237 0.166756,-0.10453 0.246951,-0.15556 0.18646,-0.11415 0.331854,-0.31255 0.546801,-0.38098 0.283705,-0.19489 0.0075,0.0424 0.195533,-0.0928 0.610264,3.37046 -0.0016,2.71181 1.57046,-0.24436 0.01865,-0.0351 0.08443,0.0419 0.08689,0.0816 0.0019,0.0308 -0.05253,0.0325 -0.0788,0.0488 -1.401217,0.6092 -1.00607,0.55859 -0.267639,0.60182 0.193138,-0.31494 0.638524,-0.0418 0.445386,0.27313 v 0 c 0.358135,0.82148 0.663715,0.42865 -0.761841,1.22797 -0.08292,0.0149 -0.166026,0.0289 -0.248759,0.0448 -0.05861,0.0113 -0.190899,0.0944 -0.175212,0.0368 0.23381,-0.8583 0.551974,-1.69167 0.853948,-2.52842 0.0076,-0.0211 0.04311,-0.0124 0.06491,-0.0177 0.02934,-0.007 0.07942,-0.048 0.08846,-0.0192 0.241052,0.76722 0.424429,1.55138 0.636643,2.32707 -0.0815,0.11867 -0.177522,0.24648 -0.300672,0.33954 -0.158128,0.13796 -0.300903,0.2032 -0.439169,0.34194 -0.270393,0.24372 -0.573622,0.41734 -0.900462,0.57554 -0.334891,0.11198 -0.05765,-0.0229 -0.250346,0.0724 -0.157162,0.1055 -0.320653,0.20148 -0.482692,0.28825 -0.256813,0.11518 -0.436923,0.37123 -0.690219,0.49869 -0.271782,0.16207 -0.546798,0.31551 -0.834808,0.44775 -0.452128,0.20235 -0.934847,0.32657 -1.377148,0.55274 -0.548846,0.27588 -1.082119,0.57972 -1.617282,0.88098 -0.41797,0.21899 -0.842089,0.41741 -1.230069,0.69467 -0.336981,0.17215 -0.696081,0.29937 -1.017836,0.50158 -1.133541,0.73882 -2.204672,1.56974 -3.368976,2.26231 -1.81845,1.07082 -3.76836,1.88981 -5.560926,3.00622 -2.235173,1.45122 -4.235889,3.22937 -6.47121,4.68353 -2.669993,1.77202 -5.399913,3.44578 -8.160988,5.0722 -2.763875,1.73183 -5.413844,3.64826 -8.285218,5.20439 -2.527475,1.32543 -5.124887,2.55776 -7.891661,3.30033 -0.383307,0.09 -1.911158,0.48667 -2.310285,0.21937 -0.602222,-0.40332 -1.181929,-0.83928 -1.772894,-1.25892 0.0115,-1.00099 1.847689,0.55218 2.221614,0.24875 -0.07194,-0.17722 -0.224819,-0.58378 -0.509111,-0.64603 -0.405734,-0.0888 -0.827867,0.0684 -1.241801,0.10265 -0.0526,0.0432 -0.09031,0.1206 -0.157786,0.12973 -0.03629,0.005 0.0057,-0.073 0.0085,-0.10954 0.271289,-1.01199 0.687162,-1.97977 0.95109,-2.99462 0.230729,-0.8179 0.419781,-1.64402 0.511103,-2.49053 0.17154,-1.03011 0.433127,-2.04203 0.724732,-3.04423 0.235697,-0.81992 0.478341,-1.6398 0.4924,-2.5009 0.05597,-0.97002 0.153061,-1.93997 0.430286,-2.87598 0.199533,-0.66046 0.441016,-1.30548 0.654275,-1.96129 0.119825,-0.35035 0.253233,-0.69467 0.38295,-1.04144 0.118539,-0.3418 0.221546,-0.68981 0.304189,-1.04153 0.159718,-0.63832 0.287078,-1.28476 0.472242,-1.91679 0.406815,-1.62931 0.802124,-3.26752 0.942795,-4.94583 0.23672,-3.01864 0.410146,-6.05321 1.105574,-9.01215 0.176877,-0.74826 0.336397,-1.50085 0.53063,-2.2448 1.128427,-4.32208 2.750421,-8.48561 4.22256,-12.69622 1.298059,-3.77543 2.556861,-7.57123 3.353403,-11.49048 0.573542,-2.4099 1.095327,-5.0159 2.878637,-6.85766 0.495808,-1.14134 2.109907,-0.44016 1.614099,0.70118 z"
       inkscape:connector-curvature="0" />
    <path
       style="fill:#ffffff;fill-opacity:1;stroke:none;stroke-width:0.26458332;stroke-opacity:1"
       id="path826"
       d="m 41.596563,205.83534 c 0.105318,-1.23459 0.764665,-2.31275 1.676998,-3.12124 0.363612,-0.29869 0.786559,-0.45411 1.234239,-0.56638 0.316672,-0.16068 0.653582,-0.26415 0.995553,-0.3547 0.601737,-0.1108 1.217658,-0.0446 1.825051,-0.0455 0.799907,-0.0248 1.419249,0.47232 1.94024,1.02033 0.542811,0.64002 0.928473,1.38487 1.28469,2.1391 0.228121,0.4866 0.395017,0.99634 0.579387,1.49969 0.02726,0.0246 0.112715,0.0329 0.221432,0.0875 0.221607,0.13351 0.445828,0.2508 0.686446,0.3483 0.192185,0.0235 0.968888,-0.15076 0.170444,0.0312 0.102884,0.0855 0.205764,0.1709 0.308647,0.25635 1.004777,-0.32035 1.457826,1.10061 0.453046,1.42097 v 0 c -0.05831,0.0965 -0.116623,0.19293 -0.174934,0.28939 -0.823296,0.10474 -1.351439,0.1727 -2.069314,-0.27562 -0.230381,-0.13689 -0.440227,-0.30365 -0.67804,-0.42756 -0.351144,-0.20703 -0.669158,-0.45858 -0.904849,-0.79671 -0.357073,-0.49745 -0.611237,-1.04587 -0.83354,-1.61538 -0.250201,-0.61161 -0.509392,-1.2226 -0.818486,-1.80676 -0.183772,-0.31888 -0.298969,-0.45548 -0.687612,-0.45458 -0.21499,-0.0225 -0.430083,-0.0433 -0.645126,-0.0648 -0.06135,-0.006 -0.237826,0.0157 -0.184367,-0.015 0.07381,-0.0424 0.175577,0.008 0.254146,-0.0251 0.04586,-0.0191 -0.09856,-0.0128 -0.147836,-0.0192 -0.29926,-0.032 -0.576871,0.0626 -0.85438,0.16918 -0.23894,0.0725 -0.362167,-0.0192 -0.431943,0.19226 -0.420044,0.94381 -0.802277,1.92517 -1.500068,2.70699 -0.404947,1.20196 -2.104771,0.62927 -1.699824,-0.57268 z"
       inkscape:connector-curvature="0" />
    <path
       style="fill:#ffffff;fill-opacity:1;stroke:none;stroke-width:0.26458332;stroke-opacity:1"
       id="path830"
       d="m 71.245869,243.48067 c 0.84817,-2.10528 2.472201,-3.88945 4.250018,-5.26971 0.352497,-0.27367 0.731732,-0.51105 1.0976,-0.76657 1.222013,-0.71838 2.635264,-1.38976 4.096322,-1.02828 0.146108,0.0361 0.250989,0.16621 0.376483,0.24931 0.05385,0.0295 0.565293,0.61009 0.486238,0.6694 -0.03256,0.0244 -0.04615,-0.0982 -0.08538,-0.0873 -0.571905,0.15849 -1.122709,0.3851 -1.684062,0.57765 -0.193199,-0.37436 -0.12273,-0.15363 -0.433163,-0.25736 -0.211127,-0.0705 -0.433882,-0.20016 -0.626422,-0.30139 -1.201552,-0.64199 -2.284643,-1.48326 -3.34496,-2.33239 -1.292514,-1.06918 -2.392434,-2.33895 -3.586666,-3.51149 -1.359214,-1.3379 -2.719728,-2.67565 -4.033996,-4.058 0.291592,0.1228 -0.984297,-0.92885 -0.715804,-0.90783 0.535962,0.042 1.128869,0.4753 1.598568,0.21377 1.185156,-0.65989 1.1425,-1.23384 1.164836,-2.07538 0.08349,0.0203 0.0971,0.008 0.147127,0.0972 0.03128,0.0558 0.01947,0.10413 -0.0604,0.0685 -0.105402,-0.0471 -0.187939,-0.18389 -0.302366,-0.16876 -0.721852,0.0955 -1.419122,0.32686 -2.128684,0.49029 0.694907,-1.18231 1.978951,-1.75584 3.158183,-2.34658 1.836272,-0.8362 3.620482,-1.77115 5.375431,-2.76494 2.171229,-1.25555 4.254527,-2.65309 6.368063,-4.00129 2.431013,-1.59013 5.089404,-2.74707 7.807116,-3.74282 1.290357,-0.50956 2.681076,-0.81009 3.902996,-1.48326 0.574434,-0.44933 1.064358,-0.98487 1.652021,-1.42062 0.346422,-0.27129 0.761897,-0.39364 1.158412,-0.55644 0.887595,-0.33842 0.158382,-0.11822 -0.761198,1.69621 -0.09657,0.19054 0.175136,0.33613 -0.06527,0.48183 -0.878824,0.0227 -1.761365,-0.0526 -2.64001,-0.0917 -2.009962,-0.12263 -4.020267,-0.15208 -6.033143,-0.11297 -2.388507,0.10958 -4.801139,0.0175 -7.206355,-0.0221 -2.305709,-0.0726 -4.584692,-0.42332 -6.816114,-0.99598 -1.447813,-0.45468 -2.892607,-0.91002 -4.35292,-1.32314 -1.200234,-0.33817 -2.404821,-0.65634 -3.62137,-0.92981 -0.502682,-0.10174 -1.010621,-0.16812 -1.523392,-0.18296 -0.143734,-0.004 -0.575079,0.004 -0.431381,-0.001 0.350178,-0.0128 1.158345,-7.9e-4 0.205747,-0.0113 -1.282906,0.0648 -2.559235,0.1386 -3.844398,0.16021 -1.039593,0.0195 -2.079064,-0.0176 -3.117895,-0.0532 -0.149926,-0.005 -0.596347,0.0157 -0.449778,-0.0163 0.200115,-0.0437 0.413369,0.0208 0.614177,-0.0196 0.129892,-0.0261 -0.264499,-0.016 -0.396743,-0.0241 -0.333063,-0.0204 -0.666234,-0.0379 -0.999326,-0.0578 -0.965007,-0.0514 -1.932342,-0.01 -2.896285,-0.0805 -0.932667,-0.0649 -1.856412,-0.22436 -2.776889,-0.38358 -0.219483,-0.0386 -0.391838,-0.0642 -0.605131,-0.11756 -0.05596,-0.014 -0.222769,-0.0426 -0.16559,-0.0503 0.296995,-0.0396 0.601948,0.001 0.897641,-0.0475 0.03929,-0.006 0.04903,-0.0682 0.05115,-0.10792 0.05862,-1.09729 0.08706,-2.196 0.130593,-3.29399 0.577681,0.37342 -0.778901,1.1782 -1.00049,1.4309 0.03528,-0.93254 1.354098,-0.88265 1.318816,0.0499 v 0 c -0.475583,0.6829 -0.671862,1.70233 -1.540219,1.73188 -0.04321,-1.10965 -0.146249,-2.21857 -0.12963,-3.32894 0.0038,-0.25324 2.156111,-0.20031 2.573655,-0.17024 0.870545,0.1082 1.726938,0.2891 2.587731,0.45551 0.191442,0.0271 0.382185,0.0596 0.574217,0.0822 0.0754,0.009 0.302826,0.0168 0.226946,0.0192 -1.567145,0.0505 -0.594743,-0.0184 -0.26099,-0.0287 1.107824,-0.0888 2.2133,-0.15462 3.326265,-0.14465 1.035764,-0.0187 2.071714,-0.008 3.106224,0.0514 -0.201335,0.0101 -0.408927,-0.0206 -0.604007,0.0302 -0.130556,0.034 0.269272,0.0183 0.404133,0.0219 0.56388,0.015 1.121177,-0.0804 1.677638,-0.15876 1.655397,-0.22331 3.343868,-0.15764 4.969629,0.22519 1.2211,0.30014 2.414976,0.70124 3.645493,0.96444 1.492758,0.31479 2.98382,0.63565 4.48528,0.90754 1.977345,0.39707 3.960738,0.8168 5.989201,0.80636 -0.525426,0.005 0.281757,-0.002 0.993664,-0.0243 1.667004,-0.0522 3.309196,-0.11283 4.981379,-0.0861 0.437946,0.007 0.875165,0.0383 1.312748,0.0574 2.08891,0.16844 4.170839,0.43227 6.211983,0.92044 1.093068,0.27194 2.214906,0.52813 3.201506,1.09214 0.405307,0.29845 0.751112,0.5848 0.995127,1.03797 0.06531,0.12128 0.19613,0.25294 0.153154,0.38381 -0.226997,0.69125 -0.659262,1.29949 -0.927955,1.97563 -0.02344,0.059 0.11584,-0.0519 0.17376,-0.0778 0.13638,-0.0679 -0.366937,0.27694 -0.368615,0.29131 -0.513143,0.40963 -0.895066,0.93919 -1.304107,1.44781 -1.12577,1.2623 -2.51424,2.19837 -4.011819,2.97768 -2.405195,1.2609 -4.906653,2.32077 -7.305577,3.59331 -2.241844,1.2407 -4.411808,2.6022 -6.647764,3.853 -1.939412,1.05751 -3.934765,2.03297 -6.05708,2.66964 -0.657675,0.18985 -1.313662,0.38041 -1.990344,0.49223 -0.07017,0.0116 -0.390308,0.11088 -0.482262,-0.0346 -0.03053,-0.0483 -0.01146,-0.11371 -0.01717,-0.17057 -0.764278,0.25205 -1.504638,0.5937 -2.292839,0.75615 -0.146143,0.0301 -0.266642,-0.13403 -0.3999,-0.20116 -0.430098,-0.21669 -0.774715,-0.46928 -0.987803,-0.92175 -0.315838,-1.02912 -0.699434,-1.69023 0.898395,-2.67414 0.656545,-0.40429 2.241479,0.29326 2.883903,0.73926 0.232116,0.16114 0.443029,0.35086 0.664541,0.5263 1.433851,1.35179 2.648397,2.8982 3.821623,4.47808 0.92175,1.20094 1.952471,2.31282 3.099157,3.30395 1.031113,0.89389 2.143705,1.72081 3.012779,2.78065 0.315298,0.42224 1.056542,1.47815 0.862446,2.02746 -3.011223,1.64929 -1.04117,1.23574 -1.724403,0.75573 -0.01172,-0.008 -0.155573,-0.0525 -0.180806,-0.0371 0.08406,0.23935 -0.04859,-0.0735 0.514599,0.0806 0.04829,0.0132 -0.08555,0.0528 -0.123574,0.0854 -0.09927,0.085 -0.193699,0.17565 -0.287454,0.26674 -0.322342,0.31317 -0.813548,0.82097 -1.106188,1.12034 -1.835777,1.874 -3.696629,3.82416 -6.028389,5.0795 -0.856059,1.21639 -2.576298,0.006 -1.720238,-1.21065 z"
       inkscape:connector-curvature="0" />
    <path
       style="fill:#cccccc;fill-opacity:1;stroke:none;stroke-width:1.01047766;stroke-opacity:1"
       d="m 172.82877,153.57075 c -8.13797,-0.16269 -9.7569,8.94182 -13.13819,14.46049 -5.78994,20.55523 -5.21842,42.32401 -9.94689,63.13907 -6.95029,36.76006 -24.57656,70.37032 -32.37227,106.91241 -2.38934,8.43804 -8.63941,15.31072 -9.6808,24.28925 -2.95914,13.7376 -3.68757,27.89109 -8.37016,41.2486 -2.446548,4.93559 1.9306,12.45413 7.68318,9.10614 36.96915,-20.78953 71.61307,-45.40766 108.23559,-66.75271 13.0389,-6.88711 26.1297,-14.22046 40.17636,-18.65437 4.58151,-4.56468 10.89908,-6.01927 15.79265,-9.99031 2.35992,-3.76052 2.73651,-8.59765 6.11616,-11.96785 4.92502,-7.01593 11.34402,-12.80992 18.60305,-17.21562 4.72945,-5.57121 -2.63341,-10.32605 -6.64902,-13.33356 -11.87907,-10.93636 -23.73165,-22.0472 -33.63786,-34.67202 3.44813,-2.35292 8.5997,-1.95255 12.30533,-4.34979 27.81906,-11.90447 50.50223,-32.69683 79.65012,-41.61905 4.41813,-0.82154 10.74191,-5.5547 6.29754,-10.08341 -4.48431,-3.8728 -11.60573,-1.60876 -17.11033,-2.63902 -22.37307,-1.25219 -45.58607,1.60679 -66.99818,-6.55603 -15.47384,-5.59919 -31.92624,-7.1537 -48.27767,-6.43773 -7.34539,0.76102 -15.75811,-1.39653 -22.37659,2.42389 -0.81857,2.90661 -3.07605,4.50886 -5.7767,2.11964 -8.12616,-4.48116 -7.5307,-19.04303 -18.64449,-19.37868 -0.62505,-0.0559 -1.25375,-0.0703 -1.88083,-0.0493 z m 24.78433,20.61217 c 0.008,-0.21879 0.18536,-0.81187 0,0 z"
       id="path832"
       inkscape:connector-curvature="0"
       transform="matrix(0.26458333,0,0,0.26458333,0,161.53332)" />
  </g>
</svg>
